# Asteroid shape model (convexinv -> dual reconstruction)
v -0.81329670 -0.32462320 0.21428571
v -0.74722657 -0.32462320 0.14285714
v -0.74722657 -0.39069333 0.21428571
v -0.74722657 -0.39069333 0.35714286
v -0.81329670 -0.32462320 0.35714286
v -0.74722657 -0.39069333 0.50000000
v -0.81329670 -0.32462320 0.50000000
v -0.74722657 -0.39069333 0.64285714
v -0.81329670 -0.32462320 0.64285714
v -0.74722657 -0.32462320 0.71428571
v -0.81329670 -0.19248295 0.21428571
v -0.74722657 -0.19248295 0.14285714
v -0.81329670 -0.19248295 0.35714286
v -0.81329670 -0.19248295 0.50000000
v -0.81329670 -0.19248295 0.64285714
v -0.74722657 -0.19248295 0.71428571
v -0.81329670 -0.06034269 0.07142857
v -0.74722657 -0.06034269 0.00000000
v -0.74722657 -0.12641282 0.07142857
v -0.81329670 -0.06034269 0.21428571
v -0.81329670 -0.06034269 0.35714286
v -0.81329670 -0.06034269 0.50000000
v -0.81329670 -0.06034269 0.64285714
v -0.74722657 -0.06034269 0.71428571
v -0.81329670 0.07179757 0.07142857
v -0.74722657 0.07179757 0.00000000
v -0.81329670 0.07179757 0.21428571
v -0.81329670 0.07179757 0.35714286
v -0.81329670 0.07179757 0.50000000
v -0.81329670 0.07179757 0.64285714
v -0.74722657 0.07179757 0.71428571
v -0.74722657 0.13786770 0.07142857
v -0.81329670 0.20393783 0.21428571
v -0.74722657 0.20393783 0.14285714
v -0.81329670 0.20393783 0.35714286
v -0.81329670 0.20393783 0.50000000
v -0.81329670 0.20393783 0.64285714
v -0.74722657 0.20393783 0.71428571
v -0.74722657 0.27000796 0.21428571
v -0.81329670 0.33607809 0.35714286
v -0.74722657 0.33607809 0.28571429
v -0.81329670 0.33607809 0.50000000
v -0.74722657 0.33607809 0.57142857
v -0.74722657 0.27000796 0.64285714
v -0.74722657 0.40214822 0.35714286
v -0.74722657 0.40214822 0.50000000
v -0.68115644 -0.45676346 0.21428571
v -0.61508631 -0.45676346 0.14285714
v -0.61508631 -0.52283359 0.21428571
v -0.61508631 -0.52283359 0.35714286
v -0.68115644 -0.45676346 0.35714286
v -0.61508631 -0.52283359 0.50000000
v -0.68115644 -0.45676346 0.50000000
v -0.61508631 -0.52283359 0.64285714
v -0.68115644 -0.45676346 0.64285714
v -0.61508631 -0.45676346 0.71428571
v -0.68115644 -0.32462320 0.07142857
v -0.61508631 -0.32462320 0.00000000
v -0.61508631 -0.39069333 0.07142857
v -0.61508631 -0.32462320 0.71428571
v -0.68115644 -0.19248295 0.07142857
v -0.61508631 -0.19248295 0.00000000
v -0.61508631 -0.25855308 0.78571429
v -0.68115644 -0.19248295 0.78571429
v -0.61508631 -0.19248295 0.85714286
v -0.61508631 -0.06034269 0.00000000
v -0.68115644 -0.06034269 0.78571429
v -0.61508631 -0.06034269 0.85714286
v -0.61508631 0.07179757 0.00000000
v -0.68115644 0.07179757 0.78571429
v -0.61508631 0.07179757 0.85714286
v -0.68115644 0.20393783 0.07142857
v -0.61508631 0.20393783 0.00000000
v -0.68115644 0.20393783 0.78571429
v -0.61508631 0.20393783 0.85714286
v -0.68115644 0.33607809 0.07142857
v -0.61508631 0.33607809 0.00000000
v -0.68115644 0.33607809 0.21428571
v -0.68115644 0.33607809 0.64285714
v -0.61508631 0.33607809 0.71428571
v -0.61508631 0.27000796 0.78571429
v -0.61508631 0.40214822 0.07142857
v -0.61508631 0.40214822 0.21428571
v -0.61508631 0.40214822 0.35714286
v -0.61508631 0.40214822 0.50000000
v -0.61508631 0.40214822 0.64285714
v -0.54901618 -0.58890372 0.21428571
v -0.48294605 -0.58890372 0.14285714
v -0.48294605 -0.65497385 0.21428571
v -0.48294605 -0.65497385 0.35714286
v -0.54901618 -0.58890372 0.35714286
v -0.48294605 -0.65497385 0.50000000
v -0.54901618 -0.58890372 0.50000000
v -0.48294605 -0.65497385 0.64285714
v -0.54901618 -0.58890372 0.64285714
v -0.48294605 -0.58890372 0.71428571
v -0.54901618 -0.45676346 0.07142857
v -0.48294605 -0.45676346 0.00000000
v -0.48294605 -0.52283359 0.07142857
v -0.48294605 -0.45676346 0.71428571
v -0.48294605 -0.32462320 0.00000000
v -0.48294605 -0.39069333 0.78571429
v -0.54901618 -0.32462320 0.78571429
v -0.48294605 -0.32462320 0.85714286
v -0.54901618 -0.19248295 -0.07142857
v -0.48294605 -0.19248295 -0.14285714
v -0.48294605 -0.25855308 -0.07142857
v -0.48294605 -0.19248295 0.85714286
v -0.54901618 -0.06034269 -0.07142857
v -0.48294605 -0.06034269 -0.14285714
v -0.48294605 -0.06034269 0.85714286
v -0.54901618 0.07179757 -0.07142857
v -0.48294605 0.07179757 -0.14285714
v -0.48294605 0.07179757 0.85714286
v -0.54901618 0.20393783 -0.07142857
v -0.48294605 0.20393783 -0.14285714
v -0.48294605 0.20393783 0.85714286
v -0.48294605 0.27000796 -0.07142857
v -0.48294605 0.33607809 0.00000000
v -0.54901618 0.33607809 0.78571429
v -0.48294605 0.33607809 0.85714286
v -0.54901618 0.46821835 0.07142857
v -0.48294605 0.46821835 0.00000000
v -0.54901618 0.46821835 0.21428571
v -0.54901618 0.46821835 0.35714286
v -0.54901618 0.46821835 0.50000000
v -0.48294605 0.46821835 0.57142857
v -0.48294605 0.40214822 0.64285714
v -0.48294605 0.40214822 0.78571429
v -0.48294605 0.53428847 0.07142857
v -0.48294605 0.53428847 0.21428571
v -0.48294605 0.53428847 0.35714286
v -0.48294605 0.53428847 0.50000000
v -0.41687592 -0.58890372 0.07142857
v -0.35080579 -0.58890372 0.00000000
v -0.35080579 -0.65497385 0.07142857
v -0.35080579 -0.65497385 0.21428571
v -0.35080579 -0.65497385 0.35714286
v -0.35080579 -0.65497385 0.50000000
v -0.35080579 -0.65497385 0.64285714
v -0.35080579 -0.58890372 0.71428571
v -0.35080579 -0.45676346 0.00000000
v -0.35080579 -0.45676346 0.71428571
v -0.41687592 -0.32462320 -0.07142857
v -0.35080579 -0.32462320 -0.14285714
v -0.35080579 -0.39069333 -0.07142857
v -0.35080579 -0.39069333 0.78571429
v -0.35080579 -0.32462320 0.85714286
v -0.35080579 -0.19248295 -0.14285714
v -0.35080579 -0.19248295 0.85714286
v -0.41687592 -0.06034269 -0.21428571
v -0.35080579 -0.06034269 -0.28571429
v -0.35080579 -0.12641282 -0.21428571
v -0.35080579 -0.06034269 0.85714286
v -0.41687592 0.07179757 -0.21428571
v -0.35080579 0.07179757 -0.28571429
v -0.35080579 0.07179757 0.85714286
v -0.35080579 0.13786770 -0.21428571
v -0.35080579 0.20393783 -0.14285714
v -0.35080579 0.20393783 0.85714286
v -0.41687592 0.33607809 -0.07142857
v -0.35080579 0.33607809 -0.14285714
v -0.35080579 0.33607809 0.85714286
v -0.35080579 0.40214822 -0.07142857
v -0.35080579 0.46821835 0.00000000
v -0.35080579 0.40214822 0.64285714
v -0.35080579 0.46821835 0.57142857
v -0.35080579 0.40214822 0.78571429
v -0.35080579 0.53428847 0.07142857
v -0.35080579 0.53428847 0.21428571
v -0.35080579 0.53428847 0.35714286
v -0.35080579 0.53428847 0.50000000
v -0.21866554 -0.58890372 0.00000000
v -0.21866554 -0.65497385 0.07142857
v -0.21866554 -0.65497385 0.21428571
v -0.21866554 -0.65497385 0.35714286
v -0.21866554 -0.65497385 0.50000000
v -0.21866554 -0.65497385 0.64285714
v -0.21866554 -0.58890372 0.71428571
v -0.21866554 -0.45676346 0.00000000
v -0.21866554 -0.45676346 0.71428571
v -0.21866554 -0.32462320 -0.14285714
v -0.21866554 -0.39069333 -0.07142857
v -0.21866554 -0.39069333 0.78571429
v -0.21866554 -0.32462320 0.85714286
v -0.28473566 -0.19248295 -0.92857143
v -0.21866554 -0.19248295 -1.00000000
v -0.21866554 -0.25855308 -0.92857143
v -0.21866554 -0.25855308 -0.78571429
v -0.28473566 -0.19248295 -0.78571429
v -0.21866554 -0.25855308 -0.64285714
v -0.28473566 -0.19248295 -0.64285714
v -0.21866554 -0.25855308 -0.50000000
v -0.28473566 -0.19248295 -0.50000000
v -0.21866554 -0.25855308 -0.35714286
v -0.28473566 -0.19248295 -0.35714286
v -0.21866554 -0.25855308 -0.21428571
v -0.28473566 -0.19248295 -0.21428571
v -0.21866554 -0.19248295 0.85714286
v -0.28473566 -0.06034269 -0.92857143
v -0.21866554 -0.06034269 -1.00000000
v -0.28473566 -0.06034269 -0.78571429
v -0.28473566 -0.06034269 -0.64285714
v -0.28473566 -0.06034269 -0.50000000
v -0.28473566 -0.06034269 -0.35714286
v -0.21866554 -0.06034269 0.85714286
v -0.28473566 0.07179757 -0.92857143
v -0.21866554 0.07179757 -1.00000000
v -0.28473566 0.07179757 -0.78571429
v -0.28473566 0.07179757 -0.64285714
v -0.28473566 0.07179757 -0.50000000
v -0.28473566 0.07179757 -0.35714286
v -0.21866554 0.07179757 0.85714286
v -0.28473566 0.20393783 -0.92857143
v -0.21866554 0.20393783 -1.00000000
v -0.28473566 0.20393783 -0.78571429
v -0.28473566 0.20393783 -0.64285714
v -0.28473566 0.20393783 -0.50000000
v -0.28473566 0.20393783 -0.35714286
v -0.28473566 0.20393783 -0.21428571
v -0.21866554 0.13786770 0.92857143
v -0.28473566 0.20393783 0.92857143
v -0.21866554 0.20393783 1.00000000
v -0.28473566 0.33607809 -0.92857143
v -0.21866554 0.33607809 -1.00000000
v -0.28473566 0.33607809 -0.78571429
v -0.28473566 0.33607809 -0.64285714
v -0.28473566 0.33607809 -0.50000000
v -0.28473566 0.33607809 -0.35714286
v -0.28473566 0.33607809 -0.21428571
v -0.21866554 0.27000796 0.92857143
v -0.21866554 0.33607809 0.85714286
v -0.21866554 0.40214822 -0.92857143
v -0.21866554 0.40214822 -0.78571429
v -0.21866554 0.40214822 -0.64285714
v -0.21866554 0.40214822 -0.50000000
v -0.21866554 0.40214822 -0.35714286
v -0.21866554 0.40214822 -0.21428571
v -0.28473566 0.46821835 -0.07142857
v -0.21866554 0.46821835 -0.14285714
v -0.28473566 0.46821835 0.64285714
v -0.21866554 0.46821835 0.71428571
v -0.21866554 0.40214822 0.78571429
v -0.21866554 0.53428847 -0.07142857
v -0.21866554 0.53428847 0.07142857
v -0.21866554 0.53428847 0.21428571
v -0.21866554 0.53428847 0.35714286
v -0.21866554 0.53428847 0.50000000
v -0.21866554 0.53428847 0.64285714
v -0.15259541 -0.58890372 0.07142857
v -0.08652528 -0.58890372 0.14285714
v -0.08652528 -0.65497385 0.21428571
v -0.08652528 -0.65497385 0.35714286
v -0.08652528 -0.65497385 0.50000000
v -0.08652528 -0.65497385 0.64285714
v -0.08652528 -0.58890372 0.71428571
v -0.08652528 -0.45676346 0.00000000
v -0.08652528 -0.52283359 0.07142857
v -0.08652528 -0.45676346 0.71428571
v -0.15259541 -0.32462320 -0.78571429
v -0.08652528 -0.32462320 -0.85714286
v -0.08652528 -0.39069333 -0.78571429
v -0.08652528 -0.39069333 -0.64285714
v -0.15259541 -0.32462320 -0.64285714
v -0.08652528 -0.39069333 -0.50000000
v -0.15259541 -0.32462320 -0.50000000
v -0.08652528 -0.39069333 -0.35714286
v -0.15259541 -0.32462320 -0.35714286
v -0.08652528 -0.39069333 -0.21428571
v -0.15259541 -0.32462320 -0.21428571
v -0.08652528 -0.39069333 -0.07142857
v -0.08652528 -0.39069333 0.78571429
v -0.08652528 -0.32462320 0.85714286
v -0.08652528 -0.19248295 -1.00000000
v -0.08652528 -0.25855308 -0.92857143
v -0.08652528 -0.19248295 0.85714286
v -0.08652528 -0.06034269 -1.00000000
v -0.08652528 -0.12641282 0.92857143
v -0.15259541 -0.06034269 0.92857143
v -0.08652528 -0.06034269 1.00000000
v -0.08652528 0.07179757 -1.00000000
v -0.15259541 0.07179757 0.92857143
v -0.08652528 0.07179757 1.00000000
v -0.08652528 0.20393783 -1.00000000
v -0.08652528 0.20393783 1.00000000
v -0.08652528 0.33607809 -1.00000000
v -0.15259541 0.33607809 0.92857143
v -0.08652528 0.33607809 1.00000000
v -0.08652528 0.40214822 -0.92857143
v -0.15259541 0.46821835 -0.78571429
v -0.08652528 0.46821835 -0.85714286
v -0.15259541 0.46821835 -0.64285714
v -0.15259541 0.46821835 -0.50000000
v -0.15259541 0.46821835 -0.35714286
v -0.15259541 0.46821835 -0.21428571
v -0.08652528 0.40214822 0.78571429
v -0.08652528 0.46821835 0.71428571
v -0.08652528 0.40214822 0.92857143
v -0.08652528 0.53428847 -0.78571429
v -0.08652528 0.53428847 -0.64285714
v -0.08652528 0.53428847 -0.50000000
v -0.08652528 0.53428847 -0.35714286
v -0.08652528 0.53428847 -0.21428571
v -0.08652528 0.53428847 -0.07142857
v -0.08652528 0.53428847 0.07142857
v -0.08652528 0.53428847 0.21428571
v -0.08652528 0.53428847 0.35714286
v -0.08652528 0.53428847 0.50000000
v -0.08652528 0.53428847 0.64285714
v 0.04561498 -0.58890372 0.14285714
v 0.04561498 -0.65497385 0.21428571
v 0.04561498 -0.65497385 0.35714286
v 0.04561498 -0.65497385 0.50000000
v -0.02045515 -0.58890372 0.64285714
v 0.04561498 -0.58890372 0.57142857
v 0.04561498 -0.45676346 0.00000000
v 0.04561498 -0.52283359 0.07142857
v 0.04561498 -0.52283359 0.64285714
v 0.04561498 -0.45676346 0.71428571
v -0.02045515 -0.32462320 -0.92857143
v 0.04561498 -0.32462320 -1.00000000
v 0.04561498 -0.39069333 -0.92857143
v 0.04561498 -0.39069333 -0.78571429
v 0.04561498 -0.39069333 -0.64285714
v 0.04561498 -0.39069333 -0.50000000
v 0.04561498 -0.39069333 -0.35714286
v 0.04561498 -0.39069333 -0.21428571
v 0.04561498 -0.39069333 -0.07142857
v 0.04561498 -0.39069333 0.78571429
v 0.04561498 -0.32462320 0.85714286
v 0.04561498 -0.19248295 -1.00000000
v 0.04561498 -0.19248295 0.85714286
v 0.04561498 -0.06034269 -1.00000000
v 0.04561498 -0.12641282 0.92857143
v 0.04561498 -0.06034269 1.00000000
v 0.04561498 0.07179757 -1.00000000
v 0.04561498 0.07179757 1.00000000
v 0.04561498 0.20393783 -1.00000000
v 0.04561498 0.20393783 1.00000000
v 0.04561498 0.33607809 -1.00000000
v 0.04561498 0.33607809 1.00000000
v 0.04561498 0.40214822 -0.92857143
v 0.04561498 0.46821835 -0.85714286
v 0.04561498 0.40214822 0.78571429
v 0.04561498 0.46821835 0.71428571
v 0.04561498 0.40214822 0.92857143
v 0.04561498 0.53428847 -0.78571429
v -0.02045515 0.60035860 -0.64285714
v 0.04561498 0.60035860 -0.71428571
v -0.02045515 0.60035860 -0.50000000
v 0.04561498 0.60035860 -0.42857143
v 0.04561498 0.53428847 -0.35714286
v 0.04561498 0.53428847 -0.21428571
v 0.04561498 0.53428847 -0.07142857
v 0.04561498 0.53428847 0.07142857
v 0.04561498 0.53428847 0.21428571
v 0.04561498 0.53428847 0.35714286
v 0.04561498 0.53428847 0.50000000
v 0.04561498 0.53428847 0.64285714
v 0.04561498 0.66642873 -0.64285714
v 0.04561498 0.66642873 -0.50000000
v 0.17775524 -0.58890372 0.14285714
v 0.17775524 -0.65497385 0.21428571
v 0.17775524 -0.65497385 0.35714286
v 0.17775524 -0.65497385 0.50000000
v 0.17775524 -0.58890372 0.57142857
v 0.11168511 -0.45676346 -0.64285714
v 0.17775524 -0.45676346 -0.71428571
v 0.17775524 -0.52283359 -0.64285714
v 0.17775524 -0.52283359 -0.50000000
v 0.11168511 -0.45676346 -0.50000000
v 0.17775524 -0.45676346 -0.42857143
v 0.17775524 -0.45676346 0.00000000
v 0.17775524 -0.52283359 0.07142857
v 0.17775524 -0.52283359 0.64285714
v 0.17775524 -0.45676346 0.71428571
v 0.17775524 -0.32462320 -1.00000000
v 0.17775524 -0.39069333 -0.92857143
v 0.17775524 -0.39069333 -0.78571429
v 0.17775524 -0.39069333 -0.35714286
v 0.17775524 -0.39069333 -0.21428571
v 0.17775524 -0.39069333 -0.07142857
v 0.17775524 -0.39069333 0.78571429
v 0.17775524 -0.32462320 0.85714286
v 0.17775524 -0.19248295 -1.00000000
v 0.17775524 -0.19248295 0.85714286
v 0.17775524 -0.06034269 -1.00000000
v 0.11168511 -0.06034269 0.92857143
v 0.17775524 -0.06034269 0.85714286
v 0.17775524 0.07179757 -1.00000000
v 0.17775524 0.00572744 0.92857143
v 0.17775524 0.07179757 1.00000000
v 0.17775524 0.20393783 -1.00000000
v 0.17775524 0.20393783 1.00000000
v 0.17775524 0.33607809 -1.00000000
v 0.11168511 0.33607809 0.92857143
v 0.17775524 0.27000796 0.92857143
v 0.17775524 0.33607809 0.85714286
v 0.17775524 0.40214822 -0.92857143
v 0.17775524 0.46821835 -0.85714286
v 0.17775524 0.40214822 0.78571429
v 0.17775524 0.46821835 0.71428571
v 0.17775524 0.53428847 -0.78571429
v 0.17775524 0.60035860 -0.71428571
v 0.17775524 0.53428847 -0.35714286
v 0.17775524 0.60035860 -0.42857143
v 0.17775524 0.53428847 -0.21428571
v 0.17775524 0.53428847 -0.07142857
v 0.17775524 0.53428847 0.07142857
v 0.17775524 0.53428847 0.21428571
v 0.17775524 0.53428847 0.35714286
v 0.17775524 0.53428847 0.50000000
v 0.17775524 0.53428847 0.64285714
v 0.17775524 0.66642873 -0.64285714
v 0.17775524 0.66642873 -0.50000000
v 0.24382537 -0.58890372 0.21428571
v 0.24382537 -0.58890372 0.35714286
v 0.24382537 -0.58890372 0.50000000
v 0.30989550 -0.45676346 -0.71428571
v 0.30989550 -0.52283359 -0.64285714
v 0.30989550 -0.52283359 -0.50000000
v 0.30989550 -0.45676346 -0.42857143
v 0.24382537 -0.45676346 0.07142857
v 0.30989550 -0.45676346 0.14285714
v 0.30989550 -0.52283359 0.21428571
v 0.30989550 -0.52283359 0.35714286
v 0.30989550 -0.52283359 0.50000000
v 0.30989550 -0.52283359 0.64285714
v 0.30989550 -0.45676346 0.71428571
v 0.24382537 -0.32462320 -0.92857143
v 0.30989550 -0.32462320 -0.85714286
v 0.30989550 -0.39069333 -0.78571429
v 0.30989550 -0.39069333 -0.35714286
v 0.30989550 -0.39069333 -0.21428571
v 0.30989550 -0.39069333 -0.07142857
v 0.30989550 -0.39069333 0.07142857
v 0.30989550 -0.39069333 0.78571429
v 0.30989550 -0.32462320 0.85714286
v 0.24382537 -0.19248295 -0.92857143
v 0.30989550 -0.19248295 -0.85714286
v 0.30989550 -0.19248295 0.85714286
v 0.24382537 -0.06034269 -0.92857143
v 0.30989550 -0.06034269 -0.85714286
v 0.30989550 -0.06034269 0.85714286
v 0.24382537 0.07179757 -0.92857143
v 0.30989550 0.07179757 -0.85714286
v 0.24382537 0.07179757 0.92857143
v 0.30989550 0.07179757 0.85714286
v 0.24382537 0.20393783 -0.92857143
v 0.30989550 0.20393783 -0.85714286
v 0.24382537 0.20393783 0.92857143
v 0.30989550 0.20393783 0.85714286
v 0.24382537 0.33607809 -0.92857143
v 0.30989550 0.33607809 -0.85714286
v 0.30989550 0.33607809 0.85714286
v 0.30989550 0.46821835 -0.85714286
v 0.24382537 0.46821835 -0.07142857
v 0.30989550 0.40214822 -0.07142857
v 0.30989550 0.46821835 -0.14285714
v 0.24382537 0.46821835 0.07142857
v 0.30989550 0.40214822 0.07142857
v 0.24382537 0.46821835 0.21428571
v 0.30989550 0.40214822 0.21428571
v 0.24382537 0.46821835 0.35714286
v 0.30989550 0.40214822 0.35714286
v 0.24382537 0.46821835 0.50000000
v 0.30989550 0.40214822 0.50000000
v 0.24382537 0.46821835 0.64285714
v 0.30989550 0.40214822 0.64285714
v 0.30989550 0.40214822 0.78571429
v 0.30989550 0.53428847 -0.78571429
v 0.24382537 0.60035860 -0.64285714
v 0.30989550 0.53428847 -0.64285714
v 0.24382537 0.60035860 -0.50000000
v 0.30989550 0.53428847 -0.50000000
v 0.30989550 0.53428847 -0.35714286
v 0.30989550 0.53428847 -0.21428571
v 0.37596563 -0.45676346 -0.64285714
v 0.37596563 -0.45676346 -0.50000000
v 0.37596563 -0.45676346 0.21428571
v 0.37596563 -0.45676346 0.35714286
v 0.37596563 -0.45676346 0.50000000
v 0.37596563 -0.45676346 0.64285714
v 0.44203576 -0.32462320 -0.85714286
v 0.44203576 -0.39069333 -0.78571429
v 0.44203576 -0.39069333 -0.64285714
v 0.44203576 -0.39069333 -0.50000000
v 0.44203576 -0.39069333 -0.35714286
v 0.44203576 -0.39069333 -0.21428571
v 0.44203576 -0.39069333 -0.07142857
v 0.44203576 -0.39069333 0.07142857
v 0.44203576 -0.39069333 0.21428571
v 0.44203576 -0.39069333 0.35714286
v 0.44203576 -0.39069333 0.50000000
v 0.44203576 -0.39069333 0.64285714
v 0.37596563 -0.32462320 0.78571429
v 0.44203576 -0.32462320 0.71428571
v 0.44203576 -0.19248295 -0.85714286
v 0.44203576 -0.25855308 0.78571429
v 0.44203576 -0.19248295 0.85714286
v 0.44203576 -0.06034269 -0.85714286
v 0.44203576 -0.06034269 0.85714286
v 0.44203576 0.07179757 -0.85714286
v 0.44203576 0.07179757 0.85714286
v 0.44203576 0.20393783 -0.85714286
v 0.44203576 0.20393783 0.85714286
v 0.44203576 0.27000796 -0.78571429
v 0.37596563 0.33607809 -0.78571429
v 0.44203576 0.33607809 -0.71428571
v 0.37596563 0.33607809 0.64285714
v 0.44203576 0.27000796 0.64285714
v 0.44203576 0.33607809 0.57142857
v 0.37596563 0.33607809 0.78571429
v 0.44203576 0.27000796 0.78571429
v 0.37596563 0.46821835 -0.78571429
v 0.44203576 0.40214822 -0.64285714
v 0.37596563 0.46821835 -0.64285714
v 0.37596563 0.46821835 -0.50000000
v 0.44203576 0.40214822 -0.50000000
v 0.37596563 0.46821835 -0.35714286
v 0.44203576 0.40214822 -0.35714286
v 0.44203576 0.46821835 -0.28571429
v 0.44203576 0.40214822 -0.07142857
v 0.44203576 0.46821835 -0.14285714
v 0.44203576 0.40214822 0.07142857
v 0.44203576 0.40214822 0.21428571
v 0.44203576 0.40214822 0.35714286
v 0.44203576 0.40214822 0.50000000
v 0.44203576 0.53428847 -0.21428571
v 0.50810588 -0.32462320 -0.78571429
v 0.57417601 -0.32462320 -0.71428571
v 0.57417601 -0.39069333 -0.64285714
v 0.57417601 -0.39069333 -0.50000000
v 0.57417601 -0.39069333 -0.35714286
v 0.57417601 -0.39069333 -0.21428571
v 0.50810588 -0.32462320 -0.07142857
v 0.57417601 -0.32462320 -0.14285714
v 0.50810588 -0.32462320 0.07142857
v 0.50810588 -0.32462320 0.21428571
v 0.50810588 -0.32462320 0.35714286
v 0.50810588 -0.32462320 0.50000000
v 0.50810588 -0.32462320 0.64285714
v 0.57417601 -0.19248295 -0.85714286
v 0.57417601 -0.25855308 -0.78571429
v 0.57417601 -0.25855308 -0.07142857
v 0.57417601 -0.19248295 0.00000000
v 0.50810588 -0.19248295 0.07142857
v 0.50810588 -0.19248295 0.21428571
v 0.50810588 -0.19248295 0.35714286
v 0.50810588 -0.19248295 0.50000000
v 0.50810588 -0.19248295 0.64285714
v 0.50810588 -0.19248295 0.78571429
v 0.57417601 -0.06034269 -0.85714286
v 0.57417601 -0.12641282 0.07142857
v 0.57417601 -0.12641282 0.21428571
v 0.57417601 -0.06034269 0.28571429
v 0.50810588 -0.06034269 0.35714286
v 0.50810588 -0.06034269 0.50000000
v 0.50810588 -0.06034269 0.64285714
v 0.50810588 -0.06034269 0.78571429
v 0.57417601 0.07179757 -0.85714286
v 0.50810588 0.07179757 0.35714286
v 0.57417601 0.07179757 0.28571429
v 0.50810588 0.07179757 0.50000000
v 0.50810588 0.07179757 0.64285714
v 0.50810588 0.07179757 0.78571429
v 0.57417601 0.13786770 -0.78571429
v 0.50810588 0.20393783 -0.78571429
v 0.57417601 0.20393783 -0.71428571
v 0.50810588 0.20393783 0.35714286
v 0.57417601 0.20393783 0.28571429
v 0.50810588 0.20393783 0.50000000
v 0.50810588 0.20393783 0.64285714
v 0.50810588 0.20393783 0.78571429
v 0.50810588 0.33607809 -0.64285714
v 0.57417601 0.27000796 -0.64285714
v 0.57417601 0.33607809 -0.57142857
v 0.50810588 0.33607809 0.07142857
v 0.57417601 0.27000796 0.07142857
v 0.57417601 0.33607809 0.00000000
v 0.50810588 0.33607809 0.21428571
v 0.57417601 0.27000796 0.21428571
v 0.50810588 0.33607809 0.35714286
v 0.50810588 0.33607809 0.50000000
v 0.57417601 0.40214822 -0.50000000
v 0.57417601 0.40214822 -0.35714286
v 0.50810588 0.46821835 -0.21428571
v 0.57417601 0.40214822 -0.21428571
v 0.57417601 0.40214822 -0.07142857
v 0.64024614 -0.32462320 -0.64285714
v 0.64024614 -0.32462320 -0.50000000
v 0.64024614 -0.32462320 -0.35714286
v 0.64024614 -0.32462320 -0.21428571
v 0.64024614 -0.19248295 -0.78571429
v 0.70631627 -0.19248295 -0.71428571
v 0.70631627 -0.25855308 -0.64285714
v 0.70631627 -0.25855308 -0.50000000
v 0.70631627 -0.25855308 -0.35714286
v 0.70631627 -0.25855308 -0.21428571
v 0.64024614 -0.19248295 -0.07142857
v 0.70631627 -0.19248295 -0.14285714
v 0.64024614 -0.06034269 -0.78571429
v 0.70631627 -0.06034269 -0.71428571
v 0.64024614 -0.06034269 -0.07142857
v 0.70631627 -0.06034269 -0.14285714
v 0.64024614 -0.06034269 0.07142857
v 0.64024614 -0.06034269 0.21428571
v 0.64024614 0.07179757 -0.78571429
v 0.70631627 0.07179757 -0.71428571
v 0.70631627 0.00572744 -0.07142857
v 0.70631627 0.07179757 0.00000000
v 0.64024614 0.07179757 0.07142857
v 0.64024614 0.07179757 0.21428571
v 0.64024614 0.20393783 -0.64285714
v 0.70631627 0.13786770 -0.64285714
v 0.70631627 0.20393783 -0.57142857
v 0.64024614 0.20393783 0.07142857
v 0.70631627 0.20393783 0.00000000
v 0.64024614 0.20393783 0.21428571
v 0.64024614 0.33607809 -0.50000000
v 0.70631627 0.27000796 -0.50000000
v 0.70631627 0.33607809 -0.42857143
v 0.70631627 0.33607809 0.00000000
v 0.70631627 0.40214822 -0.35714286
v 0.70631627 0.40214822 -0.21428571
v 0.70631627 0.40214822 -0.07142857
v 0.77238640 -0.19248295 -0.64285714
v 0.77238640 -0.19248295 -0.50000000
v 0.77238640 -0.19248295 -0.35714286
v 0.77238640 -0.19248295 -0.21428571
v 0.77238640 -0.06034269 -0.64285714
v 0.77238640 -0.06034269 -0.50000000
v 0.77238640 -0.06034269 -0.35714286
v 0.77238640 -0.06034269 -0.21428571
v 0.77238640 0.07179757 -0.64285714
v 0.77238640 0.07179757 -0.50000000
v 0.77238640 0.07179757 -0.35714286
v 0.77238640 0.07179757 -0.21428571
v 0.77238640 0.07179757 -0.07142857
v 0.77238640 0.20393783 -0.50000000
v 0.77238640 0.20393783 -0.35714286
v 0.77238640 0.20393783 -0.21428571
v 0.77238640 0.20393783 -0.07142857
v 0.77238640 0.33607809 -0.35714286
v 0.77238640 0.33607809 -0.21428571
v 0.77238640 0.33607809 -0.07142857
f 3 2 1
f 5 4 1
f 1 4 3
f 7 6 5
f 5 6 4
f 9 8 7
f 7 8 6
f 9 10 8
f 1 2 11
f 11 2 12
f 1 13 5
f 1 11 13
f 5 14 7
f 5 13 14
f 7 15 9
f 7 14 15
f 10 9 16
f 16 9 15
f 19 18 17
f 19 17 12
f 17 11 12
f 17 20 11
f 11 21 13
f 11 20 21
f 13 22 14
f 13 21 22
f 14 23 15
f 14 22 23
f 16 15 24
f 24 15 23
f 17 18 25
f 25 18 26
f 17 27 20
f 17 25 27
f 20 28 21
f 20 27 28
f 21 29 22
f 21 28 29
f 22 30 23
f 22 29 30
f 24 23 31
f 31 23 30
f 26 32 25
f 34 33 32
f 33 25 32
f 33 27 25
f 27 35 28
f 27 33 35
f 28 36 29
f 28 35 36
f 29 37 30
f 29 36 37
f 31 30 38
f 38 30 37
f 34 39 33
f 41 40 39
f 40 33 39
f 40 35 33
f 35 42 36
f 35 40 42
f 44 37 43
f 37 42 43
f 37 36 42
f 37 44 38
f 41 45 40
f 40 45 42
f 42 45 46
f 42 46 43
f 49 48 47
f 51 50 47
f 47 50 49
f 53 52 51
f 51 52 50
f 55 54 53
f 53 54 52
f 55 56 54
f 59 58 57
f 59 57 48
f 48 57 47
f 57 2 47
f 2 3 47
f 47 3 4
f 47 4 51
f 51 4 6
f 51 6 53
f 53 6 8
f 53 8 55
f 8 10 55
f 10 56 55
f 10 60 56
f 57 58 61
f 61 58 62
f 61 12 2
f 61 2 57
f 16 64 63
f 60 16 63
f 10 16 60
f 64 65 63
f 61 62 19
f 62 18 19
f 62 66 18
f 61 19 12
f 24 67 64
f 24 64 16
f 65 64 68
f 68 64 67
f 66 26 18
f 69 26 66
f 31 70 67
f 31 67 24
f 68 67 71
f 71 67 70
f 32 26 72
f 26 73 72
f 26 69 73
f 72 34 32
f 38 74 70
f 38 70 31
f 71 70 75
f 75 70 74
f 72 73 76
f 76 73 77
f 78 39 34
f 72 78 34
f 76 78 72
f 78 41 39
f 43 79 44
f 79 80 44
f 44 80 38
f 80 81 38
f 81 74 38
f 74 81 75
f 77 82 76
f 76 82 78
f 78 82 83
f 78 83 41
f 83 45 41
f 83 84 45
f 45 85 46
f 84 85 45
f 43 46 79
f 46 86 79
f 46 85 86
f 79 86 80
f 89 88 87
f 91 90 87
f 87 90 89
f 93 92 91
f 91 92 90
f 95 94 93
f 93 94 92
f 95 96 94
f 99 98 97
f 99 97 88
f 88 97 87
f 97 48 87
f 48 49 87
f 87 49 50
f 87 50 91
f 91 50 52
f 91 52 93
f 93 52 54
f 93 54 95
f 54 56 95
f 56 96 95
f 56 100 96
f 97 98 59
f 98 58 59
f 98 101 58
f 97 59 48
f 60 103 102
f 100 60 102
f 56 60 100
f 103 104 102
f 107 106 105
f 101 107 105
f 62 101 105
f 58 101 62
f 63 103 60
f 63 65 103
f 65 104 103
f 65 108 104
f 105 106 109
f 109 106 110
f 109 66 62
f 109 62 105
f 68 108 65
f 68 111 108
f 109 110 112
f 112 110 113
f 112 69 66
f 112 66 109
f 71 111 68
f 71 114 111
f 112 113 115
f 115 113 116
f 115 73 69
f 115 69 112
f 75 114 71
f 75 117 114
f 116 118 115
f 73 115 118
f 119 73 118
f 77 73 119
f 80 120 81
f 120 121 81
f 121 75 81
f 121 117 75
f 82 77 122
f 77 123 122
f 77 119 123
f 124 83 82
f 124 82 122
f 125 84 83
f 125 83 124
f 126 85 84
f 126 84 125
f 85 126 127
f 128 85 127
f 86 85 128
f 80 86 120
f 86 129 120
f 86 128 129
f 120 129 121
f 123 130 122
f 122 130 124
f 124 130 131
f 124 131 125
f 125 131 132
f 125 132 126
f 126 132 133
f 126 133 127
f 136 135 134
f 88 89 134
f 89 136 134
f 89 137 136
f 138 89 90
f 138 137 89
f 139 90 92
f 139 138 90
f 140 92 94
f 140 139 92
f 94 96 140
f 140 96 141
f 134 135 99
f 135 98 99
f 135 142 98
f 134 99 88
f 100 141 96
f 100 143 141
f 146 145 144
f 142 146 144
f 101 142 144
f 98 142 101
f 147 143 100
f 147 100 102
f 102 104 147
f 147 104 148
f 144 145 107
f 145 106 107
f 145 149 106
f 144 107 101
f 108 148 104
f 108 150 148
f 153 152 151
f 149 153 151
f 110 149 151
f 106 149 110
f 111 150 108
f 111 154 150
f 151 152 155
f 155 152 156
f 155 113 110
f 155 110 151
f 114 154 111
f 114 157 154
f 156 158 155
f 113 155 158
f 159 113 158
f 116 113 159
f 117 157 114
f 117 160 157
f 118 116 161
f 116 162 161
f 116 159 162
f 161 119 118
f 121 160 117
f 121 163 160
f 162 164 161
f 119 161 164
f 165 119 164
f 123 119 165
f 167 166 128
f 167 128 127
f 128 168 129
f 166 168 128
f 121 129 163
f 163 129 168
f 165 169 123
f 123 169 130
f 130 170 131
f 169 170 130
f 131 171 132
f 170 171 131
f 132 172 133
f 171 172 132
f 127 133 167
f 167 133 172
f 174 173 136
f 136 173 135
f 175 136 137
f 175 174 136
f 176 137 138
f 176 175 137
f 177 138 139
f 177 176 138
f 178 139 140
f 178 177 139
f 140 141 178
f 178 141 179
f 173 142 135
f 180 142 173
f 143 179 141
f 143 181 179
f 183 182 146
f 146 182 145
f 146 142 180
f 146 180 183
f 184 181 143
f 184 143 147
f 147 148 184
f 184 148 185
f 188 187 186
f 190 189 186
f 186 189 188
f 192 191 190
f 190 191 189
f 194 193 192
f 192 193 191
f 196 195 194
f 194 195 193
f 198 197 196
f 196 197 195
f 182 197 198
f 149 182 198
f 145 182 149
f 150 185 148
f 150 199 185
f 186 187 200
f 200 187 201
f 186 202 190
f 186 200 202
f 190 203 192
f 190 202 203
f 192 204 194
f 192 203 204
f 194 205 196
f 194 204 205
f 205 152 153
f 198 205 153
f 196 205 198
f 198 153 149
f 154 199 150
f 154 206 199
f 200 201 207
f 207 201 208
f 200 209 202
f 200 207 209
f 202 210 203
f 202 209 210
f 203 211 204
f 203 210 211
f 204 212 205
f 204 211 212
f 212 156 152
f 212 152 205
f 157 206 154
f 157 213 206
f 207 208 214
f 214 208 215
f 207 216 209
f 207 214 216
f 209 217 210
f 209 216 217
f 210 218 211
f 210 217 218
f 211 219 212
f 211 218 219
f 220 158 156
f 212 220 156
f 219 220 212
f 220 159 158
f 160 222 221
f 213 160 221
f 157 160 213
f 222 223 221
f 214 215 224
f 224 215 225
f 214 226 216
f 214 224 226
f 216 227 217
f 216 226 227
f 217 228 218
f 217 227 228
f 218 229 219
f 218 228 229
f 219 230 220
f 219 229 230
f 230 162 159
f 230 159 220
f 232 231 222
f 160 232 222
f 163 232 160
f 222 231 223
f 225 233 224
f 224 233 226
f 226 233 234
f 226 234 227
f 227 234 235
f 227 235 228
f 228 235 236
f 228 236 229
f 229 236 237
f 229 237 230
f 230 237 238
f 238 240 239
f 238 239 164
f 230 238 164
f 162 230 164
f 239 165 164
f 167 241 166
f 166 241 242
f 243 166 242
f 168 166 243
f 163 168 232
f 232 168 243
f 240 244 239
f 239 244 165
f 244 169 165
f 244 245 169
f 169 246 170
f 245 246 169
f 170 247 171
f 246 247 170
f 171 248 172
f 247 248 171
f 167 172 241
f 172 249 241
f 172 248 249
f 241 249 242
f 250 173 174
f 250 174 251
f 174 252 251
f 174 175 252
f 253 175 176
f 253 252 175
f 254 176 177
f 254 253 176
f 255 177 178
f 255 254 177
f 178 179 255
f 255 179 256
f 258 257 250
f 257 173 250
f 257 180 173
f 258 250 251
f 181 256 179
f 181 259 256
f 262 261 260
f 264 263 260
f 260 263 262
f 266 265 264
f 264 265 263
f 268 267 266
f 266 267 265
f 270 269 268
f 268 269 267
f 182 183 270
f 183 269 270
f 183 271 269
f 183 180 257
f 183 257 271
f 272 259 181
f 272 181 184
f 184 185 272
f 272 185 273
f 275 274 188
f 188 274 187
f 189 260 261
f 275 189 261
f 188 189 275
f 260 189 191
f 260 191 264
f 264 191 193
f 264 193 266
f 266 193 195
f 266 195 268
f 268 195 197
f 268 197 270
f 270 197 182
f 199 273 185
f 199 276 273
f 274 201 187
f 277 201 274
f 206 279 278
f 276 206 278
f 199 206 276
f 279 280 278
f 277 208 201
f 281 208 277
f 213 282 279
f 213 279 206
f 280 279 283
f 283 279 282
f 281 215 208
f 284 215 281
f 221 282 213
f 221 223 282
f 223 283 282
f 223 285 283
f 284 225 215
f 286 225 284
f 232 287 231
f 287 288 231
f 288 223 231
f 288 285 223
f 286 289 225
f 225 289 233
f 289 291 290
f 234 289 290
f 233 289 234
f 292 235 234
f 292 234 290
f 293 236 235
f 293 235 292
f 294 237 236
f 294 236 293
f 295 238 237
f 295 237 294
f 295 240 238
f 297 296 243
f 297 243 242
f 232 243 287
f 243 298 287
f 243 296 298
f 287 298 288
f 291 299 290
f 290 299 292
f 292 299 300
f 292 300 293
f 293 300 301
f 293 301 294
f 294 301 302
f 294 302 295
f 295 302 303
f 295 303 240
f 303 244 240
f 303 304 244
f 244 305 245
f 304 305 244
f 245 306 246
f 305 306 245
f 246 307 247
f 306 307 246
f 247 308 248
f 307 308 247
f 248 309 249
f 308 309 248
f 242 249 297
f 297 249 309
f 311 310 252
f 252 310 251
f 312 252 253
f 312 311 252
f 313 253 254
f 313 312 253
f 315 313 314
f 313 255 314
f 313 254 255
f 256 314 255
f 317 316 258
f 258 316 257
f 258 251 310
f 258 310 317
f 318 315 314
f 314 256 318
f 256 319 318
f 256 259 319
f 322 321 320
f 261 262 320
f 262 322 320
f 262 323 322
f 324 262 263
f 324 323 262
f 325 263 265
f 325 324 263
f 326 265 267
f 326 325 265
f 327 267 269
f 327 326 267
f 328 269 271
f 328 327 269
f 271 257 316
f 271 316 328
f 329 319 259
f 329 259 272
f 272 273 329
f 329 273 330
f 320 321 275
f 321 274 275
f 321 331 274
f 320 275 261
f 276 330 273
f 276 332 330
f 331 277 274
f 333 277 331
f 334 332 276
f 334 276 278
f 278 280 334
f 334 280 335
f 333 281 277
f 336 281 333
f 283 335 280
f 283 337 335
f 336 284 281
f 338 284 336
f 285 337 283
f 285 339 337
f 338 286 284
f 340 286 338
f 288 339 285
f 288 341 339
f 340 342 286
f 286 342 289
f 291 289 342
f 291 342 343
f 345 344 296
f 345 296 297
f 296 346 298
f 344 346 296
f 288 298 341
f 341 298 346
f 343 347 291
f 291 347 299
f 347 349 348
f 300 347 348
f 299 347 300
f 350 301 300
f 350 300 348
f 301 350 351
f 352 301 351
f 302 301 352
f 302 353 303
f 352 353 302
f 303 354 304
f 353 354 303
f 304 355 305
f 354 355 304
f 305 356 306
f 355 356 305
f 306 357 307
f 356 357 306
f 307 358 308
f 357 358 307
f 308 359 309
f 358 359 308
f 297 309 345
f 345 309 359
f 349 360 348
f 348 360 350
f 350 360 361
f 350 361 351
f 363 362 311
f 311 362 310
f 364 311 312
f 364 363 311
f 365 312 313
f 365 364 312
f 313 315 365
f 365 315 366
f 369 368 367
f 371 370 367
f 367 370 369
f 371 372 370
f 374 373 317
f 317 373 316
f 317 310 362
f 317 362 374
f 375 366 315
f 375 315 318
f 318 319 375
f 375 319 376
f 378 377 322
f 322 377 321
f 379 322 323
f 379 378 322
f 324 367 368
f 379 324 368
f 323 324 379
f 367 324 325
f 367 325 371
f 380 372 371
f 325 380 371
f 326 380 325
f 381 326 327
f 381 380 326
f 382 327 328
f 382 381 327
f 328 316 373
f 328 373 382
f 383 376 319
f 383 319 329
f 329 330 383
f 383 330 384
f 377 331 321
f 385 331 377
f 332 384 330
f 332 386 384
f 385 333 331
f 387 333 385
f 332 334 388
f 389 332 388
f 386 332 389
f 335 388 334
f 387 336 333
f 390 336 387
f 391 389 388
f 388 335 391
f 335 392 391
f 335 337 392
f 390 338 336
f 393 338 390
f 339 392 337
f 339 394 392
f 393 340 338
f 395 340 393
f 398 397 396
f 397 394 396
f 394 341 396
f 394 339 341
f 395 399 340
f 340 399 342
f 343 342 399
f 343 399 400
f 402 401 344
f 402 344 345
f 396 346 398
f 346 401 398
f 346 344 401
f 346 396 341
f 400 403 343
f 343 403 347
f 349 347 403
f 349 403 404
f 406 405 352
f 406 352 351
f 352 407 353
f 405 407 352
f 353 408 354
f 407 408 353
f 354 409 355
f 408 409 354
f 355 410 356
f 409 410 355
f 356 411 357
f 410 411 356
f 357 412 358
f 411 412 357
f 358 413 359
f 412 413 358
f 345 359 402
f 402 359 413
f 404 414 349
f 349 414 360
f 360 415 361
f 414 415 360
f 351 361 406
f 406 361 415
f 416 362 363
f 364 417 363
f 363 417 416
f 365 418 364
f 364 418 417
f 366 418 365
f 420 419 369
f 369 419 368
f 421 369 370
f 421 420 369
f 370 372 421
f 421 372 422
f 423 373 374
f 424 423 374
f 424 374 362
f 425 424 362
f 416 425 362
f 425 416 417
f 425 417 426
f 426 417 418
f 426 418 427
f 427 418 366
f 375 427 366
f 428 427 375
f 375 376 428
f 428 376 429
f 430 377 378
f 430 378 431
f 378 432 431
f 378 379 432
f 379 368 419
f 379 419 432
f 433 422 372
f 433 372 380
f 434 380 381
f 434 433 380
f 435 381 382
f 435 434 381
f 382 373 423
f 436 382 423
f 435 382 436
f 436 423 424
f 437 429 376
f 437 376 383
f 383 384 437
f 437 384 438
f 439 385 430
f 430 385 377
f 430 431 440
f 430 440 439
f 386 438 384
f 386 441 438
f 442 387 439
f 439 387 385
f 439 440 443
f 439 443 442
f 389 441 386
f 389 444 441
f 445 390 442
f 442 390 387
f 442 443 446
f 442 446 445
f 389 391 447
f 448 389 447
f 444 389 448
f 392 447 391
f 449 393 445
f 445 393 390
f 445 446 450
f 445 450 449
f 448 447 451
f 448 451 452
f 394 451 392
f 392 451 447
f 453 395 449
f 449 395 393
f 449 450 454
f 449 454 453
f 452 451 397
f 398 452 397
f 455 452 398
f 397 451 394
f 453 399 395
f 400 399 453
f 454 400 453
f 456 400 454
f 459 458 457
f 461 460 457
f 461 457 458
f 463 462 460
f 463 460 461
f 465 464 462
f 465 462 463
f 467 466 464
f 467 464 465
f 469 468 466
f 469 466 467
f 401 402 468
f 469 401 468
f 470 401 469
f 398 401 455
f 455 401 470
f 456 471 400
f 400 471 403
f 473 472 404
f 403 473 404
f 471 473 403
f 475 474 472
f 475 472 473
f 405 406 474
f 475 405 474
f 476 405 475
f 405 477 407
f 476 477 405
f 457 408 459
f 408 477 459
f 408 407 477
f 408 457 409
f 409 457 460
f 409 460 410
f 410 460 462
f 410 462 411
f 411 462 464
f 411 464 412
f 412 464 466
f 412 466 413
f 413 466 468
f 413 468 402
f 472 414 404
f 414 472 415
f 415 472 474
f 415 474 406
f 478 419 420
f 421 479 420
f 420 479 478
f 422 479 421
f 480 424 425
f 426 481 425
f 425 481 480
f 427 482 426
f 426 482 481
f 428 483 427
f 427 483 482
f 429 483 428
f 485 484 432
f 432 484 431
f 432 419 478
f 486 432 478
f 485 432 486
f 486 478 479
f 486 479 487
f 487 479 422
f 433 487 422
f 488 487 433
f 489 433 434
f 489 488 433
f 490 434 435
f 490 489 434
f 491 435 436
f 491 490 435
f 436 424 480
f 492 436 480
f 491 436 492
f 492 480 481
f 492 481 493
f 493 481 482
f 493 482 494
f 494 482 483
f 494 483 495
f 497 495 496
f 496 495 437
f 495 483 437
f 483 429 437
f 438 496 437
f 484 440 431
f 498 440 484
f 499 497 496
f 496 438 499
f 438 500 499
f 438 441 500
f 498 443 440
f 501 443 498
f 444 500 441
f 444 502 500
f 501 446 443
f 503 446 501
f 448 502 444
f 448 504 502
f 503 450 446
f 505 450 503
f 452 504 448
f 452 506 504
f 508 454 507
f 454 505 507
f 454 450 505
f 509 508 507
f 512 511 510
f 514 513 510
f 514 510 511
f 514 506 513
f 506 455 513
f 506 452 455
f 515 456 508
f 508 456 454
f 508 509 516
f 517 508 516
f 515 508 517
f 519 518 517
f 519 517 516
f 521 520 518
f 521 518 519
f 522 520 521
f 524 523 458
f 524 458 459
f 458 525 461
f 523 525 458
f 461 526 463
f 525 526 461
f 463 527 465
f 526 527 463
f 465 528 467
f 527 528 465
f 510 469 512
f 469 528 512
f 469 467 528
f 469 510 470
f 470 510 513
f 470 513 455
f 515 471 456
f 471 515 473
f 473 515 517
f 473 517 475
f 475 517 518
f 475 518 476
f 476 518 520
f 522 529 520
f 529 476 520
f 529 477 476
f 459 477 524
f 524 477 529
f 530 484 485
f 530 485 531
f 485 532 531
f 485 486 532
f 533 486 487
f 533 532 486
f 534 487 488
f 534 533 487
f 535 488 489
f 535 534 488
f 537 535 536
f 535 490 536
f 535 489 490
f 491 538 490
f 490 538 536
f 492 539 491
f 491 539 538
f 493 540 492
f 492 540 539
f 494 541 493
f 493 541 540
f 495 542 494
f 494 542 541
f 497 542 495
f 544 543 530
f 543 484 530
f 543 498 484
f 544 530 531
f 545 537 536
f 547 546 545
f 536 547 545
f 538 547 536
f 548 538 539
f 547 538 548
f 549 539 540
f 548 539 549
f 550 540 541
f 549 540 550
f 551 541 542
f 550 541 551
f 499 552 497
f 552 542 497
f 552 551 542
f 500 552 499
f 543 501 498
f 553 501 543
f 554 546 547
f 554 547 548
f 554 548 555
f 557 556 555
f 548 557 555
f 549 557 548
f 558 549 550
f 557 549 558
f 559 550 551
f 558 550 559
f 560 551 552
f 559 551 560
f 502 560 500
f 500 560 552
f 553 503 501
f 561 503 553
f 556 557 562
f 556 562 563
f 564 557 558
f 562 557 564
f 565 558 559
f 564 558 565
f 566 559 560
f 565 559 566
f 504 566 502
f 502 566 560
f 568 505 567
f 505 561 567
f 505 503 561
f 569 568 567
f 563 562 570
f 563 570 571
f 572 562 564
f 570 562 572
f 573 564 565
f 572 564 573
f 574 565 566
f 573 565 574
f 506 574 504
f 504 574 566
f 568 507 505
f 576 575 509
f 576 509 507
f 569 576 507
f 568 569 507
f 577 575 576
f 580 579 578
f 582 581 578
f 582 578 579
f 581 582 571
f 570 581 571
f 583 581 570
f 584 570 572
f 583 570 584
f 512 584 511
f 584 573 511
f 584 572 573
f 511 573 514
f 514 573 574
f 514 574 506
f 575 516 509
f 577 585 575
f 585 516 575
f 585 519 516
f 519 586 521
f 585 586 519
f 588 587 522
f 521 588 522
f 586 588 521
f 523 524 587
f 588 523 587
f 589 523 588
f 578 525 580
f 525 589 580
f 525 523 589
f 525 578 526
f 526 578 581
f 526 581 527
f 527 581 583
f 527 583 528
f 528 583 584
f 528 584 512
f 587 529 522
f 529 587 524
f 590 531 532
f 533 591 532
f 532 591 590
f 534 592 533
f 533 592 591
f 535 593 534
f 534 593 592
f 537 593 535
f 594 543 544
f 595 594 544
f 595 544 531
f 596 595 531
f 590 596 531
f 596 590 591
f 596 591 597
f 597 591 592
f 597 592 598
f 598 592 593
f 598 593 599
f 601 599 600
f 600 599 545
f 599 593 545
f 593 537 545
f 546 600 545
f 602 553 594
f 594 553 543
f 594 595 603
f 594 603 602
f 601 600 604
f 601 604 605
f 554 606 546
f 606 600 546
f 606 604 600
f 555 607 554
f 554 607 606
f 556 607 555
f 608 561 602
f 602 561 553
f 602 603 609
f 602 609 608
f 610 605 604
f 612 611 610
f 604 612 610
f 606 612 604
f 613 606 607
f 612 606 613
f 563 613 556
f 556 613 607
f 608 567 561
f 615 614 569
f 615 569 567
f 609 615 567
f 608 609 567
f 616 614 615
f 611 612 617
f 611 617 618
f 619 612 613
f 617 612 619
f 571 619 563
f 563 619 613
f 614 576 569
f 621 620 577
f 621 577 576
f 616 621 576
f 614 616 576
f 622 620 621
f 618 617 579
f 580 618 579
f 623 618 580
f 579 617 582
f 582 617 619
f 582 619 571
f 620 585 577
f 622 624 620
f 624 585 620
f 624 586 585
f 586 625 588
f 624 625 586
f 588 626 589
f 625 626 588
f 580 589 623
f 623 589 626
f 627 595 596
f 597 628 596
f 596 628 627
f 598 629 597
f 597 629 628
f 599 630 598
f 598 630 629
f 601 630 599
f 631 603 627
f 627 603 595
f 632 627 628
f 631 627 632
f 633 628 629
f 632 628 633
f 634 629 630
f 633 629 634
f 605 634 601
f 601 634 630
f 635 609 631
f 631 609 603
f 636 631 632
f 635 631 636
f 637 632 633
f 636 632 637
f 638 633 634
f 637 633 638
f 610 639 605
f 639 634 605
f 639 638 634
f 611 639 610
f 635 615 609
f 615 635 616
f 635 640 616
f 635 636 640
f 641 636 637
f 640 636 641
f 642 637 638
f 641 637 642
f 643 638 639
f 642 638 643
f 618 643 611
f 611 643 639
f 640 621 616
f 621 640 622
f 640 644 622
f 640 641 644
f 645 641 642
f 644 641 645
f 646 642 643
f 645 642 646
f 623 646 618
f 618 646 643
f 644 624 622
f 624 644 625
f 625 644 645
f 625 645 626
f 626 645 646
f 626 646 623
