# Asteroid shape model (convexinv -> dual reconstruction)
v -0.59979382 -0.03476769 0.07142857
v -0.56249882 -0.03476769 0.00000000
v -0.56249882 -0.07206269 0.07142857
v -0.56249882 -0.07206269 0.21428571
v -0.59979382 -0.03476769 0.21428571
v -0.56249882 -0.03476769 0.28571429
v -0.56249882 0.00252732 0.07142857
v -0.56249882 0.00252732 0.21428571
v -0.52520381 -0.25853771 -0.21428571
v -0.48790881 -0.25853771 -0.28571429
v -0.48790881 -0.29583271 -0.21428571
v -0.48790881 -0.25853771 -0.14285714
v -0.52520381 -0.18394770 -0.21428571
v -0.48790881 -0.18394770 -0.28571429
v -0.48790881 -0.22124270 -0.07142857
v -0.52520381 -0.18394770 -0.07142857
v -0.48790881 -0.22124270 0.07142857
v -0.52520381 -0.18394770 0.07142857
v -0.48790881 -0.22124270 0.21428571
v -0.52520381 -0.18394770 0.21428571
v -0.48790881 -0.22124270 0.35714286
v -0.52520381 -0.18394770 0.35714286
v -0.48790881 -0.22124270 0.50000000
v -0.52520381 -0.18394770 0.50000000
v -0.48790881 -0.18394770 0.57142857
v -0.52520381 -0.10935769 -0.50000000
v -0.48790881 -0.10935769 -0.57142857
v -0.48790881 -0.14665270 -0.50000000
v -0.48790881 -0.14665270 -0.35714286
v -0.52520381 -0.10935769 -0.35714286
v -0.52520381 -0.10935769 -0.21428571
v -0.52520381 -0.10935769 -0.07142857
v -0.52520381 -0.10935769 0.07142857
v -0.52520381 -0.10935769 0.21428571
v -0.52520381 -0.10935769 0.35714286
v -0.52520381 -0.10935769 0.50000000
v -0.48790881 -0.14665270 0.64285714
v -0.52520381 -0.10935769 0.64285714
v -0.48790881 -0.10935769 0.71428571
v -0.48790881 -0.07206269 -0.50000000
v -0.48790881 -0.07206269 -0.35714286
v -0.52520381 -0.03476769 -0.21428571
v -0.48790881 -0.03476769 -0.28571429
v -0.52520381 -0.03476769 -0.07142857
v -0.52520381 -0.03476769 0.35714286
v -0.52520381 -0.03476769 0.50000000
v -0.52520381 -0.03476769 0.64285714
v -0.48790881 -0.03476769 0.71428571
v -0.52520381 0.03982232 -0.21428571
v -0.48790881 0.03982232 -0.28571429
v -0.52520381 0.03982232 -0.07142857
v -0.52520381 0.03982232 0.07142857
v -0.52520381 0.03982232 0.21428571
v -0.52520381 0.03982232 0.35714286
v -0.52520381 0.03982232 0.50000000
v -0.52520381 0.03982232 0.64285714
v -0.48790881 0.03982232 0.71428571
v -0.52520381 0.11441233 -0.21428571
v -0.48790881 0.11441233 -0.28571429
v -0.52520381 0.11441233 -0.07142857
v -0.52520381 0.11441233 0.07142857
v -0.52520381 0.11441233 0.21428571
v -0.52520381 0.11441233 0.35714286
v -0.52520381 0.11441233 0.50000000
v -0.52520381 0.11441233 0.64285714
v -0.48790881 0.11441233 0.71428571
v -0.52520381 0.18900233 -0.21428571
v -0.48790881 0.18900233 -0.28571429
v -0.52520381 0.18900233 -0.07142857
v -0.52520381 0.18900233 0.07142857
v -0.52520381 0.18900233 0.21428571
v -0.52520381 0.18900233 0.35714286
v -0.48790881 0.18900233 0.42857143
v -0.48790881 0.15170733 0.50000000
v -0.48790881 0.15170733 0.64285714
v -0.48790881 0.22629734 -0.21428571
v -0.52520381 0.26359234 -0.07142857
v -0.48790881 0.26359234 -0.14285714
v -0.52520381 0.26359234 0.07142857
v -0.48790881 0.26359234 0.14285714
v -0.48790881 0.22629734 0.21428571
v -0.48790881 0.22629734 0.35714286
v -0.52520381 0.33818235 -0.07142857
v -0.48790881 0.33818235 -0.14285714
v -0.52520381 0.33818235 0.07142857
v -0.48790881 0.33818235 0.14285714
v -0.48790881 0.37547735 -0.07142857
v -0.48790881 0.37547735 0.07142857
v -0.45061381 -0.33312771 -0.21428571
v -0.41331880 -0.33312771 -0.28571429
v -0.41331880 -0.37042272 -0.21428571
v -0.41331880 -0.37042272 -0.07142857
v -0.45061381 -0.33312771 -0.07142857
v -0.41331880 -0.37042272 0.07142857
v -0.45061381 -0.33312771 0.07142857
v -0.41331880 -0.37042272 0.21428571
v -0.45061381 -0.33312771 0.21428571
v -0.41331880 -0.33312771 0.28571429
v -0.45061381 -0.25853771 -0.35714286
v -0.41331880 -0.25853771 -0.42857143
v -0.41331880 -0.29583271 -0.35714286
v -0.45061381 -0.25853771 -0.07142857
v -0.45061381 -0.25853771 0.07142857
v -0.45061381 -0.25853771 0.21428571
v -0.41331880 -0.29583271 0.35714286
v -0.45061381 -0.25853771 0.35714286
v -0.41331880 -0.29583271 0.50000000
v -0.45061381 -0.25853771 0.50000000
v -0.41331880 -0.29583271 0.64285714
v -0.45061381 -0.25853771 0.64285714
v -0.41331880 -0.25853771 0.71428571
v -0.45061381 -0.18394770 -0.64285714
v -0.41331880 -0.18394770 -0.71428571
v -0.41331880 -0.22124270 -0.64285714
v -0.41331880 -0.22124270 -0.50000000
v -0.45061381 -0.18394770 -0.50000000
v -0.45061381 -0.18394770 -0.35714286
v -0.45061381 -0.18394770 0.64285714
v -0.41331880 -0.18394770 0.71428571
v -0.45061381 -0.10935769 -0.64285714
v -0.41331880 -0.10935769 -0.71428571
v -0.41331880 -0.10935769 0.71428571
v -0.45061381 -0.03476769 -0.64285714
v -0.41331880 -0.03476769 -0.71428571
v -0.45061381 -0.03476769 -0.50000000
v -0.45061381 -0.03476769 -0.35714286
v -0.41331880 -0.07206269 0.78571429
v -0.45061381 -0.03476769 0.78571429
v -0.41331880 -0.03476769 0.85714286
v -0.45061381 0.03982232 -0.64285714
v -0.41331880 0.03982232 -0.71428571
v -0.45061381 0.03982232 -0.50000000
v -0.45061381 0.03982232 -0.35714286
v -0.45061381 0.03982232 0.78571429
v -0.41331880 0.03982232 0.85714286
v -0.45061381 0.11441233 -0.64285714
v -0.41331880 0.11441233 -0.71428571
v -0.45061381 0.11441233 -0.50000000
v -0.45061381 0.11441233 -0.35714286
v -0.45061381 0.11441233 0.78571429
v -0.41331880 0.11441233 0.85714286
v -0.45061381 0.18900233 -0.64285714
v -0.41331880 0.18900233 -0.71428571
v -0.45061381 0.18900233 -0.50000000
v -0.45061381 0.18900233 -0.35714286
v -0.45061381 0.18900233 0.50000000
v -0.45061381 0.18900233 0.64285714
v -0.41331880 0.18900233 0.71428571
v -0.41331880 0.15170733 0.78571429
v -0.41331880 0.22629734 -0.64285714
v -0.45061381 0.26359234 -0.50000000
v -0.41331880 0.26359234 -0.57142857
v -0.45061381 0.26359234 -0.35714286
v -0.45061381 0.26359234 -0.21428571
v -0.45061381 0.26359234 0.21428571
v -0.45061381 0.26359234 0.35714286
v -0.45061381 0.26359234 0.50000000
v -0.41331880 0.26359234 0.57142857
v -0.41331880 0.22629734 0.64285714
v -0.41331880 0.30088735 -0.50000000
v -0.45061381 0.33818235 -0.35714286
v -0.41331880 0.33818235 -0.42857143
v -0.45061381 0.33818235 -0.21428571
v -0.45061381 0.33818235 0.21428571
v -0.45061381 0.33818235 0.35714286
v -0.41331880 0.33818235 0.42857143
v -0.41331880 0.30088735 0.50000000
v -0.41331880 0.37547735 -0.35714286
v -0.41331880 0.37547735 -0.21428571
v -0.41331880 0.37547735 -0.07142857
v -0.41331880 0.37547735 0.07142857
v -0.41331880 0.37547735 0.21428571
v -0.41331880 0.37547735 0.35714286
v -0.37602380 -0.40771772 -0.35714286
v -0.33872880 -0.40771772 -0.42857143
v -0.33872880 -0.44501273 -0.35714286
v -0.33872880 -0.44501273 -0.21428571
v -0.37602380 -0.40771772 -0.21428571
v -0.33872880 -0.44501273 -0.07142857
v -0.37602380 -0.40771772 -0.07142857
v -0.33872880 -0.44501273 0.07142857
v -0.37602380 -0.40771772 0.07142857
v -0.33872880 -0.44501273 0.21428571
v -0.37602380 -0.40771772 0.21428571
v -0.33872880 -0.44501273 0.35714286
v -0.37602380 -0.40771772 0.35714286
v -0.33872880 -0.44501273 0.50000000
v -0.37602380 -0.40771772 0.50000000
v -0.33872880 -0.40771772 0.57142857
v -0.37602380 -0.33312771 -0.64285714
v -0.33872880 -0.33312771 -0.71428571
v -0.33872880 -0.37042272 -0.64285714
v -0.33872880 -0.37042272 -0.50000000
v -0.37602380 -0.33312771 -0.50000000
v -0.37602380 -0.33312771 -0.35714286
v -0.37602380 -0.33312771 0.35714286
v -0.37602380 -0.33312771 0.50000000
v -0.33872880 -0.37042272 0.64285714
v -0.37602380 -0.33312771 0.64285714
v -0.33872880 -0.33312771 0.71428571
v -0.37602380 -0.25853771 -0.64285714
v -0.33872880 -0.25853771 -0.71428571
v -0.37602380 -0.25853771 -0.50000000
v -0.33872880 -0.25853771 0.71428571
v -0.33872880 -0.18394770 -0.71428571
v -0.33872880 -0.22124270 0.78571429
v -0.37602380 -0.18394770 0.78571429
v -0.33872880 -0.18394770 0.85714286
v -0.33872880 -0.10935769 -0.71428571
v -0.37602380 -0.10935769 0.78571429
v -0.33872880 -0.10935769 0.85714286
v -0.33872880 -0.03476769 -0.71428571
v -0.33872880 -0.03476769 0.85714286
v -0.37602380 0.03982232 -0.78571429
v -0.33872880 0.03982232 -0.85714286
v -0.33872880 0.00252732 -0.78571429
v -0.33872880 0.03982232 0.85714286
v -0.33872880 0.07711732 -0.78571429
v -0.33872880 0.11441233 -0.71428571
v -0.33872880 0.11441233 0.85714286
v -0.33872880 0.18900233 -0.71428571
v -0.37602380 0.18900233 0.78571429
v -0.33872880 0.18900233 0.85714286
v -0.37602380 0.26359234 -0.64285714
v -0.33872880 0.26359234 -0.71428571
v -0.37602380 0.26359234 0.64285714
v -0.33872880 0.26359234 0.71428571
v -0.33872880 0.22629734 0.78571429
v -0.37602380 0.33818235 -0.64285714
v -0.33872880 0.33818235 -0.71428571
v -0.37602380 0.33818235 -0.50000000
v -0.37602380 0.33818235 0.50000000
v -0.37602380 0.33818235 0.64285714
v -0.33872880 0.33818235 0.71428571
v -0.33872880 0.37547735 -0.64285714
v -0.37602380 0.41277236 -0.50000000
v -0.33872880 0.41277236 -0.57142857
v -0.37602380 0.41277236 -0.35714286
v -0.37602380 0.41277236 -0.21428571
v -0.37602380 0.41277236 -0.07142857
v -0.37602380 0.41277236 0.07142857
v -0.33872880 0.41277236 0.14285714
v -0.33872880 0.37547735 0.21428571
v -0.33872880 0.37547735 0.35714286
v -0.33872880 0.37547735 0.50000000
v -0.33872880 0.37547735 0.64285714
v -0.33872880 0.45006736 -0.50000000
v -0.37602380 0.48736236 -0.35714286
v -0.33872880 0.48736236 -0.42857143
v -0.37602380 0.48736236 -0.21428571
v -0.37602380 0.48736236 -0.07142857
v -0.33872880 0.48736236 0.00000000
v -0.33872880 0.45006736 0.07142857
v -0.33872880 0.52465737 -0.35714286
v -0.33872880 0.52465737 -0.21428571
v -0.33872880 0.52465737 -0.07142857
v -0.30143379 -0.48230773 -0.35714286
v -0.26413879 -0.48230773 -0.42857143
v -0.26413879 -0.51960273 -0.35714286
v -0.26413879 -0.51960273 -0.21428571
v -0.30143379 -0.48230773 -0.21428571
v -0.26413879 -0.51960273 -0.07142857
v -0.30143379 -0.48230773 -0.07142857
v -0.26413879 -0.51960273 0.07142857
v -0.30143379 -0.48230773 0.07142857
v -0.26413879 -0.48230773 0.14285714
v -0.26413879 -0.40771772 -0.42857143
v -0.26413879 -0.44501273 0.21428571
v -0.26413879 -0.44501273 0.35714286
v -0.26413879 -0.44501273 0.50000000
v -0.26413879 -0.44501273 0.64285714
v -0.30143379 -0.40771772 0.64285714
v -0.26413879 -0.40771772 0.71428571
v -0.26413879 -0.33312771 -0.71428571
v -0.26413879 -0.37042272 -0.64285714
v -0.26413879 -0.37042272 -0.50000000
v -0.26413879 -0.33312771 0.71428571
v -0.26413879 -0.25853771 -0.71428571
v -0.26413879 -0.29583271 0.78571429
v -0.30143379 -0.25853771 0.78571429
v -0.26413879 -0.25853771 0.85714286
v -0.26413879 -0.18394770 -0.71428571
v -0.26413879 -0.18394770 0.85714286
v -0.26413879 -0.10935769 -0.71428571
v -0.26413879 -0.10935769 0.85714286
v -0.30143379 -0.03476769 -0.78571429
v -0.26413879 -0.03476769 -0.85714286
v -0.26413879 -0.07206269 -0.78571429
v -0.26413879 -0.03476769 0.85714286
v -0.26413879 0.03982232 -0.85714286
v -0.26413879 0.03982232 0.85714286
v -0.30143379 0.11441233 -0.78571429
v -0.26413879 0.11441233 -0.85714286
v -0.26413879 0.11441233 0.85714286
v -0.30143379 0.18900233 -0.78571429
v -0.26413879 0.18900233 -0.85714286
v -0.26413879 0.18900233 0.85714286
v -0.26413879 0.22629734 -0.78571429
v -0.26413879 0.26359234 -0.71428571
v -0.30143379 0.26359234 0.78571429
v -0.26413879 0.26359234 0.85714286
v -0.26413879 0.33818235 -0.71428571
v -0.26413879 0.30088735 0.78571429
v -0.26413879 0.33818235 0.71428571
v -0.26413879 0.37547735 -0.64285714
v -0.26413879 0.41277236 -0.57142857
v -0.26413879 0.37547735 0.21428571
v -0.26413879 0.41277236 0.14285714
v -0.26413879 0.37547735 0.35714286
v -0.26413879 0.37547735 0.50000000
v -0.26413879 0.37547735 0.64285714
v -0.26413879 0.45006736 -0.50000000
v -0.26413879 0.48736236 -0.42857143
v -0.30143379 0.48736236 0.07142857
v -0.26413879 0.48736236 0.14285714
v -0.26413879 0.52465737 -0.35714286
v -0.26413879 0.52465737 -0.21428571
v -0.26413879 0.52465737 -0.07142857
v -0.26413879 0.52465737 0.07142857
v -0.18954878 -0.48230773 -0.42857143
v -0.18954878 -0.51960273 -0.35714286
v -0.18954878 -0.51960273 -0.21428571
v -0.18954878 -0.51960273 -0.07142857
v -0.18954878 -0.51960273 0.07142857
v -0.18954878 -0.51960273 0.21428571
v -0.22684379 -0.48230773 0.21428571
v -0.18954878 -0.51960273 0.35714286
v -0.22684379 -0.48230773 0.35714286
v -0.18954878 -0.51960273 0.50000000
v -0.22684379 -0.48230773 0.50000000
v -0.18954878 -0.48230773 0.57142857
v -0.22684379 -0.40771772 -0.64285714
v -0.18954878 -0.40771772 -0.71428571
v -0.18954878 -0.44501273 -0.64285714
v -0.18954878 -0.44501273 -0.50000000
v -0.22684379 -0.40771772 -0.50000000
v -0.18954878 -0.44501273 0.64285714
v -0.18954878 -0.40771772 0.71428571
v -0.18954878 -0.33312771 -0.71428571
v -0.18954878 -0.33312771 0.71428571
v -0.18954878 -0.25853771 -0.71428571
v -0.18954878 -0.29583271 0.78571429
v -0.18954878 -0.25853771 0.85714286
v -0.18954878 -0.18394770 -0.71428571
v -0.18954878 -0.22124270 0.92857143
v -0.22684379 -0.18394770 0.92857143
v -0.18954878 -0.18394770 1.00000000
v -0.22684379 -0.10935769 -0.78571429
v -0.18954878 -0.10935769 -0.85714286
v -0.18954878 -0.14665270 -0.78571429
v -0.22684379 -0.10935769 0.92857143
v -0.18954878 -0.10935769 1.00000000
v -0.22684379 -0.03476769 -0.92857143
v -0.18954878 -0.03476769 -1.00000000
v -0.18954878 -0.07206269 -0.92857143
v -0.22684379 -0.03476769 0.92857143
v -0.18954878 -0.03476769 1.00000000
v -0.22684379 0.03982232 -0.92857143
v -0.18954878 0.03982232 -1.00000000
v -0.22684379 0.03982232 0.92857143
v -0.18954878 0.03982232 1.00000000
v -0.22684379 0.11441233 -0.92857143
v -0.18954878 0.11441233 -1.00000000
v -0.22684379 0.11441233 0.92857143
v -0.18954878 0.11441233 1.00000000
v -0.18954878 0.15170733 -0.92857143
v -0.18954878 0.18900233 -0.85714286
v -0.18954878 0.15170733 0.92857143
v -0.18954878 0.18900233 0.85714286
v -0.22684379 0.26359234 -0.78571429
v -0.18954878 0.26359234 -0.85714286
v -0.18954878 0.26359234 0.85714286
v -0.18954878 0.30088735 -0.78571429
v -0.18954878 0.33818235 -0.71428571
v -0.18954878 0.30088735 0.78571429
v -0.18954878 0.33818235 0.71428571
v -0.18954878 0.37547735 -0.64285714
v -0.18954878 0.41277236 -0.57142857
v -0.18954878 0.37547735 0.21428571
v -0.18954878 0.41277236 0.14285714
v -0.18954878 0.37547735 0.35714286
v -0.18954878 0.37547735 0.50000000
v -0.18954878 0.37547735 0.64285714
v -0.18954878 0.45006736 -0.50000000
v -0.18954878 0.48736236 -0.42857143
v -0.18954878 0.48736236 0.14285714
v -0.18954878 0.52465737 -0.35714286
v -0.18954878 0.52465737 -0.21428571
v -0.18954878 0.52465737 -0.07142857
v -0.18954878 0.52465737 0.07142857
v -0.15225378 -0.55689774 -0.21428571
v -0.11495877 -0.55689774 -0.28571429
v -0.11495877 -0.59419274 -0.21428571
v -0.11495877 -0.59419274 -0.07142857
v -0.15225378 -0.55689774 -0.07142857
v -0.11495877 -0.59419274 0.07142857
v -0.15225378 -0.55689774 0.07142857
v -0.11495877 -0.55689774 0.14285714
v -0.15225378 -0.48230773 -0.50000000
v -0.11495877 -0.48230773 -0.57142857
v -0.11495877 -0.51960273 -0.50000000
v -0.11495877 -0.51960273 -0.35714286
v -0.11495877 -0.51960273 0.21428571
v -0.11495877 -0.51960273 0.35714286
v -0.11495877 -0.51960273 0.50000000
v -0.11495877 -0.51960273 0.64285714
v -0.15225378 -0.48230773 0.64285714
v -0.11495877 -0.48230773 0.71428571
v -0.11495877 -0.40771772 -0.71428571
v -0.11495877 -0.44501273 -0.64285714
v -0.11495877 -0.40771772 0.71428571
v -0.11495877 -0.33312771 -0.71428571
v -0.11495877 -0.37042272 0.78571429
v -0.15225378 -0.33312771 0.78571429
v -0.11495877 -0.33312771 0.85714286
v -0.11495877 -0.25853771 -0.71428571
v -0.11495877 -0.25853771 0.85714286
v -0.15225378 -0.18394770 -0.92857143
v -0.11495877 -0.18394770 -1.00000000
v -0.11495877 -0.22124270 -0.92857143
v -0.11495877 -0.22124270 -0.78571429
v -0.15225378 -0.18394770 -0.78571429
v -0.11495877 -0.22124270 0.92857143
v -0.11495877 -0.18394770 1.00000000
v -0.15225378 -0.10935769 -0.92857143
v -0.11495877 -0.10935769 -1.00000000
v -0.11495877 -0.10935769 1.00000000
v -0.11495877 -0.03476769 -1.00000000
v -0.11495877 -0.03476769 1.00000000
v -0.11495877 0.03982232 -1.00000000
v -0.11495877 0.03982232 1.00000000
v -0.11495877 0.11441233 -1.00000000
v -0.11495877 0.11441233 1.00000000
v -0.15225378 0.18900233 -0.92857143
v -0.11495877 0.18900233 -1.00000000
v -0.15225378 0.18900233 0.92857143
v -0.11495877 0.18900233 1.00000000
v -0.11495877 0.22629734 -0.92857143
v -0.11495877 0.26359234 -0.85714286
v -0.11495877 0.22629734 0.92857143
v -0.11495877 0.26359234 0.85714286
v -0.15225378 0.33818235 -0.78571429
v -0.11495877 0.33818235 -0.85714286
v -0.11495877 0.30088735 0.78571429
v -0.11495877 0.33818235 0.71428571
v -0.11495877 0.37547735 -0.78571429
v -0.15225378 0.41277236 -0.64285714
v -0.11495877 0.41277236 -0.71428571
v -0.11495877 0.37547735 0.21428571
v -0.11495877 0.41277236 0.14285714
v -0.11495877 0.37547735 0.35714286
v -0.11495877 0.37547735 0.50000000
v -0.11495877 0.37547735 0.64285714
v -0.11495877 0.45006736 -0.64285714
v -0.11495877 0.45006736 -0.50000000
v -0.11495877 0.48736236 -0.42857143
v -0.11495877 0.48736236 0.14285714
v -0.11495877 0.52465737 -0.35714286
v -0.15225378 0.56195237 -0.21428571
v -0.11495877 0.56195237 -0.28571429
v -0.15225378 0.56195237 -0.07142857
v -0.15225378 0.56195237 0.07142857
v -0.11495877 0.56195237 0.14285714
v -0.11495877 0.59924737 -0.21428571
v -0.11495877 0.59924737 -0.07142857
v -0.11495877 0.59924737 0.07142857
v -0.07766377 -0.63148774 0.07142857
v -0.04036877 -0.63148774 0.00000000
v -0.04036877 -0.66878275 0.07142857
v -0.04036877 -0.63148774 0.14285714
v -0.04036877 -0.55689774 -0.28571429
v -0.04036877 -0.59419274 -0.21428571
v -0.04036877 -0.59419274 -0.07142857
v -0.04036877 -0.55689774 0.14285714
v -0.07766377 -0.48230773 -0.50000000
v -0.07766377 -0.48230773 -0.35714286
v -0.04036877 -0.48230773 -0.28571429
v -0.04036877 -0.51960273 0.21428571
v -0.04036877 -0.51960273 0.35714286
v -0.04036877 -0.51960273 0.50000000
v -0.04036877 -0.51960273 0.64285714
v -0.04036877 -0.48230773 0.71428571
v -0.04036877 -0.40771772 -0.71428571
v -0.04036877 -0.44501273 -0.64285714
v -0.04036877 -0.44501273 -0.50000000
v -0.04036877 -0.44501273 -0.35714286
v -0.04036877 -0.40771772 0.71428571
v -0.04036877 -0.33312771 -0.71428571
v -0.04036877 -0.37042272 0.78571429
v -0.04036877 -0.33312771 0.85714286
v -0.04036877 -0.25853771 -0.71428571
v -0.04036877 -0.25853771 0.85714286
v -0.04036877 -0.18394770 -1.00000000
v -0.04036877 -0.22124270 -0.92857143
v -0.04036877 -0.22124270 -0.78571429
v -0.04036877 -0.22124270 0.92857143
v -0.04036877 -0.18394770 1.00000000
v -0.04036877 -0.10935769 -1.00000000
v -0.04036877 -0.10935769 1.00000000
v -0.04036877 -0.03476769 -1.00000000
v -0.04036877 -0.03476769 1.00000000
v -0.04036877 0.03982232 -1.00000000
v -0.04036877 0.03982232 1.00000000
v -0.04036877 0.11441233 -1.00000000
v -0.04036877 0.11441233 1.00000000
v -0.04036877 0.18900233 -1.00000000
v -0.04036877 0.18900233 1.00000000
v -0.04036877 0.22629734 -0.92857143
v -0.04036877 0.26359234 -0.85714286
v -0.04036877 0.22629734 0.92857143
v -0.04036877 0.26359234 0.85714286
v -0.04036877 0.33818235 -0.85714286
v -0.07766377 0.33818235 0.78571429
v -0.04036877 0.33818235 0.85714286
v -0.04036877 0.37547735 -0.78571429
v -0.04036877 0.41277236 -0.71428571
v -0.04036877 0.37547735 0.21428571
v -0.04036877 0.41277236 0.14285714
v -0.04036877 0.37547735 0.35714286
v -0.04036877 0.37547735 0.50000000
v -0.04036877 0.37547735 0.64285714
v -0.04036877 0.37547735 0.78571429
v -0.04036877 0.45006736 -0.64285714
v -0.04036877 0.45006736 -0.50000000
v -0.04036877 0.48736236 -0.42857143
v -0.04036877 0.48736236 0.14285714
v -0.04036877 0.52465737 -0.35714286
v -0.04036877 0.56195237 -0.28571429
v -0.04036877 0.56195237 0.14285714
v -0.04036877 0.59924737 -0.21428571
v -0.04036877 0.59924737 -0.07142857
v -0.04036877 0.59924737 0.07142857
v -0.00307376 -0.63148774 -0.07142857
v 0.03422124 -0.63148774 -0.14285714
v 0.03422124 -0.66878275 -0.07142857
v 0.03422124 -0.66878275 0.07142857
v 0.03422124 -0.63148774 0.14285714
v 0.03422124 -0.55689774 -0.28571429
v 0.03422124 -0.59419274 -0.21428571
v 0.03422124 -0.55689774 0.14285714
v 0.03422124 -0.48230773 -0.28571429
v 0.03422124 -0.51960273 0.21428571
v 0.03422124 -0.51960273 0.35714286
v -0.00307376 -0.48230773 0.50000000
v 0.03422124 -0.48230773 0.42857143
v -0.00307376 -0.48230773 0.64285714
v -0.00307376 -0.40771772 -0.64285714
v -0.00307376 -0.40771772 -0.50000000
v 0.03422124 -0.40771772 -0.42857143
v 0.03422124 -0.44501273 -0.35714286
v 0.03422124 -0.44501273 0.50000000
v 0.03422124 -0.44501273 0.64285714
v 0.03422124 -0.40771772 0.71428571
v -0.00307376 -0.33312771 -0.78571429
v 0.03422124 -0.33312771 -0.85714286
v 0.03422124 -0.37042272 -0.78571429
v 0.03422124 -0.37042272 -0.64285714
v 0.03422124 -0.37042272 -0.50000000
v 0.03422124 -0.37042272 0.78571429
v 0.03422124 -0.33312771 0.85714286
v -0.00307376 -0.25853771 -0.78571429
v 0.03422124 -0.25853771 -0.85714286
v 0.03422124 -0.25853771 0.85714286
v 0.03422124 -0.18394770 -1.00000000
v 0.03422124 -0.22124270 -0.92857143
v 0.03422124 -0.22124270 0.92857143
v 0.03422124 -0.18394770 1.00000000
v 0.03422124 -0.10935769 -1.00000000
v 0.03422124 -0.10935769 1.00000000
v 0.03422124 -0.03476769 -1.00000000
v 0.03422124 -0.03476769 1.00000000
v 0.03422124 0.03982232 -1.00000000
v 0.03422124 0.03982232 1.00000000
v 0.03422124 0.11441233 -1.00000000
v 0.03422124 0.11441233 1.00000000
v 0.03422124 0.18900233 -1.00000000
v 0.03422124 0.18900233 1.00000000
v 0.03422124 0.22629734 -0.92857143
v 0.03422124 0.26359234 -0.85714286
v 0.03422124 0.22629734 0.92857143
v 0.03422124 0.26359234 0.85714286
v 0.03422124 0.33818235 -0.85714286
v 0.03422124 0.33818235 0.85714286
v 0.03422124 0.37547735 -0.78571429
v 0.03422124 0.41277236 -0.71428571
v 0.03422124 0.37547735 0.21428571
v 0.03422124 0.41277236 0.14285714
v 0.03422124 0.37547735 0.35714286
v 0.03422124 0.37547735 0.50000000
v 0.03422124 0.37547735 0.64285714
v 0.03422124 0.37547735 0.78571429
v 0.03422124 0.45006736 -0.64285714
v -0.00307376 0.48736236 -0.50000000
v 0.03422124 0.48736236 -0.57142857
v 0.03422124 0.48736236 0.14285714
v 0.03422124 0.52465737 -0.50000000
v 0.03422124 0.52465737 -0.35714286
v 0.03422124 0.56195237 -0.28571429
v 0.03422124 0.56195237 0.14285714
v 0.03422124 0.59924737 -0.21428571
v 0.03422124 0.59924737 -0.07142857
v 0.03422124 0.59924737 0.07142857
v 0.07151624 -0.63148774 -0.07142857
v 0.07151624 -0.63148774 0.07142857
v 0.10881125 -0.55689774 -0.28571429
v 0.10881125 -0.59419274 -0.21428571
v 0.10881125 -0.59419274 -0.07142857
v 0.10881125 -0.59419274 0.07142857
v 0.10881125 -0.55689774 0.14285714
v 0.10881125 -0.48230773 -0.28571429
v 0.10881125 -0.51960273 0.21428571
v 0.07151624 -0.48230773 0.35714286
v 0.10881125 -0.48230773 0.28571429
v 0.10881125 -0.40771772 -0.42857143
v 0.10881125 -0.44501273 -0.35714286
v 0.07151624 -0.40771772 0.35714286
v 0.10881125 -0.40771772 0.28571429
v 0.07151624 -0.40771772 0.50000000
v 0.07151624 -0.40771772 0.64285714
v 0.07151624 -0.33312771 -0.78571429
v 0.10881125 -0.33312771 -0.71428571
v 0.10881125 -0.37042272 -0.64285714
v 0.10881125 -0.37042272 -0.50000000
v 0.10881125 -0.37042272 0.35714286
v 0.10881125 -0.37042272 0.50000000
v 0.10881125 -0.37042272 0.64285714
v 0.07151624 -0.33312771 0.78571429
v 0.10881125 -0.33312771 0.71428571
v 0.10881125 -0.25853771 -0.85714286
v 0.10881125 -0.29583271 -0.78571429
v 0.10881125 -0.29583271 0.78571429
v 0.10881125 -0.25853771 0.85714286
v 0.10881125 -0.18394770 -1.00000000
v 0.10881125 -0.22124270 -0.92857143
v 0.10881125 -0.22124270 0.92857143
v 0.10881125 -0.18394770 1.00000000
v 0.10881125 -0.10935769 -1.00000000
v 0.10881125 -0.10935769 1.00000000
v 0.10881125 -0.03476769 -1.00000000
v 0.10881125 -0.03476769 1.00000000
v 0.10881125 0.03982232 -1.00000000
v 0.10881125 0.03982232 1.00000000
v 0.10881125 0.11441233 -1.00000000
v 0.10881125 0.11441233 1.00000000
v 0.10881125 0.18900233 -1.00000000
v 0.10881125 0.18900233 1.00000000
v 0.10881125 0.22629734 -0.92857143
v 0.10881125 0.26359234 -0.85714286
v 0.10881125 0.22629734 0.92857143
v 0.10881125 0.26359234 0.85714286
v 0.10881125 0.30088735 -0.78571429
v 0.07151624 0.33818235 -0.78571429
v 0.10881125 0.33818235 -0.71428571
v 0.07151624 0.33818235 0.78571429
v 0.10881125 0.30088735 0.78571429
v 0.10881125 0.33818235 0.71428571
v 0.10881125 0.41277236 -0.71428571
v 0.07151624 0.41277236 0.21428571
v 0.07151624 0.41277236 0.35714286
v 0.07151624 0.41277236 0.50000000
v 0.07151624 0.41277236 0.64285714
v 0.10881125 0.41277236 0.71428571
v 0.10881125 0.45006736 -0.64285714
v 0.10881125 0.48736236 -0.57142857
v 0.07151624 0.48736236 0.21428571
v 0.07151624 0.48736236 0.35714286
v 0.07151624 0.48736236 0.50000000
v 0.10881125 0.48736236 0.57142857
v 0.10881125 0.45006736 0.64285714
v 0.10881125 0.52465737 -0.50000000
v 0.10881125 0.52465737 -0.35714286
v 0.10881125 0.56195237 -0.28571429
v 0.07151624 0.56195237 0.07142857
v 0.10881125 0.52465737 0.07142857
v 0.10881125 0.56195237 0.00000000
v 0.10881125 0.52465737 0.21428571
v 0.10881125 0.52465737 0.35714286
v 0.10881125 0.52465737 0.50000000
v 0.10881125 0.59924737 -0.21428571
v 0.10881125 0.59924737 -0.07142857
v 0.18340125 -0.55689774 -0.28571429
v 0.18340125 -0.59419274 -0.21428571
v 0.18340125 -0.59419274 -0.07142857
v 0.18340125 -0.59419274 0.07142857
v 0.18340125 -0.55689774 0.14285714
v 0.14610625 -0.48230773 -0.35714286
v 0.18340125 -0.48230773 -0.42857143
v 0.18340125 -0.51960273 -0.35714286
v 0.14610625 -0.48230773 0.21428571
v 0.18340125 -0.48230773 0.14285714
v 0.18340125 -0.40771772 -0.42857143
v 0.14610625 -0.40771772 0.21428571
v 0.18340125 -0.40771772 0.14285714
v 0.18340125 -0.33312771 -0.71428571
v 0.18340125 -0.37042272 -0.64285714
v 0.18340125 -0.37042272 -0.50000000
v 0.18340125 -0.37042272 0.21428571
v 0.18340125 -0.37042272 0.35714286
v 0.18340125 -0.37042272 0.50000000
v 0.18340125 -0.37042272 0.64285714
v 0.18340125 -0.33312771 0.71428571
v 0.18340125 -0.25853771 -0.85714286
v 0.18340125 -0.29583271 -0.78571429
v 0.18340125 -0.29583271 0.78571429
v 0.18340125 -0.25853771 0.85714286
v 0.14610625 -0.18394770 -0.92857143
v 0.18340125 -0.18394770 -0.85714286
v 0.14610625 -0.18394770 0.92857143
v 0.18340125 -0.18394770 0.85714286
v 0.18340125 -0.10935769 -1.00000000
v 0.18340125 -0.14665270 -0.92857143
v 0.14610625 -0.10935769 0.92857143
v 0.18340125 -0.10935769 0.85714286
v 0.18340125 -0.03476769 -1.00000000
v 0.14610625 -0.03476769 0.92857143
v 0.18340125 -0.03476769 0.85714286
v 0.18340125 0.03982232 -1.00000000
v 0.18340125 0.00252732 0.92857143
v 0.18340125 0.03982232 1.00000000
v 0.18340125 0.11441233 -1.00000000
v 0.18340125 0.11441233 1.00000000
v 0.18340125 0.18900233 -1.00000000
v 0.18340125 0.18900233 1.00000000
v 0.18340125 0.22629734 -0.92857143
v 0.18340125 0.26359234 -0.85714286
v 0.18340125 0.22629734 0.92857143
v 0.18340125 0.26359234 0.85714286
v 0.18340125 0.30088735 -0.78571429
v 0.18340125 0.33818235 -0.71428571
v 0.18340125 0.30088735 0.78571429
v 0.18340125 0.33818235 0.71428571
v 0.18340125 0.41277236 -0.71428571
v 0.18340125 0.41277236 0.71428571
v 0.18340125 0.45006736 -0.64285714
v 0.18340125 0.48736236 -0.57142857
v 0.14610625 0.48736236 0.50000000
v 0.18340125 0.45006736 0.50000000
v 0.18340125 0.48736236 0.42857143
v 0.18340125 0.45006736 0.64285714
v 0.18340125 0.52465737 -0.50000000
v 0.18340125 0.52465737 -0.35714286
v 0.14610625 0.56195237 -0.21428571
v 0.18340125 0.52465737 -0.21428571
v 0.18340125 0.56195237 -0.14285714
v 0.18340125 0.52465737 0.07142857
v 0.18340125 0.56195237 0.00000000
v 0.18340125 0.52465737 0.21428571
v 0.18340125 0.52465737 0.35714286
v 0.18340125 0.59924737 -0.07142857
v 0.22069626 -0.55689774 -0.21428571
v 0.22069626 -0.55689774 -0.07142857
v 0.22069626 -0.55689774 0.07142857
v 0.25799126 -0.48230773 -0.42857143
v 0.25799126 -0.51960273 -0.35714286
v 0.25799126 -0.51960273 -0.21428571
v 0.25799126 -0.51960273 -0.07142857
v 0.25799126 -0.51960273 0.07142857
v 0.25799126 -0.48230773 0.14285714
v 0.25799126 -0.40771772 -0.42857143
v 0.25799126 -0.40771772 0.14285714
v 0.25799126 -0.33312771 -0.71428571
v 0.25799126 -0.37042272 -0.64285714
v 0.25799126 -0.37042272 -0.50000000
v 0.25799126 -0.37042272 0.21428571
v 0.25799126 -0.37042272 0.35714286
v 0.25799126 -0.37042272 0.50000000
v 0.25799126 -0.37042272 0.64285714
v 0.25799126 -0.33312771 0.71428571
v 0.25799126 -0.25853771 -0.85714286
v 0.25799126 -0.29583271 -0.78571429
v 0.22069626 -0.25853771 0.78571429
v 0.25799126 -0.25853771 0.71428571
v 0.25799126 -0.18394770 -0.85714286
v 0.25799126 -0.22124270 0.78571429
v 0.25799126 -0.18394770 0.85714286
v 0.22069626 -0.10935769 -0.92857143
v 0.25799126 -0.10935769 -0.85714286
v 0.25799126 -0.10935769 0.85714286
v 0.25799126 -0.03476769 -1.00000000
v 0.25799126 -0.07206269 -0.92857143
v 0.25799126 -0.03476769 0.85714286
v 0.25799126 0.03982232 -1.00000000
v 0.22069626 0.03982232 0.92857143
v 0.25799126 0.03982232 0.85714286
v 0.25799126 0.07711732 -0.92857143
v 0.22069626 0.11441233 -0.92857143
v 0.25799126 0.11441233 -0.85714286
v 0.22069626 0.11441233 0.92857143
v 0.25799126 0.11441233 0.85714286
v 0.22069626 0.18900233 -0.92857143
v 0.25799126 0.18900233 -0.85714286
v 0.22069626 0.18900233 0.92857143
v 0.25799126 0.18900233 0.85714286
v 0.25799126 0.26359234 -0.85714286
v 0.25799126 0.26359234 0.85714286
v 0.25799126 0.30088735 -0.78571429
v 0.25799126 0.33818235 -0.71428571
v 0.25799126 0.30088735 0.78571429
v 0.25799126 0.33818235 0.71428571
v 0.25799126 0.37547735 -0.64285714
v 0.22069626 0.41277236 -0.64285714
v 0.25799126 0.41277236 -0.57142857
v 0.25799126 0.41277236 0.71428571
v 0.22069626 0.48736236 -0.50000000
v 0.25799126 0.45006736 -0.50000000
v 0.25799126 0.48736236 -0.42857143
v 0.22069626 0.48736236 0.35714286
v 0.25799126 0.45006736 0.35714286
v 0.25799126 0.48736236 0.28571429
v 0.25799126 0.45006736 0.50000000
v 0.25799126 0.45006736 0.64285714
v 0.25799126 0.52465737 -0.35714286
v 0.25799126 0.52465737 -0.21428571
v 0.22069626 0.56195237 -0.07142857
v 0.25799126 0.52465737 -0.07142857
v 0.25799126 0.52465737 0.07142857
v 0.25799126 0.52465737 0.21428571
v 0.29528626 -0.48230773 -0.35714286
v 0.33258127 -0.48230773 -0.28571429
v 0.33258127 -0.51960273 -0.21428571
v 0.33258127 -0.51960273 -0.07142857
v 0.33258127 -0.51960273 0.07142857
v 0.33258127 -0.48230773 0.14285714
v 0.33258127 -0.40771772 -0.42857143
v 0.33258127 -0.44501273 -0.35714286
v 0.33258127 -0.40771772 0.14285714
v 0.33258127 -0.33312771 -0.71428571
v 0.33258127 -0.37042272 -0.64285714
v 0.33258127 -0.37042272 -0.50000000
v 0.29528626 -0.33312771 0.21428571
v 0.33258127 -0.33312771 0.14285714
v 0.29528626 -0.33312771 0.35714286
v 0.29528626 -0.33312771 0.50000000
v 0.29528626 -0.33312771 0.64285714
v 0.29528626 -0.25853771 -0.78571429
v 0.33258127 -0.25853771 -0.71428571
v 0.33258127 -0.29583271 0.21428571
v 0.33258127 -0.29583271 0.35714286
v 0.33258127 -0.29583271 0.50000000
v 0.33258127 -0.29583271 0.64285714
v 0.33258127 -0.25853771 0.71428571
v 0.33258127 -0.18394770 -0.85714286
v 0.33258127 -0.22124270 -0.78571429
v 0.29528626 -0.18394770 0.78571429
v 0.33258127 -0.18394770 0.71428571
v 0.33258127 -0.10935769 -0.85714286
v 0.33258127 -0.14665270 0.78571429
v 0.33258127 -0.10935769 0.85714286
v 0.29528626 -0.03476769 -0.92857143
v 0.33258127 -0.03476769 -0.85714286
v 0.33258127 -0.03476769 0.85714286
v 0.29528626 0.03982232 -0.92857143
v 0.33258127 0.03982232 -0.85714286
v 0.33258127 0.03982232 0.85714286
v 0.33258127 0.11441233 -0.85714286
v 0.33258127 0.11441233 0.85714286
v 0.33258127 0.15170733 -0.78571429
v 0.29528626 0.18900233 -0.78571429
v 0.33258127 0.18900233 -0.71428571
v 0.29528626 0.18900233 0.78571429
v 0.33258127 0.15170733 0.78571429
v 0.33258127 0.18900233 0.71428571
v 0.29528626 0.26359234 -0.78571429
v 0.33258127 0.26359234 -0.71428571
v 0.29528626 0.26359234 0.78571429
v 0.33258127 0.26359234 0.71428571
v 0.33258127 0.33818235 -0.71428571
v 0.33258127 0.33818235 0.71428571
v 0.33258127 0.37547735 -0.64285714
v 0.33258127 0.41277236 -0.57142857
v 0.29528626 0.41277236 0.64285714
v 0.33258127 0.37547735 0.64285714
v 0.33258127 0.41277236 0.57142857
v 0.33258127 0.45006736 -0.50000000
v 0.29528626 0.48736236 -0.35714286
v 0.33258127 0.45006736 -0.35714286
v 0.33258127 0.48736236 -0.28571429
v 0.29528626 0.48736236 0.07142857
v 0.33258127 0.45006736 0.07142857
v 0.33258127 0.48736236 0.00000000
v 0.29528626 0.48736236 0.21428571
v 0.33258127 0.45006736 0.21428571
v 0.33258127 0.45006736 0.35714286
v 0.33258127 0.45006736 0.50000000
v 0.33258127 0.52465737 -0.21428571
v 0.33258127 0.52465737 -0.07142857
v 0.36987627 -0.48230773 -0.21428571
v 0.36987627 -0.48230773 -0.07142857
v 0.36987627 -0.48230773 0.07142857
v 0.36987627 -0.40771772 -0.35714286
v 0.36987627 -0.40771772 -0.21428571
v 0.36987627 -0.40771772 -0.07142857
v 0.36987627 -0.40771772 0.07142857
v 0.36987627 -0.33312771 -0.64285714
v 0.36987627 -0.33312771 -0.50000000
v 0.36987627 -0.33312771 -0.35714286
v 0.40717128 -0.33312771 -0.28571429
v 0.40717128 -0.37042272 -0.21428571
v 0.40717128 -0.37042272 -0.07142857
v 0.40717128 -0.37042272 0.07142857
v 0.40717128 -0.33312771 0.14285714
v 0.36987627 -0.25853771 -0.64285714
v 0.36987627 -0.25853771 -0.50000000
v 0.36987627 -0.25853771 -0.35714286
v 0.40717128 -0.25853771 -0.28571429
v 0.36987627 -0.25853771 0.21428571
v 0.40717128 -0.25853771 0.14285714
v 0.36987627 -0.25853771 0.35714286
v 0.36987627 -0.25853771 0.50000000
v 0.36987627 -0.25853771 0.64285714
v 0.36987627 -0.18394770 -0.78571429
v 0.40717128 -0.18394770 -0.71428571
v 0.40717128 -0.22124270 -0.64285714
v 0.40717128 -0.22124270 -0.50000000
v 0.40717128 -0.22124270 -0.35714286
v 0.36987627 -0.18394770 0.21428571
v 0.40717128 -0.18394770 0.14285714
v 0.36987627 -0.18394770 0.35714286
v 0.36987627 -0.18394770 0.50000000
v 0.36987627 -0.18394770 0.64285714
v 0.36987627 -0.10935769 -0.78571429
v 0.40717128 -0.10935769 -0.71428571
v 0.40717128 -0.14665270 0.21428571
v 0.40717128 -0.14665270 0.35714286
v 0.40717128 -0.14665270 0.50000000
v 0.40717128 -0.14665270 0.64285714
v 0.36987627 -0.10935769 0.78571429
v 0.40717128 -0.10935769 0.71428571
v 0.40717128 -0.03476769 -0.85714286
v 0.40717128 -0.07206269 -0.78571429
v 0.36987627 -0.03476769 0.78571429
v 0.40717128 -0.03476769 0.71428571
v 0.40717128 0.03982232 -0.85714286
v 0.36987627 0.03982232 0.78571429
v 0.40717128 0.03982232 0.71428571
v 0.40717128 0.07711732 -0.78571429
v 0.36987627 0.11441233 -0.78571429
v 0.40717128 0.11441233 -0.71428571
v 0.36987627 0.11441233 0.78571429
v 0.40717128 0.11441233 0.71428571
v 0.40717128 0.18900233 -0.71428571
v 0.40717128 0.18900233 0.71428571
v 0.40717128 0.22629734 -0.64285714
v 0.36987627 0.26359234 -0.64285714
v 0.40717128 0.26359234 -0.57142857
v 0.36987627 0.26359234 0.64285714
v 0.40717128 0.22629734 0.64285714
v 0.40717128 0.26359234 0.57142857
v 0.36987627 0.33818235 -0.64285714
v 0.40717128 0.33818235 -0.57142857
v 0.36987627 0.33818235 0.50000000
v 0.40717128 0.30088735 0.50000000
v 0.40717128 0.33818235 0.42857143
v 0.36987627 0.33818235 0.64285714
v 0.36987627 0.41277236 -0.50000000
v 0.40717128 0.37547735 -0.50000000
v 0.36987627 0.41277236 -0.35714286
v 0.40717128 0.37547735 -0.35714286
v 0.36987627 0.41277236 -0.21428571
v 0.40717128 0.37547735 -0.21428571
v 0.36987627 0.41277236 -0.07142857
v 0.40717128 0.37547735 -0.07142857
v 0.36987627 0.41277236 0.07142857
v 0.40717128 0.37547735 0.07142857
v 0.36987627 0.41277236 0.21428571
v 0.40717128 0.37547735 0.21428571
v 0.36987627 0.41277236 0.35714286
v 0.40717128 0.37547735 0.35714286
v 0.36987627 0.41277236 0.50000000
v 0.36987627 0.48736236 -0.21428571
v 0.36987627 0.48736236 -0.07142857
v 0.44446628 -0.33312771 -0.21428571
v 0.44446628 -0.33312771 -0.07142857
v 0.44446628 -0.33312771 0.07142857
v 0.44446628 -0.25853771 -0.21428571
v 0.44446628 -0.25853771 -0.07142857
v 0.44446628 -0.25853771 0.07142857
v 0.44446628 -0.18394770 -0.64285714
v 0.44446628 -0.18394770 -0.50000000
v 0.48176128 -0.18394770 -0.42857143
v 0.48176128 -0.22124270 -0.35714286
v 0.48176128 -0.22124270 -0.21428571
v 0.48176128 -0.18394770 -0.14285714
v 0.44446628 -0.18394770 -0.07142857
v 0.44446628 -0.18394770 0.07142857
v 0.48176128 -0.10935769 -0.71428571
v 0.48176128 -0.14665270 -0.64285714
v 0.48176128 -0.14665270 -0.50000000
v 0.48176128 -0.14665270 -0.07142857
v 0.48176128 -0.14665270 0.07142857
v 0.48176128 -0.14665270 0.21428571
v 0.48176128 -0.14665270 0.35714286
v 0.48176128 -0.14665270 0.50000000
v 0.44446628 -0.10935769 0.64285714
v 0.48176128 -0.10935769 0.57142857
v 0.44446628 -0.03476769 -0.78571429
v 0.48176128 -0.03476769 -0.71428571
v 0.48176128 -0.07206269 0.64285714
v 0.48176128 -0.03476769 0.71428571
v 0.44446628 0.03982232 -0.78571429
v 0.48176128 0.03982232 -0.71428571
v 0.48176128 0.03982232 0.71428571
v 0.48176128 0.11441233 -0.71428571
v 0.48176128 0.11441233 0.71428571
v 0.48176128 0.15170733 -0.64285714
v 0.44446628 0.18900233 -0.64285714
v 0.44446628 0.18900233 -0.50000000
v 0.48176128 0.15170733 -0.50000000
v 0.48176128 0.18900233 -0.42857143
v 0.44446628 0.18900233 0.64285714
v 0.48176128 0.15170733 0.64285714
v 0.48176128 0.18900233 0.57142857
v 0.44446628 0.26359234 -0.50000000
v 0.48176128 0.26359234 -0.42857143
v 0.44446628 0.26359234 0.07142857
v 0.48176128 0.22629734 0.07142857
v 0.48176128 0.26359234 0.00000000
v 0.44446628 0.26359234 0.21428571
v 0.48176128 0.22629734 0.21428571
v 0.44446628 0.26359234 0.35714286
v 0.48176128 0.22629734 0.35714286
v 0.44446628 0.26359234 0.50000000
v 0.48176128 0.22629734 0.50000000
v 0.44446628 0.33818235 -0.50000000
v 0.48176128 0.30088735 -0.35714286
v 0.44446628 0.33818235 -0.35714286
v 0.44446628 0.33818235 -0.21428571
v 0.48176128 0.30088735 -0.21428571
v 0.44446628 0.33818235 -0.07142857
v 0.48176128 0.30088735 -0.07142857
v 0.44446628 0.33818235 0.07142857
v 0.44446628 0.33818235 0.21428571
v 0.44446628 0.33818235 0.35714286
v 0.51905629 -0.18394770 -0.35714286
v 0.51905629 -0.18394770 -0.21428571
v 0.51905629 -0.10935769 -0.64285714
v 0.51905629 -0.10935769 -0.50000000
v 0.51905629 -0.10935769 -0.35714286
v 0.51905629 -0.10935769 -0.21428571
v 0.51905629 -0.10935769 -0.07142857
v 0.51905629 -0.10935769 0.07142857
v 0.51905629 -0.10935769 0.21428571
v 0.51905629 -0.10935769 0.35714286
v 0.51905629 -0.10935769 0.50000000
v 0.51905629 -0.03476769 -0.64285714
v 0.51905629 -0.03476769 -0.50000000
v 0.51905629 -0.03476769 -0.35714286
v 0.55635129 -0.03476769 -0.28571429
v 0.55635129 -0.07206269 -0.21428571
v 0.55635129 -0.03476769 -0.14285714
v 0.51905629 -0.03476769 -0.07142857
v 0.51905629 -0.03476769 0.07142857
v 0.51905629 -0.03476769 0.21428571
v 0.51905629 -0.03476769 0.35714286
v 0.51905629 -0.03476769 0.50000000
v 0.51905629 -0.03476769 0.64285714
v 0.51905629 0.03982232 -0.64285714
v 0.51905629 0.03982232 -0.50000000
v 0.55635129 0.03982232 -0.42857143
v 0.55635129 0.00252732 -0.35714286
v 0.51905629 0.03982232 -0.07142857
v 0.55635129 0.03982232 -0.14285714
v 0.51905629 0.03982232 0.07142857
v 0.51905629 0.03982232 0.21428571
v 0.51905629 0.03982232 0.35714286
v 0.51905629 0.03982232 0.50000000
v 0.51905629 0.03982232 0.64285714
v 0.51905629 0.11441233 -0.64285714
v 0.51905629 0.11441233 -0.50000000
v 0.55635129 0.07711732 -0.35714286
v 0.51905629 0.11441233 -0.35714286
v 0.51905629 0.11441233 -0.21428571
v 0.55635129 0.07711732 -0.21428571
v 0.51905629 0.11441233 -0.07142857
v 0.51905629 0.11441233 0.07142857
v 0.51905629 0.11441233 0.21428571
v 0.51905629 0.11441233 0.35714286
v 0.51905629 0.11441233 0.50000000
v 0.51905629 0.11441233 0.64285714
v 0.51905629 0.18900233 -0.35714286
v 0.51905629 0.18900233 -0.21428571
v 0.51905629 0.18900233 -0.07142857
v 0.51905629 0.18900233 0.07142857
v 0.51905629 0.18900233 0.21428571
v 0.51905629 0.18900233 0.35714286
v 0.51905629 0.18900233 0.50000000
v 0.51905629 0.26359234 -0.35714286
v 0.51905629 0.26359234 -0.21428571
v 0.51905629 0.26359234 -0.07142857
v 0.59364629 -0.03476769 -0.21428571
v 0.59364629 0.03982232 -0.35714286
v 0.59364629 0.03982232 -0.21428571
f 3 2 1
f 5 4 1
f 1 4 3
f 5 6 4
f 2 7 1
f 1 7 5
f 5 7 8
f 5 8 6
f 11 10 9
f 9 12 11
f 9 10 13
f 13 10 14
f 12 9 15
f 9 16 15
f 9 13 16
f 18 17 16
f 16 17 15
f 20 19 18
f 18 19 17
f 22 21 20
f 20 21 19
f 24 23 22
f 22 23 21
f 24 25 23
f 28 27 26
f 30 29 26
f 26 29 28
f 29 30 14
f 30 13 14
f 30 31 13
f 13 32 16
f 13 31 32
f 16 33 18
f 16 32 33
f 18 34 20
f 18 33 34
f 20 35 22
f 20 34 35
f 22 36 24
f 22 35 36
f 25 24 37
f 24 38 37
f 24 36 38
f 38 39 37
f 27 40 26
f 26 40 30
f 30 40 41
f 43 42 41
f 42 30 41
f 42 31 30
f 31 44 32
f 31 42 44
f 44 2 3
f 33 44 3
f 32 44 33
f 33 3 4
f 33 4 34
f 34 4 6
f 45 34 6
f 35 34 45
f 35 46 36
f 35 45 46
f 36 47 38
f 36 46 47
f 39 38 48
f 48 38 47
f 42 43 49
f 49 43 50
f 42 51 44
f 42 49 51
f 52 7 2
f 44 52 2
f 51 52 44
f 53 8 7
f 53 7 52
f 45 6 8
f 53 45 8
f 54 45 53
f 45 55 46
f 45 54 55
f 46 56 47
f 46 55 56
f 48 47 57
f 57 47 56
f 49 50 58
f 58 50 59
f 49 60 51
f 49 58 60
f 51 61 52
f 51 60 61
f 52 62 53
f 52 61 62
f 53 63 54
f 53 62 63
f 54 64 55
f 54 63 64
f 55 65 56
f 55 64 65
f 57 56 66
f 66 56 65
f 58 59 67
f 67 59 68
f 58 69 60
f 58 67 69
f 60 70 61
f 60 69 70
f 61 71 62
f 61 70 71
f 62 72 63
f 62 71 72
f 74 64 73
f 64 72 73
f 64 63 72
f 64 74 65
f 65 74 75
f 65 75 66
f 68 76 67
f 78 77 76
f 77 67 76
f 77 69 67
f 69 79 70
f 69 77 79
f 81 71 80
f 71 79 80
f 71 70 79
f 71 81 72
f 72 81 82
f 72 82 73
f 77 78 83
f 83 78 84
f 77 85 79
f 77 83 85
f 80 79 86
f 86 79 85
f 84 87 83
f 83 87 85
f 85 87 88
f 85 88 86
f 91 90 89
f 93 92 89
f 89 92 91
f 95 94 93
f 93 94 92
f 97 96 95
f 95 96 94
f 97 98 96
f 101 100 99
f 101 99 90
f 90 99 89
f 99 10 89
f 10 11 89
f 89 11 12
f 102 89 12
f 93 89 102
f 93 103 95
f 93 102 103
f 95 104 97
f 95 103 104
f 98 97 105
f 97 106 105
f 97 104 106
f 108 107 106
f 106 107 105
f 110 109 108
f 108 109 107
f 110 111 109
f 114 113 112
f 116 115 112
f 112 115 114
f 115 116 100
f 116 99 100
f 116 117 99
f 117 14 10
f 117 10 99
f 15 102 12
f 102 15 17
f 102 17 103
f 103 17 19
f 103 19 104
f 104 19 21
f 104 21 106
f 106 21 23
f 106 23 108
f 108 23 25
f 118 108 25
f 110 108 118
f 111 110 119
f 119 110 118
f 112 113 120
f 120 113 121
f 120 27 28
f 116 120 28
f 112 120 116
f 116 28 29
f 116 29 117
f 117 29 14
f 37 118 25
f 37 39 118
f 39 119 118
f 39 122 119
f 120 121 123
f 123 121 124
f 125 40 27
f 120 125 27
f 123 125 120
f 126 41 40
f 126 40 125
f 126 43 41
f 48 128 127
f 122 48 127
f 39 48 122
f 128 129 127
f 123 124 130
f 130 124 131
f 123 132 125
f 123 130 132
f 125 133 126
f 125 132 133
f 133 50 43
f 133 43 126
f 57 134 128
f 57 128 48
f 129 128 135
f 135 128 134
f 130 131 136
f 136 131 137
f 130 138 132
f 130 136 138
f 132 139 133
f 132 138 139
f 139 59 50
f 139 50 133
f 66 140 134
f 66 134 57
f 135 134 141
f 141 134 140
f 136 137 142
f 142 137 143
f 136 144 138
f 136 142 144
f 138 145 139
f 138 144 145
f 145 68 59
f 145 59 139
f 73 146 74
f 147 75 74
f 147 74 146
f 147 148 75
f 75 148 66
f 148 149 66
f 149 140 66
f 140 149 141
f 143 150 142
f 152 151 150
f 151 142 150
f 151 144 142
f 144 153 145
f 144 151 153
f 154 76 68
f 145 154 68
f 153 154 145
f 154 78 76
f 80 155 81
f 156 82 81
f 156 81 155
f 146 73 82
f 156 146 82
f 157 146 156
f 159 147 158
f 147 157 158
f 147 146 157
f 147 159 148
f 152 160 151
f 162 161 160
f 161 151 160
f 161 153 151
f 153 163 154
f 153 161 163
f 163 84 78
f 163 78 154
f 86 164 155
f 86 155 80
f 155 165 156
f 155 164 165
f 167 157 166
f 157 165 166
f 157 156 165
f 157 167 158
f 162 168 161
f 161 168 163
f 163 168 169
f 163 169 84
f 169 87 84
f 169 170 87
f 87 171 88
f 170 171 87
f 86 88 164
f 88 172 164
f 88 171 172
f 164 172 165
f 165 172 173
f 165 173 166
f 176 175 174
f 178 177 174
f 174 177 176
f 180 179 178
f 178 179 177
f 182 181 180
f 180 181 179
f 184 183 182
f 182 183 181
f 186 185 184
f 184 185 183
f 188 187 186
f 186 187 185
f 188 189 187
f 192 191 190
f 194 193 190
f 190 193 192
f 193 194 175
f 194 174 175
f 194 195 174
f 195 90 91
f 178 195 91
f 174 195 178
f 178 91 92
f 178 92 180
f 180 92 94
f 180 94 182
f 182 94 96
f 182 96 184
f 184 96 98
f 196 184 98
f 186 184 196
f 186 197 188
f 186 196 197
f 189 188 198
f 188 199 198
f 188 197 199
f 199 200 198
f 190 191 201
f 201 191 202
f 190 203 194
f 190 201 203
f 203 100 101
f 195 203 101
f 194 203 195
f 195 101 90
f 105 196 98
f 196 105 107
f 196 107 197
f 197 107 109
f 197 109 199
f 109 111 199
f 111 200 199
f 111 204 200
f 201 202 114
f 202 113 114
f 202 205 113
f 201 114 115
f 201 115 203
f 203 115 100
f 119 207 206
f 204 119 206
f 111 119 204
f 207 208 206
f 205 121 113
f 209 121 205
f 122 210 207
f 122 207 119
f 208 207 211
f 211 207 210
f 209 124 121
f 212 124 209
f 127 210 122
f 127 129 210
f 129 211 210
f 129 213 211
f 216 215 214
f 212 216 214
f 131 212 214
f 124 212 131
f 135 213 129
f 135 217 213
f 215 218 214
f 131 214 218
f 219 131 218
f 137 131 219
f 141 217 135
f 141 220 217
f 219 143 137
f 221 143 219
f 148 222 149
f 222 223 149
f 223 141 149
f 223 220 141
f 150 143 224
f 143 225 224
f 143 221 225
f 224 152 150
f 158 226 159
f 226 227 159
f 159 227 148
f 227 228 148
f 228 222 148
f 222 228 223
f 224 225 229
f 229 225 230
f 231 160 152
f 224 231 152
f 229 231 224
f 231 162 160
f 166 232 167
f 226 158 167
f 232 226 167
f 233 226 232
f 227 226 234
f 234 226 233
f 230 235 229
f 237 236 235
f 236 229 235
f 236 231 229
f 238 168 162
f 231 238 162
f 236 238 231
f 239 169 168
f 239 168 238
f 240 170 169
f 240 169 239
f 241 171 170
f 241 170 240
f 171 241 242
f 243 171 242
f 172 171 243
f 172 244 173
f 243 244 172
f 166 173 232
f 173 245 232
f 173 244 245
f 232 245 233
f 233 245 246
f 233 246 234
f 237 247 236
f 249 248 247
f 248 236 247
f 248 238 236
f 238 250 239
f 238 248 250
f 239 251 240
f 239 250 251
f 253 241 252
f 241 251 252
f 241 240 251
f 241 253 242
f 249 254 248
f 248 254 250
f 250 254 255
f 250 255 251
f 251 255 256
f 251 256 252
f 259 258 257
f 261 260 257
f 257 260 259
f 263 262 261
f 261 262 260
f 265 264 263
f 263 264 262
f 265 266 264
f 257 258 176
f 258 175 176
f 258 267 175
f 257 176 177
f 257 177 261
f 261 177 179
f 261 179 263
f 263 179 181
f 263 181 265
f 268 266 265
f 181 268 265
f 183 268 181
f 269 183 185
f 269 268 183
f 270 185 187
f 270 269 185
f 272 271 189
f 271 187 189
f 271 270 187
f 272 273 271
f 275 274 192
f 192 274 191
f 276 192 193
f 276 275 192
f 193 175 267
f 193 267 276
f 198 272 189
f 198 200 272
f 200 273 272
f 200 277 273
f 274 202 191
f 278 202 274
f 204 280 279
f 277 204 279
f 200 204 277
f 280 281 279
f 278 205 202
f 282 205 278
f 206 280 204
f 206 208 280
f 208 281 280
f 208 283 281
f 282 209 205
f 284 209 282
f 211 283 208
f 211 285 283
f 288 287 286
f 284 288 286
f 212 284 286
f 209 284 212
f 213 285 211
f 213 289 285
f 286 287 216
f 287 215 216
f 287 290 215
f 286 216 212
f 217 289 213
f 217 291 289
f 218 215 292
f 215 293 292
f 215 290 293
f 292 219 218
f 220 291 217
f 220 294 291
f 292 293 295
f 295 293 296
f 295 221 219
f 295 219 292
f 223 294 220
f 223 297 294
f 296 298 295
f 221 295 298
f 299 221 298
f 225 221 299
f 227 300 228
f 300 301 228
f 301 223 228
f 301 297 223
f 299 230 225
f 302 230 299
f 304 303 300
f 227 304 300
f 234 304 227
f 300 303 301
f 302 305 230
f 230 305 235
f 237 235 305
f 237 305 306
f 308 307 243
f 308 243 242
f 243 309 244
f 307 309 243
f 244 310 245
f 309 310 244
f 245 311 246
f 310 311 245
f 234 246 304
f 304 246 311
f 306 312 237
f 237 312 247
f 249 247 312
f 249 312 313
f 252 314 253
f 314 315 253
f 315 242 253
f 315 308 242
f 313 316 249
f 249 316 254
f 254 317 255
f 316 317 254
f 255 318 256
f 317 318 255
f 252 256 314
f 256 319 314
f 256 318 319
f 314 319 315
f 321 320 259
f 259 320 258
f 322 259 260
f 322 321 259
f 323 260 262
f 323 322 260
f 324 262 264
f 324 323 262
f 326 325 266
f 325 264 266
f 325 324 264
f 328 327 326
f 326 327 325
f 330 329 328
f 328 329 327
f 330 331 329
f 334 333 332
f 336 335 332
f 332 335 334
f 320 335 336
f 267 320 336
f 258 320 267
f 268 326 266
f 326 268 269
f 326 269 328
f 328 269 270
f 328 270 330
f 337 331 330
f 270 337 330
f 271 337 270
f 271 273 337
f 337 273 338
f 332 333 275
f 333 274 275
f 333 339 274
f 332 275 276
f 332 276 336
f 336 276 267
f 277 338 273
f 277 340 338
f 339 278 274
f 341 278 339
f 342 340 277
f 342 277 279
f 279 281 342
f 342 281 343
f 341 282 278
f 344 282 341
f 283 346 345
f 343 283 345
f 281 283 343
f 346 347 345
f 350 349 348
f 344 350 348
f 284 344 348
f 282 344 284
f 285 351 346
f 285 346 283
f 347 346 352
f 352 346 351
f 355 354 353
f 355 353 349
f 349 353 348
f 353 287 348
f 287 288 348
f 348 288 284
f 289 356 351
f 289 351 285
f 352 351 357
f 357 351 356
f 353 354 358
f 358 354 359
f 358 290 287
f 358 287 353
f 291 360 356
f 291 356 289
f 357 356 361
f 361 356 360
f 358 359 362
f 362 359 363
f 362 293 290
f 362 290 358
f 294 364 360
f 294 360 291
f 361 360 365
f 365 360 364
f 363 366 362
f 293 362 366
f 367 293 366
f 296 293 367
f 369 368 364
f 294 369 364
f 297 369 294
f 364 368 365
f 298 296 370
f 296 371 370
f 296 367 371
f 370 299 298
f 301 369 297
f 301 372 369
f 371 373 370
f 299 370 373
f 374 299 373
f 302 299 374
f 376 375 303
f 376 303 304
f 301 303 372
f 372 303 375
f 374 377 302
f 302 377 305
f 306 305 377
f 306 377 378
f 380 379 307
f 380 307 308
f 307 381 309
f 379 381 307
f 309 382 310
f 381 382 309
f 310 383 311
f 382 383 310
f 304 311 376
f 376 311 383
f 378 384 306
f 306 384 312
f 313 312 384
f 313 384 385
f 315 380 308
f 315 386 380
f 385 387 313
f 313 387 316
f 316 388 317
f 387 388 316
f 317 389 318
f 388 389 317
f 318 390 319
f 389 390 318
f 315 319 386
f 386 319 390
f 393 392 391
f 395 394 391
f 391 394 393
f 397 396 395
f 395 396 394
f 397 398 396
f 401 400 399
f 320 321 399
f 321 401 399
f 321 402 401
f 322 391 392
f 402 322 392
f 321 322 402
f 391 322 323
f 391 323 395
f 395 323 324
f 395 324 397
f 403 398 397
f 324 403 397
f 325 403 324
f 404 325 327
f 404 403 325
f 405 327 329
f 405 404 327
f 407 406 331
f 406 329 331
f 406 405 329
f 407 408 406
f 410 409 334
f 334 409 333
f 335 399 400
f 410 335 400
f 334 335 410
f 399 335 320
f 337 407 331
f 337 338 407
f 338 408 407
f 338 411 408
f 409 339 333
f 412 339 409
f 340 414 413
f 411 340 413
f 338 340 411
f 414 415 413
f 412 341 339
f 416 341 412
f 342 414 340
f 342 343 414
f 343 415 414
f 343 417 415
f 420 419 418
f 422 421 418
f 418 421 420
f 416 421 422
f 344 416 422
f 341 416 344
f 423 417 343
f 423 343 345
f 345 347 423
f 423 347 424
f 418 419 425
f 425 419 426
f 425 349 350
f 422 425 350
f 418 425 422
f 422 350 344
f 352 424 347
f 352 427 424
f 425 426 355
f 426 354 355
f 426 428 354
f 425 355 349
f 357 427 352
f 357 429 427
f 428 359 354
f 430 359 428
f 361 429 357
f 361 431 429
f 430 363 359
f 432 363 430
f 365 431 361
f 365 433 431
f 366 363 434
f 363 435 434
f 363 432 435
f 434 367 366
f 369 436 368
f 436 437 368
f 437 365 368
f 437 433 365
f 435 438 434
f 367 434 438
f 439 367 438
f 371 367 439
f 441 440 436
f 369 441 436
f 372 441 369
f 436 440 437
f 373 371 442
f 371 443 442
f 371 439 443
f 442 374 373
f 445 444 375
f 445 375 376
f 372 375 441
f 441 375 444
f 443 446 442
f 446 448 447
f 446 447 377
f 442 446 377
f 374 442 377
f 447 378 377
f 450 449 379
f 450 379 380
f 379 451 381
f 449 451 379
f 381 452 382
f 451 452 381
f 382 453 383
f 452 453 382
f 376 383 445
f 445 383 453
f 448 454 447
f 447 454 378
f 454 384 378
f 454 455 384
f 385 384 455
f 385 455 456
f 386 450 380
f 386 457 450
f 456 458 385
f 385 458 387
f 458 460 459
f 388 458 459
f 387 458 388
f 461 389 388
f 461 388 459
f 462 390 389
f 462 389 461
f 462 463 390
f 463 386 390
f 463 457 386
f 460 464 459
f 459 464 461
f 461 464 465
f 461 465 462
f 462 465 466
f 462 466 463
f 469 468 467
f 467 470 469
f 472 471 393
f 393 471 392
f 473 393 394
f 473 472 393
f 396 467 468
f 473 396 468
f 394 396 473
f 396 398 467
f 398 470 467
f 398 474 470
f 475 400 401
f 402 476 401
f 401 476 475
f 477 476 402
f 392 477 402
f 471 477 392
f 478 474 398
f 478 398 403
f 479 403 404
f 479 478 403
f 480 404 405
f 480 479 404
f 481 405 406
f 481 480 405
f 406 408 481
f 481 408 482
f 484 483 410
f 410 483 409
f 410 400 475
f 485 410 475
f 484 410 485
f 485 475 476
f 485 476 486
f 486 476 477
f 411 482 408
f 411 487 482
f 483 412 409
f 488 412 483
f 489 487 411
f 489 411 413
f 413 415 489
f 489 415 490
f 488 416 412
f 491 416 488
f 417 490 415
f 417 492 490
f 494 493 420
f 420 493 419
f 495 420 421
f 495 494 420
f 421 416 491
f 421 491 495
f 496 492 417
f 496 417 423
f 423 424 496
f 496 424 497
f 493 426 419
f 498 426 493
f 427 497 424
f 427 499 497
f 498 428 426
f 500 428 498
f 429 499 427
f 429 501 499
f 500 430 428
f 502 430 500
f 431 501 429
f 431 503 501
f 502 432 430
f 504 432 502
f 433 503 431
f 433 505 503
f 504 435 432
f 506 435 504
f 437 505 433
f 437 507 505
f 506 508 435
f 435 508 438
f 439 438 508
f 439 508 509
f 511 510 440
f 511 440 441
f 437 440 507
f 507 440 510
f 509 443 439
f 512 443 509
f 445 513 444
f 513 514 444
f 514 441 444
f 514 511 441
f 512 515 443
f 443 515 446
f 448 446 515
f 448 515 516
f 518 517 449
f 518 449 450
f 449 519 451
f 517 519 449
f 451 520 452
f 519 520 451
f 452 521 453
f 520 521 452
f 445 453 513
f 453 522 513
f 453 521 522
f 513 522 514
f 516 523 448
f 448 523 454
f 454 524 455
f 523 524 454
f 456 455 524
f 456 524 525
f 457 518 450
f 457 526 518
f 525 527 456
f 456 527 458
f 460 458 527
f 460 527 528
f 463 526 457
f 463 529 526
f 528 530 460
f 460 530 464
f 464 531 465
f 530 531 464
f 465 532 466
f 531 532 465
f 463 466 529
f 529 466 532
f 535 534 533
f 468 469 533
f 469 535 533
f 469 536 535
f 469 470 536
f 536 470 537
f 539 538 472
f 472 538 471
f 473 533 534
f 539 473 534
f 472 473 539
f 533 473 468
f 474 537 470
f 474 540 537
f 538 477 471
f 541 477 538
f 542 540 474
f 542 474 478
f 543 478 479
f 543 542 478
f 545 543 544
f 543 480 544
f 543 479 480
f 481 546 480
f 480 546 544
f 482 546 481
f 547 483 484
f 485 548 484
f 484 548 547
f 548 485 549
f 485 550 549
f 485 486 550
f 486 477 541
f 486 541 550
f 551 545 544
f 551 544 546
f 551 546 552
f 546 482 552
f 482 553 552
f 482 487 553
f 556 555 554
f 557 556 547
f 556 488 547
f 488 483 547
f 556 554 488
f 557 547 548
f 557 548 558
f 558 548 549
f 559 553 487
f 559 487 489
f 489 490 559
f 559 490 560
f 554 555 561
f 561 555 562
f 561 491 488
f 561 488 554
f 492 560 490
f 492 563 560
f 565 564 494
f 494 564 493
f 495 561 562
f 565 495 562
f 494 495 565
f 561 495 491
f 566 563 492
f 566 492 496
f 496 497 566
f 566 497 567
f 564 498 493
f 568 498 564
f 499 567 497
f 499 569 567
f 568 500 498
f 570 500 568
f 501 569 499
f 501 571 569
f 570 502 500
f 572 502 570
f 503 571 501
f 503 573 571
f 572 504 502
f 574 504 572
f 505 573 503
f 505 575 573
f 574 506 504
f 576 506 574
f 507 575 505
f 507 577 575
f 576 578 506
f 506 578 508
f 509 508 578
f 509 578 579
f 581 580 510
f 581 510 511
f 507 510 577
f 577 510 580
f 579 512 509
f 582 512 579
f 514 581 511
f 514 583 581
f 582 584 512
f 512 584 515
f 516 515 584
f 516 584 585
f 587 586 517
f 587 517 518
f 517 588 519
f 586 588 517
f 519 589 520
f 588 589 519
f 520 590 521
f 589 590 520
f 521 591 522
f 590 591 521
f 514 522 583
f 583 522 591
f 585 592 516
f 516 592 523
f 592 594 593
f 524 592 593
f 523 592 524
f 593 525 524
f 526 587 518
f 526 595 587
f 594 596 593
f 593 596 525
f 596 527 525
f 596 597 527
f 528 527 597
f 528 597 598
f 529 595 526
f 529 599 595
f 598 600 528
f 528 600 530
f 530 601 531
f 600 601 530
f 531 602 532
f 601 602 531
f 529 532 599
f 599 532 602
f 603 534 535
f 536 604 535
f 535 604 603
f 537 604 536
f 606 605 539
f 539 605 538
f 539 534 603
f 607 539 603
f 606 539 607
f 607 603 604
f 607 604 608
f 604 537 608
f 537 609 608
f 537 540 609
f 605 541 538
f 610 541 605
f 611 609 540
f 611 540 542
f 613 611 612
f 611 543 612
f 611 542 543
f 545 612 543
f 615 614 550
f 550 614 549
f 550 541 610
f 550 610 615
f 613 612 616
f 613 616 617
f 551 618 545
f 618 612 545
f 618 616 612
f 552 619 551
f 551 619 618
f 553 619 552
f 620 555 556
f 620 556 621
f 556 622 621
f 556 557 622
f 623 557 558
f 623 622 557
f 558 549 614
f 558 614 623
f 624 617 616
f 624 616 618
f 624 618 625
f 625 618 619
f 625 619 626
f 628 626 627
f 627 626 559
f 626 619 559
f 619 553 559
f 560 627 559
f 630 629 620
f 629 555 620
f 629 562 555
f 630 620 621
f 631 628 627
f 627 560 631
f 560 632 631
f 560 563 632
f 634 633 565
f 565 633 564
f 565 562 629
f 565 629 634
f 635 632 563
f 635 563 566
f 566 567 635
f 635 567 636
f 633 568 564
f 637 568 633
f 569 636 567
f 569 638 636
f 637 570 568
f 639 570 637
f 571 638 569
f 571 640 638
f 639 572 570
f 641 572 639
f 573 640 571
f 573 642 640
f 641 574 572
f 643 574 641
f 575 642 573
f 575 644 642
f 643 576 574
f 645 576 643
f 577 644 575
f 577 646 644
f 645 647 576
f 576 647 578
f 579 578 647
f 579 647 648
f 650 649 580
f 650 580 581
f 577 580 646
f 646 580 649
f 652 582 651
f 582 648 651
f 582 579 648
f 653 652 651
f 656 655 654
f 655 650 654
f 650 583 654
f 650 581 583
f 652 584 582
f 585 584 652
f 653 585 652
f 657 585 653
f 587 658 586
f 659 588 586
f 659 586 658
f 660 589 588
f 660 588 659
f 661 590 589
f 661 589 660
f 662 656 654
f 590 662 654
f 591 590 654
f 662 590 661
f 591 654 583
f 657 663 585
f 585 663 592
f 594 592 663
f 594 663 664
f 595 665 658
f 595 658 587
f 658 666 659
f 658 665 666
f 659 667 660
f 659 666 667
f 669 661 668
f 661 667 668
f 661 660 667
f 661 669 662
f 664 670 594
f 594 670 596
f 596 671 597
f 670 671 596
f 598 597 671
f 598 671 672
f 675 674 673
f 674 676 665
f 599 674 665
f 595 599 665
f 673 674 599
f 665 676 666
f 666 676 677
f 666 677 667
f 667 677 678
f 667 678 668
f 672 679 598
f 598 679 600
f 600 680 601
f 679 680 600
f 673 602 675
f 602 680 675
f 602 601 680
f 602 673 599
f 682 681 606
f 606 681 605
f 683 606 607
f 683 682 606
f 684 607 608
f 684 683 607
f 608 609 684
f 684 609 685
f 688 687 686
f 681 688 686
f 610 681 686
f 605 681 610
f 609 611 689
f 690 609 689
f 685 609 690
f 613 689 611
f 686 687 615
f 687 614 615
f 687 691 614
f 686 615 610
f 690 689 692
f 690 692 693
f 617 692 613
f 613 692 689
f 695 694 622
f 622 694 621
f 696 622 623
f 696 695 622
f 623 614 691
f 623 691 696
f 697 693 692
f 697 692 617
f 624 697 617
f 698 697 624
f 699 624 625
f 699 698 624
f 700 625 626
f 700 699 625
f 626 628 700
f 700 628 701
f 703 702 630
f 630 702 629
f 630 621 694
f 630 694 703
f 704 701 628
f 704 628 631
f 631 632 704
f 704 632 705
f 706 633 634
f 707 706 634
f 629 707 634
f 702 707 629
f 632 635 708
f 709 632 708
f 705 632 709
f 636 708 635
f 711 710 706
f 710 633 706
f 710 637 633
f 711 706 707
f 709 708 712
f 709 712 713
f 638 712 636
f 636 712 708
f 710 639 637
f 714 639 710
f 713 712 715
f 713 715 716
f 640 715 638
f 638 715 712
f 714 641 639
f 717 641 714
f 718 716 715
f 715 640 718
f 640 719 718
f 640 642 719
f 717 643 641
f 720 643 717
f 644 719 642
f 644 721 719
f 720 645 643
f 722 645 720
f 646 721 644
f 646 723 721
f 722 724 645
f 645 724 647
f 648 647 724
f 648 724 725
f 727 726 649
f 727 649 650
f 646 649 723
f 723 649 726
f 725 728 648
f 648 728 651
f 653 651 728
f 653 728 729
f 731 730 655
f 731 655 656
f 650 655 727
f 727 655 730
f 729 657 653
f 732 657 729
f 662 731 656
f 662 733 731
f 732 734 657
f 657 734 663
f 664 663 734
f 664 734 735
f 738 737 736
f 669 668 736
f 737 669 736
f 739 669 737
f 662 669 733
f 733 669 739
f 735 740 664
f 664 740 670
f 670 741 671
f 740 741 670
f 743 742 672
f 671 743 672
f 741 743 671
f 744 742 743
f 746 745 674
f 746 674 675
f 674 747 676
f 745 747 674
f 676 748 677
f 747 748 676
f 736 678 738
f 678 748 738
f 678 677 748
f 678 736 668
f 742 679 672
f 744 749 742
f 749 679 742
f 749 680 679
f 675 680 746
f 746 680 749
f 750 681 682
f 683 751 682
f 682 751 750
f 684 752 683
f 683 752 751
f 685 752 684
f 754 753 688
f 688 753 687
f 688 681 750
f 755 688 750
f 754 688 755
f 755 750 751
f 755 751 756
f 756 751 752
f 756 752 757
f 752 685 757
f 685 758 757
f 685 690 758
f 753 691 687
f 759 691 753
f 693 758 690
f 693 760 758
f 762 761 695
f 695 761 694
f 763 695 696
f 763 762 695
f 696 691 759
f 696 759 763
f 764 760 693
f 764 693 697
f 765 697 698
f 765 764 697
f 766 698 699
f 766 765 698
f 767 699 700
f 767 766 699
f 700 701 767
f 767 701 768
f 770 769 703
f 703 769 702
f 703 694 761
f 703 761 770
f 701 704 771
f 772 701 771
f 768 701 772
f 705 771 704
f 769 707 702
f 773 707 769
f 774 772 771
f 771 705 774
f 705 775 774
f 705 709 775
f 776 710 711
f 777 776 711
f 707 777 711
f 773 777 707
f 713 775 709
f 713 778 775
f 780 779 776
f 779 710 776
f 779 714 710
f 780 776 777
f 716 778 713
f 716 781 778
f 779 717 714
f 782 717 779
f 716 718 783
f 784 716 783
f 781 716 784
f 719 783 718
f 786 720 785
f 720 782 785
f 720 717 782
f 787 786 785
f 784 783 788
f 784 788 789
f 721 788 719
f 719 788 783
f 790 722 786
f 786 722 720
f 786 787 791
f 786 791 790
f 789 788 792
f 789 792 793
f 723 792 721
f 721 792 788
f 790 724 722
f 725 724 790
f 791 725 790
f 794 725 791
f 793 792 726
f 727 793 726
f 795 793 727
f 726 792 723
f 794 796 725
f 725 796 728
f 729 728 796
f 729 796 797
f 799 798 730
f 799 730 731
f 727 730 795
f 795 730 798
f 801 732 800
f 732 797 800
f 732 729 797
f 802 801 800
f 733 799 731
f 733 803 799
f 801 734 732
f 805 804 735
f 805 735 734
f 802 805 734
f 801 802 734
f 806 804 805
f 809 808 807
f 737 738 807
f 808 737 807
f 810 737 808
f 737 811 739
f 810 811 737
f 733 739 803
f 803 739 811
f 804 740 735
f 806 812 804
f 812 740 804
f 812 741 740
f 741 813 743
f 812 813 741
f 815 814 744
f 743 815 744
f 813 815 743
f 745 746 814
f 815 745 814
f 816 745 815
f 745 817 747
f 816 817 745
f 807 748 809
f 748 817 809
f 748 747 817
f 748 807 738
f 814 749 744
f 749 814 746
f 818 753 754
f 818 754 819
f 754 820 819
f 754 755 820
f 821 755 756
f 821 820 755
f 822 756 757
f 822 821 756
f 757 758 822
f 822 758 823
f 825 824 818
f 824 753 818
f 824 759 753
f 825 818 819
f 760 823 758
f 760 826 823
f 828 827 762
f 762 827 761
f 829 762 763
f 829 828 762
f 763 759 824
f 763 824 829
f 760 764 830
f 831 760 830
f 826 760 831
f 765 832 764
f 764 832 830
f 766 833 765
f 765 833 832
f 767 834 766
f 766 834 833
f 768 834 767
f 835 769 770
f 836 835 770
f 761 836 770
f 827 836 761
f 837 831 830
f 837 830 832
f 837 832 838
f 838 832 833
f 838 833 839
f 839 833 834
f 839 834 840
f 834 768 840
f 768 841 840
f 768 772 841
f 843 842 835
f 842 769 835
f 842 773 769
f 843 835 836
f 772 774 844
f 845 772 844
f 841 772 845
f 775 844 774
f 842 777 773
f 846 777 842
f 847 845 844
f 844 775 847
f 775 848 847
f 775 778 848
f 849 779 780
f 850 849 780
f 777 850 780
f 846 850 777
f 781 848 778
f 781 851 848
f 852 782 849
f 849 782 779
f 849 850 853
f 849 853 852
f 784 851 781
f 784 854 851
f 852 785 782
f 787 785 852
f 853 787 852
f 855 787 853
f 789 854 784
f 789 856 854
f 858 791 857
f 791 855 857
f 791 787 855
f 859 858 857
f 862 861 860
f 861 856 860
f 856 793 860
f 856 789 793
f 863 794 858
f 858 794 791
f 858 859 864
f 858 864 863
f 862 860 865
f 862 865 866
f 795 865 793
f 793 865 860
f 863 796 794
f 797 796 863
f 864 797 863
f 867 797 864
f 866 865 798
f 799 866 798
f 868 866 799
f 798 865 795
f 867 869 797
f 797 869 800
f 802 800 869
f 802 869 870
f 873 872 871
f 872 868 871
f 868 803 871
f 868 799 803
f 870 874 802
f 802 874 805
f 876 875 806
f 805 876 806
f 874 876 805
f 877 875 876
f 880 879 878
f 882 881 878
f 882 878 879
f 808 809 881
f 882 808 881
f 883 808 882
f 808 884 810
f 883 884 808
f 871 811 873
f 811 884 873
f 811 810 884
f 811 871 803
f 875 812 806
f 877 885 875
f 885 812 875
f 885 813 812
f 813 886 815
f 885 886 813
f 878 816 880
f 816 886 880
f 816 815 886
f 816 878 817
f 817 878 881
f 817 881 809
f 887 819 820
f 821 888 820
f 820 888 887
f 822 889 821
f 821 889 888
f 823 889 822
f 890 824 825
f 819 887 825
f 887 890 825
f 887 891 890
f 892 887 888
f 891 887 892
f 893 888 889
f 892 888 893
f 826 893 823
f 823 893 889
f 894 827 828
f 829 895 828
f 828 895 894
f 824 890 829
f 890 895 829
f 890 896 895
f 891 898 897
f 896 891 897
f 890 891 896
f 898 891 892
f 898 892 899
f 899 892 893
f 899 893 900
f 893 826 900
f 826 901 900
f 826 831 901
f 902 836 894
f 894 836 827
f 903 894 895
f 902 894 903
f 904 895 896
f 903 895 904
f 896 897 905
f 896 905 904
f 831 837 906
f 907 831 906
f 901 831 907
f 838 908 837
f 837 908 906
f 839 909 838
f 838 909 908
f 840 910 839
f 839 910 909
f 841 910 840
f 911 842 843
f 912 911 843
f 912 843 836
f 913 912 836
f 902 913 836
f 913 902 903
f 913 903 914
f 914 903 904
f 914 904 915
f 915 904 905
f 907 906 916
f 907 916 917
f 918 906 908
f 916 906 918
f 919 908 909
f 918 908 919
f 920 909 910
f 919 909 920
f 845 920 841
f 841 920 910
f 921 846 911
f 911 846 842
f 911 912 922
f 911 922 921
f 923 917 916
f 923 916 918
f 923 918 924
f 924 918 919
f 924 919 925
f 925 919 920
f 925 920 926
f 928 926 927
f 927 926 847
f 926 920 847
f 920 845 847
f 848 927 847
f 930 929 921
f 929 846 921
f 929 850 846
f 930 921 922
f 928 927 931
f 928 931 932
f 851 931 848
f 848 931 927
f 929 853 850
f 933 853 929
f 932 931 934
f 932 934 935
f 854 934 851
f 851 934 931
f 937 855 936
f 855 933 936
f 855 853 933
f 938 937 936
f 935 934 939
f 935 939 940
f 856 939 854
f 854 939 934
f 937 857 855
f 859 857 937
f 938 859 937
f 941 859 938
f 940 939 861
f 862 940 861
f 942 940 862
f 861 939 856
f 944 864 943
f 864 941 943
f 864 859 941
f 945 944 943
f 948 947 946
f 947 942 946
f 942 866 946
f 942 862 866
f 949 867 944
f 944 867 864
f 944 945 950
f 944 950 949
f 953 952 951
f 951 952 948
f 946 951 948
f 954 951 946
f 868 954 866
f 866 954 946
f 949 869 867
f 956 955 870
f 956 870 869
f 950 956 869
f 949 950 869
f 958 957 955
f 958 955 956
f 960 959 957
f 960 957 958
f 962 961 959
f 962 959 960
f 964 963 961
f 964 961 962
f 966 965 963
f 966 963 964
f 968 967 965
f 968 965 966
f 967 968 953
f 951 967 953
f 969 967 951
f 873 969 872
f 969 954 872
f 969 951 954
f 872 954 868
f 955 874 870
f 874 955 876
f 876 955 957
f 876 957 877
f 957 970 877
f 957 959 970
f 971 959 961
f 970 959 971
f 880 971 879
f 971 963 879
f 971 961 963
f 879 963 882
f 882 963 965
f 882 965 883
f 883 965 967
f 883 967 884
f 884 967 969
f 884 969 873
f 970 885 877
f 885 970 886
f 886 970 971
f 886 971 880
f 972 897 898
f 899 973 898
f 898 973 972
f 900 974 899
f 899 974 973
f 901 974 900
f 975 905 972
f 972 905 897
f 976 972 973
f 975 972 976
f 977 973 974
f 976 973 977
f 907 977 901
f 901 977 974
f 978 912 913
f 914 979 913
f 913 979 978
f 979 914 980
f 914 981 980
f 914 915 981
f 915 905 975
f 982 915 975
f 981 915 982
f 984 983 982
f 975 984 982
f 976 984 975
f 985 976 977
f 984 976 985
f 917 985 907
f 907 985 977
f 987 986 978
f 986 912 978
f 986 922 912
f 987 978 979
f 987 979 988
f 988 979 980
f 989 983 984
f 989 984 985
f 989 985 990
f 990 985 917
f 923 990 917
f 991 990 923
f 992 923 924
f 992 991 923
f 993 924 925
f 993 992 924
f 995 993 994
f 993 926 994
f 993 925 926
f 928 994 926
f 996 929 930
f 997 996 930
f 922 997 930
f 986 997 922
f 998 995 994
f 994 928 998
f 928 999 998
f 928 932 999
f 1000 933 996
f 996 933 929
f 996 997 1001
f 996 1001 1000
f 935 999 932
f 935 1002 999
f 1000 936 933
f 938 936 1000
f 1001 938 1000
f 1003 938 1001
f 940 1002 935
f 940 1004 1002
f 1006 941 1005
f 941 1003 1005
f 941 938 1003
f 1008 1007 1006
f 1008 1006 1005
f 1009 1007 1008
f 1012 1011 1010
f 1011 1004 1010
f 1004 942 1010
f 1004 940 942
f 1006 943 941
f 943 1006 945
f 1006 1013 945
f 1006 1007 1013
f 1007 1009 1014
f 1007 1014 1013
f 1017 1016 1015
f 1019 1018 1015
f 1019 1015 1016
f 1021 1020 1018
f 1021 1018 1019
f 1023 1022 1020
f 1023 1020 1021
f 1022 1023 1012
f 1022 1012 1010
f 948 1022 1010
f 947 948 1010
f 947 1010 942
f 1024 950 1013
f 1013 950 945
f 1013 1014 1025
f 1026 1013 1025
f 1024 1013 1026
f 1028 1027 1026
f 1028 1026 1025
f 1030 1029 1027
f 1030 1027 1028
f 1029 1030 1017
f 1015 1029 1017
f 1031 1029 1015
f 1032 1015 1018
f 1031 1015 1032
f 1033 1018 1020
f 1032 1018 1033
f 953 1033 952
f 1033 1022 952
f 1033 1020 1022
f 952 1022 948
f 1024 956 950
f 956 1024 958
f 958 1024 1026
f 958 1026 960
f 960 1026 1027
f 960 1027 962
f 962 1027 1029
f 962 1029 964
f 964 1029 1031
f 964 1031 966
f 966 1031 1032
f 966 1032 968
f 968 1032 1033
f 968 1033 953
f 1034 980 981
f 982 1035 981
f 981 1035 1034
f 983 1035 982
f 1036 986 987
f 988 1037 987
f 987 1037 1036
f 980 1034 988
f 1034 1037 988
f 1034 1038 1037
f 1039 1034 1035
f 1038 1034 1039
f 989 1040 983
f 1040 1035 983
f 1040 1039 1035
f 990 1041 989
f 989 1041 1040
f 991 1042 990
f 990 1042 1041
f 992 1043 991
f 991 1043 1042
f 993 1044 992
f 992 1044 1043
f 995 1044 993
f 1045 997 1036
f 1036 997 986
f 1046 1036 1037
f 1045 1036 1046
f 1047 1037 1038
f 1046 1037 1047
f 1039 1049 1048
f 1047 1039 1048
f 1038 1039 1047
f 1051 1050 1049
f 1039 1051 1049
f 1040 1051 1039
f 1052 1040 1041
f 1051 1040 1052
f 1053 1041 1042
f 1052 1041 1053
f 1054 1042 1043
f 1053 1042 1054
f 1055 1043 1044
f 1054 1043 1055
f 998 1056 995
f 1056 1044 995
f 1056 1055 1044
f 999 1056 998
f 1057 1001 1045
f 1045 1001 997
f 1058 1045 1046
f 1057 1045 1058
f 1047 1060 1059
f 1058 1047 1059
f 1046 1047 1058
f 1060 1047 1048
f 1050 1051 1061
f 1050 1061 1062
f 1063 1051 1052
f 1061 1051 1063
f 1064 1052 1053
f 1063 1052 1064
f 1065 1053 1054
f 1064 1053 1065
f 1066 1054 1055
f 1065 1054 1066
f 1067 1055 1056
f 1066 1055 1067
f 1002 1067 999
f 999 1067 1056
f 1068 1003 1057
f 1057 1003 1001
f 1069 1057 1058
f 1068 1057 1069
f 1058 1059 1070
f 1071 1058 1070
f 1069 1058 1071
f 1073 1072 1071
f 1073 1071 1070
f 1072 1073 1062
f 1061 1072 1062
f 1074 1072 1061
f 1075 1061 1063
f 1074 1061 1075
f 1076 1063 1064
f 1075 1063 1076
f 1077 1064 1065
f 1076 1064 1077
f 1078 1065 1066
f 1077 1065 1078
f 1079 1066 1067
f 1078 1066 1079
f 1004 1079 1002
f 1002 1079 1067
f 1068 1005 1003
f 1005 1068 1008
f 1008 1068 1069
f 1008 1069 1009
f 1069 1080 1009
f 1069 1071 1080
f 1081 1071 1072
f 1080 1071 1081
f 1082 1072 1074
f 1081 1072 1082
f 1083 1074 1075
f 1082 1074 1083
f 1084 1075 1076
f 1083 1075 1084
f 1085 1076 1077
f 1084 1076 1085
f 1086 1077 1078
f 1085 1077 1086
f 1012 1086 1011
f 1086 1079 1011
f 1086 1078 1079
f 1011 1079 1004
f 1087 1014 1080
f 1080 1014 1009
f 1088 1080 1081
f 1087 1080 1088
f 1089 1081 1082
f 1088 1081 1089
f 1017 1089 1016
f 1089 1083 1016
f 1089 1082 1083
f 1016 1083 1019
f 1019 1083 1084
f 1019 1084 1021
f 1021 1084 1085
f 1021 1085 1023
f 1023 1085 1086
f 1023 1086 1012
f 1087 1025 1014
f 1025 1087 1028
f 1028 1087 1088
f 1028 1088 1030
f 1030 1088 1089
f 1030 1089 1017
f 1090 1048 1049
f 1050 1090 1049
f 1091 1059 1060
f 1048 1090 1060
f 1090 1091 1060
f 1090 1092 1091
f 1062 1092 1050
f 1050 1092 1090
f 1091 1070 1059
f 1070 1091 1073
f 1073 1091 1092
f 1073 1092 1062
