# Asteroid shape model (convexinv -> dual reconstruction)
v 1.00074966 -0.56716740 -1.79174218
v 3.81867535 -1.18468096 -1.31551206
v 0.83811432 -1.13829127 3.24909875
v 0.47289520 -3.38378800 1.49687847
v -0.23036949 -0.28946112 2.51078246
v -2.33686476 -1.15989853 -1.41898404
v -0.64841126 -1.59170460 -1.18595411
v -0.88189817 -0.65754607 -1.46746276
v 1.93922286 -0.03737114 1.36599619
v 1.37885600 -0.75825947 1.42447219
v 0.08150442 -0.95027618 -1.26086404
v 0.05132827 -0.92010003 -1.34713405
v -0.17688848 -1.07805872 -2.15893437
v -2.02592590 0.48197952 -0.41814927
v -2.03473500 0.45098961 -0.42471938
v -2.03464331 0.45122847 -0.42493290
v -0.22088159 0.11246469 -2.68773699
v -0.27294876 -0.20595377 -2.55983409
v -0.04146323 -0.76475535 -1.81783656
v 0.22317317 0.25191825 -2.52392140
v -0.04553711 -0.35128932 -2.20986317
v -1.12069001 -1.09194494 -2.52392140
v -0.11785970 -0.64521511 -2.00180078
v 0.61301378 -0.55393151 -1.96192676
v 0.81943321 -0.05559090 -1.96192676
v 2.17116298 0.94030767 1.55218440
v -0.57688937 1.02558505 -1.77707499
v -0.57097012 0.57097012 -1.97253966
v -1.00074966 -0.56716740 -1.79174218
v -1.02558505 -0.57688937 -1.77707499
v -3.25051061 0.86476558 -0.72681836
v -0.51725776 -2.12064848 -1.02533489
v 0.07611310 -2.53774903 -1.46746276
v -0.95756913 -2.32046901 -0.06504672
v 1.22596042 -1.34128658 0.16376715
v -0.98574057 -2.66489673 0.24835225
v -1.20496037 -2.43191167 0.47346900
v -1.32605280 -2.26916314 -3.35210716
v -1.68292400 -0.45321085 -1.19765175
v -0.88186037 -2.74251918 -1.19765175
v -2.88948163 -1.62565068 0.54085466
v -3.36494991 -0.47776872 0.54085466
v -1.02558505 -0.57688937 1.77707499
v -3.78259574 -1.65613835 0.14885006
v 1.80328598 -1.05940966 0.98990779
v 0.40957924 1.01610007 3.24909875
v -0.25654976 -1.02953743 2.04262654
v -0.32881652 2.89912946 2.71277052
v -1.61706411 -0.21151123 0.60161847
v -1.60668115 -0.72216070 -1.25698169
v -1.11146704 -1.65863048 -0.60880284
v -0.02150600 -1.51951543 -2.05519583
v 0.38211909 -1.54586952 -2.40941413
v 0.33679110 -2.05574494 -2.05519583
v -2.08382906 0.40476129 -0.03522583
v -2.08382906 0.01526773 -0.42471938
v -1.77886997 -1.09618606 -1.38952604
v 2.98819401 -2.75099647 1.21484842
v 2.58801431 1.93405367 0.74756360
v 0.48100297 -1.87563439 2.65852992
v 2.14597902 -0.15550770 -1.85986010
v 1.42542764 -0.65301167 1.47956301
v 1.39744171 -0.55520771 1.50960974
v 1.39195127 -0.55956945 1.51340359
v 1.09810725 -0.61739213 1.82032592
v 1.95911581 -0.01215993 1.17877793
v 1.14030077 -1.20946124 1.20761237
v 1.83005777 -0.51970424 1.20761237
v 1.89403643 -1.27343990 0.78578329
v -2.27635377 2.11280850 1.19658352
v 1.42337866 -0.16860113 0.76354854
v 0.92560152 -0.54208736 -0.04974065
v 1.26189543 -0.16925079 0.26563718
v -0.22566702 -0.79858273 -1.88752470
v 1.49249956 1.30543326 -0.71968877
v 0.16400918 0.05683607 -2.20801035
v -0.20147797 -0.34030900 -2.57671191
v 0.76274566 -0.45634852 -0.71968877
v 0.69099531 -0.53260422 -0.79336918
v 1.27410496 2.07142571 0.13136004
v -0.64349268 -1.59704922 -1.19091594
v -1.32809794 2.72537828 -1.19091594
v -2.35310417 -1.29725598 1.71752874
v -2.21542643 3.27855306 0.33290947
v -2.02727943 0.45145322 -0.44912491
v -0.63575398 1.01226239 -1.75774561
v -1.88986220 0.52970538 -0.81451852
v 0.13146957 -2.22886662 -2.15893437
v 0.53626764 -1.10783329 -2.67414458
v 0.16243040 2.25342315 -2.91604641
v 0.14218127 -1.19947213 -2.33576684
v 0.98195596 -1.86661006 -2.91604641
v -0.94429480 1.79483620 -1.30241676
v -1.31282359 1.89784076 -0.83348407
v -1.35322548 1.85393932 -0.79272685
v -2.09548935 0.28317859 -0.41814927
v -2.05691619 0.32428429 -0.60523972
v -2.12854244 0.68901321 -1.41898404
v -2.33686476 0.49285119 -3.07173376
v -1.62610961 -0.29430635 -3.74735773
v -0.42491171 1.50341335 -3.74735773
v 0.45052625 -1.16737731 -1.77052640
v 0.62009500 -0.41815777 -2.01654776
v 1.16631769 -0.09560424 -1.77078236
v 2.25914552 1.41786363 0.26563718
v 1.46179018 -0.17989822 0.90422784
v 1.81374813 0.30816830 1.93065086
v 1.63765310 0.10763372 1.15411321
v 1.91184479 0.03764395 2.14594267
v -0.18640032 -0.14346411 -2.99618909
v -1.37061124 -0.03818761 -2.17349954
v -0.12519164 0.79397516 -2.17349954
v -0.28441702 0.20867773 -2.52940785
v -0.56716740 1.00074966 -1.79174218
v -0.55393151 0.61301378 -1.96192676
v -0.05559090 0.81943321 -1.96192676
v -0.42513599 0.11888398 -2.07358272
v -0.54366772 0.54366772 -1.98425230
v -0.11888398 0.42513599 -2.07358272
v 0.11888398 0.42513599 -2.07358272
v 0.35380575 1.10448880 -1.08062444
v 1.26958042 -0.44054733 -1.78570392
v 1.00445151 0.86443705 -0.99336745
v 0.62747411 0.54315941 -1.64895643
v 0.76108848 0.48363835 -1.57939050
v 0.42513599 0.11888398 -2.07358272
v 0.54366772 0.54366772 -1.98425230
v 0.81943321 0.05559090 -1.96192676
v -0.75031564 1.73832117 -3.64663154
v 1.20496157 -0.09399084 -1.74286460
v 1.18302673 -0.03324528 -1.77078236
v -1.09091193 0.02602801 -3.64663154
v -0.68792448 0.34617127 -3.36816949
v 0.34300587 0.31565301 -2.41406853
v 1.96089552 0.88215020 0.40802914
v 0.94236336 0.82447287 -0.80303885
v 1.85826742 1.40437704 1.02760183
v 1.74564309 1.86604108 1.19004609
v 1.79497931 0.81392378 0.13136004
v 2.08863522 0.74602370 1.02760183
v 1.45574759 1.78078081 0.12832554
v -1.16986537 0.78539759 -3.14107963
v -1.08827078 -0.29310182 -1.93730808
v -3.31077063 0.77983906 -0.34725151
v 2.68643803 -0.35268117 -2.59319904
v 0.55393151 -0.61301378 -1.96192676
v 0.57097012 -0.57097012 -1.97253966
v 0.54366772 -0.54366772 -1.98425230
v -0.81943321 -0.05559090 -1.96192676
v -0.61301378 -0.55393151 -1.96192676
v 0.42513599 -0.11888398 -2.07358272
v 0.11888398 -0.42513599 -2.07358272
v -0.56716740 -1.00074966 -1.79174218
v -1.01226239 -0.63575398 -1.75774561
v -2.51754027 -0.28214422 0.35535970
v -0.58749500 -0.94811180 1.90662658
v -2.38404663 -0.06805091 -0.55335040
v -2.27326035 -0.10881421 -0.73641421
v -2.24076988 -0.25477281 -0.55335040
v -1.37134917 -0.55477874 1.53109335
v -1.18302673 -0.03324528 1.77078236
v -1.03957065 -0.56863064 1.77078236
v 2.43011706 -0.78264969 0.84132699
v 0.63578988 -1.59991002 1.66272526
v 0.68457555 -1.87811687 1.18943105
v -0.01881755 -1.76671035 1.18943105
v -0.41282721 -0.86819221 2.20823785
v -0.52836718 -1.66760570 1.21185140
v 0.67038083 -1.16235553 3.04014179
v -1.08813870 -1.04753567 1.49687847
v -1.02603221 -1.41747421 1.20785614
v 0.11103902 -0.75666309 2.89588098
v -0.44532447 -0.50882040 2.60621199
v -1.96060676 1.89799925 1.43134790
v -2.19729607 2.62143412 -0.69592856
v -1.63755115 1.29198901 1.19228250
v -1.05648155 2.26933019 1.50960974
v -0.52648188 0.64173674 2.46952871
v -1.39744171 0.55520771 1.50960974
v -1.48284823 3.35803386 0.66675926
v -0.89641223 -1.09638987 0.66675926
v -2.08483877 -0.70756723 -2.82783561
v -1.63717964 -1.09218369 0.24835225
v -1.57547658 -2.40802946 1.57241331
v -1.62635471 -1.19589090 0.33290947
v -1.59620718 -1.24362555 0.28826466
v -1.18271988 -2.29251700 0.13397135
v -1.28051151 -2.13262988 0.27292444
v -1.43568011 -1.96727364 1.02553478
v -1.56034500 -1.33291172 0.27292444
v -1.70021897 -0.83950041 0.16407863
v -0.49602337 -0.68512577 2.25808514
v -0.56756069 -0.07806338 2.89588098
v 1.00338249 -2.18504364 2.82179414
v 0.08275171 -1.53790095 2.13582091
v -1.67889179 -1.18267923 -1.08787844
v -1.59085519 -0.20529979 1.08263711
v -1.11144615 -2.22548601 -1.35926302
v -1.18488283 -2.24708424 -1.62821935
v -1.85956183 -0.89514450 -1.08787844
v 1.18302673 -0.03324528 1.77078236
v 1.03957065 -0.56863064 1.77078236
v 1.37134917 -0.55477874 1.53109335
v 1.86662948 1.10780583 2.71854510
v 2.14086161 -3.74061233 0.37427825
v 1.24052803 -0.81946893 1.49687847
v 1.39819551 -0.80917427 1.35851069
v 1.38048911 -0.61000237 1.49687847
v 3.20044199 0.49960237 0.76876685
v 3.62459236 -0.69711951 0.37065706
v 2.71756864 -0.66615702 0.76876685
v 1.56686466 0.61932740 0.37427825
v 1.98814736 -0.04771830 -0.24958989
v 2.18586556 -0.77852156 -0.05698711
v 2.73008316 0.23875218 -3.04619181
v 2.19047562 -0.03338220 -0.63165049
v 0.54182915 0.25572037 2.17307859
v -1.52085544 1.62026771 1.84263432
v -2.99062267 1.21214857 0.43984047
v -2.20240304 1.39054411 0.69866830
v 0.07242337 0.96373878 1.97787969
v -1.98862710 1.26875928 2.84291334
v -0.34603209 1.69135735 1.38070439
v 0.09849383 -0.88586308 -1.31333429
v 0.96220960 -0.56806280 0.11387387
v 1.21551286 0.56986447 -1.31333429
v 0.29245403 -0.58792002 -1.58518073
v -0.04362618 -1.50131688 -0.07587928
v -1.24700724 -1.76919020 -1.58518073
v -0.52077634 -0.68535114 -2.56396973
v 0.45924649 1.23805195 -2.56396973
v 0.53665609 -0.46307882 -1.12933135
v 1.02228473 -0.25339725 -0.46982861
v 1.10708664 -0.11912460 -0.34424736
v 1.07344813 -0.11674112 -0.40776765
v 1.46124333 3.08082433 -0.46982861
v 0.30905973 2.88309915 -2.57671191
v -1.92465406 -2.53781921 1.51471988
v 0.45292005 -1.97921847 0.60701582
v -2.24122155 1.89633194 0.79282324
v -1.66191915 -0.30626183 -0.83348407
v -2.18459278 1.74496948 0.64959702
v -2.44963572 0.31326909 0.79282324
v -1.57280153 1.70162061 -0.50566093
v -1.01226239 0.63575398 -1.75774561
v -0.33034550 0.33034550 -2.41618147
v -1.04718556 1.04718556 -1.52748742
v -1.02558505 0.57688937 -1.77707499
v -1.03957065 0.56863064 -1.77078236
v -1.97133796 0.75975226 0.08859823
v 1.56112422 -0.03653527 1.79232504
v 2.51331700 0.97544766 0.81451852
v 1.65085492 -0.07695637 1.59700126
v 1.67342123 -0.57286711 1.17877793
v 1.58630168 -0.57467661 1.33722200
v 1.98328651 0.47595980 2.83053023
v 2.26097383 1.88898201 1.15411321
v 1.73461665 0.03223491 1.56370887
v 1.64393063 -0.20402765 1.35251281
v 2.04697121 2.33508486 2.73567110
v 2.07301098 -2.19325879 1.13953689
v 1.54906212 2.45691592 1.13953689
v 1.59047753 2.34901715 1.23598804
v -0.56863064 1.03957065 -1.77078236
v -0.03324528 1.18302673 -1.77078236
v -0.55477874 1.37134917 -1.53109335
v 0.84201406 1.22136306 -2.02007225
v 0.88802818 1.68451917 -1.50960974
v -0.02350215 1.50320452 -1.50960974
v -0.92055356 2.43985208 -0.30312110
v -1.06631536 1.43133566 -1.56013277
v 3.76054584 1.53528509 -2.20081043
v 0.45077924 1.01324472 -1.17432296
v 0.88373849 0.30915538 -1.70939989
v -1.56164351 1.55513974 -1.70939989
v 0.60114524 1.65355700 0.11457496
v 2.03172474 1.26623343 0.90935960
v 1.33292266 0.95144312 -0.61177717
v 2.25019525 -1.07956173 -1.64895643
v 2.07912956 0.37209372 -0.12380870
v 0.46765359 1.13332270 -1.78570392
v 1.62766406 0.31791188 -0.92136596
v 0.75296749 -1.48815607 -3.00511443
v -0.17614912 -0.09763481 -3.00511443
v 0.87050957 -0.16597480 -2.08657476
v 1.18302673 0.03324528 -1.77078236
v 1.03957065 0.56863064 -1.77078236
v 1.37134917 0.55477874 -1.53109335
v 0.92434066 0.94072352 -1.36945799
v -0.13870734 2.09585108 -2.44185534
v 0.98247070 -0.53558264 -2.36153589
v 0.93066062 -0.58739272 -2.42576683
v 1.12842870 -1.03433116 -2.65971193
v -1.39414872 0.65120119 -2.65971193
v 0.14590091 -0.03865628 -2.40765079
v 0.05559090 0.81943321 -1.96192676
v 1.02558505 0.57688937 -1.77707499
v 1.06290363 0.41200160 -1.83121922
v 1.00074966 0.56716740 -1.79174218
v 0.57097012 0.57097012 -1.97253966
v 0.61301378 0.55393151 -1.96192676
v 0.55393151 0.61301378 -1.96192676
v 0.56716740 1.00074966 -1.79174218
v 0.15455118 -0.05330493 -2.41424174
v 1.93005494 -0.45514970 -1.83121922
v 2.09961794 1.06074791 -1.90773980
v 1.27529380 1.41979312 -0.05698711
v 2.15037415 0.45913546 -1.37723678
v 2.20833502 0.25467605 -1.33213334
v -1.81408786 0.79050822 -2.54101995
v -1.95114782 0.45565122 -1.98594553
v 0.04431708 0.41741516 -3.43208889
v -0.15681411 -1.07716939 -0.53747111
v -0.94967169 0.66585625 -3.13255039
v -0.36871202 0.13120706 -2.59319904
v -1.53255689 -0.50538265 0.17174458
v -1.45609318 -0.24539654 -0.78043506
v -1.11220730 -0.45572718 -0.48157419
v 1.42547712 -1.34370136 -0.48157419
v 0.61174557 -0.60593398 -1.98594553
v 0.70203733 -1.64615924 1.36339987
v 0.68641187 -1.13418855 -0.31853749
v 0.40397084 -0.73512658 -1.31551206
v -0.10959634 -0.41077553 -1.79583628
v -1.45444786 -0.63914084 -2.79945873
v 0.29544506 -0.24143304 -2.22607928
v 0.33407822 0.20450249 -2.53830060
v 0.03157014 0.35378465 -2.79945873
v 0.07857322 0.46000748 -2.85505992
v 1.70595802 0.08805446 -1.77052640
v 0.47036293 -0.02125129 -2.37822363
v 1.24927068 0.46808102 -3.31593885
v -1.21254333 0.95776627 -3.31593885
v -0.42513599 -0.11888398 -2.07358272
v -0.55393151 -0.61301378 -1.96192676
v -0.54366772 -0.54366772 -1.98425230
v -0.57097012 -0.57097012 -1.97253966
v -0.11888398 -0.42513599 -2.07358272
v -0.05559090 -0.81943321 -1.96192676
v -1.04718556 -1.04718556 -1.52748742
v -1.05999092 -1.05999092 -1.51161212
v -1.04753567 -1.08813870 -1.49687847
v -3.53659165 0.57499533 -1.49687847
v -0.32938960 -0.15392312 -2.54776775
v -0.57688937 -1.02558505 -1.77707499
v -0.63575398 -1.01226239 -1.75774561
v -3.21649906 0.83890010 -0.74811494
v -3.85775038 1.48015142 -0.74811494
v -3.61123265 1.08541784 0.05743933
v -1.79113581 -1.11041002 -0.13010808
v -1.86711928 -0.92109927 -0.41415449
v -1.69699137 -1.19185630 -0.41415449
v -3.42011842 1.01774970 -0.87028750
v -1.23128124 -0.35758785 -0.87028750
v -2.76169541 0.25667307 1.42598287
v 2.47083513 -2.02946581 -1.47253981
v 1.92656311 -1.45145376 3.11318696
v 2.62750681 -2.43265281 0.13896074
v 2.60551414 -1.71205946 2.50626987
v 0.68597321 -0.89166277 3.00012304
v 2.49769356 -2.03588189 1.30567451
v 2.47999441 2.91847793 1.29124470
v -1.27101056 -0.83252704 1.29124470
v 3.93178279 -2.28431542 0.19711691
v 2.66270545 -3.25485180 -0.30666811
v 2.56680020 -0.44537712 0.92646323
v -1.04409931 -1.94106067 0.92646323
v 1.34354197 -1.50708723 1.19658352
v -2.53754366 -1.76827712 0.62969282
v 1.21454333 -2.05640572 0.54132309
v 1.13463973 -3.97024478 -0.84130465
v -1.87378624 -2.88392114 0.54132309
v 0.93302222 -1.79937512 0.97319472
v -0.18594950 -1.02407737 2.09466643
v 0.14973875 -1.00880195 2.37776709
v -0.22981103 -0.81541168 2.37776709
v -2.18355187 2.17110322 0.78350844
v -1.55687772 1.93056326 1.34369502
v -2.04541335 2.44938376 -2.77242864
v 1.47777511 1.32577860 3.20086671
v 1.45938335 1.38831286 2.97183967
v -0.02350215 1.50320452 1.50960974
v -1.37918254 1.37918254 0.84167568
v -0.46500876 0.68618591 2.53585559
v -1.41657500 1.06187187 1.17505068
v -1.42920172 1.03352709 1.18980831
v -1.06187187 1.41657500 1.17505068
v -1.04753567 1.08813870 1.49687847
v -1.41747421 1.02603221 1.20785614
v -1.37134917 0.55477874 1.53109335
v -1.39195127 0.55956945 1.51340359
v -1.38048911 0.61000237 1.49687847
v -1.21214857 2.99062267 0.43984047
v -1.04718556 1.04718556 1.52748742
v -1.84033256 0.53519849 1.19228250
v -1.75670039 0.58458467 1.22991165
v -1.05999092 1.05999092 1.51161212
v -1.08813870 1.04753567 1.49687847
v -1.25740108 2.52040067 0.60161847
v -2.02592590 0.48197952 0.41814927
v -1.90339315 0.83215801 0.41814927
v -1.98626677 2.28193454 -1.54162740
v -1.51156120 2.29642265 0.01788580
v -1.55409681 -0.85915768 -1.13451953
v -2.27945613 3.98062062 0.28321610
v -1.75137571 -0.70622273 0.28321610
v -0.20203026 -1.93166585 1.18638809
v -0.22953694 -2.60961316 0.62077830
v -0.66935220 -2.14218099 0.16913212
v -1.20371880 -0.25773009 0.62077830
v -0.11378772 0.00752635 2.82179414
v -1.03707864 -0.87366312 0.45844950
v -1.29481400 -0.89192512 -0.02823745
v 0.13140500 -0.97346597 2.52617213
v 0.31637659 -1.17445952 2.71277052
v -2.32281224 0.86281127 2.49457069
v -0.90344165 -1.09254405 1.09332491
v -0.91835585 -1.08171799 1.08263711
v -1.43835441 -0.89038690 0.22338895
v -3.49389806 1.19014722 0.28872249
v -1.74578030 -1.10852242 -1.15060677
v 0.28623076 2.18781584 0.71218396
v -0.70352653 0.94072407 1.21484842
v 1.69291214 -0.36635138 1.16975643
v 0.87460645 -0.13024013 2.56741970
v 1.11947068 0.20709008 2.80915710
v -1.34244225 -1.83144143 2.56741970
v 0.21875493 -0.54006872 2.71854510
v 2.54047376 2.02193199 2.76317451
v 2.23278763 0.63969776 1.02955232
v 1.18363666 0.25366745 2.76317451
v 1.66760570 -0.52836718 1.21185140
v 1.68395316 -0.53072989 1.19147598
v 1.65451834 -0.56271430 1.22116967
v 1.50320452 -0.02350215 1.50960974
v 1.62720133 -0.73518715 1.22116967
v 0.10829908 -0.00192539 2.65852992
v 1.16863105 -1.24088265 2.16044153
v 0.12137379 0.56006514 2.31092797
v 1.06034614 -0.09651036 1.60924152
v 0.88879961 -0.12130413 1.82305657
v 1.18302673 0.03324528 1.77078236
v 0.10985883 0.39039725 2.48103985
v -0.65184468 0.89935126 2.48103985
v 0.48917154 0.64002623 2.10716826
v -3.13963376 0.65348750 0.61370834
v 1.26933684 2.47974291 0.61370834
v 1.81309418 0.71262468 1.21808107
v -2.27432581 1.81865801 0.48643758
v -3.23901262 2.12236546 0.15564210
v -2.74468665 1.62803950 0.36770645
v -3.81107785 -1.89138961 0.48643758
v -1.82927184 -2.92974134 1.21808107
v -1.53859783 1.36986580 2.31547339
v -2.45127505 1.87199196 2.08784588
v -1.15627195 3.37767894 -0.21364858
v -1.00895035 3.32448203 -0.14594177
v -1.00503749 3.41820209 -0.21364858
v 0.24206800 1.57437697 1.38070439
v -0.31634475 1.39253883 1.71004400
v 0.01881755 1.76671035 1.18943105
v -0.39191526 0.86967144 2.36174426
v -1.65466670 2.03176421 1.18943105
v -0.36585286 -1.46549914 -0.98270671
v -0.40871155 -1.37035728 -1.18980940
v -0.63994573 -1.58792965 -0.96638438
v -1.43874603 -1.41667736 -1.88752470
v 0.53036360 -1.38289609 -0.45323559
v 0.53513341 -1.45021333 -0.32611908
v -1.89426020 -2.10748371 -0.96638438
v -0.86642430 -1.98478045 -0.17954115
v -0.84480976 -2.05827254 0.08961814
v 1.23470851 1.85501228 -0.10535722
v 1.51712679 -1.24327043 -0.34011075
v 0.41127008 -1.37656968 -2.44185534
v 1.50807331 1.87438172 0.41084313
v 1.00097276 2.67730869 -0.34011075
v -1.91216331 -2.58028929 1.35917639
v 1.32880637 -2.13281134 0.18090211
v 0.29048590 -0.50811479 2.68119858
v -0.54766463 -1.70047500 1.79275644
v -0.54053599 -1.96662657 1.47956301
v 0.48249320 -1.65266758 1.23890687
v 0.60802752 -1.70558622 1.10321844
v 0.45854137 -1.89375523 0.97319472
v 0.45145322 -2.02727943 0.44912491
v -1.99327334 -2.57978877 1.45508492
v -2.28237807 -2.85108167 0.13923975
v -2.36109216 -2.11104409 0.83154000
v -1.98642612 -1.52956380 -2.88664446
v -2.90934977 -1.93155533 -0.81451852
v -3.01855214 -1.22600841 0.89343976
v -0.98465783 0.00779969 -0.41018689
v -3.34740831 -2.16534836 0.08549812
v -0.93552214 -0.12337074 -0.88156821
v -0.90698444 -0.10166808 -0.89943731
v -0.81943321 0.05559090 -1.96192676
v -0.61301378 0.55393151 -1.96192676
v -1.00074966 0.56716740 -1.79174218
v -0.92301837 1.00360969 -1.77078236
v -0.28657938 -0.22496377 -2.49365055
v -0.77001396 0.57988474 -1.96552003
v 0.13654306 1.90221641 -2.49365055
v -1.35634672 0.71622759 -1.46207214
v -1.29115681 -0.39485890 -2.19497105
v -1.38048911 0.61000237 -1.49687847
v -2.08662018 -0.44679747 -1.49687847
v -0.17616029 0.17616029 4.28097267
v -1.00435686 -0.20620946 3.11543021
v -2.19063348 -0.90720880 1.67980570
v -2.97447153 -2.16232013 -0.88156821
v -3.39794260 -2.65907752 -0.71726905
v -3.10667604 -2.33616111 -0.99042005
v 2.14597902 2.80179130 1.09743890
v 1.77322362 -0.50650443 1.09743890
v 1.98807206 1.19714635 1.02197045
v -3.67631035 2.02267605 -1.34329057
v -1.46470899 2.58621353 0.25574126
v -1.29988587 1.64628739 -1.34329057
v -3.52207744 1.59270761 -1.83744292
v -2.85188084 0.76459692 -2.40765079
v 0.06834004 1.81907026 -1.06556079
v -0.78224670 1.04772139 -1.83744292
v -0.26301040 0.39412116 -2.28907699
v 1.01345420 0.03517989 -3.49852720
v 2.41128347 1.32158293 -2.20081043
v 2.50486508 1.85524473 -1.29292823
v 2.93096160 -0.62384722 0.01792749
v -0.21543720 0.53562883 -2.83646136
v -0.26827674 0.80127114 -2.83646136
v -0.13330168 0.78786150 -2.68770006
v 1.64124856 1.03085932 -0.43278595
v 2.48043747 -0.73300825 0.39911939
v 1.26427885 0.86104527 0.38779330
v 1.15960106 -0.78082763 2.59509945
v -0.04229134 1.13568635 2.16044153
v 0.46456950 0.77939663 1.78277334
v -0.40329616 0.78206958 2.59509945
v -0.12337142 0.65737179 2.44935747
v 0.24790662 0.12918843 2.84291334
v -0.01055170 1.35877120 1.17471538
v 0.99484195 0.61731047 1.12617847
v 1.79459946 1.10178041 -0.14305615
v 1.89671458 0.93926513 -0.14305615
v 1.84020669 0.98815127 -0.31354806
v 3.04556091 -0.39675155 -1.90225353
v 2.49516560 0.22840683 -1.51377891
v 2.25325852 -3.06130740 -0.24856091
v 1.74305706 1.46685582 -0.24856091
v 2.04681549 0.98609749 -2.00242733
v 2.17381850 0.50641080 -0.54423156
v 1.91446096 1.15259298 -1.51377891
v 1.91791753 1.12345829 -1.37723678
v 1.97812730 1.02501667 -1.46278943
v -1.76251220 0.35283957 -2.08119366
v -2.26779120 -0.15243943 -0.63666132
v -3.68725365 1.80304244 -2.03799778
v -2.06863531 0.32126570 -1.65014323
v -1.32484355 0.30126391 -2.54101995
v -1.96272181 0.47976262 -2.03799778
v -1.99114529 0.49328555 -2.02459221
v -1.44504720 0.35481091 -2.47843628
v -2.34471686 1.63468876 -3.43208889
v 0.42228634 -0.78690499 -1.75771605
v 0.37250235 -1.00626911 -1.29259687
v 0.36660162 -0.96544234 -1.34348323
v 0.64916749 -0.70540086 -1.60581174
v -1.06375036 -0.97670039 -1.60581174
v -1.46823530 -0.40686246 -2.37822363
v -0.37273647 -1.09206034 -1.77078236
v -0.56863064 -1.03957065 -1.77078236
v -0.56356231 -1.16096634 -1.68308165
v -3.15962152 0.65489090 -0.80360418
v -2.62436520 0.32061436 0.28872249
v -2.37449102 0.02064926 -0.69854730
v 2.08302584 -1.26963418 3.36831547
v -0.28763336 -2.49638851 0.69152458
v -2.69920633 -3.35111472 -0.11072599
v -2.63681229 -1.52332674 0.69152458
v -1.69022488 -0.77360695 1.41148878
v -0.49524803 -2.79721984 0.50099193
v -0.61000237 -1.38048911 1.49687847
v -1.05999092 -1.05999092 1.51161212
v -1.04753567 -1.08813870 1.49687847
v -2.79615130 -2.18069467 0.50099193
v -0.02350215 -1.50320452 1.50960974
v -0.55477874 -1.37134917 1.53109335
v -0.55520771 -1.39744171 1.50960974
v -0.55956945 -1.39195127 1.51340359
v 0.06081915 1.34143829 0.93069962
v -2.85078744 2.36025350 0.93069962
v -0.54120834 1.90637469 -1.80939725
v -0.51559299 1.90819566 1.54799008
v -1.39043583 1.95547450 -0.87422787
v -1.80967719 2.40070510 2.65806161
v -0.97108885 1.69154223 0.84294003
v 1.29835062 1.01860130 3.80190717
v 2.01722495 2.23061157 0.82301933
v -0.40891112 0.69834899 3.09211275
v 1.18515221 1.14680190 3.45517647
v 1.88380721 1.80241256 0.27528451
v -0.82213650 -0.02513630 -0.82766548
v 1.06620670 1.16138837 -0.82766548
v -0.25410493 0.63145611 1.15336197
v -1.44400536 1.02312111 1.17877793
v -0.85590855 2.22027114 1.42668142
v -1.42163610 2.26035614 0.35840650
v -1.88986220 0.52970538 0.81451852
v -1.69154223 0.97108885 0.84294003
v -1.67342123 0.57286711 1.17877793
v -1.61681972 0.79932428 1.11053507
v -0.20392541 2.33460129 2.53585559
v 2.01629720 0.79330959 1.99712508
v 1.81232455 0.52509782 1.82918227
v 1.15704425 -0.52416194 -0.31209915
v -0.14779747 0.20152409 2.83549119
v 1.37134917 0.55477874 1.53109335
v 0.02277791 -0.54899842 3.08141148
v 1.03957065 0.56863064 1.77078236
v -0.75657768 0.61738964 3.08141148
v 0.19591589 0.19591589 2.58283902
v -0.43101348 2.78968359 0.49320397
v 1.16038316 2.36327014 0.49320397
v 1.11920935 3.34945927 -0.21925533
v 1.77500511 0.67500531 1.44836719
v 0.40273691 1.22579133 -0.61061716
v 2.36538971 -0.00742516 -0.61061716
v -0.21000976 1.50708515 0.69533036
v -0.13463772 1.76335944 -0.24325505
v 0.31759484 0.72508849 2.08784588
v -0.11334917 1.13057140 1.67145559
v -1.20389668 -1.56430308 -0.54100310
v 0.76488943 -1.30510747 -0.54100310
v 0.59303586 -1.83037355 1.00355356
v 0.71017675 -1.76499520 0.83154000
v 0.59366633 -1.80971606 0.93568913
v 0.38432760 -2.11104409 3.57695976
v -0.67181778 -2.29111786 0.99142021
v -0.96070288 -1.64982267 2.38737726
v -1.88616954 -2.52061076 1.49316520
v -1.62200685 -2.24787970 1.79275644
v -2.04532077 -2.58653335 1.49316520
v 0.52852720 -1.68598027 1.18943105
v 0.49214686 -1.71946059 1.15565627
v 0.01881755 -1.76671035 1.18943105
v 0.01646558 -1.96287113 0.82301933
v 0.49317495 -1.88758121 0.84646120
v 0.49305421 -1.90012704 0.82301933
v 0.49402065 -1.89951668 0.82392321
v 0.31524007 -0.92839846 -4.20414917
v 0.21402314 -0.97348746 -4.15145088
v -1.48327999 -1.34735275 -2.64944740
v 0.80072686 0.40522735 -2.64944740
v 0.81542338 0.41221946 -2.65637882
v -0.85123234 -0.67600838 -2.87198463
v -2.51585886 -1.51335632 -1.21859423
v -1.71824958 -1.20118995 -2.12135390
v -1.78431968 -1.59021703 -2.49735716
v -1.52063110 -1.39880844 -2.68632155
v -1.66118256 0.95741269 0.90902629
v -1.75321468 0.85960168 0.81451852
v -1.87691921 0.80572054 0.53678010
v -1.91306162 0.81635028 0.40441124
v -2.83368098 -2.00940493 3.04712107
v -0.98899202 -0.22786366 3.21221053
v 1.70868724 -0.67463982 1.24773581
v 2.26272231 -0.65773055 -0.57239239
v 2.18170444 0.99394825 1.61582387
v 1.94891465 0.72961479 2.08170108
v 1.88986220 -0.52970538 0.81451852
v 2.02418777 0.70747645 1.80601893
v 2.15804219 0.92632543 1.61582387
v 1.87221435 -0.59493514 0.79732726
v 1.72051836 -0.83512576 1.02197045
v 3.05138820 1.90823971 -0.96059273
v 1.75821908 1.75866835 1.73489013
v 2.98360014 1.51650643 -2.04457761
v 2.54834429 1.24161408 -2.45165955
v 3.23780303 2.29347113 0.24010449
v 3.22811601 1.97607416 -0.80261502
v 1.25418101 1.25519605 -0.90279473
v 1.16087670 1.19812841 -0.98388270
v -1.51462230 1.88177710 -1.07446048
v -1.41880711 1.82126358 -1.16407360
v -1.89353596 1.98429187 -1.17432296
v 0.06788813 1.89231613 0.79934700
v -2.54489028 2.30699345 -0.85957896
v 0.01337472 1.41181781 -0.85957896
v -0.06019560 1.45681556 -0.79564121
v -1.64638888 2.51686151 0.88134769
v -1.63208610 2.04822852 -0.65821571
v 2.07205442 0.36501859 -0.14403566
v 2.73958168 -0.55458125 -0.80303885
v 2.29806440 0.20096047 0.01792749
v 2.34723046 0.51174865 0.95896988
v 2.12969503 0.20516849 -0.41124594
v 2.74941121 -0.00608794 0.65660631
v 2.78744128 0.02089648 0.82657625
v 0.05559090 -0.81943321 -1.96192676
v -0.94838421 -0.29196450 -2.38765581
v 0.56716740 -1.00074966 -1.79174218
v 0.26831903 -0.23732233 -2.24260420
v 0.45869126 0.08506024 -2.38765581
v -0.16782648 -1.12438314 -0.31026905
v 2.11497393 -1.57299940 2.39805743
v -0.76287369 -0.56599696 2.39805743
v -0.04837009 -0.71866526 2.75948071
v -0.67848491 -0.12577898 3.36831547
v -0.61005202 -0.45143587 2.49457069
v -1.94889909 -0.15340774 0.81536543
v -0.22745430 -1.16129040 1.04341017
v -3.03442591 0.78347348 1.60299576
v -1.96717883 -0.17917001 0.70022467
v -0.84056272 -0.59502212 1.60299576
v -0.16069663 -0.93430602 1.87472346
v -1.01226239 -0.63575398 1.75774561
v -0.63575398 -1.01226239 1.75774561
v -1.04718556 -1.04718556 1.52748742
v -0.52836718 1.66760570 1.21185140
v -0.53072989 1.68395316 1.19147598
v -0.57286711 1.67342123 1.17877793
v -1.02603221 1.41747421 1.20785614
v -0.61000237 1.38048911 1.49687847
v -1.02312111 1.44400536 1.17877793
v -1.03352709 1.42920172 1.18980831
v -0.55956945 1.39195127 1.51340359
v -0.55520771 1.39744171 1.50960974
v -0.01646558 1.96287113 0.82301933
v 1.83970593 1.68802919 2.41849496
v 2.87646099 1.95517391 1.92292178
v 1.83566660 1.55567979 2.85329212
v -0.01881755 1.76671035 1.18943105
v -0.52852720 1.68598027 1.18943105
v -0.49317495 1.88758121 0.84646120
v 2.22154381 0.88761488 0.66702550
v 2.66311191 1.98776965 2.31772428
v 1.67443565 0.41430038 2.31772428
v -2.28368437 -2.71699156 1.65821648
v -0.67868472 -2.07279433 -0.74996375
v -0.11925614 -1.39472898 -0.55225855
v 2.28120711 1.06841043 1.03553447
v 1.02558505 0.57688937 1.77707499
v 2.93729851 1.09080701 0.74756360
v 3.08147621 1.02998727 0.71218396
v 3.08031718 1.03284724 0.71146203
v 3.15571774 3.20483907 -0.24239945
v 2.16218268 0.66679007 1.25651191
v 1.66370623 0.72111447 -1.73379314
v 2.32042626 -0.03799366 0.55653801
v 0.13725043 1.33378663 0.55653801
v 2.28770565 0.07654176 -0.35565710
v 1.68682926 0.53350289 0.02058616
v 2.23505900 0.36931805 -0.98343741
v 2.31616002 0.42686367 -1.34590672
v 3.51885422 -1.15460682 -0.35565710
v 1.39836528 0.67717569 0.39911939
v 1.19924579 0.82171431 0.54181230
v -1.60141176 -2.54557581 1.71299225
v -1.26093127 -2.22607242 0.16331299
v -2.90760895 -2.80226986 0.16331299
v 0.01526773 -2.08382906 0.42471938
v 0.22419049 -2.08382906 0.21579663
v 0.24898717 -2.05749521 0.42471938
v 0.40666930 -0.79833044 -4.10723391
v 0.71021807 0.64576441 -2.14800339
v -2.12141990 -1.21953219 -1.71891742
v -2.39874048 -1.76380448 -1.71891742
v -2.09951502 -1.70090729 -2.12488220
v -2.59423441 -1.00374275 1.83397990
v -2.27004143 -0.99201035 0.22452368
v -0.72504424 -0.02713372 3.37748342
v -0.24102075 0.64725030 0.49411332
v 1.59390597 1.38373315 3.24728169
v -1.03045279 -0.26526075 3.24728169
v 3.24452453 2.34605411 -1.17817244
v 0.74469991 0.34567448 -2.72471384
v 1.20850247 1.41050875 -0.33397360
v 3.26215452 -0.57903360 1.09915661
v 3.61591475 -1.14548796 -0.05683757
v 2.69570017 -0.22527337 -0.05683757
v 0.89126092 -0.75006211 1.36865904
v 1.45996480 0.16056819 -0.48971371
v -0.01936938 -1.31876599 -0.48971371
v -0.61888950 -1.99515411 1.42841184
v -1.98979510 -2.54539322 -0.62852803
v -0.02909112 -1.31340126 -0.62852803
v 1.04718556 1.04718556 1.52748742
v 0.63575398 1.01226239 1.75774561
v 1.01226239 0.63575398 1.75774561
v 0.23920564 0.96283767 1.50517767
v 2.17507208 -0.52260489 1.50517767
v 1.75245255 0.62598804 -0.39276290
v -1.41584234 2.08117223 0.41337968
v -1.35933618 1.95076041 0.55121629
v 1.18535269 0.00000000 1.77430056
v 1.18535269 0.00000000 1.77430056
v 0.17954113 -0.04999169 1.22545083
v 0.65242267 -0.52287323 1.22545083
v 3.16246569 -0.00000000 0.71751164
v 2.70514019 0.39318837 0.90564405
v 2.08644638 -0.04999169 1.03763706
v 2.57135035 0.39318837 0.94622876
v 1.94941305 -1.02062156 -1.16203790
v 1.17688843 -1.35534890 -0.34553080
v -1.89429154 2.08280401 -0.28158985
v -2.03910512 1.35879445 0.46471751
v -2.08744160 0.40330841 -0.00000000
v -2.04490925 0.61026902 -0.22487754
v 1.75883442 0.78359812 0.92650567
v 1.75883442 -0.25814445 1.96824824
v -0.00000000 0.82365885 -1.96762994
v -0.00000000 0.82365885 -1.96762994
v -0.00000000 0.44089716 -2.08373943
v 0.00000000 0.44089716 -2.08373943
v 0.82365885 -0.00000000 -1.96762994
v 0.82365885 0.00000000 -1.96762994
v 1.18535269 -0.00000000 -1.77430056
v 1.18535269 -0.00000000 -1.77430056
v 0.44089716 -0.00000000 -2.08373943
v 0.44089716 -0.00000000 -2.08373943
v -1.73555527 -1.09126757 -0.87177071
v -1.74101120 -1.08314715 -0.88434141
v 1.57377863 -1.52840305 1.07008621
v 2.33198586 -1.68422174 1.89393273
v -1.72794342 -0.00000000 1.32900785
v -1.14742764 -0.54206793 1.71693596
v -0.36166532 1.95076041 2.41772717
v -0.23607216 1.76425183 2.60675755
v -1.22617923 -0.00000000 1.74079508
v 0.35363338 1.76425183 3.32531583
v -1.86533327 1.35879445 -1.29961766
v -1.86533327 2.43353457 -0.22487754
v -1.93696536 2.08117223 -1.30453271
v -2.00744351 2.43353457 -1.66774699
v -1.68747314 -0.44704972 -1.29961766
v -1.68064535 -0.48027350 -1.26351765
v -1.26159113 -1.97799211 -0.87177071
v -1.13441239 -2.28096224 -1.26351765
v 0.57682750 2.71917135 0.38654872
v -0.10663921 3.45111507 -0.10257070
v -2.22485547 2.08280401 0.80813337
v -2.08142632 1.75178072 0.45826379
v -1.24853369 1.75178072 -1.09996872
v -1.52759903 1.33736261 -0.67994724
v -0.82365885 -0.00000000 -1.96762994
v -0.82365885 -0.00000000 -1.96762994
v -1.97946737 0.75925174 -0.00000000
v -2.16484445 0.31763926 0.57101450
v 1.79531534 0.11225252 1.96824824
v 1.70373622 -0.33336765 2.45244651
v 2.08855862 0.93522181 2.45244651
v 1.89345094 0.47042872 1.85145897
v 1.80011319 0.78359812 1.34561605
v 1.84182663 0.99214852 1.56058932
v -0.64089569 1.17559091 -1.78965605
v 0.15239688 1.70978681 -0.98563735
v 0.15239688 1.39582380 -1.57302084
v 0.92382735 1.73007705 -0.75767018
v -0.17538354 0.00000000 -2.89102792
v -0.82597490 0.72654629 -3.54355817
v 1.71764025 1.20184953 0.92650567
v 1.51498162 2.18797794 -0.14499355
v -0.44089716 0.00000000 -2.08373943
v -0.44089716 -0.00000000 -2.08373943
v -0.00000000 0.00000000 -2.12716401
v -0.00000000 0.00000000 -2.12716401
v 0.00000000 -0.44089716 -2.08373943
v -0.00000000 -0.44089716 -2.08373943
v -0.88193068 -2.45121416 0.63055442
v -0.40131548 -1.89220071 0.86051875
v 0.17954113 -1.35276858 1.09713851
v -0.40131548 -0.71722629 1.21694334
v 1.50496198 0.00000000 1.51200399
v 0.43047471 -1.19993100 2.58969343
v 0.98033936 -1.19993100 1.91968141
v 1.52332543 -2.00627716 1.10243262
v 0.57682750 2.42710316 0.54266242
v 0.81726045 2.14745065 0.65770456
v 0.65242267 0.55874742 1.11892050
v 0.81726045 0.73910412 1.08492181
v -3.70851178 -0.54206793 0.34800796
v -3.33569794 -0.86259689 0.50137437
v -1.51017873 -0.52287323 1.01245318
v -1.88188623 -0.86259689 0.94238333
v 1.73199298 0.55011857 -0.21811237
v 1.62871281 0.61951024 -0.37799373
v -0.10663921 1.60045286 1.41622852
v -0.00000000 1.50496198 1.51200399
v 1.32093095 0.99214852 -0.15657361
v 1.26700310 0.86768724 -0.28812090
v 0.23939944 0.72654629 -2.24539577
v 0.14435643 0.86768724 -2.38844509
v 1.94941305 -1.71588659 1.12994377
v 2.68344324 -1.56906873 0.37330717
v -0.99323457 0.00000000 -1.87698983
v -0.08387825 0.84912918 -2.48466474
v -0.16975056 1.33736261 -2.33449039
v 0.26744175 0.84912918 -2.77298562
v 1.86546514 -0.25814445 0.88560843
v 2.10697446 -1.46559380 -0.35902753
v 1.70691744 -2.00627716 0.75895613
v 1.94119024 -1.46559380 0.18748981
v -0.64089569 1.37725643 -1.54392592
v -0.54368327 1.46430602 -1.45661690
v 0.00000000 0.56506892 -2.10584914
v -0.54368327 1.14731462 -1.71676502
v 2.96508797 -0.47722450 -0.37799373
v 3.16452580 -0.67666233 -0.75005543
v 1.87638498 0.99659072 -0.14499355
v 1.92345643 0.88445528 0.00000000
v 2.18924304 0.51172315 -0.75005543
v 1.86370412 0.99624400 -0.00000000
v 1.17688843 -0.79359113 -1.39650567
v 0.22319076 -0.15137991 -2.36309831
v 0.22319076 0.54480999 -3.21140817
v -0.78230581 -0.35556950 -2.30834537
v -3.16388402 0.65062839 -0.88434141
v -3.60495306 1.09169743 -0.06150407
v -0.17562454 -0.99772740 1.07008621
v -0.59528638 -0.82156461 0.52745436
v -2.35804883 0.06838957 -0.06150407
v -2.73850423 0.32400920 0.52745436
v -0.88193068 -2.31462053 0.70356524
v -0.44375873 -2.78387119 0.38998975
v -0.00000000 -1.50496198 1.51200399
v -0.44375873 -1.90232908 1.11345266
v -0.50561572 1.74614534 -0.21811237
v -0.53202576 1.75723156 -0.18396363
v -1.70301864 2.13550218 0.07206977
v -1.93865279 2.18392721 -0.18396363
v 0.00000000 1.76824815 1.19118886
v 0.00000000 1.76824815 1.19118886
v 2.13278183 0.91818531 1.85145897
v 1.73999202 0.33357057 0.94645466
v -2.27482907 -2.72847114 1.47550835
v -1.59510497 -2.44314118 0.59661035
v -0.00000000 -1.76824815 1.19118886
v -0.00000000 -1.76824815 1.19118886
v 0.00000000 -1.88193209 0.97850118
v 0.15810968 -1.95043946 0.81138977
v 0.15810968 -2.07073429 0.41483085
v 2.46766072 -1.60878688 2.79551065
v 2.46766072 -1.69758455 1.89393273
v 2.68344324 -1.69758455 1.67815021
v 0.27614696 -1.95464102 1.47550835
v 0.46264350 -1.91631423 1.67815021
v -2.22893089 -1.03312090 1.00320963
v -2.14682613 -0.95101614 0.85003892
v -0.23123321 0.61883194 0.87332587
v -0.24627611 0.60872495 0.85003892
v 1.75335183 1.67961475 0.87332587
v 1.87950716 1.73257137 1.03644744
v 0.00000000 -0.82365885 -1.96762994
v 0.00000000 -0.82365885 -1.96762994
v -0.78230581 -0.28034505 -2.37008049
v 0.00000000 -1.11813834 -1.81022737
v -0.00000000 1.96431626 0.82437123
v -0.22914039 1.86503198 1.06655736
v 0.86897074 -0.72777193 0.94645466
v 1.11481249 -0.48193018 0.48782402
v -0.64035844 -1.93281853 0.59661035
v -0.71063224 -1.98003395 0.48782402
v -0.22914039 1.74332537 1.46777029
v 0.32698923 1.85456025 0.89451318
v 1.00754908 1.86853456 0.07206977
v 0.32698923 1.86853456 0.75262963
v 0.92382735 1.80187942 -0.52096949
v 1.00754908 1.81862512 -0.43466933
v 3.42609397 2.20172335 1.03644744
v 3.16488911 2.14804330 0.75262963
f 595 405 591
f 595 591 455
f 272 364 2
f 450 405 348
f 450 348 591
f 450 591 405
f 222 508 595
f 664 452 578
f 664 637 508
f 664 508 222
f 664 595 455
f 664 222 595
f 512 38 578
f 512 578 452
f 371 578 38
f 371 38 650
f 215 2 650
f 215 272 2
f 746 405 362
f 101 650 563
f 101 215 650
f 101 272 215
f 48 595 508
f 48 405 595
f 48 362 405
f 48 260 362
f 429 362 260
f 429 746 362
f 738 664 578
f 712 664 455
f 712 349 664
f 712 455 591
f 881 664 349
f 881 452 664
f 881 349 348
f 881 348 452
f 92 650 2
f 92 371 650
f 365 2 364
f 365 364 205
f 365 205 371
f 365 92 2
f 365 371 92
f 237 746 272
f 237 272 101
f 237 405 746
f 597 48 508
f 597 260 48
f 597 429 260
f 969 746 429
f 969 429 364
f 969 272 746
f 969 364 272
f 4 637 664
f 4 664 738
f 4 205 637
f 4 738 578
f 4 578 371
f 4 371 205
f 420 348 349
f 420 349 712
f 420 591 348
f 420 712 591
f 490 38 512
f 490 512 557
f 517 348 405
f 517 557 348
f 517 405 557
f 44 512 452
f 44 557 512
f 44 452 348
f 44 348 557
f 129 101 563
f 129 237 101
f 576 429 597
f 576 508 637
f 576 597 508
f 100 557 563
f 100 490 557
f 100 38 490
f 100 650 38
f 100 563 650
f 379 129 563
f 379 237 129
f 379 405 237
f 379 557 405
f 379 563 557
f 58 205 364
f 58 637 205
f 942 58 364
f 942 364 429
f 942 429 576
f 942 576 637
f 942 637 58
