# Asteroid shape model (convexinv -> dual reconstruction)
v 0.88891552 -1.71771031 -6.82835986
v -1.74630213 -1.74630213 -4.00419219
v -3.82988972 -3.82988972 -1.42108890
v -9.50016363 3.76292536 -3.42003320
v -6.76041989 4.12758357 -0.02375108
v -6.05561784 1.02649240 -1.03987149
v 4.24587376 -2.19634210 0.64397638
v 5.09942584 -3.36911487 -0.57272006
v 3.69299318 -2.12009161 -1.84031573
v 0.18779231 -5.30778497 -8.86702932
v -3.52695886 -1.47328392 -2.58867616
v 3.15119076 -3.23732099 -5.32805912
v -3.23732099 3.15119076 -5.32805912
v -2.23906830 -1.25947107 -3.87972921
v -0.25954878 -0.92816146 -4.52706808
v -3.05090975 -1.21213545 -3.29579620
v -3.03892298 -1.22165804 -3.30407899
v -2.99633237 -1.13416807 -3.40527390
v -3.15275208 -1.12395489 -3.26800116
v -3.01389865 -1.33176372 -3.26800116
v -0.09577148 0.80963653 -7.06051134
v -1.02911188 -0.06922243 0.34425486
v -1.02911188 -7.47398864 -7.06051134
v 0.12250876 -2.50113833 0.15616061
v 2.20998212 1.38798492 -3.83752909
v 1.12761580 7.03851327 1.43113619
v 1.15353690 -3.64073469 -2.64572700
v -1.24144052 -2.26960182 -3.86599107
v -1.25947107 -2.23906830 -3.87972921
v -1.27834997 -2.80383279 -3.45063919
v -6.08902673 -1.71900833 -4.23224352
v 2.66788688 -1.30748319 3.10243180
v 0.26627930 4.49051040 3.10243180
v -1.07308699 -1.15998655 1.57725110
v -1.84326501 -1.46147752 1.12240228
v 0.14517327 -3.37141449 1.88570165
v -0.03594783 -4.28536134 1.79682466
v -1.94451747 -8.54953909 4.39058218
v 0.40659003 -6.57057068 3.42872352
v 8.15408925 -1.32066610 -2.37631006
v 1.08395583 0.43462998 -0.63115335
v 5.62399824 -2.18362743 0.04781053
v 6.31289702 -0.88806012 -0.29936788
v 6.14682070 -1.01999528 -0.18461008
v 3.27370630 -1.58483452 2.81669500
v 3.27846946 -1.58148633 2.81314591
v -1.26807700 -3.69127145 2.34977093
v 5.42158242 2.99838797 2.34977093
v 6.04208421 -4.31177324 -1.74136973
v 4.75146685 5.38749158 4.57570453
v -2.11924975 -3.88153476 -9.89423924
v 0.06516967 -0.48586109 -9.73728092
v 4.01493444 1.42451593 -1.77826559
v 3.68085024 1.15388625 -2.59677864
v -4.97684187 -2.90013876 5.13839414
v 4.39379579 -2.90013876 -4.23224352
v -3.64073469 -1.15353690 -2.64572700
v -3.28181226 -0.05131015 -3.29579620
v -3.85710101 -0.04108268 -2.59677864
v -4.44122180 0.57907643 -3.65723146
v -3.96692913 -2.93885809 2.16607291
v -1.18694121 -1.18694121 -4.33204096
v -1.24654811 -1.24654811 -4.30646977
v -0.92816146 -0.25954878 -4.52706808
v 0.25954878 0.92816146 -4.52706808
v 1.20934922 1.33833826 -4.28329959
v -1.23824596 2.18484741 -3.91175078
v -2.26960182 -1.24144052 -3.86599107
v -2.99394425 -1.21119891 -3.34269946
v 4.03321153 -3.19583653 -2.63208282
v 3.09268176 -2.31829008 -2.56538328
v 2.42485682 -2.26521120 -3.24223711
v 2.37563611 -2.28699113 -3.26800116
v 0.92816146 0.25954878 -4.52706808
v 1.18694121 1.18694121 -4.33204096
v 1.24654811 1.24654811 -4.30646977
v -6.10213343 2.24920464 7.74897106
v -0.60358396 2.24648382 5.76881577
v 0.24698215 2.13450466 5.76881577
v -0.52933881 2.01955540 6.43610387
v -7.41191039 -1.46616632 -3.61745040
v -3.01104614 3.01104614 -1.83755539
v 0.14752894 -1.24667170 -8.00495988
v -1.28921338 -4.12565419 -6.85429320
v -1.20037175 -3.98040012 -6.72805725
v -0.17832189 0.18500081 -8.17417237
v 1.06479275 7.70668727 -6.86997447
v -2.47556212 0.88238230 -5.94561526
v -0.99703946 2.55793913 -3.99531996
v -0.88779009 2.65847983 -3.89389502
v 3.67642463 1.15869520 -2.60124317
v 3.65343122 1.25068963 -2.57352065
v 3.01389865 1.33176372 -3.26800116
v 2.37563611 2.28699113 -3.26800116
v 3.09464493 2.24004454 -2.63700450
v 3.69109951 2.07847697 -1.87541119
v 3.48638177 1.98625750 -2.32103618
v 4.44187672 -0.77531387 -4.20320219
v 3.17654225 2.18663692 -2.57352065
v 3.09774533 2.24202596 -2.63223320
v 0.96621909 6.44896357 -2.34747713
v 1.64162372 3.01214208 -6.42494033
v 1.57450540 2.48747688 -7.25745807
v 1.31916750 7.93267305 -1.77826559
v 0.12555267 7.34482422 -6.42494033
v 2.86441366 2.86684781 -2.53326571
v 1.47759085 -4.64745887 -1.94220842
v 1.13029331 -3.15393036 -3.22460954
v 1.21213545 -3.05090975 -3.29579620
v 0.05131015 -3.28181226 -3.29579620
v -0.04108268 -3.85710101 -2.59677864
v -1.20934922 -1.33833826 -4.28329959
v -0.12136665 -1.78899540 -4.28329959
v -1.23824596 -2.18484741 -3.91175078
v -1.15353690 -3.64073469 -2.64572700
v -0.77437193 -3.14058015 -3.45063919
v -1.25358094 -3.18318189 -3.11772532
v -2.20842600 -2.29151840 -4.34417037
v -1.25068963 -3.65343122 -2.57352065
v -1.07670486 -4.12098759 -1.84800318
v -1.15388625 -3.68085024 -2.59677864
v -1.15869520 -3.67642463 -2.60124317
v 2.88067018 -2.91364925 7.40208130
v -8.99612314 1.22894270 -3.42003320
v -8.21262605 3.63500973 -2.00098755
v -3.85710101 -0.04108268 2.59677864
v -1.08420549 2.76392925 7.64168410
v -1.08420549 -5.49968635 -0.62193150
v -0.74273372 -5.94674547 1.66430611
v -0.04261065 -6.48048067 7.64168410
v -8.22140771 0.52287062 -2.89950212
v -5.59587712 7.79392140 0.44216446
v -3.59585895 0.32975198 0.44216446
v -1.41830446 -1.24190193 3.45311871
v -1.07670486 -4.12098759 1.84800318
v -1.15388625 -3.68085024 2.59677864
v -0.04108268 -3.85710101 2.59677864
v 2.32718304 -6.88443042 -0.63497657
v 2.52568280 -5.51102355 1.07683340
v -7.30949302 -2.04870853 -4.31451622
v -2.42024684 -2.36794443 -0.02375108
v -0.86411521 -8.14812920 -3.98969839
v -0.04276019 -6.25295295 -1.43915759
v 0.26067823 -6.38812536 -1.28117328
v -7.37134985 -7.37186467 -0.72770109
v -1.04852675 -0.21629713 -0.30789715
v -0.25540807 2.10034415 7.08182258
v -0.77229738 2.82881401 3.82603154
v -3.96859829 -5.79032512 -5.56374724
v -4.43122612 -1.86448702 -1.43915759
v -3.57930710 -2.36235950 -0.67905276
v -5.66649387 -0.11119768 -1.26109136
v -5.00518213 -0.57605619 -0.76833992
v 6.68178334 5.67669611 0.46954650
v 4.63355061 -1.96741251 0.46954650
v 9.37060776 -1.76963836 -2.95267785
v 1.97788178 -4.49373386 1.30218523
v 0.12387041 4.27611387 8.53805462
v 5.79437831 -3.06160179 -0.93648542
v 5.60391503 -3.07403780 -0.76933630
v 5.62530448 -3.31463866 -0.93648542
v 0.60697390 5.19190206 3.64716671
v 3.06120147 -1.73259476 1.34361565
v -2.18703783 -1.55343895 3.64716671
v -0.03034584 5.44750254 8.53805462
v 3.30101186 0.17273618 3.60472143
v 2.73559098 2.26263691 3.05392928
v 0.28217706 5.34525308 7.61907405
v 3.85710101 0.04108268 2.59677864
v 3.90148904 0.21528338 2.47082807
v 3.82745409 0.22826597 2.59677864
v -3.60203457 1.06293373 0.07899266
v -0.15420327 4.64420391 0.02235716
v 3.19017378 1.79134560 -0.19093919
v -1.88661360 3.05680040 4.56883604
v 1.25815206 5.28304755 0.35065897
v -0.26898274 4.93741542 -0.15080659
v 0.37721275 6.99493419 -2.81339755
v -4.43154722 5.87728993 1.32851482
v -4.83910571 8.56714880 -1.55308121
v -1.86284037 -5.32700756 -6.29406886
v -1.56515855 -5.51378543 -1.60247939
v 0.86575177 -2.94365425 -5.39149750
v 4.12098759 1.07670486 -1.84800318
v 3.19185531 1.01087058 -3.60250270
v 0.17831630 5.78241289 -8.06518529
v 3.85710101 0.04108268 -2.59677864
v 2.95005498 -1.32801217 4.60226017
v 0.72047818 -2.03342981 6.75223024
v -0.62603771 -2.21734499 5.80433536
v -3.21515582 -1.23370826 -3.39043152
v -3.67642463 -1.15869520 -2.60124317
v -3.68085024 -1.15388625 -2.59677864
v -4.12098759 -1.07670486 -1.84800318
v 0.17216499 -4.87072697 -0.99523852
v -4.03179888 -2.89526731 -0.00699375
v -0.55745513 -3.30469023 -3.65723146
v -0.52770185 -3.62053181 -3.18324804
v -1.15976254 -3.03638095 -3.34364190
v -0.43323517 -4.06994507 -2.57352065
v 0.32069663 -4.23943610 -3.23516547
v -0.60755781 -3.79780383 -2.79736626
v -2.44800037 -3.62312255 0.23738242
v -2.98440889 -1.84787733 -3.00135669
v -3.22124195 -1.52161104 -3.23516547
v -3.28181226 0.05131015 -3.29579620
v -2.18484741 1.23824596 -3.91175078
v -2.18484741 -1.23824596 -3.91175078
v -1.78899540 -0.12136665 -4.28329959
v -1.33833826 -1.20934922 -4.28329959
v -0.07258145 2.58279667 -3.86599107
v 1.04827592 -2.43524598 -4.79025071
v 2.23333514 -3.15274832 -2.57352065
v 1.12311404 -3.43024093 -2.90808576
v 0.82581883 -3.70383762 -2.63208282
v 3.15256802 -2.23368899 -2.57352065
v 3.12024855 -2.25640745 -2.59760229
v 3.09464493 -2.24004454 -2.63700450
v 3.65343122 -1.25068963 -2.57352065
v 3.01389865 -1.33176372 -3.26800116
v 3.67642463 -1.15869520 -2.60124317
v 3.64073469 -1.15353690 -2.64572700
v 1.62983356 -3.04039710 -3.06092746
v 2.24004454 -3.09464493 -2.63700450
v 2.27158470 -2.61159269 -3.06092746
v 2.99394425 -1.21119891 -3.34269946
v 3.28181226 -0.05131015 -3.29579620
v 3.03892298 -1.22165804 -3.30407899
v 3.05090975 -1.21213545 -3.29579620
v -0.22489699 0.22489699 -4.93771530
v 2.26960182 1.24144052 -3.86599107
v 2.23906830 1.25947107 -3.87972921
v 0.57653458 3.88967187 -5.00311584
v -0.32333288 0.21677518 -6.53055018
v -1.32505535 -1.90505381 9.85831592
v -0.35014773 -2.34422175 7.73615880
v -0.08451390 -8.18171281 2.81314591
v 1.49944178 1.26211805 7.08346074
v 1.06479275 0.33450223 0.50221057
v 0.07135464 -2.62517811 -0.55983467
v 1.09307965 2.57390741 -6.72805725
v 0.42104978 0.20329377 -6.20510339
v 0.13555907 -0.54048972 -6.86997447
v -0.12305427 5.88101360 -8.95137220
v 1.12761580 -2.23602287 -7.84339994
v 0.02960323 6.91200076 -8.06518529
v 0.83664930 5.85172324 -5.79853293
v 2.28622677 2.28622677 -3.33482695
v 1.38798492 2.20998212 -3.83752909
v 2.28699113 2.37563611 -3.26800116
v 2.31418357 2.31418357 -3.30016783
v 0.12136665 1.78899540 -4.28329959
v 1.23824596 2.18484741 -3.91175078
v 1.25947107 2.23906830 -3.87972921
v 1.24144052 2.26960182 -3.86599107
v -2.23368899 3.15256802 -2.57352065
v -5.71513942 1.37868043 -2.57352065
v -2.63601239 1.23856539 -5.17028386
v -4.79412386 -0.11086625 -4.51254462
v -0.30144113 0.09980609 -9.03327678
v -1.21213545 3.05090975 -3.29579620
v -1.15353690 3.64073469 -2.64572700
v -0.05131015 3.28181226 -3.29579620
v -0.54760589 2.61807959 4.46981903
v 3.12074305 1.21003604 7.74897106
v 2.14223334 2.24920464 -0.49539572
v -1.36719906 1.69246641 -2.50618726
v 3.64073469 1.15353690 -2.64572700
v 2.79912348 0.90777756 4.41724749
v 3.40634460 0.64329443 3.05392928
v 4.95239945 -1.09512380 -3.77432984
v 4.09951551 2.12994729 -1.15085775
v 1.19425436 2.47230850 -4.20320219
v 0.92601875 2.37973949 -4.68589227
v 1.59153919 3.59561053 5.30410576
v 1.10264304 5.32021228 4.92366117
v -1.21119891 -2.99394425 -3.34269946
v -0.05131015 -3.28181226 -3.29579620
v -0.07258145 -2.58279667 -3.86599107
v -1.21213545 -3.05090975 -3.29579620
v -1.22165804 -3.03892298 -3.30407899
v -0.35891529 -3.05761081 -4.34417037
v -3.82302214 -1.09737195 -6.82835986
v -0.98927465 -2.88706762 -4.17803952
v 0.03913840 -3.72613104 -2.58674681
v -1.90635006 -2.98504800 -2.78707441
v -3.41172134 -2.35450242 -3.13173956
v -3.39961093 -2.75130232 -1.82816380
v -2.12393642 -3.72486865 -0.07753672
v -5.01117256 -1.95895081 -2.58674681
v -1.69473411 -4.44152621 0.00270910
v -1.00657278 -5.03686870 2.07898422
v -2.25014548 -3.05773409 2.07898422
v -3.33176499 -2.22909590 -1.09661552
v -3.44478493 -2.08048148 -1.18967156
v 0.00702060 -3.00650829 9.09564403
v -1.08032722 3.24332357 -7.86276254
v 0.02477525 -6.56473220 -7.86276254
v -1.08032722 -5.52413735 0.90469837
v -0.69366992 -6.01646148 -1.73087036
v -2.99541520 6.26091233 4.87426097
v -8.92111873 0.33520881 4.87426097
v -0.70193183 -1.95827457 3.14579701
v 0.02294666 -3.05917877 2.07010065
v -0.14623875 1.89698466 4.24545410
v -6.51618693 -0.74153427 4.24545410
v 2.48439877 -2.73703049 2.86714822
v 3.55459755 -1.66683171 3.32626028
v 0.82424569 -2.22145105 2.40311193
v 0.63058473 -6.85998943 -0.94793884
v -6.66088487 -4.22708574 2.40311193
v -4.49645473 -6.67006067 0.04488580
v 0.55472643 -5.67260983 0.24125350
v -2.04744231 -5.79102098 -1.95326982
v 0.89472973 -7.29013251 -1.95326982
v -2.01210472 3.77634635 1.83952000
v 0.00710136 2.81379077 5.90291988
v -0.43731359 2.20155522 6.34165982
v -1.19535892 1.89111055 5.90291988
v -9.36336840 0.58499869 -3.66141199
v -3.64073469 1.15353690 2.64572700
v -0.17154209 2.46251554 0.40705332
v -1.04852675 -7.22989652 6.70570224
v -0.16449132 0.61613491 6.70570224
v 1.32865879 4.67719154 4.48635773
v -2.03968753 2.03968753 -4.61455370
v -1.02968691 3.43108600 -3.61745040
v -0.37555540 2.36514915 -8.11429220
v -2.42299186 -0.35563019 -9.87463873
v -3.23268511 0.78549832 -4.77452933
v 2.10105730 4.84176185 -8.11429220
v -6.91771849 0.15180977 -2.95865123
v -1.90843214 -2.50238006 4.21395310
v -5.15355774 0.94651363 0.88153448
v -3.81295841 0.13215483 2.72203281
v -6.82612228 2.16470122 -1.26109136
v -7.22914428 3.77715326 -0.77517898
v -3.88658401 0.14506563 2.59677864
v -1.51795519 -5.12735909 -1.44945069
v -2.26983144 -4.09155827 -0.70717561
v -2.23058767 -4.12004489 -0.67905276
v -2.60650588 -3.26308232 0.57856028
v -3.27346179 -3.73632411 -2.40230306
v -5.63825196 1.68509342 2.79146821
v -7.80512652 -2.68893004 4.39058218
v 0.32377176 -0.42064082 2.68110557
v 2.14051559 -3.11363102 2.75215788
v 0.35358364 -3.03057370 5.10454481
v 1.07021355 -2.04332899 5.81202363
v 2.03419417 -1.74099588 5.10454481
v 3.52061842 -2.95099722 1.30218523
v -2.26579258 -3.88236292 8.92574364
v -2.49460189 -4.91025473 7.63654387
v -3.27479794 -5.19732430 8.92574364
v 3.64073469 -1.15353690 2.64572700
v 1.74076886 -0.87893309 5.01383840
v 4.13675625 1.72459099 2.59677864
v 5.26680871 -6.14710119 -0.29936788
v 3.08065703 -4.94335706 2.59677864
v 8.68279877 -3.97866833 -2.37631006
v 7.52515719 -3.72608834 -1.18180167
v 7.24118154 1.05277762 -3.67888350
v 7.33224582 -3.84449218 -0.88781270
v 7.54699379 -3.81345446 -1.15547389
v 5.51230016 -9.11302672 1.06379979
v 0.65020988 2.81385629 0.85588451
v -4.90449273 6.52538991 0.85588451
v -2.84528477 6.05738239 0.18115322
v 0.03040945 -0.76389155 2.39607209
v 6.98120684 2.11522300 2.39607209
v 9.71127400 -2.34144338 4.09102084
v 1.57373890 0.88625163 2.35073710
v 0.86142458 0.12802018 2.22993093
v 0.52728089 0.46216388 2.08658429
v -1.18169410 -5.76595210 2.35073710
v 3.33088814 -8.72182923 4.09102084
v -1.86430907 3.37158871 3.97441483
v -2.41231517 3.19902852 4.70738439
v -0.09445930 5.23295913 -0.28378243
v -2.63069373 -5.55327926 -7.70994689
v -0.14320499 -3.06579052 -7.70994689
v -1.09947607 -4.59700818 -4.58510780
v 2.97553149 -1.41463546 4.28500886
v 5.36611414 -6.13324227 -3.41834131
v 3.37409947 -3.01626688 1.37846989
v 3.08596524 -3.42616911 1.07304672
v 0.37680209 -5.68969181 0.04781053
v 0.10482062 -8.16839209 -2.66884565
v 0.35937089 -5.69365349 0.05352213
v 0.34944184 -5.70615191 0.04488580
v -0.65711829 -3.23570544 2.45879523
v 4.48505356 -0.38916227 5.93628126
v 3.30456911 -1.49691672 0.56336763
v -1.22416459 -2.38690410 5.93628126
v -8.74262888 -2.67601166 -4.59100847
v -3.85710101 0.04108268 -2.59677864
v -4.12098759 1.07670486 -1.84800318
v -3.68085024 1.15388625 -2.59677864
v -3.54729875 -1.45898632 -2.57352065
v -3.65343122 -1.25068963 -2.57352065
v -3.66181436 -1.43491513 -2.41815519
v -2.61106908 -1.87572685 -4.01076804
v -3.74503116 -0.11997820 -3.91570791
v -3.28320955 -2.19464315 -1.31362707
v -1.70848602 -2.77405549 -3.91570791
v -1.25947107 2.23906830 -3.87972921
v -1.24144052 2.26960182 -3.86599107
v -1.33176372 3.01389865 -3.26800116
v -1.22165804 3.03892298 -3.30407899
v -1.21119891 2.99394425 -3.34269946
v -2.23906830 1.25947107 -3.87972921
v -2.26960182 1.24144052 -3.86599107
v -2.99394425 1.21119891 -3.34269946
v -2.24004454 3.09464493 -2.63700450
v -2.28699113 2.37563611 -3.26800116
v -2.31418357 2.31418357 -3.30016783
v -2.37563611 2.28699113 -3.26800116
v -3.09268176 2.31829008 -2.56538328
v -2.25640745 3.12024855 -2.59760229
v -2.31829008 3.09268176 -2.56538328
v -3.69299318 2.12009161 -1.84031573
v -0.92816146 0.25954878 -4.52706808
v -1.78899540 0.12136665 -4.28329959
v -1.33833826 1.20934922 -4.28329959
v -1.20934922 1.33833826 -4.28329959
v -1.24654811 1.24654811 -4.30646977
v -1.18694121 1.18694121 -4.33204096
v -0.12136665 1.78899540 -4.28329959
v -0.25954878 0.92816146 -4.52706808
v 2.23364810 -3.15276256 -2.57325672
v 3.01104614 -3.01104614 -1.83755539
v 2.06971256 -2.06971256 -4.52871570
v 2.31829008 -3.09268176 -2.56538328
v 2.23368899 -3.15256802 -2.57352065
v 2.25640745 -3.12024855 -2.59760229
v 2.36761211 1.27553768 -4.28329959
v 5.05120368 -4.89155806 0.01374562
v 4.58865116 0.55779524 -3.03599161
v -0.39814962 -4.42900554 -3.03599161
v 0.63259488 2.34080164 -5.47182384
v 1.33833826 1.20934922 -4.28329959
v 2.18484741 1.23824596 -3.91175078
v 1.78899540 0.12136665 -4.28329959
v -3.25644253 1.17167753 1.71273739
v -1.85776462 0.99446525 8.39290048
v -0.43220761 1.74241310 6.45674563
v -0.08361969 2.70831220 -0.79894546
v -1.13803611 -2.65712474 -7.16452825
v 1.22879722 4.10689628 -7.16452825
v 0.32662686 0.23661209 -8.66581220
v -2.51778936 1.69263875 -4.27193659
v 1.08395583 7.19873372 6.13295039
v 0.23136830 -0.36818985 6.13295039
v 2.32211853 2.11452140 0.39436120
v 3.25120188 1.24267914 4.62303584
v -1.24215640 2.81497320 4.62303584
v -1.13253947 -0.12504687 -8.81424128
v -2.17783381 -0.78521816 -9.79187420
v -1.20257489 0.86337693 -6.94778038
v -5.42636635 1.93963997 -3.89389502
v -0.78810856 2.13043048 -0.61941376
v 0.74340450 1.90662773 -4.24745762
v -1.37902603 1.30495368 -3.77925258
v -1.83971552 1.12812458 -4.19106479
v 2.24004454 3.09464493 -2.63700450
v 1.33176372 3.01389865 -3.26800116
v 0.40904718 4.08226947 -2.57352065
v 1.69870472 2.24759149 -3.94056161
v 1.21119891 2.99394425 -3.34269946
v 1.22165804 3.03892298 -3.30407899
v 1.21213545 3.05090975 -3.29579620
v 0.07258145 2.58279667 -3.86599107
v 2.32570767 1.49682872 -4.69648861
v 4.16159382 0.87977502 -4.61230705
v 2.45179414 1.92553838 -3.12637157
v -0.53651885 2.52371575 -4.61230705
v 2.88220179 1.55456483 -3.85814234
v 3.28181226 0.05131015 -3.29579620
v 2.58279667 0.07258145 -3.86599107
v 2.99394425 1.21119891 -3.34269946
v 3.03892298 1.22165804 -3.30407899
v 3.05090975 1.21213545 -3.29579620
v 6.30022985 -2.43230381 0.08219929
v 5.78617161 -1.35181927 -0.42739728
v 7.61089745 -1.84188561 -2.77083268
v 4.86448637 -0.51407866 0.02370184
v 6.43966646 -1.59569283 -1.18180167
v 4.84786166 -0.47675910 0.00427152
v 1.15785134 3.19255636 0.02370184
v -1.34133284 4.30586547 1.32489464
v -1.33791758 4.30100690 1.32851482
v -1.69542363 6.00179667 -0.97897850
v 4.47373650 2.80180649 -3.46005506
v 3.83139071 0.92919347 -3.30770401
v 2.85005574 2.49097912 -3.30770401
v 3.39310142 2.02117917 -1.66926230
v 4.60344584 0.82269414 -3.26445581
v 3.41405245 1.79723706 0.78878272
v 0.50630907 3.61955833 -3.20128951
v 2.92261884 0.12639329 -7.77335721
v 0.12045411 2.76300007 -5.06582641
v 1.25068963 3.65343122 -2.57352065
v -0.73207014 1.64021503 -7.77335721
v 1.07670486 4.12098759 -1.84800318
v 0.87021243 1.20671883 -7.35107655
v 1.12374596 7.05320262 -1.14904455
v 1.12374596 -1.47325242 7.37741049
v 1.12637496 5.96261594 2.49587802
v 3.74847450 1.50792168 -0.22021350
v 4.01838477 0.83544768 0.78878272
v 0.54739175 6.57961248 5.30410576
v 3.83085844 1.21121794 0.63859553
v -5.52307183 -2.91364925 -1.00166071
v -6.52049751 -1.85439205 7.40208130
v -1.48633253 -5.21330298 -1.59146479
v -1.37310327 -5.23850788 -1.44945069
v 0.37551465 -6.07044152 -0.62473765
v -2.11147863 -3.73038517 1.77826559
v -1.78354566 -4.19434125 -0.42439023
v -2.60803800 -2.14014130 -3.50656144
v -0.76198979 -5.07811019 -3.50656144
v -0.96734528 -4.07128720 5.48809626
v -0.15431460 -4.09610107 8.15908255
v -1.43660627 -2.41594932 5.85326135
v -1.85942326 -2.52372652 4.32398665
v -1.85429554 -2.63307736 4.21395310
v 0.12091944 -6.86710206 5.85326135
v -2.43252389 -2.69227938 2.22504852
v 0.16418713 -4.20030665 9.09564403
v -2.62519611 0.21631450 4.96490870
v 7.83511934 -1.19715714 4.00658340
v 2.31966344 -3.15198279 2.17177365
v 2.46236348 1.02831120 4.00658340
v 2.34124174 -3.09685963 2.20432808
v 2.27533178 -2.98524554 2.25454730
v 5.55934343 -7.57708293 0.47277716
v -1.28064784 -2.87221142 0.57275971
v -1.19612648 -3.06322224 0.47277716
v 8.43686828 -4.63622427 2.25454730
v -0.64565875 -6.54371999 -0.79355440
v 2.43474771 -6.80355216 -0.50393786
v 2.69428332 -7.20807578 -0.79355440
v 2.42074797 -6.86375707 -0.55563212
v -3.59402920 0.90138837 2.84909622
v 1.18070685 2.82582969 7.62494022
v 0.96640434 3.67517423 5.92640636
v 0.55879302 3.00873885 5.34722741
v -1.08578618 -2.18964934 5.92640636
v -0.06988962 -0.62087411 7.47702811
v -0.64604920 -0.63845862 5.58421598
v 2.73400688 4.50358134 8.61428995
v 1.74552598 3.21536796 8.61428995
v 1.96968101 4.22235112 7.35131416
v 0.77815856 4.18130441 2.99309184
v 2.05327052 4.97763319 5.59528211
v -0.01817022 2.90619246 5.59528211
v 1.18032021 4.93244489 0.76381336
v -0.21059358 1.46702150 5.96341830
v 2.90367903 6.42335797 5.96341830
v -0.03863753 -1.82688540 6.03359869
v -1.48413483 -5.42830210 0.62994609
v -0.52671266 -3.66111412 5.75749135
v -1.83344169 -5.37938414 4.68158367
v -3.27512328 -6.97772297 6.03359869
v 1.19421510 -2.20425559 5.30403118
v 6.11661247 -1.94002602 -0.60308980
v 8.28445226 -1.43592756 -2.46448057
v 6.73373132 -4.65531582 0.28661684
v 3.40059193 -1.23202431 1.06379979
v 2.72256848 1.34781359 0.28661684
v 0.95230576 2.13114621 1.21324173
v -8.01311542 6.86181603 0.36458461
v -2.01211496 5.25385280 0.36458461
v -2.16737738 8.97267517 -2.32202948
v 3.62443018 1.57438085 -0.02020700
v 1.22833909 2.53609772 -3.61535995
v 4.65528938 0.38280214 -3.61535995
v 4.44113590 0.72700766 -1.81558239
v 4.53238015 0.79175046 -1.40777935
v 3.10019454 1.31871663 -3.77432984
v 4.21163814 -0.14140495 -4.68589227
v 3.20917625 1.23960802 -3.69623143
v 3.49435367 1.80802666 -1.46464196
v 3.33077842 1.57749443 -2.49497252
v -0.14010348 3.31690042 1.67575434
v -0.20520941 3.09553220 2.48649887
v 0.22564141 2.10635113 4.70738439
v -2.35597518 4.53544024 2.21295342
v 1.01424481 -2.26515692 -2.32139109
v 0.90451465 -0.40631441 -8.62152376
v 1.80938545 0.16517030 -9.46782270
v 3.12473930 -1.31255376 -2.68888289
v 4.95754623 -0.14834108 -4.76871947
v 3.85710101 -0.04108268 -2.59677864
v 3.68085024 -1.15388625 -2.59677864
v 4.12098759 -1.07670486 -1.84800318
v 3.04563972 -3.61801269 0.81276896
v 2.17081663 -1.67599550 5.04010859
v 3.34145398 -0.57452194 6.17121150
v 2.73701385 -3.60396873 1.07304672
v 1.10103202 -1.50253510 6.17121150
v 0.16988670 -3.83670046 2.59677864
v -0.44010753 -4.39806976 2.03047218
v 0.04108268 -3.85710101 2.59677864
v -5.03657923 -2.58724191 6.22316890
v 0.16095316 -3.88764517 2.51010990
v -0.23827898 -1.95553370 6.22316890
v 0.01281566 -1.79695111 6.45801030
v -1.53659581 -1.72720192 -6.81967060
v -0.80366245 -6.23919243 -4.01076804
v -0.97485656 -2.58840072 -7.68435295
v 0.27761041 -4.70118979 -9.38842931
v -0.70199482 -4.67129203 -6.17020868
v 0.10029498 -4.64317673 -8.86702932
v -2.23649472 -0.94317788 -5.40652966
v -2.20394043 -2.94988277 -3.18292539
v 0.35550777 -7.13452329 -6.81967060
v -1.38798492 2.20998212 -3.83752909
v -2.20998212 1.38798492 -3.83752909
v -2.28622677 2.28622677 -3.33482695
v -3.05090975 1.21213545 -3.29579620
v -3.03892298 1.22165804 -3.30407899
v -3.01389865 1.33176372 -3.26800116
v -3.65343122 1.25068963 -2.57352065
v -3.09464493 2.24004454 -2.63700450
v -3.64073469 1.15353690 -2.64572700
v -3.67642463 1.15869520 -2.60124317
v -3.12024855 2.25640745 -2.59760229
v -3.15256802 2.23368899 -2.57352065
v 0.92816146 -0.25954878 -4.52706808
v 0.25954878 -0.92816146 -4.52706808
v 1.18694121 -1.18694121 -4.33204096
v 2.58279667 -0.07258145 -3.86599107
v 1.28074516 1.31263936 -4.76034596
v 1.78899540 -0.12136665 -4.28329959
v 2.26960182 -1.24144052 -3.86599107
v 4.47636958 0.06169231 -2.87308620
v -1.33672684 -3.63122650 -3.23562689
v 0.86152715 -4.36560259 -2.52825674
v -7.98686410 -1.22949517 -5.47182384
v 1.55233894 -2.85710366 -3.23562689
v 0.78180589 -4.16194953 -2.64852939
v -4.22643585 -0.11085240 -5.61513078
v -3.41332348 0.44664156 6.06004283
v -2.59448477 1.39314403 3.20431781
v -0.69120628 2.15706116 6.06004283
v -0.29739557 1.76016144 6.45674563
v 1.55855163 2.11792086 7.42527194
v -2.10084002 0.94207292 7.07783336
v -0.31334215 1.58726984 7.01233495
v -0.30916319 1.72419400 6.56250868
v -4.51154518 -0.00609788 7.42527194
v -2.23202625 1.38812239 5.44421060
v 0.04108268 3.85710101 2.59677864
v -4.17721379 1.90486134 5.78968703
v 8.27283851 5.95902093 -1.55308121
v -3.63195979 5.67743820 1.08755917
v -2.00631143 4.18137638 2.59677864
v 1.30380889 4.22953868 -7.27111307
v 1.39816274 4.69748175 -6.65388463
v -0.38566422 0.63023470 -9.03963554
v 0.63358321 0.67969296 5.19624368
v 0.31288302 0.66990512 6.24981500
v 1.00527568 1.99085377 5.48548382
v -1.29812564 -3.40128923 6.86891074
v -0.88497533 -3.52279959 5.35577868
v -0.97625848 -3.67204551 5.48548382
v -3.72888214 1.02773334 1.05848692
v -1.23758159 1.76716921 -5.61513078
v -3.32736010 0.92839674 -2.47957663
v -4.82058083 -0.02090927 -4.18308391
v -4.89465278 -0.06621384 -4.24745762
v -0.93180401 2.09231852 3.45848168
v 6.71774246 2.09231852 -4.19106479
v 2.91021424 2.14945392 2.84301072
v -4.61429958 2.14945392 -4.68150311
v 3.80328584 1.20101982 -4.68150311
v 1.15353690 3.64073469 -2.64572700
v 1.15388625 3.68085024 -2.59677864
v 1.15869520 3.67642463 -2.60124317
v 0.05131015 3.28181226 -3.29579620
v 0.04108268 3.85710101 -2.59677864
v -3.75397881 0.49106322 -9.82893313
v 3.51956005 -0.46651633 -9.82893313
v 2.88465938 1.47404146 -4.12267950
v -0.98561752 -4.42597823 0.98053433
v -0.99942490 -3.97357723 2.46677204
v -5.14959896 -2.79707133 1.55124979
v -1.15645848 -4.12596747 1.77826559
v -1.95549759 -4.08849867 0.97423780
v -1.07855119 -4.14704522 1.79879801
v -1.07644125 -4.14837778 1.79682466
v -1.18283438 -4.78557260 0.32021447
v -1.82639990 2.16843769 2.67020643
v 3.76000128 -3.41796349 2.67020643
v -2.34456857 -3.93613216 -0.74622355
v -4.84301651 5.10121247 -2.54386111
v -4.17756650 3.52116444 -0.43557160
v -1.75692280 5.94180814 -0.43557160
v -4.18838851 0.48359300 2.40623185
v -6.12085198 5.90939286 -3.77900966
v -4.98708638 4.77562726 -2.37343705
v -6.45058183 4.12803766 -3.13948793
v -5.49450667 -1.46961118 0.35065897
v -9.22151686 -0.01895967 -3.13948793
v -5.01612364 1.41795922 -0.72770109
v -4.81395055 1.53734577 -0.63673609
v -9.02275261 0.85559235 -3.42604841
v -0.88307721 1.47123054 6.52709555
v -2.29944812 0.95967952 4.31750234
v -1.08153313 5.83243956 2.84909622
v 0.59824774 0.80393610 9.75161061
v -1.23329361 -4.79251843 3.44857308
v 2.71267770 -1.59479166 3.02569322
v -2.36469792 -5.49909937 5.75749135
v 1.23638174 -2.76051042 3.50264827
v 3.36595884 -0.83965855 5.30403118
v 2.76788142 0.09171073 1.21240286
v 1.80033009 -0.28704325 1.78381565
v -2.28161865 -0.08066084 3.42872352
v -0.35933856 -0.50150410 2.79146821
v -0.18565774 -0.93007032 2.89964930
v -0.21913097 3.60577539 0.98870589
v -0.54592508 2.77095889 1.48172866
v 4.53942027 0.85063476 0.26242103
v 5.42264300 -0.56361511 -2.62371553
v 3.12517040 1.73385749 -2.62371553
v 3.18790066 1.88053652 -2.18390005
v 4.17656227 0.73773435 1.26408752
v 0.88989209 2.80288610 1.26408752
v 3.20089477 1.69861078 -0.40219361
v 2.62959702 2.13307762 -0.04447123
v 5.43109696 0.24330084 -2.42802464
v 5.05584701 -0.02295957 -0.75089908
v 5.47936249 -0.57985694 -0.40219361
v 4.22036018 0.68878592 -0.42739728
v 3.14286074 1.47093073 0.34475985
v 0.69588752 -0.46275830 -8.67650732
v 3.68421905 -1.34321820 1.02676305
v 0.31021950 -2.67601166 4.46183991
v -1.20069048 -2.30320130 -4.76871947
v 1.38468650 -1.53493726 -4.59100847
v 1.03240437 -1.67015574 -4.27610205
v 1.07189469 -2.13650210 -5.76902051
v 4.52191261 -0.41478731 -4.39012339
v 4.48378102 -0.28513517 -4.86496465
v 1.67925121 -1.92205853 -5.25222577
v 5.22321863 1.41252365 -8.67650732
v 2.50260806 -1.64944904 -4.49569142
v 4.00792514 -0.29167190 -5.76902051
v -0.21186339 -2.81706562 -2.25143206
v 0.90690027 -1.62894856 7.17463485
v -0.88321173 1.39018048 7.00464217
v -2.63147104 0.91719040 6.54388943
v -2.12009161 3.69299318 1.84031573
v -1.28844500 1.84682332 5.85901704
v -1.99725513 1.17989123 6.54388943
v 1.35812056 5.16395453 -2.25463052
v -0.33487997 0.94589035 -8.58351589
v -2.36765453 -3.85132196 2.81556803
v -0.64606693 -4.87919948 -1.18967156
v -2.36886726 -3.80328181 2.32614071
v -3.46034934 -2.58826694 -0.99523852
v -2.39533374 -3.54889767 -0.09435500
v -3.19090464 -3.18199421 3.87505509
v -2.68034069 -3.66110217 1.55124979
v -1.95947059 -4.10200735 0.92476327
v -1.89258709 -4.38542421 -1.57664579
v -2.53381230 -3.35867000 0.51870733
v -0.86583288 -5.02664941 0.51870733
v -3.85710101 0.04108268 2.59677864
v -3.63540848 -0.82894908 3.22582893
v -4.00517023 -0.89378958 2.59677864
v 2.67484391 3.85368436 -0.92225475
v -3.14655396 3.35955192 2.33569768
v 2.18071147 -1.96771351 2.33569768
v 0.61565602 3.12163797 0.81142198
v 3.61555904 0.81973142 0.81142198
v 2.96064940 2.59964110 -2.12970947
v 0.06119713 -4.83668643 -2.54584824
v 1.66715670 -0.47201874 -9.75804646
v 7.41751411 0.80801413 -2.54584824
v -0.04108268 3.85710101 2.59677864
v -1.07670486 4.12098759 1.84800318
v -1.15388625 3.68085024 2.59677864
v -0.48601326 3.42336634 3.03941782
v -0.59726389 4.19310214 2.08002155
v -2.52452096 3.71139665 1.49924268
v 0.90264897 8.94034341 -2.54386111
v 0.56135842 8.86277643 -2.65569023
v -0.01807584 8.13340068 -2.15169571
v -2.06724826 3.94438872 1.49924268
v -1.53829920 4.69687623 0.93855505
v -1.91463794 -4.11497311 1.04870123
v -1.87320039 -4.16287111 0.90418653
v -2.01095383 -4.07631489 0.90418653
v -0.44366904 -3.82420089 -2.55917161
v -0.00000000 -3.52543825 -3.00883952
v -1.01252017 -0.20181611 0.04320271
v -0.98132095 -0.05000201 -0.12175419
v 5.07325625 -2.83771220 0.39971164
v 6.15687712 -1.82586009 -0.32441508
v 1.95696266 -3.07430110 3.46705605
v 2.30007907 -3.41741751 3.46705605
v 0.07353234 -1.82586009 2.92720044
v 0.04400005 -1.80046953 2.93934930
v -4.23304107 -3.07430110 4.07671821
v -2.83928256 -1.80046953 3.81398351
v -0.44366904 -0.43233924 -8.90489843
v -2.68606089 -1.40394564 -6.53483951
v -0.27805564 0.00000000 -9.30282042
v 1.34381925 3.54097153 0.12874489
v 1.34381925 3.68696867 -0.01725225
v -6.77927225 1.09078116 -1.62326462
v -5.01140642 -0.55999801 -0.44189304
v -0.14575599 2.70448654 -0.12175419
v -0.24933960 2.45772563 -0.44082139
v 1.24920736 6.21379011 -0.61560512
v 0.49521434 7.02126244 -1.15519632
v -3.86045837 -0.00000000 -2.60061632
v -3.86045837 0.00000000 -2.60061632
v -3.28564917 -0.00000000 -3.30102336
v -3.28564917 0.00000000 -3.30102336
v 1.01151994 0.31307713 -0.01725225
v 1.03222453 0.41382484 -0.12672186
v 0.14846490 -2.49954024 -0.12672186
v 0.09637207 -2.62363781 -0.28718271
v 0.59802065 3.54097153 -7.44347538
v 0.75473544 4.32448237 -6.63583424
v 3.18664286 1.84869462 0.43407805
v 2.31598300 2.21417429 -0.69170402
v 0.99270398 7.10590470 0.12874489
v 0.99564610 7.09158846 0.14430052
v -0.00000000 -3.28564917 -3.30102336
v -0.00000000 -3.28564917 -3.30102336
v -3.86045837 0.00000000 2.60061632
v -3.86045837 -0.00000000 2.60061632
v -7.92747611 1.09078116 -2.56557118
v -8.90422433 -0.00000000 -3.54523029
v -1.81783813 -4.20615188 0.03320599
v -1.66627967 -4.43172624 0.38240308
v -1.26610018 -2.77645717 0.04320271
v -1.26610018 -2.88210074 0.14884628
v -0.46924593 -3.42254783 -7.40130361
v -0.59847447 -2.77645717 -6.73531487
v -1.00281183 -5.55531227 0.14884628
v -1.00794005 -5.53035857 0.12173230
v -0.85553434 -6.00649566 0.03320599
v -0.88427397 -5.93803098 0.12173230
v 0.64318099 -0.65047592 3.26874805
v 1.06001840 -0.16564374 3.46819603
v 1.95696266 0.67708017 3.83653486
v 1.06001840 1.65846870 4.02153449
v -0.64995070 -2.88210074 6.40471695
v -0.49610379 -3.65127331 7.19757824
v 0.06360964 -3.65127331 9.04270615
v 0.60172711 4.35773586 -0.34874392
v 0.35509885 4.11110760 -0.80884183
v 1.09004433 4.96353672 -0.44082139
v 1.24977250 5.20127059 -0.80884183
v 5.51428069 -2.83771220 0.03777224
v 8.05533149 0.00000000 -2.51085137
v 3.86045837 -0.00000000 2.60061632
v 3.52531070 0.49770160 3.10504737
v 1.24920736 1.67951619 1.80801479
v 1.72566400 1.12533966 2.03598933
v 2.30007907 -3.32399044 3.45785429
v 1.72566400 -3.95248475 3.57633052
v -0.78597362 -0.55999801 1.81664785
v 0.75060332 -1.88107935 2.44875765
v 4.03412618 -3.41741751 3.63784478
v 5.71510539 -1.88107935 3.95472289
v 3.60709873 1.52405856 -0.69170402
v 3.16697211 1.81976997 -1.37303561
v 3.86045837 0.00000000 -2.60061632
v 3.86045837 0.00000000 -2.60061632
v 0.63624827 -0.00000000 -8.63268914
v -2.68606089 -2.12078712 -4.17172985
v -3.13283441 -2.21014902 -3.71119675
v -0.96257141 -0.00000000 -4.54924232
v -0.96257141 -0.00000000 -4.54924232
v -1.79822085 0.00000000 -4.29575084
v -1.79822085 -0.00000000 -4.29575084
v 0.00000000 1.79822085 -4.29575084
v -0.00000000 1.79822085 -4.29575084
v -0.00000000 0.96257141 -4.54924232
v -0.00000000 0.96257141 -4.54924232
v 0.00000000 0.00000000 -4.64404733
v 0.00000000 -0.00000000 -4.64404733
v 0.96257141 -0.00000000 -4.54924232
v 0.96257141 0.00000000 -4.54924232
v -0.00000000 -0.96257141 -4.54924232
v 0.00000000 -0.96257141 -4.54924232
v -0.00000000 1.78034663 6.49223166
v 0.72129309 2.09287585 5.72987288
v 0.76202134 3.68696867 5.88984108
v 0.55649263 4.71452943 6.94904831
v 0.08539202 4.71452943 8.50205889
v 1.96546450 -0.01401790 -9.36957301
v 1.95648338 -0.01012647 -9.36008057
v 0.72129309 1.44261501 7.87349561
v 1.34203856 1.56677410 7.23363263
v 3.00957003 1.90240907 0.43407805
v 2.21612765 2.06546892 1.29621009
v 0.00000000 2.58787473 -3.87367204
v 0.00000000 2.58787473 -3.87367204
v 3.28564917 -0.00000000 -3.30102336
v 3.28564917 0.00000000 -3.30102336
v 4.50358875 0.72283704 -1.37303561
v 4.45760565 0.76882014 -1.28725174
v 1.34214607 5.94933114 0.14430052
v 1.13682302 6.43845967 -0.48815327
v 3.82843883 1.53546212 -1.28725174
v 3.48161427 2.05166380 -0.48815327
v -5.06242043 -2.68735053 3.06349754
v -5.66378772 -2.56376391 2.41006887
v 0.64318099 -4.09094945 1.42977663
v 0.31459344 -3.73905581 1.66492861
v -0.00000000 -6.59200155 -0.72777868
v 0.31459344 -6.31029648 -0.44523408
v -1.41540478 -5.45197336 -0.28718271
v -1.47727198 -5.54405436 -0.42972736
v -0.00000000 -3.86045837 2.60061632
v -0.00000000 -3.86045837 2.60061632
v 0.00000000 -4.28851637 1.79977612
v -4.11340613 -2.50621785 6.14737257
v -4.11340613 -2.31061520 6.79218807
v -3.98266833 -2.28446554 6.92695229
v -3.13283441 -2.72933972 1.56023495
v -3.98266833 -2.72933972 2.41006887
v 2.58787473 -0.00000000 -3.87367204
v 2.58787473 0.00000000 -3.87367204
v 1.79822085 0.00000000 -4.29575084
v 1.79822085 0.00000000 -4.29575084
v -0.00000000 -3.53770421 -3.09416713
v -0.94891428 -2.52148522 -3.77325273
v -0.00000000 -0.62238921 -4.65243546
v -0.94891428 -1.72609097 -4.19839982
v 0.00000000 3.86045837 2.60061632
v 0.00000000 3.86045837 2.60061632
v 0.49521434 6.54062197 -0.76074489
v -0.00000000 6.98406539 -1.20550985
v -3.72701430 1.05807062 1.38911721
v -3.25113817 1.25783067 0.77379906
v -3.38235727 1.08808231 -0.34874392
v -2.65721689 1.57528821 0.77379906
v -1.01715440 1.88009763 1.38911721
v -0.87722105 1.90885525 1.54116484
v 1.34203856 2.12743324 1.54116484
v 1.58699331 2.12743324 1.29621009
v 1.96546450 1.65666233 -3.86207838
v 1.58699331 1.58096200 -4.25220560
v 0.00000000 3.28564917 -3.30102336
v -0.00000000 3.28564917 -3.30102336
v 1.95648338 3.70057082 -2.41785422
v 0.00000000 2.38309295 -4.40079129
v -1.02853963 -4.99727241 -0.42972736
v -0.86387574 -4.83260851 -0.12253826
v 2.77741000 -1.78274344 0.51767825
v 3.19097710 -1.50487679 -0.12253826
v 3.68709503 -1.29650666 0.51767825
v 3.30708684 -1.45602392 1.00903707
v 0.42989543 -2.37844146 1.56023495
v -0.07738621 -2.48269259 1.00903707
v -2.26624808 -3.70066263 0.38240308
v -1.73703680 -4.22987391 1.36967439
v -1.90635356 -4.09091923 1.36967439
v -2.34798102 -3.79419944 2.05332933
v -3.18631990 -3.25645941 3.06349754
v -3.96756605 -2.92851321 2.05332933
f 354 235 77
f 539 371 365
f 559 452 551
f 712 371 551
f 712 77 235
f 572 180 4
f 701 4 180
f 142 23 365
f 142 145 23
f 529 235 354
f 529 712 235
f 529 371 712
f 302 395 145
f 302 572 4
f 302 77 572
f 38 142 365
f 38 145 142
f 656 452 559
f 656 371 156
f 165 77 712
f 165 712 551
f 165 551 452
f 165 572 77
f 132 452 180
f 132 180 572
f 132 165 452
f 132 572 165
f 640 4 683
f 640 395 4
f 640 683 395
f 617 365 23
f 617 23 298
f 360 684 156
f 360 539 365
f 360 156 371
f 360 371 539
f 345 145 354
f 345 302 145
f 514 354 77
f 514 77 302
f 514 345 354
f 514 302 345
f 320 4 395
f 320 302 4
f 564 354 145
f 564 145 38
f 564 38 354
f 376 38 365
f 376 365 371
f 376 371 529
f 50 559 551
f 50 656 559
f 50 551 371
f 50 371 656
f 612 684 360
f 612 298 23
f 384 617 298
f 384 298 612
f 384 612 360
f 384 365 617
f 384 360 365
f 705 395 302
f 705 320 395
f 705 302 320
f 323 354 38
f 323 38 376
f 789 452 656
f 789 656 87
f 748 87 656
f 748 156 684
f 748 656 156
f 246 701 180
f 246 4 701
f 329 683 684
f 51 612 23
f 51 395 683
f 51 683 329
f 51 684 612
f 51 329 684
f 130 376 529
f 130 323 376
f 130 529 354
f 130 354 323
f 574 789 87
f 574 246 180
f 574 87 246
f 574 180 452
f 574 452 789
f 244 683 4
f 244 4 246
f 244 684 683
f 244 748 684
f 244 87 748
f 244 246 87
f 380 51 23
f 380 395 51
f 380 23 145
f 380 145 395
