ply
format ascii 1.0
element vertex 1092
property float x
property float y
property float z
element face 2180
property list uchar int vertex_indices
end_header
-0.59979382 -0.03476769 0.07142857
-0.56249882 -0.03476769 0.00000000
-0.56249882 -0.07206269 0.07142857
-0.56249882 -0.07206269 0.21428571
-0.59979382 -0.03476769 0.21428571
-0.56249882 -0.03476769 0.28571429
-0.56249882 0.00252732 0.07142857
-0.56249882 0.00252732 0.21428571
-0.52520381 -0.25853771 -0.21428571
-0.48790881 -0.25853771 -0.28571429
-0.48790881 -0.29583271 -0.21428571
-0.48790881 -0.25853771 -0.14285714
-0.52520381 -0.18394770 -0.21428571
-0.48790881 -0.18394770 -0.28571429
-0.48790881 -0.22124270 -0.07142857
-0.52520381 -0.18394770 -0.07142857
-0.48790881 -0.22124270 0.07142857
-0.52520381 -0.18394770 0.07142857
-0.48790881 -0.22124270 0.21428571
-0.52520381 -0.18394770 0.21428571
-0.48790881 -0.22124270 0.35714286
-0.52520381 -0.18394770 0.35714286
-0.48790881 -0.22124270 0.50000000
-0.52520381 -0.18394770 0.50000000
-0.48790881 -0.18394770 0.57142857
-0.52520381 -0.10935769 -0.50000000
-0.48790881 -0.10935769 -0.57142857
-0.48790881 -0.14665270 -0.50000000
-0.48790881 -0.14665270 -0.35714286
-0.52520381 -0.10935769 -0.35714286
-0.52520381 -0.10935769 -0.21428571
-0.52520381 -0.10935769 -0.07142857
-0.52520381 -0.10935769 0.07142857
-0.52520381 -0.10935769 0.21428571
-0.52520381 -0.10935769 0.35714286
-0.52520381 -0.10935769 0.50000000
-0.48790881 -0.14665270 0.64285714
-0.52520381 -0.10935769 0.64285714
-0.48790881 -0.10935769 0.71428571
-0.48790881 -0.07206269 -0.50000000
-0.48790881 -0.07206269 -0.35714286
-0.52520381 -0.03476769 -0.21428571
-0.48790881 -0.03476769 -0.28571429
-0.52520381 -0.03476769 -0.07142857
-0.52520381 -0.03476769 0.35714286
-0.52520381 -0.03476769 0.50000000
-0.52520381 -0.03476769 0.64285714
-0.48790881 -0.03476769 0.71428571
-0.52520381 0.03982232 -0.21428571
-0.48790881 0.03982232 -0.28571429
-0.52520381 0.03982232 -0.07142857
-0.52520381 0.03982232 0.07142857
-0.52520381 0.03982232 0.21428571
-0.52520381 0.03982232 0.35714286
-0.52520381 0.03982232 0.50000000
-0.52520381 0.03982232 0.64285714
-0.48790881 0.03982232 0.71428571
-0.52520381 0.11441233 -0.21428571
-0.48790881 0.11441233 -0.28571429
-0.52520381 0.11441233 -0.07142857
-0.52520381 0.11441233 0.07142857
-0.52520381 0.11441233 0.21428571
-0.52520381 0.11441233 0.35714286
-0.52520381 0.11441233 0.50000000
-0.52520381 0.11441233 0.64285714
-0.48790881 0.11441233 0.71428571
-0.52520381 0.18900233 -0.21428571
-0.48790881 0.18900233 -0.28571429
-0.52520381 0.18900233 -0.07142857
-0.52520381 0.18900233 0.07142857
-0.52520381 0.18900233 0.21428571
-0.52520381 0.18900233 0.35714286
-0.48790881 0.18900233 0.42857143
-0.48790881 0.15170733 0.50000000
-0.48790881 0.15170733 0.64285714
-0.48790881 0.22629734 -0.21428571
-0.52520381 0.26359234 -0.07142857
-0.48790881 0.26359234 -0.14285714
-0.52520381 0.26359234 0.07142857
-0.48790881 0.26359234 0.14285714
-0.48790881 0.22629734 0.21428571
-0.48790881 0.22629734 0.35714286
-0.52520381 0.33818235 -0.07142857
-0.48790881 0.33818235 -0.14285714
-0.52520381 0.33818235 0.07142857
-0.48790881 0.33818235 0.14285714
-0.48790881 0.37547735 -0.07142857
-0.48790881 0.37547735 0.07142857
-0.45061381 -0.33312771 -0.21428571
-0.41331880 -0.33312771 -0.28571429
-0.41331880 -0.37042272 -0.21428571
-0.41331880 -0.37042272 -0.07142857
-0.45061381 -0.33312771 -0.07142857
-0.41331880 -0.37042272 0.07142857
-0.45061381 -0.33312771 0.07142857
-0.41331880 -0.37042272 0.21428571
-0.45061381 -0.33312771 0.21428571
-0.41331880 -0.33312771 0.28571429
-0.45061381 -0.25853771 -0.35714286
-0.41331880 -0.25853771 -0.42857143
-0.41331880 -0.29583271 -0.35714286
-0.45061381 -0.25853771 -0.07142857
-0.45061381 -0.25853771 0.07142857
-0.45061381 -0.25853771 0.21428571
-0.41331880 -0.29583271 0.35714286
-0.45061381 -0.25853771 0.35714286
-0.41331880 -0.29583271 0.50000000
-0.45061381 -0.25853771 0.50000000
-0.41331880 -0.29583271 0.64285714
-0.45061381 -0.25853771 0.64285714
-0.41331880 -0.25853771 0.71428571
-0.45061381 -0.18394770 -0.64285714
-0.41331880 -0.18394770 -0.71428571
-0.41331880 -0.22124270 -0.64285714
-0.41331880 -0.22124270 -0.50000000
-0.45061381 -0.18394770 -0.50000000
-0.45061381 -0.18394770 -0.35714286
-0.45061381 -0.18394770 0.64285714
-0.41331880 -0.18394770 0.71428571
-0.45061381 -0.10935769 -0.64285714
-0.41331880 -0.10935769 -0.71428571
-0.41331880 -0.10935769 0.71428571
-0.45061381 -0.03476769 -0.64285714
-0.41331880 -0.03476769 -0.71428571
-0.45061381 -0.03476769 -0.50000000
-0.45061381 -0.03476769 -0.35714286
-0.41331880 -0.07206269 0.78571429
-0.45061381 -0.03476769 0.78571429
-0.41331880 -0.03476769 0.85714286
-0.45061381 0.03982232 -0.64285714
-0.41331880 0.03982232 -0.71428571
-0.45061381 0.03982232 -0.50000000
-0.45061381 0.03982232 -0.35714286
-0.45061381 0.03982232 0.78571429
-0.41331880 0.03982232 0.85714286
-0.45061381 0.11441233 -0.64285714
-0.41331880 0.11441233 -0.71428571
-0.45061381 0.11441233 -0.50000000
-0.45061381 0.11441233 -0.35714286
-0.45061381 0.11441233 0.78571429
-0.41331880 0.11441233 0.85714286
-0.45061381 0.18900233 -0.64285714
-0.41331880 0.18900233 -0.71428571
-0.45061381 0.18900233 -0.50000000
-0.45061381 0.18900233 -0.35714286
-0.45061381 0.18900233 0.50000000
-0.45061381 0.18900233 0.64285714
-0.41331880 0.18900233 0.71428571
-0.41331880 0.15170733 0.78571429
-0.41331880 0.22629734 -0.64285714
-0.45061381 0.26359234 -0.50000000
-0.41331880 0.26359234 -0.57142857
-0.45061381 0.26359234 -0.35714286
-0.45061381 0.26359234 -0.21428571
-0.45061381 0.26359234 0.21428571
-0.45061381 0.26359234 0.35714286
-0.45061381 0.26359234 0.50000000
-0.41331880 0.26359234 0.57142857
-0.41331880 0.22629734 0.64285714
-0.41331880 0.30088735 -0.50000000
-0.45061381 0.33818235 -0.35714286
-0.41331880 0.33818235 -0.42857143
-0.45061381 0.33818235 -0.21428571
-0.45061381 0.33818235 0.21428571
-0.45061381 0.33818235 0.35714286
-0.41331880 0.33818235 0.42857143
-0.41331880 0.30088735 0.50000000
-0.41331880 0.37547735 -0.35714286
-0.41331880 0.37547735 -0.21428571
-0.41331880 0.37547735 -0.07142857
-0.41331880 0.37547735 0.07142857
-0.41331880 0.37547735 0.21428571
-0.41331880 0.37547735 0.35714286
-0.37602380 -0.40771772 -0.35714286
-0.33872880 -0.40771772 -0.42857143
-0.33872880 -0.44501273 -0.35714286
-0.33872880 -0.44501273 -0.21428571
-0.37602380 -0.40771772 -0.21428571
-0.33872880 -0.44501273 -0.07142857
-0.37602380 -0.40771772 -0.07142857
-0.33872880 -0.44501273 0.07142857
-0.37602380 -0.40771772 0.07142857
-0.33872880 -0.44501273 0.21428571
-0.37602380 -0.40771772 0.21428571
-0.33872880 -0.44501273 0.35714286
-0.37602380 -0.40771772 0.35714286
-0.33872880 -0.44501273 0.50000000
-0.37602380 -0.40771772 0.50000000
-0.33872880 -0.40771772 0.57142857
-0.37602380 -0.33312771 -0.64285714
-0.33872880 -0.33312771 -0.71428571
-0.33872880 -0.37042272 -0.64285714
-0.33872880 -0.37042272 -0.50000000
-0.37602380 -0.33312771 -0.50000000
-0.37602380 -0.33312771 -0.35714286
-0.37602380 -0.33312771 0.35714286
-0.37602380 -0.33312771 0.50000000
-0.33872880 -0.37042272 0.64285714
-0.37602380 -0.33312771 0.64285714
-0.33872880 -0.33312771 0.71428571
-0.37602380 -0.25853771 -0.64285714
-0.33872880 -0.25853771 -0.71428571
-0.37602380 -0.25853771 -0.50000000
-0.33872880 -0.25853771 0.71428571
-0.33872880 -0.18394770 -0.71428571
-0.33872880 -0.22124270 0.78571429
-0.37602380 -0.18394770 0.78571429
-0.33872880 -0.18394770 0.85714286
-0.33872880 -0.10935769 -0.71428571
-0.37602380 -0.10935769 0.78571429
-0.33872880 -0.10935769 0.85714286
-0.33872880 -0.03476769 -0.71428571
-0.33872880 -0.03476769 0.85714286
-0.37602380 0.03982232 -0.78571429
-0.33872880 0.03982232 -0.85714286
-0.33872880 0.00252732 -0.78571429
-0.33872880 0.03982232 0.85714286
-0.33872880 0.07711732 -0.78571429
-0.33872880 0.11441233 -0.71428571
-0.33872880 0.11441233 0.85714286
-0.33872880 0.18900233 -0.71428571
-0.37602380 0.18900233 0.78571429
-0.33872880 0.18900233 0.85714286
-0.37602380 0.26359234 -0.64285714
-0.33872880 0.26359234 -0.71428571
-0.37602380 0.26359234 0.64285714
-0.33872880 0.26359234 0.71428571
-0.33872880 0.22629734 0.78571429
-0.37602380 0.33818235 -0.64285714
-0.33872880 0.33818235 -0.71428571
-0.37602380 0.33818235 -0.50000000
-0.37602380 0.33818235 0.50000000
-0.37602380 0.33818235 0.64285714
-0.33872880 0.33818235 0.71428571
-0.33872880 0.37547735 -0.64285714
-0.37602380 0.41277236 -0.50000000
-0.33872880 0.41277236 -0.57142857
-0.37602380 0.41277236 -0.35714286
-0.37602380 0.41277236 -0.21428571
-0.37602380 0.41277236 -0.07142857
-0.37602380 0.41277236 0.07142857
-0.33872880 0.41277236 0.14285714
-0.33872880 0.37547735 0.21428571
-0.33872880 0.37547735 0.35714286
-0.33872880 0.37547735 0.50000000
-0.33872880 0.37547735 0.64285714
-0.33872880 0.45006736 -0.50000000
-0.37602380 0.48736236 -0.35714286
-0.33872880 0.48736236 -0.42857143
-0.37602380 0.48736236 -0.21428571
-0.37602380 0.48736236 -0.07142857
-0.33872880 0.48736236 0.00000000
-0.33872880 0.45006736 0.07142857
-0.33872880 0.52465737 -0.35714286
-0.33872880 0.52465737 -0.21428571
-0.33872880 0.52465737 -0.07142857
-0.30143379 -0.48230773 -0.35714286
-0.26413879 -0.48230773 -0.42857143
-0.26413879 -0.51960273 -0.35714286
-0.26413879 -0.51960273 -0.21428571
-0.30143379 -0.48230773 -0.21428571
-0.26413879 -0.51960273 -0.07142857
-0.30143379 -0.48230773 -0.07142857
-0.26413879 -0.51960273 0.07142857
-0.30143379 -0.48230773 0.07142857
-0.26413879 -0.48230773 0.14285714
-0.26413879 -0.40771772 -0.42857143
-0.26413879 -0.44501273 0.21428571
-0.26413879 -0.44501273 0.35714286
-0.26413879 -0.44501273 0.50000000
-0.26413879 -0.44501273 0.64285714
-0.30143379 -0.40771772 0.64285714
-0.26413879 -0.40771772 0.71428571
-0.26413879 -0.33312771 -0.71428571
-0.26413879 -0.37042272 -0.64285714
-0.26413879 -0.37042272 -0.50000000
-0.26413879 -0.33312771 0.71428571
-0.26413879 -0.25853771 -0.71428571
-0.26413879 -0.29583271 0.78571429
-0.30143379 -0.25853771 0.78571429
-0.26413879 -0.25853771 0.85714286
-0.26413879 -0.18394770 -0.71428571
-0.26413879 -0.18394770 0.85714286
-0.26413879 -0.10935769 -0.71428571
-0.26413879 -0.10935769 0.85714286
-0.30143379 -0.03476769 -0.78571429
-0.26413879 -0.03476769 -0.85714286
-0.26413879 -0.07206269 -0.78571429
-0.26413879 -0.03476769 0.85714286
-0.26413879 0.03982232 -0.85714286
-0.26413879 0.03982232 0.85714286
-0.30143379 0.11441233 -0.78571429
-0.26413879 0.11441233 -0.85714286
-0.26413879 0.11441233 0.85714286
-0.30143379 0.18900233 -0.78571429
-0.26413879 0.18900233 -0.85714286
-0.26413879 0.18900233 0.85714286
-0.26413879 0.22629734 -0.78571429
-0.26413879 0.26359234 -0.71428571
-0.30143379 0.26359234 0.78571429
-0.26413879 0.26359234 0.85714286
-0.26413879 0.33818235 -0.71428571
-0.26413879 0.30088735 0.78571429
-0.26413879 0.33818235 0.71428571
-0.26413879 0.37547735 -0.64285714
-0.26413879 0.41277236 -0.57142857
-0.26413879 0.37547735 0.21428571
-0.26413879 0.41277236 0.14285714
-0.26413879 0.37547735 0.35714286
-0.26413879 0.37547735 0.50000000
-0.26413879 0.37547735 0.64285714
-0.26413879 0.45006736 -0.50000000
-0.26413879 0.48736236 -0.42857143
-0.30143379 0.48736236 0.07142857
-0.26413879 0.48736236 0.14285714
-0.26413879 0.52465737 -0.35714286
-0.26413879 0.52465737 -0.21428571
-0.26413879 0.52465737 -0.07142857
-0.26413879 0.52465737 0.07142857
-0.18954878 -0.48230773 -0.42857143
-0.18954878 -0.51960273 -0.35714286
-0.18954878 -0.51960273 -0.21428571
-0.18954878 -0.51960273 -0.07142857
-0.18954878 -0.51960273 0.07142857
-0.18954878 -0.51960273 0.21428571
-0.22684379 -0.48230773 0.21428571
-0.18954878 -0.51960273 0.35714286
-0.22684379 -0.48230773 0.35714286
-0.18954878 -0.51960273 0.50000000
-0.22684379 -0.48230773 0.50000000
-0.18954878 -0.48230773 0.57142857
-0.22684379 -0.40771772 -0.64285714
-0.18954878 -0.40771772 -0.71428571
-0.18954878 -0.44501273 -0.64285714
-0.18954878 -0.44501273 -0.50000000
-0.22684379 -0.40771772 -0.50000000
-0.18954878 -0.44501273 0.64285714
-0.18954878 -0.40771772 0.71428571
-0.18954878 -0.33312771 -0.71428571
-0.18954878 -0.33312771 0.71428571
-0.18954878 -0.25853771 -0.71428571
-0.18954878 -0.29583271 0.78571429
-0.18954878 -0.25853771 0.85714286
-0.18954878 -0.18394770 -0.71428571
-0.18954878 -0.22124270 0.92857143
-0.22684379 -0.18394770 0.92857143
-0.18954878 -0.18394770 1.00000000
-0.22684379 -0.10935769 -0.78571429
-0.18954878 -0.10935769 -0.85714286
-0.18954878 -0.14665270 -0.78571429
-0.22684379 -0.10935769 0.92857143
-0.18954878 -0.10935769 1.00000000
-0.22684379 -0.03476769 -0.92857143
-0.18954878 -0.03476769 -1.00000000
-0.18954878 -0.07206269 -0.92857143
-0.22684379 -0.03476769 0.92857143
-0.18954878 -0.03476769 1.00000000
-0.22684379 0.03982232 -0.92857143
-0.18954878 0.03982232 -1.00000000
-0.22684379 0.03982232 0.92857143
-0.18954878 0.03982232 1.00000000
-0.22684379 0.11441233 -0.92857143
-0.18954878 0.11441233 -1.00000000
-0.22684379 0.11441233 0.92857143
-0.18954878 0.11441233 1.00000000
-0.18954878 0.15170733 -0.92857143
-0.18954878 0.18900233 -0.85714286
-0.18954878 0.15170733 0.92857143
-0.18954878 0.18900233 0.85714286
-0.22684379 0.26359234 -0.78571429
-0.18954878 0.26359234 -0.85714286
-0.18954878 0.26359234 0.85714286
-0.18954878 0.30088735 -0.78571429
-0.18954878 0.33818235 -0.71428571
-0.18954878 0.30088735 0.78571429
-0.18954878 0.33818235 0.71428571
-0.18954878 0.37547735 -0.64285714
-0.18954878 0.41277236 -0.57142857
-0.18954878 0.37547735 0.21428571
-0.18954878 0.41277236 0.14285714
-0.18954878 0.37547735 0.35714286
-0.18954878 0.37547735 0.50000000
-0.18954878 0.37547735 0.64285714
-0.18954878 0.45006736 -0.50000000
-0.18954878 0.48736236 -0.42857143
-0.18954878 0.48736236 0.14285714
-0.18954878 0.52465737 -0.35714286
-0.18954878 0.52465737 -0.21428571
-0.18954878 0.52465737 -0.07142857
-0.18954878 0.52465737 0.07142857
-0.15225378 -0.55689774 -0.21428571
-0.11495877 -0.55689774 -0.28571429
-0.11495877 -0.59419274 -0.21428571
-0.11495877 -0.59419274 -0.07142857
-0.15225378 -0.55689774 -0.07142857
-0.11495877 -0.59419274 0.07142857
-0.15225378 -0.55689774 0.07142857
-0.11495877 -0.55689774 0.14285714
-0.15225378 -0.48230773 -0.50000000
-0.11495877 -0.48230773 -0.57142857
-0.11495877 -0.51960273 -0.50000000
-0.11495877 -0.51960273 -0.35714286
-0.11495877 -0.51960273 0.21428571
-0.11495877 -0.51960273 0.35714286
-0.11495877 -0.51960273 0.50000000
-0.11495877 -0.51960273 0.64285714
-0.15225378 -0.48230773 0.64285714
-0.11495877 -0.48230773 0.71428571
-0.11495877 -0.40771772 -0.71428571
-0.11495877 -0.44501273 -0.64285714
-0.11495877 -0.40771772 0.71428571
-0.11495877 -0.33312771 -0.71428571
-0.11495877 -0.37042272 0.78571429
-0.15225378 -0.33312771 0.78571429
-0.11495877 -0.33312771 0.85714286
-0.11495877 -0.25853771 -0.71428571
-0.11495877 -0.25853771 0.85714286
-0.15225378 -0.18394770 -0.92857143
-0.11495877 -0.18394770 -1.00000000
-0.11495877 -0.22124270 -0.92857143
-0.11495877 -0.22124270 -0.78571429
-0.15225378 -0.18394770 -0.78571429
-0.11495877 -0.22124270 0.92857143
-0.11495877 -0.18394770 1.00000000
-0.15225378 -0.10935769 -0.92857143
-0.11495877 -0.10935769 -1.00000000
-0.11495877 -0.10935769 1.00000000
-0.11495877 -0.03476769 -1.00000000
-0.11495877 -0.03476769 1.00000000
-0.11495877 0.03982232 -1.00000000
-0.11495877 0.03982232 1.00000000
-0.11495877 0.11441233 -1.00000000
-0.11495877 0.11441233 1.00000000
-0.15225378 0.18900233 -0.92857143
-0.11495877 0.18900233 -1.00000000
-0.15225378 0.18900233 0.92857143
-0.11495877 0.18900233 1.00000000
-0.11495877 0.22629734 -0.92857143
-0.11495877 0.26359234 -0.85714286
-0.11495877 0.22629734 0.92857143
-0.11495877 0.26359234 0.85714286
-0.15225378 0.33818235 -0.78571429
-0.11495877 0.33818235 -0.85714286
-0.11495877 0.30088735 0.78571429
-0.11495877 0.33818235 0.71428571
-0.11495877 0.37547735 -0.78571429
-0.15225378 0.41277236 -0.64285714
-0.11495877 0.41277236 -0.71428571
-0.11495877 0.37547735 0.21428571
-0.11495877 0.41277236 0.14285714
-0.11495877 0.37547735 0.35714286
-0.11495877 0.37547735 0.50000000
-0.11495877 0.37547735 0.64285714
-0.11495877 0.45006736 -0.64285714
-0.11495877 0.45006736 -0.50000000
-0.11495877 0.48736236 -0.42857143
-0.11495877 0.48736236 0.14285714
-0.11495877 0.52465737 -0.35714286
-0.15225378 0.56195237 -0.21428571
-0.11495877 0.56195237 -0.28571429
-0.15225378 0.56195237 -0.07142857
-0.15225378 0.56195237 0.07142857
-0.11495877 0.56195237 0.14285714
-0.11495877 0.59924737 -0.21428571
-0.11495877 0.59924737 -0.07142857
-0.11495877 0.59924737 0.07142857
-0.07766377 -0.63148774 0.07142857
-0.04036877 -0.63148774 0.00000000
-0.04036877 -0.66878275 0.07142857
-0.04036877 -0.63148774 0.14285714
-0.04036877 -0.55689774 -0.28571429
-0.04036877 -0.59419274 -0.21428571
-0.04036877 -0.59419274 -0.07142857
-0.04036877 -0.55689774 0.14285714
-0.07766377 -0.48230773 -0.50000000
-0.07766377 -0.48230773 -0.35714286
-0.04036877 -0.48230773 -0.28571429
-0.04036877 -0.51960273 0.21428571
-0.04036877 -0.51960273 0.35714286
-0.04036877 -0.51960273 0.50000000
-0.04036877 -0.51960273 0.64285714
-0.04036877 -0.48230773 0.71428571
-0.04036877 -0.40771772 -0.71428571
-0.04036877 -0.44501273 -0.64285714
-0.04036877 -0.44501273 -0.50000000
-0.04036877 -0.44501273 -0.35714286
-0.04036877 -0.40771772 0.71428571
-0.04036877 -0.33312771 -0.71428571
-0.04036877 -0.37042272 0.78571429
-0.04036877 -0.33312771 0.85714286
-0.04036877 -0.25853771 -0.71428571
-0.04036877 -0.25853771 0.85714286
-0.04036877 -0.18394770 -1.00000000
-0.04036877 -0.22124270 -0.92857143
-0.04036877 -0.22124270 -0.78571429
-0.04036877 -0.22124270 0.92857143
-0.04036877 -0.18394770 1.00000000
-0.04036877 -0.10935769 -1.00000000
-0.04036877 -0.10935769 1.00000000
-0.04036877 -0.03476769 -1.00000000
-0.04036877 -0.03476769 1.00000000
-0.04036877 0.03982232 -1.00000000
-0.04036877 0.03982232 1.00000000
-0.04036877 0.11441233 -1.00000000
-0.04036877 0.11441233 1.00000000
-0.04036877 0.18900233 -1.00000000
-0.04036877 0.18900233 1.00000000
-0.04036877 0.22629734 -0.92857143
-0.04036877 0.26359234 -0.85714286
-0.04036877 0.22629734 0.92857143
-0.04036877 0.26359234 0.85714286
-0.04036877 0.33818235 -0.85714286
-0.07766377 0.33818235 0.78571429
-0.04036877 0.33818235 0.85714286
-0.04036877 0.37547735 -0.78571429
-0.04036877 0.41277236 -0.71428571
-0.04036877 0.37547735 0.21428571
-0.04036877 0.41277236 0.14285714
-0.04036877 0.37547735 0.35714286
-0.04036877 0.37547735 0.50000000
-0.04036877 0.37547735 0.64285714
-0.04036877 0.37547735 0.78571429
-0.04036877 0.45006736 -0.64285714
-0.04036877 0.45006736 -0.50000000
-0.04036877 0.48736236 -0.42857143
-0.04036877 0.48736236 0.14285714
-0.04036877 0.52465737 -0.35714286
-0.04036877 0.56195237 -0.28571429
-0.04036877 0.56195237 0.14285714
-0.04036877 0.59924737 -0.21428571
-0.04036877 0.59924737 -0.07142857
-0.04036877 0.59924737 0.07142857
-0.00307376 -0.63148774 -0.07142857
0.03422124 -0.63148774 -0.14285714
0.03422124 -0.66878275 -0.07142857
0.03422124 -0.66878275 0.07142857
0.03422124 -0.63148774 0.14285714
0.03422124 -0.55689774 -0.28571429
0.03422124 -0.59419274 -0.21428571
0.03422124 -0.55689774 0.14285714
0.03422124 -0.48230773 -0.28571429
0.03422124 -0.51960273 0.21428571
0.03422124 -0.51960273 0.35714286
-0.00307376 -0.48230773 0.50000000
0.03422124 -0.48230773 0.42857143
-0.00307376 -0.48230773 0.64285714
-0.00307376 -0.40771772 -0.64285714
-0.00307376 -0.40771772 -0.50000000
0.03422124 -0.40771772 -0.42857143
0.03422124 -0.44501273 -0.35714286
0.03422124 -0.44501273 0.50000000
0.03422124 -0.44501273 0.64285714
0.03422124 -0.40771772 0.71428571
-0.00307376 -0.33312771 -0.78571429
0.03422124 -0.33312771 -0.85714286
0.03422124 -0.37042272 -0.78571429
0.03422124 -0.37042272 -0.64285714
0.03422124 -0.37042272 -0.50000000
0.03422124 -0.37042272 0.78571429
0.03422124 -0.33312771 0.85714286
-0.00307376 -0.25853771 -0.78571429
0.03422124 -0.25853771 -0.85714286
0.03422124 -0.25853771 0.85714286
0.03422124 -0.18394770 -1.00000000
0.03422124 -0.22124270 -0.92857143
0.03422124 -0.22124270 0.92857143
0.03422124 -0.18394770 1.00000000
0.03422124 -0.10935769 -1.00000000
0.03422124 -0.10935769 1.00000000
0.03422124 -0.03476769 -1.00000000
0.03422124 -0.03476769 1.00000000
0.03422124 0.03982232 -1.00000000
0.03422124 0.03982232 1.00000000
0.03422124 0.11441233 -1.00000000
0.03422124 0.11441233 1.00000000
0.03422124 0.18900233 -1.00000000
0.03422124 0.18900233 1.00000000
0.03422124 0.22629734 -0.92857143
0.03422124 0.26359234 -0.85714286
0.03422124 0.22629734 0.92857143
0.03422124 0.26359234 0.85714286
0.03422124 0.33818235 -0.85714286
0.03422124 0.33818235 0.85714286
0.03422124 0.37547735 -0.78571429
0.03422124 0.41277236 -0.71428571
0.03422124 0.37547735 0.21428571
0.03422124 0.41277236 0.14285714
0.03422124 0.37547735 0.35714286
0.03422124 0.37547735 0.50000000
0.03422124 0.37547735 0.64285714
0.03422124 0.37547735 0.78571429
0.03422124 0.45006736 -0.64285714
-0.00307376 0.48736236 -0.50000000
0.03422124 0.48736236 -0.57142857
0.03422124 0.48736236 0.14285714
0.03422124 0.52465737 -0.50000000
0.03422124 0.52465737 -0.35714286
0.03422124 0.56195237 -0.28571429
0.03422124 0.56195237 0.14285714
0.03422124 0.59924737 -0.21428571
0.03422124 0.59924737 -0.07142857
0.03422124 0.59924737 0.07142857
0.07151624 -0.63148774 -0.07142857
0.07151624 -0.63148774 0.07142857
0.10881125 -0.55689774 -0.28571429
0.10881125 -0.59419274 -0.21428571
0.10881125 -0.59419274 -0.07142857
0.10881125 -0.59419274 0.07142857
0.10881125 -0.55689774 0.14285714
0.10881125 -0.48230773 -0.28571429
0.10881125 -0.51960273 0.21428571
0.07151624 -0.48230773 0.35714286
0.10881125 -0.48230773 0.28571429
0.10881125 -0.40771772 -0.42857143
0.10881125 -0.44501273 -0.35714286
0.07151624 -0.40771772 0.35714286
0.10881125 -0.40771772 0.28571429
0.07151624 -0.40771772 0.50000000
0.07151624 -0.40771772 0.64285714
0.07151624 -0.33312771 -0.78571429
0.10881125 -0.33312771 -0.71428571
0.10881125 -0.37042272 -0.64285714
0.10881125 -0.37042272 -0.50000000
0.10881125 -0.37042272 0.35714286
0.10881125 -0.37042272 0.50000000
0.10881125 -0.37042272 0.64285714
0.07151624 -0.33312771 0.78571429
0.10881125 -0.33312771 0.71428571
0.10881125 -0.25853771 -0.85714286
0.10881125 -0.29583271 -0.78571429
0.10881125 -0.29583271 0.78571429
0.10881125 -0.25853771 0.85714286
0.10881125 -0.18394770 -1.00000000
0.10881125 -0.22124270 -0.92857143
0.10881125 -0.22124270 0.92857143
0.10881125 -0.18394770 1.00000000
0.10881125 -0.10935769 -1.00000000
0.10881125 -0.10935769 1.00000000
0.10881125 -0.03476769 -1.00000000
0.10881125 -0.03476769 1.00000000
0.10881125 0.03982232 -1.00000000
0.10881125 0.03982232 1.00000000
0.10881125 0.11441233 -1.00000000
0.10881125 0.11441233 1.00000000
0.10881125 0.18900233 -1.00000000
0.10881125 0.18900233 1.00000000
0.10881125 0.22629734 -0.92857143
0.10881125 0.26359234 -0.85714286
0.10881125 0.22629734 0.92857143
0.10881125 0.26359234 0.85714286
0.10881125 0.30088735 -0.78571429
0.07151624 0.33818235 -0.78571429
0.10881125 0.33818235 -0.71428571
0.07151624 0.33818235 0.78571429
0.10881125 0.30088735 0.78571429
0.10881125 0.33818235 0.71428571
0.10881125 0.41277236 -0.71428571
0.07151624 0.41277236 0.21428571
0.07151624 0.41277236 0.35714286
0.07151624 0.41277236 0.50000000
0.07151624 0.41277236 0.64285714
0.10881125 0.41277236 0.71428571
0.10881125 0.45006736 -0.64285714
0.10881125 0.48736236 -0.57142857
0.07151624 0.48736236 0.21428571
0.07151624 0.48736236 0.35714286
0.07151624 0.48736236 0.50000000
0.10881125 0.48736236 0.57142857
0.10881125 0.45006736 0.64285714
0.10881125 0.52465737 -0.50000000
0.10881125 0.52465737 -0.35714286
0.10881125 0.56195237 -0.28571429
0.07151624 0.56195237 0.07142857
0.10881125 0.52465737 0.07142857
0.10881125 0.56195237 0.00000000
0.10881125 0.52465737 0.21428571
0.10881125 0.52465737 0.35714286
0.10881125 0.52465737 0.50000000
0.10881125 0.59924737 -0.21428571
0.10881125 0.59924737 -0.07142857
0.18340125 -0.55689774 -0.28571429
0.18340125 -0.59419274 -0.21428571
0.18340125 -0.59419274 -0.07142857
0.18340125 -0.59419274 0.07142857
0.18340125 -0.55689774 0.14285714
0.14610625 -0.48230773 -0.35714286
0.18340125 -0.48230773 -0.42857143
0.18340125 -0.51960273 -0.35714286
0.14610625 -0.48230773 0.21428571
0.18340125 -0.48230773 0.14285714
0.18340125 -0.40771772 -0.42857143
0.14610625 -0.40771772 0.21428571
0.18340125 -0.40771772 0.14285714
0.18340125 -0.33312771 -0.71428571
0.18340125 -0.37042272 -0.64285714
0.18340125 -0.37042272 -0.50000000
0.18340125 -0.37042272 0.21428571
0.18340125 -0.37042272 0.35714286
0.18340125 -0.37042272 0.50000000
0.18340125 -0.37042272 0.64285714
0.18340125 -0.33312771 0.71428571
0.18340125 -0.25853771 -0.85714286
0.18340125 -0.29583271 -0.78571429
0.18340125 -0.29583271 0.78571429
0.18340125 -0.25853771 0.85714286
0.14610625 -0.18394770 -0.92857143
0.18340125 -0.18394770 -0.85714286
0.14610625 -0.18394770 0.92857143
0.18340125 -0.18394770 0.85714286
0.18340125 -0.10935769 -1.00000000
0.18340125 -0.14665270 -0.92857143
0.14610625 -0.10935769 0.92857143
0.18340125 -0.10935769 0.85714286
0.18340125 -0.03476769 -1.00000000
0.14610625 -0.03476769 0.92857143
0.18340125 -0.03476769 0.85714286
0.18340125 0.03982232 -1.00000000
0.18340125 0.00252732 0.92857143
0.18340125 0.03982232 1.00000000
0.18340125 0.11441233 -1.00000000
0.18340125 0.11441233 1.00000000
0.18340125 0.18900233 -1.00000000
0.18340125 0.18900233 1.00000000
0.18340125 0.22629734 -0.92857143
0.18340125 0.26359234 -0.85714286
0.18340125 0.22629734 0.92857143
0.18340125 0.26359234 0.85714286
0.18340125 0.30088735 -0.78571429
0.18340125 0.33818235 -0.71428571
0.18340125 0.30088735 0.78571429
0.18340125 0.33818235 0.71428571
0.18340125 0.41277236 -0.71428571
0.18340125 0.41277236 0.71428571
0.18340125 0.45006736 -0.64285714
0.18340125 0.48736236 -0.57142857
0.14610625 0.48736236 0.50000000
0.18340125 0.45006736 0.50000000
0.18340125 0.48736236 0.42857143
0.18340125 0.45006736 0.64285714
0.18340125 0.52465737 -0.50000000
0.18340125 0.52465737 -0.35714286
0.14610625 0.56195237 -0.21428571
0.18340125 0.52465737 -0.21428571
0.18340125 0.56195237 -0.14285714
0.18340125 0.52465737 0.07142857
0.18340125 0.56195237 0.00000000
0.18340125 0.52465737 0.21428571
0.18340125 0.52465737 0.35714286
0.18340125 0.59924737 -0.07142857
0.22069626 -0.55689774 -0.21428571
0.22069626 -0.55689774 -0.07142857
0.22069626 -0.55689774 0.07142857
0.25799126 -0.48230773 -0.42857143
0.25799126 -0.51960273 -0.35714286
0.25799126 -0.51960273 -0.21428571
0.25799126 -0.51960273 -0.07142857
0.25799126 -0.51960273 0.07142857
0.25799126 -0.48230773 0.14285714
0.25799126 -0.40771772 -0.42857143
0.25799126 -0.40771772 0.14285714
0.25799126 -0.33312771 -0.71428571
0.25799126 -0.37042272 -0.64285714
0.25799126 -0.37042272 -0.50000000
0.25799126 -0.37042272 0.21428571
0.25799126 -0.37042272 0.35714286
0.25799126 -0.37042272 0.50000000
0.25799126 -0.37042272 0.64285714
0.25799126 -0.33312771 0.71428571
0.25799126 -0.25853771 -0.85714286
0.25799126 -0.29583271 -0.78571429
0.22069626 -0.25853771 0.78571429
0.25799126 -0.25853771 0.71428571
0.25799126 -0.18394770 -0.85714286
0.25799126 -0.22124270 0.78571429
0.25799126 -0.18394770 0.85714286
0.22069626 -0.10935769 -0.92857143
0.25799126 -0.10935769 -0.85714286
0.25799126 -0.10935769 0.85714286
0.25799126 -0.03476769 -1.00000000
0.25799126 -0.07206269 -0.92857143
0.25799126 -0.03476769 0.85714286
0.25799126 0.03982232 -1.00000000
0.22069626 0.03982232 0.92857143
0.25799126 0.03982232 0.85714286
0.25799126 0.07711732 -0.92857143
0.22069626 0.11441233 -0.92857143
0.25799126 0.11441233 -0.85714286
0.22069626 0.11441233 0.92857143
0.25799126 0.11441233 0.85714286
0.22069626 0.18900233 -0.92857143
0.25799126 0.18900233 -0.85714286
0.22069626 0.18900233 0.92857143
0.25799126 0.18900233 0.85714286
0.25799126 0.26359234 -0.85714286
0.25799126 0.26359234 0.85714286
0.25799126 0.30088735 -0.78571429
0.25799126 0.33818235 -0.71428571
0.25799126 0.30088735 0.78571429
0.25799126 0.33818235 0.71428571
0.25799126 0.37547735 -0.64285714
0.22069626 0.41277236 -0.64285714
0.25799126 0.41277236 -0.57142857
0.25799126 0.41277236 0.71428571
0.22069626 0.48736236 -0.50000000
0.25799126 0.45006736 -0.50000000
0.25799126 0.48736236 -0.42857143
0.22069626 0.48736236 0.35714286
0.25799126 0.45006736 0.35714286
0.25799126 0.48736236 0.28571429
0.25799126 0.45006736 0.50000000
0.25799126 0.45006736 0.64285714
0.25799126 0.52465737 -0.35714286
0.25799126 0.52465737 -0.21428571
0.22069626 0.56195237 -0.07142857
0.25799126 0.52465737 -0.07142857
0.25799126 0.52465737 0.07142857
0.25799126 0.52465737 0.21428571
0.29528626 -0.48230773 -0.35714286
0.33258127 -0.48230773 -0.28571429
0.33258127 -0.51960273 -0.21428571
0.33258127 -0.51960273 -0.07142857
0.33258127 -0.51960273 0.07142857
0.33258127 -0.48230773 0.14285714
0.33258127 -0.40771772 -0.42857143
0.33258127 -0.44501273 -0.35714286
0.33258127 -0.40771772 0.14285714
0.33258127 -0.33312771 -0.71428571
0.33258127 -0.37042272 -0.64285714
0.33258127 -0.37042272 -0.50000000
0.29528626 -0.33312771 0.21428571
0.33258127 -0.33312771 0.14285714
0.29528626 -0.33312771 0.35714286
0.29528626 -0.33312771 0.50000000
0.29528626 -0.33312771 0.64285714
0.29528626 -0.25853771 -0.78571429
0.33258127 -0.25853771 -0.71428571
0.33258127 -0.29583271 0.21428571
0.33258127 -0.29583271 0.35714286
0.33258127 -0.29583271 0.50000000
0.33258127 -0.29583271 0.64285714
0.33258127 -0.25853771 0.71428571
0.33258127 -0.18394770 -0.85714286
0.33258127 -0.22124270 -0.78571429
0.29528626 -0.18394770 0.78571429
0.33258127 -0.18394770 0.71428571
0.33258127 -0.10935769 -0.85714286
0.33258127 -0.14665270 0.78571429
0.33258127 -0.10935769 0.85714286
0.29528626 -0.03476769 -0.92857143
0.33258127 -0.03476769 -0.85714286
0.33258127 -0.03476769 0.85714286
0.29528626 0.03982232 -0.92857143
0.33258127 0.03982232 -0.85714286
0.33258127 0.03982232 0.85714286
0.33258127 0.11441233 -0.85714286
0.33258127 0.11441233 0.85714286
0.33258127 0.15170733 -0.78571429
0.29528626 0.18900233 -0.78571429
0.33258127 0.18900233 -0.71428571
0.29528626 0.18900233 0.78571429
0.33258127 0.15170733 0.78571429
0.33258127 0.18900233 0.71428571
0.29528626 0.26359234 -0.78571429
0.33258127 0.26359234 -0.71428571
0.29528626 0.26359234 0.78571429
0.33258127 0.26359234 0.71428571
0.33258127 0.33818235 -0.71428571
0.33258127 0.33818235 0.71428571
0.33258127 0.37547735 -0.64285714
0.33258127 0.41277236 -0.57142857
0.29528626 0.41277236 0.64285714
0.33258127 0.37547735 0.64285714
0.33258127 0.41277236 0.57142857
0.33258127 0.45006736 -0.50000000
0.29528626 0.48736236 -0.35714286
0.33258127 0.45006736 -0.35714286
0.33258127 0.48736236 -0.28571429
0.29528626 0.48736236 0.07142857
0.33258127 0.45006736 0.07142857
0.33258127 0.48736236 0.00000000
0.29528626 0.48736236 0.21428571
0.33258127 0.45006736 0.21428571
0.33258127 0.45006736 0.35714286
0.33258127 0.45006736 0.50000000
0.33258127 0.52465737 -0.21428571
0.33258127 0.52465737 -0.07142857
0.36987627 -0.48230773 -0.21428571
0.36987627 -0.48230773 -0.07142857
0.36987627 -0.48230773 0.07142857
0.36987627 -0.40771772 -0.35714286
0.36987627 -0.40771772 -0.21428571
0.36987627 -0.40771772 -0.07142857
0.36987627 -0.40771772 0.07142857
0.36987627 -0.33312771 -0.64285714
0.36987627 -0.33312771 -0.50000000
0.36987627 -0.33312771 -0.35714286
0.40717128 -0.33312771 -0.28571429
0.40717128 -0.37042272 -0.21428571
0.40717128 -0.37042272 -0.07142857
0.40717128 -0.37042272 0.07142857
0.40717128 -0.33312771 0.14285714
0.36987627 -0.25853771 -0.64285714
0.36987627 -0.25853771 -0.50000000
0.36987627 -0.25853771 -0.35714286
0.40717128 -0.25853771 -0.28571429
0.36987627 -0.25853771 0.21428571
0.40717128 -0.25853771 0.14285714
0.36987627 -0.25853771 0.35714286
0.36987627 -0.25853771 0.50000000
0.36987627 -0.25853771 0.64285714
0.36987627 -0.18394770 -0.78571429
0.40717128 -0.18394770 -0.71428571
0.40717128 -0.22124270 -0.64285714
0.40717128 -0.22124270 -0.50000000
0.40717128 -0.22124270 -0.35714286
0.36987627 -0.18394770 0.21428571
0.40717128 -0.18394770 0.14285714
0.36987627 -0.18394770 0.35714286
0.36987627 -0.18394770 0.50000000
0.36987627 -0.18394770 0.64285714
0.36987627 -0.10935769 -0.78571429
0.40717128 -0.10935769 -0.71428571
0.40717128 -0.14665270 0.21428571
0.40717128 -0.14665270 0.35714286
0.40717128 -0.14665270 0.50000000
0.40717128 -0.14665270 0.64285714
0.36987627 -0.10935769 0.78571429
0.40717128 -0.10935769 0.71428571
0.40717128 -0.03476769 -0.85714286
0.40717128 -0.07206269 -0.78571429
0.36987627 -0.03476769 0.78571429
0.40717128 -0.03476769 0.71428571
0.40717128 0.03982232 -0.85714286
0.36987627 0.03982232 0.78571429
0.40717128 0.03982232 0.71428571
0.40717128 0.07711732 -0.78571429
0.36987627 0.11441233 -0.78571429
0.40717128 0.11441233 -0.71428571
0.36987627 0.11441233 0.78571429
0.40717128 0.11441233 0.71428571
0.40717128 0.18900233 -0.71428571
0.40717128 0.18900233 0.71428571
0.40717128 0.22629734 -0.64285714
0.36987627 0.26359234 -0.64285714
0.40717128 0.26359234 -0.57142857
0.36987627 0.26359234 0.64285714
0.40717128 0.22629734 0.64285714
0.40717128 0.26359234 0.57142857
0.36987627 0.33818235 -0.64285714
0.40717128 0.33818235 -0.57142857
0.36987627 0.33818235 0.50000000
0.40717128 0.30088735 0.50000000
0.40717128 0.33818235 0.42857143
0.36987627 0.33818235 0.64285714
0.36987627 0.41277236 -0.50000000
0.40717128 0.37547735 -0.50000000
0.36987627 0.41277236 -0.35714286
0.40717128 0.37547735 -0.35714286
0.36987627 0.41277236 -0.21428571
0.40717128 0.37547735 -0.21428571
0.36987627 0.41277236 -0.07142857
0.40717128 0.37547735 -0.07142857
0.36987627 0.41277236 0.07142857
0.40717128 0.37547735 0.07142857
0.36987627 0.41277236 0.21428571
0.40717128 0.37547735 0.21428571
0.36987627 0.41277236 0.35714286
0.40717128 0.37547735 0.35714286
0.36987627 0.41277236 0.50000000
0.36987627 0.48736236 -0.21428571
0.36987627 0.48736236 -0.07142857
0.44446628 -0.33312771 -0.21428571
0.44446628 -0.33312771 -0.07142857
0.44446628 -0.33312771 0.07142857
0.44446628 -0.25853771 -0.21428571
0.44446628 -0.25853771 -0.07142857
0.44446628 -0.25853771 0.07142857
0.44446628 -0.18394770 -0.64285714
0.44446628 -0.18394770 -0.50000000
0.48176128 -0.18394770 -0.42857143
0.48176128 -0.22124270 -0.35714286
0.48176128 -0.22124270 -0.21428571
0.48176128 -0.18394770 -0.14285714
0.44446628 -0.18394770 -0.07142857
0.44446628 -0.18394770 0.07142857
0.48176128 -0.10935769 -0.71428571
0.48176128 -0.14665270 -0.64285714
0.48176128 -0.14665270 -0.50000000
0.48176128 -0.14665270 -0.07142857
0.48176128 -0.14665270 0.07142857
0.48176128 -0.14665270 0.21428571
0.48176128 -0.14665270 0.35714286
0.48176128 -0.14665270 0.50000000
0.44446628 -0.10935769 0.64285714
0.48176128 -0.10935769 0.57142857
0.44446628 -0.03476769 -0.78571429
0.48176128 -0.03476769 -0.71428571
0.48176128 -0.07206269 0.64285714
0.48176128 -0.03476769 0.71428571
0.44446628 0.03982232 -0.78571429
0.48176128 0.03982232 -0.71428571
0.48176128 0.03982232 0.71428571
0.48176128 0.11441233 -0.71428571
0.48176128 0.11441233 0.71428571
0.48176128 0.15170733 -0.64285714
0.44446628 0.18900233 -0.64285714
0.44446628 0.18900233 -0.50000000
0.48176128 0.15170733 -0.50000000
0.48176128 0.18900233 -0.42857143
0.44446628 0.18900233 0.64285714
0.48176128 0.15170733 0.64285714
0.48176128 0.18900233 0.57142857
0.44446628 0.26359234 -0.50000000
0.48176128 0.26359234 -0.42857143
0.44446628 0.26359234 0.07142857
0.48176128 0.22629734 0.07142857
0.48176128 0.26359234 0.00000000
0.44446628 0.26359234 0.21428571
0.48176128 0.22629734 0.21428571
0.44446628 0.26359234 0.35714286
0.48176128 0.22629734 0.35714286
0.44446628 0.26359234 0.50000000
0.48176128 0.22629734 0.50000000
0.44446628 0.33818235 -0.50000000
0.48176128 0.30088735 -0.35714286
0.44446628 0.33818235 -0.35714286
0.44446628 0.33818235 -0.21428571
0.48176128 0.30088735 -0.21428571
0.44446628 0.33818235 -0.07142857
0.48176128 0.30088735 -0.07142857
0.44446628 0.33818235 0.07142857
0.44446628 0.33818235 0.21428571
0.44446628 0.33818235 0.35714286
0.51905629 -0.18394770 -0.35714286
0.51905629 -0.18394770 -0.21428571
0.51905629 -0.10935769 -0.64285714
0.51905629 -0.10935769 -0.50000000
0.51905629 -0.10935769 -0.35714286
0.51905629 -0.10935769 -0.21428571
0.51905629 -0.10935769 -0.07142857
0.51905629 -0.10935769 0.07142857
0.51905629 -0.10935769 0.21428571
0.51905629 -0.10935769 0.35714286
0.51905629 -0.10935769 0.50000000
0.51905629 -0.03476769 -0.64285714
0.51905629 -0.03476769 -0.50000000
0.51905629 -0.03476769 -0.35714286
0.55635129 -0.03476769 -0.28571429
0.55635129 -0.07206269 -0.21428571
0.55635129 -0.03476769 -0.14285714
0.51905629 -0.03476769 -0.07142857
0.51905629 -0.03476769 0.07142857
0.51905629 -0.03476769 0.21428571
0.51905629 -0.03476769 0.35714286
0.51905629 -0.03476769 0.50000000
0.51905629 -0.03476769 0.64285714
0.51905629 0.03982232 -0.64285714
0.51905629 0.03982232 -0.50000000
0.55635129 0.03982232 -0.42857143
0.55635129 0.00252732 -0.35714286
0.51905629 0.03982232 -0.07142857
0.55635129 0.03982232 -0.14285714
0.51905629 0.03982232 0.07142857
0.51905629 0.03982232 0.21428571
0.51905629 0.03982232 0.35714286
0.51905629 0.03982232 0.50000000
0.51905629 0.03982232 0.64285714
0.51905629 0.11441233 -0.64285714
0.51905629 0.11441233 -0.50000000
0.55635129 0.07711732 -0.35714286
0.51905629 0.11441233 -0.35714286
0.51905629 0.11441233 -0.21428571
0.55635129 0.07711732 -0.21428571
0.51905629 0.11441233 -0.07142857
0.51905629 0.11441233 0.07142857
0.51905629 0.11441233 0.21428571
0.51905629 0.11441233 0.35714286
0.51905629 0.11441233 0.50000000
0.51905629 0.11441233 0.64285714
0.51905629 0.18900233 -0.35714286
0.51905629 0.18900233 -0.21428571
0.51905629 0.18900233 -0.07142857
0.51905629 0.18900233 0.07142857
0.51905629 0.18900233 0.21428571
0.51905629 0.18900233 0.35714286
0.51905629 0.18900233 0.50000000
0.51905629 0.26359234 -0.35714286
0.51905629 0.26359234 -0.21428571
0.51905629 0.26359234 -0.07142857
0.59364629 -0.03476769 -0.21428571
0.59364629 0.03982232 -0.35714286
0.59364629 0.03982232 -0.21428571
3 2 1 0
3 4 3 0
3 0 3 2
3 4 5 3
3 1 6 0
3 0 6 4
3 4 6 7
3 4 7 5
3 10 9 8
3 8 11 10
3 8 9 12
3 12 9 13
3 11 8 14
3 8 15 14
3 8 12 15
3 17 16 15
3 15 16 14
3 19 18 17
3 17 18 16
3 21 20 19
3 19 20 18
3 23 22 21
3 21 22 20
3 23 24 22
3 27 26 25
3 29 28 25
3 25 28 27
3 28 29 13
3 29 12 13
3 29 30 12
3 12 31 15
3 12 30 31
3 15 32 17
3 15 31 32
3 17 33 19
3 17 32 33
3 19 34 21
3 19 33 34
3 21 35 23
3 21 34 35
3 24 23 36
3 23 37 36
3 23 35 37
3 37 38 36
3 26 39 25
3 25 39 29
3 29 39 40
3 42 41 40
3 41 29 40
3 41 30 29
3 30 43 31
3 30 41 43
3 43 1 2
3 32 43 2
3 31 43 32
3 32 2 3
3 32 3 33
3 33 3 5
3 44 33 5
3 34 33 44
3 34 45 35
3 34 44 45
3 35 46 37
3 35 45 46
3 38 37 47
3 47 37 46
3 41 42 48
3 48 42 49
3 41 50 43
3 41 48 50
3 51 6 1
3 43 51 1
3 50 51 43
3 52 7 6
3 52 6 51
3 44 5 7
3 52 44 7
3 53 44 52
3 44 54 45
3 44 53 54
3 45 55 46
3 45 54 55
3 47 46 56
3 56 46 55
3 48 49 57
3 57 49 58
3 48 59 50
3 48 57 59
3 50 60 51
3 50 59 60
3 51 61 52
3 51 60 61
3 52 62 53
3 52 61 62
3 53 63 54
3 53 62 63
3 54 64 55
3 54 63 64
3 56 55 65
3 65 55 64
3 57 58 66
3 66 58 67
3 57 68 59
3 57 66 68
3 59 69 60
3 59 68 69
3 60 70 61
3 60 69 70
3 61 71 62
3 61 70 71
3 73 63 72
3 63 71 72
3 63 62 71
3 63 73 64
3 64 73 74
3 64 74 65
3 67 75 66
3 77 76 75
3 76 66 75
3 76 68 66
3 68 78 69
3 68 76 78
3 80 70 79
3 70 78 79
3 70 69 78
3 70 80 71
3 71 80 81
3 71 81 72
3 76 77 82
3 82 77 83
3 76 84 78
3 76 82 84
3 79 78 85
3 85 78 84
3 83 86 82
3 82 86 84
3 84 86 87
3 84 87 85
3 90 89 88
3 92 91 88
3 88 91 90
3 94 93 92
3 92 93 91
3 96 95 94
3 94 95 93
3 96 97 95
3 100 99 98
3 100 98 89
3 89 98 88
3 98 9 88
3 9 10 88
3 88 10 11
3 101 88 11
3 92 88 101
3 92 102 94
3 92 101 102
3 94 103 96
3 94 102 103
3 97 96 104
3 96 105 104
3 96 103 105
3 107 106 105
3 105 106 104
3 109 108 107
3 107 108 106
3 109 110 108
3 113 112 111
3 115 114 111
3 111 114 113
3 114 115 99
3 115 98 99
3 115 116 98
3 116 13 9
3 116 9 98
3 14 101 11
3 101 14 16
3 101 16 102
3 102 16 18
3 102 18 103
3 103 18 20
3 103 20 105
3 105 20 22
3 105 22 107
3 107 22 24
3 117 107 24
3 109 107 117
3 110 109 118
3 118 109 117
3 111 112 119
3 119 112 120
3 119 26 27
3 115 119 27
3 111 119 115
3 115 27 28
3 115 28 116
3 116 28 13
3 36 117 24
3 36 38 117
3 38 118 117
3 38 121 118
3 119 120 122
3 122 120 123
3 124 39 26
3 119 124 26
3 122 124 119
3 125 40 39
3 125 39 124
3 125 42 40
3 47 127 126
3 121 47 126
3 38 47 121
3 127 128 126
3 122 123 129
3 129 123 130
3 122 131 124
3 122 129 131
3 124 132 125
3 124 131 132
3 132 49 42
3 132 42 125
3 56 133 127
3 56 127 47
3 128 127 134
3 134 127 133
3 129 130 135
3 135 130 136
3 129 137 131
3 129 135 137
3 131 138 132
3 131 137 138
3 138 58 49
3 138 49 132
3 65 139 133
3 65 133 56
3 134 133 140
3 140 133 139
3 135 136 141
3 141 136 142
3 135 143 137
3 135 141 143
3 137 144 138
3 137 143 144
3 144 67 58
3 144 58 138
3 72 145 73
3 146 74 73
3 146 73 145
3 146 147 74
3 74 147 65
3 147 148 65
3 148 139 65
3 139 148 140
3 142 149 141
3 151 150 149
3 150 141 149
3 150 143 141
3 143 152 144
3 143 150 152
3 153 75 67
3 144 153 67
3 152 153 144
3 153 77 75
3 79 154 80
3 155 81 80
3 155 80 154
3 145 72 81
3 155 145 81
3 156 145 155
3 158 146 157
3 146 156 157
3 146 145 156
3 146 158 147
3 151 159 150
3 161 160 159
3 160 150 159
3 160 152 150
3 152 162 153
3 152 160 162
3 162 83 77
3 162 77 153
3 85 163 154
3 85 154 79
3 154 164 155
3 154 163 164
3 166 156 165
3 156 164 165
3 156 155 164
3 156 166 157
3 161 167 160
3 160 167 162
3 162 167 168
3 162 168 83
3 168 86 83
3 168 169 86
3 86 170 87
3 169 170 86
3 85 87 163
3 87 171 163
3 87 170 171
3 163 171 164
3 164 171 172
3 164 172 165
3 175 174 173
3 177 176 173
3 173 176 175
3 179 178 177
3 177 178 176
3 181 180 179
3 179 180 178
3 183 182 181
3 181 182 180
3 185 184 183
3 183 184 182
3 187 186 185
3 185 186 184
3 187 188 186
3 191 190 189
3 193 192 189
3 189 192 191
3 192 193 174
3 193 173 174
3 193 194 173
3 194 89 90
3 177 194 90
3 173 194 177
3 177 90 91
3 177 91 179
3 179 91 93
3 179 93 181
3 181 93 95
3 181 95 183
3 183 95 97
3 195 183 97
3 185 183 195
3 185 196 187
3 185 195 196
3 188 187 197
3 187 198 197
3 187 196 198
3 198 199 197
3 189 190 200
3 200 190 201
3 189 202 193
3 189 200 202
3 202 99 100
3 194 202 100
3 193 202 194
3 194 100 89
3 104 195 97
3 195 104 106
3 195 106 196
3 196 106 108
3 196 108 198
3 108 110 198
3 110 199 198
3 110 203 199
3 200 201 113
3 201 112 113
3 201 204 112
3 200 113 114
3 200 114 202
3 202 114 99
3 118 206 205
3 203 118 205
3 110 118 203
3 206 207 205
3 204 120 112
3 208 120 204
3 121 209 206
3 121 206 118
3 207 206 210
3 210 206 209
3 208 123 120
3 211 123 208
3 126 209 121
3 126 128 209
3 128 210 209
3 128 212 210
3 215 214 213
3 211 215 213
3 130 211 213
3 123 211 130
3 134 212 128
3 134 216 212
3 214 217 213
3 130 213 217
3 218 130 217
3 136 130 218
3 140 216 134
3 140 219 216
3 218 142 136
3 220 142 218
3 147 221 148
3 221 222 148
3 222 140 148
3 222 219 140
3 149 142 223
3 142 224 223
3 142 220 224
3 223 151 149
3 157 225 158
3 225 226 158
3 158 226 147
3 226 227 147
3 227 221 147
3 221 227 222
3 223 224 228
3 228 224 229
3 230 159 151
3 223 230 151
3 228 230 223
3 230 161 159
3 165 231 166
3 225 157 166
3 231 225 166
3 232 225 231
3 226 225 233
3 233 225 232
3 229 234 228
3 236 235 234
3 235 228 234
3 235 230 228
3 237 167 161
3 230 237 161
3 235 237 230
3 238 168 167
3 238 167 237
3 239 169 168
3 239 168 238
3 240 170 169
3 240 169 239
3 170 240 241
3 242 170 241
3 171 170 242
3 171 243 172
3 242 243 171
3 165 172 231
3 172 244 231
3 172 243 244
3 231 244 232
3 232 244 245
3 232 245 233
3 236 246 235
3 248 247 246
3 247 235 246
3 247 237 235
3 237 249 238
3 237 247 249
3 238 250 239
3 238 249 250
3 252 240 251
3 240 250 251
3 240 239 250
3 240 252 241
3 248 253 247
3 247 253 249
3 249 253 254
3 249 254 250
3 250 254 255
3 250 255 251
3 258 257 256
3 260 259 256
3 256 259 258
3 262 261 260
3 260 261 259
3 264 263 262
3 262 263 261
3 264 265 263
3 256 257 175
3 257 174 175
3 257 266 174
3 256 175 176
3 256 176 260
3 260 176 178
3 260 178 262
3 262 178 180
3 262 180 264
3 267 265 264
3 180 267 264
3 182 267 180
3 268 182 184
3 268 267 182
3 269 184 186
3 269 268 184
3 271 270 188
3 270 186 188
3 270 269 186
3 271 272 270
3 274 273 191
3 191 273 190
3 275 191 192
3 275 274 191
3 192 174 266
3 192 266 275
3 197 271 188
3 197 199 271
3 199 272 271
3 199 276 272
3 273 201 190
3 277 201 273
3 203 279 278
3 276 203 278
3 199 203 276
3 279 280 278
3 277 204 201
3 281 204 277
3 205 279 203
3 205 207 279
3 207 280 279
3 207 282 280
3 281 208 204
3 283 208 281
3 210 282 207
3 210 284 282
3 287 286 285
3 283 287 285
3 211 283 285
3 208 283 211
3 212 284 210
3 212 288 284
3 285 286 215
3 286 214 215
3 286 289 214
3 285 215 211
3 216 288 212
3 216 290 288
3 217 214 291
3 214 292 291
3 214 289 292
3 291 218 217
3 219 290 216
3 219 293 290
3 291 292 294
3 294 292 295
3 294 220 218
3 294 218 291
3 222 293 219
3 222 296 293
3 295 297 294
3 220 294 297
3 298 220 297
3 224 220 298
3 226 299 227
3 299 300 227
3 300 222 227
3 300 296 222
3 298 229 224
3 301 229 298
3 303 302 299
3 226 303 299
3 233 303 226
3 299 302 300
3 301 304 229
3 229 304 234
3 236 234 304
3 236 304 305
3 307 306 242
3 307 242 241
3 242 308 243
3 306 308 242
3 243 309 244
3 308 309 243
3 244 310 245
3 309 310 244
3 233 245 303
3 303 245 310
3 305 311 236
3 236 311 246
3 248 246 311
3 248 311 312
3 251 313 252
3 313 314 252
3 314 241 252
3 314 307 241
3 312 315 248
3 248 315 253
3 253 316 254
3 315 316 253
3 254 317 255
3 316 317 254
3 251 255 313
3 255 318 313
3 255 317 318
3 313 318 314
3 320 319 258
3 258 319 257
3 321 258 259
3 321 320 258
3 322 259 261
3 322 321 259
3 323 261 263
3 323 322 261
3 325 324 265
3 324 263 265
3 324 323 263
3 327 326 325
3 325 326 324
3 329 328 327
3 327 328 326
3 329 330 328
3 333 332 331
3 335 334 331
3 331 334 333
3 319 334 335
3 266 319 335
3 257 319 266
3 267 325 265
3 325 267 268
3 325 268 327
3 327 268 269
3 327 269 329
3 336 330 329
3 269 336 329
3 270 336 269
3 270 272 336
3 336 272 337
3 331 332 274
3 332 273 274
3 332 338 273
3 331 274 275
3 331 275 335
3 335 275 266
3 276 337 272
3 276 339 337
3 338 277 273
3 340 277 338
3 341 339 276
3 341 276 278
3 278 280 341
3 341 280 342
3 340 281 277
3 343 281 340
3 282 345 344
3 342 282 344
3 280 282 342
3 345 346 344
3 349 348 347
3 343 349 347
3 283 343 347
3 281 343 283
3 284 350 345
3 284 345 282
3 346 345 351
3 351 345 350
3 354 353 352
3 354 352 348
3 348 352 347
3 352 286 347
3 286 287 347
3 347 287 283
3 288 355 350
3 288 350 284
3 351 350 356
3 356 350 355
3 352 353 357
3 357 353 358
3 357 289 286
3 357 286 352
3 290 359 355
3 290 355 288
3 356 355 360
3 360 355 359
3 357 358 361
3 361 358 362
3 361 292 289
3 361 289 357
3 293 363 359
3 293 359 290
3 360 359 364
3 364 359 363
3 362 365 361
3 292 361 365
3 366 292 365
3 295 292 366
3 368 367 363
3 293 368 363
3 296 368 293
3 363 367 364
3 297 295 369
3 295 370 369
3 295 366 370
3 369 298 297
3 300 368 296
3 300 371 368
3 370 372 369
3 298 369 372
3 373 298 372
3 301 298 373
3 375 374 302
3 375 302 303
3 300 302 371
3 371 302 374
3 373 376 301
3 301 376 304
3 305 304 376
3 305 376 377
3 379 378 306
3 379 306 307
3 306 380 308
3 378 380 306
3 308 381 309
3 380 381 308
3 309 382 310
3 381 382 309
3 303 310 375
3 375 310 382
3 377 383 305
3 305 383 311
3 312 311 383
3 312 383 384
3 314 379 307
3 314 385 379
3 384 386 312
3 312 386 315
3 315 387 316
3 386 387 315
3 316 388 317
3 387 388 316
3 317 389 318
3 388 389 317
3 314 318 385
3 385 318 389
3 392 391 390
3 394 393 390
3 390 393 392
3 396 395 394
3 394 395 393
3 396 397 395
3 400 399 398
3 319 320 398
3 320 400 398
3 320 401 400
3 321 390 391
3 401 321 391
3 320 321 401
3 390 321 322
3 390 322 394
3 394 322 323
3 394 323 396
3 402 397 396
3 323 402 396
3 324 402 323
3 403 324 326
3 403 402 324
3 404 326 328
3 404 403 326
3 406 405 330
3 405 328 330
3 405 404 328
3 406 407 405
3 409 408 333
3 333 408 332
3 334 398 399
3 409 334 399
3 333 334 409
3 398 334 319
3 336 406 330
3 336 337 406
3 337 407 406
3 337 410 407
3 408 338 332
3 411 338 408
3 339 413 412
3 410 339 412
3 337 339 410
3 413 414 412
3 411 340 338
3 415 340 411
3 341 413 339
3 341 342 413
3 342 414 413
3 342 416 414
3 419 418 417
3 421 420 417
3 417 420 419
3 415 420 421
3 343 415 421
3 340 415 343
3 422 416 342
3 422 342 344
3 344 346 422
3 422 346 423
3 417 418 424
3 424 418 425
3 424 348 349
3 421 424 349
3 417 424 421
3 421 349 343
3 351 423 346
3 351 426 423
3 424 425 354
3 425 353 354
3 425 427 353
3 424 354 348
3 356 426 351
3 356 428 426
3 427 358 353
3 429 358 427
3 360 428 356
3 360 430 428
3 429 362 358
3 431 362 429
3 364 430 360
3 364 432 430
3 365 362 433
3 362 434 433
3 362 431 434
3 433 366 365
3 368 435 367
3 435 436 367
3 436 364 367
3 436 432 364
3 434 437 433
3 366 433 437
3 438 366 437
3 370 366 438
3 440 439 435
3 368 440 435
3 371 440 368
3 435 439 436
3 372 370 441
3 370 442 441
3 370 438 442
3 441 373 372
3 444 443 374
3 444 374 375
3 371 374 440
3 440 374 443
3 442 445 441
3 445 447 446
3 445 446 376
3 441 445 376
3 373 441 376
3 446 377 376
3 449 448 378
3 449 378 379
3 378 450 380
3 448 450 378
3 380 451 381
3 450 451 380
3 381 452 382
3 451 452 381
3 375 382 444
3 444 382 452
3 447 453 446
3 446 453 377
3 453 383 377
3 453 454 383
3 384 383 454
3 384 454 455
3 385 449 379
3 385 456 449
3 455 457 384
3 384 457 386
3 457 459 458
3 387 457 458
3 386 457 387
3 460 388 387
3 460 387 458
3 461 389 388
3 461 388 460
3 461 462 389
3 462 385 389
3 462 456 385
3 459 463 458
3 458 463 460
3 460 463 464
3 460 464 461
3 461 464 465
3 461 465 462
3 468 467 466
3 466 469 468
3 471 470 392
3 392 470 391
3 472 392 393
3 472 471 392
3 395 466 467
3 472 395 467
3 393 395 472
3 395 397 466
3 397 469 466
3 397 473 469
3 474 399 400
3 401 475 400
3 400 475 474
3 476 475 401
3 391 476 401
3 470 476 391
3 477 473 397
3 477 397 402
3 478 402 403
3 478 477 402
3 479 403 404
3 479 478 403
3 480 404 405
3 480 479 404
3 405 407 480
3 480 407 481
3 483 482 409
3 409 482 408
3 409 399 474
3 484 409 474
3 483 409 484
3 484 474 475
3 484 475 485
3 485 475 476
3 410 481 407
3 410 486 481
3 482 411 408
3 487 411 482
3 488 486 410
3 488 410 412
3 412 414 488
3 488 414 489
3 487 415 411
3 490 415 487
3 416 489 414
3 416 491 489
3 493 492 419
3 419 492 418
3 494 419 420
3 494 493 419
3 420 415 490
3 420 490 494
3 495 491 416
3 495 416 422
3 422 423 495
3 495 423 496
3 492 425 418
3 497 425 492
3 426 496 423
3 426 498 496
3 497 427 425
3 499 427 497
3 428 498 426
3 428 500 498
3 499 429 427
3 501 429 499
3 430 500 428
3 430 502 500
3 501 431 429
3 503 431 501
3 432 502 430
3 432 504 502
3 503 434 431
3 505 434 503
3 436 504 432
3 436 506 504
3 505 507 434
3 434 507 437
3 438 437 507
3 438 507 508
3 510 509 439
3 510 439 440
3 436 439 506
3 506 439 509
3 508 442 438
3 511 442 508
3 444 512 443
3 512 513 443
3 513 440 443
3 513 510 440
3 511 514 442
3 442 514 445
3 447 445 514
3 447 514 515
3 517 516 448
3 517 448 449
3 448 518 450
3 516 518 448
3 450 519 451
3 518 519 450
3 451 520 452
3 519 520 451
3 444 452 512
3 452 521 512
3 452 520 521
3 512 521 513
3 515 522 447
3 447 522 453
3 453 523 454
3 522 523 453
3 455 454 523
3 455 523 524
3 456 517 449
3 456 525 517
3 524 526 455
3 455 526 457
3 459 457 526
3 459 526 527
3 462 525 456
3 462 528 525
3 527 529 459
3 459 529 463
3 463 530 464
3 529 530 463
3 464 531 465
3 530 531 464
3 462 465 528
3 528 465 531
3 534 533 532
3 467 468 532
3 468 534 532
3 468 535 534
3 468 469 535
3 535 469 536
3 538 537 471
3 471 537 470
3 472 532 533
3 538 472 533
3 471 472 538
3 532 472 467
3 473 536 469
3 473 539 536
3 537 476 470
3 540 476 537
3 541 539 473
3 541 473 477
3 542 477 478
3 542 541 477
3 544 542 543
3 542 479 543
3 542 478 479
3 480 545 479
3 479 545 543
3 481 545 480
3 546 482 483
3 484 547 483
3 483 547 546
3 547 484 548
3 484 549 548
3 484 485 549
3 485 476 540
3 485 540 549
3 550 544 543
3 550 543 545
3 550 545 551
3 545 481 551
3 481 552 551
3 481 486 552
3 555 554 553
3 556 555 546
3 555 487 546
3 487 482 546
3 555 553 487
3 556 546 547
3 556 547 557
3 557 547 548
3 558 552 486
3 558 486 488
3 488 489 558
3 558 489 559
3 553 554 560
3 560 554 561
3 560 490 487
3 560 487 553
3 491 559 489
3 491 562 559
3 564 563 493
3 493 563 492
3 494 560 561
3 564 494 561
3 493 494 564
3 560 494 490
3 565 562 491
3 565 491 495
3 495 496 565
3 565 496 566
3 563 497 492
3 567 497 563
3 498 566 496
3 498 568 566
3 567 499 497
3 569 499 567
3 500 568 498
3 500 570 568
3 569 501 499
3 571 501 569
3 502 570 500
3 502 572 570
3 571 503 501
3 573 503 571
3 504 572 502
3 504 574 572
3 573 505 503
3 575 505 573
3 506 574 504
3 506 576 574
3 575 577 505
3 505 577 507
3 508 507 577
3 508 577 578
3 580 579 509
3 580 509 510
3 506 509 576
3 576 509 579
3 578 511 508
3 581 511 578
3 513 580 510
3 513 582 580
3 581 583 511
3 511 583 514
3 515 514 583
3 515 583 584
3 586 585 516
3 586 516 517
3 516 587 518
3 585 587 516
3 518 588 519
3 587 588 518
3 519 589 520
3 588 589 519
3 520 590 521
3 589 590 520
3 513 521 582
3 582 521 590
3 584 591 515
3 515 591 522
3 591 593 592
3 523 591 592
3 522 591 523
3 592 524 523
3 525 586 517
3 525 594 586
3 593 595 592
3 592 595 524
3 595 526 524
3 595 596 526
3 527 526 596
3 527 596 597
3 528 594 525
3 528 598 594
3 597 599 527
3 527 599 529
3 529 600 530
3 599 600 529
3 530 601 531
3 600 601 530
3 528 531 598
3 598 531 601
3 602 533 534
3 535 603 534
3 534 603 602
3 536 603 535
3 605 604 538
3 538 604 537
3 538 533 602
3 606 538 602
3 605 538 606
3 606 602 603
3 606 603 607
3 603 536 607
3 536 608 607
3 536 539 608
3 604 540 537
3 609 540 604
3 610 608 539
3 610 539 541
3 612 610 611
3 610 542 611
3 610 541 542
3 544 611 542
3 614 613 549
3 549 613 548
3 549 540 609
3 549 609 614
3 612 611 615
3 612 615 616
3 550 617 544
3 617 611 544
3 617 615 611
3 551 618 550
3 550 618 617
3 552 618 551
3 619 554 555
3 619 555 620
3 555 621 620
3 555 556 621
3 622 556 557
3 622 621 556
3 557 548 613
3 557 613 622
3 623 616 615
3 623 615 617
3 623 617 624
3 624 617 618
3 624 618 625
3 627 625 626
3 626 625 558
3 625 618 558
3 618 552 558
3 559 626 558
3 629 628 619
3 628 554 619
3 628 561 554
3 629 619 620
3 630 627 626
3 626 559 630
3 559 631 630
3 559 562 631
3 633 632 564
3 564 632 563
3 564 561 628
3 564 628 633
3 634 631 562
3 634 562 565
3 565 566 634
3 634 566 635
3 632 567 563
3 636 567 632
3 568 635 566
3 568 637 635
3 636 569 567
3 638 569 636
3 570 637 568
3 570 639 637
3 638 571 569
3 640 571 638
3 572 639 570
3 572 641 639
3 640 573 571
3 642 573 640
3 574 641 572
3 574 643 641
3 642 575 573
3 644 575 642
3 576 643 574
3 576 645 643
3 644 646 575
3 575 646 577
3 578 577 646
3 578 646 647
3 649 648 579
3 649 579 580
3 576 579 645
3 645 579 648
3 651 581 650
3 581 647 650
3 581 578 647
3 652 651 650
3 655 654 653
3 654 649 653
3 649 582 653
3 649 580 582
3 651 583 581
3 584 583 651
3 652 584 651
3 656 584 652
3 586 657 585
3 658 587 585
3 658 585 657
3 659 588 587
3 659 587 658
3 660 589 588
3 660 588 659
3 661 655 653
3 589 661 653
3 590 589 653
3 661 589 660
3 590 653 582
3 656 662 584
3 584 662 591
3 593 591 662
3 593 662 663
3 594 664 657
3 594 657 586
3 657 665 658
3 657 664 665
3 658 666 659
3 658 665 666
3 668 660 667
3 660 666 667
3 660 659 666
3 660 668 661
3 663 669 593
3 593 669 595
3 595 670 596
3 669 670 595
3 597 596 670
3 597 670 671
3 674 673 672
3 673 675 664
3 598 673 664
3 594 598 664
3 672 673 598
3 664 675 665
3 665 675 676
3 665 676 666
3 666 676 677
3 666 677 667
3 671 678 597
3 597 678 599
3 599 679 600
3 678 679 599
3 672 601 674
3 601 679 674
3 601 600 679
3 601 672 598
3 681 680 605
3 605 680 604
3 682 605 606
3 682 681 605
3 683 606 607
3 683 682 606
3 607 608 683
3 683 608 684
3 687 686 685
3 680 687 685
3 609 680 685
3 604 680 609
3 608 610 688
3 689 608 688
3 684 608 689
3 612 688 610
3 685 686 614
3 686 613 614
3 686 690 613
3 685 614 609
3 689 688 691
3 689 691 692
3 616 691 612
3 612 691 688
3 694 693 621
3 621 693 620
3 695 621 622
3 695 694 621
3 622 613 690
3 622 690 695
3 696 692 691
3 696 691 616
3 623 696 616
3 697 696 623
3 698 623 624
3 698 697 623
3 699 624 625
3 699 698 624
3 625 627 699
3 699 627 700
3 702 701 629
3 629 701 628
3 629 620 693
3 629 693 702
3 703 700 627
3 703 627 630
3 630 631 703
3 703 631 704
3 705 632 633
3 706 705 633
3 628 706 633
3 701 706 628
3 631 634 707
3 708 631 707
3 704 631 708
3 635 707 634
3 710 709 705
3 709 632 705
3 709 636 632
3 710 705 706
3 708 707 711
3 708 711 712
3 637 711 635
3 635 711 707
3 709 638 636
3 713 638 709
3 712 711 714
3 712 714 715
3 639 714 637
3 637 714 711
3 713 640 638
3 716 640 713
3 717 715 714
3 714 639 717
3 639 718 717
3 639 641 718
3 716 642 640
3 719 642 716
3 643 718 641
3 643 720 718
3 719 644 642
3 721 644 719
3 645 720 643
3 645 722 720
3 721 723 644
3 644 723 646
3 647 646 723
3 647 723 724
3 726 725 648
3 726 648 649
3 645 648 722
3 722 648 725
3 724 727 647
3 647 727 650
3 652 650 727
3 652 727 728
3 730 729 654
3 730 654 655
3 649 654 726
3 726 654 729
3 728 656 652
3 731 656 728
3 661 730 655
3 661 732 730
3 731 733 656
3 656 733 662
3 663 662 733
3 663 733 734
3 737 736 735
3 668 667 735
3 736 668 735
3 738 668 736
3 661 668 732
3 732 668 738
3 734 739 663
3 663 739 669
3 669 740 670
3 739 740 669
3 742 741 671
3 670 742 671
3 740 742 670
3 743 741 742
3 745 744 673
3 745 673 674
3 673 746 675
3 744 746 673
3 675 747 676
3 746 747 675
3 735 677 737
3 677 747 737
3 677 676 747
3 677 735 667
3 741 678 671
3 743 748 741
3 748 678 741
3 748 679 678
3 674 679 745
3 745 679 748
3 749 680 681
3 682 750 681
3 681 750 749
3 683 751 682
3 682 751 750
3 684 751 683
3 753 752 687
3 687 752 686
3 687 680 749
3 754 687 749
3 753 687 754
3 754 749 750
3 754 750 755
3 755 750 751
3 755 751 756
3 751 684 756
3 684 757 756
3 684 689 757
3 752 690 686
3 758 690 752
3 692 757 689
3 692 759 757
3 761 760 694
3 694 760 693
3 762 694 695
3 762 761 694
3 695 690 758
3 695 758 762
3 763 759 692
3 763 692 696
3 764 696 697
3 764 763 696
3 765 697 698
3 765 764 697
3 766 698 699
3 766 765 698
3 699 700 766
3 766 700 767
3 769 768 702
3 702 768 701
3 702 693 760
3 702 760 769
3 700 703 770
3 771 700 770
3 767 700 771
3 704 770 703
3 768 706 701
3 772 706 768
3 773 771 770
3 770 704 773
3 704 774 773
3 704 708 774
3 775 709 710
3 776 775 710
3 706 776 710
3 772 776 706
3 712 774 708
3 712 777 774
3 779 778 775
3 778 709 775
3 778 713 709
3 779 775 776
3 715 777 712
3 715 780 777
3 778 716 713
3 781 716 778
3 715 717 782
3 783 715 782
3 780 715 783
3 718 782 717
3 785 719 784
3 719 781 784
3 719 716 781
3 786 785 784
3 783 782 787
3 783 787 788
3 720 787 718
3 718 787 782
3 789 721 785
3 785 721 719
3 785 786 790
3 785 790 789
3 788 787 791
3 788 791 792
3 722 791 720
3 720 791 787
3 789 723 721
3 724 723 789
3 790 724 789
3 793 724 790
3 792 791 725
3 726 792 725
3 794 792 726
3 725 791 722
3 793 795 724
3 724 795 727
3 728 727 795
3 728 795 796
3 798 797 729
3 798 729 730
3 726 729 794
3 794 729 797
3 800 731 799
3 731 796 799
3 731 728 796
3 801 800 799
3 732 798 730
3 732 802 798
3 800 733 731
3 804 803 734
3 804 734 733
3 801 804 733
3 800 801 733
3 805 803 804
3 808 807 806
3 736 737 806
3 807 736 806
3 809 736 807
3 736 810 738
3 809 810 736
3 732 738 802
3 802 738 810
3 803 739 734
3 805 811 803
3 811 739 803
3 811 740 739
3 740 812 742
3 811 812 740
3 814 813 743
3 742 814 743
3 812 814 742
3 744 745 813
3 814 744 813
3 815 744 814
3 744 816 746
3 815 816 744
3 806 747 808
3 747 816 808
3 747 746 816
3 747 806 737
3 813 748 743
3 748 813 745
3 817 752 753
3 817 753 818
3 753 819 818
3 753 754 819
3 820 754 755
3 820 819 754
3 821 755 756
3 821 820 755
3 756 757 821
3 821 757 822
3 824 823 817
3 823 752 817
3 823 758 752
3 824 817 818
3 759 822 757
3 759 825 822
3 827 826 761
3 761 826 760
3 828 761 762
3 828 827 761
3 762 758 823
3 762 823 828
3 759 763 829
3 830 759 829
3 825 759 830
3 764 831 763
3 763 831 829
3 765 832 764
3 764 832 831
3 766 833 765
3 765 833 832
3 767 833 766
3 834 768 769
3 835 834 769
3 760 835 769
3 826 835 760
3 836 830 829
3 836 829 831
3 836 831 837
3 837 831 832
3 837 832 838
3 838 832 833
3 838 833 839
3 833 767 839
3 767 840 839
3 767 771 840
3 842 841 834
3 841 768 834
3 841 772 768
3 842 834 835
3 771 773 843
3 844 771 843
3 840 771 844
3 774 843 773
3 841 776 772
3 845 776 841
3 846 844 843
3 843 774 846
3 774 847 846
3 774 777 847
3 848 778 779
3 849 848 779
3 776 849 779
3 845 849 776
3 780 847 777
3 780 850 847
3 851 781 848
3 848 781 778
3 848 849 852
3 848 852 851
3 783 850 780
3 783 853 850
3 851 784 781
3 786 784 851
3 852 786 851
3 854 786 852
3 788 853 783
3 788 855 853
3 857 790 856
3 790 854 856
3 790 786 854
3 858 857 856
3 861 860 859
3 860 855 859
3 855 792 859
3 855 788 792
3 862 793 857
3 857 793 790
3 857 858 863
3 857 863 862
3 861 859 864
3 861 864 865
3 794 864 792
3 792 864 859
3 862 795 793
3 796 795 862
3 863 796 862
3 866 796 863
3 865 864 797
3 798 865 797
3 867 865 798
3 797 864 794
3 866 868 796
3 796 868 799
3 801 799 868
3 801 868 869
3 872 871 870
3 871 867 870
3 867 802 870
3 867 798 802
3 869 873 801
3 801 873 804
3 875 874 805
3 804 875 805
3 873 875 804
3 876 874 875
3 879 878 877
3 881 880 877
3 881 877 878
3 807 808 880
3 881 807 880
3 882 807 881
3 807 883 809
3 882 883 807
3 870 810 872
3 810 883 872
3 810 809 883
3 810 870 802
3 874 811 805
3 876 884 874
3 884 811 874
3 884 812 811
3 812 885 814
3 884 885 812
3 877 815 879
3 815 885 879
3 815 814 885
3 815 877 816
3 816 877 880
3 816 880 808
3 886 818 819
3 820 887 819
3 819 887 886
3 821 888 820
3 820 888 887
3 822 888 821
3 889 823 824
3 818 886 824
3 886 889 824
3 886 890 889
3 891 886 887
3 890 886 891
3 892 887 888
3 891 887 892
3 825 892 822
3 822 892 888
3 893 826 827
3 828 894 827
3 827 894 893
3 823 889 828
3 889 894 828
3 889 895 894
3 890 897 896
3 895 890 896
3 889 890 895
3 897 890 891
3 897 891 898
3 898 891 892
3 898 892 899
3 892 825 899
3 825 900 899
3 825 830 900
3 901 835 893
3 893 835 826
3 902 893 894
3 901 893 902
3 903 894 895
3 902 894 903
3 895 896 904
3 895 904 903
3 830 836 905
3 906 830 905
3 900 830 906
3 837 907 836
3 836 907 905
3 838 908 837
3 837 908 907
3 839 909 838
3 838 909 908
3 840 909 839
3 910 841 842
3 911 910 842
3 911 842 835
3 912 911 835
3 901 912 835
3 912 901 902
3 912 902 913
3 913 902 903
3 913 903 914
3 914 903 904
3 906 905 915
3 906 915 916
3 917 905 907
3 915 905 917
3 918 907 908
3 917 907 918
3 919 908 909
3 918 908 919
3 844 919 840
3 840 919 909
3 920 845 910
3 910 845 841
3 910 911 921
3 910 921 920
3 922 916 915
3 922 915 917
3 922 917 923
3 923 917 918
3 923 918 924
3 924 918 919
3 924 919 925
3 927 925 926
3 926 925 846
3 925 919 846
3 919 844 846
3 847 926 846
3 929 928 920
3 928 845 920
3 928 849 845
3 929 920 921
3 927 926 930
3 927 930 931
3 850 930 847
3 847 930 926
3 928 852 849
3 932 852 928
3 931 930 933
3 931 933 934
3 853 933 850
3 850 933 930
3 936 854 935
3 854 932 935
3 854 852 932
3 937 936 935
3 934 933 938
3 934 938 939
3 855 938 853
3 853 938 933
3 936 856 854
3 858 856 936
3 937 858 936
3 940 858 937
3 939 938 860
3 861 939 860
3 941 939 861
3 860 938 855
3 943 863 942
3 863 940 942
3 863 858 940
3 944 943 942
3 947 946 945
3 946 941 945
3 941 865 945
3 941 861 865
3 948 866 943
3 943 866 863
3 943 944 949
3 943 949 948
3 952 951 950
3 950 951 947
3 945 950 947
3 953 950 945
3 867 953 865
3 865 953 945
3 948 868 866
3 955 954 869
3 955 869 868
3 949 955 868
3 948 949 868
3 957 956 954
3 957 954 955
3 959 958 956
3 959 956 957
3 961 960 958
3 961 958 959
3 963 962 960
3 963 960 961
3 965 964 962
3 965 962 963
3 967 966 964
3 967 964 965
3 966 967 952
3 950 966 952
3 968 966 950
3 872 968 871
3 968 953 871
3 968 950 953
3 871 953 867
3 954 873 869
3 873 954 875
3 875 954 956
3 875 956 876
3 956 969 876
3 956 958 969
3 970 958 960
3 969 958 970
3 879 970 878
3 970 962 878
3 970 960 962
3 878 962 881
3 881 962 964
3 881 964 882
3 882 964 966
3 882 966 883
3 883 966 968
3 883 968 872
3 969 884 876
3 884 969 885
3 885 969 970
3 885 970 879
3 971 896 897
3 898 972 897
3 897 972 971
3 899 973 898
3 898 973 972
3 900 973 899
3 974 904 971
3 971 904 896
3 975 971 972
3 974 971 975
3 976 972 973
3 975 972 976
3 906 976 900
3 900 976 973
3 977 911 912
3 913 978 912
3 912 978 977
3 978 913 979
3 913 980 979
3 913 914 980
3 914 904 974
3 981 914 974
3 980 914 981
3 983 982 981
3 974 983 981
3 975 983 974
3 984 975 976
3 983 975 984
3 916 984 906
3 906 984 976
3 986 985 977
3 985 911 977
3 985 921 911
3 986 977 978
3 986 978 987
3 987 978 979
3 988 982 983
3 988 983 984
3 988 984 989
3 989 984 916
3 922 989 916
3 990 989 922
3 991 922 923
3 991 990 922
3 992 923 924
3 992 991 923
3 994 992 993
3 992 925 993
3 992 924 925
3 927 993 925
3 995 928 929
3 996 995 929
3 921 996 929
3 985 996 921
3 997 994 993
3 993 927 997
3 927 998 997
3 927 931 998
3 999 932 995
3 995 932 928
3 995 996 1000
3 995 1000 999
3 934 998 931
3 934 1001 998
3 999 935 932
3 937 935 999
3 1000 937 999
3 1002 937 1000
3 939 1001 934
3 939 1003 1001
3 1005 940 1004
3 940 1002 1004
3 940 937 1002
3 1007 1006 1005
3 1007 1005 1004
3 1008 1006 1007
3 1011 1010 1009
3 1010 1003 1009
3 1003 941 1009
3 1003 939 941
3 1005 942 940
3 942 1005 944
3 1005 1012 944
3 1005 1006 1012
3 1006 1008 1013
3 1006 1013 1012
3 1016 1015 1014
3 1018 1017 1014
3 1018 1014 1015
3 1020 1019 1017
3 1020 1017 1018
3 1022 1021 1019
3 1022 1019 1020
3 1021 1022 1011
3 1021 1011 1009
3 947 1021 1009
3 946 947 1009
3 946 1009 941
3 1023 949 1012
3 1012 949 944
3 1012 1013 1024
3 1025 1012 1024
3 1023 1012 1025
3 1027 1026 1025
3 1027 1025 1024
3 1029 1028 1026
3 1029 1026 1027
3 1028 1029 1016
3 1014 1028 1016
3 1030 1028 1014
3 1031 1014 1017
3 1030 1014 1031
3 1032 1017 1019
3 1031 1017 1032
3 952 1032 951
3 1032 1021 951
3 1032 1019 1021
3 951 1021 947
3 1023 955 949
3 955 1023 957
3 957 1023 1025
3 957 1025 959
3 959 1025 1026
3 959 1026 961
3 961 1026 1028
3 961 1028 963
3 963 1028 1030
3 963 1030 965
3 965 1030 1031
3 965 1031 967
3 967 1031 1032
3 967 1032 952
3 1033 979 980
3 981 1034 980
3 980 1034 1033
3 982 1034 981
3 1035 985 986
3 987 1036 986
3 986 1036 1035
3 979 1033 987
3 1033 1036 987
3 1033 1037 1036
3 1038 1033 1034
3 1037 1033 1038
3 988 1039 982
3 1039 1034 982
3 1039 1038 1034
3 989 1040 988
3 988 1040 1039
3 990 1041 989
3 989 1041 1040
3 991 1042 990
3 990 1042 1041
3 992 1043 991
3 991 1043 1042
3 994 1043 992
3 1044 996 1035
3 1035 996 985
3 1045 1035 1036
3 1044 1035 1045
3 1046 1036 1037
3 1045 1036 1046
3 1038 1048 1047
3 1046 1038 1047
3 1037 1038 1046
3 1050 1049 1048
3 1038 1050 1048
3 1039 1050 1038
3 1051 1039 1040
3 1050 1039 1051
3 1052 1040 1041
3 1051 1040 1052
3 1053 1041 1042
3 1052 1041 1053
3 1054 1042 1043
3 1053 1042 1054
3 997 1055 994
3 1055 1043 994
3 1055 1054 1043
3 998 1055 997
3 1056 1000 1044
3 1044 1000 996
3 1057 1044 1045
3 1056 1044 1057
3 1046 1059 1058
3 1057 1046 1058
3 1045 1046 1057
3 1059 1046 1047
3 1049 1050 1060
3 1049 1060 1061
3 1062 1050 1051
3 1060 1050 1062
3 1063 1051 1052
3 1062 1051 1063
3 1064 1052 1053
3 1063 1052 1064
3 1065 1053 1054
3 1064 1053 1065
3 1066 1054 1055
3 1065 1054 1066
3 1001 1066 998
3 998 1066 1055
3 1067 1002 1056
3 1056 1002 1000
3 1068 1056 1057
3 1067 1056 1068
3 1057 1058 1069
3 1070 1057 1069
3 1068 1057 1070
3 1072 1071 1070
3 1072 1070 1069
3 1071 1072 1061
3 1060 1071 1061
3 1073 1071 1060
3 1074 1060 1062
3 1073 1060 1074
3 1075 1062 1063
3 1074 1062 1075
3 1076 1063 1064
3 1075 1063 1076
3 1077 1064 1065
3 1076 1064 1077
3 1078 1065 1066
3 1077 1065 1078
3 1003 1078 1001
3 1001 1078 1066
3 1067 1004 1002
3 1004 1067 1007
3 1007 1067 1068
3 1007 1068 1008
3 1068 1079 1008
3 1068 1070 1079
3 1080 1070 1071
3 1079 1070 1080
3 1081 1071 1073
3 1080 1071 1081
3 1082 1073 1074
3 1081 1073 1082
3 1083 1074 1075
3 1082 1074 1083
3 1084 1075 1076
3 1083 1075 1084
3 1085 1076 1077
3 1084 1076 1085
3 1011 1085 1010
3 1085 1078 1010
3 1085 1077 1078
3 1010 1078 1003
3 1086 1013 1079
3 1079 1013 1008
3 1087 1079 1080
3 1086 1079 1087
3 1088 1080 1081
3 1087 1080 1088
3 1016 1088 1015
3 1088 1082 1015
3 1088 1081 1082
3 1015 1082 1018
3 1018 1082 1083
3 1018 1083 1020
3 1020 1083 1084
3 1020 1084 1022
3 1022 1084 1085
3 1022 1085 1011
3 1086 1024 1013
3 1024 1086 1027
3 1027 1086 1087
3 1027 1087 1029
3 1029 1087 1088
3 1029 1088 1016
3 1089 1047 1048
3 1049 1089 1048
3 1090 1058 1059
3 1047 1089 1059
3 1089 1090 1059
3 1089 1091 1090
3 1061 1091 1049
3 1049 1091 1089
3 1090 1069 1058
3 1069 1090 1072
3 1072 1090 1091
3 1072 1091 1061
