ply
format ascii 1.0
element vertex 1406
property float x
property float y
property float z
element face 2808
property list uchar int vertex_indices
end_header
-1.28388539 -0.36262955 -0.21428571
-1.21245682 -0.36262955 -0.28571429
-1.21245682 -0.43405812 -0.21428571
-1.21245682 -0.43405812 -0.07142857
-1.28388539 -0.36262955 -0.07142857
-1.21245682 -0.43405812 0.07142857
-1.28388539 -0.36262955 0.07142857
-1.21245682 -0.43405812 0.21428571
-1.28388539 -0.36262955 0.21428571
-1.21245682 -0.36262955 0.28571429
-1.28388539 -0.21977240 -0.35714286
-1.21245682 -0.21977240 -0.42857143
-1.21245682 -0.29120098 -0.35714286
-1.28388539 -0.21977240 -0.21428571
-1.28388539 -0.21977240 -0.07142857
-1.28388539 -0.21977240 0.07142857
-1.28388539 -0.21977240 0.21428571
-1.21245682 -0.21977240 0.28571429
-1.28388539 -0.07691526 -0.35714286
-1.21245682 -0.07691526 -0.42857143
-1.28388539 -0.07691526 -0.21428571
-1.28388539 -0.07691526 -0.07142857
-1.28388539 -0.07691526 0.07142857
-1.28388539 -0.07691526 0.21428571
-1.21245682 -0.14834383 0.35714286
-1.28388539 -0.07691526 0.35714286
-1.21245682 -0.07691526 0.42857143
-1.28388539 0.06594188 -0.35714286
-1.21245682 0.06594188 -0.42857143
-1.28388539 0.06594188 -0.21428571
-1.28388539 0.06594188 -0.07142857
-1.28388539 0.06594188 0.07142857
-1.28388539 0.06594188 0.21428571
-1.28388539 0.06594188 0.35714286
-1.21245682 0.06594188 0.42857143
-1.28388539 0.20879902 -0.35714286
-1.21245682 0.20879902 -0.42857143
-1.28388539 0.20879902 -0.21428571
-1.28388539 0.20879902 -0.07142857
-1.28388539 0.20879902 0.07142857
-1.28388539 0.20879902 0.21428571
-1.28388539 0.20879902 0.35714286
-1.21245682 0.20879902 0.42857143
-1.28388539 0.35165617 -0.35714286
-1.21245682 0.35165617 -0.42857143
-1.28388539 0.35165617 -0.21428571
-1.28388539 0.35165617 -0.07142857
-1.28388539 0.35165617 0.07142857
-1.28388539 0.35165617 0.21428571
-1.21245682 0.35165617 0.28571429
-1.21245682 0.28022760 0.35714286
-1.21245682 0.42308474 -0.35714286
-1.21245682 0.42308474 -0.21428571
-1.21245682 0.42308474 -0.07142857
-1.21245682 0.42308474 0.07142857
-1.21245682 0.42308474 0.21428571
-1.14102825 -0.64834383 -0.35714286
-1.06959967 -0.64834383 -0.42857143
-1.06959967 -0.71977240 -0.35714286
-1.06959967 -0.71977240 -0.21428571
-1.14102825 -0.64834383 -0.21428571
-1.06959967 -0.71977240 -0.07142857
-1.14102825 -0.64834383 -0.07142857
-1.06959967 -0.71977240 0.07142857
-1.14102825 -0.64834383 0.07142857
-1.06959967 -0.71977240 0.21428571
-1.14102825 -0.64834383 0.21428571
-1.06959967 -0.64834383 0.28571429
-1.14102825 -0.50548669 -0.50000000
-1.06959967 -0.50548669 -0.57142857
-1.06959967 -0.57691526 -0.50000000
-1.14102825 -0.50548669 -0.35714286
-1.14102825 -0.50548669 -0.21428571
-1.14102825 -0.50548669 -0.07142857
-1.14102825 -0.50548669 0.07142857
-1.14102825 -0.50548669 0.21428571
-1.06959967 -0.57691526 0.35714286
-1.14102825 -0.50548669 0.35714286
-1.06959967 -0.50548669 0.42857143
-1.14102825 -0.36262955 -0.50000000
-1.06959967 -0.36262955 -0.57142857
-1.14102825 -0.36262955 -0.35714286
-1.14102825 -0.36262955 0.35714286
-1.06959967 -0.43405812 0.50000000
-1.14102825 -0.36262955 0.50000000
-1.06959967 -0.36262955 0.57142857
-1.14102825 -0.21977240 -0.64285714
-1.06959967 -0.21977240 -0.71428571
-1.06959967 -0.29120098 -0.64285714
-1.14102825 -0.21977240 -0.50000000
-1.14102825 -0.21977240 0.35714286
-1.14102825 -0.21977240 0.50000000
-1.06959967 -0.21977240 0.57142857
-1.14102825 -0.07691526 -0.64285714
-1.06959967 -0.07691526 -0.71428571
-1.14102825 -0.07691526 -0.50000000
-1.14102825 -0.07691526 0.50000000
-1.06959967 -0.07691526 0.57142857
-1.14102825 0.06594188 -0.64285714
-1.06959967 0.06594188 -0.71428571
-1.14102825 0.06594188 -0.50000000
-1.14102825 0.06594188 0.50000000
-1.06959967 0.06594188 0.57142857
-1.14102825 0.20879902 -0.64285714
-1.06959967 0.20879902 -0.71428571
-1.14102825 0.20879902 -0.50000000
-1.14102825 0.20879902 0.50000000
-1.06959967 0.20879902 0.57142857
-1.06959967 0.28022760 -0.64285714
-1.14102825 0.35165617 -0.50000000
-1.06959967 0.35165617 -0.57142857
-1.14102825 0.35165617 0.35714286
-1.14102825 0.35165617 0.50000000
-1.06959967 0.35165617 0.57142857
-1.14102825 0.49451331 -0.50000000
-1.06959967 0.49451331 -0.57142857
-1.14102825 0.49451331 -0.35714286
-1.14102825 0.49451331 -0.21428571
-1.14102825 0.49451331 -0.07142857
-1.14102825 0.49451331 0.07142857
-1.14102825 0.49451331 0.21428571
-1.14102825 0.49451331 0.35714286
-1.14102825 0.49451331 0.50000000
-1.06959967 0.49451331 0.57142857
-1.06959967 0.56594188 -0.50000000
-1.14102825 0.63737045 -0.35714286
-1.06959967 0.63737045 -0.42857143
-1.14102825 0.63737045 -0.21428571
-1.14102825 0.63737045 -0.07142857
-1.14102825 0.63737045 0.07142857
-1.14102825 0.63737045 0.21428571
-1.06959967 0.63737045 0.28571429
-1.06959967 0.56594188 0.35714286
-1.06959967 0.56594188 0.50000000
-1.06959967 0.70879902 -0.35714286
-1.06959967 0.70879902 -0.21428571
-1.06959967 0.70879902 -0.07142857
-1.06959967 0.70879902 0.07142857
-1.06959967 0.70879902 0.21428571
-0.99817110 -0.79120098 -0.35714286
-0.92674253 -0.79120098 -0.42857143
-0.92674253 -0.86262955 -0.35714286
-0.92674253 -0.86262955 -0.21428571
-0.99817110 -0.79120098 -0.21428571
-0.92674253 -0.86262955 -0.07142857
-0.99817110 -0.79120098 -0.07142857
-0.92674253 -0.86262955 0.07142857
-0.99817110 -0.79120098 0.07142857
-0.92674253 -0.86262955 0.21428571
-0.99817110 -0.79120098 0.21428571
-0.92674253 -0.86262955 0.35714286
-0.99817110 -0.79120098 0.35714286
-0.92674253 -0.79120098 0.42857143
-0.99817110 -0.64834383 -0.64285714
-0.92674253 -0.64834383 -0.71428571
-0.92674253 -0.71977240 -0.64285714
-0.92674253 -0.71977240 -0.50000000
-0.99817110 -0.64834383 -0.50000000
-0.99817110 -0.64834383 0.35714286
-0.92674253 -0.71977240 0.50000000
-0.99817110 -0.64834383 0.50000000
-0.92674253 -0.64834383 0.57142857
-0.99817110 -0.50548669 -0.64285714
-0.92674253 -0.50548669 -0.71428571
-0.99817110 -0.50548669 0.50000000
-0.92674253 -0.57691526 0.64285714
-0.99817110 -0.50548669 0.64285714
-0.92674253 -0.50548669 0.71428571
-0.99817110 -0.36262955 -0.78571429
-0.92674253 -0.36262955 -0.85714286
-0.92674253 -0.43405812 -0.78571429
-0.99817110 -0.36262955 -0.64285714
-0.99817110 -0.36262955 0.64285714
-0.92674253 -0.43405812 0.78571429
-0.99817110 -0.36262955 0.78571429
-0.92674253 -0.36262955 0.85714286
-0.99817110 -0.21977240 -0.78571429
-0.92674253 -0.21977240 -0.85714286
-0.99817110 -0.21977240 0.64285714
-0.99817110 -0.21977240 0.78571429
-0.92674253 -0.21977240 0.85714286
-0.99817110 -0.07691526 -0.78571429
-0.92674253 -0.07691526 -0.85714286
-0.99817110 -0.07691526 0.64285714
-0.99817110 -0.07691526 0.78571429
-0.92674253 -0.07691526 0.85714286
-0.99817110 0.06594188 -0.78571429
-0.92674253 0.06594188 -0.85714286
-0.99817110 0.06594188 0.64285714
-0.99817110 0.06594188 0.78571429
-0.92674253 0.06594188 0.85714286
-0.99817110 0.20879902 -0.78571429
-0.92674253 0.20879902 -0.85714286
-0.99817110 0.20879902 0.64285714
-0.99817110 0.20879902 0.78571429
-0.92674253 0.20879902 0.85714286
-0.99817110 0.35165617 -0.78571429
-0.92674253 0.35165617 -0.85714286
-0.99817110 0.35165617 -0.64285714
-0.99817110 0.35165617 0.64285714
-0.92674253 0.35165617 0.71428571
-0.92674253 0.28022760 0.78571429
-0.92674253 0.42308474 -0.78571429
-0.99817110 0.49451331 -0.64285714
-0.92674253 0.49451331 -0.71428571
-0.99817110 0.49451331 0.64285714
-0.92674253 0.49451331 0.71428571
-0.92674253 0.56594188 -0.64285714
-0.99817110 0.63737045 -0.50000000
-0.92674253 0.63737045 -0.57142857
-0.99817110 0.63737045 0.35714286
-0.99817110 0.63737045 0.50000000
-0.92674253 0.63737045 0.57142857
-0.92674253 0.56594188 0.64285714
-0.92674253 0.70879902 -0.50000000
-0.99817110 0.78022760 -0.35714286
-0.92674253 0.78022760 -0.42857143
-0.99817110 0.78022760 -0.21428571
-0.99817110 0.78022760 -0.07142857
-0.99817110 0.78022760 0.07142857
-0.99817110 0.78022760 0.21428571
-0.99817110 0.78022760 0.35714286
-0.99817110 0.78022760 0.50000000
-0.92674253 0.78022760 0.57142857
-0.92674253 0.85165617 -0.35714286
-0.92674253 0.85165617 -0.21428571
-0.92674253 0.85165617 -0.07142857
-0.92674253 0.85165617 0.07142857
-0.99817110 0.92308474 0.21428571
-0.92674253 0.92308474 0.14285714
-0.99817110 0.92308474 0.35714286
-0.92674253 0.92308474 0.42857143
-0.92674253 0.85165617 0.50000000
-0.92674253 0.99451331 0.21428571
-0.92674253 0.99451331 0.35714286
-0.85531396 -0.93405812 -0.35714286
-0.78388539 -0.93405812 -0.42857143
-0.78388539 -1.00548669 -0.35714286
-0.78388539 -1.00548669 -0.21428571
-0.85531396 -0.93405812 -0.21428571
-0.78388539 -1.00548669 -0.07142857
-0.85531396 -0.93405812 -0.07142857
-0.78388539 -1.00548669 0.07142857
-0.85531396 -0.93405812 0.07142857
-0.78388539 -1.00548669 0.21428571
-0.85531396 -0.93405812 0.21428571
-0.78388539 -0.93405812 0.28571429
-0.85531396 -0.79120098 -0.64285714
-0.78388539 -0.79120098 -0.71428571
-0.78388539 -0.86262955 -0.64285714
-0.78388539 -0.86262955 -0.50000000
-0.85531396 -0.79120098 -0.50000000
-0.78388539 -0.86262955 0.35714286
-0.78388539 -0.86262955 0.50000000
-0.85531396 -0.79120098 0.50000000
-0.78388539 -0.79120098 0.57142857
-0.78388539 -0.64834383 -0.71428571
-0.78388539 -0.71977240 0.64285714
-0.85531396 -0.64834383 0.64285714
-0.78388539 -0.64834383 0.71428571
-0.85531396 -0.50548669 -0.78571429
-0.78388539 -0.50548669 -0.85714286
-0.78388539 -0.57691526 -0.78571429
-0.78388539 -0.57691526 0.78571429
-0.85531396 -0.50548669 0.78571429
-0.78388539 -0.50548669 0.85714286
-0.78388539 -0.36262955 -0.85714286
-0.78388539 -0.43405812 0.92857143
-0.85531396 -0.36262955 0.92857143
-0.78388539 -0.36262955 1.00000000
-0.78388539 -0.21977240 -0.85714286
-0.85531396 -0.21977240 0.92857143
-0.78388539 -0.21977240 1.00000000
-0.85531396 -0.07691526 -0.92857143
-0.78388539 -0.07691526 -1.00000000
-0.78388539 -0.14834383 -0.92857143
-0.85531396 -0.07691526 0.92857143
-0.78388539 -0.07691526 1.00000000
-0.85531396 0.06594188 -0.92857143
-0.78388539 0.06594188 -1.00000000
-0.78388539 -0.00548669 0.92857143
-0.78388539 0.06594188 0.85714286
-0.78388539 0.13737045 -0.92857143
-0.78388539 0.20879902 -0.85714286
-0.78388539 0.20879902 0.85714286
-0.78388539 0.35165617 -0.85714286
-0.85531396 0.35165617 0.78571429
-0.78388539 0.35165617 0.85714286
-0.85531396 0.49451331 -0.78571429
-0.78388539 0.49451331 -0.85714286
-0.85531396 0.49451331 0.78571429
-0.78388539 0.49451331 0.85714286
-0.78388539 0.56594188 -0.78571429
-0.85531396 0.63737045 -0.64285714
-0.78388539 0.63737045 -0.71428571
-0.85531396 0.63737045 0.64285714
-0.78388539 0.63737045 0.71428571
-0.78388539 0.56594188 0.78571429
-0.85531396 0.78022760 -0.64285714
-0.78388539 0.78022760 -0.71428571
-0.85531396 0.78022760 -0.50000000
-0.78388539 0.70879902 0.64285714
-0.78388539 0.78022760 0.57142857
-0.78388539 0.85165617 -0.64285714
-0.78388539 0.85165617 -0.50000000
-0.85531396 0.92308474 -0.35714286
-0.78388539 0.92308474 -0.42857143
-0.85531396 0.92308474 -0.21428571
-0.85531396 0.92308474 -0.07142857
-0.85531396 0.92308474 0.07142857
-0.85531396 0.92308474 0.50000000
-0.78388539 0.92308474 0.57142857
-0.78388539 0.99451331 -0.35714286
-0.78388539 0.99451331 -0.21428571
-0.78388539 0.99451331 -0.07142857
-0.78388539 0.99451331 0.07142857
-0.78388539 0.99451331 0.21428571
-0.78388539 0.99451331 0.35714286
-0.78388539 0.99451331 0.50000000
-0.71245682 -1.07691526 -0.21428571
-0.64102825 -1.07691526 -0.28571429
-0.64102825 -1.14834383 -0.21428571
-0.64102825 -1.14834383 -0.07142857
-0.71245682 -1.07691526 -0.07142857
-0.64102825 -1.14834383 0.07142857
-0.71245682 -1.07691526 0.07142857
-0.64102825 -1.14834383 0.21428571
-0.71245682 -1.07691526 0.21428571
-0.64102825 -1.07691526 0.28571429
-0.71245682 -0.93405812 -0.50000000
-0.64102825 -0.93405812 -0.57142857
-0.64102825 -1.00548669 -0.50000000
-0.64102825 -1.00548669 -0.35714286
-0.64102825 -1.00548669 0.35714286
-0.71245682 -0.93405812 0.35714286
-0.64102825 -1.00548669 0.50000000
-0.71245682 -0.93405812 0.50000000
-0.64102825 -0.93405812 0.57142857
-0.71245682 -0.79120098 -0.78571429
-0.64102825 -0.79120098 -0.85714286
-0.64102825 -0.86262955 -0.78571429
-0.64102825 -0.86262955 -0.64285714
-0.64102825 -0.86262955 0.64285714
-0.71245682 -0.79120098 0.64285714
-0.64102825 -0.79120098 0.71428571
-0.71245682 -0.64834383 -0.78571429
-0.64102825 -0.64834383 -0.85714286
-0.64102825 -0.71977240 0.78571429
-0.71245682 -0.64834383 0.78571429
-0.64102825 -0.64834383 0.85714286
-0.64102825 -0.50548669 -0.85714286
-0.64102825 -0.57691526 0.92857143
-0.71245682 -0.50548669 0.92857143
-0.64102825 -0.50548669 1.00000000
-0.71245682 -0.36262955 -0.92857143
-0.64102825 -0.36262955 -1.00000000
-0.64102825 -0.43405812 -0.92857143
-0.64102825 -0.36262955 1.00000000
-0.71245682 -0.21977240 -0.92857143
-0.64102825 -0.21977240 -1.00000000
-0.64102825 -0.21977240 1.00000000
-0.64102825 -0.07691526 -1.00000000
-0.64102825 -0.07691526 1.00000000
-0.64102825 0.06594188 -1.00000000
-0.71245682 0.06594188 0.92857143
-0.64102825 0.06594188 1.00000000
-0.71245682 0.20879902 -0.92857143
-0.64102825 0.20879902 -1.00000000
-0.71245682 0.20879902 0.92857143
-0.64102825 0.20879902 1.00000000
-0.71245682 0.35165617 -0.92857143
-0.64102825 0.35165617 -1.00000000
-0.71245682 0.35165617 0.92857143
-0.64102825 0.35165617 1.00000000
-0.64102825 0.42308474 -0.92857143
-0.64102825 0.49451331 -0.85714286
-0.64102825 0.42308474 0.92857143
-0.64102825 0.49451331 0.85714286
-0.71245682 0.63737045 -0.78571429
-0.64102825 0.63737045 -0.85714286
-0.71245682 0.63737045 0.78571429
-0.64102825 0.63737045 0.85714286
-0.64102825 0.70879902 -0.78571429
-0.64102825 0.78022760 -0.71428571
-0.71245682 0.78022760 0.64285714
-0.64102825 0.78022760 0.71428571
-0.64102825 0.70879902 0.78571429
-0.71245682 0.92308474 -0.64285714
-0.64102825 0.92308474 -0.71428571
-0.71245682 0.92308474 -0.50000000
-0.64102825 0.85165617 0.64285714
-0.64102825 0.92308474 0.57142857
-0.64102825 0.99451331 -0.64285714
-0.64102825 0.99451331 -0.50000000
-0.71245682 1.06594188 -0.35714286
-0.64102825 1.06594188 -0.42857143
-0.71245682 1.06594188 -0.21428571
-0.71245682 1.06594188 -0.07142857
-0.71245682 1.06594188 0.07142857
-0.71245682 1.06594188 0.21428571
-0.71245682 1.06594188 0.35714286
-0.71245682 1.06594188 0.50000000
-0.64102825 1.06594188 0.57142857
-0.64102825 1.13737045 -0.35714286
-0.64102825 1.13737045 -0.21428571
-0.64102825 1.13737045 -0.07142857
-0.64102825 1.13737045 0.07142857
-0.64102825 1.13737045 0.21428571
-0.64102825 1.13737045 0.35714286
-0.64102825 1.13737045 0.50000000
-0.56959967 -1.07691526 -0.50000000
-0.49817110 -1.07691526 -0.57142857
-0.49817110 -1.14834383 -0.50000000
-0.49817110 -1.14834383 -0.35714286
-0.56959967 -1.07691526 -0.35714286
-0.49817110 -1.14834383 -0.21428571
-0.49817110 -1.14834383 -0.07142857
-0.49817110 -1.14834383 0.07142857
-0.49817110 -1.14834383 0.21428571
-0.49817110 -1.14834383 0.35714286
-0.56959967 -1.07691526 0.35714286
-0.49817110 -1.07691526 0.42857143
-0.56959967 -0.93405812 -0.64285714
-0.49817110 -0.93405812 -0.71428571
-0.49817110 -1.00548669 -0.64285714
-0.49817110 -1.00548669 0.50000000
-0.49817110 -1.00548669 0.64285714
-0.56959967 -0.93405812 0.64285714
-0.49817110 -0.93405812 0.71428571
-0.49817110 -0.79120098 -0.85714286
-0.49817110 -0.86262955 -0.78571429
-0.49817110 -0.86262955 0.78571429
-0.56959967 -0.79120098 0.78571429
-0.49817110 -0.79120098 0.85714286
-0.49817110 -0.64834383 -0.85714286
-0.49817110 -0.64834383 0.85714286
-0.56959967 -0.50548669 -0.92857143
-0.49817110 -0.50548669 -1.00000000
-0.49817110 -0.57691526 -0.92857143
-0.49817110 -0.57691526 0.92857143
-0.49817110 -0.50548669 1.00000000
-0.49817110 -0.36262955 -1.00000000
-0.49817110 -0.36262955 1.00000000
-0.49817110 -0.21977240 -1.00000000
-0.49817110 -0.21977240 1.00000000
-0.49817110 -0.07691526 -1.00000000
-0.49817110 -0.07691526 1.00000000
-0.49817110 0.06594188 -1.00000000
-0.49817110 0.06594188 1.00000000
-0.49817110 0.20879902 -1.00000000
-0.49817110 0.20879902 1.00000000
-0.49817110 0.35165617 -1.00000000
-0.49817110 0.35165617 1.00000000
-0.56959967 0.49451331 -0.92857143
-0.49817110 0.49451331 -1.00000000
-0.56959967 0.49451331 0.92857143
-0.49817110 0.49451331 1.00000000
-0.49817110 0.56594188 -0.92857143
-0.49817110 0.63737045 -0.85714286
-0.56959967 0.63737045 0.92857143
-0.49817110 0.63737045 1.00000000
-0.56959967 0.78022760 -0.78571429
-0.49817110 0.78022760 -0.85714286
-0.56959967 0.78022760 0.78571429
-0.49817110 0.78022760 0.85714286
-0.49817110 0.70879902 0.92857143
-0.49817110 0.85165617 -0.78571429
-0.49817110 0.92308474 -0.71428571
-0.56959967 0.92308474 0.64285714
-0.49817110 0.92308474 0.71428571
-0.49817110 0.85165617 0.78571429
-0.49817110 0.99451331 -0.64285714
-0.49817110 0.99451331 -0.50000000
-0.49817110 1.06594188 -0.42857143
-0.49817110 0.99451331 0.64285714
-0.49817110 1.06594188 0.57142857
-0.49817110 1.13737045 -0.35714286
-0.49817110 1.13737045 -0.21428571
-0.49817110 1.13737045 -0.07142857
-0.49817110 1.13737045 0.07142857
-0.49817110 1.13737045 0.21428571
-0.49817110 1.13737045 0.35714286
-0.49817110 1.13737045 0.50000000
-0.42674253 -1.21977240 -0.35714286
-0.35531396 -1.21977240 -0.42857143
-0.35531396 -1.29120098 -0.35714286
-0.35531396 -1.29120098 -0.21428571
-0.42674253 -1.21977240 -0.21428571
-0.35531396 -1.29120098 -0.07142857
-0.42674253 -1.21977240 -0.07142857
-0.35531396 -1.29120098 0.07142857
-0.42674253 -1.21977240 0.07142857
-0.35531396 -1.29120098 0.21428571
-0.42674253 -1.21977240 0.21428571
-0.35531396 -1.21977240 0.28571429
-0.35531396 -1.07691526 -0.57142857
-0.35531396 -1.14834383 -0.50000000
-0.35531396 -1.14834383 0.35714286
-0.35531396 -1.14834383 0.50000000
-0.42674253 -1.07691526 0.50000000
-0.35531396 -1.07691526 0.57142857
-0.35531396 -0.93405812 -0.71428571
-0.35531396 -1.00548669 -0.64285714
-0.35531396 -1.00548669 0.64285714
-0.35531396 -0.93405812 0.71428571
-0.35531396 -0.79120098 -0.85714286
-0.35531396 -0.86262955 -0.78571429
-0.35531396 -0.86262955 0.78571429
-0.35531396 -0.79120098 0.85714286
-0.42674253 -0.64834383 -0.92857143
-0.35531396 -0.64834383 -1.00000000
-0.35531396 -0.71977240 -0.92857143
-0.35531396 -0.71977240 0.92857143
-0.42674253 -0.64834383 0.92857143
-0.35531396 -0.64834383 1.00000000
-0.35531396 -0.50548669 -1.00000000
-0.35531396 -0.50548669 1.00000000
-0.35531396 -0.36262955 -1.00000000
-0.35531396 -0.36262955 1.00000000
-0.35531396 -0.21977240 -1.00000000
-0.35531396 -0.21977240 1.00000000
-0.35531396 -0.07691526 -1.00000000
-0.35531396 -0.07691526 1.00000000
-0.35531396 0.06594188 -1.00000000
-0.35531396 0.06594188 1.00000000
-0.35531396 0.20879902 -1.00000000
-0.35531396 0.20879902 1.00000000
-0.35531396 0.35165617 -1.00000000
-0.35531396 0.35165617 1.00000000
-0.35531396 0.49451331 -1.00000000
-0.35531396 0.49451331 1.00000000
-0.42674253 0.63737045 -0.92857143
-0.35531396 0.63737045 -1.00000000
-0.35531396 0.63737045 1.00000000
-0.35531396 0.70879902 -0.92857143
-0.35531396 0.78022760 -0.85714286
-0.35531396 0.70879902 0.92857143
-0.35531396 0.78022760 0.85714286
-0.42674253 0.92308474 -0.78571429
-0.35531396 0.92308474 -0.85714286
-0.42674253 0.92308474 0.78571429
-0.35531396 0.92308474 0.85714286
-0.35531396 0.99451331 -0.78571429
-0.35531396 0.99451331 -0.64285714
-0.42674253 1.06594188 -0.50000000
-0.35531396 1.06594188 -0.57142857
-0.35531396 0.99451331 0.64285714
-0.35531396 1.06594188 0.57142857
-0.35531396 0.99451331 0.78571429
-0.35531396 1.13737045 -0.50000000
-0.35531396 1.13737045 -0.35714286
-0.42674253 1.20879902 -0.21428571
-0.35531396 1.20879902 -0.28571429
-0.42674253 1.20879902 -0.07142857
-0.42674253 1.20879902 0.07142857
-0.42674253 1.20879902 0.21428571
-0.35531396 1.20879902 0.28571429
-0.35531396 1.13737045 0.35714286
-0.35531396 1.13737045 0.50000000
-0.35531396 1.28022760 -0.21428571
-0.35531396 1.28022760 -0.07142857
-0.35531396 1.28022760 0.07142857
-0.35531396 1.28022760 0.21428571
-0.21245682 -1.21977240 -0.42857143
-0.21245682 -1.29120098 -0.35714286
-0.21245682 -1.29120098 -0.21428571
-0.21245682 -1.29120098 -0.07142857
-0.21245682 -1.29120098 0.07142857
-0.21245682 -1.29120098 0.21428571
-0.21245682 -1.29120098 0.35714286
-0.28388539 -1.21977240 0.35714286
-0.21245682 -1.21977240 0.42857143
-0.28388539 -1.07691526 -0.64285714
-0.21245682 -1.07691526 -0.71428571
-0.21245682 -1.14834383 -0.64285714
-0.21245682 -1.14834383 -0.50000000
-0.21245682 -1.14834383 0.50000000
-0.21245682 -1.07691526 0.57142857
-0.28388539 -0.93405812 -0.78571429
-0.21245682 -0.93405812 -0.85714286
-0.21245682 -1.00548669 -0.78571429
-0.21245682 -1.00548669 0.64285714
-0.21245682 -1.00548669 0.78571429
-0.28388539 -0.93405812 0.78571429
-0.21245682 -0.93405812 0.85714286
-0.21245682 -0.79120098 -0.85714286
-0.21245682 -0.79120098 0.85714286
-0.21245682 -0.64834383 -1.00000000
-0.21245682 -0.71977240 -0.92857143
-0.28388539 -0.64834383 0.92857143
-0.21245682 -0.64834383 0.85714286
-0.21245682 -0.50548669 -1.00000000
-0.21245682 -0.57691526 0.92857143
-0.21245682 -0.50548669 1.00000000
-0.21245682 -0.36262955 -1.00000000
-0.21245682 -0.36262955 1.00000000
-0.21245682 -0.21977240 -1.00000000
-0.21245682 -0.21977240 1.00000000
-0.21245682 -0.07691526 -1.00000000
-0.21245682 -0.07691526 1.00000000
-0.21245682 0.06594188 -1.00000000
-0.21245682 0.06594188 1.00000000
-0.21245682 0.20879902 -1.00000000
-0.21245682 0.20879902 1.00000000
-0.21245682 0.35165617 -1.00000000
-0.21245682 0.35165617 1.00000000
-0.21245682 0.49451331 -1.00000000
-0.21245682 0.49451331 1.00000000
-0.21245682 0.63737045 -1.00000000
-0.21245682 0.63737045 1.00000000
-0.21245682 0.70879902 -0.92857143
-0.21245682 0.78022760 -0.85714286
-0.21245682 0.70879902 0.92857143
-0.21245682 0.78022760 0.85714286
-0.21245682 0.92308474 -0.85714286
-0.21245682 0.92308474 0.85714286
-0.21245682 0.99451331 -0.78571429
-0.28388539 1.06594188 -0.64285714
-0.21245682 1.06594188 -0.71428571
-0.21245682 0.99451331 0.64285714
-0.21245682 1.06594188 0.57142857
-0.21245682 0.99451331 0.78571429
-0.21245682 1.13737045 -0.64285714
-0.21245682 1.13737045 -0.50000000
-0.28388539 1.20879902 -0.35714286
-0.21245682 1.20879902 -0.42857143
-0.28388539 1.20879902 0.35714286
-0.21245682 1.20879902 0.42857143
-0.21245682 1.13737045 0.50000000
-0.21245682 1.28022760 -0.35714286
-0.21245682 1.28022760 -0.21428571
-0.21245682 1.28022760 -0.07142857
-0.21245682 1.28022760 0.07142857
-0.21245682 1.28022760 0.21428571
-0.21245682 1.28022760 0.35714286
-0.06959967 -1.21977240 -0.42857143
-0.06959967 -1.29120098 -0.35714286
-0.06959967 -1.29120098 -0.21428571
-0.06959967 -1.29120098 -0.07142857
-0.06959967 -1.29120098 0.07142857
-0.06959967 -1.29120098 0.21428571
-0.14102825 -1.21977240 0.35714286
-0.06959967 -1.21977240 0.28571429
-0.06959967 -1.07691526 -0.71428571
-0.06959967 -1.14834383 -0.64285714
-0.06959967 -1.14834383 -0.50000000
-0.06959967 -1.14834383 0.35714286
-0.06959967 -1.14834383 0.50000000
-0.06959967 -1.07691526 0.57142857
-0.06959967 -0.93405812 -0.85714286
-0.06959967 -1.00548669 -0.78571429
-0.06959967 -1.00548669 0.64285714
-0.06959967 -1.00548669 0.78571429
-0.06959967 -0.93405812 0.85714286
-0.14102825 -0.79120098 -0.92857143
-0.06959967 -0.79120098 -1.00000000
-0.06959967 -0.86262955 -0.92857143
-0.06959967 -0.79120098 0.85714286
-0.06959967 -0.64834383 -1.00000000
-0.06959967 -0.64834383 0.85714286
-0.06959967 -0.50548669 -1.00000000
-0.06959967 -0.57691526 0.92857143
-0.06959967 -0.50548669 1.00000000
-0.06959967 -0.36262955 -1.00000000
-0.06959967 -0.36262955 1.00000000
-0.06959967 -0.21977240 -1.00000000
-0.06959967 -0.21977240 1.00000000
-0.06959967 -0.07691526 -1.00000000
-0.06959967 -0.07691526 1.00000000
-0.06959967 0.06594188 -1.00000000
-0.06959967 0.06594188 1.00000000
-0.06959967 0.20879902 -1.00000000
-0.06959967 0.20879902 1.00000000
-0.06959967 0.35165617 -1.00000000
-0.06959967 0.35165617 1.00000000
-0.06959967 0.49451331 -1.00000000
-0.06959967 0.49451331 1.00000000
-0.06959967 0.63737045 -1.00000000
-0.06959967 0.63737045 1.00000000
-0.14102825 0.78022760 -0.92857143
-0.06959967 0.78022760 -1.00000000
-0.14102825 0.78022760 0.92857143
-0.06959967 0.78022760 1.00000000
-0.06959967 0.85165617 -0.92857143
-0.06959967 0.92308474 -0.85714286
-0.06959967 0.85165617 0.92857143
-0.06959967 0.92308474 0.85714286
-0.06959967 0.99451331 -0.78571429
-0.06959967 1.06594188 -0.71428571
-0.14102825 1.06594188 0.64285714
-0.06959967 1.06594188 0.71428571
-0.06959967 0.99451331 0.78571429
-0.06959967 1.13737045 -0.64285714
-0.06959967 1.13737045 -0.50000000
-0.06959967 1.20879902 -0.42857143
-0.06959967 1.13737045 0.50000000
-0.06959967 1.20879902 0.42857143
-0.06959967 1.13737045 0.64285714
-0.06959967 1.28022760 -0.35714286
-0.06959967 1.28022760 -0.21428571
-0.06959967 1.28022760 -0.07142857
-0.06959967 1.28022760 0.07142857
-0.06959967 1.28022760 0.21428571
-0.06959967 1.28022760 0.35714286
0.07325747 -1.21977240 -0.42857143
0.07325747 -1.29120098 -0.35714286
0.07325747 -1.29120098 -0.21428571
0.07325747 -1.29120098 -0.07142857
0.07325747 -1.29120098 0.07142857
0.07325747 -1.29120098 0.21428571
0.07325747 -1.21977240 0.28571429
0.07325747 -1.07691526 -0.71428571
0.07325747 -1.14834383 -0.64285714
0.07325747 -1.14834383 -0.50000000
0.07325747 -1.14834383 0.35714286
0.07325747 -1.14834383 0.50000000
0.07325747 -1.07691526 0.57142857
0.07325747 -0.93405812 -0.85714286
0.07325747 -1.00548669 -0.78571429
0.07325747 -1.00548669 0.64285714
0.07325747 -1.00548669 0.78571429
0.07325747 -0.93405812 0.85714286
0.07325747 -0.79120098 -1.00000000
0.07325747 -0.86262955 -0.92857143
0.07325747 -0.79120098 0.85714286
0.07325747 -0.64834383 -1.00000000
0.07325747 -0.64834383 0.85714286
0.07325747 -0.50548669 -1.00000000
0.07325747 -0.57691526 0.92857143
0.07325747 -0.50548669 1.00000000
0.07325747 -0.36262955 -1.00000000
0.07325747 -0.36262955 1.00000000
0.07325747 -0.21977240 -1.00000000
0.07325747 -0.21977240 1.00000000
0.07325747 -0.07691526 -1.00000000
0.07325747 -0.07691526 1.00000000
0.07325747 0.06594188 -1.00000000
0.07325747 0.06594188 1.00000000
0.07325747 0.20879902 -1.00000000
0.07325747 0.20879902 1.00000000
0.07325747 0.35165617 -1.00000000
0.07325747 0.35165617 1.00000000
0.07325747 0.49451331 -1.00000000
0.07325747 0.49451331 1.00000000
0.07325747 0.63737045 -1.00000000
0.07325747 0.63737045 1.00000000
0.07325747 0.78022760 -1.00000000
0.07325747 0.78022760 1.00000000
0.07325747 0.85165617 -0.92857143
0.07325747 0.92308474 -0.85714286
0.07325747 0.85165617 0.92857143
0.07325747 0.92308474 0.85714286
0.07325747 0.99451331 -0.78571429
0.07325747 1.06594188 -0.71428571
0.00182890 1.06594188 0.64285714
0.07325747 0.99451331 0.64285714
0.07325747 1.06594188 0.57142857
0.07325747 0.99451331 0.78571429
0.07325747 1.13737045 -0.64285714
0.07325747 1.13737045 -0.50000000
0.07325747 1.20879902 -0.42857143
0.07325747 1.13737045 0.50000000
0.07325747 1.20879902 0.42857143
0.07325747 1.28022760 -0.35714286
0.07325747 1.28022760 -0.21428571
0.07325747 1.28022760 -0.07142857
0.07325747 1.28022760 0.07142857
0.07325747 1.28022760 0.21428571
0.07325747 1.28022760 0.35714286
0.21611461 -1.21977240 -0.42857143
0.21611461 -1.29120098 -0.35714286
0.21611461 -1.29120098 -0.21428571
0.21611461 -1.29120098 -0.07142857
0.21611461 -1.29120098 0.07142857
0.21611461 -1.29120098 0.21428571
0.21611461 -1.21977240 0.28571429
0.21611461 -1.07691526 -0.71428571
0.21611461 -1.14834383 -0.64285714
0.21611461 -1.14834383 -0.50000000
0.21611461 -1.14834383 0.35714286
0.21611461 -1.14834383 0.50000000
0.21611461 -1.07691526 0.57142857
0.21611461 -0.93405812 -0.85714286
0.21611461 -1.00548669 -0.78571429
0.21611461 -1.00548669 0.64285714
0.21611461 -1.00548669 0.78571429
0.21611461 -0.93405812 0.85714286
0.14468604 -0.79120098 -0.92857143
0.21611461 -0.79120098 -0.85714286
0.21611461 -0.79120098 0.85714286
0.21611461 -0.64834383 -1.00000000
0.21611461 -0.71977240 -0.92857143
0.21611461 -0.71977240 0.92857143
0.14468604 -0.64834383 0.92857143
0.21611461 -0.64834383 1.00000000
0.21611461 -0.50548669 -1.00000000
0.21611461 -0.50548669 1.00000000
0.21611461 -0.36262955 -1.00000000
0.21611461 -0.36262955 1.00000000
0.21611461 -0.21977240 -1.00000000
0.21611461 -0.21977240 1.00000000
0.21611461 -0.07691526 -1.00000000
0.21611461 -0.07691526 1.00000000
0.21611461 0.06594188 -1.00000000
0.21611461 0.06594188 1.00000000
0.21611461 0.20879902 -1.00000000
0.21611461 0.20879902 1.00000000
0.21611461 0.35165617 -1.00000000
0.21611461 0.35165617 1.00000000
0.21611461 0.49451331 -1.00000000
0.21611461 0.49451331 1.00000000
0.21611461 0.63737045 -1.00000000
0.21611461 0.63737045 1.00000000
0.21611461 0.78022760 -1.00000000
0.21611461 0.78022760 1.00000000
0.21611461 0.85165617 -0.92857143
0.21611461 0.92308474 -0.85714286
0.21611461 0.85165617 0.92857143
0.21611461 0.92308474 0.85714286
0.21611461 0.99451331 -0.78571429
0.21611461 1.06594188 -0.71428571
0.21611461 0.99451331 0.64285714
0.21611461 1.06594188 0.57142857
0.21611461 0.99451331 0.78571429
0.21611461 1.13737045 -0.64285714
0.21611461 1.13737045 -0.50000000
0.21611461 1.20879902 -0.42857143
0.21611461 1.13737045 0.50000000
0.21611461 1.20879902 0.42857143
0.21611461 1.28022760 -0.35714286
0.21611461 1.28022760 -0.21428571
0.21611461 1.28022760 -0.07142857
0.21611461 1.28022760 0.07142857
0.21611461 1.28022760 0.21428571
0.21611461 1.28022760 0.35714286
0.28754318 -1.21977240 -0.35714286
0.35897175 -1.21977240 -0.28571429
0.35897175 -1.29120098 -0.21428571
0.35897175 -1.29120098 -0.07142857
0.35897175 -1.29120098 0.07142857
0.28754318 -1.21977240 0.21428571
0.35897175 -1.21977240 0.14285714
0.35897175 -1.07691526 -0.71428571
0.35897175 -1.14834383 -0.64285714
0.35897175 -1.14834383 -0.50000000
0.35897175 -1.14834383 -0.35714286
0.35897175 -1.14834383 0.21428571
0.35897175 -1.14834383 0.35714286
0.28754318 -1.07691526 0.50000000
0.35897175 -1.07691526 0.42857143
0.35897175 -0.93405812 -0.85714286
0.35897175 -1.00548669 -0.78571429
0.35897175 -1.00548669 0.50000000
0.35897175 -1.00548669 0.64285714
0.35897175 -1.00548669 0.78571429
0.35897175 -0.93405812 0.85714286
0.35897175 -0.79120098 -0.85714286
0.35897175 -0.79120098 0.85714286
0.35897175 -0.64834383 -1.00000000
0.35897175 -0.71977240 -0.92857143
0.35897175 -0.71977240 0.92857143
0.35897175 -0.64834383 1.00000000
0.35897175 -0.50548669 -1.00000000
0.35897175 -0.50548669 1.00000000
0.35897175 -0.36262955 -1.00000000
0.35897175 -0.36262955 1.00000000
0.35897175 -0.21977240 -1.00000000
0.35897175 -0.21977240 1.00000000
0.35897175 -0.07691526 -1.00000000
0.35897175 -0.07691526 1.00000000
0.35897175 0.06594188 -1.00000000
0.35897175 0.06594188 1.00000000
0.35897175 0.20879902 -1.00000000
0.35897175 0.20879902 1.00000000
0.35897175 0.35165617 -1.00000000
0.35897175 0.35165617 1.00000000
0.35897175 0.49451331 -1.00000000
0.35897175 0.49451331 1.00000000
0.35897175 0.63737045 -1.00000000
0.35897175 0.63737045 1.00000000
0.35897175 0.78022760 -1.00000000
0.35897175 0.78022760 1.00000000
0.35897175 0.85165617 -0.92857143
0.35897175 0.92308474 -0.85714286
0.28754318 0.92308474 0.78571429
0.35897175 0.85165617 0.78571429
0.35897175 0.92308474 0.71428571
0.35897175 0.85165617 0.92857143
0.35897175 0.99451331 -0.78571429
0.28754318 1.06594188 -0.64285714
0.35897175 0.99451331 -0.64285714
0.35897175 1.06594188 -0.57142857
0.35897175 0.99451331 0.64285714
0.35897175 1.06594188 0.57142857
0.35897175 1.13737045 -0.50000000
0.35897175 1.20879902 -0.42857143
0.35897175 1.13737045 0.50000000
0.35897175 1.20879902 0.42857143
0.35897175 1.28022760 -0.35714286
0.35897175 1.28022760 -0.21428571
0.35897175 1.28022760 -0.07142857
0.35897175 1.28022760 0.07142857
0.35897175 1.28022760 0.21428571
0.35897175 1.28022760 0.35714286
0.43040033 -1.21977240 -0.21428571
0.43040033 -1.21977240 -0.07142857
0.43040033 -1.21977240 0.07142857
0.43040033 -1.07691526 -0.64285714
0.43040033 -1.07691526 -0.50000000
0.50182890 -1.07691526 -0.42857143
0.50182890 -1.14834383 -0.35714286
0.50182890 -1.14834383 -0.21428571
0.50182890 -1.14834383 -0.07142857
0.50182890 -1.14834383 0.07142857
0.50182890 -1.14834383 0.21428571
0.50182890 -1.14834383 0.35714286
0.50182890 -1.07691526 0.42857143
0.43040033 -0.93405812 -0.78571429
0.50182890 -0.93405812 -0.71428571
0.50182890 -1.00548669 -0.64285714
0.50182890 -1.00548669 -0.50000000
0.50182890 -1.00548669 0.50000000
0.43040033 -0.93405812 0.64285714
0.50182890 -0.93405812 0.57142857
0.43040033 -0.93405812 0.78571429
0.50182890 -0.79120098 -0.85714286
0.50182890 -0.86262955 -0.78571429
0.50182890 -0.86262955 0.64285714
0.50182890 -0.86262955 0.78571429
0.50182890 -0.79120098 0.85714286
0.43040033 -0.64834383 -0.92857143
0.50182890 -0.64834383 -0.85714286
0.43040033 -0.64834383 0.92857143
0.50182890 -0.64834383 0.85714286
0.50182890 -0.50548669 -1.00000000
0.50182890 -0.57691526 -0.92857143
0.50182890 -0.57691526 0.92857143
0.50182890 -0.50548669 1.00000000
0.50182890 -0.36262955 -1.00000000
0.50182890 -0.36262955 1.00000000
0.50182890 -0.21977240 -1.00000000
0.50182890 -0.21977240 1.00000000
0.50182890 -0.07691526 -1.00000000
0.50182890 -0.07691526 1.00000000
0.50182890 0.06594188 -1.00000000
0.50182890 0.06594188 1.00000000
0.50182890 0.20879902 -1.00000000
0.50182890 0.20879902 1.00000000
0.50182890 0.35165617 -1.00000000
0.50182890 0.35165617 1.00000000
0.50182890 0.49451331 -1.00000000
0.50182890 0.49451331 1.00000000
0.50182890 0.63737045 -1.00000000
0.50182890 0.63737045 1.00000000
0.50182890 0.70879902 -0.92857143
0.43040033 0.78022760 -0.92857143
0.50182890 0.78022760 -0.85714286
0.50182890 0.78022760 1.00000000
0.43040033 0.92308474 -0.78571429
0.50182890 0.85165617 -0.78571429
0.50182890 0.92308474 -0.71428571
0.50182890 0.85165617 0.78571429
0.50182890 0.92308474 0.71428571
0.50182890 0.85165617 0.92857143
0.50182890 0.99451331 -0.64285714
0.50182890 1.06594188 -0.57142857
0.43040033 1.06594188 0.50000000
0.50182890 0.99451331 0.50000000
0.50182890 1.06594188 0.42857143
0.50182890 0.99451331 0.64285714
0.50182890 1.13737045 -0.50000000
0.43040033 1.20879902 -0.35714286
0.50182890 1.13737045 -0.35714286
0.43040033 1.20879902 -0.21428571
0.50182890 1.13737045 -0.21428571
0.43040033 1.20879902 -0.07142857
0.50182890 1.13737045 -0.07142857
0.43040033 1.20879902 0.07142857
0.50182890 1.13737045 0.07142857
0.43040033 1.20879902 0.21428571
0.50182890 1.13737045 0.21428571
0.43040033 1.20879902 0.35714286
0.50182890 1.13737045 0.35714286
0.64468604 -1.07691526 -0.42857143
0.64468604 -1.14834383 -0.35714286
0.64468604 -1.14834383 -0.21428571
0.64468604 -1.14834383 -0.07142857
0.64468604 -1.14834383 0.07142857
0.64468604 -1.14834383 0.21428571
0.57325747 -1.07691526 0.35714286
0.64468604 -1.07691526 0.28571429
0.57325747 -0.93405812 -0.64285714
0.64468604 -0.93405812 -0.57142857
0.64468604 -1.00548669 -0.50000000
0.64468604 -1.00548669 0.35714286
0.64468604 -1.00548669 0.50000000
0.64468604 -0.93405812 0.57142857
0.57325747 -0.79120098 -0.78571429
0.64468604 -0.79120098 -0.71428571
0.64468604 -0.86262955 -0.64285714
0.64468604 -0.86262955 0.64285714
0.57325747 -0.79120098 0.78571429
0.64468604 -0.79120098 0.71428571
0.64468604 -0.64834383 -0.85714286
0.64468604 -0.71977240 -0.78571429
0.64468604 -0.71977240 0.78571429
0.64468604 -0.64834383 0.85714286
0.57325747 -0.50548669 -0.92857143
0.64468604 -0.50548669 -0.85714286
0.57325747 -0.50548669 0.92857143
0.64468604 -0.50548669 0.85714286
0.64468604 -0.36262955 -1.00000000
0.64468604 -0.43405812 -0.92857143
0.64468604 -0.43405812 0.92857143
0.64468604 -0.36262955 1.00000000
0.64468604 -0.21977240 -1.00000000
0.64468604 -0.21977240 1.00000000
0.64468604 -0.07691526 -1.00000000
0.64468604 -0.07691526 1.00000000
0.64468604 0.06594188 -1.00000000
0.64468604 0.06594188 1.00000000
0.64468604 0.20879902 -1.00000000
0.64468604 0.20879902 1.00000000
0.64468604 0.35165617 -1.00000000
0.64468604 0.35165617 1.00000000
0.64468604 0.42308474 -0.92857143
0.57325747 0.49451331 -0.92857143
0.64468604 0.49451331 -0.85714286
0.64468604 0.49451331 1.00000000
0.57325747 0.63737045 -0.92857143
0.64468604 0.63737045 -0.85714286
0.57325747 0.63737045 0.92857143
0.64468604 0.56594188 0.92857143
0.64468604 0.63737045 0.85714286
0.64468604 0.78022760 -0.85714286
0.57325747 0.78022760 0.78571429
0.64468604 0.70879902 0.78571429
0.64468604 0.78022760 0.71428571
0.57325747 0.78022760 0.92857143
0.64468604 0.85165617 -0.78571429
0.57325747 0.92308474 -0.64285714
0.64468604 0.85165617 -0.64285714
0.64468604 0.92308474 -0.57142857
0.57325747 0.92308474 0.64285714
0.64468604 0.85165617 0.64285714
0.64468604 0.92308474 0.57142857
0.57325747 1.06594188 -0.50000000
0.64468604 0.99451331 -0.50000000
0.64468604 1.06594188 -0.42857143
0.57325747 1.06594188 0.35714286
0.64468604 0.99451331 0.35714286
0.64468604 1.06594188 0.28571429
0.64468604 0.99451331 0.50000000
0.64468604 1.13737045 -0.35714286
0.64468604 1.13737045 -0.21428571
0.64468604 1.13737045 -0.07142857
0.64468604 1.13737045 0.07142857
0.64468604 1.13737045 0.21428571
0.71611461 -1.07691526 -0.35714286
0.71611461 -1.07691526 -0.21428571
0.71611461 -1.07691526 -0.07142857
0.71611461 -1.07691526 0.07142857
0.71611461 -1.07691526 0.21428571
0.71611461 -0.93405812 -0.50000000
0.78754318 -0.93405812 -0.42857143
0.78754318 -1.00548669 -0.35714286
0.78754318 -1.00548669 -0.21428571
0.78754318 -1.00548669 -0.07142857
0.78754318 -1.00548669 0.07142857
0.78754318 -1.00548669 0.21428571
0.78754318 -1.00548669 0.35714286
0.71611461 -0.93405812 0.50000000
0.78754318 -0.93405812 0.42857143
0.71611461 -0.79120098 -0.64285714
0.78754318 -0.79120098 -0.57142857
0.78754318 -0.86262955 -0.50000000
0.78754318 -0.86262955 0.50000000
0.71611461 -0.79120098 0.64285714
0.78754318 -0.79120098 0.57142857
0.71611461 -0.64834383 -0.78571429
0.78754318 -0.64834383 -0.71428571
0.78754318 -0.71977240 -0.64285714
0.78754318 -0.71977240 0.64285714
0.71611461 -0.64834383 0.78571429
0.78754318 -0.64834383 0.71428571
0.78754318 -0.50548669 -0.85714286
0.78754318 -0.57691526 -0.78571429
0.71611461 -0.50548669 0.78571429
0.78754318 -0.50548669 0.71428571
0.71611461 -0.36262955 -0.92857143
0.78754318 -0.36262955 -0.85714286
0.78754318 -0.43405812 0.78571429
0.71611461 -0.36262955 0.92857143
0.78754318 -0.36262955 0.85714286
0.78754318 -0.21977240 -1.00000000
0.78754318 -0.29120098 -0.92857143
0.71611461 -0.21977240 0.92857143
0.78754318 -0.21977240 0.85714286
0.78754318 -0.07691526 -1.00000000
0.78754318 -0.14834383 0.92857143
0.78754318 -0.07691526 1.00000000
0.78754318 0.06594188 -1.00000000
0.78754318 0.06594188 1.00000000
0.78754318 0.20879902 -1.00000000
0.78754318 0.20879902 1.00000000
0.78754318 0.28022760 -0.92857143
0.71611461 0.35165617 -0.92857143
0.78754318 0.35165617 -0.85714286
0.71611461 0.35165617 0.92857143
0.78754318 0.28022760 0.92857143
0.78754318 0.35165617 0.85714286
0.78754318 0.49451331 -0.85714286
0.71611461 0.49451331 0.78571429
0.78754318 0.42308474 0.78571429
0.78754318 0.49451331 0.71428571
0.71611461 0.49451331 0.92857143
0.78754318 0.56594188 -0.78571429
0.71611461 0.63737045 -0.78571429
0.78754318 0.63737045 -0.71428571
0.71611461 0.63737045 0.64285714
0.78754318 0.56594188 0.64285714
0.78754318 0.63737045 0.57142857
0.71611461 0.63737045 0.78571429
0.71611461 0.78022760 -0.78571429
0.78754318 0.70879902 -0.64285714
0.71611461 0.78022760 -0.64285714
0.78754318 0.78022760 -0.57142857
0.71611461 0.78022760 0.50000000
0.78754318 0.70879902 0.50000000
0.78754318 0.78022760 0.42857143
0.71611461 0.78022760 0.64285714
0.71611461 0.92308474 -0.50000000
0.78754318 0.85165617 -0.50000000
0.78754318 0.92308474 -0.42857143
0.71611461 0.92308474 0.35714286
0.78754318 0.85165617 0.35714286
0.78754318 0.92308474 0.28571429
0.71611461 0.92308474 0.50000000
0.71611461 1.06594188 -0.35714286
0.78754318 0.99451331 -0.35714286
0.71611461 1.06594188 -0.21428571
0.78754318 0.99451331 -0.21428571
0.71611461 1.06594188 -0.07142857
0.78754318 0.99451331 -0.07142857
0.71611461 1.06594188 0.07142857
0.78754318 0.99451331 0.07142857
0.71611461 1.06594188 0.21428571
0.78754318 0.99451331 0.21428571
0.85897175 -0.93405812 -0.35714286
0.85897175 -0.93405812 -0.21428571
0.85897175 -0.93405812 -0.07142857
0.85897175 -0.93405812 0.07142857
0.85897175 -0.93405812 0.21428571
0.85897175 -0.93405812 0.35714286
0.85897175 -0.79120098 -0.50000000
0.93040033 -0.79120098 -0.42857143
0.93040033 -0.86262955 -0.35714286
0.93040033 -0.86262955 -0.21428571
0.93040033 -0.86262955 -0.07142857
0.93040033 -0.86262955 0.07142857
0.93040033 -0.86262955 0.21428571
0.93040033 -0.86262955 0.35714286
0.85897175 -0.79120098 0.50000000
0.93040033 -0.79120098 0.42857143
0.85897175 -0.64834383 -0.64285714
0.93040033 -0.64834383 -0.57142857
0.93040033 -0.71977240 -0.50000000
0.93040033 -0.71977240 0.50000000
0.85897175 -0.64834383 0.64285714
0.93040033 -0.64834383 0.57142857
0.85897175 -0.50548669 -0.78571429
0.93040033 -0.50548669 -0.71428571
0.93040033 -0.57691526 -0.64285714
0.93040033 -0.57691526 0.64285714
0.93040033 -0.50548669 0.71428571
0.85897175 -0.36262955 -0.78571429
0.93040033 -0.36262955 -0.71428571
0.85897175 -0.36262955 0.78571429
0.93040033 -0.36262955 0.71428571
0.85897175 -0.21977240 -0.92857143
0.93040033 -0.21977240 -0.85714286
0.93040033 -0.29120098 -0.78571429
0.93040033 -0.29120098 0.78571429
0.93040033 -0.21977240 0.85714286
0.85897175 -0.07691526 -0.92857143
0.93040033 -0.07691526 -0.85714286
0.85897175 -0.07691526 0.92857143
0.93040033 -0.07691526 0.85714286
0.85897175 0.06594188 -0.92857143
0.93040033 0.06594188 -0.85714286
0.85897175 0.06594188 0.92857143
0.93040033 0.06594188 0.85714286
0.85897175 0.20879902 -0.92857143
0.93040033 0.20879902 -0.85714286
0.85897175 0.20879902 0.92857143
0.93040033 0.20879902 0.85714286
0.93040033 0.35165617 -0.85714286
0.85897175 0.35165617 0.78571429
0.93040033 0.28022760 0.78571429
0.93040033 0.35165617 0.71428571
0.93040033 0.42308474 -0.78571429
0.85897175 0.49451331 -0.78571429
0.93040033 0.49451331 -0.71428571
0.85897175 0.49451331 0.64285714
0.93040033 0.42308474 0.64285714
0.93040033 0.49451331 0.57142857
0.93040033 0.63737045 -0.71428571
0.93040033 0.63737045 0.57142857
0.93040033 0.70879902 -0.64285714
0.85897175 0.78022760 -0.50000000
0.93040033 0.70879902 -0.50000000
0.93040033 0.78022760 -0.42857143
0.93040033 0.70879902 0.50000000
0.93040033 0.78022760 0.42857143
0.85897175 0.92308474 -0.35714286
0.93040033 0.85165617 -0.35714286
0.85897175 0.92308474 -0.21428571
0.93040033 0.85165617 -0.21428571
0.85897175 0.92308474 -0.07142857
0.93040033 0.85165617 -0.07142857
0.85897175 0.92308474 0.07142857
0.93040033 0.85165617 0.07142857
0.85897175 0.92308474 0.21428571
0.93040033 0.85165617 0.21428571
0.93040033 0.85165617 0.35714286
1.00182890 -0.79120098 -0.35714286
1.00182890 -0.79120098 -0.21428571
1.00182890 -0.79120098 -0.07142857
1.00182890 -0.79120098 0.07142857
1.00182890 -0.79120098 0.21428571
1.00182890 -0.79120098 0.35714286
1.00182890 -0.64834383 -0.50000000
1.07325747 -0.64834383 -0.42857143
1.07325747 -0.71977240 -0.35714286
1.07325747 -0.71977240 -0.21428571
1.07325747 -0.71977240 -0.07142857
1.07325747 -0.71977240 0.07142857
1.07325747 -0.71977240 0.21428571
1.07325747 -0.64834383 0.28571429
1.00182890 -0.64834383 0.35714286
1.00182890 -0.64834383 0.50000000
1.00182890 -0.50548669 -0.64285714
1.07325747 -0.50548669 -0.57142857
1.07325747 -0.57691526 -0.50000000
1.00182890 -0.50548669 0.35714286
1.07325747 -0.50548669 0.28571429
1.00182890 -0.50548669 0.50000000
1.00182890 -0.50548669 0.64285714
1.00182890 -0.36262955 -0.64285714
1.07325747 -0.36262955 -0.57142857
1.07325747 -0.43405812 0.35714286
1.07325747 -0.43405812 0.50000000
1.07325747 -0.36262955 0.57142857
1.00182890 -0.36262955 0.64285714
1.00182890 -0.21977240 -0.78571429
1.07325747 -0.21977240 -0.71428571
1.07325747 -0.29120098 -0.64285714
1.07325747 -0.29120098 0.64285714
1.00182890 -0.21977240 0.78571429
1.07325747 -0.21977240 0.71428571
1.00182890 -0.07691526 -0.78571429
1.07325747 -0.07691526 -0.71428571
1.00182890 -0.07691526 0.64285714
1.07325747 -0.14834383 0.64285714
1.07325747 -0.07691526 0.57142857
1.00182890 -0.07691526 0.78571429
1.00182890 0.06594188 -0.78571429
1.07325747 0.06594188 -0.71428571
1.00182890 0.06594188 0.64285714
1.07325747 0.06594188 0.57142857
1.00182890 0.06594188 0.78571429
1.00182890 0.20879902 -0.78571429
1.07325747 0.20879902 -0.71428571
1.00182890 0.20879902 0.64285714
1.07325747 0.20879902 0.57142857
1.00182890 0.20879902 0.78571429
1.00182890 0.35165617 -0.78571429
1.07325747 0.28022760 -0.64285714
1.00182890 0.35165617 -0.64285714
1.07325747 0.35165617 -0.57142857
1.00182890 0.35165617 0.64285714
1.07325747 0.35165617 0.57142857
1.00182890 0.49451331 -0.64285714
1.07325747 0.42308474 -0.50000000
1.00182890 0.49451331 -0.50000000
1.07325747 0.49451331 -0.42857143
1.00182890 0.49451331 0.50000000
1.07325747 0.42308474 0.50000000
1.07325747 0.49451331 0.42857143
1.00182890 0.63737045 -0.64285714
1.00182890 0.63737045 -0.50000000
1.07325747 0.56594188 -0.35714286
1.00182890 0.63737045 -0.35714286
1.07325747 0.63737045 -0.28571429
1.00182890 0.63737045 0.35714286
1.07325747 0.56594188 0.35714286
1.07325747 0.63737045 0.28571429
1.00182890 0.63737045 0.50000000
1.00182890 0.78022760 -0.35714286
1.07325747 0.70879902 -0.21428571
1.00182890 0.78022760 -0.21428571
1.00182890 0.78022760 -0.07142857
1.07325747 0.70879902 -0.07142857
1.00182890 0.78022760 0.07142857
1.07325747 0.70879902 0.07142857
1.00182890 0.78022760 0.21428571
1.07325747 0.70879902 0.21428571
1.00182890 0.78022760 0.35714286
1.14468604 -0.64834383 -0.35714286
1.14468604 -0.64834383 -0.21428571
1.14468604 -0.64834383 -0.07142857
1.14468604 -0.64834383 0.07142857
1.14468604 -0.64834383 0.21428571
1.14468604 -0.50548669 -0.50000000
1.14468604 -0.50548669 -0.35714286
1.14468604 -0.50548669 -0.21428571
1.14468604 -0.50548669 -0.07142857
1.14468604 -0.50548669 0.07142857
1.14468604 -0.50548669 0.21428571
1.14468604 -0.36262955 -0.50000000
1.14468604 -0.36262955 -0.35714286
1.21611461 -0.36262955 -0.28571429
1.21611461 -0.43405812 -0.21428571
1.21611461 -0.43405812 -0.07142857
1.21611461 -0.43405812 0.07142857
1.21611461 -0.43405812 0.21428571
1.14468604 -0.36262955 0.35714286
1.21611461 -0.36262955 0.28571429
1.14468604 -0.36262955 0.50000000
1.14468604 -0.21977240 -0.64285714
1.14468604 -0.21977240 -0.50000000
1.21611461 -0.21977240 -0.42857143
1.21611461 -0.29120098 -0.35714286
1.14468604 -0.21977240 0.35714286
1.21611461 -0.21977240 0.28571429
1.14468604 -0.21977240 0.50000000
1.14468604 -0.21977240 0.64285714
1.14468604 -0.07691526 -0.64285714
1.14468604 -0.07691526 -0.50000000
1.21611461 -0.07691526 -0.42857143
1.14468604 -0.07691526 0.35714286
1.21611461 -0.07691526 0.28571429
1.14468604 -0.07691526 0.50000000
1.14468604 0.06594188 -0.64285714
1.14468604 0.06594188 -0.50000000
1.21611461 0.06594188 -0.42857143
1.21611461 -0.00548669 0.35714286
1.21611461 0.06594188 0.42857143
1.14468604 0.06594188 0.50000000
1.14468604 0.20879902 -0.64285714
1.14468604 0.20879902 -0.50000000
1.21611461 0.20879902 -0.42857143
1.14468604 0.20879902 0.35714286
1.21611461 0.13737045 0.35714286
1.21611461 0.20879902 0.28571429
1.14468604 0.20879902 0.50000000
1.14468604 0.35165617 -0.50000000
1.21611461 0.28022760 -0.35714286
1.14468604 0.35165617 -0.35714286
1.21611461 0.35165617 -0.28571429
1.14468604 0.35165617 0.21428571
1.21611461 0.28022760 0.21428571
1.21611461 0.35165617 0.14285714
1.14468604 0.35165617 0.35714286
1.14468604 0.35165617 0.50000000
1.14468604 0.49451331 -0.35714286
1.21611461 0.42308474 -0.21428571
1.14468604 0.49451331 -0.21428571
1.14468604 0.49451331 -0.07142857
1.21611461 0.42308474 -0.07142857
1.14468604 0.49451331 0.07142857
1.21611461 0.42308474 0.07142857
1.14468604 0.49451331 0.21428571
1.14468604 0.49451331 0.35714286
1.14468604 0.63737045 -0.21428571
1.14468604 0.63737045 -0.07142857
1.14468604 0.63737045 0.07142857
1.14468604 0.63737045 0.21428571
1.28754318 -0.36262955 -0.21428571
1.28754318 -0.36262955 -0.07142857
1.28754318 -0.36262955 0.07142857
1.28754318 -0.36262955 0.21428571
1.28754318 -0.21977240 -0.35714286
1.28754318 -0.21977240 -0.21428571
1.28754318 -0.21977240 -0.07142857
1.28754318 -0.21977240 0.07142857
1.28754318 -0.21977240 0.21428571
1.28754318 -0.07691526 -0.35714286
1.28754318 -0.07691526 -0.21428571
1.28754318 -0.07691526 -0.07142857
1.28754318 -0.07691526 0.07142857
1.28754318 -0.07691526 0.21428571
1.28754318 0.06594188 -0.35714286
1.28754318 0.06594188 -0.21428571
1.28754318 0.06594188 -0.07142857
1.28754318 0.06594188 0.07142857
1.28754318 0.06594188 0.21428571
1.28754318 0.06594188 0.35714286
1.28754318 0.20879902 -0.35714286
1.28754318 0.20879902 -0.21428571
1.28754318 0.20879902 -0.07142857
1.28754318 0.20879902 0.07142857
1.28754318 0.20879902 0.21428571
1.28754318 0.35165617 -0.21428571
1.28754318 0.35165617 -0.07142857
1.28754318 0.35165617 0.07142857
3 2 1 0
3 4 3 0
3 0 3 2
3 6 5 4
3 4 5 3
3 8 7 6
3 6 7 5
3 8 9 7
3 12 11 10
3 12 10 1
3 10 0 1
3 10 13 0
3 0 14 4
3 0 13 14
3 4 15 6
3 4 14 15
3 6 16 8
3 6 15 16
3 9 8 17
3 17 8 16
3 10 11 18
3 18 11 19
3 10 20 13
3 10 18 20
3 13 21 14
3 13 20 21
3 14 22 15
3 14 21 22
3 15 23 16
3 15 22 23
3 17 16 24
3 16 25 24
3 16 23 25
3 25 26 24
3 18 19 27
3 27 19 28
3 18 29 20
3 18 27 29
3 20 30 21
3 20 29 30
3 21 31 22
3 21 30 31
3 22 32 23
3 22 31 32
3 23 33 25
3 23 32 33
3 26 25 34
3 34 25 33
3 27 28 35
3 35 28 36
3 27 37 29
3 27 35 37
3 29 38 30
3 29 37 38
3 30 39 31
3 30 38 39
3 31 40 32
3 31 39 40
3 32 41 33
3 32 40 41
3 34 33 42
3 42 33 41
3 35 36 43
3 43 36 44
3 35 45 37
3 35 43 45
3 37 46 38
3 37 45 46
3 38 47 39
3 38 46 47
3 39 48 40
3 39 47 48
3 50 41 49
3 41 48 49
3 41 40 48
3 41 50 42
3 44 51 43
3 43 51 45
3 45 51 52
3 45 52 46
3 46 52 53
3 46 53 47
3 47 53 54
3 47 54 48
3 48 54 55
3 48 55 49
3 58 57 56
3 60 59 56
3 56 59 58
3 62 61 60
3 60 61 59
3 64 63 62
3 62 63 61
3 66 65 64
3 64 65 63
3 66 67 65
3 70 69 68
3 70 68 57
3 68 56 57
3 68 71 56
3 56 72 60
3 56 71 72
3 60 73 62
3 60 72 73
3 62 74 64
3 62 73 74
3 64 75 66
3 64 74 75
3 67 66 76
3 66 77 76
3 66 75 77
3 77 78 76
3 68 69 79
3 79 69 80
3 68 81 71
3 68 79 81
3 81 1 2
3 72 81 2
3 71 81 72
3 72 2 3
3 72 3 73
3 73 3 5
3 73 5 74
3 74 5 7
3 74 7 75
3 75 7 9
3 82 75 9
3 77 75 82
3 78 77 83
3 77 84 83
3 77 82 84
3 84 85 83
3 88 87 86
3 88 86 80
3 86 79 80
3 86 89 79
3 89 11 12
3 81 89 12
3 79 89 81
3 81 12 1
3 17 90 82
3 17 82 9
3 82 91 84
3 82 90 91
3 85 84 92
3 92 84 91
3 86 87 93
3 93 87 94
3 86 95 89
3 86 93 95
3 95 19 11
3 95 11 89
3 24 90 17
3 90 24 26
3 96 90 26
3 91 90 96
3 92 91 97
3 97 91 96
3 93 94 98
3 98 94 99
3 93 100 95
3 93 98 100
3 100 28 19
3 100 19 95
3 34 101 96
3 34 96 26
3 97 96 102
3 102 96 101
3 98 99 103
3 103 99 104
3 98 105 100
3 98 103 105
3 105 36 28
3 105 28 100
3 42 106 101
3 42 101 34
3 102 101 107
3 107 101 106
3 104 108 103
3 110 109 108
3 109 103 108
3 109 105 103
3 109 44 36
3 109 36 105
3 49 111 50
3 106 42 50
3 111 106 50
3 112 106 111
3 107 106 113
3 113 106 112
3 109 110 114
3 114 110 115
3 116 51 44
3 109 116 44
3 114 116 109
3 117 52 51
3 117 51 116
3 118 53 52
3 118 52 117
3 119 54 53
3 119 53 118
3 120 55 54
3 120 54 119
3 111 49 55
3 120 111 55
3 121 111 120
3 111 122 112
3 111 121 122
3 113 112 123
3 123 112 122
3 115 124 114
3 126 125 124
3 125 114 124
3 125 116 114
3 116 127 117
3 116 125 127
3 117 128 118
3 117 127 128
3 118 129 119
3 118 128 129
3 119 130 120
3 119 129 130
3 132 121 131
3 121 130 131
3 121 120 130
3 121 132 122
3 122 132 133
3 122 133 123
3 126 134 125
3 125 134 127
3 127 134 135
3 127 135 128
3 128 135 136
3 128 136 129
3 129 136 137
3 129 137 130
3 130 137 138
3 130 138 131
3 141 140 139
3 143 142 139
3 139 142 141
3 145 144 143
3 143 144 142
3 147 146 145
3 145 146 144
3 149 148 147
3 147 148 146
3 151 150 149
3 149 150 148
3 151 152 150
3 155 154 153
3 157 156 153
3 153 156 155
3 156 157 140
3 140 157 139
3 157 57 139
3 57 58 139
3 139 58 59
3 139 59 143
3 143 59 61
3 143 61 145
3 145 61 63
3 145 63 147
3 147 63 65
3 147 65 149
3 149 65 67
3 158 149 67
3 151 149 158
3 152 151 159
3 151 160 159
3 151 158 160
3 160 161 159
3 153 154 162
3 162 154 163
3 162 69 70
3 157 162 70
3 153 162 157
3 157 70 57
3 76 158 67
3 158 76 78
3 164 158 78
3 160 158 164
3 161 160 165
3 160 166 165
3 160 164 166
3 166 167 165
3 170 169 168
3 170 168 163
3 168 162 163
3 168 171 162
3 171 80 69
3 171 69 162
3 83 164 78
3 164 83 85
3 172 164 85
3 166 164 172
3 167 166 173
3 166 174 173
3 166 172 174
3 174 175 173
3 168 169 176
3 176 169 177
3 176 87 88
3 171 176 88
3 168 176 171
3 171 88 80
3 92 178 172
3 92 172 85
3 172 179 174
3 172 178 179
3 175 174 180
3 180 174 179
3 176 177 181
3 181 177 182
3 181 94 87
3 181 87 176
3 97 183 178
3 97 178 92
3 178 184 179
3 178 183 184
3 180 179 185
3 185 179 184
3 181 182 186
3 186 182 187
3 186 99 94
3 186 94 181
3 102 188 183
3 102 183 97
3 183 189 184
3 183 188 189
3 185 184 190
3 190 184 189
3 186 187 191
3 191 187 192
3 191 104 99
3 191 99 186
3 107 193 188
3 107 188 102
3 188 194 189
3 188 193 194
3 190 189 195
3 195 189 194
3 191 192 196
3 196 192 197
3 198 108 104
3 191 198 104
3 196 198 191
3 198 110 108
3 113 199 193
3 113 193 107
3 201 194 200
3 194 199 200
3 194 193 199
3 194 201 195
3 197 202 196
3 204 203 202
3 203 196 202
3 203 198 196
3 203 115 110
3 203 110 198
3 123 205 199
3 123 199 113
3 200 199 206
3 206 199 205
3 204 207 203
3 207 209 208
3 207 208 124
3 203 207 124
3 115 203 124
3 208 126 124
3 131 210 132
3 211 133 132
3 211 132 210
3 211 212 133
3 133 212 123
3 212 213 123
3 213 205 123
3 205 213 206
3 209 214 208
3 214 216 215
3 214 215 134
3 208 214 134
3 126 208 134
3 217 135 134
3 217 134 215
3 218 136 135
3 218 135 217
3 219 137 136
3 219 136 218
3 220 138 137
3 220 137 219
3 210 131 138
3 220 210 138
3 221 210 220
3 210 222 211
3 210 221 222
3 212 211 223
3 223 211 222
3 216 224 215
3 215 224 217
3 217 224 225
3 217 225 218
3 218 225 226
3 218 226 219
3 219 226 227
3 229 228 227
3 228 219 227
3 228 220 219
3 220 230 221
3 220 228 230
3 232 222 231
3 222 230 231
3 222 221 230
3 222 232 223
3 229 233 228
3 228 233 230
3 230 233 234
3 230 234 231
3 237 236 235
3 239 238 235
3 235 238 237
3 241 240 239
3 239 240 238
3 243 242 241
3 241 242 240
3 245 244 243
3 243 244 242
3 245 246 244
3 249 248 247
3 251 250 247
3 247 250 249
3 250 251 236
3 236 251 235
3 251 140 235
3 140 141 235
3 235 141 142
3 235 142 239
3 239 142 144
3 239 144 241
3 241 144 146
3 241 146 243
3 243 146 148
3 243 148 245
3 252 246 245
3 148 252 245
3 150 252 148
3 254 253 152
3 253 150 152
3 253 252 150
3 254 255 253
3 247 248 155
3 248 154 155
3 248 256 154
3 247 155 156
3 247 156 251
3 251 156 140
3 159 254 152
3 258 257 161
3 161 257 159
3 257 255 159
3 255 254 159
3 258 259 257
3 262 261 260
3 256 262 260
3 163 256 260
3 154 256 163
3 165 258 161
3 264 263 167
3 167 263 165
3 263 259 165
3 259 258 165
3 264 265 263
3 260 261 170
3 261 169 170
3 261 266 169
3 260 170 163
3 173 264 167
3 268 267 175
3 175 267 173
3 267 265 173
3 265 264 173
3 268 269 267
3 266 177 169
3 270 177 266
3 180 271 268
3 180 268 175
3 269 268 272
3 272 268 271
3 275 274 273
3 270 275 273
3 182 270 273
3 177 270 182
3 185 276 271
3 185 271 180
3 272 271 277
3 277 271 276
3 273 274 278
3 278 274 279
3 278 187 182
3 278 182 273
3 281 280 276
3 185 281 276
3 190 281 185
3 276 280 277
3 279 282 278
3 187 278 282
3 283 187 282
3 192 187 283
3 195 281 190
3 195 284 281
3 283 197 192
3 285 197 283
3 200 286 201
3 286 287 201
3 287 195 201
3 287 284 195
3 202 197 288
3 197 289 288
3 197 285 289
3 288 204 202
3 206 290 286
3 206 286 200
3 287 286 291
3 291 286 290
3 289 292 288
3 292 294 293
3 292 293 207
3 288 292 207
3 204 288 207
3 293 209 207
3 212 295 213
3 295 296 213
3 213 296 206
3 296 297 206
3 297 290 206
3 290 297 291
3 293 294 298
3 298 294 299
3 300 214 209
3 293 300 209
3 298 300 293
3 300 216 214
3 302 301 295
3 212 302 295
3 223 302 212
3 295 301 296
3 299 303 298
3 298 303 300
3 300 303 304
3 304 306 305
3 304 305 224
3 300 304 224
3 216 300 224
3 307 225 224
3 307 224 305
3 308 226 225
3 308 225 307
3 309 227 226
3 309 226 308
3 309 229 227
3 231 310 232
3 310 311 232
3 311 223 232
3 311 302 223
3 306 312 305
3 305 312 307
3 307 312 313
3 307 313 308
3 308 313 314
3 308 314 309
3 309 314 315
3 309 315 229
3 315 233 229
3 315 316 233
3 233 317 234
3 316 317 233
3 231 234 310
3 234 318 310
3 234 317 318
3 310 318 311
3 321 320 319
3 323 322 319
3 319 322 321
3 325 324 323
3 323 324 322
3 327 326 325
3 325 326 324
3 327 328 326
3 331 330 329
3 236 237 329
3 237 331 329
3 237 332 331
3 238 319 320
3 332 238 320
3 237 238 332
3 319 238 240
3 319 240 323
3 323 240 242
3 323 242 325
3 325 242 244
3 325 244 327
3 334 333 246
3 246 333 244
3 333 328 244
3 328 327 244
3 336 335 334
3 334 335 333
3 336 337 335
3 340 339 338
3 248 249 338
3 249 340 338
3 249 341 340
3 250 329 330
3 341 250 330
3 249 250 341
3 329 250 236
3 252 334 246
3 334 252 253
3 334 253 336
3 343 342 255
3 255 342 253
3 342 337 253
3 337 336 253
3 343 344 342
3 338 339 345
3 345 339 346
3 345 256 248
3 345 248 338
3 257 343 255
3 348 347 259
3 259 347 257
3 347 344 257
3 344 343 257
3 348 349 347
3 345 346 262
3 346 261 262
3 346 350 261
3 345 262 256
3 263 348 259
3 352 351 265
3 265 351 263
3 351 349 263
3 349 348 263
3 352 353 351
3 356 355 354
3 350 356 354
3 266 350 354
3 261 350 266
3 267 352 265
3 267 269 352
3 269 353 352
3 269 357 353
3 354 355 358
3 358 355 359
3 358 270 266
3 358 266 354
3 272 357 269
3 272 360 357
3 358 359 275
3 359 274 275
3 359 361 274
3 358 275 270
3 277 360 272
3 277 362 360
3 361 279 274
3 363 279 361
3 281 364 280
3 364 365 280
3 365 277 280
3 365 362 277
3 282 279 366
3 279 367 366
3 279 363 367
3 366 283 282
3 284 368 364
3 284 364 281
3 365 364 369
3 369 364 368
3 366 367 370
3 370 367 371
3 370 285 283
3 370 283 366
3 287 372 368
3 287 368 284
3 369 368 373
3 373 368 372
3 371 374 370
3 285 370 374
3 375 285 374
3 289 285 375
3 377 376 372
3 287 377 372
3 291 377 287
3 372 376 373
3 292 289 378
3 289 379 378
3 289 375 379
3 378 294 292
3 296 380 297
3 380 381 297
3 381 291 297
3 381 377 291
3 379 382 378
3 294 378 382
3 383 294 382
3 299 294 383
3 302 384 301
3 384 385 301
3 301 385 296
3 385 386 296
3 386 380 296
3 380 386 381
3 303 299 387
3 299 388 387
3 299 383 388
3 389 304 303
3 389 303 387
3 389 306 304
3 391 390 384
3 302 391 384
3 311 391 302
3 384 390 385
3 388 392 387
3 387 392 389
3 389 392 393
3 393 395 394
3 393 394 312
3 389 393 312
3 306 389 312
3 396 313 312
3 396 312 394
3 397 314 313
3 397 313 396
3 398 315 314
3 398 314 397
3 399 316 315
3 399 315 398
3 400 317 316
3 400 316 399
3 401 318 317
3 401 317 400
3 401 402 318
3 402 311 318
3 402 391 311
3 395 403 394
3 394 403 396
3 396 403 404
3 396 404 397
3 397 404 405
3 397 405 398
3 398 405 406
3 398 406 399
3 399 406 407
3 399 407 400
3 400 407 408
3 400 408 401
3 401 408 409
3 401 409 402
3 412 411 410
3 414 413 410
3 410 413 412
3 320 321 414
3 321 413 414
3 321 415 413
3 416 321 322
3 416 415 321
3 417 322 324
3 417 416 322
3 418 324 326
3 418 417 324
3 420 419 328
3 419 326 328
3 419 418 326
3 420 421 419
3 424 423 422
3 424 422 411
3 411 422 410
3 422 330 410
3 330 331 410
3 410 331 332
3 410 332 414
3 414 332 320
3 333 420 328
3 425 421 420
3 333 425 420
3 335 425 333
3 427 426 337
3 426 335 337
3 426 425 335
3 427 428 426
3 430 429 340
3 340 429 339
3 341 422 423
3 430 341 423
3 340 341 430
3 422 341 330
3 342 427 337
3 432 431 344
3 344 431 342
3 431 428 342
3 428 427 342
3 432 433 431
3 429 346 339
3 434 346 429
3 347 432 344
3 347 349 432
3 349 433 432
3 349 435 433
3 438 437 436
3 434 438 436
3 350 434 436
3 346 434 350
3 439 435 349
3 439 349 351
3 351 353 439
3 439 353 440
3 436 437 356
3 437 355 356
3 437 441 355
3 436 356 350
3 357 440 353
3 357 442 440
3 441 359 355
3 443 359 441
3 360 442 357
3 360 444 442
3 443 361 359
3 445 361 443
3 362 444 360
3 362 446 444
3 445 363 361
3 447 363 445
3 365 446 362
3 365 448 446
3 447 367 363
3 449 367 447
3 369 448 365
3 369 450 448
3 449 371 367
3 451 371 449
3 373 450 369
3 373 452 450
3 374 371 453
3 371 454 453
3 371 451 454
3 453 375 374
3 377 455 376
3 455 456 376
3 456 373 376
3 456 452 373
3 454 457 453
3 375 453 457
3 458 375 457
3 379 375 458
3 381 459 455
3 381 455 377
3 456 455 460
3 460 455 459
3 382 379 461
3 379 462 461
3 379 458 462
3 461 383 382
3 385 463 386
3 463 464 386
3 386 464 381
3 464 465 381
3 465 459 381
3 459 465 460
3 462 466 461
3 383 461 466
3 467 383 466
3 388 383 467
3 391 468 390
3 468 469 390
3 390 469 385
3 469 470 385
3 470 463 385
3 463 470 464
3 467 471 388
3 388 471 392
3 392 472 393
3 471 472 392
3 395 393 472
3 395 472 473
3 475 474 468
3 391 475 468
3 402 475 391
3 468 474 469
3 473 476 395
3 395 476 403
3 403 477 404
3 476 477 403
3 404 478 405
3 477 478 404
3 405 479 406
3 478 479 405
3 406 480 407
3 479 480 406
3 407 481 408
3 480 481 407
3 408 482 409
3 481 482 408
3 402 409 475
3 475 409 482
3 485 484 483
3 487 486 483
3 483 486 485
3 489 488 487
3 487 488 486
3 491 490 489
3 489 490 488
3 493 492 491
3 491 492 490
3 493 494 492
3 496 495 412
3 412 495 411
3 413 483 484
3 496 413 484
3 412 413 496
3 483 413 415
3 483 415 487
3 487 415 416
3 487 416 489
3 489 416 417
3 489 417 491
3 491 417 418
3 491 418 493
3 497 494 493
3 418 497 493
3 419 497 418
3 499 498 421
3 498 419 421
3 498 497 419
3 499 500 498
3 502 501 424
3 424 501 423
3 424 411 495
3 424 495 502
3 425 499 421
3 503 500 499
3 425 503 499
3 426 503 425
3 426 428 503
3 503 428 504
3 506 505 430
3 430 505 429
3 430 423 501
3 430 501 506
3 507 504 428
3 507 428 431
3 431 433 507
3 507 433 508
3 511 510 509
3 505 511 509
3 434 505 509
3 429 505 434
3 435 513 512
3 508 435 512
3 433 435 508
3 513 514 512
3 509 510 438
3 510 437 438
3 510 515 437
3 509 438 434
3 439 513 435
3 439 440 513
3 440 514 513
3 440 516 514
3 515 441 437
3 517 441 515
3 442 516 440
3 442 518 516
3 517 443 441
3 519 443 517
3 444 518 442
3 444 520 518
3 519 445 443
3 521 445 519
3 446 520 444
3 446 522 520
3 521 447 445
3 523 447 521
3 448 522 446
3 448 524 522
3 523 449 447
3 525 449 523
3 450 524 448
3 450 526 524
3 525 451 449
3 527 451 525
3 452 526 450
3 452 528 526
3 527 454 451
3 529 454 527
3 456 528 452
3 456 530 528
3 457 454 531
3 454 532 531
3 454 529 532
3 531 458 457
3 460 530 456
3 460 533 530
3 532 534 531
3 458 531 534
3 535 458 534
3 462 458 535
3 537 536 465
3 537 465 464
3 460 465 533
3 533 465 536
3 466 462 538
3 462 539 538
3 462 535 539
3 538 467 466
3 469 540 470
3 540 541 470
3 541 464 470
3 541 537 464
3 539 542 538
3 538 542 467
3 542 471 467
3 542 543 471
3 543 545 544
3 472 543 544
3 471 543 472
3 544 473 472
3 547 546 474
3 547 474 475
3 469 474 540
3 474 548 540
3 474 546 548
3 540 548 541
3 545 549 544
3 544 549 473
3 549 476 473
3 549 550 476
3 550 552 551
3 477 550 551
3 476 550 477
3 553 478 477
3 553 477 551
3 554 479 478
3 554 478 553
3 555 480 479
3 555 479 554
3 480 555 556
3 557 480 556
3 481 480 557
3 481 558 482
3 557 558 481
3 475 482 547
3 547 482 558
3 552 559 551
3 551 559 553
3 553 559 560
3 553 560 554
3 554 560 561
3 554 561 555
3 555 561 562
3 555 562 556
3 564 563 485
3 485 563 484
3 565 485 486
3 565 564 485
3 566 486 488
3 566 565 486
3 567 488 490
3 567 566 488
3 568 490 492
3 568 567 490
3 570 569 494
3 569 492 494
3 569 568 492
3 570 571 569
3 574 573 572
3 495 496 572
3 496 574 572
3 496 575 574
3 496 484 563
3 496 563 575
3 497 570 494
3 576 571 570
3 497 576 570
3 498 576 497
3 498 500 576
3 576 500 577
3 580 579 578
3 580 578 573
3 573 578 572
3 578 501 572
3 501 502 572
3 572 502 495
3 581 577 500
3 581 500 503
3 583 582 504
3 582 503 504
3 582 581 503
3 583 584 582
3 578 579 506
3 579 505 506
3 579 585 505
3 578 506 501
3 507 583 504
3 507 508 583
3 508 584 583
3 508 586 584
3 588 587 511
3 511 587 510
3 511 505 585
3 511 585 588
3 508 512 589
3 590 508 589
3 586 508 590
3 514 589 512
3 587 515 510
3 591 515 587
3 592 590 589
3 589 514 592
3 514 593 592
3 514 516 593
3 591 517 515
3 594 517 591
3 518 593 516
3 518 595 593
3 594 519 517
3 596 519 594
3 520 595 518
3 520 597 595
3 596 521 519
3 598 521 596
3 522 597 520
3 522 599 597
3 598 523 521
3 600 523 598
3 524 599 522
3 524 601 599
3 600 525 523
3 602 525 600
3 526 601 524
3 526 603 601
3 602 527 525
3 604 527 602
3 528 603 526
3 528 605 603
3 604 529 527
3 606 529 604
3 530 605 528
3 530 607 605
3 606 532 529
3 608 532 606
3 533 607 530
3 533 609 607
3 608 610 532
3 532 610 534
3 535 534 610
3 535 610 611
3 613 612 536
3 613 536 537
3 533 536 609
3 609 536 612
3 611 539 535
3 614 539 611
3 541 613 537
3 541 615 613
3 614 616 539
3 539 616 542
3 616 618 617
3 543 616 617
3 542 616 543
3 617 545 543
3 620 619 546
3 620 546 547
3 546 621 548
3 619 621 546
3 541 548 615
3 615 548 621
3 618 622 617
3 617 622 545
3 622 549 545
3 622 623 549
3 623 625 624
3 550 623 624
3 549 623 550
3 624 552 550
3 556 626 557
3 557 626 627
3 628 557 627
3 558 557 628
3 547 558 620
3 620 558 628
3 625 629 624
3 624 629 552
3 629 559 552
3 629 630 559
3 559 631 560
3 630 631 559
3 560 632 561
3 631 632 560
3 561 633 562
3 632 633 561
3 556 562 626
3 562 634 626
3 562 633 634
3 626 634 627
3 636 635 564
3 564 635 563
3 637 564 565
3 637 636 564
3 638 565 566
3 638 637 565
3 639 566 567
3 639 638 566
3 640 567 568
3 640 639 567
3 642 640 641
3 640 569 641
3 640 568 569
3 571 641 569
3 644 643 574
3 574 643 573
3 645 574 575
3 645 644 574
3 575 563 635
3 575 635 645
3 646 642 641
3 646 641 571
3 576 646 571
3 647 646 576
3 576 577 647
3 647 577 648
3 650 649 580
3 580 649 579
3 580 573 643
3 580 643 650
3 651 648 577
3 651 577 581
3 652 581 582
3 652 651 581
3 582 584 652
3 652 584 653
3 656 655 654
3 649 656 654
3 585 649 654
3 579 649 585
3 586 653 584
3 586 657 653
3 654 655 588
3 655 587 588
3 655 658 587
3 654 588 585
3 590 657 586
3 590 659 657
3 658 591 587
3 660 591 658
3 661 659 590
3 661 590 592
3 592 593 661
3 661 593 662
3 660 594 591
3 663 594 660
3 595 662 593
3 595 664 662
3 663 596 594
3 665 596 663
3 597 664 595
3 597 666 664
3 665 598 596
3 667 598 665
3 599 666 597
3 599 668 666
3 667 600 598
3 669 600 667
3 601 668 599
3 601 670 668
3 669 602 600
3 671 602 669
3 603 670 601
3 603 672 670
3 671 604 602
3 673 604 671
3 605 672 603
3 605 674 672
3 673 606 604
3 675 606 673
3 607 674 605
3 607 676 674
3 675 608 606
3 677 608 675
3 609 676 607
3 609 678 676
3 610 608 679
3 608 680 679
3 608 677 680
3 679 611 610
3 613 681 612
3 681 682 612
3 682 609 612
3 682 678 609
3 680 683 679
3 611 679 683
3 684 611 683
3 614 611 684
3 686 685 681
3 613 686 681
3 615 686 613
3 681 685 682
3 684 687 614
3 614 687 616
3 618 616 687
3 618 687 688
3 620 689 619
3 619 689 690
3 691 619 690
3 621 619 691
3 615 621 686
3 686 621 691
3 688 692 618
3 618 692 622
3 622 693 623
3 692 693 622
3 625 623 693
3 625 693 694
3 696 695 628
3 696 628 627
3 620 628 689
3 628 697 689
3 628 695 697
3 689 697 690
3 694 698 625
3 625 698 629
3 629 699 630
3 698 699 629
3 630 700 631
3 699 700 630
3 631 701 632
3 700 701 631
3 632 702 633
3 701 702 632
3 633 703 634
3 702 703 633
3 627 634 696
3 696 634 703
3 705 704 636
3 636 704 635
3 706 636 637
3 706 705 636
3 707 637 638
3 707 706 637
3 708 638 639
3 708 707 638
3 709 639 640
3 709 708 639
3 640 642 709
3 709 642 710
3 712 711 644
3 644 711 643
3 713 644 645
3 713 712 644
3 645 635 704
3 645 704 713
3 714 710 642
3 714 642 646
3 715 646 647
3 715 714 646
3 647 648 715
3 715 648 716
3 718 717 650
3 650 717 649
3 650 643 711
3 650 711 718
3 719 716 648
3 719 648 651
3 720 651 652
3 720 719 651
3 652 653 720
3 720 653 721
3 723 722 656
3 656 722 655
3 656 649 717
3 656 717 723
3 657 721 653
3 657 724 721
3 722 658 655
3 725 658 722
3 659 724 657
3 659 726 724
3 725 660 658
3 727 660 725
3 728 726 659
3 728 659 661
3 661 662 728
3 728 662 729
3 727 663 660
3 730 663 727
3 664 729 662
3 664 731 729
3 730 665 663
3 732 665 730
3 666 731 664
3 666 733 731
3 732 667 665
3 734 667 732
3 668 733 666
3 668 735 733
3 734 669 667
3 736 669 734
3 670 735 668
3 670 737 735
3 736 671 669
3 738 671 736
3 672 737 670
3 672 739 737
3 738 673 671
3 740 673 738
3 674 739 672
3 674 741 739
3 740 675 673
3 742 675 740
3 676 741 674
3 676 743 741
3 742 677 675
3 744 677 742
3 678 743 676
3 678 745 743
3 744 680 677
3 746 680 744
3 682 745 678
3 682 747 745
3 746 748 680
3 680 748 683
3 684 683 748
3 684 748 749
3 751 750 685
3 751 685 686
3 682 685 747
3 747 685 750
3 749 752 684
3 684 752 687
3 688 687 752
3 688 752 753
3 756 755 754
3 691 690 754
3 755 691 754
3 757 691 755
3 686 691 751
3 751 691 757
3 753 758 688
3 688 758 692
3 692 759 693
3 758 759 692
3 694 693 759
3 694 759 760
3 762 761 695
3 762 695 696
3 754 697 756
3 697 761 756
3 697 695 761
3 697 754 690
3 760 763 694
3 694 763 698
3 698 764 699
3 763 764 698
3 699 765 700
3 764 765 699
3 700 766 701
3 765 766 700
3 701 767 702
3 766 767 701
3 702 768 703
3 767 768 702
3 696 703 762
3 762 703 768
3 770 769 705
3 705 769 704
3 771 705 706
3 771 770 705
3 772 706 707
3 772 771 706
3 773 707 708
3 773 772 707
3 774 708 709
3 774 773 708
3 709 710 774
3 774 710 775
3 777 776 712
3 712 776 711
3 778 712 713
3 778 777 712
3 713 704 769
3 713 769 778
3 779 775 710
3 779 710 714
3 780 714 715
3 780 779 714
3 715 716 780
3 780 716 781
3 783 782 718
3 718 782 717
3 718 711 776
3 718 776 783
3 784 781 716
3 784 716 719
3 785 719 720
3 785 784 719
3 720 721 785
3 785 721 786
3 787 722 723
3 788 787 723
3 717 788 723
3 782 788 717
3 724 786 721
3 724 789 786
3 791 790 787
3 790 722 787
3 790 725 722
3 791 787 788
3 726 793 792
3 789 726 792
3 724 726 789
3 793 794 792
3 790 727 725
3 795 727 790
3 728 793 726
3 728 729 793
3 729 794 793
3 729 796 794
3 795 730 727
3 797 730 795
3 731 796 729
3 731 798 796
3 797 732 730
3 799 732 797
3 733 798 731
3 733 800 798
3 799 734 732
3 801 734 799
3 735 800 733
3 735 802 800
3 801 736 734
3 803 736 801
3 737 802 735
3 737 804 802
3 803 738 736
3 805 738 803
3 739 804 737
3 739 806 804
3 805 740 738
3 807 740 805
3 741 806 739
3 741 808 806
3 807 742 740
3 809 742 807
3 743 808 741
3 743 810 808
3 809 744 742
3 811 744 809
3 745 810 743
3 745 812 810
3 811 746 744
3 813 746 811
3 747 812 745
3 747 814 812
3 813 815 746
3 746 815 748
3 749 748 815
3 749 815 816
3 818 817 750
3 818 750 751
3 747 750 814
3 814 750 817
3 816 819 749
3 749 819 752
3 753 752 819
3 753 819 820
3 822 821 755
3 822 755 756
3 755 823 757
3 821 823 755
3 751 757 818
3 818 757 823
3 820 824 753
3 753 824 758
3 758 825 759
3 824 825 758
3 760 759 825
3 760 825 826
3 828 827 761
3 828 761 762
3 756 761 822
3 822 761 827
3 826 829 760
3 760 829 763
3 763 830 764
3 829 830 763
3 764 831 765
3 830 831 764
3 765 832 766
3 831 832 765
3 766 833 767
3 832 833 766
3 767 834 768
3 833 834 767
3 762 768 828
3 828 768 834
3 835 769 770
3 835 770 836
3 770 837 836
3 770 771 837
3 838 771 772
3 838 837 771
3 839 772 773
3 839 838 772
3 841 839 840
3 839 774 840
3 839 773 774
3 775 840 774
3 843 842 777
3 777 842 776
3 844 777 778
3 844 843 777
3 778 769 835
3 845 778 835
3 844 778 845
3 845 835 836
3 846 841 840
3 846 840 775
3 779 846 775
3 847 846 779
3 849 847 848
3 847 780 848
3 847 779 780
3 781 848 780
3 851 850 783
3 783 850 782
3 783 776 842
3 783 842 851
3 852 849 848
3 852 848 781
3 784 852 781
3 853 852 784
3 854 784 785
3 854 853 784
3 785 786 854
3 854 786 855
3 850 788 782
3 856 788 850
3 789 855 786
3 789 857 855
3 859 858 791
3 791 858 790
3 791 788 856
3 791 856 859
3 860 857 789
3 860 789 792
3 792 794 860
3 860 794 861
3 858 795 790
3 862 795 858
3 796 861 794
3 796 863 861
3 862 797 795
3 864 797 862
3 798 863 796
3 798 865 863
3 864 799 797
3 866 799 864
3 800 865 798
3 800 867 865
3 866 801 799
3 868 801 866
3 802 867 800
3 802 869 867
3 868 803 801
3 870 803 868
3 804 869 802
3 804 871 869
3 870 805 803
3 872 805 870
3 806 871 804
3 806 873 871
3 872 807 805
3 874 807 872
3 808 873 806
3 808 875 873
3 874 809 807
3 876 809 874
3 810 875 808
3 810 877 875
3 876 811 809
3 878 811 876
3 812 877 810
3 812 879 877
3 878 813 811
3 880 813 878
3 814 879 812
3 814 881 879
3 880 882 813
3 813 882 815
3 816 815 882
3 816 882 883
3 886 885 884
3 817 818 884
3 885 817 884
3 887 817 885
3 814 817 881
3 881 817 887
3 883 888 816
3 816 888 819
3 890 889 820
3 819 890 820
3 888 890 819
3 891 889 890
3 893 892 821
3 893 821 822
3 884 823 886
3 823 892 886
3 823 821 892
3 823 884 818
3 889 824 820
3 891 894 889
3 894 824 889
3 894 825 824
3 826 825 894
3 826 894 895
3 897 896 827
3 897 827 828
3 822 827 893
3 893 827 896
3 895 898 826
3 826 898 829
3 829 899 830
3 898 899 829
3 830 900 831
3 899 900 830
3 831 901 832
3 900 901 831
3 832 902 833
3 901 902 832
3 833 903 834
3 902 903 833
3 828 834 897
3 897 834 903
3 904 836 837
3 838 905 837
3 837 905 904
3 839 906 838
3 838 906 905
3 841 906 839
3 907 842 843
3 844 908 843
3 843 908 907
3 908 844 909
3 844 910 909
3 844 845 910
3 845 836 904
3 911 845 904
3 910 845 911
3 911 904 905
3 911 905 912
3 912 905 906
3 912 906 913
3 913 906 841
3 846 913 841
3 914 913 846
3 915 846 847
3 915 914 846
3 847 849 915
3 915 849 916
3 917 850 851
3 918 917 851
3 918 851 842
3 919 918 842
3 907 919 842
3 919 907 908
3 919 908 920
3 920 908 909
3 921 916 849
3 921 849 852
3 923 921 922
3 921 853 922
3 921 852 853
3 854 924 853
3 853 924 922
3 855 924 854
3 926 925 917
3 925 850 917
3 925 856 850
3 926 917 918
3 927 923 922
3 927 922 924
3 927 924 928
3 924 855 928
3 855 929 928
3 855 857 929
3 930 858 859
3 931 930 859
3 856 931 859
3 925 931 856
3 857 860 932
3 933 857 932
3 929 857 933
3 861 932 860
3 935 934 930
3 934 858 930
3 934 862 858
3 935 930 931
3 936 933 932
3 932 861 936
3 861 937 936
3 861 863 937
3 934 864 862
3 938 864 934
3 865 937 863
3 865 939 937
3 938 866 864
3 940 866 938
3 867 939 865
3 867 941 939
3 940 868 866
3 942 868 940
3 869 941 867
3 869 943 941
3 942 870 868
3 944 870 942
3 871 943 869
3 871 945 943
3 944 872 870
3 946 872 944
3 873 945 871
3 873 947 945
3 946 874 872
3 948 874 946
3 875 947 873
3 875 949 947
3 948 876 874
3 950 876 948
3 877 949 875
3 877 951 949
3 950 878 876
3 952 878 950
3 879 951 877
3 879 953 951
3 955 880 954
3 880 952 954
3 880 878 952
3 956 955 954
3 881 953 879
3 881 957 953
3 955 882 880
3 959 958 883
3 959 883 882
3 956 959 882
3 955 956 882
3 960 958 959
3 962 961 885
3 962 885 886
3 885 963 887
3 961 963 885
3 881 887 957
3 957 887 963
3 958 888 883
3 960 964 958
3 964 888 958
3 964 890 888
3 891 890 964
3 891 964 965
3 968 967 966
3 892 893 966
3 967 892 966
3 969 892 967
3 886 892 962
3 962 892 969
3 965 970 891
3 891 970 894
3 972 971 895
3 894 972 895
3 970 972 894
3 974 973 971
3 974 971 972
3 976 975 973
3 976 973 974
3 978 977 975
3 978 975 976
3 980 979 977
3 980 977 978
3 982 981 979
3 982 979 980
3 981 982 968
3 981 968 966
3 897 981 966
3 896 897 966
3 896 966 893
3 971 898 895
3 898 971 899
3 899 971 973
3 899 973 900
3 900 973 975
3 900 975 901
3 901 975 977
3 901 977 902
3 902 977 979
3 902 979 903
3 903 979 981
3 903 981 897
3 984 983 910
3 910 983 909
3 985 910 911
3 985 984 910
3 986 911 912
3 986 985 911
3 987 912 913
3 987 986 912
3 988 913 914
3 988 987 913
3 990 988 989
3 988 915 989
3 988 914 915
3 916 989 915
3 991 918 919
3 991 919 992
3 919 993 992
3 919 920 993
3 920 909 983
3 920 983 993
3 994 990 989
3 994 989 916
3 921 994 916
3 995 994 921
3 921 923 995
3 995 923 996
3 997 925 926
3 998 997 926
3 998 926 918
3 999 998 918
3 991 999 918
3 999 991 992
3 1000 996 923
3 1000 923 927
3 1002 1000 1001
3 1000 928 1001
3 1000 927 928
3 929 1001 928
3 1004 1003 997
3 1003 925 997
3 1003 931 925
3 1004 997 998
3 1005 1002 1001
3 1001 929 1005
3 929 1006 1005
3 929 933 1006
3 1007 934 935
3 1008 1007 935
3 931 1008 935
3 1003 1008 931
3 933 936 1009
3 1010 933 1009
3 1006 933 1010
3 937 1009 936
3 1012 1011 1007
3 1011 934 1007
3 1011 938 934
3 1012 1007 1008
3 1013 1010 1009
3 1009 937 1013
3 937 1014 1013
3 937 939 1014
3 1011 940 938
3 1015 940 1011
3 941 1014 939
3 941 1016 1014
3 1015 942 940
3 1017 942 1015
3 943 1016 941
3 943 1018 1016
3 1017 944 942
3 1019 944 1017
3 945 1018 943
3 945 1020 1018
3 1019 946 944
3 1021 946 1019
3 947 1020 945
3 947 1022 1020
3 1021 948 946
3 1023 948 1021
3 949 1022 947
3 949 1024 1022
3 1026 950 1025
3 950 1023 1025
3 950 948 1023
3 1027 1026 1025
3 951 1024 949
3 951 1028 1024
3 1029 952 1026
3 1026 952 950
3 1026 1027 1030
3 1026 1030 1029
3 1033 1032 1031
3 1032 1028 1031
3 1028 953 1031
3 1028 951 953
3 1029 954 952
3 956 954 1029
3 1030 956 1029
3 1034 956 1030
3 1037 1036 1035
3 1035 1036 1033
3 1031 1035 1033
3 1038 1035 1031
3 957 1038 953
3 953 1038 1031
3 1034 1039 956
3 956 1039 959
3 1041 1040 960
3 959 1041 960
3 1039 1041 959
3 1042 1040 1041
3 1045 1044 1043
3 1043 1044 1037
3 1043 1037 1035
3 962 1043 1035
3 961 962 1035
3 961 1035 963
3 963 1035 1038
3 963 1038 957
3 1040 964 960
3 1047 1046 965
3 1047 965 964
3 1042 1047 964
3 1040 1042 964
3 1048 1046 1047
3 1051 1050 1049
3 967 968 1049
3 1050 967 1049
3 1052 967 1050
3 1043 969 1045
3 969 1052 1045
3 969 967 1052
3 969 1043 962
3 1046 970 965
3 1048 1053 1046
3 1053 970 1046
3 1053 972 970
3 972 1054 974
3 1053 1054 972
3 974 1055 976
3 1054 1055 974
3 976 1056 978
3 1055 1056 976
3 978 1057 980
3 1056 1057 978
3 1049 982 1051
3 982 1057 1051
3 982 980 1057
3 982 1049 968
3 1058 983 984
3 985 1059 984
3 984 1059 1058
3 986 1060 985
3 985 1060 1059
3 987 1061 986
3 986 1061 1060
3 988 1062 987
3 987 1062 1061
3 990 1062 988
3 1063 992 993
3 1064 1063 993
3 1064 993 983
3 1065 1064 983
3 1058 1065 983
3 1065 1058 1059
3 1065 1059 1066
3 1066 1059 1060
3 1066 1060 1067
3 1067 1060 1061
3 1067 1061 1068
3 1068 1061 1062
3 1068 1062 1069
3 1069 1062 990
3 994 1069 990
3 1070 1069 994
3 1072 1070 1071
3 1070 995 1071
3 1070 994 995
3 996 1071 995
3 1073 998 999
3 1074 1073 999
3 1074 999 992
3 1075 1074 992
3 1063 1075 992
3 1075 1063 1064
3 1076 1072 1071
3 1078 1076 1077
3 1077 1076 1000
3 1076 1071 1000
3 1071 996 1000
3 1002 1077 1000
3 1079 1003 1004
3 1080 1079 1004
3 1080 1004 998
3 1081 1080 998
3 1073 1081 998
3 1081 1073 1074
3 1082 1078 1077
3 1084 1082 1083
3 1083 1082 1005
3 1082 1077 1005
3 1077 1002 1005
3 1006 1083 1005
3 1086 1085 1079
3 1085 1003 1079
3 1085 1008 1003
3 1086 1079 1080
3 1084 1083 1087
3 1084 1087 1088
3 1010 1087 1006
3 1006 1087 1083
3 1089 1011 1012
3 1090 1089 1012
3 1008 1090 1012
3 1085 1090 1008
3 1091 1088 1087
3 1093 1091 1092
3 1092 1091 1013
3 1091 1087 1013
3 1087 1010 1013
3 1014 1092 1013
3 1095 1094 1089
3 1094 1011 1089
3 1094 1015 1011
3 1095 1089 1090
3 1093 1092 1096
3 1093 1096 1097
3 1016 1096 1014
3 1014 1096 1092
3 1094 1017 1015
3 1098 1017 1094
3 1099 1097 1096
3 1096 1016 1099
3 1016 1100 1099
3 1016 1018 1100
3 1098 1019 1017
3 1101 1019 1098
3 1020 1100 1018
3 1020 1102 1100
3 1101 1021 1019
3 1103 1021 1101
3 1022 1102 1020
3 1022 1104 1102
3 1106 1023 1105
3 1023 1103 1105
3 1023 1021 1103
3 1107 1106 1105
3 1110 1109 1108
3 1109 1104 1108
3 1104 1024 1108
3 1104 1022 1024
3 1106 1025 1023
3 1027 1025 1106
3 1107 1027 1106
3 1111 1027 1107
3 1114 1113 1112
3 1112 1113 1110
3 1108 1112 1110
3 1115 1112 1108
3 1028 1115 1024
3 1024 1115 1108
3 1117 1030 1116
3 1030 1111 1116
3 1030 1027 1111
3 1118 1117 1116
3 1121 1120 1119
3 1119 1120 1114
3 1112 1119 1114
3 1122 1119 1112
3 1033 1122 1032
3 1122 1115 1032
3 1122 1112 1115
3 1032 1115 1028
3 1123 1034 1117
3 1117 1034 1030
3 1117 1118 1124
3 1125 1117 1124
3 1123 1117 1125
3 1126 1125 1124
3 1129 1128 1127
3 1127 1128 1121
3 1119 1127 1121
3 1130 1127 1119
3 1037 1130 1036
3 1130 1122 1036
3 1130 1119 1122
3 1036 1122 1033
3 1123 1039 1034
3 1039 1123 1041
3 1041 1123 1125
3 1132 1131 1042
3 1132 1042 1041
3 1126 1132 1041
3 1125 1126 1041
3 1133 1131 1132
3 1136 1135 1134
3 1134 1135 1129
3 1127 1134 1129
3 1137 1134 1127
3 1045 1137 1044
3 1137 1130 1044
3 1137 1127 1130
3 1044 1130 1037
3 1131 1047 1042
3 1139 1138 1048
3 1139 1048 1047
3 1133 1139 1047
3 1131 1133 1047
3 1141 1140 1138
3 1141 1138 1139
3 1143 1142 1140
3 1143 1140 1141
3 1145 1144 1142
3 1145 1142 1143
3 1147 1146 1144
3 1147 1144 1145
3 1146 1147 1136
3 1146 1136 1134
3 1051 1146 1134
3 1050 1051 1134
3 1050 1134 1052
3 1052 1134 1137
3 1052 1137 1045
3 1138 1053 1048
3 1053 1138 1054
3 1054 1138 1140
3 1054 1140 1055
3 1055 1140 1142
3 1055 1142 1056
3 1056 1142 1144
3 1056 1144 1057
3 1057 1144 1146
3 1057 1146 1051
3 1148 1064 1065
3 1066 1149 1065
3 1065 1149 1148
3 1067 1150 1066
3 1066 1150 1149
3 1068 1151 1067
3 1067 1151 1150
3 1069 1152 1068
3 1068 1152 1151
3 1070 1153 1069
3 1069 1153 1152
3 1072 1153 1070
3 1154 1074 1075
3 1155 1154 1075
3 1155 1075 1064
3 1156 1155 1064
3 1148 1156 1064
3 1156 1148 1149
3 1156 1149 1157
3 1157 1149 1150
3 1157 1150 1158
3 1158 1150 1151
3 1158 1151 1159
3 1159 1151 1152
3 1159 1152 1160
3 1160 1152 1153
3 1160 1153 1161
3 1163 1161 1162
3 1162 1161 1076
3 1161 1153 1076
3 1153 1072 1076
3 1078 1162 1076
3 1164 1080 1081
3 1165 1164 1081
3 1165 1081 1074
3 1166 1165 1074
3 1154 1166 1074
3 1166 1154 1155
3 1167 1163 1162
3 1169 1167 1168
3 1168 1167 1082
3 1167 1162 1082
3 1162 1078 1082
3 1084 1168 1082
3 1170 1085 1086
3 1171 1170 1086
3 1171 1086 1080
3 1172 1171 1080
3 1164 1172 1080
3 1172 1164 1165
3 1173 1169 1168
3 1168 1084 1173
3 1084 1174 1173
3 1084 1088 1174
3 1175 1090 1170
3 1170 1090 1085
3 1170 1171 1176
3 1170 1176 1175
3 1088 1091 1177
3 1178 1088 1177
3 1174 1088 1178
3 1093 1177 1091
3 1179 1094 1095
3 1180 1179 1095
3 1180 1095 1090
3 1181 1180 1090
3 1175 1181 1090
3 1181 1175 1176
3 1182 1178 1177
3 1177 1093 1182
3 1093 1183 1182
3 1093 1097 1183
3 1184 1098 1179
3 1179 1098 1094
3 1179 1180 1185
3 1179 1185 1184
3 1097 1099 1186
3 1187 1097 1186
3 1183 1097 1187
3 1100 1186 1099
3 1188 1101 1184
3 1184 1101 1098
3 1184 1185 1189
3 1184 1189 1188
3 1187 1186 1190
3 1187 1190 1191
3 1102 1190 1100
3 1100 1190 1186
3 1192 1103 1188
3 1188 1103 1101
3 1188 1189 1193
3 1188 1193 1192
3 1191 1190 1194
3 1191 1194 1195
3 1104 1194 1102
3 1102 1194 1190
3 1192 1105 1103
3 1107 1105 1192
3 1193 1107 1192
3 1196 1107 1193
3 1199 1198 1197
3 1197 1198 1195
3 1197 1195 1194
3 1110 1197 1194
3 1109 1110 1194
3 1109 1194 1104
3 1201 1111 1200
3 1111 1196 1200
3 1111 1107 1196
3 1202 1201 1200
3 1205 1204 1203
3 1203 1204 1199
3 1203 1199 1197
3 1114 1203 1197
3 1113 1114 1197
3 1113 1197 1110
3 1201 1116 1111
3 1118 1116 1201
3 1202 1118 1201
3 1206 1118 1202
3 1205 1203 1120
3 1121 1205 1120
3 1207 1205 1121
3 1120 1203 1114
3 1206 1208 1118
3 1118 1208 1124
3 1210 1209 1126
3 1124 1210 1126
3 1208 1210 1124
3 1211 1209 1210
3 1213 1212 1128
3 1213 1128 1129
3 1121 1128 1207
3 1207 1128 1212
3 1209 1132 1126
3 1215 1214 1133
3 1215 1133 1132
3 1211 1215 1132
3 1209 1211 1132
3 1217 1216 1214
3 1217 1214 1215
3 1219 1218 1216
3 1219 1216 1217
3 1221 1220 1218
3 1221 1218 1219
3 1223 1222 1220
3 1223 1220 1221
3 1135 1136 1222
3 1223 1135 1222
3 1224 1135 1223
3 1129 1135 1213
3 1213 1135 1224
3 1214 1139 1133
3 1139 1214 1141
3 1141 1214 1216
3 1141 1216 1143
3 1143 1216 1218
3 1143 1218 1145
3 1145 1218 1220
3 1145 1220 1147
3 1147 1220 1222
3 1147 1222 1136
3 1225 1155 1156
3 1157 1226 1156
3 1156 1226 1225
3 1158 1227 1157
3 1157 1227 1226
3 1159 1228 1158
3 1158 1228 1227
3 1160 1229 1159
3 1159 1229 1228
3 1161 1230 1160
3 1160 1230 1229
3 1163 1230 1161
3 1231 1165 1166
3 1232 1231 1166
3 1232 1166 1155
3 1233 1232 1155
3 1225 1233 1155
3 1233 1225 1226
3 1233 1226 1234
3 1234 1226 1227
3 1234 1227 1235
3 1235 1227 1228
3 1235 1228 1236
3 1236 1228 1229
3 1236 1229 1237
3 1239 1238 1237
3 1229 1239 1237
3 1230 1239 1229
3 1167 1240 1163
3 1240 1230 1163
3 1240 1239 1230
3 1169 1240 1167
3 1241 1171 1172
3 1242 1241 1172
3 1242 1172 1165
3 1243 1242 1165
3 1231 1243 1165
3 1243 1231 1232
3 1238 1239 1244
3 1238 1244 1245
3 1246 1239 1240
3 1244 1239 1246
3 1173 1247 1169
3 1247 1240 1169
3 1247 1246 1240
3 1174 1247 1173
3 1248 1176 1241
3 1241 1176 1171
3 1241 1242 1249
3 1241 1249 1248
3 1250 1245 1244
3 1250 1244 1246
3 1250 1246 1251
3 1253 1252 1251
3 1246 1253 1251
3 1247 1253 1246
3 1178 1253 1174
3 1174 1253 1247
3 1254 1180 1181
3 1255 1254 1181
3 1255 1181 1176
3 1256 1255 1176
3 1248 1256 1176
3 1256 1248 1249
3 1257 1252 1253
3 1259 1257 1258
3 1258 1257 1182
3 1257 1253 1182
3 1253 1178 1182
3 1183 1258 1182
3 1260 1185 1254
3 1254 1185 1180
3 1254 1255 1261
3 1254 1261 1260
3 1264 1263 1262
3 1262 1263 1259
3 1258 1262 1259
3 1265 1262 1258
3 1187 1265 1183
3 1183 1265 1258
3 1266 1189 1260
3 1260 1189 1185
3 1260 1261 1267
3 1260 1267 1266
3 1264 1262 1268
3 1264 1268 1269
3 1270 1262 1265
3 1268 1262 1270
3 1191 1270 1187
3 1187 1270 1265
3 1271 1193 1266
3 1266 1193 1189
3 1266 1267 1272
3 1266 1272 1271
3 1269 1268 1273
3 1269 1273 1274
3 1275 1268 1270
3 1273 1268 1275
3 1195 1275 1191
3 1191 1275 1270
3 1276 1196 1271
3 1271 1196 1193
3 1271 1272 1277
3 1278 1271 1277
3 1276 1271 1278
3 1279 1278 1277
3 1274 1273 1280
3 1274 1280 1281
3 1199 1280 1198
3 1280 1275 1198
3 1280 1273 1275
3 1198 1275 1195
3 1276 1200 1196
3 1200 1276 1202
3 1276 1282 1202
3 1276 1278 1282
3 1278 1279 1283
3 1284 1278 1283
3 1282 1278 1284
3 1285 1284 1283
3 1288 1287 1286
3 1286 1287 1281
3 1286 1281 1280
3 1205 1286 1280
3 1204 1205 1280
3 1204 1280 1199
3 1289 1206 1282
3 1282 1206 1202
3 1290 1282 1284
3 1289 1282 1290
3 1284 1285 1291
3 1292 1284 1291
3 1290 1284 1292
3 1293 1292 1291
3 1296 1295 1294
3 1294 1295 1288
3 1286 1294 1288
3 1297 1294 1286
3 1207 1297 1205
3 1205 1297 1286
3 1289 1208 1206
3 1208 1289 1210
3 1210 1289 1290
3 1210 1290 1211
3 1290 1298 1211
3 1290 1292 1298
3 1292 1293 1299
3 1300 1292 1299
3 1298 1292 1300
3 1302 1301 1300
3 1302 1300 1299
3 1304 1303 1301
3 1304 1301 1302
3 1306 1305 1303
3 1306 1303 1304
3 1305 1306 1296
3 1294 1305 1296
3 1307 1305 1294
3 1213 1307 1212
3 1307 1297 1212
3 1307 1294 1297
3 1212 1297 1207
3 1298 1215 1211
3 1215 1298 1217
3 1217 1298 1300
3 1217 1300 1219
3 1219 1300 1301
3 1219 1301 1221
3 1221 1301 1303
3 1221 1303 1223
3 1223 1303 1305
3 1223 1305 1224
3 1224 1305 1307
3 1224 1307 1213
3 1308 1232 1233
3 1234 1309 1233
3 1233 1309 1308
3 1235 1310 1234
3 1234 1310 1309
3 1236 1311 1235
3 1235 1311 1310
3 1237 1312 1236
3 1236 1312 1311
3 1238 1312 1237
3 1313 1242 1243
3 1232 1308 1243
3 1308 1313 1243
3 1308 1314 1313
3 1315 1308 1309
3 1314 1308 1315
3 1316 1309 1310
3 1315 1309 1316
3 1317 1310 1311
3 1316 1310 1317
3 1318 1311 1312
3 1317 1311 1318
3 1245 1318 1238
3 1238 1318 1312
3 1319 1249 1313
3 1313 1249 1242
3 1320 1313 1314
3 1319 1313 1320
3 1315 1322 1321
3 1320 1315 1321
3 1314 1315 1320
3 1322 1315 1316
3 1322 1316 1323
3 1323 1316 1317
3 1323 1317 1324
3 1324 1317 1318
3 1324 1318 1325
3 1327 1325 1326
3 1326 1325 1250
3 1325 1318 1250
3 1318 1245 1250
3 1251 1328 1250
3 1250 1328 1326
3 1252 1328 1251
3 1329 1255 1256
3 1249 1319 1256
3 1319 1329 1256
3 1319 1330 1329
3 1320 1332 1331
3 1330 1320 1331
3 1319 1320 1330
3 1332 1320 1321
3 1327 1326 1333
3 1327 1333 1334
3 1335 1326 1328
3 1333 1326 1335
3 1257 1336 1252
3 1336 1328 1252
3 1336 1335 1328
3 1259 1336 1257
3 1337 1261 1329
3 1329 1261 1255
3 1338 1329 1330
3 1337 1329 1338
3 1330 1331 1339
3 1330 1339 1338
3 1334 1333 1340
3 1334 1340 1341
3 1342 1333 1335
3 1340 1333 1342
3 1264 1342 1263
3 1342 1336 1263
3 1342 1335 1336
3 1263 1336 1259
3 1343 1267 1337
3 1337 1267 1261
3 1344 1337 1338
3 1343 1337 1344
3 1338 1339 1345
3 1338 1345 1344
3 1346 1341 1340
3 1348 1347 1346
3 1340 1348 1346
3 1342 1348 1340
3 1269 1348 1264
3 1264 1348 1342
3 1349 1272 1343
3 1343 1272 1267
3 1350 1343 1344
3 1349 1343 1350
3 1344 1345 1351
3 1344 1351 1350
3 1354 1353 1352
3 1352 1353 1347
3 1348 1352 1347
3 1355 1352 1348
3 1274 1355 1269
3 1269 1355 1348
3 1349 1277 1272
3 1277 1349 1279
3 1349 1356 1279
3 1349 1350 1356
3 1350 1351 1357
3 1358 1350 1357
3 1356 1350 1358
3 1359 1358 1357
3 1362 1361 1360
3 1360 1361 1354
3 1352 1360 1354
3 1363 1360 1352
3 1364 1352 1355
3 1363 1352 1364
3 1281 1364 1274
3 1274 1364 1355
3 1356 1283 1279
3 1283 1356 1285
3 1356 1365 1285
3 1356 1358 1365
3 1358 1359 1366
3 1367 1358 1366
3 1365 1358 1367
3 1369 1368 1367
3 1369 1367 1366
3 1371 1370 1368
3 1371 1368 1369
3 1370 1371 1362
3 1360 1370 1362
3 1372 1370 1360
3 1373 1360 1363
3 1372 1360 1373
3 1288 1373 1287
3 1373 1364 1287
3 1373 1363 1364
3 1287 1364 1281
3 1365 1291 1285
3 1291 1365 1293
3 1365 1374 1293
3 1365 1367 1374
3 1375 1367 1368
3 1374 1367 1375
3 1376 1368 1370
3 1375 1368 1376
3 1377 1370 1372
3 1376 1370 1377
3 1296 1377 1295
3 1377 1373 1295
3 1377 1372 1373
3 1295 1373 1288
3 1374 1299 1293
3 1299 1374 1302
3 1302 1374 1375
3 1302 1375 1304
3 1304 1375 1376
3 1304 1376 1306
3 1306 1376 1377
3 1306 1377 1296
3 1378 1321 1322
3 1323 1379 1322
3 1322 1379 1378
3 1324 1380 1323
3 1323 1380 1379
3 1325 1381 1324
3 1324 1381 1380
3 1327 1381 1325
3 1382 1331 1332
3 1321 1378 1332
3 1378 1382 1332
3 1378 1383 1382
3 1384 1378 1379
3 1383 1378 1384
3 1385 1379 1380
3 1384 1379 1385
3 1386 1380 1381
3 1385 1380 1386
3 1334 1386 1327
3 1327 1386 1381
3 1387 1339 1382
3 1382 1339 1331
3 1388 1382 1383
3 1387 1382 1388
3 1389 1383 1384
3 1388 1383 1389
3 1390 1384 1385
3 1389 1384 1390
3 1391 1385 1386
3 1390 1385 1391
3 1341 1391 1334
3 1334 1391 1386
3 1392 1345 1387
3 1387 1345 1339
3 1393 1387 1388
3 1392 1387 1393
3 1394 1388 1389
3 1393 1388 1394
3 1395 1389 1390
3 1394 1389 1395
3 1396 1390 1391
3 1395 1390 1396
3 1346 1397 1341
3 1397 1391 1341
3 1397 1396 1391
3 1347 1397 1346
3 1398 1351 1392
3 1392 1351 1345
3 1399 1392 1393
3 1398 1392 1399
3 1400 1393 1394
3 1399 1393 1400
3 1401 1394 1395
3 1400 1394 1401
3 1402 1395 1396
3 1401 1395 1402
3 1354 1402 1353
3 1402 1397 1353
3 1402 1396 1397
3 1353 1397 1347
3 1398 1357 1351
3 1357 1398 1359
3 1398 1403 1359
3 1398 1399 1403
3 1404 1399 1400
3 1403 1399 1404
3 1405 1400 1401
3 1404 1400 1405
3 1362 1405 1361
3 1405 1402 1361
3 1405 1401 1402
3 1361 1402 1354
3 1403 1366 1359
3 1366 1403 1369
3 1369 1403 1404
3 1369 1404 1371
3 1371 1404 1405
3 1371 1405 1362
