# Asteroid shape model (convexinv -> dual reconstruction)
v -1.28388539 -0.36262955 -0.21428571
v -1.21245682 -0.36262955 -0.28571429
v -1.21245682 -0.43405812 -0.21428571
v -1.21245682 -0.43405812 -0.07142857
v -1.28388539 -0.36262955 -0.07142857
v -1.21245682 -0.43405812 0.07142857
v -1.28388539 -0.36262955 0.07142857
v -1.21245682 -0.43405812 0.21428571
v -1.28388539 -0.36262955 0.21428571
v -1.21245682 -0.36262955 0.28571429
v -1.28388539 -0.21977240 -0.35714286
v -1.21245682 -0.21977240 -0.42857143
v -1.21245682 -0.29120098 -0.35714286
v -1.28388539 -0.21977240 -0.21428571
v -1.28388539 -0.21977240 -0.07142857
v -1.28388539 -0.21977240 0.07142857
v -1.28388539 -0.21977240 0.21428571
v -1.21245682 -0.21977240 0.28571429
v -1.28388539 -0.07691526 -0.35714286
v -1.21245682 -0.07691526 -0.42857143
v -1.28388539 -0.07691526 -0.21428571
v -1.28388539 -0.07691526 -0.07142857
v -1.28388539 -0.07691526 0.07142857
v -1.28388539 -0.07691526 0.21428571
v -1.21245682 -0.14834383 0.35714286
v -1.28388539 -0.07691526 0.35714286
v -1.21245682 -0.07691526 0.42857143
v -1.28388539 0.06594188 -0.35714286
v -1.21245682 0.06594188 -0.42857143
v -1.28388539 0.06594188 -0.21428571
v -1.28388539 0.06594188 -0.07142857
v -1.28388539 0.06594188 0.07142857
v -1.28388539 0.06594188 0.21428571
v -1.28388539 0.06594188 0.35714286
v -1.21245682 0.06594188 0.42857143
v -1.28388539 0.20879902 -0.35714286
v -1.21245682 0.20879902 -0.42857143
v -1.28388539 0.20879902 -0.21428571
v -1.28388539 0.20879902 -0.07142857
v -1.28388539 0.20879902 0.07142857
v -1.28388539 0.20879902 0.21428571
v -1.28388539 0.20879902 0.35714286
v -1.21245682 0.20879902 0.42857143
v -1.28388539 0.35165617 -0.35714286
v -1.21245682 0.35165617 -0.42857143
v -1.28388539 0.35165617 -0.21428571
v -1.28388539 0.35165617 -0.07142857
v -1.28388539 0.35165617 0.07142857
v -1.28388539 0.35165617 0.21428571
v -1.21245682 0.35165617 0.28571429
v -1.21245682 0.28022760 0.35714286
v -1.21245682 0.42308474 -0.35714286
v -1.21245682 0.42308474 -0.21428571
v -1.21245682 0.42308474 -0.07142857
v -1.21245682 0.42308474 0.07142857
v -1.21245682 0.42308474 0.21428571
v -1.14102825 -0.64834383 -0.35714286
v -1.06959967 -0.64834383 -0.42857143
v -1.06959967 -0.71977240 -0.35714286
v -1.06959967 -0.71977240 -0.21428571
v -1.14102825 -0.64834383 -0.21428571
v -1.06959967 -0.71977240 -0.07142857
v -1.14102825 -0.64834383 -0.07142857
v -1.06959967 -0.71977240 0.07142857
v -1.14102825 -0.64834383 0.07142857
v -1.06959967 -0.71977240 0.21428571
v -1.14102825 -0.64834383 0.21428571
v -1.06959967 -0.64834383 0.28571429
v -1.14102825 -0.50548669 -0.50000000
v -1.06959967 -0.50548669 -0.57142857
v -1.06959967 -0.57691526 -0.50000000
v -1.14102825 -0.50548669 -0.35714286
v -1.14102825 -0.50548669 -0.21428571
v -1.14102825 -0.50548669 -0.07142857
v -1.14102825 -0.50548669 0.07142857
v -1.14102825 -0.50548669 0.21428571
v -1.06959967 -0.57691526 0.35714286
v -1.14102825 -0.50548669 0.35714286
v -1.06959967 -0.50548669 0.42857143
v -1.14102825 -0.36262955 -0.50000000
v -1.06959967 -0.36262955 -0.57142857
v -1.14102825 -0.36262955 -0.35714286
v -1.14102825 -0.36262955 0.35714286
v -1.06959967 -0.43405812 0.50000000
v -1.14102825 -0.36262955 0.50000000
v -1.06959967 -0.36262955 0.57142857
v -1.14102825 -0.21977240 -0.64285714
v -1.06959967 -0.21977240 -0.71428571
v -1.06959967 -0.29120098 -0.64285714
v -1.14102825 -0.21977240 -0.50000000
v -1.14102825 -0.21977240 0.35714286
v -1.14102825 -0.21977240 0.50000000
v -1.06959967 -0.21977240 0.57142857
v -1.14102825 -0.07691526 -0.64285714
v -1.06959967 -0.07691526 -0.71428571
v -1.14102825 -0.07691526 -0.50000000
v -1.14102825 -0.07691526 0.50000000
v -1.06959967 -0.07691526 0.57142857
v -1.14102825 0.06594188 -0.64285714
v -1.06959967 0.06594188 -0.71428571
v -1.14102825 0.06594188 -0.50000000
v -1.14102825 0.06594188 0.50000000
v -1.06959967 0.06594188 0.57142857
v -1.14102825 0.20879902 -0.64285714
v -1.06959967 0.20879902 -0.71428571
v -1.14102825 0.20879902 -0.50000000
v -1.14102825 0.20879902 0.50000000
v -1.06959967 0.20879902 0.57142857
v -1.06959967 0.28022760 -0.64285714
v -1.14102825 0.35165617 -0.50000000
v -1.06959967 0.35165617 -0.57142857
v -1.14102825 0.35165617 0.35714286
v -1.14102825 0.35165617 0.50000000
v -1.06959967 0.35165617 0.57142857
v -1.14102825 0.49451331 -0.50000000
v -1.06959967 0.49451331 -0.57142857
v -1.14102825 0.49451331 -0.35714286
v -1.14102825 0.49451331 -0.21428571
v -1.14102825 0.49451331 -0.07142857
v -1.14102825 0.49451331 0.07142857
v -1.14102825 0.49451331 0.21428571
v -1.14102825 0.49451331 0.35714286
v -1.14102825 0.49451331 0.50000000
v -1.06959967 0.49451331 0.57142857
v -1.06959967 0.56594188 -0.50000000
v -1.14102825 0.63737045 -0.35714286
v -1.06959967 0.63737045 -0.42857143
v -1.14102825 0.63737045 -0.21428571
v -1.14102825 0.63737045 -0.07142857
v -1.14102825 0.63737045 0.07142857
v -1.14102825 0.63737045 0.21428571
v -1.06959967 0.63737045 0.28571429
v -1.06959967 0.56594188 0.35714286
v -1.06959967 0.56594188 0.50000000
v -1.06959967 0.70879902 -0.35714286
v -1.06959967 0.70879902 -0.21428571
v -1.06959967 0.70879902 -0.07142857
v -1.06959967 0.70879902 0.07142857
v -1.06959967 0.70879902 0.21428571
v -0.99817110 -0.79120098 -0.35714286
v -0.92674253 -0.79120098 -0.42857143
v -0.92674253 -0.86262955 -0.35714286
v -0.92674253 -0.86262955 -0.21428571
v -0.99817110 -0.79120098 -0.21428571
v -0.92674253 -0.86262955 -0.07142857
v -0.99817110 -0.79120098 -0.07142857
v -0.92674253 -0.86262955 0.07142857
v -0.99817110 -0.79120098 0.07142857
v -0.92674253 -0.86262955 0.21428571
v -0.99817110 -0.79120098 0.21428571
v -0.92674253 -0.86262955 0.35714286
v -0.99817110 -0.79120098 0.35714286
v -0.92674253 -0.79120098 0.42857143
v -0.99817110 -0.64834383 -0.64285714
v -0.92674253 -0.64834383 -0.71428571
v -0.92674253 -0.71977240 -0.64285714
v -0.92674253 -0.71977240 -0.50000000
v -0.99817110 -0.64834383 -0.50000000
v -0.99817110 -0.64834383 0.35714286
v -0.92674253 -0.71977240 0.50000000
v -0.99817110 -0.64834383 0.50000000
v -0.92674253 -0.64834383 0.57142857
v -0.99817110 -0.50548669 -0.64285714
v -0.92674253 -0.50548669 -0.71428571
v -0.99817110 -0.50548669 0.50000000
v -0.92674253 -0.57691526 0.64285714
v -0.99817110 -0.50548669 0.64285714
v -0.92674253 -0.50548669 0.71428571
v -0.99817110 -0.36262955 -0.78571429
v -0.92674253 -0.36262955 -0.85714286
v -0.92674253 -0.43405812 -0.78571429
v -0.99817110 -0.36262955 -0.64285714
v -0.99817110 -0.36262955 0.64285714
v -0.92674253 -0.43405812 0.78571429
v -0.99817110 -0.36262955 0.78571429
v -0.92674253 -0.36262955 0.85714286
v -0.99817110 -0.21977240 -0.78571429
v -0.92674253 -0.21977240 -0.85714286
v -0.99817110 -0.21977240 0.64285714
v -0.99817110 -0.21977240 0.78571429
v -0.92674253 -0.21977240 0.85714286
v -0.99817110 -0.07691526 -0.78571429
v -0.92674253 -0.07691526 -0.85714286
v -0.99817110 -0.07691526 0.64285714
v -0.99817110 -0.07691526 0.78571429
v -0.92674253 -0.07691526 0.85714286
v -0.99817110 0.06594188 -0.78571429
v -0.92674253 0.06594188 -0.85714286
v -0.99817110 0.06594188 0.64285714
v -0.99817110 0.06594188 0.78571429
v -0.92674253 0.06594188 0.85714286
v -0.99817110 0.20879902 -0.78571429
v -0.92674253 0.20879902 -0.85714286
v -0.99817110 0.20879902 0.64285714
v -0.99817110 0.20879902 0.78571429
v -0.92674253 0.20879902 0.85714286
v -0.99817110 0.35165617 -0.78571429
v -0.92674253 0.35165617 -0.85714286
v -0.99817110 0.35165617 -0.64285714
v -0.99817110 0.35165617 0.64285714
v -0.92674253 0.35165617 0.71428571
v -0.92674253 0.28022760 0.78571429
v -0.92674253 0.42308474 -0.78571429
v -0.99817110 0.49451331 -0.64285714
v -0.92674253 0.49451331 -0.71428571
v -0.99817110 0.49451331 0.64285714
v -0.92674253 0.49451331 0.71428571
v -0.92674253 0.56594188 -0.64285714
v -0.99817110 0.63737045 -0.50000000
v -0.92674253 0.63737045 -0.57142857
v -0.99817110 0.63737045 0.35714286
v -0.99817110 0.63737045 0.50000000
v -0.92674253 0.63737045 0.57142857
v -0.92674253 0.56594188 0.64285714
v -0.92674253 0.70879902 -0.50000000
v -0.99817110 0.78022760 -0.35714286
v -0.92674253 0.78022760 -0.42857143
v -0.99817110 0.78022760 -0.21428571
v -0.99817110 0.78022760 -0.07142857
v -0.99817110 0.78022760 0.07142857
v -0.99817110 0.78022760 0.21428571
v -0.99817110 0.78022760 0.35714286
v -0.99817110 0.78022760 0.50000000
v -0.92674253 0.78022760 0.57142857
v -0.92674253 0.85165617 -0.35714286
v -0.92674253 0.85165617 -0.21428571
v -0.92674253 0.85165617 -0.07142857
v -0.92674253 0.85165617 0.07142857
v -0.99817110 0.92308474 0.21428571
v -0.92674253 0.92308474 0.14285714
v -0.99817110 0.92308474 0.35714286
v -0.92674253 0.92308474 0.42857143
v -0.92674253 0.85165617 0.50000000
v -0.92674253 0.99451331 0.21428571
v -0.92674253 0.99451331 0.35714286
v -0.85531396 -0.93405812 -0.35714286
v -0.78388539 -0.93405812 -0.42857143
v -0.78388539 -1.00548669 -0.35714286
v -0.78388539 -1.00548669 -0.21428571
v -0.85531396 -0.93405812 -0.21428571
v -0.78388539 -1.00548669 -0.07142857
v -0.85531396 -0.93405812 -0.07142857
v -0.78388539 -1.00548669 0.07142857
v -0.85531396 -0.93405812 0.07142857
v -0.78388539 -1.00548669 0.21428571
v -0.85531396 -0.93405812 0.21428571
v -0.78388539 -0.93405812 0.28571429
v -0.85531396 -0.79120098 -0.64285714
v -0.78388539 -0.79120098 -0.71428571
v -0.78388539 -0.86262955 -0.64285714
v -0.78388539 -0.86262955 -0.50000000
v -0.85531396 -0.79120098 -0.50000000
v -0.78388539 -0.86262955 0.35714286
v -0.78388539 -0.86262955 0.50000000
v -0.85531396 -0.79120098 0.50000000
v -0.78388539 -0.79120098 0.57142857
v -0.78388539 -0.64834383 -0.71428571
v -0.78388539 -0.71977240 0.64285714
v -0.85531396 -0.64834383 0.64285714
v -0.78388539 -0.64834383 0.71428571
v -0.85531396 -0.50548669 -0.78571429
v -0.78388539 -0.50548669 -0.85714286
v -0.78388539 -0.57691526 -0.78571429
v -0.78388539 -0.57691526 0.78571429
v -0.85531396 -0.50548669 0.78571429
v -0.78388539 -0.50548669 0.85714286
v -0.78388539 -0.36262955 -0.85714286
v -0.78388539 -0.43405812 0.92857143
v -0.85531396 -0.36262955 0.92857143
v -0.78388539 -0.36262955 1.00000000
v -0.78388539 -0.21977240 -0.85714286
v -0.85531396 -0.21977240 0.92857143
v -0.78388539 -0.21977240 1.00000000
v -0.85531396 -0.07691526 -0.92857143
v -0.78388539 -0.07691526 -1.00000000
v -0.78388539 -0.14834383 -0.92857143
v -0.85531396 -0.07691526 0.92857143
v -0.78388539 -0.07691526 1.00000000
v -0.85531396 0.06594188 -0.92857143
v -0.78388539 0.06594188 -1.00000000
v -0.78388539 -0.00548669 0.92857143
v -0.78388539 0.06594188 0.85714286
v -0.78388539 0.13737045 -0.92857143
v -0.78388539 0.20879902 -0.85714286
v -0.78388539 0.20879902 0.85714286
v -0.78388539 0.35165617 -0.85714286
v -0.85531396 0.35165617 0.78571429
v -0.78388539 0.35165617 0.85714286
v -0.85531396 0.49451331 -0.78571429
v -0.78388539 0.49451331 -0.85714286
v -0.85531396 0.49451331 0.78571429
v -0.78388539 0.49451331 0.85714286
v -0.78388539 0.56594188 -0.78571429
v -0.85531396 0.63737045 -0.64285714
v -0.78388539 0.63737045 -0.71428571
v -0.85531396 0.63737045 0.64285714
v -0.78388539 0.63737045 0.71428571
v -0.78388539 0.56594188 0.78571429
v -0.85531396 0.78022760 -0.64285714
v -0.78388539 0.78022760 -0.71428571
v -0.85531396 0.78022760 -0.50000000
v -0.78388539 0.70879902 0.64285714
v -0.78388539 0.78022760 0.57142857
v -0.78388539 0.85165617 -0.64285714
v -0.78388539 0.85165617 -0.50000000
v -0.85531396 0.92308474 -0.35714286
v -0.78388539 0.92308474 -0.42857143
v -0.85531396 0.92308474 -0.21428571
v -0.85531396 0.92308474 -0.07142857
v -0.85531396 0.92308474 0.07142857
v -0.85531396 0.92308474 0.50000000
v -0.78388539 0.92308474 0.57142857
v -0.78388539 0.99451331 -0.35714286
v -0.78388539 0.99451331 -0.21428571
v -0.78388539 0.99451331 -0.07142857
v -0.78388539 0.99451331 0.07142857
v -0.78388539 0.99451331 0.21428571
v -0.78388539 0.99451331 0.35714286
v -0.78388539 0.99451331 0.50000000
v -0.71245682 -1.07691526 -0.21428571
v -0.64102825 -1.07691526 -0.28571429
v -0.64102825 -1.14834383 -0.21428571
v -0.64102825 -1.14834383 -0.07142857
v -0.71245682 -1.07691526 -0.07142857
v -0.64102825 -1.14834383 0.07142857
v -0.71245682 -1.07691526 0.07142857
v -0.64102825 -1.14834383 0.21428571
v -0.71245682 -1.07691526 0.21428571
v -0.64102825 -1.07691526 0.28571429
v -0.71245682 -0.93405812 -0.50000000
v -0.64102825 -0.93405812 -0.57142857
v -0.64102825 -1.00548669 -0.50000000
v -0.64102825 -1.00548669 -0.35714286
v -0.64102825 -1.00548669 0.35714286
v -0.71245682 -0.93405812 0.35714286
v -0.64102825 -1.00548669 0.50000000
v -0.71245682 -0.93405812 0.50000000
v -0.64102825 -0.93405812 0.57142857
v -0.71245682 -0.79120098 -0.78571429
v -0.64102825 -0.79120098 -0.85714286
v -0.64102825 -0.86262955 -0.78571429
v -0.64102825 -0.86262955 -0.64285714
v -0.64102825 -0.86262955 0.64285714
v -0.71245682 -0.79120098 0.64285714
v -0.64102825 -0.79120098 0.71428571
v -0.71245682 -0.64834383 -0.78571429
v -0.64102825 -0.64834383 -0.85714286
v -0.64102825 -0.71977240 0.78571429
v -0.71245682 -0.64834383 0.78571429
v -0.64102825 -0.64834383 0.85714286
v -0.64102825 -0.50548669 -0.85714286
v -0.64102825 -0.57691526 0.92857143
v -0.71245682 -0.50548669 0.92857143
v -0.64102825 -0.50548669 1.00000000
v -0.71245682 -0.36262955 -0.92857143
v -0.64102825 -0.36262955 -1.00000000
v -0.64102825 -0.43405812 -0.92857143
v -0.64102825 -0.36262955 1.00000000
v -0.71245682 -0.21977240 -0.92857143
v -0.64102825 -0.21977240 -1.00000000
v -0.64102825 -0.21977240 1.00000000
v -0.64102825 -0.07691526 -1.00000000
v -0.64102825 -0.07691526 1.00000000
v -0.64102825 0.06594188 -1.00000000
v -0.71245682 0.06594188 0.92857143
v -0.64102825 0.06594188 1.00000000
v -0.71245682 0.20879902 -0.92857143
v -0.64102825 0.20879902 -1.00000000
v -0.71245682 0.20879902 0.92857143
v -0.64102825 0.20879902 1.00000000
v -0.71245682 0.35165617 -0.92857143
v -0.64102825 0.35165617 -1.00000000
v -0.71245682 0.35165617 0.92857143
v -0.64102825 0.35165617 1.00000000
v -0.64102825 0.42308474 -0.92857143
v -0.64102825 0.49451331 -0.85714286
v -0.64102825 0.42308474 0.92857143
v -0.64102825 0.49451331 0.85714286
v -0.71245682 0.63737045 -0.78571429
v -0.64102825 0.63737045 -0.85714286
v -0.71245682 0.63737045 0.78571429
v -0.64102825 0.63737045 0.85714286
v -0.64102825 0.70879902 -0.78571429
v -0.64102825 0.78022760 -0.71428571
v -0.71245682 0.78022760 0.64285714
v -0.64102825 0.78022760 0.71428571
v -0.64102825 0.70879902 0.78571429
v -0.71245682 0.92308474 -0.64285714
v -0.64102825 0.92308474 -0.71428571
v -0.71245682 0.92308474 -0.50000000
v -0.64102825 0.85165617 0.64285714
v -0.64102825 0.92308474 0.57142857
v -0.64102825 0.99451331 -0.64285714
v -0.64102825 0.99451331 -0.50000000
v -0.71245682 1.06594188 -0.35714286
v -0.64102825 1.06594188 -0.42857143
v -0.71245682 1.06594188 -0.21428571
v -0.71245682 1.06594188 -0.07142857
v -0.71245682 1.06594188 0.07142857
v -0.71245682 1.06594188 0.21428571
v -0.71245682 1.06594188 0.35714286
v -0.71245682 1.06594188 0.50000000
v -0.64102825 1.06594188 0.57142857
v -0.64102825 1.13737045 -0.35714286
v -0.64102825 1.13737045 -0.21428571
v -0.64102825 1.13737045 -0.07142857
v -0.64102825 1.13737045 0.07142857
v -0.64102825 1.13737045 0.21428571
v -0.64102825 1.13737045 0.35714286
v -0.64102825 1.13737045 0.50000000
v -0.56959967 -1.07691526 -0.50000000
v -0.49817110 -1.07691526 -0.57142857
v -0.49817110 -1.14834383 -0.50000000
v -0.49817110 -1.14834383 -0.35714286
v -0.56959967 -1.07691526 -0.35714286
v -0.49817110 -1.14834383 -0.21428571
v -0.49817110 -1.14834383 -0.07142857
v -0.49817110 -1.14834383 0.07142857
v -0.49817110 -1.14834383 0.21428571
v -0.49817110 -1.14834383 0.35714286
v -0.56959967 -1.07691526 0.35714286
v -0.49817110 -1.07691526 0.42857143
v -0.56959967 -0.93405812 -0.64285714
v -0.49817110 -0.93405812 -0.71428571
v -0.49817110 -1.00548669 -0.64285714
v -0.49817110 -1.00548669 0.50000000
v -0.49817110 -1.00548669 0.64285714
v -0.56959967 -0.93405812 0.64285714
v -0.49817110 -0.93405812 0.71428571
v -0.49817110 -0.79120098 -0.85714286
v -0.49817110 -0.86262955 -0.78571429
v -0.49817110 -0.86262955 0.78571429
v -0.56959967 -0.79120098 0.78571429
v -0.49817110 -0.79120098 0.85714286
v -0.49817110 -0.64834383 -0.85714286
v -0.49817110 -0.64834383 0.85714286
v -0.56959967 -0.50548669 -0.92857143
v -0.49817110 -0.50548669 -1.00000000
v -0.49817110 -0.57691526 -0.92857143
v -0.49817110 -0.57691526 0.92857143
v -0.49817110 -0.50548669 1.00000000
v -0.49817110 -0.36262955 -1.00000000
v -0.49817110 -0.36262955 1.00000000
v -0.49817110 -0.21977240 -1.00000000
v -0.49817110 -0.21977240 1.00000000
v -0.49817110 -0.07691526 -1.00000000
v -0.49817110 -0.07691526 1.00000000
v -0.49817110 0.06594188 -1.00000000
v -0.49817110 0.06594188 1.00000000
v -0.49817110 0.20879902 -1.00000000
v -0.49817110 0.20879902 1.00000000
v -0.49817110 0.35165617 -1.00000000
v -0.49817110 0.35165617 1.00000000
v -0.56959967 0.49451331 -0.92857143
v -0.49817110 0.49451331 -1.00000000
v -0.56959967 0.49451331 0.92857143
v -0.49817110 0.49451331 1.00000000
v -0.49817110 0.56594188 -0.92857143
v -0.49817110 0.63737045 -0.85714286
v -0.56959967 0.63737045 0.92857143
v -0.49817110 0.63737045 1.00000000
v -0.56959967 0.78022760 -0.78571429
v -0.49817110 0.78022760 -0.85714286
v -0.56959967 0.78022760 0.78571429
v -0.49817110 0.78022760 0.85714286
v -0.49817110 0.70879902 0.92857143
v -0.49817110 0.85165617 -0.78571429
v -0.49817110 0.92308474 -0.71428571
v -0.56959967 0.92308474 0.64285714
v -0.49817110 0.92308474 0.71428571
v -0.49817110 0.85165617 0.78571429
v -0.49817110 0.99451331 -0.64285714
v -0.49817110 0.99451331 -0.50000000
v -0.49817110 1.06594188 -0.42857143
v -0.49817110 0.99451331 0.64285714
v -0.49817110 1.06594188 0.57142857
v -0.49817110 1.13737045 -0.35714286
v -0.49817110 1.13737045 -0.21428571
v -0.49817110 1.13737045 -0.07142857
v -0.49817110 1.13737045 0.07142857
v -0.49817110 1.13737045 0.21428571
v -0.49817110 1.13737045 0.35714286
v -0.49817110 1.13737045 0.50000000
v -0.42674253 -1.21977240 -0.35714286
v -0.35531396 -1.21977240 -0.42857143
v -0.35531396 -1.29120098 -0.35714286
v -0.35531396 -1.29120098 -0.21428571
v -0.42674253 -1.21977240 -0.21428571
v -0.35531396 -1.29120098 -0.07142857
v -0.42674253 -1.21977240 -0.07142857
v -0.35531396 -1.29120098 0.07142857
v -0.42674253 -1.21977240 0.07142857
v -0.35531396 -1.29120098 0.21428571
v -0.42674253 -1.21977240 0.21428571
v -0.35531396 -1.21977240 0.28571429
v -0.35531396 -1.07691526 -0.57142857
v -0.35531396 -1.14834383 -0.50000000
v -0.35531396 -1.14834383 0.35714286
v -0.35531396 -1.14834383 0.50000000
v -0.42674253 -1.07691526 0.50000000
v -0.35531396 -1.07691526 0.57142857
v -0.35531396 -0.93405812 -0.71428571
v -0.35531396 -1.00548669 -0.64285714
v -0.35531396 -1.00548669 0.64285714
v -0.35531396 -0.93405812 0.71428571
v -0.35531396 -0.79120098 -0.85714286
v -0.35531396 -0.86262955 -0.78571429
v -0.35531396 -0.86262955 0.78571429
v -0.35531396 -0.79120098 0.85714286
v -0.42674253 -0.64834383 -0.92857143
v -0.35531396 -0.64834383 -1.00000000
v -0.35531396 -0.71977240 -0.92857143
v -0.35531396 -0.71977240 0.92857143
v -0.42674253 -0.64834383 0.92857143
v -0.35531396 -0.64834383 1.00000000
v -0.35531396 -0.50548669 -1.00000000
v -0.35531396 -0.50548669 1.00000000
v -0.35531396 -0.36262955 -1.00000000
v -0.35531396 -0.36262955 1.00000000
v -0.35531396 -0.21977240 -1.00000000
v -0.35531396 -0.21977240 1.00000000
v -0.35531396 -0.07691526 -1.00000000
v -0.35531396 -0.07691526 1.00000000
v -0.35531396 0.06594188 -1.00000000
v -0.35531396 0.06594188 1.00000000
v -0.35531396 0.20879902 -1.00000000
v -0.35531396 0.20879902 1.00000000
v -0.35531396 0.35165617 -1.00000000
v -0.35531396 0.35165617 1.00000000
v -0.35531396 0.49451331 -1.00000000
v -0.35531396 0.49451331 1.00000000
v -0.42674253 0.63737045 -0.92857143
v -0.35531396 0.63737045 -1.00000000
v -0.35531396 0.63737045 1.00000000
v -0.35531396 0.70879902 -0.92857143
v -0.35531396 0.78022760 -0.85714286
v -0.35531396 0.70879902 0.92857143
v -0.35531396 0.78022760 0.85714286
v -0.42674253 0.92308474 -0.78571429
v -0.35531396 0.92308474 -0.85714286
v -0.42674253 0.92308474 0.78571429
v -0.35531396 0.92308474 0.85714286
v -0.35531396 0.99451331 -0.78571429
v -0.35531396 0.99451331 -0.64285714
v -0.42674253 1.06594188 -0.50000000
v -0.35531396 1.06594188 -0.57142857
v -0.35531396 0.99451331 0.64285714
v -0.35531396 1.06594188 0.57142857
v -0.35531396 0.99451331 0.78571429
v -0.35531396 1.13737045 -0.50000000
v -0.35531396 1.13737045 -0.35714286
v -0.42674253 1.20879902 -0.21428571
v -0.35531396 1.20879902 -0.28571429
v -0.42674253 1.20879902 -0.07142857
v -0.42674253 1.20879902 0.07142857
v -0.42674253 1.20879902 0.21428571
v -0.35531396 1.20879902 0.28571429
v -0.35531396 1.13737045 0.35714286
v -0.35531396 1.13737045 0.50000000
v -0.35531396 1.28022760 -0.21428571
v -0.35531396 1.28022760 -0.07142857
v -0.35531396 1.28022760 0.07142857
v -0.35531396 1.28022760 0.21428571
v -0.21245682 -1.21977240 -0.42857143
v -0.21245682 -1.29120098 -0.35714286
v -0.21245682 -1.29120098 -0.21428571
v -0.21245682 -1.29120098 -0.07142857
v -0.21245682 -1.29120098 0.07142857
v -0.21245682 -1.29120098 0.21428571
v -0.21245682 -1.29120098 0.35714286
v -0.28388539 -1.21977240 0.35714286
v -0.21245682 -1.21977240 0.42857143
v -0.28388539 -1.07691526 -0.64285714
v -0.21245682 -1.07691526 -0.71428571
v -0.21245682 -1.14834383 -0.64285714
v -0.21245682 -1.14834383 -0.50000000
v -0.21245682 -1.14834383 0.50000000
v -0.21245682 -1.07691526 0.57142857
v -0.28388539 -0.93405812 -0.78571429
v -0.21245682 -0.93405812 -0.85714286
v -0.21245682 -1.00548669 -0.78571429
v -0.21245682 -1.00548669 0.64285714
v -0.21245682 -1.00548669 0.78571429
v -0.28388539 -0.93405812 0.78571429
v -0.21245682 -0.93405812 0.85714286
v -0.21245682 -0.79120098 -0.85714286
v -0.21245682 -0.79120098 0.85714286
v -0.21245682 -0.64834383 -1.00000000
v -0.21245682 -0.71977240 -0.92857143
v -0.28388539 -0.64834383 0.92857143
v -0.21245682 -0.64834383 0.85714286
v -0.21245682 -0.50548669 -1.00000000
v -0.21245682 -0.57691526 0.92857143
v -0.21245682 -0.50548669 1.00000000
v -0.21245682 -0.36262955 -1.00000000
v -0.21245682 -0.36262955 1.00000000
v -0.21245682 -0.21977240 -1.00000000
v -0.21245682 -0.21977240 1.00000000
v -0.21245682 -0.07691526 -1.00000000
v -0.21245682 -0.07691526 1.00000000
v -0.21245682 0.06594188 -1.00000000
v -0.21245682 0.06594188 1.00000000
v -0.21245682 0.20879902 -1.00000000
v -0.21245682 0.20879902 1.00000000
v -0.21245682 0.35165617 -1.00000000
v -0.21245682 0.35165617 1.00000000
v -0.21245682 0.49451331 -1.00000000
v -0.21245682 0.49451331 1.00000000
v -0.21245682 0.63737045 -1.00000000
v -0.21245682 0.63737045 1.00000000
v -0.21245682 0.70879902 -0.92857143
v -0.21245682 0.78022760 -0.85714286
v -0.21245682 0.70879902 0.92857143
v -0.21245682 0.78022760 0.85714286
v -0.21245682 0.92308474 -0.85714286
v -0.21245682 0.92308474 0.85714286
v -0.21245682 0.99451331 -0.78571429
v -0.28388539 1.06594188 -0.64285714
v -0.21245682 1.06594188 -0.71428571
v -0.21245682 0.99451331 0.64285714
v -0.21245682 1.06594188 0.57142857
v -0.21245682 0.99451331 0.78571429
v -0.21245682 1.13737045 -0.64285714
v -0.21245682 1.13737045 -0.50000000
v -0.28388539 1.20879902 -0.35714286
v -0.21245682 1.20879902 -0.42857143
v -0.28388539 1.20879902 0.35714286
v -0.21245682 1.20879902 0.42857143
v -0.21245682 1.13737045 0.50000000
v -0.21245682 1.28022760 -0.35714286
v -0.21245682 1.28022760 -0.21428571
v -0.21245682 1.28022760 -0.07142857
v -0.21245682 1.28022760 0.07142857
v -0.21245682 1.28022760 0.21428571
v -0.21245682 1.28022760 0.35714286
v -0.06959967 -1.21977240 -0.42857143
v -0.06959967 -1.29120098 -0.35714286
v -0.06959967 -1.29120098 -0.21428571
v -0.06959967 -1.29120098 -0.07142857
v -0.06959967 -1.29120098 0.07142857
v -0.06959967 -1.29120098 0.21428571
v -0.14102825 -1.21977240 0.35714286
v -0.06959967 -1.21977240 0.28571429
v -0.06959967 -1.07691526 -0.71428571
v -0.06959967 -1.14834383 -0.64285714
v -0.06959967 -1.14834383 -0.50000000
v -0.06959967 -1.14834383 0.35714286
v -0.06959967 -1.14834383 0.50000000
v -0.06959967 -1.07691526 0.57142857
v -0.06959967 -0.93405812 -0.85714286
v -0.06959967 -1.00548669 -0.78571429
v -0.06959967 -1.00548669 0.64285714
v -0.06959967 -1.00548669 0.78571429
v -0.06959967 -0.93405812 0.85714286
v -0.14102825 -0.79120098 -0.92857143
v -0.06959967 -0.79120098 -1.00000000
v -0.06959967 -0.86262955 -0.92857143
v -0.06959967 -0.79120098 0.85714286
v -0.06959967 -0.64834383 -1.00000000
v -0.06959967 -0.64834383 0.85714286
v -0.06959967 -0.50548669 -1.00000000
v -0.06959967 -0.57691526 0.92857143
v -0.06959967 -0.50548669 1.00000000
v -0.06959967 -0.36262955 -1.00000000
v -0.06959967 -0.36262955 1.00000000
v -0.06959967 -0.21977240 -1.00000000
v -0.06959967 -0.21977240 1.00000000
v -0.06959967 -0.07691526 -1.00000000
v -0.06959967 -0.07691526 1.00000000
v -0.06959967 0.06594188 -1.00000000
v -0.06959967 0.06594188 1.00000000
v -0.06959967 0.20879902 -1.00000000
v -0.06959967 0.20879902 1.00000000
v -0.06959967 0.35165617 -1.00000000
v -0.06959967 0.35165617 1.00000000
v -0.06959967 0.49451331 -1.00000000
v -0.06959967 0.49451331 1.00000000
v -0.06959967 0.63737045 -1.00000000
v -0.06959967 0.63737045 1.00000000
v -0.14102825 0.78022760 -0.92857143
v -0.06959967 0.78022760 -1.00000000
v -0.14102825 0.78022760 0.92857143
v -0.06959967 0.78022760 1.00000000
v -0.06959967 0.85165617 -0.92857143
v -0.06959967 0.92308474 -0.85714286
v -0.06959967 0.85165617 0.92857143
v -0.06959967 0.92308474 0.85714286
v -0.06959967 0.99451331 -0.78571429
v -0.06959967 1.06594188 -0.71428571
v -0.14102825 1.06594188 0.64285714
v -0.06959967 1.06594188 0.71428571
v -0.06959967 0.99451331 0.78571429
v -0.06959967 1.13737045 -0.64285714
v -0.06959967 1.13737045 -0.50000000
v -0.06959967 1.20879902 -0.42857143
v -0.06959967 1.13737045 0.50000000
v -0.06959967 1.20879902 0.42857143
v -0.06959967 1.13737045 0.64285714
v -0.06959967 1.28022760 -0.35714286
v -0.06959967 1.28022760 -0.21428571
v -0.06959967 1.28022760 -0.07142857
v -0.06959967 1.28022760 0.07142857
v -0.06959967 1.28022760 0.21428571
v -0.06959967 1.28022760 0.35714286
v 0.07325747 -1.21977240 -0.42857143
v 0.07325747 -1.29120098 -0.35714286
v 0.07325747 -1.29120098 -0.21428571
v 0.07325747 -1.29120098 -0.07142857
v 0.07325747 -1.29120098 0.07142857
v 0.07325747 -1.29120098 0.21428571
v 0.07325747 -1.21977240 0.28571429
v 0.07325747 -1.07691526 -0.71428571
v 0.07325747 -1.14834383 -0.64285714
v 0.07325747 -1.14834383 -0.50000000
v 0.07325747 -1.14834383 0.35714286
v 0.07325747 -1.14834383 0.50000000
v 0.07325747 -1.07691526 0.57142857
v 0.07325747 -0.93405812 -0.85714286
v 0.07325747 -1.00548669 -0.78571429
v 0.07325747 -1.00548669 0.64285714
v 0.07325747 -1.00548669 0.78571429
v 0.07325747 -0.93405812 0.85714286
v 0.07325747 -0.79120098 -1.00000000
v 0.07325747 -0.86262955 -0.92857143
v 0.07325747 -0.79120098 0.85714286
v 0.07325747 -0.64834383 -1.00000000
v 0.07325747 -0.64834383 0.85714286
v 0.07325747 -0.50548669 -1.00000000
v 0.07325747 -0.57691526 0.92857143
v 0.07325747 -0.50548669 1.00000000
v 0.07325747 -0.36262955 -1.00000000
v 0.07325747 -0.36262955 1.00000000
v 0.07325747 -0.21977240 -1.00000000
v 0.07325747 -0.21977240 1.00000000
v 0.07325747 -0.07691526 -1.00000000
v 0.07325747 -0.07691526 1.00000000
v 0.07325747 0.06594188 -1.00000000
v 0.07325747 0.06594188 1.00000000
v 0.07325747 0.20879902 -1.00000000
v 0.07325747 0.20879902 1.00000000
v 0.07325747 0.35165617 -1.00000000
v 0.07325747 0.35165617 1.00000000
v 0.07325747 0.49451331 -1.00000000
v 0.07325747 0.49451331 1.00000000
v 0.07325747 0.63737045 -1.00000000
v 0.07325747 0.63737045 1.00000000
v 0.07325747 0.78022760 -1.00000000
v 0.07325747 0.78022760 1.00000000
v 0.07325747 0.85165617 -0.92857143
v 0.07325747 0.92308474 -0.85714286
v 0.07325747 0.85165617 0.92857143
v 0.07325747 0.92308474 0.85714286
v 0.07325747 0.99451331 -0.78571429
v 0.07325747 1.06594188 -0.71428571
v 0.00182890 1.06594188 0.64285714
v 0.07325747 0.99451331 0.64285714
v 0.07325747 1.06594188 0.57142857
v 0.07325747 0.99451331 0.78571429
v 0.07325747 1.13737045 -0.64285714
v 0.07325747 1.13737045 -0.50000000
v 0.07325747 1.20879902 -0.42857143
v 0.07325747 1.13737045 0.50000000
v 0.07325747 1.20879902 0.42857143
v 0.07325747 1.28022760 -0.35714286
v 0.07325747 1.28022760 -0.21428571
v 0.07325747 1.28022760 -0.07142857
v 0.07325747 1.28022760 0.07142857
v 0.07325747 1.28022760 0.21428571
v 0.07325747 1.28022760 0.35714286
v 0.21611461 -1.21977240 -0.42857143
v 0.21611461 -1.29120098 -0.35714286
v 0.21611461 -1.29120098 -0.21428571
v 0.21611461 -1.29120098 -0.07142857
v 0.21611461 -1.29120098 0.07142857
v 0.21611461 -1.29120098 0.21428571
v 0.21611461 -1.21977240 0.28571429
v 0.21611461 -1.07691526 -0.71428571
v 0.21611461 -1.14834383 -0.64285714
v 0.21611461 -1.14834383 -0.50000000
v 0.21611461 -1.14834383 0.35714286
v 0.21611461 -1.14834383 0.50000000
v 0.21611461 -1.07691526 0.57142857
v 0.21611461 -0.93405812 -0.85714286
v 0.21611461 -1.00548669 -0.78571429
v 0.21611461 -1.00548669 0.64285714
v 0.21611461 -1.00548669 0.78571429
v 0.21611461 -0.93405812 0.85714286
v 0.14468604 -0.79120098 -0.92857143
v 0.21611461 -0.79120098 -0.85714286
v 0.21611461 -0.79120098 0.85714286
v 0.21611461 -0.64834383 -1.00000000
v 0.21611461 -0.71977240 -0.92857143
v 0.21611461 -0.71977240 0.92857143
v 0.14468604 -0.64834383 0.92857143
v 0.21611461 -0.64834383 1.00000000
v 0.21611461 -0.50548669 -1.00000000
v 0.21611461 -0.50548669 1.00000000
v 0.21611461 -0.36262955 -1.00000000
v 0.21611461 -0.36262955 1.00000000
v 0.21611461 -0.21977240 -1.00000000
v 0.21611461 -0.21977240 1.00000000
v 0.21611461 -0.07691526 -1.00000000
v 0.21611461 -0.07691526 1.00000000
v 0.21611461 0.06594188 -1.00000000
v 0.21611461 0.06594188 1.00000000
v 0.21611461 0.20879902 -1.00000000
v 0.21611461 0.20879902 1.00000000
v 0.21611461 0.35165617 -1.00000000
v 0.21611461 0.35165617 1.00000000
v 0.21611461 0.49451331 -1.00000000
v 0.21611461 0.49451331 1.00000000
v 0.21611461 0.63737045 -1.00000000
v 0.21611461 0.63737045 1.00000000
v 0.21611461 0.78022760 -1.00000000
v 0.21611461 0.78022760 1.00000000
v 0.21611461 0.85165617 -0.92857143
v 0.21611461 0.92308474 -0.85714286
v 0.21611461 0.85165617 0.92857143
v 0.21611461 0.92308474 0.85714286
v 0.21611461 0.99451331 -0.78571429
v 0.21611461 1.06594188 -0.71428571
v 0.21611461 0.99451331 0.64285714
v 0.21611461 1.06594188 0.57142857
v 0.21611461 0.99451331 0.78571429
v 0.21611461 1.13737045 -0.64285714
v 0.21611461 1.13737045 -0.50000000
v 0.21611461 1.20879902 -0.42857143
v 0.21611461 1.13737045 0.50000000
v 0.21611461 1.20879902 0.42857143
v 0.21611461 1.28022760 -0.35714286
v 0.21611461 1.28022760 -0.21428571
v 0.21611461 1.28022760 -0.07142857
v 0.21611461 1.28022760 0.07142857
v 0.21611461 1.28022760 0.21428571
v 0.21611461 1.28022760 0.35714286
v 0.28754318 -1.21977240 -0.35714286
v 0.35897175 -1.21977240 -0.28571429
v 0.35897175 -1.29120098 -0.21428571
v 0.35897175 -1.29120098 -0.07142857
v 0.35897175 -1.29120098 0.07142857
v 0.28754318 -1.21977240 0.21428571
v 0.35897175 -1.21977240 0.14285714
v 0.35897175 -1.07691526 -0.71428571
v 0.35897175 -1.14834383 -0.64285714
v 0.35897175 -1.14834383 -0.50000000
v 0.35897175 -1.14834383 -0.35714286
v 0.35897175 -1.14834383 0.21428571
v 0.35897175 -1.14834383 0.35714286
v 0.28754318 -1.07691526 0.50000000
v 0.35897175 -1.07691526 0.42857143
v 0.35897175 -0.93405812 -0.85714286
v 0.35897175 -1.00548669 -0.78571429
v 0.35897175 -1.00548669 0.50000000
v 0.35897175 -1.00548669 0.64285714
v 0.35897175 -1.00548669 0.78571429
v 0.35897175 -0.93405812 0.85714286
v 0.35897175 -0.79120098 -0.85714286
v 0.35897175 -0.79120098 0.85714286
v 0.35897175 -0.64834383 -1.00000000
v 0.35897175 -0.71977240 -0.92857143
v 0.35897175 -0.71977240 0.92857143
v 0.35897175 -0.64834383 1.00000000
v 0.35897175 -0.50548669 -1.00000000
v 0.35897175 -0.50548669 1.00000000
v 0.35897175 -0.36262955 -1.00000000
v 0.35897175 -0.36262955 1.00000000
v 0.35897175 -0.21977240 -1.00000000
v 0.35897175 -0.21977240 1.00000000
v 0.35897175 -0.07691526 -1.00000000
v 0.35897175 -0.07691526 1.00000000
v 0.35897175 0.06594188 -1.00000000
v 0.35897175 0.06594188 1.00000000
v 0.35897175 0.20879902 -1.00000000
v 0.35897175 0.20879902 1.00000000
v 0.35897175 0.35165617 -1.00000000
v 0.35897175 0.35165617 1.00000000
v 0.35897175 0.49451331 -1.00000000
v 0.35897175 0.49451331 1.00000000
v 0.35897175 0.63737045 -1.00000000
v 0.35897175 0.63737045 1.00000000
v 0.35897175 0.78022760 -1.00000000
v 0.35897175 0.78022760 1.00000000
v 0.35897175 0.85165617 -0.92857143
v 0.35897175 0.92308474 -0.85714286
v 0.28754318 0.92308474 0.78571429
v 0.35897175 0.85165617 0.78571429
v 0.35897175 0.92308474 0.71428571
v 0.35897175 0.85165617 0.92857143
v 0.35897175 0.99451331 -0.78571429
v 0.28754318 1.06594188 -0.64285714
v 0.35897175 0.99451331 -0.64285714
v 0.35897175 1.06594188 -0.57142857
v 0.35897175 0.99451331 0.64285714
v 0.35897175 1.06594188 0.57142857
v 0.35897175 1.13737045 -0.50000000
v 0.35897175 1.20879902 -0.42857143
v 0.35897175 1.13737045 0.50000000
v 0.35897175 1.20879902 0.42857143
v 0.35897175 1.28022760 -0.35714286
v 0.35897175 1.28022760 -0.21428571
v 0.35897175 1.28022760 -0.07142857
v 0.35897175 1.28022760 0.07142857
v 0.35897175 1.28022760 0.21428571
v 0.35897175 1.28022760 0.35714286
v 0.43040033 -1.21977240 -0.21428571
v 0.43040033 -1.21977240 -0.07142857
v 0.43040033 -1.21977240 0.07142857
v 0.43040033 -1.07691526 -0.64285714
v 0.43040033 -1.07691526 -0.50000000
v 0.50182890 -1.07691526 -0.42857143
v 0.50182890 -1.14834383 -0.35714286
v 0.50182890 -1.14834383 -0.21428571
v 0.50182890 -1.14834383 -0.07142857
v 0.50182890 -1.14834383 0.07142857
v 0.50182890 -1.14834383 0.21428571
v 0.50182890 -1.14834383 0.35714286
v 0.50182890 -1.07691526 0.42857143
v 0.43040033 -0.93405812 -0.78571429
v 0.50182890 -0.93405812 -0.71428571
v 0.50182890 -1.00548669 -0.64285714
v 0.50182890 -1.00548669 -0.50000000
v 0.50182890 -1.00548669 0.50000000
v 0.43040033 -0.93405812 0.64285714
v 0.50182890 -0.93405812 0.57142857
v 0.43040033 -0.93405812 0.78571429
v 0.50182890 -0.79120098 -0.85714286
v 0.50182890 -0.86262955 -0.78571429
v 0.50182890 -0.86262955 0.64285714
v 0.50182890 -0.86262955 0.78571429
v 0.50182890 -0.79120098 0.85714286
v 0.43040033 -0.64834383 -0.92857143
v 0.50182890 -0.64834383 -0.85714286
v 0.43040033 -0.64834383 0.92857143
v 0.50182890 -0.64834383 0.85714286
v 0.50182890 -0.50548669 -1.00000000
v 0.50182890 -0.57691526 -0.92857143
v 0.50182890 -0.57691526 0.92857143
v 0.50182890 -0.50548669 1.00000000
v 0.50182890 -0.36262955 -1.00000000
v 0.50182890 -0.36262955 1.00000000
v 0.50182890 -0.21977240 -1.00000000
v 0.50182890 -0.21977240 1.00000000
v 0.50182890 -0.07691526 -1.00000000
v 0.50182890 -0.07691526 1.00000000
v 0.50182890 0.06594188 -1.00000000
v 0.50182890 0.06594188 1.00000000
v 0.50182890 0.20879902 -1.00000000
v 0.50182890 0.20879902 1.00000000
v 0.50182890 0.35165617 -1.00000000
v 0.50182890 0.35165617 1.00000000
v 0.50182890 0.49451331 -1.00000000
v 0.50182890 0.49451331 1.00000000
v 0.50182890 0.63737045 -1.00000000
v 0.50182890 0.63737045 1.00000000
v 0.50182890 0.70879902 -0.92857143
v 0.43040033 0.78022760 -0.92857143
v 0.50182890 0.78022760 -0.85714286
v 0.50182890 0.78022760 1.00000000
v 0.43040033 0.92308474 -0.78571429
v 0.50182890 0.85165617 -0.78571429
v 0.50182890 0.92308474 -0.71428571
v 0.50182890 0.85165617 0.78571429
v 0.50182890 0.92308474 0.71428571
v 0.50182890 0.85165617 0.92857143
v 0.50182890 0.99451331 -0.64285714
v 0.50182890 1.06594188 -0.57142857
v 0.43040033 1.06594188 0.50000000
v 0.50182890 0.99451331 0.50000000
v 0.50182890 1.06594188 0.42857143
v 0.50182890 0.99451331 0.64285714
v 0.50182890 1.13737045 -0.50000000
v 0.43040033 1.20879902 -0.35714286
v 0.50182890 1.13737045 -0.35714286
v 0.43040033 1.20879902 -0.21428571
v 0.50182890 1.13737045 -0.21428571
v 0.43040033 1.20879902 -0.07142857
v 0.50182890 1.13737045 -0.07142857
v 0.43040033 1.20879902 0.07142857
v 0.50182890 1.13737045 0.07142857
v 0.43040033 1.20879902 0.21428571
v 0.50182890 1.13737045 0.21428571
v 0.43040033 1.20879902 0.35714286
v 0.50182890 1.13737045 0.35714286
v 0.64468604 -1.07691526 -0.42857143
v 0.64468604 -1.14834383 -0.35714286
v 0.64468604 -1.14834383 -0.21428571
v 0.64468604 -1.14834383 -0.07142857
v 0.64468604 -1.14834383 0.07142857
v 0.64468604 -1.14834383 0.21428571
v 0.57325747 -1.07691526 0.35714286
v 0.64468604 -1.07691526 0.28571429
v 0.57325747 -0.93405812 -0.64285714
v 0.64468604 -0.93405812 -0.57142857
v 0.64468604 -1.00548669 -0.50000000
v 0.64468604 -1.00548669 0.35714286
v 0.64468604 -1.00548669 0.50000000
v 0.64468604 -0.93405812 0.57142857
v 0.57325747 -0.79120098 -0.78571429
v 0.64468604 -0.79120098 -0.71428571
v 0.64468604 -0.86262955 -0.64285714
v 0.64468604 -0.86262955 0.64285714
v 0.57325747 -0.79120098 0.78571429
v 0.64468604 -0.79120098 0.71428571
v 0.64468604 -0.64834383 -0.85714286
v 0.64468604 -0.71977240 -0.78571429
v 0.64468604 -0.71977240 0.78571429
v 0.64468604 -0.64834383 0.85714286
v 0.57325747 -0.50548669 -0.92857143
v 0.64468604 -0.50548669 -0.85714286
v 0.57325747 -0.50548669 0.92857143
v 0.64468604 -0.50548669 0.85714286
v 0.64468604 -0.36262955 -1.00000000
v 0.64468604 -0.43405812 -0.92857143
v 0.64468604 -0.43405812 0.92857143
v 0.64468604 -0.36262955 1.00000000
v 0.64468604 -0.21977240 -1.00000000
v 0.64468604 -0.21977240 1.00000000
v 0.64468604 -0.07691526 -1.00000000
v 0.64468604 -0.07691526 1.00000000
v 0.64468604 0.06594188 -1.00000000
v 0.64468604 0.06594188 1.00000000
v 0.64468604 0.20879902 -1.00000000
v 0.64468604 0.20879902 1.00000000
v 0.64468604 0.35165617 -1.00000000
v 0.64468604 0.35165617 1.00000000
v 0.64468604 0.42308474 -0.92857143
v 0.57325747 0.49451331 -0.92857143
v 0.64468604 0.49451331 -0.85714286
v 0.64468604 0.49451331 1.00000000
v 0.57325747 0.63737045 -0.92857143
v 0.64468604 0.63737045 -0.85714286
v 0.57325747 0.63737045 0.92857143
v 0.64468604 0.56594188 0.92857143
v 0.64468604 0.63737045 0.85714286
v 0.64468604 0.78022760 -0.85714286
v 0.57325747 0.78022760 0.78571429
v 0.64468604 0.70879902 0.78571429
v 0.64468604 0.78022760 0.71428571
v 0.57325747 0.78022760 0.92857143
v 0.64468604 0.85165617 -0.78571429
v 0.57325747 0.92308474 -0.64285714
v 0.64468604 0.85165617 -0.64285714
v 0.64468604 0.92308474 -0.57142857
v 0.57325747 0.92308474 0.64285714
v 0.64468604 0.85165617 0.64285714
v 0.64468604 0.92308474 0.57142857
v 0.57325747 1.06594188 -0.50000000
v 0.64468604 0.99451331 -0.50000000
v 0.64468604 1.06594188 -0.42857143
v 0.57325747 1.06594188 0.35714286
v 0.64468604 0.99451331 0.35714286
v 0.64468604 1.06594188 0.28571429
v 0.64468604 0.99451331 0.50000000
v 0.64468604 1.13737045 -0.35714286
v 0.64468604 1.13737045 -0.21428571
v 0.64468604 1.13737045 -0.07142857
v 0.64468604 1.13737045 0.07142857
v 0.64468604 1.13737045 0.21428571
v 0.71611461 -1.07691526 -0.35714286
v 0.71611461 -1.07691526 -0.21428571
v 0.71611461 -1.07691526 -0.07142857
v 0.71611461 -1.07691526 0.07142857
v 0.71611461 -1.07691526 0.21428571
v 0.71611461 -0.93405812 -0.50000000
v 0.78754318 -0.93405812 -0.42857143
v 0.78754318 -1.00548669 -0.35714286
v 0.78754318 -1.00548669 -0.21428571
v 0.78754318 -1.00548669 -0.07142857
v 0.78754318 -1.00548669 0.07142857
v 0.78754318 -1.00548669 0.21428571
v 0.78754318 -1.00548669 0.35714286
v 0.71611461 -0.93405812 0.50000000
v 0.78754318 -0.93405812 0.42857143
v 0.71611461 -0.79120098 -0.64285714
v 0.78754318 -0.79120098 -0.57142857
v 0.78754318 -0.86262955 -0.50000000
v 0.78754318 -0.86262955 0.50000000
v 0.71611461 -0.79120098 0.64285714
v 0.78754318 -0.79120098 0.57142857
v 0.71611461 -0.64834383 -0.78571429
v 0.78754318 -0.64834383 -0.71428571
v 0.78754318 -0.71977240 -0.64285714
v 0.78754318 -0.71977240 0.64285714
v 0.71611461 -0.64834383 0.78571429
v 0.78754318 -0.64834383 0.71428571
v 0.78754318 -0.50548669 -0.85714286
v 0.78754318 -0.57691526 -0.78571429
v 0.71611461 -0.50548669 0.78571429
v 0.78754318 -0.50548669 0.71428571
v 0.71611461 -0.36262955 -0.92857143
v 0.78754318 -0.36262955 -0.85714286
v 0.78754318 -0.43405812 0.78571429
v 0.71611461 -0.36262955 0.92857143
v 0.78754318 -0.36262955 0.85714286
v 0.78754318 -0.21977240 -1.00000000
v 0.78754318 -0.29120098 -0.92857143
v 0.71611461 -0.21977240 0.92857143
v 0.78754318 -0.21977240 0.85714286
v 0.78754318 -0.07691526 -1.00000000
v 0.78754318 -0.14834383 0.92857143
v 0.78754318 -0.07691526 1.00000000
v 0.78754318 0.06594188 -1.00000000
v 0.78754318 0.06594188 1.00000000
v 0.78754318 0.20879902 -1.00000000
v 0.78754318 0.20879902 1.00000000
v 0.78754318 0.28022760 -0.92857143
v 0.71611461 0.35165617 -0.92857143
v 0.78754318 0.35165617 -0.85714286
v 0.71611461 0.35165617 0.92857143
v 0.78754318 0.28022760 0.92857143
v 0.78754318 0.35165617 0.85714286
v 0.78754318 0.49451331 -0.85714286
v 0.71611461 0.49451331 0.78571429
v 0.78754318 0.42308474 0.78571429
v 0.78754318 0.49451331 0.71428571
v 0.71611461 0.49451331 0.92857143
v 0.78754318 0.56594188 -0.78571429
v 0.71611461 0.63737045 -0.78571429
v 0.78754318 0.63737045 -0.71428571
v 0.71611461 0.63737045 0.64285714
v 0.78754318 0.56594188 0.64285714
v 0.78754318 0.63737045 0.57142857
v 0.71611461 0.63737045 0.78571429
v 0.71611461 0.78022760 -0.78571429
v 0.78754318 0.70879902 -0.64285714
v 0.71611461 0.78022760 -0.64285714
v 0.78754318 0.78022760 -0.57142857
v 0.71611461 0.78022760 0.50000000
v 0.78754318 0.70879902 0.50000000
v 0.78754318 0.78022760 0.42857143
v 0.71611461 0.78022760 0.64285714
v 0.71611461 0.92308474 -0.50000000
v 0.78754318 0.85165617 -0.50000000
v 0.78754318 0.92308474 -0.42857143
v 0.71611461 0.92308474 0.35714286
v 0.78754318 0.85165617 0.35714286
v 0.78754318 0.92308474 0.28571429
v 0.71611461 0.92308474 0.50000000
v 0.71611461 1.06594188 -0.35714286
v 0.78754318 0.99451331 -0.35714286
v 0.71611461 1.06594188 -0.21428571
v 0.78754318 0.99451331 -0.21428571
v 0.71611461 1.06594188 -0.07142857
v 0.78754318 0.99451331 -0.07142857
v 0.71611461 1.06594188 0.07142857
v 0.78754318 0.99451331 0.07142857
v 0.71611461 1.06594188 0.21428571
v 0.78754318 0.99451331 0.21428571
v 0.85897175 -0.93405812 -0.35714286
v 0.85897175 -0.93405812 -0.21428571
v 0.85897175 -0.93405812 -0.07142857
v 0.85897175 -0.93405812 0.07142857
v 0.85897175 -0.93405812 0.21428571
v 0.85897175 -0.93405812 0.35714286
v 0.85897175 -0.79120098 -0.50000000
v 0.93040033 -0.79120098 -0.42857143
v 0.93040033 -0.86262955 -0.35714286
v 0.93040033 -0.86262955 -0.21428571
v 0.93040033 -0.86262955 -0.07142857
v 0.93040033 -0.86262955 0.07142857
v 0.93040033 -0.86262955 0.21428571
v 0.93040033 -0.86262955 0.35714286
v 0.85897175 -0.79120098 0.50000000
v 0.93040033 -0.79120098 0.42857143
v 0.85897175 -0.64834383 -0.64285714
v 0.93040033 -0.64834383 -0.57142857
v 0.93040033 -0.71977240 -0.50000000
v 0.93040033 -0.71977240 0.50000000
v 0.85897175 -0.64834383 0.64285714
v 0.93040033 -0.64834383 0.57142857
v 0.85897175 -0.50548669 -0.78571429
v 0.93040033 -0.50548669 -0.71428571
v 0.93040033 -0.57691526 -0.64285714
v 0.93040033 -0.57691526 0.64285714
v 0.93040033 -0.50548669 0.71428571
v 0.85897175 -0.36262955 -0.78571429
v 0.93040033 -0.36262955 -0.71428571
v 0.85897175 -0.36262955 0.78571429
v 0.93040033 -0.36262955 0.71428571
v 0.85897175 -0.21977240 -0.92857143
v 0.93040033 -0.21977240 -0.85714286
v 0.93040033 -0.29120098 -0.78571429
v 0.93040033 -0.29120098 0.78571429
v 0.93040033 -0.21977240 0.85714286
v 0.85897175 -0.07691526 -0.92857143
v 0.93040033 -0.07691526 -0.85714286
v 0.85897175 -0.07691526 0.92857143
v 0.93040033 -0.07691526 0.85714286
v 0.85897175 0.06594188 -0.92857143
v 0.93040033 0.06594188 -0.85714286
v 0.85897175 0.06594188 0.92857143
v 0.93040033 0.06594188 0.85714286
v 0.85897175 0.20879902 -0.92857143
v 0.93040033 0.20879902 -0.85714286
v 0.85897175 0.20879902 0.92857143
v 0.93040033 0.20879902 0.85714286
v 0.93040033 0.35165617 -0.85714286
v 0.85897175 0.35165617 0.78571429
v 0.93040033 0.28022760 0.78571429
v 0.93040033 0.35165617 0.71428571
v 0.93040033 0.42308474 -0.78571429
v 0.85897175 0.49451331 -0.78571429
v 0.93040033 0.49451331 -0.71428571
v 0.85897175 0.49451331 0.64285714
v 0.93040033 0.42308474 0.64285714
v 0.93040033 0.49451331 0.57142857
v 0.93040033 0.63737045 -0.71428571
v 0.93040033 0.63737045 0.57142857
v 0.93040033 0.70879902 -0.64285714
v 0.85897175 0.78022760 -0.50000000
v 0.93040033 0.70879902 -0.50000000
v 0.93040033 0.78022760 -0.42857143
v 0.93040033 0.70879902 0.50000000
v 0.93040033 0.78022760 0.42857143
v 0.85897175 0.92308474 -0.35714286
v 0.93040033 0.85165617 -0.35714286
v 0.85897175 0.92308474 -0.21428571
v 0.93040033 0.85165617 -0.21428571
v 0.85897175 0.92308474 -0.07142857
v 0.93040033 0.85165617 -0.07142857
v 0.85897175 0.92308474 0.07142857
v 0.93040033 0.85165617 0.07142857
v 0.85897175 0.92308474 0.21428571
v 0.93040033 0.85165617 0.21428571
v 0.93040033 0.85165617 0.35714286
v 1.00182890 -0.79120098 -0.35714286
v 1.00182890 -0.79120098 -0.21428571
v 1.00182890 -0.79120098 -0.07142857
v 1.00182890 -0.79120098 0.07142857
v 1.00182890 -0.79120098 0.21428571
v 1.00182890 -0.79120098 0.35714286
v 1.00182890 -0.64834383 -0.50000000
v 1.07325747 -0.64834383 -0.42857143
v 1.07325747 -0.71977240 -0.35714286
v 1.07325747 -0.71977240 -0.21428571
v 1.07325747 -0.71977240 -0.07142857
v 1.07325747 -0.71977240 0.07142857
v 1.07325747 -0.71977240 0.21428571
v 1.07325747 -0.64834383 0.28571429
v 1.00182890 -0.64834383 0.35714286
v 1.00182890 -0.64834383 0.50000000
v 1.00182890 -0.50548669 -0.64285714
v 1.07325747 -0.50548669 -0.57142857
v 1.07325747 -0.57691526 -0.50000000
v 1.00182890 -0.50548669 0.35714286
v 1.07325747 -0.50548669 0.28571429
v 1.00182890 -0.50548669 0.50000000
v 1.00182890 -0.50548669 0.64285714
v 1.00182890 -0.36262955 -0.64285714
v 1.07325747 -0.36262955 -0.57142857
v 1.07325747 -0.43405812 0.35714286
v 1.07325747 -0.43405812 0.50000000
v 1.07325747 -0.36262955 0.57142857
v 1.00182890 -0.36262955 0.64285714
v 1.00182890 -0.21977240 -0.78571429
v 1.07325747 -0.21977240 -0.71428571
v 1.07325747 -0.29120098 -0.64285714
v 1.07325747 -0.29120098 0.64285714
v 1.00182890 -0.21977240 0.78571429
v 1.07325747 -0.21977240 0.71428571
v 1.00182890 -0.07691526 -0.78571429
v 1.07325747 -0.07691526 -0.71428571
v 1.00182890 -0.07691526 0.64285714
v 1.07325747 -0.14834383 0.64285714
v 1.07325747 -0.07691526 0.57142857
v 1.00182890 -0.07691526 0.78571429
v 1.00182890 0.06594188 -0.78571429
v 1.07325747 0.06594188 -0.71428571
v 1.00182890 0.06594188 0.64285714
v 1.07325747 0.06594188 0.57142857
v 1.00182890 0.06594188 0.78571429
v 1.00182890 0.20879902 -0.78571429
v 1.07325747 0.20879902 -0.71428571
v 1.00182890 0.20879902 0.64285714
v 1.07325747 0.20879902 0.57142857
v 1.00182890 0.20879902 0.78571429
v 1.00182890 0.35165617 -0.78571429
v 1.07325747 0.28022760 -0.64285714
v 1.00182890 0.35165617 -0.64285714
v 1.07325747 0.35165617 -0.57142857
v 1.00182890 0.35165617 0.64285714
v 1.07325747 0.35165617 0.57142857
v 1.00182890 0.49451331 -0.64285714
v 1.07325747 0.42308474 -0.50000000
v 1.00182890 0.49451331 -0.50000000
v 1.07325747 0.49451331 -0.42857143
v 1.00182890 0.49451331 0.50000000
v 1.07325747 0.42308474 0.50000000
v 1.07325747 0.49451331 0.42857143
v 1.00182890 0.63737045 -0.64285714
v 1.00182890 0.63737045 -0.50000000
v 1.07325747 0.56594188 -0.35714286
v 1.00182890 0.63737045 -0.35714286
v 1.07325747 0.63737045 -0.28571429
v 1.00182890 0.63737045 0.35714286
v 1.07325747 0.56594188 0.35714286
v 1.07325747 0.63737045 0.28571429
v 1.00182890 0.63737045 0.50000000
v 1.00182890 0.78022760 -0.35714286
v 1.07325747 0.70879902 -0.21428571
v 1.00182890 0.78022760 -0.21428571
v 1.00182890 0.78022760 -0.07142857
v 1.07325747 0.70879902 -0.07142857
v 1.00182890 0.78022760 0.07142857
v 1.07325747 0.70879902 0.07142857
v 1.00182890 0.78022760 0.21428571
v 1.07325747 0.70879902 0.21428571
v 1.00182890 0.78022760 0.35714286
v 1.14468604 -0.64834383 -0.35714286
v 1.14468604 -0.64834383 -0.21428571
v 1.14468604 -0.64834383 -0.07142857
v 1.14468604 -0.64834383 0.07142857
v 1.14468604 -0.64834383 0.21428571
v 1.14468604 -0.50548669 -0.50000000
v 1.14468604 -0.50548669 -0.35714286
v 1.14468604 -0.50548669 -0.21428571
v 1.14468604 -0.50548669 -0.07142857
v 1.14468604 -0.50548669 0.07142857
v 1.14468604 -0.50548669 0.21428571
v 1.14468604 -0.36262955 -0.50000000
v 1.14468604 -0.36262955 -0.35714286
v 1.21611461 -0.36262955 -0.28571429
v 1.21611461 -0.43405812 -0.21428571
v 1.21611461 -0.43405812 -0.07142857
v 1.21611461 -0.43405812 0.07142857
v 1.21611461 -0.43405812 0.21428571
v 1.14468604 -0.36262955 0.35714286
v 1.21611461 -0.36262955 0.28571429
v 1.14468604 -0.36262955 0.50000000
v 1.14468604 -0.21977240 -0.64285714
v 1.14468604 -0.21977240 -0.50000000
v 1.21611461 -0.21977240 -0.42857143
v 1.21611461 -0.29120098 -0.35714286
v 1.14468604 -0.21977240 0.35714286
v 1.21611461 -0.21977240 0.28571429
v 1.14468604 -0.21977240 0.50000000
v 1.14468604 -0.21977240 0.64285714
v 1.14468604 -0.07691526 -0.64285714
v 1.14468604 -0.07691526 -0.50000000
v 1.21611461 -0.07691526 -0.42857143
v 1.14468604 -0.07691526 0.35714286
v 1.21611461 -0.07691526 0.28571429
v 1.14468604 -0.07691526 0.50000000
v 1.14468604 0.06594188 -0.64285714
v 1.14468604 0.06594188 -0.50000000
v 1.21611461 0.06594188 -0.42857143
v 1.21611461 -0.00548669 0.35714286
v 1.21611461 0.06594188 0.42857143
v 1.14468604 0.06594188 0.50000000
v 1.14468604 0.20879902 -0.64285714
v 1.14468604 0.20879902 -0.50000000
v 1.21611461 0.20879902 -0.42857143
v 1.14468604 0.20879902 0.35714286
v 1.21611461 0.13737045 0.35714286
v 1.21611461 0.20879902 0.28571429
v 1.14468604 0.20879902 0.50000000
v 1.14468604 0.35165617 -0.50000000
v 1.21611461 0.28022760 -0.35714286
v 1.14468604 0.35165617 -0.35714286
v 1.21611461 0.35165617 -0.28571429
v 1.14468604 0.35165617 0.21428571
v 1.21611461 0.28022760 0.21428571
v 1.21611461 0.35165617 0.14285714
v 1.14468604 0.35165617 0.35714286
v 1.14468604 0.35165617 0.50000000
v 1.14468604 0.49451331 -0.35714286
v 1.21611461 0.42308474 -0.21428571
v 1.14468604 0.49451331 -0.21428571
v 1.14468604 0.49451331 -0.07142857
v 1.21611461 0.42308474 -0.07142857
v 1.14468604 0.49451331 0.07142857
v 1.21611461 0.42308474 0.07142857
v 1.14468604 0.49451331 0.21428571
v 1.14468604 0.49451331 0.35714286
v 1.14468604 0.63737045 -0.21428571
v 1.14468604 0.63737045 -0.07142857
v 1.14468604 0.63737045 0.07142857
v 1.14468604 0.63737045 0.21428571
v 1.28754318 -0.36262955 -0.21428571
v 1.28754318 -0.36262955 -0.07142857
v 1.28754318 -0.36262955 0.07142857
v 1.28754318 -0.36262955 0.21428571
v 1.28754318 -0.21977240 -0.35714286
v 1.28754318 -0.21977240 -0.21428571
v 1.28754318 -0.21977240 -0.07142857
v 1.28754318 -0.21977240 0.07142857
v 1.28754318 -0.21977240 0.21428571
v 1.28754318 -0.07691526 -0.35714286
v 1.28754318 -0.07691526 -0.21428571
v 1.28754318 -0.07691526 -0.07142857
v 1.28754318 -0.07691526 0.07142857
v 1.28754318 -0.07691526 0.21428571
v 1.28754318 0.06594188 -0.35714286
v 1.28754318 0.06594188 -0.21428571
v 1.28754318 0.06594188 -0.07142857
v 1.28754318 0.06594188 0.07142857
v 1.28754318 0.06594188 0.21428571
v 1.28754318 0.06594188 0.35714286
v 1.28754318 0.20879902 -0.35714286
v 1.28754318 0.20879902 -0.21428571
v 1.28754318 0.20879902 -0.07142857
v 1.28754318 0.20879902 0.07142857
v 1.28754318 0.20879902 0.21428571
v 1.28754318 0.35165617 -0.21428571
v 1.28754318 0.35165617 -0.07142857
v 1.28754318 0.35165617 0.07142857
f 3 2 1
f 5 4 1
f 1 4 3
f 7 6 5
f 5 6 4
f 9 8 7
f 7 8 6
f 9 10 8
f 13 12 11
f 13 11 2
f 11 1 2
f 11 14 1
f 1 15 5
f 1 14 15
f 5 16 7
f 5 15 16
f 7 17 9
f 7 16 17
f 10 9 18
f 18 9 17
f 11 12 19
f 19 12 20
f 11 21 14
f 11 19 21
f 14 22 15
f 14 21 22
f 15 23 16
f 15 22 23
f 16 24 17
f 16 23 24
f 18 17 25
f 17 26 25
f 17 24 26
f 26 27 25
f 19 20 28
f 28 20 29
f 19 30 21
f 19 28 30
f 21 31 22
f 21 30 31
f 22 32 23
f 22 31 32
f 23 33 24
f 23 32 33
f 24 34 26
f 24 33 34
f 27 26 35
f 35 26 34
f 28 29 36
f 36 29 37
f 28 38 30
f 28 36 38
f 30 39 31
f 30 38 39
f 31 40 32
f 31 39 40
f 32 41 33
f 32 40 41
f 33 42 34
f 33 41 42
f 35 34 43
f 43 34 42
f 36 37 44
f 44 37 45
f 36 46 38
f 36 44 46
f 38 47 39
f 38 46 47
f 39 48 40
f 39 47 48
f 40 49 41
f 40 48 49
f 51 42 50
f 42 49 50
f 42 41 49
f 42 51 43
f 45 52 44
f 44 52 46
f 46 52 53
f 46 53 47
f 47 53 54
f 47 54 48
f 48 54 55
f 48 55 49
f 49 55 56
f 49 56 50
f 59 58 57
f 61 60 57
f 57 60 59
f 63 62 61
f 61 62 60
f 65 64 63
f 63 64 62
f 67 66 65
f 65 66 64
f 67 68 66
f 71 70 69
f 71 69 58
f 69 57 58
f 69 72 57
f 57 73 61
f 57 72 73
f 61 74 63
f 61 73 74
f 63 75 65
f 63 74 75
f 65 76 67
f 65 75 76
f 68 67 77
f 67 78 77
f 67 76 78
f 78 79 77
f 69 70 80
f 80 70 81
f 69 82 72
f 69 80 82
f 82 2 3
f 73 82 3
f 72 82 73
f 73 3 4
f 73 4 74
f 74 4 6
f 74 6 75
f 75 6 8
f 75 8 76
f 76 8 10
f 83 76 10
f 78 76 83
f 79 78 84
f 78 85 84
f 78 83 85
f 85 86 84
f 89 88 87
f 89 87 81
f 87 80 81
f 87 90 80
f 90 12 13
f 82 90 13
f 80 90 82
f 82 13 2
f 18 91 83
f 18 83 10
f 83 92 85
f 83 91 92
f 86 85 93
f 93 85 92
f 87 88 94
f 94 88 95
f 87 96 90
f 87 94 96
f 96 20 12
f 96 12 90
f 25 91 18
f 91 25 27
f 97 91 27
f 92 91 97
f 93 92 98
f 98 92 97
f 94 95 99
f 99 95 100
f 94 101 96
f 94 99 101
f 101 29 20
f 101 20 96
f 35 102 97
f 35 97 27
f 98 97 103
f 103 97 102
f 99 100 104
f 104 100 105
f 99 106 101
f 99 104 106
f 106 37 29
f 106 29 101
f 43 107 102
f 43 102 35
f 103 102 108
f 108 102 107
f 105 109 104
f 111 110 109
f 110 104 109
f 110 106 104
f 110 45 37
f 110 37 106
f 50 112 51
f 107 43 51
f 112 107 51
f 113 107 112
f 108 107 114
f 114 107 113
f 110 111 115
f 115 111 116
f 117 52 45
f 110 117 45
f 115 117 110
f 118 53 52
f 118 52 117
f 119 54 53
f 119 53 118
f 120 55 54
f 120 54 119
f 121 56 55
f 121 55 120
f 112 50 56
f 121 112 56
f 122 112 121
f 112 123 113
f 112 122 123
f 114 113 124
f 124 113 123
f 116 125 115
f 127 126 125
f 126 115 125
f 126 117 115
f 117 128 118
f 117 126 128
f 118 129 119
f 118 128 129
f 119 130 120
f 119 129 130
f 120 131 121
f 120 130 131
f 133 122 132
f 122 131 132
f 122 121 131
f 122 133 123
f 123 133 134
f 123 134 124
f 127 135 126
f 126 135 128
f 128 135 136
f 128 136 129
f 129 136 137
f 129 137 130
f 130 137 138
f 130 138 131
f 131 138 139
f 131 139 132
f 142 141 140
f 144 143 140
f 140 143 142
f 146 145 144
f 144 145 143
f 148 147 146
f 146 147 145
f 150 149 148
f 148 149 147
f 152 151 150
f 150 151 149
f 152 153 151
f 156 155 154
f 158 157 154
f 154 157 156
f 157 158 141
f 141 158 140
f 158 58 140
f 58 59 140
f 140 59 60
f 140 60 144
f 144 60 62
f 144 62 146
f 146 62 64
f 146 64 148
f 148 64 66
f 148 66 150
f 150 66 68
f 159 150 68
f 152 150 159
f 153 152 160
f 152 161 160
f 152 159 161
f 161 162 160
f 154 155 163
f 163 155 164
f 163 70 71
f 158 163 71
f 154 163 158
f 158 71 58
f 77 159 68
f 159 77 79
f 165 159 79
f 161 159 165
f 162 161 166
f 161 167 166
f 161 165 167
f 167 168 166
f 171 170 169
f 171 169 164
f 169 163 164
f 169 172 163
f 172 81 70
f 172 70 163
f 84 165 79
f 165 84 86
f 173 165 86
f 167 165 173
f 168 167 174
f 167 175 174
f 167 173 175
f 175 176 174
f 169 170 177
f 177 170 178
f 177 88 89
f 172 177 89
f 169 177 172
f 172 89 81
f 93 179 173
f 93 173 86
f 173 180 175
f 173 179 180
f 176 175 181
f 181 175 180
f 177 178 182
f 182 178 183
f 182 95 88
f 182 88 177
f 98 184 179
f 98 179 93
f 179 185 180
f 179 184 185
f 181 180 186
f 186 180 185
f 182 183 187
f 187 183 188
f 187 100 95
f 187 95 182
f 103 189 184
f 103 184 98
f 184 190 185
f 184 189 190
f 186 185 191
f 191 185 190
f 187 188 192
f 192 188 193
f 192 105 100
f 192 100 187
f 108 194 189
f 108 189 103
f 189 195 190
f 189 194 195
f 191 190 196
f 196 190 195
f 192 193 197
f 197 193 198
f 199 109 105
f 192 199 105
f 197 199 192
f 199 111 109
f 114 200 194
f 114 194 108
f 202 195 201
f 195 200 201
f 195 194 200
f 195 202 196
f 198 203 197
f 205 204 203
f 204 197 203
f 204 199 197
f 204 116 111
f 204 111 199
f 124 206 200
f 124 200 114
f 201 200 207
f 207 200 206
f 205 208 204
f 208 210 209
f 208 209 125
f 204 208 125
f 116 204 125
f 209 127 125
f 132 211 133
f 212 134 133
f 212 133 211
f 212 213 134
f 134 213 124
f 213 214 124
f 214 206 124
f 206 214 207
f 210 215 209
f 215 217 216
f 215 216 135
f 209 215 135
f 127 209 135
f 218 136 135
f 218 135 216
f 219 137 136
f 219 136 218
f 220 138 137
f 220 137 219
f 221 139 138
f 221 138 220
f 211 132 139
f 221 211 139
f 222 211 221
f 211 223 212
f 211 222 223
f 213 212 224
f 224 212 223
f 217 225 216
f 216 225 218
f 218 225 226
f 218 226 219
f 219 226 227
f 219 227 220
f 220 227 228
f 230 229 228
f 229 220 228
f 229 221 220
f 221 231 222
f 221 229 231
f 233 223 232
f 223 231 232
f 223 222 231
f 223 233 224
f 230 234 229
f 229 234 231
f 231 234 235
f 231 235 232
f 238 237 236
f 240 239 236
f 236 239 238
f 242 241 240
f 240 241 239
f 244 243 242
f 242 243 241
f 246 245 244
f 244 245 243
f 246 247 245
f 250 249 248
f 252 251 248
f 248 251 250
f 251 252 237
f 237 252 236
f 252 141 236
f 141 142 236
f 236 142 143
f 236 143 240
f 240 143 145
f 240 145 242
f 242 145 147
f 242 147 244
f 244 147 149
f 244 149 246
f 253 247 246
f 149 253 246
f 151 253 149
f 255 254 153
f 254 151 153
f 254 253 151
f 255 256 254
f 248 249 156
f 249 155 156
f 249 257 155
f 248 156 157
f 248 157 252
f 252 157 141
f 160 255 153
f 259 258 162
f 162 258 160
f 258 256 160
f 256 255 160
f 259 260 258
f 263 262 261
f 257 263 261
f 164 257 261
f 155 257 164
f 166 259 162
f 265 264 168
f 168 264 166
f 264 260 166
f 260 259 166
f 265 266 264
f 261 262 171
f 262 170 171
f 262 267 170
f 261 171 164
f 174 265 168
f 269 268 176
f 176 268 174
f 268 266 174
f 266 265 174
f 269 270 268
f 267 178 170
f 271 178 267
f 181 272 269
f 181 269 176
f 270 269 273
f 273 269 272
f 276 275 274
f 271 276 274
f 183 271 274
f 178 271 183
f 186 277 272
f 186 272 181
f 273 272 278
f 278 272 277
f 274 275 279
f 279 275 280
f 279 188 183
f 279 183 274
f 282 281 277
f 186 282 277
f 191 282 186
f 277 281 278
f 280 283 279
f 188 279 283
f 284 188 283
f 193 188 284
f 196 282 191
f 196 285 282
f 284 198 193
f 286 198 284
f 201 287 202
f 287 288 202
f 288 196 202
f 288 285 196
f 203 198 289
f 198 290 289
f 198 286 290
f 289 205 203
f 207 291 287
f 207 287 201
f 288 287 292
f 292 287 291
f 290 293 289
f 293 295 294
f 293 294 208
f 289 293 208
f 205 289 208
f 294 210 208
f 213 296 214
f 296 297 214
f 214 297 207
f 297 298 207
f 298 291 207
f 291 298 292
f 294 295 299
f 299 295 300
f 301 215 210
f 294 301 210
f 299 301 294
f 301 217 215
f 303 302 296
f 213 303 296
f 224 303 213
f 296 302 297
f 300 304 299
f 299 304 301
f 301 304 305
f 305 307 306
f 305 306 225
f 301 305 225
f 217 301 225
f 308 226 225
f 308 225 306
f 309 227 226
f 309 226 308
f 310 228 227
f 310 227 309
f 310 230 228
f 232 311 233
f 311 312 233
f 312 224 233
f 312 303 224
f 307 313 306
f 306 313 308
f 308 313 314
f 308 314 309
f 309 314 315
f 309 315 310
f 310 315 316
f 310 316 230
f 316 234 230
f 316 317 234
f 234 318 235
f 317 318 234
f 232 235 311
f 235 319 311
f 235 318 319
f 311 319 312
f 322 321 320
f 324 323 320
f 320 323 322
f 326 325 324
f 324 325 323
f 328 327 326
f 326 327 325
f 328 329 327
f 332 331 330
f 237 238 330
f 238 332 330
f 238 333 332
f 239 320 321
f 333 239 321
f 238 239 333
f 320 239 241
f 320 241 324
f 324 241 243
f 324 243 326
f 326 243 245
f 326 245 328
f 335 334 247
f 247 334 245
f 334 329 245
f 329 328 245
f 337 336 335
f 335 336 334
f 337 338 336
f 341 340 339
f 249 250 339
f 250 341 339
f 250 342 341
f 251 330 331
f 342 251 331
f 250 251 342
f 330 251 237
f 253 335 247
f 335 253 254
f 335 254 337
f 344 343 256
f 256 343 254
f 343 338 254
f 338 337 254
f 344 345 343
f 339 340 346
f 346 340 347
f 346 257 249
f 346 249 339
f 258 344 256
f 349 348 260
f 260 348 258
f 348 345 258
f 345 344 258
f 349 350 348
f 346 347 263
f 347 262 263
f 347 351 262
f 346 263 257
f 264 349 260
f 353 352 266
f 266 352 264
f 352 350 264
f 350 349 264
f 353 354 352
f 357 356 355
f 351 357 355
f 267 351 355
f 262 351 267
f 268 353 266
f 268 270 353
f 270 354 353
f 270 358 354
f 355 356 359
f 359 356 360
f 359 271 267
f 359 267 355
f 273 358 270
f 273 361 358
f 359 360 276
f 360 275 276
f 360 362 275
f 359 276 271
f 278 361 273
f 278 363 361
f 362 280 275
f 364 280 362
f 282 365 281
f 365 366 281
f 366 278 281
f 366 363 278
f 283 280 367
f 280 368 367
f 280 364 368
f 367 284 283
f 285 369 365
f 285 365 282
f 366 365 370
f 370 365 369
f 367 368 371
f 371 368 372
f 371 286 284
f 371 284 367
f 288 373 369
f 288 369 285
f 370 369 374
f 374 369 373
f 372 375 371
f 286 371 375
f 376 286 375
f 290 286 376
f 378 377 373
f 288 378 373
f 292 378 288
f 373 377 374
f 293 290 379
f 290 380 379
f 290 376 380
f 379 295 293
f 297 381 298
f 381 382 298
f 382 292 298
f 382 378 292
f 380 383 379
f 295 379 383
f 384 295 383
f 300 295 384
f 303 385 302
f 385 386 302
f 302 386 297
f 386 387 297
f 387 381 297
f 381 387 382
f 304 300 388
f 300 389 388
f 300 384 389
f 390 305 304
f 390 304 388
f 390 307 305
f 392 391 385
f 303 392 385
f 312 392 303
f 385 391 386
f 389 393 388
f 388 393 390
f 390 393 394
f 394 396 395
f 394 395 313
f 390 394 313
f 307 390 313
f 397 314 313
f 397 313 395
f 398 315 314
f 398 314 397
f 399 316 315
f 399 315 398
f 400 317 316
f 400 316 399
f 401 318 317
f 401 317 400
f 402 319 318
f 402 318 401
f 402 403 319
f 403 312 319
f 403 392 312
f 396 404 395
f 395 404 397
f 397 404 405
f 397 405 398
f 398 405 406
f 398 406 399
f 399 406 407
f 399 407 400
f 400 407 408
f 400 408 401
f 401 408 409
f 401 409 402
f 402 409 410
f 402 410 403
f 413 412 411
f 415 414 411
f 411 414 413
f 321 322 415
f 322 414 415
f 322 416 414
f 417 322 323
f 417 416 322
f 418 323 325
f 418 417 323
f 419 325 327
f 419 418 325
f 421 420 329
f 420 327 329
f 420 419 327
f 421 422 420
f 425 424 423
f 425 423 412
f 412 423 411
f 423 331 411
f 331 332 411
f 411 332 333
f 411 333 415
f 415 333 321
f 334 421 329
f 426 422 421
f 334 426 421
f 336 426 334
f 428 427 338
f 427 336 338
f 427 426 336
f 428 429 427
f 431 430 341
f 341 430 340
f 342 423 424
f 431 342 424
f 341 342 431
f 423 342 331
f 343 428 338
f 433 432 345
f 345 432 343
f 432 429 343
f 429 428 343
f 433 434 432
f 430 347 340
f 435 347 430
f 348 433 345
f 348 350 433
f 350 434 433
f 350 436 434
f 439 438 437
f 435 439 437
f 351 435 437
f 347 435 351
f 440 436 350
f 440 350 352
f 352 354 440
f 440 354 441
f 437 438 357
f 438 356 357
f 438 442 356
f 437 357 351
f 358 441 354
f 358 443 441
f 442 360 356
f 444 360 442
f 361 443 358
f 361 445 443
f 444 362 360
f 446 362 444
f 363 445 361
f 363 447 445
f 446 364 362
f 448 364 446
f 366 447 363
f 366 449 447
f 448 368 364
f 450 368 448
f 370 449 366
f 370 451 449
f 450 372 368
f 452 372 450
f 374 451 370
f 374 453 451
f 375 372 454
f 372 455 454
f 372 452 455
f 454 376 375
f 378 456 377
f 456 457 377
f 457 374 377
f 457 453 374
f 455 458 454
f 376 454 458
f 459 376 458
f 380 376 459
f 382 460 456
f 382 456 378
f 457 456 461
f 461 456 460
f 383 380 462
f 380 463 462
f 380 459 463
f 462 384 383
f 386 464 387
f 464 465 387
f 387 465 382
f 465 466 382
f 466 460 382
f 460 466 461
f 463 467 462
f 384 462 467
f 468 384 467
f 389 384 468
f 392 469 391
f 469 470 391
f 391 470 386
f 470 471 386
f 471 464 386
f 464 471 465
f 468 472 389
f 389 472 393
f 393 473 394
f 472 473 393
f 396 394 473
f 396 473 474
f 476 475 469
f 392 476 469
f 403 476 392
f 469 475 470
f 474 477 396
f 396 477 404
f 404 478 405
f 477 478 404
f 405 479 406
f 478 479 405
f 406 480 407
f 479 480 406
f 407 481 408
f 480 481 407
f 408 482 409
f 481 482 408
f 409 483 410
f 482 483 409
f 403 410 476
f 476 410 483
f 486 485 484
f 488 487 484
f 484 487 486
f 490 489 488
f 488 489 487
f 492 491 490
f 490 491 489
f 494 493 492
f 492 493 491
f 494 495 493
f 497 496 413
f 413 496 412
f 414 484 485
f 497 414 485
f 413 414 497
f 484 414 416
f 484 416 488
f 488 416 417
f 488 417 490
f 490 417 418
f 490 418 492
f 492 418 419
f 492 419 494
f 498 495 494
f 419 498 494
f 420 498 419
f 500 499 422
f 499 420 422
f 499 498 420
f 500 501 499
f 503 502 425
f 425 502 424
f 425 412 496
f 425 496 503
f 426 500 422
f 504 501 500
f 426 504 500
f 427 504 426
f 427 429 504
f 504 429 505
f 507 506 431
f 431 506 430
f 431 424 502
f 431 502 507
f 508 505 429
f 508 429 432
f 432 434 508
f 508 434 509
f 512 511 510
f 506 512 510
f 435 506 510
f 430 506 435
f 436 514 513
f 509 436 513
f 434 436 509
f 514 515 513
f 510 511 439
f 511 438 439
f 511 516 438
f 510 439 435
f 440 514 436
f 440 441 514
f 441 515 514
f 441 517 515
f 516 442 438
f 518 442 516
f 443 517 441
f 443 519 517
f 518 444 442
f 520 444 518
f 445 519 443
f 445 521 519
f 520 446 444
f 522 446 520
f 447 521 445
f 447 523 521
f 522 448 446
f 524 448 522
f 449 523 447
f 449 525 523
f 524 450 448
f 526 450 524
f 451 525 449
f 451 527 525
f 526 452 450
f 528 452 526
f 453 527 451
f 453 529 527
f 528 455 452
f 530 455 528
f 457 529 453
f 457 531 529
f 458 455 532
f 455 533 532
f 455 530 533
f 532 459 458
f 461 531 457
f 461 534 531
f 533 535 532
f 459 532 535
f 536 459 535
f 463 459 536
f 538 537 466
f 538 466 465
f 461 466 534
f 534 466 537
f 467 463 539
f 463 540 539
f 463 536 540
f 539 468 467
f 470 541 471
f 541 542 471
f 542 465 471
f 542 538 465
f 540 543 539
f 539 543 468
f 543 472 468
f 543 544 472
f 544 546 545
f 473 544 545
f 472 544 473
f 545 474 473
f 548 547 475
f 548 475 476
f 470 475 541
f 475 549 541
f 475 547 549
f 541 549 542
f 546 550 545
f 545 550 474
f 550 477 474
f 550 551 477
f 551 553 552
f 478 551 552
f 477 551 478
f 554 479 478
f 554 478 552
f 555 480 479
f 555 479 554
f 556 481 480
f 556 480 555
f 481 556 557
f 558 481 557
f 482 481 558
f 482 559 483
f 558 559 482
f 476 483 548
f 548 483 559
f 553 560 552
f 552 560 554
f 554 560 561
f 554 561 555
f 555 561 562
f 555 562 556
f 556 562 563
f 556 563 557
f 565 564 486
f 486 564 485
f 566 486 487
f 566 565 486
f 567 487 489
f 567 566 487
f 568 489 491
f 568 567 489
f 569 491 493
f 569 568 491
f 571 570 495
f 570 493 495
f 570 569 493
f 571 572 570
f 575 574 573
f 496 497 573
f 497 575 573
f 497 576 575
f 497 485 564
f 497 564 576
f 498 571 495
f 577 572 571
f 498 577 571
f 499 577 498
f 499 501 577
f 577 501 578
f 581 580 579
f 581 579 574
f 574 579 573
f 579 502 573
f 502 503 573
f 573 503 496
f 582 578 501
f 582 501 504
f 584 583 505
f 583 504 505
f 583 582 504
f 584 585 583
f 579 580 507
f 580 506 507
f 580 586 506
f 579 507 502
f 508 584 505
f 508 509 584
f 509 585 584
f 509 587 585
f 589 588 512
f 512 588 511
f 512 506 586
f 512 586 589
f 509 513 590
f 591 509 590
f 587 509 591
f 515 590 513
f 588 516 511
f 592 516 588
f 593 591 590
f 590 515 593
f 515 594 593
f 515 517 594
f 592 518 516
f 595 518 592
f 519 594 517
f 519 596 594
f 595 520 518
f 597 520 595
f 521 596 519
f 521 598 596
f 597 522 520
f 599 522 597
f 523 598 521
f 523 600 598
f 599 524 522
f 601 524 599
f 525 600 523
f 525 602 600
f 601 526 524
f 603 526 601
f 527 602 525
f 527 604 602
f 603 528 526
f 605 528 603
f 529 604 527
f 529 606 604
f 605 530 528
f 607 530 605
f 531 606 529
f 531 608 606
f 607 533 530
f 609 533 607
f 534 608 531
f 534 610 608
f 609 611 533
f 533 611 535
f 536 535 611
f 536 611 612
f 614 613 537
f 614 537 538
f 534 537 610
f 610 537 613
f 612 540 536
f 615 540 612
f 542 614 538
f 542 616 614
f 615 617 540
f 540 617 543
f 617 619 618
f 544 617 618
f 543 617 544
f 618 546 544
f 621 620 547
f 621 547 548
f 547 622 549
f 620 622 547
f 542 549 616
f 616 549 622
f 619 623 618
f 618 623 546
f 623 550 546
f 623 624 550
f 624 626 625
f 551 624 625
f 550 624 551
f 625 553 551
f 557 627 558
f 558 627 628
f 629 558 628
f 559 558 629
f 548 559 621
f 621 559 629
f 626 630 625
f 625 630 553
f 630 560 553
f 630 631 560
f 560 632 561
f 631 632 560
f 561 633 562
f 632 633 561
f 562 634 563
f 633 634 562
f 557 563 627
f 563 635 627
f 563 634 635
f 627 635 628
f 637 636 565
f 565 636 564
f 638 565 566
f 638 637 565
f 639 566 567
f 639 638 566
f 640 567 568
f 640 639 567
f 641 568 569
f 641 640 568
f 643 641 642
f 641 570 642
f 641 569 570
f 572 642 570
f 645 644 575
f 575 644 574
f 646 575 576
f 646 645 575
f 576 564 636
f 576 636 646
f 647 643 642
f 647 642 572
f 577 647 572
f 648 647 577
f 577 578 648
f 648 578 649
f 651 650 581
f 581 650 580
f 581 574 644
f 581 644 651
f 652 649 578
f 652 578 582
f 653 582 583
f 653 652 582
f 583 585 653
f 653 585 654
f 657 656 655
f 650 657 655
f 586 650 655
f 580 650 586
f 587 654 585
f 587 658 654
f 655 656 589
f 656 588 589
f 656 659 588
f 655 589 586
f 591 658 587
f 591 660 658
f 659 592 588
f 661 592 659
f 662 660 591
f 662 591 593
f 593 594 662
f 662 594 663
f 661 595 592
f 664 595 661
f 596 663 594
f 596 665 663
f 664 597 595
f 666 597 664
f 598 665 596
f 598 667 665
f 666 599 597
f 668 599 666
f 600 667 598
f 600 669 667
f 668 601 599
f 670 601 668
f 602 669 600
f 602 671 669
f 670 603 601
f 672 603 670
f 604 671 602
f 604 673 671
f 672 605 603
f 674 605 672
f 606 673 604
f 606 675 673
f 674 607 605
f 676 607 674
f 608 675 606
f 608 677 675
f 676 609 607
f 678 609 676
f 610 677 608
f 610 679 677
f 611 609 680
f 609 681 680
f 609 678 681
f 680 612 611
f 614 682 613
f 682 683 613
f 683 610 613
f 683 679 610
f 681 684 680
f 612 680 684
f 685 612 684
f 615 612 685
f 687 686 682
f 614 687 682
f 616 687 614
f 682 686 683
f 685 688 615
f 615 688 617
f 619 617 688
f 619 688 689
f 621 690 620
f 620 690 691
f 692 620 691
f 622 620 692
f 616 622 687
f 687 622 692
f 689 693 619
f 619 693 623
f 623 694 624
f 693 694 623
f 626 624 694
f 626 694 695
f 697 696 629
f 697 629 628
f 621 629 690
f 629 698 690
f 629 696 698
f 690 698 691
f 695 699 626
f 626 699 630
f 630 700 631
f 699 700 630
f 631 701 632
f 700 701 631
f 632 702 633
f 701 702 632
f 633 703 634
f 702 703 633
f 634 704 635
f 703 704 634
f 628 635 697
f 697 635 704
f 706 705 637
f 637 705 636
f 707 637 638
f 707 706 637
f 708 638 639
f 708 707 638
f 709 639 640
f 709 708 639
f 710 640 641
f 710 709 640
f 641 643 710
f 710 643 711
f 713 712 645
f 645 712 644
f 714 645 646
f 714 713 645
f 646 636 705
f 646 705 714
f 715 711 643
f 715 643 647
f 716 647 648
f 716 715 647
f 648 649 716
f 716 649 717
f 719 718 651
f 651 718 650
f 651 644 712
f 651 712 719
f 720 717 649
f 720 649 652
f 721 652 653
f 721 720 652
f 653 654 721
f 721 654 722
f 724 723 657
f 657 723 656
f 657 650 718
f 657 718 724
f 658 722 654
f 658 725 722
f 723 659 656
f 726 659 723
f 660 725 658
f 660 727 725
f 726 661 659
f 728 661 726
f 729 727 660
f 729 660 662
f 662 663 729
f 729 663 730
f 728 664 661
f 731 664 728
f 665 730 663
f 665 732 730
f 731 666 664
f 733 666 731
f 667 732 665
f 667 734 732
f 733 668 666
f 735 668 733
f 669 734 667
f 669 736 734
f 735 670 668
f 737 670 735
f 671 736 669
f 671 738 736
f 737 672 670
f 739 672 737
f 673 738 671
f 673 740 738
f 739 674 672
f 741 674 739
f 675 740 673
f 675 742 740
f 741 676 674
f 743 676 741
f 677 742 675
f 677 744 742
f 743 678 676
f 745 678 743
f 679 744 677
f 679 746 744
f 745 681 678
f 747 681 745
f 683 746 679
f 683 748 746
f 747 749 681
f 681 749 684
f 685 684 749
f 685 749 750
f 752 751 686
f 752 686 687
f 683 686 748
f 748 686 751
f 750 753 685
f 685 753 688
f 689 688 753
f 689 753 754
f 757 756 755
f 692 691 755
f 756 692 755
f 758 692 756
f 687 692 752
f 752 692 758
f 754 759 689
f 689 759 693
f 693 760 694
f 759 760 693
f 695 694 760
f 695 760 761
f 763 762 696
f 763 696 697
f 755 698 757
f 698 762 757
f 698 696 762
f 698 755 691
f 761 764 695
f 695 764 699
f 699 765 700
f 764 765 699
f 700 766 701
f 765 766 700
f 701 767 702
f 766 767 701
f 702 768 703
f 767 768 702
f 703 769 704
f 768 769 703
f 697 704 763
f 763 704 769
f 771 770 706
f 706 770 705
f 772 706 707
f 772 771 706
f 773 707 708
f 773 772 707
f 774 708 709
f 774 773 708
f 775 709 710
f 775 774 709
f 710 711 775
f 775 711 776
f 778 777 713
f 713 777 712
f 779 713 714
f 779 778 713
f 714 705 770
f 714 770 779
f 780 776 711
f 780 711 715
f 781 715 716
f 781 780 715
f 716 717 781
f 781 717 782
f 784 783 719
f 719 783 718
f 719 712 777
f 719 777 784
f 785 782 717
f 785 717 720
f 786 720 721
f 786 785 720
f 721 722 786
f 786 722 787
f 788 723 724
f 789 788 724
f 718 789 724
f 783 789 718
f 725 787 722
f 725 790 787
f 792 791 788
f 791 723 788
f 791 726 723
f 792 788 789
f 727 794 793
f 790 727 793
f 725 727 790
f 794 795 793
f 791 728 726
f 796 728 791
f 729 794 727
f 729 730 794
f 730 795 794
f 730 797 795
f 796 731 728
f 798 731 796
f 732 797 730
f 732 799 797
f 798 733 731
f 800 733 798
f 734 799 732
f 734 801 799
f 800 735 733
f 802 735 800
f 736 801 734
f 736 803 801
f 802 737 735
f 804 737 802
f 738 803 736
f 738 805 803
f 804 739 737
f 806 739 804
f 740 805 738
f 740 807 805
f 806 741 739
f 808 741 806
f 742 807 740
f 742 809 807
f 808 743 741
f 810 743 808
f 744 809 742
f 744 811 809
f 810 745 743
f 812 745 810
f 746 811 744
f 746 813 811
f 812 747 745
f 814 747 812
f 748 813 746
f 748 815 813
f 814 816 747
f 747 816 749
f 750 749 816
f 750 816 817
f 819 818 751
f 819 751 752
f 748 751 815
f 815 751 818
f 817 820 750
f 750 820 753
f 754 753 820
f 754 820 821
f 823 822 756
f 823 756 757
f 756 824 758
f 822 824 756
f 752 758 819
f 819 758 824
f 821 825 754
f 754 825 759
f 759 826 760
f 825 826 759
f 761 760 826
f 761 826 827
f 829 828 762
f 829 762 763
f 757 762 823
f 823 762 828
f 827 830 761
f 761 830 764
f 764 831 765
f 830 831 764
f 765 832 766
f 831 832 765
f 766 833 767
f 832 833 766
f 767 834 768
f 833 834 767
f 768 835 769
f 834 835 768
f 763 769 829
f 829 769 835
f 836 770 771
f 836 771 837
f 771 838 837
f 771 772 838
f 839 772 773
f 839 838 772
f 840 773 774
f 840 839 773
f 842 840 841
f 840 775 841
f 840 774 775
f 776 841 775
f 844 843 778
f 778 843 777
f 845 778 779
f 845 844 778
f 779 770 836
f 846 779 836
f 845 779 846
f 846 836 837
f 847 842 841
f 847 841 776
f 780 847 776
f 848 847 780
f 850 848 849
f 848 781 849
f 848 780 781
f 782 849 781
f 852 851 784
f 784 851 783
f 784 777 843
f 784 843 852
f 853 850 849
f 853 849 782
f 785 853 782
f 854 853 785
f 855 785 786
f 855 854 785
f 786 787 855
f 855 787 856
f 851 789 783
f 857 789 851
f 790 856 787
f 790 858 856
f 860 859 792
f 792 859 791
f 792 789 857
f 792 857 860
f 861 858 790
f 861 790 793
f 793 795 861
f 861 795 862
f 859 796 791
f 863 796 859
f 797 862 795
f 797 864 862
f 863 798 796
f 865 798 863
f 799 864 797
f 799 866 864
f 865 800 798
f 867 800 865
f 801 866 799
f 801 868 866
f 867 802 800
f 869 802 867
f 803 868 801
f 803 870 868
f 869 804 802
f 871 804 869
f 805 870 803
f 805 872 870
f 871 806 804
f 873 806 871
f 807 872 805
f 807 874 872
f 873 808 806
f 875 808 873
f 809 874 807
f 809 876 874
f 875 810 808
f 877 810 875
f 811 876 809
f 811 878 876
f 877 812 810
f 879 812 877
f 813 878 811
f 813 880 878
f 879 814 812
f 881 814 879
f 815 880 813
f 815 882 880
f 881 883 814
f 814 883 816
f 817 816 883
f 817 883 884
f 887 886 885
f 818 819 885
f 886 818 885
f 888 818 886
f 815 818 882
f 882 818 888
f 884 889 817
f 817 889 820
f 891 890 821
f 820 891 821
f 889 891 820
f 892 890 891
f 894 893 822
f 894 822 823
f 885 824 887
f 824 893 887
f 824 822 893
f 824 885 819
f 890 825 821
f 892 895 890
f 895 825 890
f 895 826 825
f 827 826 895
f 827 895 896
f 898 897 828
f 898 828 829
f 823 828 894
f 894 828 897
f 896 899 827
f 827 899 830
f 830 900 831
f 899 900 830
f 831 901 832
f 900 901 831
f 832 902 833
f 901 902 832
f 833 903 834
f 902 903 833
f 834 904 835
f 903 904 834
f 829 835 898
f 898 835 904
f 905 837 838
f 839 906 838
f 838 906 905
f 840 907 839
f 839 907 906
f 842 907 840
f 908 843 844
f 845 909 844
f 844 909 908
f 909 845 910
f 845 911 910
f 845 846 911
f 846 837 905
f 912 846 905
f 911 846 912
f 912 905 906
f 912 906 913
f 913 906 907
f 913 907 914
f 914 907 842
f 847 914 842
f 915 914 847
f 916 847 848
f 916 915 847
f 848 850 916
f 916 850 917
f 918 851 852
f 919 918 852
f 919 852 843
f 920 919 843
f 908 920 843
f 920 908 909
f 920 909 921
f 921 909 910
f 922 917 850
f 922 850 853
f 924 922 923
f 922 854 923
f 922 853 854
f 855 925 854
f 854 925 923
f 856 925 855
f 927 926 918
f 926 851 918
f 926 857 851
f 927 918 919
f 928 924 923
f 928 923 925
f 928 925 929
f 925 856 929
f 856 930 929
f 856 858 930
f 931 859 860
f 932 931 860
f 857 932 860
f 926 932 857
f 858 861 933
f 934 858 933
f 930 858 934
f 862 933 861
f 936 935 931
f 935 859 931
f 935 863 859
f 936 931 932
f 937 934 933
f 933 862 937
f 862 938 937
f 862 864 938
f 935 865 863
f 939 865 935
f 866 938 864
f 866 940 938
f 939 867 865
f 941 867 939
f 868 940 866
f 868 942 940
f 941 869 867
f 943 869 941
f 870 942 868
f 870 944 942
f 943 871 869
f 945 871 943
f 872 944 870
f 872 946 944
f 945 873 871
f 947 873 945
f 874 946 872
f 874 948 946
f 947 875 873
f 949 875 947
f 876 948 874
f 876 950 948
f 949 877 875
f 951 877 949
f 878 950 876
f 878 952 950
f 951 879 877
f 953 879 951
f 880 952 878
f 880 954 952
f 956 881 955
f 881 953 955
f 881 879 953
f 957 956 955
f 882 954 880
f 882 958 954
f 956 883 881
f 960 959 884
f 960 884 883
f 957 960 883
f 956 957 883
f 961 959 960
f 963 962 886
f 963 886 887
f 886 964 888
f 962 964 886
f 882 888 958
f 958 888 964
f 959 889 884
f 961 965 959
f 965 889 959
f 965 891 889
f 892 891 965
f 892 965 966
f 969 968 967
f 893 894 967
f 968 893 967
f 970 893 968
f 887 893 963
f 963 893 970
f 966 971 892
f 892 971 895
f 973 972 896
f 895 973 896
f 971 973 895
f 975 974 972
f 975 972 973
f 977 976 974
f 977 974 975
f 979 978 976
f 979 976 977
f 981 980 978
f 981 978 979
f 983 982 980
f 983 980 981
f 982 983 969
f 982 969 967
f 898 982 967
f 897 898 967
f 897 967 894
f 972 899 896
f 899 972 900
f 900 972 974
f 900 974 901
f 901 974 976
f 901 976 902
f 902 976 978
f 902 978 903
f 903 978 980
f 903 980 904
f 904 980 982
f 904 982 898
f 985 984 911
f 911 984 910
f 986 911 912
f 986 985 911
f 987 912 913
f 987 986 912
f 988 913 914
f 988 987 913
f 989 914 915
f 989 988 914
f 991 989 990
f 989 916 990
f 989 915 916
f 917 990 916
f 992 919 920
f 992 920 993
f 920 994 993
f 920 921 994
f 921 910 984
f 921 984 994
f 995 991 990
f 995 990 917
f 922 995 917
f 996 995 922
f 922 924 996
f 996 924 997
f 998 926 927
f 999 998 927
f 999 927 919
f 1000 999 919
f 992 1000 919
f 1000 992 993
f 1001 997 924
f 1001 924 928
f 1003 1001 1002
f 1001 929 1002
f 1001 928 929
f 930 1002 929
f 1005 1004 998
f 1004 926 998
f 1004 932 926
f 1005 998 999
f 1006 1003 1002
f 1002 930 1006
f 930 1007 1006
f 930 934 1007
f 1008 935 936
f 1009 1008 936
f 932 1009 936
f 1004 1009 932
f 934 937 1010
f 1011 934 1010
f 1007 934 1011
f 938 1010 937
f 1013 1012 1008
f 1012 935 1008
f 1012 939 935
f 1013 1008 1009
f 1014 1011 1010
f 1010 938 1014
f 938 1015 1014
f 938 940 1015
f 1012 941 939
f 1016 941 1012
f 942 1015 940
f 942 1017 1015
f 1016 943 941
f 1018 943 1016
f 944 1017 942
f 944 1019 1017
f 1018 945 943
f 1020 945 1018
f 946 1019 944
f 946 1021 1019
f 1020 947 945
f 1022 947 1020
f 948 1021 946
f 948 1023 1021
f 1022 949 947
f 1024 949 1022
f 950 1023 948
f 950 1025 1023
f 1027 951 1026
f 951 1024 1026
f 951 949 1024
f 1028 1027 1026
f 952 1025 950
f 952 1029 1025
f 1030 953 1027
f 1027 953 951
f 1027 1028 1031
f 1027 1031 1030
f 1034 1033 1032
f 1033 1029 1032
f 1029 954 1032
f 1029 952 954
f 1030 955 953
f 957 955 1030
f 1031 957 1030
f 1035 957 1031
f 1038 1037 1036
f 1036 1037 1034
f 1032 1036 1034
f 1039 1036 1032
f 958 1039 954
f 954 1039 1032
f 1035 1040 957
f 957 1040 960
f 1042 1041 961
f 960 1042 961
f 1040 1042 960
f 1043 1041 1042
f 1046 1045 1044
f 1044 1045 1038
f 1044 1038 1036
f 963 1044 1036
f 962 963 1036
f 962 1036 964
f 964 1036 1039
f 964 1039 958
f 1041 965 961
f 1048 1047 966
f 1048 966 965
f 1043 1048 965
f 1041 1043 965
f 1049 1047 1048
f 1052 1051 1050
f 968 969 1050
f 1051 968 1050
f 1053 968 1051
f 1044 970 1046
f 970 1053 1046
f 970 968 1053
f 970 1044 963
f 1047 971 966
f 1049 1054 1047
f 1054 971 1047
f 1054 973 971
f 973 1055 975
f 1054 1055 973
f 975 1056 977
f 1055 1056 975
f 977 1057 979
f 1056 1057 977
f 979 1058 981
f 1057 1058 979
f 1050 983 1052
f 983 1058 1052
f 983 981 1058
f 983 1050 969
f 1059 984 985
f 986 1060 985
f 985 1060 1059
f 987 1061 986
f 986 1061 1060
f 988 1062 987
f 987 1062 1061
f 989 1063 988
f 988 1063 1062
f 991 1063 989
f 1064 993 994
f 1065 1064 994
f 1065 994 984
f 1066 1065 984
f 1059 1066 984
f 1066 1059 1060
f 1066 1060 1067
f 1067 1060 1061
f 1067 1061 1068
f 1068 1061 1062
f 1068 1062 1069
f 1069 1062 1063
f 1069 1063 1070
f 1070 1063 991
f 995 1070 991
f 1071 1070 995
f 1073 1071 1072
f 1071 996 1072
f 1071 995 996
f 997 1072 996
f 1074 999 1000
f 1075 1074 1000
f 1075 1000 993
f 1076 1075 993
f 1064 1076 993
f 1076 1064 1065
f 1077 1073 1072
f 1079 1077 1078
f 1078 1077 1001
f 1077 1072 1001
f 1072 997 1001
f 1003 1078 1001
f 1080 1004 1005
f 1081 1080 1005
f 1081 1005 999
f 1082 1081 999
f 1074 1082 999
f 1082 1074 1075
f 1083 1079 1078
f 1085 1083 1084
f 1084 1083 1006
f 1083 1078 1006
f 1078 1003 1006
f 1007 1084 1006
f 1087 1086 1080
f 1086 1004 1080
f 1086 1009 1004
f 1087 1080 1081
f 1085 1084 1088
f 1085 1088 1089
f 1011 1088 1007
f 1007 1088 1084
f 1090 1012 1013
f 1091 1090 1013
f 1009 1091 1013
f 1086 1091 1009
f 1092 1089 1088
f 1094 1092 1093
f 1093 1092 1014
f 1092 1088 1014
f 1088 1011 1014
f 1015 1093 1014
f 1096 1095 1090
f 1095 1012 1090
f 1095 1016 1012
f 1096 1090 1091
f 1094 1093 1097
f 1094 1097 1098
f 1017 1097 1015
f 1015 1097 1093
f 1095 1018 1016
f 1099 1018 1095
f 1100 1098 1097
f 1097 1017 1100
f 1017 1101 1100
f 1017 1019 1101
f 1099 1020 1018
f 1102 1020 1099
f 1021 1101 1019
f 1021 1103 1101
f 1102 1022 1020
f 1104 1022 1102
f 1023 1103 1021
f 1023 1105 1103
f 1107 1024 1106
f 1024 1104 1106
f 1024 1022 1104
f 1108 1107 1106
f 1111 1110 1109
f 1110 1105 1109
f 1105 1025 1109
f 1105 1023 1025
f 1107 1026 1024
f 1028 1026 1107
f 1108 1028 1107
f 1112 1028 1108
f 1115 1114 1113
f 1113 1114 1111
f 1109 1113 1111
f 1116 1113 1109
f 1029 1116 1025
f 1025 1116 1109
f 1118 1031 1117
f 1031 1112 1117
f 1031 1028 1112
f 1119 1118 1117
f 1122 1121 1120
f 1120 1121 1115
f 1113 1120 1115
f 1123 1120 1113
f 1034 1123 1033
f 1123 1116 1033
f 1123 1113 1116
f 1033 1116 1029
f 1124 1035 1118
f 1118 1035 1031
f 1118 1119 1125
f 1126 1118 1125
f 1124 1118 1126
f 1127 1126 1125
f 1130 1129 1128
f 1128 1129 1122
f 1120 1128 1122
f 1131 1128 1120
f 1038 1131 1037
f 1131 1123 1037
f 1131 1120 1123
f 1037 1123 1034
f 1124 1040 1035
f 1040 1124 1042
f 1042 1124 1126
f 1133 1132 1043
f 1133 1043 1042
f 1127 1133 1042
f 1126 1127 1042
f 1134 1132 1133
f 1137 1136 1135
f 1135 1136 1130
f 1128 1135 1130
f 1138 1135 1128
f 1046 1138 1045
f 1138 1131 1045
f 1138 1128 1131
f 1045 1131 1038
f 1132 1048 1043
f 1140 1139 1049
f 1140 1049 1048
f 1134 1140 1048
f 1132 1134 1048
f 1142 1141 1139
f 1142 1139 1140
f 1144 1143 1141
f 1144 1141 1142
f 1146 1145 1143
f 1146 1143 1144
f 1148 1147 1145
f 1148 1145 1146
f 1147 1148 1137
f 1147 1137 1135
f 1052 1147 1135
f 1051 1052 1135
f 1051 1135 1053
f 1053 1135 1138
f 1053 1138 1046
f 1139 1054 1049
f 1054 1139 1055
f 1055 1139 1141
f 1055 1141 1056
f 1056 1141 1143
f 1056 1143 1057
f 1057 1143 1145
f 1057 1145 1058
f 1058 1145 1147
f 1058 1147 1052
f 1149 1065 1066
f 1067 1150 1066
f 1066 1150 1149
f 1068 1151 1067
f 1067 1151 1150
f 1069 1152 1068
f 1068 1152 1151
f 1070 1153 1069
f 1069 1153 1152
f 1071 1154 1070
f 1070 1154 1153
f 1073 1154 1071
f 1155 1075 1076
f 1156 1155 1076
f 1156 1076 1065
f 1157 1156 1065
f 1149 1157 1065
f 1157 1149 1150
f 1157 1150 1158
f 1158 1150 1151
f 1158 1151 1159
f 1159 1151 1152
f 1159 1152 1160
f 1160 1152 1153
f 1160 1153 1161
f 1161 1153 1154
f 1161 1154 1162
f 1164 1162 1163
f 1163 1162 1077
f 1162 1154 1077
f 1154 1073 1077
f 1079 1163 1077
f 1165 1081 1082
f 1166 1165 1082
f 1166 1082 1075
f 1167 1166 1075
f 1155 1167 1075
f 1167 1155 1156
f 1168 1164 1163
f 1170 1168 1169
f 1169 1168 1083
f 1168 1163 1083
f 1163 1079 1083
f 1085 1169 1083
f 1171 1086 1087
f 1172 1171 1087
f 1172 1087 1081
f 1173 1172 1081
f 1165 1173 1081
f 1173 1165 1166
f 1174 1170 1169
f 1169 1085 1174
f 1085 1175 1174
f 1085 1089 1175
f 1176 1091 1171
f 1171 1091 1086
f 1171 1172 1177
f 1171 1177 1176
f 1089 1092 1178
f 1179 1089 1178
f 1175 1089 1179
f 1094 1178 1092
f 1180 1095 1096
f 1181 1180 1096
f 1181 1096 1091
f 1182 1181 1091
f 1176 1182 1091
f 1182 1176 1177
f 1183 1179 1178
f 1178 1094 1183
f 1094 1184 1183
f 1094 1098 1184
f 1185 1099 1180
f 1180 1099 1095
f 1180 1181 1186
f 1180 1186 1185
f 1098 1100 1187
f 1188 1098 1187
f 1184 1098 1188
f 1101 1187 1100
f 1189 1102 1185
f 1185 1102 1099
f 1185 1186 1190
f 1185 1190 1189
f 1188 1187 1191
f 1188 1191 1192
f 1103 1191 1101
f 1101 1191 1187
f 1193 1104 1189
f 1189 1104 1102
f 1189 1190 1194
f 1189 1194 1193
f 1192 1191 1195
f 1192 1195 1196
f 1105 1195 1103
f 1103 1195 1191
f 1193 1106 1104
f 1108 1106 1193
f 1194 1108 1193
f 1197 1108 1194
f 1200 1199 1198
f 1198 1199 1196
f 1198 1196 1195
f 1111 1198 1195
f 1110 1111 1195
f 1110 1195 1105
f 1202 1112 1201
f 1112 1197 1201
f 1112 1108 1197
f 1203 1202 1201
f 1206 1205 1204
f 1204 1205 1200
f 1204 1200 1198
f 1115 1204 1198
f 1114 1115 1198
f 1114 1198 1111
f 1202 1117 1112
f 1119 1117 1202
f 1203 1119 1202
f 1207 1119 1203
f 1206 1204 1121
f 1122 1206 1121
f 1208 1206 1122
f 1121 1204 1115
f 1207 1209 1119
f 1119 1209 1125
f 1211 1210 1127
f 1125 1211 1127
f 1209 1211 1125
f 1212 1210 1211
f 1214 1213 1129
f 1214 1129 1130
f 1122 1129 1208
f 1208 1129 1213
f 1210 1133 1127
f 1216 1215 1134
f 1216 1134 1133
f 1212 1216 1133
f 1210 1212 1133
f 1218 1217 1215
f 1218 1215 1216
f 1220 1219 1217
f 1220 1217 1218
f 1222 1221 1219
f 1222 1219 1220
f 1224 1223 1221
f 1224 1221 1222
f 1136 1137 1223
f 1224 1136 1223
f 1225 1136 1224
f 1130 1136 1214
f 1214 1136 1225
f 1215 1140 1134
f 1140 1215 1142
f 1142 1215 1217
f 1142 1217 1144
f 1144 1217 1219
f 1144 1219 1146
f 1146 1219 1221
f 1146 1221 1148
f 1148 1221 1223
f 1148 1223 1137
f 1226 1156 1157
f 1158 1227 1157
f 1157 1227 1226
f 1159 1228 1158
f 1158 1228 1227
f 1160 1229 1159
f 1159 1229 1228
f 1161 1230 1160
f 1160 1230 1229
f 1162 1231 1161
f 1161 1231 1230
f 1164 1231 1162
f 1232 1166 1167
f 1233 1232 1167
f 1233 1167 1156
f 1234 1233 1156
f 1226 1234 1156
f 1234 1226 1227
f 1234 1227 1235
f 1235 1227 1228
f 1235 1228 1236
f 1236 1228 1229
f 1236 1229 1237
f 1237 1229 1230
f 1237 1230 1238
f 1240 1239 1238
f 1230 1240 1238
f 1231 1240 1230
f 1168 1241 1164
f 1241 1231 1164
f 1241 1240 1231
f 1170 1241 1168
f 1242 1172 1173
f 1243 1242 1173
f 1243 1173 1166
f 1244 1243 1166
f 1232 1244 1166
f 1244 1232 1233
f 1239 1240 1245
f 1239 1245 1246
f 1247 1240 1241
f 1245 1240 1247
f 1174 1248 1170
f 1248 1241 1170
f 1248 1247 1241
f 1175 1248 1174
f 1249 1177 1242
f 1242 1177 1172
f 1242 1243 1250
f 1242 1250 1249
f 1251 1246 1245
f 1251 1245 1247
f 1251 1247 1252
f 1254 1253 1252
f 1247 1254 1252
f 1248 1254 1247
f 1179 1254 1175
f 1175 1254 1248
f 1255 1181 1182
f 1256 1255 1182
f 1256 1182 1177
f 1257 1256 1177
f 1249 1257 1177
f 1257 1249 1250
f 1258 1253 1254
f 1260 1258 1259
f 1259 1258 1183
f 1258 1254 1183
f 1254 1179 1183
f 1184 1259 1183
f 1261 1186 1255
f 1255 1186 1181
f 1255 1256 1262
f 1255 1262 1261
f 1265 1264 1263
f 1263 1264 1260
f 1259 1263 1260
f 1266 1263 1259
f 1188 1266 1184
f 1184 1266 1259
f 1267 1190 1261
f 1261 1190 1186
f 1261 1262 1268
f 1261 1268 1267
f 1265 1263 1269
f 1265 1269 1270
f 1271 1263 1266
f 1269 1263 1271
f 1192 1271 1188
f 1188 1271 1266
f 1272 1194 1267
f 1267 1194 1190
f 1267 1268 1273
f 1267 1273 1272
f 1270 1269 1274
f 1270 1274 1275
f 1276 1269 1271
f 1274 1269 1276
f 1196 1276 1192
f 1192 1276 1271
f 1277 1197 1272
f 1272 1197 1194
f 1272 1273 1278
f 1279 1272 1278
f 1277 1272 1279
f 1280 1279 1278
f 1275 1274 1281
f 1275 1281 1282
f 1200 1281 1199
f 1281 1276 1199
f 1281 1274 1276
f 1199 1276 1196
f 1277 1201 1197
f 1201 1277 1203
f 1277 1283 1203
f 1277 1279 1283
f 1279 1280 1284
f 1285 1279 1284
f 1283 1279 1285
f 1286 1285 1284
f 1289 1288 1287
f 1287 1288 1282
f 1287 1282 1281
f 1206 1287 1281
f 1205 1206 1281
f 1205 1281 1200
f 1290 1207 1283
f 1283 1207 1203
f 1291 1283 1285
f 1290 1283 1291
f 1285 1286 1292
f 1293 1285 1292
f 1291 1285 1293
f 1294 1293 1292
f 1297 1296 1295
f 1295 1296 1289
f 1287 1295 1289
f 1298 1295 1287
f 1208 1298 1206
f 1206 1298 1287
f 1290 1209 1207
f 1209 1290 1211
f 1211 1290 1291
f 1211 1291 1212
f 1291 1299 1212
f 1291 1293 1299
f 1293 1294 1300
f 1301 1293 1300
f 1299 1293 1301
f 1303 1302 1301
f 1303 1301 1300
f 1305 1304 1302
f 1305 1302 1303
f 1307 1306 1304
f 1307 1304 1305
f 1306 1307 1297
f 1295 1306 1297
f 1308 1306 1295
f 1214 1308 1213
f 1308 1298 1213
f 1308 1295 1298
f 1213 1298 1208
f 1299 1216 1212
f 1216 1299 1218
f 1218 1299 1301
f 1218 1301 1220
f 1220 1301 1302
f 1220 1302 1222
f 1222 1302 1304
f 1222 1304 1224
f 1224 1304 1306
f 1224 1306 1225
f 1225 1306 1308
f 1225 1308 1214
f 1309 1233 1234
f 1235 1310 1234
f 1234 1310 1309
f 1236 1311 1235
f 1235 1311 1310
f 1237 1312 1236
f 1236 1312 1311
f 1238 1313 1237
f 1237 1313 1312
f 1239 1313 1238
f 1314 1243 1244
f 1233 1309 1244
f 1309 1314 1244
f 1309 1315 1314
f 1316 1309 1310
f 1315 1309 1316
f 1317 1310 1311
f 1316 1310 1317
f 1318 1311 1312
f 1317 1311 1318
f 1319 1312 1313
f 1318 1312 1319
f 1246 1319 1239
f 1239 1319 1313
f 1320 1250 1314
f 1314 1250 1243
f 1321 1314 1315
f 1320 1314 1321
f 1316 1323 1322
f 1321 1316 1322
f 1315 1316 1321
f 1323 1316 1317
f 1323 1317 1324
f 1324 1317 1318
f 1324 1318 1325
f 1325 1318 1319
f 1325 1319 1326
f 1328 1326 1327
f 1327 1326 1251
f 1326 1319 1251
f 1319 1246 1251
f 1252 1329 1251
f 1251 1329 1327
f 1253 1329 1252
f 1330 1256 1257
f 1250 1320 1257
f 1320 1330 1257
f 1320 1331 1330
f 1321 1333 1332
f 1331 1321 1332
f 1320 1321 1331
f 1333 1321 1322
f 1328 1327 1334
f 1328 1334 1335
f 1336 1327 1329
f 1334 1327 1336
f 1258 1337 1253
f 1337 1329 1253
f 1337 1336 1329
f 1260 1337 1258
f 1338 1262 1330
f 1330 1262 1256
f 1339 1330 1331
f 1338 1330 1339
f 1331 1332 1340
f 1331 1340 1339
f 1335 1334 1341
f 1335 1341 1342
f 1343 1334 1336
f 1341 1334 1343
f 1265 1343 1264
f 1343 1337 1264
f 1343 1336 1337
f 1264 1337 1260
f 1344 1268 1338
f 1338 1268 1262
f 1345 1338 1339
f 1344 1338 1345
f 1339 1340 1346
f 1339 1346 1345
f 1347 1342 1341
f 1349 1348 1347
f 1341 1349 1347
f 1343 1349 1341
f 1270 1349 1265
f 1265 1349 1343
f 1350 1273 1344
f 1344 1273 1268
f 1351 1344 1345
f 1350 1344 1351
f 1345 1346 1352
f 1345 1352 1351
f 1355 1354 1353
f 1353 1354 1348
f 1349 1353 1348
f 1356 1353 1349
f 1275 1356 1270
f 1270 1356 1349
f 1350 1278 1273
f 1278 1350 1280
f 1350 1357 1280
f 1350 1351 1357
f 1351 1352 1358
f 1359 1351 1358
f 1357 1351 1359
f 1360 1359 1358
f 1363 1362 1361
f 1361 1362 1355
f 1353 1361 1355
f 1364 1361 1353
f 1365 1353 1356
f 1364 1353 1365
f 1282 1365 1275
f 1275 1365 1356
f 1357 1284 1280
f 1284 1357 1286
f 1357 1366 1286
f 1357 1359 1366
f 1359 1360 1367
f 1368 1359 1367
f 1366 1359 1368
f 1370 1369 1368
f 1370 1368 1367
f 1372 1371 1369
f 1372 1369 1370
f 1371 1372 1363
f 1361 1371 1363
f 1373 1371 1361
f 1374 1361 1364
f 1373 1361 1374
f 1289 1374 1288
f 1374 1365 1288
f 1374 1364 1365
f 1288 1365 1282
f 1366 1292 1286
f 1292 1366 1294
f 1366 1375 1294
f 1366 1368 1375
f 1376 1368 1369
f 1375 1368 1376
f 1377 1369 1371
f 1376 1369 1377
f 1378 1371 1373
f 1377 1371 1378
f 1297 1378 1296
f 1378 1374 1296
f 1378 1373 1374
f 1296 1374 1289
f 1375 1300 1294
f 1300 1375 1303
f 1303 1375 1376
f 1303 1376 1305
f 1305 1376 1377
f 1305 1377 1307
f 1307 1377 1378
f 1307 1378 1297
f 1379 1322 1323
f 1324 1380 1323
f 1323 1380 1379
f 1325 1381 1324
f 1324 1381 1380
f 1326 1382 1325
f 1325 1382 1381
f 1328 1382 1326
f 1383 1332 1333
f 1322 1379 1333
f 1379 1383 1333
f 1379 1384 1383
f 1385 1379 1380
f 1384 1379 1385
f 1386 1380 1381
f 1385 1380 1386
f 1387 1381 1382
f 1386 1381 1387
f 1335 1387 1328
f 1328 1387 1382
f 1388 1340 1383
f 1383 1340 1332
f 1389 1383 1384
f 1388 1383 1389
f 1390 1384 1385
f 1389 1384 1390
f 1391 1385 1386
f 1390 1385 1391
f 1392 1386 1387
f 1391 1386 1392
f 1342 1392 1335
f 1335 1392 1387
f 1393 1346 1388
f 1388 1346 1340
f 1394 1388 1389
f 1393 1388 1394
f 1395 1389 1390
f 1394 1389 1395
f 1396 1390 1391
f 1395 1390 1396
f 1397 1391 1392
f 1396 1391 1397
f 1347 1398 1342
f 1398 1392 1342
f 1398 1397 1392
f 1348 1398 1347
f 1399 1352 1393
f 1393 1352 1346
f 1400 1393 1394
f 1399 1393 1400
f 1401 1394 1395
f 1400 1394 1401
f 1402 1395 1396
f 1401 1395 1402
f 1403 1396 1397
f 1402 1396 1403
f 1355 1403 1354
f 1403 1398 1354
f 1403 1397 1398
f 1354 1398 1348
f 1399 1358 1352
f 1358 1399 1360
f 1399 1404 1360
f 1399 1400 1404
f 1405 1400 1401
f 1404 1400 1405
f 1406 1401 1402
f 1405 1401 1406
f 1363 1406 1362
f 1406 1403 1362
f 1406 1402 1403
f 1362 1403 1355
f 1404 1367 1360
f 1367 1404 1370
f 1370 1404 1405
f 1370 1405 1372
f 1372 1405 1406
f 1372 1406 1363
