# Asteroid shape model (convexinv -> dual reconstruction)
v -1.07813982 -0.29814990 -0.29941727
v -1.01825636 -0.29814990 -0.35930073
v -1.01825636 -0.35803335 -0.29941727
v -1.01825636 -0.35803335 -0.17965036
v -1.07813982 -0.29814990 -0.17965036
v -1.01825636 -0.35803335 -0.05988345
v -1.07813982 -0.29814990 -0.05988345
v -1.01825636 -0.35803335 0.05988345
v -1.07813982 -0.29814990 0.05988345
v -1.01825636 -0.35803335 0.17965036
v -1.07813982 -0.29814990 0.17965036
v -1.01825636 -0.29814990 0.23953382
v -1.07813982 -0.17838299 -0.29941727
v -1.01825636 -0.17838299 -0.35930073
v -1.07813982 -0.17838299 -0.17965036
v -1.07813982 -0.17838299 -0.05988345
v -1.07813982 -0.17838299 0.05988345
v -1.07813982 -0.17838299 0.17965036
v -1.01825636 -0.17838299 0.23953382
v -1.07813982 -0.05861608 -0.29941727
v -1.01825636 -0.05861608 -0.35930073
v -1.07813982 -0.05861608 -0.17965036
v -1.07813982 -0.05861608 -0.05988345
v -1.07813982 -0.05861608 0.05988345
v -1.07813982 -0.05861608 0.17965036
v -1.01825636 -0.05861608 0.23953382
v -1.07813982 0.06115083 -0.29941727
v -1.01825636 0.06115083 -0.35930073
v -1.07813982 0.06115083 -0.17965036
v -1.07813982 0.06115083 -0.05988345
v -1.07813982 0.06115083 0.05988345
v -1.07813982 0.06115083 0.17965036
v -1.01825636 0.06115083 0.23953382
v -1.07813982 0.18091774 -0.29941727
v -1.01825636 0.18091774 -0.35930073
v -1.07813982 0.18091774 -0.17965036
v -1.07813982 0.18091774 -0.05988345
v -1.07813982 0.18091774 0.05988345
v -1.07813982 0.18091774 0.17965036
v -1.01825636 0.18091774 0.23953382
v -1.07813982 0.30068465 -0.29941727
v -1.01825636 0.30068465 -0.35930073
v -1.07813982 0.30068465 -0.17965036
v -1.07813982 0.30068465 -0.05988345
v -1.07813982 0.30068465 0.05988345
v -1.07813982 0.30068465 0.17965036
v -1.01825636 0.30068465 0.23953382
v -1.01825636 0.36056810 -0.29941727
v -1.01825636 0.36056810 -0.17965036
v -1.01825636 0.36056810 -0.05988345
v -1.01825636 0.36056810 0.05988345
v -1.01825636 0.36056810 0.17965036
v -0.95837291 -0.53768372 -0.29941727
v -0.89848945 -0.53768372 -0.35930073
v -0.89848945 -0.59756717 -0.29941727
v -0.89848945 -0.59756717 -0.17965036
v -0.95837291 -0.53768372 -0.17965036
v -0.89848945 -0.59756717 -0.05988345
v -0.95837291 -0.53768372 -0.05988345
v -0.89848945 -0.59756717 0.05988345
v -0.95837291 -0.53768372 0.05988345
v -0.89848945 -0.59756717 0.17965036
v -0.95837291 -0.53768372 0.17965036
v -0.89848945 -0.59756717 0.29941727
v -0.95837291 -0.53768372 0.29941727
v -0.89848945 -0.53768372 0.35930073
v -0.95837291 -0.41791681 -0.41918418
v -0.89848945 -0.41791681 -0.47906764
v -0.89848945 -0.47780026 -0.41918418
v -0.95837291 -0.41791681 -0.29941727
v -0.95837291 -0.41791681 -0.17965036
v -0.95837291 -0.41791681 -0.05988345
v -0.95837291 -0.41791681 0.05988345
v -0.95837291 -0.41791681 0.17965036
v -0.95837291 -0.41791681 0.29941727
v -0.89848945 -0.47780026 0.41918418
v -0.95837291 -0.41791681 0.41918418
v -0.89848945 -0.41791681 0.47906764
v -0.95837291 -0.29814990 -0.41918418
v -0.89848945 -0.29814990 -0.47906764
v -0.95837291 -0.29814990 0.29941727
v -0.95837291 -0.29814990 0.41918418
v -0.89848945 -0.29814990 0.47906764
v -0.95837291 -0.17838299 -0.53895109
v -0.89848945 -0.17838299 -0.59883455
v -0.89848945 -0.23826644 -0.53895109
v -0.95837291 -0.17838299 -0.41918418
v -0.95837291 -0.17838299 0.29941727
v -0.95837291 -0.17838299 0.41918418
v -0.89848945 -0.23826644 0.53895109
v -0.95837291 -0.17838299 0.53895109
v -0.89848945 -0.17838299 0.59883455
v -0.95837291 -0.05861608 -0.53895109
v -0.89848945 -0.05861608 -0.59883455
v -0.95837291 -0.05861608 -0.41918418
v -0.95837291 -0.05861608 0.29941727
v -0.95837291 -0.05861608 0.41918418
v -0.95837291 -0.05861608 0.53895109
v -0.89848945 -0.05861608 0.59883455
v -0.95837291 0.06115083 -0.53895109
v -0.89848945 0.06115083 -0.59883455
v -0.95837291 0.06115083 -0.41918418
v -0.95837291 0.06115083 0.29941727
v -0.95837291 0.06115083 0.41918418
v -0.95837291 0.06115083 0.53895109
v -0.89848945 0.06115083 0.59883455
v -0.95837291 0.18091774 -0.53895109
v -0.89848945 0.18091774 -0.59883455
v -0.95837291 0.18091774 -0.41918418
v -0.95837291 0.18091774 0.29941727
v -0.95837291 0.18091774 0.41918418
v -0.95837291 0.18091774 0.53895109
v -0.89848945 0.18091774 0.59883455
v -0.89848945 0.24080119 -0.53895109
v -0.95837291 0.30068465 -0.41918418
v -0.89848945 0.30068465 -0.47906764
v -0.95837291 0.30068465 0.29941727
v -0.95837291 0.30068465 0.41918418
v -0.89848945 0.30068465 0.47906764
v -0.89848945 0.24080119 0.53895109
v -0.95837291 0.42045156 -0.41918418
v -0.89848945 0.42045156 -0.47906764
v -0.95837291 0.42045156 -0.29941727
v -0.95837291 0.42045156 -0.17965036
v -0.95837291 0.42045156 -0.05988345
v -0.95837291 0.42045156 0.05988345
v -0.95837291 0.42045156 0.17965036
v -0.95837291 0.42045156 0.29941727
v -0.95837291 0.42045156 0.41918418
v -0.89848945 0.42045156 0.47906764
v -0.89848945 0.48033501 -0.41918418
v -0.95837291 0.54021847 -0.29941727
v -0.89848945 0.54021847 -0.35930073
v -0.95837291 0.54021847 -0.17965036
v -0.95837291 0.54021847 -0.05988345
v -0.95837291 0.54021847 0.05988345
v -0.95837291 0.54021847 0.17965036
v -0.95837291 0.54021847 0.29941727
v -0.89848945 0.54021847 0.35930073
v -0.89848945 0.48033501 0.41918418
v -0.89848945 0.60010192 -0.29941727
v -0.89848945 0.60010192 -0.17965036
v -0.89848945 0.60010192 -0.05988345
v -0.89848945 0.60010192 0.05988345
v -0.89848945 0.60010192 0.17965036
v -0.89848945 0.60010192 0.29941727
v -0.83860600 -0.65745063 -0.41918418
v -0.77872254 -0.65745063 -0.47906764
v -0.77872254 -0.71733408 -0.41918418
v -0.77872254 -0.71733408 -0.29941727
v -0.83860600 -0.65745063 -0.29941727
v -0.77872254 -0.71733408 -0.17965036
v -0.83860600 -0.65745063 -0.17965036
v -0.77872254 -0.71733408 -0.05988345
v -0.83860600 -0.65745063 -0.05988345
v -0.77872254 -0.71733408 0.05988345
v -0.83860600 -0.65745063 0.05988345
v -0.77872254 -0.71733408 0.17965036
v -0.83860600 -0.65745063 0.17965036
v -0.77872254 -0.71733408 0.29941727
v -0.83860600 -0.65745063 0.29941727
v -0.77872254 -0.65745063 0.35930073
v -0.83860600 -0.53768372 -0.41918418
v -0.77872254 -0.53768372 -0.47906764
v -0.77872254 -0.59756717 0.41918418
v -0.83860600 -0.53768372 0.41918418
v -0.77872254 -0.53768372 0.47906764
v -0.83860600 -0.41791681 -0.53895109
v -0.77872254 -0.41791681 -0.59883455
v -0.77872254 -0.47780026 -0.53895109
v -0.77872254 -0.47780026 0.53895109
v -0.83860600 -0.41791681 0.53895109
v -0.77872254 -0.41791681 0.59883455
v -0.83860600 -0.29814990 -0.65871800
v -0.77872254 -0.29814990 -0.71860146
v -0.77872254 -0.35803335 -0.65871800
v -0.83860600 -0.29814990 -0.53895109
v -0.83860600 -0.29814990 0.53895109
v -0.77872254 -0.29814990 0.59883455
v -0.83860600 -0.17838299 -0.65871800
v -0.77872254 -0.17838299 -0.71860146
v -0.77872254 -0.23826644 0.65871800
v -0.83860600 -0.17838299 0.65871800
v -0.77872254 -0.17838299 0.71860146
v -0.83860600 -0.05861608 -0.65871800
v -0.77872254 -0.05861608 -0.71860146
v -0.83860600 -0.05861608 0.65871800
v -0.77872254 -0.05861608 0.71860146
v -0.83860600 0.06115083 -0.65871800
v -0.77872254 0.06115083 -0.71860146
v -0.83860600 0.06115083 0.65871800
v -0.77872254 0.06115083 0.71860146
v -0.83860600 0.18091774 -0.65871800
v -0.77872254 0.18091774 -0.71860146
v -0.83860600 0.18091774 0.65871800
v -0.77872254 0.18091774 0.71860146
v -0.77872254 0.24080119 -0.65871800
v -0.83860600 0.30068465 -0.53895109
v -0.77872254 0.30068465 -0.59883455
v -0.83860600 0.30068465 0.05988345
v -0.77872254 0.24080119 0.05988345
v -0.77872254 0.30068465 0.00000000
v -0.77872254 0.30068465 0.11976691
v -0.83860600 0.30068465 0.53895109
v -0.77872254 0.30068465 0.59883455
v -0.77872254 0.24080119 0.65871800
v -0.83860600 0.42045156 -0.53895109
v -0.77872254 0.42045156 -0.59883455
v -0.77872254 0.36056810 0.05988345
v -0.83860600 0.42045156 0.53895109
v -0.77872254 0.42045156 0.59883455
v -0.77872254 0.48033501 -0.53895109
v -0.83860600 0.54021847 -0.41918418
v -0.77872254 0.54021847 -0.47906764
v -0.83860600 0.54021847 0.41918418
v -0.77872254 0.54021847 0.47906764
v -0.77872254 0.48033501 0.53895109
v -0.83860600 0.65998538 -0.41918418
v -0.77872254 0.65998538 -0.47906764
v -0.83860600 0.65998538 -0.29941727
v -0.83860600 0.65998538 -0.17965036
v -0.83860600 0.65998538 -0.05988345
v -0.83860600 0.65998538 0.05988345
v -0.83860600 0.65998538 0.17965036
v -0.83860600 0.65998538 0.29941727
v -0.77872254 0.65998538 0.35930073
v -0.77872254 0.60010192 0.41918418
v -0.77872254 0.71986883 -0.41918418
v -0.77872254 0.71986883 -0.29941727
v -0.77872254 0.71986883 -0.17965036
v -0.77872254 0.71986883 -0.05988345
v -0.77872254 0.71986883 0.05988345
v -0.77872254 0.71986883 0.17965036
v -0.77872254 0.71986883 0.29941727
v -0.71883909 -0.77721754 -0.41918418
v -0.65895563 -0.77721754 -0.47906764
v -0.65895563 -0.83710099 -0.41918418
v -0.65895563 -0.83710099 -0.29941727
v -0.71883909 -0.77721754 -0.29941727
v -0.65895563 -0.83710099 -0.17965036
v -0.71883909 -0.77721754 -0.17965036
v -0.65895563 -0.83710099 -0.05988345
v -0.71883909 -0.77721754 -0.05988345
v -0.65895563 -0.83710099 0.05988345
v -0.71883909 -0.77721754 0.05988345
v -0.65895563 -0.83710099 0.17965036
v -0.71883909 -0.77721754 0.17965036
v -0.65895563 -0.83710099 0.29941727
v -0.71883909 -0.77721754 0.29941727
v -0.65895563 -0.77721754 0.35930073
v -0.65895563 -0.65745063 -0.47906764
v -0.65895563 -0.71733408 0.41918418
v -0.71883909 -0.65745063 0.41918418
v -0.65895563 -0.65745063 0.47906764
v -0.71883909 -0.53768372 -0.53895109
v -0.65895563 -0.53768372 -0.59883455
v -0.65895563 -0.59756717 -0.53895109
v -0.65895563 -0.59756717 0.53895109
v -0.71883909 -0.53768372 0.53895109
v -0.65895563 -0.53768372 0.59883455
v -0.71883909 -0.41791681 -0.65871800
v -0.65895563 -0.41791681 -0.71860146
v -0.65895563 -0.47780026 -0.65871800
v -0.65895563 -0.47780026 0.65871800
v -0.71883909 -0.41791681 0.65871800
v -0.65895563 -0.41791681 0.71860146
v -0.65895563 -0.29814990 -0.71860146
v -0.71883909 -0.29814990 0.65871800
v -0.65895563 -0.29814990 0.71860146
v -0.65895563 -0.17838299 -0.71860146
v -0.65895563 -0.17838299 0.71860146
v -0.65895563 -0.05861608 -0.71860146
v -0.65895563 -0.05861608 0.71860146
v -0.65895563 0.06115083 -0.71860146
v -0.65895563 0.06115083 0.71860146
v -0.65895563 0.18091774 -0.71860146
v -0.71883909 0.18091774 0.41918418
v -0.65895563 0.12103428 0.41918418
v -0.65895563 0.18091774 0.35930073
v -0.65895563 0.18091774 0.47906764
v -0.65895563 0.18091774 0.71860146
v -0.71883909 0.30068465 -0.65871800
v -0.65895563 0.30068465 -0.71860146
v -0.71883909 0.30068465 0.05988345
v -0.65895563 0.24080119 0.41918418
v -0.71883909 0.30068465 0.65871800
v -0.65895563 0.30068465 0.71860146
v -0.71883909 0.42045156 -0.65871800
v -0.65895563 0.42045156 -0.71860146
v -0.71883909 0.42045156 0.65871800
v -0.65895563 0.42045156 0.71860146
v -0.65895563 0.48033501 -0.65871800
v -0.71883909 0.54021847 -0.53895109
v -0.65895563 0.54021847 -0.59883455
v -0.71883909 0.54021847 0.53895109
v -0.65895563 0.54021847 0.59883455
v -0.65895563 0.48033501 0.65871800
v -0.65895563 0.60010192 -0.53895109
v -0.65895563 0.65998538 -0.47906764
v -0.71883909 0.65998538 0.41918418
v -0.65895563 0.65998538 0.47906764
v -0.65895563 0.60010192 0.53895109
v -0.65895563 0.71986883 -0.41918418
v -0.71883909 0.77975229 -0.29941727
v -0.65895563 0.77975229 -0.35930073
v -0.71883909 0.77975229 -0.17965036
v -0.71883909 0.77975229 -0.05988345
v -0.71883909 0.77975229 0.05988345
v -0.71883909 0.77975229 0.17965036
v -0.71883909 0.77975229 0.29941727
v -0.65895563 0.77975229 0.35930073
v -0.65895563 0.71986883 0.41918418
v -0.65895563 0.83963574 -0.29941727
v -0.65895563 0.83963574 -0.17965036
v -0.65895563 0.83963574 -0.05988345
v -0.65895563 0.83963574 0.05988345
v -0.65895563 0.83963574 0.17965036
v -0.65895563 0.83963574 0.29941727
v -0.59907218 -0.89698445 -0.29941727
v -0.53918872 -0.89698445 -0.35930073
v -0.53918872 -0.95686790 -0.29941727
v -0.53918872 -0.95686790 -0.17965036
v -0.59907218 -0.89698445 -0.17965036
v -0.53918872 -0.95686790 -0.05988345
v -0.59907218 -0.89698445 -0.05988345
v -0.53918872 -0.95686790 0.05988345
v -0.59907218 -0.89698445 0.05988345
v -0.53918872 -0.95686790 0.17965036
v -0.59907218 -0.89698445 0.17965036
v -0.53918872 -0.95686790 0.29941727
v -0.59907218 -0.89698445 0.29941727
v -0.53918872 -0.89698445 0.35930073
v -0.53918872 -0.77721754 -0.47906764
v -0.53918872 -0.83710099 -0.41918418
v -0.53918872 -0.83710099 0.41918418
v -0.59907218 -0.77721754 0.41918418
v -0.53918872 -0.77721754 0.47906764
v -0.59907218 -0.65745063 -0.53895109
v -0.53918872 -0.65745063 -0.59883455
v -0.53918872 -0.71733408 -0.53895109
v -0.53918872 -0.71733408 0.53895109
v -0.59907218 -0.65745063 0.53895109
v -0.53918872 -0.65745063 0.59883455
v -0.59907218 -0.53768372 -0.65871800
v -0.53918872 -0.53768372 -0.71860146
v -0.53918872 -0.59756717 -0.65871800
v -0.53918872 -0.59756717 0.65871800
v -0.59907218 -0.53768372 0.65871800
v -0.53918872 -0.53768372 0.71860146
v -0.53918872 -0.41791681 -0.71860146
v -0.53918872 -0.41791681 0.71860146
v -0.59907218 -0.29814990 -0.77848491
v -0.53918872 -0.29814990 -0.83836837
v -0.53918872 -0.35803335 -0.77848491
v -0.53918872 -0.35803335 0.77848491
v -0.59907218 -0.29814990 0.77848491
v -0.53918872 -0.29814990 0.83836837
v -0.59907218 -0.17838299 -0.77848491
v -0.53918872 -0.17838299 -0.83836837
v -0.59907218 -0.17838299 0.77848491
v -0.53918872 -0.17838299 0.83836837
v -0.59907218 -0.05861608 -0.77848491
v -0.53918872 -0.05861608 -0.83836837
v -0.59907218 -0.05861608 0.77848491
v -0.53918872 -0.05861608 0.83836837
v -0.59907218 0.06115083 -0.77848491
v -0.53918872 0.06115083 -0.83836837
v -0.59907218 0.06115083 0.77848491
v -0.53918872 0.06115083 0.83836837
v -0.59907218 0.18091774 -0.77848491
v -0.53918872 0.18091774 -0.83836837
v -0.59907218 0.18091774 0.41918418
v -0.59907218 0.18091774 0.77848491
v -0.53918872 0.18091774 0.83836837
v -0.59907218 0.30068465 -0.77848491
v -0.53918872 0.30068465 -0.83836837
v -0.59907218 0.30068465 0.77848491
v -0.53918872 0.30068465 0.83836837
v -0.53918872 0.36056810 -0.77848491
v -0.53918872 0.42045156 -0.71860146
v -0.53918872 0.36056810 0.77848491
v -0.53918872 0.42045156 0.71860146
v -0.59907218 0.54021847 -0.65871800
v -0.53918872 0.54021847 -0.71860146
v -0.59907218 0.54021847 0.65871800
v -0.53918872 0.54021847 0.71860146
v -0.53918872 0.60010192 -0.65871800
v -0.59907218 0.65998538 -0.53895109
v -0.53918872 0.65998538 -0.59883455
v -0.59907218 0.65998538 0.53895109
v -0.53918872 0.65998538 0.59883455
v -0.53918872 0.60010192 0.65871800
v -0.53918872 0.71986883 -0.53895109
v -0.59907218 0.77975229 -0.41918418
v -0.53918872 0.77975229 -0.47906764
v -0.59907218 0.77975229 0.41918418
v -0.53918872 0.77975229 0.47906764
v -0.53918872 0.71986883 0.53895109
v -0.53918872 0.83963574 -0.41918418
v -0.59907218 0.89951919 -0.29941727
v -0.53918872 0.89951919 -0.35930073
v -0.59907218 0.89951919 -0.17965036
v -0.59907218 0.89951919 -0.05988345
v -0.59907218 0.89951919 0.05988345
v -0.59907218 0.89951919 0.17965036
v -0.53918872 0.89951919 0.23953382
v -0.53918872 0.83963574 0.29941727
v -0.53918872 0.83963574 0.41918418
v -0.53918872 0.95940265 -0.29941727
v -0.53918872 0.95940265 -0.17965036
v -0.53918872 0.95940265 -0.05988345
v -0.53918872 0.95940265 0.05988345
v -0.53918872 0.95940265 0.17965036
v -0.47930527 -0.89698445 -0.41918418
v -0.41942182 -0.89698445 -0.47906764
v -0.41942182 -0.95686790 -0.41918418
v -0.41942182 -0.95686790 -0.29941727
v -0.41942182 -0.95686790 -0.17965036
v -0.41942182 -0.95686790 -0.05988345
v -0.41942182 -0.95686790 0.05988345
v -0.41942182 -0.95686790 0.17965036
v -0.41942182 -0.95686790 0.29941727
v -0.41942182 -0.89698445 0.35930073
v -0.47930527 -0.77721754 -0.53895109
v -0.41942182 -0.77721754 -0.59883455
v -0.41942182 -0.83710099 -0.53895109
v -0.41942182 -0.83710099 0.41918418
v -0.41942182 -0.83710099 0.53895109
v -0.47930527 -0.77721754 0.53895109
v -0.41942182 -0.77721754 0.59883455
v -0.47930527 -0.65745063 -0.65871800
v -0.41942182 -0.65745063 -0.71860146
v -0.41942182 -0.71733408 -0.65871800
v -0.41942182 -0.71733408 0.65871800
v -0.47930527 -0.65745063 0.65871800
v -0.41942182 -0.65745063 0.71860146
v -0.41942182 -0.53768372 -0.71860146
v -0.41942182 -0.53768372 0.71860146
v -0.47930527 -0.41791681 -0.77848491
v -0.41942182 -0.41791681 -0.83836837
v -0.41942182 -0.47780026 -0.77848491
v -0.41942182 -0.47780026 0.77848491
v -0.47930527 -0.41791681 0.77848491
v -0.41942182 -0.41791681 0.83836837
v -0.41942182 -0.29814990 -0.83836837
v -0.41942182 -0.29814990 0.83836837
v -0.41942182 -0.17838299 -0.83836837
v -0.41942182 -0.17838299 0.83836837
v -0.41942182 -0.05861608 -0.83836837
v -0.41942182 -0.05861608 0.83836837
v -0.41942182 0.06115083 -0.83836837
v -0.41942182 0.00126737 0.89825182
v -0.47930527 0.06115083 0.89825182
v -0.41942182 0.06115083 0.95813527
v -0.41942182 0.18091774 -0.83836837
v -0.47930527 0.18091774 0.89825182
v -0.41942182 0.18091774 0.95813527
v -0.41942182 0.30068465 -0.83836837
v -0.41942182 0.24080119 0.89825182
v -0.41942182 0.30068465 0.83836837
v -0.47930527 0.42045156 -0.77848491
v -0.41942182 0.42045156 -0.83836837
v -0.47930527 0.42045156 0.77848491
v -0.41942182 0.42045156 0.83836837
v -0.41942182 0.48033501 -0.77848491
v -0.41942182 0.54021847 -0.71860146
v -0.41942182 0.48033501 0.77848491
v -0.41942182 0.54021847 0.71860146
v -0.47930527 0.65998538 -0.65871800
v -0.41942182 0.65998538 -0.71860146
v -0.47930527 0.65998538 0.65871800
v -0.41942182 0.65998538 0.71860146
v -0.41942182 0.71986883 -0.65871800
v -0.47930527 0.77975229 -0.53895109
v -0.41942182 0.77975229 -0.59883455
v -0.41942182 0.71986883 0.53895109
v -0.41942182 0.77975229 0.47906764
v -0.41942182 0.71986883 0.65871800
v -0.41942182 0.83963574 -0.53895109
v -0.47930527 0.89951919 -0.41918418
v -0.41942182 0.89951919 -0.47906764
v -0.47930527 0.89951919 0.29941727
v -0.41942182 0.89951919 0.35930073
v -0.41942182 0.83963574 0.41918418
v -0.41942182 0.95940265 -0.41918418
v -0.41942182 0.95940265 -0.29941727
v -0.41942182 0.95940265 -0.17965036
v -0.41942182 0.95940265 -0.05988345
v -0.41942182 0.95940265 0.05988345
v -0.41942182 0.95940265 0.17965036
v -0.41942182 0.95940265 0.29941727
v -0.35953836 -1.01675135 -0.29941727
v -0.29965491 -1.01675135 -0.35930073
v -0.29965491 -1.07663481 -0.29941727
v -0.29965491 -1.07663481 -0.17965036
v -0.35953836 -1.01675135 -0.17965036
v -0.29965491 -1.07663481 -0.05988345
v -0.35953836 -1.01675135 -0.05988345
v -0.29965491 -1.07663481 0.05988345
v -0.35953836 -1.01675135 0.05988345
v -0.29965491 -1.07663481 0.17965036
v -0.35953836 -1.01675135 0.17965036
v -0.29965491 -1.01675135 0.23953382
v -0.35953836 -0.89698445 -0.53895109
v -0.29965491 -0.89698445 -0.59883455
v -0.29965491 -0.95686790 -0.53895109
v -0.29965491 -0.95686790 -0.41918418
v -0.29965491 -0.95686790 0.29941727
v -0.29965491 -0.95686790 0.41918418
v -0.35953836 -0.89698445 0.41918418
v -0.29965491 -0.89698445 0.47906764
v -0.29965491 -0.77721754 -0.59883455
v -0.35953836 -0.77721754 0.17965036
v -0.29965491 -0.83710099 0.17965036
v -0.29965491 -0.77721754 0.11976691
v -0.29965491 -0.77721754 0.23953382
v -0.29965491 -0.83710099 0.53895109
v -0.29965491 -0.77721754 0.59883455
v -0.29965491 -0.65745063 -0.71860146
v -0.29965491 -0.71733408 -0.65871800
v -0.29965491 -0.71733408 0.17965036
v -0.29965491 -0.71733408 0.65871800
v -0.29965491 -0.65745063 0.71860146
v -0.35953836 -0.53768372 -0.77848491
v -0.29965491 -0.53768372 -0.83836837
v -0.29965491 -0.59756717 -0.77848491
v -0.29965491 -0.59756717 0.77848491
v -0.35953836 -0.53768372 0.77848491
v -0.29965491 -0.53768372 0.83836837
v -0.29965491 -0.41791681 -0.83836837
v -0.29965491 -0.41791681 0.83836837
v -0.35953836 -0.29814990 -0.89825182
v -0.29965491 -0.29814990 -0.95813527
v -0.29965491 -0.35803335 -0.89825182
v -0.29965491 -0.35803335 0.89825182
v -0.35953836 -0.29814990 0.89825182
v -0.29965491 -0.29814990 0.95813527
v -0.35953836 -0.17838299 -0.89825182
v -0.29965491 -0.17838299 -0.95813527
v -0.35953836 -0.17838299 0.89825182
v -0.29965491 -0.17838299 0.95813527
v -0.35953836 -0.05861608 -0.89825182
v -0.29965491 -0.05861608 -0.95813527
v -0.35953836 -0.05861608 0.89825182
v -0.29965491 -0.05861608 0.95813527
v -0.35953836 0.06115083 -0.89825182
v -0.29965491 0.06115083 -0.95813527
v -0.29965491 0.06115083 0.95813527
v -0.35953836 0.18091774 -0.89825182
v -0.29965491 0.18091774 -0.95813527
v -0.29965491 0.18091774 0.95813527
v -0.35953836 0.30068465 -0.89825182
v -0.29965491 0.30068465 -0.95813527
v -0.35953836 0.30068465 0.89825182
v -0.29965491 0.30068465 0.95813527
v -0.29965491 0.36056810 -0.89825182
v -0.29965491 0.42045156 -0.83836837
v -0.29965491 0.36056810 0.89825182
v -0.29965491 0.42045156 0.83836837
v -0.35953836 0.54021847 -0.77848491
v -0.29965491 0.54021847 -0.83836837
v -0.29965491 0.48033501 0.77848491
v -0.29965491 0.54021847 0.71860146
v -0.29965491 0.60010192 -0.77848491
v -0.29965491 0.65998538 -0.71860146
v -0.29965491 0.65998538 0.71860146
v -0.35953836 0.77975229 -0.65871800
v -0.29965491 0.77975229 -0.71860146
v -0.35953836 0.77975229 0.53895109
v -0.29965491 0.77975229 0.59883455
v -0.29965491 0.71986883 0.65871800
v -0.29965491 0.83963574 -0.65871800
v -0.29965491 0.83963574 -0.53895109
v -0.29965491 0.89951919 -0.47906764
v -0.29965491 0.83963574 0.41918418
v -0.29965491 0.89951919 0.35930073
v -0.29965491 0.83963574 0.53895109
v -0.29965491 0.95940265 -0.41918418
v -0.35953836 1.01928610 -0.29941727
v -0.29965491 1.01928610 -0.35930073
v -0.35953836 1.01928610 -0.17965036
v -0.35953836 1.01928610 -0.05988345
v -0.35953836 1.01928610 0.05988345
v -0.35953836 1.01928610 0.17965036
v -0.29965491 1.01928610 0.23953382
v -0.29965491 0.95940265 0.29941727
v -0.29965491 1.07916956 -0.29941727
v -0.29965491 1.07916956 -0.17965036
v -0.29965491 1.07916956 -0.05988345
v -0.29965491 1.07916956 0.05988345
v -0.29965491 1.07916956 0.17965036
v -0.17988800 -1.01675135 -0.35930073
v -0.17988800 -1.07663481 -0.29941727
v -0.17988800 -1.07663481 -0.17965036
v -0.17988800 -1.07663481 -0.05988345
v -0.17988800 -1.07663481 0.05988345
v -0.17988800 -1.07663481 0.17965036
v -0.17988800 -1.01675135 0.23953382
v -0.17988800 -0.89698445 -0.59883455
v -0.17988800 -0.95686790 -0.53895109
v -0.17988800 -0.95686790 -0.41918418
v -0.17988800 -0.95686790 0.29941727
v -0.17988800 -0.95686790 0.41918418
v -0.17988800 -0.95686790 0.53895109
v -0.23977145 -0.89698445 0.53895109
v -0.17988800 -0.89698445 0.59883455
v -0.23977145 -0.77721754 -0.65871800
v -0.17988800 -0.77721754 -0.71860146
v -0.17988800 -0.83710099 -0.65871800
v -0.23977145 -0.77721754 0.17965036
v -0.17988800 -0.83710099 0.29941727
v -0.17988800 -0.77721754 0.23953382
v -0.23977145 -0.77721754 0.29941727
v -0.17988800 -0.77721754 0.35930073
v -0.17988800 -0.83710099 0.65871800
v -0.23977145 -0.77721754 0.65871800
v -0.17988800 -0.77721754 0.71860146
v -0.17988800 -0.65745063 -0.71860146
v -0.17988800 -0.71733408 0.29941727
v -0.23977145 -0.65745063 0.53895109
v -0.17988800 -0.71733408 0.53895109
v -0.17988800 -0.65745063 0.47906764
v -0.17988800 -0.65745063 0.59883455
v -0.17988800 -0.65745063 0.71860146
v -0.17988800 -0.53768372 -0.83836837
v -0.17988800 -0.59756717 -0.77848491
v -0.17988800 -0.59756717 0.53895109
v -0.23977145 -0.53768372 0.77848491
v -0.17988800 -0.53768372 0.71860146
v -0.23977145 -0.41791681 -0.89825182
v -0.17988800 -0.41791681 -0.95813527
v -0.17988800 -0.47780026 -0.89825182
v -0.17988800 -0.47780026 0.77848491
v -0.17988800 -0.47780026 0.89825182
v -0.23977145 -0.41791681 0.89825182
v -0.17988800 -0.41791681 0.95813527
v -0.17988800 -0.29814990 -0.95813527
v -0.17988800 -0.29814990 0.95813527
v -0.17988800 -0.17838299 -0.95813527
v -0.17988800 -0.17838299 0.95813527
v -0.17988800 -0.05861608 -0.95813527
v -0.17988800 -0.05861608 0.95813527
v -0.17988800 0.06115083 -0.95813527
v -0.17988800 0.06115083 0.95813527
v -0.17988800 0.18091774 -0.95813527
v -0.17988800 0.18091774 0.95813527
v -0.17988800 0.30068465 -0.95813527
v -0.17988800 0.30068465 0.95813527
v -0.23977145 0.42045156 -0.89825182
v -0.17988800 0.42045156 -0.95813527
v -0.17988800 0.36056810 0.89825182
v -0.17988800 0.42045156 0.83836837
v -0.17988800 0.48033501 -0.89825182
v -0.17988800 0.54021847 -0.83836837
v -0.23977145 0.54021847 0.77848491
v -0.17988800 0.54021847 0.83836837
v -0.23977145 0.65998538 -0.77848491
v -0.17988800 0.65998538 -0.83836837
v -0.17988800 0.60010192 0.77848491
v -0.17988800 0.65998538 0.71860146
v -0.17988800 0.71986883 -0.77848491
v -0.17988800 0.77975229 -0.71860146
v -0.23977145 0.77975229 0.65871800
v -0.17988800 0.77975229 0.71860146
v -0.17988800 0.83963574 -0.65871800
v -0.23977145 0.89951919 -0.53895109
v -0.17988800 0.89951919 -0.59883455
v -0.23977145 0.89951919 0.41918418
v -0.23977145 0.89951919 0.53895109
v -0.17988800 0.89951919 0.59883455
v -0.17988800 0.83963574 0.65871800
v -0.17988800 0.95940265 -0.53895109
v -0.17988800 0.95940265 -0.41918418
v -0.17988800 1.01928610 -0.35930073
v -0.17988800 0.95940265 0.29941727
v -0.17988800 1.01928610 0.23953382
v -0.17988800 0.95940265 0.41918418
v -0.17988800 0.95940265 0.53895109
v -0.17988800 1.07916956 -0.29941727
v -0.17988800 1.07916956 -0.17965036
v -0.17988800 1.07916956 -0.05988345
v -0.17988800 1.07916956 0.05988345
v -0.17988800 1.07916956 0.17965036
v -0.06012109 -1.01675135 -0.35930073
v -0.06012109 -1.07663481 -0.29941727
v -0.06012109 -1.07663481 -0.17965036
v -0.06012109 -1.07663481 -0.05988345
v -0.06012109 -1.07663481 0.05988345
v -0.06012109 -1.07663481 0.17965036
v -0.06012109 -1.01675135 0.23953382
v -0.06012109 -0.89698445 -0.59883455
v -0.06012109 -0.95686790 -0.53895109
v -0.06012109 -0.95686790 -0.41918418
v -0.06012109 -0.95686790 0.29941727
v -0.06012109 -0.95686790 0.41918418
v -0.06012109 -0.95686790 0.53895109
v -0.06012109 -0.89698445 0.59883455
v -0.06012109 -0.77721754 -0.71860146
v -0.06012109 -0.83710099 -0.65871800
v -0.12000454 -0.77721754 0.29941727
v -0.06012109 -0.83710099 0.65871800
v -0.06012109 -0.77721754 0.71860146
v -0.06012109 -0.65745063 -0.71860146
v -0.12000454 -0.65745063 0.53895109
v -0.06012109 -0.65745063 0.71860146
v -0.06012109 -0.53768372 -0.83836837
v -0.06012109 -0.59756717 -0.77848491
v -0.06012109 -0.59756717 0.77848491
v -0.12000454 -0.53768372 0.77848491
v -0.06012109 -0.53768372 0.83836837
v -0.06012109 -0.41791681 -0.95813527
v -0.06012109 -0.47780026 -0.89825182
v -0.06012109 -0.47780026 0.89825182
v -0.06012109 -0.41791681 0.95813527
v -0.06012109 -0.29814990 -0.95813527
v -0.06012109 -0.29814990 0.95813527
v -0.06012109 -0.17838299 -0.95813527
v -0.06012109 -0.17838299 0.95813527
v -0.06012109 -0.05861608 -0.95813527
v -0.06012109 -0.05861608 0.95813527
v -0.06012109 0.06115083 -0.95813527
v -0.06012109 0.06115083 0.95813527
v -0.06012109 0.18091774 -0.95813527
v -0.06012109 0.18091774 0.95813527
v -0.06012109 0.30068465 -0.95813527
v -0.06012109 0.30068465 0.95813527
v -0.06012109 0.42045156 -0.95813527
v -0.12000454 0.42045156 0.89825182
v -0.06012109 0.42045156 0.95813527
v -0.06012109 0.48033501 -0.89825182
v -0.06012109 0.54021847 -0.83836837
v -0.06012109 0.48033501 0.89825182
v -0.06012109 0.54021847 0.83836837
v -0.06012109 0.65998538 -0.83836837
v -0.12000454 0.65998538 0.77848491
v -0.06012109 0.65998538 0.83836837
v -0.06012109 0.71986883 -0.77848491
v -0.06012109 0.77975229 -0.71860146
v -0.06012109 0.71986883 0.77848491
v -0.06012109 0.77975229 0.71860146
v -0.06012109 0.83963574 -0.65871800
v -0.06012109 0.89951919 -0.59883455
v -0.12000454 0.89951919 0.53895109
v -0.06012109 0.83963574 0.53895109
v -0.06012109 0.89951919 0.47906764
v -0.06012109 0.83963574 0.65871800
v -0.06012109 0.95940265 -0.53895109
v -0.06012109 0.95940265 -0.41918418
v -0.06012109 1.01928610 -0.35930073
v -0.06012109 0.95940265 0.29941727
v -0.06012109 1.01928610 0.23953382
v -0.06012109 0.95940265 0.41918418
v -0.06012109 1.07916956 -0.29941727
v -0.06012109 1.07916956 -0.17965036
v -0.06012109 1.07916956 -0.05988345
v -0.06012109 1.07916956 0.05988345
v -0.06012109 1.07916956 0.17965036
v 0.05964582 -1.01675135 -0.35930073
v 0.05964582 -1.07663481 -0.29941727
v 0.05964582 -1.07663481 -0.17965036
v 0.05964582 -1.07663481 -0.05988345
v 0.05964582 -1.07663481 0.05988345
v 0.05964582 -1.07663481 0.17965036
v 0.05964582 -1.01675135 0.23953382
v 0.05964582 -0.89698445 -0.59883455
v 0.05964582 -0.95686790 -0.53895109
v 0.05964582 -0.95686790 -0.41918418
v 0.05964582 -0.95686790 0.29941727
v 0.05964582 -0.95686790 0.41918418
v 0.05964582 -0.95686790 0.53895109
v 0.05964582 -0.89698445 0.59883455
v 0.05964582 -0.77721754 -0.71860146
v 0.05964582 -0.83710099 -0.65871800
v 0.05964582 -0.83710099 0.65871800
v 0.05964582 -0.77721754 0.71860146
v 0.05964582 -0.65745063 -0.71860146
v 0.05964582 -0.65745063 0.71860146
v 0.05964582 -0.53768372 -0.83836837
v 0.05964582 -0.59756717 -0.77848491
v 0.05964582 -0.59756717 0.77848491
v 0.05964582 -0.53768372 0.83836837
v 0.05964582 -0.41791681 -0.95813527
v 0.05964582 -0.47780026 -0.89825182
v 0.05964582 -0.47780026 0.89825182
v 0.05964582 -0.41791681 0.95813527
v 0.05964582 -0.29814990 -0.95813527
v 0.05964582 -0.29814990 0.95813527
v 0.05964582 -0.17838299 -0.95813527
v 0.05964582 -0.17838299 0.95813527
v 0.05964582 -0.05861608 -0.95813527
v 0.05964582 -0.05861608 0.95813527
v 0.05964582 0.06115083 -0.95813527
v 0.05964582 0.06115083 0.95813527
v 0.05964582 0.18091774 -0.95813527
v 0.05964582 0.18091774 0.95813527
v 0.05964582 0.30068465 -0.95813527
v 0.05964582 0.30068465 0.95813527
v 0.05964582 0.42045156 -0.95813527
v 0.05964582 0.42045156 0.95813527
v 0.05964582 0.48033501 -0.89825182
v 0.05964582 0.54021847 -0.83836837
v 0.05964582 0.48033501 0.89825182
v 0.05964582 0.54021847 0.83836837
v 0.05964582 0.65998538 -0.83836837
v 0.05964582 0.65998538 0.83836837
v 0.05964582 0.71986883 -0.77848491
v 0.05964582 0.77975229 -0.71860146
v 0.05964582 0.71986883 0.77848491
v 0.05964582 0.77975229 0.71860146
v 0.05964582 0.83963574 -0.65871800
v 0.05964582 0.89951919 -0.59883455
v 0.05964582 0.83963574 0.53895109
v 0.05964582 0.89951919 0.47906764
v 0.05964582 0.83963574 0.65871800
v 0.05964582 0.95940265 -0.53895109
v 0.05964582 0.95940265 -0.41918418
v 0.05964582 1.01928610 -0.35930073
v 0.05964582 0.95940265 0.29941727
v 0.05964582 1.01928610 0.23953382
v 0.05964582 0.95940265 0.41918418
v 0.05964582 1.07916956 -0.29941727
v 0.05964582 1.07916956 -0.17965036
v 0.05964582 1.07916956 -0.05988345
v 0.05964582 1.07916956 0.05988345
v 0.05964582 1.07916956 0.17965036
v 0.11952928 -1.01675135 -0.29941727
v 0.17941273 -1.01675135 -0.23953382
v 0.17941273 -1.07663481 -0.17965036
v 0.17941273 -1.07663481 -0.05988345
v 0.17941273 -1.07663481 0.05988345
v 0.11952928 -1.01675135 0.17965036
v 0.17941273 -1.01675135 0.11976691
v 0.11952928 -0.89698445 -0.53895109
v 0.17941273 -0.89698445 -0.47906764
v 0.17941273 -0.95686790 -0.41918418
v 0.17941273 -0.95686790 -0.29941727
v 0.17941273 -0.95686790 0.17965036
v 0.17941273 -0.95686790 0.29941727
v 0.17941273 -0.95686790 0.41918418
v 0.17941273 -0.95686790 0.53895109
v 0.17941273 -0.89698445 0.59883455
v 0.17941273 -0.77721754 -0.71860146
v 0.17941273 -0.83710099 -0.65871800
v 0.17941273 -0.83710099 -0.53895109
v 0.17941273 -0.83710099 0.65871800
v 0.17941273 -0.77721754 0.71860146
v 0.17941273 -0.65745063 -0.71860146
v 0.17941273 -0.65745063 0.71860146
v 0.17941273 -0.53768372 -0.83836837
v 0.17941273 -0.59756717 -0.77848491
v 0.17941273 -0.59756717 0.77848491
v 0.17941273 -0.53768372 0.83836837
v 0.17941273 -0.41791681 -0.95813527
v 0.17941273 -0.47780026 -0.89825182
v 0.17941273 -0.47780026 0.89825182
v 0.17941273 -0.41791681 0.95813527
v 0.17941273 -0.29814990 -0.95813527
v 0.17941273 -0.29814990 0.95813527
v 0.17941273 -0.17838299 -0.95813527
v 0.17941273 -0.17838299 0.95813527
v 0.17941273 -0.05861608 -0.95813527
v 0.17941273 -0.05861608 0.95813527
v 0.17941273 0.06115083 -0.95813527
v 0.17941273 0.06115083 0.95813527
v 0.17941273 0.18091774 -0.95813527
v 0.17941273 0.18091774 0.95813527
v 0.17941273 0.30068465 -0.95813527
v 0.17941273 0.30068465 0.95813527
v 0.17941273 0.42045156 -0.95813527
v 0.17941273 0.42045156 0.95813527
v 0.17941273 0.48033501 -0.89825182
v 0.17941273 0.54021847 -0.83836837
v 0.17941273 0.48033501 0.89825182
v 0.17941273 0.54021847 0.83836837
v 0.17941273 0.65998538 -0.83836837
v 0.11952928 0.65998538 0.77848491
v 0.17941273 0.60010192 0.77848491
v 0.17941273 0.65998538 0.71860146
v 0.17941273 0.71986883 -0.77848491
v 0.17941273 0.77975229 -0.71860146
v 0.11952928 0.77975229 -0.41918418
v 0.17941273 0.71986883 -0.41918418
v 0.17941273 0.77975229 -0.47906764
v 0.17941273 0.77975229 -0.35930073
v 0.17941273 0.77975229 0.71860146
v 0.17941273 0.83963574 -0.65871800
v 0.17941273 0.89951919 -0.59883455
v 0.17941273 0.83963574 -0.41918418
v 0.17941273 0.83963574 0.53895109
v 0.17941273 0.89951919 0.47906764
v 0.17941273 0.83963574 0.65871800
v 0.17941273 0.95940265 -0.53895109
v 0.17941273 0.95940265 -0.41918418
v 0.17941273 1.01928610 -0.35930073
v 0.17941273 0.95940265 0.29941727
v 0.17941273 1.01928610 0.23953382
v 0.17941273 0.95940265 0.41918418
v 0.17941273 1.07916956 -0.29941727
v 0.17941273 1.07916956 -0.17965036
v 0.17941273 1.07916956 -0.05988345
v 0.17941273 1.07916956 0.05988345
v 0.17941273 1.07916956 0.17965036
v 0.29917964 -1.01675135 -0.23953382
v 0.29917964 -1.07663481 -0.17965036
v 0.29917964 -1.07663481 -0.05988345
v 0.29917964 -1.07663481 0.05988345
v 0.29917964 -1.01675135 0.11976691
v 0.29917964 -0.89698445 -0.47906764
v 0.29917964 -0.95686790 -0.41918418
v 0.29917964 -0.95686790 -0.29941727
v 0.29917964 -0.95686790 0.17965036
v 0.29917964 -0.95686790 0.29941727
v 0.29917964 -0.95686790 0.41918418
v 0.23929619 -0.89698445 0.53895109
v 0.29917964 -0.89698445 0.47906764
v 0.23929619 -0.77721754 -0.65871800
v 0.29917964 -0.77721754 -0.59883455
v 0.29917964 -0.83710099 -0.53895109
v 0.29917964 -0.83710099 0.53895109
v 0.23929619 -0.77721754 0.65871800
v 0.29917964 -0.77721754 0.59883455
v 0.29917964 -0.65745063 -0.71860146
v 0.29917964 -0.71733408 -0.65871800
v 0.23929619 -0.65745063 0.65871800
v 0.29917964 -0.65745063 0.59883455
v 0.29917964 -0.53768372 -0.83836837
v 0.29917964 -0.59756717 -0.77848491
v 0.29917964 -0.59756717 0.65871800
v 0.29917964 -0.59756717 0.77848491
v 0.29917964 -0.53768372 0.83836837
v 0.23929619 -0.41791681 -0.89825182
v 0.29917964 -0.41791681 -0.83836837
v 0.23929619 -0.41791681 0.89825182
v 0.29917964 -0.41791681 0.83836837
v 0.29917964 -0.29814990 -0.95813527
v 0.29917964 -0.35803335 -0.89825182
v 0.23929619 -0.29814990 0.89825182
v 0.29917964 -0.29814990 0.83836837
v 0.29917964 -0.17838299 -0.95813527
v 0.23929619 -0.17838299 0.89825182
v 0.29917964 -0.17838299 0.83836837
v 0.29917964 -0.05861608 -0.95813527
v 0.29917964 -0.11849953 0.89825182
v 0.29917964 -0.05861608 0.95813527
v 0.29917964 0.06115083 -0.95813527
v 0.29917964 0.06115083 0.95813527
v 0.29917964 0.18091774 -0.95813527
v 0.29917964 0.18091774 0.95813527
v 0.29917964 0.30068465 -0.95813527
v 0.29917964 0.30068465 0.95813527
v 0.29917964 0.36056810 -0.89825182
v 0.23929619 0.42045156 -0.89825182
v 0.29917964 0.42045156 -0.83836837
v 0.23929619 0.42045156 0.89825182
v 0.29917964 0.36056810 0.89825182
v 0.29917964 0.42045156 0.83836837
v 0.29917964 0.54021847 -0.83836837
v 0.29917964 0.54021847 0.83836837
v 0.29917964 0.65998538 -0.83836837
v 0.29917964 0.60010192 0.77848491
v 0.29917964 0.65998538 0.71860146
v 0.29917964 0.71986883 -0.77848491
v 0.29917964 0.77975229 -0.71860146
v 0.23929619 0.77975229 -0.41918418
v 0.23929619 0.77975229 0.65871800
v 0.29917964 0.71986883 0.65871800
v 0.29917964 0.77975229 0.59883455
v 0.29917964 0.83963574 -0.65871800
v 0.29917964 0.89951919 -0.59883455
v 0.23929619 0.89951919 0.29941727
v 0.29917964 0.83963574 0.29941727
v 0.29917964 0.89951919 0.23953382
v 0.23929619 0.89951919 0.41918418
v 0.29917964 0.83963574 0.41918418
v 0.29917964 0.83963574 0.53895109
v 0.29917964 0.95940265 -0.53895109
v 0.29917964 0.95940265 -0.41918418
v 0.29917964 1.01928610 -0.35930073
v 0.29917964 1.01928610 0.23953382
v 0.29917964 1.07916956 -0.29941727
v 0.29917964 1.07916956 -0.17965036
v 0.29917964 1.07916956 -0.05988345
v 0.29917964 1.07916956 0.05988345
v 0.29917964 1.07916956 0.17965036
v 0.35906310 -1.01675135 -0.17965036
v 0.35906310 -1.01675135 -0.05988345
v 0.35906310 -1.01675135 0.05988345
v 0.41894655 -0.89698445 -0.47906764
v 0.41894655 -0.95686790 -0.41918418
v 0.41894655 -0.95686790 -0.29941727
v 0.41894655 -0.95686790 -0.17965036
v 0.41894655 -0.95686790 -0.05988345
v 0.41894655 -0.95686790 0.05988345
v 0.41894655 -0.95686790 0.17965036
v 0.41894655 -0.95686790 0.29941727
v 0.41894655 -0.95686790 0.41918418
v 0.41894655 -0.89698445 0.47906764
v 0.41894655 -0.77721754 -0.59883455
v 0.41894655 -0.83710099 -0.53895109
v 0.35906310 -0.77721754 -0.05988345
v 0.41894655 -0.83710099 -0.05988345
v 0.41894655 -0.77721754 -0.11976691
v 0.41894655 -0.77721754 0.00000000
v 0.41894655 -0.83710099 0.53895109
v 0.41894655 -0.77721754 0.59883455
v 0.41894655 -0.65745063 -0.71860146
v 0.41894655 -0.71733408 -0.65871800
v 0.41894655 -0.71733408 -0.05988345
v 0.41894655 -0.71733408 0.65871800
v 0.35906310 -0.65745063 0.65871800
v 0.41894655 -0.65745063 0.71860146
v 0.35906310 -0.53768372 -0.77848491
v 0.41894655 -0.53768372 -0.71860146
v 0.41894655 -0.53768372 0.71860146
v 0.35906310 -0.53768372 0.77848491
v 0.41894655 -0.41791681 -0.83836837
v 0.41894655 -0.47780026 -0.77848491
v 0.41894655 -0.47780026 0.77848491
v 0.41894655 -0.41791681 0.83836837
v 0.35906310 -0.29814990 -0.89825182
v 0.41894655 -0.29814990 -0.83836837
v 0.41894655 -0.29814990 0.83836837
v 0.41894655 -0.17838299 -0.95813527
v 0.41894655 -0.23826644 -0.89825182
v 0.41894655 -0.17838299 0.83836837
v 0.41894655 -0.05861608 -0.95813527
v 0.41894655 -0.11849953 0.89825182
v 0.41894655 -0.05861608 0.95813527
v 0.41894655 0.06115083 -0.95813527
v 0.41894655 0.06115083 0.95813527
v 0.41894655 0.18091774 -0.95813527
v 0.41894655 0.18091774 0.95813527
v 0.41894655 0.24080119 -0.89825182
v 0.35906310 0.30068465 -0.89825182
v 0.41894655 0.30068465 -0.83836837
v 0.35906310 0.30068465 0.89825182
v 0.41894655 0.24080119 0.89825182
v 0.41894655 0.30068465 0.83836837
v 0.41894655 0.42045156 -0.83836837
v 0.41894655 0.42045156 0.83836837
v 0.41894655 0.54021847 -0.83836837
v 0.41894655 0.54021847 0.83836837
v 0.41894655 0.60010192 -0.77848491
v 0.35906310 0.65998538 -0.77848491
v 0.41894655 0.65998538 -0.71860146
v 0.41894655 0.60010192 0.77848491
v 0.41894655 0.65998538 0.71860146
v 0.35906310 0.77975229 -0.65871800
v 0.41894655 0.71986883 -0.65871800
v 0.41894655 0.77975229 -0.59883455
v 0.41894655 0.71986883 0.65871800
v 0.41894655 0.77975229 0.59883455
v 0.35906310 0.89951919 -0.53895109
v 0.41894655 0.83963574 -0.53895109
v 0.41894655 0.89951919 -0.47906764
v 0.35906310 0.89951919 0.29941727
v 0.41894655 0.89951919 0.35930073
v 0.41894655 0.83963574 0.41918418
v 0.41894655 0.83963574 0.53895109
v 0.41894655 0.95940265 -0.41918418
v 0.35906310 1.01928610 -0.29941727
v 0.41894655 0.95940265 -0.29941727
v 0.35906310 1.01928610 -0.17965036
v 0.41894655 0.95940265 -0.17965036
v 0.35906310 1.01928610 -0.05988345
v 0.41894655 0.95940265 -0.05988345
v 0.35906310 1.01928610 0.05988345
v 0.41894655 0.95940265 0.05988345
v 0.35906310 1.01928610 0.17965036
v 0.41894655 0.95940265 0.17965036
v 0.41894655 0.95940265 0.29941727
v 0.47883000 -0.89698445 -0.41918418
v 0.47883000 -0.89698445 -0.29941727
v 0.53871346 -0.89698445 -0.23953382
v 0.53871346 -0.95686790 -0.17965036
v 0.53871346 -0.95686790 -0.05988345
v 0.53871346 -0.95686790 0.05988345
v 0.47883000 -0.89698445 0.17965036
v 0.53871346 -0.89698445 0.11976691
v 0.47883000 -0.89698445 0.29941727
v 0.47883000 -0.89698445 0.41918418
v 0.47883000 -0.77721754 -0.53895109
v 0.53871346 -0.77721754 -0.47906764
v 0.53871346 -0.83710099 -0.41918418
v 0.53871346 -0.83710099 -0.29941727
v 0.47883000 -0.77721754 -0.05988345
v 0.53871346 -0.83710099 0.17965036
v 0.53871346 -0.77721754 0.23953382
v 0.47883000 -0.77721754 0.29941727
v 0.53871346 -0.77721754 0.35930073
v 0.53871346 -0.83710099 0.41918418
v 0.47883000 -0.77721754 0.53895109
v 0.53871346 -0.77721754 0.47906764
v 0.47883000 -0.65745063 -0.65871800
v 0.53871346 -0.65745063 -0.59883455
v 0.53871346 -0.71733408 -0.53895109
v 0.53871346 -0.71733408 0.29941727
v 0.53871346 -0.71733408 0.53895109
v 0.47883000 -0.65745063 0.65871800
v 0.53871346 -0.65745063 0.59883455
v 0.53871346 -0.53768372 -0.71860146
v 0.53871346 -0.59756717 -0.65871800
v 0.53871346 -0.59756717 0.65871800
v 0.53871346 -0.53768372 0.71860146
v 0.47883000 -0.41791681 -0.77848491
v 0.53871346 -0.41791681 -0.71860146
v 0.47883000 -0.41791681 0.77848491
v 0.53871346 -0.41791681 0.71860146
v 0.53871346 -0.29814990 -0.83836837
v 0.53871346 -0.35803335 -0.77848491
v 0.53871346 -0.35803335 0.77848491
v 0.53871346 -0.29814990 0.83836837
v 0.47883000 -0.17838299 -0.89825182
v 0.53871346 -0.17838299 -0.83836837
v 0.53871346 -0.17838299 0.83836837
v 0.47883000 -0.05861608 -0.89825182
v 0.53871346 -0.05861608 -0.83836837
v 0.47883000 -0.05861608 0.89825182
v 0.53871346 -0.05861608 0.83836837
v 0.47883000 0.06115083 -0.89825182
v 0.53871346 0.06115083 -0.83836837
v 0.47883000 0.06115083 0.89825182
v 0.53871346 0.06115083 0.83836837
v 0.47883000 0.18091774 -0.89825182
v 0.53871346 0.18091774 -0.83836837
v 0.47883000 0.18091774 0.89825182
v 0.53871346 0.18091774 0.83836837
v 0.53871346 0.30068465 -0.83836837
v 0.53871346 0.30068465 0.83836837
v 0.53871346 0.42045156 -0.83836837
v 0.53871346 0.42045156 0.83836837
v 0.53871346 0.48033501 -0.77848491
v 0.47883000 0.54021847 -0.77848491
v 0.53871346 0.54021847 -0.71860146
v 0.47883000 0.54021847 0.77848491
v 0.53871346 0.48033501 0.77848491
v 0.53871346 0.54021847 0.71860146
v 0.53871346 0.65998538 -0.71860146
v 0.53871346 0.65998538 0.71860146
v 0.53871346 0.71986883 -0.65871800
v 0.47883000 0.77975229 -0.53895109
v 0.53871346 0.71986883 -0.53895109
v 0.53871346 0.77975229 -0.47906764
v 0.47883000 0.77975229 0.53895109
v 0.53871346 0.71986883 0.53895109
v 0.53871346 0.77975229 0.47906764
v 0.53871346 0.71986883 0.65871800
v 0.47883000 0.89951919 -0.41918418
v 0.53871346 0.83963574 -0.41918418
v 0.53871346 0.89951919 -0.35930073
v 0.47883000 0.89951919 0.29941727
v 0.53871346 0.83963574 0.29941727
v 0.53871346 0.89951919 0.23953382
v 0.53871346 0.83963574 0.41918418
v 0.53871346 0.95940265 -0.29941727
v 0.53871346 0.95940265 -0.17965036
v 0.53871346 0.95940265 -0.05988345
v 0.53871346 0.95940265 0.05988345
v 0.53871346 0.95940265 0.17965036
v 0.59859691 -0.89698445 -0.17965036
v 0.59859691 -0.89698445 -0.05988345
v 0.59859691 -0.89698445 0.05988345
v 0.59859691 -0.77721754 -0.41918418
v 0.65848037 -0.77721754 -0.35930073
v 0.65848037 -0.83710099 -0.29941727
v 0.65848037 -0.83710099 -0.17965036
v 0.65848037 -0.83710099 -0.05988345
v 0.65848037 -0.83710099 0.05988345
v 0.65848037 -0.83710099 0.17965036
v 0.65848037 -0.77721754 0.23953382
v 0.59859691 -0.77721754 0.41918418
v 0.59859691 -0.65745063 -0.53895109
v 0.65848037 -0.65745063 -0.47906764
v 0.65848037 -0.71733408 -0.41918418
v 0.65848037 -0.71733408 0.29941727
v 0.65848037 -0.71733408 0.41918418
v 0.59859691 -0.65745063 0.53895109
v 0.65848037 -0.65745063 0.47906764
v 0.59859691 -0.53768372 -0.65871800
v 0.65848037 -0.53768372 -0.59883455
v 0.65848037 -0.59756717 -0.53895109
v 0.65848037 -0.59756717 0.53895109
v 0.59859691 -0.53768372 0.65871800
v 0.65848037 -0.53768372 0.59883455
v 0.65848037 -0.41791681 -0.71860146
v 0.65848037 -0.47780026 -0.65871800
v 0.65848037 -0.47780026 0.65871800
v 0.65848037 -0.41791681 0.71860146
v 0.59859691 -0.29814990 -0.77848491
v 0.65848037 -0.29814990 -0.71860146
v 0.59859691 -0.29814990 0.77848491
v 0.65848037 -0.29814990 0.71860146
v 0.59859691 -0.17838299 -0.77848491
v 0.65848037 -0.17838299 -0.71860146
v 0.59859691 -0.17838299 0.77848491
v 0.65848037 -0.17838299 0.71860146
v 0.59859691 -0.05861608 -0.77848491
v 0.65848037 -0.05861608 -0.71860146
v 0.65848037 -0.11849953 0.77848491
v 0.65848037 -0.05861608 0.83836837
v 0.59859691 0.06115083 -0.77848491
v 0.65848037 0.06115083 -0.71860146
v 0.59859691 0.06115083 0.77848491
v 0.65848037 0.00126737 0.77848491
v 0.65848037 0.06115083 0.71860146
v 0.59859691 0.18091774 -0.77848491
v 0.65848037 0.18091774 -0.71860146
v 0.59859691 0.18091774 0.77848491
v 0.65848037 0.18091774 0.71860146
v 0.59859691 0.30068465 -0.77848491
v 0.65848037 0.30068465 -0.71860146
v 0.65848037 0.24080119 0.77848491
v 0.65848037 0.30068465 0.83836837
v 0.59859691 0.42045156 -0.77848491
v 0.65848037 0.42045156 -0.71860146
v 0.59859691 0.42045156 0.77848491
v 0.65848037 0.36056810 0.77848491
v 0.65848037 0.42045156 0.71860146
v 0.65848037 0.54021847 -0.71860146
v 0.59859691 0.54021847 0.65871800
v 0.65848037 0.48033501 0.65871800
v 0.65848037 0.54021847 0.59883455
v 0.65848037 0.60010192 -0.65871800
v 0.59859691 0.65998538 -0.65871800
v 0.65848037 0.65998538 -0.59883455
v 0.59859691 0.65998538 0.53895109
v 0.65848037 0.60010192 0.53895109
v 0.65848037 0.65998538 0.47906764
v 0.59859691 0.65998538 0.65871800
v 0.65848037 0.71986883 -0.53895109
v 0.59859691 0.77975229 -0.41918418
v 0.65848037 0.71986883 -0.41918418
v 0.65848037 0.77975229 -0.35930073
v 0.59859691 0.77975229 0.17965036
v 0.65848037 0.71986883 0.17965036
v 0.65848037 0.77975229 0.11976691
v 0.59859691 0.77975229 0.29941727
v 0.65848037 0.71986883 0.29941727
v 0.59859691 0.77975229 0.41918418
v 0.65848037 0.71986883 0.41918418
v 0.59859691 0.89951919 -0.29941727
v 0.65848037 0.83963574 -0.29941727
v 0.59859691 0.89951919 -0.17965036
v 0.65848037 0.83963574 -0.17965036
v 0.59859691 0.89951919 -0.05988345
v 0.65848037 0.83963574 -0.05988345
v 0.59859691 0.89951919 0.05988345
v 0.65848037 0.83963574 0.05988345
v 0.59859691 0.89951919 0.17965036
v 0.71836382 -0.77721754 -0.29941727
v 0.71836382 -0.77721754 -0.17965036
v 0.71836382 -0.77721754 -0.05988345
v 0.71836382 -0.77721754 0.05988345
v 0.71836382 -0.77721754 0.17965036
v 0.71836382 -0.65745063 -0.41918418
v 0.77824728 -0.65745063 -0.35930073
v 0.77824728 -0.71733408 -0.29941727
v 0.77824728 -0.71733408 -0.17965036
v 0.77824728 -0.71733408 -0.05988345
v 0.77824728 -0.71733408 0.05988345
v 0.77824728 -0.71733408 0.17965036
v 0.71836382 -0.65745063 0.29941727
v 0.77824728 -0.65745063 0.23953382
v 0.71836382 -0.65745063 0.41918418
v 0.71836382 -0.53768372 -0.53895109
v 0.77824728 -0.53768372 -0.47906764
v 0.77824728 -0.59756717 -0.41918418
v 0.77824728 -0.59756717 0.29941727
v 0.77824728 -0.53768372 0.35930073
v 0.71836382 -0.53768372 0.41918418
v 0.71836382 -0.53768372 0.53895109
v 0.71836382 -0.41791681 -0.65871800
v 0.77824728 -0.41791681 -0.59883455
v 0.77824728 -0.47780026 -0.53895109
v 0.77824728 -0.47780026 0.41918418
v 0.77824728 -0.41791681 0.47906764
v 0.71836382 -0.41791681 0.53895109
v 0.71836382 -0.41791681 0.65871800
v 0.71836382 -0.29814990 -0.65871800
v 0.77824728 -0.29814990 -0.59883455
v 0.77824728 -0.35803335 0.53895109
v 0.77824728 -0.29814990 0.59883455
v 0.71836382 -0.29814990 0.65871800
v 0.77824728 -0.17838299 -0.71860146
v 0.77824728 -0.23826644 -0.65871800
v 0.77824728 -0.23826644 0.65871800
v 0.77824728 -0.17838299 0.71860146
v 0.77824728 -0.05861608 -0.71860146
v 0.71836382 -0.05861608 0.77848491
v 0.77824728 -0.05861608 0.71860146
v 0.77824728 0.06115083 -0.71860146
v 0.71836382 0.06115083 0.65871800
v 0.77824728 0.00126737 0.65871800
v 0.77824728 0.06115083 0.59883455
v 0.77824728 0.18091774 -0.71860146
v 0.77824728 0.12103428 0.65871800
v 0.77824728 0.18091774 0.71860146
v 0.77824728 0.30068465 -0.71860146
v 0.71836382 0.30068465 0.77848491
v 0.77824728 0.30068465 0.71860146
v 0.77824728 0.36056810 -0.65871800
v 0.71836382 0.42045156 -0.65871800
v 0.77824728 0.42045156 -0.59883455
v 0.71836382 0.42045156 0.65871800
v 0.77824728 0.36056810 0.65871800
v 0.77824728 0.42045156 0.59883455
v 0.71836382 0.54021847 -0.65871800
v 0.77824728 0.48033501 -0.53895109
v 0.71836382 0.54021847 -0.53895109
v 0.77824728 0.54021847 -0.47906764
v 0.71836382 0.54021847 0.53895109
v 0.77824728 0.48033501 0.53895109
v 0.77824728 0.54021847 0.47906764
v 0.71836382 0.65998538 -0.53895109
v 0.77824728 0.60010192 -0.41918418
v 0.71836382 0.65998538 -0.41918418
v 0.71836382 0.65998538 -0.29941727
v 0.77824728 0.60010192 -0.29941727
v 0.77824728 0.65998538 -0.23953382
v 0.71836382 0.65998538 -0.05988345
v 0.77824728 0.60010192 -0.05988345
v 0.77824728 0.65998538 -0.11976691
v 0.77824728 0.65998538 0.00000000
v 0.71836382 0.65998538 0.53895109
v 0.77824728 0.60010192 0.53895109
v 0.77824728 0.65998538 0.59883455
v 0.71836382 0.77975229 -0.29941727
v 0.77824728 0.71986883 -0.17965036
v 0.71836382 0.77975229 -0.17965036
v 0.71836382 0.77975229 -0.05988345
v 0.77824728 0.71986883 0.05988345
v 0.71836382 0.77975229 0.05988345
v 0.77824728 0.71986883 0.17965036
v 0.77824728 0.71986883 0.29941727
v 0.77824728 0.71986883 0.41918418
v 0.77824728 0.71986883 0.53895109
v 0.83813073 -0.65745063 -0.29941727
v 0.83813073 -0.65745063 -0.17965036
v 0.83813073 -0.65745063 -0.05988345
v 0.83813073 -0.65745063 0.05988345
v 0.83813073 -0.65745063 0.17965036
v 0.83813073 -0.53768372 -0.41918418
v 0.83813073 -0.53768372 -0.29941727
v 0.89801419 -0.53768372 -0.23953382
v 0.89801419 -0.59756717 -0.17965036
v 0.89801419 -0.59756717 -0.05988345
v 0.89801419 -0.59756717 0.05988345
v 0.89801419 -0.53768372 0.11976691
v 0.83813073 -0.53768372 0.17965036
v 0.83813073 -0.53768372 0.29941727
v 0.83813073 -0.41791681 -0.53895109
v 0.83813073 -0.41791681 -0.41918418
v 0.89801419 -0.41791681 -0.35930073
v 0.89801419 -0.47780026 -0.29941727
v 0.89801419 -0.47780026 0.17965036
v 0.89801419 -0.41791681 0.23953382
v 0.83813073 -0.41791681 0.29941727
v 0.83813073 -0.41791681 0.41918418
v 0.83813073 -0.29814990 -0.53895109
v 0.89801419 -0.29814990 -0.47906764
v 0.89801419 -0.35803335 -0.41918418
v 0.89801419 -0.35803335 0.29941727
v 0.89801419 -0.35803335 0.41918418
v 0.83813073 -0.29814990 0.53895109
v 0.89801419 -0.29814990 0.47906764
v 0.83813073 -0.17838299 -0.65871800
v 0.89801419 -0.17838299 -0.59883455
v 0.89801419 -0.23826644 -0.53895109
v 0.83813073 -0.17838299 0.53895109
v 0.89801419 -0.17838299 0.47906764
v 0.83813073 -0.17838299 0.65871800
v 0.83813073 -0.05861608 -0.65871800
v 0.89801419 -0.05861608 -0.59883455
v 0.83813073 -0.05861608 0.53895109
v 0.89801419 -0.05861608 0.47906764
v 0.83813073 -0.05861608 0.65871800
v 0.83813073 0.06115083 -0.65871800
v 0.89801419 0.06115083 -0.59883455
v 0.83813073 0.06115083 0.53895109
v 0.89801419 0.06115083 0.47906764
v 0.83813073 0.18091774 -0.65871800
v 0.89801419 0.18091774 -0.59883455
v 0.83813073 0.18091774 0.53895109
v 0.89801419 0.18091774 0.47906764
v 0.83813073 0.18091774 0.65871800
v 0.83813073 0.30068465 -0.65871800
v 0.89801419 0.30068465 -0.59883455
v 0.83813073 0.30068465 0.53895109
v 0.89801419 0.30068465 0.47906764
v 0.83813073 0.30068465 0.65871800
v 0.83813073 0.42045156 -0.53895109
v 0.89801419 0.36056810 -0.53895109
v 0.83813073 0.42045156 -0.41918418
v 0.89801419 0.36056810 -0.41918418
v 0.89801419 0.42045156 -0.35930073
v 0.83813073 0.42045156 0.41918418
v 0.89801419 0.36056810 0.41918418
v 0.89801419 0.42045156 0.35930073
v 0.83813073 0.42045156 0.53895109
v 0.83813073 0.54021847 -0.41918418
v 0.89801419 0.48033501 -0.29941727
v 0.83813073 0.54021847 -0.29941727
v 0.89801419 0.54021847 -0.23953382
v 0.83813073 0.54021847 0.41918418
v 0.89801419 0.54021847 0.35930073
v 0.83813073 0.65998538 -0.17965036
v 0.89801419 0.60010192 -0.17965036
v 0.89801419 0.60010192 -0.05988345
v 0.83813073 0.65998538 0.05988345
v 0.89801419 0.60010192 0.05988345
v 0.83813073 0.65998538 0.17965036
v 0.89801419 0.60010192 0.17965036
v 0.83813073 0.65998538 0.29941727
v 0.89801419 0.60010192 0.29941727
v 0.83813073 0.65998538 0.41918418
v 0.83813073 0.65998538 0.53895109
v 0.95789764 -0.53768372 -0.17965036
v 0.95789764 -0.53768372 -0.05988345
v 0.95789764 -0.53768372 0.05988345
v 0.95789764 -0.41791681 -0.29941727
v 0.95789764 -0.41791681 -0.17965036
v 0.95789764 -0.41791681 -0.05988345
v 0.95789764 -0.41791681 0.05988345
v 0.95789764 -0.41791681 0.17965036
v 0.95789764 -0.29814990 -0.41918418
v 0.95789764 -0.29814990 -0.29941727
v 1.01778110 -0.29814990 -0.23953382
v 1.01778110 -0.35803335 -0.17965036
v 1.01778110 -0.35803335 -0.05988345
v 1.01778110 -0.35803335 0.05988345
v 1.01778110 -0.29814990 0.11976691
v 0.95789764 -0.29814990 0.17965036
v 0.95789764 -0.29814990 0.29941727
v 0.95789764 -0.29814990 0.41918418
v 0.95789764 -0.17838299 -0.53895109
v 0.95789764 -0.17838299 -0.41918418
v 0.95789764 -0.17838299 -0.29941727
v 1.01778110 -0.17838299 -0.23953382
v 1.01778110 -0.23826644 0.17965036
v 1.01778110 -0.17838299 0.23953382
v 0.95789764 -0.17838299 0.29941727
v 0.95789764 -0.17838299 0.41918418
v 0.95789764 -0.05861608 -0.53895109
v 0.95789764 -0.05861608 -0.41918418
v 1.01778110 -0.05861608 -0.35930073
v 1.01778110 -0.11849953 -0.29941727
v 0.95789764 -0.05861608 0.29941727
v 1.01778110 -0.05861608 0.23953382
v 0.95789764 -0.05861608 0.41918418
v 0.95789764 0.06115083 -0.53895109
v 0.95789764 0.06115083 -0.41918418
v 1.01778110 0.00126737 -0.29941727
v 0.95789764 0.06115083 -0.29941727
v 1.01778110 0.06115083 -0.23953382
v 0.95789764 0.06115083 0.29941727
v 1.01778110 0.06115083 0.23953382
v 0.95789764 0.06115083 0.41918418
v 0.95789764 0.18091774 -0.53895109
v 0.95789764 0.18091774 -0.41918418
v 1.01778110 0.18091774 -0.35930073
v 1.01778110 0.12103428 -0.29941727
v 0.95789764 0.18091774 0.29941727
v 1.01778110 0.18091774 0.23953382
v 0.95789764 0.18091774 0.41918418
v 0.95789764 0.30068465 -0.53895109
v 0.95789764 0.30068465 -0.41918418
v 1.01778110 0.24080119 -0.29941727
v 0.95789764 0.30068465 -0.29941727
v 1.01778110 0.30068465 -0.23953382
v 0.95789764 0.30068465 0.29941727
v 1.01778110 0.30068465 0.23953382
v 0.95789764 0.30068465 0.41918418
v 0.95789764 0.42045156 -0.29941727
v 1.01778110 0.36056810 -0.17965036
v 0.95789764 0.42045156 -0.17965036
v 0.95789764 0.42045156 -0.05988345
v 1.01778110 0.36056810 -0.05988345
v 0.95789764 0.42045156 0.05988345
v 1.01778110 0.36056810 0.05988345
v 0.95789764 0.42045156 0.17965036
v 1.01778110 0.36056810 0.17965036
v 0.95789764 0.42045156 0.29941727
v 0.95789764 0.54021847 -0.17965036
v 0.95789764 0.54021847 -0.05988345
v 0.95789764 0.54021847 0.05988345
v 0.95789764 0.54021847 0.17965036
v 0.95789764 0.54021847 0.29941727
v 1.07766455 -0.29814990 -0.17965036
v 1.07766455 -0.29814990 -0.05988345
v 1.07766455 -0.29814990 0.05988345
v 1.07766455 -0.17838299 -0.17965036
v 1.07766455 -0.17838299 -0.05988345
v 1.07766455 -0.17838299 0.05988345
v 1.07766455 -0.17838299 0.17965036
v 1.07766455 -0.05861608 -0.29941727
v 1.07766455 -0.05861608 -0.17965036
v 1.07766455 -0.05861608 -0.05988345
v 1.07766455 -0.05861608 0.05988345
v 1.07766455 -0.05861608 0.17965036
v 1.07766455 0.06115083 -0.17965036
v 1.07766455 0.06115083 -0.05988345
v 1.07766455 0.06115083 0.05988345
v 1.07766455 0.06115083 0.17965036
v 1.07766455 0.18091774 -0.29941727
v 1.07766455 0.18091774 -0.17965036
v 1.07766455 0.18091774 -0.05988345
v 1.07766455 0.18091774 0.05988345
v 1.07766455 0.18091774 0.17965036
v 1.07766455 0.30068465 -0.17965036
v 1.07766455 0.30068465 -0.05988345
v 1.07766455 0.30068465 0.05988345
v 1.07766455 0.30068465 0.17965036
f 3 2 1
f 5 4 1
f 1 4 3
f 7 6 5
f 5 6 4
f 9 8 7
f 7 8 6
f 11 10 9
f 9 10 8
f 11 12 10
f 1 2 13
f 13 2 14
f 1 15 5
f 1 13 15
f 5 16 7
f 5 15 16
f 7 17 9
f 7 16 17
f 9 18 11
f 9 17 18
f 12 11 19
f 19 11 18
f 13 14 20
f 20 14 21
f 13 22 15
f 13 20 22
f 15 23 16
f 15 22 23
f 16 24 17
f 16 23 24
f 17 25 18
f 17 24 25
f 19 18 26
f 26 18 25
f 20 21 27
f 27 21 28
f 20 29 22
f 20 27 29
f 22 30 23
f 22 29 30
f 23 31 24
f 23 30 31
f 24 32 25
f 24 31 32
f 26 25 33
f 33 25 32
f 27 28 34
f 34 28 35
f 27 36 29
f 27 34 36
f 29 37 30
f 29 36 37
f 30 38 31
f 30 37 38
f 31 39 32
f 31 38 39
f 33 32 40
f 40 32 39
f 34 35 41
f 41 35 42
f 34 43 36
f 34 41 43
f 36 44 37
f 36 43 44
f 37 45 38
f 37 44 45
f 38 46 39
f 38 45 46
f 40 39 47
f 47 39 46
f 42 48 41
f 41 48 43
f 43 48 49
f 43 49 44
f 44 49 50
f 44 50 45
f 45 50 51
f 45 51 46
f 46 51 52
f 46 52 47
f 55 54 53
f 57 56 53
f 53 56 55
f 59 58 57
f 57 58 56
f 61 60 59
f 59 60 58
f 63 62 61
f 61 62 60
f 65 64 63
f 63 64 62
f 65 66 64
f 69 68 67
f 69 67 54
f 67 53 54
f 67 70 53
f 53 71 57
f 53 70 71
f 57 72 59
f 57 71 72
f 59 73 61
f 59 72 73
f 61 74 63
f 61 73 74
f 63 75 65
f 63 74 75
f 66 65 76
f 65 77 76
f 65 75 77
f 77 78 76
f 67 68 79
f 79 68 80
f 79 2 3
f 70 79 3
f 67 79 70
f 70 3 4
f 70 4 71
f 71 4 6
f 71 6 72
f 72 6 8
f 72 8 73
f 73 8 10
f 73 10 74
f 74 10 12
f 81 74 12
f 75 74 81
f 75 82 77
f 75 81 82
f 78 77 83
f 83 77 82
f 86 85 84
f 86 84 80
f 84 79 80
f 84 87 79
f 87 14 2
f 87 2 79
f 19 88 81
f 19 81 12
f 81 89 82
f 81 88 89
f 83 82 90
f 82 91 90
f 82 89 91
f 91 92 90
f 84 85 93
f 93 85 94
f 84 95 87
f 84 93 95
f 95 21 14
f 95 14 87
f 26 96 88
f 26 88 19
f 88 97 89
f 88 96 97
f 89 98 91
f 89 97 98
f 92 91 99
f 99 91 98
f 93 94 100
f 100 94 101
f 93 102 95
f 93 100 102
f 102 28 21
f 102 21 95
f 33 103 96
f 33 96 26
f 96 104 97
f 96 103 104
f 97 105 98
f 97 104 105
f 99 98 106
f 106 98 105
f 100 101 107
f 107 101 108
f 100 109 102
f 100 107 109
f 109 35 28
f 109 28 102
f 40 110 103
f 40 103 33
f 103 111 104
f 103 110 111
f 104 112 105
f 104 111 112
f 106 105 113
f 113 105 112
f 108 114 107
f 116 115 114
f 115 107 114
f 115 109 107
f 115 42 35
f 115 35 109
f 47 117 110
f 47 110 40
f 110 118 111
f 110 117 118
f 120 112 119
f 112 118 119
f 112 111 118
f 112 120 113
f 115 116 121
f 121 116 122
f 123 48 42
f 115 123 42
f 121 123 115
f 124 49 48
f 124 48 123
f 125 50 49
f 125 49 124
f 126 51 50
f 126 50 125
f 127 52 51
f 127 51 126
f 117 47 52
f 127 117 52
f 128 117 127
f 117 129 118
f 117 128 129
f 119 118 130
f 130 118 129
f 122 131 121
f 133 132 131
f 132 121 131
f 132 123 121
f 123 134 124
f 123 132 134
f 124 135 125
f 124 134 135
f 125 136 126
f 125 135 136
f 126 137 127
f 126 136 137
f 127 138 128
f 127 137 138
f 140 129 139
f 129 138 139
f 129 128 138
f 129 140 130
f 133 141 132
f 132 141 134
f 134 141 142
f 134 142 135
f 135 142 143
f 135 143 136
f 136 143 144
f 136 144 137
f 137 144 145
f 137 145 138
f 138 145 146
f 138 146 139
f 149 148 147
f 151 150 147
f 147 150 149
f 153 152 151
f 151 152 150
f 155 154 153
f 153 154 152
f 157 156 155
f 155 156 154
f 159 158 157
f 157 158 156
f 161 160 159
f 159 160 158
f 161 162 160
f 147 148 163
f 163 148 164
f 163 54 55
f 151 163 55
f 147 163 151
f 151 55 56
f 151 56 153
f 153 56 58
f 153 58 155
f 155 58 60
f 155 60 157
f 157 60 62
f 157 62 159
f 159 62 64
f 159 64 161
f 166 165 66
f 66 165 64
f 165 162 64
f 162 161 64
f 166 167 165
f 170 169 168
f 170 168 164
f 164 168 163
f 168 68 163
f 68 69 163
f 163 69 54
f 76 166 66
f 172 171 78
f 78 171 76
f 171 167 76
f 167 166 76
f 172 173 171
f 176 175 174
f 176 174 169
f 174 168 169
f 174 177 168
f 177 80 68
f 177 68 168
f 83 178 172
f 83 172 78
f 173 172 179
f 179 172 178
f 174 175 180
f 180 175 181
f 180 85 86
f 177 180 86
f 174 180 177
f 177 86 80
f 90 178 83
f 183 182 92
f 92 182 90
f 182 179 90
f 179 178 90
f 183 184 182
f 180 181 185
f 185 181 186
f 185 94 85
f 185 85 180
f 99 187 183
f 99 183 92
f 184 183 188
f 188 183 187
f 185 186 189
f 189 186 190
f 189 101 94
f 189 94 185
f 106 191 187
f 106 187 99
f 188 187 192
f 192 187 191
f 189 190 193
f 193 190 194
f 193 108 101
f 193 101 189
f 113 195 191
f 113 191 106
f 192 191 196
f 196 191 195
f 194 197 193
f 197 199 198
f 197 198 114
f 193 197 114
f 108 193 114
f 198 116 114
f 202 201 200
f 203 200 201
f 119 204 120
f 204 205 120
f 120 205 113
f 205 206 113
f 206 195 113
f 195 206 196
f 198 199 207
f 207 199 208
f 207 122 116
f 207 116 198
f 209 202 200
f 209 200 203
f 130 210 204
f 130 204 119
f 205 204 211
f 211 204 210
f 208 212 207
f 212 214 213
f 212 213 131
f 207 212 131
f 122 207 131
f 213 133 131
f 139 215 140
f 215 216 140
f 140 216 130
f 216 217 130
f 217 210 130
f 210 217 211
f 213 214 218
f 218 214 219
f 220 141 133
f 213 220 133
f 218 220 213
f 221 142 141
f 221 141 220
f 222 143 142
f 222 142 221
f 223 144 143
f 223 143 222
f 224 145 144
f 224 144 223
f 225 146 145
f 225 145 224
f 225 226 146
f 146 226 139
f 226 227 139
f 227 215 139
f 215 227 216
f 219 228 218
f 218 228 220
f 220 228 229
f 220 229 221
f 221 229 230
f 221 230 222
f 222 230 231
f 222 231 223
f 223 231 232
f 223 232 224
f 224 232 233
f 224 233 225
f 225 233 234
f 225 234 226
f 237 236 235
f 239 238 235
f 235 238 237
f 241 240 239
f 239 240 238
f 243 242 241
f 241 242 240
f 245 244 243
f 243 244 242
f 247 246 245
f 245 246 244
f 249 248 247
f 247 248 246
f 249 250 248
f 235 236 149
f 236 148 149
f 236 251 148
f 235 149 150
f 235 150 239
f 239 150 152
f 239 152 241
f 241 152 154
f 241 154 243
f 243 154 156
f 243 156 245
f 245 156 158
f 245 158 247
f 247 158 160
f 247 160 249
f 253 252 162
f 162 252 160
f 252 250 160
f 250 249 160
f 253 254 252
f 257 256 255
f 251 257 255
f 164 251 255
f 148 251 164
f 165 253 162
f 259 258 167
f 167 258 165
f 258 254 165
f 254 253 165
f 259 260 258
f 263 262 261
f 263 261 256
f 256 261 255
f 261 169 255
f 169 170 255
f 255 170 164
f 171 259 167
f 265 264 173
f 173 264 171
f 264 260 171
f 260 259 171
f 265 266 264
f 261 262 176
f 262 175 176
f 262 267 175
f 261 176 169
f 179 268 265
f 179 265 173
f 266 265 269
f 269 265 268
f 267 181 175
f 270 181 267
f 182 268 179
f 182 184 268
f 184 269 268
f 184 271 269
f 270 186 181
f 272 186 270
f 188 271 184
f 188 273 271
f 272 190 186
f 274 190 272
f 192 273 188
f 192 275 273
f 274 194 190
f 276 194 274
f 279 278 277
f 280 277 278
f 196 275 192
f 196 281 275
f 197 194 282
f 194 283 282
f 194 276 283
f 282 199 197
f 202 284 201
f 284 203 201
f 285 279 277
f 285 277 280
f 205 286 206
f 286 287 206
f 287 196 206
f 287 281 196
f 282 283 288
f 288 283 289
f 288 208 199
f 288 199 282
f 209 284 202
f 284 209 203
f 211 290 286
f 211 286 205
f 287 286 291
f 291 286 290
f 289 292 288
f 292 294 293
f 292 293 212
f 288 292 212
f 208 288 212
f 293 214 212
f 216 295 217
f 295 296 217
f 217 296 211
f 296 297 211
f 297 290 211
f 290 297 291
f 294 298 293
f 214 293 298
f 299 214 298
f 219 214 299
f 226 300 227
f 300 301 227
f 227 301 216
f 301 302 216
f 302 295 216
f 295 302 296
f 299 303 219
f 219 303 228
f 303 305 304
f 229 303 304
f 228 303 229
f 306 230 229
f 306 229 304
f 307 231 230
f 307 230 306
f 308 232 231
f 308 231 307
f 309 233 232
f 309 232 308
f 310 234 233
f 310 233 309
f 310 311 234
f 234 311 226
f 311 312 226
f 312 300 226
f 300 312 301
f 305 313 304
f 304 313 306
f 306 313 314
f 306 314 307
f 307 314 315
f 307 315 308
f 308 315 316
f 308 316 309
f 309 316 317
f 309 317 310
f 310 317 318
f 310 318 311
f 321 320 319
f 323 322 319
f 319 322 321
f 325 324 323
f 323 324 322
f 327 326 325
f 325 326 324
f 329 328 327
f 327 328 326
f 331 330 329
f 329 330 328
f 331 332 330
f 334 333 237
f 237 333 236
f 238 319 320
f 334 238 320
f 237 238 334
f 319 238 240
f 319 240 323
f 323 240 242
f 323 242 325
f 325 242 244
f 325 244 327
f 327 244 246
f 327 246 329
f 329 246 248
f 329 248 331
f 336 335 250
f 250 335 248
f 335 332 248
f 332 331 248
f 336 337 335
f 340 339 338
f 333 340 338
f 251 333 338
f 236 333 251
f 252 336 250
f 342 341 254
f 254 341 252
f 341 337 252
f 337 336 252
f 342 343 341
f 346 345 344
f 346 344 339
f 339 344 338
f 344 256 338
f 256 257 338
f 338 257 251
f 258 342 254
f 348 347 260
f 260 347 258
f 347 343 258
f 343 342 258
f 348 349 347
f 344 345 263
f 345 262 263
f 345 350 262
f 344 263 256
f 264 348 260
f 264 266 348
f 266 349 348
f 266 351 349
f 354 353 352
f 350 354 352
f 267 350 352
f 262 350 267
f 269 356 355
f 351 269 355
f 266 269 351
f 356 357 355
f 352 353 358
f 358 353 359
f 358 270 267
f 358 267 352
f 271 360 356
f 271 356 269
f 357 356 361
f 361 356 360
f 358 359 362
f 362 359 363
f 362 272 270
f 362 270 358
f 273 364 360
f 273 360 271
f 361 360 365
f 365 360 364
f 362 363 366
f 366 363 367
f 366 274 272
f 366 272 362
f 275 368 364
f 275 364 273
f 365 364 369
f 369 364 368
f 366 367 370
f 370 367 371
f 370 276 274
f 370 274 366
f 279 372 278
f 372 280 278
f 281 373 368
f 281 368 275
f 369 368 374
f 374 368 373
f 370 371 375
f 375 371 376
f 375 283 276
f 375 276 370
f 285 372 279
f 372 285 280
f 287 377 373
f 287 373 281
f 374 373 378
f 378 373 377
f 376 379 375
f 283 375 379
f 380 283 379
f 289 283 380
f 382 381 377
f 287 382 377
f 291 382 287
f 377 381 378
f 292 289 383
f 289 384 383
f 289 380 384
f 383 294 292
f 296 385 297
f 385 386 297
f 386 291 297
f 386 382 291
f 384 387 383
f 387 389 388
f 387 388 298
f 383 387 298
f 294 383 298
f 388 299 298
f 301 390 302
f 390 391 302
f 302 391 296
f 391 392 296
f 392 385 296
f 385 392 386
f 389 393 388
f 393 395 394
f 393 394 303
f 388 393 303
f 299 388 303
f 394 305 303
f 311 396 312
f 396 397 312
f 312 397 301
f 397 398 301
f 398 390 301
f 390 398 391
f 395 399 394
f 399 401 400
f 399 400 313
f 394 399 313
f 305 394 313
f 402 314 313
f 402 313 400
f 403 315 314
f 403 314 402
f 404 316 315
f 404 315 403
f 405 317 316
f 405 316 404
f 317 405 406
f 407 317 406
f 318 317 407
f 311 318 396
f 318 408 396
f 318 407 408
f 396 408 397
f 401 409 400
f 400 409 402
f 402 409 410
f 402 410 403
f 403 410 411
f 403 411 404
f 404 411 412
f 404 412 405
f 405 412 413
f 405 413 406
f 416 415 414
f 320 321 414
f 321 416 414
f 321 417 416
f 418 321 322
f 418 417 321
f 419 322 324
f 419 418 322
f 420 324 326
f 420 419 324
f 421 326 328
f 421 420 326
f 422 328 330
f 422 421 328
f 330 332 422
f 422 332 423
f 426 425 424
f 426 424 415
f 415 424 414
f 424 333 414
f 333 334 414
f 414 334 320
f 427 423 332
f 427 332 335
f 429 428 337
f 428 335 337
f 428 427 335
f 429 430 428
f 433 432 431
f 433 431 425
f 425 431 424
f 431 339 424
f 339 340 424
f 424 340 333
f 341 429 337
f 435 434 343
f 343 434 341
f 434 430 341
f 430 429 341
f 435 436 434
f 431 432 346
f 432 345 346
f 432 437 345
f 431 346 339
f 347 435 343
f 347 349 435
f 349 436 435
f 349 438 436
f 441 440 439
f 437 441 439
f 350 437 439
f 345 437 350
f 351 443 442
f 438 351 442
f 349 351 438
f 443 444 442
f 439 440 354
f 440 353 354
f 440 445 353
f 439 354 350
f 355 443 351
f 355 357 443
f 357 444 443
f 357 446 444
f 445 359 353
f 447 359 445
f 361 446 357
f 361 448 446
f 447 363 359
f 449 363 447
f 365 448 361
f 365 450 448
f 449 367 363
f 451 367 449
f 369 453 452
f 450 369 452
f 365 369 450
f 453 454 452
f 451 371 367
f 455 371 451
f 374 456 453
f 374 453 369
f 454 453 457
f 457 453 456
f 455 376 371
f 458 376 455
f 460 459 456
f 374 460 456
f 378 460 374
f 456 459 457
f 379 376 461
f 376 462 461
f 376 458 462
f 461 380 379
f 382 463 381
f 463 464 381
f 464 378 381
f 464 460 378
f 462 465 461
f 380 461 465
f 466 380 465
f 384 380 466
f 468 467 463
f 382 468 463
f 386 468 382
f 463 467 464
f 387 384 469
f 384 470 469
f 384 466 470
f 469 389 387
f 391 471 392
f 471 472 392
f 472 386 392
f 472 468 386
f 470 473 469
f 473 475 474
f 473 474 393
f 469 473 393
f 389 469 393
f 474 395 393
f 477 476 398
f 477 398 397
f 391 398 471
f 398 478 471
f 398 476 478
f 471 478 472
f 475 479 474
f 479 481 480
f 479 480 399
f 474 479 399
f 395 474 399
f 480 401 399
f 406 482 407
f 407 482 483
f 484 407 483
f 408 407 484
f 397 408 477
f 477 408 484
f 481 485 480
f 480 485 401
f 485 409 401
f 485 486 409
f 409 487 410
f 486 487 409
f 410 488 411
f 487 488 410
f 411 489 412
f 488 489 411
f 412 490 413
f 489 490 412
f 406 413 482
f 413 491 482
f 413 490 491
f 482 491 483
f 494 493 492
f 496 495 492
f 492 495 494
f 498 497 496
f 496 497 495
f 500 499 498
f 498 499 497
f 502 501 500
f 500 501 499
f 502 503 501
f 506 505 504
f 415 416 504
f 416 506 504
f 416 507 506
f 417 492 493
f 507 417 493
f 416 417 507
f 492 417 418
f 492 418 496
f 496 418 419
f 496 419 498
f 498 419 420
f 498 420 500
f 500 420 421
f 500 421 502
f 508 503 502
f 421 508 502
f 422 508 421
f 510 509 423
f 509 422 423
f 509 508 422
f 510 511 509
f 504 505 426
f 505 425 426
f 505 512 425
f 504 426 415
f 515 514 513
f 516 513 514
f 427 510 423
f 517 511 510
f 427 517 510
f 428 517 427
f 428 430 517
f 517 430 518
f 520 519 433
f 433 519 432
f 433 425 512
f 433 512 520
f 521 515 513
f 521 513 516
f 522 518 430
f 522 430 434
f 434 436 522
f 522 436 523
f 526 525 524
f 519 526 524
f 437 519 524
f 432 519 437
f 438 528 527
f 523 438 527
f 436 438 523
f 528 529 527
f 524 525 441
f 525 440 441
f 525 530 440
f 524 441 437
f 442 528 438
f 442 444 528
f 444 529 528
f 444 531 529
f 534 533 532
f 530 534 532
f 445 530 532
f 440 530 445
f 446 536 535
f 531 446 535
f 444 446 531
f 536 537 535
f 532 533 538
f 538 533 539
f 538 447 445
f 538 445 532
f 448 540 536
f 448 536 446
f 537 536 541
f 541 536 540
f 538 539 542
f 542 539 543
f 542 449 447
f 542 447 538
f 450 544 540
f 450 540 448
f 541 540 545
f 545 540 544
f 542 543 546
f 546 543 547
f 546 451 449
f 546 449 542
f 452 544 450
f 452 454 544
f 454 545 544
f 454 548 545
f 546 547 549
f 549 547 550
f 549 455 451
f 549 451 546
f 457 548 454
f 457 551 548
f 549 550 552
f 552 550 553
f 552 458 455
f 552 455 549
f 460 554 459
f 554 555 459
f 555 457 459
f 555 551 457
f 553 556 552
f 458 552 556
f 557 458 556
f 462 458 557
f 559 558 554
f 460 559 554
f 464 559 460
f 554 558 555
f 465 462 560
f 462 561 560
f 462 557 561
f 560 466 465
f 563 562 467
f 563 467 468
f 464 467 559
f 559 467 562
f 561 564 560
f 466 560 564
f 565 466 564
f 470 466 565
f 472 563 468
f 472 566 563
f 473 470 567
f 470 568 567
f 470 565 568
f 567 475 473
f 477 569 476
f 476 569 570
f 571 476 570
f 478 476 571
f 472 478 566
f 566 478 571
f 568 572 567
f 567 572 475
f 572 479 475
f 572 573 479
f 481 479 573
f 481 573 574
f 576 575 484
f 576 484 483
f 477 484 569
f 484 577 569
f 484 575 577
f 569 577 570
f 574 578 481
f 481 578 485
f 578 580 579
f 486 578 579
f 485 578 486
f 581 487 486
f 581 486 579
f 582 488 487
f 582 487 581
f 583 489 488
f 583 488 582
f 584 490 489
f 584 489 583
f 490 584 585
f 586 490 585
f 491 490 586
f 483 491 576
f 576 491 586
f 580 587 579
f 579 587 581
f 581 587 588
f 581 588 582
f 582 588 589
f 582 589 583
f 583 589 590
f 583 590 584
f 584 590 591
f 584 591 585
f 593 592 494
f 494 592 493
f 594 494 495
f 594 593 494
f 595 495 497
f 595 594 495
f 596 497 499
f 596 595 497
f 597 499 501
f 597 596 499
f 501 503 597
f 597 503 598
f 600 599 506
f 506 599 505
f 601 506 507
f 601 600 506
f 507 493 592
f 507 592 601
f 602 598 503
f 602 503 508
f 603 508 509
f 603 602 508
f 605 604 511
f 604 509 511
f 604 603 509
f 605 606 604
f 609 608 607
f 599 609 607
f 512 599 607
f 505 599 512
f 515 610 514
f 516 514 610
f 613 612 611
f 614 613 611
f 517 605 511
f 616 615 518
f 518 615 517
f 615 606 517
f 606 605 517
f 616 617 615
f 607 608 520
f 608 519 520
f 608 618 519
f 607 520 512
f 521 610 515
f 613 619 612
f 516 610 521
f 619 613 614
f 622 621 620
f 518 522 616
f 620 621 623
f 522 523 616
f 523 617 616
f 523 624 617
f 626 625 526
f 526 625 525
f 526 519 618
f 526 618 626
f 627 622 620
f 627 620 623
f 523 527 628
f 629 523 628
f 624 523 629
f 529 628 527
f 632 631 630
f 625 632 630
f 530 625 630
f 525 625 530
f 633 629 628
f 529 531 628
f 531 634 628
f 634 633 628
f 634 531 635
f 635 636 634
f 630 631 534
f 631 533 534
f 631 637 533
f 630 534 530
f 535 635 531
f 535 537 635
f 537 636 635
f 537 638 636
f 637 539 533
f 639 539 637
f 541 638 537
f 541 640 638
f 639 543 539
f 641 543 639
f 545 640 541
f 545 642 640
f 641 547 543
f 643 547 641
f 548 642 545
f 548 644 642
f 643 550 547
f 645 550 643
f 551 644 548
f 551 646 644
f 645 553 550
f 647 553 645
f 555 646 551
f 555 648 646
f 556 553 649
f 553 650 649
f 553 647 650
f 649 557 556
f 652 651 558
f 652 558 559
f 555 558 648
f 648 558 651
f 650 653 649
f 557 649 653
f 654 557 653
f 561 557 654
f 563 655 562
f 655 656 562
f 656 559 562
f 656 652 559
f 564 561 657
f 561 658 657
f 561 654 658
f 657 565 564
f 660 659 655
f 563 660 655
f 566 660 563
f 655 659 656
f 658 661 657
f 565 657 661
f 662 565 661
f 568 565 662
f 570 663 571
f 663 664 571
f 664 566 571
f 664 660 566
f 662 665 568
f 568 665 572
f 665 667 666
f 573 665 666
f 572 665 573
f 666 574 573
f 576 668 575
f 669 577 575
f 669 575 668
f 669 670 577
f 577 670 570
f 670 671 570
f 671 663 570
f 663 671 664
f 667 672 666
f 666 672 574
f 672 578 574
f 672 673 578
f 580 578 673
f 580 673 674
f 676 675 586
f 676 586 585
f 576 586 668
f 586 677 668
f 586 675 677
f 668 677 669
f 669 677 678
f 669 678 670
f 674 679 580
f 580 679 587
f 587 680 588
f 679 680 587
f 588 681 589
f 680 681 588
f 589 682 590
f 681 682 589
f 590 683 591
f 682 683 590
f 585 591 676
f 676 591 683
f 685 684 593
f 593 684 592
f 686 593 594
f 686 685 593
f 687 594 595
f 687 686 594
f 688 595 596
f 688 687 595
f 689 596 597
f 689 688 596
f 597 598 689
f 689 598 690
f 692 691 600
f 600 691 599
f 693 600 601
f 693 692 600
f 601 592 684
f 601 684 693
f 694 690 598
f 694 598 602
f 695 602 603
f 695 694 602
f 696 603 604
f 696 695 603
f 604 606 696
f 696 606 697
f 699 698 609
f 609 698 608
f 609 599 691
f 609 691 699
f 612 700 611
f 700 614 611
f 701 697 606
f 701 606 615
f 615 617 701
f 701 617 702
f 698 618 608
f 703 618 698
f 619 700 612
f 700 619 614
f 622 704 621
f 704 623 621
f 624 702 617
f 624 705 702
f 707 706 626
f 626 706 625
f 626 618 703
f 626 703 707
f 627 704 622
f 704 627 623
f 629 709 708
f 705 629 708
f 624 629 705
f 709 710 708
f 712 711 632
f 632 711 631
f 632 625 706
f 632 706 712
f 633 709 629
f 713 710 709
f 633 713 709
f 634 713 633
f 634 636 713
f 713 636 714
f 711 637 631
f 715 637 711
f 638 714 636
f 638 716 714
f 715 639 637
f 717 639 715
f 640 716 638
f 640 718 716
f 717 641 639
f 719 641 717
f 642 718 640
f 642 720 718
f 719 643 641
f 721 643 719
f 644 720 642
f 644 722 720
f 721 645 643
f 723 645 721
f 646 722 644
f 646 724 722
f 723 647 645
f 725 647 723
f 648 724 646
f 648 726 724
f 725 650 647
f 727 650 725
f 652 728 651
f 728 729 651
f 729 648 651
f 729 726 648
f 727 730 650
f 650 730 653
f 654 653 730
f 654 730 731
f 733 732 728
f 652 733 728
f 656 733 652
f 728 732 729
f 731 658 654
f 734 658 731
f 660 735 659
f 735 736 659
f 736 656 659
f 736 733 656
f 734 737 658
f 658 737 661
f 662 661 737
f 662 737 738
f 740 739 735
f 660 740 735
f 664 740 660
f 735 739 736
f 738 741 662
f 662 741 665
f 667 665 741
f 667 741 742
f 745 744 743
f 671 670 743
f 744 671 743
f 746 671 744
f 664 671 740
f 740 671 746
f 742 747 667
f 667 747 672
f 672 748 673
f 747 748 672
f 674 673 748
f 674 748 749
f 751 750 675
f 751 675 676
f 675 752 677
f 750 752 675
f 743 678 745
f 678 752 745
f 678 677 752
f 678 743 670
f 749 753 674
f 674 753 679
f 679 754 680
f 753 754 679
f 680 755 681
f 754 755 680
f 681 756 682
f 755 756 681
f 682 757 683
f 756 757 682
f 676 683 751
f 751 683 757
f 759 758 685
f 685 758 684
f 760 685 686
f 760 759 685
f 761 686 687
f 761 760 686
f 762 687 688
f 762 761 687
f 763 688 689
f 763 762 688
f 689 690 763
f 763 690 764
f 766 765 692
f 692 765 691
f 767 692 693
f 767 766 692
f 693 684 758
f 693 758 767
f 768 764 690
f 768 690 694
f 769 694 695
f 769 768 694
f 770 695 696
f 770 769 695
f 696 697 770
f 770 697 771
f 773 772 699
f 699 772 698
f 699 691 765
f 699 765 773
f 774 771 697
f 774 697 701
f 701 702 774
f 774 702 775
f 772 703 698
f 776 703 772
f 705 775 702
f 705 777 775
f 779 778 707
f 707 778 706
f 707 703 776
f 707 776 779
f 780 777 705
f 780 705 708
f 708 710 780
f 780 710 781
f 783 782 712
f 712 782 711
f 712 706 778
f 712 778 783
f 784 781 710
f 784 710 713
f 713 714 784
f 784 714 785
f 782 715 711
f 786 715 782
f 716 785 714
f 716 787 785
f 786 717 715
f 788 717 786
f 718 787 716
f 718 789 787
f 788 719 717
f 790 719 788
f 720 789 718
f 720 791 789
f 790 721 719
f 792 721 790
f 722 791 720
f 722 793 791
f 792 723 721
f 794 723 792
f 724 793 722
f 724 795 793
f 794 725 723
f 796 725 794
f 726 795 724
f 726 797 795
f 796 727 725
f 798 727 796
f 729 797 726
f 729 799 797
f 798 800 727
f 727 800 730
f 731 730 800
f 731 800 801
f 803 802 732
f 803 732 733
f 729 732 799
f 799 732 802
f 801 734 731
f 804 734 801
f 736 803 733
f 736 805 803
f 804 806 734
f 734 806 737
f 738 737 806
f 738 806 807
f 809 808 739
f 809 739 740
f 736 739 805
f 805 739 808
f 807 810 738
f 738 810 741
f 742 741 810
f 742 810 811
f 813 812 744
f 813 744 745
f 744 814 746
f 812 814 744
f 740 746 809
f 809 746 814
f 811 815 742
f 742 815 747
f 747 816 748
f 815 816 747
f 749 748 816
f 749 816 817
f 819 818 750
f 819 750 751
f 750 820 752
f 818 820 750
f 745 752 813
f 813 752 820
f 817 821 749
f 749 821 753
f 753 822 754
f 821 822 753
f 754 823 755
f 822 823 754
f 755 824 756
f 823 824 755
f 756 825 757
f 824 825 756
f 751 757 819
f 819 757 825
f 826 758 759
f 826 759 827
f 759 828 827
f 759 760 828
f 829 760 761
f 829 828 760
f 830 761 762
f 830 829 761
f 832 830 831
f 830 763 831
f 830 762 763
f 764 831 763
f 833 765 766
f 833 766 834
f 766 835 834
f 766 767 835
f 767 758 826
f 836 767 826
f 835 767 836
f 836 826 827
f 837 832 831
f 837 831 764
f 768 837 764
f 838 837 768
f 839 768 769
f 839 838 768
f 840 769 770
f 840 839 769
f 770 771 840
f 840 771 841
f 843 842 773
f 773 842 772
f 773 765 833
f 844 773 833
f 843 773 844
f 844 833 834
f 845 841 771
f 845 771 774
f 774 775 845
f 845 775 846
f 842 776 772
f 847 776 842
f 777 846 775
f 777 848 846
f 850 849 779
f 779 849 778
f 779 776 847
f 779 847 850
f 851 848 777
f 851 777 780
f 780 781 851
f 851 781 852
f 854 853 783
f 783 853 782
f 783 778 849
f 783 849 854
f 855 852 781
f 855 781 784
f 784 785 855
f 855 785 856
f 853 786 782
f 857 786 853
f 787 856 785
f 787 858 856
f 857 788 786
f 859 788 857
f 789 858 787
f 789 860 858
f 859 790 788
f 861 790 859
f 791 860 789
f 791 862 860
f 861 792 790
f 863 792 861
f 793 862 791
f 793 864 862
f 863 794 792
f 865 794 863
f 795 864 793
f 795 866 864
f 865 796 794
f 867 796 865
f 797 866 795
f 797 868 866
f 867 798 796
f 869 798 867
f 799 868 797
f 799 870 868
f 869 871 798
f 798 871 800
f 801 800 871
f 801 871 872
f 874 873 802
f 874 802 803
f 799 802 870
f 870 802 873
f 872 804 801
f 875 804 872
f 878 877 876
f 877 874 876
f 874 805 876
f 874 803 805
f 875 879 804
f 804 879 806
f 807 806 879
f 807 879 880
f 883 882 881
f 884 881 882
f 878 876 808
f 809 878 808
f 885 878 809
f 808 876 805
f 880 886 807
f 807 886 810
f 811 810 886
f 811 886 887
f 888 883 881
f 888 881 884
f 890 889 812
f 890 812 813
f 812 891 814
f 889 891 812
f 809 814 885
f 885 814 891
f 887 892 811
f 811 892 815
f 815 893 816
f 892 893 815
f 817 816 893
f 817 893 894
f 896 895 818
f 896 818 819
f 818 897 820
f 895 897 818
f 813 820 890
f 890 820 897
f 894 898 817
f 817 898 821
f 821 899 822
f 898 899 821
f 822 900 823
f 899 900 822
f 823 901 824
f 900 901 823
f 824 902 825
f 901 902 824
f 819 825 896
f 896 825 902
f 904 903 828
f 828 903 827
f 905 828 829
f 905 904 828
f 906 829 830
f 906 905 829
f 830 832 906
f 906 832 907
f 909 908 835
f 835 908 834
f 910 835 836
f 910 909 835
f 836 827 903
f 836 903 910
f 911 907 832
f 911 832 837
f 912 837 838
f 912 911 837
f 913 838 839
f 913 912 838
f 915 913 914
f 913 840 914
f 913 839 840
f 841 914 840
f 916 842 843
f 916 843 917
f 843 918 917
f 843 844 918
f 844 834 908
f 844 908 918
f 919 915 914
f 921 919 920
f 920 919 845
f 919 914 845
f 914 841 845
f 846 920 845
f 923 922 916
f 922 842 916
f 922 847 842
f 923 916 917
f 921 920 924
f 921 924 925
f 848 924 846
f 846 924 920
f 927 926 850
f 850 926 849
f 850 847 922
f 850 922 927
f 928 925 924
f 928 924 848
f 851 928 848
f 929 928 851
f 851 852 929
f 929 852 930
f 931 853 854
f 932 931 854
f 849 932 854
f 926 932 849
f 852 855 933
f 934 852 933
f 930 852 934
f 856 933 855
f 936 935 931
f 935 853 931
f 935 857 853
f 936 931 932
f 934 933 937
f 934 937 938
f 858 937 856
f 856 937 933
f 935 859 857
f 939 859 935
f 938 937 940
f 938 940 941
f 860 940 858
f 858 940 937
f 939 861 859
f 942 861 939
f 943 941 940
f 940 860 943
f 860 944 943
f 860 862 944
f 942 863 861
f 945 863 942
f 864 944 862
f 864 946 944
f 945 865 863
f 947 865 945
f 866 946 864
f 866 948 946
f 947 867 865
f 949 867 947
f 868 948 866
f 868 950 948
f 952 869 951
f 869 949 951
f 869 867 949
f 953 952 951
f 956 955 954
f 955 950 954
f 950 870 954
f 950 868 870
f 952 871 869
f 872 871 952
f 953 872 952
f 957 872 953
f 956 954 873
f 874 956 873
f 958 956 874
f 873 954 870
f 957 875 872
f 959 875 957
f 961 960 877
f 961 877 878
f 874 877 958
f 958 877 960
f 959 962 875
f 875 962 879
f 880 879 962
f 880 962 963
f 883 964 882
f 964 884 882
f 967 966 965
f 966 961 965
f 961 885 965
f 961 878 885
f 963 968 880
f 880 968 886
f 887 886 968
f 887 968 969
f 888 964 883
f 964 888 884
f 972 971 970
f 974 973 970
f 974 970 971
f 889 890 973
f 974 889 973
f 975 889 974
f 965 891 967
f 891 975 967
f 891 889 975
f 891 965 885
f 969 976 887
f 887 976 892
f 892 977 893
f 976 977 892
f 894 893 977
f 894 977 978
f 972 970 895
f 896 972 895
f 979 972 896
f 895 970 897
f 897 970 973
f 897 973 890
f 978 980 894
f 894 980 898
f 898 981 899
f 980 981 898
f 899 982 900
f 981 982 899
f 900 983 901
f 982 983 900
f 901 984 902
f 983 984 901
f 896 902 979
f 979 902 984
f 985 903 904
f 905 986 904
f 904 986 985
f 906 987 905
f 905 987 986
f 907 987 906
f 989 988 909
f 909 988 908
f 990 909 910
f 990 989 909
f 910 903 985
f 991 910 985
f 990 910 991
f 991 985 986
f 991 986 992
f 992 986 987
f 992 987 993
f 993 987 907
f 911 993 907
f 994 993 911
f 995 911 912
f 995 994 911
f 996 912 913
f 996 995 912
f 913 915 996
f 996 915 997
f 999 998 918
f 918 998 917
f 918 908 988
f 918 988 999
f 1002 1001 1000
f 1003 1000 1001
f 1004 997 915
f 1004 915 919
f 919 921 1004
f 1004 921 1005
f 1007 1006 923
f 923 1006 922
f 923 917 998
f 923 998 1007
f 1008 1002 1000
f 1008 1000 1003
f 925 1010 1009
f 1005 925 1009
f 921 925 1005
f 1010 1011 1009
f 1012 926 927
f 1013 1012 927
f 922 1013 927
f 1006 1013 922
f 928 1010 925
f 928 929 1010
f 929 1014 1010
f 1014 1011 1010
f 929 1015 1014
f 930 1015 929
f 1017 1016 1012
f 1016 926 1012
f 1016 932 926
f 1017 1012 1013
f 1018 1014 1015
f 1015 930 1018
f 930 1019 1018
f 930 934 1019
f 1020 935 936
f 1021 1020 936
f 932 1021 936
f 1016 1021 932
f 938 1019 934
f 938 1022 1019
f 1024 1023 1020
f 1023 935 1020
f 1023 939 935
f 1024 1020 1021
f 941 1022 938
f 941 1025 1022
f 1023 942 939
f 1026 942 1023
f 1027 1025 941
f 1027 941 943
f 943 944 1027
f 1027 944 1028
f 1026 945 942
f 1029 945 1026
f 946 1028 944
f 946 1030 1028
f 1029 947 945
f 1031 947 1029
f 948 1030 946
f 948 1032 1030
f 1034 949 1033
f 949 1031 1033
f 949 947 1031
f 1035 1034 1033
f 1038 1037 1036
f 1037 1032 1036
f 1032 950 1036
f 1032 948 950
f 1034 951 949
f 953 951 1034
f 1035 953 1034
f 1039 953 1035
f 1038 1036 955
f 956 1038 955
f 1040 1038 956
f 955 1036 950
f 1039 957 953
f 1041 957 1039
f 958 1040 956
f 958 1042 1040
f 1044 959 1043
f 959 1041 1043
f 959 957 1041
f 1045 1044 1043
f 1047 1046 960
f 1047 960 961
f 958 960 1042
f 1042 960 1046
f 1044 962 959
f 1049 1048 963
f 1049 963 962
f 1045 1049 962
f 1044 1045 962
f 1050 1048 1049
f 1052 1051 966
f 1052 966 967
f 961 966 1047
f 1047 966 1051
f 1048 968 963
f 1054 1053 969
f 1054 969 968
f 1050 1054 968
f 1048 1050 968
f 1055 1053 1054
f 972 1056 971
f 971 1056 1057
f 1058 971 1057
f 974 971 1058
f 974 1059 975
f 1058 1059 974
f 967 975 1052
f 1052 975 1059
f 1053 976 969
f 1055 1060 1053
f 1060 976 1053
f 1060 977 976
f 1062 1061 978
f 977 1062 978
f 1060 1062 977
f 1064 1063 1061
f 1064 1061 1062
f 1066 1065 1063
f 1066 1063 1064
f 1068 1067 1065
f 1068 1065 1066
f 1070 1069 1067
f 1070 1067 1068
f 1070 1071 1056
f 979 1070 1056
f 972 979 1056
f 1069 1070 979
f 1056 1071 1057
f 1061 980 978
f 980 1061 981
f 981 1061 1063
f 981 1063 982
f 982 1063 1065
f 982 1065 983
f 983 1065 1067
f 983 1067 984
f 984 1067 1069
f 984 1069 979
f 1072 988 989
f 990 1073 989
f 989 1073 1072
f 1073 990 1074
f 990 1075 1074
f 990 991 1075
f 1076 991 992
f 1076 1075 991
f 1077 992 993
f 1077 1076 992
f 1079 1077 1078
f 1077 994 1078
f 1077 993 994
f 995 1080 994
f 994 1080 1078
f 996 1081 995
f 995 1081 1080
f 997 1081 996
f 1082 998 999
f 1083 1082 999
f 1083 999 988
f 1084 1083 988
f 1072 1084 988
f 1084 1072 1073
f 1084 1073 1085
f 1085 1073 1074
f 1002 1086 1001
f 1086 1003 1001
f 1087 1079 1078
f 1089 1088 1087
f 1078 1089 1087
f 1080 1089 1078
f 1081 1091 1090
f 1089 1081 1090
f 1080 1081 1089
f 1093 1091 1092
f 1092 1091 1004
f 1091 1081 1004
f 1081 997 1004
f 1005 1092 1004
f 1094 1006 1007
f 1095 1094 1007
f 1095 1007 998
f 1096 1095 998
f 1082 1096 998
f 1096 1082 1083
f 1008 1086 1002
f 1086 1008 1003
f 1097 1088 1089
f 1097 1089 1090
f 1098 1093 1092
f 1100 1098 1099
f 1099 1098 1009
f 1098 1092 1009
f 1092 1005 1009
f 1011 1099 1009
f 1102 1101 1094
f 1101 1006 1094
f 1101 1013 1006
f 1102 1094 1095
f 1103 1100 1099
f 1099 1011 1103
f 1011 1104 1103
f 1011 1014 1104
f 1105 1016 1017
f 1106 1105 1017
f 1013 1106 1017
f 1101 1106 1013
f 1014 1018 1107
f 1108 1014 1107
f 1104 1014 1108
f 1019 1107 1018
f 1110 1109 1105
f 1109 1016 1105
f 1109 1021 1016
f 1110 1105 1106
f 1111 1108 1107
f 1107 1019 1111
f 1019 1112 1111
f 1019 1022 1112
f 1113 1023 1024
f 1114 1113 1024
f 1021 1114 1024
f 1109 1114 1021
f 1025 1112 1022
f 1025 1115 1112
f 1116 1026 1113
f 1113 1026 1023
f 1113 1114 1117
f 1113 1117 1116
f 1025 1027 1118
f 1119 1025 1118
f 1115 1025 1119
f 1028 1118 1027
f 1120 1029 1116
f 1116 1029 1026
f 1116 1117 1121
f 1116 1121 1120
f 1119 1118 1122
f 1119 1122 1123
f 1030 1122 1028
f 1028 1122 1118
f 1124 1031 1120
f 1120 1031 1029
f 1120 1121 1125
f 1120 1125 1124
f 1123 1122 1126
f 1123 1126 1127
f 1032 1126 1030
f 1030 1126 1122
f 1124 1033 1031
f 1035 1033 1124
f 1125 1035 1124
f 1128 1035 1125
f 1127 1126 1037
f 1038 1127 1037
f 1129 1127 1038
f 1037 1126 1032
f 1128 1039 1035
f 1130 1039 1128
f 1040 1129 1038
f 1040 1131 1129
f 1133 1041 1132
f 1041 1130 1132
f 1041 1039 1130
f 1134 1133 1132
f 1137 1136 1135
f 1136 1131 1135
f 1131 1042 1135
f 1131 1040 1042
f 1133 1043 1041
f 1045 1043 1133
f 1134 1045 1133
f 1138 1045 1134
f 1137 1135 1046
f 1047 1137 1046
f 1139 1137 1047
f 1046 1135 1042
f 1138 1140 1045
f 1045 1140 1049
f 1142 1141 1050
f 1049 1142 1050
f 1140 1142 1049
f 1143 1141 1142
f 1146 1145 1144
f 1051 1052 1144
f 1145 1051 1144
f 1147 1051 1145
f 1047 1051 1139
f 1139 1051 1147
f 1141 1054 1050
f 1149 1148 1055
f 1149 1055 1054
f 1143 1149 1054
f 1141 1143 1054
f 1150 1148 1149
f 1153 1152 1151
f 1058 1057 1151
f 1152 1058 1151
f 1154 1058 1152
f 1144 1059 1146
f 1059 1154 1146
f 1059 1058 1154
f 1059 1144 1052
f 1148 1060 1055
f 1150 1155 1148
f 1155 1060 1148
f 1155 1062 1060
f 1062 1156 1064
f 1155 1156 1062
f 1064 1157 1066
f 1156 1157 1064
f 1066 1158 1068
f 1157 1158 1066
f 1068 1159 1070
f 1158 1159 1068
f 1151 1071 1153
f 1071 1159 1153
f 1071 1070 1159
f 1071 1151 1057
f 1160 1074 1075
f 1076 1161 1075
f 1075 1161 1160
f 1077 1162 1076
f 1076 1162 1161
f 1079 1162 1077
f 1163 1083 1084
f 1163 1084 1164
f 1084 1165 1164
f 1084 1085 1165
f 1085 1074 1160
f 1166 1085 1160
f 1165 1085 1166
f 1166 1160 1161
f 1166 1161 1167
f 1167 1161 1162
f 1167 1162 1168
f 1168 1162 1079
f 1087 1168 1079
f 1169 1168 1087
f 1087 1088 1169
f 1169 1088 1170
f 1171 1090 1091
f 1093 1171 1091
f 1172 1095 1096
f 1173 1172 1096
f 1173 1096 1083
f 1174 1173 1083
f 1163 1174 1083
f 1174 1163 1164
f 1175 1170 1088
f 1175 1088 1097
f 1097 1090 1171
f 1176 1097 1171
f 1175 1097 1176
f 1178 1176 1177
f 1177 1176 1098
f 1176 1171 1098
f 1171 1093 1098
f 1100 1177 1098
f 1179 1101 1102
f 1180 1179 1102
f 1180 1102 1095
f 1181 1180 1095
f 1172 1181 1095
f 1181 1172 1173
f 1182 1178 1177
f 1184 1182 1183
f 1183 1182 1103
f 1182 1177 1103
f 1177 1100 1103
f 1104 1183 1103
f 1186 1185 1179
f 1185 1101 1179
f 1185 1106 1101
f 1186 1179 1180
f 1187 1184 1183
f 1183 1104 1187
f 1104 1188 1187
f 1104 1108 1188
f 1189 1109 1110
f 1190 1189 1110
f 1106 1190 1110
f 1185 1190 1106
f 1108 1111 1191
f 1192 1108 1191
f 1188 1108 1192
f 1112 1191 1111
f 1193 1114 1189
f 1189 1114 1109
f 1189 1190 1194
f 1189 1194 1193
f 1192 1191 1195
f 1192 1195 1196
f 1115 1195 1112
f 1112 1195 1191
f 1197 1117 1193
f 1193 1117 1114
f 1193 1194 1198
f 1193 1198 1197
f 1199 1196 1195
f 1195 1115 1199
f 1115 1200 1199
f 1115 1119 1200
f 1201 1121 1197
f 1197 1121 1117
f 1197 1198 1202
f 1197 1202 1201
f 1205 1204 1203
f 1204 1200 1203
f 1200 1123 1203
f 1200 1119 1123
f 1206 1125 1201
f 1201 1125 1121
f 1201 1202 1207
f 1201 1207 1206
f 1205 1203 1208
f 1205 1208 1209
f 1127 1208 1123
f 1123 1208 1203
f 1210 1128 1206
f 1206 1128 1125
f 1206 1207 1211
f 1206 1211 1210
f 1212 1209 1208
f 1208 1127 1212
f 1127 1213 1212
f 1127 1129 1213
f 1214 1130 1210
f 1210 1130 1128
f 1210 1211 1215
f 1210 1215 1214
f 1218 1217 1216
f 1217 1213 1216
f 1213 1131 1216
f 1213 1129 1131
f 1214 1132 1130
f 1134 1132 1214
f 1215 1134 1214
f 1219 1134 1215
f 1222 1221 1220
f 1220 1221 1218
f 1220 1218 1216
f 1137 1220 1216
f 1136 1137 1216
f 1136 1216 1131
f 1224 1138 1223
f 1138 1219 1223
f 1138 1134 1219
f 1225 1224 1223
f 1228 1227 1226
f 1226 1227 1222
f 1220 1226 1222
f 1229 1226 1220
f 1139 1229 1137
f 1137 1229 1220
f 1224 1140 1138
f 1225 1230 1224
f 1230 1140 1224
f 1230 1142 1140
f 1232 1231 1143
f 1142 1232 1143
f 1230 1232 1142
f 1233 1231 1232
f 1236 1235 1234
f 1238 1237 1234
f 1238 1234 1235
f 1240 1239 1237
f 1240 1237 1238
f 1239 1240 1228
f 1239 1228 1226
f 1146 1239 1226
f 1145 1146 1226
f 1145 1226 1147
f 1147 1226 1229
f 1147 1229 1139
f 1231 1149 1143
f 1242 1241 1150
f 1242 1150 1149
f 1233 1242 1149
f 1231 1233 1149
f 1244 1243 1241
f 1244 1241 1242
f 1246 1245 1243
f 1246 1243 1244
f 1248 1247 1245
f 1248 1245 1246
f 1247 1248 1236
f 1234 1247 1236
f 1249 1247 1234
f 1153 1249 1152
f 1249 1237 1152
f 1249 1234 1237
f 1152 1237 1154
f 1154 1237 1239
f 1154 1239 1146
f 1241 1155 1150
f 1155 1241 1156
f 1156 1241 1243
f 1156 1243 1157
f 1157 1243 1245
f 1157 1245 1158
f 1158 1245 1247
f 1158 1247 1159
f 1159 1247 1249
f 1159 1249 1153
f 1250 1164 1165
f 1166 1251 1165
f 1165 1251 1250
f 1167 1252 1166
f 1166 1252 1251
f 1168 1253 1167
f 1167 1253 1252
f 1169 1254 1168
f 1168 1254 1253
f 1170 1254 1169
f 1255 1173 1174
f 1256 1255 1174
f 1256 1174 1164
f 1257 1256 1164
f 1250 1257 1164
f 1257 1250 1251
f 1257 1251 1258
f 1258 1251 1252
f 1258 1252 1259
f 1259 1252 1253
f 1259 1253 1260
f 1260 1253 1254
f 1260 1254 1261
f 1263 1261 1262
f 1262 1261 1175
f 1261 1254 1175
f 1254 1170 1175
f 1176 1264 1175
f 1175 1264 1262
f 1178 1264 1176
f 1265 1180 1181
f 1266 1265 1181
f 1266 1181 1173
f 1267 1266 1173
f 1255 1267 1173
f 1267 1255 1256
f 1268 1263 1262
f 1270 1269 1268
f 1262 1270 1268
f 1264 1270 1262
f 1182 1271 1178
f 1271 1264 1178
f 1271 1270 1264
f 1184 1271 1182
f 1272 1185 1186
f 1273 1272 1186
f 1273 1186 1180
f 1274 1273 1180
f 1265 1274 1180
f 1274 1265 1266
f 1275 1269 1270
f 1277 1276 1275
f 1270 1277 1275
f 1271 1277 1270
f 1187 1278 1184
f 1278 1271 1184
f 1278 1277 1271
f 1188 1278 1187
f 1279 1190 1272
f 1272 1190 1185
f 1272 1273 1280
f 1272 1280 1279
f 1281 1276 1277
f 1283 1282 1281
f 1277 1283 1281
f 1278 1283 1277
f 1192 1283 1188
f 1188 1283 1278
f 1285 1284 1279
f 1284 1190 1279
f 1284 1194 1190
f 1285 1279 1280
f 1286 1282 1283
f 1283 1192 1286
f 1192 1287 1286
f 1192 1196 1287
f 1284 1198 1194
f 1288 1198 1284
f 1196 1199 1289
f 1290 1196 1289
f 1287 1196 1290
f 1200 1289 1199
f 1288 1202 1198
f 1291 1202 1288
f 1294 1293 1292
f 1292 1293 1290
f 1292 1290 1289
f 1205 1292 1289
f 1204 1205 1289
f 1204 1289 1200
f 1291 1207 1202
f 1295 1207 1291
f 1296 1294 1292
f 1292 1205 1296
f 1205 1297 1296
f 1205 1209 1297
f 1295 1211 1207
f 1298 1211 1295
f 1209 1212 1299
f 1300 1209 1299
f 1297 1209 1300
f 1213 1299 1212
f 1302 1215 1301
f 1215 1298 1301
f 1215 1211 1298
f 1303 1302 1301
f 1306 1305 1304
f 1304 1305 1300
f 1304 1300 1299
f 1218 1304 1299
f 1217 1218 1299
f 1217 1299 1213
f 1307 1219 1302
f 1302 1219 1215
f 1302 1303 1308
f 1309 1302 1308
f 1307 1302 1309
f 1310 1309 1308
f 1313 1312 1311
f 1311 1312 1306
f 1311 1306 1304
f 1222 1311 1304
f 1221 1222 1304
f 1221 1304 1218
f 1307 1223 1219
f 1223 1307 1225
f 1307 1314 1225
f 1307 1309 1314
f 1309 1310 1315
f 1316 1309 1315
f 1314 1309 1316
f 1318 1317 1316
f 1318 1316 1315
f 1319 1317 1318
f 1322 1321 1320
f 1323 1320 1321
f 1227 1228 1324
f 1311 1325 1313
f 1325 1311 1326
f 1311 1222 1326
f 1227 1324 1326
f 1227 1326 1222
f 1314 1230 1225
f 1230 1314 1232
f 1232 1314 1316
f 1232 1316 1233
f 1316 1327 1233
f 1316 1317 1327
f 1317 1319 1328
f 1329 1317 1328
f 1327 1317 1329
f 1329 1328 1322
f 1320 1329 1322
f 1330 1329 1320
f 1320 1323 1331
f 1332 1320 1331
f 1330 1320 1332
f 1235 1236 1332
f 1331 1235 1332
f 1333 1235 1331
f 1235 1334 1238
f 1333 1334 1235
f 1238 1335 1240
f 1334 1335 1238
f 1228 1240 1324
f 1240 1336 1324
f 1240 1335 1336
f 1324 1336 1326
f 1327 1242 1233
f 1242 1327 1244
f 1244 1327 1329
f 1244 1329 1246
f 1246 1329 1330
f 1246 1330 1248
f 1248 1330 1332
f 1248 1332 1236
f 1337 1256 1257
f 1258 1338 1257
f 1257 1338 1337
f 1259 1339 1258
f 1258 1339 1338
f 1260 1340 1259
f 1259 1340 1339
f 1261 1341 1260
f 1260 1341 1340
f 1263 1341 1261
f 1342 1266 1267
f 1256 1337 1267
f 1337 1342 1267
f 1337 1343 1342
f 1338 1345 1344
f 1343 1338 1344
f 1337 1338 1343
f 1345 1338 1339
f 1345 1339 1346
f 1346 1339 1340
f 1346 1340 1347
f 1349 1348 1347
f 1340 1349 1347
f 1341 1349 1340
f 1268 1350 1263
f 1350 1341 1263
f 1350 1349 1341
f 1269 1350 1268
f 1351 1273 1274
f 1266 1342 1274
f 1342 1351 1274
f 1342 1352 1351
f 1343 1354 1353
f 1352 1343 1353
f 1342 1343 1352
f 1354 1343 1344
f 1355 1348 1349
f 1357 1356 1355
f 1349 1357 1355
f 1350 1357 1349
f 1275 1358 1269
f 1358 1350 1269
f 1358 1357 1350
f 1276 1358 1275
f 1359 1280 1351
f 1351 1280 1273
f 1352 1361 1360
f 1359 1352 1360
f 1351 1352 1359
f 1361 1352 1353
f 1362 1356 1357
f 1362 1357 1358
f 1362 1358 1363
f 1365 1363 1364
f 1364 1363 1281
f 1363 1358 1281
f 1358 1276 1281
f 1282 1364 1281
f 1366 1284 1285
f 1367 1366 1285
f 1367 1285 1280
f 1368 1367 1280
f 1359 1368 1280
f 1368 1359 1360
f 1365 1364 1369
f 1365 1369 1370
f 1286 1371 1282
f 1371 1364 1282
f 1371 1369 1364
f 1287 1371 1286
f 1372 1288 1366
f 1366 1288 1284
f 1366 1367 1373
f 1366 1373 1372
f 1370 1369 1374
f 1370 1374 1375
f 1376 1369 1371
f 1374 1369 1376
f 1290 1376 1287
f 1287 1376 1371
f 1377 1291 1372
f 1372 1291 1288
f 1372 1373 1378
f 1372 1378 1377
f 1375 1374 1379
f 1375 1379 1380
f 1294 1379 1293
f 1379 1376 1293
f 1379 1374 1376
f 1293 1376 1290
f 1381 1295 1377
f 1377 1295 1291
f 1377 1378 1382
f 1377 1382 1381
f 1380 1379 1383
f 1380 1383 1384
f 1296 1385 1294
f 1385 1379 1294
f 1385 1383 1379
f 1297 1385 1296
f 1386 1298 1381
f 1381 1298 1295
f 1381 1382 1387
f 1381 1387 1386
f 1384 1383 1388
f 1384 1388 1389
f 1390 1383 1385
f 1388 1383 1390
f 1300 1390 1297
f 1297 1390 1385
f 1386 1301 1298
f 1392 1391 1303
f 1392 1303 1301
f 1387 1392 1301
f 1386 1387 1301
f 1394 1393 1391
f 1394 1391 1392
f 1395 1393 1394
f 1398 1397 1396
f 1396 1397 1389
f 1388 1396 1389
f 1399 1396 1388
f 1306 1399 1305
f 1399 1390 1305
f 1399 1388 1390
f 1305 1390 1300
f 1391 1308 1303
f 1308 1391 1310
f 1391 1400 1310
f 1391 1393 1400
f 1393 1395 1401
f 1402 1393 1401
f 1400 1393 1402
f 1403 1402 1401
f 1398 1396 1404
f 1398 1404 1405
f 1313 1404 1312
f 1404 1399 1312
f 1404 1396 1399
f 1312 1399 1306
f 1400 1315 1310
f 1315 1400 1318
f 1318 1400 1402
f 1407 1406 1319
f 1407 1319 1318
f 1403 1407 1318
f 1402 1403 1318
f 1321 1322 1406
f 1407 1321 1406
f 1408 1321 1407
f 1410 1409 1323
f 1321 1410 1323
f 1408 1410 1321
f 1412 1411 1409
f 1412 1409 1410
f 1414 1413 1411
f 1414 1411 1412
f 1413 1414 1405
f 1404 1413 1405
f 1415 1413 1404
f 1325 1416 1313
f 1416 1404 1313
f 1416 1415 1404
f 1326 1416 1325
f 1406 1328 1319
f 1328 1406 1322
f 1409 1331 1323
f 1331 1409 1333
f 1333 1409 1411
f 1333 1411 1334
f 1334 1411 1413
f 1334 1413 1335
f 1335 1413 1415
f 1335 1415 1336
f 1336 1415 1416
f 1336 1416 1326
f 1417 1344 1345
f 1346 1418 1345
f 1345 1418 1417
f 1347 1419 1346
f 1346 1419 1418
f 1348 1419 1347
f 1420 1353 1354
f 1344 1417 1354
f 1417 1420 1354
f 1417 1421 1420
f 1422 1417 1418
f 1421 1417 1422
f 1423 1418 1419
f 1422 1418 1423
f 1355 1424 1348
f 1424 1419 1348
f 1424 1423 1419
f 1356 1424 1355
f 1425 1360 1361
f 1353 1420 1361
f 1420 1425 1361
f 1420 1426 1425
f 1421 1428 1427
f 1426 1421 1427
f 1420 1421 1426
f 1428 1421 1422
f 1428 1422 1429
f 1429 1422 1423
f 1429 1423 1430
f 1432 1431 1430
f 1423 1432 1430
f 1424 1432 1423
f 1362 1433 1356
f 1433 1424 1356
f 1433 1432 1424
f 1363 1434 1362
f 1362 1434 1433
f 1365 1434 1363
f 1435 1367 1368
f 1360 1425 1368
f 1425 1435 1368
f 1425 1436 1435
f 1437 1425 1426
f 1436 1425 1437
f 1426 1427 1438
f 1426 1438 1437
f 1439 1431 1432
f 1441 1440 1439
f 1432 1441 1439
f 1433 1441 1432
f 1442 1433 1434
f 1441 1433 1442
f 1370 1442 1365
f 1365 1442 1434
f 1443 1373 1435
f 1435 1373 1367
f 1444 1435 1436
f 1443 1435 1444
f 1437 1446 1445
f 1444 1437 1445
f 1436 1437 1444
f 1446 1437 1438
f 1440 1441 1447
f 1440 1447 1448
f 1449 1441 1442
f 1447 1441 1449
f 1375 1449 1370
f 1370 1449 1442
f 1450 1378 1443
f 1443 1378 1373
f 1451 1443 1444
f 1450 1443 1451
f 1444 1445 1452
f 1453 1444 1452
f 1451 1444 1453
f 1454 1453 1452
f 1448 1447 1455
f 1448 1455 1456
f 1457 1447 1449
f 1455 1447 1457
f 1380 1457 1375
f 1375 1457 1449
f 1458 1382 1450
f 1450 1382 1378
f 1459 1450 1451
f 1458 1450 1459
f 1453 1461 1460
f 1459 1453 1460
f 1451 1453 1459
f 1461 1453 1454
f 1456 1455 1462
f 1456 1462 1463
f 1464 1455 1457
f 1462 1455 1464
f 1384 1464 1380
f 1380 1464 1457
f 1465 1387 1458
f 1458 1387 1382
f 1466 1458 1459
f 1465 1458 1466
f 1459 1460 1467
f 1468 1459 1467
f 1466 1459 1468
f 1469 1468 1467
f 1463 1462 1470
f 1463 1470 1471
f 1472 1462 1464
f 1470 1462 1472
f 1389 1472 1384
f 1384 1472 1464
f 1465 1392 1387
f 1392 1465 1394
f 1394 1465 1466
f 1394 1466 1395
f 1466 1473 1395
f 1466 1468 1473
f 1468 1469 1474
f 1475 1468 1474
f 1473 1468 1475
f 1477 1476 1475
f 1477 1475 1474
f 1479 1478 1476
f 1479 1476 1477
f 1481 1480 1478
f 1481 1478 1479
f 1480 1481 1471
f 1470 1480 1471
f 1482 1480 1470
f 1398 1482 1397
f 1482 1472 1397
f 1482 1470 1472
f 1397 1472 1389
f 1473 1401 1395
f 1401 1473 1403
f 1473 1483 1403
f 1473 1475 1483
f 1484 1475 1476
f 1483 1475 1484
f 1485 1476 1478
f 1484 1476 1485
f 1486 1478 1480
f 1485 1478 1486
f 1487 1480 1482
f 1486 1480 1487
f 1405 1487 1398
f 1398 1487 1482
f 1483 1407 1403
f 1407 1483 1408
f 1408 1483 1484
f 1408 1484 1410
f 1410 1484 1485
f 1410 1485 1412
f 1412 1485 1486
f 1412 1486 1414
f 1414 1486 1487
f 1414 1487 1405
f 1488 1427 1428
f 1429 1489 1428
f 1428 1489 1488
f 1430 1490 1429
f 1429 1490 1489
f 1431 1490 1430
f 1491 1438 1488
f 1488 1438 1427
f 1492 1488 1489
f 1491 1488 1492
f 1493 1489 1490
f 1492 1489 1493
f 1439 1494 1431
f 1494 1490 1431
f 1494 1493 1490
f 1440 1494 1439
f 1495 1445 1446
f 1438 1491 1446
f 1491 1495 1446
f 1491 1496 1495
f 1497 1491 1492
f 1496 1491 1497
f 1498 1492 1493
f 1497 1492 1498
f 1499 1493 1494
f 1498 1493 1499
f 1448 1499 1440
f 1440 1499 1494
f 1495 1452 1445
f 1452 1495 1454
f 1495 1500 1454
f 1495 1496 1500
f 1501 1496 1497
f 1500 1496 1501
f 1502 1497 1498
f 1501 1497 1502
f 1503 1498 1499
f 1502 1498 1503
f 1456 1503 1448
f 1448 1503 1499
f 1504 1460 1461
f 1454 1500 1461
f 1500 1504 1461
f 1500 1505 1504
f 1506 1500 1501
f 1505 1500 1506
f 1507 1501 1502
f 1506 1501 1507
f 1508 1502 1503
f 1507 1502 1508
f 1463 1508 1456
f 1456 1508 1503
f 1504 1467 1460
f 1467 1504 1469
f 1504 1509 1469
f 1504 1505 1509
f 1510 1505 1506
f 1509 1505 1510
f 1511 1506 1507
f 1510 1506 1511
f 1512 1507 1508
f 1511 1507 1512
f 1471 1512 1463
f 1463 1512 1508
f 1509 1474 1469
f 1474 1509 1477
f 1477 1509 1510
f 1477 1510 1479
f 1479 1510 1511
f 1479 1511 1481
f 1481 1511 1512
f 1481 1512 1471
