ply
format ascii 1.0
element vertex 1512
property float x
property float y
property float z
element face 2992
property list uchar int vertex_indices
end_header
-1.07813982 -0.29814990 -0.29941727
-1.01825636 -0.29814990 -0.35930073
-1.01825636 -0.35803335 -0.29941727
-1.01825636 -0.35803335 -0.17965036
-1.07813982 -0.29814990 -0.17965036
-1.01825636 -0.35803335 -0.05988345
-1.07813982 -0.29814990 -0.05988345
-1.01825636 -0.35803335 0.05988345
-1.07813982 -0.29814990 0.05988345
-1.01825636 -0.35803335 0.17965036
-1.07813982 -0.29814990 0.17965036
-1.01825636 -0.29814990 0.23953382
-1.07813982 -0.17838299 -0.29941727
-1.01825636 -0.17838299 -0.35930073
-1.07813982 -0.17838299 -0.17965036
-1.07813982 -0.17838299 -0.05988345
-1.07813982 -0.17838299 0.05988345
-1.07813982 -0.17838299 0.17965036
-1.01825636 -0.17838299 0.23953382
-1.07813982 -0.05861608 -0.29941727
-1.01825636 -0.05861608 -0.35930073
-1.07813982 -0.05861608 -0.17965036
-1.07813982 -0.05861608 -0.05988345
-1.07813982 -0.05861608 0.05988345
-1.07813982 -0.05861608 0.17965036
-1.01825636 -0.05861608 0.23953382
-1.07813982 0.06115083 -0.29941727
-1.01825636 0.06115083 -0.35930073
-1.07813982 0.06115083 -0.17965036
-1.07813982 0.06115083 -0.05988345
-1.07813982 0.06115083 0.05988345
-1.07813982 0.06115083 0.17965036
-1.01825636 0.06115083 0.23953382
-1.07813982 0.18091774 -0.29941727
-1.01825636 0.18091774 -0.35930073
-1.07813982 0.18091774 -0.17965036
-1.07813982 0.18091774 -0.05988345
-1.07813982 0.18091774 0.05988345
-1.07813982 0.18091774 0.17965036
-1.01825636 0.18091774 0.23953382
-1.07813982 0.30068465 -0.29941727
-1.01825636 0.30068465 -0.35930073
-1.07813982 0.30068465 -0.17965036
-1.07813982 0.30068465 -0.05988345
-1.07813982 0.30068465 0.05988345
-1.07813982 0.30068465 0.17965036
-1.01825636 0.30068465 0.23953382
-1.01825636 0.36056810 -0.29941727
-1.01825636 0.36056810 -0.17965036
-1.01825636 0.36056810 -0.05988345
-1.01825636 0.36056810 0.05988345
-1.01825636 0.36056810 0.17965036
-0.95837291 -0.53768372 -0.29941727
-0.89848945 -0.53768372 -0.35930073
-0.89848945 -0.59756717 -0.29941727
-0.89848945 -0.59756717 -0.17965036
-0.95837291 -0.53768372 -0.17965036
-0.89848945 -0.59756717 -0.05988345
-0.95837291 -0.53768372 -0.05988345
-0.89848945 -0.59756717 0.05988345
-0.95837291 -0.53768372 0.05988345
-0.89848945 -0.59756717 0.17965036
-0.95837291 -0.53768372 0.17965036
-0.89848945 -0.59756717 0.29941727
-0.95837291 -0.53768372 0.29941727
-0.89848945 -0.53768372 0.35930073
-0.95837291 -0.41791681 -0.41918418
-0.89848945 -0.41791681 -0.47906764
-0.89848945 -0.47780026 -0.41918418
-0.95837291 -0.41791681 -0.29941727
-0.95837291 -0.41791681 -0.17965036
-0.95837291 -0.41791681 -0.05988345
-0.95837291 -0.41791681 0.05988345
-0.95837291 -0.41791681 0.17965036
-0.95837291 -0.41791681 0.29941727
-0.89848945 -0.47780026 0.41918418
-0.95837291 -0.41791681 0.41918418
-0.89848945 -0.41791681 0.47906764
-0.95837291 -0.29814990 -0.41918418
-0.89848945 -0.29814990 -0.47906764
-0.95837291 -0.29814990 0.29941727
-0.95837291 -0.29814990 0.41918418
-0.89848945 -0.29814990 0.47906764
-0.95837291 -0.17838299 -0.53895109
-0.89848945 -0.17838299 -0.59883455
-0.89848945 -0.23826644 -0.53895109
-0.95837291 -0.17838299 -0.41918418
-0.95837291 -0.17838299 0.29941727
-0.95837291 -0.17838299 0.41918418
-0.89848945 -0.23826644 0.53895109
-0.95837291 -0.17838299 0.53895109
-0.89848945 -0.17838299 0.59883455
-0.95837291 -0.05861608 -0.53895109
-0.89848945 -0.05861608 -0.59883455
-0.95837291 -0.05861608 -0.41918418
-0.95837291 -0.05861608 0.29941727
-0.95837291 -0.05861608 0.41918418
-0.95837291 -0.05861608 0.53895109
-0.89848945 -0.05861608 0.59883455
-0.95837291 0.06115083 -0.53895109
-0.89848945 0.06115083 -0.59883455
-0.95837291 0.06115083 -0.41918418
-0.95837291 0.06115083 0.29941727
-0.95837291 0.06115083 0.41918418
-0.95837291 0.06115083 0.53895109
-0.89848945 0.06115083 0.59883455
-0.95837291 0.18091774 -0.53895109
-0.89848945 0.18091774 -0.59883455
-0.95837291 0.18091774 -0.41918418
-0.95837291 0.18091774 0.29941727
-0.95837291 0.18091774 0.41918418
-0.95837291 0.18091774 0.53895109
-0.89848945 0.18091774 0.59883455
-0.89848945 0.24080119 -0.53895109
-0.95837291 0.30068465 -0.41918418
-0.89848945 0.30068465 -0.47906764
-0.95837291 0.30068465 0.29941727
-0.95837291 0.30068465 0.41918418
-0.89848945 0.30068465 0.47906764
-0.89848945 0.24080119 0.53895109
-0.95837291 0.42045156 -0.41918418
-0.89848945 0.42045156 -0.47906764
-0.95837291 0.42045156 -0.29941727
-0.95837291 0.42045156 -0.17965036
-0.95837291 0.42045156 -0.05988345
-0.95837291 0.42045156 0.05988345
-0.95837291 0.42045156 0.17965036
-0.95837291 0.42045156 0.29941727
-0.95837291 0.42045156 0.41918418
-0.89848945 0.42045156 0.47906764
-0.89848945 0.48033501 -0.41918418
-0.95837291 0.54021847 -0.29941727
-0.89848945 0.54021847 -0.35930073
-0.95837291 0.54021847 -0.17965036
-0.95837291 0.54021847 -0.05988345
-0.95837291 0.54021847 0.05988345
-0.95837291 0.54021847 0.17965036
-0.95837291 0.54021847 0.29941727
-0.89848945 0.54021847 0.35930073
-0.89848945 0.48033501 0.41918418
-0.89848945 0.60010192 -0.29941727
-0.89848945 0.60010192 -0.17965036
-0.89848945 0.60010192 -0.05988345
-0.89848945 0.60010192 0.05988345
-0.89848945 0.60010192 0.17965036
-0.89848945 0.60010192 0.29941727
-0.83860600 -0.65745063 -0.41918418
-0.77872254 -0.65745063 -0.47906764
-0.77872254 -0.71733408 -0.41918418
-0.77872254 -0.71733408 -0.29941727
-0.83860600 -0.65745063 -0.29941727
-0.77872254 -0.71733408 -0.17965036
-0.83860600 -0.65745063 -0.17965036
-0.77872254 -0.71733408 -0.05988345
-0.83860600 -0.65745063 -0.05988345
-0.77872254 -0.71733408 0.05988345
-0.83860600 -0.65745063 0.05988345
-0.77872254 -0.71733408 0.17965036
-0.83860600 -0.65745063 0.17965036
-0.77872254 -0.71733408 0.29941727
-0.83860600 -0.65745063 0.29941727
-0.77872254 -0.65745063 0.35930073
-0.83860600 -0.53768372 -0.41918418
-0.77872254 -0.53768372 -0.47906764
-0.77872254 -0.59756717 0.41918418
-0.83860600 -0.53768372 0.41918418
-0.77872254 -0.53768372 0.47906764
-0.83860600 -0.41791681 -0.53895109
-0.77872254 -0.41791681 -0.59883455
-0.77872254 -0.47780026 -0.53895109
-0.77872254 -0.47780026 0.53895109
-0.83860600 -0.41791681 0.53895109
-0.77872254 -0.41791681 0.59883455
-0.83860600 -0.29814990 -0.65871800
-0.77872254 -0.29814990 -0.71860146
-0.77872254 -0.35803335 -0.65871800
-0.83860600 -0.29814990 -0.53895109
-0.83860600 -0.29814990 0.53895109
-0.77872254 -0.29814990 0.59883455
-0.83860600 -0.17838299 -0.65871800
-0.77872254 -0.17838299 -0.71860146
-0.77872254 -0.23826644 0.65871800
-0.83860600 -0.17838299 0.65871800
-0.77872254 -0.17838299 0.71860146
-0.83860600 -0.05861608 -0.65871800
-0.77872254 -0.05861608 -0.71860146
-0.83860600 -0.05861608 0.65871800
-0.77872254 -0.05861608 0.71860146
-0.83860600 0.06115083 -0.65871800
-0.77872254 0.06115083 -0.71860146
-0.83860600 0.06115083 0.65871800
-0.77872254 0.06115083 0.71860146
-0.83860600 0.18091774 -0.65871800
-0.77872254 0.18091774 -0.71860146
-0.83860600 0.18091774 0.65871800
-0.77872254 0.18091774 0.71860146
-0.77872254 0.24080119 -0.65871800
-0.83860600 0.30068465 -0.53895109
-0.77872254 0.30068465 -0.59883455
-0.83860600 0.30068465 0.05988345
-0.77872254 0.24080119 0.05988345
-0.77872254 0.30068465 0.00000000
-0.77872254 0.30068465 0.11976691
-0.83860600 0.30068465 0.53895109
-0.77872254 0.30068465 0.59883455
-0.77872254 0.24080119 0.65871800
-0.83860600 0.42045156 -0.53895109
-0.77872254 0.42045156 -0.59883455
-0.77872254 0.36056810 0.05988345
-0.83860600 0.42045156 0.53895109
-0.77872254 0.42045156 0.59883455
-0.77872254 0.48033501 -0.53895109
-0.83860600 0.54021847 -0.41918418
-0.77872254 0.54021847 -0.47906764
-0.83860600 0.54021847 0.41918418
-0.77872254 0.54021847 0.47906764
-0.77872254 0.48033501 0.53895109
-0.83860600 0.65998538 -0.41918418
-0.77872254 0.65998538 -0.47906764
-0.83860600 0.65998538 -0.29941727
-0.83860600 0.65998538 -0.17965036
-0.83860600 0.65998538 -0.05988345
-0.83860600 0.65998538 0.05988345
-0.83860600 0.65998538 0.17965036
-0.83860600 0.65998538 0.29941727
-0.77872254 0.65998538 0.35930073
-0.77872254 0.60010192 0.41918418
-0.77872254 0.71986883 -0.41918418
-0.77872254 0.71986883 -0.29941727
-0.77872254 0.71986883 -0.17965036
-0.77872254 0.71986883 -0.05988345
-0.77872254 0.71986883 0.05988345
-0.77872254 0.71986883 0.17965036
-0.77872254 0.71986883 0.29941727
-0.71883909 -0.77721754 -0.41918418
-0.65895563 -0.77721754 -0.47906764
-0.65895563 -0.83710099 -0.41918418
-0.65895563 -0.83710099 -0.29941727
-0.71883909 -0.77721754 -0.29941727
-0.65895563 -0.83710099 -0.17965036
-0.71883909 -0.77721754 -0.17965036
-0.65895563 -0.83710099 -0.05988345
-0.71883909 -0.77721754 -0.05988345
-0.65895563 -0.83710099 0.05988345
-0.71883909 -0.77721754 0.05988345
-0.65895563 -0.83710099 0.17965036
-0.71883909 -0.77721754 0.17965036
-0.65895563 -0.83710099 0.29941727
-0.71883909 -0.77721754 0.29941727
-0.65895563 -0.77721754 0.35930073
-0.65895563 -0.65745063 -0.47906764
-0.65895563 -0.71733408 0.41918418
-0.71883909 -0.65745063 0.41918418
-0.65895563 -0.65745063 0.47906764
-0.71883909 -0.53768372 -0.53895109
-0.65895563 -0.53768372 -0.59883455
-0.65895563 -0.59756717 -0.53895109
-0.65895563 -0.59756717 0.53895109
-0.71883909 -0.53768372 0.53895109
-0.65895563 -0.53768372 0.59883455
-0.71883909 -0.41791681 -0.65871800
-0.65895563 -0.41791681 -0.71860146
-0.65895563 -0.47780026 -0.65871800
-0.65895563 -0.47780026 0.65871800
-0.71883909 -0.41791681 0.65871800
-0.65895563 -0.41791681 0.71860146
-0.65895563 -0.29814990 -0.71860146
-0.71883909 -0.29814990 0.65871800
-0.65895563 -0.29814990 0.71860146
-0.65895563 -0.17838299 -0.71860146
-0.65895563 -0.17838299 0.71860146
-0.65895563 -0.05861608 -0.71860146
-0.65895563 -0.05861608 0.71860146
-0.65895563 0.06115083 -0.71860146
-0.65895563 0.06115083 0.71860146
-0.65895563 0.18091774 -0.71860146
-0.71883909 0.18091774 0.41918418
-0.65895563 0.12103428 0.41918418
-0.65895563 0.18091774 0.35930073
-0.65895563 0.18091774 0.47906764
-0.65895563 0.18091774 0.71860146
-0.71883909 0.30068465 -0.65871800
-0.65895563 0.30068465 -0.71860146
-0.71883909 0.30068465 0.05988345
-0.65895563 0.24080119 0.41918418
-0.71883909 0.30068465 0.65871800
-0.65895563 0.30068465 0.71860146
-0.71883909 0.42045156 -0.65871800
-0.65895563 0.42045156 -0.71860146
-0.71883909 0.42045156 0.65871800
-0.65895563 0.42045156 0.71860146
-0.65895563 0.48033501 -0.65871800
-0.71883909 0.54021847 -0.53895109
-0.65895563 0.54021847 -0.59883455
-0.71883909 0.54021847 0.53895109
-0.65895563 0.54021847 0.59883455
-0.65895563 0.48033501 0.65871800
-0.65895563 0.60010192 -0.53895109
-0.65895563 0.65998538 -0.47906764
-0.71883909 0.65998538 0.41918418
-0.65895563 0.65998538 0.47906764
-0.65895563 0.60010192 0.53895109
-0.65895563 0.71986883 -0.41918418
-0.71883909 0.77975229 -0.29941727
-0.65895563 0.77975229 -0.35930073
-0.71883909 0.77975229 -0.17965036
-0.71883909 0.77975229 -0.05988345
-0.71883909 0.77975229 0.05988345
-0.71883909 0.77975229 0.17965036
-0.71883909 0.77975229 0.29941727
-0.65895563 0.77975229 0.35930073
-0.65895563 0.71986883 0.41918418
-0.65895563 0.83963574 -0.29941727
-0.65895563 0.83963574 -0.17965036
-0.65895563 0.83963574 -0.05988345
-0.65895563 0.83963574 0.05988345
-0.65895563 0.83963574 0.17965036
-0.65895563 0.83963574 0.29941727
-0.59907218 -0.89698445 -0.29941727
-0.53918872 -0.89698445 -0.35930073
-0.53918872 -0.95686790 -0.29941727
-0.53918872 -0.95686790 -0.17965036
-0.59907218 -0.89698445 -0.17965036
-0.53918872 -0.95686790 -0.05988345
-0.59907218 -0.89698445 -0.05988345
-0.53918872 -0.95686790 0.05988345
-0.59907218 -0.89698445 0.05988345
-0.53918872 -0.95686790 0.17965036
-0.59907218 -0.89698445 0.17965036
-0.53918872 -0.95686790 0.29941727
-0.59907218 -0.89698445 0.29941727
-0.53918872 -0.89698445 0.35930073
-0.53918872 -0.77721754 -0.47906764
-0.53918872 -0.83710099 -0.41918418
-0.53918872 -0.83710099 0.41918418
-0.59907218 -0.77721754 0.41918418
-0.53918872 -0.77721754 0.47906764
-0.59907218 -0.65745063 -0.53895109
-0.53918872 -0.65745063 -0.59883455
-0.53918872 -0.71733408 -0.53895109
-0.53918872 -0.71733408 0.53895109
-0.59907218 -0.65745063 0.53895109
-0.53918872 -0.65745063 0.59883455
-0.59907218 -0.53768372 -0.65871800
-0.53918872 -0.53768372 -0.71860146
-0.53918872 -0.59756717 -0.65871800
-0.53918872 -0.59756717 0.65871800
-0.59907218 -0.53768372 0.65871800
-0.53918872 -0.53768372 0.71860146
-0.53918872 -0.41791681 -0.71860146
-0.53918872 -0.41791681 0.71860146
-0.59907218 -0.29814990 -0.77848491
-0.53918872 -0.29814990 -0.83836837
-0.53918872 -0.35803335 -0.77848491
-0.53918872 -0.35803335 0.77848491
-0.59907218 -0.29814990 0.77848491
-0.53918872 -0.29814990 0.83836837
-0.59907218 -0.17838299 -0.77848491
-0.53918872 -0.17838299 -0.83836837
-0.59907218 -0.17838299 0.77848491
-0.53918872 -0.17838299 0.83836837
-0.59907218 -0.05861608 -0.77848491
-0.53918872 -0.05861608 -0.83836837
-0.59907218 -0.05861608 0.77848491
-0.53918872 -0.05861608 0.83836837
-0.59907218 0.06115083 -0.77848491
-0.53918872 0.06115083 -0.83836837
-0.59907218 0.06115083 0.77848491
-0.53918872 0.06115083 0.83836837
-0.59907218 0.18091774 -0.77848491
-0.53918872 0.18091774 -0.83836837
-0.59907218 0.18091774 0.41918418
-0.59907218 0.18091774 0.77848491
-0.53918872 0.18091774 0.83836837
-0.59907218 0.30068465 -0.77848491
-0.53918872 0.30068465 -0.83836837
-0.59907218 0.30068465 0.77848491
-0.53918872 0.30068465 0.83836837
-0.53918872 0.36056810 -0.77848491
-0.53918872 0.42045156 -0.71860146
-0.53918872 0.36056810 0.77848491
-0.53918872 0.42045156 0.71860146
-0.59907218 0.54021847 -0.65871800
-0.53918872 0.54021847 -0.71860146
-0.59907218 0.54021847 0.65871800
-0.53918872 0.54021847 0.71860146
-0.53918872 0.60010192 -0.65871800
-0.59907218 0.65998538 -0.53895109
-0.53918872 0.65998538 -0.59883455
-0.59907218 0.65998538 0.53895109
-0.53918872 0.65998538 0.59883455
-0.53918872 0.60010192 0.65871800
-0.53918872 0.71986883 -0.53895109
-0.59907218 0.77975229 -0.41918418
-0.53918872 0.77975229 -0.47906764
-0.59907218 0.77975229 0.41918418
-0.53918872 0.77975229 0.47906764
-0.53918872 0.71986883 0.53895109
-0.53918872 0.83963574 -0.41918418
-0.59907218 0.89951919 -0.29941727
-0.53918872 0.89951919 -0.35930073
-0.59907218 0.89951919 -0.17965036
-0.59907218 0.89951919 -0.05988345
-0.59907218 0.89951919 0.05988345
-0.59907218 0.89951919 0.17965036
-0.53918872 0.89951919 0.23953382
-0.53918872 0.83963574 0.29941727
-0.53918872 0.83963574 0.41918418
-0.53918872 0.95940265 -0.29941727
-0.53918872 0.95940265 -0.17965036
-0.53918872 0.95940265 -0.05988345
-0.53918872 0.95940265 0.05988345
-0.53918872 0.95940265 0.17965036
-0.47930527 -0.89698445 -0.41918418
-0.41942182 -0.89698445 -0.47906764
-0.41942182 -0.95686790 -0.41918418
-0.41942182 -0.95686790 -0.29941727
-0.41942182 -0.95686790 -0.17965036
-0.41942182 -0.95686790 -0.05988345
-0.41942182 -0.95686790 0.05988345
-0.41942182 -0.95686790 0.17965036
-0.41942182 -0.95686790 0.29941727
-0.41942182 -0.89698445 0.35930073
-0.47930527 -0.77721754 -0.53895109
-0.41942182 -0.77721754 -0.59883455
-0.41942182 -0.83710099 -0.53895109
-0.41942182 -0.83710099 0.41918418
-0.41942182 -0.83710099 0.53895109
-0.47930527 -0.77721754 0.53895109
-0.41942182 -0.77721754 0.59883455
-0.47930527 -0.65745063 -0.65871800
-0.41942182 -0.65745063 -0.71860146
-0.41942182 -0.71733408 -0.65871800
-0.41942182 -0.71733408 0.65871800
-0.47930527 -0.65745063 0.65871800
-0.41942182 -0.65745063 0.71860146
-0.41942182 -0.53768372 -0.71860146
-0.41942182 -0.53768372 0.71860146
-0.47930527 -0.41791681 -0.77848491
-0.41942182 -0.41791681 -0.83836837
-0.41942182 -0.47780026 -0.77848491
-0.41942182 -0.47780026 0.77848491
-0.47930527 -0.41791681 0.77848491
-0.41942182 -0.41791681 0.83836837
-0.41942182 -0.29814990 -0.83836837
-0.41942182 -0.29814990 0.83836837
-0.41942182 -0.17838299 -0.83836837
-0.41942182 -0.17838299 0.83836837
-0.41942182 -0.05861608 -0.83836837
-0.41942182 -0.05861608 0.83836837
-0.41942182 0.06115083 -0.83836837
-0.41942182 0.00126737 0.89825182
-0.47930527 0.06115083 0.89825182
-0.41942182 0.06115083 0.95813527
-0.41942182 0.18091774 -0.83836837
-0.47930527 0.18091774 0.89825182
-0.41942182 0.18091774 0.95813527
-0.41942182 0.30068465 -0.83836837
-0.41942182 0.24080119 0.89825182
-0.41942182 0.30068465 0.83836837
-0.47930527 0.42045156 -0.77848491
-0.41942182 0.42045156 -0.83836837
-0.47930527 0.42045156 0.77848491
-0.41942182 0.42045156 0.83836837
-0.41942182 0.48033501 -0.77848491
-0.41942182 0.54021847 -0.71860146
-0.41942182 0.48033501 0.77848491
-0.41942182 0.54021847 0.71860146
-0.47930527 0.65998538 -0.65871800
-0.41942182 0.65998538 -0.71860146
-0.47930527 0.65998538 0.65871800
-0.41942182 0.65998538 0.71860146
-0.41942182 0.71986883 -0.65871800
-0.47930527 0.77975229 -0.53895109
-0.41942182 0.77975229 -0.59883455
-0.41942182 0.71986883 0.53895109
-0.41942182 0.77975229 0.47906764
-0.41942182 0.71986883 0.65871800
-0.41942182 0.83963574 -0.53895109
-0.47930527 0.89951919 -0.41918418
-0.41942182 0.89951919 -0.47906764
-0.47930527 0.89951919 0.29941727
-0.41942182 0.89951919 0.35930073
-0.41942182 0.83963574 0.41918418
-0.41942182 0.95940265 -0.41918418
-0.41942182 0.95940265 -0.29941727
-0.41942182 0.95940265 -0.17965036
-0.41942182 0.95940265 -0.05988345
-0.41942182 0.95940265 0.05988345
-0.41942182 0.95940265 0.17965036
-0.41942182 0.95940265 0.29941727
-0.35953836 -1.01675135 -0.29941727
-0.29965491 -1.01675135 -0.35930073
-0.29965491 -1.07663481 -0.29941727
-0.29965491 -1.07663481 -0.17965036
-0.35953836 -1.01675135 -0.17965036
-0.29965491 -1.07663481 -0.05988345
-0.35953836 -1.01675135 -0.05988345
-0.29965491 -1.07663481 0.05988345
-0.35953836 -1.01675135 0.05988345
-0.29965491 -1.07663481 0.17965036
-0.35953836 -1.01675135 0.17965036
-0.29965491 -1.01675135 0.23953382
-0.35953836 -0.89698445 -0.53895109
-0.29965491 -0.89698445 -0.59883455
-0.29965491 -0.95686790 -0.53895109
-0.29965491 -0.95686790 -0.41918418
-0.29965491 -0.95686790 0.29941727
-0.29965491 -0.95686790 0.41918418
-0.35953836 -0.89698445 0.41918418
-0.29965491 -0.89698445 0.47906764
-0.29965491 -0.77721754 -0.59883455
-0.35953836 -0.77721754 0.17965036
-0.29965491 -0.83710099 0.17965036
-0.29965491 -0.77721754 0.11976691
-0.29965491 -0.77721754 0.23953382
-0.29965491 -0.83710099 0.53895109
-0.29965491 -0.77721754 0.59883455
-0.29965491 -0.65745063 -0.71860146
-0.29965491 -0.71733408 -0.65871800
-0.29965491 -0.71733408 0.17965036
-0.29965491 -0.71733408 0.65871800
-0.29965491 -0.65745063 0.71860146
-0.35953836 -0.53768372 -0.77848491
-0.29965491 -0.53768372 -0.83836837
-0.29965491 -0.59756717 -0.77848491
-0.29965491 -0.59756717 0.77848491
-0.35953836 -0.53768372 0.77848491
-0.29965491 -0.53768372 0.83836837
-0.29965491 -0.41791681 -0.83836837
-0.29965491 -0.41791681 0.83836837
-0.35953836 -0.29814990 -0.89825182
-0.29965491 -0.29814990 -0.95813527
-0.29965491 -0.35803335 -0.89825182
-0.29965491 -0.35803335 0.89825182
-0.35953836 -0.29814990 0.89825182
-0.29965491 -0.29814990 0.95813527
-0.35953836 -0.17838299 -0.89825182
-0.29965491 -0.17838299 -0.95813527
-0.35953836 -0.17838299 0.89825182
-0.29965491 -0.17838299 0.95813527
-0.35953836 -0.05861608 -0.89825182
-0.29965491 -0.05861608 -0.95813527
-0.35953836 -0.05861608 0.89825182
-0.29965491 -0.05861608 0.95813527
-0.35953836 0.06115083 -0.89825182
-0.29965491 0.06115083 -0.95813527
-0.29965491 0.06115083 0.95813527
-0.35953836 0.18091774 -0.89825182
-0.29965491 0.18091774 -0.95813527
-0.29965491 0.18091774 0.95813527
-0.35953836 0.30068465 -0.89825182
-0.29965491 0.30068465 -0.95813527
-0.35953836 0.30068465 0.89825182
-0.29965491 0.30068465 0.95813527
-0.29965491 0.36056810 -0.89825182
-0.29965491 0.42045156 -0.83836837
-0.29965491 0.36056810 0.89825182
-0.29965491 0.42045156 0.83836837
-0.35953836 0.54021847 -0.77848491
-0.29965491 0.54021847 -0.83836837
-0.29965491 0.48033501 0.77848491
-0.29965491 0.54021847 0.71860146
-0.29965491 0.60010192 -0.77848491
-0.29965491 0.65998538 -0.71860146
-0.29965491 0.65998538 0.71860146
-0.35953836 0.77975229 -0.65871800
-0.29965491 0.77975229 -0.71860146
-0.35953836 0.77975229 0.53895109
-0.29965491 0.77975229 0.59883455
-0.29965491 0.71986883 0.65871800
-0.29965491 0.83963574 -0.65871800
-0.29965491 0.83963574 -0.53895109
-0.29965491 0.89951919 -0.47906764
-0.29965491 0.83963574 0.41918418
-0.29965491 0.89951919 0.35930073
-0.29965491 0.83963574 0.53895109
-0.29965491 0.95940265 -0.41918418
-0.35953836 1.01928610 -0.29941727
-0.29965491 1.01928610 -0.35930073
-0.35953836 1.01928610 -0.17965036
-0.35953836 1.01928610 -0.05988345
-0.35953836 1.01928610 0.05988345
-0.35953836 1.01928610 0.17965036
-0.29965491 1.01928610 0.23953382
-0.29965491 0.95940265 0.29941727
-0.29965491 1.07916956 -0.29941727
-0.29965491 1.07916956 -0.17965036
-0.29965491 1.07916956 -0.05988345
-0.29965491 1.07916956 0.05988345
-0.29965491 1.07916956 0.17965036
-0.17988800 -1.01675135 -0.35930073
-0.17988800 -1.07663481 -0.29941727
-0.17988800 -1.07663481 -0.17965036
-0.17988800 -1.07663481 -0.05988345
-0.17988800 -1.07663481 0.05988345
-0.17988800 -1.07663481 0.17965036
-0.17988800 -1.01675135 0.23953382
-0.17988800 -0.89698445 -0.59883455
-0.17988800 -0.95686790 -0.53895109
-0.17988800 -0.95686790 -0.41918418
-0.17988800 -0.95686790 0.29941727
-0.17988800 -0.95686790 0.41918418
-0.17988800 -0.95686790 0.53895109
-0.23977145 -0.89698445 0.53895109
-0.17988800 -0.89698445 0.59883455
-0.23977145 -0.77721754 -0.65871800
-0.17988800 -0.77721754 -0.71860146
-0.17988800 -0.83710099 -0.65871800
-0.23977145 -0.77721754 0.17965036
-0.17988800 -0.83710099 0.29941727
-0.17988800 -0.77721754 0.23953382
-0.23977145 -0.77721754 0.29941727
-0.17988800 -0.77721754 0.35930073
-0.17988800 -0.83710099 0.65871800
-0.23977145 -0.77721754 0.65871800
-0.17988800 -0.77721754 0.71860146
-0.17988800 -0.65745063 -0.71860146
-0.17988800 -0.71733408 0.29941727
-0.23977145 -0.65745063 0.53895109
-0.17988800 -0.71733408 0.53895109
-0.17988800 -0.65745063 0.47906764
-0.17988800 -0.65745063 0.59883455
-0.17988800 -0.65745063 0.71860146
-0.17988800 -0.53768372 -0.83836837
-0.17988800 -0.59756717 -0.77848491
-0.17988800 -0.59756717 0.53895109
-0.23977145 -0.53768372 0.77848491
-0.17988800 -0.53768372 0.71860146
-0.23977145 -0.41791681 -0.89825182
-0.17988800 -0.41791681 -0.95813527
-0.17988800 -0.47780026 -0.89825182
-0.17988800 -0.47780026 0.77848491
-0.17988800 -0.47780026 0.89825182
-0.23977145 -0.41791681 0.89825182
-0.17988800 -0.41791681 0.95813527
-0.17988800 -0.29814990 -0.95813527
-0.17988800 -0.29814990 0.95813527
-0.17988800 -0.17838299 -0.95813527
-0.17988800 -0.17838299 0.95813527
-0.17988800 -0.05861608 -0.95813527
-0.17988800 -0.05861608 0.95813527
-0.17988800 0.06115083 -0.95813527
-0.17988800 0.06115083 0.95813527
-0.17988800 0.18091774 -0.95813527
-0.17988800 0.18091774 0.95813527
-0.17988800 0.30068465 -0.95813527
-0.17988800 0.30068465 0.95813527
-0.23977145 0.42045156 -0.89825182
-0.17988800 0.42045156 -0.95813527
-0.17988800 0.36056810 0.89825182
-0.17988800 0.42045156 0.83836837
-0.17988800 0.48033501 -0.89825182
-0.17988800 0.54021847 -0.83836837
-0.23977145 0.54021847 0.77848491
-0.17988800 0.54021847 0.83836837
-0.23977145 0.65998538 -0.77848491
-0.17988800 0.65998538 -0.83836837
-0.17988800 0.60010192 0.77848491
-0.17988800 0.65998538 0.71860146
-0.17988800 0.71986883 -0.77848491
-0.17988800 0.77975229 -0.71860146
-0.23977145 0.77975229 0.65871800
-0.17988800 0.77975229 0.71860146
-0.17988800 0.83963574 -0.65871800
-0.23977145 0.89951919 -0.53895109
-0.17988800 0.89951919 -0.59883455
-0.23977145 0.89951919 0.41918418
-0.23977145 0.89951919 0.53895109
-0.17988800 0.89951919 0.59883455
-0.17988800 0.83963574 0.65871800
-0.17988800 0.95940265 -0.53895109
-0.17988800 0.95940265 -0.41918418
-0.17988800 1.01928610 -0.35930073
-0.17988800 0.95940265 0.29941727
-0.17988800 1.01928610 0.23953382
-0.17988800 0.95940265 0.41918418
-0.17988800 0.95940265 0.53895109
-0.17988800 1.07916956 -0.29941727
-0.17988800 1.07916956 -0.17965036
-0.17988800 1.07916956 -0.05988345
-0.17988800 1.07916956 0.05988345
-0.17988800 1.07916956 0.17965036
-0.06012109 -1.01675135 -0.35930073
-0.06012109 -1.07663481 -0.29941727
-0.06012109 -1.07663481 -0.17965036
-0.06012109 -1.07663481 -0.05988345
-0.06012109 -1.07663481 0.05988345
-0.06012109 -1.07663481 0.17965036
-0.06012109 -1.01675135 0.23953382
-0.06012109 -0.89698445 -0.59883455
-0.06012109 -0.95686790 -0.53895109
-0.06012109 -0.95686790 -0.41918418
-0.06012109 -0.95686790 0.29941727
-0.06012109 -0.95686790 0.41918418
-0.06012109 -0.95686790 0.53895109
-0.06012109 -0.89698445 0.59883455
-0.06012109 -0.77721754 -0.71860146
-0.06012109 -0.83710099 -0.65871800
-0.12000454 -0.77721754 0.29941727
-0.06012109 -0.83710099 0.65871800
-0.06012109 -0.77721754 0.71860146
-0.06012109 -0.65745063 -0.71860146
-0.12000454 -0.65745063 0.53895109
-0.06012109 -0.65745063 0.71860146
-0.06012109 -0.53768372 -0.83836837
-0.06012109 -0.59756717 -0.77848491
-0.06012109 -0.59756717 0.77848491
-0.12000454 -0.53768372 0.77848491
-0.06012109 -0.53768372 0.83836837
-0.06012109 -0.41791681 -0.95813527
-0.06012109 -0.47780026 -0.89825182
-0.06012109 -0.47780026 0.89825182
-0.06012109 -0.41791681 0.95813527
-0.06012109 -0.29814990 -0.95813527
-0.06012109 -0.29814990 0.95813527
-0.06012109 -0.17838299 -0.95813527
-0.06012109 -0.17838299 0.95813527
-0.06012109 -0.05861608 -0.95813527
-0.06012109 -0.05861608 0.95813527
-0.06012109 0.06115083 -0.95813527
-0.06012109 0.06115083 0.95813527
-0.06012109 0.18091774 -0.95813527
-0.06012109 0.18091774 0.95813527
-0.06012109 0.30068465 -0.95813527
-0.06012109 0.30068465 0.95813527
-0.06012109 0.42045156 -0.95813527
-0.12000454 0.42045156 0.89825182
-0.06012109 0.42045156 0.95813527
-0.06012109 0.48033501 -0.89825182
-0.06012109 0.54021847 -0.83836837
-0.06012109 0.48033501 0.89825182
-0.06012109 0.54021847 0.83836837
-0.06012109 0.65998538 -0.83836837
-0.12000454 0.65998538 0.77848491
-0.06012109 0.65998538 0.83836837
-0.06012109 0.71986883 -0.77848491
-0.06012109 0.77975229 -0.71860146
-0.06012109 0.71986883 0.77848491
-0.06012109 0.77975229 0.71860146
-0.06012109 0.83963574 -0.65871800
-0.06012109 0.89951919 -0.59883455
-0.12000454 0.89951919 0.53895109
-0.06012109 0.83963574 0.53895109
-0.06012109 0.89951919 0.47906764
-0.06012109 0.83963574 0.65871800
-0.06012109 0.95940265 -0.53895109
-0.06012109 0.95940265 -0.41918418
-0.06012109 1.01928610 -0.35930073
-0.06012109 0.95940265 0.29941727
-0.06012109 1.01928610 0.23953382
-0.06012109 0.95940265 0.41918418
-0.06012109 1.07916956 -0.29941727
-0.06012109 1.07916956 -0.17965036
-0.06012109 1.07916956 -0.05988345
-0.06012109 1.07916956 0.05988345
-0.06012109 1.07916956 0.17965036
0.05964582 -1.01675135 -0.35930073
0.05964582 -1.07663481 -0.29941727
0.05964582 -1.07663481 -0.17965036
0.05964582 -1.07663481 -0.05988345
0.05964582 -1.07663481 0.05988345
0.05964582 -1.07663481 0.17965036
0.05964582 -1.01675135 0.23953382
0.05964582 -0.89698445 -0.59883455
0.05964582 -0.95686790 -0.53895109
0.05964582 -0.95686790 -0.41918418
0.05964582 -0.95686790 0.29941727
0.05964582 -0.95686790 0.41918418
0.05964582 -0.95686790 0.53895109
0.05964582 -0.89698445 0.59883455
0.05964582 -0.77721754 -0.71860146
0.05964582 -0.83710099 -0.65871800
0.05964582 -0.83710099 0.65871800
0.05964582 -0.77721754 0.71860146
0.05964582 -0.65745063 -0.71860146
0.05964582 -0.65745063 0.71860146
0.05964582 -0.53768372 -0.83836837
0.05964582 -0.59756717 -0.77848491
0.05964582 -0.59756717 0.77848491
0.05964582 -0.53768372 0.83836837
0.05964582 -0.41791681 -0.95813527
0.05964582 -0.47780026 -0.89825182
0.05964582 -0.47780026 0.89825182
0.05964582 -0.41791681 0.95813527
0.05964582 -0.29814990 -0.95813527
0.05964582 -0.29814990 0.95813527
0.05964582 -0.17838299 -0.95813527
0.05964582 -0.17838299 0.95813527
0.05964582 -0.05861608 -0.95813527
0.05964582 -0.05861608 0.95813527
0.05964582 0.06115083 -0.95813527
0.05964582 0.06115083 0.95813527
0.05964582 0.18091774 -0.95813527
0.05964582 0.18091774 0.95813527
0.05964582 0.30068465 -0.95813527
0.05964582 0.30068465 0.95813527
0.05964582 0.42045156 -0.95813527
0.05964582 0.42045156 0.95813527
0.05964582 0.48033501 -0.89825182
0.05964582 0.54021847 -0.83836837
0.05964582 0.48033501 0.89825182
0.05964582 0.54021847 0.83836837
0.05964582 0.65998538 -0.83836837
0.05964582 0.65998538 0.83836837
0.05964582 0.71986883 -0.77848491
0.05964582 0.77975229 -0.71860146
0.05964582 0.71986883 0.77848491
0.05964582 0.77975229 0.71860146
0.05964582 0.83963574 -0.65871800
0.05964582 0.89951919 -0.59883455
0.05964582 0.83963574 0.53895109
0.05964582 0.89951919 0.47906764
0.05964582 0.83963574 0.65871800
0.05964582 0.95940265 -0.53895109
0.05964582 0.95940265 -0.41918418
0.05964582 1.01928610 -0.35930073
0.05964582 0.95940265 0.29941727
0.05964582 1.01928610 0.23953382
0.05964582 0.95940265 0.41918418
0.05964582 1.07916956 -0.29941727
0.05964582 1.07916956 -0.17965036
0.05964582 1.07916956 -0.05988345
0.05964582 1.07916956 0.05988345
0.05964582 1.07916956 0.17965036
0.11952928 -1.01675135 -0.29941727
0.17941273 -1.01675135 -0.23953382
0.17941273 -1.07663481 -0.17965036
0.17941273 -1.07663481 -0.05988345
0.17941273 -1.07663481 0.05988345
0.11952928 -1.01675135 0.17965036
0.17941273 -1.01675135 0.11976691
0.11952928 -0.89698445 -0.53895109
0.17941273 -0.89698445 -0.47906764
0.17941273 -0.95686790 -0.41918418
0.17941273 -0.95686790 -0.29941727
0.17941273 -0.95686790 0.17965036
0.17941273 -0.95686790 0.29941727
0.17941273 -0.95686790 0.41918418
0.17941273 -0.95686790 0.53895109
0.17941273 -0.89698445 0.59883455
0.17941273 -0.77721754 -0.71860146
0.17941273 -0.83710099 -0.65871800
0.17941273 -0.83710099 -0.53895109
0.17941273 -0.83710099 0.65871800
0.17941273 -0.77721754 0.71860146
0.17941273 -0.65745063 -0.71860146
0.17941273 -0.65745063 0.71860146
0.17941273 -0.53768372 -0.83836837
0.17941273 -0.59756717 -0.77848491
0.17941273 -0.59756717 0.77848491
0.17941273 -0.53768372 0.83836837
0.17941273 -0.41791681 -0.95813527
0.17941273 -0.47780026 -0.89825182
0.17941273 -0.47780026 0.89825182
0.17941273 -0.41791681 0.95813527
0.17941273 -0.29814990 -0.95813527
0.17941273 -0.29814990 0.95813527
0.17941273 -0.17838299 -0.95813527
0.17941273 -0.17838299 0.95813527
0.17941273 -0.05861608 -0.95813527
0.17941273 -0.05861608 0.95813527
0.17941273 0.06115083 -0.95813527
0.17941273 0.06115083 0.95813527
0.17941273 0.18091774 -0.95813527
0.17941273 0.18091774 0.95813527
0.17941273 0.30068465 -0.95813527
0.17941273 0.30068465 0.95813527
0.17941273 0.42045156 -0.95813527
0.17941273 0.42045156 0.95813527
0.17941273 0.48033501 -0.89825182
0.17941273 0.54021847 -0.83836837
0.17941273 0.48033501 0.89825182
0.17941273 0.54021847 0.83836837
0.17941273 0.65998538 -0.83836837
0.11952928 0.65998538 0.77848491
0.17941273 0.60010192 0.77848491
0.17941273 0.65998538 0.71860146
0.17941273 0.71986883 -0.77848491
0.17941273 0.77975229 -0.71860146
0.11952928 0.77975229 -0.41918418
0.17941273 0.71986883 -0.41918418
0.17941273 0.77975229 -0.47906764
0.17941273 0.77975229 -0.35930073
0.17941273 0.77975229 0.71860146
0.17941273 0.83963574 -0.65871800
0.17941273 0.89951919 -0.59883455
0.17941273 0.83963574 -0.41918418
0.17941273 0.83963574 0.53895109
0.17941273 0.89951919 0.47906764
0.17941273 0.83963574 0.65871800
0.17941273 0.95940265 -0.53895109
0.17941273 0.95940265 -0.41918418
0.17941273 1.01928610 -0.35930073
0.17941273 0.95940265 0.29941727
0.17941273 1.01928610 0.23953382
0.17941273 0.95940265 0.41918418
0.17941273 1.07916956 -0.29941727
0.17941273 1.07916956 -0.17965036
0.17941273 1.07916956 -0.05988345
0.17941273 1.07916956 0.05988345
0.17941273 1.07916956 0.17965036
0.29917964 -1.01675135 -0.23953382
0.29917964 -1.07663481 -0.17965036
0.29917964 -1.07663481 -0.05988345
0.29917964 -1.07663481 0.05988345
0.29917964 -1.01675135 0.11976691
0.29917964 -0.89698445 -0.47906764
0.29917964 -0.95686790 -0.41918418
0.29917964 -0.95686790 -0.29941727
0.29917964 -0.95686790 0.17965036
0.29917964 -0.95686790 0.29941727
0.29917964 -0.95686790 0.41918418
0.23929619 -0.89698445 0.53895109
0.29917964 -0.89698445 0.47906764
0.23929619 -0.77721754 -0.65871800
0.29917964 -0.77721754 -0.59883455
0.29917964 -0.83710099 -0.53895109
0.29917964 -0.83710099 0.53895109
0.23929619 -0.77721754 0.65871800
0.29917964 -0.77721754 0.59883455
0.29917964 -0.65745063 -0.71860146
0.29917964 -0.71733408 -0.65871800
0.23929619 -0.65745063 0.65871800
0.29917964 -0.65745063 0.59883455
0.29917964 -0.53768372 -0.83836837
0.29917964 -0.59756717 -0.77848491
0.29917964 -0.59756717 0.65871800
0.29917964 -0.59756717 0.77848491
0.29917964 -0.53768372 0.83836837
0.23929619 -0.41791681 -0.89825182
0.29917964 -0.41791681 -0.83836837
0.23929619 -0.41791681 0.89825182
0.29917964 -0.41791681 0.83836837
0.29917964 -0.29814990 -0.95813527
0.29917964 -0.35803335 -0.89825182
0.23929619 -0.29814990 0.89825182
0.29917964 -0.29814990 0.83836837
0.29917964 -0.17838299 -0.95813527
0.23929619 -0.17838299 0.89825182
0.29917964 -0.17838299 0.83836837
0.29917964 -0.05861608 -0.95813527
0.29917964 -0.11849953 0.89825182
0.29917964 -0.05861608 0.95813527
0.29917964 0.06115083 -0.95813527
0.29917964 0.06115083 0.95813527
0.29917964 0.18091774 -0.95813527
0.29917964 0.18091774 0.95813527
0.29917964 0.30068465 -0.95813527
0.29917964 0.30068465 0.95813527
0.29917964 0.36056810 -0.89825182
0.23929619 0.42045156 -0.89825182
0.29917964 0.42045156 -0.83836837
0.23929619 0.42045156 0.89825182
0.29917964 0.36056810 0.89825182
0.29917964 0.42045156 0.83836837
0.29917964 0.54021847 -0.83836837
0.29917964 0.54021847 0.83836837
0.29917964 0.65998538 -0.83836837
0.29917964 0.60010192 0.77848491
0.29917964 0.65998538 0.71860146
0.29917964 0.71986883 -0.77848491
0.29917964 0.77975229 -0.71860146
0.23929619 0.77975229 -0.41918418
0.23929619 0.77975229 0.65871800
0.29917964 0.71986883 0.65871800
0.29917964 0.77975229 0.59883455
0.29917964 0.83963574 -0.65871800
0.29917964 0.89951919 -0.59883455
0.23929619 0.89951919 0.29941727
0.29917964 0.83963574 0.29941727
0.29917964 0.89951919 0.23953382
0.23929619 0.89951919 0.41918418
0.29917964 0.83963574 0.41918418
0.29917964 0.83963574 0.53895109
0.29917964 0.95940265 -0.53895109
0.29917964 0.95940265 -0.41918418
0.29917964 1.01928610 -0.35930073
0.29917964 1.01928610 0.23953382
0.29917964 1.07916956 -0.29941727
0.29917964 1.07916956 -0.17965036
0.29917964 1.07916956 -0.05988345
0.29917964 1.07916956 0.05988345
0.29917964 1.07916956 0.17965036
0.35906310 -1.01675135 -0.17965036
0.35906310 -1.01675135 -0.05988345
0.35906310 -1.01675135 0.05988345
0.41894655 -0.89698445 -0.47906764
0.41894655 -0.95686790 -0.41918418
0.41894655 -0.95686790 -0.29941727
0.41894655 -0.95686790 -0.17965036
0.41894655 -0.95686790 -0.05988345
0.41894655 -0.95686790 0.05988345
0.41894655 -0.95686790 0.17965036
0.41894655 -0.95686790 0.29941727
0.41894655 -0.95686790 0.41918418
0.41894655 -0.89698445 0.47906764
0.41894655 -0.77721754 -0.59883455
0.41894655 -0.83710099 -0.53895109
0.35906310 -0.77721754 -0.05988345
0.41894655 -0.83710099 -0.05988345
0.41894655 -0.77721754 -0.11976691
0.41894655 -0.77721754 0.00000000
0.41894655 -0.83710099 0.53895109
0.41894655 -0.77721754 0.59883455
0.41894655 -0.65745063 -0.71860146
0.41894655 -0.71733408 -0.65871800
0.41894655 -0.71733408 -0.05988345
0.41894655 -0.71733408 0.65871800
0.35906310 -0.65745063 0.65871800
0.41894655 -0.65745063 0.71860146
0.35906310 -0.53768372 -0.77848491
0.41894655 -0.53768372 -0.71860146
0.41894655 -0.53768372 0.71860146
0.35906310 -0.53768372 0.77848491
0.41894655 -0.41791681 -0.83836837
0.41894655 -0.47780026 -0.77848491
0.41894655 -0.47780026 0.77848491
0.41894655 -0.41791681 0.83836837
0.35906310 -0.29814990 -0.89825182
0.41894655 -0.29814990 -0.83836837
0.41894655 -0.29814990 0.83836837
0.41894655 -0.17838299 -0.95813527
0.41894655 -0.23826644 -0.89825182
0.41894655 -0.17838299 0.83836837
0.41894655 -0.05861608 -0.95813527
0.41894655 -0.11849953 0.89825182
0.41894655 -0.05861608 0.95813527
0.41894655 0.06115083 -0.95813527
0.41894655 0.06115083 0.95813527
0.41894655 0.18091774 -0.95813527
0.41894655 0.18091774 0.95813527
0.41894655 0.24080119 -0.89825182
0.35906310 0.30068465 -0.89825182
0.41894655 0.30068465 -0.83836837
0.35906310 0.30068465 0.89825182
0.41894655 0.24080119 0.89825182
0.41894655 0.30068465 0.83836837
0.41894655 0.42045156 -0.83836837
0.41894655 0.42045156 0.83836837
0.41894655 0.54021847 -0.83836837
0.41894655 0.54021847 0.83836837
0.41894655 0.60010192 -0.77848491
0.35906310 0.65998538 -0.77848491
0.41894655 0.65998538 -0.71860146
0.41894655 0.60010192 0.77848491
0.41894655 0.65998538 0.71860146
0.35906310 0.77975229 -0.65871800
0.41894655 0.71986883 -0.65871800
0.41894655 0.77975229 -0.59883455
0.41894655 0.71986883 0.65871800
0.41894655 0.77975229 0.59883455
0.35906310 0.89951919 -0.53895109
0.41894655 0.83963574 -0.53895109
0.41894655 0.89951919 -0.47906764
0.35906310 0.89951919 0.29941727
0.41894655 0.89951919 0.35930073
0.41894655 0.83963574 0.41918418
0.41894655 0.83963574 0.53895109
0.41894655 0.95940265 -0.41918418
0.35906310 1.01928610 -0.29941727
0.41894655 0.95940265 -0.29941727
0.35906310 1.01928610 -0.17965036
0.41894655 0.95940265 -0.17965036
0.35906310 1.01928610 -0.05988345
0.41894655 0.95940265 -0.05988345
0.35906310 1.01928610 0.05988345
0.41894655 0.95940265 0.05988345
0.35906310 1.01928610 0.17965036
0.41894655 0.95940265 0.17965036
0.41894655 0.95940265 0.29941727
0.47883000 -0.89698445 -0.41918418
0.47883000 -0.89698445 -0.29941727
0.53871346 -0.89698445 -0.23953382
0.53871346 -0.95686790 -0.17965036
0.53871346 -0.95686790 -0.05988345
0.53871346 -0.95686790 0.05988345
0.47883000 -0.89698445 0.17965036
0.53871346 -0.89698445 0.11976691
0.47883000 -0.89698445 0.29941727
0.47883000 -0.89698445 0.41918418
0.47883000 -0.77721754 -0.53895109
0.53871346 -0.77721754 -0.47906764
0.53871346 -0.83710099 -0.41918418
0.53871346 -0.83710099 -0.29941727
0.47883000 -0.77721754 -0.05988345
0.53871346 -0.83710099 0.17965036
0.53871346 -0.77721754 0.23953382
0.47883000 -0.77721754 0.29941727
0.53871346 -0.77721754 0.35930073
0.53871346 -0.83710099 0.41918418
0.47883000 -0.77721754 0.53895109
0.53871346 -0.77721754 0.47906764
0.47883000 -0.65745063 -0.65871800
0.53871346 -0.65745063 -0.59883455
0.53871346 -0.71733408 -0.53895109
0.53871346 -0.71733408 0.29941727
0.53871346 -0.71733408 0.53895109
0.47883000 -0.65745063 0.65871800
0.53871346 -0.65745063 0.59883455
0.53871346 -0.53768372 -0.71860146
0.53871346 -0.59756717 -0.65871800
0.53871346 -0.59756717 0.65871800
0.53871346 -0.53768372 0.71860146
0.47883000 -0.41791681 -0.77848491
0.53871346 -0.41791681 -0.71860146
0.47883000 -0.41791681 0.77848491
0.53871346 -0.41791681 0.71860146
0.53871346 -0.29814990 -0.83836837
0.53871346 -0.35803335 -0.77848491
0.53871346 -0.35803335 0.77848491
0.53871346 -0.29814990 0.83836837
0.47883000 -0.17838299 -0.89825182
0.53871346 -0.17838299 -0.83836837
0.53871346 -0.17838299 0.83836837
0.47883000 -0.05861608 -0.89825182
0.53871346 -0.05861608 -0.83836837
0.47883000 -0.05861608 0.89825182
0.53871346 -0.05861608 0.83836837
0.47883000 0.06115083 -0.89825182
0.53871346 0.06115083 -0.83836837
0.47883000 0.06115083 0.89825182
0.53871346 0.06115083 0.83836837
0.47883000 0.18091774 -0.89825182
0.53871346 0.18091774 -0.83836837
0.47883000 0.18091774 0.89825182
0.53871346 0.18091774 0.83836837
0.53871346 0.30068465 -0.83836837
0.53871346 0.30068465 0.83836837
0.53871346 0.42045156 -0.83836837
0.53871346 0.42045156 0.83836837
0.53871346 0.48033501 -0.77848491
0.47883000 0.54021847 -0.77848491
0.53871346 0.54021847 -0.71860146
0.47883000 0.54021847 0.77848491
0.53871346 0.48033501 0.77848491
0.53871346 0.54021847 0.71860146
0.53871346 0.65998538 -0.71860146
0.53871346 0.65998538 0.71860146
0.53871346 0.71986883 -0.65871800
0.47883000 0.77975229 -0.53895109
0.53871346 0.71986883 -0.53895109
0.53871346 0.77975229 -0.47906764
0.47883000 0.77975229 0.53895109
0.53871346 0.71986883 0.53895109
0.53871346 0.77975229 0.47906764
0.53871346 0.71986883 0.65871800
0.47883000 0.89951919 -0.41918418
0.53871346 0.83963574 -0.41918418
0.53871346 0.89951919 -0.35930073
0.47883000 0.89951919 0.29941727
0.53871346 0.83963574 0.29941727
0.53871346 0.89951919 0.23953382
0.53871346 0.83963574 0.41918418
0.53871346 0.95940265 -0.29941727
0.53871346 0.95940265 -0.17965036
0.53871346 0.95940265 -0.05988345
0.53871346 0.95940265 0.05988345
0.53871346 0.95940265 0.17965036
0.59859691 -0.89698445 -0.17965036
0.59859691 -0.89698445 -0.05988345
0.59859691 -0.89698445 0.05988345
0.59859691 -0.77721754 -0.41918418
0.65848037 -0.77721754 -0.35930073
0.65848037 -0.83710099 -0.29941727
0.65848037 -0.83710099 -0.17965036
0.65848037 -0.83710099 -0.05988345
0.65848037 -0.83710099 0.05988345
0.65848037 -0.83710099 0.17965036
0.65848037 -0.77721754 0.23953382
0.59859691 -0.77721754 0.41918418
0.59859691 -0.65745063 -0.53895109
0.65848037 -0.65745063 -0.47906764
0.65848037 -0.71733408 -0.41918418
0.65848037 -0.71733408 0.29941727
0.65848037 -0.71733408 0.41918418
0.59859691 -0.65745063 0.53895109
0.65848037 -0.65745063 0.47906764
0.59859691 -0.53768372 -0.65871800
0.65848037 -0.53768372 -0.59883455
0.65848037 -0.59756717 -0.53895109
0.65848037 -0.59756717 0.53895109
0.59859691 -0.53768372 0.65871800
0.65848037 -0.53768372 0.59883455
0.65848037 -0.41791681 -0.71860146
0.65848037 -0.47780026 -0.65871800
0.65848037 -0.47780026 0.65871800
0.65848037 -0.41791681 0.71860146
0.59859691 -0.29814990 -0.77848491
0.65848037 -0.29814990 -0.71860146
0.59859691 -0.29814990 0.77848491
0.65848037 -0.29814990 0.71860146
0.59859691 -0.17838299 -0.77848491
0.65848037 -0.17838299 -0.71860146
0.59859691 -0.17838299 0.77848491
0.65848037 -0.17838299 0.71860146
0.59859691 -0.05861608 -0.77848491
0.65848037 -0.05861608 -0.71860146
0.65848037 -0.11849953 0.77848491
0.65848037 -0.05861608 0.83836837
0.59859691 0.06115083 -0.77848491
0.65848037 0.06115083 -0.71860146
0.59859691 0.06115083 0.77848491
0.65848037 0.00126737 0.77848491
0.65848037 0.06115083 0.71860146
0.59859691 0.18091774 -0.77848491
0.65848037 0.18091774 -0.71860146
0.59859691 0.18091774 0.77848491
0.65848037 0.18091774 0.71860146
0.59859691 0.30068465 -0.77848491
0.65848037 0.30068465 -0.71860146
0.65848037 0.24080119 0.77848491
0.65848037 0.30068465 0.83836837
0.59859691 0.42045156 -0.77848491
0.65848037 0.42045156 -0.71860146
0.59859691 0.42045156 0.77848491
0.65848037 0.36056810 0.77848491
0.65848037 0.42045156 0.71860146
0.65848037 0.54021847 -0.71860146
0.59859691 0.54021847 0.65871800
0.65848037 0.48033501 0.65871800
0.65848037 0.54021847 0.59883455
0.65848037 0.60010192 -0.65871800
0.59859691 0.65998538 -0.65871800
0.65848037 0.65998538 -0.59883455
0.59859691 0.65998538 0.53895109
0.65848037 0.60010192 0.53895109
0.65848037 0.65998538 0.47906764
0.59859691 0.65998538 0.65871800
0.65848037 0.71986883 -0.53895109
0.59859691 0.77975229 -0.41918418
0.65848037 0.71986883 -0.41918418
0.65848037 0.77975229 -0.35930073
0.59859691 0.77975229 0.17965036
0.65848037 0.71986883 0.17965036
0.65848037 0.77975229 0.11976691
0.59859691 0.77975229 0.29941727
0.65848037 0.71986883 0.29941727
0.59859691 0.77975229 0.41918418
0.65848037 0.71986883 0.41918418
0.59859691 0.89951919 -0.29941727
0.65848037 0.83963574 -0.29941727
0.59859691 0.89951919 -0.17965036
0.65848037 0.83963574 -0.17965036
0.59859691 0.89951919 -0.05988345
0.65848037 0.83963574 -0.05988345
0.59859691 0.89951919 0.05988345
0.65848037 0.83963574 0.05988345
0.59859691 0.89951919 0.17965036
0.71836382 -0.77721754 -0.29941727
0.71836382 -0.77721754 -0.17965036
0.71836382 -0.77721754 -0.05988345
0.71836382 -0.77721754 0.05988345
0.71836382 -0.77721754 0.17965036
0.71836382 -0.65745063 -0.41918418
0.77824728 -0.65745063 -0.35930073
0.77824728 -0.71733408 -0.29941727
0.77824728 -0.71733408 -0.17965036
0.77824728 -0.71733408 -0.05988345
0.77824728 -0.71733408 0.05988345
0.77824728 -0.71733408 0.17965036
0.71836382 -0.65745063 0.29941727
0.77824728 -0.65745063 0.23953382
0.71836382 -0.65745063 0.41918418
0.71836382 -0.53768372 -0.53895109
0.77824728 -0.53768372 -0.47906764
0.77824728 -0.59756717 -0.41918418
0.77824728 -0.59756717 0.29941727
0.77824728 -0.53768372 0.35930073
0.71836382 -0.53768372 0.41918418
0.71836382 -0.53768372 0.53895109
0.71836382 -0.41791681 -0.65871800
0.77824728 -0.41791681 -0.59883455
0.77824728 -0.47780026 -0.53895109
0.77824728 -0.47780026 0.41918418
0.77824728 -0.41791681 0.47906764
0.71836382 -0.41791681 0.53895109
0.71836382 -0.41791681 0.65871800
0.71836382 -0.29814990 -0.65871800
0.77824728 -0.29814990 -0.59883455
0.77824728 -0.35803335 0.53895109
0.77824728 -0.29814990 0.59883455
0.71836382 -0.29814990 0.65871800
0.77824728 -0.17838299 -0.71860146
0.77824728 -0.23826644 -0.65871800
0.77824728 -0.23826644 0.65871800
0.77824728 -0.17838299 0.71860146
0.77824728 -0.05861608 -0.71860146
0.71836382 -0.05861608 0.77848491
0.77824728 -0.05861608 0.71860146
0.77824728 0.06115083 -0.71860146
0.71836382 0.06115083 0.65871800
0.77824728 0.00126737 0.65871800
0.77824728 0.06115083 0.59883455
0.77824728 0.18091774 -0.71860146
0.77824728 0.12103428 0.65871800
0.77824728 0.18091774 0.71860146
0.77824728 0.30068465 -0.71860146
0.71836382 0.30068465 0.77848491
0.77824728 0.30068465 0.71860146
0.77824728 0.36056810 -0.65871800
0.71836382 0.42045156 -0.65871800
0.77824728 0.42045156 -0.59883455
0.71836382 0.42045156 0.65871800
0.77824728 0.36056810 0.65871800
0.77824728 0.42045156 0.59883455
0.71836382 0.54021847 -0.65871800
0.77824728 0.48033501 -0.53895109
0.71836382 0.54021847 -0.53895109
0.77824728 0.54021847 -0.47906764
0.71836382 0.54021847 0.53895109
0.77824728 0.48033501 0.53895109
0.77824728 0.54021847 0.47906764
0.71836382 0.65998538 -0.53895109
0.77824728 0.60010192 -0.41918418
0.71836382 0.65998538 -0.41918418
0.71836382 0.65998538 -0.29941727
0.77824728 0.60010192 -0.29941727
0.77824728 0.65998538 -0.23953382
0.71836382 0.65998538 -0.05988345
0.77824728 0.60010192 -0.05988345
0.77824728 0.65998538 -0.11976691
0.77824728 0.65998538 0.00000000
0.71836382 0.65998538 0.53895109
0.77824728 0.60010192 0.53895109
0.77824728 0.65998538 0.59883455
0.71836382 0.77975229 -0.29941727
0.77824728 0.71986883 -0.17965036
0.71836382 0.77975229 -0.17965036
0.71836382 0.77975229 -0.05988345
0.77824728 0.71986883 0.05988345
0.71836382 0.77975229 0.05988345
0.77824728 0.71986883 0.17965036
0.77824728 0.71986883 0.29941727
0.77824728 0.71986883 0.41918418
0.77824728 0.71986883 0.53895109
0.83813073 -0.65745063 -0.29941727
0.83813073 -0.65745063 -0.17965036
0.83813073 -0.65745063 -0.05988345
0.83813073 -0.65745063 0.05988345
0.83813073 -0.65745063 0.17965036
0.83813073 -0.53768372 -0.41918418
0.83813073 -0.53768372 -0.29941727
0.89801419 -0.53768372 -0.23953382
0.89801419 -0.59756717 -0.17965036
0.89801419 -0.59756717 -0.05988345
0.89801419 -0.59756717 0.05988345
0.89801419 -0.53768372 0.11976691
0.83813073 -0.53768372 0.17965036
0.83813073 -0.53768372 0.29941727
0.83813073 -0.41791681 -0.53895109
0.83813073 -0.41791681 -0.41918418
0.89801419 -0.41791681 -0.35930073
0.89801419 -0.47780026 -0.29941727
0.89801419 -0.47780026 0.17965036
0.89801419 -0.41791681 0.23953382
0.83813073 -0.41791681 0.29941727
0.83813073 -0.41791681 0.41918418
0.83813073 -0.29814990 -0.53895109
0.89801419 -0.29814990 -0.47906764
0.89801419 -0.35803335 -0.41918418
0.89801419 -0.35803335 0.29941727
0.89801419 -0.35803335 0.41918418
0.83813073 -0.29814990 0.53895109
0.89801419 -0.29814990 0.47906764
0.83813073 -0.17838299 -0.65871800
0.89801419 -0.17838299 -0.59883455
0.89801419 -0.23826644 -0.53895109
0.83813073 -0.17838299 0.53895109
0.89801419 -0.17838299 0.47906764
0.83813073 -0.17838299 0.65871800
0.83813073 -0.05861608 -0.65871800
0.89801419 -0.05861608 -0.59883455
0.83813073 -0.05861608 0.53895109
0.89801419 -0.05861608 0.47906764
0.83813073 -0.05861608 0.65871800
0.83813073 0.06115083 -0.65871800
0.89801419 0.06115083 -0.59883455
0.83813073 0.06115083 0.53895109
0.89801419 0.06115083 0.47906764
0.83813073 0.18091774 -0.65871800
0.89801419 0.18091774 -0.59883455
0.83813073 0.18091774 0.53895109
0.89801419 0.18091774 0.47906764
0.83813073 0.18091774 0.65871800
0.83813073 0.30068465 -0.65871800
0.89801419 0.30068465 -0.59883455
0.83813073 0.30068465 0.53895109
0.89801419 0.30068465 0.47906764
0.83813073 0.30068465 0.65871800
0.83813073 0.42045156 -0.53895109
0.89801419 0.36056810 -0.53895109
0.83813073 0.42045156 -0.41918418
0.89801419 0.36056810 -0.41918418
0.89801419 0.42045156 -0.35930073
0.83813073 0.42045156 0.41918418
0.89801419 0.36056810 0.41918418
0.89801419 0.42045156 0.35930073
0.83813073 0.42045156 0.53895109
0.83813073 0.54021847 -0.41918418
0.89801419 0.48033501 -0.29941727
0.83813073 0.54021847 -0.29941727
0.89801419 0.54021847 -0.23953382
0.83813073 0.54021847 0.41918418
0.89801419 0.54021847 0.35930073
0.83813073 0.65998538 -0.17965036
0.89801419 0.60010192 -0.17965036
0.89801419 0.60010192 -0.05988345
0.83813073 0.65998538 0.05988345
0.89801419 0.60010192 0.05988345
0.83813073 0.65998538 0.17965036
0.89801419 0.60010192 0.17965036
0.83813073 0.65998538 0.29941727
0.89801419 0.60010192 0.29941727
0.83813073 0.65998538 0.41918418
0.83813073 0.65998538 0.53895109
0.95789764 -0.53768372 -0.17965036
0.95789764 -0.53768372 -0.05988345
0.95789764 -0.53768372 0.05988345
0.95789764 -0.41791681 -0.29941727
0.95789764 -0.41791681 -0.17965036
0.95789764 -0.41791681 -0.05988345
0.95789764 -0.41791681 0.05988345
0.95789764 -0.41791681 0.17965036
0.95789764 -0.29814990 -0.41918418
0.95789764 -0.29814990 -0.29941727
1.01778110 -0.29814990 -0.23953382
1.01778110 -0.35803335 -0.17965036
1.01778110 -0.35803335 -0.05988345
1.01778110 -0.35803335 0.05988345
1.01778110 -0.29814990 0.11976691
0.95789764 -0.29814990 0.17965036
0.95789764 -0.29814990 0.29941727
0.95789764 -0.29814990 0.41918418
0.95789764 -0.17838299 -0.53895109
0.95789764 -0.17838299 -0.41918418
0.95789764 -0.17838299 -0.29941727
1.01778110 -0.17838299 -0.23953382
1.01778110 -0.23826644 0.17965036
1.01778110 -0.17838299 0.23953382
0.95789764 -0.17838299 0.29941727
0.95789764 -0.17838299 0.41918418
0.95789764 -0.05861608 -0.53895109
0.95789764 -0.05861608 -0.41918418
1.01778110 -0.05861608 -0.35930073
1.01778110 -0.11849953 -0.29941727
0.95789764 -0.05861608 0.29941727
1.01778110 -0.05861608 0.23953382
0.95789764 -0.05861608 0.41918418
0.95789764 0.06115083 -0.53895109
0.95789764 0.06115083 -0.41918418
1.01778110 0.00126737 -0.29941727
0.95789764 0.06115083 -0.29941727
1.01778110 0.06115083 -0.23953382
0.95789764 0.06115083 0.29941727
1.01778110 0.06115083 0.23953382
0.95789764 0.06115083 0.41918418
0.95789764 0.18091774 -0.53895109
0.95789764 0.18091774 -0.41918418
1.01778110 0.18091774 -0.35930073
1.01778110 0.12103428 -0.29941727
0.95789764 0.18091774 0.29941727
1.01778110 0.18091774 0.23953382
0.95789764 0.18091774 0.41918418
0.95789764 0.30068465 -0.53895109
0.95789764 0.30068465 -0.41918418
1.01778110 0.24080119 -0.29941727
0.95789764 0.30068465 -0.29941727
1.01778110 0.30068465 -0.23953382
0.95789764 0.30068465 0.29941727
1.01778110 0.30068465 0.23953382
0.95789764 0.30068465 0.41918418
0.95789764 0.42045156 -0.29941727
1.01778110 0.36056810 -0.17965036
0.95789764 0.42045156 -0.17965036
0.95789764 0.42045156 -0.05988345
1.01778110 0.36056810 -0.05988345
0.95789764 0.42045156 0.05988345
1.01778110 0.36056810 0.05988345
0.95789764 0.42045156 0.17965036
1.01778110 0.36056810 0.17965036
0.95789764 0.42045156 0.29941727
0.95789764 0.54021847 -0.17965036
0.95789764 0.54021847 -0.05988345
0.95789764 0.54021847 0.05988345
0.95789764 0.54021847 0.17965036
0.95789764 0.54021847 0.29941727
1.07766455 -0.29814990 -0.17965036
1.07766455 -0.29814990 -0.05988345
1.07766455 -0.29814990 0.05988345
1.07766455 -0.17838299 -0.17965036
1.07766455 -0.17838299 -0.05988345
1.07766455 -0.17838299 0.05988345
1.07766455 -0.17838299 0.17965036
1.07766455 -0.05861608 -0.29941727
1.07766455 -0.05861608 -0.17965036
1.07766455 -0.05861608 -0.05988345
1.07766455 -0.05861608 0.05988345
1.07766455 -0.05861608 0.17965036
1.07766455 0.06115083 -0.17965036
1.07766455 0.06115083 -0.05988345
1.07766455 0.06115083 0.05988345
1.07766455 0.06115083 0.17965036
1.07766455 0.18091774 -0.29941727
1.07766455 0.18091774 -0.17965036
1.07766455 0.18091774 -0.05988345
1.07766455 0.18091774 0.05988345
1.07766455 0.18091774 0.17965036
1.07766455 0.30068465 -0.17965036
1.07766455 0.30068465 -0.05988345
1.07766455 0.30068465 0.05988345
1.07766455 0.30068465 0.17965036
3 2 1 0
3 4 3 0
3 0 3 2
3 6 5 4
3 4 5 3
3 8 7 6
3 6 7 5
3 10 9 8
3 8 9 7
3 10 11 9
3 0 1 12
3 12 1 13
3 0 14 4
3 0 12 14
3 4 15 6
3 4 14 15
3 6 16 8
3 6 15 16
3 8 17 10
3 8 16 17
3 11 10 18
3 18 10 17
3 12 13 19
3 19 13 20
3 12 21 14
3 12 19 21
3 14 22 15
3 14 21 22
3 15 23 16
3 15 22 23
3 16 24 17
3 16 23 24
3 18 17 25
3 25 17 24
3 19 20 26
3 26 20 27
3 19 28 21
3 19 26 28
3 21 29 22
3 21 28 29
3 22 30 23
3 22 29 30
3 23 31 24
3 23 30 31
3 25 24 32
3 32 24 31
3 26 27 33
3 33 27 34
3 26 35 28
3 26 33 35
3 28 36 29
3 28 35 36
3 29 37 30
3 29 36 37
3 30 38 31
3 30 37 38
3 32 31 39
3 39 31 38
3 33 34 40
3 40 34 41
3 33 42 35
3 33 40 42
3 35 43 36
3 35 42 43
3 36 44 37
3 36 43 44
3 37 45 38
3 37 44 45
3 39 38 46
3 46 38 45
3 41 47 40
3 40 47 42
3 42 47 48
3 42 48 43
3 43 48 49
3 43 49 44
3 44 49 50
3 44 50 45
3 45 50 51
3 45 51 46
3 54 53 52
3 56 55 52
3 52 55 54
3 58 57 56
3 56 57 55
3 60 59 58
3 58 59 57
3 62 61 60
3 60 61 59
3 64 63 62
3 62 63 61
3 64 65 63
3 68 67 66
3 68 66 53
3 66 52 53
3 66 69 52
3 52 70 56
3 52 69 70
3 56 71 58
3 56 70 71
3 58 72 60
3 58 71 72
3 60 73 62
3 60 72 73
3 62 74 64
3 62 73 74
3 65 64 75
3 64 76 75
3 64 74 76
3 76 77 75
3 66 67 78
3 78 67 79
3 78 1 2
3 69 78 2
3 66 78 69
3 69 2 3
3 69 3 70
3 70 3 5
3 70 5 71
3 71 5 7
3 71 7 72
3 72 7 9
3 72 9 73
3 73 9 11
3 80 73 11
3 74 73 80
3 74 81 76
3 74 80 81
3 77 76 82
3 82 76 81
3 85 84 83
3 85 83 79
3 83 78 79
3 83 86 78
3 86 13 1
3 86 1 78
3 18 87 80
3 18 80 11
3 80 88 81
3 80 87 88
3 82 81 89
3 81 90 89
3 81 88 90
3 90 91 89
3 83 84 92
3 92 84 93
3 83 94 86
3 83 92 94
3 94 20 13
3 94 13 86
3 25 95 87
3 25 87 18
3 87 96 88
3 87 95 96
3 88 97 90
3 88 96 97
3 91 90 98
3 98 90 97
3 92 93 99
3 99 93 100
3 92 101 94
3 92 99 101
3 101 27 20
3 101 20 94
3 32 102 95
3 32 95 25
3 95 103 96
3 95 102 103
3 96 104 97
3 96 103 104
3 98 97 105
3 105 97 104
3 99 100 106
3 106 100 107
3 99 108 101
3 99 106 108
3 108 34 27
3 108 27 101
3 39 109 102
3 39 102 32
3 102 110 103
3 102 109 110
3 103 111 104
3 103 110 111
3 105 104 112
3 112 104 111
3 107 113 106
3 115 114 113
3 114 106 113
3 114 108 106
3 114 41 34
3 114 34 108
3 46 116 109
3 46 109 39
3 109 117 110
3 109 116 117
3 119 111 118
3 111 117 118
3 111 110 117
3 111 119 112
3 114 115 120
3 120 115 121
3 122 47 41
3 114 122 41
3 120 122 114
3 123 48 47
3 123 47 122
3 124 49 48
3 124 48 123
3 125 50 49
3 125 49 124
3 126 51 50
3 126 50 125
3 116 46 51
3 126 116 51
3 127 116 126
3 116 128 117
3 116 127 128
3 118 117 129
3 129 117 128
3 121 130 120
3 132 131 130
3 131 120 130
3 131 122 120
3 122 133 123
3 122 131 133
3 123 134 124
3 123 133 134
3 124 135 125
3 124 134 135
3 125 136 126
3 125 135 136
3 126 137 127
3 126 136 137
3 139 128 138
3 128 137 138
3 128 127 137
3 128 139 129
3 132 140 131
3 131 140 133
3 133 140 141
3 133 141 134
3 134 141 142
3 134 142 135
3 135 142 143
3 135 143 136
3 136 143 144
3 136 144 137
3 137 144 145
3 137 145 138
3 148 147 146
3 150 149 146
3 146 149 148
3 152 151 150
3 150 151 149
3 154 153 152
3 152 153 151
3 156 155 154
3 154 155 153
3 158 157 156
3 156 157 155
3 160 159 158
3 158 159 157
3 160 161 159
3 146 147 162
3 162 147 163
3 162 53 54
3 150 162 54
3 146 162 150
3 150 54 55
3 150 55 152
3 152 55 57
3 152 57 154
3 154 57 59
3 154 59 156
3 156 59 61
3 156 61 158
3 158 61 63
3 158 63 160
3 165 164 65
3 65 164 63
3 164 161 63
3 161 160 63
3 165 166 164
3 169 168 167
3 169 167 163
3 163 167 162
3 167 67 162
3 67 68 162
3 162 68 53
3 75 165 65
3 171 170 77
3 77 170 75
3 170 166 75
3 166 165 75
3 171 172 170
3 175 174 173
3 175 173 168
3 173 167 168
3 173 176 167
3 176 79 67
3 176 67 167
3 82 177 171
3 82 171 77
3 172 171 178
3 178 171 177
3 173 174 179
3 179 174 180
3 179 84 85
3 176 179 85
3 173 179 176
3 176 85 79
3 89 177 82
3 182 181 91
3 91 181 89
3 181 178 89
3 178 177 89
3 182 183 181
3 179 180 184
3 184 180 185
3 184 93 84
3 184 84 179
3 98 186 182
3 98 182 91
3 183 182 187
3 187 182 186
3 184 185 188
3 188 185 189
3 188 100 93
3 188 93 184
3 105 190 186
3 105 186 98
3 187 186 191
3 191 186 190
3 188 189 192
3 192 189 193
3 192 107 100
3 192 100 188
3 112 194 190
3 112 190 105
3 191 190 195
3 195 190 194
3 193 196 192
3 196 198 197
3 196 197 113
3 192 196 113
3 107 192 113
3 197 115 113
3 201 200 199
3 202 199 200
3 118 203 119
3 203 204 119
3 119 204 112
3 204 205 112
3 205 194 112
3 194 205 195
3 197 198 206
3 206 198 207
3 206 121 115
3 206 115 197
3 208 201 199
3 208 199 202
3 129 209 203
3 129 203 118
3 204 203 210
3 210 203 209
3 207 211 206
3 211 213 212
3 211 212 130
3 206 211 130
3 121 206 130
3 212 132 130
3 138 214 139
3 214 215 139
3 139 215 129
3 215 216 129
3 216 209 129
3 209 216 210
3 212 213 217
3 217 213 218
3 219 140 132
3 212 219 132
3 217 219 212
3 220 141 140
3 220 140 219
3 221 142 141
3 221 141 220
3 222 143 142
3 222 142 221
3 223 144 143
3 223 143 222
3 224 145 144
3 224 144 223
3 224 225 145
3 145 225 138
3 225 226 138
3 226 214 138
3 214 226 215
3 218 227 217
3 217 227 219
3 219 227 228
3 219 228 220
3 220 228 229
3 220 229 221
3 221 229 230
3 221 230 222
3 222 230 231
3 222 231 223
3 223 231 232
3 223 232 224
3 224 232 233
3 224 233 225
3 236 235 234
3 238 237 234
3 234 237 236
3 240 239 238
3 238 239 237
3 242 241 240
3 240 241 239
3 244 243 242
3 242 243 241
3 246 245 244
3 244 245 243
3 248 247 246
3 246 247 245
3 248 249 247
3 234 235 148
3 235 147 148
3 235 250 147
3 234 148 149
3 234 149 238
3 238 149 151
3 238 151 240
3 240 151 153
3 240 153 242
3 242 153 155
3 242 155 244
3 244 155 157
3 244 157 246
3 246 157 159
3 246 159 248
3 252 251 161
3 161 251 159
3 251 249 159
3 249 248 159
3 252 253 251
3 256 255 254
3 250 256 254
3 163 250 254
3 147 250 163
3 164 252 161
3 258 257 166
3 166 257 164
3 257 253 164
3 253 252 164
3 258 259 257
3 262 261 260
3 262 260 255
3 255 260 254
3 260 168 254
3 168 169 254
3 254 169 163
3 170 258 166
3 264 263 172
3 172 263 170
3 263 259 170
3 259 258 170
3 264 265 263
3 260 261 175
3 261 174 175
3 261 266 174
3 260 175 168
3 178 267 264
3 178 264 172
3 265 264 268
3 268 264 267
3 266 180 174
3 269 180 266
3 181 267 178
3 181 183 267
3 183 268 267
3 183 270 268
3 269 185 180
3 271 185 269
3 187 270 183
3 187 272 270
3 271 189 185
3 273 189 271
3 191 272 187
3 191 274 272
3 273 193 189
3 275 193 273
3 278 277 276
3 279 276 277
3 195 274 191
3 195 280 274
3 196 193 281
3 193 282 281
3 193 275 282
3 281 198 196
3 201 283 200
3 283 202 200
3 284 278 276
3 284 276 279
3 204 285 205
3 285 286 205
3 286 195 205
3 286 280 195
3 281 282 287
3 287 282 288
3 287 207 198
3 287 198 281
3 208 283 201
3 283 208 202
3 210 289 285
3 210 285 204
3 286 285 290
3 290 285 289
3 288 291 287
3 291 293 292
3 291 292 211
3 287 291 211
3 207 287 211
3 292 213 211
3 215 294 216
3 294 295 216
3 216 295 210
3 295 296 210
3 296 289 210
3 289 296 290
3 293 297 292
3 213 292 297
3 298 213 297
3 218 213 298
3 225 299 226
3 299 300 226
3 226 300 215
3 300 301 215
3 301 294 215
3 294 301 295
3 298 302 218
3 218 302 227
3 302 304 303
3 228 302 303
3 227 302 228
3 305 229 228
3 305 228 303
3 306 230 229
3 306 229 305
3 307 231 230
3 307 230 306
3 308 232 231
3 308 231 307
3 309 233 232
3 309 232 308
3 309 310 233
3 233 310 225
3 310 311 225
3 311 299 225
3 299 311 300
3 304 312 303
3 303 312 305
3 305 312 313
3 305 313 306
3 306 313 314
3 306 314 307
3 307 314 315
3 307 315 308
3 308 315 316
3 308 316 309
3 309 316 317
3 309 317 310
3 320 319 318
3 322 321 318
3 318 321 320
3 324 323 322
3 322 323 321
3 326 325 324
3 324 325 323
3 328 327 326
3 326 327 325
3 330 329 328
3 328 329 327
3 330 331 329
3 333 332 236
3 236 332 235
3 237 318 319
3 333 237 319
3 236 237 333
3 318 237 239
3 318 239 322
3 322 239 241
3 322 241 324
3 324 241 243
3 324 243 326
3 326 243 245
3 326 245 328
3 328 245 247
3 328 247 330
3 335 334 249
3 249 334 247
3 334 331 247
3 331 330 247
3 335 336 334
3 339 338 337
3 332 339 337
3 250 332 337
3 235 332 250
3 251 335 249
3 341 340 253
3 253 340 251
3 340 336 251
3 336 335 251
3 341 342 340
3 345 344 343
3 345 343 338
3 338 343 337
3 343 255 337
3 255 256 337
3 337 256 250
3 257 341 253
3 347 346 259
3 259 346 257
3 346 342 257
3 342 341 257
3 347 348 346
3 343 344 262
3 344 261 262
3 344 349 261
3 343 262 255
3 263 347 259
3 263 265 347
3 265 348 347
3 265 350 348
3 353 352 351
3 349 353 351
3 266 349 351
3 261 349 266
3 268 355 354
3 350 268 354
3 265 268 350
3 355 356 354
3 351 352 357
3 357 352 358
3 357 269 266
3 357 266 351
3 270 359 355
3 270 355 268
3 356 355 360
3 360 355 359
3 357 358 361
3 361 358 362
3 361 271 269
3 361 269 357
3 272 363 359
3 272 359 270
3 360 359 364
3 364 359 363
3 361 362 365
3 365 362 366
3 365 273 271
3 365 271 361
3 274 367 363
3 274 363 272
3 364 363 368
3 368 363 367
3 365 366 369
3 369 366 370
3 369 275 273
3 369 273 365
3 278 371 277
3 371 279 277
3 280 372 367
3 280 367 274
3 368 367 373
3 373 367 372
3 369 370 374
3 374 370 375
3 374 282 275
3 374 275 369
3 284 371 278
3 371 284 279
3 286 376 372
3 286 372 280
3 373 372 377
3 377 372 376
3 375 378 374
3 282 374 378
3 379 282 378
3 288 282 379
3 381 380 376
3 286 381 376
3 290 381 286
3 376 380 377
3 291 288 382
3 288 383 382
3 288 379 383
3 382 293 291
3 295 384 296
3 384 385 296
3 385 290 296
3 385 381 290
3 383 386 382
3 386 388 387
3 386 387 297
3 382 386 297
3 293 382 297
3 387 298 297
3 300 389 301
3 389 390 301
3 301 390 295
3 390 391 295
3 391 384 295
3 384 391 385
3 388 392 387
3 392 394 393
3 392 393 302
3 387 392 302
3 298 387 302
3 393 304 302
3 310 395 311
3 395 396 311
3 311 396 300
3 396 397 300
3 397 389 300
3 389 397 390
3 394 398 393
3 398 400 399
3 398 399 312
3 393 398 312
3 304 393 312
3 401 313 312
3 401 312 399
3 402 314 313
3 402 313 401
3 403 315 314
3 403 314 402
3 404 316 315
3 404 315 403
3 316 404 405
3 406 316 405
3 317 316 406
3 310 317 395
3 317 407 395
3 317 406 407
3 395 407 396
3 400 408 399
3 399 408 401
3 401 408 409
3 401 409 402
3 402 409 410
3 402 410 403
3 403 410 411
3 403 411 404
3 404 411 412
3 404 412 405
3 415 414 413
3 319 320 413
3 320 415 413
3 320 416 415
3 417 320 321
3 417 416 320
3 418 321 323
3 418 417 321
3 419 323 325
3 419 418 323
3 420 325 327
3 420 419 325
3 421 327 329
3 421 420 327
3 329 331 421
3 421 331 422
3 425 424 423
3 425 423 414
3 414 423 413
3 423 332 413
3 332 333 413
3 413 333 319
3 426 422 331
3 426 331 334
3 428 427 336
3 427 334 336
3 427 426 334
3 428 429 427
3 432 431 430
3 432 430 424
3 424 430 423
3 430 338 423
3 338 339 423
3 423 339 332
3 340 428 336
3 434 433 342
3 342 433 340
3 433 429 340
3 429 428 340
3 434 435 433
3 430 431 345
3 431 344 345
3 431 436 344
3 430 345 338
3 346 434 342
3 346 348 434
3 348 435 434
3 348 437 435
3 440 439 438
3 436 440 438
3 349 436 438
3 344 436 349
3 350 442 441
3 437 350 441
3 348 350 437
3 442 443 441
3 438 439 353
3 439 352 353
3 439 444 352
3 438 353 349
3 354 442 350
3 354 356 442
3 356 443 442
3 356 445 443
3 444 358 352
3 446 358 444
3 360 445 356
3 360 447 445
3 446 362 358
3 448 362 446
3 364 447 360
3 364 449 447
3 448 366 362
3 450 366 448
3 368 452 451
3 449 368 451
3 364 368 449
3 452 453 451
3 450 370 366
3 454 370 450
3 373 455 452
3 373 452 368
3 453 452 456
3 456 452 455
3 454 375 370
3 457 375 454
3 459 458 455
3 373 459 455
3 377 459 373
3 455 458 456
3 378 375 460
3 375 461 460
3 375 457 461
3 460 379 378
3 381 462 380
3 462 463 380
3 463 377 380
3 463 459 377
3 461 464 460
3 379 460 464
3 465 379 464
3 383 379 465
3 467 466 462
3 381 467 462
3 385 467 381
3 462 466 463
3 386 383 468
3 383 469 468
3 383 465 469
3 468 388 386
3 390 470 391
3 470 471 391
3 471 385 391
3 471 467 385
3 469 472 468
3 472 474 473
3 472 473 392
3 468 472 392
3 388 468 392
3 473 394 392
3 476 475 397
3 476 397 396
3 390 397 470
3 397 477 470
3 397 475 477
3 470 477 471
3 474 478 473
3 478 480 479
3 478 479 398
3 473 478 398
3 394 473 398
3 479 400 398
3 405 481 406
3 406 481 482
3 483 406 482
3 407 406 483
3 396 407 476
3 476 407 483
3 480 484 479
3 479 484 400
3 484 408 400
3 484 485 408
3 408 486 409
3 485 486 408
3 409 487 410
3 486 487 409
3 410 488 411
3 487 488 410
3 411 489 412
3 488 489 411
3 405 412 481
3 412 490 481
3 412 489 490
3 481 490 482
3 493 492 491
3 495 494 491
3 491 494 493
3 497 496 495
3 495 496 494
3 499 498 497
3 497 498 496
3 501 500 499
3 499 500 498
3 501 502 500
3 505 504 503
3 414 415 503
3 415 505 503
3 415 506 505
3 416 491 492
3 506 416 492
3 415 416 506
3 491 416 417
3 491 417 495
3 495 417 418
3 495 418 497
3 497 418 419
3 497 419 499
3 499 419 420
3 499 420 501
3 507 502 501
3 420 507 501
3 421 507 420
3 509 508 422
3 508 421 422
3 508 507 421
3 509 510 508
3 503 504 425
3 504 424 425
3 504 511 424
3 503 425 414
3 514 513 512
3 515 512 513
3 426 509 422
3 516 510 509
3 426 516 509
3 427 516 426
3 427 429 516
3 516 429 517
3 519 518 432
3 432 518 431
3 432 424 511
3 432 511 519
3 520 514 512
3 520 512 515
3 521 517 429
3 521 429 433
3 433 435 521
3 521 435 522
3 525 524 523
3 518 525 523
3 436 518 523
3 431 518 436
3 437 527 526
3 522 437 526
3 435 437 522
3 527 528 526
3 523 524 440
3 524 439 440
3 524 529 439
3 523 440 436
3 441 527 437
3 441 443 527
3 443 528 527
3 443 530 528
3 533 532 531
3 529 533 531
3 444 529 531
3 439 529 444
3 445 535 534
3 530 445 534
3 443 445 530
3 535 536 534
3 531 532 537
3 537 532 538
3 537 446 444
3 537 444 531
3 447 539 535
3 447 535 445
3 536 535 540
3 540 535 539
3 537 538 541
3 541 538 542
3 541 448 446
3 541 446 537
3 449 543 539
3 449 539 447
3 540 539 544
3 544 539 543
3 541 542 545
3 545 542 546
3 545 450 448
3 545 448 541
3 451 543 449
3 451 453 543
3 453 544 543
3 453 547 544
3 545 546 548
3 548 546 549
3 548 454 450
3 548 450 545
3 456 547 453
3 456 550 547
3 548 549 551
3 551 549 552
3 551 457 454
3 551 454 548
3 459 553 458
3 553 554 458
3 554 456 458
3 554 550 456
3 552 555 551
3 457 551 555
3 556 457 555
3 461 457 556
3 558 557 553
3 459 558 553
3 463 558 459
3 553 557 554
3 464 461 559
3 461 560 559
3 461 556 560
3 559 465 464
3 562 561 466
3 562 466 467
3 463 466 558
3 558 466 561
3 560 563 559
3 465 559 563
3 564 465 563
3 469 465 564
3 471 562 467
3 471 565 562
3 472 469 566
3 469 567 566
3 469 564 567
3 566 474 472
3 476 568 475
3 475 568 569
3 570 475 569
3 477 475 570
3 471 477 565
3 565 477 570
3 567 571 566
3 566 571 474
3 571 478 474
3 571 572 478
3 480 478 572
3 480 572 573
3 575 574 483
3 575 483 482
3 476 483 568
3 483 576 568
3 483 574 576
3 568 576 569
3 573 577 480
3 480 577 484
3 577 579 578
3 485 577 578
3 484 577 485
3 580 486 485
3 580 485 578
3 581 487 486
3 581 486 580
3 582 488 487
3 582 487 581
3 583 489 488
3 583 488 582
3 489 583 584
3 585 489 584
3 490 489 585
3 482 490 575
3 575 490 585
3 579 586 578
3 578 586 580
3 580 586 587
3 580 587 581
3 581 587 588
3 581 588 582
3 582 588 589
3 582 589 583
3 583 589 590
3 583 590 584
3 592 591 493
3 493 591 492
3 593 493 494
3 593 592 493
3 594 494 496
3 594 593 494
3 595 496 498
3 595 594 496
3 596 498 500
3 596 595 498
3 500 502 596
3 596 502 597
3 599 598 505
3 505 598 504
3 600 505 506
3 600 599 505
3 506 492 591
3 506 591 600
3 601 597 502
3 601 502 507
3 602 507 508
3 602 601 507
3 604 603 510
3 603 508 510
3 603 602 508
3 604 605 603
3 608 607 606
3 598 608 606
3 511 598 606
3 504 598 511
3 514 609 513
3 515 513 609
3 612 611 610
3 613 612 610
3 516 604 510
3 615 614 517
3 517 614 516
3 614 605 516
3 605 604 516
3 615 616 614
3 606 607 519
3 607 518 519
3 607 617 518
3 606 519 511
3 520 609 514
3 612 618 611
3 515 609 520
3 618 612 613
3 621 620 619
3 517 521 615
3 619 620 622
3 521 522 615
3 522 616 615
3 522 623 616
3 625 624 525
3 525 624 524
3 525 518 617
3 525 617 625
3 626 621 619
3 626 619 622
3 522 526 627
3 628 522 627
3 623 522 628
3 528 627 526
3 631 630 629
3 624 631 629
3 529 624 629
3 524 624 529
3 632 628 627
3 528 530 627
3 530 633 627
3 633 632 627
3 633 530 634
3 634 635 633
3 629 630 533
3 630 532 533
3 630 636 532
3 629 533 529
3 534 634 530
3 534 536 634
3 536 635 634
3 536 637 635
3 636 538 532
3 638 538 636
3 540 637 536
3 540 639 637
3 638 542 538
3 640 542 638
3 544 639 540
3 544 641 639
3 640 546 542
3 642 546 640
3 547 641 544
3 547 643 641
3 642 549 546
3 644 549 642
3 550 643 547
3 550 645 643
3 644 552 549
3 646 552 644
3 554 645 550
3 554 647 645
3 555 552 648
3 552 649 648
3 552 646 649
3 648 556 555
3 651 650 557
3 651 557 558
3 554 557 647
3 647 557 650
3 649 652 648
3 556 648 652
3 653 556 652
3 560 556 653
3 562 654 561
3 654 655 561
3 655 558 561
3 655 651 558
3 563 560 656
3 560 657 656
3 560 653 657
3 656 564 563
3 659 658 654
3 562 659 654
3 565 659 562
3 654 658 655
3 657 660 656
3 564 656 660
3 661 564 660
3 567 564 661
3 569 662 570
3 662 663 570
3 663 565 570
3 663 659 565
3 661 664 567
3 567 664 571
3 664 666 665
3 572 664 665
3 571 664 572
3 665 573 572
3 575 667 574
3 668 576 574
3 668 574 667
3 668 669 576
3 576 669 569
3 669 670 569
3 670 662 569
3 662 670 663
3 666 671 665
3 665 671 573
3 671 577 573
3 671 672 577
3 579 577 672
3 579 672 673
3 675 674 585
3 675 585 584
3 575 585 667
3 585 676 667
3 585 674 676
3 667 676 668
3 668 676 677
3 668 677 669
3 673 678 579
3 579 678 586
3 586 679 587
3 678 679 586
3 587 680 588
3 679 680 587
3 588 681 589
3 680 681 588
3 589 682 590
3 681 682 589
3 584 590 675
3 675 590 682
3 684 683 592
3 592 683 591
3 685 592 593
3 685 684 592
3 686 593 594
3 686 685 593
3 687 594 595
3 687 686 594
3 688 595 596
3 688 687 595
3 596 597 688
3 688 597 689
3 691 690 599
3 599 690 598
3 692 599 600
3 692 691 599
3 600 591 683
3 600 683 692
3 693 689 597
3 693 597 601
3 694 601 602
3 694 693 601
3 695 602 603
3 695 694 602
3 603 605 695
3 695 605 696
3 698 697 608
3 608 697 607
3 608 598 690
3 608 690 698
3 611 699 610
3 699 613 610
3 700 696 605
3 700 605 614
3 614 616 700
3 700 616 701
3 697 617 607
3 702 617 697
3 618 699 611
3 699 618 613
3 621 703 620
3 703 622 620
3 623 701 616
3 623 704 701
3 706 705 625
3 625 705 624
3 625 617 702
3 625 702 706
3 626 703 621
3 703 626 622
3 628 708 707
3 704 628 707
3 623 628 704
3 708 709 707
3 711 710 631
3 631 710 630
3 631 624 705
3 631 705 711
3 632 708 628
3 712 709 708
3 632 712 708
3 633 712 632
3 633 635 712
3 712 635 713
3 710 636 630
3 714 636 710
3 637 713 635
3 637 715 713
3 714 638 636
3 716 638 714
3 639 715 637
3 639 717 715
3 716 640 638
3 718 640 716
3 641 717 639
3 641 719 717
3 718 642 640
3 720 642 718
3 643 719 641
3 643 721 719
3 720 644 642
3 722 644 720
3 645 721 643
3 645 723 721
3 722 646 644
3 724 646 722
3 647 723 645
3 647 725 723
3 724 649 646
3 726 649 724
3 651 727 650
3 727 728 650
3 728 647 650
3 728 725 647
3 726 729 649
3 649 729 652
3 653 652 729
3 653 729 730
3 732 731 727
3 651 732 727
3 655 732 651
3 727 731 728
3 730 657 653
3 733 657 730
3 659 734 658
3 734 735 658
3 735 655 658
3 735 732 655
3 733 736 657
3 657 736 660
3 661 660 736
3 661 736 737
3 739 738 734
3 659 739 734
3 663 739 659
3 734 738 735
3 737 740 661
3 661 740 664
3 666 664 740
3 666 740 741
3 744 743 742
3 670 669 742
3 743 670 742
3 745 670 743
3 663 670 739
3 739 670 745
3 741 746 666
3 666 746 671
3 671 747 672
3 746 747 671
3 673 672 747
3 673 747 748
3 750 749 674
3 750 674 675
3 674 751 676
3 749 751 674
3 742 677 744
3 677 751 744
3 677 676 751
3 677 742 669
3 748 752 673
3 673 752 678
3 678 753 679
3 752 753 678
3 679 754 680
3 753 754 679
3 680 755 681
3 754 755 680
3 681 756 682
3 755 756 681
3 675 682 750
3 750 682 756
3 758 757 684
3 684 757 683
3 759 684 685
3 759 758 684
3 760 685 686
3 760 759 685
3 761 686 687
3 761 760 686
3 762 687 688
3 762 761 687
3 688 689 762
3 762 689 763
3 765 764 691
3 691 764 690
3 766 691 692
3 766 765 691
3 692 683 757
3 692 757 766
3 767 763 689
3 767 689 693
3 768 693 694
3 768 767 693
3 769 694 695
3 769 768 694
3 695 696 769
3 769 696 770
3 772 771 698
3 698 771 697
3 698 690 764
3 698 764 772
3 773 770 696
3 773 696 700
3 700 701 773
3 773 701 774
3 771 702 697
3 775 702 771
3 704 774 701
3 704 776 774
3 778 777 706
3 706 777 705
3 706 702 775
3 706 775 778
3 779 776 704
3 779 704 707
3 707 709 779
3 779 709 780
3 782 781 711
3 711 781 710
3 711 705 777
3 711 777 782
3 783 780 709
3 783 709 712
3 712 713 783
3 783 713 784
3 781 714 710
3 785 714 781
3 715 784 713
3 715 786 784
3 785 716 714
3 787 716 785
3 717 786 715
3 717 788 786
3 787 718 716
3 789 718 787
3 719 788 717
3 719 790 788
3 789 720 718
3 791 720 789
3 721 790 719
3 721 792 790
3 791 722 720
3 793 722 791
3 723 792 721
3 723 794 792
3 793 724 722
3 795 724 793
3 725 794 723
3 725 796 794
3 795 726 724
3 797 726 795
3 728 796 725
3 728 798 796
3 797 799 726
3 726 799 729
3 730 729 799
3 730 799 800
3 802 801 731
3 802 731 732
3 728 731 798
3 798 731 801
3 800 733 730
3 803 733 800
3 735 802 732
3 735 804 802
3 803 805 733
3 733 805 736
3 737 736 805
3 737 805 806
3 808 807 738
3 808 738 739
3 735 738 804
3 804 738 807
3 806 809 737
3 737 809 740
3 741 740 809
3 741 809 810
3 812 811 743
3 812 743 744
3 743 813 745
3 811 813 743
3 739 745 808
3 808 745 813
3 810 814 741
3 741 814 746
3 746 815 747
3 814 815 746
3 748 747 815
3 748 815 816
3 818 817 749
3 818 749 750
3 749 819 751
3 817 819 749
3 744 751 812
3 812 751 819
3 816 820 748
3 748 820 752
3 752 821 753
3 820 821 752
3 753 822 754
3 821 822 753
3 754 823 755
3 822 823 754
3 755 824 756
3 823 824 755
3 750 756 818
3 818 756 824
3 825 757 758
3 825 758 826
3 758 827 826
3 758 759 827
3 828 759 760
3 828 827 759
3 829 760 761
3 829 828 760
3 831 829 830
3 829 762 830
3 829 761 762
3 763 830 762
3 832 764 765
3 832 765 833
3 765 834 833
3 765 766 834
3 766 757 825
3 835 766 825
3 834 766 835
3 835 825 826
3 836 831 830
3 836 830 763
3 767 836 763
3 837 836 767
3 838 767 768
3 838 837 767
3 839 768 769
3 839 838 768
3 769 770 839
3 839 770 840
3 842 841 772
3 772 841 771
3 772 764 832
3 843 772 832
3 842 772 843
3 843 832 833
3 844 840 770
3 844 770 773
3 773 774 844
3 844 774 845
3 841 775 771
3 846 775 841
3 776 845 774
3 776 847 845
3 849 848 778
3 778 848 777
3 778 775 846
3 778 846 849
3 850 847 776
3 850 776 779
3 779 780 850
3 850 780 851
3 853 852 782
3 782 852 781
3 782 777 848
3 782 848 853
3 854 851 780
3 854 780 783
3 783 784 854
3 854 784 855
3 852 785 781
3 856 785 852
3 786 855 784
3 786 857 855
3 856 787 785
3 858 787 856
3 788 857 786
3 788 859 857
3 858 789 787
3 860 789 858
3 790 859 788
3 790 861 859
3 860 791 789
3 862 791 860
3 792 861 790
3 792 863 861
3 862 793 791
3 864 793 862
3 794 863 792
3 794 865 863
3 864 795 793
3 866 795 864
3 796 865 794
3 796 867 865
3 866 797 795
3 868 797 866
3 798 867 796
3 798 869 867
3 868 870 797
3 797 870 799
3 800 799 870
3 800 870 871
3 873 872 801
3 873 801 802
3 798 801 869
3 869 801 872
3 871 803 800
3 874 803 871
3 877 876 875
3 876 873 875
3 873 804 875
3 873 802 804
3 874 878 803
3 803 878 805
3 806 805 878
3 806 878 879
3 882 881 880
3 883 880 881
3 877 875 807
3 808 877 807
3 884 877 808
3 807 875 804
3 879 885 806
3 806 885 809
3 810 809 885
3 810 885 886
3 887 882 880
3 887 880 883
3 889 888 811
3 889 811 812
3 811 890 813
3 888 890 811
3 808 813 884
3 884 813 890
3 886 891 810
3 810 891 814
3 814 892 815
3 891 892 814
3 816 815 892
3 816 892 893
3 895 894 817
3 895 817 818
3 817 896 819
3 894 896 817
3 812 819 889
3 889 819 896
3 893 897 816
3 816 897 820
3 820 898 821
3 897 898 820
3 821 899 822
3 898 899 821
3 822 900 823
3 899 900 822
3 823 901 824
3 900 901 823
3 818 824 895
3 895 824 901
3 903 902 827
3 827 902 826
3 904 827 828
3 904 903 827
3 905 828 829
3 905 904 828
3 829 831 905
3 905 831 906
3 908 907 834
3 834 907 833
3 909 834 835
3 909 908 834
3 835 826 902
3 835 902 909
3 910 906 831
3 910 831 836
3 911 836 837
3 911 910 836
3 912 837 838
3 912 911 837
3 914 912 913
3 912 839 913
3 912 838 839
3 840 913 839
3 915 841 842
3 915 842 916
3 842 917 916
3 842 843 917
3 843 833 907
3 843 907 917
3 918 914 913
3 920 918 919
3 919 918 844
3 918 913 844
3 913 840 844
3 845 919 844
3 922 921 915
3 921 841 915
3 921 846 841
3 922 915 916
3 920 919 923
3 920 923 924
3 847 923 845
3 845 923 919
3 926 925 849
3 849 925 848
3 849 846 921
3 849 921 926
3 927 924 923
3 927 923 847
3 850 927 847
3 928 927 850
3 850 851 928
3 928 851 929
3 930 852 853
3 931 930 853
3 848 931 853
3 925 931 848
3 851 854 932
3 933 851 932
3 929 851 933
3 855 932 854
3 935 934 930
3 934 852 930
3 934 856 852
3 935 930 931
3 933 932 936
3 933 936 937
3 857 936 855
3 855 936 932
3 934 858 856
3 938 858 934
3 937 936 939
3 937 939 940
3 859 939 857
3 857 939 936
3 938 860 858
3 941 860 938
3 942 940 939
3 939 859 942
3 859 943 942
3 859 861 943
3 941 862 860
3 944 862 941
3 863 943 861
3 863 945 943
3 944 864 862
3 946 864 944
3 865 945 863
3 865 947 945
3 946 866 864
3 948 866 946
3 867 947 865
3 867 949 947
3 951 868 950
3 868 948 950
3 868 866 948
3 952 951 950
3 955 954 953
3 954 949 953
3 949 869 953
3 949 867 869
3 951 870 868
3 871 870 951
3 952 871 951
3 956 871 952
3 955 953 872
3 873 955 872
3 957 955 873
3 872 953 869
3 956 874 871
3 958 874 956
3 960 959 876
3 960 876 877
3 873 876 957
3 957 876 959
3 958 961 874
3 874 961 878
3 879 878 961
3 879 961 962
3 882 963 881
3 963 883 881
3 966 965 964
3 965 960 964
3 960 884 964
3 960 877 884
3 962 967 879
3 879 967 885
3 886 885 967
3 886 967 968
3 887 963 882
3 963 887 883
3 971 970 969
3 973 972 969
3 973 969 970
3 888 889 972
3 973 888 972
3 974 888 973
3 964 890 966
3 890 974 966
3 890 888 974
3 890 964 884
3 968 975 886
3 886 975 891
3 891 976 892
3 975 976 891
3 893 892 976
3 893 976 977
3 971 969 894
3 895 971 894
3 978 971 895
3 894 969 896
3 896 969 972
3 896 972 889
3 977 979 893
3 893 979 897
3 897 980 898
3 979 980 897
3 898 981 899
3 980 981 898
3 899 982 900
3 981 982 899
3 900 983 901
3 982 983 900
3 895 901 978
3 978 901 983
3 984 902 903
3 904 985 903
3 903 985 984
3 905 986 904
3 904 986 985
3 906 986 905
3 988 987 908
3 908 987 907
3 989 908 909
3 989 988 908
3 909 902 984
3 990 909 984
3 989 909 990
3 990 984 985
3 990 985 991
3 991 985 986
3 991 986 992
3 992 986 906
3 910 992 906
3 993 992 910
3 994 910 911
3 994 993 910
3 995 911 912
3 995 994 911
3 912 914 995
3 995 914 996
3 998 997 917
3 917 997 916
3 917 907 987
3 917 987 998
3 1001 1000 999
3 1002 999 1000
3 1003 996 914
3 1003 914 918
3 918 920 1003
3 1003 920 1004
3 1006 1005 922
3 922 1005 921
3 922 916 997
3 922 997 1006
3 1007 1001 999
3 1007 999 1002
3 924 1009 1008
3 1004 924 1008
3 920 924 1004
3 1009 1010 1008
3 1011 925 926
3 1012 1011 926
3 921 1012 926
3 1005 1012 921
3 927 1009 924
3 927 928 1009
3 928 1013 1009
3 1013 1010 1009
3 928 1014 1013
3 929 1014 928
3 1016 1015 1011
3 1015 925 1011
3 1015 931 925
3 1016 1011 1012
3 1017 1013 1014
3 1014 929 1017
3 929 1018 1017
3 929 933 1018
3 1019 934 935
3 1020 1019 935
3 931 1020 935
3 1015 1020 931
3 937 1018 933
3 937 1021 1018
3 1023 1022 1019
3 1022 934 1019
3 1022 938 934
3 1023 1019 1020
3 940 1021 937
3 940 1024 1021
3 1022 941 938
3 1025 941 1022
3 1026 1024 940
3 1026 940 942
3 942 943 1026
3 1026 943 1027
3 1025 944 941
3 1028 944 1025
3 945 1027 943
3 945 1029 1027
3 1028 946 944
3 1030 946 1028
3 947 1029 945
3 947 1031 1029
3 1033 948 1032
3 948 1030 1032
3 948 946 1030
3 1034 1033 1032
3 1037 1036 1035
3 1036 1031 1035
3 1031 949 1035
3 1031 947 949
3 1033 950 948
3 952 950 1033
3 1034 952 1033
3 1038 952 1034
3 1037 1035 954
3 955 1037 954
3 1039 1037 955
3 954 1035 949
3 1038 956 952
3 1040 956 1038
3 957 1039 955
3 957 1041 1039
3 1043 958 1042
3 958 1040 1042
3 958 956 1040
3 1044 1043 1042
3 1046 1045 959
3 1046 959 960
3 957 959 1041
3 1041 959 1045
3 1043 961 958
3 1048 1047 962
3 1048 962 961
3 1044 1048 961
3 1043 1044 961
3 1049 1047 1048
3 1051 1050 965
3 1051 965 966
3 960 965 1046
3 1046 965 1050
3 1047 967 962
3 1053 1052 968
3 1053 968 967
3 1049 1053 967
3 1047 1049 967
3 1054 1052 1053
3 971 1055 970
3 970 1055 1056
3 1057 970 1056
3 973 970 1057
3 973 1058 974
3 1057 1058 973
3 966 974 1051
3 1051 974 1058
3 1052 975 968
3 1054 1059 1052
3 1059 975 1052
3 1059 976 975
3 1061 1060 977
3 976 1061 977
3 1059 1061 976
3 1063 1062 1060
3 1063 1060 1061
3 1065 1064 1062
3 1065 1062 1063
3 1067 1066 1064
3 1067 1064 1065
3 1069 1068 1066
3 1069 1066 1067
3 1069 1070 1055
3 978 1069 1055
3 971 978 1055
3 1068 1069 978
3 1055 1070 1056
3 1060 979 977
3 979 1060 980
3 980 1060 1062
3 980 1062 981
3 981 1062 1064
3 981 1064 982
3 982 1064 1066
3 982 1066 983
3 983 1066 1068
3 983 1068 978
3 1071 987 988
3 989 1072 988
3 988 1072 1071
3 1072 989 1073
3 989 1074 1073
3 989 990 1074
3 1075 990 991
3 1075 1074 990
3 1076 991 992
3 1076 1075 991
3 1078 1076 1077
3 1076 993 1077
3 1076 992 993
3 994 1079 993
3 993 1079 1077
3 995 1080 994
3 994 1080 1079
3 996 1080 995
3 1081 997 998
3 1082 1081 998
3 1082 998 987
3 1083 1082 987
3 1071 1083 987
3 1083 1071 1072
3 1083 1072 1084
3 1084 1072 1073
3 1001 1085 1000
3 1085 1002 1000
3 1086 1078 1077
3 1088 1087 1086
3 1077 1088 1086
3 1079 1088 1077
3 1080 1090 1089
3 1088 1080 1089
3 1079 1080 1088
3 1092 1090 1091
3 1091 1090 1003
3 1090 1080 1003
3 1080 996 1003
3 1004 1091 1003
3 1093 1005 1006
3 1094 1093 1006
3 1094 1006 997
3 1095 1094 997
3 1081 1095 997
3 1095 1081 1082
3 1007 1085 1001
3 1085 1007 1002
3 1096 1087 1088
3 1096 1088 1089
3 1097 1092 1091
3 1099 1097 1098
3 1098 1097 1008
3 1097 1091 1008
3 1091 1004 1008
3 1010 1098 1008
3 1101 1100 1093
3 1100 1005 1093
3 1100 1012 1005
3 1101 1093 1094
3 1102 1099 1098
3 1098 1010 1102
3 1010 1103 1102
3 1010 1013 1103
3 1104 1015 1016
3 1105 1104 1016
3 1012 1105 1016
3 1100 1105 1012
3 1013 1017 1106
3 1107 1013 1106
3 1103 1013 1107
3 1018 1106 1017
3 1109 1108 1104
3 1108 1015 1104
3 1108 1020 1015
3 1109 1104 1105
3 1110 1107 1106
3 1106 1018 1110
3 1018 1111 1110
3 1018 1021 1111
3 1112 1022 1023
3 1113 1112 1023
3 1020 1113 1023
3 1108 1113 1020
3 1024 1111 1021
3 1024 1114 1111
3 1115 1025 1112
3 1112 1025 1022
3 1112 1113 1116
3 1112 1116 1115
3 1024 1026 1117
3 1118 1024 1117
3 1114 1024 1118
3 1027 1117 1026
3 1119 1028 1115
3 1115 1028 1025
3 1115 1116 1120
3 1115 1120 1119
3 1118 1117 1121
3 1118 1121 1122
3 1029 1121 1027
3 1027 1121 1117
3 1123 1030 1119
3 1119 1030 1028
3 1119 1120 1124
3 1119 1124 1123
3 1122 1121 1125
3 1122 1125 1126
3 1031 1125 1029
3 1029 1125 1121
3 1123 1032 1030
3 1034 1032 1123
3 1124 1034 1123
3 1127 1034 1124
3 1126 1125 1036
3 1037 1126 1036
3 1128 1126 1037
3 1036 1125 1031
3 1127 1038 1034
3 1129 1038 1127
3 1039 1128 1037
3 1039 1130 1128
3 1132 1040 1131
3 1040 1129 1131
3 1040 1038 1129
3 1133 1132 1131
3 1136 1135 1134
3 1135 1130 1134
3 1130 1041 1134
3 1130 1039 1041
3 1132 1042 1040
3 1044 1042 1132
3 1133 1044 1132
3 1137 1044 1133
3 1136 1134 1045
3 1046 1136 1045
3 1138 1136 1046
3 1045 1134 1041
3 1137 1139 1044
3 1044 1139 1048
3 1141 1140 1049
3 1048 1141 1049
3 1139 1141 1048
3 1142 1140 1141
3 1145 1144 1143
3 1050 1051 1143
3 1144 1050 1143
3 1146 1050 1144
3 1046 1050 1138
3 1138 1050 1146
3 1140 1053 1049
3 1148 1147 1054
3 1148 1054 1053
3 1142 1148 1053
3 1140 1142 1053
3 1149 1147 1148
3 1152 1151 1150
3 1057 1056 1150
3 1151 1057 1150
3 1153 1057 1151
3 1143 1058 1145
3 1058 1153 1145
3 1058 1057 1153
3 1058 1143 1051
3 1147 1059 1054
3 1149 1154 1147
3 1154 1059 1147
3 1154 1061 1059
3 1061 1155 1063
3 1154 1155 1061
3 1063 1156 1065
3 1155 1156 1063
3 1065 1157 1067
3 1156 1157 1065
3 1067 1158 1069
3 1157 1158 1067
3 1150 1070 1152
3 1070 1158 1152
3 1070 1069 1158
3 1070 1150 1056
3 1159 1073 1074
3 1075 1160 1074
3 1074 1160 1159
3 1076 1161 1075
3 1075 1161 1160
3 1078 1161 1076
3 1162 1082 1083
3 1162 1083 1163
3 1083 1164 1163
3 1083 1084 1164
3 1084 1073 1159
3 1165 1084 1159
3 1164 1084 1165
3 1165 1159 1160
3 1165 1160 1166
3 1166 1160 1161
3 1166 1161 1167
3 1167 1161 1078
3 1086 1167 1078
3 1168 1167 1086
3 1086 1087 1168
3 1168 1087 1169
3 1170 1089 1090
3 1092 1170 1090
3 1171 1094 1095
3 1172 1171 1095
3 1172 1095 1082
3 1173 1172 1082
3 1162 1173 1082
3 1173 1162 1163
3 1174 1169 1087
3 1174 1087 1096
3 1096 1089 1170
3 1175 1096 1170
3 1174 1096 1175
3 1177 1175 1176
3 1176 1175 1097
3 1175 1170 1097
3 1170 1092 1097
3 1099 1176 1097
3 1178 1100 1101
3 1179 1178 1101
3 1179 1101 1094
3 1180 1179 1094
3 1171 1180 1094
3 1180 1171 1172
3 1181 1177 1176
3 1183 1181 1182
3 1182 1181 1102
3 1181 1176 1102
3 1176 1099 1102
3 1103 1182 1102
3 1185 1184 1178
3 1184 1100 1178
3 1184 1105 1100
3 1185 1178 1179
3 1186 1183 1182
3 1182 1103 1186
3 1103 1187 1186
3 1103 1107 1187
3 1188 1108 1109
3 1189 1188 1109
3 1105 1189 1109
3 1184 1189 1105
3 1107 1110 1190
3 1191 1107 1190
3 1187 1107 1191
3 1111 1190 1110
3 1192 1113 1188
3 1188 1113 1108
3 1188 1189 1193
3 1188 1193 1192
3 1191 1190 1194
3 1191 1194 1195
3 1114 1194 1111
3 1111 1194 1190
3 1196 1116 1192
3 1192 1116 1113
3 1192 1193 1197
3 1192 1197 1196
3 1198 1195 1194
3 1194 1114 1198
3 1114 1199 1198
3 1114 1118 1199
3 1200 1120 1196
3 1196 1120 1116
3 1196 1197 1201
3 1196 1201 1200
3 1204 1203 1202
3 1203 1199 1202
3 1199 1122 1202
3 1199 1118 1122
3 1205 1124 1200
3 1200 1124 1120
3 1200 1201 1206
3 1200 1206 1205
3 1204 1202 1207
3 1204 1207 1208
3 1126 1207 1122
3 1122 1207 1202
3 1209 1127 1205
3 1205 1127 1124
3 1205 1206 1210
3 1205 1210 1209
3 1211 1208 1207
3 1207 1126 1211
3 1126 1212 1211
3 1126 1128 1212
3 1213 1129 1209
3 1209 1129 1127
3 1209 1210 1214
3 1209 1214 1213
3 1217 1216 1215
3 1216 1212 1215
3 1212 1130 1215
3 1212 1128 1130
3 1213 1131 1129
3 1133 1131 1213
3 1214 1133 1213
3 1218 1133 1214
3 1221 1220 1219
3 1219 1220 1217
3 1219 1217 1215
3 1136 1219 1215
3 1135 1136 1215
3 1135 1215 1130
3 1223 1137 1222
3 1137 1218 1222
3 1137 1133 1218
3 1224 1223 1222
3 1227 1226 1225
3 1225 1226 1221
3 1219 1225 1221
3 1228 1225 1219
3 1138 1228 1136
3 1136 1228 1219
3 1223 1139 1137
3 1224 1229 1223
3 1229 1139 1223
3 1229 1141 1139
3 1231 1230 1142
3 1141 1231 1142
3 1229 1231 1141
3 1232 1230 1231
3 1235 1234 1233
3 1237 1236 1233
3 1237 1233 1234
3 1239 1238 1236
3 1239 1236 1237
3 1238 1239 1227
3 1238 1227 1225
3 1145 1238 1225
3 1144 1145 1225
3 1144 1225 1146
3 1146 1225 1228
3 1146 1228 1138
3 1230 1148 1142
3 1241 1240 1149
3 1241 1149 1148
3 1232 1241 1148
3 1230 1232 1148
3 1243 1242 1240
3 1243 1240 1241
3 1245 1244 1242
3 1245 1242 1243
3 1247 1246 1244
3 1247 1244 1245
3 1246 1247 1235
3 1233 1246 1235
3 1248 1246 1233
3 1152 1248 1151
3 1248 1236 1151
3 1248 1233 1236
3 1151 1236 1153
3 1153 1236 1238
3 1153 1238 1145
3 1240 1154 1149
3 1154 1240 1155
3 1155 1240 1242
3 1155 1242 1156
3 1156 1242 1244
3 1156 1244 1157
3 1157 1244 1246
3 1157 1246 1158
3 1158 1246 1248
3 1158 1248 1152
3 1249 1163 1164
3 1165 1250 1164
3 1164 1250 1249
3 1166 1251 1165
3 1165 1251 1250
3 1167 1252 1166
3 1166 1252 1251
3 1168 1253 1167
3 1167 1253 1252
3 1169 1253 1168
3 1254 1172 1173
3 1255 1254 1173
3 1255 1173 1163
3 1256 1255 1163
3 1249 1256 1163
3 1256 1249 1250
3 1256 1250 1257
3 1257 1250 1251
3 1257 1251 1258
3 1258 1251 1252
3 1258 1252 1259
3 1259 1252 1253
3 1259 1253 1260
3 1262 1260 1261
3 1261 1260 1174
3 1260 1253 1174
3 1253 1169 1174
3 1175 1263 1174
3 1174 1263 1261
3 1177 1263 1175
3 1264 1179 1180
3 1265 1264 1180
3 1265 1180 1172
3 1266 1265 1172
3 1254 1266 1172
3 1266 1254 1255
3 1267 1262 1261
3 1269 1268 1267
3 1261 1269 1267
3 1263 1269 1261
3 1181 1270 1177
3 1270 1263 1177
3 1270 1269 1263
3 1183 1270 1181
3 1271 1184 1185
3 1272 1271 1185
3 1272 1185 1179
3 1273 1272 1179
3 1264 1273 1179
3 1273 1264 1265
3 1274 1268 1269
3 1276 1275 1274
3 1269 1276 1274
3 1270 1276 1269
3 1186 1277 1183
3 1277 1270 1183
3 1277 1276 1270
3 1187 1277 1186
3 1278 1189 1271
3 1271 1189 1184
3 1271 1272 1279
3 1271 1279 1278
3 1280 1275 1276
3 1282 1281 1280
3 1276 1282 1280
3 1277 1282 1276
3 1191 1282 1187
3 1187 1282 1277
3 1284 1283 1278
3 1283 1189 1278
3 1283 1193 1189
3 1284 1278 1279
3 1285 1281 1282
3 1282 1191 1285
3 1191 1286 1285
3 1191 1195 1286
3 1283 1197 1193
3 1287 1197 1283
3 1195 1198 1288
3 1289 1195 1288
3 1286 1195 1289
3 1199 1288 1198
3 1287 1201 1197
3 1290 1201 1287
3 1293 1292 1291
3 1291 1292 1289
3 1291 1289 1288
3 1204 1291 1288
3 1203 1204 1288
3 1203 1288 1199
3 1290 1206 1201
3 1294 1206 1290
3 1295 1293 1291
3 1291 1204 1295
3 1204 1296 1295
3 1204 1208 1296
3 1294 1210 1206
3 1297 1210 1294
3 1208 1211 1298
3 1299 1208 1298
3 1296 1208 1299
3 1212 1298 1211
3 1301 1214 1300
3 1214 1297 1300
3 1214 1210 1297
3 1302 1301 1300
3 1305 1304 1303
3 1303 1304 1299
3 1303 1299 1298
3 1217 1303 1298
3 1216 1217 1298
3 1216 1298 1212
3 1306 1218 1301
3 1301 1218 1214
3 1301 1302 1307
3 1308 1301 1307
3 1306 1301 1308
3 1309 1308 1307
3 1312 1311 1310
3 1310 1311 1305
3 1310 1305 1303
3 1221 1310 1303
3 1220 1221 1303
3 1220 1303 1217
3 1306 1222 1218
3 1222 1306 1224
3 1306 1313 1224
3 1306 1308 1313
3 1308 1309 1314
3 1315 1308 1314
3 1313 1308 1315
3 1317 1316 1315
3 1317 1315 1314
3 1318 1316 1317
3 1321 1320 1319
3 1322 1319 1320
3 1226 1227 1323
3 1310 1324 1312
3 1324 1310 1325
3 1310 1221 1325
3 1226 1323 1325
3 1226 1325 1221
3 1313 1229 1224
3 1229 1313 1231
3 1231 1313 1315
3 1231 1315 1232
3 1315 1326 1232
3 1315 1316 1326
3 1316 1318 1327
3 1328 1316 1327
3 1326 1316 1328
3 1328 1327 1321
3 1319 1328 1321
3 1329 1328 1319
3 1319 1322 1330
3 1331 1319 1330
3 1329 1319 1331
3 1234 1235 1331
3 1330 1234 1331
3 1332 1234 1330
3 1234 1333 1237
3 1332 1333 1234
3 1237 1334 1239
3 1333 1334 1237
3 1227 1239 1323
3 1239 1335 1323
3 1239 1334 1335
3 1323 1335 1325
3 1326 1241 1232
3 1241 1326 1243
3 1243 1326 1328
3 1243 1328 1245
3 1245 1328 1329
3 1245 1329 1247
3 1247 1329 1331
3 1247 1331 1235
3 1336 1255 1256
3 1257 1337 1256
3 1256 1337 1336
3 1258 1338 1257
3 1257 1338 1337
3 1259 1339 1258
3 1258 1339 1338
3 1260 1340 1259
3 1259 1340 1339
3 1262 1340 1260
3 1341 1265 1266
3 1255 1336 1266
3 1336 1341 1266
3 1336 1342 1341
3 1337 1344 1343
3 1342 1337 1343
3 1336 1337 1342
3 1344 1337 1338
3 1344 1338 1345
3 1345 1338 1339
3 1345 1339 1346
3 1348 1347 1346
3 1339 1348 1346
3 1340 1348 1339
3 1267 1349 1262
3 1349 1340 1262
3 1349 1348 1340
3 1268 1349 1267
3 1350 1272 1273
3 1265 1341 1273
3 1341 1350 1273
3 1341 1351 1350
3 1342 1353 1352
3 1351 1342 1352
3 1341 1342 1351
3 1353 1342 1343
3 1354 1347 1348
3 1356 1355 1354
3 1348 1356 1354
3 1349 1356 1348
3 1274 1357 1268
3 1357 1349 1268
3 1357 1356 1349
3 1275 1357 1274
3 1358 1279 1350
3 1350 1279 1272
3 1351 1360 1359
3 1358 1351 1359
3 1350 1351 1358
3 1360 1351 1352
3 1361 1355 1356
3 1361 1356 1357
3 1361 1357 1362
3 1364 1362 1363
3 1363 1362 1280
3 1362 1357 1280
3 1357 1275 1280
3 1281 1363 1280
3 1365 1283 1284
3 1366 1365 1284
3 1366 1284 1279
3 1367 1366 1279
3 1358 1367 1279
3 1367 1358 1359
3 1364 1363 1368
3 1364 1368 1369
3 1285 1370 1281
3 1370 1363 1281
3 1370 1368 1363
3 1286 1370 1285
3 1371 1287 1365
3 1365 1287 1283
3 1365 1366 1372
3 1365 1372 1371
3 1369 1368 1373
3 1369 1373 1374
3 1375 1368 1370
3 1373 1368 1375
3 1289 1375 1286
3 1286 1375 1370
3 1376 1290 1371
3 1371 1290 1287
3 1371 1372 1377
3 1371 1377 1376
3 1374 1373 1378
3 1374 1378 1379
3 1293 1378 1292
3 1378 1375 1292
3 1378 1373 1375
3 1292 1375 1289
3 1380 1294 1376
3 1376 1294 1290
3 1376 1377 1381
3 1376 1381 1380
3 1379 1378 1382
3 1379 1382 1383
3 1295 1384 1293
3 1384 1378 1293
3 1384 1382 1378
3 1296 1384 1295
3 1385 1297 1380
3 1380 1297 1294
3 1380 1381 1386
3 1380 1386 1385
3 1383 1382 1387
3 1383 1387 1388
3 1389 1382 1384
3 1387 1382 1389
3 1299 1389 1296
3 1296 1389 1384
3 1385 1300 1297
3 1391 1390 1302
3 1391 1302 1300
3 1386 1391 1300
3 1385 1386 1300
3 1393 1392 1390
3 1393 1390 1391
3 1394 1392 1393
3 1397 1396 1395
3 1395 1396 1388
3 1387 1395 1388
3 1398 1395 1387
3 1305 1398 1304
3 1398 1389 1304
3 1398 1387 1389
3 1304 1389 1299
3 1390 1307 1302
3 1307 1390 1309
3 1390 1399 1309
3 1390 1392 1399
3 1392 1394 1400
3 1401 1392 1400
3 1399 1392 1401
3 1402 1401 1400
3 1397 1395 1403
3 1397 1403 1404
3 1312 1403 1311
3 1403 1398 1311
3 1403 1395 1398
3 1311 1398 1305
3 1399 1314 1309
3 1314 1399 1317
3 1317 1399 1401
3 1406 1405 1318
3 1406 1318 1317
3 1402 1406 1317
3 1401 1402 1317
3 1320 1321 1405
3 1406 1320 1405
3 1407 1320 1406
3 1409 1408 1322
3 1320 1409 1322
3 1407 1409 1320
3 1411 1410 1408
3 1411 1408 1409
3 1413 1412 1410
3 1413 1410 1411
3 1412 1413 1404
3 1403 1412 1404
3 1414 1412 1403
3 1324 1415 1312
3 1415 1403 1312
3 1415 1414 1403
3 1325 1415 1324
3 1405 1327 1318
3 1327 1405 1321
3 1408 1330 1322
3 1330 1408 1332
3 1332 1408 1410
3 1332 1410 1333
3 1333 1410 1412
3 1333 1412 1334
3 1334 1412 1414
3 1334 1414 1335
3 1335 1414 1415
3 1335 1415 1325
3 1416 1343 1344
3 1345 1417 1344
3 1344 1417 1416
3 1346 1418 1345
3 1345 1418 1417
3 1347 1418 1346
3 1419 1352 1353
3 1343 1416 1353
3 1416 1419 1353
3 1416 1420 1419
3 1421 1416 1417
3 1420 1416 1421
3 1422 1417 1418
3 1421 1417 1422
3 1354 1423 1347
3 1423 1418 1347
3 1423 1422 1418
3 1355 1423 1354
3 1424 1359 1360
3 1352 1419 1360
3 1419 1424 1360
3 1419 1425 1424
3 1420 1427 1426
3 1425 1420 1426
3 1419 1420 1425
3 1427 1420 1421
3 1427 1421 1428
3 1428 1421 1422
3 1428 1422 1429
3 1431 1430 1429
3 1422 1431 1429
3 1423 1431 1422
3 1361 1432 1355
3 1432 1423 1355
3 1432 1431 1423
3 1362 1433 1361
3 1361 1433 1432
3 1364 1433 1362
3 1434 1366 1367
3 1359 1424 1367
3 1424 1434 1367
3 1424 1435 1434
3 1436 1424 1425
3 1435 1424 1436
3 1425 1426 1437
3 1425 1437 1436
3 1438 1430 1431
3 1440 1439 1438
3 1431 1440 1438
3 1432 1440 1431
3 1441 1432 1433
3 1440 1432 1441
3 1369 1441 1364
3 1364 1441 1433
3 1442 1372 1434
3 1434 1372 1366
3 1443 1434 1435
3 1442 1434 1443
3 1436 1445 1444
3 1443 1436 1444
3 1435 1436 1443
3 1445 1436 1437
3 1439 1440 1446
3 1439 1446 1447
3 1448 1440 1441
3 1446 1440 1448
3 1374 1448 1369
3 1369 1448 1441
3 1449 1377 1442
3 1442 1377 1372
3 1450 1442 1443
3 1449 1442 1450
3 1443 1444 1451
3 1452 1443 1451
3 1450 1443 1452
3 1453 1452 1451
3 1447 1446 1454
3 1447 1454 1455
3 1456 1446 1448
3 1454 1446 1456
3 1379 1456 1374
3 1374 1456 1448
3 1457 1381 1449
3 1449 1381 1377
3 1458 1449 1450
3 1457 1449 1458
3 1452 1460 1459
3 1458 1452 1459
3 1450 1452 1458
3 1460 1452 1453
3 1455 1454 1461
3 1455 1461 1462
3 1463 1454 1456
3 1461 1454 1463
3 1383 1463 1379
3 1379 1463 1456
3 1464 1386 1457
3 1457 1386 1381
3 1465 1457 1458
3 1464 1457 1465
3 1458 1459 1466
3 1467 1458 1466
3 1465 1458 1467
3 1468 1467 1466
3 1462 1461 1469
3 1462 1469 1470
3 1471 1461 1463
3 1469 1461 1471
3 1388 1471 1383
3 1383 1471 1463
3 1464 1391 1386
3 1391 1464 1393
3 1393 1464 1465
3 1393 1465 1394
3 1465 1472 1394
3 1465 1467 1472
3 1467 1468 1473
3 1474 1467 1473
3 1472 1467 1474
3 1476 1475 1474
3 1476 1474 1473
3 1478 1477 1475
3 1478 1475 1476
3 1480 1479 1477
3 1480 1477 1478
3 1479 1480 1470
3 1469 1479 1470
3 1481 1479 1469
3 1397 1481 1396
3 1481 1471 1396
3 1481 1469 1471
3 1396 1471 1388
3 1472 1400 1394
3 1400 1472 1402
3 1472 1482 1402
3 1472 1474 1482
3 1483 1474 1475
3 1482 1474 1483
3 1484 1475 1477
3 1483 1475 1484
3 1485 1477 1479
3 1484 1477 1485
3 1486 1479 1481
3 1485 1479 1486
3 1404 1486 1397
3 1397 1486 1481
3 1482 1406 1402
3 1406 1482 1407
3 1407 1482 1483
3 1407 1483 1409
3 1409 1483 1484
3 1409 1484 1411
3 1411 1484 1485
3 1411 1485 1413
3 1413 1485 1486
3 1413 1486 1404
3 1487 1426 1427
3 1428 1488 1427
3 1427 1488 1487
3 1429 1489 1428
3 1428 1489 1488
3 1430 1489 1429
3 1490 1437 1487
3 1487 1437 1426
3 1491 1487 1488
3 1490 1487 1491
3 1492 1488 1489
3 1491 1488 1492
3 1438 1493 1430
3 1493 1489 1430
3 1493 1492 1489
3 1439 1493 1438
3 1494 1444 1445
3 1437 1490 1445
3 1490 1494 1445
3 1490 1495 1494
3 1496 1490 1491
3 1495 1490 1496
3 1497 1491 1492
3 1496 1491 1497
3 1498 1492 1493
3 1497 1492 1498
3 1447 1498 1439
3 1439 1498 1493
3 1494 1451 1444
3 1451 1494 1453
3 1494 1499 1453
3 1494 1495 1499
3 1500 1495 1496
3 1499 1495 1500
3 1501 1496 1497
3 1500 1496 1501
3 1502 1497 1498
3 1501 1497 1502
3 1455 1502 1447
3 1447 1502 1498
3 1503 1459 1460
3 1453 1499 1460
3 1499 1503 1460
3 1499 1504 1503
3 1505 1499 1500
3 1504 1499 1505
3 1506 1500 1501
3 1505 1500 1506
3 1507 1501 1502
3 1506 1501 1507
3 1462 1507 1455
3 1455 1507 1502
3 1503 1466 1459
3 1466 1503 1468
3 1503 1508 1468
3 1503 1504 1508
3 1509 1504 1505
3 1508 1504 1509
3 1510 1505 1506
3 1509 1505 1510
3 1511 1506 1507
3 1510 1506 1511
3 1470 1511 1462
3 1462 1511 1507
3 1508 1473 1468
3 1473 1508 1476
3 1476 1508 1509
3 1476 1509 1478
3 1478 1509 1510
3 1478 1510 1480
3 1480 1510 1511
3 1480 1511 1470
