# Asteroid shape model (convexinv -> dual reconstruction)
v 0.65795909 -0.56398472 -1.88101017
v 1.87768749 -0.87551015 -0.85468989
v -0.76444241 -0.98481158 1.36133880
v -1.48985666 0.77777772 1.56179214
v -1.16083292 -0.66990910 1.08743520
v -1.78490279 -1.06161871 0.14761294
v -0.90199658 -0.26674090 -0.97446370
v -0.92508376 -0.17437133 -1.00229927
v 0.60714368 -1.74401304 0.88954771
v -0.66583417 -0.98500092 2.21248737
v 1.84007075 -0.18037247 0.21203737
v 2.00146118 -0.34176290 0.67343334
v 0.50185502 -0.45298420 -2.11813326
v -2.51576163 -1.91943689 0.88696214
v -1.45398943 1.40529551 0.29584319
v -1.91016574 0.21682810 1.35821904
v 0.55123045 -0.00825645 -1.45393895
v 0.74122774 -0.05279731 -1.20702370
v 0.36168315 0.08337012 -1.69122373
v 1.98187087 1.02293672 -1.05219118
v 1.33392732 -0.43158319 -0.29489972
v 0.63676156 -0.32217259 -1.05219118
v 0.62438364 -0.32768657 -1.05863571
v 0.55084075 -0.56032809 -1.92802643
v 0.60786747 -0.42265340 -1.92802643
v 0.53846094 -2.86337822 -0.22868638
v -0.56337261 1.00155516 -1.73543738
v -0.55759205 0.55759205 -1.92632223
v 0.65362564 0.85137466 1.72039156
v -0.88337531 -1.14066543 -1.27922126
v 0.64994895 -0.54043611 -2.18476609
v -1.98641131 -0.20857121 0.12403296
v -0.82297857 -0.99521380 -0.63529656
v -0.33043167 -1.34144177 -1.00229927
v -0.97205387 -1.20657277 -0.13179841
v -0.12730584 -1.02314533 0.37671859
v -0.47759763 -1.80158888 -0.58673561
v -1.01798900 -1.22726523 -0.03180785
v -0.97703076 -1.62582314 -0.76897169
v -1.27435388 -0.11288346 1.02598795
v -0.60695697 -2.02019425 1.02598795
v -0.85237526 -1.23214365 1.00784334
v -1.64056673 0.67071890 1.00784334
v -1.04778459 -0.77961517 1.11697250
v -2.33290500 -1.28268355 0.35801096
v -0.02806086 -2.28541841 0.92935892
v -1.00068166 0.20284333 1.36133880
v -1.36789971 -0.92485868 0.69624485
v -1.09569652 1.00920441 1.40118411
v -1.76371575 -0.90515875 0.15934287
v -1.13390869 -0.60830978 0.91669764
v -1.33905259 -0.32990901 -0.42971847
v 0.35135921 -0.99711966 -1.73608840
v -0.71682731 -0.92737404 -0.79865606
v -0.59686761 0.42200207 -1.73608840
v -1.78569276 1.09295454 2.92745070
v -1.78569276 -1.53865297 0.29584319
v -1.08068601 -1.28666298 0.10586368
v 0.16143753 -1.55767157 1.12338529
v 2.08975494 -1.50464892 0.53177428
v 1.85582047 1.21397190 0.77180119
v 0.72083709 -2.53493973 -1.14764905
v -0.46984396 -0.54208032 2.44432937
v 2.15740248 0.73735103 0.57795970
v 1.01326227 -0.17158245 1.36855413
v 0.83748757 -0.14892156 1.58601606
v 0.84904837 -0.14079508 1.57740197
v -0.54010440 -2.40130779 1.09749876
v 0.75047270 -1.11073069 1.09749876
v 0.87018065 -2.52101574 0.30823101
v -1.38807528 1.67050811 1.21005961
v 0.68738531 -2.38985055 0.42450324
v 2.25277600 -0.27467529 1.15506575
v 1.94845989 -0.61205926 0.86967683
v 1.29510712 0.62649045 -1.76960465
v 0.70698496 -1.97187914 0.00392229
v 1.00968416 -0.07451719 -0.88252369
v -0.24558225 -1.43851282 -2.14883000
v 0.50005881 -2.47144307 0.00392229
v 1.71393942 -1.18134040 1.25045597
v -0.81990903 2.63086822 -2.71056969
v -0.60318126 -0.59143914 -1.27590706
v -0.98763632 1.83591458 -1.27590706
v -1.56325099 -0.42308369 0.35739368
v -1.32534497 2.42943146 -0.79028449
v -1.79189836 0.22043764 0.96968445
v -0.62085800 0.98854465 -1.71656089
v -2.33274445 -2.71287320 -0.64271995
v -0.19686045 2.15465744 -2.11813326
v -1.11410154 -0.38551732 -0.95070680
v -0.63286583 1.83874320 -1.70874205
v -0.44851419 -0.23074502 -1.52220574
v -0.17856073 -0.44520277 -1.70874205
v -0.52774466 0.04772381 -1.80806000
v -0.74846525 -0.10706896 -1.56898496
v -0.59682343 0.05770783 -1.72196044
v -2.33344518 -1.39840642 0.88696214
v -2.43454025 -1.50613893 1.37730103
v -1.46243701 1.80034429 0.14761294
v -1.78490279 1.49670165 -2.41070742
v -0.64384849 -0.14323376 -2.42255603
v 0.58568063 1.69688661 -2.42255603
v -1.17169402 0.15224437 -2.96155977
v -0.68535649 0.43943471 -2.74273888
v 1.31862651 -1.61443335 0.86967683
v 0.90039439 -2.45249799 1.20463304
v 1.59992620 -0.91358291 -0.18189609
v 0.18517593 -3.62186417 0.18837207
v 0.77349055 -2.40073855 0.72308302
v 0.69275924 0.18762640 -0.50445634
v 1.06966924 -0.57049724 -3.59878330
v -0.05000327 -1.10235464 -3.55392101
v -0.55387843 0.97730167 -1.74976091
v -0.54095266 0.59865061 -1.91595800
v -0.05428838 0.80023355 -1.91595800
v -0.41517487 0.11609848 -2.02499781
v -0.53092936 0.53092936 -1.93776044
v -0.11609848 0.41517487 -2.02499781
v -2.83242203 0.11887377 -2.34458484
v 1.22715349 0.53224970 -0.62258731
v -0.34333781 1.35691216 -2.80434585
v 2.31264009 0.21317115 -0.29655815
v 1.47180115 -0.15656082 -1.43315855
v 1.94237936 -0.36618884 -1.18815340
v 2.06425325 1.48524291 -1.31483253
v 1.13504785 -2.19410948 -2.05901567
v -0.08101445 1.93332527 -2.59904133
v 0.50035768 0.48893878 -1.88613534
v -0.17267140 2.35280152 -2.74273888
v -0.48775117 -0.11147829 -2.59904133
v 0.32064158 0.53072905 -2.04044650
v 1.23240045 0.28861137 -1.60697445
v 0.13138949 2.32993654 0.90167199
v 1.00638171 0.63728550 -0.72671147
v 0.46337983 0.64059142 -1.10257600
v -0.22141125 2.37018465 -1.36683691
v -0.15879146 1.03478922 -2.71056969
v -0.28183410 2.77029046 -1.10257600
v -0.06521498 2.41612305 -0.79477976
v -0.46449870 -0.18025588 -1.73703281
v -0.21387525 0.35368255 -2.50513119
v -1.99613141 -0.22227008 0.18525809
v 1.79078207 -0.01563296 -2.44200177
v 0.54095266 -0.59865061 -1.91595800
v 0.55759205 -0.55759205 -1.92632223
v 0.53092936 -0.53092936 -1.93776044
v 0.34001802 2.31108587 -2.42750475
v 1.73278833 -1.05135911 -2.42750475
v 0.41517487 -0.11609848 -2.02499781
v 0.11609848 -0.41517487 -2.02499781
v 0.52523930 -0.59483338 -2.10874769
v 0.33134856 0.86726217 -2.64701226
v -1.33923238 -1.02773794 0.57366736
v -0.94544787 -0.88017015 1.54512054
v -1.02564211 -1.01249677 -0.28600950
v -1.21800245 -0.94171866 0.03184766
v -1.27441626 -0.68828799 -0.28600950
v -1.59782862 -0.77152586 0.71221386
v -1.27022922 0.13571624 1.12916880
v -1.02067785 -0.79562215 1.12916880
v 0.73616069 -2.47657514 0.52386741
v 1.05883879 -1.55210525 0.90446376
v 0.93218459 -0.60219059 2.03749488
v 1.16514484 -0.81658070 1.82121924
v -1.54696598 0.13537912 1.11550795
v -1.03843354 0.10217526 1.56179214
v -1.09971943 0.02070497 1.42775890
v -1.04195783 -0.00502604 1.45783231
v -1.36572225 1.48603249 0.53351861
v -1.70792470 2.53196560 -2.54207114
v -0.71244988 -0.71603057 1.52245634
v -0.98195109 -1.66240010 1.45577077
v -1.64928952 0.38695148 0.24710808
v -0.55263796 0.49590277 1.45577077
v -1.37594077 2.26600300 1.18643914
v -0.96426611 -0.86097647 1.18643914
v -1.79853462 -0.58802525 -1.26674608
v -1.04951125 -0.42086725 -0.58673561
v -0.99534068 -1.57607909 0.57568863
v -1.73414894 -0.33146553 1.58284957
v -0.92710388 -0.59550994 -0.79028449
v -1.05858600 -0.38732532 -0.59557556
v -0.90168381 -1.54853395 0.23267735
v -0.60381705 -2.03553944 -0.19056447
v -0.97455982 -1.64045543 1.60763986
v -1.27242039 -0.12478086 -0.19056447
v -1.20928761 -0.34748441 -0.14143640
v 0.91354921 -0.75369599 1.74540090
v -1.05591499 -0.84331605 0.08446515
v -1.31324816 0.38091394 1.74540090
v -2.07170543 0.13524555 0.40656463
v -2.18624601 1.10723155 1.42775890
v -0.95377486 -0.49715294 1.42999711
v -1.70758794 0.03272791 0.86832179
v -0.92747724 -1.41920703 0.56811511
v -1.77722374 0.02440232 0.74534270
v -1.02299536 -1.32959982 0.44689715
v -1.02837665 -1.33118250 0.42718855
v -1.20433999 -0.97858248 0.56811511
v 2.75642623 1.22503768 0.16596512
v 2.21533270 -0.79435085 0.16596512
v 3.46674858 -0.74210370 -0.73810374
v 1.25641496 0.79149714 2.07564226
v 0.29722361 -0.55885255 1.70838518
v 1.36938182 -0.48884761 0.76746732
v 1.24897608 0.86554568 1.70838518
v 1.79452728 0.53149440 0.58078029
v 2.92222917 -2.65026765 -0.47768671
v 0.51069675 -2.56794670 0.58078029
v 0.15763061 0.80450077 3.67370774
v -0.10279003 1.76706388 3.42002478
v 0.50351311 1.38771478 1.84747065
v 0.25159574 0.81115873 3.49627147
v 1.59115566 0.57625682 1.21737011
v -2.02359296 2.62585839 0.34300432
v -1.05008135 3.00130742 0.59684022
v -1.21076660 1.38816792 0.67844405
v 1.05173658 1.62833982 2.07164455
v -0.38530666 1.30309786 1.59976238
v 2.36495748 0.20583905 0.40938136
v -0.72464353 0.56378039 1.82137764
v -0.78438639 0.21829931 2.25778698
v 2.04322180 -0.31144933 0.70335982
v 2.21534633 -0.24811689 0.98777924
v 2.26582556 -0.02134645 0.70335982
v 2.70629411 0.62923004 -0.02239914
v 2.38808521 -0.23559627 1.40664409
v 1.24869482 -0.48922523 -0.02239914
v 0.50296172 -1.01569717 -0.91406234
v 1.03584273 0.03014070 -0.91406234
v 1.07793370 -0.89483805 -0.13398709
v 0.04194038 -2.64008297 -1.42805661
v 0.88911460 -1.29869412 -0.17349524
v 0.64883934 -1.28166926 -0.62721193
v 0.40292808 0.10189079 -1.42805661
v 0.11258435 0.82286206 -2.14883000
v 0.19047715 -1.36062805 3.05417753
v 2.86793610 -1.36062805 0.37671859
v -0.06059138 -1.50529795 -0.71030126
v -1.53751177 -1.49758666 -0.50704649
v -0.97576544 -1.54218592 -1.56898496
v -1.31608435 -0.20660524 -0.60333353
v -1.28969816 0.38474465 -0.50704649
v -1.64830709 -0.18306538 0.02400946
v -0.98854465 0.62085800 -1.71656089
v -1.02264956 1.02264956 -1.49169775
v -1.00155516 0.56337261 -1.73543738
v -0.15570875 1.06285889 -2.11601437
v -2.35643522 -1.23123672 0.43216649
v 1.85475020 -0.08583639 0.01876634
v 0.86113691 -1.14184069 1.03910757
v 1.61796098 0.02083037 0.53420383
v 1.56167254 1.25780861 1.57740197
v 1.23398995 0.24623487 1.40986816
v 0.69275924 -2.74113896 2.42430901
v 0.34804394 -3.44830300 0.97832669
v 0.47889467 -2.78246425 0.18837207
v 0.58548095 -2.40647664 0.10542976
v 0.32360038 -3.08874908 -0.50445634
v 0.55722954 1.31030963 -0.01274620
v 0.65362564 -1.67154765 -0.80253075
v 0.33562164 1.15081597 -0.80253075
v 0.27104974 1.31904390 -0.95291038
v -0.55530738 1.01521308 -1.72929219
v -0.47943924 1.03554188 -1.72929219
v -0.55334447 1.06222859 -1.69532645
v 0.69664874 0.24366998 -2.43296667
v 0.65052959 -0.22054334 -2.94459438
v 1.56414061 -0.03881481 -2.94459438
v -0.18073705 1.62346944 -0.13419489
v -0.27260704 0.98782696 -0.92645767
v 3.42347608 1.26649686 -1.71290437
v 0.77190197 0.96060398 -0.18271042
v 1.75514875 -0.09983296 -0.98968839
v -0.48243190 1.04027133 -0.98968839
v 1.49656944 1.13032538 0.67929046
v 0.31597215 1.42366274 -1.54413361
v -0.35403455 1.12184392 -3.00258922
v 2.01042267 -0.69518235 -1.43315855
v 1.95364171 -0.21334178 -0.92692407
v -0.20791481 1.09112955 -2.80434585
v 1.86322224 -0.36474312 -1.26111635
v 1.41476496 -0.51378265 -1.86989124
v 1.51725563 -0.66717078 -1.86989124
v 1.40179891 -0.65963221 -1.97121517
v 1.07379528 0.33667562 -1.72929219
v 1.09930267 0.24148077 -1.72929219
v 1.04031038 0.24394372 -1.77191038
v -0.37950085 1.50159695 -2.76074509
v -0.85055595 2.01345412 -3.23594306
v 2.62581325 -0.50273286 -0.96439098
v 2.17176024 -0.95678587 -1.52729787
v 2.42664010 -1.53279191 -1.82880201
v 0.10706945 0.01709564 -1.82880201
v 0.27297062 -0.85480679 -2.39439121
v -2.68863417 -0.00399674 -2.36379022
v 1.88614946 -0.22316527 -1.37526127
v 1.82513858 -0.24704836 -1.41129284
v 0.30114719 -0.27786314 -2.07119973
v 0.34941508 -0.29742419 -2.05901567
v 0.77089061 -1.43697883 -2.36379022
v 0.86277537 1.25471814 -1.18235373
v 0.13106117 -0.61449267 -2.28626517
v 0.45238825 -0.68721773 -2.18075093
v -0.09255088 1.54870936 3.63974257
v 0.00531129 1.50608421 3.42002478
v 0.52730252 0.30174057 3.03032996
v 0.21696755 1.39646021 2.78883643
v -1.33466972 0.15344331 -1.23334146
v -1.73586416 -0.00170659 -1.00206368
v 0.16209655 -0.19368347 -2.09208248
v -0.61714777 -0.62919684 -0.70102054
v -0.27712005 -0.08390411 -1.95972457
v -0.79660258 0.39416852 -2.44200177
v -1.44972131 -0.65865576 0.47290276
v -1.39912457 -0.48662057 -0.15716324
v -1.30065502 -0.54684742 -0.07158631
v 0.41724569 -1.14796687 -0.07158631
v 0.01609352 -0.72739122 -1.00206368
v -0.41247376 -1.21461263 1.11382241
v -0.42176693 -0.91012064 0.11349863
v -0.63149834 -0.54516957 -0.85468989
v -0.61206366 -0.55744383 -0.83651321
v -1.75930683 0.27192639 -3.16470811
v -1.25697573 0.38609394 -3.00011156
v -0.53471562 0.23540680 -2.52947325
v 0.47131141 1.76237785 -3.16470811
v -0.30570286 0.00639404 -2.24555735
v -0.31964368 1.41829699 -3.67848452
v 0.15818469 0.40303342 -2.13259883
v 0.51024533 -1.03407107 -1.91595800
v -0.22312055 -0.96345524 -1.84523142
v 0.27838665 -0.46194804 -2.06037650
v 1.14336811 -0.58215000 -2.13259883
v -0.05428838 -0.80023355 -1.91595800
v 0.16656971 -1.07400532 -1.56057954
v 0.27655560 -0.96401942 -1.69693326
v -0.53274199 0.86492185 -2.65427281
v 0.85581178 -0.06288011 -2.65427281
v 0.85731099 -0.06322085 -2.65476405
v 0.54098672 -0.55460560 -2.13250526
v 2.10783720 -0.90922647 -2.64701226
v -1.78714836 -0.36010891 -0.00073703
v -2.03686741 -0.11038986 -0.00073703
v -1.94086733 -0.26410884 0.31296563
v -0.96851381 -1.47789520 0.56030888
v -1.09827394 -1.15460143 0.07523108
v -0.80773946 -1.61698439 0.07523108
v -2.40142383 0.16576488 -0.22702099
v -1.22433961 -0.57384616 -0.22702099
v -2.04734572 -0.24351696 1.00783726
v 0.33475115 1.08066534 1.09260203
v -2.82107979 -2.07516561 1.09260203
v 1.55618347 -3.29659793 0.17208010
v 0.70693397 -2.54869353 0.50566288
v -1.56609492 -3.49021293 0.50566288
v 1.79586962 -1.51343680 1.21005961
v -2.62038882 -2.74575034 0.28133714
v -1.03341424 -1.15877576 0.96214446
v 0.02162044 -2.20128647 0.96721293
v 0.06480299 -1.16698448 1.71443074
v 1.69065599 -1.75406975 0.96721293
v 0.02295149 -1.46798381 1.47423895
v -1.68956595 1.93043799 -0.56591938
v -2.01302648 2.05459371 -0.85506207
v 1.53970122 1.63362907 1.63892479
v 1.44757381 1.94687370 0.49168979
v -0.02295149 1.46798381 1.47423895
v 0.80924264 0.98279085 2.23200005
v -0.87787489 0.45759080 0.98744306
v -1.51223557 -1.53627782 0.78527667
v -1.04207489 -0.93580267 2.45137920
v -0.32645427 0.67064042 1.61498939
v 0.51551857 0.62179079 2.45137920
v 1.00751858 1.21237275 2.35882098
v -0.69998940 0.90936141 1.04014447
v -1.35071988 1.05157159 0.71009272
v -0.19226660 0.78219075 1.70478534
v -0.54910465 -0.78787749 2.21924244
v 0.49426014 1.07086339 2.07164455
v 0.44255121 1.68004875 1.73071322
v -0.22624279 1.09851899 1.52245634
v 0.61263538 1.59389041 1.89989806
v 0.97767380 1.14492617 2.39412517
v 0.64357057 0.99708712 2.21924244
v -1.47599388 1.28030587 0.15934287
v -2.27568684 -0.82034555 -0.05531696
v -2.45694158 -1.33834185 -0.05531696
v -2.05906911 1.08953863 -1.55520292
v -1.73143145 1.09953820 -0.47884047
v -1.64500612 3.66119176 0.81766855
v -1.64500612 -0.05630393 -2.89982714
v -1.17643104 -0.49752710 0.81766855
v -1.63018762 3.61769453 -0.22671294
v -1.63018762 -0.01207159 3.40305317
v -1.17267050 -0.44288228 -0.22671294
v -1.19906020 -0.44559395 1.09721390
v -0.61637325 -1.50670943 1.35983532
v -1.49103872 -0.57712191 0.46164157
v -1.06553953 -0.42232609 1.35983532
v -1.18110403 -0.05099433 1.42999711
v -0.93382099 -0.90918232 1.23152464
v -1.59648426 -0.95613576 -0.01979598
v -0.97681503 -0.86833485 1.18369157
v -0.76121863 -1.10260587 1.40118411
v -2.45968302 0.57348379 0.63389428
v -2.11218622 0.09476475 0.29083488
v -1.47794753 -0.36562203 0.74534270
v -1.70935771 -0.28047571 0.36295938
v -2.22937408 0.10057915 -0.00033311
v -1.85889398 -0.38657989 -0.30537140
v -2.56577293 2.75767908 0.71654808
v -2.98739014 1.59115611 1.12338529
v 1.38015931 2.80987788 0.20490613
v 1.06856316 -0.80260437 0.40083692
v 1.62862065 0.08486726 1.14126552
v 1.01980668 -0.75384789 0.54022587
v -0.52553835 -0.99045616 2.07564226
v 2.26924625 0.78538119 0.42966485
v 2.02090030 -0.33027607 -0.96961188
v 1.17408803 -0.64185679 0.42966485
v 2.58295332 0.77962910 0.10894343
v 1.48192870 0.93876120 1.48125704
v 0.76967560 0.16481386 2.19977430
v 2.32399556 1.57487103 0.57795970
v 0.95560793 1.33874438 2.19977430
v -0.48495312 -1.37949877 1.49159337
v 2.00203938 0.47887981 0.77180119
v 1.63421227 0.55944459 1.15115867
v 1.34098482 -0.74395352 2.26254198
v 1.62853301 0.51598731 1.18345721
v 1.64449743 0.51829467 1.16355920
v 3.77799217 -1.06915245 -0.43297992
v 2.45961375 -1.24386559 1.68163109
v 0.53363237 0.04303402 1.68163109
v -0.90487934 0.36997249 2.15298167
v -1.05238563 3.06880971 0.56721219
v -1.13914349 3.03287343 0.56721219
v 1.68541305 2.23140687 1.16524082
v -0.29562307 2.56687178 1.10144284
v -1.44448542 2.10128363 0.81144055
v -1.21554456 0.34598485 1.10144284
v -1.57460865 -1.02861483 1.16524082
v -1.17232255 1.93073639 -0.34609910
v -1.51560159 1.47064077 0.75878314
v -0.03246633 1.15530792 1.72929219
v -0.54178004 1.33921789 1.49521919
v -0.55530738 1.01521308 1.72929219
v -3.25948109 0.71062626 2.25778698
v -0.90932936 1.47591543 0.87171895
v -1.03012566 0.64013368 1.91343467
v -0.92981811 0.54782203 2.00655820
v 0.12452617 -0.73684627 -0.51714865
v -0.75852214 -0.41988592 -1.76960465
v 1.05778560 -0.50253663 -0.23783247
v 1.08654171 -0.56637223 -0.09887656
v 1.41220894 -0.25994613 -0.41354545
v 0.05852021 1.85404078 -1.68939417
v 0.17077162 -1.29967119 -2.25616000
v -0.48652101 -0.28497207 -3.23594306
v -0.37218272 1.82352304 -2.50269934
v -0.20570082 1.55992085 -2.25616000
v -2.27921335 -1.57129832 0.50598220
v -1.76758211 -1.34845060 -0.64271995
v -2.41480084 -1.53142110 1.00256120
v -0.33047108 0.58537710 0.26420373
v -1.78940777 -0.75015434 0.58682692
v -0.47341346 0.33208538 -0.02428685
v -0.26383654 0.49146676 -0.15551501
v -0.80023355 0.05428838 -1.91595800
v -0.59865061 0.54095266 -1.91595800
v -0.97730167 0.55387843 -1.74976091
v -0.07701897 1.35653317 -2.11601437
v -0.21761939 -0.90465013 -2.36974929
v 0.02628131 1.07045705 -2.24749068
v -0.01810914 0.09835562 -2.36974929
v 0.93852396 0.85832878 -3.03077737
v 0.08330317 -1.17623673 -3.24141447
v -0.90913664 -0.33576795 2.23200005
v -0.56231082 0.14202673 1.88960306
v -0.53399679 0.68378498 0.54728581
v -1.32055379 -0.19696795 1.70451845
v -1.84960711 -1.04410827 -0.02428685
v -2.63331727 -1.73158487 2.25939395
v -2.02935505 -1.20908477 0.43715886
v -1.68330948 -0.82543689 0.11263588
v 0.72083709 0.70665474 2.09394542
v 0.31224740 -2.91967900 2.09394542
v 0.47481416 1.01526051 3.01960064
v -3.54128745 1.63788443 -0.76518952
v -0.66097604 2.37181571 1.31733299
v -0.44631623 1.14768914 -0.76518952
v -3.17690745 0.64781467 -1.90127059
v -2.84896936 -0.01828549 -2.39439121
v 0.19219743 1.07986066 -0.99671627
v -0.02144929 0.02015501 -1.90127059
v -0.04680059 0.05206654 -1.87921991
v 0.70768093 0.16733898 -2.52810539
v 1.58577071 0.97543292 -1.71290437
v 1.71322956 1.70228426 -0.47636207
v 0.54537250 0.94149259 -1.77154293
v -0.28668873 1.23288299 -2.69951283
v -0.34870998 1.54468488 -2.69951283
v -0.19028086 1.52894509 -2.52490189
v 1.26564412 0.16661250 2.12578934
v 1.49130868 -0.30770550 2.34949529
v 1.62367568 0.32789546 1.34643424
v 3.13526093 -1.88903368 1.65301439
v 1.76760792 0.29764090 1.15115867
v 2.34058431 -0.10512370 0.72422697
v 2.18497107 -0.93874382 1.65301439
v 1.75568542 -0.74751037 1.87652068
v 1.70366384 -0.67350401 1.82137764
v 1.42304376 0.66151046 0.01013851
v 3.03508229 -1.03892246 0.75986499
v 0.39765270 1.48861647 -1.16548397
v -0.05854598 2.21465251 -1.16548397
v 0.19390271 1.99625397 -0.40381240
v 1.66296051 0.28897074 -0.02150210
v 0.13548171 1.87910877 2.29311377
v 0.66857336 0.89645267 -0.54215916
v 0.66857336 -2.32988550 2.68417901
v 0.26190667 1.27938119 2.68417901
v 0.14193028 2.26272144 0.70381188
v 0.39660449 1.65320609 1.50527128
v 0.60735531 1.12812624 2.29311377
v -0.33773698 2.77388141 3.03032996
v 0.33474935 1.67438131 2.07478749
v -1.25910377 -0.48780575 -0.55962819
v -1.46492456 -0.69362654 0.02878888
v -2.19046864 0.30589851 -0.68749028
v -1.33815280 -0.26195201 -0.82685624
v -0.61785471 -0.56337170 -1.23334146
v -1.30028046 -0.37716691 -0.68749028
v -1.37420942 -0.34199399 -0.65262264
v -0.68906851 -0.53164816 -1.19626421
v -1.53417765 0.67061141 -2.09208248
v -1.38218706 0.92455644 -3.46245621
v -0.43381553 0.29174273 -2.40367063
v -0.34587007 -0.31674619 -1.64525196
v 0.30289025 0.28029900 -2.24754808
v -2.26876811 -0.12701167 -2.24754808
v -1.75438289 -0.62937160 -1.76379497
v 1.02489861 -1.37407783 -1.76379497
v 0.95299094 0.34824402 -3.00806363
v -2.07568727 -0.14551003 -0.50254067
v -1.82959809 -0.29919684 -0.00033311
v -0.62253600 -1.01952376 -1.17231239
v -1.96366362 -0.31289577 -1.28748127
v -3.06163406 0.43646829 0.90812504
v 1.29059659 -2.34618357 0.89396092
v -0.98276620 -3.15192438 0.13768831
v -0.92394804 -1.42888915 0.89396092
v -1.26758929 -0.35807952 0.91450723
v 0.54240408 -0.19717089 2.17193747
v 0.05402112 -0.50338472 1.70185283
v 0.43309975 -1.14532887 1.41301887
v -0.90457958 0.04294554 1.63185655
v -1.36114297 1.07473858 2.17193747
v 1.85612403 -1.52662708 1.41301887
v 3.30308014 -0.82130410 2.22806817
v 0.46991731 -2.02717758 0.77593892
v 0.93952643 -0.35116403 2.22806817
v 0.87773567 -0.27338354 2.28181405
v -1.79805597 -1.42956321 2.44432937
v -0.42287403 -1.01637191 2.11057040
v -0.37639716 -1.33794233 1.70976604
v -0.53512163 -1.54183823 1.56694946
v -0.80728952 -1.11596758 2.22233516
v 0.02928754 -1.01425280 1.84557205
v -0.39762804 -1.55164228 1.47423895
v 0.05492205 1.27239753 -0.40779596
v -2.40635871 2.13363691 -0.40779596
v -0.45399241 1.74995762 -2.72409368
v -0.57358108 1.82315292 1.71620437
v -2.08048059 2.17876585 0.58895473
v 0.96157680 1.35398284 1.82063378
v 1.08898824 1.12360486 2.34007317
v 1.07239053 1.10798777 2.35611035
v 1.27644697 1.71411407 1.06576907
v 0.65493088 1.32158627 1.64705471
v 1.89364805 1.85011328 1.33132024
v 2.37100440 2.29805956 -0.84134237
v -0.26188399 0.49322793 -0.15386338
v 1.44542063 1.56599853 -0.15386338
v 0.25168945 1.08687174 1.63723971
v -1.14337387 0.09639985 1.00629263
v -2.03161077 0.50200880 -0.68844515
v -1.97028344 0.49766341 -0.57263951
v -2.41114155 -1.13183015 -0.14318741
v -1.90719484 -0.06415533 -0.02999758
v -1.85127913 -1.29294246 1.00629263
v -1.43899718 0.35655774 0.50921579
v -1.16534305 0.65391536 0.78527667
v 2.06240812 -0.35972815 -1.15512510
v 2.82591911 0.64424286 -0.52648111
v 1.78543353 -0.39624273 -0.52648111
v 2.42592282 0.00375356 -1.83356243
v 0.06459955 -1.41100940 -0.08490233
v 0.38543223 -1.10994332 1.37535094
v -1.16622205 -1.65289064 1.37535094
v -0.36172739 -1.56692793 0.72601699
v 1.20947859 -1.05427462 -0.74105810
v 1.10807721 -0.91136617 -0.10234937
v -0.29131677 -1.38835253 1.14126552
v -0.61112965 -1.54050875 1.29210113
v -1.14717873 -1.14468918 2.09400036
v -0.44072236 -1.03279748 2.09400036
v -0.48972049 -1.31221592 1.61864495
v -2.38344031 -1.50529795 1.61254767
v 0.21510356 -1.21251238 1.61254767
v -0.27113588 -1.39914847 1.17789625
v 2.03424897 0.45329171 0.74954455
v 1.61242065 2.30931367 0.14139029
v 3.19907583 1.09139275 -0.43297992
v 3.75799728 -0.90176868 0.14139029
v 1.95525762 -0.10406518 1.08501488
v -2.09266478 1.84405627 1.13713023
v -0.37742873 1.38446015 1.13713023
v -0.42180661 2.44739261 0.36922872
v 1.26129943 0.76898924 0.88903860
v 0.36809784 1.12749274 -0.45114264
v 1.64557742 0.32479911 -0.45114264
v 0.43886480 1.03756694 -0.07412286
v 0.53791404 1.37434665 -1.30755332
v 0.93878241 0.45400163 0.75878314
v 1.21323743 0.19576200 1.02396935
v -1.94692577 -0.97220985 -0.58702229
v -0.41519739 -1.01688261 -0.41354545
v 0.26644778 -1.17712710 0.91061913
v 0.26271629 -1.29938991 1.31227960
v 1.06977755 -0.79569818 0.57744919
v 1.11374325 -0.94518703 1.12494092
v 0.13384325 -0.86834013 -0.26884610
v 0.47404023 -0.65348363 -0.58702229
v 0.88844098 -0.28692302 -3.16238204
v 1.36483204 -0.07470556 -3.41041362
v -0.70669918 -0.43713348 -1.42539775
v 1.01666500 0.88525036 -1.42539775
v 1.05173515 0.90193556 -1.44193813
v -0.23099920 -0.97537055 -2.75772469
v -0.78944414 -2.22898174 -3.41041362
v -1.64064535 -1.21354323 -0.77307127
v -2.11405747 -2.20859483 -1.24237449
v -0.56234243 -0.30180727 -1.38567300
v -0.68241431 -0.34284114 -1.24237449
v -0.58906777 -0.27508193 -1.30926844
v -1.66865550 -0.17161047 0.48924951
v -2.28452568 -0.82615239 -0.14318741
v -2.39914874 -0.87607797 -0.40053634
v -2.20850189 -0.93214852 0.29769344
v -1.89469811 -1.01126348 1.42138258
v -0.35530589 0.43194976 1.67282704
v 0.85963623 -1.49357737 0.81914737
v 0.84635594 -1.49398268 0.86277605
v 0.69018565 -2.09132139 0.68728593
v 1.18386033 -1.00127427 0.31453672
v 1.21762633 -0.28119911 1.03910757
v 1.54640231 -1.10790037 -1.01324613
v 0.34961137 -3.06462677 0.68728593
v 1.35794690 0.23745182 1.17579772
v 0.11287247 -1.73395964 3.01960064
v 3.09656421 2.36830019 0.72535346
v 2.55506649 2.00932884 -0.10927029
v 1.72846413 1.48727575 -0.88236706
v 2.74867872 2.23476930 0.41437720
v 1.59985874 1.64307012 -0.21558893
v 1.88702669 1.81871041 0.03398010
v -0.71197021 1.65212479 -0.04167412
v -1.23453447 1.98215807 0.44706480
v -1.24711196 1.79690693 -0.18271042
v 0.44214150 1.71769391 1.51708965
v -2.09367230 2.12188146 -0.08723990
v -0.17734580 1.45132981 -0.08723990
v 0.28129896 1.17080930 -0.48583427
v -1.47636843 1.94688599 0.04893642
v 2.01520329 -0.15178020 -0.75092686
v 1.99067469 -0.11798907 -0.72671147
v 0.59099414 0.88203732 -1.77154293
v 1.77579342 0.46601401 0.23829807
v 1.66387993 0.30829048 -0.46662450
v 0.90695418 1.14423835 -0.26003388
v 0.55571799 0.89501702 -1.82983340
v 0.05428838 -0.80023355 -1.91595800
v 2.01325892 -0.30151770 -1.90195983
v 0.55387843 -0.97730167 -1.74976091
v -0.19309194 0.93088200 -2.87668880
v -1.47236988 -1.23548912 -1.90195983
v 0.78790468 -1.49536519 -1.70527282
v 3.53981147 -1.49536519 1.04663396
v 0.46128560 -1.14849863 1.04663396
v 0.74223144 -1.28772805 0.44685492
v 1.06908298 -1.83610297 -0.99433779
v 1.05505298 -1.37640780 0.51586289
v -2.22467971 -1.05529302 -2.22872771
v -0.97828373 -0.68569375 0.44685492
v -2.16658246 -0.22310325 -0.68239004
v -1.11709587 -0.45671957 0.63389428
v -0.78500906 -1.12280253 -0.78006868
v -2.35233592 0.13637376 0.06802522
v -2.08354351 -0.10607362 -0.15934295
v -0.92329878 -0.54892171 0.72529617
v -1.11251791 -0.37088206 0.90812504
v -1.06024808 -0.67549883 0.06802522
v -0.70551854 -0.85252490 0.20980290
v -1.40642295 0.80498614 1.63730835
v -0.14253898 -0.45889782 1.63730835
v -1.52365496 -0.57612984 0.86436510
v -0.58891132 -1.58983115 1.18473724
v -2.38942664 -1.50789907 2.70319098
v -0.35365327 -0.47062073 2.70319098
v -0.00292447 1.46146233 1.48605044
v 0.12039416 0.60822878 2.54951804
v 1.01127751 1.26994250 2.30829821
v 1.08400193 1.26347729 2.35882098
v 0.72475027 0.22731062 3.34921108
v 1.22384620 0.93732880 2.82016787
v -0.44344302 0.91632647 1.85833006
v -0.00185976 1.47217921 1.47423895
v 3.42067617 1.99640720 1.06576907
v 1.46361481 2.28618782 -0.61642661
v 2.44920507 2.26112852 -0.16773651
v 1.45115812 1.87804240 0.72442171
v 1.35360457 1.16960387 2.10348025
v 0.60084157 1.05037793 2.10348025
v 0.65305141 1.34811161 1.59696637
v 1.74561725 -0.71456914 -0.88900183
v 1.75763618 -0.68462433 -0.84407191
v 1.73072567 -0.72745216 -0.84407191
v 2.24275030 -0.03077079 0.49120613
v 1.33330728 -0.82926482 -1.17119791
v 0.22519831 -1.27402550 0.49143555
v 1.81004388 -0.27820103 0.49143555
v -1.91109377 -1.76533992 1.86745193
v -0.01566913 -0.98022933 1.86745193
v -0.32524407 -1.69097574 0.27170120
v -0.11701082 -1.14711930 1.83571893
v -0.27850915 -1.64073485 0.38423136
v 3.23460733 1.72550254 -0.54279026
v 2.56748930 1.46435503 -0.14880622
v 0.78639943 1.64192962 0.53177428
v 0.50885866 1.48412498 0.71654808
v 0.37780008 1.80751866 0.63491523
v 0.59052068 3.87635427 -0.33344641
v -0.38194976 1.39211621 1.13368549
v 1.39361033 0.67340873 -1.72129473
v 1.88826127 0.10163759 0.00381554
v 0.24386193 1.13488218 0.00381554
v 1.28144785 0.52723179 0.75707152
v 2.14185078 -0.12709696 0.21832376
v 1.47936924 -0.25406933 2.28222387
v 1.83315522 -0.00303878 0.70102846
v 1.90122155 -0.09254192 0.75707152
v 1.43865802 -0.23908982 2.34949529
v 2.82707705 -1.24692769 1.35452712
v 0.13313927 -1.43783198 3.35687409
v -2.47014897 -1.43783198 0.75358584
v 0.44211907 -1.10969818 0.75358584
v 0.59401577 -1.20200452 2.29046193
v 0.94692426 -0.87083883 0.68421729
v -0.75985938 -1.46806825 0.68421729
v 0.71890004 -0.52811343 -3.34209596
v 1.02975350 0.95073256 -1.33571791
v -0.39922963 -1.09362544 -2.63237415
v -1.42718397 -1.30970147 -1.23772925
v -1.46541660 -0.51352767 1.24241984
v -2.42842006 -1.76853822 1.24241984
v -2.21004248 -0.78750936 0.01199640
v -2.74255902 -1.86838692 -0.08126409
v -2.40229599 -1.57401839 0.94535517
v -3.01718352 -2.55260628 0.94535517
v -1.46423095 -0.30390585 -0.13961019
v -1.95783934 -1.09429039 1.47337050
v -0.67384640 0.18970254 1.47337050
v 0.24524219 1.10584685 -0.21060669
v 1.45548004 1.59159890 1.60526342
v -0.27543285 0.50399424 1.60526342
v 1.10837646 0.95523038 -1.38720970
v 1.52251611 1.90604465 0.74753560
v 1.39504943 0.54547390 -0.29434466
v 1.54542210 0.30469146 -0.78572247
v 1.15426699 0.69584657 -0.78572247
v 2.72677097 0.30151591 1.16679114
v 2.89122764 0.56485018 0.62939057
v 2.46343669 0.13705924 0.62939057
v 1.82525339 -0.51438791 1.95794410
v 0.84541995 -0.90766275 0.48777834
v 2.24680260 -0.02711567 0.48777834
v 3.25448742 1.19516462 -0.52569003
v 1.24274469 1.02440369 0.60018425
v 3.08372649 -0.81657811 0.60018425
v 1.01521407 0.28997486 1.11736451
v 2.58684679 -0.91598134 1.11736451
v 2.24374323 0.01650357 -0.42347811
v -1.59487269 1.01860775 0.00139369
v -1.18304028 0.06813063 1.00598472
v 3.64642858 0.81130400 -0.63198012
v 2.66324886 -0.10675922 0.02502708
v -0.82802407 -0.16888612 1.08405532
v -1.18359709 0.18668691 1.08405532
v 1.74601167 -0.10675922 0.51530057
v 2.00010259 -0.32521543 0.41077384
v 0.16909054 -0.16888612 0.98584810
v -0.00195665 -0.32521543 1.01809187
v -1.55056822 1.02616116 0.47339783
v -1.44225617 1.56767778 -0.08479623
v -1.58126579 1.17517040 0.93408469
v -1.49088738 1.61494793 0.45623487
v 0.71371624 -0.79158845 0.68753854
v 0.71371624 -0.78181986 0.67776995
v -0.56019535 0.76177801 -1.86405599
v -1.30875374 -0.10888567 -2.22222552
v 0.00000000 -0.25663760 -2.10260027
v -0.56019535 0.35629826 -1.98705693
v 0.95818409 0.13264552 -1.82030922
v 0.62853392 -0.15077322 -1.95591916
v 1.08806997 0.13264552 -1.75088377
v -0.24116294 1.37384265 -2.63914009
v 0.41057783 -0.15077322 -2.02203542
v 0.24560983 -0.00000000 -2.05313321
v -0.95568990 -1.47347853 0.38918758
v -1.08110924 -1.28680875 0.10021614
v -0.69646971 -0.48762375 1.49828508
v -1.26367346 0.04201380 1.11925270
v -1.38112026 0.06813063 0.63540315
v -0.96874478 -0.54425595 1.25606983
v -0.89410278 -0.48762375 1.33609181
v -0.94481451 -0.54425595 1.28522894
v -1.48497709 1.56767778 0.34895657
v -1.48497709 1.67495608 0.45623487
v -1.40275218 1.01860775 0.63473013
v -1.53403242 1.67495608 -0.04183219
v -1.31697885 -0.13803699 0.34895657
v -1.30573457 -0.19275120 0.40840747
v -0.86275963 -1.64733885 0.38918758
v -0.86899927 -1.63247452 0.40840747
v -1.84463312 1.82670307 1.11088216
v -1.14502167 1.07746948 1.61155549
v 0.40239226 -1.23521456 1.56891786
v 0.91156693 -1.23521456 1.05974319
v -1.31601019 1.02616116 -0.29983636
v -1.17327114 0.69673055 -0.64802258
v -0.89454003 0.69673055 -1.16949181
v -0.77874407 0.86869009 -1.34377642
v 0.39980343 1.52457080 -2.34681459
v -0.76456767 0.52349568 -1.86782108
v -2.31038127 -1.22840122 0.93408469
v -2.42676722 -1.50566035 1.29258675
v 0.51364527 -2.81317450 0.67776995
v 0.55730937 -2.60070684 0.44690860
v 0.47647111 -2.86719487 0.44690860
v 0.22947302 -3.45560329 -0.31391625
v 0.57295703 -0.79158845 -0.74161373
v 0.62840490 -0.51437143 -0.45585907
v -1.34180289 0.87706919 -1.26776264
v -0.57228970 1.39525228 -0.48784484
v -0.57228970 1.83839056 0.34120858
v -0.14942859 2.02161213 0.78814462
v -0.29722952 1.37384265 -2.68515274
v -0.13629163 1.19411566 -2.52373522
v 0.54246336 0.94717122 0.68753854
v 0.55390873 0.89147853 0.74805265
v 0.14221428 0.52349568 -2.14289038
v -0.43056675 -0.00000000 -2.03491654
v -0.00000000 0.00000000 -2.07732367
v -0.00000000 0.00000000 -2.07732367
v -0.00000000 -0.43056675 -2.03491654
v -0.00000000 -0.43056675 -2.03491654
v 0.64145606 -2.29684042 0.82736429
v -0.30193709 -3.39412043 0.37597040
v -0.82802407 -1.16557129 0.98589040
v -0.30193709 -1.74118758 0.87738210
v 2.26689697 0.81130400 0.50017221
v 1.91529353 0.41865172 0.85282350
v 1.34439304 0.41865172 1.54846775
v 0.93063000 1.03309887 2.17122286
v 1.76268304 -0.90027125 1.83456210
v 1.75149691 -0.90780389 1.82322471
v -1.84463312 2.97924701 0.49483459
v -1.59039520 2.68353764 0.61648212
v -1.18359709 1.85104479 0.92013038
v -1.59039520 1.40594801 1.00403470
v -1.23865033 0.04201380 1.13262784
v -1.61753828 0.36776502 0.97676269
v -1.41348873 0.18668691 1.06141297
v -1.21536273 0.36776502 1.09876131
v 1.22399758 0.66068243 -0.55619964
v 1.35817784 0.57052965 -0.34848384
v -1.14502167 0.55250962 2.04237891
v -2.00209863 1.31998565 1.27261566
v 0.20688305 -1.25447053 1.56891786
v 0.02527561 -1.29179256 1.37158835
v 0.07282772 -1.27736779 1.37158835
v 0.60308011 -1.05478205 0.68596053
v 0.10184828 -0.51437143 -2.19168364
v 0.41157957 0.20046427 -1.43614990
v -0.60739487 1.19411566 -3.09777619
v 0.06172081 0.20046427 -2.09068959
v -0.06526244 1.52457080 -2.09823170
v -0.14741056 1.44786340 -2.04333645
v -0.08501121 0.86869009 -2.18909235
v -0.60363632 1.44786340 -1.66892163
v -2.56086429 -1.75653833 1.29258675
v -2.65603471 -1.89818668 1.07331009
v 0.58438396 -0.78181986 1.99090264
v 0.47781263 -0.24900615 2.54012577
v 0.47637978 1.03309887 3.02106524
v -1.34180289 0.51058783 -1.71432147
v -2.27603622 -0.32597845 -2.55338088
v -1.30875374 -0.12604460 -2.23139716
v -2.27603622 0.90984540 -1.53916646
v 1.68022343 0.30623367 -0.34848384
v 1.41801632 0.56844079 0.14067724
v 0.13787093 2.26297137 0.74805265
v 0.10918692 2.33130353 0.65969768
v 0.49886779 1.68842650 0.14067724
v 0.27360264 2.02370336 0.65969768
v -0.39117118 0.16268042 -2.23817773
v -0.21073282 0.04117489 -2.05529965
v -0.39117118 1.16355464 -3.45774649
v -0.27149112 1.27072305 -3.56523429
v 0.67386233 -1.21180270 1.05974319
v 0.08167829 -1.09010332 0.41629277
v -2.04386486 -0.11368762 0.10021614
v -1.91715549 -0.24039699 -0.13616682
v -0.63151053 -0.87375986 0.41629277
v -0.95418199 -0.73831103 -0.00092842
v -1.93394800 -0.22661574 -0.13616682
v -2.02130930 -0.16791960 -0.00092842
v 0.64145606 -1.44164447 1.28447605
v 0.97963987 -1.80381503 1.04245655
v 1.75149691 -0.70527864 2.07000245
v 0.97963987 -1.39644384 1.37677744
v -0.56074355 1.61464644 -0.55619964
v -0.44260824 1.56505640 -0.70895116
v -2.27122694 2.12375059 -0.66465221
v -2.31199641 2.13212910 -0.70895116
v -2.00209863 0.89536942 1.79001203
v -1.99133592 0.90261693 1.77910380
v 1.70252008 -0.69972608 -0.31391625
v 1.56655622 -0.90208998 -0.62718272
v 0.91156693 -1.20323433 1.38444388
v 1.38406144 -1.29774084 0.89739765
v -0.21073282 -0.81982954 -0.44447366
v 0.03418009 -0.71371118 -0.70333031
v 0.40239226 -1.17449713 0.95244354
v 0.03418009 -1.10084877 0.57289129
v -1.40019510 -0.36794170 1.07331009
v -1.27488757 -0.24263416 0.83954234
v 0.27234957 1.02713992 0.83965288
v 0.27227816 1.02709194 0.83954234
v 2.41253980 2.17109543 0.83965288
v 2.36187800 2.14982896 0.77414607
v -0.00000000 -0.80436018 -1.92152755
v 0.00000000 -0.80436018 -1.92152755
v -0.27149112 -0.46136715 -2.14374460
v -0.00000000 -0.75211463 -1.94945338
v -1.99133592 1.52141155 0.62142049
v -1.62366942 1.68071784 0.23282148
v 2.63205853 0.39622834 -0.62718272
v 2.33275329 0.09692310 -0.06881314
v 1.79242327 -0.41906488 0.68596053
v 1.30485454 -0.74665161 -0.06881314
v -1.62366942 1.94859858 -0.65026297
v -1.06546868 2.06024772 -1.22565498
v -0.34352266 1.93388829 -0.66465221
v -1.06546868 1.93388829 0.05729381
v -0.14942859 2.13190214 1.15172205
v -0.34352266 2.09308020 0.95165033
v 2.64049693 2.29889405 0.05729381
f 756 561 210
f 342 433 208
f 342 208 642
f 852 642 208
f 354 208 508
f 354 108 852
f 354 852 208
f 356 852 108
f 356 642 852
f 690 561 508
f 690 208 433
f 690 508 208
f 395 756 210
f 255 508 561
f 255 354 508
f 111 342 642
f 538 329 642
f 493 771 490
f 493 494 771
f 493 538 494
f 88 494 642
f 88 771 494
f 88 642 356
f 394 490 412
f 394 412 391
f 394 391 744
f 394 744 81
f 129 81 744
f 272 433 342
f 305 210 561
f 305 561 720
f 305 395 210
f 616 720 561
f 616 561 690
f 616 690 433
f 710 756 395
f 710 255 756
f 710 484 771
f 710 771 356
f 522 561 756
f 522 255 561
f 522 756 255
f 256 356 108
f 256 108 354
f 256 354 255
f 112 642 329
f 112 111 642
f 112 329 111
f 324 642 494
f 324 538 642
f 324 494 538
f 170 538 493
f 170 493 490
f 170 490 394
f 170 394 81
f 358 356 771
f 358 771 88
f 358 88 356
f 797 433 272
f 797 272 720
f 797 616 433
f 797 720 616
f 637 342 111
f 637 272 342
f 637 111 329
f 663 272 744
f 663 720 272
f 527 744 391
f 527 663 744
f 527 305 720
f 527 720 663
f 488 710 356
f 488 255 710
f 488 356 256
f 488 256 255
f 290 329 538
f 290 538 170
f 290 81 329
f 290 170 81
f 327 637 329
f 327 272 637
f 327 329 81
f 327 81 129
f 327 129 744
f 327 744 272
f 56 395 305
f 56 305 527
f 449 56 527
f 449 391 412
f 449 527 391
f 449 412 490
f 449 484 710
f 449 710 395
f 449 395 56
f 449 490 771
f 449 771 484
