# Asteroid shape model (convexinv -> dual reconstruction)
v -1.22831154 -0.05911038 -0.07142857
v -1.16095320 -0.05911038 -0.14285714
v -1.16095320 -0.12646872 -0.07142857
v -1.16095320 -0.12646872 0.07142857
v -1.22831154 -0.05911038 0.07142857
v -1.16095320 -0.05911038 0.14285714
v -1.22831154 0.07560630 -0.07142857
v -1.16095320 0.07560630 -0.14285714
v -1.16095320 0.07560630 0.00000000
v -1.16095320 0.00824796 0.07142857
v -1.16095320 0.14296463 -0.07142857
v -1.09359486 -0.46326040 -0.21428571
v -1.02623652 -0.46326040 -0.28571429
v -1.02623652 -0.53061874 -0.21428571
v -1.02623652 -0.46326040 -0.14285714
v -1.09359486 -0.32854373 -0.35714286
v -1.02623652 -0.32854373 -0.42857143
v -1.02623652 -0.39590207 -0.35714286
v -1.09359486 -0.32854373 -0.21428571
v -1.02623652 -0.39590207 -0.07142857
v -1.09359486 -0.32854373 -0.07142857
v -1.02623652 -0.39590207 0.07142857
v -1.09359486 -0.32854373 0.07142857
v -1.02623652 -0.39590207 0.21428571
v -1.09359486 -0.32854373 0.21428571
v -1.02623652 -0.32854373 0.28571429
v -1.09359486 -0.19382705 -0.35714286
v -1.02623652 -0.19382705 -0.42857143
v -1.09359486 -0.19382705 -0.21428571
v -1.09359486 -0.19382705 -0.07142857
v -1.09359486 -0.19382705 0.07142857
v -1.09359486 -0.19382705 0.21428571
v -1.02623652 -0.26118539 0.35714286
v -1.09359486 -0.19382705 0.35714286
v -1.02623652 -0.19382705 0.42857143
v -1.09359486 -0.05911038 -0.50000000
v -1.02623652 -0.05911038 -0.57142857
v -1.02623652 -0.12646872 -0.50000000
v -1.09359486 -0.05911038 -0.35714286
v -1.09359486 -0.05911038 -0.21428571
v -1.09359486 -0.05911038 0.21428571
v -1.09359486 -0.05911038 0.35714286
v -1.02623652 -0.05911038 0.42857143
v -1.02623652 0.00824796 -0.50000000
v -1.09359486 0.07560630 -0.35714286
v -1.02623652 0.07560630 -0.42857143
v -1.09359486 0.07560630 -0.21428571
v -1.09359486 0.07560630 0.07142857
v -1.09359486 0.07560630 0.21428571
v -1.09359486 0.07560630 0.35714286
v -1.02623652 0.07560630 0.42857143
v -1.09359486 0.21032297 -0.35714286
v -1.02623652 0.21032297 -0.42857143
v -1.09359486 0.21032297 -0.21428571
v -1.09359486 0.21032297 -0.07142857
v -1.09359486 0.21032297 0.07142857
v -1.09359486 0.21032297 0.21428571
v -1.09359486 0.21032297 0.35714286
v -1.02623652 0.21032297 0.42857143
v -1.02623652 0.27768131 -0.35714286
v -1.09359486 0.34503965 -0.21428571
v -1.02623652 0.34503965 -0.28571429
v -1.09359486 0.34503965 -0.07142857
v -1.09359486 0.34503965 0.07142857
v -1.09359486 0.34503965 0.21428571
v -1.09359486 0.34503965 0.35714286
v -1.02623652 0.34503965 0.42857143
v -1.02623652 0.41239798 -0.21428571
v -1.02623652 0.41239798 -0.07142857
v -1.02623652 0.41239798 0.07142857
v -1.02623652 0.41239798 0.21428571
v -1.02623652 0.41239798 0.35714286
v -0.95887819 -0.59797708 -0.35714286
v -0.89151985 -0.59797708 -0.42857143
v -0.89151985 -0.66533542 -0.35714286
v -0.89151985 -0.66533542 -0.21428571
v -0.95887819 -0.59797708 -0.21428571
v -0.89151985 -0.66533542 -0.07142857
v -0.95887819 -0.59797708 -0.07142857
v -0.89151985 -0.66533542 0.07142857
v -0.95887819 -0.59797708 0.07142857
v -0.89151985 -0.66533542 0.21428571
v -0.95887819 -0.59797708 0.21428571
v -0.89151985 -0.66533542 0.35714286
v -0.95887819 -0.59797708 0.35714286
v -0.89151985 -0.59797708 0.42857143
v -0.95887819 -0.46326040 -0.50000000
v -0.89151985 -0.46326040 -0.57142857
v -0.89151985 -0.53061874 -0.50000000
v -0.95887819 -0.46326040 -0.35714286
v -0.95887819 -0.46326040 -0.07142857
v -0.95887819 -0.46326040 0.07142857
v -0.95887819 -0.46326040 0.21428571
v -0.95887819 -0.46326040 0.35714286
v -0.89151985 -0.53061874 0.50000000
v -0.95887819 -0.46326040 0.50000000
v -0.89151985 -0.46326040 0.57142857
v -0.95887819 -0.32854373 -0.64285714
v -0.89151985 -0.32854373 -0.71428571
v -0.89151985 -0.39590207 -0.64285714
v -0.95887819 -0.32854373 -0.50000000
v -0.95887819 -0.32854373 0.35714286
v -0.95887819 -0.32854373 0.50000000
v -0.89151985 -0.39590207 0.64285714
v -0.95887819 -0.32854373 0.64285714
v -0.89151985 -0.32854373 0.71428571
v -0.95887819 -0.19382705 -0.64285714
v -0.89151985 -0.19382705 -0.71428571
v -0.95887819 -0.19382705 -0.50000000
v -0.95887819 -0.19382705 0.50000000
v -0.95887819 -0.19382705 0.64285714
v -0.89151985 -0.19382705 0.71428571
v -0.95887819 -0.05911038 -0.64285714
v -0.89151985 -0.05911038 -0.71428571
v -0.95887819 -0.05911038 0.50000000
v -0.95887819 -0.05911038 0.64285714
v -0.89151985 -0.05911038 0.71428571
v -0.95887819 0.07560630 -0.64285714
v -0.89151985 0.07560630 -0.71428571
v -0.95887819 0.07560630 -0.50000000
v -0.95887819 0.07560630 0.50000000
v -0.95887819 0.07560630 0.64285714
v -0.89151985 0.07560630 0.71428571
v -0.95887819 0.21032297 -0.64285714
v -0.89151985 0.21032297 -0.71428571
v -0.95887819 0.21032297 -0.50000000
v -0.95887819 0.21032297 0.50000000
v -0.95887819 0.21032297 0.64285714
v -0.89151985 0.21032297 0.71428571
v -0.95887819 0.34503965 -0.64285714
v -0.89151985 0.34503965 -0.71428571
v -0.95887819 0.34503965 -0.50000000
v -0.95887819 0.34503965 -0.35714286
v -0.95887819 0.34503965 0.50000000
v -0.95887819 0.34503965 0.64285714
v -0.89151985 0.34503965 0.71428571
v -0.89151985 0.41239798 -0.64285714
v -0.95887819 0.47975632 -0.50000000
v -0.89151985 0.47975632 -0.57142857
v -0.95887819 0.47975632 -0.35714286
v -0.95887819 0.47975632 -0.21428571
v -0.95887819 0.47975632 -0.07142857
v -0.95887819 0.47975632 0.07142857
v -0.95887819 0.47975632 0.21428571
v -0.95887819 0.47975632 0.35714286
v -0.89151985 0.47975632 0.42857143
v -0.89151985 0.41239798 0.50000000
v -0.89151985 0.41239798 0.64285714
v -0.89151985 0.54711466 -0.50000000
v -0.95887819 0.61447300 -0.35714286
v -0.89151985 0.61447300 -0.42857143
v -0.95887819 0.61447300 -0.21428571
v -0.95887819 0.61447300 -0.07142857
v -0.95887819 0.61447300 0.07142857
v -0.95887819 0.61447300 0.21428571
v -0.95887819 0.61447300 0.35714286
v -0.89151985 0.61447300 0.42857143
v -0.89151985 0.68183134 -0.35714286
v -0.89151985 0.68183134 -0.21428571
v -0.89151985 0.68183134 -0.07142857
v -0.89151985 0.68183134 0.07142857
v -0.89151985 0.68183134 0.21428571
v -0.89151985 0.68183134 0.35714286
v -0.82416151 -0.73269375 -0.21428571
v -0.75680317 -0.73269375 -0.28571429
v -0.75680317 -0.80005209 -0.21428571
v -0.75680317 -0.80005209 -0.07142857
v -0.82416151 -0.73269375 -0.07142857
v -0.75680317 -0.80005209 0.07142857
v -0.82416151 -0.73269375 0.07142857
v -0.75680317 -0.80005209 0.21428571
v -0.82416151 -0.73269375 0.21428571
v -0.75680317 -0.73269375 0.28571429
v -0.82416151 -0.59797708 -0.50000000
v -0.75680317 -0.59797708 -0.57142857
v -0.75680317 -0.66533542 -0.50000000
v -0.75680317 -0.66533542 -0.35714286
v -0.75680317 -0.66533542 0.35714286
v -0.75680317 -0.66533542 0.50000000
v -0.82416151 -0.59797708 0.50000000
v -0.75680317 -0.59797708 0.57142857
v -0.82416151 -0.46326040 -0.64285714
v -0.75680317 -0.46326040 -0.71428571
v -0.75680317 -0.53061874 -0.64285714
v -0.75680317 -0.53061874 0.64285714
v -0.82416151 -0.46326040 0.64285714
v -0.75680317 -0.46326040 0.71428571
v -0.75680317 -0.32854373 -0.71428571
v -0.75680317 -0.39590207 0.78571429
v -0.82416151 -0.32854373 0.78571429
v -0.75680317 -0.32854373 0.85714286
v -0.82416151 -0.19382705 -0.78571429
v -0.75680317 -0.19382705 -0.85714286
v -0.75680317 -0.26118539 -0.78571429
v -0.82416151 -0.19382705 0.78571429
v -0.75680317 -0.19382705 0.85714286
v -0.82416151 -0.05911038 -0.78571429
v -0.75680317 -0.05911038 -0.85714286
v -0.82416151 -0.05911038 0.78571429
v -0.75680317 -0.05911038 0.85714286
v -0.82416151 0.07560630 -0.78571429
v -0.75680317 0.07560630 -0.85714286
v -0.82416151 0.07560630 0.78571429
v -0.75680317 0.07560630 0.85714286
v -0.75680317 0.14296463 -0.78571429
v -0.75680317 0.21032297 -0.71428571
v -0.82416151 0.21032297 0.78571429
v -0.75680317 0.21032297 0.85714286
v -0.75680317 0.34503965 -0.71428571
v -0.75680317 0.27768131 0.78571429
v -0.75680317 0.34503965 0.71428571
v -0.82416151 0.47975632 -0.64285714
v -0.75680317 0.47975632 -0.71428571
v -0.82416151 0.47975632 0.50000000
v -0.82416151 0.47975632 0.64285714
v -0.75680317 0.47975632 0.71428571
v -0.75680317 0.54711466 -0.64285714
v -0.82416151 0.61447300 -0.50000000
v -0.75680317 0.61447300 -0.57142857
v -0.82416151 0.61447300 0.50000000
v -0.75680317 0.61447300 0.57142857
v -0.75680317 0.54711466 0.64285714
v -0.75680317 0.68183134 -0.50000000
v -0.82416151 0.74918967 -0.35714286
v -0.75680317 0.74918967 -0.42857143
v -0.82416151 0.74918967 -0.21428571
v -0.82416151 0.74918967 -0.07142857
v -0.82416151 0.74918967 0.07142857
v -0.82416151 0.74918967 0.21428571
v -0.75680317 0.74918967 0.28571429
v -0.75680317 0.68183134 0.35714286
v -0.75680317 0.68183134 0.50000000
v -0.75680317 0.81654801 -0.35714286
v -0.75680317 0.81654801 -0.21428571
v -0.75680317 0.81654801 -0.07142857
v -0.75680317 0.81654801 0.07142857
v -0.75680317 0.81654801 0.21428571
v -0.68944484 -0.86741043 -0.35714286
v -0.62208650 -0.86741043 -0.42857143
v -0.62208650 -0.93476877 -0.35714286
v -0.62208650 -0.93476877 -0.21428571
v -0.68944484 -0.86741043 -0.21428571
v -0.62208650 -0.93476877 -0.07142857
v -0.68944484 -0.86741043 -0.07142857
v -0.62208650 -0.93476877 0.07142857
v -0.68944484 -0.86741043 0.07142857
v -0.62208650 -0.93476877 0.21428571
v -0.68944484 -0.86741043 0.21428571
v -0.62208650 -0.86741043 0.28571429
v -0.68944484 -0.73269375 -0.64285714
v -0.62208650 -0.73269375 -0.71428571
v -0.62208650 -0.80005209 -0.64285714
v -0.62208650 -0.80005209 -0.50000000
v -0.68944484 -0.73269375 -0.50000000
v -0.68944484 -0.73269375 -0.35714286
v -0.62208650 -0.80005209 0.35714286
v -0.68944484 -0.73269375 0.35714286
v -0.62208650 -0.80005209 0.50000000
v -0.68944484 -0.73269375 0.50000000
v -0.62208650 -0.73269375 0.57142857
v -0.68944484 -0.59797708 -0.64285714
v -0.62208650 -0.59797708 -0.71428571
v -0.62208650 -0.66533542 0.64285714
v -0.68944484 -0.59797708 0.64285714
v -0.62208650 -0.59797708 0.71428571
v -0.68944484 -0.46326040 -0.78571429
v -0.62208650 -0.46326040 -0.85714286
v -0.62208650 -0.53061874 -0.78571429
v -0.62208650 -0.53061874 0.78571429
v -0.68944484 -0.46326040 0.78571429
v -0.62208650 -0.46326040 0.85714286
v -0.68944484 -0.32854373 -0.78571429
v -0.62208650 -0.32854373 -0.85714286
v -0.62208650 -0.32854373 0.85714286
v -0.62208650 -0.19382705 -0.85714286
v -0.62208650 -0.19382705 0.85714286
v -0.62208650 -0.05911038 -0.85714286
v -0.62208650 -0.12646872 0.92857143
v -0.68944484 -0.05911038 0.92857143
v -0.62208650 -0.05911038 1.00000000
v -0.62208650 0.07560630 -0.85714286
v -0.68944484 0.07560630 0.92857143
v -0.62208650 0.07560630 1.00000000
v -0.68944484 0.21032297 -0.78571429
v -0.62208650 0.21032297 -0.85714286
v -0.62208650 0.14296463 0.92857143
v -0.62208650 0.21032297 0.85714286
v -0.68944484 0.34503965 -0.78571429
v -0.62208650 0.34503965 -0.85714286
v -0.68944484 0.34503965 0.78571429
v -0.62208650 0.34503965 0.85714286
v -0.68944484 0.47975632 -0.78571429
v -0.62208650 0.47975632 -0.85714286
v -0.68944484 0.47975632 0.78571429
v -0.62208650 0.47975632 0.85714286
v -0.62208650 0.54711466 -0.78571429
v -0.68944484 0.61447300 -0.64285714
v -0.62208650 0.61447300 -0.71428571
v -0.68944484 0.61447300 0.64285714
v -0.62208650 0.61447300 0.71428571
v -0.62208650 0.54711466 0.78571429
v -0.68944484 0.74918967 -0.64285714
v -0.62208650 0.74918967 -0.71428571
v -0.68944484 0.74918967 -0.50000000
v -0.68944484 0.74918967 0.35714286
v -0.62208650 0.74918967 0.42857143
v -0.62208650 0.68183134 0.50000000
v -0.62208650 0.68183134 0.64285714
v -0.62208650 0.81654801 -0.64285714
v -0.68944484 0.88390635 -0.50000000
v -0.62208650 0.88390635 -0.57142857
v -0.68944484 0.88390635 -0.35714286
v -0.68944484 0.88390635 -0.21428571
v -0.68944484 0.88390635 -0.07142857
v -0.68944484 0.88390635 0.07142857
v -0.68944484 0.88390635 0.21428571
v -0.68944484 0.88390635 0.35714286
v -0.62208650 0.88390635 0.42857143
v -0.62208650 0.95126469 -0.50000000
v -0.62208650 0.95126469 -0.35714286
v -0.62208650 0.95126469 -0.21428571
v -0.62208650 0.95126469 -0.07142857
v -0.62208650 0.95126469 0.07142857
v -0.62208650 0.95126469 0.21428571
v -0.62208650 0.95126469 0.35714286
v -0.55472816 -0.86741043 -0.50000000
v -0.48736982 -0.86741043 -0.57142857
v -0.48736982 -0.93476877 -0.50000000
v -0.48736982 -0.93476877 -0.35714286
v -0.48736982 -0.93476877 -0.21428571
v -0.48736982 -0.93476877 -0.07142857
v -0.48736982 -0.93476877 0.07142857
v -0.48736982 -0.93476877 0.21428571
v -0.48736982 -0.93476877 0.35714286
v -0.55472816 -0.86741043 0.35714286
v -0.48736982 -0.86741043 0.42857143
v -0.48736982 -0.73269375 -0.71428571
v -0.48736982 -0.80005209 -0.64285714
v -0.48736982 -0.80005209 0.50000000
v -0.48736982 -0.80005209 0.64285714
v -0.55472816 -0.73269375 0.64285714
v -0.48736982 -0.73269375 0.71428571
v -0.55472816 -0.59797708 -0.78571429
v -0.48736982 -0.59797708 -0.85714286
v -0.48736982 -0.66533542 -0.78571429
v -0.48736982 -0.66533542 0.78571429
v -0.55472816 -0.59797708 0.78571429
v -0.48736982 -0.59797708 0.85714286
v -0.48736982 -0.46326040 -0.85714286
v -0.48736982 -0.46326040 0.85714286
v -0.48736982 -0.32854373 -0.85714286
v -0.48736982 -0.39590207 0.92857143
v -0.55472816 -0.32854373 0.92857143
v -0.48736982 -0.32854373 1.00000000
v -0.48736982 -0.19382705 -0.85714286
v -0.55472816 -0.19382705 0.92857143
v -0.48736982 -0.19382705 1.00000000
v -0.55472816 -0.05911038 -0.92857143
v -0.48736982 -0.05911038 -1.00000000
v -0.48736982 -0.12646872 -0.92857143
v -0.48736982 -0.05911038 1.00000000
v -0.55472816 0.07560630 -0.92857143
v -0.48736982 0.07560630 -1.00000000
v -0.48736982 0.07560630 1.00000000
v -0.55472816 0.21032297 -0.92857143
v -0.48736982 0.21032297 -1.00000000
v -0.55472816 0.21032297 0.92857143
v -0.48736982 0.21032297 1.00000000
v -0.48736982 0.27768131 -0.92857143
v -0.48736982 0.34503965 -0.85714286
v -0.48736982 0.27768131 0.92857143
v -0.48736982 0.34503965 0.85714286
v -0.48736982 0.47975632 -0.85714286
v -0.48736982 0.47975632 0.85714286
v -0.55472816 0.61447300 -0.78571429
v -0.48736982 0.61447300 -0.85714286
v -0.55472816 0.61447300 0.78571429
v -0.48736982 0.61447300 0.85714286
v -0.48736982 0.68183134 -0.78571429
v -0.48736982 0.74918967 -0.71428571
v -0.55472816 0.74918967 0.50000000
v -0.55472816 0.74918967 0.64285714
v -0.48736982 0.74918967 0.71428571
v -0.48736982 0.68183134 0.78571429
v -0.48736982 0.81654801 -0.64285714
v -0.48736982 0.88390635 -0.57142857
v -0.48736982 0.81654801 0.50000000
v -0.48736982 0.88390635 0.42857143
v -0.48736982 0.81654801 0.64285714
v -0.48736982 0.95126469 -0.50000000
v -0.48736982 0.95126469 -0.35714286
v -0.48736982 0.95126469 -0.21428571
v -0.48736982 0.95126469 -0.07142857
v -0.55472816 1.01862302 0.07142857
v -0.48736982 1.01862302 0.00000000
v -0.48736982 1.01862302 0.14285714
v -0.48736982 0.95126469 0.21428571
v -0.48736982 0.95126469 0.35714286
v -0.48736982 1.08598136 0.07142857
v -0.42001149 -1.00212710 -0.35714286
v -0.35265315 -1.00212710 -0.42857143
v -0.35265315 -1.06948544 -0.35714286
v -0.35265315 -1.06948544 -0.21428571
v -0.42001149 -1.00212710 -0.21428571
v -0.35265315 -1.06948544 -0.07142857
v -0.42001149 -1.00212710 -0.07142857
v -0.35265315 -1.06948544 0.07142857
v -0.42001149 -1.00212710 0.07142857
v -0.35265315 -1.06948544 0.21428571
v -0.42001149 -1.00212710 0.21428571
v -0.35265315 -1.00212710 0.28571429
v -0.42001149 -0.86741043 -0.64285714
v -0.35265315 -0.86741043 -0.71428571
v -0.35265315 -0.93476877 -0.64285714
v -0.35265315 -0.93476877 -0.50000000
v -0.35265315 -0.93476877 0.35714286
v -0.35265315 -0.93476877 0.50000000
v -0.42001149 -0.86741043 0.50000000
v -0.35265315 -0.93476877 0.64285714
v -0.42001149 -0.86741043 0.64285714
v -0.35265315 -0.86741043 0.71428571
v -0.42001149 -0.73269375 -0.78571429
v -0.35265315 -0.73269375 -0.85714286
v -0.35265315 -0.80005209 -0.78571429
v -0.35265315 -0.73269375 0.71428571
v -0.35265315 -0.59797708 -0.85714286
v -0.35265315 -0.66533542 0.78571429
v -0.35265315 -0.59797708 0.85714286
v -0.35265315 -0.46326040 -0.85714286
v -0.35265315 -0.53061874 0.92857143
v -0.42001149 -0.46326040 0.92857143
v -0.35265315 -0.46326040 1.00000000
v -0.42001149 -0.32854373 -0.92857143
v -0.35265315 -0.32854373 -1.00000000
v -0.35265315 -0.39590207 -0.92857143
v -0.35265315 -0.32854373 1.00000000
v -0.42001149 -0.19382705 -0.92857143
v -0.35265315 -0.19382705 -1.00000000
v -0.35265315 -0.19382705 1.00000000
v -0.35265315 -0.05911038 -1.00000000
v -0.35265315 -0.05911038 1.00000000
v -0.35265315 0.07560630 -1.00000000
v -0.35265315 0.07560630 1.00000000
v -0.35265315 0.21032297 -1.00000000
v -0.35265315 0.21032297 1.00000000
v -0.42001149 0.34503965 -0.92857143
v -0.35265315 0.34503965 -1.00000000
v -0.42001149 0.34503965 0.92857143
v -0.35265315 0.34503965 1.00000000
v -0.35265315 0.41239798 -0.92857143
v -0.35265315 0.47975632 -0.85714286
v -0.35265315 0.41239798 0.92857143
v -0.35265315 0.47975632 0.85714286
v -0.35265315 0.61447300 -0.85714286
v -0.35265315 0.61447300 0.85714286
v -0.35265315 0.68183134 -0.78571429
v -0.35265315 0.74918967 -0.71428571
v -0.35265315 0.68183134 0.78571429
v -0.35265315 0.74918967 0.71428571
v -0.42001149 0.88390635 -0.64285714
v -0.35265315 0.88390635 -0.71428571
v -0.42001149 0.88390635 0.50000000
v -0.42001149 0.88390635 0.64285714
v -0.35265315 0.88390635 0.71428571
v -0.35265315 0.95126469 -0.64285714
v -0.35265315 0.95126469 -0.50000000
v -0.42001149 1.01862302 -0.35714286
v -0.35265315 1.01862302 -0.42857143
v -0.42001149 1.01862302 -0.21428571
v -0.42001149 1.01862302 -0.07142857
v -0.42001149 1.01862302 0.21428571
v -0.42001149 1.01862302 0.35714286
v -0.35265315 1.01862302 0.42857143
v -0.35265315 0.95126469 0.50000000
v -0.35265315 0.95126469 0.64285714
v -0.35265315 1.08598136 -0.35714286
v -0.35265315 1.08598136 -0.21428571
v -0.35265315 1.08598136 -0.07142857
v -0.35265315 1.08598136 0.07142857
v -0.35265315 1.08598136 0.21428571
v -0.35265315 1.08598136 0.35714286
v -0.28529481 -1.13684378 0.07142857
v -0.21793647 -1.13684378 0.00000000
v -0.21793647 -1.20420212 0.07142857
v -0.21793647 -1.13684378 0.14285714
v -0.21793647 -1.00212710 -0.42857143
v -0.21793647 -1.06948544 -0.35714286
v -0.21793647 -1.06948544 -0.21428571
v -0.21793647 -1.06948544 -0.07142857
v -0.21793647 -1.06948544 0.21428571
v -0.21793647 -1.06948544 0.35714286
v -0.28529481 -1.00212710 0.35714286
v -0.21793647 -1.00212710 0.42857143
v -0.21793647 -0.86741043 -0.71428571
v -0.21793647 -0.93476877 -0.64285714
v -0.21793647 -0.93476877 -0.50000000
v -0.21793647 -0.93476877 0.50000000
v -0.21793647 -0.93476877 0.64285714
v -0.21793647 -0.86741043 0.71428571
v -0.21793647 -0.73269375 -0.85714286
v -0.21793647 -0.80005209 -0.78571429
v -0.21793647 -0.80005209 0.78571429
v -0.28529481 -0.73269375 0.78571429
v -0.21793647 -0.73269375 0.85714286
v -0.21793647 -0.59797708 -0.85714286
v -0.21793647 -0.66533542 0.92857143
v -0.28529481 -0.59797708 0.92857143
v -0.21793647 -0.59797708 1.00000000
v -0.28529481 -0.46326040 -0.92857143
v -0.21793647 -0.46326040 -1.00000000
v -0.21793647 -0.53061874 -0.92857143
v -0.21793647 -0.46326040 1.00000000
v -0.21793647 -0.32854373 -1.00000000
v -0.21793647 -0.32854373 1.00000000
v -0.21793647 -0.19382705 -1.00000000
v -0.21793647 -0.19382705 1.00000000
v -0.21793647 -0.05911038 -1.00000000
v -0.21793647 -0.05911038 1.00000000
v -0.21793647 0.07560630 -1.00000000
v -0.21793647 0.07560630 1.00000000
v -0.21793647 0.21032297 -1.00000000
v -0.21793647 0.21032297 1.00000000
v -0.21793647 0.34503965 -1.00000000
v -0.21793647 0.34503965 1.00000000
v -0.28529481 0.47975632 -0.92857143
v -0.21793647 0.47975632 -1.00000000
v -0.28529481 0.47975632 0.92857143
v -0.21793647 0.47975632 1.00000000
v -0.21793647 0.54711466 -0.92857143
v -0.21793647 0.61447300 -0.85714286
v -0.28529481 0.61447300 0.92857143
v -0.21793647 0.61447300 1.00000000
v -0.28529481 0.74918967 -0.78571429
v -0.21793647 0.74918967 -0.85714286
v -0.28529481 0.74918967 0.78571429
v -0.21793647 0.74918967 0.85714286
v -0.21793647 0.68183134 0.92857143
v -0.21793647 0.81654801 -0.78571429
v -0.21793647 0.88390635 -0.71428571
v -0.21793647 0.81654801 0.78571429
v -0.21793647 0.88390635 0.71428571
v -0.21793647 0.95126469 -0.64285714
v -0.21793647 0.95126469 -0.50000000
v -0.21793647 1.01862302 -0.42857143
v -0.21793647 0.95126469 0.50000000
v -0.21793647 1.01862302 0.42857143
v -0.21793647 0.95126469 0.64285714
v -0.21793647 1.08598136 -0.35714286
v -0.21793647 1.08598136 -0.21428571
v -0.21793647 1.08598136 -0.07142857
v -0.28529481 1.15333970 0.07142857
v -0.21793647 1.15333970 0.00000000
v -0.21793647 1.15333970 0.14285714
v -0.21793647 1.08598136 0.21428571
v -0.21793647 1.08598136 0.35714286
v -0.21793647 1.22069804 0.07142857
v -0.15057814 -1.13684378 -0.21428571
v -0.08321980 -1.13684378 -0.28571429
v -0.08321980 -1.20420212 -0.21428571
v -0.08321980 -1.20420212 -0.07142857
v -0.15057814 -1.13684378 -0.07142857
v -0.08321980 -1.20420212 0.07142857
v -0.08321980 -1.20420212 0.21428571
v -0.15057814 -1.13684378 0.21428571
v -0.08321980 -1.13684378 0.28571429
v -0.08321980 -1.00212710 -0.42857143
v -0.08321980 -1.06948544 -0.35714286
v -0.08321980 -1.06948544 0.35714286
v -0.08321980 -1.00212710 0.42857143
v -0.15057814 -0.86741043 -0.78571429
v -0.08321980 -0.86741043 -0.85714286
v -0.08321980 -0.93476877 -0.78571429
v -0.08321980 -0.93476877 -0.64285714
v -0.08321980 -0.93476877 -0.50000000
v -0.08321980 -0.93476877 0.50000000
v -0.08321980 -0.93476877 0.64285714
v -0.08321980 -0.86741043 0.71428571
v -0.08321980 -0.73269375 -0.85714286
v -0.08321980 -0.80005209 0.78571429
v -0.08321980 -0.73269375 0.85714286
v -0.15057814 -0.59797708 -0.92857143
v -0.08321980 -0.59797708 -1.00000000
v -0.08321980 -0.66533542 -0.92857143
v -0.08321980 -0.66533542 0.92857143
v -0.08321980 -0.59797708 1.00000000
v -0.08321980 -0.46326040 -1.00000000
v -0.08321980 -0.46326040 1.00000000
v -0.08321980 -0.32854373 -1.00000000
v -0.08321980 -0.32854373 1.00000000
v -0.08321980 -0.19382705 -1.00000000
v -0.08321980 -0.19382705 1.00000000
v -0.08321980 -0.05911038 -1.00000000
v -0.08321980 -0.05911038 1.00000000
v -0.08321980 0.07560630 -1.00000000
v -0.08321980 0.07560630 1.00000000
v -0.08321980 0.21032297 -1.00000000
v -0.08321980 0.21032297 1.00000000
v -0.08321980 0.34503965 -1.00000000
v -0.08321980 0.34503965 1.00000000
v -0.08321980 0.47975632 -1.00000000
v -0.08321980 0.47975632 1.00000000
v -0.08321980 0.54711466 -0.92857143
v -0.08321980 0.61447300 -0.85714286
v -0.08321980 0.61447300 1.00000000
v -0.08321980 0.74918967 -0.85714286
v -0.08321980 0.68183134 0.92857143
v -0.08321980 0.74918967 0.85714286
v -0.08321980 0.81654801 -0.78571429
v -0.08321980 0.88390635 -0.71428571
v -0.08321980 0.81654801 0.78571429
v -0.08321980 0.88390635 0.71428571
v -0.08321980 0.95126469 -0.64285714
v -0.08321980 0.95126469 -0.50000000
v -0.08321980 1.01862302 -0.42857143
v -0.08321980 0.95126469 0.50000000
v -0.08321980 1.01862302 0.42857143
v -0.08321980 0.95126469 0.64285714
v -0.08321980 1.08598136 -0.35714286
v -0.08321980 1.08598136 -0.21428571
v -0.15057814 1.15333970 -0.07142857
v -0.08321980 1.15333970 -0.14285714
v -0.08321980 1.08598136 0.21428571
v -0.08321980 1.15333970 0.14285714
v -0.08321980 1.08598136 0.35714286
v -0.08321980 1.22069804 -0.07142857
v -0.08321980 1.22069804 0.07142857
v 0.05149688 -1.13684378 -0.28571429
v 0.05149688 -1.20420212 -0.21428571
v 0.05149688 -1.20420212 -0.07142857
v 0.05149688 -1.20420212 0.07142857
v 0.05149688 -1.20420212 0.21428571
v 0.05149688 -1.13684378 0.28571429
v 0.05149688 -1.00212710 -0.42857143
v 0.05149688 -1.06948544 -0.35714286
v 0.05149688 -1.06948544 0.35714286
v 0.05149688 -1.06948544 0.50000000
v -0.01586146 -1.00212710 0.50000000
v 0.05149688 -1.00212710 0.57142857
v 0.05149688 -0.86741043 -0.85714286
v 0.05149688 -0.93476877 -0.78571429
v 0.05149688 -0.93476877 -0.64285714
v 0.05149688 -0.93476877 -0.50000000
v 0.05149688 -0.93476877 0.64285714
v 0.05149688 -0.86741043 0.71428571
v 0.05149688 -0.73269375 -0.85714286
v 0.05149688 -0.80005209 0.78571429
v 0.05149688 -0.73269375 0.85714286
v 0.05149688 -0.59797708 -1.00000000
v 0.05149688 -0.66533542 -0.92857143
v 0.05149688 -0.66533542 0.92857143
v 0.05149688 -0.59797708 1.00000000
v 0.05149688 -0.46326040 -1.00000000
v 0.05149688 -0.46326040 1.00000000
v 0.05149688 -0.32854373 -1.00000000
v 0.05149688 -0.32854373 1.00000000
v 0.05149688 -0.19382705 -1.00000000
v 0.05149688 -0.19382705 1.00000000
v 0.05149688 -0.05911038 -1.00000000
v 0.05149688 -0.05911038 1.00000000
v 0.05149688 0.07560630 -1.00000000
v 0.05149688 0.07560630 1.00000000
v 0.05149688 0.21032297 -1.00000000
v 0.05149688 0.21032297 1.00000000
v 0.05149688 0.34503965 -1.00000000
v 0.05149688 0.34503965 1.00000000
v 0.05149688 0.47975632 -1.00000000
v 0.05149688 0.47975632 1.00000000
v -0.01586146 0.61447300 -0.92857143
v 0.05149688 0.61447300 -1.00000000
v 0.05149688 0.61447300 1.00000000
v 0.05149688 0.68183134 -0.92857143
v 0.05149688 0.74918967 -0.85714286
v 0.05149688 0.68183134 0.92857143
v 0.05149688 0.74918967 0.85714286
v 0.05149688 0.81654801 -0.78571429
v 0.05149688 0.88390635 -0.71428571
v 0.05149688 0.81654801 0.78571429
v 0.05149688 0.88390635 0.71428571
v 0.05149688 0.95126469 -0.64285714
v -0.01586146 1.01862302 -0.50000000
v 0.05149688 1.01862302 -0.57142857
v 0.05149688 0.95126469 0.50000000
v 0.05149688 1.01862302 0.42857143
v 0.05149688 0.95126469 0.64285714
v 0.05149688 1.08598136 -0.50000000
v 0.05149688 1.08598136 -0.35714286
v 0.05149688 1.08598136 -0.21428571
v 0.05149688 1.15333970 -0.14285714
v 0.05149688 1.08598136 0.21428571
v 0.05149688 1.15333970 0.14285714
v 0.05149688 1.08598136 0.35714286
v 0.05149688 1.22069804 -0.07142857
v 0.05149688 1.22069804 0.07142857
v 0.11885521 -1.13684378 -0.21428571
v 0.18621355 -1.13684378 -0.14285714
v 0.18621355 -1.20420212 -0.07142857
v 0.18621355 -1.20420212 0.07142857
v 0.11885521 -1.13684378 0.21428571
v 0.18621355 -1.13684378 0.14285714
v 0.18621355 -1.00212710 -0.42857143
v 0.18621355 -1.06948544 -0.35714286
v 0.18621355 -1.06948544 -0.21428571
v 0.18621355 -1.06948544 0.21428571
v 0.18621355 -1.06948544 0.35714286
v 0.11885521 -1.00212710 0.50000000
v 0.18621355 -1.00212710 0.42857143
v 0.11885521 -0.86741043 -0.78571429
v 0.18621355 -0.86741043 -0.71428571
v 0.18621355 -0.93476877 -0.64285714
v 0.18621355 -0.93476877 -0.50000000
v 0.18621355 -0.93476877 0.50000000
v 0.18621355 -0.93476877 0.64285714
v 0.18621355 -0.86741043 0.71428571
v 0.18621355 -0.73269375 -0.85714286
v 0.18621355 -0.80005209 -0.78571429
v 0.18621355 -0.80005209 0.78571429
v 0.18621355 -0.73269375 0.85714286
v 0.18621355 -0.59797708 -1.00000000
v 0.18621355 -0.66533542 -0.92857143
v 0.11885521 -0.59797708 0.92857143
v 0.18621355 -0.59797708 0.85714286
v 0.18621355 -0.46326040 -1.00000000
v 0.18621355 -0.53061874 0.92857143
v 0.18621355 -0.46326040 1.00000000
v 0.18621355 -0.32854373 -1.00000000
v 0.18621355 -0.32854373 1.00000000
v 0.18621355 -0.19382705 -1.00000000
v 0.18621355 -0.19382705 1.00000000
v 0.18621355 -0.05911038 -1.00000000
v 0.18621355 -0.05911038 1.00000000
v 0.18621355 0.07560630 -1.00000000
v 0.18621355 0.07560630 1.00000000
v 0.18621355 0.21032297 -1.00000000
v 0.18621355 0.21032297 1.00000000
v 0.18621355 0.34503965 -1.00000000
v 0.18621355 0.34503965 1.00000000
v 0.18621355 0.41239798 -0.92857143
v 0.11885521 0.47975632 -0.92857143
v 0.18621355 0.47975632 -0.85714286
v 0.18621355 0.47975632 1.00000000
v 0.11885521 0.61447300 -0.92857143
v 0.18621355 0.61447300 -0.85714286
v 0.18621355 0.61447300 1.00000000
v 0.18621355 0.74918967 -0.85714286
v 0.18621355 0.68183134 0.92857143
v 0.18621355 0.74918967 0.85714286
v 0.18621355 0.81654801 -0.78571429
v 0.18621355 0.88390635 -0.71428571
v 0.18621355 0.81654801 0.78571429
v 0.18621355 0.88390635 0.71428571
v 0.18621355 0.95126469 -0.64285714
v 0.11885521 1.01862302 -0.50000000
v 0.18621355 0.95126469 -0.50000000
v 0.18621355 1.01862302 -0.42857143
v 0.18621355 0.95126469 0.50000000
v 0.18621355 1.01862302 0.42857143
v 0.18621355 0.95126469 0.64285714
v 0.18621355 1.08598136 -0.35714286
v 0.18621355 1.08598136 -0.21428571
v 0.11885521 1.15333970 -0.07142857
v 0.18621355 1.08598136 -0.07142857
v 0.11885521 1.15333970 0.07142857
v 0.18621355 1.08598136 0.07142857
v 0.18621355 1.08598136 0.21428571
v 0.18621355 1.08598136 0.35714286
v 0.25357189 -1.13684378 -0.07142857
v 0.25357189 -1.13684378 0.07142857
v 0.32093023 -1.00212710 -0.42857143
v 0.32093023 -1.06948544 -0.35714286
v 0.32093023 -1.06948544 -0.21428571
v 0.32093023 -1.06948544 -0.07142857
v 0.32093023 -1.06948544 0.07142857
v 0.32093023 -1.06948544 0.21428571
v 0.32093023 -1.06948544 0.35714286
v 0.32093023 -1.00212710 0.42857143
v 0.32093023 -0.86741043 -0.71428571
v 0.32093023 -0.93476877 -0.64285714
v 0.32093023 -0.93476877 -0.50000000
v 0.32093023 -0.93476877 0.50000000
v 0.32093023 -0.93476877 0.64285714
v 0.32093023 -0.86741043 0.71428571
v 0.32093023 -0.73269375 -0.85714286
v 0.32093023 -0.80005209 -0.78571429
v 0.32093023 -0.80005209 0.78571429
v 0.32093023 -0.73269375 0.85714286
v 0.25357189 -0.59797708 -0.92857143
v 0.32093023 -0.59797708 -0.85714286
v 0.32093023 -0.59797708 0.85714286
v 0.32093023 -0.46326040 -1.00000000
v 0.32093023 -0.53061874 -0.92857143
v 0.25357189 -0.46326040 0.92857143
v 0.32093023 -0.46326040 0.85714286
v 0.32093023 -0.32854373 -1.00000000
v 0.32093023 -0.39590207 0.92857143
v 0.32093023 -0.32854373 1.00000000
v 0.32093023 -0.19382705 -1.00000000
v 0.32093023 -0.19382705 1.00000000
v 0.32093023 -0.05911038 -1.00000000
v 0.32093023 -0.05911038 1.00000000
v 0.32093023 0.07560630 -1.00000000
v 0.32093023 0.07560630 1.00000000
v 0.32093023 0.21032297 -1.00000000
v 0.32093023 0.21032297 1.00000000
v 0.32093023 0.34503965 -1.00000000
v 0.32093023 0.34503965 1.00000000
v 0.32093023 0.41239798 -0.92857143
v 0.32093023 0.47975632 -0.85714286
v 0.25357189 0.47975632 0.92857143
v 0.32093023 0.41239798 0.92857143
v 0.32093023 0.47975632 0.85714286
v 0.32093023 0.61447300 -0.85714286
v 0.25357189 0.61447300 0.92857143
v 0.32093023 0.61447300 0.85714286
v 0.32093023 0.74918967 -0.85714286
v 0.25357189 0.74918967 0.78571429
v 0.32093023 0.68183134 0.78571429
v 0.32093023 0.74918967 0.71428571
v 0.32093023 0.81654801 -0.78571429
v 0.32093023 0.88390635 -0.71428571
v 0.32093023 0.88390635 0.71428571
v 0.32093023 0.95126469 -0.64285714
v 0.32093023 0.95126469 -0.50000000
v 0.32093023 1.01862302 -0.42857143
v 0.25357189 1.01862302 0.35714286
v 0.32093023 0.95126469 0.35714286
v 0.32093023 1.01862302 0.28571429
v 0.32093023 0.95126469 0.50000000
v 0.32093023 0.95126469 0.64285714
v 0.32093023 1.08598136 -0.35714286
v 0.32093023 1.08598136 -0.21428571
v 0.32093023 1.08598136 -0.07142857
v 0.32093023 1.08598136 0.07142857
v 0.32093023 1.08598136 0.21428571
v 0.38828856 -1.00212710 -0.35714286
v 0.38828856 -1.00212710 -0.21428571
v 0.45564690 -1.00212710 -0.14285714
v 0.45564690 -1.06948544 -0.07142857
v 0.45564690 -1.06948544 0.07142857
v 0.38828856 -1.00212710 0.21428571
v 0.45564690 -1.00212710 0.14285714
v 0.38828856 -1.00212710 0.35714286
v 0.38828856 -0.86741043 -0.64285714
v 0.45564690 -0.86741043 -0.57142857
v 0.45564690 -0.93476877 -0.50000000
v 0.45564690 -0.93476877 -0.35714286
v 0.45564690 -0.93476877 -0.21428571
v 0.45564690 -0.93476877 0.21428571
v 0.45564690 -0.93476877 0.35714286
v 0.45564690 -0.93476877 0.50000000
v 0.38828856 -0.86741043 0.64285714
v 0.45564690 -0.86741043 0.57142857
v 0.38828856 -0.73269375 -0.78571429
v 0.45564690 -0.73269375 -0.71428571
v 0.45564690 -0.80005209 -0.64285714
v 0.45564690 -0.80005209 0.64285714
v 0.38828856 -0.73269375 0.78571429
v 0.45564690 -0.73269375 0.71428571
v 0.45564690 -0.59797708 -0.85714286
v 0.45564690 -0.66533542 -0.78571429
v 0.45564690 -0.66533542 0.78571429
v 0.45564690 -0.59797708 0.85714286
v 0.38828856 -0.46326040 -0.92857143
v 0.45564690 -0.46326040 -0.85714286
v 0.45564690 -0.46326040 0.85714286
v 0.45564690 -0.32854373 -1.00000000
v 0.45564690 -0.39590207 -0.92857143
v 0.38828856 -0.32854373 0.92857143
v 0.45564690 -0.32854373 0.85714286
v 0.45564690 -0.19382705 -1.00000000
v 0.45564690 -0.26118539 0.92857143
v 0.45564690 -0.19382705 1.00000000
v 0.45564690 -0.05911038 -1.00000000
v 0.45564690 -0.05911038 1.00000000
v 0.45564690 0.07560630 -1.00000000
v 0.45564690 0.07560630 1.00000000
v 0.45564690 0.21032297 -1.00000000
v 0.45564690 0.21032297 1.00000000
v 0.45564690 0.27768131 -0.92857143
v 0.38828856 0.34503965 -0.92857143
v 0.45564690 0.34503965 -0.85714286
v 0.38828856 0.34503965 0.92857143
v 0.45564690 0.27768131 0.92857143
v 0.45564690 0.34503965 0.85714286
v 0.45564690 0.47975632 -0.85714286
v 0.45564690 0.47975632 0.85714286
v 0.45564690 0.61447300 -0.85714286
v 0.45564690 0.61447300 0.85714286
v 0.45564690 0.68183134 -0.78571429
v 0.38828856 0.74918967 -0.78571429
v 0.45564690 0.74918967 -0.71428571
v 0.45564690 0.68183134 0.78571429
v 0.45564690 0.74918967 0.71428571
v 0.38828856 0.88390635 -0.64285714
v 0.45564690 0.81654801 -0.64285714
v 0.45564690 0.88390635 -0.57142857
v 0.38828856 0.88390635 0.64285714
v 0.45564690 0.81654801 0.64285714
v 0.45564690 0.88390635 0.57142857
v 0.45564690 0.95126469 -0.50000000
v 0.38828856 1.01862302 -0.35714286
v 0.45564690 0.95126469 -0.35714286
v 0.45564690 1.01862302 -0.28571429
v 0.38828856 1.01862302 0.07142857
v 0.45564690 0.95126469 0.07142857
v 0.45564690 1.01862302 0.00000000
v 0.38828856 1.01862302 0.21428571
v 0.45564690 0.95126469 0.21428571
v 0.45564690 0.95126469 0.35714286
v 0.45564690 0.95126469 0.50000000
v 0.45564690 1.08598136 -0.21428571
v 0.45564690 1.08598136 -0.07142857
v 0.52300524 -1.00212710 -0.07142857
v 0.52300524 -1.00212710 0.07142857
v 0.52300524 -0.86741043 -0.50000000
v 0.59036358 -0.86741043 -0.42857143
v 0.59036358 -0.93476877 -0.35714286
v 0.59036358 -0.93476877 -0.21428571
v 0.59036358 -0.93476877 -0.07142857
v 0.59036358 -0.93476877 0.07142857
v 0.59036358 -0.93476877 0.21428571
v 0.59036358 -0.93476877 0.35714286
v 0.52300524 -0.86741043 0.50000000
v 0.59036358 -0.86741043 0.42857143
v 0.52300524 -0.73269375 -0.64285714
v 0.59036358 -0.73269375 -0.57142857
v 0.59036358 -0.80005209 -0.50000000
v 0.59036358 -0.80005209 0.50000000
v 0.52300524 -0.73269375 0.64285714
v 0.59036358 -0.73269375 0.57142857
v 0.52300524 -0.59797708 -0.78571429
v 0.59036358 -0.59797708 -0.71428571
v 0.59036358 -0.66533542 -0.64285714
v 0.59036358 -0.66533542 0.64285714
v 0.52300524 -0.59797708 0.78571429
v 0.59036358 -0.59797708 0.71428571
v 0.59036358 -0.46326040 -0.85714286
v 0.59036358 -0.53061874 -0.78571429
v 0.59036358 -0.53061874 0.78571429
v 0.59036358 -0.46326040 0.85714286
v 0.52300524 -0.32854373 -0.92857143
v 0.59036358 -0.32854373 -0.85714286
v 0.59036358 -0.32854373 0.85714286
v 0.59036358 -0.19382705 -1.00000000
v 0.59036358 -0.26118539 -0.92857143
v 0.52300524 -0.19382705 0.92857143
v 0.59036358 -0.19382705 0.85714286
v 0.59036358 -0.05911038 -1.00000000
v 0.52300524 -0.05911038 0.92857143
v 0.59036358 -0.05911038 0.85714286
v 0.59036358 0.07560630 -1.00000000
v 0.59036358 0.00824796 0.92857143
v 0.59036358 0.07560630 1.00000000
v 0.59036358 0.14296463 -0.92857143
v 0.52300524 0.21032297 -0.92857143
v 0.59036358 0.21032297 -0.85714286
v 0.52300524 0.21032297 0.92857143
v 0.59036358 0.14296463 0.92857143
v 0.59036358 0.21032297 0.85714286
v 0.59036358 0.34503965 -0.85714286
v 0.59036358 0.34503965 0.85714286
v 0.59036358 0.47975632 -0.85714286
v 0.52300524 0.47975632 0.78571429
v 0.59036358 0.41239798 0.78571429
v 0.59036358 0.47975632 0.71428571
v 0.59036358 0.54711466 -0.78571429
v 0.52300524 0.61447300 -0.78571429
v 0.59036358 0.61447300 -0.71428571
v 0.52300524 0.61447300 0.78571429
v 0.59036358 0.61447300 0.71428571
v 0.59036358 0.74918967 -0.71428571
v 0.59036358 0.74918967 0.71428571
v 0.59036358 0.81654801 -0.64285714
v 0.52300524 0.88390635 -0.50000000
v 0.59036358 0.81654801 -0.50000000
v 0.59036358 0.88390635 -0.42857143
v 0.52300524 0.88390635 0.50000000
v 0.59036358 0.81654801 0.50000000
v 0.59036358 0.88390635 0.42857143
v 0.59036358 0.81654801 0.64285714
v 0.59036358 0.95126469 -0.35714286
v 0.52300524 1.01862302 -0.21428571
v 0.59036358 0.95126469 -0.21428571
v 0.52300524 1.01862302 -0.07142857
v 0.59036358 0.95126469 -0.07142857
v 0.59036358 0.95126469 0.07142857
v 0.59036358 0.95126469 0.21428571
v 0.59036358 0.95126469 0.35714286
v 0.65772191 -0.86741043 -0.35714286
v 0.65772191 -0.86741043 -0.21428571
v 0.72508025 -0.86741043 -0.14285714
v 0.72508025 -0.93476877 -0.07142857
v 0.65772191 -0.86741043 0.07142857
v 0.72508025 -0.86741043 0.00000000
v 0.65772191 -0.86741043 0.21428571
v 0.65772191 -0.86741043 0.35714286
v 0.65772191 -0.73269375 -0.50000000
v 0.72508025 -0.73269375 -0.42857143
v 0.72508025 -0.80005209 -0.35714286
v 0.72508025 -0.80005209 -0.21428571
v 0.72508025 -0.80005209 0.07142857
v 0.72508025 -0.80005209 0.21428571
v 0.72508025 -0.73269375 0.28571429
v 0.65772191 -0.73269375 0.35714286
v 0.65772191 -0.73269375 0.50000000
v 0.65772191 -0.59797708 -0.64285714
v 0.72508025 -0.59797708 -0.57142857
v 0.72508025 -0.66533542 -0.50000000
v 0.72508025 -0.66533542 0.35714286
v 0.72508025 -0.66533542 0.50000000
v 0.65772191 -0.59797708 0.64285714
v 0.72508025 -0.59797708 0.57142857
v 0.65772191 -0.46326040 -0.78571429
v 0.72508025 -0.46326040 -0.71428571
v 0.72508025 -0.53061874 -0.64285714
v 0.72508025 -0.53061874 0.64285714
v 0.65772191 -0.46326040 0.78571429
v 0.72508025 -0.46326040 0.71428571
v 0.72508025 -0.32854373 -0.85714286
v 0.72508025 -0.39590207 -0.78571429
v 0.65772191 -0.32854373 0.78571429
v 0.72508025 -0.32854373 0.71428571
v 0.65772191 -0.19382705 -0.92857143
v 0.72508025 -0.19382705 -0.85714286
v 0.65772191 -0.19382705 0.78571429
v 0.72508025 -0.19382705 0.71428571
v 0.65772191 -0.05911038 -0.92857143
v 0.72508025 -0.05911038 -0.85714286
v 0.65772191 -0.05911038 0.78571429
v 0.72508025 -0.05911038 0.71428571
v 0.65772191 0.07560630 -0.92857143
v 0.72508025 0.07560630 -0.85714286
v 0.72508025 0.00824796 0.78571429
v 0.65772191 0.07560630 0.92857143
v 0.72508025 0.07560630 0.85714286
v 0.72508025 0.21032297 -0.85714286
v 0.65772191 0.21032297 0.78571429
v 0.72508025 0.14296463 0.78571429
v 0.72508025 0.21032297 0.71428571
v 0.72508025 0.27768131 -0.78571429
v 0.65772191 0.34503965 -0.78571429
v 0.72508025 0.34503965 -0.71428571
v 0.65772191 0.34503965 0.78571429
v 0.72508025 0.34503965 0.71428571
v 0.65772191 0.47975632 -0.78571429
v 0.72508025 0.47975632 -0.71428571
v 0.72508025 0.47975632 0.71428571
v 0.72508025 0.61447300 -0.71428571
v 0.65772191 0.61447300 0.64285714
v 0.72508025 0.54711466 0.64285714
v 0.72508025 0.61447300 0.57142857
v 0.72508025 0.68183134 -0.64285714
v 0.65772191 0.74918967 -0.64285714
v 0.65772191 0.74918967 -0.50000000
v 0.72508025 0.68183134 -0.50000000
v 0.72508025 0.74918967 -0.42857143
v 0.65772191 0.74918967 0.35714286
v 0.72508025 0.68183134 0.35714286
v 0.72508025 0.74918967 0.28571429
v 0.65772191 0.74918967 0.50000000
v 0.72508025 0.68183134 0.50000000
v 0.65772191 0.74918967 0.64285714
v 0.65772191 0.88390635 -0.35714286
v 0.72508025 0.81654801 -0.35714286
v 0.65772191 0.88390635 -0.21428571
v 0.72508025 0.81654801 -0.21428571
v 0.65772191 0.88390635 -0.07142857
v 0.72508025 0.81654801 -0.07142857
v 0.65772191 0.88390635 0.07142857
v 0.72508025 0.81654801 0.07142857
v 0.65772191 0.88390635 0.21428571
v 0.72508025 0.81654801 0.21428571
v 0.65772191 0.88390635 0.35714286
v 0.79243859 -0.86741043 -0.07142857
v 0.79243859 -0.73269375 -0.35714286
v 0.79243859 -0.73269375 -0.21428571
v 0.79243859 -0.73269375 -0.07142857
v 0.85979693 -0.80005209 0.07142857
v 0.85979693 -0.73269375 0.00000000
v 0.79243859 -0.73269375 0.21428571
v 0.85979693 -0.73269375 0.14285714
v 0.79243859 -0.59797708 -0.50000000
v 0.85979693 -0.59797708 -0.42857143
v 0.85979693 -0.66533542 -0.35714286
v 0.85979693 -0.66533542 -0.21428571
v 0.85979693 -0.66533542 -0.07142857
v 0.85979693 -0.66533542 0.21428571
v 0.85979693 -0.66533542 0.35714286
v 0.79243859 -0.59797708 0.50000000
v 0.85979693 -0.59797708 0.42857143
v 0.79243859 -0.46326040 -0.64285714
v 0.85979693 -0.46326040 -0.57142857
v 0.85979693 -0.53061874 -0.50000000
v 0.79243859 -0.46326040 0.50000000
v 0.85979693 -0.46326040 0.42857143
v 0.79243859 -0.46326040 0.64285714
v 0.79243859 -0.32854373 -0.78571429
v 0.85979693 -0.32854373 -0.71428571
v 0.85979693 -0.39590207 -0.64285714
v 0.85979693 -0.39590207 0.50000000
v 0.85979693 -0.39590207 0.64285714
v 0.85979693 -0.32854373 0.71428571
v 0.79243859 -0.19382705 -0.78571429
v 0.85979693 -0.19382705 -0.71428571
v 0.85979693 -0.19382705 0.71428571
v 0.79243859 -0.05911038 -0.78571429
v 0.85979693 -0.05911038 -0.71428571
v 0.85979693 -0.05911038 0.71428571
v 0.79243859 0.07560630 -0.78571429
v 0.85979693 0.07560630 -0.71428571
v 0.79243859 0.07560630 0.78571429
v 0.85979693 0.07560630 0.71428571
v 0.79243859 0.21032297 -0.78571429
v 0.85979693 0.21032297 -0.71428571
v 0.85979693 0.21032297 0.71428571
v 0.85979693 0.34503965 -0.71428571
v 0.85979693 0.34503965 0.71428571
v 0.85979693 0.41239798 -0.64285714
v 0.79243859 0.47975632 -0.64285714
v 0.85979693 0.47975632 -0.57142857
v 0.79243859 0.47975632 0.50000000
v 0.85979693 0.41239798 0.50000000
v 0.85979693 0.47975632 0.42857143
v 0.79243859 0.47975632 0.64285714
v 0.85979693 0.41239798 0.64285714
v 0.79243859 0.61447300 -0.64285714
v 0.85979693 0.54711466 -0.50000000
v 0.79243859 0.61447300 -0.50000000
v 0.85979693 0.61447300 -0.42857143
v 0.79243859 0.61447300 0.50000000
v 0.85979693 0.61447300 0.42857143
v 0.79243859 0.74918967 -0.35714286
v 0.85979693 0.68183134 -0.35714286
v 0.79243859 0.74918967 -0.21428571
v 0.85979693 0.68183134 -0.21428571
v 0.79243859 0.74918967 -0.07142857
v 0.85979693 0.68183134 -0.07142857
v 0.79243859 0.74918967 0.07142857
v 0.85979693 0.68183134 0.07142857
v 0.79243859 0.74918967 0.21428571
v 0.85979693 0.68183134 0.21428571
v 0.85979693 0.68183134 0.35714286
v 0.92715526 -0.73269375 0.07142857
v 0.92715526 -0.59797708 -0.35714286
v 0.92715526 -0.59797708 -0.21428571
v 0.92715526 -0.59797708 -0.07142857
v 0.92715526 -0.59797708 0.07142857
v 0.92715526 -0.59797708 0.21428571
v 0.92715526 -0.59797708 0.35714286
v 0.92715526 -0.46326040 -0.50000000
v 0.92715526 -0.46326040 -0.35714286
v 0.99451360 -0.46326040 -0.28571429
v 0.99451360 -0.53061874 -0.21428571
v 0.99451360 -0.53061874 -0.07142857
v 0.99451360 -0.53061874 0.07142857
v 0.99451360 -0.46326040 0.14285714
v 0.92715526 -0.46326040 0.21428571
v 0.92715526 -0.46326040 0.35714286
v 0.92715526 -0.32854373 -0.64285714
v 0.92715526 -0.32854373 -0.50000000
v 0.99451360 -0.32854373 -0.42857143
v 0.99451360 -0.39590207 -0.35714286
v 0.99451360 -0.39590207 0.21428571
v 0.99451360 -0.39590207 0.35714286
v 0.92715526 -0.32854373 0.50000000
v 0.99451360 -0.32854373 0.42857143
v 0.92715526 -0.32854373 0.64285714
v 0.92715526 -0.19382705 -0.64285714
v 0.92715526 -0.19382705 -0.50000000
v 0.99451360 -0.19382705 -0.42857143
v 0.92715526 -0.19382705 0.50000000
v 0.99451360 -0.19382705 0.42857143
v 0.92715526 -0.19382705 0.64285714
v 0.92715526 -0.05911038 -0.64285714
v 0.99451360 -0.05911038 -0.57142857
v 0.99451360 -0.12646872 -0.50000000
v 0.92715526 -0.05911038 0.50000000
v 0.99451360 -0.05911038 0.42857143
v 0.92715526 -0.05911038 0.64285714
v 0.92715526 0.07560630 -0.64285714
v 0.99451360 0.07560630 -0.57142857
v 0.92715526 0.07560630 0.50000000
v 0.99451360 0.07560630 0.42857143
v 0.92715526 0.07560630 0.64285714
v 0.92715526 0.21032297 -0.64285714
v 0.99451360 0.21032297 -0.57142857
v 0.92715526 0.21032297 0.50000000
v 0.99451360 0.21032297 0.42857143
v 0.92715526 0.21032297 0.64285714
v 0.92715526 0.34503965 -0.64285714
v 0.99451360 0.34503965 -0.57142857
v 0.92715526 0.34503965 0.50000000
v 0.99451360 0.34503965 0.42857143
v 0.92715526 0.34503965 0.64285714
v 0.92715526 0.47975632 -0.50000000
v 0.99451360 0.41239798 -0.50000000
v 0.92715526 0.47975632 -0.35714286
v 0.99451360 0.41239798 -0.35714286
v 0.99451360 0.47975632 -0.28571429
v 0.92715526 0.47975632 0.35714286
v 0.99451360 0.41239798 0.35714286
v 0.99451360 0.47975632 0.28571429
v 0.92715526 0.61447300 -0.35714286
v 0.99451360 0.54711466 -0.21428571
v 0.92715526 0.61447300 -0.21428571
v 0.92715526 0.61447300 -0.07142857
v 0.99451360 0.54711466 -0.07142857
v 0.99451360 0.61447300 0.00000000
v 0.92715526 0.61447300 0.21428571
v 0.99451360 0.54711466 0.21428571
v 0.99451360 0.61447300 0.14285714
v 0.92715526 0.61447300 0.35714286
v 0.99451360 0.68183134 0.07142857
v 1.06187194 -0.46326040 -0.21428571
v 1.06187194 -0.46326040 -0.07142857
v 1.06187194 -0.46326040 0.07142857
v 1.06187194 -0.32854373 -0.35714286
v 1.06187194 -0.32854373 -0.21428571
v 1.06187194 -0.32854373 -0.07142857
v 1.06187194 -0.32854373 0.07142857
v 1.06187194 -0.32854373 0.21428571
v 1.06187194 -0.32854373 0.35714286
v 1.06187194 -0.19382705 -0.35714286
v 1.06187194 -0.19382705 -0.21428571
v 1.06187194 -0.19382705 -0.07142857
v 1.06187194 -0.19382705 0.07142857
v 1.06187194 -0.19382705 0.21428571
v 1.06187194 -0.19382705 0.35714286
v 1.06187194 -0.05911038 -0.50000000
v 1.06187194 -0.05911038 -0.35714286
v 1.12923028 -0.05911038 -0.28571429
v 1.12923028 -0.12646872 -0.21428571
v 1.12923028 -0.12646872 -0.07142857
v 1.12923028 -0.12646872 0.07142857
v 1.12923028 -0.05911038 0.14285714
v 1.06187194 -0.05911038 0.21428571
v 1.06187194 -0.05911038 0.35714286
v 1.06187194 0.07560630 -0.50000000
v 1.12923028 0.07560630 -0.42857143
v 1.12923028 0.00824796 -0.35714286
v 1.06187194 0.07560630 0.21428571
v 1.12923028 0.07560630 0.14285714
v 1.06187194 0.07560630 0.35714286
v 1.06187194 0.21032297 -0.50000000
v 1.12923028 0.14296463 -0.35714286
v 1.06187194 0.21032297 -0.35714286
v 1.12923028 0.21032297 -0.28571429
v 1.06187194 0.21032297 0.21428571
v 1.12923028 0.21032297 0.14285714
v 1.06187194 0.21032297 0.35714286
v 1.06187194 0.34503965 -0.50000000
v 1.06187194 0.34503965 -0.35714286
v 1.12923028 0.27768131 -0.21428571
v 1.06187194 0.34503965 -0.21428571
v 1.06187194 0.34503965 -0.07142857
v 1.12923028 0.27768131 -0.07142857
v 1.06187194 0.34503965 0.07142857
v 1.12923028 0.27768131 0.07142857
v 1.06187194 0.34503965 0.21428571
v 1.06187194 0.34503965 0.35714286
v 1.06187194 0.47975632 -0.21428571
v 1.06187194 0.47975632 -0.07142857
v 1.06187194 0.47975632 0.07142857
v 1.06187194 0.47975632 0.21428571
v 1.06187194 0.61447300 0.07142857
v 1.19658861 -0.05911038 -0.21428571
v 1.19658861 -0.05911038 -0.07142857
v 1.19658861 -0.05911038 0.07142857
v 1.19658861 0.07560630 -0.35714286
v 1.19658861 0.07560630 -0.21428571
v 1.19658861 0.07560630 -0.07142857
v 1.19658861 0.07560630 0.07142857
v 1.19658861 0.21032297 -0.21428571
v 1.19658861 0.21032297 -0.07142857
v 1.19658861 0.21032297 0.07142857
f 3 2 1
f 5 4 1
f 1 4 3
f 5 6 4
f 1 2 7
f 7 2 8
f 10 5 9
f 5 7 9
f 5 1 7
f 5 10 6
f 8 11 7
f 7 11 9
f 14 13 12
f 12 15 14
f 18 17 16
f 18 16 13
f 16 12 13
f 16 19 12
f 15 12 20
f 12 21 20
f 12 19 21
f 23 22 21
f 21 22 20
f 25 24 23
f 23 24 22
f 25 26 24
f 16 17 27
f 27 17 28
f 16 29 19
f 16 27 29
f 19 30 21
f 19 29 30
f 21 31 23
f 21 30 31
f 23 32 25
f 23 31 32
f 26 25 33
f 25 34 33
f 25 32 34
f 34 35 33
f 38 37 36
f 38 36 28
f 36 27 28
f 36 39 27
f 27 40 29
f 27 39 40
f 40 2 3
f 30 40 3
f 29 40 30
f 30 3 4
f 30 4 31
f 31 4 6
f 41 31 6
f 32 31 41
f 32 42 34
f 32 41 42
f 35 34 43
f 43 34 42
f 37 44 36
f 46 45 44
f 45 36 44
f 45 39 36
f 39 47 40
f 39 45 47
f 47 8 2
f 47 2 40
f 9 48 10
f 41 6 10
f 48 41 10
f 49 41 48
f 41 50 42
f 41 49 50
f 43 42 51
f 51 42 50
f 45 46 52
f 52 46 53
f 45 54 47
f 45 52 54
f 55 11 8
f 47 55 8
f 54 55 47
f 48 9 11
f 55 48 11
f 56 48 55
f 48 57 49
f 48 56 57
f 49 58 50
f 49 57 58
f 51 50 59
f 59 50 58
f 53 60 52
f 62 61 60
f 61 52 60
f 61 54 52
f 54 63 55
f 54 61 63
f 55 64 56
f 55 63 64
f 56 65 57
f 56 64 65
f 57 66 58
f 57 65 66
f 59 58 67
f 67 58 66
f 62 68 61
f 61 68 63
f 63 68 69
f 63 69 64
f 64 69 70
f 64 70 65
f 65 70 71
f 65 71 66
f 66 71 72
f 66 72 67
f 75 74 73
f 77 76 73
f 73 76 75
f 79 78 77
f 77 78 76
f 81 80 79
f 79 80 78
f 83 82 81
f 81 82 80
f 85 84 83
f 83 84 82
f 85 86 84
f 89 88 87
f 89 87 74
f 87 73 74
f 87 90 73
f 90 13 14
f 77 90 14
f 73 90 77
f 77 14 15
f 91 77 15
f 79 77 91
f 79 92 81
f 79 91 92
f 81 93 83
f 81 92 93
f 83 94 85
f 83 93 94
f 86 85 95
f 85 96 95
f 85 94 96
f 96 97 95
f 100 99 98
f 100 98 88
f 98 87 88
f 98 101 87
f 101 17 18
f 90 101 18
f 87 101 90
f 90 18 13
f 20 91 15
f 91 20 22
f 91 22 92
f 92 22 24
f 92 24 93
f 93 24 26
f 102 93 26
f 94 93 102
f 94 103 96
f 94 102 103
f 97 96 104
f 96 105 104
f 96 103 105
f 105 106 104
f 98 99 107
f 107 99 108
f 98 109 101
f 98 107 109
f 109 28 17
f 109 17 101
f 33 102 26
f 102 33 35
f 110 102 35
f 103 102 110
f 103 111 105
f 103 110 111
f 106 105 112
f 112 105 111
f 107 108 113
f 113 108 114
f 113 37 38
f 109 113 38
f 107 113 109
f 109 38 28
f 43 115 110
f 43 110 35
f 110 116 111
f 110 115 116
f 112 111 117
f 117 111 116
f 113 114 118
f 118 114 119
f 120 44 37
f 113 120 37
f 118 120 113
f 120 46 44
f 51 121 115
f 51 115 43
f 115 122 116
f 115 121 122
f 117 116 123
f 123 116 122
f 118 119 124
f 124 119 125
f 118 126 120
f 118 124 126
f 126 53 46
f 126 46 120
f 59 127 121
f 59 121 51
f 121 128 122
f 121 127 128
f 123 122 129
f 129 122 128
f 124 125 130
f 130 125 131
f 124 132 126
f 124 130 132
f 133 60 53
f 126 133 53
f 132 133 126
f 133 62 60
f 67 134 127
f 67 127 59
f 127 135 128
f 127 134 135
f 129 128 136
f 136 128 135
f 131 137 130
f 139 138 137
f 138 130 137
f 138 132 130
f 132 140 133
f 132 138 140
f 141 68 62
f 133 141 62
f 140 141 133
f 142 69 68
f 142 68 141
f 143 70 69
f 143 69 142
f 144 71 70
f 144 70 143
f 145 72 71
f 145 71 144
f 145 146 72
f 72 146 67
f 146 147 67
f 147 134 67
f 134 147 135
f 135 147 148
f 135 148 136
f 139 149 138
f 151 150 149
f 150 138 149
f 150 140 138
f 140 152 141
f 140 150 152
f 141 153 142
f 141 152 153
f 142 154 143
f 142 153 154
f 143 155 144
f 143 154 155
f 144 156 145
f 144 155 156
f 146 145 157
f 157 145 156
f 151 158 150
f 150 158 152
f 152 158 159
f 152 159 153
f 153 159 160
f 153 160 154
f 154 160 161
f 154 161 155
f 155 161 162
f 155 162 156
f 156 162 163
f 156 163 157
f 166 165 164
f 168 167 164
f 164 167 166
f 170 169 168
f 168 169 167
f 172 171 170
f 170 171 169
f 172 173 171
f 176 175 174
f 74 75 174
f 75 176 174
f 75 177 176
f 76 164 165
f 177 76 165
f 75 76 177
f 164 76 78
f 164 78 168
f 168 78 80
f 168 80 170
f 170 80 82
f 170 82 172
f 178 173 172
f 82 178 172
f 84 178 82
f 180 179 86
f 179 84 86
f 179 178 84
f 180 181 179
f 184 183 182
f 184 182 175
f 175 182 174
f 182 88 174
f 88 89 174
f 174 89 74
f 95 180 86
f 186 185 97
f 97 185 95
f 185 181 95
f 181 180 95
f 186 187 185
f 182 183 100
f 183 99 100
f 183 188 99
f 182 100 88
f 104 186 97
f 190 189 106
f 106 189 104
f 189 187 104
f 187 186 104
f 190 191 189
f 194 193 192
f 188 194 192
f 108 188 192
f 99 188 108
f 112 195 190
f 112 190 106
f 191 190 196
f 196 190 195
f 192 193 197
f 197 193 198
f 197 114 108
f 197 108 192
f 117 199 195
f 117 195 112
f 196 195 200
f 200 195 199
f 197 198 201
f 201 198 202
f 201 119 114
f 201 114 197
f 123 203 199
f 123 199 117
f 200 199 204
f 204 199 203
f 202 205 201
f 119 201 205
f 206 119 205
f 125 119 206
f 129 207 203
f 129 203 123
f 204 203 208
f 208 203 207
f 206 131 125
f 209 131 206
f 211 210 207
f 129 211 207
f 136 211 129
f 207 210 208
f 137 131 212
f 131 213 212
f 131 209 213
f 212 139 137
f 146 214 147
f 215 148 147
f 215 147 214
f 215 216 148
f 216 136 148
f 216 211 136
f 213 217 212
f 217 219 218
f 217 218 149
f 212 217 149
f 139 212 149
f 218 151 149
f 157 220 214
f 157 214 146
f 222 215 221
f 215 220 221
f 215 214 220
f 215 222 216
f 219 223 218
f 223 225 224
f 223 224 158
f 218 223 158
f 151 218 158
f 226 159 158
f 226 158 224
f 227 160 159
f 227 159 226
f 228 161 160
f 228 160 227
f 229 162 161
f 229 161 228
f 162 229 230
f 231 162 230
f 163 162 231
f 157 163 220
f 163 232 220
f 163 231 232
f 220 232 221
f 225 233 224
f 224 233 226
f 226 233 234
f 226 234 227
f 227 234 235
f 227 235 228
f 228 235 236
f 228 236 229
f 229 236 237
f 229 237 230
f 240 239 238
f 242 241 238
f 238 241 240
f 244 243 242
f 242 243 241
f 246 245 244
f 244 245 243
f 248 247 246
f 246 247 245
f 248 249 247
f 252 251 250
f 254 253 250
f 250 253 252
f 253 254 239
f 254 238 239
f 254 255 238
f 255 165 166
f 242 255 166
f 238 255 242
f 242 166 167
f 242 167 244
f 244 167 169
f 244 169 246
f 246 169 171
f 246 171 248
f 257 256 173
f 173 256 171
f 256 249 171
f 249 248 171
f 259 258 257
f 257 258 256
f 259 260 258
f 250 251 261
f 261 251 262
f 261 175 176
f 254 261 176
f 250 261 254
f 254 176 177
f 254 177 255
f 255 177 165
f 178 257 173
f 257 178 179
f 257 179 259
f 264 263 181
f 181 263 179
f 263 260 179
f 260 259 179
f 264 265 263
f 268 267 266
f 268 266 262
f 262 266 261
f 266 183 261
f 183 184 261
f 261 184 175
f 185 264 181
f 270 269 187
f 187 269 185
f 269 265 185
f 265 264 185
f 270 271 269
f 266 267 272
f 272 267 273
f 272 188 183
f 272 183 266
f 189 270 187
f 189 191 270
f 191 271 270
f 191 274 271
f 272 273 194
f 273 193 194
f 273 275 193
f 272 194 188
f 196 274 191
f 196 276 274
f 275 198 193
f 277 198 275
f 200 279 278
f 276 200 278
f 196 200 276
f 279 280 278
f 277 202 198
f 281 202 277
f 204 282 279
f 204 279 200
f 280 279 283
f 283 279 282
f 205 202 284
f 202 285 284
f 202 281 285
f 284 206 205
f 287 286 282
f 204 287 282
f 208 287 204
f 282 286 283
f 284 285 288
f 288 285 289
f 288 209 206
f 288 206 284
f 211 290 210
f 290 291 210
f 291 208 210
f 291 287 208
f 288 289 292
f 292 289 293
f 292 213 209
f 292 209 288
f 216 294 290
f 216 290 211
f 291 290 295
f 295 290 294
f 293 296 292
f 296 298 297
f 296 297 217
f 292 296 217
f 213 292 217
f 297 219 217
f 221 299 222
f 299 300 222
f 222 300 216
f 300 301 216
f 301 294 216
f 294 301 295
f 297 298 302
f 302 298 303
f 304 223 219
f 297 304 219
f 302 304 297
f 304 225 223
f 230 305 231
f 231 305 306
f 307 231 306
f 232 231 307
f 221 232 299
f 232 308 299
f 232 307 308
f 299 308 300
f 303 309 302
f 311 310 309
f 310 302 309
f 310 304 302
f 312 233 225
f 304 312 225
f 310 312 304
f 313 234 233
f 313 233 312
f 314 235 234
f 314 234 313
f 315 236 235
f 315 235 314
f 316 237 236
f 316 236 315
f 305 230 237
f 316 305 237
f 317 305 316
f 306 305 318
f 318 305 317
f 311 319 310
f 310 319 312
f 312 319 320
f 312 320 313
f 313 320 321
f 313 321 314
f 314 321 322
f 314 322 315
f 315 322 323
f 315 323 316
f 316 323 324
f 316 324 317
f 317 324 325
f 317 325 318
f 328 327 326
f 239 240 326
f 240 328 326
f 240 329 328
f 330 240 241
f 330 329 240
f 331 241 243
f 331 330 241
f 332 243 245
f 332 331 243
f 333 245 247
f 333 332 245
f 335 334 249
f 334 247 249
f 334 333 247
f 335 336 334
f 338 337 252
f 252 337 251
f 253 326 327
f 338 253 327
f 252 253 338
f 326 253 239
f 256 335 249
f 339 336 335
f 256 339 335
f 258 339 256
f 341 340 260
f 340 258 260
f 340 339 258
f 341 342 340
f 345 344 343
f 337 345 343
f 262 337 343
f 251 337 262
f 263 341 260
f 347 346 265
f 265 346 263
f 346 342 263
f 342 341 263
f 347 348 346
f 343 344 268
f 344 267 268
f 344 349 267
f 343 268 262
f 269 347 265
f 269 271 347
f 271 348 347
f 271 350 348
f 349 273 267
f 351 273 349
f 274 353 352
f 350 274 352
f 271 274 350
f 353 354 352
f 351 275 273
f 355 275 351
f 276 356 353
f 276 353 274
f 354 353 357
f 357 353 356
f 360 359 358
f 355 360 358
f 277 355 358
f 275 355 277
f 278 356 276
f 278 280 356
f 280 357 356
f 280 361 357
f 358 359 362
f 362 359 363
f 362 281 277
f 362 277 358
f 283 361 280
f 283 364 361
f 362 363 365
f 365 363 366
f 365 285 281
f 365 281 362
f 287 367 286
f 367 368 286
f 368 283 286
f 368 364 283
f 366 369 365
f 285 365 369
f 370 285 369
f 289 285 370
f 372 371 367
f 287 372 367
f 291 372 287
f 367 371 368
f 370 293 289
f 373 293 370
f 295 372 291
f 295 374 372
f 296 293 375
f 293 376 375
f 293 373 376
f 375 298 296
f 300 377 301
f 377 378 301
f 378 295 301
f 378 374 295
f 376 379 375
f 298 375 379
f 380 298 379
f 303 298 380
f 306 381 307
f 382 308 307
f 382 307 381
f 382 383 308
f 308 383 300
f 383 384 300
f 384 377 300
f 377 384 378
f 380 385 303
f 303 385 309
f 311 309 385
f 311 385 386
f 388 387 381
f 306 388 381
f 318 388 306
f 381 387 382
f 382 387 389
f 382 389 383
f 386 390 311
f 311 390 319
f 319 391 320
f 390 391 319
f 320 392 321
f 391 392 320
f 321 393 322
f 392 393 321
f 393 395 394
f 323 393 394
f 322 393 323
f 323 394 396
f 397 323 396
f 324 323 397
f 324 398 325
f 397 398 324
f 318 325 388
f 388 325 398
f 395 399 394
f 394 399 396
f 402 401 400
f 404 403 400
f 400 403 402
f 406 405 404
f 404 405 403
f 408 407 406
f 406 407 405
f 410 409 408
f 408 409 407
f 410 411 409
f 414 413 412
f 327 328 412
f 328 414 412
f 328 415 414
f 329 400 401
f 415 329 401
f 328 329 415
f 400 329 330
f 400 330 404
f 404 330 331
f 404 331 406
f 406 331 332
f 406 332 408
f 408 332 333
f 408 333 410
f 416 411 410
f 333 416 410
f 334 416 333
f 418 417 336
f 417 334 336
f 417 416 334
f 420 419 418
f 418 419 417
f 420 421 419
f 424 423 422
f 424 422 413
f 413 422 412
f 422 337 412
f 337 338 412
f 412 338 327
f 339 418 336
f 418 339 340
f 418 340 420
f 340 342 420
f 342 421 420
f 342 425 421
f 422 423 345
f 423 344 345
f 423 426 344
f 422 345 337
f 427 425 342
f 427 342 346
f 346 348 427
f 427 348 428
f 426 349 344
f 429 349 426
f 350 431 430
f 428 350 430
f 348 350 428
f 431 432 430
f 435 434 433
f 429 435 433
f 351 429 433
f 349 429 351
f 352 431 350
f 352 354 431
f 354 432 431
f 354 436 432
f 433 434 437
f 437 434 438
f 437 355 351
f 437 351 433
f 357 436 354
f 357 439 436
f 437 438 360
f 438 359 360
f 438 440 359
f 437 360 355
f 361 439 357
f 361 441 439
f 440 363 359
f 442 363 440
f 364 441 361
f 364 443 441
f 442 366 363
f 444 366 442
f 368 443 364
f 368 445 443
f 369 366 446
f 366 447 446
f 366 444 447
f 446 370 369
f 372 448 371
f 448 449 371
f 449 368 371
f 449 445 368
f 447 450 446
f 370 446 450
f 451 370 450
f 373 370 451
f 453 452 448
f 372 453 448
f 374 453 372
f 448 452 449
f 451 376 373
f 454 376 451
f 378 453 374
f 378 455 453
f 454 456 376
f 376 456 379
f 380 379 456
f 380 456 457
f 459 458 384
f 459 384 383
f 378 384 455
f 455 384 458
f 385 380 460
f 380 461 460
f 380 457 461
f 460 386 385
f 388 462 387
f 463 389 387
f 463 387 462
f 463 464 389
f 464 383 389
f 464 459 383
f 461 465 460
f 460 465 386
f 465 390 386
f 465 466 390
f 466 468 467
f 391 466 467
f 390 466 391
f 469 392 391
f 469 391 467
f 470 393 392
f 470 392 469
f 470 395 393
f 396 471 397
f 472 398 397
f 472 397 471
f 472 473 398
f 398 473 388
f 473 474 388
f 474 462 388
f 462 474 463
f 463 474 475
f 463 475 464
f 468 476 467
f 467 476 469
f 469 476 477
f 469 477 470
f 470 477 478
f 470 478 395
f 478 399 395
f 478 479 399
f 396 399 471
f 399 480 471
f 399 479 480
f 471 480 472
f 472 480 481
f 472 481 473
f 484 483 482
f 482 485 484
f 487 486 402
f 402 486 401
f 488 402 403
f 488 487 402
f 489 403 405
f 489 488 403
f 407 482 483
f 489 407 483
f 405 407 489
f 490 485 482
f 407 490 482
f 409 490 407
f 492 491 411
f 491 409 411
f 491 490 409
f 492 493 491
f 495 494 414
f 414 494 413
f 496 414 415
f 496 495 414
f 415 401 486
f 415 486 496
f 416 492 411
f 497 493 492
f 416 497 492
f 417 497 416
f 498 417 419
f 498 497 417
f 419 421 498
f 498 421 499
f 501 500 424
f 424 500 423
f 424 413 494
f 424 494 501
f 425 503 502
f 499 425 502
f 421 425 499
f 503 504 502
f 500 426 423
f 505 426 500
f 427 503 425
f 507 506 428
f 428 506 427
f 506 504 427
f 504 503 427
f 507 508 506
f 511 510 509
f 505 511 509
f 429 505 509
f 426 505 429
f 430 507 428
f 430 432 507
f 432 508 507
f 432 512 508
f 509 510 435
f 510 434 435
f 510 513 434
f 509 435 429
f 436 512 432
f 436 514 512
f 513 438 434
f 515 438 513
f 439 514 436
f 439 516 514
f 515 440 438
f 517 440 515
f 441 516 439
f 441 518 516
f 517 442 440
f 519 442 517
f 443 518 441
f 443 520 518
f 519 444 442
f 521 444 519
f 445 520 443
f 445 522 520
f 521 447 444
f 523 447 521
f 449 522 445
f 449 524 522
f 450 447 525
f 447 526 525
f 447 523 526
f 525 451 450
f 453 527 452
f 527 528 452
f 528 449 452
f 528 524 449
f 526 529 525
f 451 525 529
f 530 451 529
f 454 451 530
f 455 531 527
f 455 527 453
f 528 527 532
f 532 527 531
f 456 454 533
f 454 534 533
f 454 530 534
f 533 457 456
f 459 535 458
f 535 536 458
f 458 536 455
f 536 537 455
f 537 531 455
f 531 537 532
f 534 538 533
f 457 533 538
f 539 457 538
f 461 457 539
f 541 540 535
f 459 541 535
f 464 541 459
f 535 540 536
f 539 542 461
f 461 542 465
f 465 543 466
f 542 543 465
f 468 466 543
f 468 543 544
f 546 545 474
f 546 474 473
f 474 547 475
f 545 547 474
f 464 475 541
f 541 475 547
f 544 548 468
f 468 548 476
f 476 549 477
f 548 549 476
f 477 550 478
f 549 550 477
f 550 552 551
f 479 550 551
f 478 550 479
f 479 551 553
f 554 479 553
f 480 479 554
f 480 555 481
f 554 555 480
f 473 481 546
f 546 481 555
f 552 556 551
f 551 556 553
f 559 558 557
f 561 560 557
f 557 560 559
f 483 484 561
f 484 560 561
f 484 562 560
f 564 563 485
f 563 484 485
f 563 562 484
f 564 565 563
f 567 566 487
f 487 566 486
f 488 557 558
f 567 488 558
f 487 488 567
f 557 488 489
f 557 489 561
f 561 489 483
f 490 564 485
f 568 565 564
f 490 568 564
f 491 568 490
f 491 493 568
f 568 493 569
f 572 571 570
f 494 495 570
f 495 572 570
f 495 573 572
f 574 495 496
f 574 573 495
f 496 486 566
f 496 566 574
f 575 569 493
f 575 493 497
f 576 497 498
f 576 575 497
f 498 499 576
f 576 499 577
f 570 571 501
f 571 500 501
f 571 578 500
f 570 501 494
f 579 577 499
f 579 499 502
f 502 504 579
f 579 504 580
f 583 582 581
f 578 583 581
f 505 578 581
f 500 578 505
f 584 580 504
f 584 504 506
f 506 508 584
f 584 508 585
f 581 582 511
f 582 510 511
f 582 586 510
f 581 511 505
f 512 585 508
f 512 587 585
f 586 513 510
f 588 513 586
f 514 587 512
f 514 589 587
f 588 515 513
f 590 515 588
f 516 589 514
f 516 591 589
f 590 517 515
f 592 517 590
f 518 591 516
f 518 593 591
f 592 519 517
f 594 519 592
f 520 593 518
f 520 595 593
f 594 521 519
f 596 521 594
f 522 595 520
f 522 597 595
f 596 523 521
f 598 523 596
f 524 597 522
f 524 599 597
f 598 526 523
f 600 526 598
f 528 599 524
f 528 601 599
f 600 602 526
f 526 602 529
f 530 529 602
f 530 602 603
f 532 601 528
f 532 604 601
f 603 534 530
f 605 534 603
f 607 606 537
f 607 537 536
f 532 537 604
f 604 537 606
f 605 608 534
f 534 608 538
f 539 538 608
f 539 608 609
f 611 610 540
f 611 540 541
f 536 540 607
f 607 540 610
f 609 612 539
f 539 612 542
f 542 613 543
f 612 613 542
f 544 543 613
f 544 613 614
f 616 615 545
f 616 545 546
f 545 617 547
f 615 617 545
f 541 547 611
f 611 547 617
f 614 618 544
f 544 618 548
f 548 619 549
f 618 619 548
f 619 621 620
f 550 619 620
f 549 619 550
f 620 552 550
f 623 622 554
f 623 554 553
f 554 624 555
f 622 624 554
f 546 555 616
f 616 555 624
f 621 625 620
f 620 625 552
f 625 556 552
f 625 626 556
f 553 556 623
f 623 556 626
f 628 627 559
f 559 627 558
f 629 559 560
f 629 628 559
f 630 560 562
f 630 629 560
f 631 562 563
f 631 630 562
f 563 565 631
f 631 565 632
f 634 633 567
f 567 633 566
f 567 558 627
f 567 627 634
f 635 632 565
f 635 565 568
f 637 636 569
f 636 568 569
f 636 635 568
f 637 638 636
f 640 639 572
f 572 639 571
f 641 572 573
f 641 640 572
f 642 573 574
f 642 641 573
f 574 566 633
f 574 633 642
f 575 637 569
f 643 638 637
f 575 643 637
f 576 643 575
f 576 577 643
f 643 577 644
f 639 578 571
f 645 578 639
f 646 644 577
f 646 577 579
f 579 580 646
f 646 580 647
f 649 648 583
f 583 648 582
f 583 578 645
f 583 645 649
f 650 647 580
f 650 580 584
f 584 585 650
f 650 585 651
f 648 586 582
f 652 586 648
f 587 651 585
f 587 653 651
f 652 588 586
f 654 588 652
f 589 653 587
f 589 655 653
f 654 590 588
f 656 590 654
f 591 655 589
f 591 657 655
f 656 592 590
f 658 592 656
f 593 657 591
f 593 659 657
f 658 594 592
f 660 594 658
f 595 659 593
f 595 661 659
f 660 596 594
f 662 596 660
f 597 661 595
f 597 663 661
f 662 598 596
f 664 598 662
f 599 663 597
f 599 665 663
f 664 600 598
f 666 600 664
f 601 665 599
f 601 667 665
f 602 600 668
f 600 669 668
f 600 666 669
f 668 603 602
f 604 667 601
f 604 670 667
f 669 671 668
f 603 668 671
f 672 603 671
f 605 603 672
f 674 673 606
f 674 606 607
f 604 606 670
f 670 606 673
f 672 675 605
f 605 675 608
f 609 608 675
f 609 675 676
f 678 677 610
f 678 610 611
f 607 610 674
f 674 610 677
f 676 679 609
f 609 679 612
f 679 681 680
f 613 679 680
f 612 679 613
f 680 614 613
f 683 682 615
f 683 615 616
f 615 684 617
f 682 684 615
f 611 617 678
f 678 617 684
f 681 685 680
f 680 685 614
f 685 618 614
f 685 686 618
f 618 687 619
f 686 687 618
f 621 619 687
f 621 687 688
f 690 689 622
f 690 622 623
f 622 691 624
f 689 691 622
f 616 624 683
f 683 624 691
f 688 692 621
f 621 692 625
f 625 693 626
f 692 693 625
f 623 626 690
f 690 626 693
f 694 627 628
f 694 628 695
f 628 696 695
f 628 629 696
f 697 629 630
f 697 696 629
f 699 697 698
f 697 631 698
f 697 630 631
f 632 698 631
f 701 700 634
f 634 700 633
f 634 627 694
f 702 634 694
f 701 634 702
f 702 694 695
f 703 699 698
f 703 698 632
f 635 703 632
f 704 703 635
f 706 704 705
f 704 636 705
f 704 635 636
f 638 705 636
f 707 639 640
f 707 640 708
f 640 709 708
f 640 641 709
f 710 641 642
f 710 709 641
f 642 633 700
f 642 700 710
f 711 706 705
f 711 705 638
f 643 711 638
f 712 711 643
f 643 644 712
f 712 644 713
f 715 714 707
f 714 639 707
f 714 645 639
f 715 707 708
f 716 713 644
f 716 644 646
f 646 647 716
f 716 647 717
f 719 718 649
f 649 718 648
f 649 645 714
f 649 714 719
f 647 650 720
f 721 647 720
f 717 647 721
f 651 720 650
f 718 652 648
f 722 652 718
f 723 721 720
f 720 651 723
f 651 724 723
f 651 653 724
f 722 654 652
f 725 654 722
f 655 724 653
f 655 726 724
f 725 656 654
f 727 656 725
f 657 726 655
f 657 728 726
f 727 658 656
f 729 658 727
f 659 728 657
f 659 730 728
f 729 660 658
f 731 660 729
f 661 730 659
f 661 732 730
f 731 662 660
f 733 662 731
f 663 732 661
f 663 734 732
f 733 664 662
f 735 664 733
f 665 734 663
f 665 736 734
f 738 666 737
f 666 735 737
f 666 664 735
f 739 738 737
f 667 736 665
f 667 740 736
f 741 669 738
f 738 669 666
f 738 739 742
f 738 742 741
f 670 740 667
f 670 743 740
f 741 671 669
f 672 671 741
f 742 672 741
f 744 672 742
f 746 745 673
f 746 673 674
f 670 673 743
f 743 673 745
f 744 747 672
f 672 747 675
f 676 675 747
f 676 747 748
f 750 749 677
f 750 677 678
f 674 677 746
f 746 677 749
f 748 751 676
f 676 751 679
f 753 752 681
f 679 753 681
f 751 753 679
f 754 752 753
f 756 755 682
f 756 682 683
f 682 757 684
f 755 757 682
f 678 684 750
f 750 684 757
f 752 685 681
f 754 758 752
f 758 685 752
f 758 686 685
f 686 759 687
f 758 759 686
f 761 760 688
f 687 761 688
f 759 761 687
f 763 762 760
f 763 760 761
f 689 690 762
f 763 689 762
f 764 689 763
f 689 765 691
f 764 765 689
f 683 691 756
f 756 691 765
f 760 692 688
f 692 760 693
f 693 760 762
f 693 762 690
f 766 695 696
f 697 767 696
f 696 767 766
f 699 767 697
f 769 768 701
f 701 768 700
f 770 701 702
f 770 769 701
f 702 695 766
f 771 702 766
f 770 702 771
f 771 766 767
f 771 767 772
f 772 767 699
f 703 772 699
f 773 772 703
f 774 703 704
f 774 773 703
f 704 706 774
f 774 706 775
f 777 776 709
f 709 776 708
f 778 709 710
f 778 777 709
f 710 700 768
f 710 768 778
f 779 775 706
f 779 706 711
f 780 711 712
f 780 779 711
f 712 713 780
f 780 713 781
f 783 782 715
f 715 782 714
f 715 708 776
f 715 776 783
f 784 781 713
f 784 713 716
f 716 717 784
f 784 717 785
f 786 718 719
f 787 786 719
f 714 787 719
f 782 787 714
f 721 785 717
f 721 788 785
f 790 789 786
f 789 718 786
f 789 722 718
f 790 786 787
f 721 723 791
f 792 721 791
f 788 721 792
f 724 791 723
f 789 725 722
f 793 725 789
f 794 792 791
f 791 724 794
f 724 795 794
f 724 726 795
f 793 727 725
f 796 727 793
f 728 795 726
f 728 797 795
f 796 729 727
f 798 729 796
f 730 797 728
f 730 799 797
f 798 731 729
f 800 731 798
f 732 799 730
f 732 801 799
f 800 733 731
f 802 733 800
f 734 801 732
f 734 803 801
f 802 735 733
f 804 735 802
f 736 803 734
f 736 805 803
f 804 806 735
f 735 806 737
f 739 737 806
f 739 806 807
f 810 809 808
f 809 805 808
f 805 740 808
f 805 736 740
f 807 742 739
f 811 742 807
f 810 808 812
f 810 812 813
f 743 812 740
f 740 812 808
f 811 744 742
f 814 744 811
f 817 816 815
f 815 816 813
f 815 813 812
f 746 815 812
f 745 746 812
f 745 812 743
f 814 818 744
f 744 818 747
f 748 747 818
f 748 818 819
f 817 815 749
f 750 817 749
f 820 817 750
f 749 815 746
f 819 821 748
f 748 821 751
f 751 822 753
f 821 822 751
f 754 753 822
f 754 822 823
f 826 825 824
f 755 756 824
f 825 755 824
f 827 755 825
f 755 828 757
f 827 828 755
f 750 757 820
f 820 757 828
f 823 829 754
f 754 829 758
f 758 830 759
f 829 830 758
f 759 831 761
f 830 831 759
f 761 832 763
f 831 832 761
f 763 833 764
f 832 833 763
f 824 765 826
f 765 833 826
f 765 764 833
f 765 824 756
f 834 768 769
f 770 835 769
f 769 835 834
f 835 770 836
f 770 837 836
f 770 771 837
f 838 771 772
f 838 837 771
f 840 838 839
f 838 773 839
f 838 772 773
f 774 841 773
f 773 841 839
f 775 841 774
f 842 776 777
f 842 777 843
f 777 844 843
f 777 778 844
f 778 768 834
f 845 778 834
f 844 778 845
f 845 834 835
f 845 835 846
f 846 835 836
f 847 840 839
f 847 839 841
f 847 841 848
f 848 841 775
f 779 848 775
f 849 848 779
f 851 849 850
f 849 780 850
f 849 779 780
f 781 850 780
f 852 782 783
f 853 852 783
f 853 783 776
f 854 853 776
f 842 854 776
f 854 842 843
f 855 851 850
f 857 855 856
f 856 855 784
f 855 850 784
f 850 781 784
f 785 856 784
f 859 858 852
f 858 782 852
f 858 787 782
f 859 852 853
f 860 857 856
f 856 785 860
f 785 861 860
f 785 788 861
f 862 789 790
f 863 862 790
f 787 863 790
f 858 863 787
f 792 861 788
f 792 864 861
f 866 865 862
f 865 789 862
f 865 793 789
f 866 862 863
f 792 794 867
f 868 792 867
f 864 792 868
f 795 867 794
f 865 796 793
f 869 796 865
f 870 868 867
f 867 795 870
f 795 871 870
f 795 797 871
f 869 798 796
f 872 798 869
f 799 871 797
f 799 873 871
f 872 800 798
f 874 800 872
f 801 873 799
f 801 875 873
f 874 802 800
f 876 802 874
f 803 875 801
f 803 877 875
f 879 804 878
f 804 876 878
f 804 802 876
f 880 879 878
f 883 882 881
f 882 877 881
f 877 805 881
f 877 803 805
f 879 806 804
f 807 806 879
f 880 807 879
f 884 807 880
f 883 881 809
f 810 883 809
f 885 883 810
f 809 881 805
f 884 811 807
f 886 811 884
f 813 885 810
f 813 887 885
f 889 814 888
f 814 886 888
f 814 811 886
f 890 889 888
f 892 891 816
f 892 816 817
f 813 816 887
f 887 816 891
f 889 818 814
f 894 893 819
f 894 819 818
f 890 894 818
f 889 890 818
f 895 893 894
f 898 897 896
f 897 892 896
f 892 820 896
f 892 817 820
f 893 821 819
f 895 899 893
f 899 821 893
f 899 822 821
f 901 900 823
f 822 901 823
f 899 901 822
f 902 900 901
f 905 904 903
f 907 906 903
f 907 903 904
f 825 826 906
f 907 825 906
f 908 825 907
f 825 909 827
f 908 909 825
f 896 828 898
f 828 909 898
f 828 827 909
f 828 896 820
f 900 829 823
f 902 910 900
f 910 829 900
f 910 830 829
f 830 911 831
f 910 911 830
f 903 832 905
f 832 911 905
f 832 831 911
f 832 903 833
f 833 903 906
f 833 906 826
f 912 836 837
f 838 913 837
f 837 913 912
f 840 913 838
f 914 843 844
f 914 844 915
f 844 916 915
f 844 845 916
f 917 845 846
f 917 916 845
f 846 836 912
f 918 846 912
f 917 846 918
f 918 912 913
f 918 913 919
f 919 913 840
f 847 919 840
f 920 919 847
f 921 847 848
f 921 920 847
f 923 921 922
f 921 849 922
f 921 848 849
f 851 922 849
f 924 853 854
f 925 924 854
f 925 854 843
f 926 925 843
f 914 926 843
f 926 914 915
f 927 923 922
f 929 927 928
f 928 927 855
f 927 922 855
f 922 851 855
f 857 928 855
f 930 858 859
f 931 930 859
f 931 859 853
f 932 931 853
f 924 932 853
f 932 924 925
f 933 929 928
f 935 933 934
f 934 933 860
f 933 928 860
f 928 857 860
f 861 934 860
f 937 936 930
f 936 858 930
f 936 863 858
f 937 930 931
f 938 935 934
f 934 861 938
f 861 939 938
f 861 864 939
f 940 865 866
f 941 940 866
f 863 941 866
f 936 941 863
f 868 939 864
f 868 942 939
f 944 943 940
f 943 865 940
f 943 869 865
f 944 940 941
f 868 870 945
f 946 868 945
f 942 868 946
f 871 945 870
f 943 872 869
f 947 872 943
f 946 945 948
f 946 948 949
f 873 948 871
f 871 948 945
f 947 874 872
f 950 874 947
f 951 949 948
f 948 873 951
f 873 952 951
f 873 875 952
f 954 876 953
f 876 950 953
f 876 874 950
f 955 954 953
f 958 957 956
f 957 952 956
f 952 877 956
f 952 875 877
f 954 878 876
f 880 878 954
f 955 880 954
f 959 880 955
f 958 956 882
f 883 958 882
f 960 958 883
f 882 956 877
f 959 884 880
f 961 884 959
f 964 963 962
f 963 960 962
f 960 885 962
f 960 883 885
f 966 886 965
f 886 961 965
f 886 884 961
f 967 966 965
f 964 962 968
f 964 968 969
f 887 968 885
f 885 968 962
f 966 888 886
f 890 888 966
f 967 890 966
f 970 890 967
f 969 968 891
f 892 969 891
f 971 969 892
f 891 968 887
f 970 972 890
f 890 972 894
f 974 973 895
f 894 974 895
f 972 974 894
f 975 973 974
f 978 977 976
f 897 898 976
f 977 897 976
f 979 897 977
f 892 897 971
f 971 897 979
f 973 899 895
f 975 980 973
f 980 899 973
f 980 901 899
f 982 981 902
f 901 982 902
f 980 982 901
f 984 983 981
f 984 981 982
f 904 905 983
f 984 904 983
f 985 904 984
f 904 986 907
f 985 986 904
f 907 987 908
f 986 987 907
f 976 909 978
f 909 987 978
f 909 908 987
f 909 976 898
f 981 910 902
f 910 981 911
f 911 981 983
f 911 983 905
f 988 915 916
f 917 989 916
f 916 989 988
f 989 917 990
f 917 991 990
f 917 918 991
f 993 991 992
f 991 919 992
f 991 918 919
f 920 994 919
f 919 994 992
f 921 995 920
f 920 995 994
f 923 995 921
f 996 925 926
f 997 996 926
f 997 926 915
f 998 997 915
f 988 998 915
f 998 988 989
f 998 989 999
f 999 989 990
f 1000 993 992
f 1000 992 994
f 1000 994 1001
f 1003 1002 1001
f 994 1003 1001
f 995 1003 994
f 927 1004 923
f 1004 995 923
f 1004 1003 995
f 929 1004 927
f 1005 931 932
f 1006 1005 932
f 1006 932 925
f 1007 1006 925
f 996 1007 925
f 1007 996 997
f 1008 1002 1003
f 1008 1003 1004
f 1008 1004 1009
f 1011 1009 1010
f 1010 1009 933
f 1009 1004 933
f 1004 929 933
f 935 1010 933
f 1012 936 937
f 1013 1012 937
f 1013 937 931
f 1014 1013 931
f 1005 1014 931
f 1014 1005 1006
f 1015 1011 1010
f 1017 1015 1016
f 1016 1015 938
f 1015 1010 938
f 1010 935 938
f 939 1016 938
f 1019 1018 1012
f 1018 936 1012
f 1018 941 936
f 1019 1012 1013
f 1017 1016 1020
f 1017 1020 1021
f 942 1020 939
f 939 1020 1016
f 1022 943 944
f 1023 1022 944
f 941 1023 944
f 1018 1023 941
f 1021 1020 1024
f 1021 1024 1025
f 946 1024 942
f 942 1024 1020
f 1026 947 1022
f 1022 947 943
f 1022 1023 1027
f 1022 1027 1026
f 1025 1024 1028
f 1025 1028 1029
f 949 1028 946
f 946 1028 1024
f 1030 950 1026
f 1026 950 947
f 1026 1027 1031
f 1026 1031 1030
f 1032 1029 1028
f 1034 1032 1033
f 1033 1032 951
f 1032 1028 951
f 1028 949 951
f 952 1033 951
f 1030 953 950
f 955 953 1030
f 1031 955 1030
f 1035 955 1031
f 1038 1037 1036
f 1036 1037 1034
f 1036 1034 1033
f 958 1036 1033
f 957 958 1033
f 957 1033 952
f 1040 959 1039
f 959 1035 1039
f 959 955 1035
f 1041 1040 1039
f 1038 1036 1042
f 1038 1042 1043
f 960 1042 958
f 958 1042 1036
f 1044 961 1040
f 1040 961 959
f 1040 1041 1045
f 1040 1045 1044
f 1043 1042 963
f 964 1043 963
f 1046 1043 964
f 963 1042 960
f 1044 965 961
f 967 965 1044
f 1045 967 1044
f 1047 967 1045
f 1050 1049 1048
f 1049 1046 1048
f 1046 969 1048
f 1046 964 969
f 1052 970 1051
f 970 1047 1051
f 970 967 1047
f 1054 1053 1052
f 1054 1052 1051
f 1055 1053 1054
f 1058 1057 1056
f 1060 1059 1056
f 1060 1056 1057
f 1059 1060 1050
f 1048 1059 1050
f 1061 1059 1048
f 971 1061 969
f 969 1061 1048
f 1052 972 970
f 972 1052 974
f 974 1052 1053
f 1063 1062 975
f 1063 975 974
f 1055 1063 974
f 1053 1055 974
f 1065 1064 1062
f 1065 1062 1063
f 1067 1066 1064
f 1067 1064 1065
f 1069 1068 1066
f 1069 1066 1067
f 1071 1070 1068
f 1071 1068 1069
f 1070 1071 1058
f 1056 1070 1058
f 1072 1070 1056
f 978 1072 977
f 1072 1059 977
f 1072 1056 1059
f 977 1059 979
f 979 1059 1061
f 979 1061 971
f 1062 980 975
f 980 1062 982
f 982 1062 1064
f 982 1064 984
f 984 1064 1066
f 984 1066 985
f 985 1066 1068
f 985 1068 986
f 986 1068 1070
f 986 1070 987
f 987 1070 1072
f 987 1072 978
f 1073 990 991
f 993 1073 991
f 1074 997 998
f 999 1075 998
f 998 1075 1074
f 990 1073 999
f 1073 1075 999
f 1073 1076 1075
f 1076 1073 993
f 1077 1076 993
f 1000 1077 993
f 1078 1076 1077
f 1080 1077 1079
f 1077 1001 1079
f 1077 1000 1001
f 1002 1079 1001
f 1081 1006 1007
f 1082 1081 1007
f 1082 1007 997
f 1083 1082 997
f 1074 1083 997
f 1083 1074 1075
f 1083 1075 1084
f 1084 1075 1076
f 1084 1076 1085
f 1085 1076 1078
f 1086 1080 1079
f 1086 1079 1002
f 1008 1086 1002
f 1087 1086 1008
f 1089 1087 1088
f 1087 1009 1088
f 1087 1008 1009
f 1011 1088 1009
f 1090 1013 1014
f 1091 1090 1014
f 1091 1014 1006
f 1092 1091 1006
f 1081 1092 1006
f 1092 1081 1082
f 1089 1088 1093
f 1089 1093 1094
f 1015 1095 1011
f 1095 1088 1011
f 1095 1093 1088
f 1017 1095 1015
f 1096 1018 1019
f 1097 1096 1019
f 1097 1019 1013
f 1098 1097 1013
f 1090 1098 1013
f 1098 1090 1091
f 1099 1094 1093
f 1099 1093 1095
f 1099 1095 1100
f 1095 1017 1100
f 1017 1101 1100
f 1017 1021 1101
f 1102 1023 1096
f 1096 1023 1018
f 1096 1097 1103
f 1096 1103 1102
f 1025 1101 1021
f 1025 1104 1101
f 1105 1027 1102
f 1102 1027 1023
f 1102 1103 1106
f 1102 1106 1105
f 1029 1104 1025
f 1029 1107 1104
f 1108 1031 1105
f 1105 1031 1027
f 1105 1106 1109
f 1105 1109 1108
f 1029 1032 1110
f 1111 1029 1110
f 1107 1029 1111
f 1034 1110 1032
f 1112 1035 1108
f 1108 1035 1031
f 1108 1109 1113
f 1108 1113 1112
f 1111 1110 1037
f 1038 1111 1037
f 1114 1111 1038
f 1037 1110 1034
f 1112 1039 1035
f 1041 1039 1112
f 1113 1041 1112
f 1115 1041 1113
f 1043 1114 1038
f 1043 1116 1114
f 1118 1045 1117
f 1045 1115 1117
f 1045 1041 1115
f 1119 1118 1117
f 1122 1121 1120
f 1124 1123 1120
f 1124 1120 1121
f 1124 1116 1123
f 1116 1046 1123
f 1116 1043 1046
f 1125 1047 1118
f 1118 1047 1045
f 1118 1119 1126
f 1127 1118 1126
f 1125 1118 1127
f 1128 1127 1126
f 1122 1120 1129
f 1122 1129 1130
f 1050 1129 1049
f 1129 1123 1049
f 1129 1120 1123
f 1049 1123 1046
f 1125 1051 1047
f 1051 1125 1054
f 1054 1125 1127
f 1132 1131 1055
f 1132 1055 1054
f 1128 1132 1054
f 1127 1128 1054
f 1134 1133 1131
f 1134 1131 1132
f 1136 1135 1133
f 1136 1133 1134
f 1138 1137 1135
f 1138 1135 1136
f 1140 1139 1137
f 1140 1137 1138
f 1057 1058 1139
f 1140 1057 1139
f 1141 1057 1140
f 1129 1060 1130
f 1060 1141 1130
f 1060 1057 1141
f 1060 1129 1050
f 1131 1063 1055
f 1063 1131 1065
f 1065 1131 1133
f 1065 1133 1067
f 1067 1133 1135
f 1067 1135 1069
f 1069 1135 1137
f 1069 1137 1071
f 1071 1137 1139
f 1071 1139 1058
f 1142 1078 1077
f 1080 1142 1077
f 1143 1082 1083
f 1084 1144 1083
f 1083 1144 1143
f 1085 1145 1084
f 1084 1145 1144
f 1078 1142 1085
f 1142 1145 1085
f 1142 1146 1145
f 1086 1147 1080
f 1147 1142 1080
f 1147 1146 1142
f 1087 1148 1086
f 1086 1148 1147
f 1089 1148 1087
f 1149 1091 1092
f 1082 1143 1092
f 1143 1149 1092
f 1143 1150 1149
f 1144 1152 1151
f 1150 1144 1151
f 1143 1144 1150
f 1152 1144 1145
f 1152 1145 1153
f 1153 1145 1146
f 1153 1146 1154
f 1156 1155 1154
f 1146 1156 1154
f 1147 1156 1146
f 1157 1147 1148
f 1156 1147 1157
f 1094 1157 1089
f 1089 1157 1148
f 1158 1097 1098
f 1091 1149 1098
f 1149 1158 1098
f 1149 1159 1158
f 1150 1161 1160
f 1159 1150 1160
f 1149 1150 1159
f 1161 1150 1151
f 1162 1155 1156
f 1162 1156 1157
f 1162 1157 1163
f 1165 1163 1164
f 1164 1163 1099
f 1163 1157 1099
f 1157 1094 1099
f 1100 1166 1099
f 1099 1166 1164
f 1101 1166 1100
f 1167 1103 1158
f 1158 1103 1097
f 1168 1158 1159
f 1167 1158 1168
f 1159 1160 1169
f 1159 1169 1168
f 1165 1164 1170
f 1165 1170 1171
f 1172 1164 1166
f 1170 1164 1172
f 1104 1172 1101
f 1101 1172 1166
f 1173 1106 1167
f 1167 1106 1103
f 1168 1175 1174
f 1173 1168 1174
f 1167 1168 1173
f 1175 1168 1169
f 1171 1170 1176
f 1171 1176 1177
f 1178 1170 1172
f 1176 1170 1178
f 1107 1178 1104
f 1104 1178 1172
f 1179 1109 1173
f 1173 1109 1106
f 1173 1174 1180
f 1173 1180 1179
f 1177 1176 1181
f 1177 1181 1182
f 1183 1176 1178
f 1181 1176 1183
f 1111 1183 1107
f 1107 1183 1178
f 1184 1113 1179
f 1179 1113 1109
f 1179 1180 1185
f 1179 1185 1184
f 1182 1181 1186
f 1182 1186 1187
f 1188 1181 1183
f 1186 1181 1188
f 1114 1188 1111
f 1111 1188 1183
f 1189 1115 1184
f 1184 1115 1113
f 1184 1185 1190
f 1184 1190 1189
f 1187 1186 1191
f 1187 1191 1192
f 1193 1186 1188
f 1191 1186 1193
f 1116 1193 1114
f 1114 1193 1188
f 1189 1117 1115
f 1195 1194 1119
f 1195 1119 1117
f 1190 1195 1117
f 1189 1190 1117
f 1197 1196 1194
f 1197 1194 1195
f 1198 1196 1197
f 1201 1200 1199
f 1199 1200 1192
f 1199 1192 1191
f 1122 1199 1191
f 1121 1122 1191
f 1121 1191 1124
f 1124 1191 1193
f 1124 1193 1116
f 1194 1126 1119
f 1126 1194 1128
f 1194 1202 1128
f 1194 1196 1202
f 1196 1198 1203
f 1204 1196 1203
f 1202 1196 1204
f 1206 1205 1204
f 1206 1204 1203
f 1207 1205 1206
f 1210 1209 1208
f 1208 1209 1201
f 1199 1208 1201
f 1211 1208 1199
f 1130 1211 1122
f 1122 1211 1199
f 1202 1132 1128
f 1132 1202 1134
f 1134 1202 1204
f 1134 1204 1136
f 1136 1204 1205
f 1207 1212 1205
f 1212 1136 1205
f 1212 1138 1136
f 1208 1140 1210
f 1140 1212 1210
f 1140 1138 1212
f 1140 1208 1141
f 1141 1208 1211
f 1141 1211 1130
f 1213 1151 1152
f 1153 1214 1152
f 1152 1214 1213
f 1154 1215 1153
f 1153 1215 1214
f 1155 1215 1154
f 1216 1160 1161
f 1151 1213 1161
f 1213 1216 1161
f 1213 1217 1216
f 1218 1213 1214
f 1217 1213 1218
f 1219 1214 1215
f 1218 1214 1219
f 1162 1220 1155
f 1220 1215 1155
f 1220 1219 1215
f 1163 1221 1162
f 1162 1221 1220
f 1165 1221 1163
f 1222 1169 1216
f 1216 1169 1160
f 1223 1216 1217
f 1222 1216 1223
f 1224 1217 1218
f 1223 1217 1224
f 1225 1218 1219
f 1224 1218 1225
f 1226 1219 1220
f 1225 1219 1226
f 1227 1220 1221
f 1226 1220 1227
f 1171 1227 1165
f 1165 1227 1221
f 1228 1174 1175
f 1169 1222 1175
f 1222 1228 1175
f 1222 1229 1228
f 1223 1231 1230
f 1229 1223 1230
f 1222 1223 1229
f 1231 1223 1224
f 1231 1224 1232
f 1232 1224 1225
f 1232 1225 1233
f 1235 1234 1233
f 1225 1235 1233
f 1226 1235 1225
f 1236 1226 1227
f 1235 1226 1236
f 1177 1236 1171
f 1171 1236 1227
f 1237 1180 1228
f 1228 1180 1174
f 1229 1239 1238
f 1237 1229 1238
f 1228 1229 1237
f 1239 1229 1230
f 1234 1235 1240
f 1234 1240 1241
f 1242 1235 1236
f 1240 1235 1242
f 1182 1242 1177
f 1177 1242 1236
f 1243 1185 1237
f 1237 1185 1180
f 1237 1238 1244
f 1245 1237 1244
f 1243 1237 1245
f 1246 1245 1244
f 1241 1240 1247
f 1241 1247 1248
f 1249 1240 1242
f 1247 1240 1249
f 1187 1249 1182
f 1182 1249 1242
f 1250 1190 1243
f 1243 1190 1185
f 1251 1243 1245
f 1250 1243 1251
f 1245 1246 1252
f 1253 1245 1252
f 1251 1245 1253
f 1255 1254 1253
f 1255 1253 1252
f 1257 1256 1254
f 1257 1254 1255
f 1256 1257 1248
f 1247 1256 1248
f 1258 1256 1247
f 1259 1247 1249
f 1258 1247 1259
f 1192 1259 1187
f 1187 1259 1249
f 1250 1195 1190
f 1195 1250 1197
f 1197 1250 1251
f 1197 1251 1198
f 1251 1260 1198
f 1251 1253 1260
f 1261 1253 1254
f 1260 1253 1261
f 1262 1254 1256
f 1261 1254 1262
f 1263 1256 1258
f 1262 1256 1263
f 1201 1263 1200
f 1263 1259 1200
f 1263 1258 1259
f 1200 1259 1192
f 1260 1203 1198
f 1203 1260 1206
f 1206 1260 1261
f 1206 1261 1207
f 1261 1264 1207
f 1261 1262 1264
f 1210 1264 1209
f 1264 1263 1209
f 1264 1262 1263
f 1209 1263 1201
f 1264 1212 1207
f 1212 1264 1210
f 1265 1230 1231
f 1232 1266 1231
f 1231 1266 1265
f 1233 1267 1232
f 1232 1267 1266
f 1234 1267 1233
f 1268 1238 1239
f 1230 1265 1239
f 1265 1268 1239
f 1265 1269 1268
f 1270 1265 1266
f 1269 1265 1270
f 1271 1266 1267
f 1270 1266 1271
f 1241 1271 1234
f 1234 1271 1267
f 1268 1244 1238
f 1244 1268 1246
f 1268 1272 1246
f 1268 1269 1272
f 1273 1269 1270
f 1272 1269 1273
f 1274 1270 1271
f 1273 1270 1274
f 1248 1274 1241
f 1241 1274 1271
f 1272 1252 1246
f 1252 1272 1255
f 1255 1272 1273
f 1255 1273 1257
f 1257 1273 1274
f 1257 1274 1248
