ply
format ascii 1.0
element vertex 708
property float x
property float y
property float z
element face 1412
property list uchar int vertex_indices
end_header
-0.86501211 -0.36238902 0.21428571
-0.79358354 -0.36238902 0.14285714
-0.79358354 -0.43381759 0.21428571
-0.79358354 -0.43381759 0.35714286
-0.86501211 -0.36238902 0.35714286
-0.79358354 -0.43381759 0.50000000
-0.86501211 -0.36238902 0.50000000
-0.79358354 -0.43381759 0.64285714
-0.86501211 -0.36238902 0.64285714
-0.79358354 -0.36238902 0.71428571
-0.79358354 -0.29096045 0.21428571
-0.86501211 -0.21953188 0.35714286
-0.79358354 -0.21953188 0.28571429
-0.86501211 -0.21953188 0.50000000
-0.86501211 -0.21953188 0.64285714
-0.79358354 -0.21953188 0.71428571
-0.79358354 -0.14810331 0.35714286
-0.79358354 -0.14810331 0.50000000
-0.79358354 -0.14810331 0.64285714
-0.72215496 -0.64810331 0.35714286
-0.65072639 -0.64810331 0.28571429
-0.65072639 -0.71953188 0.35714286
-0.65072639 -0.71953188 0.50000000
-0.72215496 -0.64810331 0.50000000
-0.65072639 -0.71953188 0.64285714
-0.72215496 -0.64810331 0.64285714
-0.65072639 -0.64810331 0.71428571
-0.72215496 -0.50524617 0.07142857
-0.65072639 -0.50524617 0.00000000
-0.65072639 -0.57667474 0.07142857
-0.65072639 -0.57667474 0.21428571
-0.72215496 -0.50524617 0.21428571
-0.72215496 -0.50524617 0.35714286
-0.72215496 -0.50524617 0.50000000
-0.72215496 -0.50524617 0.64285714
-0.65072639 -0.50524617 0.71428571
-0.72215496 -0.36238902 0.07142857
-0.65072639 -0.36238902 0.00000000
-0.65072639 -0.43381759 0.78571429
-0.72215496 -0.36238902 0.78571429
-0.65072639 -0.36238902 0.85714286
-0.72215496 -0.21953188 0.07142857
-0.65072639 -0.21953188 0.00000000
-0.72215496 -0.21953188 0.21428571
-0.72215496 -0.21953188 0.78571429
-0.65072639 -0.21953188 0.85714286
-0.72215496 -0.07667474 0.07142857
-0.65072639 -0.07667474 0.00000000
-0.72215496 -0.07667474 0.21428571
-0.72215496 -0.07667474 0.35714286
-0.72215496 -0.07667474 0.50000000
-0.72215496 -0.07667474 0.64285714
-0.72215496 -0.07667474 0.78571429
-0.65072639 -0.07667474 0.85714286
-0.72215496 0.06618241 0.07142857
-0.65072639 0.06618241 0.00000000
-0.72215496 0.06618241 0.21428571
-0.72215496 0.06618241 0.35714286
-0.72215496 0.06618241 0.50000000
-0.65072639 0.06618241 0.57142857
-0.65072639 -0.00524617 0.64285714
-0.65072639 -0.00524617 0.78571429
-0.65072639 0.13761098 0.07142857
-0.65072639 0.13761098 0.21428571
-0.65072639 0.13761098 0.35714286
-0.65072639 0.13761098 0.50000000
-0.57929782 -0.64810331 0.07142857
-0.50786925 -0.64810331 0.00000000
-0.50786925 -0.71953188 0.07142857
-0.50786925 -0.71953188 0.21428571
-0.57929782 -0.64810331 0.21428571
-0.50786925 -0.71953188 0.35714286
-0.50786925 -0.71953188 0.50000000
-0.50786925 -0.71953188 0.64285714
-0.50786925 -0.71953188 0.78571429
-0.57929782 -0.64810331 0.78571429
-0.50786925 -0.64810331 0.85714286
-0.50786925 -0.50524617 0.00000000
-0.57929782 -0.50524617 0.78571429
-0.50786925 -0.50524617 0.85714286
-0.57929782 -0.36238902 -0.07142857
-0.50786925 -0.36238902 -0.14285714
-0.50786925 -0.43381759 -0.07142857
-0.50786925 -0.36238902 0.85714286
-0.57929782 -0.21953188 -0.07142857
-0.50786925 -0.21953188 -0.14285714
-0.50786925 -0.21953188 0.85714286
-0.57929782 -0.07667474 -0.07142857
-0.50786925 -0.07667474 -0.14285714
-0.50786925 -0.07667474 0.85714286
-0.57929782 0.06618241 -0.07142857
-0.50786925 0.06618241 -0.14285714
-0.57929782 0.06618241 0.64285714
-0.57929782 0.06618241 0.78571429
-0.50786925 0.06618241 0.85714286
-0.57929782 0.20903955 -0.64285714
-0.50786925 0.20903955 -0.71428571
-0.50786925 0.13761098 -0.64285714
-0.50786925 0.13761098 -0.50000000
-0.57929782 0.20903955 -0.50000000
-0.50786925 0.13761098 -0.35714286
-0.57929782 0.20903955 -0.35714286
-0.50786925 0.13761098 -0.21428571
-0.57929782 0.20903955 -0.21428571
-0.57929782 0.20903955 -0.07142857
-0.57929782 0.20903955 0.07142857
-0.57929782 0.20903955 0.21428571
-0.57929782 0.20903955 0.35714286
-0.57929782 0.20903955 0.50000000
-0.57929782 0.20903955 0.64285714
-0.50786925 0.20903955 0.71428571
-0.50786925 0.13761098 0.78571429
-0.50786925 0.28046812 -0.64285714
-0.57929782 0.35189669 -0.50000000
-0.50786925 0.35189669 -0.57142857
-0.50786925 0.35189669 -0.42857143
-0.50786925 0.28046812 -0.35714286
-0.50786925 0.28046812 -0.21428571
-0.50786925 0.28046812 -0.07142857
-0.50786925 0.28046812 0.07142857
-0.50786925 0.28046812 0.21428571
-0.50786925 0.28046812 0.35714286
-0.50786925 0.28046812 0.50000000
-0.50786925 0.28046812 0.64285714
-0.57929782 0.49475383 -0.50000000
-0.50786925 0.49475383 -0.57142857
-0.50786925 0.49475383 -0.42857143
-0.50786925 0.56618241 -0.50000000
-0.43644068 -0.79096045 0.35714286
-0.36501211 -0.79096045 0.28571429
-0.36501211 -0.86238902 0.35714286
-0.36501211 -0.86238902 0.50000000
-0.43644068 -0.79096045 0.50000000
-0.36501211 -0.86238902 0.64285714
-0.43644068 -0.79096045 0.64285714
-0.36501211 -0.79096045 0.71428571
-0.36501211 -0.64810331 0.00000000
-0.36501211 -0.71953188 0.07142857
-0.36501211 -0.71953188 0.21428571
-0.36501211 -0.71953188 0.78571429
-0.36501211 -0.64810331 0.85714286
-0.36501211 -0.50524617 0.00000000
-0.36501211 -0.50524617 0.85714286
-0.36501211 -0.36238902 -0.14285714
-0.36501211 -0.43381759 -0.07142857
-0.36501211 -0.36238902 0.85714286
-0.43644068 -0.21953188 -0.21428571
-0.36501211 -0.21953188 -0.28571429
-0.36501211 -0.29096045 -0.21428571
-0.36501211 -0.21953188 0.85714286
-0.43644068 -0.07667474 -0.92857143
-0.36501211 -0.07667474 -1.00000000
-0.36501211 -0.14810331 -0.92857143
-0.36501211 -0.14810331 -0.78571429
-0.43644068 -0.07667474 -0.78571429
-0.36501211 -0.14810331 -0.64285714
-0.43644068 -0.07667474 -0.64285714
-0.36501211 -0.14810331 -0.50000000
-0.43644068 -0.07667474 -0.50000000
-0.36501211 -0.14810331 -0.35714286
-0.43644068 -0.07667474 -0.35714286
-0.43644068 -0.07667474 -0.21428571
-0.36501211 -0.07667474 0.85714286
-0.43644068 0.06618241 -0.92857143
-0.36501211 0.06618241 -1.00000000
-0.43644068 0.06618241 -0.78571429
-0.43644068 0.06618241 -0.64285714
-0.43644068 0.06618241 -0.50000000
-0.43644068 0.06618241 -0.35714286
-0.43644068 0.06618241 -0.21428571
-0.36501211 -0.00524617 0.92857143
-0.43644068 0.06618241 0.92857143
-0.36501211 0.06618241 1.00000000
-0.43644068 0.20903955 -0.92857143
-0.36501211 0.20903955 -1.00000000
-0.43644068 0.20903955 -0.78571429
-0.43644068 0.20903955 0.78571429
-0.36501211 0.20903955 0.85714286
-0.36501211 0.13761098 0.92857143
-0.36501211 0.28046812 -0.92857143
-0.43644068 0.35189669 -0.78571429
-0.36501211 0.35189669 -0.85714286
-0.43644068 0.35189669 -0.64285714
-0.43644068 0.35189669 -0.35714286
-0.43644068 0.35189669 -0.21428571
-0.43644068 0.35189669 -0.07142857
-0.43644068 0.35189669 0.07142857
-0.43644068 0.35189669 0.21428571
-0.43644068 0.35189669 0.35714286
-0.43644068 0.35189669 0.50000000
-0.43644068 0.35189669 0.64285714
-0.36501211 0.35189669 0.71428571
-0.36501211 0.28046812 0.78571429
-0.43644068 0.49475383 -0.78571429
-0.36501211 0.49475383 -0.85714286
-0.43644068 0.49475383 -0.64285714
-0.36501211 0.42332526 -0.35714286
-0.36501211 0.49475383 -0.42857143
-0.36501211 0.42332526 -0.21428571
-0.36501211 0.42332526 -0.07142857
-0.36501211 0.42332526 0.07142857
-0.36501211 0.42332526 0.21428571
-0.36501211 0.42332526 0.35714286
-0.36501211 0.42332526 0.50000000
-0.36501211 0.42332526 0.64285714
-0.36501211 0.56618241 -0.78571429
-0.36501211 0.56618241 -0.64285714
-0.36501211 0.56618241 -0.50000000
-0.29358354 -0.93381759 0.35714286
-0.22215496 -0.93381759 0.28571429
-0.22215496 -1.00524617 0.35714286
-0.22215496 -0.93381759 0.42857143
-0.29358354 -0.79096045 0.21428571
-0.22215496 -0.79096045 0.14285714
-0.22215496 -0.86238902 0.21428571
-0.22215496 -0.86238902 0.50000000
-0.22215496 -0.86238902 0.64285714
-0.22215496 -0.79096045 0.71428571
-0.22215496 -0.64810331 0.00000000
-0.22215496 -0.71953188 0.07142857
-0.22215496 -0.71953188 0.78571429
-0.22215496 -0.64810331 0.85714286
-0.29358354 -0.50524617 -0.07142857
-0.22215496 -0.50524617 -0.14285714
-0.22215496 -0.57667474 -0.07142857
-0.22215496 -0.50524617 0.85714286
-0.29358354 -0.36238902 -0.21428571
-0.22215496 -0.36238902 -0.28571429
-0.22215496 -0.43381759 -0.21428571
-0.22215496 -0.36238902 0.85714286
-0.29358354 -0.21953188 -0.35714286
-0.22215496 -0.21953188 -0.42857143
-0.22215496 -0.29096045 -0.35714286
-0.22215496 -0.21953188 0.85714286
-0.22215496 -0.07667474 -1.00000000
-0.22215496 -0.14810331 -0.92857143
-0.22215496 -0.14810331 -0.78571429
-0.22215496 -0.14810331 -0.64285714
-0.22215496 -0.14810331 -0.50000000
-0.22215496 -0.14810331 0.92857143
-0.29358354 -0.07667474 0.92857143
-0.22215496 -0.07667474 1.00000000
-0.22215496 0.06618241 -1.00000000
-0.22215496 0.06618241 1.00000000
-0.22215496 0.20903955 -1.00000000
-0.29358354 0.20903955 0.92857143
-0.22215496 0.20903955 1.00000000
-0.29358354 0.35189669 -0.92857143
-0.22215496 0.35189669 -1.00000000
-0.29358354 0.35189669 0.78571429
-0.22215496 0.35189669 0.85714286
-0.22215496 0.28046812 0.92857143
-0.22215496 0.42332526 -0.92857143
-0.22215496 0.49475383 -0.85714286
-0.29358354 0.49475383 -0.35714286
-0.29358354 0.49475383 -0.21428571
-0.29358354 0.49475383 -0.07142857
-0.29358354 0.49475383 0.07142857
-0.29358354 0.49475383 0.21428571
-0.29358354 0.49475383 0.35714286
-0.29358354 0.49475383 0.50000000
-0.29358354 0.49475383 0.64285714
-0.22215496 0.49475383 0.71428571
-0.22215496 0.42332526 0.78571429
-0.22215496 0.56618241 -0.78571429
-0.22215496 0.56618241 -0.64285714
-0.29358354 0.63761098 -0.50000000
-0.22215496 0.63761098 -0.57142857
-0.29358354 0.63761098 -0.35714286
-0.29358354 0.63761098 -0.21428571
-0.22215496 0.63761098 -0.14285714
-0.22215496 0.56618241 -0.07142857
-0.22215496 0.56618241 0.07142857
-0.22215496 0.56618241 0.21428571
-0.22215496 0.56618241 0.35714286
-0.22215496 0.56618241 0.50000000
-0.22215496 0.56618241 0.64285714
-0.22215496 0.70903955 -0.50000000
-0.22215496 0.70903955 -0.35714286
-0.22215496 0.70903955 -0.21428571
-0.07929782 -0.93381759 0.28571429
-0.07929782 -1.00524617 0.35714286
-0.07929782 -0.93381759 0.42857143
-0.07929782 -0.79096045 0.14285714
-0.07929782 -0.86238902 0.21428571
-0.07929782 -0.86238902 0.50000000
-0.07929782 -0.86238902 0.64285714
-0.07929782 -0.79096045 0.71428571
-0.07929782 -0.64810331 0.00000000
-0.07929782 -0.71953188 0.07142857
-0.07929782 -0.71953188 0.78571429
-0.07929782 -0.64810331 0.85714286
-0.07929782 -0.50524617 -0.14285714
-0.07929782 -0.57667474 -0.07142857
-0.07929782 -0.50524617 0.85714286
-0.07929782 -0.36238902 -0.28571429
-0.07929782 -0.43381759 -0.21428571
-0.07929782 -0.36238902 0.85714286
-0.15072639 -0.21953188 -0.92857143
-0.07929782 -0.21953188 -1.00000000
-0.07929782 -0.29096045 -0.92857143
-0.07929782 -0.29096045 -0.78571429
-0.15072639 -0.21953188 -0.78571429
-0.07929782 -0.29096045 -0.64285714
-0.15072639 -0.21953188 -0.64285714
-0.07929782 -0.29096045 -0.50000000
-0.15072639 -0.21953188 -0.50000000
-0.07929782 -0.29096045 -0.35714286
-0.07929782 -0.21953188 0.85714286
-0.07929782 -0.07667474 -1.00000000
-0.07929782 -0.14810331 0.92857143
-0.07929782 -0.07667474 1.00000000
-0.07929782 0.06618241 -1.00000000
-0.07929782 0.06618241 1.00000000
-0.07929782 0.20903955 -1.00000000
-0.07929782 0.20903955 1.00000000
-0.07929782 0.35189669 -1.00000000
-0.07929782 0.28046812 0.92857143
-0.07929782 0.35189669 0.85714286
-0.07929782 0.42332526 -0.92857143
-0.07929782 0.49475383 -0.85714286
-0.15072639 0.49475383 0.78571429
-0.07929782 0.49475383 0.85714286
-0.07929782 0.56618241 -0.78571429
-0.15072639 0.63761098 -0.64285714
-0.07929782 0.63761098 -0.71428571
-0.15072639 0.63761098 -0.07142857
-0.15072639 0.63761098 0.07142857
-0.15072639 0.63761098 0.21428571
-0.15072639 0.63761098 0.35714286
-0.15072639 0.63761098 0.50000000
-0.15072639 0.63761098 0.64285714
-0.07929782 0.63761098 0.71428571
-0.07929782 0.56618241 0.78571429
-0.07929782 0.70903955 -0.64285714
-0.07929782 0.70903955 -0.50000000
-0.07929782 0.70903955 -0.35714286
-0.07929782 0.70903955 -0.21428571
-0.07929782 0.70903955 -0.07142857
-0.07929782 0.70903955 0.07142857
-0.07929782 0.70903955 0.21428571
-0.07929782 0.70903955 0.35714286
-0.07929782 0.70903955 0.50000000
-0.07929782 0.70903955 0.64285714
0.06355932 -0.93381759 0.28571429
0.06355932 -1.00524617 0.35714286
0.06355932 -1.00524617 0.50000000
-0.00786925 -0.93381759 0.50000000
0.06355932 -0.93381759 0.57142857
0.06355932 -0.79096045 0.14285714
0.06355932 -0.86238902 0.21428571
0.06355932 -0.86238902 0.64285714
0.06355932 -0.79096045 0.71428571
0.06355932 -0.64810331 0.00000000
0.06355932 -0.71953188 0.07142857
0.06355932 -0.71953188 0.78571429
0.06355932 -0.64810331 0.85714286
0.06355932 -0.50524617 -0.14285714
0.06355932 -0.57667474 -0.07142857
0.06355932 -0.50524617 0.85714286
-0.00786925 -0.36238902 -0.21428571
0.06355932 -0.36238902 -0.14285714
0.06355932 -0.36238902 0.85714286
0.06355932 -0.21953188 -1.00000000
0.06355932 -0.29096045 -0.92857143
0.06355932 -0.29096045 -0.78571429
0.06355932 -0.29096045 -0.64285714
0.06355932 -0.29096045 -0.50000000
0.06355932 -0.29096045 -0.35714286
0.06355932 -0.29096045 -0.21428571
0.06355932 -0.21953188 0.85714286
0.06355932 -0.07667474 -1.00000000
0.06355932 -0.14810331 0.92857143
0.06355932 -0.07667474 1.00000000
0.06355932 0.06618241 -1.00000000
0.06355932 0.06618241 1.00000000
0.06355932 0.20903955 -1.00000000
0.06355932 0.20903955 1.00000000
0.06355932 0.28046812 -0.92857143
-0.00786925 0.35189669 -0.92857143
0.06355932 0.35189669 -0.85714286
0.06355932 0.28046812 0.92857143
0.06355932 0.35189669 0.85714286
0.06355932 0.49475383 -0.85714286
0.06355932 0.49475383 0.85714286
0.06355932 0.56618241 -0.78571429
0.06355932 0.63761098 -0.71428571
-0.00786925 0.63761098 0.35714286
0.06355932 0.56618241 0.35714286
0.06355932 0.63761098 0.28571429
-0.00786925 0.63761098 0.50000000
0.06355932 0.56618241 0.50000000
-0.00786925 0.63761098 0.64285714
0.06355932 0.56618241 0.64285714
0.06355932 0.56618241 0.78571429
0.06355932 0.70903955 -0.64285714
-0.00786925 0.78046812 -0.50000000
0.06355932 0.78046812 -0.57142857
-0.00786925 0.78046812 -0.35714286
-0.00786925 0.78046812 -0.21428571
-0.00786925 0.78046812 -0.07142857
0.06355932 0.78046812 0.00000000
0.06355932 0.70903955 0.07142857
0.06355932 0.70903955 0.21428571
0.06355932 0.85189669 -0.50000000
0.06355932 0.85189669 -0.35714286
0.06355932 0.85189669 -0.21428571
0.06355932 0.85189669 -0.07142857
0.13498789 -0.93381759 0.35714286
0.13498789 -0.93381759 0.50000000
0.20641646 -0.79096045 0.14285714
0.20641646 -0.86238902 0.21428571
0.20641646 -0.86238902 0.35714286
0.20641646 -0.86238902 0.50000000
0.20641646 -0.86238902 0.64285714
0.20641646 -0.79096045 0.71428571
0.20641646 -0.64810331 0.00000000
0.20641646 -0.71953188 0.07142857
0.13498789 -0.64810331 0.78571429
0.20641646 -0.64810331 0.71428571
0.20641646 -0.50524617 -0.14285714
0.20641646 -0.57667474 -0.07142857
0.20641646 -0.57667474 0.78571429
0.20641646 -0.50524617 0.85714286
0.20641646 -0.36238902 -0.14285714
0.20641646 -0.36238902 0.85714286
0.20641646 -0.21953188 -1.00000000
0.20641646 -0.29096045 -0.92857143
0.20641646 -0.29096045 -0.78571429
0.20641646 -0.29096045 -0.64285714
0.20641646 -0.29096045 -0.50000000
0.20641646 -0.29096045 -0.35714286
0.20641646 -0.29096045 -0.21428571
0.20641646 -0.21953188 0.85714286
0.20641646 -0.07667474 -1.00000000
0.13498789 -0.07667474 0.92857143
0.20641646 -0.07667474 0.85714286
0.20641646 0.06618241 -1.00000000
0.13498789 0.06618241 0.92857143
0.20641646 0.06618241 0.85714286
0.20641646 0.20903955 -1.00000000
0.13498789 0.20903955 0.92857143
0.20641646 0.20903955 0.85714286
0.20641646 0.28046812 -0.92857143
0.20641646 0.35189669 -0.85714286
0.20641646 0.35189669 0.85714286
0.20641646 0.49475383 -0.85714286
0.20641646 0.49475383 0.85714286
0.13498789 0.63761098 -0.78571429
0.20641646 0.63761098 -0.85714286
0.20641646 0.56618241 0.35714286
0.20641646 0.63761098 0.28571429
0.20641646 0.56618241 0.50000000
0.20641646 0.56618241 0.64285714
0.20641646 0.56618241 0.78571429
0.20641646 0.70903955 -0.78571429
0.13498789 0.78046812 -0.64285714
0.20641646 0.78046812 -0.71428571
0.20641646 0.70903955 0.07142857
0.20641646 0.78046812 0.00000000
0.20641646 0.70903955 0.21428571
0.20641646 0.85189669 -0.64285714
0.20641646 0.85189669 -0.50000000
0.20641646 0.85189669 -0.35714286
0.20641646 0.85189669 -0.21428571
0.20641646 0.85189669 -0.07142857
0.27784504 -0.79096045 0.21428571
0.34927361 -0.79096045 0.28571429
0.34927361 -0.86238902 0.35714286
0.34927361 -0.86238902 0.50000000
0.27784504 -0.79096045 0.64285714
0.34927361 -0.79096045 0.57142857
0.34927361 -0.64810331 0.00000000
0.34927361 -0.71953188 0.07142857
0.34927361 -0.71953188 0.21428571
0.34927361 -0.71953188 0.64285714
0.34927361 -0.64810331 0.71428571
0.27784504 -0.50524617 -0.07142857
0.34927361 -0.50524617 0.00000000
0.27784504 -0.50524617 0.78571429
0.34927361 -0.50524617 0.71428571
0.27784504 -0.36238902 -0.07142857
0.34927361 -0.36238902 0.00000000
0.27784504 -0.36238902 0.78571429
0.34927361 -0.36238902 0.71428571
0.34927361 -0.21953188 -1.00000000
0.34927361 -0.29096045 -0.92857143
0.34927361 -0.29096045 -0.78571429
0.34927361 -0.29096045 -0.64285714
0.34927361 -0.29096045 -0.50000000
0.34927361 -0.29096045 -0.35714286
0.34927361 -0.29096045 -0.21428571
0.34927361 -0.29096045 -0.07142857
0.34927361 -0.29096045 0.78571429
0.34927361 -0.21953188 0.85714286
0.34927361 -0.07667474 -1.00000000
0.34927361 -0.07667474 0.85714286
0.34927361 0.06618241 -1.00000000
0.34927361 0.06618241 0.85714286
0.34927361 0.13761098 -0.92857143
0.27784504 0.20903955 -0.92857143
0.34927361 0.20903955 -0.85714286
0.34927361 0.20903955 0.85714286
0.34927361 0.35189669 -0.85714286
0.34927361 0.35189669 0.85714286
0.34927361 0.49475383 -0.85714286
0.27784504 0.49475383 0.35714286
0.34927361 0.42332526 0.35714286
0.34927361 0.49475383 0.28571429
0.27784504 0.49475383 0.50000000
0.34927361 0.42332526 0.50000000
0.27784504 0.49475383 0.64285714
0.34927361 0.42332526 0.64285714
0.27784504 0.49475383 0.78571429
0.34927361 0.42332526 0.78571429
0.34927361 0.63761098 -0.85714286
0.27784504 0.63761098 0.07142857
0.34927361 0.56618241 0.07142857
0.34927361 0.63761098 0.00000000
0.27784504 0.63761098 0.21428571
0.34927361 0.56618241 0.21428571
0.34927361 0.70903955 -0.78571429
0.27784504 0.78046812 -0.64285714
0.34927361 0.70903955 -0.64285714
0.34927361 0.78046812 -0.57142857
0.34927361 0.78046812 0.00000000
0.34927361 0.85189669 -0.50000000
0.34927361 0.85189669 -0.35714286
0.34927361 0.85189669 -0.21428571
0.34927361 0.85189669 -0.07142857
0.42070218 -0.79096045 0.35714286
0.42070218 -0.79096045 0.50000000
0.42070218 -0.64810331 0.07142857
0.42070218 -0.64810331 0.21428571
0.42070218 -0.64810331 0.35714286
0.42070218 -0.64810331 0.50000000
0.42070218 -0.64810331 0.64285714
0.49213075 -0.50524617 0.00000000
0.49213075 -0.57667474 0.07142857
0.49213075 -0.57667474 0.21428571
0.49213075 -0.57667474 0.35714286
0.49213075 -0.57667474 0.50000000
0.49213075 -0.57667474 0.64285714
0.49213075 -0.50524617 0.71428571
0.49213075 -0.36238902 0.00000000
0.49213075 -0.36238902 0.71428571
0.42070218 -0.21953188 -0.92857143
0.42070218 -0.21953188 -0.78571429
0.49213075 -0.21953188 -0.71428571
0.49213075 -0.29096045 -0.64285714
0.49213075 -0.29096045 -0.50000000
0.42070218 -0.21953188 -0.35714286
0.49213075 -0.21953188 -0.42857143
0.42070218 -0.21953188 -0.21428571
0.42070218 -0.21953188 -0.07142857
0.49213075 -0.21953188 0.00000000
0.42070218 -0.21953188 0.78571429
0.49213075 -0.21953188 0.71428571
0.42070218 -0.07667474 -0.92857143
0.49213075 -0.07667474 -0.85714286
0.49213075 -0.14810331 -0.78571429
0.42070218 -0.07667474 -0.35714286
0.49213075 -0.07667474 -0.42857143
0.42070218 -0.07667474 -0.21428571
0.42070218 -0.07667474 -0.07142857
0.49213075 -0.07667474 0.00000000
0.49213075 -0.14810331 0.78571429
0.49213075 -0.07667474 0.85714286
0.42070218 0.06618241 -0.92857143
0.49213075 0.06618241 -0.85714286
0.49213075 -0.00524617 -0.35714286
0.49213075 -0.00524617 -0.21428571
0.49213075 -0.00524617 -0.07142857
0.49213075 0.06618241 0.85714286
0.49213075 0.20903955 -0.85714286
0.49213075 0.20903955 0.85714286
0.49213075 0.35189669 -0.85714286
0.42070218 0.35189669 0.35714286
0.49213075 0.28046812 0.35714286
0.49213075 0.35189669 0.28571429
0.42070218 0.35189669 0.50000000
0.49213075 0.28046812 0.50000000
0.42070218 0.35189669 0.64285714
0.49213075 0.28046812 0.64285714
0.42070218 0.35189669 0.78571429
0.49213075 0.28046812 0.78571429
0.49213075 0.49475383 -0.85714286
0.42070218 0.49475383 0.21428571
0.49213075 0.42332526 0.21428571
0.49213075 0.49475383 0.14285714
0.49213075 0.56618241 -0.78571429
0.42070218 0.63761098 -0.78571429
0.49213075 0.63761098 -0.71428571
0.49213075 0.56618241 0.07142857
0.49213075 0.63761098 0.00000000
0.49213075 0.70903955 -0.64285714
0.42070218 0.78046812 -0.50000000
0.49213075 0.70903955 -0.50000000
0.42070218 0.78046812 -0.35714286
0.49213075 0.70903955 -0.35714286
0.42070218 0.78046812 -0.21428571
0.49213075 0.70903955 -0.21428571
0.42070218 0.78046812 -0.07142857
0.49213075 0.70903955 -0.07142857
0.56355932 -0.50524617 0.07142857
0.56355932 -0.50524617 0.21428571
0.56355932 -0.50524617 0.35714286
0.56355932 -0.50524617 0.50000000
0.56355932 -0.50524617 0.64285714
0.56355932 -0.36238902 0.07142857
0.56355932 -0.36238902 0.21428571
0.56355932 -0.36238902 0.35714286
0.56355932 -0.36238902 0.50000000
0.56355932 -0.36238902 0.64285714
0.56355932 -0.21953188 -0.64285714
0.56355932 -0.21953188 -0.50000000
0.56355932 -0.21953188 0.07142857
0.63498789 -0.21953188 0.14285714
0.63498789 -0.29096045 0.21428571
0.63498789 -0.29096045 0.35714286
0.63498789 -0.29096045 0.50000000
0.63498789 -0.21953188 0.57142857
0.56355932 -0.21953188 0.64285714
0.56355932 -0.07667474 -0.78571429
0.63498789 -0.07667474 -0.71428571
0.63498789 -0.14810331 -0.64285714
0.63498789 -0.14810331 -0.50000000
0.63498789 -0.07667474 -0.42857143
0.56355932 -0.07667474 0.07142857
0.63498789 -0.07667474 0.14285714
0.63498789 -0.14810331 0.64285714
0.56355932 -0.07667474 0.78571429
0.63498789 -0.07667474 0.71428571
0.63498789 0.06618241 -0.85714286
0.63498789 -0.00524617 -0.78571429
0.56355932 0.06618241 -0.35714286
0.63498789 0.06618241 -0.42857143
0.56355932 0.06618241 -0.21428571
0.56355932 0.06618241 -0.07142857
0.56355932 0.06618241 0.07142857
0.63498789 0.06618241 0.14285714
0.56355932 0.06618241 0.78571429
0.63498789 0.06618241 0.71428571
0.63498789 0.20903955 -0.85714286
0.63498789 0.13761098 -0.35714286
0.63498789 0.13761098 -0.21428571
0.63498789 0.20903955 -0.14285714
0.56355932 0.20903955 -0.07142857
0.56355932 0.20903955 0.07142857
0.63498789 0.13761098 0.21428571
0.56355932 0.20903955 0.21428571
0.56355932 0.20903955 0.35714286
0.63498789 0.13761098 0.35714286
0.56355932 0.20903955 0.50000000
0.63498789 0.13761098 0.50000000
0.56355932 0.20903955 0.64285714
0.63498789 0.13761098 0.64285714
0.56355932 0.20903955 0.78571429
0.63498789 0.28046812 -0.78571429
0.56355932 0.35189669 -0.78571429
0.63498789 0.35189669 -0.71428571
0.56355932 0.35189669 -0.07142857
0.63498789 0.35189669 -0.14285714
0.56355932 0.35189669 0.07142857
0.56355932 0.35189669 0.21428571
0.56355932 0.49475383 -0.78571429
0.63498789 0.49475383 -0.71428571
0.56355932 0.49475383 -0.07142857
0.63498789 0.49475383 -0.14285714
0.56355932 0.49475383 0.07142857
0.56355932 0.63761098 -0.64285714
0.63498789 0.56618241 -0.64285714
0.56355932 0.63761098 -0.50000000
0.63498789 0.56618241 -0.50000000
0.56355932 0.63761098 -0.35714286
0.63498789 0.56618241 -0.35714286
0.56355932 0.63761098 -0.21428571
0.63498789 0.56618241 -0.21428571
0.56355932 0.63761098 -0.07142857
0.70641646 -0.21953188 0.21428571
0.70641646 -0.21953188 0.35714286
0.70641646 -0.21953188 0.50000000
0.70641646 -0.07667474 -0.64285714
0.70641646 -0.07667474 -0.50000000
0.70641646 -0.07667474 0.21428571
0.70641646 -0.07667474 0.35714286
0.70641646 -0.07667474 0.50000000
0.70641646 -0.07667474 0.64285714
0.70641646 0.06618241 -0.78571429
0.70641646 0.06618241 -0.64285714
0.70641646 0.06618241 -0.50000000
0.70641646 0.06618241 0.21428571
0.70641646 0.06618241 0.35714286
0.70641646 0.06618241 0.50000000
0.70641646 0.06618241 0.64285714
0.70641646 0.20903955 -0.78571429
0.70641646 0.20903955 -0.64285714
0.70641646 0.20903955 -0.50000000
0.70641646 0.20903955 -0.35714286
0.70641646 0.20903955 -0.21428571
0.70641646 0.35189669 -0.64285714
0.70641646 0.35189669 -0.50000000
0.70641646 0.35189669 -0.35714286
0.70641646 0.35189669 -0.21428571
0.70641646 0.49475383 -0.64285714
0.70641646 0.49475383 -0.50000000
0.70641646 0.49475383 -0.35714286
0.70641646 0.49475383 -0.21428571
3 2 1 0
3 4 3 0
3 0 3 2
3 6 5 4
3 4 5 3
3 8 7 6
3 6 7 5
3 8 9 7
3 1 10 0
3 12 11 10
3 11 0 10
3 11 4 0
3 4 13 6
3 4 11 13
3 6 14 8
3 6 13 14
3 9 8 15
3 15 8 14
3 12 16 11
3 11 16 13
3 13 16 17
3 13 17 14
3 14 17 18
3 14 18 15
3 21 20 19
3 23 22 19
3 19 22 21
3 25 24 23
3 23 24 22
3 25 26 24
3 29 28 27
3 31 30 27
3 27 30 29
3 30 31 20
3 31 19 20
3 31 32 19
3 19 33 23
3 19 32 33
3 23 34 25
3 23 33 34
3 26 25 35
3 35 25 34
3 27 28 36
3 36 28 37
3 36 1 2
3 31 36 2
3 27 36 31
3 31 2 3
3 31 3 32
3 32 3 5
3 32 5 33
3 33 5 7
3 33 7 34
3 39 38 9
3 9 38 7
3 38 35 7
3 35 34 7
3 39 40 38
3 36 37 41
3 41 37 42
3 43 10 1
3 36 43 1
3 41 43 36
3 43 12 10
3 15 44 39
3 15 39 9
3 40 39 45
3 45 39 44
3 41 42 46
3 46 42 47
3 41 48 43
3 41 46 48
3 49 16 12
3 43 49 12
3 48 49 43
3 50 17 16
3 50 16 49
3 51 18 17
3 51 17 50
3 44 15 18
3 51 44 18
3 52 44 51
3 45 44 53
3 53 44 52
3 46 47 54
3 54 47 55
3 46 56 48
3 46 54 56
3 48 57 49
3 48 56 57
3 49 58 50
3 49 57 58
3 60 51 59
3 51 58 59
3 51 50 58
3 51 60 52
3 52 60 61
3 52 61 53
3 55 62 54
3 54 62 56
3 56 62 63
3 56 63 57
3 57 63 64
3 57 64 58
3 58 64 65
3 58 65 59
3 68 67 66
3 70 69 66
3 66 69 68
3 20 21 70
3 21 69 70
3 21 71 69
3 72 21 22
3 72 71 21
3 73 22 24
3 73 72 22
3 75 74 26
3 74 24 26
3 74 73 24
3 75 76 74
3 66 67 29
3 67 28 29
3 67 77 28
3 66 29 30
3 66 30 70
3 70 30 20
3 35 78 75
3 35 75 26
3 76 75 79
3 79 75 78
3 82 81 80
3 77 82 80
3 37 77 80
3 28 77 37
3 38 78 35
3 38 40 78
3 40 79 78
3 40 83 79
3 80 81 84
3 84 81 85
3 84 42 37
3 84 37 80
3 45 83 40
3 45 86 83
3 84 85 87
3 87 85 88
3 87 47 42
3 87 42 84
3 53 86 45
3 53 89 86
3 87 88 90
3 90 88 91
3 90 55 47
3 90 47 87
3 59 92 60
3 93 61 60
3 93 60 92
3 93 94 61
3 94 53 61
3 94 89 53
3 97 96 95
3 99 98 95
3 95 98 97
3 101 100 99
3 99 100 98
3 103 102 101
3 101 102 100
3 102 103 91
3 103 90 91
3 103 104 90
3 105 62 55
3 90 105 55
3 104 105 90
3 106 63 62
3 106 62 105
3 107 64 63
3 107 63 106
3 108 65 64
3 108 64 107
3 92 59 65
3 108 92 65
3 109 92 108
3 111 93 110
3 93 109 110
3 93 92 109
3 93 111 94
3 96 112 95
3 114 113 112
3 113 95 112
3 113 99 95
3 116 101 115
3 101 113 115
3 101 99 113
3 101 116 103
3 103 116 117
3 103 117 104
3 104 117 118
3 104 118 105
3 105 118 119
3 105 119 106
3 106 119 120
3 106 120 107
3 107 120 121
3 107 121 108
3 108 121 122
3 108 122 109
3 109 122 123
3 109 123 110
3 113 114 124
3 124 114 125
3 115 113 126
3 126 113 124
3 125 127 124
3 124 127 126
3 130 129 128
3 132 131 128
3 128 131 130
3 134 133 132
3 132 133 131
3 134 135 133
3 137 136 68
3 68 136 67
3 138 68 69
3 138 137 68
3 71 128 129
3 138 71 129
3 69 71 138
3 128 71 72
3 128 72 132
3 132 72 73
3 132 73 134
3 139 135 134
3 73 139 134
3 74 139 73
3 74 76 139
3 139 76 140
3 136 77 67
3 141 77 136
3 79 140 76
3 79 142 140
3 144 143 82
3 82 143 81
3 82 77 141
3 82 141 144
3 83 142 79
3 83 145 142
3 148 147 146
3 143 148 146
3 85 143 146
3 81 143 85
3 86 145 83
3 86 149 145
3 152 151 150
3 154 153 150
3 150 153 152
3 156 155 154
3 154 155 153
3 158 157 156
3 156 157 155
3 160 159 158
3 158 159 157
3 159 160 147
3 160 146 147
3 160 161 146
3 161 88 85
3 161 85 146
3 89 149 86
3 89 162 149
3 150 151 163
3 163 151 164
3 150 165 154
3 150 163 165
3 154 166 156
3 154 165 166
3 156 167 158
3 156 166 167
3 158 168 160
3 158 167 168
3 160 169 161
3 160 168 169
3 169 91 88
3 169 88 161
3 94 171 170
3 162 94 170
3 89 94 162
3 171 172 170
3 163 164 173
3 173 164 174
3 163 175 165
3 163 173 175
3 175 96 97
3 166 175 97
3 165 175 166
3 166 97 98
3 166 98 167
3 167 98 100
3 167 100 168
3 168 100 102
3 168 102 169
3 169 102 91
3 110 176 111
3 176 177 111
3 111 177 94
3 177 178 94
3 178 171 94
3 171 178 172
3 174 179 173
3 181 180 179
3 180 173 179
3 180 175 173
3 182 112 96
3 175 182 96
3 180 182 175
3 182 114 112
3 115 183 116
3 184 117 116
3 184 116 183
3 185 118 117
3 185 117 184
3 186 119 118
3 186 118 185
3 187 120 119
3 187 119 186
3 188 121 120
3 188 120 187
3 189 122 121
3 189 121 188
3 190 123 122
3 190 122 189
3 190 191 123
3 123 191 110
3 191 192 110
3 192 176 110
3 176 192 177
3 180 181 193
3 193 181 194
3 180 195 182
3 180 193 195
3 195 125 114
3 195 114 182
3 197 196 183
3 115 197 183
3 126 197 115
3 183 196 184
3 184 196 198
3 184 198 185
3 185 198 199
3 185 199 186
3 186 199 200
3 186 200 187
3 187 200 201
3 187 201 188
3 188 201 202
3 188 202 189
3 189 202 203
3 189 203 190
3 190 203 204
3 190 204 191
3 194 205 193
3 193 205 195
3 195 205 206
3 195 206 125
3 206 127 125
3 206 207 127
3 126 127 197
3 197 127 207
3 210 209 208
3 208 211 210
3 214 213 212
3 214 212 209
3 209 212 208
3 212 129 208
3 129 130 208
3 215 211 208
3 130 215 208
3 131 215 130
3 216 131 133
3 216 215 131
3 133 135 216
3 216 135 217
3 219 218 137
3 137 218 136
3 138 212 213
3 219 138 213
3 137 138 219
3 212 138 129
3 220 217 135
3 220 135 139
3 139 140 220
3 220 140 221
3 224 223 222
3 218 224 222
3 141 218 222
3 136 218 141
3 142 221 140
3 142 225 221
3 228 227 226
3 228 226 223
3 223 226 222
3 226 143 222
3 143 144 222
3 222 144 141
3 145 225 142
3 145 229 225
3 232 231 230
3 232 230 227
3 227 230 226
3 230 147 226
3 147 148 226
3 226 148 143
3 149 229 145
3 149 233 229
3 235 234 152
3 152 234 151
3 236 152 153
3 236 235 152
3 237 153 155
3 237 236 153
3 238 155 157
3 238 237 155
3 159 230 231
3 238 159 231
3 157 159 238
3 230 159 147
3 162 240 239
3 233 162 239
3 149 162 233
3 240 241 239
3 234 164 151
3 242 164 234
3 170 240 162
3 170 172 240
3 172 241 240
3 172 243 241
3 242 174 164
3 244 174 242
3 177 245 178
3 245 246 178
3 246 172 178
3 246 243 172
3 179 174 247
3 174 248 247
3 174 244 248
3 247 181 179
3 191 249 192
3 249 250 192
3 192 250 177
3 250 251 177
3 251 245 177
3 245 251 246
3 248 252 247
3 181 247 252
3 253 181 252
3 194 181 253
3 197 254 196
3 255 198 196
3 255 196 254
3 256 199 198
3 256 198 255
3 257 200 199
3 257 199 256
3 258 201 200
3 258 200 257
3 259 202 201
3 259 201 258
3 260 203 202
3 260 202 259
3 261 204 203
3 261 203 260
3 261 262 204
3 204 262 191
3 262 263 191
3 263 249 191
3 249 263 250
3 253 264 194
3 194 264 205
3 205 265 206
3 264 265 205
3 265 267 266
3 207 265 266
3 206 265 207
3 254 197 207
3 266 254 207
3 268 254 266
3 254 269 255
3 254 268 269
3 271 256 270
3 256 269 270
3 256 255 269
3 256 271 257
3 257 271 272
3 257 272 258
3 258 272 273
3 258 273 259
3 259 273 274
3 259 274 260
3 260 274 275
3 260 275 261
3 261 275 276
3 261 276 262
3 267 277 266
3 266 277 268
3 268 277 278
3 268 278 269
3 269 278 279
3 269 279 270
3 281 280 210
3 210 280 209
3 210 211 281
3 281 211 282
3 284 283 214
3 214 283 213
3 214 209 280
3 214 280 284
3 285 282 211
3 285 211 215
3 286 215 216
3 286 285 215
3 216 217 286
3 286 217 287
3 289 288 219
3 219 288 218
3 219 213 283
3 219 283 289
3 290 287 217
3 290 217 220
3 220 221 290
3 290 221 291
3 293 292 224
3 224 292 223
3 224 218 288
3 224 288 293
3 225 291 221
3 225 294 291
3 296 295 228
3 228 295 227
3 228 223 292
3 228 292 296
3 229 294 225
3 229 297 294
3 300 299 298
3 302 301 298
3 298 301 300
3 304 303 302
3 302 303 301
3 306 305 304
3 304 305 303
3 231 232 306
3 232 305 306
3 232 307 305
3 232 227 295
3 232 295 307
3 233 297 229
3 233 308 297
3 298 299 235
3 299 234 235
3 299 309 234
3 298 235 236
3 298 236 302
3 302 236 237
3 302 237 304
3 304 237 238
3 304 238 306
3 306 238 231
3 310 308 233
3 310 233 239
3 239 241 310
3 310 241 311
3 309 242 234
3 312 242 309
3 243 311 241
3 243 313 311
3 312 244 242
3 314 244 312
3 246 313 243
3 246 315 313
3 314 248 244
3 316 248 314
3 318 317 251
3 318 251 250
3 246 251 315
3 315 251 317
3 316 319 248
3 248 319 252
3 253 252 319
3 253 319 320
3 262 321 263
3 321 322 263
3 322 250 263
3 322 318 250
3 320 323 253
3 253 323 264
3 323 325 324
3 265 323 324
3 264 323 265
3 324 267 265
3 270 326 271
3 327 272 271
3 327 271 326
3 328 273 272
3 328 272 327
3 329 274 273
3 329 273 328
3 330 275 274
3 330 274 329
3 331 276 275
3 331 275 330
3 331 332 276
3 276 332 262
3 332 333 262
3 333 321 262
3 321 333 322
3 325 334 324
3 324 334 267
3 334 277 267
3 334 335 277
3 277 336 278
3 335 336 277
3 278 337 279
3 336 337 278
3 270 279 326
3 279 338 326
3 279 337 338
3 326 338 327
3 327 338 339
3 327 339 328
3 328 339 340
3 328 340 329
3 329 340 341
3 329 341 330
3 330 341 342
3 330 342 331
3 331 342 343
3 331 343 332
3 345 344 281
3 281 344 280
3 347 346 282
3 346 281 282
3 346 345 281
3 347 348 346
3 350 349 284
3 284 349 283
3 284 280 344
3 284 344 350
3 285 347 282
3 351 348 347
3 285 351 347
3 286 351 285
3 286 287 351
3 351 287 352
3 354 353 289
3 289 353 288
3 289 283 349
3 289 349 354
3 355 352 287
3 355 287 290
3 290 291 355
3 355 291 356
3 358 357 293
3 293 357 292
3 293 288 353
3 293 353 358
3 294 356 291
3 294 359 356
3 360 295 296
3 361 360 296
3 292 361 296
3 357 361 292
3 297 359 294
3 297 362 359
3 364 363 300
3 300 363 299
3 365 300 301
3 365 364 300
3 366 301 303
3 366 365 301
3 367 303 305
3 367 366 303
3 368 305 307
3 368 367 305
3 307 295 360
3 369 307 360
3 368 307 369
3 369 360 361
3 308 362 297
3 308 370 362
3 363 309 299
3 371 309 363
3 372 370 308
3 372 308 310
3 310 311 372
3 372 311 373
3 371 312 309
3 374 312 371
3 313 373 311
3 313 375 373
3 374 314 312
3 376 314 374
3 315 375 313
3 315 377 375
3 379 316 378
3 316 376 378
3 316 314 376
3 380 379 378
3 382 381 317
3 382 317 318
3 315 317 377
3 377 317 381
3 379 319 316
3 320 319 379
3 380 320 379
3 383 320 380
3 322 382 318
3 322 384 382
3 383 385 320
3 320 385 323
3 325 323 385
3 325 385 386
3 389 388 387
3 391 390 387
3 391 387 388
3 393 392 390
3 393 390 391
3 333 332 392
3 393 333 392
3 394 333 393
3 322 333 384
3 384 333 394
3 386 395 325
3 325 395 334
3 395 397 396
3 335 395 396
3 334 395 335
3 398 336 335
3 398 335 396
3 399 337 336
3 399 336 398
3 400 338 337
3 400 337 399
3 338 400 401
3 402 338 401
3 339 338 402
3 339 403 340
3 402 403 339
3 387 341 389
3 341 403 389
3 341 340 403
3 341 387 342
3 342 387 390
3 342 390 343
3 343 390 392
3 343 392 332
3 397 404 396
3 396 404 398
3 398 404 405
3 398 405 399
3 399 405 406
3 399 406 400
3 400 406 407
3 400 407 401
3 408 344 345
3 346 409 345
3 345 409 408
3 348 409 346
3 411 410 350
3 350 410 349
3 350 344 408
3 412 350 408
3 411 350 412
3 412 408 409
3 412 409 413
3 413 409 348
3 351 413 348
3 414 413 351
3 351 352 414
3 414 352 415
3 417 416 354
3 354 416 353
3 354 349 410
3 354 410 417
3 352 355 418
3 419 352 418
3 415 352 419
3 356 418 355
3 421 420 358
3 358 420 357
3 358 353 416
3 358 416 421
3 422 419 418
3 418 356 422
3 356 423 422
3 356 359 423
3 420 361 357
3 424 361 420
3 362 423 359
3 362 425 423
3 427 426 364
3 364 426 363
3 428 364 365
3 428 427 364
3 429 365 366
3 429 428 365
3 430 366 367
3 430 429 366
3 431 367 368
3 431 430 367
3 432 368 369
3 432 431 368
3 369 361 424
3 369 424 432
3 370 425 362
3 370 433 425
3 426 371 363
3 434 371 426
3 370 372 435
3 436 370 435
3 433 370 436
3 373 435 372
3 434 374 371
3 437 374 434
3 436 435 438
3 436 438 439
3 375 438 373
3 373 438 435
3 437 376 374
3 440 376 437
3 439 438 441
3 439 441 442
3 377 441 375
3 375 441 438
3 440 443 376
3 376 443 378
3 380 378 443
3 380 443 444
3 442 441 381
3 382 442 381
3 445 442 382
3 381 441 377
3 444 383 380
3 446 383 444
3 384 445 382
3 384 447 445
3 385 383 448
3 383 449 448
3 383 446 449
3 448 386 385
3 451 450 388
3 451 388 389
3 388 452 391
3 450 452 388
3 391 453 393
3 452 453 391
3 393 454 394
3 453 454 393
3 384 394 447
3 447 394 454
3 449 455 448
3 455 457 456
3 455 456 395
3 448 455 395
3 386 448 395
3 456 397 395
3 459 458 402
3 459 402 401
3 402 460 403
3 458 460 402
3 389 403 451
3 451 403 460
3 457 461 456
3 456 461 397
3 461 404 397
3 461 462 404
3 404 463 405
3 462 463 404
3 405 464 406
3 463 464 405
3 406 465 407
3 464 465 406
3 401 407 459
3 459 407 465
3 466 410 411
3 466 411 467
3 411 468 467
3 411 412 468
3 469 412 413
3 469 468 412
3 471 469 470
3 469 414 470
3 469 413 414
3 415 470 414
3 473 472 417
3 417 472 416
3 417 410 466
3 474 417 466
3 473 417 474
3 474 466 467
3 475 471 470
3 470 415 475
3 415 476 475
3 415 419 476
3 477 420 421
3 478 477 421
3 416 478 421
3 472 478 416
3 419 422 479
3 480 419 479
3 476 419 480
3 423 479 422
3 481 424 477
3 477 424 420
3 477 478 482
3 477 482 481
3 480 479 483
3 480 483 484
3 425 483 423
3 423 483 479
3 486 485 427
3 427 485 426
3 487 427 428
3 487 486 427
3 488 428 429
3 488 487 428
3 489 429 430
3 489 488 429
3 490 430 431
3 490 489 430
3 491 431 432
3 491 490 431
3 432 424 481
3 492 432 481
3 491 432 492
3 492 481 482
3 493 484 483
3 483 425 493
3 425 494 493
3 425 433 494
3 485 434 426
3 495 434 485
3 436 494 433
3 436 496 494
3 495 437 434
3 497 437 495
3 439 496 436
3 439 498 496
3 500 440 499
3 440 497 499
3 440 437 497
3 501 500 499
3 442 498 439
3 442 502 498
3 500 443 440
3 444 443 500
3 501 444 500
3 503 444 501
3 445 502 442
3 445 504 502
3 503 446 444
3 505 446 503
3 508 507 506
3 510 509 506
3 510 506 507
3 512 511 509
3 512 509 510
3 514 513 511
3 514 511 512
3 514 504 513
3 504 447 513
3 504 445 447
3 505 449 446
3 515 449 505
3 518 517 516
3 520 519 516
3 520 516 517
3 519 520 508
3 519 508 506
3 451 519 506
3 450 451 506
3 450 506 452
3 452 506 509
3 452 509 453
3 453 509 511
3 453 511 454
3 454 511 513
3 454 513 447
3 515 521 449
3 449 521 455
3 523 522 457
3 455 523 457
3 521 523 455
3 524 522 523
3 518 516 458
3 459 518 458
3 525 518 459
3 458 516 460
3 460 516 519
3 460 519 451
3 522 461 457
3 524 526 522
3 526 461 522
3 526 462 461
3 462 527 463
3 526 527 462
3 463 528 464
3 527 528 463
3 464 529 465
3 528 529 464
3 459 465 525
3 525 465 529
3 530 467 468
3 469 531 468
3 468 531 530
3 471 531 469
3 532 472 473
3 474 533 473
3 473 533 532
3 467 530 474
3 530 533 474
3 530 534 533
3 535 530 531
3 534 530 535
3 475 536 471
3 536 531 471
3 536 535 531
3 476 536 475
3 538 537 532
3 537 472 532
3 537 478 472
3 538 532 533
3 538 533 539
3 539 533 534
3 539 534 540
3 540 534 535
3 540 535 541
3 541 535 536
3 541 536 542
3 536 476 542
3 476 543 542
3 476 480 543
3 537 482 478
3 544 482 537
3 484 543 480
3 484 545 543
3 546 485 486
3 487 547 486
3 486 547 546
3 547 487 548
3 487 549 548
3 487 488 549
3 550 488 489
3 550 549 488
3 552 550 551
3 550 490 551
3 550 489 490
3 491 553 490
3 490 553 551
3 492 554 491
3 491 554 553
3 555 554 492
3 482 555 492
3 544 555 482
3 484 493 556
3 557 484 556
3 545 484 557
3 494 556 493
3 558 495 546
3 546 495 485
3 547 560 559
3 558 547 559
3 546 547 558
3 560 547 548
3 552 551 561
3 552 561 562
3 563 551 553
3 561 551 563
3 564 553 554
3 563 553 564
3 554 555 565
3 554 565 564
3 566 557 556
3 556 494 566
3 494 567 566
3 494 496 567
3 568 497 558
3 558 497 495
3 558 559 569
3 558 569 568
3 570 562 561
3 570 561 563
3 570 563 571
3 571 563 564
3 571 564 572
3 572 564 565
3 498 567 496
3 498 573 567
3 568 499 497
3 501 499 568
3 569 501 568
3 574 501 569
3 502 573 498
3 502 575 573
3 574 503 501
3 576 503 574
3 579 578 577
3 581 580 577
3 581 577 578
3 583 582 580
3 583 580 581
3 585 584 582
3 585 582 583
3 585 575 584
3 575 504 584
3 575 502 504
3 576 505 503
3 586 505 576
3 589 588 587
3 587 588 579
3 587 579 577
3 508 587 577
3 507 508 577
3 507 577 510
3 510 577 580
3 510 580 512
3 512 580 582
3 512 582 514
3 514 582 584
3 514 584 504
3 591 515 590
3 515 586 590
3 515 505 586
3 592 591 590
3 594 593 517
3 594 517 518
3 587 520 589
3 520 593 589
3 520 517 593
3 520 587 508
3 591 521 515
3 592 595 591
3 595 521 591
3 595 523 521
3 597 596 524
3 523 597 524
3 595 597 523
3 599 598 596
3 599 596 597
3 601 600 598
3 601 598 599
3 603 602 600
3 603 600 601
3 603 594 602
3 594 525 602
3 594 518 525
3 596 526 524
3 526 596 527
3 527 596 598
3 527 598 528
3 528 598 600
3 528 600 529
3 529 600 602
3 529 602 525
3 604 537 538
3 539 605 538
3 538 605 604
3 540 606 539
3 539 606 605
3 541 607 540
3 540 607 606
3 542 608 541
3 541 608 607
3 543 608 542
3 609 544 604
3 604 544 537
3 610 604 605
3 609 604 610
3 611 605 606
3 610 605 611
3 612 606 607
3 611 606 612
3 613 607 608
3 612 607 613
3 545 613 543
3 543 613 608
3 614 548 549
3 550 615 549
3 549 615 614
3 552 615 550
3 616 555 609
3 609 555 544
3 610 618 617
3 616 610 617
3 609 610 616
3 618 610 611
3 618 611 619
3 619 611 612
3 619 612 620
3 622 621 620
3 612 622 620
3 613 622 612
3 557 622 545
3 545 622 613
3 623 559 560
3 624 623 560
3 624 560 548
3 625 624 548
3 614 625 548
3 625 614 615
3 625 615 626
3 615 552 626
3 552 627 626
3 552 562 627
3 628 565 616
3 616 565 555
3 616 617 629
3 616 629 628
3 630 621 622
3 632 630 631
3 631 630 566
3 630 622 566
3 622 557 566
3 567 631 566
3 634 633 623
3 633 559 623
3 633 569 559
3 634 623 624
3 562 570 635
3 636 562 635
3 627 562 636
3 571 637 570
3 570 637 635
3 572 638 571
3 571 638 637
3 565 628 572
3 628 638 572
3 628 639 638
3 628 629 640
3 628 640 639
3 632 631 641
3 632 641 642
3 573 641 567
3 567 641 631
3 633 574 569
3 643 574 633
3 644 636 635
3 644 635 637
3 644 637 645
3 647 646 645
3 637 647 645
3 638 647 637
3 648 638 639
3 647 638 648
3 639 640 649
3 650 639 649
3 648 639 650
3 652 651 650
3 652 650 649
3 654 653 651
3 654 651 652
3 656 655 653
3 656 653 654
3 655 656 642
3 641 655 642
3 657 655 641
3 575 657 573
3 573 657 641
3 659 576 658
3 576 643 658
3 576 574 643
3 660 659 658
3 646 647 661
3 646 661 662
3 663 647 648
3 661 647 663
3 664 648 650
3 663 648 664
3 579 664 578
3 664 651 578
3 664 650 651
3 578 651 581
3 581 651 653
3 581 653 583
3 583 653 655
3 583 655 585
3 585 655 657
3 585 657 575
3 665 586 659
3 659 586 576
3 659 660 666
3 659 666 665
3 662 661 667
3 662 667 668
3 669 661 663
3 667 661 669
3 589 669 588
3 669 664 588
3 669 663 664
3 588 664 579
3 665 590 586
3 671 670 592
3 671 592 590
3 666 671 590
3 665 666 590
3 673 672 670
3 673 670 671
3 675 674 672
3 675 672 673
3 677 676 674
3 677 674 675
3 676 677 668
3 667 676 668
3 678 676 667
3 594 678 593
3 678 669 593
3 678 667 669
3 593 669 589
3 670 595 592
3 595 670 597
3 597 670 672
3 597 672 599
3 599 672 674
3 599 674 601
3 601 674 676
3 601 676 603
3 603 676 678
3 603 678 594
3 679 617 618
3 619 680 618
3 618 680 679
3 620 681 619
3 619 681 680
3 621 681 620
3 682 624 625
3 626 683 625
3 625 683 682
3 627 683 626
3 684 629 679
3 679 629 617
3 685 679 680
3 684 679 685
3 686 680 681
3 685 680 686
3 630 687 621
3 687 681 621
3 687 686 681
3 632 687 630
3 688 633 634
3 624 682 634
3 682 688 634
3 682 689 688
3 690 682 683
3 689 682 690
3 636 690 627
3 627 690 683
3 691 640 684
3 684 640 629
3 692 684 685
3 691 684 692
3 693 685 686
3 692 685 693
3 694 686 687
3 693 686 694
3 642 694 632
3 632 694 687
3 695 643 688
3 688 643 633
3 696 688 689
3 695 688 696
3 697 689 690
3 696 689 697
3 644 698 636
3 698 690 636
3 698 697 690
3 645 699 644
3 644 699 698
3 646 699 645
3 691 649 640
3 649 691 652
3 652 691 692
3 652 692 654
3 654 692 693
3 654 693 656
3 656 693 694
3 656 694 642
3 695 658 643
3 658 695 660
3 695 700 660
3 695 696 700
3 701 696 697
3 700 696 701
3 702 697 698
3 701 697 702
3 703 698 699
3 702 698 703
3 662 703 646
3 646 703 699
3 704 666 700
3 700 666 660
3 705 700 701
3 704 700 705
3 706 701 702
3 705 701 706
3 707 702 703
3 706 702 707
3 668 707 662
3 662 707 703
3 704 671 666
3 671 704 673
3 673 704 705
3 673 705 675
3 675 705 706
3 675 706 677
3 677 706 707
3 677 707 668
