ply
format ascii 1.0
element vertex 1382
property float x
property float y
property float z
element face 2760
property list uchar int vertex_indices
end_header
-1.27393012 -0.35269795 -0.35714286
-1.20250155 -0.35269795 -0.42857143
-1.20250155 -0.42412652 -0.35714286
-1.20250155 -0.42412652 -0.21428571
-1.27393012 -0.35269795 -0.21428571
-1.20250155 -0.42412652 -0.07142857
-1.27393012 -0.35269795 -0.07142857
-1.20250155 -0.42412652 0.07142857
-1.27393012 -0.35269795 0.07142857
-1.20250155 -0.42412652 0.21428571
-1.27393012 -0.35269795 0.21428571
-1.20250155 -0.35269795 0.28571429
-1.27393012 -0.20984081 -0.35714286
-1.20250155 -0.20984081 -0.42857143
-1.27393012 -0.20984081 -0.21428571
-1.27393012 -0.20984081 -0.07142857
-1.27393012 -0.20984081 0.07142857
-1.27393012 -0.20984081 0.21428571
-1.20250155 -0.28126938 0.35714286
-1.27393012 -0.20984081 0.35714286
-1.20250155 -0.20984081 0.42857143
-1.27393012 -0.06698367 -0.35714286
-1.20250155 -0.06698367 -0.42857143
-1.27393012 -0.06698367 -0.21428571
-1.27393012 -0.06698367 -0.07142857
-1.27393012 -0.06698367 0.07142857
-1.27393012 -0.06698367 0.21428571
-1.27393012 -0.06698367 0.35714286
-1.20250155 -0.06698367 0.42857143
-1.27393012 0.07587348 -0.35714286
-1.20250155 0.07587348 -0.42857143
-1.27393012 0.07587348 -0.21428571
-1.27393012 0.07587348 -0.07142857
-1.27393012 0.07587348 0.07142857
-1.27393012 0.07587348 0.21428571
-1.27393012 0.07587348 0.35714286
-1.20250155 0.07587348 0.42857143
-1.27393012 0.21873062 -0.35714286
-1.20250155 0.21873062 -0.42857143
-1.27393012 0.21873062 -0.21428571
-1.27393012 0.21873062 -0.07142857
-1.27393012 0.21873062 0.07142857
-1.27393012 0.21873062 0.21428571
-1.27393012 0.21873062 0.35714286
-1.20250155 0.21873062 0.42857143
-1.27393012 0.36158776 -0.35714286
-1.20250155 0.36158776 -0.42857143
-1.27393012 0.36158776 -0.21428571
-1.27393012 0.36158776 -0.07142857
-1.27393012 0.36158776 0.07142857
-1.27393012 0.36158776 0.21428571
-1.20250155 0.36158776 0.28571429
-1.20250155 0.29015919 0.35714286
-1.20250155 0.43301633 -0.35714286
-1.20250155 0.43301633 -0.21428571
-1.20250155 0.43301633 -0.07142857
-1.20250155 0.43301633 0.07142857
-1.20250155 0.43301633 0.21428571
-1.13107298 -0.63841224 -0.35714286
-1.05964441 -0.63841224 -0.42857143
-1.05964441 -0.70984081 -0.35714286
-1.05964441 -0.70984081 -0.21428571
-1.13107298 -0.63841224 -0.21428571
-1.05964441 -0.70984081 -0.07142857
-1.13107298 -0.63841224 -0.07142857
-1.05964441 -0.70984081 0.07142857
-1.13107298 -0.63841224 0.07142857
-1.05964441 -0.70984081 0.21428571
-1.13107298 -0.63841224 0.21428571
-1.05964441 -0.70984081 0.35714286
-1.13107298 -0.63841224 0.35714286
-1.05964441 -0.63841224 0.42857143
-1.13107298 -0.49555510 -0.50000000
-1.05964441 -0.49555510 -0.57142857
-1.05964441 -0.56698367 -0.50000000
-1.13107298 -0.49555510 -0.35714286
-1.13107298 -0.49555510 -0.21428571
-1.13107298 -0.49555510 -0.07142857
-1.13107298 -0.49555510 0.07142857
-1.13107298 -0.49555510 0.21428571
-1.13107298 -0.49555510 0.35714286
-1.05964441 -0.56698367 0.50000000
-1.13107298 -0.49555510 0.50000000
-1.05964441 -0.49555510 0.57142857
-1.13107298 -0.35269795 -0.50000000
-1.05964441 -0.35269795 -0.57142857
-1.13107298 -0.35269795 0.35714286
-1.13107298 -0.35269795 0.50000000
-1.05964441 -0.35269795 0.57142857
-1.13107298 -0.20984081 -0.64285714
-1.05964441 -0.20984081 -0.71428571
-1.05964441 -0.28126938 -0.64285714
-1.13107298 -0.20984081 -0.50000000
-1.13107298 -0.20984081 0.50000000
-1.05964441 -0.28126938 0.64285714
-1.13107298 -0.20984081 0.64285714
-1.05964441 -0.20984081 0.71428571
-1.13107298 -0.06698367 -0.64285714
-1.05964441 -0.06698367 -0.71428571
-1.13107298 -0.06698367 -0.50000000
-1.13107298 -0.06698367 0.50000000
-1.13107298 -0.06698367 0.64285714
-1.05964441 -0.06698367 0.71428571
-1.13107298 0.07587348 -0.64285714
-1.05964441 0.07587348 -0.71428571
-1.13107298 0.07587348 -0.50000000
-1.13107298 0.07587348 0.50000000
-1.13107298 0.07587348 0.64285714
-1.05964441 0.07587348 0.71428571
-1.13107298 0.21873062 -0.64285714
-1.05964441 0.21873062 -0.71428571
-1.13107298 0.21873062 -0.50000000
-1.13107298 0.21873062 0.50000000
-1.05964441 0.21873062 0.57142857
-1.05964441 0.14730205 0.64285714
-1.13107298 0.36158776 -0.64285714
-1.05964441 0.36158776 -0.71428571
-1.13107298 0.36158776 -0.50000000
-1.13107298 0.36158776 0.35714286
-1.13107298 0.36158776 0.50000000
-1.05964441 0.36158776 0.57142857
-1.05964441 0.43301633 -0.64285714
-1.05964441 0.43301633 -0.50000000
-1.13107298 0.50444490 -0.35714286
-1.05964441 0.50444490 -0.42857143
-1.13107298 0.50444490 -0.21428571
-1.13107298 0.50444490 -0.07142857
-1.13107298 0.50444490 0.07142857
-1.13107298 0.50444490 0.21428571
-1.13107298 0.50444490 0.35714286
-1.05964441 0.50444490 0.42857143
-1.05964441 0.43301633 0.50000000
-1.05964441 0.57587348 -0.35714286
-1.13107298 0.64730205 -0.21428571
-1.05964441 0.64730205 -0.28571429
-1.13107298 0.64730205 -0.07142857
-1.13107298 0.64730205 0.07142857
-1.13107298 0.64730205 0.21428571
-1.05964441 0.64730205 0.28571429
-1.05964441 0.57587348 0.35714286
-1.05964441 0.71873062 -0.21428571
-1.05964441 0.71873062 -0.07142857
-1.05964441 0.71873062 0.07142857
-1.05964441 0.71873062 0.21428571
-0.98821584 -0.78126938 -0.35714286
-0.91678726 -0.78126938 -0.42857143
-0.91678726 -0.85269795 -0.35714286
-0.91678726 -0.85269795 -0.21428571
-0.98821584 -0.78126938 -0.21428571
-0.91678726 -0.85269795 -0.07142857
-0.98821584 -0.78126938 -0.07142857
-0.91678726 -0.85269795 0.07142857
-0.98821584 -0.78126938 0.07142857
-0.91678726 -0.85269795 0.21428571
-0.98821584 -0.78126938 0.21428571
-0.91678726 -0.85269795 0.35714286
-0.98821584 -0.78126938 0.35714286
-0.91678726 -0.78126938 0.42857143
-0.98821584 -0.63841224 -0.50000000
-0.91678726 -0.63841224 -0.57142857
-0.91678726 -0.70984081 -0.50000000
-0.91678726 -0.70984081 0.50000000
-0.98821584 -0.63841224 0.50000000
-0.91678726 -0.63841224 0.57142857
-0.98821584 -0.49555510 -0.64285714
-0.91678726 -0.49555510 -0.71428571
-0.91678726 -0.56698367 -0.64285714
-0.91678726 -0.56698367 0.64285714
-0.98821584 -0.49555510 0.64285714
-0.91678726 -0.49555510 0.71428571
-0.98821584 -0.35269795 -0.64285714
-0.91678726 -0.35269795 -0.71428571
-0.98821584 -0.35269795 0.64285714
-0.91678726 -0.35269795 0.71428571
-0.98821584 -0.20984081 -0.78571429
-0.91678726 -0.20984081 -0.85714286
-0.91678726 -0.28126938 -0.78571429
-0.91678726 -0.28126938 0.78571429
-0.98821584 -0.20984081 0.78571429
-0.91678726 -0.20984081 0.85714286
-0.98821584 -0.06698367 -0.78571429
-0.91678726 -0.06698367 -0.85714286
-0.98821584 -0.06698367 0.78571429
-0.91678726 -0.06698367 0.85714286
-0.98821584 0.07587348 -0.78571429
-0.91678726 0.07587348 -0.85714286
-0.98821584 0.07587348 0.78571429
-0.91678726 0.07587348 0.85714286
-0.98821584 0.21873062 -0.78571429
-0.91678726 0.21873062 -0.85714286
-0.98821584 0.21873062 0.64285714
-0.98821584 0.21873062 0.78571429
-0.91678726 0.21873062 0.85714286
-0.98821584 0.36158776 -0.78571429
-0.91678726 0.36158776 -0.85714286
-0.98821584 0.36158776 0.64285714
-0.91678726 0.36158776 0.71428571
-0.91678726 0.29015919 0.78571429
-0.91678726 0.43301633 -0.78571429
-0.98821584 0.50444490 -0.64285714
-0.91678726 0.50444490 -0.71428571
-0.98821584 0.50444490 -0.50000000
-0.98821584 0.50444490 0.50000000
-0.98821584 0.50444490 0.64285714
-0.91678726 0.50444490 0.71428571
-0.91678726 0.57587348 -0.64285714
-0.98821584 0.64730205 -0.50000000
-0.91678726 0.64730205 -0.57142857
-0.98821584 0.64730205 -0.35714286
-0.98821584 0.64730205 0.35714286
-0.98821584 0.64730205 0.50000000
-0.91678726 0.64730205 0.57142857
-0.91678726 0.57587348 0.64285714
-0.91678726 0.71873062 -0.50000000
-0.98821584 0.79015919 -0.35714286
-0.91678726 0.79015919 -0.42857143
-0.98821584 0.79015919 -0.21428571
-0.98821584 0.79015919 -0.07142857
-0.98821584 0.79015919 0.07142857
-0.98821584 0.79015919 0.21428571
-0.98821584 0.79015919 0.35714286
-0.91678726 0.79015919 0.42857143
-0.91678726 0.71873062 0.50000000
-0.91678726 0.86158776 -0.35714286
-0.91678726 0.86158776 -0.21428571
-0.91678726 0.86158776 -0.07142857
-0.91678726 0.86158776 0.07142857
-0.91678726 0.86158776 0.21428571
-0.91678726 0.86158776 0.35714286
-0.84535869 -0.92412652 -0.35714286
-0.77393012 -0.92412652 -0.42857143
-0.77393012 -0.99555510 -0.35714286
-0.77393012 -0.99555510 -0.21428571
-0.84535869 -0.92412652 -0.21428571
-0.77393012 -0.99555510 -0.07142857
-0.84535869 -0.92412652 -0.07142857
-0.77393012 -0.99555510 0.07142857
-0.84535869 -0.92412652 0.07142857
-0.77393012 -0.99555510 0.21428571
-0.84535869 -0.92412652 0.21428571
-0.77393012 -0.92412652 0.28571429
-0.84535869 -0.78126938 -0.64285714
-0.77393012 -0.78126938 -0.71428571
-0.77393012 -0.85269795 -0.64285714
-0.77393012 -0.85269795 -0.50000000
-0.84535869 -0.78126938 -0.50000000
-0.77393012 -0.85269795 0.35714286
-0.77393012 -0.85269795 0.50000000
-0.84535869 -0.78126938 0.50000000
-0.77393012 -0.78126938 0.57142857
-0.84535869 -0.63841224 -0.64285714
-0.77393012 -0.63841224 -0.71428571
-0.77393012 -0.70984081 0.64285714
-0.84535869 -0.63841224 0.64285714
-0.77393012 -0.63841224 0.71428571
-0.84535869 -0.49555510 -0.78571429
-0.77393012 -0.49555510 -0.85714286
-0.77393012 -0.56698367 -0.78571429
-0.77393012 -0.56698367 0.78571429
-0.84535869 -0.49555510 0.78571429
-0.77393012 -0.49555510 0.85714286
-0.84535869 -0.35269795 -0.78571429
-0.77393012 -0.35269795 -0.85714286
-0.84535869 -0.35269795 0.78571429
-0.77393012 -0.35269795 0.85714286
-0.77393012 -0.20984081 -0.85714286
-0.77393012 -0.20984081 0.85714286
-0.77393012 -0.06698367 -0.85714286
-0.77393012 -0.06698367 0.85714286
-0.77393012 0.07587348 -0.85714286
-0.77393012 0.07587348 0.85714286
-0.77393012 0.21873062 -0.85714286
-0.77393012 0.21873062 0.85714286
-0.77393012 0.36158776 -0.85714286
-0.84535869 0.36158776 0.78571429
-0.77393012 0.36158776 0.85714286
-0.84535869 0.50444490 -0.78571429
-0.77393012 0.50444490 -0.85714286
-0.84535869 0.50444490 0.78571429
-0.77393012 0.50444490 0.85714286
-0.77393012 0.57587348 -0.78571429
-0.84535869 0.64730205 -0.64285714
-0.77393012 0.64730205 -0.71428571
-0.84535869 0.64730205 0.64285714
-0.77393012 0.64730205 0.71428571
-0.77393012 0.57587348 0.78571429
-0.77393012 0.71873062 -0.64285714
-0.84535869 0.79015919 -0.50000000
-0.77393012 0.79015919 -0.57142857
-0.84535869 0.79015919 0.50000000
-0.77393012 0.79015919 0.57142857
-0.77393012 0.71873062 0.64285714
-0.77393012 0.86158776 -0.50000000
-0.84535869 0.93301633 -0.35714286
-0.77393012 0.93301633 -0.42857143
-0.84535869 0.93301633 -0.21428571
-0.84535869 0.93301633 -0.07142857
-0.84535869 0.93301633 0.07142857
-0.84535869 0.93301633 0.21428571
-0.77393012 0.93301633 0.28571429
-0.77393012 0.86158776 0.35714286
-0.77393012 0.86158776 0.50000000
-0.77393012 1.00444490 -0.35714286
-0.77393012 1.00444490 -0.21428571
-0.77393012 1.00444490 -0.07142857
-0.77393012 1.00444490 0.07142857
-0.77393012 1.00444490 0.21428571
-0.70250155 -1.06698367 -0.21428571
-0.63107298 -1.06698367 -0.28571429
-0.63107298 -1.13841224 -0.21428571
-0.63107298 -1.13841224 -0.07142857
-0.70250155 -1.06698367 -0.07142857
-0.63107298 -1.13841224 0.07142857
-0.70250155 -1.06698367 0.07142857
-0.63107298 -1.13841224 0.21428571
-0.70250155 -1.06698367 0.21428571
-0.63107298 -1.06698367 0.28571429
-0.70250155 -0.92412652 -0.50000000
-0.63107298 -0.92412652 -0.57142857
-0.63107298 -0.99555510 -0.50000000
-0.63107298 -0.99555510 -0.35714286
-0.63107298 -0.99555510 0.35714286
-0.70250155 -0.92412652 0.35714286
-0.63107298 -0.99555510 0.50000000
-0.70250155 -0.92412652 0.50000000
-0.63107298 -0.92412652 0.57142857
-0.63107298 -0.78126938 -0.71428571
-0.63107298 -0.85269795 -0.64285714
-0.63107298 -0.85269795 0.64285714
-0.70250155 -0.78126938 0.64285714
-0.63107298 -0.78126938 0.71428571
-0.70250155 -0.63841224 -0.78571429
-0.63107298 -0.63841224 -0.85714286
-0.63107298 -0.70984081 -0.78571429
-0.63107298 -0.70984081 0.78571429
-0.70250155 -0.63841224 0.78571429
-0.63107298 -0.63841224 0.85714286
-0.63107298 -0.49555510 -0.85714286
-0.63107298 -0.49555510 0.85714286
-0.70250155 -0.35269795 -0.92857143
-0.63107298 -0.35269795 -1.00000000
-0.63107298 -0.42412652 -0.92857143
-0.63107298 -0.42412652 0.92857143
-0.70250155 -0.35269795 0.92857143
-0.63107298 -0.35269795 1.00000000
-0.70250155 -0.20984081 -0.92857143
-0.63107298 -0.20984081 -1.00000000
-0.70250155 -0.20984081 0.92857143
-0.63107298 -0.20984081 1.00000000
-0.70250155 -0.06698367 -0.92857143
-0.63107298 -0.06698367 -1.00000000
-0.70250155 -0.06698367 0.92857143
-0.63107298 -0.06698367 1.00000000
-0.70250155 0.07587348 -0.92857143
-0.63107298 0.07587348 -1.00000000
-0.70250155 0.07587348 0.92857143
-0.63107298 0.07587348 1.00000000
-0.70250155 0.21873062 -0.92857143
-0.63107298 0.21873062 -1.00000000
-0.70250155 0.21873062 0.92857143
-0.63107298 0.21873062 1.00000000
-0.70250155 0.36158776 -0.92857143
-0.63107298 0.36158776 -1.00000000
-0.70250155 0.36158776 0.92857143
-0.63107298 0.36158776 1.00000000
-0.63107298 0.43301633 -0.92857143
-0.63107298 0.50444490 -0.85714286
-0.63107298 0.43301633 0.92857143
-0.63107298 0.50444490 0.85714286
-0.70250155 0.64730205 -0.78571429
-0.63107298 0.64730205 -0.85714286
-0.70250155 0.64730205 0.78571429
-0.63107298 0.64730205 0.85714286
-0.63107298 0.71873062 -0.78571429
-0.70250155 0.79015919 -0.64285714
-0.63107298 0.79015919 -0.71428571
-0.63107298 0.71873062 0.64285714
-0.63107298 0.79015919 0.57142857
-0.63107298 0.71873062 0.78571429
-0.63107298 0.86158776 -0.64285714
-0.70250155 0.93301633 -0.50000000
-0.63107298 0.93301633 -0.57142857
-0.70250155 0.93301633 0.35714286
-0.70250155 0.93301633 0.50000000
-0.63107298 0.93301633 0.57142857
-0.63107298 1.00444490 -0.50000000
-0.70250155 1.07587348 -0.35714286
-0.63107298 1.07587348 -0.42857143
-0.70250155 1.07587348 -0.21428571
-0.70250155 1.07587348 -0.07142857
-0.70250155 1.07587348 0.07142857
-0.70250155 1.07587348 0.21428571
-0.70250155 1.07587348 0.35714286
-0.63107298 1.07587348 0.42857143
-0.63107298 1.00444490 0.50000000
-0.63107298 1.14730205 -0.35714286
-0.63107298 1.14730205 -0.21428571
-0.63107298 1.14730205 -0.07142857
-0.63107298 1.14730205 0.07142857
-0.63107298 1.14730205 0.21428571
-0.63107298 1.14730205 0.35714286
-0.55964441 -1.06698367 -0.50000000
-0.48821584 -1.06698367 -0.57142857
-0.48821584 -1.13841224 -0.50000000
-0.48821584 -1.13841224 -0.35714286
-0.55964441 -1.06698367 -0.35714286
-0.48821584 -1.13841224 -0.21428571
-0.48821584 -1.13841224 -0.07142857
-0.48821584 -1.13841224 0.07142857
-0.48821584 -1.13841224 0.21428571
-0.48821584 -1.06698367 0.28571429
-0.55964441 -0.92412652 -0.64285714
-0.48821584 -0.92412652 -0.71428571
-0.48821584 -0.99555510 -0.64285714
-0.48821584 -0.99555510 0.35714286
-0.48821584 -0.99555510 0.50000000
-0.48821584 -0.99555510 0.64285714
-0.55964441 -0.92412652 0.64285714
-0.48821584 -0.92412652 0.71428571
-0.55964441 -0.78126938 -0.78571429
-0.48821584 -0.78126938 -0.85714286
-0.48821584 -0.85269795 -0.78571429
-0.48821584 -0.85269795 0.78571429
-0.55964441 -0.78126938 0.78571429
-0.48821584 -0.78126938 0.85714286
-0.48821584 -0.63841224 -0.85714286
-0.48821584 -0.63841224 0.85714286
-0.55964441 -0.49555510 -0.92857143
-0.48821584 -0.49555510 -1.00000000
-0.48821584 -0.56698367 -0.92857143
-0.48821584 -0.56698367 0.92857143
-0.55964441 -0.49555510 0.92857143
-0.48821584 -0.49555510 1.00000000
-0.48821584 -0.35269795 -1.00000000
-0.48821584 -0.35269795 1.00000000
-0.48821584 -0.20984081 -1.00000000
-0.48821584 -0.20984081 1.00000000
-0.48821584 -0.06698367 -1.00000000
-0.48821584 -0.06698367 1.00000000
-0.48821584 0.07587348 -1.00000000
-0.48821584 0.07587348 1.00000000
-0.48821584 0.21873062 -1.00000000
-0.48821584 0.21873062 1.00000000
-0.48821584 0.36158776 -1.00000000
-0.48821584 0.36158776 1.00000000
-0.55964441 0.50444490 -0.92857143
-0.48821584 0.50444490 -1.00000000
-0.48821584 0.43301633 0.92857143
-0.48821584 0.50444490 0.85714286
-0.48821584 0.57587348 -0.92857143
-0.48821584 0.64730205 -0.85714286
-0.48821584 0.64730205 0.85714286
-0.55964441 0.79015919 -0.78571429
-0.48821584 0.79015919 -0.85714286
-0.48821584 0.71873062 0.64285714
-0.48821584 0.79015919 0.57142857
-0.48821584 0.71873062 0.78571429
-0.48821584 0.86158776 -0.78571429
-0.55964441 0.93301633 -0.64285714
-0.48821584 0.93301633 -0.71428571
-0.48821584 0.93301633 0.57142857
-0.48821584 1.00444490 -0.64285714
-0.55964441 1.07587348 -0.50000000
-0.48821584 1.07587348 -0.57142857
-0.55964441 1.07587348 0.50000000
-0.48821584 1.07587348 0.57142857
-0.48821584 1.14730205 -0.50000000
-0.48821584 1.14730205 -0.35714286
-0.48821584 1.14730205 -0.21428571
-0.48821584 1.14730205 -0.07142857
-0.48821584 1.14730205 0.07142857
-0.48821584 1.14730205 0.21428571
-0.48821584 1.14730205 0.35714286
-0.48821584 1.14730205 0.50000000
-0.41678726 -1.20984081 -0.35714286
-0.34535869 -1.20984081 -0.42857143
-0.34535869 -1.28126938 -0.35714286
-0.34535869 -1.28126938 -0.21428571
-0.41678726 -1.20984081 -0.21428571
-0.34535869 -1.28126938 -0.07142857
-0.41678726 -1.20984081 -0.07142857
-0.34535869 -1.28126938 0.07142857
-0.41678726 -1.20984081 0.07142857
-0.34535869 -1.28126938 0.21428571
-0.41678726 -1.20984081 0.21428571
-0.34535869 -1.20984081 0.28571429
-0.34535869 -1.06698367 -0.57142857
-0.34535869 -1.13841224 -0.50000000
-0.34535869 -1.13841224 0.35714286
-0.41678726 -1.06698367 0.35714286
-0.34535869 -1.13841224 0.50000000
-0.41678726 -1.06698367 0.50000000
-0.34535869 -1.06698367 0.57142857
-0.41678726 -0.92412652 -0.78571429
-0.34535869 -0.92412652 -0.85714286
-0.34535869 -0.99555510 -0.78571429
-0.34535869 -0.99555510 -0.64285714
-0.34535869 -0.99555510 0.64285714
-0.34535869 -0.99555510 0.78571429
-0.41678726 -0.92412652 0.78571429
-0.34535869 -0.92412652 0.85714286
-0.34535869 -0.78126938 -0.85714286
-0.34535869 -0.78126938 0.85714286
-0.41678726 -0.63841224 -0.92857143
-0.34535869 -0.63841224 -1.00000000
-0.34535869 -0.70984081 -0.92857143
-0.34535869 -0.70984081 0.92857143
-0.41678726 -0.63841224 0.92857143
-0.34535869 -0.63841224 1.00000000
-0.34535869 -0.49555510 -1.00000000
-0.34535869 -0.49555510 1.00000000
-0.34535869 -0.35269795 -1.00000000
-0.34535869 -0.35269795 1.00000000
-0.34535869 -0.20984081 -1.00000000
-0.34535869 -0.20984081 1.00000000
-0.34535869 -0.06698367 -1.00000000
-0.34535869 -0.06698367 1.00000000
-0.34535869 0.07587348 -1.00000000
-0.34535869 0.07587348 1.00000000
-0.34535869 0.21873062 -1.00000000
-0.34535869 0.21873062 1.00000000
-0.34535869 0.36158776 -1.00000000
-0.34535869 0.36158776 1.00000000
-0.34535869 0.50444490 -1.00000000
-0.41678726 0.50444490 0.92857143
-0.34535869 0.50444490 1.00000000
-0.41678726 0.64730205 -0.92857143
-0.34535869 0.64730205 -1.00000000
-0.41678726 0.64730205 0.92857143
-0.34535869 0.64730205 1.00000000
-0.34535869 0.71873062 -0.92857143
-0.34535869 0.79015919 -0.85714286
-0.41678726 0.79015919 0.64285714
-0.34535869 0.79015919 0.71428571
-0.34535869 0.71873062 0.78571429
-0.34535869 0.71873062 0.92857143
-0.41678726 0.93301633 -0.78571429
-0.34535869 0.93301633 -0.85714286
-0.41678726 0.93301633 0.64285714
-0.34535869 0.93301633 0.71428571
-0.34535869 1.00444490 -0.78571429
-0.34535869 1.00444490 -0.64285714
-0.34535869 1.07587348 -0.57142857
-0.34535869 1.00444490 0.64285714
-0.34535869 1.07587348 0.57142857
-0.34535869 1.14730205 -0.50000000
-0.41678726 1.21873062 -0.35714286
-0.34535869 1.21873062 -0.42857143
-0.41678726 1.21873062 -0.21428571
-0.41678726 1.21873062 -0.07142857
-0.41678726 1.21873062 0.07142857
-0.41678726 1.21873062 0.21428571
-0.34535869 1.21873062 0.28571429
-0.34535869 1.14730205 0.35714286
-0.34535869 1.14730205 0.50000000
-0.34535869 1.29015919 -0.35714286
-0.34535869 1.29015919 -0.21428571
-0.34535869 1.29015919 -0.07142857
-0.34535869 1.29015919 0.07142857
-0.34535869 1.29015919 0.21428571
-0.20250155 -1.20984081 -0.42857143
-0.20250155 -1.28126938 -0.35714286
-0.20250155 -1.28126938 -0.21428571
-0.20250155 -1.28126938 -0.07142857
-0.20250155 -1.28126938 0.07142857
-0.20250155 -1.28126938 0.21428571
-0.20250155 -1.20984081 0.28571429
-0.20250155 -1.06698367 -0.57142857
-0.20250155 -1.13841224 -0.50000000
-0.20250155 -1.13841224 0.35714286
-0.20250155 -1.13841224 0.50000000
-0.20250155 -1.13841224 0.64285714
-0.27393012 -1.06698367 0.64285714
-0.20250155 -1.06698367 0.71428571
-0.20250155 -0.92412652 -0.85714286
-0.20250155 -0.99555510 -0.78571429
-0.20250155 -0.99555510 -0.64285714
-0.20250155 -0.99555510 0.78571429
-0.20250155 -0.92412652 0.85714286
-0.20250155 -0.78126938 -0.85714286
-0.20250155 -0.78126938 0.85714286
-0.20250155 -0.63841224 -1.00000000
-0.20250155 -0.70984081 -0.92857143
-0.20250155 -0.70984081 0.92857143
-0.20250155 -0.63841224 1.00000000
-0.20250155 -0.49555510 -1.00000000
-0.20250155 -0.49555510 1.00000000
-0.20250155 -0.35269795 -1.00000000
-0.20250155 -0.35269795 1.00000000
-0.20250155 -0.20984081 -1.00000000
-0.20250155 -0.20984081 1.00000000
-0.20250155 -0.06698367 -1.00000000
-0.20250155 -0.06698367 1.00000000
-0.20250155 0.07587348 -1.00000000
-0.20250155 0.07587348 1.00000000
-0.20250155 0.21873062 -1.00000000
-0.20250155 0.21873062 1.00000000
-0.20250155 0.36158776 -1.00000000
-0.20250155 0.36158776 1.00000000
-0.20250155 0.50444490 -1.00000000
-0.20250155 0.50444490 1.00000000
-0.20250155 0.64730205 -1.00000000
-0.20250155 0.64730205 1.00000000
-0.27393012 0.79015919 -0.92857143
-0.20250155 0.79015919 -1.00000000
-0.27393012 0.79015919 0.78571429
-0.20250155 0.79015919 0.85714286
-0.20250155 0.71873062 0.92857143
-0.20250155 0.86158776 -0.92857143
-0.20250155 0.93301633 -0.85714286
-0.27393012 0.93301633 0.64285714
-0.20250155 0.86158776 0.64285714
-0.20250155 0.93301633 0.57142857
-0.20250155 0.86158776 0.78571429
-0.20250155 1.00444490 -0.78571429
-0.27393012 1.07587348 -0.64285714
-0.20250155 1.07587348 -0.71428571
-0.20250155 1.07587348 0.57142857
-0.20250155 1.14730205 -0.64285714
-0.20250155 1.14730205 -0.50000000
-0.20250155 1.21873062 -0.42857143
-0.20250155 1.14730205 0.35714286
-0.20250155 1.21873062 0.28571429
-0.20250155 1.14730205 0.50000000
-0.20250155 1.29015919 -0.35714286
-0.20250155 1.29015919 -0.21428571
-0.20250155 1.29015919 -0.07142857
-0.20250155 1.29015919 0.07142857
-0.20250155 1.29015919 0.21428571
-0.05964441 -1.20984081 -0.42857143
-0.05964441 -1.28126938 -0.35714286
-0.05964441 -1.28126938 -0.21428571
-0.05964441 -1.28126938 -0.07142857
-0.05964441 -1.28126938 0.07142857
-0.05964441 -1.28126938 0.21428571
-0.05964441 -1.20984081 0.28571429
-0.13107298 -1.06698367 -0.64285714
-0.05964441 -1.06698367 -0.71428571
-0.05964441 -1.13841224 -0.64285714
-0.05964441 -1.13841224 -0.50000000
-0.05964441 -1.13841224 0.35714286
-0.05964441 -1.13841224 0.50000000
-0.05964441 -1.13841224 0.64285714
-0.05964441 -1.06698367 0.71428571
-0.05964441 -0.92412652 -0.85714286
-0.05964441 -0.99555510 -0.78571429
-0.05964441 -0.99555510 0.78571429
-0.05964441 -0.92412652 0.85714286
-0.05964441 -0.78126938 -0.85714286
-0.05964441 -0.78126938 0.85714286
-0.05964441 -0.63841224 -1.00000000
-0.05964441 -0.70984081 -0.92857143
-0.05964441 -0.70984081 0.92857143
-0.05964441 -0.63841224 1.00000000
-0.05964441 -0.49555510 -1.00000000
-0.05964441 -0.49555510 1.00000000
-0.05964441 -0.35269795 -1.00000000
-0.05964441 -0.35269795 1.00000000
-0.05964441 -0.20984081 -1.00000000
-0.05964441 -0.20984081 1.00000000
-0.05964441 -0.06698367 -1.00000000
-0.05964441 -0.06698367 1.00000000
-0.05964441 0.07587348 -1.00000000
-0.05964441 0.07587348 1.00000000
-0.05964441 0.21873062 -1.00000000
-0.05964441 0.21873062 1.00000000
-0.05964441 0.36158776 -1.00000000
-0.05964441 0.36158776 1.00000000
-0.05964441 0.50444490 -1.00000000
-0.05964441 0.50444490 1.00000000
-0.05964441 0.64730205 -1.00000000
-0.05964441 0.64730205 1.00000000
-0.05964441 0.79015919 -1.00000000
-0.05964441 0.71873062 0.92857143
-0.05964441 0.79015919 0.85714286
-0.05964441 0.86158776 -0.92857143
-0.05964441 0.93301633 -0.85714286
-0.05964441 0.86158776 0.64285714
-0.05964441 0.93301633 0.57142857
-0.05964441 0.86158776 0.78571429
-0.05964441 1.00444490 -0.78571429
-0.05964441 1.07587348 -0.71428571
-0.13107298 1.07587348 0.50000000
-0.05964441 1.00444490 0.50000000
-0.05964441 1.07587348 0.42857143
-0.05964441 1.14730205 -0.64285714
-0.05964441 1.14730205 -0.50000000
-0.05964441 1.21873062 -0.42857143
-0.05964441 1.14730205 0.35714286
-0.05964441 1.21873062 0.28571429
-0.05964441 1.29015919 -0.35714286
-0.05964441 1.29015919 -0.21428571
-0.05964441 1.29015919 -0.07142857
-0.05964441 1.29015919 0.07142857
-0.05964441 1.29015919 0.21428571
0.08321274 -1.20984081 -0.42857143
0.08321274 -1.28126938 -0.35714286
0.08321274 -1.28126938 -0.21428571
0.08321274 -1.28126938 -0.07142857
0.08321274 -1.28126938 0.07142857
0.08321274 -1.28126938 0.21428571
0.08321274 -1.20984081 0.28571429
0.08321274 -1.06698367 -0.71428571
0.08321274 -1.13841224 -0.64285714
0.08321274 -1.13841224 -0.50000000
0.08321274 -1.13841224 0.35714286
0.08321274 -1.13841224 0.50000000
0.01178416 -1.06698367 0.64285714
0.08321274 -1.06698367 0.57142857
0.08321274 -0.92412652 -0.85714286
0.08321274 -0.99555510 -0.78571429
0.08321274 -0.99555510 0.64285714
0.08321274 -0.99555510 0.78571429
0.08321274 -0.92412652 0.85714286
0.08321274 -0.78126938 -0.85714286
0.08321274 -0.78126938 0.85714286
0.08321274 -0.63841224 -1.00000000
0.08321274 -0.70984081 -0.92857143
0.08321274 -0.70984081 0.92857143
0.08321274 -0.63841224 1.00000000
0.08321274 -0.49555510 -1.00000000
0.08321274 -0.49555510 1.00000000
0.08321274 -0.35269795 -1.00000000
0.08321274 -0.35269795 1.00000000
0.08321274 -0.20984081 -1.00000000
0.08321274 -0.20984081 1.00000000
0.08321274 -0.06698367 -1.00000000
0.08321274 -0.06698367 1.00000000
0.08321274 0.07587348 -1.00000000
0.08321274 0.07587348 1.00000000
0.08321274 0.21873062 -1.00000000
0.08321274 0.21873062 1.00000000
0.08321274 0.36158776 -1.00000000
0.08321274 0.36158776 1.00000000
0.08321274 0.50444490 -1.00000000
0.08321274 0.50444490 1.00000000
0.08321274 0.64730205 -1.00000000
0.08321274 0.64730205 1.00000000
0.08321274 0.79015919 -1.00000000
0.08321274 0.71873062 0.92857143
0.08321274 0.79015919 0.85714286
0.08321274 0.86158776 -0.92857143
0.08321274 0.93301633 -0.85714286
0.08321274 0.86158776 0.64285714
0.08321274 0.93301633 0.57142857
0.08321274 0.86158776 0.78571429
0.08321274 1.00444490 -0.78571429
0.08321274 1.07587348 -0.71428571
0.08321274 1.00444490 0.50000000
0.08321274 1.07587348 0.42857143
0.08321274 1.14730205 -0.64285714
0.08321274 1.14730205 -0.50000000
0.08321274 1.21873062 -0.42857143
0.01178416 1.21873062 0.35714286
0.08321274 1.21873062 0.42857143
0.08321274 1.29015919 -0.35714286
0.08321274 1.29015919 -0.21428571
0.08321274 1.29015919 -0.07142857
0.08321274 1.29015919 0.07142857
0.08321274 1.29015919 0.21428571
0.08321274 1.29015919 0.35714286
0.22606988 -1.20984081 -0.42857143
0.22606988 -1.28126938 -0.35714286
0.22606988 -1.28126938 -0.21428571
0.22606988 -1.28126938 -0.07142857
0.22606988 -1.28126938 0.07142857
0.15464131 -1.20984081 0.21428571
0.22606988 -1.20984081 0.14285714
0.15464131 -1.06698367 -0.64285714
0.22606988 -1.06698367 -0.57142857
0.22606988 -1.13841224 -0.50000000
0.22606988 -1.13841224 0.21428571
0.22606988 -1.13841224 0.35714286
0.22606988 -1.13841224 0.50000000
0.22606988 -1.06698367 0.57142857
0.22606988 -0.92412652 -0.85714286
0.22606988 -0.99555510 -0.78571429
0.22606988 -0.99555510 -0.64285714
0.22606988 -0.99555510 0.64285714
0.22606988 -0.99555510 0.78571429
0.22606988 -0.92412652 0.85714286
0.22606988 -0.78126938 -0.85714286
0.22606988 -0.78126938 0.85714286
0.22606988 -0.63841224 -1.00000000
0.22606988 -0.70984081 -0.92857143
0.22606988 -0.70984081 0.92857143
0.22606988 -0.63841224 1.00000000
0.22606988 -0.49555510 -1.00000000
0.22606988 -0.49555510 1.00000000
0.22606988 -0.35269795 -1.00000000
0.22606988 -0.35269795 1.00000000
0.22606988 -0.20984081 -1.00000000
0.22606988 -0.20984081 1.00000000
0.22606988 -0.06698367 -1.00000000
0.22606988 -0.06698367 1.00000000
0.22606988 0.07587348 -1.00000000
0.22606988 0.07587348 1.00000000
0.22606988 0.21873062 -1.00000000
0.22606988 0.21873062 1.00000000
0.22606988 0.36158776 -1.00000000
0.22606988 0.36158776 1.00000000
0.22606988 0.50444490 -1.00000000
0.22606988 0.50444490 1.00000000
0.22606988 0.64730205 -1.00000000
0.22606988 0.64730205 1.00000000
0.22606988 0.71873062 -0.92857143
0.15464131 0.79015919 -0.92857143
0.22606988 0.79015919 -0.85714286
0.22606988 0.71873062 0.92857143
0.22606988 0.79015919 0.85714286
0.22606988 0.93301633 -0.85714286
0.22606988 0.86158776 0.64285714
0.22606988 0.93301633 0.57142857
0.22606988 0.86158776 0.78571429
0.22606988 1.00444490 -0.78571429
0.22606988 1.07587348 -0.71428571
0.15464131 1.07587348 0.35714286
0.22606988 1.00444490 0.35714286
0.22606988 1.07587348 0.28571429
0.22606988 1.00444490 0.50000000
0.22606988 1.14730205 -0.64285714
0.22606988 1.14730205 -0.50000000
0.22606988 1.21873062 -0.42857143
0.15464131 1.21873062 0.35714286
0.22606988 1.21873062 0.28571429
0.22606988 1.29015919 -0.35714286
0.22606988 1.29015919 -0.21428571
0.22606988 1.29015919 -0.07142857
0.22606988 1.29015919 0.07142857
0.22606988 1.29015919 0.21428571
0.29749845 -1.20984081 -0.35714286
0.36892702 -1.20984081 -0.28571429
0.36892702 -1.28126938 -0.21428571
0.36892702 -1.28126938 -0.07142857
0.36892702 -1.28126938 0.07142857
0.36892702 -1.20984081 0.14285714
0.36892702 -1.06698367 -0.57142857
0.36892702 -1.13841224 -0.50000000
0.36892702 -1.13841224 -0.35714286
0.36892702 -1.13841224 0.21428571
0.36892702 -1.13841224 0.35714286
0.36892702 -1.13841224 0.50000000
0.36892702 -1.06698367 0.57142857
0.29749845 -0.92412652 -0.78571429
0.36892702 -0.92412652 -0.71428571
0.36892702 -0.99555510 -0.64285714
0.36892702 -0.99555510 0.64285714
0.29749845 -0.92412652 0.78571429
0.36892702 -0.92412652 0.71428571
0.36892702 -0.78126938 -0.85714286
0.36892702 -0.85269795 -0.78571429
0.36892702 -0.85269795 0.78571429
0.36892702 -0.78126938 0.85714286
0.36892702 -0.63841224 -1.00000000
0.36892702 -0.70984081 -0.92857143
0.36892702 -0.70984081 0.92857143
0.36892702 -0.63841224 1.00000000
0.36892702 -0.49555510 -1.00000000
0.36892702 -0.49555510 1.00000000
0.36892702 -0.35269795 -1.00000000
0.36892702 -0.35269795 1.00000000
0.36892702 -0.20984081 -1.00000000
0.36892702 -0.20984081 1.00000000
0.36892702 -0.06698367 -1.00000000
0.36892702 -0.06698367 1.00000000
0.36892702 0.07587348 -1.00000000
0.36892702 0.07587348 1.00000000
0.36892702 0.21873062 -1.00000000
0.36892702 0.21873062 1.00000000
0.36892702 0.36158776 -1.00000000
0.36892702 0.36158776 1.00000000
0.36892702 0.50444490 -1.00000000
0.36892702 0.50444490 1.00000000
0.36892702 0.64730205 -1.00000000
0.36892702 0.64730205 1.00000000
0.36892702 0.71873062 -0.92857143
0.36892702 0.79015919 -0.85714286
0.36892702 0.71873062 0.92857143
0.36892702 0.79015919 0.85714286
0.36892702 0.93301633 -0.85714286
0.36892702 0.86158776 0.64285714
0.36892702 0.93301633 0.57142857
0.36892702 0.86158776 0.78571429
0.36892702 1.00444490 -0.78571429
0.29749845 1.07587348 -0.64285714
0.36892702 1.00444490 -0.64285714
0.36892702 1.07587348 -0.57142857
0.36892702 1.00444490 0.35714286
0.36892702 1.07587348 0.28571429
0.36892702 1.00444490 0.50000000
0.36892702 1.14730205 -0.50000000
0.29749845 1.21873062 -0.35714286
0.36892702 1.14730205 -0.35714286
0.36892702 1.21873062 -0.28571429
0.36892702 1.21873062 0.28571429
0.36892702 1.29015919 -0.21428571
0.36892702 1.29015919 -0.07142857
0.36892702 1.29015919 0.07142857
0.36892702 1.29015919 0.21428571
0.44035559 -1.20984081 -0.21428571
0.44035559 -1.20984081 -0.07142857
0.44035559 -1.20984081 0.07142857
0.51178416 -1.06698367 -0.57142857
0.51178416 -1.13841224 -0.50000000
0.51178416 -1.13841224 -0.35714286
0.51178416 -1.13841224 -0.21428571
0.51178416 -1.13841224 -0.07142857
0.51178416 -1.13841224 0.07142857
0.51178416 -1.13841224 0.21428571
0.51178416 -1.13841224 0.35714286
0.44035559 -1.06698367 0.50000000
0.51178416 -1.06698367 0.42857143
0.51178416 -0.92412652 -0.71428571
0.51178416 -0.99555510 -0.64285714
0.51178416 -0.99555510 0.50000000
0.51178416 -0.99555510 0.64285714
0.51178416 -0.92412652 0.71428571
0.51178416 -0.78126938 -0.85714286
0.51178416 -0.85269795 -0.78571429
0.51178416 -0.85269795 0.78571429
0.51178416 -0.78126938 0.85714286
0.44035559 -0.63841224 -0.92857143
0.51178416 -0.63841224 -0.85714286
0.44035559 -0.63841224 0.92857143
0.51178416 -0.63841224 0.85714286
0.51178416 -0.49555510 -1.00000000
0.51178416 -0.56698367 -0.92857143
0.51178416 -0.56698367 0.92857143
0.51178416 -0.49555510 1.00000000
0.51178416 -0.35269795 -1.00000000
0.51178416 -0.35269795 1.00000000
0.51178416 -0.20984081 -1.00000000
0.51178416 -0.20984081 1.00000000
0.51178416 -0.06698367 -1.00000000
0.51178416 -0.06698367 1.00000000
0.51178416 0.07587348 -1.00000000
0.51178416 0.07587348 1.00000000
0.51178416 0.21873062 -1.00000000
0.51178416 0.21873062 1.00000000
0.51178416 0.36158776 -1.00000000
0.51178416 0.36158776 1.00000000
0.51178416 0.50444490 -1.00000000
0.51178416 0.50444490 1.00000000
0.51178416 0.64730205 -1.00000000
0.51178416 0.64730205 1.00000000
0.51178416 0.71873062 -0.92857143
0.51178416 0.79015919 -0.85714286
0.44035559 0.79015919 0.78571429
0.51178416 0.71873062 0.78571429
0.51178416 0.79015919 0.71428571
0.51178416 0.71873062 0.92857143
0.51178416 0.86158776 -0.78571429
0.44035559 0.93301633 -0.78571429
0.51178416 0.93301633 -0.71428571
0.44035559 0.93301633 0.35714286
0.51178416 0.86158776 0.35714286
0.51178416 0.93301633 0.28571429
0.44035559 0.93301633 0.50000000
0.51178416 0.86158776 0.50000000
0.51178416 0.86158776 0.64285714
0.51178416 1.00444490 -0.64285714
0.44035559 1.07587348 -0.50000000
0.51178416 1.00444490 -0.50000000
0.51178416 1.07587348 -0.42857143
0.51178416 1.07587348 0.28571429
0.51178416 1.14730205 -0.35714286
0.44035559 1.21873062 -0.21428571
0.51178416 1.14730205 -0.21428571
0.44035559 1.21873062 -0.07142857
0.51178416 1.14730205 -0.07142857
0.44035559 1.21873062 0.07142857
0.51178416 1.14730205 0.07142857
0.44035559 1.21873062 0.21428571
0.51178416 1.14730205 0.21428571
0.58321274 -1.06698367 -0.50000000
0.65464131 -1.06698367 -0.42857143
0.65464131 -1.13841224 -0.35714286
0.65464131 -1.13841224 -0.21428571
0.65464131 -1.13841224 -0.07142857
0.65464131 -1.13841224 0.07142857
0.65464131 -1.13841224 0.21428571
0.58321274 -1.06698367 0.35714286
0.65464131 -1.06698367 0.28571429
0.58321274 -0.92412652 -0.64285714
0.65464131 -0.92412652 -0.57142857
0.65464131 -0.99555510 -0.50000000
0.65464131 -0.99555510 0.35714286
0.65464131 -0.99555510 0.50000000
0.58321274 -0.92412652 0.64285714
0.65464131 -0.92412652 0.57142857
0.58321274 -0.78126938 -0.78571429
0.65464131 -0.78126938 -0.71428571
0.65464131 -0.85269795 -0.64285714
0.65464131 -0.85269795 0.64285714
0.58321274 -0.78126938 0.78571429
0.65464131 -0.78126938 0.71428571
0.65464131 -0.63841224 -0.85714286
0.65464131 -0.70984081 -0.78571429
0.65464131 -0.70984081 0.78571429
0.65464131 -0.63841224 0.85714286
0.58321274 -0.49555510 -0.92857143
0.65464131 -0.49555510 -0.85714286
0.58321274 -0.49555510 0.92857143
0.65464131 -0.49555510 0.85714286
0.65464131 -0.35269795 -1.00000000
0.65464131 -0.42412652 -0.92857143
0.65464131 -0.42412652 0.92857143
0.65464131 -0.35269795 1.00000000
0.65464131 -0.20984081 -1.00000000
0.65464131 -0.20984081 1.00000000
0.65464131 -0.06698367 -1.00000000
0.65464131 -0.06698367 1.00000000
0.65464131 0.07587348 -1.00000000
0.65464131 0.07587348 1.00000000
0.65464131 0.21873062 -1.00000000
0.65464131 0.21873062 1.00000000
0.65464131 0.36158776 -1.00000000
0.65464131 0.36158776 1.00000000
0.65464131 0.43301633 -0.92857143
0.58321274 0.50444490 -0.92857143
0.65464131 0.50444490 -0.85714286
0.65464131 0.50444490 1.00000000
0.58321274 0.64730205 -0.92857143
0.65464131 0.64730205 -0.85714286
0.65464131 0.64730205 1.00000000
0.65464131 0.79015919 -0.85714286
0.58321274 0.79015919 0.50000000
0.65464131 0.71873062 0.50000000
0.65464131 0.79015919 0.42857143
0.58321274 0.79015919 0.64285714
0.65464131 0.71873062 0.64285714
0.65464131 0.71873062 0.78571429
0.65464131 0.71873062 0.92857143
0.65464131 0.86158776 -0.78571429
0.58321274 0.93301633 -0.64285714
0.65464131 0.86158776 -0.64285714
0.65464131 0.93301633 -0.57142857
0.65464131 0.86158776 0.35714286
0.65464131 0.93301633 0.28571429
0.65464131 1.00444490 -0.50000000
0.58321274 1.07587348 -0.35714286
0.65464131 1.00444490 -0.35714286
0.65464131 1.07587348 -0.28571429
0.65464131 1.07587348 0.28571429
0.65464131 1.14730205 -0.21428571
0.65464131 1.14730205 -0.07142857
0.65464131 1.14730205 0.07142857
0.65464131 1.14730205 0.21428571
0.72606988 -1.06698367 -0.35714286
0.72606988 -1.06698367 -0.21428571
0.72606988 -1.06698367 -0.07142857
0.72606988 -1.06698367 0.07142857
0.72606988 -1.06698367 0.21428571
0.72606988 -0.92412652 -0.50000000
0.79749845 -0.92412652 -0.42857143
0.79749845 -0.99555510 -0.35714286
0.79749845 -0.99555510 -0.21428571
0.79749845 -0.99555510 -0.07142857
0.79749845 -0.99555510 0.07142857
0.79749845 -0.99555510 0.21428571
0.72606988 -0.92412652 0.35714286
0.79749845 -0.92412652 0.28571429
0.72606988 -0.92412652 0.50000000
0.72606988 -0.78126938 -0.64285714
0.79749845 -0.78126938 -0.57142857
0.79749845 -0.85269795 -0.50000000
0.72606988 -0.78126938 0.35714286
0.79749845 -0.78126938 0.28571429
0.72606988 -0.78126938 0.50000000
0.72606988 -0.78126938 0.64285714
0.72606988 -0.63841224 -0.78571429
0.79749845 -0.63841224 -0.71428571
0.79749845 -0.70984081 -0.64285714
0.79749845 -0.70984081 0.35714286
0.79749845 -0.70984081 0.50000000
0.79749845 -0.70984081 0.64285714
0.72606988 -0.63841224 0.78571429
0.79749845 -0.63841224 0.71428571
0.79749845 -0.49555510 -0.85714286
0.79749845 -0.56698367 -0.78571429
0.79749845 -0.56698367 0.78571429
0.79749845 -0.49555510 0.85714286
0.72606988 -0.35269795 -0.92857143
0.79749845 -0.35269795 -0.85714286
0.72606988 -0.35269795 0.92857143
0.79749845 -0.35269795 0.85714286
0.72606988 -0.20984081 -0.92857143
0.79749845 -0.20984081 -0.85714286
0.72606988 -0.20984081 0.92857143
0.79749845 -0.20984081 0.85714286
0.72606988 -0.06698367 -0.92857143
0.79749845 -0.06698367 -0.85714286
0.72606988 -0.06698367 0.92857143
0.79749845 -0.06698367 0.85714286
0.72606988 0.07587348 -0.92857143
0.79749845 0.07587348 -0.85714286
0.72606988 0.07587348 0.92857143
0.79749845 0.07587348 0.85714286
0.72606988 0.21873062 -0.92857143
0.79749845 0.21873062 -0.85714286
0.72606988 0.21873062 0.92857143
0.79749845 0.21873062 0.85714286
0.72606988 0.36158776 -0.92857143
0.79749845 0.36158776 -0.85714286
0.72606988 0.36158776 0.92857143
0.79749845 0.36158776 0.85714286
0.79749845 0.50444490 -0.85714286
0.72606988 0.50444490 0.92857143
0.79749845 0.50444490 0.85714286
0.79749845 0.64730205 -0.85714286
0.72606988 0.64730205 0.50000000
0.79749845 0.57587348 0.50000000
0.79749845 0.64730205 0.42857143
0.72606988 0.64730205 0.64285714
0.79749845 0.57587348 0.64285714
0.72606988 0.64730205 0.78571429
0.79749845 0.57587348 0.78571429
0.72606988 0.64730205 0.92857143
0.79749845 0.71873062 -0.78571429
0.72606988 0.79015919 -0.78571429
0.72606988 0.79015919 -0.64285714
0.79749845 0.71873062 -0.64285714
0.79749845 0.79015919 -0.57142857
0.72606988 0.79015919 0.35714286
0.79749845 0.71873062 0.35714286
0.79749845 0.79015919 0.28571429
0.72606988 0.93301633 -0.50000000
0.79749845 0.86158776 -0.50000000
0.79749845 0.93301633 -0.42857143
0.72606988 0.93301633 0.21428571
0.79749845 0.86158776 0.21428571
0.79749845 0.93301633 0.14285714
0.79749845 1.00444490 -0.35714286
0.72606988 1.07587348 -0.21428571
0.79749845 1.00444490 -0.21428571
0.72606988 1.07587348 -0.07142857
0.79749845 1.00444490 -0.07142857
0.72606988 1.07587348 0.07142857
0.79749845 1.00444490 0.07142857
0.72606988 1.07587348 0.21428571
0.86892702 -0.92412652 -0.35714286
0.86892702 -0.92412652 -0.21428571
0.86892702 -0.92412652 -0.07142857
0.86892702 -0.92412652 0.07142857
0.86892702 -0.92412652 0.21428571
0.86892702 -0.78126938 -0.50000000
0.86892702 -0.78126938 -0.35714286
0.94035559 -0.78126938 -0.28571429
0.94035559 -0.85269795 -0.21428571
0.94035559 -0.85269795 -0.07142857
0.94035559 -0.85269795 0.07142857
0.94035559 -0.85269795 0.21428571
0.94035559 -0.78126938 0.28571429
0.86892702 -0.63841224 -0.64285714
0.94035559 -0.63841224 -0.57142857
0.94035559 -0.70984081 -0.50000000
0.94035559 -0.70984081 -0.35714286
0.94035559 -0.70984081 0.35714286
0.94035559 -0.70984081 0.50000000
0.86892702 -0.63841224 0.64285714
0.94035559 -0.63841224 0.57142857
0.86892702 -0.49555510 -0.78571429
0.94035559 -0.49555510 -0.71428571
0.94035559 -0.56698367 -0.64285714
0.94035559 -0.56698367 0.64285714
0.86892702 -0.49555510 0.78571429
0.94035559 -0.49555510 0.71428571
0.86892702 -0.35269795 -0.78571429
0.94035559 -0.35269795 -0.71428571
0.86892702 -0.35269795 0.78571429
0.94035559 -0.35269795 0.71428571
0.94035559 -0.20984081 -0.85714286
0.94035559 -0.28126938 -0.78571429
0.94035559 -0.28126938 0.78571429
0.94035559 -0.20984081 0.85714286
0.94035559 -0.06698367 -0.85714286
0.94035559 -0.06698367 0.85714286
0.94035559 0.07587348 -0.85714286
0.94035559 0.07587348 0.85714286
0.94035559 0.21873062 -0.85714286
0.86892702 0.21873062 0.78571429
0.94035559 0.14730205 0.78571429
0.94035559 0.21873062 0.71428571
0.94035559 0.36158776 -0.85714286
0.86892702 0.36158776 0.64285714
0.94035559 0.29015919 0.64285714
0.94035559 0.36158776 0.57142857
0.86892702 0.36158776 0.78571429
0.94035559 0.43301633 -0.78571429
0.86892702 0.50444490 -0.78571429
0.94035559 0.50444490 -0.71428571
0.86892702 0.50444490 0.35714286
0.94035559 0.43301633 0.35714286
0.94035559 0.50444490 0.28571429
0.86892702 0.50444490 0.50000000
0.94035559 0.43301633 0.50000000
0.86892702 0.50444490 0.64285714
0.86892702 0.50444490 0.78571429
0.86892702 0.64730205 -0.78571429
0.94035559 0.57587348 -0.64285714
0.86892702 0.64730205 -0.64285714
0.94035559 0.64730205 -0.57142857
0.86892702 0.64730205 0.35714286
0.94035559 0.64730205 0.28571429
0.86892702 0.79015919 -0.50000000
0.94035559 0.71873062 -0.50000000
0.94035559 0.79015919 -0.42857143
0.94035559 0.79015919 0.28571429
0.86892702 0.93301633 -0.35714286
0.94035559 0.86158776 -0.35714286
0.86892702 0.93301633 -0.21428571
0.94035559 0.86158776 -0.21428571
0.86892702 0.93301633 -0.07142857
0.94035559 0.86158776 -0.07142857
0.86892702 0.93301633 0.07142857
0.94035559 0.86158776 0.07142857
0.94035559 0.86158776 0.21428571
1.01178416 -0.78126938 -0.21428571
1.01178416 -0.78126938 -0.07142857
1.01178416 -0.78126938 0.07142857
1.01178416 -0.78126938 0.21428571
1.01178416 -0.63841224 -0.50000000
1.01178416 -0.63841224 -0.35714286
1.08321274 -0.63841224 -0.28571429
1.08321274 -0.70984081 -0.21428571
1.08321274 -0.70984081 -0.07142857
1.08321274 -0.70984081 0.07142857
1.08321274 -0.70984081 0.21428571
1.01178416 -0.63841224 0.35714286
1.08321274 -0.63841224 0.28571429
1.01178416 -0.63841224 0.50000000
1.01178416 -0.49555510 -0.64285714
1.01178416 -0.49555510 -0.50000000
1.08321274 -0.49555510 -0.42857143
1.08321274 -0.56698367 -0.35714286
1.01178416 -0.49555510 0.35714286
1.08321274 -0.49555510 0.28571429
1.01178416 -0.49555510 0.50000000
1.01178416 -0.49555510 0.64285714
1.01178416 -0.35269795 -0.64285714
1.08321274 -0.35269795 -0.57142857
1.08321274 -0.42412652 -0.50000000
1.01178416 -0.35269795 0.35714286
1.08321274 -0.35269795 0.28571429
1.01178416 -0.35269795 0.50000000
1.01178416 -0.35269795 0.64285714
1.01178416 -0.20984081 -0.78571429
1.08321274 -0.20984081 -0.71428571
1.08321274 -0.28126938 -0.64285714
1.08321274 -0.28126938 0.35714286
1.08321274 -0.20984081 0.42857143
1.01178416 -0.20984081 0.50000000
1.01178416 -0.20984081 0.64285714
1.01178416 -0.20984081 0.78571429
1.01178416 -0.06698367 -0.78571429
1.08321274 -0.06698367 -0.71428571
1.01178416 -0.06698367 0.50000000
1.08321274 -0.06698367 0.42857143
1.01178416 -0.06698367 0.64285714
1.01178416 -0.06698367 0.78571429
1.01178416 0.07587348 -0.78571429
1.08321274 0.07587348 -0.71428571
1.01178416 0.07587348 0.50000000
1.08321274 0.07587348 0.42857143
1.01178416 0.07587348 0.64285714
1.01178416 0.07587348 0.78571429
1.01178416 0.21873062 -0.78571429
1.08321274 0.14730205 -0.64285714
1.01178416 0.21873062 -0.64285714
1.08321274 0.21873062 -0.57142857
1.01178416 0.21873062 0.50000000
1.08321274 0.21873062 0.42857143
1.01178416 0.21873062 0.64285714
1.01178416 0.36158776 -0.78571429
1.01178416 0.36158776 -0.64285714
1.08321274 0.36158776 -0.57142857
1.01178416 0.36158776 0.35714286
1.08321274 0.29015919 0.35714286
1.08321274 0.36158776 0.28571429
1.01178416 0.36158776 0.50000000
1.01178416 0.50444490 -0.64285714
1.08321274 0.50444490 -0.57142857
1.08321274 0.50444490 0.28571429
1.01178416 0.64730205 -0.50000000
1.08321274 0.57587348 -0.50000000
1.01178416 0.64730205 -0.35714286
1.08321274 0.57587348 -0.35714286
1.08321274 0.64730205 -0.28571429
1.08321274 0.64730205 0.28571429
1.01178416 0.79015919 -0.35714286
1.08321274 0.71873062 -0.21428571
1.01178416 0.79015919 -0.21428571
1.01178416 0.79015919 -0.07142857
1.08321274 0.71873062 -0.07142857
1.01178416 0.79015919 0.07142857
1.08321274 0.71873062 0.07142857
1.01178416 0.79015919 0.21428571
1.08321274 0.71873062 0.21428571
1.15464131 -0.63841224 -0.21428571
1.15464131 -0.63841224 -0.07142857
1.15464131 -0.63841224 0.07142857
1.15464131 -0.63841224 0.21428571
1.15464131 -0.49555510 -0.35714286
1.15464131 -0.49555510 -0.21428571
1.15464131 -0.49555510 -0.07142857
1.22606988 -0.49555510 0.00000000
1.22606988 -0.56698367 0.07142857
1.22606988 -0.49555510 0.14285714
1.15464131 -0.49555510 0.21428571
1.15464131 -0.35269795 -0.50000000
1.15464131 -0.35269795 -0.35714286
1.22606988 -0.35269795 -0.28571429
1.22606988 -0.42412652 -0.21428571
1.22606988 -0.42412652 -0.07142857
1.15464131 -0.35269795 0.21428571
1.22606988 -0.35269795 0.14285714
1.15464131 -0.20984081 -0.64285714
1.15464131 -0.20984081 -0.50000000
1.15464131 -0.20984081 -0.35714286
1.22606988 -0.20984081 -0.28571429
1.15464131 -0.20984081 0.21428571
1.22606988 -0.20984081 0.14285714
1.15464131 -0.20984081 0.35714286
1.15464131 -0.06698367 -0.64285714
1.15464131 -0.06698367 -0.50000000
1.22606988 -0.06698367 -0.42857143
1.22606988 -0.13841224 -0.35714286
1.22606988 -0.13841224 0.21428571
1.22606988 -0.06698367 0.28571429
1.15464131 -0.06698367 0.35714286
1.15464131 0.07587348 -0.64285714
1.15464131 0.07587348 -0.50000000
1.22606988 0.07587348 -0.42857143
1.15464131 0.07587348 0.35714286
1.22606988 0.07587348 0.28571429
1.15464131 0.21873062 -0.50000000
1.22606988 0.14730205 -0.35714286
1.15464131 0.21873062 -0.35714286
1.22606988 0.21873062 -0.28571429
1.15464131 0.21873062 0.35714286
1.22606988 0.21873062 0.28571429
1.15464131 0.36158776 -0.50000000
1.15464131 0.36158776 -0.35714286
1.22606988 0.29015919 -0.21428571
1.15464131 0.36158776 -0.21428571
1.15464131 0.36158776 -0.07142857
1.22606988 0.29015919 -0.07142857
1.15464131 0.36158776 0.07142857
1.22606988 0.29015919 0.07142857
1.15464131 0.36158776 0.21428571
1.22606988 0.29015919 0.21428571
1.15464131 0.50444490 -0.50000000
1.15464131 0.50444490 -0.35714286
1.15464131 0.50444490 -0.21428571
1.15464131 0.50444490 -0.07142857
1.15464131 0.50444490 0.07142857
1.15464131 0.50444490 0.21428571
1.15464131 0.64730205 -0.21428571
1.15464131 0.64730205 -0.07142857
1.15464131 0.64730205 0.07142857
1.15464131 0.64730205 0.21428571
1.29749845 -0.49555510 0.07142857
1.29749845 -0.35269795 -0.21428571
1.29749845 -0.35269795 -0.07142857
1.29749845 -0.35269795 0.07142857
1.29749845 -0.20984081 -0.21428571
1.29749845 -0.20984081 -0.07142857
1.29749845 -0.20984081 0.07142857
1.29749845 -0.06698367 -0.35714286
1.29749845 -0.06698367 -0.21428571
1.29749845 -0.06698367 -0.07142857
1.29749845 -0.06698367 0.07142857
1.29749845 -0.06698367 0.21428571
1.29749845 0.07587348 -0.35714286
1.29749845 0.07587348 -0.21428571
1.29749845 0.07587348 -0.07142857
1.29749845 0.07587348 0.07142857
1.29749845 0.07587348 0.21428571
1.29749845 0.21873062 -0.21428571
1.29749845 0.21873062 -0.07142857
1.29749845 0.21873062 0.07142857
1.29749845 0.21873062 0.21428571
3 2 1 0
3 4 3 0
3 0 3 2
3 6 5 4
3 4 5 3
3 8 7 6
3 6 7 5
3 10 9 8
3 8 9 7
3 10 11 9
3 0 1 12
3 12 1 13
3 0 14 4
3 0 12 14
3 4 15 6
3 4 14 15
3 6 16 8
3 6 15 16
3 8 17 10
3 8 16 17
3 11 10 18
3 10 19 18
3 10 17 19
3 19 20 18
3 12 13 21
3 21 13 22
3 12 23 14
3 12 21 23
3 14 24 15
3 14 23 24
3 15 25 16
3 15 24 25
3 16 26 17
3 16 25 26
3 17 27 19
3 17 26 27
3 20 19 28
3 28 19 27
3 21 22 29
3 29 22 30
3 21 31 23
3 21 29 31
3 23 32 24
3 23 31 32
3 24 33 25
3 24 32 33
3 25 34 26
3 25 33 34
3 26 35 27
3 26 34 35
3 28 27 36
3 36 27 35
3 29 30 37
3 37 30 38
3 29 39 31
3 29 37 39
3 31 40 32
3 31 39 40
3 32 41 33
3 32 40 41
3 33 42 34
3 33 41 42
3 34 43 35
3 34 42 43
3 36 35 44
3 44 35 43
3 37 38 45
3 45 38 46
3 37 47 39
3 37 45 47
3 39 48 40
3 39 47 48
3 40 49 41
3 40 48 49
3 41 50 42
3 41 49 50
3 52 43 51
3 43 50 51
3 43 42 50
3 43 52 44
3 46 53 45
3 45 53 47
3 47 53 54
3 47 54 48
3 48 54 55
3 48 55 49
3 49 55 56
3 49 56 50
3 50 56 57
3 50 57 51
3 60 59 58
3 62 61 58
3 58 61 60
3 64 63 62
3 62 63 61
3 66 65 64
3 64 65 63
3 68 67 66
3 66 67 65
3 70 69 68
3 68 69 67
3 70 71 69
3 74 73 72
3 74 72 59
3 72 58 59
3 72 75 58
3 58 76 62
3 58 75 76
3 62 77 64
3 62 76 77
3 64 78 66
3 64 77 78
3 66 79 68
3 66 78 79
3 68 80 70
3 68 79 80
3 71 70 81
3 70 82 81
3 70 80 82
3 82 83 81
3 72 73 84
3 84 73 85
3 84 1 2
3 75 84 2
3 72 84 75
3 75 2 3
3 75 3 76
3 76 3 5
3 76 5 77
3 77 5 7
3 77 7 78
3 78 7 9
3 78 9 79
3 79 9 11
3 86 79 11
3 80 79 86
3 80 87 82
3 80 86 87
3 83 82 88
3 88 82 87
3 91 90 89
3 91 89 85
3 89 84 85
3 89 92 84
3 92 13 1
3 92 1 84
3 18 86 11
3 86 18 20
3 93 86 20
3 87 86 93
3 88 87 94
3 87 95 94
3 87 93 95
3 95 96 94
3 89 90 97
3 97 90 98
3 89 99 92
3 89 97 99
3 99 22 13
3 99 13 92
3 28 100 93
3 28 93 20
3 93 101 95
3 93 100 101
3 96 95 102
3 102 95 101
3 97 98 103
3 103 98 104
3 97 105 99
3 97 103 105
3 105 30 22
3 105 22 99
3 36 106 100
3 36 100 28
3 100 107 101
3 100 106 107
3 102 101 108
3 108 101 107
3 103 104 109
3 109 104 110
3 103 111 105
3 103 109 111
3 111 38 30
3 111 30 105
3 44 112 106
3 44 106 36
3 114 107 113
3 107 112 113
3 107 106 112
3 107 114 108
3 109 110 115
3 115 110 116
3 109 117 111
3 109 115 117
3 117 46 38
3 117 38 111
3 51 118 52
3 112 44 52
3 118 112 52
3 119 112 118
3 113 112 120
3 120 112 119
3 116 121 115
3 115 121 117
3 117 121 122
3 122 124 123
3 122 123 53
3 117 122 53
3 46 117 53
3 125 54 53
3 125 53 123
3 126 55 54
3 126 54 125
3 127 56 55
3 127 55 126
3 128 57 56
3 128 56 127
3 118 51 57
3 128 118 57
3 129 118 128
3 131 119 130
3 119 129 130
3 119 118 129
3 119 131 120
3 124 132 123
3 134 133 132
3 133 123 132
3 133 125 123
3 125 135 126
3 125 133 135
3 126 136 127
3 126 135 136
3 127 137 128
3 127 136 137
3 139 129 138
3 129 137 138
3 129 128 137
3 129 139 130
3 134 140 133
3 133 140 135
3 135 140 141
3 135 141 136
3 136 141 142
3 136 142 137
3 137 142 143
3 137 143 138
3 146 145 144
3 148 147 144
3 144 147 146
3 150 149 148
3 148 149 147
3 152 151 150
3 150 151 149
3 154 153 152
3 152 153 151
3 156 155 154
3 154 155 153
3 156 157 155
3 160 159 158
3 160 158 145
3 145 158 144
3 158 59 144
3 59 60 144
3 144 60 61
3 144 61 148
3 148 61 63
3 148 63 150
3 150 63 65
3 150 65 152
3 152 65 67
3 152 67 154
3 154 67 69
3 154 69 156
3 162 161 71
3 71 161 69
3 161 157 69
3 157 156 69
3 162 163 161
3 166 165 164
3 166 164 159
3 159 164 158
3 164 73 158
3 73 74 158
3 158 74 59
3 81 162 71
3 168 167 83
3 83 167 81
3 167 163 81
3 163 162 81
3 168 169 167
3 164 165 170
3 170 165 171
3 170 85 73
3 170 73 164
3 88 172 168
3 88 168 83
3 169 168 173
3 173 168 172
3 176 175 174
3 176 174 171
3 171 174 170
3 174 90 170
3 90 91 170
3 170 91 85
3 94 172 88
3 178 177 96
3 96 177 94
3 177 173 94
3 173 172 94
3 178 179 177
3 174 175 180
3 180 175 181
3 180 98 90
3 180 90 174
3 102 182 178
3 102 178 96
3 179 178 183
3 183 178 182
3 180 181 184
3 184 181 185
3 184 104 98
3 184 98 180
3 108 186 182
3 108 182 102
3 183 182 187
3 187 182 186
3 184 185 188
3 188 185 189
3 188 110 104
3 188 104 184
3 113 190 114
3 186 108 114
3 190 186 114
3 191 186 190
3 187 186 192
3 192 186 191
3 188 189 193
3 193 189 194
3 193 116 110
3 193 110 188
3 120 195 190
3 120 190 113
3 197 191 196
3 191 195 196
3 191 190 195
3 191 197 192
3 194 198 193
3 198 200 199
3 198 199 121
3 193 198 121
3 116 193 121
3 201 122 121
3 201 121 199
3 201 124 122
3 130 202 131
3 195 120 131
3 202 195 131
3 203 195 202
3 196 195 204
3 204 195 203
3 200 205 199
3 207 206 205
3 206 199 205
3 206 201 199
3 208 132 124
3 201 208 124
3 206 208 201
3 208 134 132
3 138 209 139
3 202 130 139
3 209 202 139
3 210 202 209
3 212 203 211
3 203 210 211
3 203 202 210
3 203 212 204
3 207 213 206
3 215 214 213
3 214 206 213
3 214 208 206
3 216 140 134
3 208 216 134
3 214 216 208
3 217 141 140
3 217 140 216
3 218 142 141
3 218 141 217
3 219 143 142
3 219 142 218
3 209 138 143
3 219 209 143
3 220 209 219
3 222 210 221
3 210 220 221
3 210 209 220
3 210 222 211
3 215 223 214
3 214 223 216
3 216 223 224
3 216 224 217
3 217 224 225
3 217 225 218
3 218 225 226
3 218 226 219
3 219 226 227
3 219 227 220
3 220 227 228
3 220 228 221
3 231 230 229
3 233 232 229
3 229 232 231
3 235 234 233
3 233 234 232
3 237 236 235
3 235 236 234
3 239 238 237
3 237 238 236
3 239 240 238
3 243 242 241
3 245 244 241
3 241 244 243
3 244 245 230
3 230 245 229
3 245 145 229
3 145 146 229
3 229 146 147
3 229 147 233
3 233 147 149
3 233 149 235
3 235 149 151
3 235 151 237
3 237 151 153
3 237 153 239
3 246 240 239
3 153 246 239
3 155 246 153
3 248 247 157
3 247 155 157
3 247 246 155
3 248 249 247
3 241 242 250
3 250 242 251
3 250 159 160
3 245 250 160
3 241 250 245
3 245 160 145
3 161 248 157
3 253 252 163
3 163 252 161
3 252 249 161
3 249 248 161
3 253 254 252
3 257 256 255
3 257 255 251
3 251 255 250
3 255 165 250
3 165 166 250
3 250 166 159
3 167 253 163
3 259 258 169
3 169 258 167
3 258 254 167
3 254 253 167
3 259 260 258
3 255 256 261
3 261 256 262
3 261 171 165
3 261 165 255
3 173 263 259
3 173 259 169
3 260 259 264
3 264 259 263
3 261 262 176
3 262 175 176
3 262 265 175
3 261 176 171
3 177 263 173
3 177 179 263
3 179 264 263
3 179 266 264
3 265 181 175
3 267 181 265
3 183 266 179
3 183 268 266
3 267 185 181
3 269 185 267
3 187 268 183
3 187 270 268
3 269 189 185
3 271 189 269
3 192 270 187
3 192 272 270
3 271 194 189
3 273 194 271
3 196 274 197
3 274 275 197
3 275 192 197
3 275 272 192
3 198 194 276
3 194 277 276
3 194 273 277
3 276 200 198
3 204 278 274
3 204 274 196
3 275 274 279
3 279 274 278
3 277 280 276
3 280 282 281
3 280 281 205
3 276 280 205
3 200 276 205
3 281 207 205
3 211 283 212
3 283 284 212
3 212 284 204
3 284 285 204
3 285 278 204
3 278 285 279
3 282 286 281
3 286 288 287
3 286 287 213
3 281 286 213
3 207 281 213
3 287 215 213
3 221 289 222
3 289 290 222
3 222 290 211
3 290 291 211
3 291 283 211
3 283 291 284
3 288 292 287
3 292 294 293
3 292 293 223
3 287 292 223
3 215 287 223
3 295 224 223
3 295 223 293
3 296 225 224
3 296 224 295
3 297 226 225
3 297 225 296
3 298 227 226
3 298 226 297
3 227 298 299
3 300 227 299
3 228 227 300
3 221 228 289
3 228 301 289
3 228 300 301
3 289 301 290
3 294 302 293
3 293 302 295
3 295 302 303
3 295 303 296
3 296 303 304
3 296 304 297
3 297 304 305
3 297 305 298
3 298 305 306
3 298 306 299
3 309 308 307
3 311 310 307
3 307 310 309
3 313 312 311
3 311 312 310
3 315 314 313
3 313 314 312
3 315 316 314
3 319 318 317
3 230 231 317
3 231 319 317
3 231 320 319
3 232 307 308
3 320 232 308
3 231 232 320
3 307 232 234
3 307 234 311
3 311 234 236
3 311 236 313
3 313 236 238
3 313 238 315
3 322 321 240
3 240 321 238
3 321 316 238
3 316 315 238
3 324 323 322
3 322 323 321
3 324 325 323
3 327 326 243
3 243 326 242
3 244 317 318
3 327 244 318
3 243 244 327
3 317 244 230
3 246 322 240
3 322 246 247
3 322 247 324
3 329 328 249
3 249 328 247
3 328 325 247
3 325 324 247
3 329 330 328
3 333 332 331
3 326 333 331
3 251 326 331
3 242 326 251
3 252 329 249
3 335 334 254
3 254 334 252
3 334 330 252
3 330 329 252
3 335 336 334
3 331 332 257
3 332 256 257
3 332 337 256
3 331 257 251
3 258 335 254
3 258 260 335
3 260 336 335
3 260 338 336
3 341 340 339
3 337 341 339
3 262 337 339
3 256 337 262
3 264 343 342
3 338 264 342
3 260 264 338
3 343 344 342
3 339 340 345
3 345 340 346
3 345 265 262
3 345 262 339
3 266 347 343
3 266 343 264
3 344 343 348
3 348 343 347
3 345 346 349
3 349 346 350
3 349 267 265
3 349 265 345
3 268 351 347
3 268 347 266
3 348 347 352
3 352 347 351
3 349 350 353
3 353 350 354
3 353 269 267
3 353 267 349
3 270 355 351
3 270 351 268
3 352 351 356
3 356 351 355
3 353 354 357
3 357 354 358
3 357 271 269
3 357 269 353
3 272 359 355
3 272 355 270
3 356 355 360
3 360 355 359
3 357 358 361
3 361 358 362
3 361 273 271
3 361 271 357
3 275 363 359
3 275 359 272
3 360 359 364
3 364 359 363
3 362 365 361
3 273 361 365
3 366 273 365
3 277 273 366
3 368 367 363
3 275 368 363
3 279 368 275
3 363 367 364
3 280 277 369
3 277 370 369
3 277 366 370
3 369 282 280
3 284 371 285
3 371 372 285
3 372 279 285
3 372 368 279
3 370 373 369
3 373 375 374
3 373 374 286
3 369 373 286
3 282 369 286
3 374 288 286
3 377 376 291
3 377 291 290
3 284 291 371
3 291 378 371
3 291 376 378
3 371 378 372
3 375 379 374
3 379 381 380
3 379 380 292
3 374 379 292
3 288 374 292
3 380 294 292
3 299 382 300
3 383 301 300
3 383 300 382
3 383 384 301
3 384 290 301
3 384 377 290
3 381 385 380
3 385 387 386
3 385 386 302
3 380 385 302
3 294 380 302
3 388 303 302
3 388 302 386
3 389 304 303
3 389 303 388
3 390 305 304
3 390 304 389
3 391 306 305
3 391 305 390
3 382 299 306
3 391 382 306
3 392 382 391
3 394 383 393
3 383 392 393
3 383 382 392
3 383 394 384
3 387 395 386
3 386 395 388
3 388 395 396
3 388 396 389
3 389 396 397
3 389 397 390
3 390 397 398
3 390 398 391
3 391 398 399
3 391 399 392
3 392 399 400
3 392 400 393
3 403 402 401
3 405 404 401
3 401 404 403
3 308 309 405
3 309 404 405
3 309 406 404
3 407 309 310
3 407 406 309
3 408 310 312
3 408 407 310
3 409 312 314
3 409 408 312
3 314 316 409
3 409 316 410
3 413 412 411
3 413 411 402
3 402 411 401
3 411 318 401
3 318 319 401
3 401 319 320
3 401 320 405
3 405 320 308
3 414 410 316
3 414 316 321
3 415 321 323
3 415 414 321
3 417 416 325
3 416 323 325
3 416 415 323
3 417 418 416
3 421 420 419
3 421 419 412
3 412 419 411
3 419 326 411
3 326 327 411
3 411 327 318
3 328 417 325
3 423 422 330
3 330 422 328
3 422 418 328
3 418 417 328
3 423 424 422
3 419 420 333
3 420 332 333
3 420 425 332
3 419 333 326
3 334 423 330
3 334 336 423
3 336 424 423
3 336 426 424
3 429 428 427
3 425 429 427
3 337 425 427
3 332 425 337
3 338 431 430
3 426 338 430
3 336 338 426
3 431 432 430
3 427 428 341
3 428 340 341
3 428 433 340
3 427 341 337
3 342 431 338
3 342 344 431
3 344 432 431
3 344 434 432
3 433 346 340
3 435 346 433
3 348 434 344
3 348 436 434
3 435 350 346
3 437 350 435
3 352 436 348
3 352 438 436
3 437 354 350
3 439 354 437
3 356 438 352
3 356 440 438
3 439 358 354
3 441 358 439
3 360 440 356
3 360 442 440
3 441 362 358
3 443 362 441
3 364 442 360
3 364 444 442
3 365 362 445
3 362 446 445
3 362 443 446
3 445 366 365
3 448 447 367
3 448 367 368
3 364 367 444
3 444 367 447
3 446 449 445
3 366 445 449
3 450 366 449
3 370 366 450
3 372 448 368
3 372 451 448
3 373 370 452
3 370 453 452
3 370 450 453
3 452 375 373
3 455 454 376
3 455 376 377
3 376 456 378
3 454 456 376
3 372 378 451
3 451 378 456
3 453 457 452
3 457 459 458
3 457 458 379
3 452 457 379
3 375 452 379
3 458 381 379
3 384 455 377
3 384 460 455
3 459 461 458
3 461 463 462
3 461 462 385
3 458 461 385
3 381 458 385
3 462 387 385
3 393 464 394
3 464 465 394
3 465 384 394
3 465 460 384
3 463 466 462
3 462 466 387
3 466 395 387
3 466 467 395
3 395 468 396
3 467 468 395
3 396 469 397
3 468 469 396
3 397 470 398
3 469 470 397
3 398 471 399
3 470 471 398
3 399 472 400
3 471 472 399
3 393 400 464
3 400 473 464
3 400 472 473
3 464 473 465
3 476 475 474
3 478 477 474
3 474 477 476
3 480 479 478
3 478 479 477
3 482 481 480
3 480 481 479
3 484 483 482
3 482 483 481
3 484 485 483
3 487 486 403
3 403 486 402
3 404 474 475
3 487 404 475
3 403 404 487
3 474 404 406
3 474 406 478
3 478 406 407
3 478 407 480
3 480 407 408
3 480 408 482
3 482 408 409
3 482 409 484
3 489 488 410
3 410 488 409
3 488 485 409
3 485 484 409
3 491 490 489
3 489 490 488
3 491 492 490
3 495 494 493
3 412 413 493
3 413 495 493
3 413 496 495
3 413 402 486
3 413 486 496
3 414 489 410
3 489 414 415
3 489 415 491
3 497 492 491
3 415 497 491
3 416 497 415
3 499 498 418
3 498 416 418
3 498 497 416
3 499 500 498
3 493 494 421
3 494 420 421
3 494 501 420
3 493 421 412
3 422 499 418
3 422 424 499
3 424 500 499
3 424 502 500
3 505 504 503
3 501 505 503
3 425 501 503
3 420 501 425
3 426 507 506
3 502 426 506
3 424 426 502
3 507 508 506
3 503 504 429
3 504 428 429
3 504 509 428
3 503 429 425
3 430 507 426
3 430 432 507
3 432 508 507
3 432 510 508
3 509 433 428
3 511 433 509
3 434 510 432
3 434 512 510
3 511 435 433
3 513 435 511
3 436 512 434
3 436 514 512
3 513 437 435
3 515 437 513
3 438 514 436
3 438 516 514
3 515 439 437
3 517 439 515
3 440 516 438
3 440 518 516
3 517 441 439
3 519 441 517
3 442 518 440
3 442 520 518
3 519 443 441
3 521 443 519
3 444 520 442
3 444 522 520
3 521 446 443
3 523 446 521
3 448 524 447
3 524 525 447
3 525 444 447
3 525 522 444
3 449 446 526
3 446 527 526
3 446 523 527
3 526 450 449
3 451 528 524
3 451 524 448
3 525 524 529
3 529 524 528
3 527 530 526
3 450 526 530
3 531 450 530
3 453 450 531
3 455 532 454
3 454 532 533
3 534 454 533
3 456 454 534
3 451 456 528
3 456 535 528
3 456 534 535
3 528 535 529
3 457 453 536
3 453 537 536
3 453 531 537
3 536 459 457
3 460 538 532
3 460 532 455
3 533 532 539
3 539 532 538
3 537 540 536
3 536 540 459
3 540 461 459
3 540 541 461
3 463 461 541
3 463 541 542
3 544 543 538
3 460 544 538
3 465 544 460
3 538 543 539
3 542 545 463
3 463 545 466
3 545 547 546
3 467 545 546
3 466 545 467
3 548 468 467
3 548 467 546
3 549 469 468
3 549 468 548
3 550 470 469
3 550 469 549
3 551 471 470
3 551 470 550
3 471 551 552
3 553 471 552
3 472 471 553
3 472 554 473
3 553 554 472
3 465 473 544
3 544 473 554
3 547 555 546
3 546 555 548
3 548 555 556
3 548 556 549
3 549 556 557
3 549 557 550
3 550 557 558
3 550 558 551
3 551 558 559
3 551 559 552
3 561 560 476
3 476 560 475
3 562 476 477
3 562 561 476
3 563 477 479
3 563 562 477
3 564 479 481
3 564 563 479
3 565 481 483
3 565 564 481
3 483 485 565
3 565 485 566
3 568 567 487
3 487 567 486
3 487 475 560
3 487 560 568
3 569 566 485
3 569 485 488
3 570 488 490
3 570 569 488
3 572 571 492
3 571 490 492
3 571 570 490
3 572 573 571
3 575 574 495
3 495 574 494
3 576 495 496
3 576 575 495
3 496 486 567
3 496 567 576
3 497 572 492
3 577 573 572
3 497 577 572
3 498 577 497
3 498 500 577
3 577 500 578
3 574 501 494
3 579 501 574
3 502 578 500
3 502 580 578
3 582 581 505
3 505 581 504
3 505 501 579
3 505 579 582
3 583 580 502
3 583 502 506
3 506 508 583
3 583 508 584
3 581 509 504
3 585 509 581
3 510 584 508
3 510 586 584
3 585 511 509
3 587 511 585
3 512 586 510
3 512 588 586
3 587 513 511
3 589 513 587
3 514 588 512
3 514 590 588
3 589 515 513
3 591 515 589
3 516 590 514
3 516 592 590
3 591 517 515
3 593 517 591
3 518 592 516
3 518 594 592
3 593 519 517
3 595 519 593
3 520 594 518
3 520 596 594
3 595 521 519
3 597 521 595
3 522 596 520
3 522 598 596
3 597 523 521
3 599 523 597
3 525 598 522
3 525 600 598
3 599 527 523
3 601 527 599
3 529 600 525
3 529 602 600
3 530 527 603
3 527 604 603
3 527 601 604
3 603 531 530
3 533 605 534
3 534 605 606
3 607 534 606
3 535 534 607
3 529 535 602
3 602 535 607
3 604 608 603
3 531 603 608
3 609 531 608
3 537 531 609
3 612 611 610
3 611 613 605
3 539 611 605
3 533 539 605
3 610 611 539
3 605 613 606
3 609 614 537
3 537 614 540
3 614 616 615
3 541 614 615
3 540 614 541
3 615 542 541
3 612 610 543
3 544 612 543
3 617 612 544
3 543 610 539
3 616 618 615
3 615 618 542
3 618 545 542
3 618 619 545
3 547 545 619
3 547 619 620
3 622 621 553
3 622 553 552
3 553 623 554
3 621 623 553
3 544 554 617
3 617 554 623
3 620 624 547
3 547 624 555
3 555 625 556
3 624 625 555
3 556 626 557
3 625 626 556
3 557 627 558
3 626 627 557
3 558 628 559
3 627 628 558
3 552 559 622
3 622 559 628
3 630 629 561
3 561 629 560
3 631 561 562
3 631 630 561
3 632 562 563
3 632 631 562
3 633 563 564
3 633 632 563
3 634 564 565
3 634 633 564
3 565 566 634
3 634 566 635
3 638 637 636
3 567 568 636
3 568 638 636
3 568 639 638
3 568 560 629
3 568 629 639
3 640 635 566
3 640 566 569
3 641 569 570
3 641 640 569
3 642 570 571
3 642 641 570
3 571 573 642
3 642 573 643
3 645 644 575
3 575 644 574
3 576 636 637
3 645 576 637
3 575 576 645
3 636 576 567
3 646 643 573
3 646 573 577
3 577 578 646
3 646 578 647
3 644 579 574
3 648 579 644
3 580 647 578
3 580 649 647
3 651 650 582
3 582 650 581
3 582 579 648
3 582 648 651
3 652 649 580
3 652 580 583
3 583 584 652
3 652 584 653
3 650 585 581
3 654 585 650
3 586 653 584
3 586 655 653
3 654 587 585
3 656 587 654
3 588 655 586
3 588 657 655
3 656 589 587
3 658 589 656
3 590 657 588
3 590 659 657
3 658 591 589
3 660 591 658
3 592 659 590
3 592 661 659
3 660 593 591
3 662 593 660
3 594 661 592
3 594 663 661
3 662 595 593
3 664 595 662
3 596 663 594
3 596 665 663
3 664 597 595
3 666 597 664
3 598 665 596
3 598 667 665
3 666 599 597
3 668 599 666
3 600 667 598
3 600 669 667
3 668 601 599
3 670 601 668
3 602 669 600
3 602 671 669
3 670 604 601
3 672 604 670
3 674 673 607
3 674 607 606
3 602 607 671
3 671 607 673
3 672 675 604
3 604 675 608
3 609 608 675
3 609 675 676
3 678 677 611
3 678 611 612
3 611 679 613
3 677 679 611
3 606 613 674
3 674 613 679
3 676 680 609
3 609 680 614
3 616 614 680
3 616 680 681
3 684 683 682
3 683 678 682
3 678 617 682
3 678 612 617
3 681 685 616
3 616 685 618
3 618 686 619
3 685 686 618
3 620 619 686
3 620 686 687
3 689 688 621
3 689 621 622
3 682 623 684
3 623 688 684
3 623 621 688
3 623 682 617
3 687 690 620
3 620 690 624
3 624 691 625
3 690 691 624
3 625 692 626
3 691 692 625
3 626 693 627
3 692 693 626
3 627 694 628
3 693 694 627
3 622 628 689
3 689 628 694
3 696 695 630
3 630 695 629
3 697 630 631
3 697 696 630
3 698 631 632
3 698 697 631
3 699 632 633
3 699 698 632
3 700 633 634
3 700 699 633
3 634 635 700
3 700 635 701
3 703 702 638
3 638 702 637
3 704 638 639
3 704 703 638
3 639 629 695
3 639 695 704
3 705 701 635
3 705 635 640
3 706 640 641
3 706 705 640
3 708 706 707
3 706 642 707
3 706 641 642
3 643 707 642
3 710 709 645
3 645 709 644
3 645 637 702
3 645 702 710
3 711 708 707
3 711 707 643
3 646 711 643
3 712 711 646
3 646 647 712
3 712 647 713
3 709 648 644
3 714 648 709
3 649 713 647
3 649 715 713
3 717 716 651
3 651 716 650
3 651 648 714
3 651 714 717
3 718 715 649
3 718 649 652
3 652 653 718
3 718 653 719
3 716 654 650
3 720 654 716
3 655 719 653
3 655 721 719
3 720 656 654
3 722 656 720
3 657 721 655
3 657 723 721
3 722 658 656
3 724 658 722
3 659 723 657
3 659 725 723
3 724 660 658
3 726 660 724
3 661 725 659
3 661 727 725
3 726 662 660
3 728 662 726
3 663 727 661
3 663 729 727
3 728 664 662
3 730 664 728
3 665 729 663
3 665 731 729
3 730 666 664
3 732 666 730
3 667 731 665
3 667 733 731
3 732 668 666
3 734 668 732
3 669 733 667
3 669 735 733
3 734 670 668
3 736 670 734
3 671 735 669
3 671 737 735
3 736 672 670
3 738 672 736
3 740 739 673
3 740 673 674
3 671 673 737
3 737 673 739
3 738 741 672
3 672 741 675
3 676 675 741
3 676 741 742
3 744 743 677
3 744 677 678
3 677 745 679
3 743 745 677
3 674 679 740
3 740 679 745
3 742 746 676
3 676 746 680
3 681 680 746
3 681 746 747
3 749 748 683
3 749 683 684
3 678 683 744
3 744 683 748
3 747 750 681
3 681 750 685
3 685 751 686
3 750 751 685
3 687 686 751
3 687 751 752
3 689 753 688
3 753 754 688
3 754 684 688
3 754 749 684
3 752 755 687
3 687 755 690
3 690 756 691
3 755 756 690
3 691 757 692
3 756 757 691
3 692 758 693
3 757 758 692
3 693 759 694
3 758 759 693
3 689 694 753
3 694 760 753
3 694 759 760
3 753 760 754
3 762 761 696
3 696 761 695
3 763 696 697
3 763 762 696
3 764 697 698
3 764 763 697
3 765 698 699
3 765 764 698
3 767 765 766
3 765 700 766
3 765 699 700
3 701 766 700
3 768 702 703
3 768 703 769
3 703 770 769
3 703 704 770
3 704 695 761
3 704 761 770
3 771 767 766
3 771 766 701
3 705 771 701
3 772 771 705
3 773 705 706
3 773 772 705
3 706 708 773
3 773 708 774
3 776 775 710
3 710 775 709
3 710 702 768
3 777 710 768
3 776 710 777
3 777 768 769
3 778 774 708
3 778 708 711
3 779 711 712
3 779 778 711
3 712 713 779
3 779 713 780
3 775 714 709
3 781 714 775
3 715 780 713
3 715 782 780
3 784 783 717
3 717 783 716
3 717 714 781
3 717 781 784
3 785 782 715
3 785 715 718
3 718 719 785
3 785 719 786
3 783 720 716
3 787 720 783
3 721 786 719
3 721 788 786
3 787 722 720
3 789 722 787
3 723 788 721
3 723 790 788
3 789 724 722
3 791 724 789
3 725 790 723
3 725 792 790
3 791 726 724
3 793 726 791
3 727 792 725
3 727 794 792
3 793 728 726
3 795 728 793
3 729 794 727
3 729 796 794
3 795 730 728
3 797 730 795
3 731 796 729
3 731 798 796
3 797 732 730
3 799 732 797
3 733 798 731
3 733 800 798
3 799 734 732
3 801 734 799
3 735 800 733
3 735 802 800
3 801 736 734
3 803 736 801
3 737 802 735
3 737 804 802
3 806 738 805
3 738 803 805
3 738 736 803
3 807 806 805
3 809 808 739
3 809 739 740
3 737 739 804
3 804 739 808
3 806 741 738
3 742 741 806
3 807 742 806
3 810 742 807
3 812 811 743
3 812 743 744
3 743 813 745
3 811 813 743
3 740 745 809
3 809 745 813
3 810 814 742
3 742 814 746
3 747 746 814
3 747 814 815
3 818 817 816
3 748 749 816
3 817 748 816
3 819 748 817
3 744 748 812
3 812 748 819
3 815 820 747
3 747 820 750
3 750 821 751
3 820 821 750
3 752 751 821
3 752 821 822
3 818 816 823
3 818 823 824
3 754 823 749
3 749 823 816
3 822 825 752
3 752 825 755
3 755 826 756
3 825 826 755
3 756 827 757
3 826 827 756
3 757 828 758
3 827 828 757
3 758 829 759
3 828 829 758
3 823 760 824
3 760 829 824
3 760 759 829
3 760 823 754
3 830 761 762
3 830 762 831
3 762 832 831
3 762 763 832
3 833 763 764
3 833 832 763
3 834 764 765
3 834 833 764
3 765 767 834
3 834 767 835
3 837 836 770
3 770 836 769
3 770 761 830
3 838 770 830
3 837 770 838
3 838 830 831
3 839 835 767
3 839 767 771
3 840 771 772
3 840 839 771
3 841 772 773
3 841 840 772
3 773 774 841
3 841 774 842
3 843 775 776
3 843 776 844
3 776 845 844
3 776 777 845
3 777 769 836
3 777 836 845
3 846 842 774
3 846 774 778
3 848 846 847
3 846 779 847
3 846 778 779
3 780 847 779
3 850 849 843
3 849 775 843
3 849 781 775
3 850 843 844
3 851 848 847
3 847 780 851
3 780 852 851
3 780 782 852
3 854 853 784
3 784 853 783
3 784 781 849
3 784 849 854
3 855 852 782
3 855 782 785
3 785 786 855
3 855 786 856
3 853 787 783
3 857 787 853
3 788 856 786
3 788 858 856
3 857 789 787
3 859 789 857
3 790 858 788
3 790 860 858
3 859 791 789
3 861 791 859
3 792 860 790
3 792 862 860
3 861 793 791
3 863 793 861
3 794 862 792
3 794 864 862
3 863 795 793
3 865 795 863
3 796 864 794
3 796 866 864
3 865 797 795
3 867 797 865
3 798 866 796
3 798 868 866
3 867 799 797
3 869 799 867
3 800 868 798
3 800 870 868
3 869 801 799
3 871 801 869
3 802 870 800
3 802 872 870
3 871 803 801
3 873 803 871
3 804 872 802
3 804 874 872
3 873 875 803
3 803 875 805
3 807 805 875
3 807 875 876
3 878 877 808
3 878 808 809
3 804 808 874
3 874 808 877
3 876 810 807
3 879 810 876
3 881 880 811
3 881 811 812
3 811 882 813
3 880 882 811
3 809 813 878
3 878 813 882
3 879 883 810
3 810 883 814
3 885 884 815
3 814 885 815
3 883 885 814
3 886 884 885
3 888 887 817
3 888 817 818
3 817 889 819
3 887 889 817
3 812 819 881
3 881 819 889
3 884 820 815
3 886 890 884
3 890 820 884
3 890 821 820
3 892 891 822
3 821 892 822
3 890 892 821
3 893 891 892
3 824 888 818
3 824 894 888
3 891 825 822
3 893 895 891
3 895 825 891
3 895 826 825
3 826 896 827
3 895 896 826
3 827 897 828
3 896 897 827
3 828 898 829
3 897 898 828
3 824 829 894
3 894 829 898
3 899 831 832
3 833 900 832
3 832 900 899
3 834 901 833
3 833 901 900
3 835 901 834
3 903 902 837
3 837 902 836
3 904 837 838
3 904 903 837
3 838 831 899
3 905 838 899
3 904 838 905
3 905 899 900
3 905 900 906
3 906 900 901
3 906 901 907
3 907 901 835
3 839 907 835
3 908 907 839
3 909 839 840
3 909 908 839
3 911 909 910
3 909 841 910
3 909 840 841
3 842 910 841
3 913 912 845
3 845 912 844
3 845 836 902
3 845 902 913
3 914 911 910
3 914 910 842
3 846 914 842
3 915 914 846
3 846 848 915
3 915 848 916
3 918 917 850
3 850 917 849
3 850 844 912
3 850 912 918
3 919 916 848
3 919 848 851
3 851 852 919
3 919 852 920
3 921 853 854
3 922 921 854
3 849 922 854
3 917 922 849
3 852 855 923
3 924 852 923
3 920 852 924
3 856 923 855
3 926 925 921
3 925 853 921
3 925 857 853
3 926 921 922
3 927 924 923
3 923 856 927
3 856 928 927
3 856 858 928
3 925 859 857
3 929 859 925
3 860 928 858
3 860 930 928
3 929 861 859
3 931 861 929
3 862 930 860
3 862 932 930
3 931 863 861
3 933 863 931
3 864 932 862
3 864 934 932
3 933 865 863
3 935 865 933
3 866 934 864
3 866 936 934
3 935 867 865
3 937 867 935
3 868 936 866
3 868 938 936
3 937 869 867
3 939 869 937
3 870 938 868
3 870 940 938
3 939 871 869
3 941 871 939
3 872 940 870
3 872 942 940
3 941 873 871
3 943 873 941
3 874 942 872
3 874 944 942
3 943 945 873
3 873 945 875
3 876 875 945
3 876 945 946
3 949 948 947
3 877 878 947
3 948 877 947
3 950 877 948
3 874 877 944
3 944 877 950
3 952 879 951
3 879 946 951
3 879 876 946
3 953 952 951
3 956 955 954
3 958 957 954
3 958 954 955
3 880 881 957
3 958 880 957
3 959 880 958
3 947 882 949
3 882 959 949
3 882 880 959
3 882 947 878
3 952 883 879
3 953 960 952
3 960 883 952
3 960 885 883
3 962 961 886
3 885 962 886
3 960 962 885
3 963 961 962
3 956 954 887
3 888 956 887
3 964 956 888
3 887 954 889
3 889 954 957
3 889 957 881
3 961 890 886
3 963 965 961
3 965 890 961
3 965 892 890
3 967 966 893
3 892 967 893
3 965 967 892
3 969 968 966
3 969 966 967
3 971 970 968
3 971 968 969
3 973 972 970
3 973 970 971
3 973 964 972
3 964 894 972
3 964 888 894
3 966 895 893
3 895 966 896
3 896 966 968
3 896 968 897
3 897 968 970
3 897 970 898
3 898 970 972
3 898 972 894
3 974 902 903
3 974 903 975
3 903 976 975
3 903 904 976
3 977 904 905
3 977 976 904
3 978 905 906
3 978 977 905
3 979 906 907
3 979 978 906
3 980 907 908
3 980 979 907
3 982 980 981
3 980 909 981
3 980 908 909
3 911 981 909
3 983 912 913
3 984 983 913
3 984 913 902
3 985 984 902
3 974 985 902
3 985 974 975
3 986 982 981
3 986 981 911
3 914 986 911
3 987 986 914
3 989 987 988
3 987 915 988
3 987 914 915
3 916 988 915
3 990 917 918
3 991 990 918
3 991 918 912
3 992 991 912
3 983 992 912
3 992 983 984
3 993 989 988
3 995 993 994
3 994 993 919
3 993 988 919
3 988 916 919
3 920 994 919
3 997 996 990
3 996 917 990
3 996 922 917
3 997 990 991
3 998 995 994
3 994 920 998
3 920 999 998
3 920 924 999
3 1000 925 926
3 1001 1000 926
3 922 1001 926
3 996 1001 922
3 924 927 1002
3 1003 924 1002
3 999 924 1003
3 928 1002 927
3 1005 1004 1000
3 1004 925 1000
3 1004 929 925
3 1005 1000 1001
3 1006 1003 1002
3 1002 928 1006
3 928 1007 1006
3 928 930 1007
3 1004 931 929
3 1008 931 1004
3 932 1007 930
3 932 1009 1007
3 1008 933 931
3 1010 933 1008
3 934 1009 932
3 934 1011 1009
3 1010 935 933
3 1012 935 1010
3 936 1011 934
3 936 1013 1011
3 1012 937 935
3 1014 937 1012
3 938 1013 936
3 938 1015 1013
3 1014 939 937
3 1016 939 1014
3 940 1015 938
3 940 1017 1015
3 1019 941 1018
3 941 1016 1018
3 941 939 1016
3 1020 1019 1018
3 942 1017 940
3 942 1021 1017
3 1022 943 1019
3 1019 943 941
3 1019 1020 1023
3 1019 1023 1022
3 944 1021 942
3 944 1024 1021
3 1022 945 943
3 946 945 1022
3 1023 946 1022
3 1025 946 1023
3 1028 1027 1026
3 1030 1029 1026
3 1030 1026 1027
3 948 949 1029
3 1030 948 1029
3 1031 948 1030
3 948 1032 950
3 1031 1032 948
3 944 950 1024
3 1024 950 1032
3 1025 1033 946
3 946 1033 951
3 1035 1034 953
3 951 1035 953
3 1033 1035 951
3 1036 1034 1035
3 1038 1037 955
3 1038 955 956
3 1026 958 1028
3 958 1037 1028
3 958 955 1037
3 958 1026 959
3 959 1026 1029
3 959 1029 949
3 1034 960 953
3 1036 1039 1034
3 1039 960 1034
3 1039 962 960
3 1041 1040 963
3 962 1041 963
3 1039 1041 962
3 1042 1040 1041
3 964 1038 956
3 964 1043 1038
3 1040 965 963
3 1042 1044 1040
3 1044 965 1040
3 1044 967 965
3 967 1045 969
3 1044 1045 967
3 969 1046 971
3 1045 1046 969
3 971 1047 973
3 1046 1047 971
3 964 973 1043
3 1043 973 1047
3 1048 975 976
3 977 1049 976
3 976 1049 1048
3 978 1050 977
3 977 1050 1049
3 979 1051 978
3 978 1051 1050
3 980 1052 979
3 979 1052 1051
3 982 1052 980
3 1053 984 985
3 1054 1053 985
3 1054 985 975
3 1055 1054 975
3 1048 1055 975
3 1055 1048 1049
3 1055 1049 1056
3 1056 1049 1050
3 1056 1050 1057
3 1057 1050 1051
3 1057 1051 1058
3 1058 1051 1052
3 1058 1052 1059
3 1061 1059 1060
3 1060 1059 986
3 1059 1052 986
3 1052 982 986
3 987 1062 986
3 986 1062 1060
3 989 1062 987
3 1063 991 992
3 1064 1063 992
3 1064 992 984
3 1065 1064 984
3 1053 1065 984
3 1065 1053 1054
3 1061 1060 1066
3 1061 1066 1067
3 1068 1060 1062
3 1066 1060 1068
3 993 1069 989
3 1069 1062 989
3 1069 1068 1062
3 995 1069 993
3 1070 996 997
3 1071 1070 997
3 1071 997 991
3 1072 1071 991
3 1063 1072 991
3 1072 1063 1064
3 1073 1067 1066
3 1073 1066 1068
3 1073 1068 1074
3 1074 1068 1069
3 1074 1069 1075
3 1077 1075 1076
3 1076 1075 998
3 1075 1069 998
3 1069 995 998
3 999 1076 998
3 1079 1078 1070
3 1078 996 1070
3 1078 1001 996
3 1079 1070 1071
3 1080 1077 1076
3 1076 999 1080
3 999 1081 1080
3 999 1003 1081
3 1082 1004 1005
3 1083 1082 1005
3 1001 1083 1005
3 1078 1083 1001
3 1003 1006 1084
3 1085 1003 1084
3 1081 1003 1085
3 1007 1084 1006
3 1086 1008 1082
3 1082 1008 1004
3 1082 1083 1087
3 1082 1087 1086
3 1085 1084 1088
3 1085 1088 1089
3 1009 1088 1007
3 1007 1088 1084
3 1090 1010 1086
3 1086 1010 1008
3 1086 1087 1091
3 1086 1091 1090
3 1089 1088 1092
3 1089 1092 1093
3 1011 1092 1009
3 1009 1092 1088
3 1094 1012 1090
3 1090 1012 1010
3 1090 1091 1095
3 1090 1095 1094
3 1093 1092 1096
3 1093 1096 1097
3 1013 1096 1011
3 1011 1096 1092
3 1098 1014 1094
3 1094 1014 1012
3 1094 1095 1099
3 1094 1099 1098
3 1097 1096 1100
3 1097 1100 1101
3 1015 1100 1013
3 1013 1100 1096
3 1102 1016 1098
3 1098 1016 1014
3 1098 1099 1103
3 1098 1103 1102
3 1101 1100 1104
3 1101 1104 1105
3 1017 1104 1015
3 1015 1104 1100
3 1102 1018 1016
3 1020 1018 1102
3 1103 1020 1102
3 1106 1020 1103
3 1105 1104 1107
3 1105 1107 1108
3 1021 1107 1017
3 1017 1107 1104
3 1106 1023 1020
3 1109 1023 1106
3 1112 1111 1110
3 1114 1113 1110
3 1114 1110 1111
3 1116 1115 1113
3 1116 1113 1114
3 1115 1116 1108
3 1107 1115 1108
3 1117 1115 1107
3 1024 1117 1021
3 1021 1117 1107
3 1119 1025 1118
3 1025 1109 1118
3 1025 1023 1109
3 1121 1120 1119
3 1121 1119 1118
3 1122 1120 1121
3 1125 1124 1123
3 1123 1124 1112
3 1123 1112 1110
3 1028 1123 1110
3 1027 1028 1110
3 1027 1110 1030
3 1030 1110 1113
3 1030 1113 1031
3 1031 1113 1115
3 1031 1115 1032
3 1032 1115 1117
3 1032 1117 1024
3 1119 1033 1025
3 1033 1119 1035
3 1035 1119 1120
3 1127 1126 1036
3 1127 1036 1035
3 1122 1127 1035
3 1120 1122 1035
3 1128 1126 1127
3 1131 1130 1129
3 1129 1130 1125
3 1129 1125 1123
3 1038 1129 1123
3 1037 1038 1123
3 1037 1123 1028
3 1126 1039 1036
3 1128 1132 1126
3 1132 1039 1126
3 1132 1041 1039
3 1134 1133 1042
3 1041 1134 1042
3 1132 1134 1041
3 1136 1135 1133
3 1136 1133 1134
3 1138 1137 1135
3 1138 1135 1136
3 1137 1138 1131
3 1129 1137 1131
3 1139 1137 1129
3 1043 1139 1038
3 1038 1139 1129
3 1133 1044 1042
3 1044 1133 1045
3 1045 1133 1135
3 1045 1135 1046
3 1046 1135 1137
3 1046 1137 1047
3 1047 1137 1139
3 1047 1139 1043
3 1140 1054 1055
3 1056 1141 1055
3 1055 1141 1140
3 1057 1142 1056
3 1056 1142 1141
3 1058 1143 1057
3 1057 1143 1142
3 1059 1144 1058
3 1058 1144 1143
3 1061 1144 1059
3 1145 1064 1065
3 1054 1140 1065
3 1140 1145 1065
3 1140 1146 1145
3 1141 1148 1147
3 1146 1141 1147
3 1140 1141 1146
3 1148 1141 1142
3 1148 1142 1149
3 1149 1142 1143
3 1149 1143 1150
3 1150 1143 1144
3 1150 1144 1151
3 1144 1061 1151
3 1061 1152 1151
3 1061 1067 1152
3 1153 1071 1072
3 1154 1153 1072
3 1154 1072 1064
3 1155 1154 1064
3 1145 1155 1064
3 1155 1145 1146
3 1155 1146 1156
3 1156 1146 1147
3 1157 1152 1067
3 1157 1067 1073
3 1158 1073 1074
3 1158 1157 1073
3 1160 1158 1159
3 1158 1075 1159
3 1158 1074 1075
3 1077 1159 1075
3 1161 1078 1079
3 1162 1161 1079
3 1162 1079 1071
3 1163 1162 1071
3 1153 1163 1071
3 1163 1153 1154
3 1164 1160 1159
3 1166 1164 1165
3 1165 1164 1080
3 1164 1159 1080
3 1159 1077 1080
3 1081 1165 1080
3 1167 1083 1161
3 1161 1083 1078
3 1161 1162 1168
3 1161 1168 1167
3 1166 1165 1169
3 1166 1169 1170
3 1085 1169 1081
3 1081 1169 1165
3 1172 1171 1167
3 1171 1083 1167
3 1171 1087 1083
3 1172 1167 1168
3 1173 1170 1169
3 1169 1085 1173
3 1085 1174 1173
3 1085 1089 1174
3 1171 1091 1087
3 1175 1091 1171
3 1093 1174 1089
3 1093 1176 1174
3 1175 1095 1091
3 1177 1095 1175
3 1097 1176 1093
3 1097 1178 1176
3 1177 1099 1095
3 1179 1099 1177
3 1182 1181 1180
3 1181 1178 1180
3 1178 1101 1180
3 1178 1097 1101
3 1179 1103 1099
3 1183 1103 1179
3 1186 1185 1184
3 1184 1185 1182
3 1180 1184 1182
3 1187 1184 1180
3 1105 1187 1101
3 1101 1187 1180
3 1189 1106 1188
3 1106 1183 1188
3 1106 1103 1183
3 1190 1189 1188
3 1193 1192 1191
3 1195 1194 1191
3 1195 1191 1192
3 1194 1195 1186
3 1184 1194 1186
3 1196 1194 1184
3 1197 1184 1187
3 1196 1184 1197
3 1108 1197 1105
3 1105 1197 1187
3 1198 1109 1189
3 1189 1109 1106
3 1189 1190 1199
3 1200 1189 1199
3 1198 1189 1200
3 1201 1200 1199
3 1193 1191 1202
3 1193 1202 1203
3 1112 1202 1111
3 1202 1194 1111
3 1202 1191 1194
3 1111 1194 1114
3 1114 1194 1196
3 1114 1196 1116
3 1116 1196 1197
3 1116 1197 1108
3 1198 1118 1109
3 1118 1198 1121
3 1121 1198 1200
3 1205 1204 1122
3 1205 1122 1121
3 1201 1205 1121
3 1200 1201 1121
3 1206 1204 1205
3 1203 1202 1124
3 1125 1203 1124
3 1207 1203 1125
3 1124 1202 1112
3 1204 1127 1122
3 1209 1208 1128
3 1209 1128 1127
3 1206 1209 1127
3 1204 1206 1127
3 1211 1210 1208
3 1211 1208 1209
3 1213 1212 1210
3 1213 1210 1211
3 1215 1214 1212
3 1215 1212 1213
3 1130 1131 1214
3 1215 1130 1214
3 1216 1130 1215
3 1125 1130 1207
3 1207 1130 1216
3 1208 1132 1128
3 1132 1208 1134
3 1134 1208 1210
3 1134 1210 1136
3 1136 1210 1212
3 1136 1212 1138
3 1138 1212 1214
3 1138 1214 1131
3 1217 1147 1148
3 1149 1218 1148
3 1148 1218 1217
3 1150 1219 1149
3 1149 1219 1218
3 1151 1220 1150
3 1150 1220 1219
3 1152 1220 1151
3 1221 1154 1155
3 1156 1222 1155
3 1155 1222 1221
3 1223 1222 1156
3 1223 1156 1147
3 1224 1223 1147
3 1217 1224 1147
3 1224 1217 1218
3 1224 1218 1225
3 1225 1218 1219
3 1225 1219 1226
3 1226 1219 1220
3 1226 1220 1227
3 1229 1227 1228
3 1228 1227 1157
3 1227 1220 1157
3 1220 1152 1157
3 1158 1230 1157
3 1157 1230 1228
3 1160 1230 1158
3 1231 1162 1163
3 1154 1221 1163
3 1221 1231 1163
3 1221 1232 1231
3 1222 1234 1233
3 1232 1222 1233
3 1221 1222 1232
3 1234 1222 1223
3 1229 1228 1235
3 1229 1235 1236
3 1237 1228 1230
3 1235 1228 1237
3 1164 1238 1160
3 1238 1230 1160
3 1238 1237 1230
3 1166 1238 1164
3 1239 1168 1231
3 1231 1168 1162
3 1232 1241 1240
3 1239 1232 1240
3 1231 1232 1239
3 1241 1232 1233
3 1236 1235 1242
3 1236 1242 1243
3 1244 1235 1237
3 1242 1235 1244
3 1245 1237 1238
3 1244 1237 1245
3 1170 1245 1166
3 1166 1245 1238
3 1246 1171 1172
3 1247 1246 1172
3 1247 1172 1168
3 1248 1247 1168
3 1239 1248 1168
3 1248 1239 1240
3 1249 1243 1242
3 1251 1250 1249
3 1242 1251 1249
3 1244 1251 1242
3 1252 1244 1245
3 1251 1244 1252
3 1173 1253 1170
3 1253 1245 1170
3 1253 1252 1245
3 1174 1253 1173
3 1254 1175 1246
3 1246 1175 1171
3 1246 1247 1255
3 1246 1255 1254
3 1250 1251 1256
3 1250 1256 1257
3 1258 1251 1252
3 1256 1251 1258
3 1259 1252 1253
3 1258 1252 1259
3 1176 1259 1174
3 1174 1259 1253
3 1260 1177 1254
3 1254 1177 1175
3 1254 1255 1261
3 1254 1261 1260
3 1257 1256 1262
3 1257 1262 1263
3 1264 1256 1258
3 1262 1256 1264
3 1265 1258 1259
3 1264 1258 1265
3 1178 1265 1176
3 1176 1265 1259
3 1266 1179 1260
3 1260 1179 1177
3 1260 1261 1267
3 1268 1260 1267
3 1266 1260 1268
3 1269 1268 1267
3 1263 1262 1270
3 1263 1270 1271
3 1272 1262 1264
3 1270 1262 1272
3 1182 1272 1181
3 1272 1265 1181
3 1272 1264 1265
3 1181 1265 1178
3 1273 1183 1266
3 1266 1183 1179
3 1274 1266 1268
3 1273 1266 1274
3 1268 1269 1275
3 1268 1275 1274
3 1278 1277 1276
3 1276 1277 1271
3 1270 1276 1271
3 1279 1276 1270
3 1186 1279 1185
3 1279 1272 1185
3 1279 1270 1272
3 1185 1272 1182
3 1273 1188 1183
3 1188 1273 1190
3 1273 1280 1190
3 1273 1274 1280
3 1274 1275 1281
3 1274 1281 1280
3 1278 1276 1192
3 1193 1278 1192
3 1282 1278 1193
3 1192 1276 1195
3 1195 1276 1279
3 1195 1279 1186
3 1280 1199 1190
3 1284 1283 1201
3 1284 1201 1199
3 1281 1284 1199
3 1280 1281 1199
3 1286 1285 1283
3 1286 1283 1284
3 1287 1285 1286
3 1203 1282 1193
3 1203 1288 1282
3 1283 1205 1201
3 1205 1283 1206
3 1283 1289 1206
3 1283 1285 1289
3 1285 1287 1290
3 1291 1285 1290
3 1289 1285 1291
3 1293 1292 1291
3 1293 1291 1290
3 1295 1294 1292
3 1295 1292 1293
3 1297 1296 1294
3 1297 1294 1295
3 1297 1288 1296
3 1288 1207 1296
3 1288 1203 1207
3 1289 1209 1206
3 1209 1289 1211
3 1211 1289 1291
3 1211 1291 1213
3 1213 1291 1292
3 1213 1292 1215
3 1215 1292 1294
3 1215 1294 1216
3 1216 1294 1296
3 1216 1296 1207
3 1298 1223 1224
3 1225 1299 1224
3 1224 1299 1298
3 1226 1300 1225
3 1225 1300 1299
3 1227 1301 1226
3 1226 1301 1300
3 1229 1301 1227
3 1302 1233 1234
3 1223 1298 1234
3 1298 1302 1234
3 1298 1303 1302
3 1304 1298 1299
3 1303 1298 1304
3 1300 1306 1305
3 1304 1300 1305
3 1299 1300 1304
3 1308 1307 1306
3 1300 1308 1306
3 1301 1308 1300
3 1236 1308 1229
3 1229 1308 1301
3 1309 1240 1241
3 1233 1302 1241
3 1302 1309 1241
3 1302 1310 1309
3 1303 1312 1311
3 1310 1303 1311
3 1302 1303 1310
3 1312 1303 1304
3 1312 1304 1313
3 1313 1304 1305
3 1307 1308 1314
3 1307 1314 1315
3 1243 1314 1236
3 1236 1314 1308
3 1316 1247 1248
3 1240 1309 1248
3 1309 1316 1248
3 1309 1317 1316
3 1318 1309 1310
3 1317 1309 1318
3 1310 1311 1319
3 1310 1319 1318
3 1315 1314 1320
3 1315 1320 1321
3 1249 1322 1243
3 1322 1314 1243
3 1322 1320 1314
3 1250 1322 1249
3 1323 1255 1316
3 1316 1255 1247
3 1324 1316 1317
3 1323 1316 1324
3 1318 1326 1325
3 1324 1318 1325
3 1317 1318 1324
3 1326 1318 1319
3 1327 1321 1320
3 1329 1328 1327
3 1320 1329 1327
3 1322 1329 1320
3 1257 1329 1250
3 1250 1329 1322
3 1330 1261 1323
3 1323 1261 1255
3 1331 1323 1324
3 1330 1323 1331
3 1324 1325 1332
3 1324 1332 1331
3 1328 1329 1333
3 1328 1333 1334
3 1263 1333 1257
3 1257 1333 1329
3 1330 1267 1261
3 1267 1330 1269
3 1330 1335 1269
3 1330 1331 1335
3 1331 1332 1336
3 1337 1331 1336
3 1335 1331 1337
3 1338 1337 1336
3 1334 1333 1339
3 1334 1339 1340
3 1271 1339 1263
3 1263 1339 1333
3 1341 1275 1335
3 1335 1275 1269
3 1342 1335 1337
3 1341 1335 1342
3 1337 1338 1343
3 1344 1337 1343
3 1342 1337 1344
3 1346 1345 1344
3 1346 1344 1343
3 1348 1347 1345
3 1348 1345 1346
3 1350 1349 1347
3 1350 1347 1348
3 1349 1350 1340
3 1349 1340 1339
3 1278 1349 1339
3 1277 1278 1339
3 1277 1339 1271
3 1351 1281 1341
3 1341 1281 1275
3 1352 1341 1342
3 1351 1341 1352
3 1353 1342 1344
3 1352 1342 1353
3 1354 1344 1345
3 1353 1344 1354
3 1355 1345 1347
3 1354 1345 1355
3 1356 1347 1349
3 1355 1347 1356
3 1282 1356 1278
3 1278 1356 1349
3 1351 1284 1281
3 1284 1351 1286
3 1286 1351 1352
3 1286 1352 1287
3 1352 1357 1287
3 1352 1353 1357
3 1358 1353 1354
3 1357 1353 1358
3 1359 1354 1355
3 1358 1354 1359
3 1360 1355 1356
3 1359 1355 1360
3 1288 1360 1282
3 1282 1360 1356
3 1357 1290 1287
3 1290 1357 1293
3 1293 1357 1358
3 1293 1358 1295
3 1295 1358 1359
3 1295 1359 1297
3 1297 1359 1360
3 1297 1360 1288
3 1361 1305 1306
3 1307 1361 1306
3 1362 1311 1312
3 1313 1363 1312
3 1312 1363 1362
3 1305 1361 1313
3 1361 1363 1313
3 1361 1364 1363
3 1315 1364 1307
3 1307 1364 1361
3 1365 1319 1362
3 1362 1319 1311
3 1366 1362 1363
3 1365 1362 1366
3 1367 1363 1364
3 1366 1363 1367
3 1321 1367 1315
3 1315 1367 1364
3 1368 1325 1326
3 1319 1365 1326
3 1365 1368 1326
3 1365 1369 1368
3 1370 1365 1366
3 1369 1365 1370
3 1371 1366 1367
3 1370 1366 1371
3 1327 1372 1321
3 1372 1367 1321
3 1372 1371 1367
3 1328 1372 1327
3 1373 1332 1368
3 1368 1332 1325
3 1374 1368 1369
3 1373 1368 1374
3 1375 1369 1370
3 1374 1369 1375
3 1376 1370 1371
3 1375 1370 1376
3 1377 1371 1372
3 1376 1371 1377
3 1334 1377 1328
3 1328 1377 1372
3 1373 1336 1332
3 1336 1373 1338
3 1373 1378 1338
3 1373 1374 1378
3 1379 1374 1375
3 1378 1374 1379
3 1380 1375 1376
3 1379 1375 1380
3 1381 1376 1377
3 1380 1376 1381
3 1340 1381 1334
3 1334 1381 1377
3 1378 1343 1338
3 1343 1378 1346
3 1346 1378 1379
3 1346 1379 1348
3 1348 1379 1380
3 1348 1380 1350
3 1350 1380 1381
3 1350 1381 1340
