# Asteroid shape model (convexinv -> dual reconstruction)
v -1.27393012 -0.35269795 -0.35714286
v -1.20250155 -0.35269795 -0.42857143
v -1.20250155 -0.42412652 -0.35714286
v -1.20250155 -0.42412652 -0.21428571
v -1.27393012 -0.35269795 -0.21428571
v -1.20250155 -0.42412652 -0.07142857
v -1.27393012 -0.35269795 -0.07142857
v -1.20250155 -0.42412652 0.07142857
v -1.27393012 -0.35269795 0.07142857
v -1.20250155 -0.42412652 0.21428571
v -1.27393012 -0.35269795 0.21428571
v -1.20250155 -0.35269795 0.28571429
v -1.27393012 -0.20984081 -0.35714286
v -1.20250155 -0.20984081 -0.42857143
v -1.27393012 -0.20984081 -0.21428571
v -1.27393012 -0.20984081 -0.07142857
v -1.27393012 -0.20984081 0.07142857
v -1.27393012 -0.20984081 0.21428571
v -1.20250155 -0.28126938 0.35714286
v -1.27393012 -0.20984081 0.35714286
v -1.20250155 -0.20984081 0.42857143
v -1.27393012 -0.06698367 -0.35714286
v -1.20250155 -0.06698367 -0.42857143
v -1.27393012 -0.06698367 -0.21428571
v -1.27393012 -0.06698367 -0.07142857
v -1.27393012 -0.06698367 0.07142857
v -1.27393012 -0.06698367 0.21428571
v -1.27393012 -0.06698367 0.35714286
v -1.20250155 -0.06698367 0.42857143
v -1.27393012 0.07587348 -0.35714286
v -1.20250155 0.07587348 -0.42857143
v -1.27393012 0.07587348 -0.21428571
v -1.27393012 0.07587348 -0.07142857
v -1.27393012 0.07587348 0.07142857
v -1.27393012 0.07587348 0.21428571
v -1.27393012 0.07587348 0.35714286
v -1.20250155 0.07587348 0.42857143
v -1.27393012 0.21873062 -0.35714286
v -1.20250155 0.21873062 -0.42857143
v -1.27393012 0.21873062 -0.21428571
v -1.27393012 0.21873062 -0.07142857
v -1.27393012 0.21873062 0.07142857
v -1.27393012 0.21873062 0.21428571
v -1.27393012 0.21873062 0.35714286
v -1.20250155 0.21873062 0.42857143
v -1.27393012 0.36158776 -0.35714286
v -1.20250155 0.36158776 -0.42857143
v -1.27393012 0.36158776 -0.21428571
v -1.27393012 0.36158776 -0.07142857
v -1.27393012 0.36158776 0.07142857
v -1.27393012 0.36158776 0.21428571
v -1.20250155 0.36158776 0.28571429
v -1.20250155 0.29015919 0.35714286
v -1.20250155 0.43301633 -0.35714286
v -1.20250155 0.43301633 -0.21428571
v -1.20250155 0.43301633 -0.07142857
v -1.20250155 0.43301633 0.07142857
v -1.20250155 0.43301633 0.21428571
v -1.13107298 -0.63841224 -0.35714286
v -1.05964441 -0.63841224 -0.42857143
v -1.05964441 -0.70984081 -0.35714286
v -1.05964441 -0.70984081 -0.21428571
v -1.13107298 -0.63841224 -0.21428571
v -1.05964441 -0.70984081 -0.07142857
v -1.13107298 -0.63841224 -0.07142857
v -1.05964441 -0.70984081 0.07142857
v -1.13107298 -0.63841224 0.07142857
v -1.05964441 -0.70984081 0.21428571
v -1.13107298 -0.63841224 0.21428571
v -1.05964441 -0.70984081 0.35714286
v -1.13107298 -0.63841224 0.35714286
v -1.05964441 -0.63841224 0.42857143
v -1.13107298 -0.49555510 -0.50000000
v -1.05964441 -0.49555510 -0.57142857
v -1.05964441 -0.56698367 -0.50000000
v -1.13107298 -0.49555510 -0.35714286
v -1.13107298 -0.49555510 -0.21428571
v -1.13107298 -0.49555510 -0.07142857
v -1.13107298 -0.49555510 0.07142857
v -1.13107298 -0.49555510 0.21428571
v -1.13107298 -0.49555510 0.35714286
v -1.05964441 -0.56698367 0.50000000
v -1.13107298 -0.49555510 0.50000000
v -1.05964441 -0.49555510 0.57142857
v -1.13107298 -0.35269795 -0.50000000
v -1.05964441 -0.35269795 -0.57142857
v -1.13107298 -0.35269795 0.35714286
v -1.13107298 -0.35269795 0.50000000
v -1.05964441 -0.35269795 0.57142857
v -1.13107298 -0.20984081 -0.64285714
v -1.05964441 -0.20984081 -0.71428571
v -1.05964441 -0.28126938 -0.64285714
v -1.13107298 -0.20984081 -0.50000000
v -1.13107298 -0.20984081 0.50000000
v -1.05964441 -0.28126938 0.64285714
v -1.13107298 -0.20984081 0.64285714
v -1.05964441 -0.20984081 0.71428571
v -1.13107298 -0.06698367 -0.64285714
v -1.05964441 -0.06698367 -0.71428571
v -1.13107298 -0.06698367 -0.50000000
v -1.13107298 -0.06698367 0.50000000
v -1.13107298 -0.06698367 0.64285714
v -1.05964441 -0.06698367 0.71428571
v -1.13107298 0.07587348 -0.64285714
v -1.05964441 0.07587348 -0.71428571
v -1.13107298 0.07587348 -0.50000000
v -1.13107298 0.07587348 0.50000000
v -1.13107298 0.07587348 0.64285714
v -1.05964441 0.07587348 0.71428571
v -1.13107298 0.21873062 -0.64285714
v -1.05964441 0.21873062 -0.71428571
v -1.13107298 0.21873062 -0.50000000
v -1.13107298 0.21873062 0.50000000
v -1.05964441 0.21873062 0.57142857
v -1.05964441 0.14730205 0.64285714
v -1.13107298 0.36158776 -0.64285714
v -1.05964441 0.36158776 -0.71428571
v -1.13107298 0.36158776 -0.50000000
v -1.13107298 0.36158776 0.35714286
v -1.13107298 0.36158776 0.50000000
v -1.05964441 0.36158776 0.57142857
v -1.05964441 0.43301633 -0.64285714
v -1.05964441 0.43301633 -0.50000000
v -1.13107298 0.50444490 -0.35714286
v -1.05964441 0.50444490 -0.42857143
v -1.13107298 0.50444490 -0.21428571
v -1.13107298 0.50444490 -0.07142857
v -1.13107298 0.50444490 0.07142857
v -1.13107298 0.50444490 0.21428571
v -1.13107298 0.50444490 0.35714286
v -1.05964441 0.50444490 0.42857143
v -1.05964441 0.43301633 0.50000000
v -1.05964441 0.57587348 -0.35714286
v -1.13107298 0.64730205 -0.21428571
v -1.05964441 0.64730205 -0.28571429
v -1.13107298 0.64730205 -0.07142857
v -1.13107298 0.64730205 0.07142857
v -1.13107298 0.64730205 0.21428571
v -1.05964441 0.64730205 0.28571429
v -1.05964441 0.57587348 0.35714286
v -1.05964441 0.71873062 -0.21428571
v -1.05964441 0.71873062 -0.07142857
v -1.05964441 0.71873062 0.07142857
v -1.05964441 0.71873062 0.21428571
v -0.98821584 -0.78126938 -0.35714286
v -0.91678726 -0.78126938 -0.42857143
v -0.91678726 -0.85269795 -0.35714286
v -0.91678726 -0.85269795 -0.21428571
v -0.98821584 -0.78126938 -0.21428571
v -0.91678726 -0.85269795 -0.07142857
v -0.98821584 -0.78126938 -0.07142857
v -0.91678726 -0.85269795 0.07142857
v -0.98821584 -0.78126938 0.07142857
v -0.91678726 -0.85269795 0.21428571
v -0.98821584 -0.78126938 0.21428571
v -0.91678726 -0.85269795 0.35714286
v -0.98821584 -0.78126938 0.35714286
v -0.91678726 -0.78126938 0.42857143
v -0.98821584 -0.63841224 -0.50000000
v -0.91678726 -0.63841224 -0.57142857
v -0.91678726 -0.70984081 -0.50000000
v -0.91678726 -0.70984081 0.50000000
v -0.98821584 -0.63841224 0.50000000
v -0.91678726 -0.63841224 0.57142857
v -0.98821584 -0.49555510 -0.64285714
v -0.91678726 -0.49555510 -0.71428571
v -0.91678726 -0.56698367 -0.64285714
v -0.91678726 -0.56698367 0.64285714
v -0.98821584 -0.49555510 0.64285714
v -0.91678726 -0.49555510 0.71428571
v -0.98821584 -0.35269795 -0.64285714
v -0.91678726 -0.35269795 -0.71428571
v -0.98821584 -0.35269795 0.64285714
v -0.91678726 -0.35269795 0.71428571
v -0.98821584 -0.20984081 -0.78571429
v -0.91678726 -0.20984081 -0.85714286
v -0.91678726 -0.28126938 -0.78571429
v -0.91678726 -0.28126938 0.78571429
v -0.98821584 -0.20984081 0.78571429
v -0.91678726 -0.20984081 0.85714286
v -0.98821584 -0.06698367 -0.78571429
v -0.91678726 -0.06698367 -0.85714286
v -0.98821584 -0.06698367 0.78571429
v -0.91678726 -0.06698367 0.85714286
v -0.98821584 0.07587348 -0.78571429
v -0.91678726 0.07587348 -0.85714286
v -0.98821584 0.07587348 0.78571429
v -0.91678726 0.07587348 0.85714286
v -0.98821584 0.21873062 -0.78571429
v -0.91678726 0.21873062 -0.85714286
v -0.98821584 0.21873062 0.64285714
v -0.98821584 0.21873062 0.78571429
v -0.91678726 0.21873062 0.85714286
v -0.98821584 0.36158776 -0.78571429
v -0.91678726 0.36158776 -0.85714286
v -0.98821584 0.36158776 0.64285714
v -0.91678726 0.36158776 0.71428571
v -0.91678726 0.29015919 0.78571429
v -0.91678726 0.43301633 -0.78571429
v -0.98821584 0.50444490 -0.64285714
v -0.91678726 0.50444490 -0.71428571
v -0.98821584 0.50444490 -0.50000000
v -0.98821584 0.50444490 0.50000000
v -0.98821584 0.50444490 0.64285714
v -0.91678726 0.50444490 0.71428571
v -0.91678726 0.57587348 -0.64285714
v -0.98821584 0.64730205 -0.50000000
v -0.91678726 0.64730205 -0.57142857
v -0.98821584 0.64730205 -0.35714286
v -0.98821584 0.64730205 0.35714286
v -0.98821584 0.64730205 0.50000000
v -0.91678726 0.64730205 0.57142857
v -0.91678726 0.57587348 0.64285714
v -0.91678726 0.71873062 -0.50000000
v -0.98821584 0.79015919 -0.35714286
v -0.91678726 0.79015919 -0.42857143
v -0.98821584 0.79015919 -0.21428571
v -0.98821584 0.79015919 -0.07142857
v -0.98821584 0.79015919 0.07142857
v -0.98821584 0.79015919 0.21428571
v -0.98821584 0.79015919 0.35714286
v -0.91678726 0.79015919 0.42857143
v -0.91678726 0.71873062 0.50000000
v -0.91678726 0.86158776 -0.35714286
v -0.91678726 0.86158776 -0.21428571
v -0.91678726 0.86158776 -0.07142857
v -0.91678726 0.86158776 0.07142857
v -0.91678726 0.86158776 0.21428571
v -0.91678726 0.86158776 0.35714286
v -0.84535869 -0.92412652 -0.35714286
v -0.77393012 -0.92412652 -0.42857143
v -0.77393012 -0.99555510 -0.35714286
v -0.77393012 -0.99555510 -0.21428571
v -0.84535869 -0.92412652 -0.21428571
v -0.77393012 -0.99555510 -0.07142857
v -0.84535869 -0.92412652 -0.07142857
v -0.77393012 -0.99555510 0.07142857
v -0.84535869 -0.92412652 0.07142857
v -0.77393012 -0.99555510 0.21428571
v -0.84535869 -0.92412652 0.21428571
v -0.77393012 -0.92412652 0.28571429
v -0.84535869 -0.78126938 -0.64285714
v -0.77393012 -0.78126938 -0.71428571
v -0.77393012 -0.85269795 -0.64285714
v -0.77393012 -0.85269795 -0.50000000
v -0.84535869 -0.78126938 -0.50000000
v -0.77393012 -0.85269795 0.35714286
v -0.77393012 -0.85269795 0.50000000
v -0.84535869 -0.78126938 0.50000000
v -0.77393012 -0.78126938 0.57142857
v -0.84535869 -0.63841224 -0.64285714
v -0.77393012 -0.63841224 -0.71428571
v -0.77393012 -0.70984081 0.64285714
v -0.84535869 -0.63841224 0.64285714
v -0.77393012 -0.63841224 0.71428571
v -0.84535869 -0.49555510 -0.78571429
v -0.77393012 -0.49555510 -0.85714286
v -0.77393012 -0.56698367 -0.78571429
v -0.77393012 -0.56698367 0.78571429
v -0.84535869 -0.49555510 0.78571429
v -0.77393012 -0.49555510 0.85714286
v -0.84535869 -0.35269795 -0.78571429
v -0.77393012 -0.35269795 -0.85714286
v -0.84535869 -0.35269795 0.78571429
v -0.77393012 -0.35269795 0.85714286
v -0.77393012 -0.20984081 -0.85714286
v -0.77393012 -0.20984081 0.85714286
v -0.77393012 -0.06698367 -0.85714286
v -0.77393012 -0.06698367 0.85714286
v -0.77393012 0.07587348 -0.85714286
v -0.77393012 0.07587348 0.85714286
v -0.77393012 0.21873062 -0.85714286
v -0.77393012 0.21873062 0.85714286
v -0.77393012 0.36158776 -0.85714286
v -0.84535869 0.36158776 0.78571429
v -0.77393012 0.36158776 0.85714286
v -0.84535869 0.50444490 -0.78571429
v -0.77393012 0.50444490 -0.85714286
v -0.84535869 0.50444490 0.78571429
v -0.77393012 0.50444490 0.85714286
v -0.77393012 0.57587348 -0.78571429
v -0.84535869 0.64730205 -0.64285714
v -0.77393012 0.64730205 -0.71428571
v -0.84535869 0.64730205 0.64285714
v -0.77393012 0.64730205 0.71428571
v -0.77393012 0.57587348 0.78571429
v -0.77393012 0.71873062 -0.64285714
v -0.84535869 0.79015919 -0.50000000
v -0.77393012 0.79015919 -0.57142857
v -0.84535869 0.79015919 0.50000000
v -0.77393012 0.79015919 0.57142857
v -0.77393012 0.71873062 0.64285714
v -0.77393012 0.86158776 -0.50000000
v -0.84535869 0.93301633 -0.35714286
v -0.77393012 0.93301633 -0.42857143
v -0.84535869 0.93301633 -0.21428571
v -0.84535869 0.93301633 -0.07142857
v -0.84535869 0.93301633 0.07142857
v -0.84535869 0.93301633 0.21428571
v -0.77393012 0.93301633 0.28571429
v -0.77393012 0.86158776 0.35714286
v -0.77393012 0.86158776 0.50000000
v -0.77393012 1.00444490 -0.35714286
v -0.77393012 1.00444490 -0.21428571
v -0.77393012 1.00444490 -0.07142857
v -0.77393012 1.00444490 0.07142857
v -0.77393012 1.00444490 0.21428571
v -0.70250155 -1.06698367 -0.21428571
v -0.63107298 -1.06698367 -0.28571429
v -0.63107298 -1.13841224 -0.21428571
v -0.63107298 -1.13841224 -0.07142857
v -0.70250155 -1.06698367 -0.07142857
v -0.63107298 -1.13841224 0.07142857
v -0.70250155 -1.06698367 0.07142857
v -0.63107298 -1.13841224 0.21428571
v -0.70250155 -1.06698367 0.21428571
v -0.63107298 -1.06698367 0.28571429
v -0.70250155 -0.92412652 -0.50000000
v -0.63107298 -0.92412652 -0.57142857
v -0.63107298 -0.99555510 -0.50000000
v -0.63107298 -0.99555510 -0.35714286
v -0.63107298 -0.99555510 0.35714286
v -0.70250155 -0.92412652 0.35714286
v -0.63107298 -0.99555510 0.50000000
v -0.70250155 -0.92412652 0.50000000
v -0.63107298 -0.92412652 0.57142857
v -0.63107298 -0.78126938 -0.71428571
v -0.63107298 -0.85269795 -0.64285714
v -0.63107298 -0.85269795 0.64285714
v -0.70250155 -0.78126938 0.64285714
v -0.63107298 -0.78126938 0.71428571
v -0.70250155 -0.63841224 -0.78571429
v -0.63107298 -0.63841224 -0.85714286
v -0.63107298 -0.70984081 -0.78571429
v -0.63107298 -0.70984081 0.78571429
v -0.70250155 -0.63841224 0.78571429
v -0.63107298 -0.63841224 0.85714286
v -0.63107298 -0.49555510 -0.85714286
v -0.63107298 -0.49555510 0.85714286
v -0.70250155 -0.35269795 -0.92857143
v -0.63107298 -0.35269795 -1.00000000
v -0.63107298 -0.42412652 -0.92857143
v -0.63107298 -0.42412652 0.92857143
v -0.70250155 -0.35269795 0.92857143
v -0.63107298 -0.35269795 1.00000000
v -0.70250155 -0.20984081 -0.92857143
v -0.63107298 -0.20984081 -1.00000000
v -0.70250155 -0.20984081 0.92857143
v -0.63107298 -0.20984081 1.00000000
v -0.70250155 -0.06698367 -0.92857143
v -0.63107298 -0.06698367 -1.00000000
v -0.70250155 -0.06698367 0.92857143
v -0.63107298 -0.06698367 1.00000000
v -0.70250155 0.07587348 -0.92857143
v -0.63107298 0.07587348 -1.00000000
v -0.70250155 0.07587348 0.92857143
v -0.63107298 0.07587348 1.00000000
v -0.70250155 0.21873062 -0.92857143
v -0.63107298 0.21873062 -1.00000000
v -0.70250155 0.21873062 0.92857143
v -0.63107298 0.21873062 1.00000000
v -0.70250155 0.36158776 -0.92857143
v -0.63107298 0.36158776 -1.00000000
v -0.70250155 0.36158776 0.92857143
v -0.63107298 0.36158776 1.00000000
v -0.63107298 0.43301633 -0.92857143
v -0.63107298 0.50444490 -0.85714286
v -0.63107298 0.43301633 0.92857143
v -0.63107298 0.50444490 0.85714286
v -0.70250155 0.64730205 -0.78571429
v -0.63107298 0.64730205 -0.85714286
v -0.70250155 0.64730205 0.78571429
v -0.63107298 0.64730205 0.85714286
v -0.63107298 0.71873062 -0.78571429
v -0.70250155 0.79015919 -0.64285714
v -0.63107298 0.79015919 -0.71428571
v -0.63107298 0.71873062 0.64285714
v -0.63107298 0.79015919 0.57142857
v -0.63107298 0.71873062 0.78571429
v -0.63107298 0.86158776 -0.64285714
v -0.70250155 0.93301633 -0.50000000
v -0.63107298 0.93301633 -0.57142857
v -0.70250155 0.93301633 0.35714286
v -0.70250155 0.93301633 0.50000000
v -0.63107298 0.93301633 0.57142857
v -0.63107298 1.00444490 -0.50000000
v -0.70250155 1.07587348 -0.35714286
v -0.63107298 1.07587348 -0.42857143
v -0.70250155 1.07587348 -0.21428571
v -0.70250155 1.07587348 -0.07142857
v -0.70250155 1.07587348 0.07142857
v -0.70250155 1.07587348 0.21428571
v -0.70250155 1.07587348 0.35714286
v -0.63107298 1.07587348 0.42857143
v -0.63107298 1.00444490 0.50000000
v -0.63107298 1.14730205 -0.35714286
v -0.63107298 1.14730205 -0.21428571
v -0.63107298 1.14730205 -0.07142857
v -0.63107298 1.14730205 0.07142857
v -0.63107298 1.14730205 0.21428571
v -0.63107298 1.14730205 0.35714286
v -0.55964441 -1.06698367 -0.50000000
v -0.48821584 -1.06698367 -0.57142857
v -0.48821584 -1.13841224 -0.50000000
v -0.48821584 -1.13841224 -0.35714286
v -0.55964441 -1.06698367 -0.35714286
v -0.48821584 -1.13841224 -0.21428571
v -0.48821584 -1.13841224 -0.07142857
v -0.48821584 -1.13841224 0.07142857
v -0.48821584 -1.13841224 0.21428571
v -0.48821584 -1.06698367 0.28571429
v -0.55964441 -0.92412652 -0.64285714
v -0.48821584 -0.92412652 -0.71428571
v -0.48821584 -0.99555510 -0.64285714
v -0.48821584 -0.99555510 0.35714286
v -0.48821584 -0.99555510 0.50000000
v -0.48821584 -0.99555510 0.64285714
v -0.55964441 -0.92412652 0.64285714
v -0.48821584 -0.92412652 0.71428571
v -0.55964441 -0.78126938 -0.78571429
v -0.48821584 -0.78126938 -0.85714286
v -0.48821584 -0.85269795 -0.78571429
v -0.48821584 -0.85269795 0.78571429
v -0.55964441 -0.78126938 0.78571429
v -0.48821584 -0.78126938 0.85714286
v -0.48821584 -0.63841224 -0.85714286
v -0.48821584 -0.63841224 0.85714286
v -0.55964441 -0.49555510 -0.92857143
v -0.48821584 -0.49555510 -1.00000000
v -0.48821584 -0.56698367 -0.92857143
v -0.48821584 -0.56698367 0.92857143
v -0.55964441 -0.49555510 0.92857143
v -0.48821584 -0.49555510 1.00000000
v -0.48821584 -0.35269795 -1.00000000
v -0.48821584 -0.35269795 1.00000000
v -0.48821584 -0.20984081 -1.00000000
v -0.48821584 -0.20984081 1.00000000
v -0.48821584 -0.06698367 -1.00000000
v -0.48821584 -0.06698367 1.00000000
v -0.48821584 0.07587348 -1.00000000
v -0.48821584 0.07587348 1.00000000
v -0.48821584 0.21873062 -1.00000000
v -0.48821584 0.21873062 1.00000000
v -0.48821584 0.36158776 -1.00000000
v -0.48821584 0.36158776 1.00000000
v -0.55964441 0.50444490 -0.92857143
v -0.48821584 0.50444490 -1.00000000
v -0.48821584 0.43301633 0.92857143
v -0.48821584 0.50444490 0.85714286
v -0.48821584 0.57587348 -0.92857143
v -0.48821584 0.64730205 -0.85714286
v -0.48821584 0.64730205 0.85714286
v -0.55964441 0.79015919 -0.78571429
v -0.48821584 0.79015919 -0.85714286
v -0.48821584 0.71873062 0.64285714
v -0.48821584 0.79015919 0.57142857
v -0.48821584 0.71873062 0.78571429
v -0.48821584 0.86158776 -0.78571429
v -0.55964441 0.93301633 -0.64285714
v -0.48821584 0.93301633 -0.71428571
v -0.48821584 0.93301633 0.57142857
v -0.48821584 1.00444490 -0.64285714
v -0.55964441 1.07587348 -0.50000000
v -0.48821584 1.07587348 -0.57142857
v -0.55964441 1.07587348 0.50000000
v -0.48821584 1.07587348 0.57142857
v -0.48821584 1.14730205 -0.50000000
v -0.48821584 1.14730205 -0.35714286
v -0.48821584 1.14730205 -0.21428571
v -0.48821584 1.14730205 -0.07142857
v -0.48821584 1.14730205 0.07142857
v -0.48821584 1.14730205 0.21428571
v -0.48821584 1.14730205 0.35714286
v -0.48821584 1.14730205 0.50000000
v -0.41678726 -1.20984081 -0.35714286
v -0.34535869 -1.20984081 -0.42857143
v -0.34535869 -1.28126938 -0.35714286
v -0.34535869 -1.28126938 -0.21428571
v -0.41678726 -1.20984081 -0.21428571
v -0.34535869 -1.28126938 -0.07142857
v -0.41678726 -1.20984081 -0.07142857
v -0.34535869 -1.28126938 0.07142857
v -0.41678726 -1.20984081 0.07142857
v -0.34535869 -1.28126938 0.21428571
v -0.41678726 -1.20984081 0.21428571
v -0.34535869 -1.20984081 0.28571429
v -0.34535869 -1.06698367 -0.57142857
v -0.34535869 -1.13841224 -0.50000000
v -0.34535869 -1.13841224 0.35714286
v -0.41678726 -1.06698367 0.35714286
v -0.34535869 -1.13841224 0.50000000
v -0.41678726 -1.06698367 0.50000000
v -0.34535869 -1.06698367 0.57142857
v -0.41678726 -0.92412652 -0.78571429
v -0.34535869 -0.92412652 -0.85714286
v -0.34535869 -0.99555510 -0.78571429
v -0.34535869 -0.99555510 -0.64285714
v -0.34535869 -0.99555510 0.64285714
v -0.34535869 -0.99555510 0.78571429
v -0.41678726 -0.92412652 0.78571429
v -0.34535869 -0.92412652 0.85714286
v -0.34535869 -0.78126938 -0.85714286
v -0.34535869 -0.78126938 0.85714286
v -0.41678726 -0.63841224 -0.92857143
v -0.34535869 -0.63841224 -1.00000000
v -0.34535869 -0.70984081 -0.92857143
v -0.34535869 -0.70984081 0.92857143
v -0.41678726 -0.63841224 0.92857143
v -0.34535869 -0.63841224 1.00000000
v -0.34535869 -0.49555510 -1.00000000
v -0.34535869 -0.49555510 1.00000000
v -0.34535869 -0.35269795 -1.00000000
v -0.34535869 -0.35269795 1.00000000
v -0.34535869 -0.20984081 -1.00000000
v -0.34535869 -0.20984081 1.00000000
v -0.34535869 -0.06698367 -1.00000000
v -0.34535869 -0.06698367 1.00000000
v -0.34535869 0.07587348 -1.00000000
v -0.34535869 0.07587348 1.00000000
v -0.34535869 0.21873062 -1.00000000
v -0.34535869 0.21873062 1.00000000
v -0.34535869 0.36158776 -1.00000000
v -0.34535869 0.36158776 1.00000000
v -0.34535869 0.50444490 -1.00000000
v -0.41678726 0.50444490 0.92857143
v -0.34535869 0.50444490 1.00000000
v -0.41678726 0.64730205 -0.92857143
v -0.34535869 0.64730205 -1.00000000
v -0.41678726 0.64730205 0.92857143
v -0.34535869 0.64730205 1.00000000
v -0.34535869 0.71873062 -0.92857143
v -0.34535869 0.79015919 -0.85714286
v -0.41678726 0.79015919 0.64285714
v -0.34535869 0.79015919 0.71428571
v -0.34535869 0.71873062 0.78571429
v -0.34535869 0.71873062 0.92857143
v -0.41678726 0.93301633 -0.78571429
v -0.34535869 0.93301633 -0.85714286
v -0.41678726 0.93301633 0.64285714
v -0.34535869 0.93301633 0.71428571
v -0.34535869 1.00444490 -0.78571429
v -0.34535869 1.00444490 -0.64285714
v -0.34535869 1.07587348 -0.57142857
v -0.34535869 1.00444490 0.64285714
v -0.34535869 1.07587348 0.57142857
v -0.34535869 1.14730205 -0.50000000
v -0.41678726 1.21873062 -0.35714286
v -0.34535869 1.21873062 -0.42857143
v -0.41678726 1.21873062 -0.21428571
v -0.41678726 1.21873062 -0.07142857
v -0.41678726 1.21873062 0.07142857
v -0.41678726 1.21873062 0.21428571
v -0.34535869 1.21873062 0.28571429
v -0.34535869 1.14730205 0.35714286
v -0.34535869 1.14730205 0.50000000
v -0.34535869 1.29015919 -0.35714286
v -0.34535869 1.29015919 -0.21428571
v -0.34535869 1.29015919 -0.07142857
v -0.34535869 1.29015919 0.07142857
v -0.34535869 1.29015919 0.21428571
v -0.20250155 -1.20984081 -0.42857143
v -0.20250155 -1.28126938 -0.35714286
v -0.20250155 -1.28126938 -0.21428571
v -0.20250155 -1.28126938 -0.07142857
v -0.20250155 -1.28126938 0.07142857
v -0.20250155 -1.28126938 0.21428571
v -0.20250155 -1.20984081 0.28571429
v -0.20250155 -1.06698367 -0.57142857
v -0.20250155 -1.13841224 -0.50000000
v -0.20250155 -1.13841224 0.35714286
v -0.20250155 -1.13841224 0.50000000
v -0.20250155 -1.13841224 0.64285714
v -0.27393012 -1.06698367 0.64285714
v -0.20250155 -1.06698367 0.71428571
v -0.20250155 -0.92412652 -0.85714286
v -0.20250155 -0.99555510 -0.78571429
v -0.20250155 -0.99555510 -0.64285714
v -0.20250155 -0.99555510 0.78571429
v -0.20250155 -0.92412652 0.85714286
v -0.20250155 -0.78126938 -0.85714286
v -0.20250155 -0.78126938 0.85714286
v -0.20250155 -0.63841224 -1.00000000
v -0.20250155 -0.70984081 -0.92857143
v -0.20250155 -0.70984081 0.92857143
v -0.20250155 -0.63841224 1.00000000
v -0.20250155 -0.49555510 -1.00000000
v -0.20250155 -0.49555510 1.00000000
v -0.20250155 -0.35269795 -1.00000000
v -0.20250155 -0.35269795 1.00000000
v -0.20250155 -0.20984081 -1.00000000
v -0.20250155 -0.20984081 1.00000000
v -0.20250155 -0.06698367 -1.00000000
v -0.20250155 -0.06698367 1.00000000
v -0.20250155 0.07587348 -1.00000000
v -0.20250155 0.07587348 1.00000000
v -0.20250155 0.21873062 -1.00000000
v -0.20250155 0.21873062 1.00000000
v -0.20250155 0.36158776 -1.00000000
v -0.20250155 0.36158776 1.00000000
v -0.20250155 0.50444490 -1.00000000
v -0.20250155 0.50444490 1.00000000
v -0.20250155 0.64730205 -1.00000000
v -0.20250155 0.64730205 1.00000000
v -0.27393012 0.79015919 -0.92857143
v -0.20250155 0.79015919 -1.00000000
v -0.27393012 0.79015919 0.78571429
v -0.20250155 0.79015919 0.85714286
v -0.20250155 0.71873062 0.92857143
v -0.20250155 0.86158776 -0.92857143
v -0.20250155 0.93301633 -0.85714286
v -0.27393012 0.93301633 0.64285714
v -0.20250155 0.86158776 0.64285714
v -0.20250155 0.93301633 0.57142857
v -0.20250155 0.86158776 0.78571429
v -0.20250155 1.00444490 -0.78571429
v -0.27393012 1.07587348 -0.64285714
v -0.20250155 1.07587348 -0.71428571
v -0.20250155 1.07587348 0.57142857
v -0.20250155 1.14730205 -0.64285714
v -0.20250155 1.14730205 -0.50000000
v -0.20250155 1.21873062 -0.42857143
v -0.20250155 1.14730205 0.35714286
v -0.20250155 1.21873062 0.28571429
v -0.20250155 1.14730205 0.50000000
v -0.20250155 1.29015919 -0.35714286
v -0.20250155 1.29015919 -0.21428571
v -0.20250155 1.29015919 -0.07142857
v -0.20250155 1.29015919 0.07142857
v -0.20250155 1.29015919 0.21428571
v -0.05964441 -1.20984081 -0.42857143
v -0.05964441 -1.28126938 -0.35714286
v -0.05964441 -1.28126938 -0.21428571
v -0.05964441 -1.28126938 -0.07142857
v -0.05964441 -1.28126938 0.07142857
v -0.05964441 -1.28126938 0.21428571
v -0.05964441 -1.20984081 0.28571429
v -0.13107298 -1.06698367 -0.64285714
v -0.05964441 -1.06698367 -0.71428571
v -0.05964441 -1.13841224 -0.64285714
v -0.05964441 -1.13841224 -0.50000000
v -0.05964441 -1.13841224 0.35714286
v -0.05964441 -1.13841224 0.50000000
v -0.05964441 -1.13841224 0.64285714
v -0.05964441 -1.06698367 0.71428571
v -0.05964441 -0.92412652 -0.85714286
v -0.05964441 -0.99555510 -0.78571429
v -0.05964441 -0.99555510 0.78571429
v -0.05964441 -0.92412652 0.85714286
v -0.05964441 -0.78126938 -0.85714286
v -0.05964441 -0.78126938 0.85714286
v -0.05964441 -0.63841224 -1.00000000
v -0.05964441 -0.70984081 -0.92857143
v -0.05964441 -0.70984081 0.92857143
v -0.05964441 -0.63841224 1.00000000
v -0.05964441 -0.49555510 -1.00000000
v -0.05964441 -0.49555510 1.00000000
v -0.05964441 -0.35269795 -1.00000000
v -0.05964441 -0.35269795 1.00000000
v -0.05964441 -0.20984081 -1.00000000
v -0.05964441 -0.20984081 1.00000000
v -0.05964441 -0.06698367 -1.00000000
v -0.05964441 -0.06698367 1.00000000
v -0.05964441 0.07587348 -1.00000000
v -0.05964441 0.07587348 1.00000000
v -0.05964441 0.21873062 -1.00000000
v -0.05964441 0.21873062 1.00000000
v -0.05964441 0.36158776 -1.00000000
v -0.05964441 0.36158776 1.00000000
v -0.05964441 0.50444490 -1.00000000
v -0.05964441 0.50444490 1.00000000
v -0.05964441 0.64730205 -1.00000000
v -0.05964441 0.64730205 1.00000000
v -0.05964441 0.79015919 -1.00000000
v -0.05964441 0.71873062 0.92857143
v -0.05964441 0.79015919 0.85714286
v -0.05964441 0.86158776 -0.92857143
v -0.05964441 0.93301633 -0.85714286
v -0.05964441 0.86158776 0.64285714
v -0.05964441 0.93301633 0.57142857
v -0.05964441 0.86158776 0.78571429
v -0.05964441 1.00444490 -0.78571429
v -0.05964441 1.07587348 -0.71428571
v -0.13107298 1.07587348 0.50000000
v -0.05964441 1.00444490 0.50000000
v -0.05964441 1.07587348 0.42857143
v -0.05964441 1.14730205 -0.64285714
v -0.05964441 1.14730205 -0.50000000
v -0.05964441 1.21873062 -0.42857143
v -0.05964441 1.14730205 0.35714286
v -0.05964441 1.21873062 0.28571429
v -0.05964441 1.29015919 -0.35714286
v -0.05964441 1.29015919 -0.21428571
v -0.05964441 1.29015919 -0.07142857
v -0.05964441 1.29015919 0.07142857
v -0.05964441 1.29015919 0.21428571
v 0.08321274 -1.20984081 -0.42857143
v 0.08321274 -1.28126938 -0.35714286
v 0.08321274 -1.28126938 -0.21428571
v 0.08321274 -1.28126938 -0.07142857
v 0.08321274 -1.28126938 0.07142857
v 0.08321274 -1.28126938 0.21428571
v 0.08321274 -1.20984081 0.28571429
v 0.08321274 -1.06698367 -0.71428571
v 0.08321274 -1.13841224 -0.64285714
v 0.08321274 -1.13841224 -0.50000000
v 0.08321274 -1.13841224 0.35714286
v 0.08321274 -1.13841224 0.50000000
v 0.01178416 -1.06698367 0.64285714
v 0.08321274 -1.06698367 0.57142857
v 0.08321274 -0.92412652 -0.85714286
v 0.08321274 -0.99555510 -0.78571429
v 0.08321274 -0.99555510 0.64285714
v 0.08321274 -0.99555510 0.78571429
v 0.08321274 -0.92412652 0.85714286
v 0.08321274 -0.78126938 -0.85714286
v 0.08321274 -0.78126938 0.85714286
v 0.08321274 -0.63841224 -1.00000000
v 0.08321274 -0.70984081 -0.92857143
v 0.08321274 -0.70984081 0.92857143
v 0.08321274 -0.63841224 1.00000000
v 0.08321274 -0.49555510 -1.00000000
v 0.08321274 -0.49555510 1.00000000
v 0.08321274 -0.35269795 -1.00000000
v 0.08321274 -0.35269795 1.00000000
v 0.08321274 -0.20984081 -1.00000000
v 0.08321274 -0.20984081 1.00000000
v 0.08321274 -0.06698367 -1.00000000
v 0.08321274 -0.06698367 1.00000000
v 0.08321274 0.07587348 -1.00000000
v 0.08321274 0.07587348 1.00000000
v 0.08321274 0.21873062 -1.00000000
v 0.08321274 0.21873062 1.00000000
v 0.08321274 0.36158776 -1.00000000
v 0.08321274 0.36158776 1.00000000
v 0.08321274 0.50444490 -1.00000000
v 0.08321274 0.50444490 1.00000000
v 0.08321274 0.64730205 -1.00000000
v 0.08321274 0.64730205 1.00000000
v 0.08321274 0.79015919 -1.00000000
v 0.08321274 0.71873062 0.92857143
v 0.08321274 0.79015919 0.85714286
v 0.08321274 0.86158776 -0.92857143
v 0.08321274 0.93301633 -0.85714286
v 0.08321274 0.86158776 0.64285714
v 0.08321274 0.93301633 0.57142857
v 0.08321274 0.86158776 0.78571429
v 0.08321274 1.00444490 -0.78571429
v 0.08321274 1.07587348 -0.71428571
v 0.08321274 1.00444490 0.50000000
v 0.08321274 1.07587348 0.42857143
v 0.08321274 1.14730205 -0.64285714
v 0.08321274 1.14730205 -0.50000000
v 0.08321274 1.21873062 -0.42857143
v 0.01178416 1.21873062 0.35714286
v 0.08321274 1.21873062 0.42857143
v 0.08321274 1.29015919 -0.35714286
v 0.08321274 1.29015919 -0.21428571
v 0.08321274 1.29015919 -0.07142857
v 0.08321274 1.29015919 0.07142857
v 0.08321274 1.29015919 0.21428571
v 0.08321274 1.29015919 0.35714286
v 0.22606988 -1.20984081 -0.42857143
v 0.22606988 -1.28126938 -0.35714286
v 0.22606988 -1.28126938 -0.21428571
v 0.22606988 -1.28126938 -0.07142857
v 0.22606988 -1.28126938 0.07142857
v 0.15464131 -1.20984081 0.21428571
v 0.22606988 -1.20984081 0.14285714
v 0.15464131 -1.06698367 -0.64285714
v 0.22606988 -1.06698367 -0.57142857
v 0.22606988 -1.13841224 -0.50000000
v 0.22606988 -1.13841224 0.21428571
v 0.22606988 -1.13841224 0.35714286
v 0.22606988 -1.13841224 0.50000000
v 0.22606988 -1.06698367 0.57142857
v 0.22606988 -0.92412652 -0.85714286
v 0.22606988 -0.99555510 -0.78571429
v 0.22606988 -0.99555510 -0.64285714
v 0.22606988 -0.99555510 0.64285714
v 0.22606988 -0.99555510 0.78571429
v 0.22606988 -0.92412652 0.85714286
v 0.22606988 -0.78126938 -0.85714286
v 0.22606988 -0.78126938 0.85714286
v 0.22606988 -0.63841224 -1.00000000
v 0.22606988 -0.70984081 -0.92857143
v 0.22606988 -0.70984081 0.92857143
v 0.22606988 -0.63841224 1.00000000
v 0.22606988 -0.49555510 -1.00000000
v 0.22606988 -0.49555510 1.00000000
v 0.22606988 -0.35269795 -1.00000000
v 0.22606988 -0.35269795 1.00000000
v 0.22606988 -0.20984081 -1.00000000
v 0.22606988 -0.20984081 1.00000000
v 0.22606988 -0.06698367 -1.00000000
v 0.22606988 -0.06698367 1.00000000
v 0.22606988 0.07587348 -1.00000000
v 0.22606988 0.07587348 1.00000000
v 0.22606988 0.21873062 -1.00000000
v 0.22606988 0.21873062 1.00000000
v 0.22606988 0.36158776 -1.00000000
v 0.22606988 0.36158776 1.00000000
v 0.22606988 0.50444490 -1.00000000
v 0.22606988 0.50444490 1.00000000
v 0.22606988 0.64730205 -1.00000000
v 0.22606988 0.64730205 1.00000000
v 0.22606988 0.71873062 -0.92857143
v 0.15464131 0.79015919 -0.92857143
v 0.22606988 0.79015919 -0.85714286
v 0.22606988 0.71873062 0.92857143
v 0.22606988 0.79015919 0.85714286
v 0.22606988 0.93301633 -0.85714286
v 0.22606988 0.86158776 0.64285714
v 0.22606988 0.93301633 0.57142857
v 0.22606988 0.86158776 0.78571429
v 0.22606988 1.00444490 -0.78571429
v 0.22606988 1.07587348 -0.71428571
v 0.15464131 1.07587348 0.35714286
v 0.22606988 1.00444490 0.35714286
v 0.22606988 1.07587348 0.28571429
v 0.22606988 1.00444490 0.50000000
v 0.22606988 1.14730205 -0.64285714
v 0.22606988 1.14730205 -0.50000000
v 0.22606988 1.21873062 -0.42857143
v 0.15464131 1.21873062 0.35714286
v 0.22606988 1.21873062 0.28571429
v 0.22606988 1.29015919 -0.35714286
v 0.22606988 1.29015919 -0.21428571
v 0.22606988 1.29015919 -0.07142857
v 0.22606988 1.29015919 0.07142857
v 0.22606988 1.29015919 0.21428571
v 0.29749845 -1.20984081 -0.35714286
v 0.36892702 -1.20984081 -0.28571429
v 0.36892702 -1.28126938 -0.21428571
v 0.36892702 -1.28126938 -0.07142857
v 0.36892702 -1.28126938 0.07142857
v 0.36892702 -1.20984081 0.14285714
v 0.36892702 -1.06698367 -0.57142857
v 0.36892702 -1.13841224 -0.50000000
v 0.36892702 -1.13841224 -0.35714286
v 0.36892702 -1.13841224 0.21428571
v 0.36892702 -1.13841224 0.35714286
v 0.36892702 -1.13841224 0.50000000
v 0.36892702 -1.06698367 0.57142857
v 0.29749845 -0.92412652 -0.78571429
v 0.36892702 -0.92412652 -0.71428571
v 0.36892702 -0.99555510 -0.64285714
v 0.36892702 -0.99555510 0.64285714
v 0.29749845 -0.92412652 0.78571429
v 0.36892702 -0.92412652 0.71428571
v 0.36892702 -0.78126938 -0.85714286
v 0.36892702 -0.85269795 -0.78571429
v 0.36892702 -0.85269795 0.78571429
v 0.36892702 -0.78126938 0.85714286
v 0.36892702 -0.63841224 -1.00000000
v 0.36892702 -0.70984081 -0.92857143
v 0.36892702 -0.70984081 0.92857143
v 0.36892702 -0.63841224 1.00000000
v 0.36892702 -0.49555510 -1.00000000
v 0.36892702 -0.49555510 1.00000000
v 0.36892702 -0.35269795 -1.00000000
v 0.36892702 -0.35269795 1.00000000
v 0.36892702 -0.20984081 -1.00000000
v 0.36892702 -0.20984081 1.00000000
v 0.36892702 -0.06698367 -1.00000000
v 0.36892702 -0.06698367 1.00000000
v 0.36892702 0.07587348 -1.00000000
v 0.36892702 0.07587348 1.00000000
v 0.36892702 0.21873062 -1.00000000
v 0.36892702 0.21873062 1.00000000
v 0.36892702 0.36158776 -1.00000000
v 0.36892702 0.36158776 1.00000000
v 0.36892702 0.50444490 -1.00000000
v 0.36892702 0.50444490 1.00000000
v 0.36892702 0.64730205 -1.00000000
v 0.36892702 0.64730205 1.00000000
v 0.36892702 0.71873062 -0.92857143
v 0.36892702 0.79015919 -0.85714286
v 0.36892702 0.71873062 0.92857143
v 0.36892702 0.79015919 0.85714286
v 0.36892702 0.93301633 -0.85714286
v 0.36892702 0.86158776 0.64285714
v 0.36892702 0.93301633 0.57142857
v 0.36892702 0.86158776 0.78571429
v 0.36892702 1.00444490 -0.78571429
v 0.29749845 1.07587348 -0.64285714
v 0.36892702 1.00444490 -0.64285714
v 0.36892702 1.07587348 -0.57142857
v 0.36892702 1.00444490 0.35714286
v 0.36892702 1.07587348 0.28571429
v 0.36892702 1.00444490 0.50000000
v 0.36892702 1.14730205 -0.50000000
v 0.29749845 1.21873062 -0.35714286
v 0.36892702 1.14730205 -0.35714286
v 0.36892702 1.21873062 -0.28571429
v 0.36892702 1.21873062 0.28571429
v 0.36892702 1.29015919 -0.21428571
v 0.36892702 1.29015919 -0.07142857
v 0.36892702 1.29015919 0.07142857
v 0.36892702 1.29015919 0.21428571
v 0.44035559 -1.20984081 -0.21428571
v 0.44035559 -1.20984081 -0.07142857
v 0.44035559 -1.20984081 0.07142857
v 0.51178416 -1.06698367 -0.57142857
v 0.51178416 -1.13841224 -0.50000000
v 0.51178416 -1.13841224 -0.35714286
v 0.51178416 -1.13841224 -0.21428571
v 0.51178416 -1.13841224 -0.07142857
v 0.51178416 -1.13841224 0.07142857
v 0.51178416 -1.13841224 0.21428571
v 0.51178416 -1.13841224 0.35714286
v 0.44035559 -1.06698367 0.50000000
v 0.51178416 -1.06698367 0.42857143
v 0.51178416 -0.92412652 -0.71428571
v 0.51178416 -0.99555510 -0.64285714
v 0.51178416 -0.99555510 0.50000000
v 0.51178416 -0.99555510 0.64285714
v 0.51178416 -0.92412652 0.71428571
v 0.51178416 -0.78126938 -0.85714286
v 0.51178416 -0.85269795 -0.78571429
v 0.51178416 -0.85269795 0.78571429
v 0.51178416 -0.78126938 0.85714286
v 0.44035559 -0.63841224 -0.92857143
v 0.51178416 -0.63841224 -0.85714286
v 0.44035559 -0.63841224 0.92857143
v 0.51178416 -0.63841224 0.85714286
v 0.51178416 -0.49555510 -1.00000000
v 0.51178416 -0.56698367 -0.92857143
v 0.51178416 -0.56698367 0.92857143
v 0.51178416 -0.49555510 1.00000000
v 0.51178416 -0.35269795 -1.00000000
v 0.51178416 -0.35269795 1.00000000
v 0.51178416 -0.20984081 -1.00000000
v 0.51178416 -0.20984081 1.00000000
v 0.51178416 -0.06698367 -1.00000000
v 0.51178416 -0.06698367 1.00000000
v 0.51178416 0.07587348 -1.00000000
v 0.51178416 0.07587348 1.00000000
v 0.51178416 0.21873062 -1.00000000
v 0.51178416 0.21873062 1.00000000
v 0.51178416 0.36158776 -1.00000000
v 0.51178416 0.36158776 1.00000000
v 0.51178416 0.50444490 -1.00000000
v 0.51178416 0.50444490 1.00000000
v 0.51178416 0.64730205 -1.00000000
v 0.51178416 0.64730205 1.00000000
v 0.51178416 0.71873062 -0.92857143
v 0.51178416 0.79015919 -0.85714286
v 0.44035559 0.79015919 0.78571429
v 0.51178416 0.71873062 0.78571429
v 0.51178416 0.79015919 0.71428571
v 0.51178416 0.71873062 0.92857143
v 0.51178416 0.86158776 -0.78571429
v 0.44035559 0.93301633 -0.78571429
v 0.51178416 0.93301633 -0.71428571
v 0.44035559 0.93301633 0.35714286
v 0.51178416 0.86158776 0.35714286
v 0.51178416 0.93301633 0.28571429
v 0.44035559 0.93301633 0.50000000
v 0.51178416 0.86158776 0.50000000
v 0.51178416 0.86158776 0.64285714
v 0.51178416 1.00444490 -0.64285714
v 0.44035559 1.07587348 -0.50000000
v 0.51178416 1.00444490 -0.50000000
v 0.51178416 1.07587348 -0.42857143
v 0.51178416 1.07587348 0.28571429
v 0.51178416 1.14730205 -0.35714286
v 0.44035559 1.21873062 -0.21428571
v 0.51178416 1.14730205 -0.21428571
v 0.44035559 1.21873062 -0.07142857
v 0.51178416 1.14730205 -0.07142857
v 0.44035559 1.21873062 0.07142857
v 0.51178416 1.14730205 0.07142857
v 0.44035559 1.21873062 0.21428571
v 0.51178416 1.14730205 0.21428571
v 0.58321274 -1.06698367 -0.50000000
v 0.65464131 -1.06698367 -0.42857143
v 0.65464131 -1.13841224 -0.35714286
v 0.65464131 -1.13841224 -0.21428571
v 0.65464131 -1.13841224 -0.07142857
v 0.65464131 -1.13841224 0.07142857
v 0.65464131 -1.13841224 0.21428571
v 0.58321274 -1.06698367 0.35714286
v 0.65464131 -1.06698367 0.28571429
v 0.58321274 -0.92412652 -0.64285714
v 0.65464131 -0.92412652 -0.57142857
v 0.65464131 -0.99555510 -0.50000000
v 0.65464131 -0.99555510 0.35714286
v 0.65464131 -0.99555510 0.50000000
v 0.58321274 -0.92412652 0.64285714
v 0.65464131 -0.92412652 0.57142857
v 0.58321274 -0.78126938 -0.78571429
v 0.65464131 -0.78126938 -0.71428571
v 0.65464131 -0.85269795 -0.64285714
v 0.65464131 -0.85269795 0.64285714
v 0.58321274 -0.78126938 0.78571429
v 0.65464131 -0.78126938 0.71428571
v 0.65464131 -0.63841224 -0.85714286
v 0.65464131 -0.70984081 -0.78571429
v 0.65464131 -0.70984081 0.78571429
v 0.65464131 -0.63841224 0.85714286
v 0.58321274 -0.49555510 -0.92857143
v 0.65464131 -0.49555510 -0.85714286
v 0.58321274 -0.49555510 0.92857143
v 0.65464131 -0.49555510 0.85714286
v 0.65464131 -0.35269795 -1.00000000
v 0.65464131 -0.42412652 -0.92857143
v 0.65464131 -0.42412652 0.92857143
v 0.65464131 -0.35269795 1.00000000
v 0.65464131 -0.20984081 -1.00000000
v 0.65464131 -0.20984081 1.00000000
v 0.65464131 -0.06698367 -1.00000000
v 0.65464131 -0.06698367 1.00000000
v 0.65464131 0.07587348 -1.00000000
v 0.65464131 0.07587348 1.00000000
v 0.65464131 0.21873062 -1.00000000
v 0.65464131 0.21873062 1.00000000
v 0.65464131 0.36158776 -1.00000000
v 0.65464131 0.36158776 1.00000000
v 0.65464131 0.43301633 -0.92857143
v 0.58321274 0.50444490 -0.92857143
v 0.65464131 0.50444490 -0.85714286
v 0.65464131 0.50444490 1.00000000
v 0.58321274 0.64730205 -0.92857143
v 0.65464131 0.64730205 -0.85714286
v 0.65464131 0.64730205 1.00000000
v 0.65464131 0.79015919 -0.85714286
v 0.58321274 0.79015919 0.50000000
v 0.65464131 0.71873062 0.50000000
v 0.65464131 0.79015919 0.42857143
v 0.58321274 0.79015919 0.64285714
v 0.65464131 0.71873062 0.64285714
v 0.65464131 0.71873062 0.78571429
v 0.65464131 0.71873062 0.92857143
v 0.65464131 0.86158776 -0.78571429
v 0.58321274 0.93301633 -0.64285714
v 0.65464131 0.86158776 -0.64285714
v 0.65464131 0.93301633 -0.57142857
v 0.65464131 0.86158776 0.35714286
v 0.65464131 0.93301633 0.28571429
v 0.65464131 1.00444490 -0.50000000
v 0.58321274 1.07587348 -0.35714286
v 0.65464131 1.00444490 -0.35714286
v 0.65464131 1.07587348 -0.28571429
v 0.65464131 1.07587348 0.28571429
v 0.65464131 1.14730205 -0.21428571
v 0.65464131 1.14730205 -0.07142857
v 0.65464131 1.14730205 0.07142857
v 0.65464131 1.14730205 0.21428571
v 0.72606988 -1.06698367 -0.35714286
v 0.72606988 -1.06698367 -0.21428571
v 0.72606988 -1.06698367 -0.07142857
v 0.72606988 -1.06698367 0.07142857
v 0.72606988 -1.06698367 0.21428571
v 0.72606988 -0.92412652 -0.50000000
v 0.79749845 -0.92412652 -0.42857143
v 0.79749845 -0.99555510 -0.35714286
v 0.79749845 -0.99555510 -0.21428571
v 0.79749845 -0.99555510 -0.07142857
v 0.79749845 -0.99555510 0.07142857
v 0.79749845 -0.99555510 0.21428571
v 0.72606988 -0.92412652 0.35714286
v 0.79749845 -0.92412652 0.28571429
v 0.72606988 -0.92412652 0.50000000
v 0.72606988 -0.78126938 -0.64285714
v 0.79749845 -0.78126938 -0.57142857
v 0.79749845 -0.85269795 -0.50000000
v 0.72606988 -0.78126938 0.35714286
v 0.79749845 -0.78126938 0.28571429
v 0.72606988 -0.78126938 0.50000000
v 0.72606988 -0.78126938 0.64285714
v 0.72606988 -0.63841224 -0.78571429
v 0.79749845 -0.63841224 -0.71428571
v 0.79749845 -0.70984081 -0.64285714
v 0.79749845 -0.70984081 0.35714286
v 0.79749845 -0.70984081 0.50000000
v 0.79749845 -0.70984081 0.64285714
v 0.72606988 -0.63841224 0.78571429
v 0.79749845 -0.63841224 0.71428571
v 0.79749845 -0.49555510 -0.85714286
v 0.79749845 -0.56698367 -0.78571429
v 0.79749845 -0.56698367 0.78571429
v 0.79749845 -0.49555510 0.85714286
v 0.72606988 -0.35269795 -0.92857143
v 0.79749845 -0.35269795 -0.85714286
v 0.72606988 -0.35269795 0.92857143
v 0.79749845 -0.35269795 0.85714286
v 0.72606988 -0.20984081 -0.92857143
v 0.79749845 -0.20984081 -0.85714286
v 0.72606988 -0.20984081 0.92857143
v 0.79749845 -0.20984081 0.85714286
v 0.72606988 -0.06698367 -0.92857143
v 0.79749845 -0.06698367 -0.85714286
v 0.72606988 -0.06698367 0.92857143
v 0.79749845 -0.06698367 0.85714286
v 0.72606988 0.07587348 -0.92857143
v 0.79749845 0.07587348 -0.85714286
v 0.72606988 0.07587348 0.92857143
v 0.79749845 0.07587348 0.85714286
v 0.72606988 0.21873062 -0.92857143
v 0.79749845 0.21873062 -0.85714286
v 0.72606988 0.21873062 0.92857143
v 0.79749845 0.21873062 0.85714286
v 0.72606988 0.36158776 -0.92857143
v 0.79749845 0.36158776 -0.85714286
v 0.72606988 0.36158776 0.92857143
v 0.79749845 0.36158776 0.85714286
v 0.79749845 0.50444490 -0.85714286
v 0.72606988 0.50444490 0.92857143
v 0.79749845 0.50444490 0.85714286
v 0.79749845 0.64730205 -0.85714286
v 0.72606988 0.64730205 0.50000000
v 0.79749845 0.57587348 0.50000000
v 0.79749845 0.64730205 0.42857143
v 0.72606988 0.64730205 0.64285714
v 0.79749845 0.57587348 0.64285714
v 0.72606988 0.64730205 0.78571429
v 0.79749845 0.57587348 0.78571429
v 0.72606988 0.64730205 0.92857143
v 0.79749845 0.71873062 -0.78571429
v 0.72606988 0.79015919 -0.78571429
v 0.72606988 0.79015919 -0.64285714
v 0.79749845 0.71873062 -0.64285714
v 0.79749845 0.79015919 -0.57142857
v 0.72606988 0.79015919 0.35714286
v 0.79749845 0.71873062 0.35714286
v 0.79749845 0.79015919 0.28571429
v 0.72606988 0.93301633 -0.50000000
v 0.79749845 0.86158776 -0.50000000
v 0.79749845 0.93301633 -0.42857143
v 0.72606988 0.93301633 0.21428571
v 0.79749845 0.86158776 0.21428571
v 0.79749845 0.93301633 0.14285714
v 0.79749845 1.00444490 -0.35714286
v 0.72606988 1.07587348 -0.21428571
v 0.79749845 1.00444490 -0.21428571
v 0.72606988 1.07587348 -0.07142857
v 0.79749845 1.00444490 -0.07142857
v 0.72606988 1.07587348 0.07142857
v 0.79749845 1.00444490 0.07142857
v 0.72606988 1.07587348 0.21428571
v 0.86892702 -0.92412652 -0.35714286
v 0.86892702 -0.92412652 -0.21428571
v 0.86892702 -0.92412652 -0.07142857
v 0.86892702 -0.92412652 0.07142857
v 0.86892702 -0.92412652 0.21428571
v 0.86892702 -0.78126938 -0.50000000
v 0.86892702 -0.78126938 -0.35714286
v 0.94035559 -0.78126938 -0.28571429
v 0.94035559 -0.85269795 -0.21428571
v 0.94035559 -0.85269795 -0.07142857
v 0.94035559 -0.85269795 0.07142857
v 0.94035559 -0.85269795 0.21428571
v 0.94035559 -0.78126938 0.28571429
v 0.86892702 -0.63841224 -0.64285714
v 0.94035559 -0.63841224 -0.57142857
v 0.94035559 -0.70984081 -0.50000000
v 0.94035559 -0.70984081 -0.35714286
v 0.94035559 -0.70984081 0.35714286
v 0.94035559 -0.70984081 0.50000000
v 0.86892702 -0.63841224 0.64285714
v 0.94035559 -0.63841224 0.57142857
v 0.86892702 -0.49555510 -0.78571429
v 0.94035559 -0.49555510 -0.71428571
v 0.94035559 -0.56698367 -0.64285714
v 0.94035559 -0.56698367 0.64285714
v 0.86892702 -0.49555510 0.78571429
v 0.94035559 -0.49555510 0.71428571
v 0.86892702 -0.35269795 -0.78571429
v 0.94035559 -0.35269795 -0.71428571
v 0.86892702 -0.35269795 0.78571429
v 0.94035559 -0.35269795 0.71428571
v 0.94035559 -0.20984081 -0.85714286
v 0.94035559 -0.28126938 -0.78571429
v 0.94035559 -0.28126938 0.78571429
v 0.94035559 -0.20984081 0.85714286
v 0.94035559 -0.06698367 -0.85714286
v 0.94035559 -0.06698367 0.85714286
v 0.94035559 0.07587348 -0.85714286
v 0.94035559 0.07587348 0.85714286
v 0.94035559 0.21873062 -0.85714286
v 0.86892702 0.21873062 0.78571429
v 0.94035559 0.14730205 0.78571429
v 0.94035559 0.21873062 0.71428571
v 0.94035559 0.36158776 -0.85714286
v 0.86892702 0.36158776 0.64285714
v 0.94035559 0.29015919 0.64285714
v 0.94035559 0.36158776 0.57142857
v 0.86892702 0.36158776 0.78571429
v 0.94035559 0.43301633 -0.78571429
v 0.86892702 0.50444490 -0.78571429
v 0.94035559 0.50444490 -0.71428571
v 0.86892702 0.50444490 0.35714286
v 0.94035559 0.43301633 0.35714286
v 0.94035559 0.50444490 0.28571429
v 0.86892702 0.50444490 0.50000000
v 0.94035559 0.43301633 0.50000000
v 0.86892702 0.50444490 0.64285714
v 0.86892702 0.50444490 0.78571429
v 0.86892702 0.64730205 -0.78571429
v 0.94035559 0.57587348 -0.64285714
v 0.86892702 0.64730205 -0.64285714
v 0.94035559 0.64730205 -0.57142857
v 0.86892702 0.64730205 0.35714286
v 0.94035559 0.64730205 0.28571429
v 0.86892702 0.79015919 -0.50000000
v 0.94035559 0.71873062 -0.50000000
v 0.94035559 0.79015919 -0.42857143
v 0.94035559 0.79015919 0.28571429
v 0.86892702 0.93301633 -0.35714286
v 0.94035559 0.86158776 -0.35714286
v 0.86892702 0.93301633 -0.21428571
v 0.94035559 0.86158776 -0.21428571
v 0.86892702 0.93301633 -0.07142857
v 0.94035559 0.86158776 -0.07142857
v 0.86892702 0.93301633 0.07142857
v 0.94035559 0.86158776 0.07142857
v 0.94035559 0.86158776 0.21428571
v 1.01178416 -0.78126938 -0.21428571
v 1.01178416 -0.78126938 -0.07142857
v 1.01178416 -0.78126938 0.07142857
v 1.01178416 -0.78126938 0.21428571
v 1.01178416 -0.63841224 -0.50000000
v 1.01178416 -0.63841224 -0.35714286
v 1.08321274 -0.63841224 -0.28571429
v 1.08321274 -0.70984081 -0.21428571
v 1.08321274 -0.70984081 -0.07142857
v 1.08321274 -0.70984081 0.07142857
v 1.08321274 -0.70984081 0.21428571
v 1.01178416 -0.63841224 0.35714286
v 1.08321274 -0.63841224 0.28571429
v 1.01178416 -0.63841224 0.50000000
v 1.01178416 -0.49555510 -0.64285714
v 1.01178416 -0.49555510 -0.50000000
v 1.08321274 -0.49555510 -0.42857143
v 1.08321274 -0.56698367 -0.35714286
v 1.01178416 -0.49555510 0.35714286
v 1.08321274 -0.49555510 0.28571429
v 1.01178416 -0.49555510 0.50000000
v 1.01178416 -0.49555510 0.64285714
v 1.01178416 -0.35269795 -0.64285714
v 1.08321274 -0.35269795 -0.57142857
v 1.08321274 -0.42412652 -0.50000000
v 1.01178416 -0.35269795 0.35714286
v 1.08321274 -0.35269795 0.28571429
v 1.01178416 -0.35269795 0.50000000
v 1.01178416 -0.35269795 0.64285714
v 1.01178416 -0.20984081 -0.78571429
v 1.08321274 -0.20984081 -0.71428571
v 1.08321274 -0.28126938 -0.64285714
v 1.08321274 -0.28126938 0.35714286
v 1.08321274 -0.20984081 0.42857143
v 1.01178416 -0.20984081 0.50000000
v 1.01178416 -0.20984081 0.64285714
v 1.01178416 -0.20984081 0.78571429
v 1.01178416 -0.06698367 -0.78571429
v 1.08321274 -0.06698367 -0.71428571
v 1.01178416 -0.06698367 0.50000000
v 1.08321274 -0.06698367 0.42857143
v 1.01178416 -0.06698367 0.64285714
v 1.01178416 -0.06698367 0.78571429
v 1.01178416 0.07587348 -0.78571429
v 1.08321274 0.07587348 -0.71428571
v 1.01178416 0.07587348 0.50000000
v 1.08321274 0.07587348 0.42857143
v 1.01178416 0.07587348 0.64285714
v 1.01178416 0.07587348 0.78571429
v 1.01178416 0.21873062 -0.78571429
v 1.08321274 0.14730205 -0.64285714
v 1.01178416 0.21873062 -0.64285714
v 1.08321274 0.21873062 -0.57142857
v 1.01178416 0.21873062 0.50000000
v 1.08321274 0.21873062 0.42857143
v 1.01178416 0.21873062 0.64285714
v 1.01178416 0.36158776 -0.78571429
v 1.01178416 0.36158776 -0.64285714
v 1.08321274 0.36158776 -0.57142857
v 1.01178416 0.36158776 0.35714286
v 1.08321274 0.29015919 0.35714286
v 1.08321274 0.36158776 0.28571429
v 1.01178416 0.36158776 0.50000000
v 1.01178416 0.50444490 -0.64285714
v 1.08321274 0.50444490 -0.57142857
v 1.08321274 0.50444490 0.28571429
v 1.01178416 0.64730205 -0.50000000
v 1.08321274 0.57587348 -0.50000000
v 1.01178416 0.64730205 -0.35714286
v 1.08321274 0.57587348 -0.35714286
v 1.08321274 0.64730205 -0.28571429
v 1.08321274 0.64730205 0.28571429
v 1.01178416 0.79015919 -0.35714286
v 1.08321274 0.71873062 -0.21428571
v 1.01178416 0.79015919 -0.21428571
v 1.01178416 0.79015919 -0.07142857
v 1.08321274 0.71873062 -0.07142857
v 1.01178416 0.79015919 0.07142857
v 1.08321274 0.71873062 0.07142857
v 1.01178416 0.79015919 0.21428571
v 1.08321274 0.71873062 0.21428571
v 1.15464131 -0.63841224 -0.21428571
v 1.15464131 -0.63841224 -0.07142857
v 1.15464131 -0.63841224 0.07142857
v 1.15464131 -0.63841224 0.21428571
v 1.15464131 -0.49555510 -0.35714286
v 1.15464131 -0.49555510 -0.21428571
v 1.15464131 -0.49555510 -0.07142857
v 1.22606988 -0.49555510 0.00000000
v 1.22606988 -0.56698367 0.07142857
v 1.22606988 -0.49555510 0.14285714
v 1.15464131 -0.49555510 0.21428571
v 1.15464131 -0.35269795 -0.50000000
v 1.15464131 -0.35269795 -0.35714286
v 1.22606988 -0.35269795 -0.28571429
v 1.22606988 -0.42412652 -0.21428571
v 1.22606988 -0.42412652 -0.07142857
v 1.15464131 -0.35269795 0.21428571
v 1.22606988 -0.35269795 0.14285714
v 1.15464131 -0.20984081 -0.64285714
v 1.15464131 -0.20984081 -0.50000000
v 1.15464131 -0.20984081 -0.35714286
v 1.22606988 -0.20984081 -0.28571429
v 1.15464131 -0.20984081 0.21428571
v 1.22606988 -0.20984081 0.14285714
v 1.15464131 -0.20984081 0.35714286
v 1.15464131 -0.06698367 -0.64285714
v 1.15464131 -0.06698367 -0.50000000
v 1.22606988 -0.06698367 -0.42857143
v 1.22606988 -0.13841224 -0.35714286
v 1.22606988 -0.13841224 0.21428571
v 1.22606988 -0.06698367 0.28571429
v 1.15464131 -0.06698367 0.35714286
v 1.15464131 0.07587348 -0.64285714
v 1.15464131 0.07587348 -0.50000000
v 1.22606988 0.07587348 -0.42857143
v 1.15464131 0.07587348 0.35714286
v 1.22606988 0.07587348 0.28571429
v 1.15464131 0.21873062 -0.50000000
v 1.22606988 0.14730205 -0.35714286
v 1.15464131 0.21873062 -0.35714286
v 1.22606988 0.21873062 -0.28571429
v 1.15464131 0.21873062 0.35714286
v 1.22606988 0.21873062 0.28571429
v 1.15464131 0.36158776 -0.50000000
v 1.15464131 0.36158776 -0.35714286
v 1.22606988 0.29015919 -0.21428571
v 1.15464131 0.36158776 -0.21428571
v 1.15464131 0.36158776 -0.07142857
v 1.22606988 0.29015919 -0.07142857
v 1.15464131 0.36158776 0.07142857
v 1.22606988 0.29015919 0.07142857
v 1.15464131 0.36158776 0.21428571
v 1.22606988 0.29015919 0.21428571
v 1.15464131 0.50444490 -0.50000000
v 1.15464131 0.50444490 -0.35714286
v 1.15464131 0.50444490 -0.21428571
v 1.15464131 0.50444490 -0.07142857
v 1.15464131 0.50444490 0.07142857
v 1.15464131 0.50444490 0.21428571
v 1.15464131 0.64730205 -0.21428571
v 1.15464131 0.64730205 -0.07142857
v 1.15464131 0.64730205 0.07142857
v 1.15464131 0.64730205 0.21428571
v 1.29749845 -0.49555510 0.07142857
v 1.29749845 -0.35269795 -0.21428571
v 1.29749845 -0.35269795 -0.07142857
v 1.29749845 -0.35269795 0.07142857
v 1.29749845 -0.20984081 -0.21428571
v 1.29749845 -0.20984081 -0.07142857
v 1.29749845 -0.20984081 0.07142857
v 1.29749845 -0.06698367 -0.35714286
v 1.29749845 -0.06698367 -0.21428571
v 1.29749845 -0.06698367 -0.07142857
v 1.29749845 -0.06698367 0.07142857
v 1.29749845 -0.06698367 0.21428571
v 1.29749845 0.07587348 -0.35714286
v 1.29749845 0.07587348 -0.21428571
v 1.29749845 0.07587348 -0.07142857
v 1.29749845 0.07587348 0.07142857
v 1.29749845 0.07587348 0.21428571
v 1.29749845 0.21873062 -0.21428571
v 1.29749845 0.21873062 -0.07142857
v 1.29749845 0.21873062 0.07142857
v 1.29749845 0.21873062 0.21428571
f 3 2 1
f 5 4 1
f 1 4 3
f 7 6 5
f 5 6 4
f 9 8 7
f 7 8 6
f 11 10 9
f 9 10 8
f 11 12 10
f 1 2 13
f 13 2 14
f 1 15 5
f 1 13 15
f 5 16 7
f 5 15 16
f 7 17 9
f 7 16 17
f 9 18 11
f 9 17 18
f 12 11 19
f 11 20 19
f 11 18 20
f 20 21 19
f 13 14 22
f 22 14 23
f 13 24 15
f 13 22 24
f 15 25 16
f 15 24 25
f 16 26 17
f 16 25 26
f 17 27 18
f 17 26 27
f 18 28 20
f 18 27 28
f 21 20 29
f 29 20 28
f 22 23 30
f 30 23 31
f 22 32 24
f 22 30 32
f 24 33 25
f 24 32 33
f 25 34 26
f 25 33 34
f 26 35 27
f 26 34 35
f 27 36 28
f 27 35 36
f 29 28 37
f 37 28 36
f 30 31 38
f 38 31 39
f 30 40 32
f 30 38 40
f 32 41 33
f 32 40 41
f 33 42 34
f 33 41 42
f 34 43 35
f 34 42 43
f 35 44 36
f 35 43 44
f 37 36 45
f 45 36 44
f 38 39 46
f 46 39 47
f 38 48 40
f 38 46 48
f 40 49 41
f 40 48 49
f 41 50 42
f 41 49 50
f 42 51 43
f 42 50 51
f 53 44 52
f 44 51 52
f 44 43 51
f 44 53 45
f 47 54 46
f 46 54 48
f 48 54 55
f 48 55 49
f 49 55 56
f 49 56 50
f 50 56 57
f 50 57 51
f 51 57 58
f 51 58 52
f 61 60 59
f 63 62 59
f 59 62 61
f 65 64 63
f 63 64 62
f 67 66 65
f 65 66 64
f 69 68 67
f 67 68 66
f 71 70 69
f 69 70 68
f 71 72 70
f 75 74 73
f 75 73 60
f 73 59 60
f 73 76 59
f 59 77 63
f 59 76 77
f 63 78 65
f 63 77 78
f 65 79 67
f 65 78 79
f 67 80 69
f 67 79 80
f 69 81 71
f 69 80 81
f 72 71 82
f 71 83 82
f 71 81 83
f 83 84 82
f 73 74 85
f 85 74 86
f 85 2 3
f 76 85 3
f 73 85 76
f 76 3 4
f 76 4 77
f 77 4 6
f 77 6 78
f 78 6 8
f 78 8 79
f 79 8 10
f 79 10 80
f 80 10 12
f 87 80 12
f 81 80 87
f 81 88 83
f 81 87 88
f 84 83 89
f 89 83 88
f 92 91 90
f 92 90 86
f 90 85 86
f 90 93 85
f 93 14 2
f 93 2 85
f 19 87 12
f 87 19 21
f 94 87 21
f 88 87 94
f 89 88 95
f 88 96 95
f 88 94 96
f 96 97 95
f 90 91 98
f 98 91 99
f 90 100 93
f 90 98 100
f 100 23 14
f 100 14 93
f 29 101 94
f 29 94 21
f 94 102 96
f 94 101 102
f 97 96 103
f 103 96 102
f 98 99 104
f 104 99 105
f 98 106 100
f 98 104 106
f 106 31 23
f 106 23 100
f 37 107 101
f 37 101 29
f 101 108 102
f 101 107 108
f 103 102 109
f 109 102 108
f 104 105 110
f 110 105 111
f 104 112 106
f 104 110 112
f 112 39 31
f 112 31 106
f 45 113 107
f 45 107 37
f 115 108 114
f 108 113 114
f 108 107 113
f 108 115 109
f 110 111 116
f 116 111 117
f 110 118 112
f 110 116 118
f 118 47 39
f 118 39 112
f 52 119 53
f 113 45 53
f 119 113 53
f 120 113 119
f 114 113 121
f 121 113 120
f 117 122 116
f 116 122 118
f 118 122 123
f 123 125 124
f 123 124 54
f 118 123 54
f 47 118 54
f 126 55 54
f 126 54 124
f 127 56 55
f 127 55 126
f 128 57 56
f 128 56 127
f 129 58 57
f 129 57 128
f 119 52 58
f 129 119 58
f 130 119 129
f 132 120 131
f 120 130 131
f 120 119 130
f 120 132 121
f 125 133 124
f 135 134 133
f 134 124 133
f 134 126 124
f 126 136 127
f 126 134 136
f 127 137 128
f 127 136 137
f 128 138 129
f 128 137 138
f 140 130 139
f 130 138 139
f 130 129 138
f 130 140 131
f 135 141 134
f 134 141 136
f 136 141 142
f 136 142 137
f 137 142 143
f 137 143 138
f 138 143 144
f 138 144 139
f 147 146 145
f 149 148 145
f 145 148 147
f 151 150 149
f 149 150 148
f 153 152 151
f 151 152 150
f 155 154 153
f 153 154 152
f 157 156 155
f 155 156 154
f 157 158 156
f 161 160 159
f 161 159 146
f 146 159 145
f 159 60 145
f 60 61 145
f 145 61 62
f 145 62 149
f 149 62 64
f 149 64 151
f 151 64 66
f 151 66 153
f 153 66 68
f 153 68 155
f 155 68 70
f 155 70 157
f 163 162 72
f 72 162 70
f 162 158 70
f 158 157 70
f 163 164 162
f 167 166 165
f 167 165 160
f 160 165 159
f 165 74 159
f 74 75 159
f 159 75 60
f 82 163 72
f 169 168 84
f 84 168 82
f 168 164 82
f 164 163 82
f 169 170 168
f 165 166 171
f 171 166 172
f 171 86 74
f 171 74 165
f 89 173 169
f 89 169 84
f 170 169 174
f 174 169 173
f 177 176 175
f 177 175 172
f 172 175 171
f 175 91 171
f 91 92 171
f 171 92 86
f 95 173 89
f 179 178 97
f 97 178 95
f 178 174 95
f 174 173 95
f 179 180 178
f 175 176 181
f 181 176 182
f 181 99 91
f 181 91 175
f 103 183 179
f 103 179 97
f 180 179 184
f 184 179 183
f 181 182 185
f 185 182 186
f 185 105 99
f 185 99 181
f 109 187 183
f 109 183 103
f 184 183 188
f 188 183 187
f 185 186 189
f 189 186 190
f 189 111 105
f 189 105 185
f 114 191 115
f 187 109 115
f 191 187 115
f 192 187 191
f 188 187 193
f 193 187 192
f 189 190 194
f 194 190 195
f 194 117 111
f 194 111 189
f 121 196 191
f 121 191 114
f 198 192 197
f 192 196 197
f 192 191 196
f 192 198 193
f 195 199 194
f 199 201 200
f 199 200 122
f 194 199 122
f 117 194 122
f 202 123 122
f 202 122 200
f 202 125 123
f 131 203 132
f 196 121 132
f 203 196 132
f 204 196 203
f 197 196 205
f 205 196 204
f 201 206 200
f 208 207 206
f 207 200 206
f 207 202 200
f 209 133 125
f 202 209 125
f 207 209 202
f 209 135 133
f 139 210 140
f 203 131 140
f 210 203 140
f 211 203 210
f 213 204 212
f 204 211 212
f 204 203 211
f 204 213 205
f 208 214 207
f 216 215 214
f 215 207 214
f 215 209 207
f 217 141 135
f 209 217 135
f 215 217 209
f 218 142 141
f 218 141 217
f 219 143 142
f 219 142 218
f 220 144 143
f 220 143 219
f 210 139 144
f 220 210 144
f 221 210 220
f 223 211 222
f 211 221 222
f 211 210 221
f 211 223 212
f 216 224 215
f 215 224 217
f 217 224 225
f 217 225 218
f 218 225 226
f 218 226 219
f 219 226 227
f 219 227 220
f 220 227 228
f 220 228 221
f 221 228 229
f 221 229 222
f 232 231 230
f 234 233 230
f 230 233 232
f 236 235 234
f 234 235 233
f 238 237 236
f 236 237 235
f 240 239 238
f 238 239 237
f 240 241 239
f 244 243 242
f 246 245 242
f 242 245 244
f 245 246 231
f 231 246 230
f 246 146 230
f 146 147 230
f 230 147 148
f 230 148 234
f 234 148 150
f 234 150 236
f 236 150 152
f 236 152 238
f 238 152 154
f 238 154 240
f 247 241 240
f 154 247 240
f 156 247 154
f 249 248 158
f 248 156 158
f 248 247 156
f 249 250 248
f 242 243 251
f 251 243 252
f 251 160 161
f 246 251 161
f 242 251 246
f 246 161 146
f 162 249 158
f 254 253 164
f 164 253 162
f 253 250 162
f 250 249 162
f 254 255 253
f 258 257 256
f 258 256 252
f 252 256 251
f 256 166 251
f 166 167 251
f 251 167 160
f 168 254 164
f 260 259 170
f 170 259 168
f 259 255 168
f 255 254 168
f 260 261 259
f 256 257 262
f 262 257 263
f 262 172 166
f 262 166 256
f 174 264 260
f 174 260 170
f 261 260 265
f 265 260 264
f 262 263 177
f 263 176 177
f 263 266 176
f 262 177 172
f 178 264 174
f 178 180 264
f 180 265 264
f 180 267 265
f 266 182 176
f 268 182 266
f 184 267 180
f 184 269 267
f 268 186 182
f 270 186 268
f 188 269 184
f 188 271 269
f 270 190 186
f 272 190 270
f 193 271 188
f 193 273 271
f 272 195 190
f 274 195 272
f 197 275 198
f 275 276 198
f 276 193 198
f 276 273 193
f 199 195 277
f 195 278 277
f 195 274 278
f 277 201 199
f 205 279 275
f 205 275 197
f 276 275 280
f 280 275 279
f 278 281 277
f 281 283 282
f 281 282 206
f 277 281 206
f 201 277 206
f 282 208 206
f 212 284 213
f 284 285 213
f 213 285 205
f 285 286 205
f 286 279 205
f 279 286 280
f 283 287 282
f 287 289 288
f 287 288 214
f 282 287 214
f 208 282 214
f 288 216 214
f 222 290 223
f 290 291 223
f 223 291 212
f 291 292 212
f 292 284 212
f 284 292 285
f 289 293 288
f 293 295 294
f 293 294 224
f 288 293 224
f 216 288 224
f 296 225 224
f 296 224 294
f 297 226 225
f 297 225 296
f 298 227 226
f 298 226 297
f 299 228 227
f 299 227 298
f 228 299 300
f 301 228 300
f 229 228 301
f 222 229 290
f 229 302 290
f 229 301 302
f 290 302 291
f 295 303 294
f 294 303 296
f 296 303 304
f 296 304 297
f 297 304 305
f 297 305 298
f 298 305 306
f 298 306 299
f 299 306 307
f 299 307 300
f 310 309 308
f 312 311 308
f 308 311 310
f 314 313 312
f 312 313 311
f 316 315 314
f 314 315 313
f 316 317 315
f 320 319 318
f 231 232 318
f 232 320 318
f 232 321 320
f 233 308 309
f 321 233 309
f 232 233 321
f 308 233 235
f 308 235 312
f 312 235 237
f 312 237 314
f 314 237 239
f 314 239 316
f 323 322 241
f 241 322 239
f 322 317 239
f 317 316 239
f 325 324 323
f 323 324 322
f 325 326 324
f 328 327 244
f 244 327 243
f 245 318 319
f 328 245 319
f 244 245 328
f 318 245 231
f 247 323 241
f 323 247 248
f 323 248 325
f 330 329 250
f 250 329 248
f 329 326 248
f 326 325 248
f 330 331 329
f 334 333 332
f 327 334 332
f 252 327 332
f 243 327 252
f 253 330 250
f 336 335 255
f 255 335 253
f 335 331 253
f 331 330 253
f 336 337 335
f 332 333 258
f 333 257 258
f 333 338 257
f 332 258 252
f 259 336 255
f 259 261 336
f 261 337 336
f 261 339 337
f 342 341 340
f 338 342 340
f 263 338 340
f 257 338 263
f 265 344 343
f 339 265 343
f 261 265 339
f 344 345 343
f 340 341 346
f 346 341 347
f 346 266 263
f 346 263 340
f 267 348 344
f 267 344 265
f 345 344 349
f 349 344 348
f 346 347 350
f 350 347 351
f 350 268 266
f 350 266 346
f 269 352 348
f 269 348 267
f 349 348 353
f 353 348 352
f 350 351 354
f 354 351 355
f 354 270 268
f 354 268 350
f 271 356 352
f 271 352 269
f 353 352 357
f 357 352 356
f 354 355 358
f 358 355 359
f 358 272 270
f 358 270 354
f 273 360 356
f 273 356 271
f 357 356 361
f 361 356 360
f 358 359 362
f 362 359 363
f 362 274 272
f 362 272 358
f 276 364 360
f 276 360 273
f 361 360 365
f 365 360 364
f 363 366 362
f 274 362 366
f 367 274 366
f 278 274 367
f 369 368 364
f 276 369 364
f 280 369 276
f 364 368 365
f 281 278 370
f 278 371 370
f 278 367 371
f 370 283 281
f 285 372 286
f 372 373 286
f 373 280 286
f 373 369 280
f 371 374 370
f 374 376 375
f 374 375 287
f 370 374 287
f 283 370 287
f 375 289 287
f 378 377 292
f 378 292 291
f 285 292 372
f 292 379 372
f 292 377 379
f 372 379 373
f 376 380 375
f 380 382 381
f 380 381 293
f 375 380 293
f 289 375 293
f 381 295 293
f 300 383 301
f 384 302 301
f 384 301 383
f 384 385 302
f 385 291 302
f 385 378 291
f 382 386 381
f 386 388 387
f 386 387 303
f 381 386 303
f 295 381 303
f 389 304 303
f 389 303 387
f 390 305 304
f 390 304 389
f 391 306 305
f 391 305 390
f 392 307 306
f 392 306 391
f 383 300 307
f 392 383 307
f 393 383 392
f 395 384 394
f 384 393 394
f 384 383 393
f 384 395 385
f 388 396 387
f 387 396 389
f 389 396 397
f 389 397 390
f 390 397 398
f 390 398 391
f 391 398 399
f 391 399 392
f 392 399 400
f 392 400 393
f 393 400 401
f 393 401 394
f 404 403 402
f 406 405 402
f 402 405 404
f 309 310 406
f 310 405 406
f 310 407 405
f 408 310 311
f 408 407 310
f 409 311 313
f 409 408 311
f 410 313 315
f 410 409 313
f 315 317 410
f 410 317 411
f 414 413 412
f 414 412 403
f 403 412 402
f 412 319 402
f 319 320 402
f 402 320 321
f 402 321 406
f 406 321 309
f 415 411 317
f 415 317 322
f 416 322 324
f 416 415 322
f 418 417 326
f 417 324 326
f 417 416 324
f 418 419 417
f 422 421 420
f 422 420 413
f 413 420 412
f 420 327 412
f 327 328 412
f 412 328 319
f 329 418 326
f 424 423 331
f 331 423 329
f 423 419 329
f 419 418 329
f 424 425 423
f 420 421 334
f 421 333 334
f 421 426 333
f 420 334 327
f 335 424 331
f 335 337 424
f 337 425 424
f 337 427 425
f 430 429 428
f 426 430 428
f 338 426 428
f 333 426 338
f 339 432 431
f 427 339 431
f 337 339 427
f 432 433 431
f 428 429 342
f 429 341 342
f 429 434 341
f 428 342 338
f 343 432 339
f 343 345 432
f 345 433 432
f 345 435 433
f 434 347 341
f 436 347 434
f 349 435 345
f 349 437 435
f 436 351 347
f 438 351 436
f 353 437 349
f 353 439 437
f 438 355 351
f 440 355 438
f 357 439 353
f 357 441 439
f 440 359 355
f 442 359 440
f 361 441 357
f 361 443 441
f 442 363 359
f 444 363 442
f 365 443 361
f 365 445 443
f 366 363 446
f 363 447 446
f 363 444 447
f 446 367 366
f 449 448 368
f 449 368 369
f 365 368 445
f 445 368 448
f 447 450 446
f 367 446 450
f 451 367 450
f 371 367 451
f 373 449 369
f 373 452 449
f 374 371 453
f 371 454 453
f 371 451 454
f 453 376 374
f 456 455 377
f 456 377 378
f 377 457 379
f 455 457 377
f 373 379 452
f 452 379 457
f 454 458 453
f 458 460 459
f 458 459 380
f 453 458 380
f 376 453 380
f 459 382 380
f 385 456 378
f 385 461 456
f 460 462 459
f 462 464 463
f 462 463 386
f 459 462 386
f 382 459 386
f 463 388 386
f 394 465 395
f 465 466 395
f 466 385 395
f 466 461 385
f 464 467 463
f 463 467 388
f 467 396 388
f 467 468 396
f 396 469 397
f 468 469 396
f 397 470 398
f 469 470 397
f 398 471 399
f 470 471 398
f 399 472 400
f 471 472 399
f 400 473 401
f 472 473 400
f 394 401 465
f 401 474 465
f 401 473 474
f 465 474 466
f 477 476 475
f 479 478 475
f 475 478 477
f 481 480 479
f 479 480 478
f 483 482 481
f 481 482 480
f 485 484 483
f 483 484 482
f 485 486 484
f 488 487 404
f 404 487 403
f 405 475 476
f 488 405 476
f 404 405 488
f 475 405 407
f 475 407 479
f 479 407 408
f 479 408 481
f 481 408 409
f 481 409 483
f 483 409 410
f 483 410 485
f 490 489 411
f 411 489 410
f 489 486 410
f 486 485 410
f 492 491 490
f 490 491 489
f 492 493 491
f 496 495 494
f 413 414 494
f 414 496 494
f 414 497 496
f 414 403 487
f 414 487 497
f 415 490 411
f 490 415 416
f 490 416 492
f 498 493 492
f 416 498 492
f 417 498 416
f 500 499 419
f 499 417 419
f 499 498 417
f 500 501 499
f 494 495 422
f 495 421 422
f 495 502 421
f 494 422 413
f 423 500 419
f 423 425 500
f 425 501 500
f 425 503 501
f 506 505 504
f 502 506 504
f 426 502 504
f 421 502 426
f 427 508 507
f 503 427 507
f 425 427 503
f 508 509 507
f 504 505 430
f 505 429 430
f 505 510 429
f 504 430 426
f 431 508 427
f 431 433 508
f 433 509 508
f 433 511 509
f 510 434 429
f 512 434 510
f 435 511 433
f 435 513 511
f 512 436 434
f 514 436 512
f 437 513 435
f 437 515 513
f 514 438 436
f 516 438 514
f 439 515 437
f 439 517 515
f 516 440 438
f 518 440 516
f 441 517 439
f 441 519 517
f 518 442 440
f 520 442 518
f 443 519 441
f 443 521 519
f 520 444 442
f 522 444 520
f 445 521 443
f 445 523 521
f 522 447 444
f 524 447 522
f 449 525 448
f 525 526 448
f 526 445 448
f 526 523 445
f 450 447 527
f 447 528 527
f 447 524 528
f 527 451 450
f 452 529 525
f 452 525 449
f 526 525 530
f 530 525 529
f 528 531 527
f 451 527 531
f 532 451 531
f 454 451 532
f 456 533 455
f 455 533 534
f 535 455 534
f 457 455 535
f 452 457 529
f 457 536 529
f 457 535 536
f 529 536 530
f 458 454 537
f 454 538 537
f 454 532 538
f 537 460 458
f 461 539 533
f 461 533 456
f 534 533 540
f 540 533 539
f 538 541 537
f 537 541 460
f 541 462 460
f 541 542 462
f 464 462 542
f 464 542 543
f 545 544 539
f 461 545 539
f 466 545 461
f 539 544 540
f 543 546 464
f 464 546 467
f 546 548 547
f 468 546 547
f 467 546 468
f 549 469 468
f 549 468 547
f 550 470 469
f 550 469 549
f 551 471 470
f 551 470 550
f 552 472 471
f 552 471 551
f 472 552 553
f 554 472 553
f 473 472 554
f 473 555 474
f 554 555 473
f 466 474 545
f 545 474 555
f 548 556 547
f 547 556 549
f 549 556 557
f 549 557 550
f 550 557 558
f 550 558 551
f 551 558 559
f 551 559 552
f 552 559 560
f 552 560 553
f 562 561 477
f 477 561 476
f 563 477 478
f 563 562 477
f 564 478 480
f 564 563 478
f 565 480 482
f 565 564 480
f 566 482 484
f 566 565 482
f 484 486 566
f 566 486 567
f 569 568 488
f 488 568 487
f 488 476 561
f 488 561 569
f 570 567 486
f 570 486 489
f 571 489 491
f 571 570 489
f 573 572 493
f 572 491 493
f 572 571 491
f 573 574 572
f 576 575 496
f 496 575 495
f 577 496 497
f 577 576 496
f 497 487 568
f 497 568 577
f 498 573 493
f 578 574 573
f 498 578 573
f 499 578 498
f 499 501 578
f 578 501 579
f 575 502 495
f 580 502 575
f 503 579 501
f 503 581 579
f 583 582 506
f 506 582 505
f 506 502 580
f 506 580 583
f 584 581 503
f 584 503 507
f 507 509 584
f 584 509 585
f 582 510 505
f 586 510 582
f 511 585 509
f 511 587 585
f 586 512 510
f 588 512 586
f 513 587 511
f 513 589 587
f 588 514 512
f 590 514 588
f 515 589 513
f 515 591 589
f 590 516 514
f 592 516 590
f 517 591 515
f 517 593 591
f 592 518 516
f 594 518 592
f 519 593 517
f 519 595 593
f 594 520 518
f 596 520 594
f 521 595 519
f 521 597 595
f 596 522 520
f 598 522 596
f 523 597 521
f 523 599 597
f 598 524 522
f 600 524 598
f 526 599 523
f 526 601 599
f 600 528 524
f 602 528 600
f 530 601 526
f 530 603 601
f 531 528 604
f 528 605 604
f 528 602 605
f 604 532 531
f 534 606 535
f 535 606 607
f 608 535 607
f 536 535 608
f 530 536 603
f 603 536 608
f 605 609 604
f 532 604 609
f 610 532 609
f 538 532 610
f 613 612 611
f 612 614 606
f 540 612 606
f 534 540 606
f 611 612 540
f 606 614 607
f 610 615 538
f 538 615 541
f 615 617 616
f 542 615 616
f 541 615 542
f 616 543 542
f 613 611 544
f 545 613 544
f 618 613 545
f 544 611 540
f 617 619 616
f 616 619 543
f 619 546 543
f 619 620 546
f 548 546 620
f 548 620 621
f 623 622 554
f 623 554 553
f 554 624 555
f 622 624 554
f 545 555 618
f 618 555 624
f 621 625 548
f 548 625 556
f 556 626 557
f 625 626 556
f 557 627 558
f 626 627 557
f 558 628 559
f 627 628 558
f 559 629 560
f 628 629 559
f 553 560 623
f 623 560 629
f 631 630 562
f 562 630 561
f 632 562 563
f 632 631 562
f 633 563 564
f 633 632 563
f 634 564 565
f 634 633 564
f 635 565 566
f 635 634 565
f 566 567 635
f 635 567 636
f 639 638 637
f 568 569 637
f 569 639 637
f 569 640 639
f 569 561 630
f 569 630 640
f 641 636 567
f 641 567 570
f 642 570 571
f 642 641 570
f 643 571 572
f 643 642 571
f 572 574 643
f 643 574 644
f 646 645 576
f 576 645 575
f 577 637 638
f 646 577 638
f 576 577 646
f 637 577 568
f 647 644 574
f 647 574 578
f 578 579 647
f 647 579 648
f 645 580 575
f 649 580 645
f 581 648 579
f 581 650 648
f 652 651 583
f 583 651 582
f 583 580 649
f 583 649 652
f 653 650 581
f 653 581 584
f 584 585 653
f 653 585 654
f 651 586 582
f 655 586 651
f 587 654 585
f 587 656 654
f 655 588 586
f 657 588 655
f 589 656 587
f 589 658 656
f 657 590 588
f 659 590 657
f 591 658 589
f 591 660 658
f 659 592 590
f 661 592 659
f 593 660 591
f 593 662 660
f 661 594 592
f 663 594 661
f 595 662 593
f 595 664 662
f 663 596 594
f 665 596 663
f 597 664 595
f 597 666 664
f 665 598 596
f 667 598 665
f 599 666 597
f 599 668 666
f 667 600 598
f 669 600 667
f 601 668 599
f 601 670 668
f 669 602 600
f 671 602 669
f 603 670 601
f 603 672 670
f 671 605 602
f 673 605 671
f 675 674 608
f 675 608 607
f 603 608 672
f 672 608 674
f 673 676 605
f 605 676 609
f 610 609 676
f 610 676 677
f 679 678 612
f 679 612 613
f 612 680 614
f 678 680 612
f 607 614 675
f 675 614 680
f 677 681 610
f 610 681 615
f 617 615 681
f 617 681 682
f 685 684 683
f 684 679 683
f 679 618 683
f 679 613 618
f 682 686 617
f 617 686 619
f 619 687 620
f 686 687 619
f 621 620 687
f 621 687 688
f 690 689 622
f 690 622 623
f 683 624 685
f 624 689 685
f 624 622 689
f 624 683 618
f 688 691 621
f 621 691 625
f 625 692 626
f 691 692 625
f 626 693 627
f 692 693 626
f 627 694 628
f 693 694 627
f 628 695 629
f 694 695 628
f 623 629 690
f 690 629 695
f 697 696 631
f 631 696 630
f 698 631 632
f 698 697 631
f 699 632 633
f 699 698 632
f 700 633 634
f 700 699 633
f 701 634 635
f 701 700 634
f 635 636 701
f 701 636 702
f 704 703 639
f 639 703 638
f 705 639 640
f 705 704 639
f 640 630 696
f 640 696 705
f 706 702 636
f 706 636 641
f 707 641 642
f 707 706 641
f 709 707 708
f 707 643 708
f 707 642 643
f 644 708 643
f 711 710 646
f 646 710 645
f 646 638 703
f 646 703 711
f 712 709 708
f 712 708 644
f 647 712 644
f 713 712 647
f 647 648 713
f 713 648 714
f 710 649 645
f 715 649 710
f 650 714 648
f 650 716 714
f 718 717 652
f 652 717 651
f 652 649 715
f 652 715 718
f 719 716 650
f 719 650 653
f 653 654 719
f 719 654 720
f 717 655 651
f 721 655 717
f 656 720 654
f 656 722 720
f 721 657 655
f 723 657 721
f 658 722 656
f 658 724 722
f 723 659 657
f 725 659 723
f 660 724 658
f 660 726 724
f 725 661 659
f 727 661 725
f 662 726 660
f 662 728 726
f 727 663 661
f 729 663 727
f 664 728 662
f 664 730 728
f 729 665 663
f 731 665 729
f 666 730 664
f 666 732 730
f 731 667 665
f 733 667 731
f 668 732 666
f 668 734 732
f 733 669 667
f 735 669 733
f 670 734 668
f 670 736 734
f 735 671 669
f 737 671 735
f 672 736 670
f 672 738 736
f 737 673 671
f 739 673 737
f 741 740 674
f 741 674 675
f 672 674 738
f 738 674 740
f 739 742 673
f 673 742 676
f 677 676 742
f 677 742 743
f 745 744 678
f 745 678 679
f 678 746 680
f 744 746 678
f 675 680 741
f 741 680 746
f 743 747 677
f 677 747 681
f 682 681 747
f 682 747 748
f 750 749 684
f 750 684 685
f 679 684 745
f 745 684 749
f 748 751 682
f 682 751 686
f 686 752 687
f 751 752 686
f 688 687 752
f 688 752 753
f 690 754 689
f 754 755 689
f 755 685 689
f 755 750 685
f 753 756 688
f 688 756 691
f 691 757 692
f 756 757 691
f 692 758 693
f 757 758 692
f 693 759 694
f 758 759 693
f 694 760 695
f 759 760 694
f 690 695 754
f 695 761 754
f 695 760 761
f 754 761 755
f 763 762 697
f 697 762 696
f 764 697 698
f 764 763 697
f 765 698 699
f 765 764 698
f 766 699 700
f 766 765 699
f 768 766 767
f 766 701 767
f 766 700 701
f 702 767 701
f 769 703 704
f 769 704 770
f 704 771 770
f 704 705 771
f 705 696 762
f 705 762 771
f 772 768 767
f 772 767 702
f 706 772 702
f 773 772 706
f 774 706 707
f 774 773 706
f 707 709 774
f 774 709 775
f 777 776 711
f 711 776 710
f 711 703 769
f 778 711 769
f 777 711 778
f 778 769 770
f 779 775 709
f 779 709 712
f 780 712 713
f 780 779 712
f 713 714 780
f 780 714 781
f 776 715 710
f 782 715 776
f 716 781 714
f 716 783 781
f 785 784 718
f 718 784 717
f 718 715 782
f 718 782 785
f 786 783 716
f 786 716 719
f 719 720 786
f 786 720 787
f 784 721 717
f 788 721 784
f 722 787 720
f 722 789 787
f 788 723 721
f 790 723 788
f 724 789 722
f 724 791 789
f 790 725 723
f 792 725 790
f 726 791 724
f 726 793 791
f 792 727 725
f 794 727 792
f 728 793 726
f 728 795 793
f 794 729 727
f 796 729 794
f 730 795 728
f 730 797 795
f 796 731 729
f 798 731 796
f 732 797 730
f 732 799 797
f 798 733 731
f 800 733 798
f 734 799 732
f 734 801 799
f 800 735 733
f 802 735 800
f 736 801 734
f 736 803 801
f 802 737 735
f 804 737 802
f 738 803 736
f 738 805 803
f 807 739 806
f 739 804 806
f 739 737 804
f 808 807 806
f 810 809 740
f 810 740 741
f 738 740 805
f 805 740 809
f 807 742 739
f 743 742 807
f 808 743 807
f 811 743 808
f 813 812 744
f 813 744 745
f 744 814 746
f 812 814 744
f 741 746 810
f 810 746 814
f 811 815 743
f 743 815 747
f 748 747 815
f 748 815 816
f 819 818 817
f 749 750 817
f 818 749 817
f 820 749 818
f 745 749 813
f 813 749 820
f 816 821 748
f 748 821 751
f 751 822 752
f 821 822 751
f 753 752 822
f 753 822 823
f 819 817 824
f 819 824 825
f 755 824 750
f 750 824 817
f 823 826 753
f 753 826 756
f 756 827 757
f 826 827 756
f 757 828 758
f 827 828 757
f 758 829 759
f 828 829 758
f 759 830 760
f 829 830 759
f 824 761 825
f 761 830 825
f 761 760 830
f 761 824 755
f 831 762 763
f 831 763 832
f 763 833 832
f 763 764 833
f 834 764 765
f 834 833 764
f 835 765 766
f 835 834 765
f 766 768 835
f 835 768 836
f 838 837 771
f 771 837 770
f 771 762 831
f 839 771 831
f 838 771 839
f 839 831 832
f 840 836 768
f 840 768 772
f 841 772 773
f 841 840 772
f 842 773 774
f 842 841 773
f 774 775 842
f 842 775 843
f 844 776 777
f 844 777 845
f 777 846 845
f 777 778 846
f 778 770 837
f 778 837 846
f 847 843 775
f 847 775 779
f 849 847 848
f 847 780 848
f 847 779 780
f 781 848 780
f 851 850 844
f 850 776 844
f 850 782 776
f 851 844 845
f 852 849 848
f 848 781 852
f 781 853 852
f 781 783 853
f 855 854 785
f 785 854 784
f 785 782 850
f 785 850 855
f 856 853 783
f 856 783 786
f 786 787 856
f 856 787 857
f 854 788 784
f 858 788 854
f 789 857 787
f 789 859 857
f 858 790 788
f 860 790 858
f 791 859 789
f 791 861 859
f 860 792 790
f 862 792 860
f 793 861 791
f 793 863 861
f 862 794 792
f 864 794 862
f 795 863 793
f 795 865 863
f 864 796 794
f 866 796 864
f 797 865 795
f 797 867 865
f 866 798 796
f 868 798 866
f 799 867 797
f 799 869 867
f 868 800 798
f 870 800 868
f 801 869 799
f 801 871 869
f 870 802 800
f 872 802 870
f 803 871 801
f 803 873 871
f 872 804 802
f 874 804 872
f 805 873 803
f 805 875 873
f 874 876 804
f 804 876 806
f 808 806 876
f 808 876 877
f 879 878 809
f 879 809 810
f 805 809 875
f 875 809 878
f 877 811 808
f 880 811 877
f 882 881 812
f 882 812 813
f 812 883 814
f 881 883 812
f 810 814 879
f 879 814 883
f 880 884 811
f 811 884 815
f 886 885 816
f 815 886 816
f 884 886 815
f 887 885 886
f 889 888 818
f 889 818 819
f 818 890 820
f 888 890 818
f 813 820 882
f 882 820 890
f 885 821 816
f 887 891 885
f 891 821 885
f 891 822 821
f 893 892 823
f 822 893 823
f 891 893 822
f 894 892 893
f 825 889 819
f 825 895 889
f 892 826 823
f 894 896 892
f 896 826 892
f 896 827 826
f 827 897 828
f 896 897 827
f 828 898 829
f 897 898 828
f 829 899 830
f 898 899 829
f 825 830 895
f 895 830 899
f 900 832 833
f 834 901 833
f 833 901 900
f 835 902 834
f 834 902 901
f 836 902 835
f 904 903 838
f 838 903 837
f 905 838 839
f 905 904 838
f 839 832 900
f 906 839 900
f 905 839 906
f 906 900 901
f 906 901 907
f 907 901 902
f 907 902 908
f 908 902 836
f 840 908 836
f 909 908 840
f 910 840 841
f 910 909 840
f 912 910 911
f 910 842 911
f 910 841 842
f 843 911 842
f 914 913 846
f 846 913 845
f 846 837 903
f 846 903 914
f 915 912 911
f 915 911 843
f 847 915 843
f 916 915 847
f 847 849 916
f 916 849 917
f 919 918 851
f 851 918 850
f 851 845 913
f 851 913 919
f 920 917 849
f 920 849 852
f 852 853 920
f 920 853 921
f 922 854 855
f 923 922 855
f 850 923 855
f 918 923 850
f 853 856 924
f 925 853 924
f 921 853 925
f 857 924 856
f 927 926 922
f 926 854 922
f 926 858 854
f 927 922 923
f 928 925 924
f 924 857 928
f 857 929 928
f 857 859 929
f 926 860 858
f 930 860 926
f 861 929 859
f 861 931 929
f 930 862 860
f 932 862 930
f 863 931 861
f 863 933 931
f 932 864 862
f 934 864 932
f 865 933 863
f 865 935 933
f 934 866 864
f 936 866 934
f 867 935 865
f 867 937 935
f 936 868 866
f 938 868 936
f 869 937 867
f 869 939 937
f 938 870 868
f 940 870 938
f 871 939 869
f 871 941 939
f 940 872 870
f 942 872 940
f 873 941 871
f 873 943 941
f 942 874 872
f 944 874 942
f 875 943 873
f 875 945 943
f 944 946 874
f 874 946 876
f 877 876 946
f 877 946 947
f 950 949 948
f 878 879 948
f 949 878 948
f 951 878 949
f 875 878 945
f 945 878 951
f 953 880 952
f 880 947 952
f 880 877 947
f 954 953 952
f 957 956 955
f 959 958 955
f 959 955 956
f 881 882 958
f 959 881 958
f 960 881 959
f 948 883 950
f 883 960 950
f 883 881 960
f 883 948 879
f 953 884 880
f 954 961 953
f 961 884 953
f 961 886 884
f 963 962 887
f 886 963 887
f 961 963 886
f 964 962 963
f 957 955 888
f 889 957 888
f 965 957 889
f 888 955 890
f 890 955 958
f 890 958 882
f 962 891 887
f 964 966 962
f 966 891 962
f 966 893 891
f 968 967 894
f 893 968 894
f 966 968 893
f 970 969 967
f 970 967 968
f 972 971 969
f 972 969 970
f 974 973 971
f 974 971 972
f 974 965 973
f 965 895 973
f 965 889 895
f 967 896 894
f 896 967 897
f 897 967 969
f 897 969 898
f 898 969 971
f 898 971 899
f 899 971 973
f 899 973 895
f 975 903 904
f 975 904 976
f 904 977 976
f 904 905 977
f 978 905 906
f 978 977 905
f 979 906 907
f 979 978 906
f 980 907 908
f 980 979 907
f 981 908 909
f 981 980 908
f 983 981 982
f 981 910 982
f 981 909 910
f 912 982 910
f 984 913 914
f 985 984 914
f 985 914 903
f 986 985 903
f 975 986 903
f 986 975 976
f 987 983 982
f 987 982 912
f 915 987 912
f 988 987 915
f 990 988 989
f 988 916 989
f 988 915 916
f 917 989 916
f 991 918 919
f 992 991 919
f 992 919 913
f 993 992 913
f 984 993 913
f 993 984 985
f 994 990 989
f 996 994 995
f 995 994 920
f 994 989 920
f 989 917 920
f 921 995 920
f 998 997 991
f 997 918 991
f 997 923 918
f 998 991 992
f 999 996 995
f 995 921 999
f 921 1000 999
f 921 925 1000
f 1001 926 927
f 1002 1001 927
f 923 1002 927
f 997 1002 923
f 925 928 1003
f 1004 925 1003
f 1000 925 1004
f 929 1003 928
f 1006 1005 1001
f 1005 926 1001
f 1005 930 926
f 1006 1001 1002
f 1007 1004 1003
f 1003 929 1007
f 929 1008 1007
f 929 931 1008
f 1005 932 930
f 1009 932 1005
f 933 1008 931
f 933 1010 1008
f 1009 934 932
f 1011 934 1009
f 935 1010 933
f 935 1012 1010
f 1011 936 934
f 1013 936 1011
f 937 1012 935
f 937 1014 1012
f 1013 938 936
f 1015 938 1013
f 939 1014 937
f 939 1016 1014
f 1015 940 938
f 1017 940 1015
f 941 1016 939
f 941 1018 1016
f 1020 942 1019
f 942 1017 1019
f 942 940 1017
f 1021 1020 1019
f 943 1018 941
f 943 1022 1018
f 1023 944 1020
f 1020 944 942
f 1020 1021 1024
f 1020 1024 1023
f 945 1022 943
f 945 1025 1022
f 1023 946 944
f 947 946 1023
f 1024 947 1023
f 1026 947 1024
f 1029 1028 1027
f 1031 1030 1027
f 1031 1027 1028
f 949 950 1030
f 1031 949 1030
f 1032 949 1031
f 949 1033 951
f 1032 1033 949
f 945 951 1025
f 1025 951 1033
f 1026 1034 947
f 947 1034 952
f 1036 1035 954
f 952 1036 954
f 1034 1036 952
f 1037 1035 1036
f 1039 1038 956
f 1039 956 957
f 1027 959 1029
f 959 1038 1029
f 959 956 1038
f 959 1027 960
f 960 1027 1030
f 960 1030 950
f 1035 961 954
f 1037 1040 1035
f 1040 961 1035
f 1040 963 961
f 1042 1041 964
f 963 1042 964
f 1040 1042 963
f 1043 1041 1042
f 965 1039 957
f 965 1044 1039
f 1041 966 964
f 1043 1045 1041
f 1045 966 1041
f 1045 968 966
f 968 1046 970
f 1045 1046 968
f 970 1047 972
f 1046 1047 970
f 972 1048 974
f 1047 1048 972
f 965 974 1044
f 1044 974 1048
f 1049 976 977
f 978 1050 977
f 977 1050 1049
f 979 1051 978
f 978 1051 1050
f 980 1052 979
f 979 1052 1051
f 981 1053 980
f 980 1053 1052
f 983 1053 981
f 1054 985 986
f 1055 1054 986
f 1055 986 976
f 1056 1055 976
f 1049 1056 976
f 1056 1049 1050
f 1056 1050 1057
f 1057 1050 1051
f 1057 1051 1058
f 1058 1051 1052
f 1058 1052 1059
f 1059 1052 1053
f 1059 1053 1060
f 1062 1060 1061
f 1061 1060 987
f 1060 1053 987
f 1053 983 987
f 988 1063 987
f 987 1063 1061
f 990 1063 988
f 1064 992 993
f 1065 1064 993
f 1065 993 985
f 1066 1065 985
f 1054 1066 985
f 1066 1054 1055
f 1062 1061 1067
f 1062 1067 1068
f 1069 1061 1063
f 1067 1061 1069
f 994 1070 990
f 1070 1063 990
f 1070 1069 1063
f 996 1070 994
f 1071 997 998
f 1072 1071 998
f 1072 998 992
f 1073 1072 992
f 1064 1073 992
f 1073 1064 1065
f 1074 1068 1067
f 1074 1067 1069
f 1074 1069 1075
f 1075 1069 1070
f 1075 1070 1076
f 1078 1076 1077
f 1077 1076 999
f 1076 1070 999
f 1070 996 999
f 1000 1077 999
f 1080 1079 1071
f 1079 997 1071
f 1079 1002 997
f 1080 1071 1072
f 1081 1078 1077
f 1077 1000 1081
f 1000 1082 1081
f 1000 1004 1082
f 1083 1005 1006
f 1084 1083 1006
f 1002 1084 1006
f 1079 1084 1002
f 1004 1007 1085
f 1086 1004 1085
f 1082 1004 1086
f 1008 1085 1007
f 1087 1009 1083
f 1083 1009 1005
f 1083 1084 1088
f 1083 1088 1087
f 1086 1085 1089
f 1086 1089 1090
f 1010 1089 1008
f 1008 1089 1085
f 1091 1011 1087
f 1087 1011 1009
f 1087 1088 1092
f 1087 1092 1091
f 1090 1089 1093
f 1090 1093 1094
f 1012 1093 1010
f 1010 1093 1089
f 1095 1013 1091
f 1091 1013 1011
f 1091 1092 1096
f 1091 1096 1095
f 1094 1093 1097
f 1094 1097 1098
f 1014 1097 1012
f 1012 1097 1093
f 1099 1015 1095
f 1095 1015 1013
f 1095 1096 1100
f 1095 1100 1099
f 1098 1097 1101
f 1098 1101 1102
f 1016 1101 1014
f 1014 1101 1097
f 1103 1017 1099
f 1099 1017 1015
f 1099 1100 1104
f 1099 1104 1103
f 1102 1101 1105
f 1102 1105 1106
f 1018 1105 1016
f 1016 1105 1101
f 1103 1019 1017
f 1021 1019 1103
f 1104 1021 1103
f 1107 1021 1104
f 1106 1105 1108
f 1106 1108 1109
f 1022 1108 1018
f 1018 1108 1105
f 1107 1024 1021
f 1110 1024 1107
f 1113 1112 1111
f 1115 1114 1111
f 1115 1111 1112
f 1117 1116 1114
f 1117 1114 1115
f 1116 1117 1109
f 1108 1116 1109
f 1118 1116 1108
f 1025 1118 1022
f 1022 1118 1108
f 1120 1026 1119
f 1026 1110 1119
f 1026 1024 1110
f 1122 1121 1120
f 1122 1120 1119
f 1123 1121 1122
f 1126 1125 1124
f 1124 1125 1113
f 1124 1113 1111
f 1029 1124 1111
f 1028 1029 1111
f 1028 1111 1031
f 1031 1111 1114
f 1031 1114 1032
f 1032 1114 1116
f 1032 1116 1033
f 1033 1116 1118
f 1033 1118 1025
f 1120 1034 1026
f 1034 1120 1036
f 1036 1120 1121
f 1128 1127 1037
f 1128 1037 1036
f 1123 1128 1036
f 1121 1123 1036
f 1129 1127 1128
f 1132 1131 1130
f 1130 1131 1126
f 1130 1126 1124
f 1039 1130 1124
f 1038 1039 1124
f 1038 1124 1029
f 1127 1040 1037
f 1129 1133 1127
f 1133 1040 1127
f 1133 1042 1040
f 1135 1134 1043
f 1042 1135 1043
f 1133 1135 1042
f 1137 1136 1134
f 1137 1134 1135
f 1139 1138 1136
f 1139 1136 1137
f 1138 1139 1132
f 1130 1138 1132
f 1140 1138 1130
f 1044 1140 1039
f 1039 1140 1130
f 1134 1045 1043
f 1045 1134 1046
f 1046 1134 1136
f 1046 1136 1047
f 1047 1136 1138
f 1047 1138 1048
f 1048 1138 1140
f 1048 1140 1044
f 1141 1055 1056
f 1057 1142 1056
f 1056 1142 1141
f 1058 1143 1057
f 1057 1143 1142
f 1059 1144 1058
f 1058 1144 1143
f 1060 1145 1059
f 1059 1145 1144
f 1062 1145 1060
f 1146 1065 1066
f 1055 1141 1066
f 1141 1146 1066
f 1141 1147 1146
f 1142 1149 1148
f 1147 1142 1148
f 1141 1142 1147
f 1149 1142 1143
f 1149 1143 1150
f 1150 1143 1144
f 1150 1144 1151
f 1151 1144 1145
f 1151 1145 1152
f 1145 1062 1152
f 1062 1153 1152
f 1062 1068 1153
f 1154 1072 1073
f 1155 1154 1073
f 1155 1073 1065
f 1156 1155 1065
f 1146 1156 1065
f 1156 1146 1147
f 1156 1147 1157
f 1157 1147 1148
f 1158 1153 1068
f 1158 1068 1074
f 1159 1074 1075
f 1159 1158 1074
f 1161 1159 1160
f 1159 1076 1160
f 1159 1075 1076
f 1078 1160 1076
f 1162 1079 1080
f 1163 1162 1080
f 1163 1080 1072
f 1164 1163 1072
f 1154 1164 1072
f 1164 1154 1155
f 1165 1161 1160
f 1167 1165 1166
f 1166 1165 1081
f 1165 1160 1081
f 1160 1078 1081
f 1082 1166 1081
f 1168 1084 1162
f 1162 1084 1079
f 1162 1163 1169
f 1162 1169 1168
f 1167 1166 1170
f 1167 1170 1171
f 1086 1170 1082
f 1082 1170 1166
f 1173 1172 1168
f 1172 1084 1168
f 1172 1088 1084
f 1173 1168 1169
f 1174 1171 1170
f 1170 1086 1174
f 1086 1175 1174
f 1086 1090 1175
f 1172 1092 1088
f 1176 1092 1172
f 1094 1175 1090
f 1094 1177 1175
f 1176 1096 1092
f 1178 1096 1176
f 1098 1177 1094
f 1098 1179 1177
f 1178 1100 1096
f 1180 1100 1178
f 1183 1182 1181
f 1182 1179 1181
f 1179 1102 1181
f 1179 1098 1102
f 1180 1104 1100
f 1184 1104 1180
f 1187 1186 1185
f 1185 1186 1183
f 1181 1185 1183
f 1188 1185 1181
f 1106 1188 1102
f 1102 1188 1181
f 1190 1107 1189
f 1107 1184 1189
f 1107 1104 1184
f 1191 1190 1189
f 1194 1193 1192
f 1196 1195 1192
f 1196 1192 1193
f 1195 1196 1187
f 1185 1195 1187
f 1197 1195 1185
f 1198 1185 1188
f 1197 1185 1198
f 1109 1198 1106
f 1106 1198 1188
f 1199 1110 1190
f 1190 1110 1107
f 1190 1191 1200
f 1201 1190 1200
f 1199 1190 1201
f 1202 1201 1200
f 1194 1192 1203
f 1194 1203 1204
f 1113 1203 1112
f 1203 1195 1112
f 1203 1192 1195
f 1112 1195 1115
f 1115 1195 1197
f 1115 1197 1117
f 1117 1197 1198
f 1117 1198 1109
f 1199 1119 1110
f 1119 1199 1122
f 1122 1199 1201
f 1206 1205 1123
f 1206 1123 1122
f 1202 1206 1122
f 1201 1202 1122
f 1207 1205 1206
f 1204 1203 1125
f 1126 1204 1125
f 1208 1204 1126
f 1125 1203 1113
f 1205 1128 1123
f 1210 1209 1129
f 1210 1129 1128
f 1207 1210 1128
f 1205 1207 1128
f 1212 1211 1209
f 1212 1209 1210
f 1214 1213 1211
f 1214 1211 1212
f 1216 1215 1213
f 1216 1213 1214
f 1131 1132 1215
f 1216 1131 1215
f 1217 1131 1216
f 1126 1131 1208
f 1208 1131 1217
f 1209 1133 1129
f 1133 1209 1135
f 1135 1209 1211
f 1135 1211 1137
f 1137 1211 1213
f 1137 1213 1139
f 1139 1213 1215
f 1139 1215 1132
f 1218 1148 1149
f 1150 1219 1149
f 1149 1219 1218
f 1151 1220 1150
f 1150 1220 1219
f 1152 1221 1151
f 1151 1221 1220
f 1153 1221 1152
f 1222 1155 1156
f 1157 1223 1156
f 1156 1223 1222
f 1224 1223 1157
f 1224 1157 1148
f 1225 1224 1148
f 1218 1225 1148
f 1225 1218 1219
f 1225 1219 1226
f 1226 1219 1220
f 1226 1220 1227
f 1227 1220 1221
f 1227 1221 1228
f 1230 1228 1229
f 1229 1228 1158
f 1228 1221 1158
f 1221 1153 1158
f 1159 1231 1158
f 1158 1231 1229
f 1161 1231 1159
f 1232 1163 1164
f 1155 1222 1164
f 1222 1232 1164
f 1222 1233 1232
f 1223 1235 1234
f 1233 1223 1234
f 1222 1223 1233
f 1235 1223 1224
f 1230 1229 1236
f 1230 1236 1237
f 1238 1229 1231
f 1236 1229 1238
f 1165 1239 1161
f 1239 1231 1161
f 1239 1238 1231
f 1167 1239 1165
f 1240 1169 1232
f 1232 1169 1163
f 1233 1242 1241
f 1240 1233 1241
f 1232 1233 1240
f 1242 1233 1234
f 1237 1236 1243
f 1237 1243 1244
f 1245 1236 1238
f 1243 1236 1245
f 1246 1238 1239
f 1245 1238 1246
f 1171 1246 1167
f 1167 1246 1239
f 1247 1172 1173
f 1248 1247 1173
f 1248 1173 1169
f 1249 1248 1169
f 1240 1249 1169
f 1249 1240 1241
f 1250 1244 1243
f 1252 1251 1250
f 1243 1252 1250
f 1245 1252 1243
f 1253 1245 1246
f 1252 1245 1253
f 1174 1254 1171
f 1254 1246 1171
f 1254 1253 1246
f 1175 1254 1174
f 1255 1176 1247
f 1247 1176 1172
f 1247 1248 1256
f 1247 1256 1255
f 1251 1252 1257
f 1251 1257 1258
f 1259 1252 1253
f 1257 1252 1259
f 1260 1253 1254
f 1259 1253 1260
f 1177 1260 1175
f 1175 1260 1254
f 1261 1178 1255
f 1255 1178 1176
f 1255 1256 1262
f 1255 1262 1261
f 1258 1257 1263
f 1258 1263 1264
f 1265 1257 1259
f 1263 1257 1265
f 1266 1259 1260
f 1265 1259 1266
f 1179 1266 1177
f 1177 1266 1260
f 1267 1180 1261
f 1261 1180 1178
f 1261 1262 1268
f 1269 1261 1268
f 1267 1261 1269
f 1270 1269 1268
f 1264 1263 1271
f 1264 1271 1272
f 1273 1263 1265
f 1271 1263 1273
f 1183 1273 1182
f 1273 1266 1182
f 1273 1265 1266
f 1182 1266 1179
f 1274 1184 1267
f 1267 1184 1180
f 1275 1267 1269
f 1274 1267 1275
f 1269 1270 1276
f 1269 1276 1275
f 1279 1278 1277
f 1277 1278 1272
f 1271 1277 1272
f 1280 1277 1271
f 1187 1280 1186
f 1280 1273 1186
f 1280 1271 1273
f 1186 1273 1183
f 1274 1189 1184
f 1189 1274 1191
f 1274 1281 1191
f 1274 1275 1281
f 1275 1276 1282
f 1275 1282 1281
f 1279 1277 1193
f 1194 1279 1193
f 1283 1279 1194
f 1193 1277 1196
f 1196 1277 1280
f 1196 1280 1187
f 1281 1200 1191
f 1285 1284 1202
f 1285 1202 1200
f 1282 1285 1200
f 1281 1282 1200
f 1287 1286 1284
f 1287 1284 1285
f 1288 1286 1287
f 1204 1283 1194
f 1204 1289 1283
f 1284 1206 1202
f 1206 1284 1207
f 1284 1290 1207
f 1284 1286 1290
f 1286 1288 1291
f 1292 1286 1291
f 1290 1286 1292
f 1294 1293 1292
f 1294 1292 1291
f 1296 1295 1293
f 1296 1293 1294
f 1298 1297 1295
f 1298 1295 1296
f 1298 1289 1297
f 1289 1208 1297
f 1289 1204 1208
f 1290 1210 1207
f 1210 1290 1212
f 1212 1290 1292
f 1212 1292 1214
f 1214 1292 1293
f 1214 1293 1216
f 1216 1293 1295
f 1216 1295 1217
f 1217 1295 1297
f 1217 1297 1208
f 1299 1224 1225
f 1226 1300 1225
f 1225 1300 1299
f 1227 1301 1226
f 1226 1301 1300
f 1228 1302 1227
f 1227 1302 1301
f 1230 1302 1228
f 1303 1234 1235
f 1224 1299 1235
f 1299 1303 1235
f 1299 1304 1303
f 1305 1299 1300
f 1304 1299 1305
f 1301 1307 1306
f 1305 1301 1306
f 1300 1301 1305
f 1309 1308 1307
f 1301 1309 1307
f 1302 1309 1301
f 1237 1309 1230
f 1230 1309 1302
f 1310 1241 1242
f 1234 1303 1242
f 1303 1310 1242
f 1303 1311 1310
f 1304 1313 1312
f 1311 1304 1312
f 1303 1304 1311
f 1313 1304 1305
f 1313 1305 1314
f 1314 1305 1306
f 1308 1309 1315
f 1308 1315 1316
f 1244 1315 1237
f 1237 1315 1309
f 1317 1248 1249
f 1241 1310 1249
f 1310 1317 1249
f 1310 1318 1317
f 1319 1310 1311
f 1318 1310 1319
f 1311 1312 1320
f 1311 1320 1319
f 1316 1315 1321
f 1316 1321 1322
f 1250 1323 1244
f 1323 1315 1244
f 1323 1321 1315
f 1251 1323 1250
f 1324 1256 1317
f 1317 1256 1248
f 1325 1317 1318
f 1324 1317 1325
f 1319 1327 1326
f 1325 1319 1326
f 1318 1319 1325
f 1327 1319 1320
f 1328 1322 1321
f 1330 1329 1328
f 1321 1330 1328
f 1323 1330 1321
f 1258 1330 1251
f 1251 1330 1323
f 1331 1262 1324
f 1324 1262 1256
f 1332 1324 1325
f 1331 1324 1332
f 1325 1326 1333
f 1325 1333 1332
f 1329 1330 1334
f 1329 1334 1335
f 1264 1334 1258
f 1258 1334 1330
f 1331 1268 1262
f 1268 1331 1270
f 1331 1336 1270
f 1331 1332 1336
f 1332 1333 1337
f 1338 1332 1337
f 1336 1332 1338
f 1339 1338 1337
f 1335 1334 1340
f 1335 1340 1341
f 1272 1340 1264
f 1264 1340 1334
f 1342 1276 1336
f 1336 1276 1270
f 1343 1336 1338
f 1342 1336 1343
f 1338 1339 1344
f 1345 1338 1344
f 1343 1338 1345
f 1347 1346 1345
f 1347 1345 1344
f 1349 1348 1346
f 1349 1346 1347
f 1351 1350 1348
f 1351 1348 1349
f 1350 1351 1341
f 1350 1341 1340
f 1279 1350 1340
f 1278 1279 1340
f 1278 1340 1272
f 1352 1282 1342
f 1342 1282 1276
f 1353 1342 1343
f 1352 1342 1353
f 1354 1343 1345
f 1353 1343 1354
f 1355 1345 1346
f 1354 1345 1355
f 1356 1346 1348
f 1355 1346 1356
f 1357 1348 1350
f 1356 1348 1357
f 1283 1357 1279
f 1279 1357 1350
f 1352 1285 1282
f 1285 1352 1287
f 1287 1352 1353
f 1287 1353 1288
f 1353 1358 1288
f 1353 1354 1358
f 1359 1354 1355
f 1358 1354 1359
f 1360 1355 1356
f 1359 1355 1360
f 1361 1356 1357
f 1360 1356 1361
f 1289 1361 1283
f 1283 1361 1357
f 1358 1291 1288
f 1291 1358 1294
f 1294 1358 1359
f 1294 1359 1296
f 1296 1359 1360
f 1296 1360 1298
f 1298 1360 1361
f 1298 1361 1289
f 1362 1306 1307
f 1308 1362 1307
f 1363 1312 1313
f 1314 1364 1313
f 1313 1364 1363
f 1306 1362 1314
f 1362 1364 1314
f 1362 1365 1364
f 1316 1365 1308
f 1308 1365 1362
f 1366 1320 1363
f 1363 1320 1312
f 1367 1363 1364
f 1366 1363 1367
f 1368 1364 1365
f 1367 1364 1368
f 1322 1368 1316
f 1316 1368 1365
f 1369 1326 1327
f 1320 1366 1327
f 1366 1369 1327
f 1366 1370 1369
f 1371 1366 1367
f 1370 1366 1371
f 1372 1367 1368
f 1371 1367 1372
f 1328 1373 1322
f 1373 1368 1322
f 1373 1372 1368
f 1329 1373 1328
f 1374 1333 1369
f 1369 1333 1326
f 1375 1369 1370
f 1374 1369 1375
f 1376 1370 1371
f 1375 1370 1376
f 1377 1371 1372
f 1376 1371 1377
f 1378 1372 1373
f 1377 1372 1378
f 1335 1378 1329
f 1329 1378 1373
f 1374 1337 1333
f 1337 1374 1339
f 1374 1379 1339
f 1374 1375 1379
f 1380 1375 1376
f 1379 1375 1380
f 1381 1376 1377
f 1380 1376 1381
f 1382 1377 1378
f 1381 1377 1382
f 1341 1382 1335
f 1335 1382 1378
f 1379 1344 1339
f 1344 1379 1347
f 1347 1379 1380
f 1347 1380 1349
f 1349 1380 1381
f 1349 1381 1351
f 1351 1381 1382
f 1351 1382 1341
