ply
format ascii 1.0
element vertex 1402
property float x
property float y
property float z
element face 2800
property list uchar int vertex_indices
end_header
-1.29121663 -0.36549827 -0.35714286
-1.21978806 -0.36549827 -0.42857143
-1.21978806 -0.43692684 -0.35714286
-1.21978806 -0.43692684 -0.21428571
-1.29121663 -0.36549827 -0.21428571
-1.21978806 -0.43692684 -0.07142857
-1.29121663 -0.36549827 -0.07142857
-1.21978806 -0.43692684 0.07142857
-1.29121663 -0.36549827 0.07142857
-1.21978806 -0.43692684 0.21428571
-1.29121663 -0.36549827 0.21428571
-1.21978806 -0.36549827 0.28571429
-1.29121663 -0.22264112 -0.35714286
-1.21978806 -0.22264112 -0.42857143
-1.29121663 -0.22264112 -0.21428571
-1.29121663 -0.22264112 -0.07142857
-1.29121663 -0.22264112 0.07142857
-1.29121663 -0.22264112 0.21428571
-1.21978806 -0.22264112 0.28571429
-1.29121663 -0.07978398 -0.35714286
-1.21978806 -0.07978398 -0.42857143
-1.29121663 -0.07978398 -0.21428571
-1.29121663 -0.07978398 -0.07142857
-1.29121663 -0.07978398 0.07142857
-1.29121663 -0.07978398 0.21428571
-1.21978806 -0.07978398 0.28571429
-1.29121663 0.06307316 -0.35714286
-1.21978806 0.06307316 -0.42857143
-1.29121663 0.06307316 -0.21428571
-1.29121663 0.06307316 -0.07142857
-1.29121663 0.06307316 0.07142857
-1.29121663 0.06307316 0.21428571
-1.21978806 0.06307316 0.28571429
-1.29121663 0.20593030 -0.35714286
-1.21978806 0.20593030 -0.42857143
-1.29121663 0.20593030 -0.21428571
-1.29121663 0.20593030 -0.07142857
-1.29121663 0.20593030 0.07142857
-1.29121663 0.20593030 0.21428571
-1.21978806 0.13450173 0.35714286
-1.29121663 0.20593030 0.35714286
-1.21978806 0.20593030 0.42857143
-1.29121663 0.34878745 -0.35714286
-1.21978806 0.34878745 -0.42857143
-1.29121663 0.34878745 -0.21428571
-1.29121663 0.34878745 -0.07142857
-1.29121663 0.34878745 0.07142857
-1.29121663 0.34878745 0.21428571
-1.21978806 0.34878745 0.28571429
-1.21978806 0.27735888 0.35714286
-1.21978806 0.42021602 -0.35714286
-1.21978806 0.42021602 -0.21428571
-1.21978806 0.42021602 -0.07142857
-1.21978806 0.42021602 0.07142857
-1.21978806 0.42021602 0.21428571
-1.14835949 -0.65121255 -0.35714286
-1.07693092 -0.65121255 -0.42857143
-1.07693092 -0.72264112 -0.35714286
-1.07693092 -0.72264112 -0.21428571
-1.14835949 -0.65121255 -0.21428571
-1.07693092 -0.72264112 -0.07142857
-1.14835949 -0.65121255 -0.07142857
-1.07693092 -0.72264112 0.07142857
-1.14835949 -0.65121255 0.07142857
-1.07693092 -0.72264112 0.21428571
-1.14835949 -0.65121255 0.21428571
-1.07693092 -0.65121255 0.28571429
-1.14835949 -0.50835541 -0.50000000
-1.07693092 -0.50835541 -0.57142857
-1.07693092 -0.57978398 -0.50000000
-1.14835949 -0.50835541 -0.35714286
-1.14835949 -0.50835541 -0.21428571
-1.14835949 -0.50835541 -0.07142857
-1.14835949 -0.50835541 0.07142857
-1.14835949 -0.50835541 0.21428571
-1.07693092 -0.57978398 0.35714286
-1.14835949 -0.50835541 0.35714286
-1.07693092 -0.57978398 0.50000000
-1.14835949 -0.50835541 0.50000000
-1.07693092 -0.50835541 0.57142857
-1.14835949 -0.36549827 -0.64285714
-1.07693092 -0.36549827 -0.71428571
-1.07693092 -0.43692684 -0.64285714
-1.14835949 -0.36549827 -0.50000000
-1.14835949 -0.36549827 0.35714286
-1.14835949 -0.36549827 0.50000000
-1.07693092 -0.36549827 0.57142857
-1.14835949 -0.22264112 -0.64285714
-1.07693092 -0.22264112 -0.71428571
-1.14835949 -0.22264112 -0.50000000
-1.14835949 -0.22264112 0.35714286
-1.14835949 -0.22264112 0.50000000
-1.07693092 -0.29406970 0.64285714
-1.14835949 -0.22264112 0.64285714
-1.07693092 -0.22264112 0.71428571
-1.14835949 -0.07978398 -0.64285714
-1.07693092 -0.07978398 -0.71428571
-1.14835949 -0.07978398 -0.50000000
-1.14835949 -0.07978398 0.35714286
-1.14835949 -0.07978398 0.50000000
-1.07693092 -0.07978398 0.57142857
-1.07693092 -0.15121255 0.64285714
-1.14835949 0.06307316 -0.64285714
-1.07693092 0.06307316 -0.71428571
-1.14835949 0.06307316 -0.50000000
-1.14835949 0.06307316 0.35714286
-1.14835949 0.06307316 0.50000000
-1.07693092 0.06307316 0.57142857
-1.14835949 0.20593030 -0.64285714
-1.07693092 0.20593030 -0.71428571
-1.14835949 0.20593030 -0.50000000
-1.14835949 0.20593030 0.50000000
-1.07693092 0.20593030 0.57142857
-1.14835949 0.34878745 -0.64285714
-1.07693092 0.34878745 -0.71428571
-1.14835949 0.34878745 -0.50000000
-1.14835949 0.34878745 0.35714286
-1.14835949 0.34878745 0.50000000
-1.07693092 0.34878745 0.57142857
-1.07693092 0.42021602 -0.64285714
-1.14835949 0.49164459 -0.50000000
-1.07693092 0.49164459 -0.57142857
-1.14835949 0.49164459 -0.35714286
-1.14835949 0.49164459 -0.21428571
-1.14835949 0.49164459 -0.07142857
-1.14835949 0.49164459 0.07142857
-1.14835949 0.49164459 0.21428571
-1.14835949 0.49164459 0.35714286
-1.14835949 0.49164459 0.50000000
-1.07693092 0.49164459 0.57142857
-1.07693092 0.56307316 -0.50000000
-1.14835949 0.63450173 -0.35714286
-1.07693092 0.63450173 -0.42857143
-1.14835949 0.63450173 -0.21428571
-1.14835949 0.63450173 -0.07142857
-1.14835949 0.63450173 0.07142857
-1.14835949 0.63450173 0.21428571
-1.14835949 0.63450173 0.35714286
-1.07693092 0.63450173 0.42857143
-1.07693092 0.56307316 0.50000000
-1.07693092 0.70593030 -0.35714286
-1.07693092 0.70593030 -0.21428571
-1.07693092 0.70593030 -0.07142857
-1.07693092 0.70593030 0.07142857
-1.07693092 0.70593030 0.21428571
-1.07693092 0.70593030 0.35714286
-1.00550234 -0.79406970 -0.35714286
-0.93407377 -0.79406970 -0.42857143
-0.93407377 -0.86549827 -0.35714286
-0.93407377 -0.86549827 -0.21428571
-1.00550234 -0.79406970 -0.21428571
-0.93407377 -0.86549827 -0.07142857
-1.00550234 -0.79406970 -0.07142857
-0.93407377 -0.86549827 0.07142857
-1.00550234 -0.79406970 0.07142857
-0.93407377 -0.86549827 0.21428571
-1.00550234 -0.79406970 0.21428571
-0.93407377 -0.86549827 0.35714286
-1.00550234 -0.79406970 0.35714286
-0.93407377 -0.79406970 0.42857143
-1.00550234 -0.65121255 -0.50000000
-0.93407377 -0.65121255 -0.57142857
-0.93407377 -0.72264112 -0.50000000
-1.00550234 -0.65121255 0.35714286
-0.93407377 -0.72264112 0.50000000
-1.00550234 -0.65121255 0.50000000
-0.93407377 -0.65121255 0.57142857
-1.00550234 -0.50835541 -0.64285714
-0.93407377 -0.50835541 -0.71428571
-0.93407377 -0.57978398 -0.64285714
-0.93407377 -0.57978398 0.64285714
-1.00550234 -0.50835541 0.64285714
-0.93407377 -0.50835541 0.71428571
-1.00550234 -0.36549827 -0.78571429
-0.93407377 -0.36549827 -0.85714286
-0.93407377 -0.43692684 -0.78571429
-1.00550234 -0.36549827 0.64285714
-0.93407377 -0.36549827 0.71428571
-1.00550234 -0.22264112 -0.78571429
-0.93407377 -0.22264112 -0.85714286
-0.93407377 -0.29406970 0.78571429
-1.00550234 -0.22264112 0.78571429
-0.93407377 -0.22264112 0.85714286
-1.00550234 -0.07978398 -0.78571429
-0.93407377 -0.07978398 -0.85714286
-1.00550234 -0.07978398 0.64285714
-1.00550234 -0.07978398 0.78571429
-0.93407377 -0.07978398 0.85714286
-1.00550234 0.06307316 -0.78571429
-0.93407377 0.06307316 -0.85714286
-1.00550234 0.06307316 0.64285714
-1.00550234 0.06307316 0.78571429
-0.93407377 0.06307316 0.85714286
-1.00550234 0.20593030 -0.78571429
-0.93407377 0.20593030 -0.85714286
-1.00550234 0.20593030 0.64285714
-1.00550234 0.20593030 0.78571429
-0.93407377 0.20593030 0.85714286
-1.00550234 0.34878745 -0.78571429
-0.93407377 0.34878745 -0.85714286
-1.00550234 0.34878745 0.64285714
-0.93407377 0.34878745 0.71428571
-0.93407377 0.27735888 0.78571429
-0.93407377 0.42021602 -0.78571429
-1.00550234 0.49164459 -0.64285714
-0.93407377 0.49164459 -0.71428571
-1.00550234 0.49164459 0.64285714
-0.93407377 0.49164459 0.71428571
-0.93407377 0.56307316 -0.64285714
-1.00550234 0.63450173 -0.50000000
-0.93407377 0.63450173 -0.57142857
-1.00550234 0.63450173 0.50000000
-0.93407377 0.63450173 0.57142857
-0.93407377 0.56307316 0.64285714
-0.93407377 0.70593030 -0.50000000
-1.00550234 0.77735888 -0.35714286
-0.93407377 0.77735888 -0.42857143
-1.00550234 0.77735888 -0.21428571
-1.00550234 0.77735888 -0.07142857
-1.00550234 0.77735888 0.07142857
-1.00550234 0.77735888 0.21428571
-1.00550234 0.77735888 0.35714286
-0.93407377 0.77735888 0.42857143
-0.93407377 0.70593030 0.50000000
-0.93407377 0.84878745 -0.35714286
-0.93407377 0.84878745 -0.21428571
-0.93407377 0.84878745 -0.07142857
-0.93407377 0.84878745 0.07142857
-0.93407377 0.84878745 0.21428571
-0.93407377 0.84878745 0.35714286
-0.86264520 -0.93692684 -0.35714286
-0.79121663 -0.93692684 -0.42857143
-0.79121663 -1.00835541 -0.35714286
-0.79121663 -1.00835541 -0.21428571
-0.86264520 -0.93692684 -0.21428571
-0.79121663 -1.00835541 -0.07142857
-0.86264520 -0.93692684 -0.07142857
-0.79121663 -1.00835541 0.07142857
-0.86264520 -0.93692684 0.07142857
-0.79121663 -1.00835541 0.21428571
-0.86264520 -0.93692684 0.21428571
-0.79121663 -1.00835541 0.35714286
-0.86264520 -0.93692684 0.35714286
-0.79121663 -0.93692684 0.42857143
-0.86264520 -0.79406970 -0.50000000
-0.79121663 -0.79406970 -0.57142857
-0.79121663 -0.86549827 -0.50000000
-0.79121663 -0.86549827 0.50000000
-0.86264520 -0.79406970 0.50000000
-0.79121663 -0.79406970 0.57142857
-0.86264520 -0.65121255 -0.64285714
-0.79121663 -0.65121255 -0.71428571
-0.79121663 -0.72264112 -0.64285714
-0.79121663 -0.72264112 0.64285714
-0.86264520 -0.65121255 0.64285714
-0.79121663 -0.65121255 0.71428571
-0.86264520 -0.50835541 -0.78571429
-0.79121663 -0.50835541 -0.85714286
-0.79121663 -0.57978398 -0.78571429
-0.79121663 -0.57978398 0.78571429
-0.86264520 -0.50835541 0.78571429
-0.79121663 -0.50835541 0.85714286
-0.79121663 -0.36549827 -0.85714286
-0.86264520 -0.36549827 0.78571429
-0.79121663 -0.36549827 0.85714286
-0.79121663 -0.22264112 -0.85714286
-0.79121663 -0.22264112 0.85714286
-0.79121663 -0.07978398 -0.85714286
-0.79121663 -0.07978398 0.85714286
-0.79121663 0.06307316 -0.85714286
-0.79121663 0.06307316 0.85714286
-0.79121663 0.20593030 -0.85714286
-0.79121663 0.20593030 0.85714286
-0.79121663 0.34878745 -0.85714286
-0.86264520 0.34878745 0.78571429
-0.79121663 0.34878745 0.85714286
-0.86264520 0.49164459 -0.78571429
-0.79121663 0.49164459 -0.85714286
-0.86264520 0.49164459 0.78571429
-0.79121663 0.49164459 0.85714286
-0.79121663 0.56307316 -0.78571429
-0.86264520 0.63450173 -0.64285714
-0.79121663 0.63450173 -0.71428571
-0.86264520 0.63450173 0.64285714
-0.79121663 0.63450173 0.71428571
-0.79121663 0.56307316 0.78571429
-0.79121663 0.70593030 -0.64285714
-0.86264520 0.77735888 -0.50000000
-0.79121663 0.77735888 -0.57142857
-0.86264520 0.77735888 0.50000000
-0.79121663 0.77735888 0.57142857
-0.79121663 0.70593030 0.64285714
-0.79121663 0.84878745 -0.50000000
-0.86264520 0.92021602 -0.35714286
-0.79121663 0.92021602 -0.42857143
-0.86264520 0.92021602 -0.21428571
-0.86264520 0.92021602 -0.07142857
-0.86264520 0.92021602 0.07142857
-0.86264520 0.92021602 0.21428571
-0.86264520 0.92021602 0.35714286
-0.79121663 0.92021602 0.42857143
-0.79121663 0.84878745 0.50000000
-0.79121663 0.99164459 -0.35714286
-0.79121663 0.99164459 -0.21428571
-0.79121663 0.99164459 -0.07142857
-0.79121663 0.99164459 0.07142857
-0.79121663 0.99164459 0.21428571
-0.79121663 0.99164459 0.35714286
-0.71978806 -1.07978398 -0.35714286
-0.64835949 -1.07978398 -0.42857143
-0.64835949 -1.15121255 -0.35714286
-0.64835949 -1.15121255 -0.21428571
-0.71978806 -1.07978398 -0.21428571
-0.64835949 -1.15121255 -0.07142857
-0.71978806 -1.07978398 -0.07142857
-0.64835949 -1.15121255 0.07142857
-0.71978806 -1.07978398 0.07142857
-0.64835949 -1.15121255 0.21428571
-0.71978806 -1.07978398 0.21428571
-0.64835949 -1.07978398 0.28571429
-0.71978806 -0.93692684 -0.50000000
-0.64835949 -0.93692684 -0.57142857
-0.64835949 -1.00835541 -0.50000000
-0.64835949 -1.00835541 0.35714286
-0.64835949 -1.00835541 0.50000000
-0.71978806 -0.93692684 0.50000000
-0.64835949 -0.93692684 0.57142857
-0.71978806 -0.79406970 -0.64285714
-0.64835949 -0.79406970 -0.71428571
-0.64835949 -0.86549827 -0.64285714
-0.64835949 -0.86549827 0.64285714
-0.71978806 -0.79406970 0.64285714
-0.64835949 -0.79406970 0.71428571
-0.71978806 -0.65121255 -0.78571429
-0.64835949 -0.65121255 -0.85714286
-0.64835949 -0.72264112 -0.78571429
-0.64835949 -0.72264112 0.78571429
-0.71978806 -0.65121255 0.78571429
-0.64835949 -0.65121255 0.85714286
-0.64835949 -0.50835541 -0.85714286
-0.64835949 -0.50835541 0.85714286
-0.71978806 -0.36549827 -0.92857143
-0.64835949 -0.36549827 -1.00000000
-0.64835949 -0.43692684 -0.92857143
-0.64835949 -0.43692684 0.92857143
-0.71978806 -0.36549827 0.92857143
-0.64835949 -0.36549827 1.00000000
-0.71978806 -0.22264112 -0.92857143
-0.64835949 -0.22264112 -1.00000000
-0.71978806 -0.22264112 0.92857143
-0.64835949 -0.22264112 1.00000000
-0.71978806 -0.07978398 -0.92857143
-0.64835949 -0.07978398 -1.00000000
-0.71978806 -0.07978398 0.92857143
-0.64835949 -0.07978398 1.00000000
-0.71978806 0.06307316 -0.92857143
-0.64835949 0.06307316 -1.00000000
-0.71978806 0.06307316 0.92857143
-0.64835949 0.06307316 1.00000000
-0.71978806 0.20593030 -0.92857143
-0.64835949 0.20593030 -1.00000000
-0.71978806 0.20593030 0.92857143
-0.64835949 0.20593030 1.00000000
-0.71978806 0.34878745 -0.92857143
-0.64835949 0.34878745 -1.00000000
-0.71978806 0.34878745 0.92857143
-0.64835949 0.34878745 1.00000000
-0.64835949 0.42021602 -0.92857143
-0.64835949 0.49164459 -0.85714286
-0.64835949 0.42021602 0.92857143
-0.64835949 0.49164459 0.85714286
-0.71978806 0.63450173 -0.78571429
-0.64835949 0.63450173 -0.85714286
-0.71978806 0.63450173 0.78571429
-0.64835949 0.63450173 0.85714286
-0.64835949 0.70593030 -0.78571429
-0.71978806 0.77735888 -0.64285714
-0.64835949 0.77735888 -0.71428571
-0.64835949 0.70593030 0.64285714
-0.64835949 0.77735888 0.57142857
-0.64835949 0.70593030 0.78571429
-0.64835949 0.84878745 -0.64285714
-0.71978806 0.92021602 -0.50000000
-0.64835949 0.92021602 -0.57142857
-0.64835949 0.84878745 0.50000000
-0.64835949 0.92021602 0.42857143
-0.64835949 0.99164459 -0.50000000
-0.71978806 1.06307316 -0.35714286
-0.64835949 1.06307316 -0.42857143
-0.71978806 1.06307316 -0.21428571
-0.71978806 1.06307316 -0.07142857
-0.71978806 1.06307316 0.07142857
-0.71978806 1.06307316 0.21428571
-0.64835949 1.06307316 0.28571429
-0.64835949 0.99164459 0.35714286
-0.64835949 1.13450173 -0.35714286
-0.64835949 1.13450173 -0.21428571
-0.64835949 1.13450173 -0.07142857
-0.64835949 1.13450173 0.07142857
-0.64835949 1.13450173 0.21428571
-0.57693092 -1.07978398 -0.50000000
-0.50550234 -1.07978398 -0.57142857
-0.50550234 -1.15121255 -0.50000000
-0.50550234 -1.15121255 -0.35714286
-0.50550234 -1.15121255 -0.21428571
-0.50550234 -1.15121255 -0.07142857
-0.50550234 -1.15121255 0.07142857
-0.50550234 -1.15121255 0.21428571
-0.50550234 -1.15121255 0.35714286
-0.57693092 -1.07978398 0.35714286
-0.50550234 -1.07978398 0.42857143
-0.57693092 -0.93692684 -0.64285714
-0.50550234 -0.93692684 -0.71428571
-0.50550234 -1.00835541 -0.64285714
-0.50550234 -1.00835541 0.50000000
-0.50550234 -1.00835541 0.64285714
-0.57693092 -0.93692684 0.64285714
-0.50550234 -0.93692684 0.71428571
-0.57693092 -0.79406970 -0.78571429
-0.50550234 -0.79406970 -0.85714286
-0.50550234 -0.86549827 -0.78571429
-0.50550234 -0.86549827 0.78571429
-0.57693092 -0.79406970 0.78571429
-0.50550234 -0.79406970 0.85714286
-0.50550234 -0.65121255 -0.85714286
-0.50550234 -0.65121255 0.85714286
-0.57693092 -0.50835541 -0.92857143
-0.50550234 -0.50835541 -1.00000000
-0.50550234 -0.57978398 -0.92857143
-0.50550234 -0.57978398 0.92857143
-0.57693092 -0.50835541 0.92857143
-0.50550234 -0.50835541 1.00000000
-0.50550234 -0.36549827 -1.00000000
-0.50550234 -0.36549827 1.00000000
-0.50550234 -0.22264112 -1.00000000
-0.50550234 -0.22264112 1.00000000
-0.50550234 -0.07978398 -1.00000000
-0.50550234 -0.07978398 1.00000000
-0.50550234 0.06307316 -1.00000000
-0.50550234 0.06307316 1.00000000
-0.50550234 0.20593030 -1.00000000
-0.50550234 0.20593030 1.00000000
-0.50550234 0.34878745 -1.00000000
-0.50550234 0.34878745 1.00000000
-0.57693092 0.49164459 -0.92857143
-0.50550234 0.49164459 -1.00000000
-0.57693092 0.49164459 0.92857143
-0.50550234 0.49164459 1.00000000
-0.50550234 0.56307316 -0.92857143
-0.50550234 0.63450173 -0.85714286
-0.50550234 0.56307316 0.92857143
-0.50550234 0.63450173 0.85714286
-0.57693092 0.77735888 -0.78571429
-0.50550234 0.77735888 -0.85714286
-0.57693092 0.77735888 0.64285714
-0.57693092 0.77735888 0.78571429
-0.50550234 0.77735888 0.85714286
-0.50550234 0.84878745 -0.78571429
-0.57693092 0.92021602 -0.64285714
-0.50550234 0.92021602 -0.71428571
-0.57693092 0.92021602 0.50000000
-0.50550234 0.92021602 0.57142857
-0.50550234 0.84878745 0.64285714
-0.50550234 0.84878745 0.78571429
-0.50550234 0.99164459 -0.64285714
-0.57693092 1.06307316 -0.50000000
-0.50550234 1.06307316 -0.57142857
-0.57693092 1.06307316 0.35714286
-0.50550234 1.06307316 0.42857143
-0.50550234 0.99164459 0.50000000
-0.50550234 1.13450173 -0.50000000
-0.50550234 1.13450173 -0.35714286
-0.50550234 1.13450173 -0.21428571
-0.50550234 1.13450173 -0.07142857
-0.50550234 1.13450173 0.07142857
-0.50550234 1.13450173 0.21428571
-0.50550234 1.13450173 0.35714286
-0.43407377 -1.22264112 -0.35714286
-0.36264520 -1.22264112 -0.42857143
-0.36264520 -1.29406970 -0.35714286
-0.36264520 -1.29406970 -0.21428571
-0.43407377 -1.22264112 -0.21428571
-0.36264520 -1.29406970 -0.07142857
-0.43407377 -1.22264112 -0.07142857
-0.36264520 -1.29406970 0.07142857
-0.43407377 -1.22264112 0.07142857
-0.36264520 -1.29406970 0.21428571
-0.43407377 -1.22264112 0.21428571
-0.36264520 -1.22264112 0.28571429
-0.36264520 -1.07978398 -0.57142857
-0.36264520 -1.15121255 -0.50000000
-0.36264520 -1.15121255 0.35714286
-0.36264520 -1.15121255 0.50000000
-0.43407377 -1.07978398 0.50000000
-0.36264520 -1.07978398 0.57142857
-0.36264520 -0.93692684 -0.71428571
-0.36264520 -1.00835541 -0.64285714
-0.36264520 -1.00835541 0.64285714
-0.36264520 -0.93692684 0.71428571
-0.36264520 -0.79406970 -0.85714286
-0.36264520 -0.86549827 -0.78571429
-0.36264520 -0.86549827 0.78571429
-0.36264520 -0.79406970 0.85714286
-0.43407377 -0.65121255 -0.92857143
-0.36264520 -0.65121255 -1.00000000
-0.36264520 -0.72264112 -0.92857143
-0.36264520 -0.72264112 0.92857143
-0.43407377 -0.65121255 0.92857143
-0.36264520 -0.65121255 1.00000000
-0.36264520 -0.50835541 -1.00000000
-0.36264520 -0.50835541 1.00000000
-0.36264520 -0.36549827 -1.00000000
-0.36264520 -0.36549827 1.00000000
-0.36264520 -0.22264112 -1.00000000
-0.36264520 -0.22264112 1.00000000
-0.36264520 -0.07978398 -1.00000000
-0.36264520 -0.07978398 1.00000000
-0.36264520 0.06307316 -1.00000000
-0.36264520 0.06307316 1.00000000
-0.36264520 0.20593030 -1.00000000
-0.36264520 0.20593030 1.00000000
-0.36264520 0.34878745 -1.00000000
-0.36264520 0.34878745 1.00000000
-0.36264520 0.49164459 -1.00000000
-0.36264520 0.49164459 1.00000000
-0.43407377 0.63450173 -0.92857143
-0.36264520 0.63450173 -1.00000000
-0.43407377 0.63450173 0.92857143
-0.36264520 0.63450173 1.00000000
-0.36264520 0.70593030 -0.92857143
-0.36264520 0.77735888 -0.85714286
-0.36264520 0.70593030 0.92857143
-0.36264520 0.77735888 0.85714286
-0.43407377 0.92021602 -0.78571429
-0.36264520 0.92021602 -0.85714286
-0.43407377 0.92021602 0.64285714
-0.43407377 0.92021602 0.78571429
-0.36264520 0.92021602 0.85714286
-0.36264520 0.99164459 -0.78571429
-0.36264520 0.99164459 -0.64285714
-0.36264520 1.06307316 -0.57142857
-0.43407377 1.06307316 0.50000000
-0.43407377 1.06307316 0.64285714
-0.36264520 1.06307316 0.71428571
-0.36264520 0.99164459 0.78571429
-0.36264520 1.13450173 -0.50000000
-0.43407377 1.20593030 -0.35714286
-0.36264520 1.20593030 -0.42857143
-0.43407377 1.20593030 -0.21428571
-0.43407377 1.20593030 -0.07142857
-0.43407377 1.20593030 0.07142857
-0.43407377 1.20593030 0.21428571
-0.43407377 1.20593030 0.35714286
-0.36264520 1.20593030 0.42857143
-0.36264520 1.13450173 0.50000000
-0.36264520 1.13450173 0.64285714
-0.36264520 1.27735888 -0.35714286
-0.36264520 1.27735888 -0.21428571
-0.36264520 1.27735888 -0.07142857
-0.36264520 1.27735888 0.07142857
-0.36264520 1.27735888 0.21428571
-0.36264520 1.27735888 0.35714286
-0.21978806 -1.22264112 -0.42857143
-0.21978806 -1.29406970 -0.35714286
-0.21978806 -1.29406970 -0.21428571
-0.21978806 -1.29406970 -0.07142857
-0.21978806 -1.29406970 0.07142857
-0.21978806 -1.29406970 0.21428571
-0.21978806 -1.29406970 0.35714286
-0.29121663 -1.22264112 0.35714286
-0.21978806 -1.22264112 0.42857143
-0.29121663 -1.07978398 -0.64285714
-0.21978806 -1.07978398 -0.71428571
-0.21978806 -1.15121255 -0.64285714
-0.21978806 -1.15121255 -0.50000000
-0.21978806 -1.15121255 0.50000000
-0.21978806 -1.07978398 0.57142857
-0.29121663 -0.93692684 -0.78571429
-0.21978806 -0.93692684 -0.85714286
-0.21978806 -1.00835541 -0.78571429
-0.21978806 -1.00835541 0.64285714
-0.21978806 -1.00835541 0.78571429
-0.29121663 -0.93692684 0.78571429
-0.21978806 -0.93692684 0.85714286
-0.21978806 -0.79406970 -0.85714286
-0.21978806 -0.79406970 0.85714286
-0.21978806 -0.65121255 -1.00000000
-0.21978806 -0.72264112 -0.92857143
-0.21978806 -0.72264112 0.92857143
-0.21978806 -0.65121255 1.00000000
-0.21978806 -0.50835541 -1.00000000
-0.21978806 -0.50835541 1.00000000
-0.21978806 -0.36549827 -1.00000000
-0.21978806 -0.36549827 1.00000000
-0.21978806 -0.22264112 -1.00000000
-0.21978806 -0.22264112 1.00000000
-0.21978806 -0.07978398 -1.00000000
-0.21978806 -0.07978398 1.00000000
-0.21978806 0.06307316 -1.00000000
-0.21978806 0.06307316 1.00000000
-0.21978806 0.20593030 -1.00000000
-0.21978806 0.20593030 1.00000000
-0.21978806 0.34878745 -1.00000000
-0.21978806 0.34878745 1.00000000
-0.21978806 0.49164459 -1.00000000
-0.21978806 0.49164459 1.00000000
-0.21978806 0.63450173 -1.00000000
-0.21978806 0.63450173 1.00000000
-0.21978806 0.70593030 -0.92857143
-0.21978806 0.77735888 -0.85714286
-0.29121663 0.77735888 0.92857143
-0.21978806 0.77735888 1.00000000
-0.21978806 0.92021602 -0.85714286
-0.21978806 0.84878745 0.92857143
-0.21978806 0.92021602 0.85714286
-0.21978806 0.99164459 -0.78571429
-0.29121663 1.06307316 -0.64285714
-0.21978806 1.06307316 -0.71428571
-0.21978806 0.99164459 0.78571429
-0.21978806 1.06307316 0.71428571
-0.21978806 1.13450173 -0.64285714
-0.21978806 1.13450173 -0.50000000
-0.21978806 1.20593030 -0.42857143
-0.21978806 1.13450173 0.50000000
-0.21978806 1.20593030 0.42857143
-0.21978806 1.13450173 0.64285714
-0.21978806 1.27735888 -0.35714286
-0.21978806 1.27735888 -0.21428571
-0.21978806 1.27735888 -0.07142857
-0.21978806 1.27735888 0.07142857
-0.21978806 1.27735888 0.21428571
-0.21978806 1.27735888 0.35714286
-0.07693092 -1.22264112 -0.42857143
-0.07693092 -1.29406970 -0.35714286
-0.07693092 -1.29406970 -0.21428571
-0.07693092 -1.29406970 -0.07142857
-0.07693092 -1.29406970 0.07142857
-0.07693092 -1.29406970 0.21428571
-0.14835949 -1.22264112 0.35714286
-0.07693092 -1.22264112 0.28571429
-0.07693092 -1.07978398 -0.71428571
-0.07693092 -1.15121255 -0.64285714
-0.07693092 -1.15121255 -0.50000000
-0.07693092 -1.15121255 0.35714286
-0.07693092 -1.15121255 0.50000000
-0.07693092 -1.07978398 0.57142857
-0.07693092 -0.93692684 -0.85714286
-0.07693092 -1.00835541 -0.78571429
-0.07693092 -1.00835541 0.64285714
-0.07693092 -1.00835541 0.78571429
-0.07693092 -0.93692684 0.85714286
-0.07693092 -0.79406970 -0.85714286
-0.07693092 -0.79406970 0.85714286
-0.07693092 -0.65121255 -1.00000000
-0.07693092 -0.72264112 -0.92857143
-0.07693092 -0.72264112 0.92857143
-0.07693092 -0.65121255 1.00000000
-0.07693092 -0.50835541 -1.00000000
-0.07693092 -0.50835541 1.00000000
-0.07693092 -0.36549827 -1.00000000
-0.07693092 -0.36549827 1.00000000
-0.07693092 -0.22264112 -1.00000000
-0.07693092 -0.22264112 1.00000000
-0.07693092 -0.07978398 -1.00000000
-0.07693092 -0.07978398 1.00000000
-0.07693092 0.06307316 -1.00000000
-0.07693092 0.06307316 1.00000000
-0.07693092 0.20593030 -1.00000000
-0.07693092 0.20593030 1.00000000
-0.07693092 0.34878745 -1.00000000
-0.07693092 0.34878745 1.00000000
-0.07693092 0.49164459 -1.00000000
-0.07693092 0.49164459 1.00000000
-0.07693092 0.63450173 -1.00000000
-0.07693092 0.63450173 1.00000000
-0.14835949 0.77735888 -0.92857143
-0.07693092 0.77735888 -1.00000000
-0.07693092 0.77735888 1.00000000
-0.07693092 0.84878745 -0.92857143
-0.07693092 0.92021602 -0.85714286
-0.14835949 0.92021602 0.92857143
-0.07693092 0.92021602 1.00000000
-0.07693092 0.99164459 -0.78571429
-0.07693092 1.06307316 -0.71428571
-0.07693092 0.99164459 0.78571429
-0.07693092 1.06307316 0.71428571
-0.07693092 0.99164459 0.92857143
-0.07693092 1.13450173 -0.64285714
-0.07693092 1.13450173 -0.50000000
-0.07693092 1.20593030 -0.42857143
-0.07693092 1.13450173 0.50000000
-0.07693092 1.20593030 0.42857143
-0.07693092 1.13450173 0.64285714
-0.07693092 1.27735888 -0.35714286
-0.07693092 1.27735888 -0.21428571
-0.07693092 1.27735888 -0.07142857
-0.07693092 1.27735888 0.07142857
-0.07693092 1.27735888 0.21428571
-0.07693092 1.27735888 0.35714286
0.06592623 -1.22264112 -0.42857143
0.06592623 -1.29406970 -0.35714286
0.06592623 -1.29406970 -0.21428571
0.06592623 -1.29406970 -0.07142857
0.06592623 -1.29406970 0.07142857
0.06592623 -1.29406970 0.21428571
0.06592623 -1.22264112 0.28571429
0.06592623 -1.07978398 -0.71428571
0.06592623 -1.15121255 -0.64285714
0.06592623 -1.15121255 -0.50000000
0.06592623 -1.15121255 0.35714286
0.06592623 -1.15121255 0.50000000
0.06592623 -1.07978398 0.57142857
0.06592623 -0.93692684 -0.85714286
0.06592623 -1.00835541 -0.78571429
0.06592623 -1.00835541 0.64285714
0.06592623 -1.00835541 0.78571429
0.06592623 -0.93692684 0.85714286
0.06592623 -0.79406970 -0.85714286
0.06592623 -0.79406970 0.85714286
0.06592623 -0.65121255 -1.00000000
0.06592623 -0.72264112 -0.92857143
0.06592623 -0.72264112 0.92857143
0.06592623 -0.65121255 1.00000000
0.06592623 -0.50835541 -1.00000000
0.06592623 -0.50835541 1.00000000
0.06592623 -0.36549827 -1.00000000
0.06592623 -0.36549827 1.00000000
0.06592623 -0.22264112 -1.00000000
0.06592623 -0.22264112 1.00000000
0.06592623 -0.07978398 -1.00000000
0.06592623 -0.07978398 1.00000000
0.06592623 0.06307316 -1.00000000
0.06592623 0.06307316 1.00000000
0.06592623 0.20593030 -1.00000000
0.06592623 0.20593030 1.00000000
0.06592623 0.34878745 -1.00000000
0.06592623 0.34878745 1.00000000
0.06592623 0.49164459 -1.00000000
0.06592623 0.49164459 1.00000000
0.06592623 0.63450173 -1.00000000
0.06592623 0.63450173 1.00000000
0.06592623 0.77735888 -1.00000000
0.06592623 0.77735888 1.00000000
0.06592623 0.84878745 -0.92857143
0.06592623 0.92021602 -0.85714286
0.06592623 0.92021602 1.00000000
0.06592623 0.99164459 -0.78571429
0.06592623 1.06307316 -0.71428571
0.06592623 0.99164459 0.78571429
0.06592623 1.06307316 0.71428571
0.06592623 0.99164459 0.92857143
0.06592623 1.13450173 -0.64285714
0.06592623 1.13450173 -0.50000000
0.06592623 1.20593030 -0.42857143
0.06592623 1.13450173 0.50000000
0.06592623 1.20593030 0.42857143
0.06592623 1.13450173 0.64285714
0.06592623 1.27735888 -0.35714286
0.06592623 1.27735888 -0.21428571
0.06592623 1.27735888 -0.07142857
0.06592623 1.27735888 0.07142857
0.06592623 1.27735888 0.21428571
0.06592623 1.27735888 0.35714286
0.20878337 -1.22264112 -0.42857143
0.20878337 -1.29406970 -0.35714286
0.20878337 -1.29406970 -0.21428571
0.20878337 -1.29406970 -0.07142857
0.20878337 -1.29406970 0.07142857
0.20878337 -1.29406970 0.21428571
0.20878337 -1.22264112 0.28571429
0.20878337 -1.07978398 -0.71428571
0.20878337 -1.15121255 -0.64285714
0.20878337 -1.15121255 -0.50000000
0.20878337 -1.15121255 0.35714286
0.20878337 -1.15121255 0.50000000
0.20878337 -1.07978398 0.57142857
0.20878337 -0.93692684 -0.85714286
0.20878337 -1.00835541 -0.78571429
0.20878337 -1.00835541 0.64285714
0.20878337 -1.00835541 0.78571429
0.20878337 -0.93692684 0.85714286
0.20878337 -0.79406970 -0.85714286
0.20878337 -0.79406970 0.85714286
0.20878337 -0.65121255 -1.00000000
0.20878337 -0.72264112 -0.92857143
0.20878337 -0.72264112 0.92857143
0.20878337 -0.65121255 1.00000000
0.20878337 -0.50835541 -1.00000000
0.20878337 -0.50835541 1.00000000
0.20878337 -0.36549827 -1.00000000
0.20878337 -0.36549827 1.00000000
0.20878337 -0.22264112 -1.00000000
0.20878337 -0.22264112 1.00000000
0.20878337 -0.07978398 -1.00000000
0.20878337 -0.07978398 1.00000000
0.20878337 0.06307316 -1.00000000
0.20878337 0.06307316 1.00000000
0.20878337 0.20593030 -1.00000000
0.20878337 0.20593030 1.00000000
0.20878337 0.34878745 -1.00000000
0.20878337 0.34878745 1.00000000
0.20878337 0.49164459 -1.00000000
0.20878337 0.49164459 1.00000000
0.20878337 0.63450173 -1.00000000
0.20878337 0.63450173 1.00000000
0.20878337 0.77735888 -1.00000000
0.20878337 0.77735888 1.00000000
0.20878337 0.84878745 -0.92857143
0.20878337 0.92021602 -0.85714286
0.20878337 0.92021602 1.00000000
0.20878337 0.99164459 -0.78571429
0.20878337 1.06307316 -0.71428571
0.13735480 1.06307316 0.64285714
0.20878337 0.99164459 0.64285714
0.20878337 1.06307316 0.57142857
0.20878337 0.99164459 0.78571429
0.20878337 0.99164459 0.92857143
0.20878337 1.13450173 -0.64285714
0.20878337 1.13450173 -0.50000000
0.20878337 1.20593030 -0.42857143
0.13735480 1.20593030 0.35714286
0.20878337 1.13450173 0.35714286
0.20878337 1.20593030 0.28571429
0.20878337 1.13450173 0.50000000
0.20878337 1.27735888 -0.35714286
0.20878337 1.27735888 -0.21428571
0.20878337 1.27735888 -0.07142857
0.20878337 1.27735888 0.07142857
0.20878337 1.27735888 0.21428571
0.28021194 -1.22264112 -0.35714286
0.35164051 -1.22264112 -0.28571429
0.35164051 -1.29406970 -0.21428571
0.35164051 -1.29406970 -0.07142857
0.35164051 -1.29406970 0.07142857
0.35164051 -1.29406970 0.21428571
0.35164051 -1.22264112 0.28571429
0.28021194 -1.07978398 -0.64285714
0.35164051 -1.07978398 -0.57142857
0.35164051 -1.15121255 -0.50000000
0.35164051 -1.15121255 -0.35714286
0.35164051 -1.15121255 0.35714286
0.35164051 -1.15121255 0.50000000
0.35164051 -1.07978398 0.57142857
0.35164051 -0.93692684 -0.85714286
0.35164051 -1.00835541 -0.78571429
0.35164051 -1.00835541 -0.64285714
0.35164051 -1.00835541 0.64285714
0.28021194 -0.93692684 0.78571429
0.35164051 -0.93692684 0.71428571
0.35164051 -0.79406970 -0.85714286
0.35164051 -0.86549827 0.78571429
0.35164051 -0.79406970 0.85714286
0.35164051 -0.65121255 -1.00000000
0.35164051 -0.72264112 -0.92857143
0.35164051 -0.72264112 0.92857143
0.35164051 -0.65121255 1.00000000
0.35164051 -0.50835541 -1.00000000
0.35164051 -0.50835541 1.00000000
0.35164051 -0.36549827 -1.00000000
0.35164051 -0.36549827 1.00000000
0.35164051 -0.22264112 -1.00000000
0.35164051 -0.22264112 1.00000000
0.35164051 -0.07978398 -1.00000000
0.35164051 -0.07978398 1.00000000
0.35164051 0.06307316 -1.00000000
0.35164051 0.06307316 1.00000000
0.35164051 0.20593030 -1.00000000
0.35164051 0.20593030 1.00000000
0.35164051 0.34878745 -1.00000000
0.35164051 0.34878745 1.00000000
0.35164051 0.49164459 -1.00000000
0.35164051 0.49164459 1.00000000
0.35164051 0.63450173 -1.00000000
0.35164051 0.63450173 1.00000000
0.35164051 0.77735888 -1.00000000
0.28021194 0.77735888 0.92857143
0.35164051 0.70593030 0.92857143
0.35164051 0.77735888 0.85714286
0.35164051 0.84878745 -0.92857143
0.35164051 0.92021602 -0.85714286
0.28021194 0.92021602 0.92857143
0.35164051 0.92021602 0.85714286
0.35164051 0.99164459 -0.78571429
0.28021194 1.06307316 -0.64285714
0.35164051 0.99164459 -0.64285714
0.35164051 1.06307316 -0.57142857
0.28021194 1.06307316 0.50000000
0.35164051 0.99164459 0.50000000
0.35164051 1.06307316 0.42857143
0.35164051 0.99164459 0.64285714
0.35164051 0.99164459 0.78571429
0.35164051 1.13450173 -0.50000000
0.35164051 1.20593030 -0.42857143
0.35164051 1.13450173 0.35714286
0.35164051 1.20593030 0.28571429
0.35164051 1.27735888 -0.35714286
0.35164051 1.27735888 -0.21428571
0.35164051 1.27735888 -0.07142857
0.35164051 1.27735888 0.07142857
0.35164051 1.27735888 0.21428571
0.42306908 -1.22264112 -0.21428571
0.42306908 -1.22264112 -0.07142857
0.42306908 -1.22264112 0.07142857
0.42306908 -1.22264112 0.21428571
0.49449766 -1.07978398 -0.57142857
0.49449766 -1.15121255 -0.50000000
0.49449766 -1.15121255 -0.35714286
0.49449766 -1.15121255 -0.21428571
0.49449766 -1.15121255 -0.07142857
0.49449766 -1.15121255 0.07142857
0.49449766 -1.15121255 0.21428571
0.49449766 -1.15121255 0.35714286
0.42306908 -1.07978398 0.50000000
0.49449766 -1.07978398 0.42857143
0.42306908 -0.93692684 -0.78571429
0.49449766 -0.93692684 -0.71428571
0.49449766 -1.00835541 -0.64285714
0.49449766 -1.00835541 0.50000000
0.49449766 -1.00835541 0.64285714
0.49449766 -0.93692684 0.71428571
0.49449766 -0.79406970 -0.85714286
0.49449766 -0.86549827 -0.78571429
0.49449766 -0.86549827 0.78571429
0.49449766 -0.79406970 0.85714286
0.42306908 -0.65121255 -0.92857143
0.49449766 -0.65121255 -0.85714286
0.42306908 -0.65121255 0.92857143
0.49449766 -0.65121255 0.85714286
0.49449766 -0.50835541 -1.00000000
0.49449766 -0.57978398 -0.92857143
0.49449766 -0.57978398 0.92857143
0.49449766 -0.50835541 1.00000000
0.49449766 -0.36549827 -1.00000000
0.49449766 -0.36549827 1.00000000
0.49449766 -0.22264112 -1.00000000
0.49449766 -0.22264112 1.00000000
0.49449766 -0.07978398 -1.00000000
0.49449766 -0.07978398 1.00000000
0.49449766 0.06307316 -1.00000000
0.49449766 0.06307316 1.00000000
0.49449766 0.20593030 -1.00000000
0.49449766 0.20593030 1.00000000
0.49449766 0.34878745 -1.00000000
0.49449766 0.34878745 1.00000000
0.49449766 0.49164459 -1.00000000
0.49449766 0.49164459 1.00000000
0.49449766 0.63450173 -1.00000000
0.49449766 0.63450173 1.00000000
0.49449766 0.70593030 -0.92857143
0.42306908 0.77735888 -0.92857143
0.49449766 0.77735888 -0.85714286
0.49449766 0.70593030 0.92857143
0.49449766 0.77735888 0.85714286
0.42306908 0.92021602 -0.78571429
0.49449766 0.84878745 -0.78571429
0.49449766 0.92021602 -0.71428571
0.42306908 0.92021602 0.78571429
0.49449766 0.84878745 0.78571429
0.49449766 0.92021602 0.71428571
0.49449766 0.99164459 -0.64285714
0.49449766 1.06307316 -0.57142857
0.49449766 0.99164459 0.50000000
0.49449766 1.06307316 0.42857143
0.49449766 0.99164459 0.64285714
0.49449766 1.13450173 -0.50000000
0.42306908 1.20593030 -0.35714286
0.49449766 1.13450173 -0.35714286
0.42306908 1.20593030 -0.21428571
0.49449766 1.13450173 -0.21428571
0.42306908 1.20593030 -0.07142857
0.49449766 1.13450173 -0.07142857
0.42306908 1.20593030 0.07142857
0.49449766 1.13450173 0.07142857
0.42306908 1.20593030 0.21428571
0.49449766 1.13450173 0.21428571
0.49449766 1.13450173 0.35714286
0.56592623 -1.07978398 -0.50000000
0.63735480 -1.07978398 -0.42857143
0.63735480 -1.15121255 -0.35714286
0.63735480 -1.15121255 -0.21428571
0.63735480 -1.15121255 -0.07142857
0.63735480 -1.15121255 0.07142857
0.63735480 -1.15121255 0.21428571
0.56592623 -1.07978398 0.35714286
0.63735480 -1.07978398 0.28571429
0.56592623 -0.93692684 -0.64285714
0.63735480 -0.93692684 -0.57142857
0.63735480 -1.00835541 -0.50000000
0.63735480 -1.00835541 0.35714286
0.63735480 -1.00835541 0.50000000
0.56592623 -0.93692684 0.64285714
0.63735480 -0.93692684 0.57142857
0.56592623 -0.79406970 -0.78571429
0.63735480 -0.79406970 -0.71428571
0.63735480 -0.86549827 -0.64285714
0.63735480 -0.86549827 0.64285714
0.56592623 -0.79406970 0.78571429
0.63735480 -0.79406970 0.71428571
0.63735480 -0.65121255 -0.85714286
0.63735480 -0.72264112 -0.78571429
0.63735480 -0.72264112 0.78571429
0.63735480 -0.65121255 0.85714286
0.56592623 -0.50835541 -0.92857143
0.63735480 -0.50835541 -0.85714286
0.56592623 -0.50835541 0.92857143
0.63735480 -0.50835541 0.85714286
0.63735480 -0.36549827 -1.00000000
0.63735480 -0.43692684 -0.92857143
0.63735480 -0.43692684 0.92857143
0.63735480 -0.36549827 1.00000000
0.63735480 -0.22264112 -1.00000000
0.63735480 -0.22264112 1.00000000
0.63735480 -0.07978398 -1.00000000
0.63735480 -0.07978398 1.00000000
0.63735480 0.06307316 -1.00000000
0.63735480 0.06307316 1.00000000
0.63735480 0.20593030 -1.00000000
0.63735480 0.20593030 1.00000000
0.63735480 0.34878745 -1.00000000
0.63735480 0.34878745 1.00000000
0.63735480 0.42021602 -0.92857143
0.56592623 0.49164459 -0.92857143
0.63735480 0.49164459 -0.85714286
0.56592623 0.49164459 0.92857143
0.63735480 0.42021602 0.92857143
0.63735480 0.49164459 0.85714286
0.56592623 0.63450173 -0.92857143
0.63735480 0.63450173 -0.85714286
0.56592623 0.63450173 0.92857143
0.63735480 0.63450173 0.85714286
0.56592623 0.77735888 -0.78571429
0.63735480 0.70593030 -0.78571429
0.63735480 0.77735888 -0.71428571
0.56592623 0.77735888 0.78571429
0.63735480 0.70593030 0.78571429
0.63735480 0.77735888 0.71428571
0.56592623 0.92021602 -0.64285714
0.63735480 0.84878745 -0.64285714
0.63735480 0.92021602 -0.57142857
0.56592623 0.92021602 0.64285714
0.63735480 0.84878745 0.64285714
0.63735480 0.92021602 0.57142857
0.56592623 1.06307316 -0.50000000
0.63735480 0.99164459 -0.50000000
0.63735480 1.06307316 -0.42857143
0.56592623 1.06307316 0.35714286
0.63735480 0.99164459 0.35714286
0.63735480 1.06307316 0.28571429
0.63735480 0.99164459 0.50000000
0.63735480 1.13450173 -0.35714286
0.63735480 1.13450173 -0.21428571
0.63735480 1.13450173 -0.07142857
0.63735480 1.13450173 0.07142857
0.63735480 1.13450173 0.21428571
0.70878337 -1.07978398 -0.35714286
0.70878337 -1.07978398 -0.21428571
0.70878337 -1.07978398 -0.07142857
0.70878337 -1.07978398 0.07142857
0.70878337 -1.07978398 0.21428571
0.70878337 -0.93692684 -0.50000000
0.78021194 -0.93692684 -0.42857143
0.78021194 -1.00835541 -0.35714286
0.78021194 -1.00835541 -0.21428571
0.78021194 -1.00835541 -0.07142857
0.78021194 -1.00835541 0.07142857
0.78021194 -1.00835541 0.21428571
0.78021194 -1.00835541 0.35714286
0.70878337 -0.93692684 0.50000000
0.78021194 -0.93692684 0.42857143
0.70878337 -0.79406970 -0.64285714
0.78021194 -0.79406970 -0.57142857
0.78021194 -0.86549827 -0.50000000
0.78021194 -0.86549827 0.50000000
0.70878337 -0.79406970 0.64285714
0.78021194 -0.79406970 0.57142857
0.70878337 -0.65121255 -0.78571429
0.78021194 -0.65121255 -0.71428571
0.78021194 -0.72264112 -0.64285714
0.78021194 -0.72264112 0.64285714
0.70878337 -0.65121255 0.78571429
0.78021194 -0.65121255 0.71428571
0.78021194 -0.50835541 -0.85714286
0.78021194 -0.57978398 -0.78571429
0.78021194 -0.57978398 0.78571429
0.78021194 -0.50835541 0.85714286
0.70878337 -0.36549827 -0.92857143
0.78021194 -0.36549827 -0.85714286
0.70878337 -0.36549827 0.92857143
0.78021194 -0.36549827 0.85714286
0.70878337 -0.22264112 -0.92857143
0.78021194 -0.22264112 -0.85714286
0.70878337 -0.22264112 0.92857143
0.78021194 -0.22264112 0.85714286
0.70878337 -0.07978398 -0.92857143
0.78021194 -0.07978398 -0.85714286
0.78021194 -0.15121255 0.92857143
0.78021194 -0.07978398 1.00000000
0.70878337 0.06307316 -0.92857143
0.78021194 0.06307316 -0.85714286
0.78021194 0.06307316 1.00000000
0.70878337 0.20593030 -0.92857143
0.78021194 0.20593030 -0.85714286
0.70878337 0.20593030 0.92857143
0.78021194 0.13450173 0.92857143
0.78021194 0.20593030 0.85714286
0.70878337 0.34878745 -0.92857143
0.78021194 0.34878745 -0.85714286
0.70878337 0.34878745 0.92857143
0.78021194 0.34878745 0.85714286
0.78021194 0.49164459 -0.85714286
0.78021194 0.49164459 0.85714286
0.78021194 0.56307316 -0.78571429
0.70878337 0.63450173 -0.78571429
0.78021194 0.63450173 -0.71428571
0.70878337 0.63450173 0.78571429
0.78021194 0.56307316 0.78571429
0.78021194 0.63450173 0.71428571
0.70878337 0.77735888 -0.64285714
0.78021194 0.70593030 -0.64285714
0.78021194 0.77735888 -0.57142857
0.78021194 0.77735888 0.71428571
0.70878337 0.92021602 -0.50000000
0.78021194 0.84878745 -0.50000000
0.78021194 0.92021602 -0.42857143
0.70878337 0.92021602 0.50000000
0.78021194 0.84878745 0.50000000
0.78021194 0.92021602 0.42857143
0.78021194 0.84878745 0.64285714
0.70878337 1.06307316 -0.35714286
0.78021194 0.99164459 -0.35714286
0.70878337 1.06307316 -0.21428571
0.78021194 0.99164459 -0.21428571
0.70878337 1.06307316 -0.07142857
0.78021194 0.99164459 -0.07142857
0.70878337 1.06307316 0.07142857
0.78021194 0.99164459 0.07142857
0.70878337 1.06307316 0.21428571
0.78021194 0.99164459 0.21428571
0.78021194 0.99164459 0.35714286
0.85164051 -0.93692684 -0.35714286
0.85164051 -0.93692684 -0.21428571
0.85164051 -0.93692684 -0.07142857
0.85164051 -0.93692684 0.07142857
0.85164051 -0.93692684 0.21428571
0.85164051 -0.93692684 0.35714286
0.85164051 -0.79406970 -0.50000000
0.92306908 -0.79406970 -0.42857143
0.92306908 -0.86549827 -0.35714286
0.92306908 -0.86549827 -0.21428571
0.92306908 -0.86549827 -0.07142857
0.92306908 -0.86549827 0.07142857
0.92306908 -0.86549827 0.21428571
0.92306908 -0.79406970 0.28571429
0.85164051 -0.79406970 0.35714286
0.85164051 -0.79406970 0.50000000
0.85164051 -0.65121255 -0.64285714
0.92306908 -0.65121255 -0.57142857
0.92306908 -0.72264112 -0.50000000
0.92306908 -0.72264112 0.35714286
0.92306908 -0.72264112 0.50000000
0.85164051 -0.65121255 0.64285714
0.92306908 -0.65121255 0.57142857
0.85164051 -0.50835541 -0.78571429
0.92306908 -0.50835541 -0.71428571
0.92306908 -0.57978398 -0.64285714
0.92306908 -0.57978398 0.64285714
0.85164051 -0.50835541 0.78571429
0.92306908 -0.50835541 0.71428571
0.85164051 -0.36549827 -0.78571429
0.92306908 -0.36549827 -0.71428571
0.92306908 -0.43692684 0.78571429
0.92306908 -0.36549827 0.85714286
0.92306908 -0.22264112 -0.85714286
0.92306908 -0.29406970 -0.78571429
0.92306908 -0.22264112 0.85714286
0.92306908 -0.07978398 -0.85714286
0.85164051 -0.07978398 0.92857143
0.92306908 -0.07978398 0.85714286
0.92306908 0.06307316 -0.85714286
0.85164051 0.06307316 0.92857143
0.92306908 0.06307316 0.85714286
0.92306908 0.20593030 -0.85714286
0.92306908 0.20593030 0.85714286
0.92306908 0.34878745 -0.85714286
0.85164051 0.34878745 0.78571429
0.92306908 0.27735888 0.78571429
0.92306908 0.34878745 0.71428571
0.92306908 0.42021602 -0.78571429
0.85164051 0.49164459 -0.78571429
0.92306908 0.49164459 -0.71428571
0.85164051 0.49164459 0.78571429
0.92306908 0.49164459 0.71428571
0.85164051 0.63450173 -0.64285714
0.92306908 0.56307316 -0.64285714
0.92306908 0.63450173 -0.57142857
0.92306908 0.63450173 0.71428571
0.85164051 0.77735888 -0.50000000
0.92306908 0.70593030 -0.50000000
0.92306908 0.77735888 -0.42857143
0.85164051 0.77735888 0.64285714
0.92306908 0.70593030 0.64285714
0.92306908 0.77735888 0.57142857
0.85164051 0.92021602 -0.35714286
0.92306908 0.84878745 -0.35714286
0.85164051 0.92021602 -0.21428571
0.92306908 0.84878745 -0.21428571
0.85164051 0.92021602 -0.07142857
0.92306908 0.84878745 -0.07142857
0.85164051 0.92021602 0.07142857
0.92306908 0.84878745 0.07142857
0.85164051 0.92021602 0.21428571
0.92306908 0.84878745 0.21428571
0.85164051 0.92021602 0.35714286
0.92306908 0.84878745 0.35714286
0.92306908 0.84878745 0.50000000
0.99449766 -0.79406970 -0.35714286
0.99449766 -0.79406970 -0.21428571
0.99449766 -0.79406970 -0.07142857
0.99449766 -0.79406970 0.07142857
0.99449766 -0.79406970 0.21428571
0.99449766 -0.65121255 -0.50000000
1.06592623 -0.65121255 -0.42857143
1.06592623 -0.72264112 -0.35714286
1.06592623 -0.72264112 -0.21428571
1.06592623 -0.72264112 -0.07142857
1.06592623 -0.72264112 0.07142857
1.06592623 -0.72264112 0.21428571
0.99449766 -0.65121255 0.35714286
1.06592623 -0.65121255 0.28571429
0.99449766 -0.65121255 0.50000000
0.99449766 -0.50835541 -0.64285714
1.06592623 -0.50835541 -0.57142857
1.06592623 -0.57978398 -0.50000000
1.06592623 -0.57978398 0.35714286
1.06592623 -0.57978398 0.50000000
1.06592623 -0.57978398 0.64285714
1.06592623 -0.50835541 0.71428571
0.99449766 -0.36549827 -0.64285714
1.06592623 -0.36549827 -0.57142857
0.99449766 -0.36549827 0.78571429
1.06592623 -0.36549827 0.71428571
0.99449766 -0.22264112 -0.78571429
1.06592623 -0.22264112 -0.71428571
1.06592623 -0.29406970 -0.64285714
1.06592623 -0.29406970 0.78571429
1.06592623 -0.22264112 0.85714286
0.99449766 -0.07978398 -0.78571429
1.06592623 -0.07978398 -0.71428571
1.06592623 -0.07978398 0.85714286
0.99449766 0.06307316 -0.78571429
1.06592623 0.06307316 -0.71428571
0.99449766 0.06307316 0.78571429
1.06592623 -0.00835541 0.78571429
1.06592623 0.06307316 0.71428571
0.99449766 0.20593030 -0.78571429
1.06592623 0.20593030 -0.71428571
0.99449766 0.20593030 0.78571429
1.06592623 0.20593030 0.71428571
0.99449766 0.34878745 -0.78571429
1.06592623 0.27735888 -0.64285714
0.99449766 0.34878745 -0.64285714
1.06592623 0.34878745 -0.57142857
1.06592623 0.34878745 0.71428571
0.99449766 0.49164459 -0.64285714
1.06592623 0.49164459 -0.57142857
0.99449766 0.49164459 0.64285714
1.06592623 0.42021602 0.64285714
1.06592623 0.49164459 0.57142857
0.99449766 0.63450173 -0.50000000
1.06592623 0.56307316 -0.50000000
0.99449766 0.63450173 -0.35714286
1.06592623 0.56307316 -0.35714286
1.06592623 0.63450173 -0.28571429
0.99449766 0.63450173 0.64285714
1.06592623 0.63450173 0.57142857
0.99449766 0.77735888 -0.35714286
1.06592623 0.70593030 -0.21428571
0.99449766 0.77735888 -0.21428571
0.99449766 0.77735888 -0.07142857
1.06592623 0.70593030 -0.07142857
0.99449766 0.77735888 0.07142857
1.06592623 0.70593030 0.07142857
1.06592623 0.77735888 0.14285714
0.99449766 0.77735888 0.50000000
1.06592623 0.70593030 0.50000000
1.06592623 0.77735888 0.42857143
1.06592623 0.84878745 0.21428571
1.06592623 0.84878745 0.35714286
1.13735480 -0.65121255 -0.35714286
1.13735480 -0.65121255 -0.21428571
1.13735480 -0.65121255 -0.07142857
1.13735480 -0.65121255 0.07142857
1.13735480 -0.65121255 0.21428571
1.13735480 -0.50835541 -0.50000000
1.13735480 -0.50835541 -0.35714286
1.13735480 -0.50835541 -0.21428571
1.13735480 -0.50835541 -0.07142857
1.13735480 -0.50835541 0.07142857
1.13735480 -0.50835541 0.21428571
1.13735480 -0.50835541 0.35714286
1.13735480 -0.50835541 0.50000000
1.13735480 -0.50835541 0.64285714
1.13735480 -0.36549827 -0.50000000
1.20878337 -0.36549827 -0.42857143
1.20878337 -0.43692684 -0.35714286
1.20878337 -0.43692684 -0.21428571
1.20878337 -0.43692684 -0.07142857
1.20878337 -0.43692684 0.07142857
1.20878337 -0.43692684 0.21428571
1.20878337 -0.43692684 0.35714286
1.20878337 -0.36549827 0.42857143
1.13735480 -0.36549827 0.50000000
1.13735480 -0.36549827 0.64285714
1.13735480 -0.22264112 -0.64285714
1.13735480 -0.22264112 -0.50000000
1.20878337 -0.22264112 -0.42857143
1.13735480 -0.22264112 0.50000000
1.20878337 -0.22264112 0.42857143
1.13735480 -0.22264112 0.64285714
1.13735480 -0.22264112 0.78571429
1.13735480 -0.07978398 -0.64285714
1.13735480 -0.07978398 -0.50000000
1.20878337 -0.07978398 -0.42857143
1.13735480 -0.07978398 0.50000000
1.20878337 -0.07978398 0.42857143
1.13735480 -0.07978398 0.64285714
1.13735480 -0.07978398 0.78571429
1.13735480 0.06307316 -0.64285714
1.13735480 0.06307316 -0.50000000
1.20878337 0.06307316 -0.42857143
1.13735480 0.06307316 0.35714286
1.20878337 -0.00835541 0.35714286
1.20878337 0.06307316 0.28571429
1.13735480 0.06307316 0.50000000
1.13735480 0.06307316 0.64285714
1.13735480 0.20593030 -0.64285714
1.13735480 0.20593030 -0.50000000
1.20878337 0.20593030 -0.42857143
1.13735480 0.20593030 0.35714286
1.20878337 0.20593030 0.28571429
1.13735480 0.20593030 0.50000000
1.13735480 0.20593030 0.64285714
1.13735480 0.34878745 -0.50000000
1.20878337 0.27735888 -0.35714286
1.13735480 0.34878745 -0.35714286
1.20878337 0.34878745 -0.28571429
1.13735480 0.34878745 0.35714286
1.20878337 0.34878745 0.28571429
1.13735480 0.34878745 0.50000000
1.13735480 0.34878745 0.64285714
1.13735480 0.49164459 -0.50000000
1.13735480 0.49164459 -0.35714286
1.20878337 0.42021602 -0.21428571
1.13735480 0.49164459 -0.21428571
1.13735480 0.49164459 -0.07142857
1.20878337 0.42021602 -0.07142857
1.13735480 0.49164459 0.07142857
1.20878337 0.42021602 0.07142857
1.13735480 0.49164459 0.21428571
1.20878337 0.42021602 0.21428571
1.13735480 0.49164459 0.35714286
1.13735480 0.49164459 0.50000000
1.13735480 0.63450173 -0.21428571
1.13735480 0.63450173 -0.07142857
1.13735480 0.63450173 0.07142857
1.13735480 0.63450173 0.21428571
1.13735480 0.63450173 0.35714286
1.13735480 0.63450173 0.50000000
1.13735480 0.77735888 0.21428571
1.13735480 0.77735888 0.35714286
1.28021194 -0.36549827 -0.35714286
1.28021194 -0.36549827 -0.21428571
1.28021194 -0.36549827 -0.07142857
1.28021194 -0.36549827 0.07142857
1.28021194 -0.36549827 0.21428571
1.28021194 -0.36549827 0.35714286
1.28021194 -0.22264112 -0.35714286
1.28021194 -0.22264112 -0.21428571
1.28021194 -0.22264112 -0.07142857
1.28021194 -0.22264112 0.07142857
1.28021194 -0.22264112 0.21428571
1.28021194 -0.22264112 0.35714286
1.28021194 -0.07978398 -0.35714286
1.28021194 -0.07978398 -0.21428571
1.28021194 -0.07978398 -0.07142857
1.28021194 -0.07978398 0.07142857
1.28021194 -0.07978398 0.21428571
1.28021194 -0.07978398 0.35714286
1.28021194 0.06307316 -0.35714286
1.28021194 0.06307316 -0.21428571
1.28021194 0.06307316 -0.07142857
1.28021194 0.06307316 0.07142857
1.28021194 0.06307316 0.21428571
1.28021194 0.20593030 -0.35714286
1.28021194 0.20593030 -0.21428571
1.28021194 0.20593030 -0.07142857
1.28021194 0.20593030 0.07142857
1.28021194 0.20593030 0.21428571
1.28021194 0.34878745 -0.21428571
1.28021194 0.34878745 -0.07142857
1.28021194 0.34878745 0.07142857
1.28021194 0.34878745 0.21428571
3 2 1 0
3 4 3 0
3 0 3 2
3 6 5 4
3 4 5 3
3 8 7 6
3 6 7 5
3 10 9 8
3 8 9 7
3 10 11 9
3 0 1 12
3 12 1 13
3 0 14 4
3 0 12 14
3 4 15 6
3 4 14 15
3 6 16 8
3 6 15 16
3 8 17 10
3 8 16 17
3 11 10 18
3 18 10 17
3 12 13 19
3 19 13 20
3 12 21 14
3 12 19 21
3 14 22 15
3 14 21 22
3 15 23 16
3 15 22 23
3 16 24 17
3 16 23 24
3 18 17 25
3 25 17 24
3 19 20 26
3 26 20 27
3 19 28 21
3 19 26 28
3 21 29 22
3 21 28 29
3 22 30 23
3 22 29 30
3 23 31 24
3 23 30 31
3 25 24 32
3 32 24 31
3 26 27 33
3 33 27 34
3 26 35 28
3 26 33 35
3 28 36 29
3 28 35 36
3 29 37 30
3 29 36 37
3 30 38 31
3 30 37 38
3 32 31 39
3 31 40 39
3 31 38 40
3 40 41 39
3 33 34 42
3 42 34 43
3 33 44 35
3 33 42 44
3 35 45 36
3 35 44 45
3 36 46 37
3 36 45 46
3 37 47 38
3 37 46 47
3 49 40 48
3 40 47 48
3 40 38 47
3 40 49 41
3 43 50 42
3 42 50 44
3 44 50 51
3 44 51 45
3 45 51 52
3 45 52 46
3 46 52 53
3 46 53 47
3 47 53 54
3 47 54 48
3 57 56 55
3 59 58 55
3 55 58 57
3 61 60 59
3 59 60 58
3 63 62 61
3 61 62 60
3 65 64 63
3 63 64 62
3 65 66 64
3 69 68 67
3 69 67 56
3 67 55 56
3 67 70 55
3 55 71 59
3 55 70 71
3 59 72 61
3 59 71 72
3 61 73 63
3 61 72 73
3 63 74 65
3 63 73 74
3 66 65 75
3 65 76 75
3 65 74 76
3 78 77 76
3 76 77 75
3 78 79 77
3 82 81 80
3 82 80 68
3 80 67 68
3 80 83 67
3 83 1 2
3 70 83 2
3 67 83 70
3 70 2 3
3 70 3 71
3 71 3 5
3 71 5 72
3 72 5 7
3 72 7 73
3 73 7 9
3 73 9 74
3 74 9 11
3 84 74 11
3 76 74 84
3 76 85 78
3 76 84 85
3 79 78 86
3 86 78 85
3 80 81 87
3 87 81 88
3 80 89 83
3 80 87 89
3 89 13 1
3 89 1 83
3 18 90 84
3 18 84 11
3 84 91 85
3 84 90 91
3 86 85 92
3 85 93 92
3 85 91 93
3 93 94 92
3 87 88 95
3 95 88 96
3 87 97 89
3 87 95 97
3 97 20 13
3 97 13 89
3 25 98 90
3 25 90 18
3 90 99 91
3 90 98 99
3 101 93 100
3 93 99 100
3 93 91 99
3 93 101 94
3 95 96 102
3 102 96 103
3 95 104 97
3 95 102 104
3 104 27 20
3 104 20 97
3 32 105 98
3 32 98 25
3 98 106 99
3 98 105 106
3 100 99 107
3 107 99 106
3 102 103 108
3 108 103 109
3 102 110 104
3 102 108 110
3 110 34 27
3 110 27 104
3 39 105 32
3 105 39 41
3 111 105 41
3 106 105 111
3 107 106 112
3 112 106 111
3 108 109 113
3 113 109 114
3 108 115 110
3 108 113 115
3 115 43 34
3 115 34 110
3 48 116 49
3 111 41 49
3 116 111 49
3 117 111 116
3 112 111 118
3 118 111 117
3 114 119 113
3 121 120 119
3 120 113 119
3 120 115 113
3 122 50 43
3 115 122 43
3 120 122 115
3 123 51 50
3 123 50 122
3 124 52 51
3 124 51 123
3 125 53 52
3 125 52 124
3 126 54 53
3 126 53 125
3 116 48 54
3 126 116 54
3 127 116 126
3 116 128 117
3 116 127 128
3 118 117 129
3 129 117 128
3 121 130 120
3 132 131 130
3 131 120 130
3 131 122 120
3 122 133 123
3 122 131 133
3 123 134 124
3 123 133 134
3 124 135 125
3 124 134 135
3 125 136 126
3 125 135 136
3 126 137 127
3 126 136 137
3 139 128 138
3 128 137 138
3 128 127 137
3 128 139 129
3 132 140 131
3 131 140 133
3 133 140 141
3 133 141 134
3 134 141 142
3 134 142 135
3 135 142 143
3 135 143 136
3 136 143 144
3 136 144 137
3 137 144 145
3 137 145 138
3 148 147 146
3 150 149 146
3 146 149 148
3 152 151 150
3 150 151 149
3 154 153 152
3 152 153 151
3 156 155 154
3 154 155 153
3 158 157 156
3 156 157 155
3 158 159 157
3 162 161 160
3 162 160 147
3 147 160 146
3 160 56 146
3 56 57 146
3 146 57 58
3 146 58 150
3 150 58 60
3 150 60 152
3 152 60 62
3 152 62 154
3 154 62 64
3 154 64 156
3 156 64 66
3 163 156 66
3 158 156 163
3 159 158 164
3 158 165 164
3 158 163 165
3 165 166 164
3 169 168 167
3 169 167 161
3 161 167 160
3 167 68 160
3 68 69 160
3 160 69 56
3 75 163 66
3 163 75 77
3 163 77 165
3 171 170 79
3 79 170 77
3 170 166 77
3 166 165 77
3 171 172 170
3 175 174 173
3 175 173 168
3 168 173 167
3 173 81 167
3 81 82 167
3 167 82 68
3 86 176 171
3 86 171 79
3 172 171 177
3 177 171 176
3 173 174 178
3 178 174 179
3 178 88 81
3 178 81 173
3 92 176 86
3 181 180 94
3 94 180 92
3 180 177 92
3 177 176 92
3 181 182 180
3 178 179 183
3 183 179 184
3 183 96 88
3 183 88 178
3 100 185 101
3 181 94 101
3 185 181 101
3 186 181 185
3 182 181 187
3 187 181 186
3 183 184 188
3 188 184 189
3 188 103 96
3 188 96 183
3 107 190 185
3 107 185 100
3 185 191 186
3 185 190 191
3 187 186 192
3 192 186 191
3 188 189 193
3 193 189 194
3 193 109 103
3 193 103 188
3 112 195 190
3 112 190 107
3 190 196 191
3 190 195 196
3 192 191 197
3 197 191 196
3 193 194 198
3 198 194 199
3 198 114 109
3 198 109 193
3 118 200 195
3 118 195 112
3 202 196 201
3 196 200 201
3 196 195 200
3 196 202 197
3 199 203 198
3 203 205 204
3 203 204 119
3 198 203 119
3 114 198 119
3 204 121 119
3 129 206 200
3 129 200 118
3 201 200 207
3 207 200 206
3 205 208 204
3 208 210 209
3 208 209 130
3 204 208 130
3 121 204 130
3 209 132 130
3 138 211 139
3 211 212 139
3 139 212 129
3 212 213 129
3 213 206 129
3 206 213 207
3 210 214 209
3 214 216 215
3 214 215 140
3 209 214 140
3 132 209 140
3 217 141 140
3 217 140 215
3 218 142 141
3 218 141 217
3 219 143 142
3 219 142 218
3 220 144 143
3 220 143 219
3 221 145 144
3 221 144 220
3 221 222 145
3 145 222 138
3 222 223 138
3 223 211 138
3 211 223 212
3 216 224 215
3 215 224 217
3 217 224 225
3 217 225 218
3 218 225 226
3 218 226 219
3 219 226 227
3 219 227 220
3 220 227 228
3 220 228 221
3 221 228 229
3 221 229 222
3 232 231 230
3 234 233 230
3 230 233 232
3 236 235 234
3 234 235 233
3 238 237 236
3 236 237 235
3 240 239 238
3 238 239 237
3 242 241 240
3 240 241 239
3 242 243 241
3 246 245 244
3 246 244 231
3 231 244 230
3 244 147 230
3 147 148 230
3 230 148 149
3 230 149 234
3 234 149 151
3 234 151 236
3 236 151 153
3 236 153 238
3 238 153 155
3 238 155 240
3 240 155 157
3 240 157 242
3 248 247 159
3 159 247 157
3 247 243 157
3 243 242 157
3 248 249 247
3 252 251 250
3 252 250 245
3 245 250 244
3 250 161 244
3 161 162 244
3 244 162 147
3 164 248 159
3 254 253 166
3 166 253 164
3 253 249 164
3 249 248 164
3 254 255 253
3 258 257 256
3 258 256 251
3 251 256 250
3 256 168 250
3 168 169 250
3 250 169 161
3 170 254 166
3 260 259 172
3 172 259 170
3 259 255 170
3 255 254 170
3 260 261 259
3 256 257 175
3 257 174 175
3 257 262 174
3 256 175 168
3 177 263 260
3 177 260 172
3 261 260 264
3 264 260 263
3 262 179 174
3 265 179 262
3 180 263 177
3 180 182 263
3 182 264 263
3 182 266 264
3 265 184 179
3 267 184 265
3 187 266 182
3 187 268 266
3 267 189 184
3 269 189 267
3 192 268 187
3 192 270 268
3 269 194 189
3 271 194 269
3 197 270 192
3 197 272 270
3 271 199 194
3 273 199 271
3 201 274 202
3 274 275 202
3 275 197 202
3 275 272 197
3 203 199 276
3 199 277 276
3 199 273 277
3 276 205 203
3 207 278 274
3 207 274 201
3 275 274 279
3 279 274 278
3 277 280 276
3 280 282 281
3 280 281 208
3 276 280 208
3 205 276 208
3 281 210 208
3 212 283 213
3 283 284 213
3 213 284 207
3 284 285 207
3 285 278 207
3 278 285 279
3 282 286 281
3 286 288 287
3 286 287 214
3 281 286 214
3 210 281 214
3 287 216 214
3 222 289 223
3 289 290 223
3 223 290 212
3 290 291 212
3 291 283 212
3 283 291 284
3 288 292 287
3 292 294 293
3 292 293 224
3 287 292 224
3 216 287 224
3 295 225 224
3 295 224 293
3 296 226 225
3 296 225 295
3 297 227 226
3 297 226 296
3 298 228 227
3 298 227 297
3 299 229 228
3 299 228 298
3 299 300 229
3 229 300 222
3 300 301 222
3 301 289 222
3 289 301 290
3 294 302 293
3 293 302 295
3 295 302 303
3 295 303 296
3 296 303 304
3 296 304 297
3 297 304 305
3 297 305 298
3 298 305 306
3 298 306 299
3 299 306 307
3 299 307 300
3 310 309 308
3 312 311 308
3 308 311 310
3 314 313 312
3 312 313 311
3 316 315 314
3 314 315 313
3 318 317 316
3 316 317 315
3 318 319 317
3 322 321 320
3 322 320 309
3 309 320 308
3 320 231 308
3 231 232 308
3 308 232 233
3 308 233 312
3 312 233 235
3 312 235 314
3 314 235 237
3 314 237 316
3 316 237 239
3 316 239 318
3 323 319 318
3 239 323 318
3 241 323 239
3 325 324 243
3 324 241 243
3 324 323 241
3 325 326 324
3 329 328 327
3 329 327 321
3 321 327 320
3 327 245 320
3 245 246 320
3 320 246 231
3 247 325 243
3 331 330 249
3 249 330 247
3 330 326 247
3 326 325 247
3 331 332 330
3 335 334 333
3 335 333 328
3 328 333 327
3 333 251 327
3 251 252 327
3 327 252 245
3 253 331 249
3 337 336 255
3 255 336 253
3 336 332 253
3 332 331 253
3 337 338 336
3 333 334 258
3 334 257 258
3 334 339 257
3 333 258 251
3 259 337 255
3 259 261 337
3 261 338 337
3 261 340 338
3 343 342 341
3 339 343 341
3 262 339 341
3 257 339 262
3 264 345 344
3 340 264 344
3 261 264 340
3 345 346 344
3 341 342 347
3 347 342 348
3 347 265 262
3 347 262 341
3 266 349 345
3 266 345 264
3 346 345 350
3 350 345 349
3 347 348 351
3 351 348 352
3 351 267 265
3 351 265 347
3 268 353 349
3 268 349 266
3 350 349 354
3 354 349 353
3 351 352 355
3 355 352 356
3 355 269 267
3 355 267 351
3 270 357 353
3 270 353 268
3 354 353 358
3 358 353 357
3 355 356 359
3 359 356 360
3 359 271 269
3 359 269 355
3 272 361 357
3 272 357 270
3 358 357 362
3 362 357 361
3 359 360 363
3 363 360 364
3 363 273 271
3 363 271 359
3 275 365 361
3 275 361 272
3 362 361 366
3 366 361 365
3 364 367 363
3 273 363 367
3 368 273 367
3 277 273 368
3 370 369 365
3 275 370 365
3 279 370 275
3 365 369 366
3 280 277 371
3 277 372 371
3 277 368 372
3 371 282 280
3 284 373 285
3 373 374 285
3 374 279 285
3 374 370 279
3 372 375 371
3 375 377 376
3 375 376 286
3 371 375 286
3 282 371 286
3 376 288 286
3 379 378 291
3 379 291 290
3 284 291 373
3 291 380 373
3 291 378 380
3 373 380 374
3 377 381 376
3 381 383 382
3 381 382 292
3 376 381 292
3 288 376 292
3 382 294 292
3 385 384 301
3 385 301 300
3 290 301 379
3 379 301 384
3 383 386 382
3 386 388 387
3 386 387 302
3 382 386 302
3 294 382 302
3 389 303 302
3 389 302 387
3 390 304 303
3 390 303 389
3 391 305 304
3 391 304 390
3 392 306 305
3 392 305 391
3 306 392 393
3 394 306 393
3 307 306 394
3 300 307 385
3 385 307 394
3 388 395 387
3 387 395 389
3 389 395 396
3 389 396 390
3 390 396 397
3 390 397 391
3 391 397 398
3 391 398 392
3 392 398 399
3 392 399 393
3 402 401 400
3 309 310 400
3 310 402 400
3 310 403 402
3 404 310 311
3 404 403 310
3 405 311 313
3 405 404 311
3 406 313 315
3 406 405 313
3 407 315 317
3 407 406 315
3 409 408 319
3 408 317 319
3 408 407 317
3 409 410 408
3 413 412 411
3 413 411 401
3 401 411 400
3 411 321 400
3 321 322 400
3 400 322 309
3 323 409 319
3 414 410 409
3 323 414 409
3 324 414 323
3 416 415 326
3 415 324 326
3 415 414 324
3 416 417 415
3 420 419 418
3 420 418 412
3 412 418 411
3 418 328 411
3 328 329 411
3 411 329 321
3 330 416 326
3 422 421 332
3 332 421 330
3 421 417 330
3 417 416 330
3 422 423 421
3 418 419 335
3 419 334 335
3 419 424 334
3 418 335 328
3 336 422 332
3 336 338 422
3 338 423 422
3 338 425 423
3 428 427 426
3 424 428 426
3 339 424 426
3 334 424 339
3 340 430 429
3 425 340 429
3 338 340 425
3 430 431 429
3 426 427 343
3 427 342 343
3 427 432 342
3 426 343 339
3 344 430 340
3 344 346 430
3 346 431 430
3 346 433 431
3 432 348 342
3 434 348 432
3 350 433 346
3 350 435 433
3 434 352 348
3 436 352 434
3 354 435 350
3 354 437 435
3 436 356 352
3 438 356 436
3 358 437 354
3 358 439 437
3 438 360 356
3 440 360 438
3 362 439 358
3 362 441 439
3 440 364 360
3 442 364 440
3 366 441 362
3 366 443 441
3 367 364 444
3 364 445 444
3 364 442 445
3 444 368 367
3 370 446 369
3 446 447 369
3 447 366 369
3 447 443 366
3 445 448 444
3 368 444 448
3 449 368 448
3 372 368 449
3 451 450 446
3 370 451 446
3 374 451 370
3 446 450 447
3 375 372 452
3 372 453 452
3 372 449 453
3 452 377 375
3 379 454 378
3 455 380 378
3 455 378 454
3 455 456 380
3 456 374 380
3 456 451 374
3 453 457 452
3 457 459 458
3 457 458 381
3 452 457 381
3 377 452 381
3 458 383 381
3 385 460 384
3 460 461 384
3 384 461 379
3 461 462 379
3 462 454 379
3 454 462 455
3 455 462 463
3 455 463 456
3 459 464 458
3 464 466 465
3 464 465 386
3 458 464 386
3 383 458 386
3 465 388 386
3 393 467 394
3 467 468 394
3 394 468 385
3 468 469 385
3 469 460 385
3 460 469 461
3 466 470 465
3 465 470 388
3 470 395 388
3 470 471 395
3 395 472 396
3 471 472 395
3 396 473 397
3 472 473 396
3 397 474 398
3 473 474 397
3 398 475 399
3 474 475 398
3 393 399 467
3 399 476 467
3 399 475 476
3 467 476 468
3 479 478 477
3 481 480 477
3 477 480 479
3 483 482 481
3 481 482 480
3 485 484 483
3 483 484 482
3 487 486 485
3 485 486 484
3 487 488 486
3 490 489 402
3 402 489 401
3 403 477 478
3 490 403 478
3 402 403 490
3 477 403 404
3 477 404 481
3 481 404 405
3 481 405 483
3 483 405 406
3 483 406 485
3 485 406 407
3 485 407 487
3 491 488 487
3 407 491 487
3 408 491 407
3 493 492 410
3 492 408 410
3 492 491 408
3 493 494 492
3 496 495 413
3 413 495 412
3 413 401 489
3 413 489 496
3 414 493 410
3 497 494 493
3 414 497 493
3 415 497 414
3 415 417 497
3 497 417 498
3 500 499 420
3 420 499 419
3 420 412 495
3 420 495 500
3 501 498 417
3 501 417 421
3 421 423 501
3 501 423 502
3 505 504 503
3 499 505 503
3 424 499 503
3 419 499 424
3 425 507 506
3 502 425 506
3 423 425 502
3 507 508 506
3 503 504 428
3 504 427 428
3 504 509 427
3 503 428 424
3 429 507 425
3 429 431 507
3 431 508 507
3 431 510 508
3 509 432 427
3 511 432 509
3 433 510 431
3 433 512 510
3 511 434 432
3 513 434 511
3 435 512 433
3 435 514 512
3 513 436 434
3 515 436 513
3 437 514 435
3 437 516 514
3 515 438 436
3 517 438 515
3 439 516 437
3 439 518 516
3 517 440 438
3 519 440 517
3 441 518 439
3 441 520 518
3 519 442 440
3 521 442 519
3 443 520 441
3 443 522 520
3 521 445 442
3 523 445 521
3 447 522 443
3 447 524 522
3 448 445 525
3 445 526 525
3 445 523 526
3 525 449 448
3 451 527 450
3 527 528 450
3 528 447 450
3 528 524 447
3 526 529 525
3 449 525 529
3 530 449 529
3 453 449 530
3 532 531 527
3 451 532 527
3 456 532 451
3 527 531 528
3 457 453 533
3 453 534 533
3 453 530 534
3 533 459 457
3 461 535 462
3 536 463 462
3 536 462 535
3 536 537 463
3 537 456 463
3 537 532 456
3 534 538 533
3 533 538 459
3 538 464 459
3 538 539 464
3 466 464 539
3 466 539 540
3 468 541 469
3 535 461 469
3 541 535 469
3 542 535 541
3 544 536 543
3 536 542 543
3 536 535 542
3 536 544 537
3 540 545 466
3 466 545 470
3 545 547 546
3 471 545 546
3 470 545 471
3 548 472 471
3 548 471 546
3 549 473 472
3 549 472 548
3 550 474 473
3 550 473 549
3 551 475 474
3 551 474 550
3 552 476 475
3 552 475 551
3 552 553 476
3 476 553 468
3 553 554 468
3 554 541 468
3 541 554 542
3 542 554 555
3 542 555 543
3 547 556 546
3 546 556 548
3 548 556 557
3 548 557 549
3 549 557 558
3 549 558 550
3 550 558 559
3 550 559 551
3 551 559 560
3 551 560 552
3 552 560 561
3 552 561 553
3 563 562 479
3 479 562 478
3 564 479 480
3 564 563 479
3 565 480 482
3 565 564 480
3 566 482 484
3 566 565 482
3 567 484 486
3 567 566 484
3 569 568 488
3 568 486 488
3 568 567 486
3 569 570 568
3 573 572 571
3 489 490 571
3 490 573 571
3 490 574 573
3 490 478 562
3 490 562 574
3 491 569 488
3 575 570 569
3 491 575 569
3 492 575 491
3 492 494 575
3 575 494 576
3 579 578 577
3 579 577 572
3 572 577 571
3 577 495 571
3 495 496 571
3 571 496 489
3 580 576 494
3 580 494 497
3 582 581 498
3 581 497 498
3 581 580 497
3 582 583 581
3 577 578 500
3 578 499 500
3 578 584 499
3 577 500 495
3 501 582 498
3 501 502 582
3 502 583 582
3 502 585 583
3 587 586 505
3 505 586 504
3 505 499 584
3 505 584 587
3 588 585 502
3 588 502 506
3 506 508 588
3 588 508 589
3 586 509 504
3 590 509 586
3 510 589 508
3 510 591 589
3 590 511 509
3 592 511 590
3 512 591 510
3 512 593 591
3 592 513 511
3 594 513 592
3 514 593 512
3 514 595 593
3 594 515 513
3 596 515 594
3 516 595 514
3 516 597 595
3 596 517 515
3 598 517 596
3 518 597 516
3 518 599 597
3 598 519 517
3 600 519 598
3 520 599 518
3 520 601 599
3 600 521 519
3 602 521 600
3 522 601 520
3 522 603 601
3 602 523 521
3 604 523 602
3 524 603 522
3 524 605 603
3 604 526 523
3 606 526 604
3 528 605 524
3 528 607 605
3 606 608 526
3 526 608 529
3 530 529 608
3 530 608 609
3 532 610 531
3 610 611 531
3 611 528 531
3 611 607 528
3 609 534 530
3 612 534 609
3 614 613 610
3 532 614 610
3 537 614 532
3 610 613 611
3 612 615 534
3 534 615 538
3 615 617 616
3 539 615 616
3 538 615 539
3 616 540 539
3 619 618 544
3 619 544 543
3 537 544 614
3 614 544 618
3 617 620 616
3 616 620 540
3 620 545 540
3 620 621 545
3 547 545 621
3 547 621 622
3 624 623 554
3 624 554 553
3 554 625 555
3 623 625 554
3 543 555 619
3 619 555 625
3 622 626 547
3 547 626 556
3 556 627 557
3 626 627 556
3 557 628 558
3 627 628 557
3 558 629 559
3 628 629 558
3 559 630 560
3 629 630 559
3 560 631 561
3 630 631 560
3 553 561 624
3 624 561 631
3 633 632 563
3 563 632 562
3 634 563 564
3 634 633 563
3 635 564 565
3 635 634 564
3 636 565 566
3 636 635 565
3 637 566 567
3 637 636 566
3 639 637 638
3 637 568 638
3 637 567 568
3 570 638 568
3 641 640 573
3 573 640 572
3 642 573 574
3 642 641 573
3 574 562 632
3 574 632 642
3 643 639 638
3 643 638 570
3 575 643 570
3 644 643 575
3 575 576 644
3 644 576 645
3 647 646 579
3 579 646 578
3 579 572 640
3 579 640 647
3 648 645 576
3 648 576 580
3 649 580 581
3 649 648 580
3 581 583 649
3 649 583 650
3 646 584 578
3 651 584 646
3 585 650 583
3 585 652 650
3 654 653 587
3 587 653 586
3 587 584 651
3 587 651 654
3 655 652 585
3 655 585 588
3 588 589 655
3 655 589 656
3 653 590 586
3 657 590 653
3 591 656 589
3 591 658 656
3 657 592 590
3 659 592 657
3 593 658 591
3 593 660 658
3 659 594 592
3 661 594 659
3 595 660 593
3 595 662 660
3 661 596 594
3 663 596 661
3 597 662 595
3 597 664 662
3 663 598 596
3 665 598 663
3 599 664 597
3 599 666 664
3 665 600 598
3 667 600 665
3 601 666 599
3 601 668 666
3 667 602 600
3 669 602 667
3 603 668 601
3 603 670 668
3 669 604 602
3 671 604 669
3 605 670 603
3 605 672 670
3 671 606 604
3 673 606 671
3 607 672 605
3 607 674 672
3 608 606 675
3 606 676 675
3 606 673 676
3 675 609 608
3 611 674 607
3 611 677 674
3 676 678 675
3 609 675 678
3 679 609 678
3 612 609 679
3 614 680 613
3 680 681 613
3 681 611 613
3 681 677 611
3 679 682 612
3 612 682 615
3 617 615 682
3 617 682 683
3 685 684 618
3 685 618 619
3 614 618 680
3 618 686 680
3 618 684 686
3 680 686 681
3 683 687 617
3 617 687 620
3 620 688 621
3 687 688 620
3 622 621 688
3 622 688 689
3 691 690 623
3 691 623 624
3 623 692 625
3 690 692 623
3 619 625 685
3 685 625 692
3 689 693 622
3 622 693 626
3 626 694 627
3 693 694 626
3 627 695 628
3 694 695 627
3 628 696 629
3 695 696 628
3 629 697 630
3 696 697 629
3 630 698 631
3 697 698 630
3 624 631 691
3 691 631 698
3 700 699 633
3 633 699 632
3 701 633 634
3 701 700 633
3 702 634 635
3 702 701 634
3 703 635 636
3 703 702 635
3 704 636 637
3 704 703 636
3 637 639 704
3 704 639 705
3 707 706 641
3 641 706 640
3 708 641 642
3 708 707 641
3 642 632 699
3 642 699 708
3 709 705 639
3 709 639 643
3 710 643 644
3 710 709 643
3 644 645 710
3 710 645 711
3 713 712 647
3 647 712 646
3 647 640 706
3 647 706 713
3 714 711 645
3 714 645 648
3 715 648 649
3 715 714 648
3 649 650 715
3 715 650 716
3 712 651 646
3 717 651 712
3 652 716 650
3 652 718 716
3 720 719 654
3 654 719 653
3 654 651 717
3 654 717 720
3 721 718 652
3 721 652 655
3 655 656 721
3 721 656 722
3 719 657 653
3 723 657 719
3 658 722 656
3 658 724 722
3 723 659 657
3 725 659 723
3 660 724 658
3 660 726 724
3 725 661 659
3 727 661 725
3 662 726 660
3 662 728 726
3 727 663 661
3 729 663 727
3 664 728 662
3 664 730 728
3 729 665 663
3 731 665 729
3 666 730 664
3 666 732 730
3 731 667 665
3 733 667 731
3 668 732 666
3 668 734 732
3 733 669 667
3 735 669 733
3 670 734 668
3 670 736 734
3 735 671 669
3 737 671 735
3 672 736 670
3 672 738 736
3 737 673 671
3 739 673 737
3 674 738 672
3 674 740 738
3 739 676 673
3 741 676 739
3 677 740 674
3 677 742 740
3 741 743 676
3 676 743 678
3 679 678 743
3 679 743 744
3 681 742 677
3 681 745 742
3 744 746 679
3 679 746 682
3 683 682 746
3 683 746 747
3 749 748 684
3 749 684 685
3 684 750 686
3 748 750 684
3 681 686 745
3 745 686 750
3 747 751 683
3 683 751 687
3 687 752 688
3 751 752 687
3 689 688 752
3 689 752 753
3 755 754 690
3 755 690 691
3 690 756 692
3 754 756 690
3 685 692 749
3 749 692 756
3 753 757 689
3 689 757 693
3 693 758 694
3 757 758 693
3 694 759 695
3 758 759 694
3 695 760 696
3 759 760 695
3 696 761 697
3 760 761 696
3 697 762 698
3 761 762 697
3 691 698 755
3 755 698 762
3 764 763 700
3 700 763 699
3 765 700 701
3 765 764 700
3 766 701 702
3 766 765 701
3 767 702 703
3 767 766 702
3 768 703 704
3 768 767 703
3 704 705 768
3 768 705 769
3 771 770 707
3 707 770 706
3 772 707 708
3 772 771 707
3 708 699 763
3 708 763 772
3 773 769 705
3 773 705 709
3 774 709 710
3 774 773 709
3 710 711 774
3 774 711 775
3 777 776 713
3 713 776 712
3 713 706 770
3 713 770 777
3 778 775 711
3 778 711 714
3 779 714 715
3 779 778 714
3 715 716 779
3 779 716 780
3 776 717 712
3 781 717 776
3 718 780 716
3 718 782 780
3 784 783 720
3 720 783 719
3 720 717 781
3 720 781 784
3 785 782 718
3 785 718 721
3 721 722 785
3 785 722 786
3 783 723 719
3 787 723 783
3 724 786 722
3 724 788 786
3 787 725 723
3 789 725 787
3 726 788 724
3 726 790 788
3 789 727 725
3 791 727 789
3 728 790 726
3 728 792 790
3 791 729 727
3 793 729 791
3 730 792 728
3 730 794 792
3 793 731 729
3 795 731 793
3 732 794 730
3 732 796 794
3 795 733 731
3 797 733 795
3 734 796 732
3 734 798 796
3 797 735 733
3 799 735 797
3 736 798 734
3 736 800 798
3 799 737 735
3 801 737 799
3 738 800 736
3 738 802 800
3 801 739 737
3 803 739 801
3 740 802 738
3 740 804 802
3 803 741 739
3 805 741 803
3 742 804 740
3 742 806 804
3 805 807 741
3 741 807 743
3 744 743 807
3 744 807 808
3 745 806 742
3 745 809 806
3 808 810 744
3 744 810 746
3 747 746 810
3 747 810 811
3 814 813 812
3 748 749 812
3 813 748 812
3 815 748 813
3 748 816 750
3 815 816 748
3 745 750 809
3 809 750 816
3 811 817 747
3 747 817 751
3 751 818 752
3 817 818 751
3 753 752 818
3 753 818 819
3 822 821 820
3 754 755 820
3 821 754 820
3 823 754 821
3 812 756 814
3 756 823 814
3 756 754 823
3 756 812 749
3 819 824 753
3 753 824 757
3 757 825 758
3 824 825 757
3 758 826 759
3 825 826 758
3 759 827 760
3 826 827 759
3 760 828 761
3 827 828 760
3 820 762 822
3 762 828 822
3 762 761 828
3 762 820 755
3 829 763 764
3 829 764 830
3 764 831 830
3 764 765 831
3 832 765 766
3 832 831 765
3 833 766 767
3 833 832 766
3 834 767 768
3 834 833 767
3 768 769 834
3 834 769 835
3 836 770 771
3 836 771 837
3 771 838 837
3 771 772 838
3 772 763 829
3 839 772 829
3 838 772 839
3 839 829 830
3 840 835 769
3 840 769 773
3 841 773 774
3 841 840 773
3 774 775 841
3 841 775 842
3 844 843 777
3 777 843 776
3 777 770 836
3 845 777 836
3 844 777 845
3 845 836 837
3 846 842 775
3 846 775 778
3 848 846 847
3 846 779 847
3 846 778 779
3 780 847 779
3 843 781 776
3 849 781 843
3 850 848 847
3 847 780 850
3 780 851 850
3 780 782 851
3 853 852 784
3 784 852 783
3 784 781 849
3 784 849 853
3 854 851 782
3 854 782 785
3 785 786 854
3 854 786 855
3 852 787 783
3 856 787 852
3 788 855 786
3 788 857 855
3 856 789 787
3 858 789 856
3 790 857 788
3 790 859 857
3 858 791 789
3 860 791 858
3 792 859 790
3 792 861 859
3 860 793 791
3 862 793 860
3 794 861 792
3 794 863 861
3 862 795 793
3 864 795 862
3 796 863 794
3 796 865 863
3 864 797 795
3 866 797 864
3 798 865 796
3 798 867 865
3 866 799 797
3 868 799 866
3 800 867 798
3 800 869 867
3 868 801 799
3 870 801 868
3 802 869 800
3 802 871 869
3 870 803 801
3 872 803 870
3 804 871 802
3 804 873 871
3 872 805 803
3 874 805 872
3 877 876 875
3 876 873 875
3 873 806 875
3 873 804 806
3 874 878 805
3 805 878 807
3 808 807 878
3 808 878 879
3 877 875 880
3 877 880 881
3 809 880 806
3 806 880 875
3 879 882 808
3 808 882 810
3 884 883 811
3 810 884 811
3 882 884 810
3 885 883 884
3 888 887 886
3 813 814 886
3 887 813 886
3 889 813 887
3 813 890 815
3 889 890 813
3 880 816 881
3 816 890 881
3 816 815 890
3 816 880 809
3 883 817 811
3 885 891 883
3 891 817 883
3 891 818 817
3 819 818 891
3 819 891 892
3 894 893 821
3 894 821 822
3 886 823 888
3 823 893 888
3 823 821 893
3 823 886 814
3 892 895 819
3 819 895 824
3 824 896 825
3 895 896 824
3 825 897 826
3 896 897 825
3 826 898 827
3 897 898 826
3 827 899 828
3 898 899 827
3 822 828 894
3 894 828 899
3 900 830 831
3 832 901 831
3 831 901 900
3 833 902 832
3 832 902 901
3 834 903 833
3 833 903 902
3 835 903 834
3 905 904 838
3 838 904 837
3 906 838 839
3 906 905 838
3 839 830 900
3 907 839 900
3 906 839 907
3 907 900 901
3 907 901 908
3 908 901 902
3 908 902 909
3 909 902 903
3 909 903 910
3 910 903 835
3 840 910 835
3 911 910 840
3 913 911 912
3 911 841 912
3 911 840 841
3 842 912 841
3 914 843 844
3 914 844 915
3 844 916 915
3 844 845 916
3 845 837 904
3 845 904 916
3 917 913 912
3 917 912 842
3 846 917 842
3 918 917 846
3 846 848 918
3 918 848 919
3 921 920 914
3 920 843 914
3 920 849 843
3 921 914 915
3 922 919 848
3 922 848 850
3 850 851 922
3 922 851 923
3 924 852 853
3 925 924 853
3 849 925 853
3 920 925 849
3 851 854 926
3 927 851 926
3 923 851 927
3 855 926 854
3 929 928 924
3 928 852 924
3 928 856 852
3 929 924 925
3 930 927 926
3 926 855 930
3 855 931 930
3 855 857 931
3 928 858 856
3 932 858 928
3 859 931 857
3 859 933 931
3 932 860 858
3 934 860 932
3 861 933 859
3 861 935 933
3 934 862 860
3 936 862 934
3 863 935 861
3 863 937 935
3 936 864 862
3 938 864 936
3 865 937 863
3 865 939 937
3 938 866 864
3 940 866 938
3 867 939 865
3 867 941 939
3 940 868 866
3 942 868 940
3 869 941 867
3 869 943 941
3 942 870 868
3 944 870 942
3 871 943 869
3 871 945 943
3 944 872 870
3 946 872 944
3 873 945 871
3 873 947 945
3 949 874 948
3 874 946 948
3 874 872 946
3 950 949 948
3 952 951 876
3 952 876 877
3 873 876 947
3 947 876 951
3 949 878 874
3 954 953 879
3 954 879 878
3 950 954 878
3 949 950 878
3 955 953 954
3 958 957 956
3 957 952 956
3 952 881 956
3 952 877 881
3 953 882 879
3 955 959 953
3 959 882 953
3 959 884 882
3 885 884 959
3 885 959 960
3 962 961 887
3 962 887 888
3 887 963 889
3 961 963 887
3 956 890 958
3 890 963 958
3 890 889 963
3 890 956 881
3 960 964 885
3 885 964 891
3 966 965 892
3 891 966 892
3 964 966 891
3 968 967 965
3 968 965 966
3 970 969 967
3 970 967 968
3 972 971 969
3 972 969 970
3 974 973 971
3 974 971 972
3 893 894 973
3 974 893 973
3 975 893 974
3 888 893 962
3 962 893 975
3 965 895 892
3 895 965 896
3 896 965 967
3 896 967 897
3 897 967 969
3 897 969 898
3 898 969 971
3 898 971 899
3 899 971 973
3 899 973 894
3 976 904 905
3 976 905 977
3 905 978 977
3 905 906 978
3 979 906 907
3 979 978 906
3 980 907 908
3 980 979 907
3 981 908 909
3 981 980 908
3 982 909 910
3 982 981 909
3 984 982 983
3 982 911 983
3 982 910 911
3 913 983 911
3 985 915 916
3 986 985 916
3 986 916 904
3 987 986 904
3 976 987 904
3 987 976 977
3 988 984 983
3 988 983 913
3 917 988 913
3 989 988 917
3 991 989 990
3 989 918 990
3 989 917 918
3 919 990 918
3 992 920 921
3 993 992 921
3 993 921 915
3 994 993 915
3 985 994 915
3 994 985 986
3 995 991 990
3 997 995 996
3 996 995 922
3 995 990 922
3 990 919 922
3 923 996 922
3 999 998 992
3 998 920 992
3 998 925 920
3 999 992 993
3 1000 997 996
3 996 923 1000
3 923 1001 1000
3 923 927 1001
3 1002 928 929
3 1003 1002 929
3 925 1003 929
3 998 1003 925
3 927 930 1004
3 1005 927 1004
3 1001 927 1005
3 931 1004 930
3 1007 1006 1002
3 1006 928 1002
3 1006 932 928
3 1007 1002 1003
3 1008 1005 1004
3 1004 931 1008
3 931 1009 1008
3 931 933 1009
3 1006 934 932
3 1010 934 1006
3 935 1009 933
3 935 1011 1009
3 1010 936 934
3 1012 936 1010
3 937 1011 935
3 937 1013 1011
3 1012 938 936
3 1014 938 1012
3 939 1013 937
3 939 1015 1013
3 1014 940 938
3 1016 940 1014
3 941 1015 939
3 941 1017 1015
3 1016 942 940
3 1018 942 1016
3 943 1017 941
3 943 1019 1017
3 1021 944 1020
3 944 1018 1020
3 944 942 1018
3 1022 1021 1020
3 1025 1024 1023
3 1024 1019 1023
3 1019 945 1023
3 1019 943 945
3 1026 946 1021
3 1021 946 944
3 1021 1022 1027
3 1021 1027 1026
3 1025 1023 1028
3 1025 1028 1029
3 947 1028 945
3 945 1028 1023
3 1026 948 946
3 1031 1030 950
3 1031 950 948
3 1027 1031 948
3 1026 1027 948
3 1032 1030 1031
3 1035 1034 1033
3 1033 1034 1029
3 1033 1029 1028
3 952 1033 1028
3 951 952 1028
3 951 1028 947
3 1030 954 950
3 1037 1036 955
3 1037 955 954
3 1032 1037 954
3 1030 1032 954
3 1038 1036 1037
3 1041 1040 1039
3 1039 1040 1035
3 1039 1035 1033
3 958 1039 1033
3 957 958 1033
3 957 1033 952
3 1036 959 955
3 1043 1042 960
3 1043 960 959
3 1038 1043 959
3 1036 1038 959
3 1044 1042 1043
3 1047 1046 1045
3 961 962 1045
3 1046 961 1045
3 1048 961 1046
3 1039 963 1041
3 963 1048 1041
3 963 961 1048
3 963 1039 958
3 1042 964 960
3 1044 1049 1042
3 1049 964 1042
3 1049 966 964
3 966 1050 968
3 1049 1050 966
3 968 1051 970
3 1050 1051 968
3 970 1052 972
3 1051 1052 970
3 972 1053 974
3 1052 1053 972
3 1045 975 1047
3 975 1053 1047
3 975 974 1053
3 975 1045 962
3 1054 977 978
3 979 1055 978
3 978 1055 1054
3 980 1056 979
3 979 1056 1055
3 981 1057 980
3 980 1057 1056
3 982 1058 981
3 981 1058 1057
3 984 1058 982
3 1059 986 987
3 1060 1059 987
3 1060 987 977
3 1061 1060 977
3 1054 1061 977
3 1061 1054 1055
3 1061 1055 1062
3 1062 1055 1056
3 1062 1056 1063
3 1063 1056 1057
3 1063 1057 1064
3 1064 1057 1058
3 1064 1058 1065
3 1065 1058 984
3 988 1065 984
3 1066 1065 988
3 1068 1066 1067
3 1066 989 1067
3 1066 988 989
3 991 1067 989
3 1069 993 994
3 1070 1069 994
3 1070 994 986
3 1071 1070 986
3 1059 1071 986
3 1071 1059 1060
3 1072 1068 1067
3 1074 1072 1073
3 1073 1072 995
3 1072 1067 995
3 1067 991 995
3 997 1073 995
3 1075 998 999
3 1076 1075 999
3 1076 999 993
3 1077 1076 993
3 1069 1077 993
3 1077 1069 1070
3 1078 1074 1073
3 1080 1078 1079
3 1079 1078 1000
3 1078 1073 1000
3 1073 997 1000
3 1001 1079 1000
3 1082 1081 1075
3 1081 998 1075
3 1081 1003 998
3 1082 1075 1076
3 1083 1080 1079
3 1079 1001 1083
3 1001 1084 1083
3 1001 1005 1084
3 1085 1006 1007
3 1086 1085 1007
3 1003 1086 1007
3 1081 1086 1003
3 1005 1008 1087
3 1088 1005 1087
3 1084 1005 1088
3 1009 1087 1008
3 1089 1010 1085
3 1085 1010 1006
3 1085 1086 1090
3 1085 1090 1089
3 1088 1087 1091
3 1088 1091 1092
3 1011 1091 1009
3 1009 1091 1087
3 1093 1012 1089
3 1089 1012 1010
3 1089 1090 1094
3 1089 1094 1093
3 1095 1092 1091
3 1091 1011 1095
3 1011 1096 1095
3 1011 1013 1096
3 1097 1014 1093
3 1093 1014 1012
3 1093 1094 1098
3 1093 1098 1097
3 1015 1096 1013
3 1015 1099 1096
3 1100 1016 1097
3 1097 1016 1014
3 1097 1098 1101
3 1097 1101 1100
3 1104 1103 1102
3 1103 1099 1102
3 1099 1017 1102
3 1099 1015 1017
3 1105 1018 1100
3 1100 1018 1016
3 1100 1101 1106
3 1100 1106 1105
3 1104 1102 1107
3 1104 1107 1108
3 1019 1107 1017
3 1017 1107 1102
3 1105 1020 1018
3 1022 1020 1105
3 1106 1022 1105
3 1109 1022 1106
3 1108 1107 1024
3 1025 1108 1024
3 1110 1108 1025
3 1024 1107 1019
3 1112 1027 1111
3 1027 1109 1111
3 1027 1022 1109
3 1113 1112 1111
3 1116 1115 1114
3 1115 1110 1114
3 1110 1029 1114
3 1110 1025 1029
3 1112 1031 1027
3 1118 1117 1032
3 1118 1032 1031
3 1113 1118 1031
3 1112 1113 1031
3 1119 1117 1118
3 1116 1114 1034
3 1035 1116 1034
3 1120 1116 1035
3 1034 1114 1029
3 1117 1037 1032
3 1122 1121 1038
3 1122 1038 1037
3 1119 1122 1037
3 1117 1119 1037
3 1123 1121 1122
3 1126 1125 1124
3 1040 1041 1124
3 1125 1040 1124
3 1127 1040 1125
3 1035 1040 1120
3 1120 1040 1127
3 1121 1043 1038
3 1129 1128 1044
3 1129 1044 1043
3 1123 1129 1043
3 1121 1123 1043
3 1131 1130 1128
3 1131 1128 1129
3 1133 1132 1130
3 1133 1130 1131
3 1135 1134 1132
3 1135 1132 1133
3 1137 1136 1134
3 1137 1134 1135
3 1046 1047 1136
3 1137 1046 1136
3 1138 1046 1137
3 1124 1048 1126
3 1048 1138 1126
3 1048 1046 1138
3 1048 1124 1041
3 1128 1049 1044
3 1049 1128 1050
3 1050 1128 1130
3 1050 1130 1051
3 1051 1130 1132
3 1051 1132 1052
3 1052 1132 1134
3 1052 1134 1053
3 1053 1134 1136
3 1053 1136 1047
3 1139 1060 1061
3 1062 1140 1061
3 1061 1140 1139
3 1063 1141 1062
3 1062 1141 1140
3 1064 1142 1063
3 1063 1142 1141
3 1065 1143 1064
3 1064 1143 1142
3 1066 1144 1065
3 1065 1144 1143
3 1068 1144 1066
3 1145 1070 1071
3 1146 1145 1071
3 1146 1071 1060
3 1147 1146 1060
3 1139 1147 1060
3 1147 1139 1140
3 1147 1140 1148
3 1148 1140 1141
3 1148 1141 1149
3 1149 1141 1142
3 1149 1142 1150
3 1150 1142 1143
3 1150 1143 1151
3 1153 1152 1151
3 1143 1153 1151
3 1144 1153 1143
3 1072 1154 1068
3 1154 1144 1068
3 1154 1153 1144
3 1074 1154 1072
3 1155 1076 1077
3 1156 1155 1077
3 1156 1077 1070
3 1157 1156 1070
3 1145 1157 1070
3 1157 1145 1146
3 1158 1152 1153
3 1158 1153 1154
3 1158 1154 1159
3 1161 1159 1160
3 1160 1159 1078
3 1159 1154 1078
3 1154 1074 1078
3 1080 1160 1078
3 1162 1081 1082
3 1163 1162 1082
3 1163 1082 1076
3 1164 1163 1076
3 1155 1164 1076
3 1164 1155 1156
3 1165 1161 1160
3 1167 1165 1166
3 1166 1165 1083
3 1165 1160 1083
3 1160 1080 1083
3 1084 1166 1083
3 1168 1086 1162
3 1162 1086 1081
3 1162 1163 1169
3 1162 1169 1168
3 1170 1167 1166
3 1166 1084 1170
3 1084 1171 1170
3 1084 1088 1171
3 1173 1172 1168
3 1172 1086 1168
3 1172 1090 1086
3 1173 1168 1169
3 1092 1171 1088
3 1092 1174 1171
3 1172 1094 1090
3 1175 1094 1172
3 1092 1095 1176
3 1177 1092 1176
3 1174 1092 1177
3 1096 1176 1095
3 1175 1098 1094
3 1178 1098 1175
3 1177 1176 1179
3 1177 1179 1180
3 1099 1179 1096
3 1096 1179 1176
3 1178 1101 1098
3 1181 1101 1178
3 1180 1179 1103
3 1104 1180 1103
3 1182 1180 1104
3 1103 1179 1099
3 1181 1106 1101
3 1183 1106 1181
3 1186 1185 1184
3 1185 1182 1184
3 1182 1108 1184
3 1182 1104 1108
3 1188 1109 1187
3 1109 1183 1187
3 1109 1106 1183
3 1189 1188 1187
3 1186 1184 1190
3 1186 1190 1191
3 1110 1190 1108
3 1108 1190 1184
3 1188 1111 1109
3 1193 1192 1113
3 1193 1113 1111
3 1189 1193 1111
3 1188 1189 1111
3 1194 1192 1193
3 1191 1190 1115
3 1116 1191 1115
3 1195 1191 1116
3 1115 1190 1110
3 1192 1118 1113
3 1197 1196 1119
3 1197 1119 1118
3 1194 1197 1118
3 1192 1194 1118
3 1198 1196 1197
3 1201 1200 1199
3 1200 1195 1199
3 1195 1120 1199
3 1195 1116 1120
3 1196 1122 1119
3 1203 1202 1123
3 1203 1123 1122
3 1198 1203 1122
3 1196 1198 1122
3 1205 1204 1202
3 1205 1202 1203
3 1207 1206 1204
3 1207 1204 1205
3 1209 1208 1206
3 1209 1206 1207
3 1211 1210 1208
3 1211 1208 1209
3 1213 1212 1210
3 1213 1210 1211
3 1125 1126 1212
3 1213 1125 1212
3 1214 1125 1213
3 1199 1127 1201
3 1127 1214 1201
3 1127 1125 1214
3 1127 1199 1120
3 1202 1129 1123
3 1129 1202 1131
3 1131 1202 1204
3 1131 1204 1133
3 1133 1204 1206
3 1133 1206 1135
3 1135 1206 1208
3 1135 1208 1137
3 1137 1208 1210
3 1137 1210 1138
3 1138 1210 1212
3 1138 1212 1126
3 1215 1146 1147
3 1148 1216 1147
3 1147 1216 1215
3 1149 1217 1148
3 1148 1217 1216
3 1150 1218 1149
3 1149 1218 1217
3 1151 1219 1150
3 1150 1219 1218
3 1152 1219 1151
3 1220 1156 1157
3 1221 1220 1157
3 1221 1157 1146
3 1222 1221 1146
3 1215 1222 1146
3 1222 1215 1216
3 1222 1216 1223
3 1223 1216 1217
3 1223 1217 1224
3 1224 1217 1218
3 1224 1218 1225
3 1225 1218 1219
3 1225 1219 1226
3 1228 1226 1227
3 1227 1226 1158
3 1226 1219 1158
3 1219 1152 1158
3 1159 1229 1158
3 1158 1229 1227
3 1161 1229 1159
3 1230 1163 1164
3 1231 1230 1164
3 1231 1164 1156
3 1232 1231 1156
3 1220 1232 1156
3 1232 1220 1221
3 1233 1228 1227
3 1233 1227 1229
3 1233 1229 1234
3 1234 1229 1161
3 1165 1234 1161
3 1235 1234 1165
3 1165 1167 1235
3 1235 1167 1236
3 1237 1169 1230
3 1230 1169 1163
3 1230 1231 1238
3 1230 1238 1237
3 1167 1170 1239
3 1240 1167 1239
3 1236 1167 1240
3 1171 1239 1170
3 1241 1172 1173
3 1242 1241 1173
3 1242 1173 1169
3 1243 1242 1169
3 1237 1243 1169
3 1243 1237 1238
3 1244 1240 1239
3 1239 1171 1244
3 1171 1245 1244
3 1171 1174 1245
3 1246 1175 1241
3 1241 1175 1172
3 1241 1242 1247
3 1241 1247 1246
3 1177 1245 1174
3 1177 1248 1245
3 1249 1178 1246
3 1246 1178 1175
3 1246 1247 1250
3 1246 1250 1249
3 1253 1252 1251
3 1252 1248 1251
3 1248 1180 1251
3 1248 1177 1180
3 1254 1181 1249
3 1249 1181 1178
3 1249 1250 1255
3 1249 1255 1254
3 1253 1251 1256
3 1253 1256 1257
3 1182 1256 1180
3 1180 1256 1251
3 1258 1183 1254
3 1254 1183 1181
3 1254 1255 1259
3 1260 1254 1259
3 1258 1254 1260
3 1261 1260 1259
3 1257 1256 1185
3 1186 1257 1185
3 1262 1257 1186
3 1185 1256 1182
3 1258 1187 1183
3 1187 1258 1189
3 1258 1263 1189
3 1258 1260 1263
3 1260 1261 1264
3 1260 1264 1263
3 1267 1266 1265
3 1266 1262 1265
3 1262 1191 1265
3 1262 1186 1191
3 1263 1193 1189
3 1269 1268 1194
3 1269 1194 1193
3 1264 1269 1193
3 1263 1264 1193
3 1271 1270 1268
3 1271 1268 1269
3 1272 1270 1271
3 1267 1265 1273
3 1267 1273 1274
3 1195 1273 1191
3 1191 1273 1265
3 1268 1197 1194
3 1197 1268 1198
3 1268 1275 1198
3 1268 1270 1275
3 1270 1272 1276
3 1277 1270 1276
3 1275 1270 1277
3 1279 1278 1277
3 1279 1277 1276
3 1281 1280 1278
3 1281 1278 1279
3 1282 1280 1281
3 1285 1284 1283
3 1283 1284 1274
3 1283 1274 1273
3 1201 1283 1273
3 1200 1201 1273
3 1200 1273 1195
3 1275 1203 1198
3 1203 1275 1205
3 1205 1275 1277
3 1205 1277 1207
3 1207 1277 1278
3 1207 1278 1209
3 1209 1278 1280
3 1282 1286 1280
3 1286 1209 1280
3 1286 1211 1209
3 1211 1287 1213
3 1286 1287 1211
3 1283 1214 1285
3 1214 1287 1285
3 1214 1213 1287
3 1214 1283 1201
3 1288 1221 1222
3 1223 1289 1222
3 1222 1289 1288
3 1224 1290 1223
3 1223 1290 1289
3 1225 1291 1224
3 1224 1291 1290
3 1226 1292 1225
3 1225 1292 1291
3 1228 1292 1226
3 1293 1231 1232
3 1221 1288 1232
3 1288 1293 1232
3 1288 1294 1293
3 1295 1288 1289
3 1294 1288 1295
3 1296 1289 1290
3 1295 1289 1296
3 1297 1290 1291
3 1296 1290 1297
3 1298 1291 1292
3 1297 1291 1298
3 1233 1299 1228
3 1299 1292 1228
3 1299 1298 1292
3 1234 1300 1233
3 1233 1300 1299
3 1235 1301 1234
3 1234 1301 1300
3 1236 1301 1235
3 1302 1238 1293
3 1293 1238 1231
3 1294 1304 1303
3 1302 1294 1303
3 1293 1294 1302
3 1304 1294 1295
3 1304 1295 1305
3 1305 1295 1296
3 1305 1296 1306
3 1306 1296 1297
3 1306 1297 1307
3 1307 1297 1298
3 1307 1298 1308
3 1308 1298 1299
3 1308 1299 1309
3 1311 1310 1309
3 1299 1311 1309
3 1300 1311 1299
3 1312 1300 1301
3 1311 1300 1312
3 1240 1312 1236
3 1236 1312 1301
3 1313 1242 1243
3 1238 1302 1243
3 1302 1313 1243
3 1302 1314 1313
3 1302 1303 1315
3 1302 1315 1314
3 1310 1311 1316
3 1310 1316 1317
3 1318 1311 1312
3 1316 1311 1318
3 1244 1319 1240
3 1319 1312 1240
3 1319 1318 1312
3 1245 1319 1244
3 1320 1247 1313
3 1313 1247 1242
3 1321 1313 1314
3 1320 1313 1321
3 1314 1315 1322
3 1314 1322 1321
3 1317 1316 1323
3 1317 1323 1324
3 1325 1316 1318
3 1323 1316 1325
3 1326 1318 1319
3 1325 1318 1326
3 1248 1326 1245
3 1245 1326 1319
3 1327 1250 1320
3 1320 1250 1247
3 1328 1320 1321
3 1327 1320 1328
3 1321 1322 1329
3 1321 1329 1328
3 1332 1331 1330
3 1330 1331 1324
3 1323 1330 1324
3 1333 1330 1323
3 1334 1323 1325
3 1333 1323 1334
3 1253 1334 1252
3 1334 1326 1252
3 1334 1325 1326
3 1252 1326 1248
3 1335 1255 1327
3 1327 1255 1250
3 1336 1327 1328
3 1335 1327 1336
3 1328 1329 1337
3 1328 1337 1336
3 1332 1330 1338
3 1332 1338 1339
3 1340 1330 1333
3 1338 1330 1340
3 1341 1333 1334
3 1340 1333 1341
3 1257 1341 1253
3 1253 1341 1334
3 1335 1259 1255
3 1259 1335 1261
3 1335 1342 1261
3 1335 1336 1342
3 1336 1337 1343
3 1344 1336 1343
3 1342 1336 1344
3 1345 1344 1343
3 1339 1338 1346
3 1339 1346 1347
3 1348 1338 1340
3 1346 1338 1348
3 1349 1340 1341
3 1348 1340 1349
3 1262 1349 1257
3 1257 1349 1341
3 1350 1264 1342
3 1342 1264 1261
3 1351 1342 1344
3 1350 1342 1351
3 1344 1345 1352
3 1353 1344 1352
3 1351 1344 1353
3 1355 1354 1353
3 1355 1353 1352
3 1357 1356 1354
3 1357 1354 1355
3 1359 1358 1356
3 1359 1356 1357
3 1358 1359 1347
3 1346 1358 1347
3 1360 1358 1346
3 1361 1346 1348
3 1360 1346 1361
3 1267 1361 1266
3 1361 1349 1266
3 1361 1348 1349
3 1266 1349 1262
3 1350 1269 1264
3 1269 1350 1271
3 1271 1350 1351
3 1271 1351 1272
3 1351 1362 1272
3 1351 1353 1362
3 1363 1353 1354
3 1362 1353 1363
3 1364 1354 1356
3 1363 1354 1364
3 1365 1356 1358
3 1364 1356 1365
3 1366 1358 1360
3 1365 1358 1366
3 1367 1360 1361
3 1366 1360 1367
3 1274 1367 1267
3 1267 1367 1361
3 1362 1276 1272
3 1276 1362 1279
3 1279 1362 1363
3 1279 1363 1281
3 1281 1363 1364
3 1281 1364 1282
3 1364 1368 1282
3 1364 1365 1368
3 1369 1365 1366
3 1368 1365 1369
3 1285 1369 1284
3 1369 1367 1284
3 1369 1366 1367
3 1284 1367 1274
3 1368 1286 1282
3 1286 1368 1287
3 1287 1368 1369
3 1287 1369 1285
3 1370 1303 1304
3 1305 1371 1304
3 1304 1371 1370
3 1306 1372 1305
3 1305 1372 1371
3 1307 1373 1306
3 1306 1373 1372
3 1308 1374 1307
3 1307 1374 1373
3 1309 1375 1308
3 1308 1375 1374
3 1310 1375 1309
3 1376 1315 1370
3 1370 1315 1303
3 1377 1370 1371
3 1376 1370 1377
3 1378 1371 1372
3 1377 1371 1378
3 1379 1372 1373
3 1378 1372 1379
3 1380 1373 1374
3 1379 1373 1380
3 1381 1374 1375
3 1380 1374 1381
3 1317 1381 1310
3 1310 1381 1375
3 1382 1322 1376
3 1376 1322 1315
3 1383 1376 1377
3 1382 1376 1383
3 1384 1377 1378
3 1383 1377 1384
3 1385 1378 1379
3 1384 1378 1385
3 1386 1379 1380
3 1385 1379 1386
3 1387 1380 1381
3 1386 1380 1387
3 1324 1387 1317
3 1317 1387 1381
3 1388 1329 1382
3 1382 1329 1322
3 1389 1382 1383
3 1388 1382 1389
3 1390 1383 1384
3 1389 1383 1390
3 1391 1384 1385
3 1390 1384 1391
3 1392 1385 1386
3 1391 1385 1392
3 1332 1392 1331
3 1392 1387 1331
3 1392 1386 1387
3 1331 1387 1324
3 1393 1337 1388
3 1388 1337 1329
3 1394 1388 1389
3 1393 1388 1394
3 1395 1389 1390
3 1394 1389 1395
3 1396 1390 1391
3 1395 1390 1396
3 1397 1391 1392
3 1396 1391 1397
3 1339 1397 1332
3 1332 1397 1392
3 1393 1343 1337
3 1343 1393 1345
3 1393 1398 1345
3 1393 1394 1398
3 1399 1394 1395
3 1398 1394 1399
3 1400 1395 1396
3 1399 1395 1400
3 1401 1396 1397
3 1400 1396 1401
3 1347 1401 1339
3 1339 1401 1397
3 1398 1352 1345
3 1352 1398 1355
3 1355 1398 1399
3 1355 1399 1357
3 1357 1399 1400
3 1357 1400 1359
3 1359 1400 1401
3 1359 1401 1347
