# Asteroid shape model (convexinv -> dual reconstruction)
v -1.29121663 -0.36549827 -0.35714286
v -1.21978806 -0.36549827 -0.42857143
v -1.21978806 -0.43692684 -0.35714286
v -1.21978806 -0.43692684 -0.21428571
v -1.29121663 -0.36549827 -0.21428571
v -1.21978806 -0.43692684 -0.07142857
v -1.29121663 -0.36549827 -0.07142857
v -1.21978806 -0.43692684 0.07142857
v -1.29121663 -0.36549827 0.07142857
v -1.21978806 -0.43692684 0.21428571
v -1.29121663 -0.36549827 0.21428571
v -1.21978806 -0.36549827 0.28571429
v -1.29121663 -0.22264112 -0.35714286
v -1.21978806 -0.22264112 -0.42857143
v -1.29121663 -0.22264112 -0.21428571
v -1.29121663 -0.22264112 -0.07142857
v -1.29121663 -0.22264112 0.07142857
v -1.29121663 -0.22264112 0.21428571
v -1.21978806 -0.22264112 0.28571429
v -1.29121663 -0.07978398 -0.35714286
v -1.21978806 -0.07978398 -0.42857143
v -1.29121663 -0.07978398 -0.21428571
v -1.29121663 -0.07978398 -0.07142857
v -1.29121663 -0.07978398 0.07142857
v -1.29121663 -0.07978398 0.21428571
v -1.21978806 -0.07978398 0.28571429
v -1.29121663 0.06307316 -0.35714286
v -1.21978806 0.06307316 -0.42857143
v -1.29121663 0.06307316 -0.21428571
v -1.29121663 0.06307316 -0.07142857
v -1.29121663 0.06307316 0.07142857
v -1.29121663 0.06307316 0.21428571
v -1.21978806 0.06307316 0.28571429
v -1.29121663 0.20593030 -0.35714286
v -1.21978806 0.20593030 -0.42857143
v -1.29121663 0.20593030 -0.21428571
v -1.29121663 0.20593030 -0.07142857
v -1.29121663 0.20593030 0.07142857
v -1.29121663 0.20593030 0.21428571
v -1.21978806 0.13450173 0.35714286
v -1.29121663 0.20593030 0.35714286
v -1.21978806 0.20593030 0.42857143
v -1.29121663 0.34878745 -0.35714286
v -1.21978806 0.34878745 -0.42857143
v -1.29121663 0.34878745 -0.21428571
v -1.29121663 0.34878745 -0.07142857
v -1.29121663 0.34878745 0.07142857
v -1.29121663 0.34878745 0.21428571
v -1.21978806 0.34878745 0.28571429
v -1.21978806 0.27735888 0.35714286
v -1.21978806 0.42021602 -0.35714286
v -1.21978806 0.42021602 -0.21428571
v -1.21978806 0.42021602 -0.07142857
v -1.21978806 0.42021602 0.07142857
v -1.21978806 0.42021602 0.21428571
v -1.14835949 -0.65121255 -0.35714286
v -1.07693092 -0.65121255 -0.42857143
v -1.07693092 -0.72264112 -0.35714286
v -1.07693092 -0.72264112 -0.21428571
v -1.14835949 -0.65121255 -0.21428571
v -1.07693092 -0.72264112 -0.07142857
v -1.14835949 -0.65121255 -0.07142857
v -1.07693092 -0.72264112 0.07142857
v -1.14835949 -0.65121255 0.07142857
v -1.07693092 -0.72264112 0.21428571
v -1.14835949 -0.65121255 0.21428571
v -1.07693092 -0.65121255 0.28571429
v -1.14835949 -0.50835541 -0.50000000
v -1.07693092 -0.50835541 -0.57142857
v -1.07693092 -0.57978398 -0.50000000
v -1.14835949 -0.50835541 -0.35714286
v -1.14835949 -0.50835541 -0.21428571
v -1.14835949 -0.50835541 -0.07142857
v -1.14835949 -0.50835541 0.07142857
v -1.14835949 -0.50835541 0.21428571
v -1.07693092 -0.57978398 0.35714286
v -1.14835949 -0.50835541 0.35714286
v -1.07693092 -0.57978398 0.50000000
v -1.14835949 -0.50835541 0.50000000
v -1.07693092 -0.50835541 0.57142857
v -1.14835949 -0.36549827 -0.64285714
v -1.07693092 -0.36549827 -0.71428571
v -1.07693092 -0.43692684 -0.64285714
v -1.14835949 -0.36549827 -0.50000000
v -1.14835949 -0.36549827 0.35714286
v -1.14835949 -0.36549827 0.50000000
v -1.07693092 -0.36549827 0.57142857
v -1.14835949 -0.22264112 -0.64285714
v -1.07693092 -0.22264112 -0.71428571
v -1.14835949 -0.22264112 -0.50000000
v -1.14835949 -0.22264112 0.35714286
v -1.14835949 -0.22264112 0.50000000
v -1.07693092 -0.29406970 0.64285714
v -1.14835949 -0.22264112 0.64285714
v -1.07693092 -0.22264112 0.71428571
v -1.14835949 -0.07978398 -0.64285714
v -1.07693092 -0.07978398 -0.71428571
v -1.14835949 -0.07978398 -0.50000000
v -1.14835949 -0.07978398 0.35714286
v -1.14835949 -0.07978398 0.50000000
v -1.07693092 -0.07978398 0.57142857
v -1.07693092 -0.15121255 0.64285714
v -1.14835949 0.06307316 -0.64285714
v -1.07693092 0.06307316 -0.71428571
v -1.14835949 0.06307316 -0.50000000
v -1.14835949 0.06307316 0.35714286
v -1.14835949 0.06307316 0.50000000
v -1.07693092 0.06307316 0.57142857
v -1.14835949 0.20593030 -0.64285714
v -1.07693092 0.20593030 -0.71428571
v -1.14835949 0.20593030 -0.50000000
v -1.14835949 0.20593030 0.50000000
v -1.07693092 0.20593030 0.57142857
v -1.14835949 0.34878745 -0.64285714
v -1.07693092 0.34878745 -0.71428571
v -1.14835949 0.34878745 -0.50000000
v -1.14835949 0.34878745 0.35714286
v -1.14835949 0.34878745 0.50000000
v -1.07693092 0.34878745 0.57142857
v -1.07693092 0.42021602 -0.64285714
v -1.14835949 0.49164459 -0.50000000
v -1.07693092 0.49164459 -0.57142857
v -1.14835949 0.49164459 -0.35714286
v -1.14835949 0.49164459 -0.21428571
v -1.14835949 0.49164459 -0.07142857
v -1.14835949 0.49164459 0.07142857
v -1.14835949 0.49164459 0.21428571
v -1.14835949 0.49164459 0.35714286
v -1.14835949 0.49164459 0.50000000
v -1.07693092 0.49164459 0.57142857
v -1.07693092 0.56307316 -0.50000000
v -1.14835949 0.63450173 -0.35714286
v -1.07693092 0.63450173 -0.42857143
v -1.14835949 0.63450173 -0.21428571
v -1.14835949 0.63450173 -0.07142857
v -1.14835949 0.63450173 0.07142857
v -1.14835949 0.63450173 0.21428571
v -1.14835949 0.63450173 0.35714286
v -1.07693092 0.63450173 0.42857143
v -1.07693092 0.56307316 0.50000000
v -1.07693092 0.70593030 -0.35714286
v -1.07693092 0.70593030 -0.21428571
v -1.07693092 0.70593030 -0.07142857
v -1.07693092 0.70593030 0.07142857
v -1.07693092 0.70593030 0.21428571
v -1.07693092 0.70593030 0.35714286
v -1.00550234 -0.79406970 -0.35714286
v -0.93407377 -0.79406970 -0.42857143
v -0.93407377 -0.86549827 -0.35714286
v -0.93407377 -0.86549827 -0.21428571
v -1.00550234 -0.79406970 -0.21428571
v -0.93407377 -0.86549827 -0.07142857
v -1.00550234 -0.79406970 -0.07142857
v -0.93407377 -0.86549827 0.07142857
v -1.00550234 -0.79406970 0.07142857
v -0.93407377 -0.86549827 0.21428571
v -1.00550234 -0.79406970 0.21428571
v -0.93407377 -0.86549827 0.35714286
v -1.00550234 -0.79406970 0.35714286
v -0.93407377 -0.79406970 0.42857143
v -1.00550234 -0.65121255 -0.50000000
v -0.93407377 -0.65121255 -0.57142857
v -0.93407377 -0.72264112 -0.50000000
v -1.00550234 -0.65121255 0.35714286
v -0.93407377 -0.72264112 0.50000000
v -1.00550234 -0.65121255 0.50000000
v -0.93407377 -0.65121255 0.57142857
v -1.00550234 -0.50835541 -0.64285714
v -0.93407377 -0.50835541 -0.71428571
v -0.93407377 -0.57978398 -0.64285714
v -0.93407377 -0.57978398 0.64285714
v -1.00550234 -0.50835541 0.64285714
v -0.93407377 -0.50835541 0.71428571
v -1.00550234 -0.36549827 -0.78571429
v -0.93407377 -0.36549827 -0.85714286
v -0.93407377 -0.43692684 -0.78571429
v -1.00550234 -0.36549827 0.64285714
v -0.93407377 -0.36549827 0.71428571
v -1.00550234 -0.22264112 -0.78571429
v -0.93407377 -0.22264112 -0.85714286
v -0.93407377 -0.29406970 0.78571429
v -1.00550234 -0.22264112 0.78571429
v -0.93407377 -0.22264112 0.85714286
v -1.00550234 -0.07978398 -0.78571429
v -0.93407377 -0.07978398 -0.85714286
v -1.00550234 -0.07978398 0.64285714
v -1.00550234 -0.07978398 0.78571429
v -0.93407377 -0.07978398 0.85714286
v -1.00550234 0.06307316 -0.78571429
v -0.93407377 0.06307316 -0.85714286
v -1.00550234 0.06307316 0.64285714
v -1.00550234 0.06307316 0.78571429
v -0.93407377 0.06307316 0.85714286
v -1.00550234 0.20593030 -0.78571429
v -0.93407377 0.20593030 -0.85714286
v -1.00550234 0.20593030 0.64285714
v -1.00550234 0.20593030 0.78571429
v -0.93407377 0.20593030 0.85714286
v -1.00550234 0.34878745 -0.78571429
v -0.93407377 0.34878745 -0.85714286
v -1.00550234 0.34878745 0.64285714
v -0.93407377 0.34878745 0.71428571
v -0.93407377 0.27735888 0.78571429
v -0.93407377 0.42021602 -0.78571429
v -1.00550234 0.49164459 -0.64285714
v -0.93407377 0.49164459 -0.71428571
v -1.00550234 0.49164459 0.64285714
v -0.93407377 0.49164459 0.71428571
v -0.93407377 0.56307316 -0.64285714
v -1.00550234 0.63450173 -0.50000000
v -0.93407377 0.63450173 -0.57142857
v -1.00550234 0.63450173 0.50000000
v -0.93407377 0.63450173 0.57142857
v -0.93407377 0.56307316 0.64285714
v -0.93407377 0.70593030 -0.50000000
v -1.00550234 0.77735888 -0.35714286
v -0.93407377 0.77735888 -0.42857143
v -1.00550234 0.77735888 -0.21428571
v -1.00550234 0.77735888 -0.07142857
v -1.00550234 0.77735888 0.07142857
v -1.00550234 0.77735888 0.21428571
v -1.00550234 0.77735888 0.35714286
v -0.93407377 0.77735888 0.42857143
v -0.93407377 0.70593030 0.50000000
v -0.93407377 0.84878745 -0.35714286
v -0.93407377 0.84878745 -0.21428571
v -0.93407377 0.84878745 -0.07142857
v -0.93407377 0.84878745 0.07142857
v -0.93407377 0.84878745 0.21428571
v -0.93407377 0.84878745 0.35714286
v -0.86264520 -0.93692684 -0.35714286
v -0.79121663 -0.93692684 -0.42857143
v -0.79121663 -1.00835541 -0.35714286
v -0.79121663 -1.00835541 -0.21428571
v -0.86264520 -0.93692684 -0.21428571
v -0.79121663 -1.00835541 -0.07142857
v -0.86264520 -0.93692684 -0.07142857
v -0.79121663 -1.00835541 0.07142857
v -0.86264520 -0.93692684 0.07142857
v -0.79121663 -1.00835541 0.21428571
v -0.86264520 -0.93692684 0.21428571
v -0.79121663 -1.00835541 0.35714286
v -0.86264520 -0.93692684 0.35714286
v -0.79121663 -0.93692684 0.42857143
v -0.86264520 -0.79406970 -0.50000000
v -0.79121663 -0.79406970 -0.57142857
v -0.79121663 -0.86549827 -0.50000000
v -0.79121663 -0.86549827 0.50000000
v -0.86264520 -0.79406970 0.50000000
v -0.79121663 -0.79406970 0.57142857
v -0.86264520 -0.65121255 -0.64285714
v -0.79121663 -0.65121255 -0.71428571
v -0.79121663 -0.72264112 -0.64285714
v -0.79121663 -0.72264112 0.64285714
v -0.86264520 -0.65121255 0.64285714
v -0.79121663 -0.65121255 0.71428571
v -0.86264520 -0.50835541 -0.78571429
v -0.79121663 -0.50835541 -0.85714286
v -0.79121663 -0.57978398 -0.78571429
v -0.79121663 -0.57978398 0.78571429
v -0.86264520 -0.50835541 0.78571429
v -0.79121663 -0.50835541 0.85714286
v -0.79121663 -0.36549827 -0.85714286
v -0.86264520 -0.36549827 0.78571429
v -0.79121663 -0.36549827 0.85714286
v -0.79121663 -0.22264112 -0.85714286
v -0.79121663 -0.22264112 0.85714286
v -0.79121663 -0.07978398 -0.85714286
v -0.79121663 -0.07978398 0.85714286
v -0.79121663 0.06307316 -0.85714286
v -0.79121663 0.06307316 0.85714286
v -0.79121663 0.20593030 -0.85714286
v -0.79121663 0.20593030 0.85714286
v -0.79121663 0.34878745 -0.85714286
v -0.86264520 0.34878745 0.78571429
v -0.79121663 0.34878745 0.85714286
v -0.86264520 0.49164459 -0.78571429
v -0.79121663 0.49164459 -0.85714286
v -0.86264520 0.49164459 0.78571429
v -0.79121663 0.49164459 0.85714286
v -0.79121663 0.56307316 -0.78571429
v -0.86264520 0.63450173 -0.64285714
v -0.79121663 0.63450173 -0.71428571
v -0.86264520 0.63450173 0.64285714
v -0.79121663 0.63450173 0.71428571
v -0.79121663 0.56307316 0.78571429
v -0.79121663 0.70593030 -0.64285714
v -0.86264520 0.77735888 -0.50000000
v -0.79121663 0.77735888 -0.57142857
v -0.86264520 0.77735888 0.50000000
v -0.79121663 0.77735888 0.57142857
v -0.79121663 0.70593030 0.64285714
v -0.79121663 0.84878745 -0.50000000
v -0.86264520 0.92021602 -0.35714286
v -0.79121663 0.92021602 -0.42857143
v -0.86264520 0.92021602 -0.21428571
v -0.86264520 0.92021602 -0.07142857
v -0.86264520 0.92021602 0.07142857
v -0.86264520 0.92021602 0.21428571
v -0.86264520 0.92021602 0.35714286
v -0.79121663 0.92021602 0.42857143
v -0.79121663 0.84878745 0.50000000
v -0.79121663 0.99164459 -0.35714286
v -0.79121663 0.99164459 -0.21428571
v -0.79121663 0.99164459 -0.07142857
v -0.79121663 0.99164459 0.07142857
v -0.79121663 0.99164459 0.21428571
v -0.79121663 0.99164459 0.35714286
v -0.71978806 -1.07978398 -0.35714286
v -0.64835949 -1.07978398 -0.42857143
v -0.64835949 -1.15121255 -0.35714286
v -0.64835949 -1.15121255 -0.21428571
v -0.71978806 -1.07978398 -0.21428571
v -0.64835949 -1.15121255 -0.07142857
v -0.71978806 -1.07978398 -0.07142857
v -0.64835949 -1.15121255 0.07142857
v -0.71978806 -1.07978398 0.07142857
v -0.64835949 -1.15121255 0.21428571
v -0.71978806 -1.07978398 0.21428571
v -0.64835949 -1.07978398 0.28571429
v -0.71978806 -0.93692684 -0.50000000
v -0.64835949 -0.93692684 -0.57142857
v -0.64835949 -1.00835541 -0.50000000
v -0.64835949 -1.00835541 0.35714286
v -0.64835949 -1.00835541 0.50000000
v -0.71978806 -0.93692684 0.50000000
v -0.64835949 -0.93692684 0.57142857
v -0.71978806 -0.79406970 -0.64285714
v -0.64835949 -0.79406970 -0.71428571
v -0.64835949 -0.86549827 -0.64285714
v -0.64835949 -0.86549827 0.64285714
v -0.71978806 -0.79406970 0.64285714
v -0.64835949 -0.79406970 0.71428571
v -0.71978806 -0.65121255 -0.78571429
v -0.64835949 -0.65121255 -0.85714286
v -0.64835949 -0.72264112 -0.78571429
v -0.64835949 -0.72264112 0.78571429
v -0.71978806 -0.65121255 0.78571429
v -0.64835949 -0.65121255 0.85714286
v -0.64835949 -0.50835541 -0.85714286
v -0.64835949 -0.50835541 0.85714286
v -0.71978806 -0.36549827 -0.92857143
v -0.64835949 -0.36549827 -1.00000000
v -0.64835949 -0.43692684 -0.92857143
v -0.64835949 -0.43692684 0.92857143
v -0.71978806 -0.36549827 0.92857143
v -0.64835949 -0.36549827 1.00000000
v -0.71978806 -0.22264112 -0.92857143
v -0.64835949 -0.22264112 -1.00000000
v -0.71978806 -0.22264112 0.92857143
v -0.64835949 -0.22264112 1.00000000
v -0.71978806 -0.07978398 -0.92857143
v -0.64835949 -0.07978398 -1.00000000
v -0.71978806 -0.07978398 0.92857143
v -0.64835949 -0.07978398 1.00000000
v -0.71978806 0.06307316 -0.92857143
v -0.64835949 0.06307316 -1.00000000
v -0.71978806 0.06307316 0.92857143
v -0.64835949 0.06307316 1.00000000
v -0.71978806 0.20593030 -0.92857143
v -0.64835949 0.20593030 -1.00000000
v -0.71978806 0.20593030 0.92857143
v -0.64835949 0.20593030 1.00000000
v -0.71978806 0.34878745 -0.92857143
v -0.64835949 0.34878745 -1.00000000
v -0.71978806 0.34878745 0.92857143
v -0.64835949 0.34878745 1.00000000
v -0.64835949 0.42021602 -0.92857143
v -0.64835949 0.49164459 -0.85714286
v -0.64835949 0.42021602 0.92857143
v -0.64835949 0.49164459 0.85714286
v -0.71978806 0.63450173 -0.78571429
v -0.64835949 0.63450173 -0.85714286
v -0.71978806 0.63450173 0.78571429
v -0.64835949 0.63450173 0.85714286
v -0.64835949 0.70593030 -0.78571429
v -0.71978806 0.77735888 -0.64285714
v -0.64835949 0.77735888 -0.71428571
v -0.64835949 0.70593030 0.64285714
v -0.64835949 0.77735888 0.57142857
v -0.64835949 0.70593030 0.78571429
v -0.64835949 0.84878745 -0.64285714
v -0.71978806 0.92021602 -0.50000000
v -0.64835949 0.92021602 -0.57142857
v -0.64835949 0.84878745 0.50000000
v -0.64835949 0.92021602 0.42857143
v -0.64835949 0.99164459 -0.50000000
v -0.71978806 1.06307316 -0.35714286
v -0.64835949 1.06307316 -0.42857143
v -0.71978806 1.06307316 -0.21428571
v -0.71978806 1.06307316 -0.07142857
v -0.71978806 1.06307316 0.07142857
v -0.71978806 1.06307316 0.21428571
v -0.64835949 1.06307316 0.28571429
v -0.64835949 0.99164459 0.35714286
v -0.64835949 1.13450173 -0.35714286
v -0.64835949 1.13450173 -0.21428571
v -0.64835949 1.13450173 -0.07142857
v -0.64835949 1.13450173 0.07142857
v -0.64835949 1.13450173 0.21428571
v -0.57693092 -1.07978398 -0.50000000
v -0.50550234 -1.07978398 -0.57142857
v -0.50550234 -1.15121255 -0.50000000
v -0.50550234 -1.15121255 -0.35714286
v -0.50550234 -1.15121255 -0.21428571
v -0.50550234 -1.15121255 -0.07142857
v -0.50550234 -1.15121255 0.07142857
v -0.50550234 -1.15121255 0.21428571
v -0.50550234 -1.15121255 0.35714286
v -0.57693092 -1.07978398 0.35714286
v -0.50550234 -1.07978398 0.42857143
v -0.57693092 -0.93692684 -0.64285714
v -0.50550234 -0.93692684 -0.71428571
v -0.50550234 -1.00835541 -0.64285714
v -0.50550234 -1.00835541 0.50000000
v -0.50550234 -1.00835541 0.64285714
v -0.57693092 -0.93692684 0.64285714
v -0.50550234 -0.93692684 0.71428571
v -0.57693092 -0.79406970 -0.78571429
v -0.50550234 -0.79406970 -0.85714286
v -0.50550234 -0.86549827 -0.78571429
v -0.50550234 -0.86549827 0.78571429
v -0.57693092 -0.79406970 0.78571429
v -0.50550234 -0.79406970 0.85714286
v -0.50550234 -0.65121255 -0.85714286
v -0.50550234 -0.65121255 0.85714286
v -0.57693092 -0.50835541 -0.92857143
v -0.50550234 -0.50835541 -1.00000000
v -0.50550234 -0.57978398 -0.92857143
v -0.50550234 -0.57978398 0.92857143
v -0.57693092 -0.50835541 0.92857143
v -0.50550234 -0.50835541 1.00000000
v -0.50550234 -0.36549827 -1.00000000
v -0.50550234 -0.36549827 1.00000000
v -0.50550234 -0.22264112 -1.00000000
v -0.50550234 -0.22264112 1.00000000
v -0.50550234 -0.07978398 -1.00000000
v -0.50550234 -0.07978398 1.00000000
v -0.50550234 0.06307316 -1.00000000
v -0.50550234 0.06307316 1.00000000
v -0.50550234 0.20593030 -1.00000000
v -0.50550234 0.20593030 1.00000000
v -0.50550234 0.34878745 -1.00000000
v -0.50550234 0.34878745 1.00000000
v -0.57693092 0.49164459 -0.92857143
v -0.50550234 0.49164459 -1.00000000
v -0.57693092 0.49164459 0.92857143
v -0.50550234 0.49164459 1.00000000
v -0.50550234 0.56307316 -0.92857143
v -0.50550234 0.63450173 -0.85714286
v -0.50550234 0.56307316 0.92857143
v -0.50550234 0.63450173 0.85714286
v -0.57693092 0.77735888 -0.78571429
v -0.50550234 0.77735888 -0.85714286
v -0.57693092 0.77735888 0.64285714
v -0.57693092 0.77735888 0.78571429
v -0.50550234 0.77735888 0.85714286
v -0.50550234 0.84878745 -0.78571429
v -0.57693092 0.92021602 -0.64285714
v -0.50550234 0.92021602 -0.71428571
v -0.57693092 0.92021602 0.50000000
v -0.50550234 0.92021602 0.57142857
v -0.50550234 0.84878745 0.64285714
v -0.50550234 0.84878745 0.78571429
v -0.50550234 0.99164459 -0.64285714
v -0.57693092 1.06307316 -0.50000000
v -0.50550234 1.06307316 -0.57142857
v -0.57693092 1.06307316 0.35714286
v -0.50550234 1.06307316 0.42857143
v -0.50550234 0.99164459 0.50000000
v -0.50550234 1.13450173 -0.50000000
v -0.50550234 1.13450173 -0.35714286
v -0.50550234 1.13450173 -0.21428571
v -0.50550234 1.13450173 -0.07142857
v -0.50550234 1.13450173 0.07142857
v -0.50550234 1.13450173 0.21428571
v -0.50550234 1.13450173 0.35714286
v -0.43407377 -1.22264112 -0.35714286
v -0.36264520 -1.22264112 -0.42857143
v -0.36264520 -1.29406970 -0.35714286
v -0.36264520 -1.29406970 -0.21428571
v -0.43407377 -1.22264112 -0.21428571
v -0.36264520 -1.29406970 -0.07142857
v -0.43407377 -1.22264112 -0.07142857
v -0.36264520 -1.29406970 0.07142857
v -0.43407377 -1.22264112 0.07142857
v -0.36264520 -1.29406970 0.21428571
v -0.43407377 -1.22264112 0.21428571
v -0.36264520 -1.22264112 0.28571429
v -0.36264520 -1.07978398 -0.57142857
v -0.36264520 -1.15121255 -0.50000000
v -0.36264520 -1.15121255 0.35714286
v -0.36264520 -1.15121255 0.50000000
v -0.43407377 -1.07978398 0.50000000
v -0.36264520 -1.07978398 0.57142857
v -0.36264520 -0.93692684 -0.71428571
v -0.36264520 -1.00835541 -0.64285714
v -0.36264520 -1.00835541 0.64285714
v -0.36264520 -0.93692684 0.71428571
v -0.36264520 -0.79406970 -0.85714286
v -0.36264520 -0.86549827 -0.78571429
v -0.36264520 -0.86549827 0.78571429
v -0.36264520 -0.79406970 0.85714286
v -0.43407377 -0.65121255 -0.92857143
v -0.36264520 -0.65121255 -1.00000000
v -0.36264520 -0.72264112 -0.92857143
v -0.36264520 -0.72264112 0.92857143
v -0.43407377 -0.65121255 0.92857143
v -0.36264520 -0.65121255 1.00000000
v -0.36264520 -0.50835541 -1.00000000
v -0.36264520 -0.50835541 1.00000000
v -0.36264520 -0.36549827 -1.00000000
v -0.36264520 -0.36549827 1.00000000
v -0.36264520 -0.22264112 -1.00000000
v -0.36264520 -0.22264112 1.00000000
v -0.36264520 -0.07978398 -1.00000000
v -0.36264520 -0.07978398 1.00000000
v -0.36264520 0.06307316 -1.00000000
v -0.36264520 0.06307316 1.00000000
v -0.36264520 0.20593030 -1.00000000
v -0.36264520 0.20593030 1.00000000
v -0.36264520 0.34878745 -1.00000000
v -0.36264520 0.34878745 1.00000000
v -0.36264520 0.49164459 -1.00000000
v -0.36264520 0.49164459 1.00000000
v -0.43407377 0.63450173 -0.92857143
v -0.36264520 0.63450173 -1.00000000
v -0.43407377 0.63450173 0.92857143
v -0.36264520 0.63450173 1.00000000
v -0.36264520 0.70593030 -0.92857143
v -0.36264520 0.77735888 -0.85714286
v -0.36264520 0.70593030 0.92857143
v -0.36264520 0.77735888 0.85714286
v -0.43407377 0.92021602 -0.78571429
v -0.36264520 0.92021602 -0.85714286
v -0.43407377 0.92021602 0.64285714
v -0.43407377 0.92021602 0.78571429
v -0.36264520 0.92021602 0.85714286
v -0.36264520 0.99164459 -0.78571429
v -0.36264520 0.99164459 -0.64285714
v -0.36264520 1.06307316 -0.57142857
v -0.43407377 1.06307316 0.50000000
v -0.43407377 1.06307316 0.64285714
v -0.36264520 1.06307316 0.71428571
v -0.36264520 0.99164459 0.78571429
v -0.36264520 1.13450173 -0.50000000
v -0.43407377 1.20593030 -0.35714286
v -0.36264520 1.20593030 -0.42857143
v -0.43407377 1.20593030 -0.21428571
v -0.43407377 1.20593030 -0.07142857
v -0.43407377 1.20593030 0.07142857
v -0.43407377 1.20593030 0.21428571
v -0.43407377 1.20593030 0.35714286
v -0.36264520 1.20593030 0.42857143
v -0.36264520 1.13450173 0.50000000
v -0.36264520 1.13450173 0.64285714
v -0.36264520 1.27735888 -0.35714286
v -0.36264520 1.27735888 -0.21428571
v -0.36264520 1.27735888 -0.07142857
v -0.36264520 1.27735888 0.07142857
v -0.36264520 1.27735888 0.21428571
v -0.36264520 1.27735888 0.35714286
v -0.21978806 -1.22264112 -0.42857143
v -0.21978806 -1.29406970 -0.35714286
v -0.21978806 -1.29406970 -0.21428571
v -0.21978806 -1.29406970 -0.07142857
v -0.21978806 -1.29406970 0.07142857
v -0.21978806 -1.29406970 0.21428571
v -0.21978806 -1.29406970 0.35714286
v -0.29121663 -1.22264112 0.35714286
v -0.21978806 -1.22264112 0.42857143
v -0.29121663 -1.07978398 -0.64285714
v -0.21978806 -1.07978398 -0.71428571
v -0.21978806 -1.15121255 -0.64285714
v -0.21978806 -1.15121255 -0.50000000
v -0.21978806 -1.15121255 0.50000000
v -0.21978806 -1.07978398 0.57142857
v -0.29121663 -0.93692684 -0.78571429
v -0.21978806 -0.93692684 -0.85714286
v -0.21978806 -1.00835541 -0.78571429
v -0.21978806 -1.00835541 0.64285714
v -0.21978806 -1.00835541 0.78571429
v -0.29121663 -0.93692684 0.78571429
v -0.21978806 -0.93692684 0.85714286
v -0.21978806 -0.79406970 -0.85714286
v -0.21978806 -0.79406970 0.85714286
v -0.21978806 -0.65121255 -1.00000000
v -0.21978806 -0.72264112 -0.92857143
v -0.21978806 -0.72264112 0.92857143
v -0.21978806 -0.65121255 1.00000000
v -0.21978806 -0.50835541 -1.00000000
v -0.21978806 -0.50835541 1.00000000
v -0.21978806 -0.36549827 -1.00000000
v -0.21978806 -0.36549827 1.00000000
v -0.21978806 -0.22264112 -1.00000000
v -0.21978806 -0.22264112 1.00000000
v -0.21978806 -0.07978398 -1.00000000
v -0.21978806 -0.07978398 1.00000000
v -0.21978806 0.06307316 -1.00000000
v -0.21978806 0.06307316 1.00000000
v -0.21978806 0.20593030 -1.00000000
v -0.21978806 0.20593030 1.00000000
v -0.21978806 0.34878745 -1.00000000
v -0.21978806 0.34878745 1.00000000
v -0.21978806 0.49164459 -1.00000000
v -0.21978806 0.49164459 1.00000000
v -0.21978806 0.63450173 -1.00000000
v -0.21978806 0.63450173 1.00000000
v -0.21978806 0.70593030 -0.92857143
v -0.21978806 0.77735888 -0.85714286
v -0.29121663 0.77735888 0.92857143
v -0.21978806 0.77735888 1.00000000
v -0.21978806 0.92021602 -0.85714286
v -0.21978806 0.84878745 0.92857143
v -0.21978806 0.92021602 0.85714286
v -0.21978806 0.99164459 -0.78571429
v -0.29121663 1.06307316 -0.64285714
v -0.21978806 1.06307316 -0.71428571
v -0.21978806 0.99164459 0.78571429
v -0.21978806 1.06307316 0.71428571
v -0.21978806 1.13450173 -0.64285714
v -0.21978806 1.13450173 -0.50000000
v -0.21978806 1.20593030 -0.42857143
v -0.21978806 1.13450173 0.50000000
v -0.21978806 1.20593030 0.42857143
v -0.21978806 1.13450173 0.64285714
v -0.21978806 1.27735888 -0.35714286
v -0.21978806 1.27735888 -0.21428571
v -0.21978806 1.27735888 -0.07142857
v -0.21978806 1.27735888 0.07142857
v -0.21978806 1.27735888 0.21428571
v -0.21978806 1.27735888 0.35714286
v -0.07693092 -1.22264112 -0.42857143
v -0.07693092 -1.29406970 -0.35714286
v -0.07693092 -1.29406970 -0.21428571
v -0.07693092 -1.29406970 -0.07142857
v -0.07693092 -1.29406970 0.07142857
v -0.07693092 -1.29406970 0.21428571
v -0.14835949 -1.22264112 0.35714286
v -0.07693092 -1.22264112 0.28571429
v -0.07693092 -1.07978398 -0.71428571
v -0.07693092 -1.15121255 -0.64285714
v -0.07693092 -1.15121255 -0.50000000
v -0.07693092 -1.15121255 0.35714286
v -0.07693092 -1.15121255 0.50000000
v -0.07693092 -1.07978398 0.57142857
v -0.07693092 -0.93692684 -0.85714286
v -0.07693092 -1.00835541 -0.78571429
v -0.07693092 -1.00835541 0.64285714
v -0.07693092 -1.00835541 0.78571429
v -0.07693092 -0.93692684 0.85714286
v -0.07693092 -0.79406970 -0.85714286
v -0.07693092 -0.79406970 0.85714286
v -0.07693092 -0.65121255 -1.00000000
v -0.07693092 -0.72264112 -0.92857143
v -0.07693092 -0.72264112 0.92857143
v -0.07693092 -0.65121255 1.00000000
v -0.07693092 -0.50835541 -1.00000000
v -0.07693092 -0.50835541 1.00000000
v -0.07693092 -0.36549827 -1.00000000
v -0.07693092 -0.36549827 1.00000000
v -0.07693092 -0.22264112 -1.00000000
v -0.07693092 -0.22264112 1.00000000
v -0.07693092 -0.07978398 -1.00000000
v -0.07693092 -0.07978398 1.00000000
v -0.07693092 0.06307316 -1.00000000
v -0.07693092 0.06307316 1.00000000
v -0.07693092 0.20593030 -1.00000000
v -0.07693092 0.20593030 1.00000000
v -0.07693092 0.34878745 -1.00000000
v -0.07693092 0.34878745 1.00000000
v -0.07693092 0.49164459 -1.00000000
v -0.07693092 0.49164459 1.00000000
v -0.07693092 0.63450173 -1.00000000
v -0.07693092 0.63450173 1.00000000
v -0.14835949 0.77735888 -0.92857143
v -0.07693092 0.77735888 -1.00000000
v -0.07693092 0.77735888 1.00000000
v -0.07693092 0.84878745 -0.92857143
v -0.07693092 0.92021602 -0.85714286
v -0.14835949 0.92021602 0.92857143
v -0.07693092 0.92021602 1.00000000
v -0.07693092 0.99164459 -0.78571429
v -0.07693092 1.06307316 -0.71428571
v -0.07693092 0.99164459 0.78571429
v -0.07693092 1.06307316 0.71428571
v -0.07693092 0.99164459 0.92857143
v -0.07693092 1.13450173 -0.64285714
v -0.07693092 1.13450173 -0.50000000
v -0.07693092 1.20593030 -0.42857143
v -0.07693092 1.13450173 0.50000000
v -0.07693092 1.20593030 0.42857143
v -0.07693092 1.13450173 0.64285714
v -0.07693092 1.27735888 -0.35714286
v -0.07693092 1.27735888 -0.21428571
v -0.07693092 1.27735888 -0.07142857
v -0.07693092 1.27735888 0.07142857
v -0.07693092 1.27735888 0.21428571
v -0.07693092 1.27735888 0.35714286
v 0.06592623 -1.22264112 -0.42857143
v 0.06592623 -1.29406970 -0.35714286
v 0.06592623 -1.29406970 -0.21428571
v 0.06592623 -1.29406970 -0.07142857
v 0.06592623 -1.29406970 0.07142857
v 0.06592623 -1.29406970 0.21428571
v 0.06592623 -1.22264112 0.28571429
v 0.06592623 -1.07978398 -0.71428571
v 0.06592623 -1.15121255 -0.64285714
v 0.06592623 -1.15121255 -0.50000000
v 0.06592623 -1.15121255 0.35714286
v 0.06592623 -1.15121255 0.50000000
v 0.06592623 -1.07978398 0.57142857
v 0.06592623 -0.93692684 -0.85714286
v 0.06592623 -1.00835541 -0.78571429
v 0.06592623 -1.00835541 0.64285714
v 0.06592623 -1.00835541 0.78571429
v 0.06592623 -0.93692684 0.85714286
v 0.06592623 -0.79406970 -0.85714286
v 0.06592623 -0.79406970 0.85714286
v 0.06592623 -0.65121255 -1.00000000
v 0.06592623 -0.72264112 -0.92857143
v 0.06592623 -0.72264112 0.92857143
v 0.06592623 -0.65121255 1.00000000
v 0.06592623 -0.50835541 -1.00000000
v 0.06592623 -0.50835541 1.00000000
v 0.06592623 -0.36549827 -1.00000000
v 0.06592623 -0.36549827 1.00000000
v 0.06592623 -0.22264112 -1.00000000
v 0.06592623 -0.22264112 1.00000000
v 0.06592623 -0.07978398 -1.00000000
v 0.06592623 -0.07978398 1.00000000
v 0.06592623 0.06307316 -1.00000000
v 0.06592623 0.06307316 1.00000000
v 0.06592623 0.20593030 -1.00000000
v 0.06592623 0.20593030 1.00000000
v 0.06592623 0.34878745 -1.00000000
v 0.06592623 0.34878745 1.00000000
v 0.06592623 0.49164459 -1.00000000
v 0.06592623 0.49164459 1.00000000
v 0.06592623 0.63450173 -1.00000000
v 0.06592623 0.63450173 1.00000000
v 0.06592623 0.77735888 -1.00000000
v 0.06592623 0.77735888 1.00000000
v 0.06592623 0.84878745 -0.92857143
v 0.06592623 0.92021602 -0.85714286
v 0.06592623 0.92021602 1.00000000
v 0.06592623 0.99164459 -0.78571429
v 0.06592623 1.06307316 -0.71428571
v 0.06592623 0.99164459 0.78571429
v 0.06592623 1.06307316 0.71428571
v 0.06592623 0.99164459 0.92857143
v 0.06592623 1.13450173 -0.64285714
v 0.06592623 1.13450173 -0.50000000
v 0.06592623 1.20593030 -0.42857143
v 0.06592623 1.13450173 0.50000000
v 0.06592623 1.20593030 0.42857143
v 0.06592623 1.13450173 0.64285714
v 0.06592623 1.27735888 -0.35714286
v 0.06592623 1.27735888 -0.21428571
v 0.06592623 1.27735888 -0.07142857
v 0.06592623 1.27735888 0.07142857
v 0.06592623 1.27735888 0.21428571
v 0.06592623 1.27735888 0.35714286
v 0.20878337 -1.22264112 -0.42857143
v 0.20878337 -1.29406970 -0.35714286
v 0.20878337 -1.29406970 -0.21428571
v 0.20878337 -1.29406970 -0.07142857
v 0.20878337 -1.29406970 0.07142857
v 0.20878337 -1.29406970 0.21428571
v 0.20878337 -1.22264112 0.28571429
v 0.20878337 -1.07978398 -0.71428571
v 0.20878337 -1.15121255 -0.64285714
v 0.20878337 -1.15121255 -0.50000000
v 0.20878337 -1.15121255 0.35714286
v 0.20878337 -1.15121255 0.50000000
v 0.20878337 -1.07978398 0.57142857
v 0.20878337 -0.93692684 -0.85714286
v 0.20878337 -1.00835541 -0.78571429
v 0.20878337 -1.00835541 0.64285714
v 0.20878337 -1.00835541 0.78571429
v 0.20878337 -0.93692684 0.85714286
v 0.20878337 -0.79406970 -0.85714286
v 0.20878337 -0.79406970 0.85714286
v 0.20878337 -0.65121255 -1.00000000
v 0.20878337 -0.72264112 -0.92857143
v 0.20878337 -0.72264112 0.92857143
v 0.20878337 -0.65121255 1.00000000
v 0.20878337 -0.50835541 -1.00000000
v 0.20878337 -0.50835541 1.00000000
v 0.20878337 -0.36549827 -1.00000000
v 0.20878337 -0.36549827 1.00000000
v 0.20878337 -0.22264112 -1.00000000
v 0.20878337 -0.22264112 1.00000000
v 0.20878337 -0.07978398 -1.00000000
v 0.20878337 -0.07978398 1.00000000
v 0.20878337 0.06307316 -1.00000000
v 0.20878337 0.06307316 1.00000000
v 0.20878337 0.20593030 -1.00000000
v 0.20878337 0.20593030 1.00000000
v 0.20878337 0.34878745 -1.00000000
v 0.20878337 0.34878745 1.00000000
v 0.20878337 0.49164459 -1.00000000
v 0.20878337 0.49164459 1.00000000
v 0.20878337 0.63450173 -1.00000000
v 0.20878337 0.63450173 1.00000000
v 0.20878337 0.77735888 -1.00000000
v 0.20878337 0.77735888 1.00000000
v 0.20878337 0.84878745 -0.92857143
v 0.20878337 0.92021602 -0.85714286
v 0.20878337 0.92021602 1.00000000
v 0.20878337 0.99164459 -0.78571429
v 0.20878337 1.06307316 -0.71428571
v 0.13735480 1.06307316 0.64285714
v 0.20878337 0.99164459 0.64285714
v 0.20878337 1.06307316 0.57142857
v 0.20878337 0.99164459 0.78571429
v 0.20878337 0.99164459 0.92857143
v 0.20878337 1.13450173 -0.64285714
v 0.20878337 1.13450173 -0.50000000
v 0.20878337 1.20593030 -0.42857143
v 0.13735480 1.20593030 0.35714286
v 0.20878337 1.13450173 0.35714286
v 0.20878337 1.20593030 0.28571429
v 0.20878337 1.13450173 0.50000000
v 0.20878337 1.27735888 -0.35714286
v 0.20878337 1.27735888 -0.21428571
v 0.20878337 1.27735888 -0.07142857
v 0.20878337 1.27735888 0.07142857
v 0.20878337 1.27735888 0.21428571
v 0.28021194 -1.22264112 -0.35714286
v 0.35164051 -1.22264112 -0.28571429
v 0.35164051 -1.29406970 -0.21428571
v 0.35164051 -1.29406970 -0.07142857
v 0.35164051 -1.29406970 0.07142857
v 0.35164051 -1.29406970 0.21428571
v 0.35164051 -1.22264112 0.28571429
v 0.28021194 -1.07978398 -0.64285714
v 0.35164051 -1.07978398 -0.57142857
v 0.35164051 -1.15121255 -0.50000000
v 0.35164051 -1.15121255 -0.35714286
v 0.35164051 -1.15121255 0.35714286
v 0.35164051 -1.15121255 0.50000000
v 0.35164051 -1.07978398 0.57142857
v 0.35164051 -0.93692684 -0.85714286
v 0.35164051 -1.00835541 -0.78571429
v 0.35164051 -1.00835541 -0.64285714
v 0.35164051 -1.00835541 0.64285714
v 0.28021194 -0.93692684 0.78571429
v 0.35164051 -0.93692684 0.71428571
v 0.35164051 -0.79406970 -0.85714286
v 0.35164051 -0.86549827 0.78571429
v 0.35164051 -0.79406970 0.85714286
v 0.35164051 -0.65121255 -1.00000000
v 0.35164051 -0.72264112 -0.92857143
v 0.35164051 -0.72264112 0.92857143
v 0.35164051 -0.65121255 1.00000000
v 0.35164051 -0.50835541 -1.00000000
v 0.35164051 -0.50835541 1.00000000
v 0.35164051 -0.36549827 -1.00000000
v 0.35164051 -0.36549827 1.00000000
v 0.35164051 -0.22264112 -1.00000000
v 0.35164051 -0.22264112 1.00000000
v 0.35164051 -0.07978398 -1.00000000
v 0.35164051 -0.07978398 1.00000000
v 0.35164051 0.06307316 -1.00000000
v 0.35164051 0.06307316 1.00000000
v 0.35164051 0.20593030 -1.00000000
v 0.35164051 0.20593030 1.00000000
v 0.35164051 0.34878745 -1.00000000
v 0.35164051 0.34878745 1.00000000
v 0.35164051 0.49164459 -1.00000000
v 0.35164051 0.49164459 1.00000000
v 0.35164051 0.63450173 -1.00000000
v 0.35164051 0.63450173 1.00000000
v 0.35164051 0.77735888 -1.00000000
v 0.28021194 0.77735888 0.92857143
v 0.35164051 0.70593030 0.92857143
v 0.35164051 0.77735888 0.85714286
v 0.35164051 0.84878745 -0.92857143
v 0.35164051 0.92021602 -0.85714286
v 0.28021194 0.92021602 0.92857143
v 0.35164051 0.92021602 0.85714286
v 0.35164051 0.99164459 -0.78571429
v 0.28021194 1.06307316 -0.64285714
v 0.35164051 0.99164459 -0.64285714
v 0.35164051 1.06307316 -0.57142857
v 0.28021194 1.06307316 0.50000000
v 0.35164051 0.99164459 0.50000000
v 0.35164051 1.06307316 0.42857143
v 0.35164051 0.99164459 0.64285714
v 0.35164051 0.99164459 0.78571429
v 0.35164051 1.13450173 -0.50000000
v 0.35164051 1.20593030 -0.42857143
v 0.35164051 1.13450173 0.35714286
v 0.35164051 1.20593030 0.28571429
v 0.35164051 1.27735888 -0.35714286
v 0.35164051 1.27735888 -0.21428571
v 0.35164051 1.27735888 -0.07142857
v 0.35164051 1.27735888 0.07142857
v 0.35164051 1.27735888 0.21428571
v 0.42306908 -1.22264112 -0.21428571
v 0.42306908 -1.22264112 -0.07142857
v 0.42306908 -1.22264112 0.07142857
v 0.42306908 -1.22264112 0.21428571
v 0.49449766 -1.07978398 -0.57142857
v 0.49449766 -1.15121255 -0.50000000
v 0.49449766 -1.15121255 -0.35714286
v 0.49449766 -1.15121255 -0.21428571
v 0.49449766 -1.15121255 -0.07142857
v 0.49449766 -1.15121255 0.07142857
v 0.49449766 -1.15121255 0.21428571
v 0.49449766 -1.15121255 0.35714286
v 0.42306908 -1.07978398 0.50000000
v 0.49449766 -1.07978398 0.42857143
v 0.42306908 -0.93692684 -0.78571429
v 0.49449766 -0.93692684 -0.71428571
v 0.49449766 -1.00835541 -0.64285714
v 0.49449766 -1.00835541 0.50000000
v 0.49449766 -1.00835541 0.64285714
v 0.49449766 -0.93692684 0.71428571
v 0.49449766 -0.79406970 -0.85714286
v 0.49449766 -0.86549827 -0.78571429
v 0.49449766 -0.86549827 0.78571429
v 0.49449766 -0.79406970 0.85714286
v 0.42306908 -0.65121255 -0.92857143
v 0.49449766 -0.65121255 -0.85714286
v 0.42306908 -0.65121255 0.92857143
v 0.49449766 -0.65121255 0.85714286
v 0.49449766 -0.50835541 -1.00000000
v 0.49449766 -0.57978398 -0.92857143
v 0.49449766 -0.57978398 0.92857143
v 0.49449766 -0.50835541 1.00000000
v 0.49449766 -0.36549827 -1.00000000
v 0.49449766 -0.36549827 1.00000000
v 0.49449766 -0.22264112 -1.00000000
v 0.49449766 -0.22264112 1.00000000
v 0.49449766 -0.07978398 -1.00000000
v 0.49449766 -0.07978398 1.00000000
v 0.49449766 0.06307316 -1.00000000
v 0.49449766 0.06307316 1.00000000
v 0.49449766 0.20593030 -1.00000000
v 0.49449766 0.20593030 1.00000000
v 0.49449766 0.34878745 -1.00000000
v 0.49449766 0.34878745 1.00000000
v 0.49449766 0.49164459 -1.00000000
v 0.49449766 0.49164459 1.00000000
v 0.49449766 0.63450173 -1.00000000
v 0.49449766 0.63450173 1.00000000
v 0.49449766 0.70593030 -0.92857143
v 0.42306908 0.77735888 -0.92857143
v 0.49449766 0.77735888 -0.85714286
v 0.49449766 0.70593030 0.92857143
v 0.49449766 0.77735888 0.85714286
v 0.42306908 0.92021602 -0.78571429
v 0.49449766 0.84878745 -0.78571429
v 0.49449766 0.92021602 -0.71428571
v 0.42306908 0.92021602 0.78571429
v 0.49449766 0.84878745 0.78571429
v 0.49449766 0.92021602 0.71428571
v 0.49449766 0.99164459 -0.64285714
v 0.49449766 1.06307316 -0.57142857
v 0.49449766 0.99164459 0.50000000
v 0.49449766 1.06307316 0.42857143
v 0.49449766 0.99164459 0.64285714
v 0.49449766 1.13450173 -0.50000000
v 0.42306908 1.20593030 -0.35714286
v 0.49449766 1.13450173 -0.35714286
v 0.42306908 1.20593030 -0.21428571
v 0.49449766 1.13450173 -0.21428571
v 0.42306908 1.20593030 -0.07142857
v 0.49449766 1.13450173 -0.07142857
v 0.42306908 1.20593030 0.07142857
v 0.49449766 1.13450173 0.07142857
v 0.42306908 1.20593030 0.21428571
v 0.49449766 1.13450173 0.21428571
v 0.49449766 1.13450173 0.35714286
v 0.56592623 -1.07978398 -0.50000000
v 0.63735480 -1.07978398 -0.42857143
v 0.63735480 -1.15121255 -0.35714286
v 0.63735480 -1.15121255 -0.21428571
v 0.63735480 -1.15121255 -0.07142857
v 0.63735480 -1.15121255 0.07142857
v 0.63735480 -1.15121255 0.21428571
v 0.56592623 -1.07978398 0.35714286
v 0.63735480 -1.07978398 0.28571429
v 0.56592623 -0.93692684 -0.64285714
v 0.63735480 -0.93692684 -0.57142857
v 0.63735480 -1.00835541 -0.50000000
v 0.63735480 -1.00835541 0.35714286
v 0.63735480 -1.00835541 0.50000000
v 0.56592623 -0.93692684 0.64285714
v 0.63735480 -0.93692684 0.57142857
v 0.56592623 -0.79406970 -0.78571429
v 0.63735480 -0.79406970 -0.71428571
v 0.63735480 -0.86549827 -0.64285714
v 0.63735480 -0.86549827 0.64285714
v 0.56592623 -0.79406970 0.78571429
v 0.63735480 -0.79406970 0.71428571
v 0.63735480 -0.65121255 -0.85714286
v 0.63735480 -0.72264112 -0.78571429
v 0.63735480 -0.72264112 0.78571429
v 0.63735480 -0.65121255 0.85714286
v 0.56592623 -0.50835541 -0.92857143
v 0.63735480 -0.50835541 -0.85714286
v 0.56592623 -0.50835541 0.92857143
v 0.63735480 -0.50835541 0.85714286
v 0.63735480 -0.36549827 -1.00000000
v 0.63735480 -0.43692684 -0.92857143
v 0.63735480 -0.43692684 0.92857143
v 0.63735480 -0.36549827 1.00000000
v 0.63735480 -0.22264112 -1.00000000
v 0.63735480 -0.22264112 1.00000000
v 0.63735480 -0.07978398 -1.00000000
v 0.63735480 -0.07978398 1.00000000
v 0.63735480 0.06307316 -1.00000000
v 0.63735480 0.06307316 1.00000000
v 0.63735480 0.20593030 -1.00000000
v 0.63735480 0.20593030 1.00000000
v 0.63735480 0.34878745 -1.00000000
v 0.63735480 0.34878745 1.00000000
v 0.63735480 0.42021602 -0.92857143
v 0.56592623 0.49164459 -0.92857143
v 0.63735480 0.49164459 -0.85714286
v 0.56592623 0.49164459 0.92857143
v 0.63735480 0.42021602 0.92857143
v 0.63735480 0.49164459 0.85714286
v 0.56592623 0.63450173 -0.92857143
v 0.63735480 0.63450173 -0.85714286
v 0.56592623 0.63450173 0.92857143
v 0.63735480 0.63450173 0.85714286
v 0.56592623 0.77735888 -0.78571429
v 0.63735480 0.70593030 -0.78571429
v 0.63735480 0.77735888 -0.71428571
v 0.56592623 0.77735888 0.78571429
v 0.63735480 0.70593030 0.78571429
v 0.63735480 0.77735888 0.71428571
v 0.56592623 0.92021602 -0.64285714
v 0.63735480 0.84878745 -0.64285714
v 0.63735480 0.92021602 -0.57142857
v 0.56592623 0.92021602 0.64285714
v 0.63735480 0.84878745 0.64285714
v 0.63735480 0.92021602 0.57142857
v 0.56592623 1.06307316 -0.50000000
v 0.63735480 0.99164459 -0.50000000
v 0.63735480 1.06307316 -0.42857143
v 0.56592623 1.06307316 0.35714286
v 0.63735480 0.99164459 0.35714286
v 0.63735480 1.06307316 0.28571429
v 0.63735480 0.99164459 0.50000000
v 0.63735480 1.13450173 -0.35714286
v 0.63735480 1.13450173 -0.21428571
v 0.63735480 1.13450173 -0.07142857
v 0.63735480 1.13450173 0.07142857
v 0.63735480 1.13450173 0.21428571
v 0.70878337 -1.07978398 -0.35714286
v 0.70878337 -1.07978398 -0.21428571
v 0.70878337 -1.07978398 -0.07142857
v 0.70878337 -1.07978398 0.07142857
v 0.70878337 -1.07978398 0.21428571
v 0.70878337 -0.93692684 -0.50000000
v 0.78021194 -0.93692684 -0.42857143
v 0.78021194 -1.00835541 -0.35714286
v 0.78021194 -1.00835541 -0.21428571
v 0.78021194 -1.00835541 -0.07142857
v 0.78021194 -1.00835541 0.07142857
v 0.78021194 -1.00835541 0.21428571
v 0.78021194 -1.00835541 0.35714286
v 0.70878337 -0.93692684 0.50000000
v 0.78021194 -0.93692684 0.42857143
v 0.70878337 -0.79406970 -0.64285714
v 0.78021194 -0.79406970 -0.57142857
v 0.78021194 -0.86549827 -0.50000000
v 0.78021194 -0.86549827 0.50000000
v 0.70878337 -0.79406970 0.64285714
v 0.78021194 -0.79406970 0.57142857
v 0.70878337 -0.65121255 -0.78571429
v 0.78021194 -0.65121255 -0.71428571
v 0.78021194 -0.72264112 -0.64285714
v 0.78021194 -0.72264112 0.64285714
v 0.70878337 -0.65121255 0.78571429
v 0.78021194 -0.65121255 0.71428571
v 0.78021194 -0.50835541 -0.85714286
v 0.78021194 -0.57978398 -0.78571429
v 0.78021194 -0.57978398 0.78571429
v 0.78021194 -0.50835541 0.85714286
v 0.70878337 -0.36549827 -0.92857143
v 0.78021194 -0.36549827 -0.85714286
v 0.70878337 -0.36549827 0.92857143
v 0.78021194 -0.36549827 0.85714286
v 0.70878337 -0.22264112 -0.92857143
v 0.78021194 -0.22264112 -0.85714286
v 0.70878337 -0.22264112 0.92857143
v 0.78021194 -0.22264112 0.85714286
v 0.70878337 -0.07978398 -0.92857143
v 0.78021194 -0.07978398 -0.85714286
v 0.78021194 -0.15121255 0.92857143
v 0.78021194 -0.07978398 1.00000000
v 0.70878337 0.06307316 -0.92857143
v 0.78021194 0.06307316 -0.85714286
v 0.78021194 0.06307316 1.00000000
v 0.70878337 0.20593030 -0.92857143
v 0.78021194 0.20593030 -0.85714286
v 0.70878337 0.20593030 0.92857143
v 0.78021194 0.13450173 0.92857143
v 0.78021194 0.20593030 0.85714286
v 0.70878337 0.34878745 -0.92857143
v 0.78021194 0.34878745 -0.85714286
v 0.70878337 0.34878745 0.92857143
v 0.78021194 0.34878745 0.85714286
v 0.78021194 0.49164459 -0.85714286
v 0.78021194 0.49164459 0.85714286
v 0.78021194 0.56307316 -0.78571429
v 0.70878337 0.63450173 -0.78571429
v 0.78021194 0.63450173 -0.71428571
v 0.70878337 0.63450173 0.78571429
v 0.78021194 0.56307316 0.78571429
v 0.78021194 0.63450173 0.71428571
v 0.70878337 0.77735888 -0.64285714
v 0.78021194 0.70593030 -0.64285714
v 0.78021194 0.77735888 -0.57142857
v 0.78021194 0.77735888 0.71428571
v 0.70878337 0.92021602 -0.50000000
v 0.78021194 0.84878745 -0.50000000
v 0.78021194 0.92021602 -0.42857143
v 0.70878337 0.92021602 0.50000000
v 0.78021194 0.84878745 0.50000000
v 0.78021194 0.92021602 0.42857143
v 0.78021194 0.84878745 0.64285714
v 0.70878337 1.06307316 -0.35714286
v 0.78021194 0.99164459 -0.35714286
v 0.70878337 1.06307316 -0.21428571
v 0.78021194 0.99164459 -0.21428571
v 0.70878337 1.06307316 -0.07142857
v 0.78021194 0.99164459 -0.07142857
v 0.70878337 1.06307316 0.07142857
v 0.78021194 0.99164459 0.07142857
v 0.70878337 1.06307316 0.21428571
v 0.78021194 0.99164459 0.21428571
v 0.78021194 0.99164459 0.35714286
v 0.85164051 -0.93692684 -0.35714286
v 0.85164051 -0.93692684 -0.21428571
v 0.85164051 -0.93692684 -0.07142857
v 0.85164051 -0.93692684 0.07142857
v 0.85164051 -0.93692684 0.21428571
v 0.85164051 -0.93692684 0.35714286
v 0.85164051 -0.79406970 -0.50000000
v 0.92306908 -0.79406970 -0.42857143
v 0.92306908 -0.86549827 -0.35714286
v 0.92306908 -0.86549827 -0.21428571
v 0.92306908 -0.86549827 -0.07142857
v 0.92306908 -0.86549827 0.07142857
v 0.92306908 -0.86549827 0.21428571
v 0.92306908 -0.79406970 0.28571429
v 0.85164051 -0.79406970 0.35714286
v 0.85164051 -0.79406970 0.50000000
v 0.85164051 -0.65121255 -0.64285714
v 0.92306908 -0.65121255 -0.57142857
v 0.92306908 -0.72264112 -0.50000000
v 0.92306908 -0.72264112 0.35714286
v 0.92306908 -0.72264112 0.50000000
v 0.85164051 -0.65121255 0.64285714
v 0.92306908 -0.65121255 0.57142857
v 0.85164051 -0.50835541 -0.78571429
v 0.92306908 -0.50835541 -0.71428571
v 0.92306908 -0.57978398 -0.64285714
v 0.92306908 -0.57978398 0.64285714
v 0.85164051 -0.50835541 0.78571429
v 0.92306908 -0.50835541 0.71428571
v 0.85164051 -0.36549827 -0.78571429
v 0.92306908 -0.36549827 -0.71428571
v 0.92306908 -0.43692684 0.78571429
v 0.92306908 -0.36549827 0.85714286
v 0.92306908 -0.22264112 -0.85714286
v 0.92306908 -0.29406970 -0.78571429
v 0.92306908 -0.22264112 0.85714286
v 0.92306908 -0.07978398 -0.85714286
v 0.85164051 -0.07978398 0.92857143
v 0.92306908 -0.07978398 0.85714286
v 0.92306908 0.06307316 -0.85714286
v 0.85164051 0.06307316 0.92857143
v 0.92306908 0.06307316 0.85714286
v 0.92306908 0.20593030 -0.85714286
v 0.92306908 0.20593030 0.85714286
v 0.92306908 0.34878745 -0.85714286
v 0.85164051 0.34878745 0.78571429
v 0.92306908 0.27735888 0.78571429
v 0.92306908 0.34878745 0.71428571
v 0.92306908 0.42021602 -0.78571429
v 0.85164051 0.49164459 -0.78571429
v 0.92306908 0.49164459 -0.71428571
v 0.85164051 0.49164459 0.78571429
v 0.92306908 0.49164459 0.71428571
v 0.85164051 0.63450173 -0.64285714
v 0.92306908 0.56307316 -0.64285714
v 0.92306908 0.63450173 -0.57142857
v 0.92306908 0.63450173 0.71428571
v 0.85164051 0.77735888 -0.50000000
v 0.92306908 0.70593030 -0.50000000
v 0.92306908 0.77735888 -0.42857143
v 0.85164051 0.77735888 0.64285714
v 0.92306908 0.70593030 0.64285714
v 0.92306908 0.77735888 0.57142857
v 0.85164051 0.92021602 -0.35714286
v 0.92306908 0.84878745 -0.35714286
v 0.85164051 0.92021602 -0.21428571
v 0.92306908 0.84878745 -0.21428571
v 0.85164051 0.92021602 -0.07142857
v 0.92306908 0.84878745 -0.07142857
v 0.85164051 0.92021602 0.07142857
v 0.92306908 0.84878745 0.07142857
v 0.85164051 0.92021602 0.21428571
v 0.92306908 0.84878745 0.21428571
v 0.85164051 0.92021602 0.35714286
v 0.92306908 0.84878745 0.35714286
v 0.92306908 0.84878745 0.50000000
v 0.99449766 -0.79406970 -0.35714286
v 0.99449766 -0.79406970 -0.21428571
v 0.99449766 -0.79406970 -0.07142857
v 0.99449766 -0.79406970 0.07142857
v 0.99449766 -0.79406970 0.21428571
v 0.99449766 -0.65121255 -0.50000000
v 1.06592623 -0.65121255 -0.42857143
v 1.06592623 -0.72264112 -0.35714286
v 1.06592623 -0.72264112 -0.21428571
v 1.06592623 -0.72264112 -0.07142857
v 1.06592623 -0.72264112 0.07142857
v 1.06592623 -0.72264112 0.21428571
v 0.99449766 -0.65121255 0.35714286
v 1.06592623 -0.65121255 0.28571429
v 0.99449766 -0.65121255 0.50000000
v 0.99449766 -0.50835541 -0.64285714
v 1.06592623 -0.50835541 -0.57142857
v 1.06592623 -0.57978398 -0.50000000
v 1.06592623 -0.57978398 0.35714286
v 1.06592623 -0.57978398 0.50000000
v 1.06592623 -0.57978398 0.64285714
v 1.06592623 -0.50835541 0.71428571
v 0.99449766 -0.36549827 -0.64285714
v 1.06592623 -0.36549827 -0.57142857
v 0.99449766 -0.36549827 0.78571429
v 1.06592623 -0.36549827 0.71428571
v 0.99449766 -0.22264112 -0.78571429
v 1.06592623 -0.22264112 -0.71428571
v 1.06592623 -0.29406970 -0.64285714
v 1.06592623 -0.29406970 0.78571429
v 1.06592623 -0.22264112 0.85714286
v 0.99449766 -0.07978398 -0.78571429
v 1.06592623 -0.07978398 -0.71428571
v 1.06592623 -0.07978398 0.85714286
v 0.99449766 0.06307316 -0.78571429
v 1.06592623 0.06307316 -0.71428571
v 0.99449766 0.06307316 0.78571429
v 1.06592623 -0.00835541 0.78571429
v 1.06592623 0.06307316 0.71428571
v 0.99449766 0.20593030 -0.78571429
v 1.06592623 0.20593030 -0.71428571
v 0.99449766 0.20593030 0.78571429
v 1.06592623 0.20593030 0.71428571
v 0.99449766 0.34878745 -0.78571429
v 1.06592623 0.27735888 -0.64285714
v 0.99449766 0.34878745 -0.64285714
v 1.06592623 0.34878745 -0.57142857
v 1.06592623 0.34878745 0.71428571
v 0.99449766 0.49164459 -0.64285714
v 1.06592623 0.49164459 -0.57142857
v 0.99449766 0.49164459 0.64285714
v 1.06592623 0.42021602 0.64285714
v 1.06592623 0.49164459 0.57142857
v 0.99449766 0.63450173 -0.50000000
v 1.06592623 0.56307316 -0.50000000
v 0.99449766 0.63450173 -0.35714286
v 1.06592623 0.56307316 -0.35714286
v 1.06592623 0.63450173 -0.28571429
v 0.99449766 0.63450173 0.64285714
v 1.06592623 0.63450173 0.57142857
v 0.99449766 0.77735888 -0.35714286
v 1.06592623 0.70593030 -0.21428571
v 0.99449766 0.77735888 -0.21428571
v 0.99449766 0.77735888 -0.07142857
v 1.06592623 0.70593030 -0.07142857
v 0.99449766 0.77735888 0.07142857
v 1.06592623 0.70593030 0.07142857
v 1.06592623 0.77735888 0.14285714
v 0.99449766 0.77735888 0.50000000
v 1.06592623 0.70593030 0.50000000
v 1.06592623 0.77735888 0.42857143
v 1.06592623 0.84878745 0.21428571
v 1.06592623 0.84878745 0.35714286
v 1.13735480 -0.65121255 -0.35714286
v 1.13735480 -0.65121255 -0.21428571
v 1.13735480 -0.65121255 -0.07142857
v 1.13735480 -0.65121255 0.07142857
v 1.13735480 -0.65121255 0.21428571
v 1.13735480 -0.50835541 -0.50000000
v 1.13735480 -0.50835541 -0.35714286
v 1.13735480 -0.50835541 -0.21428571
v 1.13735480 -0.50835541 -0.07142857
v 1.13735480 -0.50835541 0.07142857
v 1.13735480 -0.50835541 0.21428571
v 1.13735480 -0.50835541 0.35714286
v 1.13735480 -0.50835541 0.50000000
v 1.13735480 -0.50835541 0.64285714
v 1.13735480 -0.36549827 -0.50000000
v 1.20878337 -0.36549827 -0.42857143
v 1.20878337 -0.43692684 -0.35714286
v 1.20878337 -0.43692684 -0.21428571
v 1.20878337 -0.43692684 -0.07142857
v 1.20878337 -0.43692684 0.07142857
v 1.20878337 -0.43692684 0.21428571
v 1.20878337 -0.43692684 0.35714286
v 1.20878337 -0.36549827 0.42857143
v 1.13735480 -0.36549827 0.50000000
v 1.13735480 -0.36549827 0.64285714
v 1.13735480 -0.22264112 -0.64285714
v 1.13735480 -0.22264112 -0.50000000
v 1.20878337 -0.22264112 -0.42857143
v 1.13735480 -0.22264112 0.50000000
v 1.20878337 -0.22264112 0.42857143
v 1.13735480 -0.22264112 0.64285714
v 1.13735480 -0.22264112 0.78571429
v 1.13735480 -0.07978398 -0.64285714
v 1.13735480 -0.07978398 -0.50000000
v 1.20878337 -0.07978398 -0.42857143
v 1.13735480 -0.07978398 0.50000000
v 1.20878337 -0.07978398 0.42857143
v 1.13735480 -0.07978398 0.64285714
v 1.13735480 -0.07978398 0.78571429
v 1.13735480 0.06307316 -0.64285714
v 1.13735480 0.06307316 -0.50000000
v 1.20878337 0.06307316 -0.42857143
v 1.13735480 0.06307316 0.35714286
v 1.20878337 -0.00835541 0.35714286
v 1.20878337 0.06307316 0.28571429
v 1.13735480 0.06307316 0.50000000
v 1.13735480 0.06307316 0.64285714
v 1.13735480 0.20593030 -0.64285714
v 1.13735480 0.20593030 -0.50000000
v 1.20878337 0.20593030 -0.42857143
v 1.13735480 0.20593030 0.35714286
v 1.20878337 0.20593030 0.28571429
v 1.13735480 0.20593030 0.50000000
v 1.13735480 0.20593030 0.64285714
v 1.13735480 0.34878745 -0.50000000
v 1.20878337 0.27735888 -0.35714286
v 1.13735480 0.34878745 -0.35714286
v 1.20878337 0.34878745 -0.28571429
v 1.13735480 0.34878745 0.35714286
v 1.20878337 0.34878745 0.28571429
v 1.13735480 0.34878745 0.50000000
v 1.13735480 0.34878745 0.64285714
v 1.13735480 0.49164459 -0.50000000
v 1.13735480 0.49164459 -0.35714286
v 1.20878337 0.42021602 -0.21428571
v 1.13735480 0.49164459 -0.21428571
v 1.13735480 0.49164459 -0.07142857
v 1.20878337 0.42021602 -0.07142857
v 1.13735480 0.49164459 0.07142857
v 1.20878337 0.42021602 0.07142857
v 1.13735480 0.49164459 0.21428571
v 1.20878337 0.42021602 0.21428571
v 1.13735480 0.49164459 0.35714286
v 1.13735480 0.49164459 0.50000000
v 1.13735480 0.63450173 -0.21428571
v 1.13735480 0.63450173 -0.07142857
v 1.13735480 0.63450173 0.07142857
v 1.13735480 0.63450173 0.21428571
v 1.13735480 0.63450173 0.35714286
v 1.13735480 0.63450173 0.50000000
v 1.13735480 0.77735888 0.21428571
v 1.13735480 0.77735888 0.35714286
v 1.28021194 -0.36549827 -0.35714286
v 1.28021194 -0.36549827 -0.21428571
v 1.28021194 -0.36549827 -0.07142857
v 1.28021194 -0.36549827 0.07142857
v 1.28021194 -0.36549827 0.21428571
v 1.28021194 -0.36549827 0.35714286
v 1.28021194 -0.22264112 -0.35714286
v 1.28021194 -0.22264112 -0.21428571
v 1.28021194 -0.22264112 -0.07142857
v 1.28021194 -0.22264112 0.07142857
v 1.28021194 -0.22264112 0.21428571
v 1.28021194 -0.22264112 0.35714286
v 1.28021194 -0.07978398 -0.35714286
v 1.28021194 -0.07978398 -0.21428571
v 1.28021194 -0.07978398 -0.07142857
v 1.28021194 -0.07978398 0.07142857
v 1.28021194 -0.07978398 0.21428571
v 1.28021194 -0.07978398 0.35714286
v 1.28021194 0.06307316 -0.35714286
v 1.28021194 0.06307316 -0.21428571
v 1.28021194 0.06307316 -0.07142857
v 1.28021194 0.06307316 0.07142857
v 1.28021194 0.06307316 0.21428571
v 1.28021194 0.20593030 -0.35714286
v 1.28021194 0.20593030 -0.21428571
v 1.28021194 0.20593030 -0.07142857
v 1.28021194 0.20593030 0.07142857
v 1.28021194 0.20593030 0.21428571
v 1.28021194 0.34878745 -0.21428571
v 1.28021194 0.34878745 -0.07142857
v 1.28021194 0.34878745 0.07142857
v 1.28021194 0.34878745 0.21428571
f 3 2 1
f 5 4 1
f 1 4 3
f 7 6 5
f 5 6 4
f 9 8 7
f 7 8 6
f 11 10 9
f 9 10 8
f 11 12 10
f 1 2 13
f 13 2 14
f 1 15 5
f 1 13 15
f 5 16 7
f 5 15 16
f 7 17 9
f 7 16 17
f 9 18 11
f 9 17 18
f 12 11 19
f 19 11 18
f 13 14 20
f 20 14 21
f 13 22 15
f 13 20 22
f 15 23 16
f 15 22 23
f 16 24 17
f 16 23 24
f 17 25 18
f 17 24 25
f 19 18 26
f 26 18 25
f 20 21 27
f 27 21 28
f 20 29 22
f 20 27 29
f 22 30 23
f 22 29 30
f 23 31 24
f 23 30 31
f 24 32 25
f 24 31 32
f 26 25 33
f 33 25 32
f 27 28 34
f 34 28 35
f 27 36 29
f 27 34 36
f 29 37 30
f 29 36 37
f 30 38 31
f 30 37 38
f 31 39 32
f 31 38 39
f 33 32 40
f 32 41 40
f 32 39 41
f 41 42 40
f 34 35 43
f 43 35 44
f 34 45 36
f 34 43 45
f 36 46 37
f 36 45 46
f 37 47 38
f 37 46 47
f 38 48 39
f 38 47 48
f 50 41 49
f 41 48 49
f 41 39 48
f 41 50 42
f 44 51 43
f 43 51 45
f 45 51 52
f 45 52 46
f 46 52 53
f 46 53 47
f 47 53 54
f 47 54 48
f 48 54 55
f 48 55 49
f 58 57 56
f 60 59 56
f 56 59 58
f 62 61 60
f 60 61 59
f 64 63 62
f 62 63 61
f 66 65 64
f 64 65 63
f 66 67 65
f 70 69 68
f 70 68 57
f 68 56 57
f 68 71 56
f 56 72 60
f 56 71 72
f 60 73 62
f 60 72 73
f 62 74 64
f 62 73 74
f 64 75 66
f 64 74 75
f 67 66 76
f 66 77 76
f 66 75 77
f 79 78 77
f 77 78 76
f 79 80 78
f 83 82 81
f 83 81 69
f 81 68 69
f 81 84 68
f 84 2 3
f 71 84 3
f 68 84 71
f 71 3 4
f 71 4 72
f 72 4 6
f 72 6 73
f 73 6 8
f 73 8 74
f 74 8 10
f 74 10 75
f 75 10 12
f 85 75 12
f 77 75 85
f 77 86 79
f 77 85 86
f 80 79 87
f 87 79 86
f 81 82 88
f 88 82 89
f 81 90 84
f 81 88 90
f 90 14 2
f 90 2 84
f 19 91 85
f 19 85 12
f 85 92 86
f 85 91 92
f 87 86 93
f 86 94 93
f 86 92 94
f 94 95 93
f 88 89 96
f 96 89 97
f 88 98 90
f 88 96 98
f 98 21 14
f 98 14 90
f 26 99 91
f 26 91 19
f 91 100 92
f 91 99 100
f 102 94 101
f 94 100 101
f 94 92 100
f 94 102 95
f 96 97 103
f 103 97 104
f 96 105 98
f 96 103 105
f 105 28 21
f 105 21 98
f 33 106 99
f 33 99 26
f 99 107 100
f 99 106 107
f 101 100 108
f 108 100 107
f 103 104 109
f 109 104 110
f 103 111 105
f 103 109 111
f 111 35 28
f 111 28 105
f 40 106 33
f 106 40 42
f 112 106 42
f 107 106 112
f 108 107 113
f 113 107 112
f 109 110 114
f 114 110 115
f 109 116 111
f 109 114 116
f 116 44 35
f 116 35 111
f 49 117 50
f 112 42 50
f 117 112 50
f 118 112 117
f 113 112 119
f 119 112 118
f 115 120 114
f 122 121 120
f 121 114 120
f 121 116 114
f 123 51 44
f 116 123 44
f 121 123 116
f 124 52 51
f 124 51 123
f 125 53 52
f 125 52 124
f 126 54 53
f 126 53 125
f 127 55 54
f 127 54 126
f 117 49 55
f 127 117 55
f 128 117 127
f 117 129 118
f 117 128 129
f 119 118 130
f 130 118 129
f 122 131 121
f 133 132 131
f 132 121 131
f 132 123 121
f 123 134 124
f 123 132 134
f 124 135 125
f 124 134 135
f 125 136 126
f 125 135 136
f 126 137 127
f 126 136 137
f 127 138 128
f 127 137 138
f 140 129 139
f 129 138 139
f 129 128 138
f 129 140 130
f 133 141 132
f 132 141 134
f 134 141 142
f 134 142 135
f 135 142 143
f 135 143 136
f 136 143 144
f 136 144 137
f 137 144 145
f 137 145 138
f 138 145 146
f 138 146 139
f 149 148 147
f 151 150 147
f 147 150 149
f 153 152 151
f 151 152 150
f 155 154 153
f 153 154 152
f 157 156 155
f 155 156 154
f 159 158 157
f 157 158 156
f 159 160 158
f 163 162 161
f 163 161 148
f 148 161 147
f 161 57 147
f 57 58 147
f 147 58 59
f 147 59 151
f 151 59 61
f 151 61 153
f 153 61 63
f 153 63 155
f 155 63 65
f 155 65 157
f 157 65 67
f 164 157 67
f 159 157 164
f 160 159 165
f 159 166 165
f 159 164 166
f 166 167 165
f 170 169 168
f 170 168 162
f 162 168 161
f 168 69 161
f 69 70 161
f 161 70 57
f 76 164 67
f 164 76 78
f 164 78 166
f 172 171 80
f 80 171 78
f 171 167 78
f 167 166 78
f 172 173 171
f 176 175 174
f 176 174 169
f 169 174 168
f 174 82 168
f 82 83 168
f 168 83 69
f 87 177 172
f 87 172 80
f 173 172 178
f 178 172 177
f 174 175 179
f 179 175 180
f 179 89 82
f 179 82 174
f 93 177 87
f 182 181 95
f 95 181 93
f 181 178 93
f 178 177 93
f 182 183 181
f 179 180 184
f 184 180 185
f 184 97 89
f 184 89 179
f 101 186 102
f 182 95 102
f 186 182 102
f 187 182 186
f 183 182 188
f 188 182 187
f 184 185 189
f 189 185 190
f 189 104 97
f 189 97 184
f 108 191 186
f 108 186 101
f 186 192 187
f 186 191 192
f 188 187 193
f 193 187 192
f 189 190 194
f 194 190 195
f 194 110 104
f 194 104 189
f 113 196 191
f 113 191 108
f 191 197 192
f 191 196 197
f 193 192 198
f 198 192 197
f 194 195 199
f 199 195 200
f 199 115 110
f 199 110 194
f 119 201 196
f 119 196 113
f 203 197 202
f 197 201 202
f 197 196 201
f 197 203 198
f 200 204 199
f 204 206 205
f 204 205 120
f 199 204 120
f 115 199 120
f 205 122 120
f 130 207 201
f 130 201 119
f 202 201 208
f 208 201 207
f 206 209 205
f 209 211 210
f 209 210 131
f 205 209 131
f 122 205 131
f 210 133 131
f 139 212 140
f 212 213 140
f 140 213 130
f 213 214 130
f 214 207 130
f 207 214 208
f 211 215 210
f 215 217 216
f 215 216 141
f 210 215 141
f 133 210 141
f 218 142 141
f 218 141 216
f 219 143 142
f 219 142 218
f 220 144 143
f 220 143 219
f 221 145 144
f 221 144 220
f 222 146 145
f 222 145 221
f 222 223 146
f 146 223 139
f 223 224 139
f 224 212 139
f 212 224 213
f 217 225 216
f 216 225 218
f 218 225 226
f 218 226 219
f 219 226 227
f 219 227 220
f 220 227 228
f 220 228 221
f 221 228 229
f 221 229 222
f 222 229 230
f 222 230 223
f 233 232 231
f 235 234 231
f 231 234 233
f 237 236 235
f 235 236 234
f 239 238 237
f 237 238 236
f 241 240 239
f 239 240 238
f 243 242 241
f 241 242 240
f 243 244 242
f 247 246 245
f 247 245 232
f 232 245 231
f 245 148 231
f 148 149 231
f 231 149 150
f 231 150 235
f 235 150 152
f 235 152 237
f 237 152 154
f 237 154 239
f 239 154 156
f 239 156 241
f 241 156 158
f 241 158 243
f 249 248 160
f 160 248 158
f 248 244 158
f 244 243 158
f 249 250 248
f 253 252 251
f 253 251 246
f 246 251 245
f 251 162 245
f 162 163 245
f 245 163 148
f 165 249 160
f 255 254 167
f 167 254 165
f 254 250 165
f 250 249 165
f 255 256 254
f 259 258 257
f 259 257 252
f 252 257 251
f 257 169 251
f 169 170 251
f 251 170 162
f 171 255 167
f 261 260 173
f 173 260 171
f 260 256 171
f 256 255 171
f 261 262 260
f 257 258 176
f 258 175 176
f 258 263 175
f 257 176 169
f 178 264 261
f 178 261 173
f 262 261 265
f 265 261 264
f 263 180 175
f 266 180 263
f 181 264 178
f 181 183 264
f 183 265 264
f 183 267 265
f 266 185 180
f 268 185 266
f 188 267 183
f 188 269 267
f 268 190 185
f 270 190 268
f 193 269 188
f 193 271 269
f 270 195 190
f 272 195 270
f 198 271 193
f 198 273 271
f 272 200 195
f 274 200 272
f 202 275 203
f 275 276 203
f 276 198 203
f 276 273 198
f 204 200 277
f 200 278 277
f 200 274 278
f 277 206 204
f 208 279 275
f 208 275 202
f 276 275 280
f 280 275 279
f 278 281 277
f 281 283 282
f 281 282 209
f 277 281 209
f 206 277 209
f 282 211 209
f 213 284 214
f 284 285 214
f 214 285 208
f 285 286 208
f 286 279 208
f 279 286 280
f 283 287 282
f 287 289 288
f 287 288 215
f 282 287 215
f 211 282 215
f 288 217 215
f 223 290 224
f 290 291 224
f 224 291 213
f 291 292 213
f 292 284 213
f 284 292 285
f 289 293 288
f 293 295 294
f 293 294 225
f 288 293 225
f 217 288 225
f 296 226 225
f 296 225 294
f 297 227 226
f 297 226 296
f 298 228 227
f 298 227 297
f 299 229 228
f 299 228 298
f 300 230 229
f 300 229 299
f 300 301 230
f 230 301 223
f 301 302 223
f 302 290 223
f 290 302 291
f 295 303 294
f 294 303 296
f 296 303 304
f 296 304 297
f 297 304 305
f 297 305 298
f 298 305 306
f 298 306 299
f 299 306 307
f 299 307 300
f 300 307 308
f 300 308 301
f 311 310 309
f 313 312 309
f 309 312 311
f 315 314 313
f 313 314 312
f 317 316 315
f 315 316 314
f 319 318 317
f 317 318 316
f 319 320 318
f 323 322 321
f 323 321 310
f 310 321 309
f 321 232 309
f 232 233 309
f 309 233 234
f 309 234 313
f 313 234 236
f 313 236 315
f 315 236 238
f 315 238 317
f 317 238 240
f 317 240 319
f 324 320 319
f 240 324 319
f 242 324 240
f 326 325 244
f 325 242 244
f 325 324 242
f 326 327 325
f 330 329 328
f 330 328 322
f 322 328 321
f 328 246 321
f 246 247 321
f 321 247 232
f 248 326 244
f 332 331 250
f 250 331 248
f 331 327 248
f 327 326 248
f 332 333 331
f 336 335 334
f 336 334 329
f 329 334 328
f 334 252 328
f 252 253 328
f 328 253 246
f 254 332 250
f 338 337 256
f 256 337 254
f 337 333 254
f 333 332 254
f 338 339 337
f 334 335 259
f 335 258 259
f 335 340 258
f 334 259 252
f 260 338 256
f 260 262 338
f 262 339 338
f 262 341 339
f 344 343 342
f 340 344 342
f 263 340 342
f 258 340 263
f 265 346 345
f 341 265 345
f 262 265 341
f 346 347 345
f 342 343 348
f 348 343 349
f 348 266 263
f 348 263 342
f 267 350 346
f 267 346 265
f 347 346 351
f 351 346 350
f 348 349 352
f 352 349 353
f 352 268 266
f 352 266 348
f 269 354 350
f 269 350 267
f 351 350 355
f 355 350 354
f 352 353 356
f 356 353 357
f 356 270 268
f 356 268 352
f 271 358 354
f 271 354 269
f 355 354 359
f 359 354 358
f 356 357 360
f 360 357 361
f 360 272 270
f 360 270 356
f 273 362 358
f 273 358 271
f 359 358 363
f 363 358 362
f 360 361 364
f 364 361 365
f 364 274 272
f 364 272 360
f 276 366 362
f 276 362 273
f 363 362 367
f 367 362 366
f 365 368 364
f 274 364 368
f 369 274 368
f 278 274 369
f 371 370 366
f 276 371 366
f 280 371 276
f 366 370 367
f 281 278 372
f 278 373 372
f 278 369 373
f 372 283 281
f 285 374 286
f 374 375 286
f 375 280 286
f 375 371 280
f 373 376 372
f 376 378 377
f 376 377 287
f 372 376 287
f 283 372 287
f 377 289 287
f 380 379 292
f 380 292 291
f 285 292 374
f 292 381 374
f 292 379 381
f 374 381 375
f 378 382 377
f 382 384 383
f 382 383 293
f 377 382 293
f 289 377 293
f 383 295 293
f 386 385 302
f 386 302 301
f 291 302 380
f 380 302 385
f 384 387 383
f 387 389 388
f 387 388 303
f 383 387 303
f 295 383 303
f 390 304 303
f 390 303 388
f 391 305 304
f 391 304 390
f 392 306 305
f 392 305 391
f 393 307 306
f 393 306 392
f 307 393 394
f 395 307 394
f 308 307 395
f 301 308 386
f 386 308 395
f 389 396 388
f 388 396 390
f 390 396 397
f 390 397 391
f 391 397 398
f 391 398 392
f 392 398 399
f 392 399 393
f 393 399 400
f 393 400 394
f 403 402 401
f 310 311 401
f 311 403 401
f 311 404 403
f 405 311 312
f 405 404 311
f 406 312 314
f 406 405 312
f 407 314 316
f 407 406 314
f 408 316 318
f 408 407 316
f 410 409 320
f 409 318 320
f 409 408 318
f 410 411 409
f 414 413 412
f 414 412 402
f 402 412 401
f 412 322 401
f 322 323 401
f 401 323 310
f 324 410 320
f 415 411 410
f 324 415 410
f 325 415 324
f 417 416 327
f 416 325 327
f 416 415 325
f 417 418 416
f 421 420 419
f 421 419 413
f 413 419 412
f 419 329 412
f 329 330 412
f 412 330 322
f 331 417 327
f 423 422 333
f 333 422 331
f 422 418 331
f 418 417 331
f 423 424 422
f 419 420 336
f 420 335 336
f 420 425 335
f 419 336 329
f 337 423 333
f 337 339 423
f 339 424 423
f 339 426 424
f 429 428 427
f 425 429 427
f 340 425 427
f 335 425 340
f 341 431 430
f 426 341 430
f 339 341 426
f 431 432 430
f 427 428 344
f 428 343 344
f 428 433 343
f 427 344 340
f 345 431 341
f 345 347 431
f 347 432 431
f 347 434 432
f 433 349 343
f 435 349 433
f 351 434 347
f 351 436 434
f 435 353 349
f 437 353 435
f 355 436 351
f 355 438 436
f 437 357 353
f 439 357 437
f 359 438 355
f 359 440 438
f 439 361 357
f 441 361 439
f 363 440 359
f 363 442 440
f 441 365 361
f 443 365 441
f 367 442 363
f 367 444 442
f 368 365 445
f 365 446 445
f 365 443 446
f 445 369 368
f 371 447 370
f 447 448 370
f 448 367 370
f 448 444 367
f 446 449 445
f 369 445 449
f 450 369 449
f 373 369 450
f 452 451 447
f 371 452 447
f 375 452 371
f 447 451 448
f 376 373 453
f 373 454 453
f 373 450 454
f 453 378 376
f 380 455 379
f 456 381 379
f 456 379 455
f 456 457 381
f 457 375 381
f 457 452 375
f 454 458 453
f 458 460 459
f 458 459 382
f 453 458 382
f 378 453 382
f 459 384 382
f 386 461 385
f 461 462 385
f 385 462 380
f 462 463 380
f 463 455 380
f 455 463 456
f 456 463 464
f 456 464 457
f 460 465 459
f 465 467 466
f 465 466 387
f 459 465 387
f 384 459 387
f 466 389 387
f 394 468 395
f 468 469 395
f 395 469 386
f 469 470 386
f 470 461 386
f 461 470 462
f 467 471 466
f 466 471 389
f 471 396 389
f 471 472 396
f 396 473 397
f 472 473 396
f 397 474 398
f 473 474 397
f 398 475 399
f 474 475 398
f 399 476 400
f 475 476 399
f 394 400 468
f 400 477 468
f 400 476 477
f 468 477 469
f 480 479 478
f 482 481 478
f 478 481 480
f 484 483 482
f 482 483 481
f 486 485 484
f 484 485 483
f 488 487 486
f 486 487 485
f 488 489 487
f 491 490 403
f 403 490 402
f 404 478 479
f 491 404 479
f 403 404 491
f 478 404 405
f 478 405 482
f 482 405 406
f 482 406 484
f 484 406 407
f 484 407 486
f 486 407 408
f 486 408 488
f 492 489 488
f 408 492 488
f 409 492 408
f 494 493 411
f 493 409 411
f 493 492 409
f 494 495 493
f 497 496 414
f 414 496 413
f 414 402 490
f 414 490 497
f 415 494 411
f 498 495 494
f 415 498 494
f 416 498 415
f 416 418 498
f 498 418 499
f 501 500 421
f 421 500 420
f 421 413 496
f 421 496 501
f 502 499 418
f 502 418 422
f 422 424 502
f 502 424 503
f 506 505 504
f 500 506 504
f 425 500 504
f 420 500 425
f 426 508 507
f 503 426 507
f 424 426 503
f 508 509 507
f 504 505 429
f 505 428 429
f 505 510 428
f 504 429 425
f 430 508 426
f 430 432 508
f 432 509 508
f 432 511 509
f 510 433 428
f 512 433 510
f 434 511 432
f 434 513 511
f 512 435 433
f 514 435 512
f 436 513 434
f 436 515 513
f 514 437 435
f 516 437 514
f 438 515 436
f 438 517 515
f 516 439 437
f 518 439 516
f 440 517 438
f 440 519 517
f 518 441 439
f 520 441 518
f 442 519 440
f 442 521 519
f 520 443 441
f 522 443 520
f 444 521 442
f 444 523 521
f 522 446 443
f 524 446 522
f 448 523 444
f 448 525 523
f 449 446 526
f 446 527 526
f 446 524 527
f 526 450 449
f 452 528 451
f 528 529 451
f 529 448 451
f 529 525 448
f 527 530 526
f 450 526 530
f 531 450 530
f 454 450 531
f 533 532 528
f 452 533 528
f 457 533 452
f 528 532 529
f 458 454 534
f 454 535 534
f 454 531 535
f 534 460 458
f 462 536 463
f 537 464 463
f 537 463 536
f 537 538 464
f 538 457 464
f 538 533 457
f 535 539 534
f 534 539 460
f 539 465 460
f 539 540 465
f 467 465 540
f 467 540 541
f 469 542 470
f 536 462 470
f 542 536 470
f 543 536 542
f 545 537 544
f 537 543 544
f 537 536 543
f 537 545 538
f 541 546 467
f 467 546 471
f 546 548 547
f 472 546 547
f 471 546 472
f 549 473 472
f 549 472 547
f 550 474 473
f 550 473 549
f 551 475 474
f 551 474 550
f 552 476 475
f 552 475 551
f 553 477 476
f 553 476 552
f 553 554 477
f 477 554 469
f 554 555 469
f 555 542 469
f 542 555 543
f 543 555 556
f 543 556 544
f 548 557 547
f 547 557 549
f 549 557 558
f 549 558 550
f 550 558 559
f 550 559 551
f 551 559 560
f 551 560 552
f 552 560 561
f 552 561 553
f 553 561 562
f 553 562 554
f 564 563 480
f 480 563 479
f 565 480 481
f 565 564 480
f 566 481 483
f 566 565 481
f 567 483 485
f 567 566 483
f 568 485 487
f 568 567 485
f 570 569 489
f 569 487 489
f 569 568 487
f 570 571 569
f 574 573 572
f 490 491 572
f 491 574 572
f 491 575 574
f 491 479 563
f 491 563 575
f 492 570 489
f 576 571 570
f 492 576 570
f 493 576 492
f 493 495 576
f 576 495 577
f 580 579 578
f 580 578 573
f 573 578 572
f 578 496 572
f 496 497 572
f 572 497 490
f 581 577 495
f 581 495 498
f 583 582 499
f 582 498 499
f 582 581 498
f 583 584 582
f 578 579 501
f 579 500 501
f 579 585 500
f 578 501 496
f 502 583 499
f 502 503 583
f 503 584 583
f 503 586 584
f 588 587 506
f 506 587 505
f 506 500 585
f 506 585 588
f 589 586 503
f 589 503 507
f 507 509 589
f 589 509 590
f 587 510 505
f 591 510 587
f 511 590 509
f 511 592 590
f 591 512 510
f 593 512 591
f 513 592 511
f 513 594 592
f 593 514 512
f 595 514 593
f 515 594 513
f 515 596 594
f 595 516 514
f 597 516 595
f 517 596 515
f 517 598 596
f 597 518 516
f 599 518 597
f 519 598 517
f 519 600 598
f 599 520 518
f 601 520 599
f 521 600 519
f 521 602 600
f 601 522 520
f 603 522 601
f 523 602 521
f 523 604 602
f 603 524 522
f 605 524 603
f 525 604 523
f 525 606 604
f 605 527 524
f 607 527 605
f 529 606 525
f 529 608 606
f 607 609 527
f 527 609 530
f 531 530 609
f 531 609 610
f 533 611 532
f 611 612 532
f 612 529 532
f 612 608 529
f 610 535 531
f 613 535 610
f 615 614 611
f 533 615 611
f 538 615 533
f 611 614 612
f 613 616 535
f 535 616 539
f 616 618 617
f 540 616 617
f 539 616 540
f 617 541 540
f 620 619 545
f 620 545 544
f 538 545 615
f 615 545 619
f 618 621 617
f 617 621 541
f 621 546 541
f 621 622 546
f 548 546 622
f 548 622 623
f 625 624 555
f 625 555 554
f 555 626 556
f 624 626 555
f 544 556 620
f 620 556 626
f 623 627 548
f 548 627 557
f 557 628 558
f 627 628 557
f 558 629 559
f 628 629 558
f 559 630 560
f 629 630 559
f 560 631 561
f 630 631 560
f 561 632 562
f 631 632 561
f 554 562 625
f 625 562 632
f 634 633 564
f 564 633 563
f 635 564 565
f 635 634 564
f 636 565 566
f 636 635 565
f 637 566 567
f 637 636 566
f 638 567 568
f 638 637 567
f 640 638 639
f 638 569 639
f 638 568 569
f 571 639 569
f 642 641 574
f 574 641 573
f 643 574 575
f 643 642 574
f 575 563 633
f 575 633 643
f 644 640 639
f 644 639 571
f 576 644 571
f 645 644 576
f 576 577 645
f 645 577 646
f 648 647 580
f 580 647 579
f 580 573 641
f 580 641 648
f 649 646 577
f 649 577 581
f 650 581 582
f 650 649 581
f 582 584 650
f 650 584 651
f 647 585 579
f 652 585 647
f 586 651 584
f 586 653 651
f 655 654 588
f 588 654 587
f 588 585 652
f 588 652 655
f 656 653 586
f 656 586 589
f 589 590 656
f 656 590 657
f 654 591 587
f 658 591 654
f 592 657 590
f 592 659 657
f 658 593 591
f 660 593 658
f 594 659 592
f 594 661 659
f 660 595 593
f 662 595 660
f 596 661 594
f 596 663 661
f 662 597 595
f 664 597 662
f 598 663 596
f 598 665 663
f 664 599 597
f 666 599 664
f 600 665 598
f 600 667 665
f 666 601 599
f 668 601 666
f 602 667 600
f 602 669 667
f 668 603 601
f 670 603 668
f 604 669 602
f 604 671 669
f 670 605 603
f 672 605 670
f 606 671 604
f 606 673 671
f 672 607 605
f 674 607 672
f 608 673 606
f 608 675 673
f 609 607 676
f 607 677 676
f 607 674 677
f 676 610 609
f 612 675 608
f 612 678 675
f 677 679 676
f 610 676 679
f 680 610 679
f 613 610 680
f 615 681 614
f 681 682 614
f 682 612 614
f 682 678 612
f 680 683 613
f 613 683 616
f 618 616 683
f 618 683 684
f 686 685 619
f 686 619 620
f 615 619 681
f 619 687 681
f 619 685 687
f 681 687 682
f 684 688 618
f 618 688 621
f 621 689 622
f 688 689 621
f 623 622 689
f 623 689 690
f 692 691 624
f 692 624 625
f 624 693 626
f 691 693 624
f 620 626 686
f 686 626 693
f 690 694 623
f 623 694 627
f 627 695 628
f 694 695 627
f 628 696 629
f 695 696 628
f 629 697 630
f 696 697 629
f 630 698 631
f 697 698 630
f 631 699 632
f 698 699 631
f 625 632 692
f 692 632 699
f 701 700 634
f 634 700 633
f 702 634 635
f 702 701 634
f 703 635 636
f 703 702 635
f 704 636 637
f 704 703 636
f 705 637 638
f 705 704 637
f 638 640 705
f 705 640 706
f 708 707 642
f 642 707 641
f 709 642 643
f 709 708 642
f 643 633 700
f 643 700 709
f 710 706 640
f 710 640 644
f 711 644 645
f 711 710 644
f 645 646 711
f 711 646 712
f 714 713 648
f 648 713 647
f 648 641 707
f 648 707 714
f 715 712 646
f 715 646 649
f 716 649 650
f 716 715 649
f 650 651 716
f 716 651 717
f 713 652 647
f 718 652 713
f 653 717 651
f 653 719 717
f 721 720 655
f 655 720 654
f 655 652 718
f 655 718 721
f 722 719 653
f 722 653 656
f 656 657 722
f 722 657 723
f 720 658 654
f 724 658 720
f 659 723 657
f 659 725 723
f 724 660 658
f 726 660 724
f 661 725 659
f 661 727 725
f 726 662 660
f 728 662 726
f 663 727 661
f 663 729 727
f 728 664 662
f 730 664 728
f 665 729 663
f 665 731 729
f 730 666 664
f 732 666 730
f 667 731 665
f 667 733 731
f 732 668 666
f 734 668 732
f 669 733 667
f 669 735 733
f 734 670 668
f 736 670 734
f 671 735 669
f 671 737 735
f 736 672 670
f 738 672 736
f 673 737 671
f 673 739 737
f 738 674 672
f 740 674 738
f 675 739 673
f 675 741 739
f 740 677 674
f 742 677 740
f 678 741 675
f 678 743 741
f 742 744 677
f 677 744 679
f 680 679 744
f 680 744 745
f 682 743 678
f 682 746 743
f 745 747 680
f 680 747 683
f 684 683 747
f 684 747 748
f 750 749 685
f 750 685 686
f 685 751 687
f 749 751 685
f 682 687 746
f 746 687 751
f 748 752 684
f 684 752 688
f 688 753 689
f 752 753 688
f 690 689 753
f 690 753 754
f 756 755 691
f 756 691 692
f 691 757 693
f 755 757 691
f 686 693 750
f 750 693 757
f 754 758 690
f 690 758 694
f 694 759 695
f 758 759 694
f 695 760 696
f 759 760 695
f 696 761 697
f 760 761 696
f 697 762 698
f 761 762 697
f 698 763 699
f 762 763 698
f 692 699 756
f 756 699 763
f 765 764 701
f 701 764 700
f 766 701 702
f 766 765 701
f 767 702 703
f 767 766 702
f 768 703 704
f 768 767 703
f 769 704 705
f 769 768 704
f 705 706 769
f 769 706 770
f 772 771 708
f 708 771 707
f 773 708 709
f 773 772 708
f 709 700 764
f 709 764 773
f 774 770 706
f 774 706 710
f 775 710 711
f 775 774 710
f 711 712 775
f 775 712 776
f 778 777 714
f 714 777 713
f 714 707 771
f 714 771 778
f 779 776 712
f 779 712 715
f 780 715 716
f 780 779 715
f 716 717 780
f 780 717 781
f 777 718 713
f 782 718 777
f 719 781 717
f 719 783 781
f 785 784 721
f 721 784 720
f 721 718 782
f 721 782 785
f 786 783 719
f 786 719 722
f 722 723 786
f 786 723 787
f 784 724 720
f 788 724 784
f 725 787 723
f 725 789 787
f 788 726 724
f 790 726 788
f 727 789 725
f 727 791 789
f 790 728 726
f 792 728 790
f 729 791 727
f 729 793 791
f 792 730 728
f 794 730 792
f 731 793 729
f 731 795 793
f 794 732 730
f 796 732 794
f 733 795 731
f 733 797 795
f 796 734 732
f 798 734 796
f 735 797 733
f 735 799 797
f 798 736 734
f 800 736 798
f 737 799 735
f 737 801 799
f 800 738 736
f 802 738 800
f 739 801 737
f 739 803 801
f 802 740 738
f 804 740 802
f 741 803 739
f 741 805 803
f 804 742 740
f 806 742 804
f 743 805 741
f 743 807 805
f 806 808 742
f 742 808 744
f 745 744 808
f 745 808 809
f 746 807 743
f 746 810 807
f 809 811 745
f 745 811 747
f 748 747 811
f 748 811 812
f 815 814 813
f 749 750 813
f 814 749 813
f 816 749 814
f 749 817 751
f 816 817 749
f 746 751 810
f 810 751 817
f 812 818 748
f 748 818 752
f 752 819 753
f 818 819 752
f 754 753 819
f 754 819 820
f 823 822 821
f 755 756 821
f 822 755 821
f 824 755 822
f 813 757 815
f 757 824 815
f 757 755 824
f 757 813 750
f 820 825 754
f 754 825 758
f 758 826 759
f 825 826 758
f 759 827 760
f 826 827 759
f 760 828 761
f 827 828 760
f 761 829 762
f 828 829 761
f 821 763 823
f 763 829 823
f 763 762 829
f 763 821 756
f 830 764 765
f 830 765 831
f 765 832 831
f 765 766 832
f 833 766 767
f 833 832 766
f 834 767 768
f 834 833 767
f 835 768 769
f 835 834 768
f 769 770 835
f 835 770 836
f 837 771 772
f 837 772 838
f 772 839 838
f 772 773 839
f 773 764 830
f 840 773 830
f 839 773 840
f 840 830 831
f 841 836 770
f 841 770 774
f 842 774 775
f 842 841 774
f 775 776 842
f 842 776 843
f 845 844 778
f 778 844 777
f 778 771 837
f 846 778 837
f 845 778 846
f 846 837 838
f 847 843 776
f 847 776 779
f 849 847 848
f 847 780 848
f 847 779 780
f 781 848 780
f 844 782 777
f 850 782 844
f 851 849 848
f 848 781 851
f 781 852 851
f 781 783 852
f 854 853 785
f 785 853 784
f 785 782 850
f 785 850 854
f 855 852 783
f 855 783 786
f 786 787 855
f 855 787 856
f 853 788 784
f 857 788 853
f 789 856 787
f 789 858 856
f 857 790 788
f 859 790 857
f 791 858 789
f 791 860 858
f 859 792 790
f 861 792 859
f 793 860 791
f 793 862 860
f 861 794 792
f 863 794 861
f 795 862 793
f 795 864 862
f 863 796 794
f 865 796 863
f 797 864 795
f 797 866 864
f 865 798 796
f 867 798 865
f 799 866 797
f 799 868 866
f 867 800 798
f 869 800 867
f 801 868 799
f 801 870 868
f 869 802 800
f 871 802 869
f 803 870 801
f 803 872 870
f 871 804 802
f 873 804 871
f 805 872 803
f 805 874 872
f 873 806 804
f 875 806 873
f 878 877 876
f 877 874 876
f 874 807 876
f 874 805 807
f 875 879 806
f 806 879 808
f 809 808 879
f 809 879 880
f 878 876 881
f 878 881 882
f 810 881 807
f 807 881 876
f 880 883 809
f 809 883 811
f 885 884 812
f 811 885 812
f 883 885 811
f 886 884 885
f 889 888 887
f 814 815 887
f 888 814 887
f 890 814 888
f 814 891 816
f 890 891 814
f 881 817 882
f 817 891 882
f 817 816 891
f 817 881 810
f 884 818 812
f 886 892 884
f 892 818 884
f 892 819 818
f 820 819 892
f 820 892 893
f 895 894 822
f 895 822 823
f 887 824 889
f 824 894 889
f 824 822 894
f 824 887 815
f 893 896 820
f 820 896 825
f 825 897 826
f 896 897 825
f 826 898 827
f 897 898 826
f 827 899 828
f 898 899 827
f 828 900 829
f 899 900 828
f 823 829 895
f 895 829 900
f 901 831 832
f 833 902 832
f 832 902 901
f 834 903 833
f 833 903 902
f 835 904 834
f 834 904 903
f 836 904 835
f 906 905 839
f 839 905 838
f 907 839 840
f 907 906 839
f 840 831 901
f 908 840 901
f 907 840 908
f 908 901 902
f 908 902 909
f 909 902 903
f 909 903 910
f 910 903 904
f 910 904 911
f 911 904 836
f 841 911 836
f 912 911 841
f 914 912 913
f 912 842 913
f 912 841 842
f 843 913 842
f 915 844 845
f 915 845 916
f 845 917 916
f 845 846 917
f 846 838 905
f 846 905 917
f 918 914 913
f 918 913 843
f 847 918 843
f 919 918 847
f 847 849 919
f 919 849 920
f 922 921 915
f 921 844 915
f 921 850 844
f 922 915 916
f 923 920 849
f 923 849 851
f 851 852 923
f 923 852 924
f 925 853 854
f 926 925 854
f 850 926 854
f 921 926 850
f 852 855 927
f 928 852 927
f 924 852 928
f 856 927 855
f 930 929 925
f 929 853 925
f 929 857 853
f 930 925 926
f 931 928 927
f 927 856 931
f 856 932 931
f 856 858 932
f 929 859 857
f 933 859 929
f 860 932 858
f 860 934 932
f 933 861 859
f 935 861 933
f 862 934 860
f 862 936 934
f 935 863 861
f 937 863 935
f 864 936 862
f 864 938 936
f 937 865 863
f 939 865 937
f 866 938 864
f 866 940 938
f 939 867 865
f 941 867 939
f 868 940 866
f 868 942 940
f 941 869 867
f 943 869 941
f 870 942 868
f 870 944 942
f 943 871 869
f 945 871 943
f 872 944 870
f 872 946 944
f 945 873 871
f 947 873 945
f 874 946 872
f 874 948 946
f 950 875 949
f 875 947 949
f 875 873 947
f 951 950 949
f 953 952 877
f 953 877 878
f 874 877 948
f 948 877 952
f 950 879 875
f 955 954 880
f 955 880 879
f 951 955 879
f 950 951 879
f 956 954 955
f 959 958 957
f 958 953 957
f 953 882 957
f 953 878 882
f 954 883 880
f 956 960 954
f 960 883 954
f 960 885 883
f 886 885 960
f 886 960 961
f 963 962 888
f 963 888 889
f 888 964 890
f 962 964 888
f 957 891 959
f 891 964 959
f 891 890 964
f 891 957 882
f 961 965 886
f 886 965 892
f 967 966 893
f 892 967 893
f 965 967 892
f 969 968 966
f 969 966 967
f 971 970 968
f 971 968 969
f 973 972 970
f 973 970 971
f 975 974 972
f 975 972 973
f 894 895 974
f 975 894 974
f 976 894 975
f 889 894 963
f 963 894 976
f 966 896 893
f 896 966 897
f 897 966 968
f 897 968 898
f 898 968 970
f 898 970 899
f 899 970 972
f 899 972 900
f 900 972 974
f 900 974 895
f 977 905 906
f 977 906 978
f 906 979 978
f 906 907 979
f 980 907 908
f 980 979 907
f 981 908 909
f 981 980 908
f 982 909 910
f 982 981 909
f 983 910 911
f 983 982 910
f 985 983 984
f 983 912 984
f 983 911 912
f 914 984 912
f 986 916 917
f 987 986 917
f 987 917 905
f 988 987 905
f 977 988 905
f 988 977 978
f 989 985 984
f 989 984 914
f 918 989 914
f 990 989 918
f 992 990 991
f 990 919 991
f 990 918 919
f 920 991 919
f 993 921 922
f 994 993 922
f 994 922 916
f 995 994 916
f 986 995 916
f 995 986 987
f 996 992 991
f 998 996 997
f 997 996 923
f 996 991 923
f 991 920 923
f 924 997 923
f 1000 999 993
f 999 921 993
f 999 926 921
f 1000 993 994
f 1001 998 997
f 997 924 1001
f 924 1002 1001
f 924 928 1002
f 1003 929 930
f 1004 1003 930
f 926 1004 930
f 999 1004 926
f 928 931 1005
f 1006 928 1005
f 1002 928 1006
f 932 1005 931
f 1008 1007 1003
f 1007 929 1003
f 1007 933 929
f 1008 1003 1004
f 1009 1006 1005
f 1005 932 1009
f 932 1010 1009
f 932 934 1010
f 1007 935 933
f 1011 935 1007
f 936 1010 934
f 936 1012 1010
f 1011 937 935
f 1013 937 1011
f 938 1012 936
f 938 1014 1012
f 1013 939 937
f 1015 939 1013
f 940 1014 938
f 940 1016 1014
f 1015 941 939
f 1017 941 1015
f 942 1016 940
f 942 1018 1016
f 1017 943 941
f 1019 943 1017
f 944 1018 942
f 944 1020 1018
f 1022 945 1021
f 945 1019 1021
f 945 943 1019
f 1023 1022 1021
f 1026 1025 1024
f 1025 1020 1024
f 1020 946 1024
f 1020 944 946
f 1027 947 1022
f 1022 947 945
f 1022 1023 1028
f 1022 1028 1027
f 1026 1024 1029
f 1026 1029 1030
f 948 1029 946
f 946 1029 1024
f 1027 949 947
f 1032 1031 951
f 1032 951 949
f 1028 1032 949
f 1027 1028 949
f 1033 1031 1032
f 1036 1035 1034
f 1034 1035 1030
f 1034 1030 1029
f 953 1034 1029
f 952 953 1029
f 952 1029 948
f 1031 955 951
f 1038 1037 956
f 1038 956 955
f 1033 1038 955
f 1031 1033 955
f 1039 1037 1038
f 1042 1041 1040
f 1040 1041 1036
f 1040 1036 1034
f 959 1040 1034
f 958 959 1034
f 958 1034 953
f 1037 960 956
f 1044 1043 961
f 1044 961 960
f 1039 1044 960
f 1037 1039 960
f 1045 1043 1044
f 1048 1047 1046
f 962 963 1046
f 1047 962 1046
f 1049 962 1047
f 1040 964 1042
f 964 1049 1042
f 964 962 1049
f 964 1040 959
f 1043 965 961
f 1045 1050 1043
f 1050 965 1043
f 1050 967 965
f 967 1051 969
f 1050 1051 967
f 969 1052 971
f 1051 1052 969
f 971 1053 973
f 1052 1053 971
f 973 1054 975
f 1053 1054 973
f 1046 976 1048
f 976 1054 1048
f 976 975 1054
f 976 1046 963
f 1055 978 979
f 980 1056 979
f 979 1056 1055
f 981 1057 980
f 980 1057 1056
f 982 1058 981
f 981 1058 1057
f 983 1059 982
f 982 1059 1058
f 985 1059 983
f 1060 987 988
f 1061 1060 988
f 1061 988 978
f 1062 1061 978
f 1055 1062 978
f 1062 1055 1056
f 1062 1056 1063
f 1063 1056 1057
f 1063 1057 1064
f 1064 1057 1058
f 1064 1058 1065
f 1065 1058 1059
f 1065 1059 1066
f 1066 1059 985
f 989 1066 985
f 1067 1066 989
f 1069 1067 1068
f 1067 990 1068
f 1067 989 990
f 992 1068 990
f 1070 994 995
f 1071 1070 995
f 1071 995 987
f 1072 1071 987
f 1060 1072 987
f 1072 1060 1061
f 1073 1069 1068
f 1075 1073 1074
f 1074 1073 996
f 1073 1068 996
f 1068 992 996
f 998 1074 996
f 1076 999 1000
f 1077 1076 1000
f 1077 1000 994
f 1078 1077 994
f 1070 1078 994
f 1078 1070 1071
f 1079 1075 1074
f 1081 1079 1080
f 1080 1079 1001
f 1079 1074 1001
f 1074 998 1001
f 1002 1080 1001
f 1083 1082 1076
f 1082 999 1076
f 1082 1004 999
f 1083 1076 1077
f 1084 1081 1080
f 1080 1002 1084
f 1002 1085 1084
f 1002 1006 1085
f 1086 1007 1008
f 1087 1086 1008
f 1004 1087 1008
f 1082 1087 1004
f 1006 1009 1088
f 1089 1006 1088
f 1085 1006 1089
f 1010 1088 1009
f 1090 1011 1086
f 1086 1011 1007
f 1086 1087 1091
f 1086 1091 1090
f 1089 1088 1092
f 1089 1092 1093
f 1012 1092 1010
f 1010 1092 1088
f 1094 1013 1090
f 1090 1013 1011
f 1090 1091 1095
f 1090 1095 1094
f 1096 1093 1092
f 1092 1012 1096
f 1012 1097 1096
f 1012 1014 1097
f 1098 1015 1094
f 1094 1015 1013
f 1094 1095 1099
f 1094 1099 1098
f 1016 1097 1014
f 1016 1100 1097
f 1101 1017 1098
f 1098 1017 1015
f 1098 1099 1102
f 1098 1102 1101
f 1105 1104 1103
f 1104 1100 1103
f 1100 1018 1103
f 1100 1016 1018
f 1106 1019 1101
f 1101 1019 1017
f 1101 1102 1107
f 1101 1107 1106
f 1105 1103 1108
f 1105 1108 1109
f 1020 1108 1018
f 1018 1108 1103
f 1106 1021 1019
f 1023 1021 1106
f 1107 1023 1106
f 1110 1023 1107
f 1109 1108 1025
f 1026 1109 1025
f 1111 1109 1026
f 1025 1108 1020
f 1113 1028 1112
f 1028 1110 1112
f 1028 1023 1110
f 1114 1113 1112
f 1117 1116 1115
f 1116 1111 1115
f 1111 1030 1115
f 1111 1026 1030
f 1113 1032 1028
f 1119 1118 1033
f 1119 1033 1032
f 1114 1119 1032
f 1113 1114 1032
f 1120 1118 1119
f 1117 1115 1035
f 1036 1117 1035
f 1121 1117 1036
f 1035 1115 1030
f 1118 1038 1033
f 1123 1122 1039
f 1123 1039 1038
f 1120 1123 1038
f 1118 1120 1038
f 1124 1122 1123
f 1127 1126 1125
f 1041 1042 1125
f 1126 1041 1125
f 1128 1041 1126
f 1036 1041 1121
f 1121 1041 1128
f 1122 1044 1039
f 1130 1129 1045
f 1130 1045 1044
f 1124 1130 1044
f 1122 1124 1044
f 1132 1131 1129
f 1132 1129 1130
f 1134 1133 1131
f 1134 1131 1132
f 1136 1135 1133
f 1136 1133 1134
f 1138 1137 1135
f 1138 1135 1136
f 1047 1048 1137
f 1138 1047 1137
f 1139 1047 1138
f 1125 1049 1127
f 1049 1139 1127
f 1049 1047 1139
f 1049 1125 1042
f 1129 1050 1045
f 1050 1129 1051
f 1051 1129 1131
f 1051 1131 1052
f 1052 1131 1133
f 1052 1133 1053
f 1053 1133 1135
f 1053 1135 1054
f 1054 1135 1137
f 1054 1137 1048
f 1140 1061 1062
f 1063 1141 1062
f 1062 1141 1140
f 1064 1142 1063
f 1063 1142 1141
f 1065 1143 1064
f 1064 1143 1142
f 1066 1144 1065
f 1065 1144 1143
f 1067 1145 1066
f 1066 1145 1144
f 1069 1145 1067
f 1146 1071 1072
f 1147 1146 1072
f 1147 1072 1061
f 1148 1147 1061
f 1140 1148 1061
f 1148 1140 1141
f 1148 1141 1149
f 1149 1141 1142
f 1149 1142 1150
f 1150 1142 1143
f 1150 1143 1151
f 1151 1143 1144
f 1151 1144 1152
f 1154 1153 1152
f 1144 1154 1152
f 1145 1154 1144
f 1073 1155 1069
f 1155 1145 1069
f 1155 1154 1145
f 1075 1155 1073
f 1156 1077 1078
f 1157 1156 1078
f 1157 1078 1071
f 1158 1157 1071
f 1146 1158 1071
f 1158 1146 1147
f 1159 1153 1154
f 1159 1154 1155
f 1159 1155 1160
f 1162 1160 1161
f 1161 1160 1079
f 1160 1155 1079
f 1155 1075 1079
f 1081 1161 1079
f 1163 1082 1083
f 1164 1163 1083
f 1164 1083 1077
f 1165 1164 1077
f 1156 1165 1077
f 1165 1156 1157
f 1166 1162 1161
f 1168 1166 1167
f 1167 1166 1084
f 1166 1161 1084
f 1161 1081 1084
f 1085 1167 1084
f 1169 1087 1163
f 1163 1087 1082
f 1163 1164 1170
f 1163 1170 1169
f 1171 1168 1167
f 1167 1085 1171
f 1085 1172 1171
f 1085 1089 1172
f 1174 1173 1169
f 1173 1087 1169
f 1173 1091 1087
f 1174 1169 1170
f 1093 1172 1089
f 1093 1175 1172
f 1173 1095 1091
f 1176 1095 1173
f 1093 1096 1177
f 1178 1093 1177
f 1175 1093 1178
f 1097 1177 1096
f 1176 1099 1095
f 1179 1099 1176
f 1178 1177 1180
f 1178 1180 1181
f 1100 1180 1097
f 1097 1180 1177
f 1179 1102 1099
f 1182 1102 1179
f 1181 1180 1104
f 1105 1181 1104
f 1183 1181 1105
f 1104 1180 1100
f 1182 1107 1102
f 1184 1107 1182
f 1187 1186 1185
f 1186 1183 1185
f 1183 1109 1185
f 1183 1105 1109
f 1189 1110 1188
f 1110 1184 1188
f 1110 1107 1184
f 1190 1189 1188
f 1187 1185 1191
f 1187 1191 1192
f 1111 1191 1109
f 1109 1191 1185
f 1189 1112 1110
f 1194 1193 1114
f 1194 1114 1112
f 1190 1194 1112
f 1189 1190 1112
f 1195 1193 1194
f 1192 1191 1116
f 1117 1192 1116
f 1196 1192 1117
f 1116 1191 1111
f 1193 1119 1114
f 1198 1197 1120
f 1198 1120 1119
f 1195 1198 1119
f 1193 1195 1119
f 1199 1197 1198
f 1202 1201 1200
f 1201 1196 1200
f 1196 1121 1200
f 1196 1117 1121
f 1197 1123 1120
f 1204 1203 1124
f 1204 1124 1123
f 1199 1204 1123
f 1197 1199 1123
f 1206 1205 1203
f 1206 1203 1204
f 1208 1207 1205
f 1208 1205 1206
f 1210 1209 1207
f 1210 1207 1208
f 1212 1211 1209
f 1212 1209 1210
f 1214 1213 1211
f 1214 1211 1212
f 1126 1127 1213
f 1214 1126 1213
f 1215 1126 1214
f 1200 1128 1202
f 1128 1215 1202
f 1128 1126 1215
f 1128 1200 1121
f 1203 1130 1124
f 1130 1203 1132
f 1132 1203 1205
f 1132 1205 1134
f 1134 1205 1207
f 1134 1207 1136
f 1136 1207 1209
f 1136 1209 1138
f 1138 1209 1211
f 1138 1211 1139
f 1139 1211 1213
f 1139 1213 1127
f 1216 1147 1148
f 1149 1217 1148
f 1148 1217 1216
f 1150 1218 1149
f 1149 1218 1217
f 1151 1219 1150
f 1150 1219 1218
f 1152 1220 1151
f 1151 1220 1219
f 1153 1220 1152
f 1221 1157 1158
f 1222 1221 1158
f 1222 1158 1147
f 1223 1222 1147
f 1216 1223 1147
f 1223 1216 1217
f 1223 1217 1224
f 1224 1217 1218
f 1224 1218 1225
f 1225 1218 1219
f 1225 1219 1226
f 1226 1219 1220
f 1226 1220 1227
f 1229 1227 1228
f 1228 1227 1159
f 1227 1220 1159
f 1220 1153 1159
f 1160 1230 1159
f 1159 1230 1228
f 1162 1230 1160
f 1231 1164 1165
f 1232 1231 1165
f 1232 1165 1157
f 1233 1232 1157
f 1221 1233 1157
f 1233 1221 1222
f 1234 1229 1228
f 1234 1228 1230
f 1234 1230 1235
f 1235 1230 1162
f 1166 1235 1162
f 1236 1235 1166
f 1166 1168 1236
f 1236 1168 1237
f 1238 1170 1231
f 1231 1170 1164
f 1231 1232 1239
f 1231 1239 1238
f 1168 1171 1240
f 1241 1168 1240
f 1237 1168 1241
f 1172 1240 1171
f 1242 1173 1174
f 1243 1242 1174
f 1243 1174 1170
f 1244 1243 1170
f 1238 1244 1170
f 1244 1238 1239
f 1245 1241 1240
f 1240 1172 1245
f 1172 1246 1245
f 1172 1175 1246
f 1247 1176 1242
f 1242 1176 1173
f 1242 1243 1248
f 1242 1248 1247
f 1178 1246 1175
f 1178 1249 1246
f 1250 1179 1247
f 1247 1179 1176
f 1247 1248 1251
f 1247 1251 1250
f 1254 1253 1252
f 1253 1249 1252
f 1249 1181 1252
f 1249 1178 1181
f 1255 1182 1250
f 1250 1182 1179
f 1250 1251 1256
f 1250 1256 1255
f 1254 1252 1257
f 1254 1257 1258
f 1183 1257 1181
f 1181 1257 1252
f 1259 1184 1255
f 1255 1184 1182
f 1255 1256 1260
f 1261 1255 1260
f 1259 1255 1261
f 1262 1261 1260
f 1258 1257 1186
f 1187 1258 1186
f 1263 1258 1187
f 1186 1257 1183
f 1259 1188 1184
f 1188 1259 1190
f 1259 1264 1190
f 1259 1261 1264
f 1261 1262 1265
f 1261 1265 1264
f 1268 1267 1266
f 1267 1263 1266
f 1263 1192 1266
f 1263 1187 1192
f 1264 1194 1190
f 1270 1269 1195
f 1270 1195 1194
f 1265 1270 1194
f 1264 1265 1194
f 1272 1271 1269
f 1272 1269 1270
f 1273 1271 1272
f 1268 1266 1274
f 1268 1274 1275
f 1196 1274 1192
f 1192 1274 1266
f 1269 1198 1195
f 1198 1269 1199
f 1269 1276 1199
f 1269 1271 1276
f 1271 1273 1277
f 1278 1271 1277
f 1276 1271 1278
f 1280 1279 1278
f 1280 1278 1277
f 1282 1281 1279
f 1282 1279 1280
f 1283 1281 1282
f 1286 1285 1284
f 1284 1285 1275
f 1284 1275 1274
f 1202 1284 1274
f 1201 1202 1274
f 1201 1274 1196
f 1276 1204 1199
f 1204 1276 1206
f 1206 1276 1278
f 1206 1278 1208
f 1208 1278 1279
f 1208 1279 1210
f 1210 1279 1281
f 1283 1287 1281
f 1287 1210 1281
f 1287 1212 1210
f 1212 1288 1214
f 1287 1288 1212
f 1284 1215 1286
f 1215 1288 1286
f 1215 1214 1288
f 1215 1284 1202
f 1289 1222 1223
f 1224 1290 1223
f 1223 1290 1289
f 1225 1291 1224
f 1224 1291 1290
f 1226 1292 1225
f 1225 1292 1291
f 1227 1293 1226
f 1226 1293 1292
f 1229 1293 1227
f 1294 1232 1233
f 1222 1289 1233
f 1289 1294 1233
f 1289 1295 1294
f 1296 1289 1290
f 1295 1289 1296
f 1297 1290 1291
f 1296 1290 1297
f 1298 1291 1292
f 1297 1291 1298
f 1299 1292 1293
f 1298 1292 1299
f 1234 1300 1229
f 1300 1293 1229
f 1300 1299 1293
f 1235 1301 1234
f 1234 1301 1300
f 1236 1302 1235
f 1235 1302 1301
f 1237 1302 1236
f 1303 1239 1294
f 1294 1239 1232
f 1295 1305 1304
f 1303 1295 1304
f 1294 1295 1303
f 1305 1295 1296
f 1305 1296 1306
f 1306 1296 1297
f 1306 1297 1307
f 1307 1297 1298
f 1307 1298 1308
f 1308 1298 1299
f 1308 1299 1309
f 1309 1299 1300
f 1309 1300 1310
f 1312 1311 1310
f 1300 1312 1310
f 1301 1312 1300
f 1313 1301 1302
f 1312 1301 1313
f 1241 1313 1237
f 1237 1313 1302
f 1314 1243 1244
f 1239 1303 1244
f 1303 1314 1244
f 1303 1315 1314
f 1303 1304 1316
f 1303 1316 1315
f 1311 1312 1317
f 1311 1317 1318
f 1319 1312 1313
f 1317 1312 1319
f 1245 1320 1241
f 1320 1313 1241
f 1320 1319 1313
f 1246 1320 1245
f 1321 1248 1314
f 1314 1248 1243
f 1322 1314 1315
f 1321 1314 1322
f 1315 1316 1323
f 1315 1323 1322
f 1318 1317 1324
f 1318 1324 1325
f 1326 1317 1319
f 1324 1317 1326
f 1327 1319 1320
f 1326 1319 1327
f 1249 1327 1246
f 1246 1327 1320
f 1328 1251 1321
f 1321 1251 1248
f 1329 1321 1322
f 1328 1321 1329
f 1322 1323 1330
f 1322 1330 1329
f 1333 1332 1331
f 1331 1332 1325
f 1324 1331 1325
f 1334 1331 1324
f 1335 1324 1326
f 1334 1324 1335
f 1254 1335 1253
f 1335 1327 1253
f 1335 1326 1327
f 1253 1327 1249
f 1336 1256 1328
f 1328 1256 1251
f 1337 1328 1329
f 1336 1328 1337
f 1329 1330 1338
f 1329 1338 1337
f 1333 1331 1339
f 1333 1339 1340
f 1341 1331 1334
f 1339 1331 1341
f 1342 1334 1335
f 1341 1334 1342
f 1258 1342 1254
f 1254 1342 1335
f 1336 1260 1256
f 1260 1336 1262
f 1336 1343 1262
f 1336 1337 1343
f 1337 1338 1344
f 1345 1337 1344
f 1343 1337 1345
f 1346 1345 1344
f 1340 1339 1347
f 1340 1347 1348
f 1349 1339 1341
f 1347 1339 1349
f 1350 1341 1342
f 1349 1341 1350
f 1263 1350 1258
f 1258 1350 1342
f 1351 1265 1343
f 1343 1265 1262
f 1352 1343 1345
f 1351 1343 1352
f 1345 1346 1353
f 1354 1345 1353
f 1352 1345 1354
f 1356 1355 1354
f 1356 1354 1353
f 1358 1357 1355
f 1358 1355 1356
f 1360 1359 1357
f 1360 1357 1358
f 1359 1360 1348
f 1347 1359 1348
f 1361 1359 1347
f 1362 1347 1349
f 1361 1347 1362
f 1268 1362 1267
f 1362 1350 1267
f 1362 1349 1350
f 1267 1350 1263
f 1351 1270 1265
f 1270 1351 1272
f 1272 1351 1352
f 1272 1352 1273
f 1352 1363 1273
f 1352 1354 1363
f 1364 1354 1355
f 1363 1354 1364
f 1365 1355 1357
f 1364 1355 1365
f 1366 1357 1359
f 1365 1357 1366
f 1367 1359 1361
f 1366 1359 1367
f 1368 1361 1362
f 1367 1361 1368
f 1275 1368 1268
f 1268 1368 1362
f 1363 1277 1273
f 1277 1363 1280
f 1280 1363 1364
f 1280 1364 1282
f 1282 1364 1365
f 1282 1365 1283
f 1365 1369 1283
f 1365 1366 1369
f 1370 1366 1367
f 1369 1366 1370
f 1286 1370 1285
f 1370 1368 1285
f 1370 1367 1368
f 1285 1368 1275
f 1369 1287 1283
f 1287 1369 1288
f 1288 1369 1370
f 1288 1370 1286
f 1371 1304 1305
f 1306 1372 1305
f 1305 1372 1371
f 1307 1373 1306
f 1306 1373 1372
f 1308 1374 1307
f 1307 1374 1373
f 1309 1375 1308
f 1308 1375 1374
f 1310 1376 1309
f 1309 1376 1375
f 1311 1376 1310
f 1377 1316 1371
f 1371 1316 1304
f 1378 1371 1372
f 1377 1371 1378
f 1379 1372 1373
f 1378 1372 1379
f 1380 1373 1374
f 1379 1373 1380
f 1381 1374 1375
f 1380 1374 1381
f 1382 1375 1376
f 1381 1375 1382
f 1318 1382 1311
f 1311 1382 1376
f 1383 1323 1377
f 1377 1323 1316
f 1384 1377 1378
f 1383 1377 1384
f 1385 1378 1379
f 1384 1378 1385
f 1386 1379 1380
f 1385 1379 1386
f 1387 1380 1381
f 1386 1380 1387
f 1388 1381 1382
f 1387 1381 1388
f 1325 1388 1318
f 1318 1388 1382
f 1389 1330 1383
f 1383 1330 1323
f 1390 1383 1384
f 1389 1383 1390
f 1391 1384 1385
f 1390 1384 1391
f 1392 1385 1386
f 1391 1385 1392
f 1393 1386 1387
f 1392 1386 1393
f 1333 1393 1332
f 1393 1388 1332
f 1393 1387 1388
f 1332 1388 1325
f 1394 1338 1389
f 1389 1338 1330
f 1395 1389 1390
f 1394 1389 1395
f 1396 1390 1391
f 1395 1390 1396
f 1397 1391 1392
f 1396 1391 1397
f 1398 1392 1393
f 1397 1392 1398
f 1340 1398 1333
f 1333 1398 1393
f 1394 1344 1338
f 1344 1394 1346
f 1394 1399 1346
f 1394 1395 1399
f 1400 1395 1396
f 1399 1395 1400
f 1401 1396 1397
f 1400 1396 1401
f 1402 1397 1398
f 1401 1397 1402
f 1348 1402 1340
f 1340 1402 1398
f 1399 1353 1346
f 1353 1399 1356
f 1356 1399 1400
f 1356 1400 1358
f 1358 1400 1401
f 1358 1401 1360
f 1360 1401 1402
f 1360 1402 1348
