ply
format ascii 1.0
element vertex 1408
property float x
property float y
property float z
element face 2812
property list uchar int vertex_indices
end_header
-1.13788555 -1.06645698 -0.92857143
-1.06645698 -1.06645698 -1.00000000
-1.06645698 -1.13788555 -0.92857143
-1.06645698 -1.13788555 -0.78571429
-1.13788555 -1.06645698 -0.78571429
-1.06645698 -1.13788555 -0.64285714
-1.13788555 -1.06645698 -0.64285714
-1.06645698 -1.13788555 -0.50000000
-1.13788555 -1.06645698 -0.50000000
-1.06645698 -1.13788555 -0.35714286
-1.13788555 -1.06645698 -0.35714286
-1.06645698 -1.13788555 -0.21428571
-1.13788555 -1.06645698 -0.21428571
-1.06645698 -1.13788555 -0.07142857
-1.13788555 -1.06645698 -0.07142857
-1.06645698 -1.13788555 0.07142857
-1.13788555 -1.06645698 0.07142857
-1.06645698 -1.13788555 0.21428571
-1.13788555 -1.06645698 0.21428571
-1.06645698 -1.13788555 0.35714286
-1.13788555 -1.06645698 0.35714286
-1.06645698 -1.13788555 0.50000000
-1.13788555 -1.06645698 0.50000000
-1.06645698 -1.13788555 0.64285714
-1.13788555 -1.06645698 0.64285714
-1.06645698 -1.06645698 0.71428571
-1.13788555 -0.92359984 -0.92857143
-1.06645698 -0.92359984 -1.00000000
-1.13788555 -0.92359984 -0.78571429
-1.13788555 -0.92359984 -0.64285714
-1.13788555 -0.92359984 -0.50000000
-1.13788555 -0.92359984 -0.35714286
-1.13788555 -0.92359984 -0.21428571
-1.13788555 -0.92359984 -0.07142857
-1.13788555 -0.92359984 0.07142857
-1.13788555 -0.92359984 0.21428571
-1.13788555 -0.92359984 0.35714286
-1.13788555 -0.92359984 0.50000000
-1.13788555 -0.92359984 0.64285714
-1.06645698 -0.99502841 0.78571429
-1.13788555 -0.92359984 0.78571429
-1.06645698 -0.99502841 0.92857143
-1.13788555 -0.92359984 0.92857143
-1.06645698 -0.92359984 1.00000000
-1.13788555 -0.78074269 -0.92857143
-1.06645698 -0.78074269 -1.00000000
-1.13788555 -0.78074269 -0.78571429
-1.13788555 -0.78074269 -0.64285714
-1.13788555 -0.78074269 -0.50000000
-1.13788555 -0.78074269 -0.35714286
-1.13788555 -0.78074269 -0.21428571
-1.13788555 -0.78074269 -0.07142857
-1.13788555 -0.78074269 0.07142857
-1.13788555 -0.78074269 0.21428571
-1.13788555 -0.78074269 0.35714286
-1.13788555 -0.78074269 0.50000000
-1.13788555 -0.78074269 0.64285714
-1.13788555 -0.78074269 0.78571429
-1.13788555 -0.78074269 0.92857143
-1.06645698 -0.78074269 1.00000000
-1.13788555 -0.63788555 -0.92857143
-1.06645698 -0.63788555 -1.00000000
-1.13788555 -0.63788555 -0.78571429
-1.13788555 -0.63788555 -0.64285714
-1.13788555 -0.63788555 -0.50000000
-1.13788555 -0.63788555 -0.35714286
-1.13788555 -0.63788555 -0.21428571
-1.13788555 -0.63788555 -0.07142857
-1.13788555 -0.63788555 0.07142857
-1.13788555 -0.63788555 0.21428571
-1.13788555 -0.63788555 0.35714286
-1.13788555 -0.63788555 0.50000000
-1.13788555 -0.63788555 0.64285714
-1.13788555 -0.63788555 0.78571429
-1.13788555 -0.63788555 0.92857143
-1.06645698 -0.63788555 1.00000000
-1.13788555 -0.49502841 -0.92857143
-1.06645698 -0.49502841 -1.00000000
-1.13788555 -0.49502841 -0.78571429
-1.13788555 -0.49502841 -0.64285714
-1.13788555 -0.49502841 -0.50000000
-1.13788555 -0.49502841 -0.35714286
-1.13788555 -0.49502841 -0.21428571
-1.13788555 -0.49502841 -0.07142857
-1.13788555 -0.49502841 0.07142857
-1.13788555 -0.49502841 0.21428571
-1.13788555 -0.49502841 0.35714286
-1.13788555 -0.49502841 0.50000000
-1.13788555 -0.49502841 0.64285714
-1.13788555 -0.49502841 0.78571429
-1.13788555 -0.49502841 0.92857143
-1.06645698 -0.49502841 1.00000000
-1.13788555 -0.35217127 -0.92857143
-1.06645698 -0.35217127 -1.00000000
-1.13788555 -0.35217127 -0.78571429
-1.13788555 -0.35217127 -0.64285714
-1.13788555 -0.35217127 -0.50000000
-1.13788555 -0.35217127 -0.35714286
-1.13788555 -0.35217127 -0.21428571
-1.13788555 -0.35217127 -0.07142857
-1.13788555 -0.35217127 0.07142857
-1.13788555 -0.35217127 0.21428571
-1.13788555 -0.35217127 0.35714286
-1.13788555 -0.35217127 0.50000000
-1.13788555 -0.35217127 0.64285714
-1.13788555 -0.35217127 0.78571429
-1.13788555 -0.35217127 0.92857143
-1.06645698 -0.35217127 1.00000000
-1.13788555 -0.20931412 -0.92857143
-1.06645698 -0.20931412 -1.00000000
-1.13788555 -0.20931412 -0.78571429
-1.13788555 -0.20931412 -0.64285714
-1.13788555 -0.20931412 -0.50000000
-1.13788555 -0.20931412 -0.35714286
-1.13788555 -0.20931412 -0.21428571
-1.13788555 -0.20931412 -0.07142857
-1.13788555 -0.20931412 0.07142857
-1.13788555 -0.20931412 0.21428571
-1.13788555 -0.20931412 0.35714286
-1.13788555 -0.20931412 0.50000000
-1.13788555 -0.20931412 0.64285714
-1.13788555 -0.20931412 0.78571429
-1.13788555 -0.20931412 0.92857143
-1.06645698 -0.20931412 1.00000000
-1.13788555 -0.06645698 -0.92857143
-1.06645698 -0.06645698 -1.00000000
-1.13788555 -0.06645698 -0.78571429
-1.13788555 -0.06645698 -0.64285714
-1.13788555 -0.06645698 -0.50000000
-1.13788555 -0.06645698 -0.35714286
-1.13788555 -0.06645698 -0.21428571
-1.13788555 -0.06645698 -0.07142857
-1.13788555 -0.06645698 0.07142857
-1.13788555 -0.06645698 0.21428571
-1.13788555 -0.06645698 0.35714286
-1.13788555 -0.06645698 0.50000000
-1.13788555 -0.06645698 0.64285714
-1.13788555 -0.06645698 0.78571429
-1.13788555 -0.06645698 0.92857143
-1.06645698 -0.06645698 1.00000000
-1.13788555 0.07640016 -0.92857143
-1.06645698 0.07640016 -1.00000000
-1.13788555 0.07640016 -0.78571429
-1.13788555 0.07640016 -0.64285714
-1.13788555 0.07640016 -0.50000000
-1.13788555 0.07640016 -0.35714286
-1.13788555 0.07640016 -0.21428571
-1.13788555 0.07640016 -0.07142857
-1.13788555 0.07640016 0.07142857
-1.13788555 0.07640016 0.21428571
-1.13788555 0.07640016 0.35714286
-1.13788555 0.07640016 0.50000000
-1.13788555 0.07640016 0.64285714
-1.13788555 0.07640016 0.78571429
-1.13788555 0.07640016 0.92857143
-1.06645698 0.07640016 1.00000000
-1.13788555 0.21925731 -0.92857143
-1.06645698 0.21925731 -1.00000000
-1.13788555 0.21925731 -0.78571429
-1.13788555 0.21925731 -0.64285714
-1.13788555 0.21925731 -0.50000000
-1.13788555 0.21925731 -0.35714286
-1.13788555 0.21925731 -0.21428571
-1.13788555 0.21925731 -0.07142857
-1.13788555 0.21925731 0.07142857
-1.13788555 0.21925731 0.21428571
-1.13788555 0.21925731 0.35714286
-1.13788555 0.21925731 0.50000000
-1.13788555 0.21925731 0.64285714
-1.13788555 0.21925731 0.78571429
-1.13788555 0.21925731 0.92857143
-1.06645698 0.21925731 1.00000000
-1.13788555 0.36211445 -0.92857143
-1.06645698 0.36211445 -1.00000000
-1.13788555 0.36211445 -0.78571429
-1.13788555 0.36211445 -0.64285714
-1.13788555 0.36211445 -0.50000000
-1.13788555 0.36211445 -0.35714286
-1.13788555 0.36211445 -0.21428571
-1.13788555 0.36211445 -0.07142857
-1.13788555 0.36211445 0.07142857
-1.13788555 0.36211445 0.21428571
-1.13788555 0.36211445 0.35714286
-1.13788555 0.36211445 0.50000000
-1.13788555 0.36211445 0.64285714
-1.13788555 0.36211445 0.78571429
-1.13788555 0.36211445 0.92857143
-1.06645698 0.36211445 1.00000000
-1.13788555 0.50497159 -0.92857143
-1.06645698 0.50497159 -1.00000000
-1.13788555 0.50497159 -0.78571429
-1.13788555 0.50497159 -0.64285714
-1.13788555 0.50497159 -0.50000000
-1.13788555 0.50497159 -0.35714286
-1.13788555 0.50497159 -0.21428571
-1.13788555 0.50497159 -0.07142857
-1.13788555 0.50497159 0.07142857
-1.13788555 0.50497159 0.21428571
-1.13788555 0.50497159 0.35714286
-1.13788555 0.50497159 0.50000000
-1.13788555 0.50497159 0.64285714
-1.13788555 0.50497159 0.78571429
-1.13788555 0.50497159 0.92857143
-1.06645698 0.50497159 1.00000000
-1.13788555 0.64782873 -0.92857143
-1.06645698 0.64782873 -1.00000000
-1.13788555 0.64782873 -0.78571429
-1.13788555 0.64782873 -0.64285714
-1.13788555 0.64782873 -0.50000000
-1.13788555 0.64782873 -0.35714286
-1.13788555 0.64782873 -0.21428571
-1.13788555 0.64782873 -0.07142857
-1.13788555 0.64782873 0.07142857
-1.13788555 0.64782873 0.21428571
-1.13788555 0.64782873 0.35714286
-1.13788555 0.64782873 0.50000000
-1.13788555 0.64782873 0.64285714
-1.13788555 0.64782873 0.78571429
-1.13788555 0.64782873 0.92857143
-1.06645698 0.64782873 1.00000000
-1.13788555 0.79068588 -0.92857143
-1.06645698 0.79068588 -1.00000000
-1.13788555 0.79068588 -0.78571429
-1.13788555 0.79068588 -0.64285714
-1.13788555 0.79068588 -0.50000000
-1.13788555 0.79068588 -0.35714286
-1.13788555 0.79068588 -0.21428571
-1.13788555 0.79068588 -0.07142857
-1.13788555 0.79068588 0.07142857
-1.13788555 0.79068588 0.21428571
-1.13788555 0.79068588 0.35714286
-1.13788555 0.79068588 0.50000000
-1.13788555 0.79068588 0.64285714
-1.13788555 0.79068588 0.78571429
-1.13788555 0.79068588 0.92857143
-1.06645698 0.79068588 1.00000000
-1.13788555 0.93354302 -0.92857143
-1.06645698 0.93354302 -1.00000000
-1.13788555 0.93354302 -0.78571429
-1.13788555 0.93354302 -0.64285714
-1.13788555 0.93354302 -0.50000000
-1.13788555 0.93354302 -0.35714286
-1.13788555 0.93354302 -0.21428571
-1.13788555 0.93354302 -0.07142857
-1.13788555 0.93354302 0.07142857
-1.13788555 0.93354302 0.21428571
-1.13788555 0.93354302 0.35714286
-1.13788555 0.93354302 0.50000000
-1.13788555 0.93354302 0.64285714
-1.13788555 0.93354302 0.78571429
-1.13788555 0.93354302 0.92857143
-1.06645698 0.93354302 1.00000000
-1.13788555 1.07640016 -0.92857143
-1.06645698 1.07640016 -1.00000000
-1.13788555 1.07640016 -0.78571429
-1.13788555 1.07640016 -0.64285714
-1.13788555 1.07640016 -0.50000000
-1.13788555 1.07640016 -0.35714286
-1.13788555 1.07640016 -0.21428571
-1.13788555 1.07640016 -0.07142857
-1.13788555 1.07640016 0.07142857
-1.13788555 1.07640016 0.21428571
-1.13788555 1.07640016 0.35714286
-1.13788555 1.07640016 0.50000000
-1.13788555 1.07640016 0.64285714
-1.13788555 1.07640016 0.78571429
-1.13788555 1.07640016 0.92857143
-1.06645698 1.07640016 1.00000000
-1.06645698 1.14782873 -0.92857143
-1.06645698 1.14782873 -0.78571429
-1.06645698 1.14782873 -0.64285714
-1.06645698 1.14782873 -0.50000000
-1.06645698 1.14782873 -0.35714286
-1.06645698 1.14782873 -0.21428571
-1.06645698 1.14782873 -0.07142857
-1.06645698 1.14782873 0.07142857
-1.06645698 1.14782873 0.21428571
-1.06645698 1.14782873 0.35714286
-1.06645698 1.14782873 0.50000000
-1.06645698 1.14782873 0.64285714
-1.06645698 1.14782873 0.78571429
-1.06645698 1.14782873 0.92857143
-0.92359984 -1.06645698 -1.00000000
-0.92359984 -1.13788555 -0.92857143
-0.92359984 -1.13788555 -0.78571429
-0.92359984 -1.13788555 -0.64285714
-0.92359984 -1.13788555 -0.50000000
-0.92359984 -1.13788555 -0.35714286
-0.92359984 -1.13788555 -0.21428571
-0.92359984 -1.13788555 -0.07142857
-0.92359984 -1.13788555 0.07142857
-0.92359984 -1.13788555 0.21428571
-0.92359984 -1.13788555 0.35714286
-0.92359984 -1.13788555 0.50000000
-0.92359984 -1.13788555 0.64285714
-0.92359984 -1.13788555 0.78571429
-0.99502841 -1.06645698 0.78571429
-0.92359984 -1.13788555 0.92857143
-0.99502841 -1.06645698 0.92857143
-0.92359984 -1.06645698 1.00000000
-0.92359984 -0.92359984 -1.00000000
-0.92359984 -0.92359984 1.00000000
-0.92359984 -0.78074269 -1.00000000
-0.92359984 -0.78074269 1.00000000
-0.92359984 -0.63788555 -1.00000000
-0.92359984 -0.63788555 1.00000000
-0.92359984 -0.49502841 -1.00000000
-0.92359984 -0.49502841 1.00000000
-0.92359984 -0.35217127 -1.00000000
-0.92359984 -0.35217127 1.00000000
-0.92359984 -0.20931412 -1.00000000
-0.92359984 -0.20931412 1.00000000
-0.92359984 -0.06645698 -1.00000000
-0.92359984 -0.06645698 1.00000000
-0.92359984 0.07640016 -1.00000000
-0.92359984 0.07640016 1.00000000
-0.92359984 0.21925731 -1.00000000
-0.92359984 0.21925731 1.00000000
-0.92359984 0.36211445 -1.00000000
-0.92359984 0.36211445 1.00000000
-0.92359984 0.50497159 -1.00000000
-0.92359984 0.50497159 1.00000000
-0.92359984 0.64782873 -1.00000000
-0.92359984 0.64782873 1.00000000
-0.92359984 0.79068588 -1.00000000
-0.92359984 0.79068588 1.00000000
-0.92359984 0.93354302 -1.00000000
-0.92359984 0.93354302 1.00000000
-0.92359984 1.07640016 -1.00000000
-0.92359984 1.07640016 1.00000000
-0.92359984 1.14782873 -0.92857143
-0.92359984 1.14782873 -0.78571429
-0.92359984 1.14782873 -0.64285714
-0.92359984 1.14782873 -0.50000000
-0.92359984 1.14782873 -0.35714286
-0.92359984 1.14782873 -0.21428571
-0.92359984 1.14782873 -0.07142857
-0.92359984 1.14782873 0.07142857
-0.92359984 1.14782873 0.21428571
-0.92359984 1.14782873 0.35714286
-0.92359984 1.14782873 0.50000000
-0.92359984 1.14782873 0.64285714
-0.92359984 1.14782873 0.78571429
-0.92359984 1.14782873 0.92857143
-0.78074269 -1.06645698 -1.00000000
-0.78074269 -1.13788555 -0.92857143
-0.78074269 -1.13788555 -0.78571429
-0.78074269 -1.13788555 -0.64285714
-0.78074269 -1.13788555 -0.50000000
-0.78074269 -1.13788555 -0.35714286
-0.78074269 -1.13788555 -0.21428571
-0.78074269 -1.13788555 -0.07142857
-0.78074269 -1.13788555 0.07142857
-0.78074269 -1.13788555 0.21428571
-0.78074269 -1.13788555 0.35714286
-0.78074269 -1.13788555 0.50000000
-0.78074269 -1.13788555 0.64285714
-0.78074269 -1.13788555 0.78571429
-0.78074269 -1.13788555 0.92857143
-0.78074269 -1.06645698 1.00000000
-0.78074269 -0.92359984 -1.00000000
-0.78074269 -0.92359984 1.00000000
-0.78074269 -0.78074269 -1.00000000
-0.78074269 -0.78074269 1.00000000
-0.78074269 -0.63788555 -1.00000000
-0.78074269 -0.63788555 1.00000000
-0.78074269 -0.49502841 -1.00000000
-0.78074269 -0.49502841 1.00000000
-0.78074269 -0.35217127 -1.00000000
-0.78074269 -0.35217127 1.00000000
-0.78074269 -0.20931412 -1.00000000
-0.78074269 -0.20931412 1.00000000
-0.78074269 -0.06645698 -1.00000000
-0.78074269 -0.06645698 1.00000000
-0.78074269 0.07640016 -1.00000000
-0.78074269 0.07640016 1.00000000
-0.78074269 0.21925731 -1.00000000
-0.78074269 0.21925731 1.00000000
-0.78074269 0.36211445 -1.00000000
-0.78074269 0.36211445 1.00000000
-0.78074269 0.50497159 -1.00000000
-0.78074269 0.50497159 1.00000000
-0.78074269 0.64782873 -1.00000000
-0.78074269 0.64782873 1.00000000
-0.78074269 0.79068588 -1.00000000
-0.78074269 0.79068588 1.00000000
-0.78074269 0.93354302 -1.00000000
-0.78074269 0.93354302 1.00000000
-0.78074269 1.07640016 -1.00000000
-0.78074269 1.07640016 1.00000000
-0.78074269 1.14782873 -0.92857143
-0.78074269 1.14782873 -0.78571429
-0.78074269 1.14782873 -0.64285714
-0.78074269 1.14782873 -0.50000000
-0.78074269 1.14782873 -0.35714286
-0.78074269 1.14782873 -0.21428571
-0.78074269 1.14782873 -0.07142857
-0.78074269 1.14782873 0.07142857
-0.78074269 1.14782873 0.21428571
-0.78074269 1.14782873 0.35714286
-0.78074269 1.14782873 0.50000000
-0.78074269 1.14782873 0.64285714
-0.78074269 1.14782873 0.78571429
-0.78074269 1.14782873 0.92857143
-0.63788555 -1.06645698 -1.00000000
-0.63788555 -1.13788555 -0.92857143
-0.63788555 -1.13788555 -0.78571429
-0.63788555 -1.13788555 -0.64285714
-0.63788555 -1.13788555 -0.50000000
-0.63788555 -1.13788555 -0.35714286
-0.63788555 -1.13788555 -0.21428571
-0.63788555 -1.13788555 -0.07142857
-0.63788555 -1.13788555 0.07142857
-0.63788555 -1.13788555 0.21428571
-0.63788555 -1.13788555 0.35714286
-0.63788555 -1.13788555 0.50000000
-0.63788555 -1.13788555 0.64285714
-0.63788555 -1.13788555 0.78571429
-0.63788555 -1.13788555 0.92857143
-0.63788555 -1.06645698 1.00000000
-0.63788555 -0.92359984 -1.00000000
-0.63788555 -0.92359984 1.00000000
-0.63788555 -0.78074269 -1.00000000
-0.63788555 -0.78074269 1.00000000
-0.63788555 -0.63788555 -1.00000000
-0.63788555 -0.63788555 1.00000000
-0.63788555 -0.49502841 -1.00000000
-0.63788555 -0.49502841 1.00000000
-0.63788555 -0.35217127 -1.00000000
-0.63788555 -0.35217127 1.00000000
-0.63788555 -0.20931412 -1.00000000
-0.63788555 -0.20931412 1.00000000
-0.63788555 -0.06645698 -1.00000000
-0.63788555 -0.06645698 1.00000000
-0.63788555 0.07640016 -1.00000000
-0.63788555 0.07640016 1.00000000
-0.63788555 0.21925731 -1.00000000
-0.63788555 0.21925731 1.00000000
-0.63788555 0.36211445 -1.00000000
-0.63788555 0.36211445 1.00000000
-0.63788555 0.50497159 -1.00000000
-0.63788555 0.50497159 1.00000000
-0.63788555 0.64782873 -1.00000000
-0.63788555 0.64782873 1.00000000
-0.63788555 0.79068588 -1.00000000
-0.63788555 0.79068588 1.00000000
-0.63788555 0.93354302 -1.00000000
-0.63788555 0.93354302 1.00000000
-0.63788555 1.07640016 -1.00000000
-0.63788555 1.07640016 1.00000000
-0.63788555 1.14782873 -0.92857143
-0.63788555 1.14782873 -0.78571429
-0.63788555 1.14782873 -0.64285714
-0.63788555 1.14782873 -0.50000000
-0.63788555 1.14782873 -0.35714286
-0.63788555 1.14782873 -0.21428571
-0.63788555 1.14782873 -0.07142857
-0.63788555 1.14782873 0.07142857
-0.63788555 1.14782873 0.21428571
-0.63788555 1.14782873 0.35714286
-0.63788555 1.14782873 0.50000000
-0.63788555 1.14782873 0.64285714
-0.63788555 1.14782873 0.78571429
-0.63788555 1.14782873 0.92857143
-0.49502841 -1.06645698 -1.00000000
-0.49502841 -1.13788555 -0.92857143
-0.49502841 -1.13788555 -0.78571429
-0.49502841 -1.13788555 -0.64285714
-0.49502841 -1.13788555 -0.50000000
-0.49502841 -1.13788555 -0.35714286
-0.49502841 -1.13788555 -0.21428571
-0.49502841 -1.13788555 -0.07142857
-0.49502841 -1.13788555 0.07142857
-0.49502841 -1.13788555 0.21428571
-0.49502841 -1.13788555 0.35714286
-0.49502841 -1.13788555 0.50000000
-0.49502841 -1.13788555 0.64285714
-0.49502841 -1.13788555 0.78571429
-0.49502841 -1.13788555 0.92857143
-0.49502841 -1.06645698 1.00000000
-0.49502841 -0.92359984 -1.00000000
-0.49502841 -0.92359984 1.00000000
-0.49502841 -0.78074269 -1.00000000
-0.49502841 -0.78074269 1.00000000
-0.49502841 -0.63788555 -1.00000000
-0.49502841 -0.63788555 1.00000000
-0.49502841 -0.49502841 -1.00000000
-0.49502841 -0.49502841 1.00000000
-0.49502841 -0.35217127 -1.00000000
-0.49502841 -0.35217127 1.00000000
-0.49502841 -0.20931412 -1.00000000
-0.49502841 -0.20931412 1.00000000
-0.49502841 -0.06645698 -1.00000000
-0.49502841 -0.06645698 1.00000000
-0.49502841 0.07640016 -1.00000000
-0.49502841 0.07640016 1.00000000
-0.49502841 0.21925731 -1.00000000
-0.49502841 0.21925731 1.00000000
-0.49502841 0.36211445 -1.00000000
-0.49502841 0.36211445 1.00000000
-0.49502841 0.50497159 -1.00000000
-0.49502841 0.50497159 1.00000000
-0.49502841 0.64782873 -1.00000000
-0.49502841 0.64782873 1.00000000
-0.49502841 0.79068588 -1.00000000
-0.49502841 0.79068588 1.00000000
-0.49502841 0.93354302 -1.00000000
-0.49502841 0.93354302 1.00000000
-0.49502841 1.07640016 -1.00000000
-0.49502841 1.07640016 1.00000000
-0.49502841 1.14782873 -0.92857143
-0.49502841 1.14782873 -0.78571429
-0.49502841 1.14782873 -0.64285714
-0.49502841 1.14782873 -0.50000000
-0.49502841 1.14782873 -0.35714286
-0.49502841 1.14782873 -0.21428571
-0.49502841 1.14782873 -0.07142857
-0.49502841 1.14782873 0.07142857
-0.49502841 1.14782873 0.21428571
-0.49502841 1.14782873 0.35714286
-0.49502841 1.14782873 0.50000000
-0.49502841 1.14782873 0.64285714
-0.49502841 1.14782873 0.78571429
-0.49502841 1.14782873 0.92857143
-0.35217127 -1.06645698 -1.00000000
-0.35217127 -1.13788555 -0.92857143
-0.35217127 -1.13788555 -0.78571429
-0.35217127 -1.13788555 -0.64285714
-0.35217127 -1.13788555 -0.50000000
-0.35217127 -1.13788555 -0.35714286
-0.35217127 -1.13788555 -0.21428571
-0.35217127 -1.13788555 -0.07142857
-0.35217127 -1.13788555 0.07142857
-0.35217127 -1.13788555 0.21428571
-0.35217127 -1.13788555 0.35714286
-0.35217127 -1.13788555 0.50000000
-0.35217127 -1.13788555 0.64285714
-0.35217127 -1.13788555 0.78571429
-0.35217127 -1.13788555 0.92857143
-0.35217127 -1.06645698 1.00000000
-0.35217127 -0.92359984 -1.00000000
-0.35217127 -0.92359984 1.00000000
-0.35217127 -0.78074269 -1.00000000
-0.35217127 -0.78074269 1.00000000
-0.35217127 -0.63788555 -1.00000000
-0.35217127 -0.63788555 1.00000000
-0.35217127 -0.49502841 -1.00000000
-0.35217127 -0.49502841 1.00000000
-0.35217127 -0.35217127 -1.00000000
-0.35217127 -0.35217127 1.00000000
-0.35217127 -0.20931412 -1.00000000
-0.35217127 -0.20931412 1.00000000
-0.35217127 -0.06645698 -1.00000000
-0.35217127 -0.06645698 1.00000000
-0.35217127 0.07640016 -1.00000000
-0.35217127 0.07640016 1.00000000
-0.35217127 0.21925731 -1.00000000
-0.35217127 0.21925731 1.00000000
-0.35217127 0.36211445 -1.00000000
-0.35217127 0.36211445 1.00000000
-0.35217127 0.50497159 -1.00000000
-0.35217127 0.50497159 1.00000000
-0.35217127 0.64782873 -1.00000000
-0.35217127 0.64782873 1.00000000
-0.35217127 0.79068588 -1.00000000
-0.35217127 0.79068588 1.00000000
-0.35217127 0.93354302 -1.00000000
-0.35217127 0.93354302 1.00000000
-0.35217127 1.07640016 -1.00000000
-0.35217127 1.07640016 1.00000000
-0.35217127 1.14782873 -0.92857143
-0.35217127 1.14782873 -0.78571429
-0.35217127 1.14782873 -0.64285714
-0.35217127 1.14782873 -0.50000000
-0.35217127 1.14782873 -0.35714286
-0.35217127 1.14782873 -0.21428571
-0.35217127 1.14782873 -0.07142857
-0.35217127 1.14782873 0.07142857
-0.35217127 1.14782873 0.21428571
-0.35217127 1.14782873 0.35714286
-0.35217127 1.14782873 0.50000000
-0.35217127 1.14782873 0.64285714
-0.35217127 1.14782873 0.78571429
-0.35217127 1.14782873 0.92857143
-0.20931412 -1.06645698 -1.00000000
-0.20931412 -1.13788555 -0.92857143
-0.20931412 -1.13788555 -0.78571429
-0.20931412 -1.13788555 -0.64285714
-0.20931412 -1.13788555 -0.50000000
-0.20931412 -1.13788555 -0.35714286
-0.20931412 -1.13788555 -0.21428571
-0.20931412 -1.13788555 -0.07142857
-0.20931412 -1.13788555 0.07142857
-0.20931412 -1.13788555 0.21428571
-0.20931412 -1.13788555 0.35714286
-0.20931412 -1.13788555 0.50000000
-0.20931412 -1.13788555 0.64285714
-0.20931412 -1.13788555 0.78571429
-0.20931412 -1.13788555 0.92857143
-0.20931412 -1.06645698 1.00000000
-0.20931412 -0.92359984 -1.00000000
-0.20931412 -0.92359984 1.00000000
-0.20931412 -0.78074269 -1.00000000
-0.20931412 -0.78074269 1.00000000
-0.20931412 -0.63788555 -1.00000000
-0.20931412 -0.63788555 1.00000000
-0.20931412 -0.49502841 -1.00000000
-0.20931412 -0.49502841 1.00000000
-0.20931412 -0.35217127 -1.00000000
-0.20931412 -0.35217127 1.00000000
-0.20931412 -0.20931412 -1.00000000
-0.20931412 -0.20931412 1.00000000
-0.20931412 -0.06645698 -1.00000000
-0.20931412 -0.06645698 1.00000000
-0.20931412 0.07640016 -1.00000000
-0.20931412 0.07640016 1.00000000
-0.20931412 0.21925731 -1.00000000
-0.20931412 0.21925731 1.00000000
-0.20931412 0.36211445 -1.00000000
-0.20931412 0.36211445 1.00000000
-0.20931412 0.50497159 -1.00000000
-0.20931412 0.50497159 1.00000000
-0.20931412 0.64782873 -1.00000000
-0.20931412 0.64782873 1.00000000
-0.20931412 0.79068588 -1.00000000
-0.20931412 0.79068588 1.00000000
-0.20931412 0.93354302 -1.00000000
-0.20931412 0.93354302 1.00000000
-0.20931412 1.07640016 -1.00000000
-0.20931412 1.07640016 1.00000000
-0.20931412 1.14782873 -0.92857143
-0.20931412 1.14782873 -0.78571429
-0.20931412 1.14782873 -0.64285714
-0.20931412 1.14782873 -0.50000000
-0.20931412 1.14782873 -0.35714286
-0.20931412 1.14782873 -0.21428571
-0.20931412 1.14782873 -0.07142857
-0.20931412 1.14782873 0.07142857
-0.20931412 1.14782873 0.21428571
-0.20931412 1.14782873 0.35714286
-0.20931412 1.14782873 0.50000000
-0.20931412 1.14782873 0.64285714
-0.20931412 1.14782873 0.78571429
-0.20931412 1.14782873 0.92857143
-0.06645698 -1.06645698 -1.00000000
-0.06645698 -1.13788555 -0.92857143
-0.06645698 -1.13788555 -0.78571429
-0.06645698 -1.13788555 -0.64285714
-0.06645698 -1.13788555 -0.50000000
-0.06645698 -1.13788555 -0.35714286
-0.06645698 -1.13788555 -0.21428571
-0.06645698 -1.13788555 -0.07142857
-0.06645698 -1.13788555 0.07142857
-0.06645698 -1.13788555 0.21428571
-0.06645698 -1.13788555 0.35714286
-0.06645698 -1.13788555 0.50000000
-0.06645698 -1.13788555 0.64285714
-0.06645698 -1.13788555 0.78571429
-0.06645698 -1.13788555 0.92857143
-0.06645698 -1.06645698 1.00000000
-0.06645698 -0.92359984 -1.00000000
-0.06645698 -0.92359984 1.00000000
-0.06645698 -0.78074269 -1.00000000
-0.06645698 -0.78074269 1.00000000
-0.06645698 -0.63788555 -1.00000000
-0.06645698 -0.63788555 1.00000000
-0.06645698 -0.49502841 -1.00000000
-0.06645698 -0.49502841 1.00000000
-0.06645698 -0.35217127 -1.00000000
-0.06645698 -0.35217127 1.00000000
-0.06645698 -0.20931412 -1.00000000
-0.06645698 -0.20931412 1.00000000
-0.06645698 -0.06645698 -1.00000000
-0.06645698 -0.06645698 1.00000000
-0.06645698 0.07640016 -1.00000000
-0.06645698 0.07640016 1.00000000
-0.06645698 0.21925731 -1.00000000
-0.06645698 0.21925731 1.00000000
-0.06645698 0.36211445 -1.00000000
-0.06645698 0.36211445 1.00000000
-0.06645698 0.50497159 -1.00000000
-0.06645698 0.50497159 1.00000000
-0.06645698 0.64782873 -1.00000000
-0.06645698 0.64782873 1.00000000
-0.06645698 0.79068588 -1.00000000
-0.06645698 0.79068588 1.00000000
-0.06645698 0.93354302 -1.00000000
-0.06645698 0.93354302 1.00000000
-0.06645698 1.07640016 -1.00000000
-0.06645698 1.07640016 1.00000000
-0.06645698 1.14782873 -0.92857143
-0.06645698 1.14782873 -0.78571429
-0.06645698 1.14782873 -0.64285714
-0.06645698 1.14782873 -0.50000000
-0.06645698 1.14782873 -0.35714286
-0.06645698 1.14782873 -0.21428571
-0.06645698 1.14782873 -0.07142857
-0.06645698 1.14782873 0.07142857
-0.06645698 1.14782873 0.21428571
-0.06645698 1.14782873 0.35714286
-0.06645698 1.14782873 0.50000000
-0.06645698 1.14782873 0.64285714
-0.06645698 1.14782873 0.78571429
-0.06645698 1.14782873 0.92857143
0.07640016 -1.06645698 -1.00000000
0.07640016 -1.13788555 -0.92857143
0.07640016 -1.13788555 -0.78571429
0.07640016 -1.13788555 -0.64285714
0.07640016 -1.13788555 -0.50000000
0.07640016 -1.13788555 -0.35714286
0.07640016 -1.13788555 -0.21428571
0.07640016 -1.13788555 -0.07142857
0.07640016 -1.13788555 0.07142857
0.07640016 -1.13788555 0.21428571
0.07640016 -1.13788555 0.35714286
0.07640016 -1.13788555 0.50000000
0.07640016 -1.13788555 0.64285714
0.07640016 -1.13788555 0.78571429
0.07640016 -1.13788555 0.92857143
0.07640016 -1.06645698 1.00000000
0.07640016 -0.92359984 -1.00000000
0.07640016 -0.92359984 1.00000000
0.07640016 -0.78074269 -1.00000000
0.07640016 -0.78074269 1.00000000
0.07640016 -0.63788555 -1.00000000
0.07640016 -0.63788555 1.00000000
0.07640016 -0.49502841 -1.00000000
0.07640016 -0.49502841 1.00000000
0.07640016 -0.35217127 -1.00000000
0.07640016 -0.35217127 1.00000000
0.07640016 -0.20931412 -1.00000000
0.07640016 -0.20931412 1.00000000
0.07640016 -0.06645698 -1.00000000
0.07640016 -0.06645698 1.00000000
0.07640016 0.07640016 -1.00000000
0.07640016 0.07640016 1.00000000
0.07640016 0.21925731 -1.00000000
0.07640016 0.21925731 1.00000000
0.07640016 0.36211445 -1.00000000
0.07640016 0.36211445 1.00000000
0.07640016 0.50497159 -1.00000000
0.07640016 0.50497159 1.00000000
0.07640016 0.64782873 -1.00000000
0.07640016 0.64782873 1.00000000
0.07640016 0.79068588 -1.00000000
0.07640016 0.79068588 1.00000000
0.07640016 0.93354302 -1.00000000
0.07640016 0.93354302 1.00000000
0.07640016 1.07640016 -1.00000000
0.07640016 1.07640016 1.00000000
0.07640016 1.14782873 -0.92857143
0.07640016 1.14782873 -0.78571429
0.07640016 1.14782873 -0.64285714
0.07640016 1.14782873 -0.50000000
0.07640016 1.14782873 -0.35714286
0.07640016 1.14782873 -0.21428571
0.07640016 1.14782873 -0.07142857
0.07640016 1.14782873 0.07142857
0.07640016 1.14782873 0.21428571
0.07640016 1.14782873 0.35714286
0.07640016 1.14782873 0.50000000
0.07640016 1.14782873 0.64285714
0.07640016 1.14782873 0.78571429
0.07640016 1.14782873 0.92857143
0.21925731 -1.06645698 -1.00000000
0.21925731 -1.13788555 -0.92857143
0.21925731 -1.13788555 -0.78571429
0.21925731 -1.13788555 -0.64285714
0.21925731 -1.13788555 -0.50000000
0.21925731 -1.13788555 -0.35714286
0.21925731 -1.13788555 -0.21428571
0.21925731 -1.13788555 -0.07142857
0.21925731 -1.13788555 0.07142857
0.21925731 -1.13788555 0.21428571
0.21925731 -1.13788555 0.35714286
0.21925731 -1.13788555 0.50000000
0.21925731 -1.13788555 0.64285714
0.21925731 -1.13788555 0.78571429
0.21925731 -1.13788555 0.92857143
0.21925731 -1.06645698 1.00000000
0.21925731 -0.92359984 -1.00000000
0.21925731 -0.92359984 1.00000000
0.21925731 -0.78074269 -1.00000000
0.21925731 -0.78074269 1.00000000
0.21925731 -0.63788555 -1.00000000
0.21925731 -0.63788555 1.00000000
0.21925731 -0.49502841 -1.00000000
0.21925731 -0.49502841 1.00000000
0.21925731 -0.35217127 -1.00000000
0.21925731 -0.35217127 1.00000000
0.21925731 -0.20931412 -1.00000000
0.21925731 -0.20931412 1.00000000
0.21925731 -0.06645698 -1.00000000
0.21925731 -0.06645698 1.00000000
0.21925731 0.07640016 -1.00000000
0.21925731 0.07640016 1.00000000
0.21925731 0.21925731 -1.00000000
0.21925731 0.21925731 1.00000000
0.21925731 0.36211445 -1.00000000
0.21925731 0.36211445 1.00000000
0.21925731 0.50497159 -1.00000000
0.21925731 0.50497159 1.00000000
0.21925731 0.64782873 -1.00000000
0.21925731 0.64782873 1.00000000
0.21925731 0.79068588 -1.00000000
0.21925731 0.79068588 1.00000000
0.21925731 0.93354302 -1.00000000
0.21925731 0.93354302 1.00000000
0.21925731 1.07640016 -1.00000000
0.14782873 1.07640016 0.92857143
0.21925731 1.00497159 0.92857143
0.21925731 1.07640016 0.85714286
0.21925731 1.14782873 -0.92857143
0.21925731 1.14782873 -0.78571429
0.21925731 1.14782873 -0.64285714
0.21925731 1.14782873 -0.50000000
0.21925731 1.14782873 -0.35714286
0.21925731 1.14782873 -0.21428571
0.21925731 1.14782873 -0.07142857
0.21925731 1.14782873 0.07142857
0.21925731 1.14782873 0.21428571
0.21925731 1.14782873 0.35714286
0.21925731 1.14782873 0.50000000
0.21925731 1.14782873 0.64285714
0.21925731 1.14782873 0.78571429
0.36211445 -1.06645698 -1.00000000
0.36211445 -1.13788555 -0.92857143
0.36211445 -1.13788555 -0.78571429
0.36211445 -1.13788555 -0.64285714
0.36211445 -1.13788555 -0.50000000
0.36211445 -1.13788555 -0.35714286
0.36211445 -1.13788555 -0.21428571
0.36211445 -1.13788555 -0.07142857
0.36211445 -1.13788555 0.07142857
0.36211445 -1.13788555 0.21428571
0.36211445 -1.13788555 0.35714286
0.36211445 -1.13788555 0.50000000
0.36211445 -1.13788555 0.64285714
0.36211445 -1.13788555 0.78571429
0.36211445 -1.13788555 0.92857143
0.36211445 -1.06645698 1.00000000
0.36211445 -0.92359984 -1.00000000
0.36211445 -0.92359984 1.00000000
0.36211445 -0.78074269 -1.00000000
0.36211445 -0.78074269 1.00000000
0.36211445 -0.63788555 -1.00000000
0.36211445 -0.63788555 1.00000000
0.36211445 -0.49502841 -1.00000000
0.36211445 -0.49502841 1.00000000
0.36211445 -0.35217127 -1.00000000
0.36211445 -0.35217127 1.00000000
0.36211445 -0.20931412 -1.00000000
0.36211445 -0.20931412 1.00000000
0.36211445 -0.06645698 -1.00000000
0.36211445 -0.06645698 1.00000000
0.36211445 0.07640016 -1.00000000
0.36211445 0.07640016 1.00000000
0.36211445 0.21925731 -1.00000000
0.36211445 0.21925731 1.00000000
0.36211445 0.36211445 -1.00000000
0.36211445 0.36211445 1.00000000
0.36211445 0.50497159 -1.00000000
0.36211445 0.50497159 1.00000000
0.36211445 0.64782873 -1.00000000
0.36211445 0.64782873 1.00000000
0.36211445 0.79068588 -1.00000000
0.36211445 0.79068588 1.00000000
0.36211445 0.93354302 -1.00000000
0.36211445 0.93354302 1.00000000
0.36211445 1.07640016 -1.00000000
0.29068588 1.07640016 0.78571429
0.36211445 1.00497159 0.78571429
0.36211445 1.07640016 0.71428571
0.36211445 1.00497159 0.92857143
0.36211445 1.14782873 -0.92857143
0.36211445 1.14782873 -0.78571429
0.36211445 1.14782873 -0.64285714
0.36211445 1.14782873 -0.50000000
0.36211445 1.14782873 -0.35714286
0.36211445 1.14782873 -0.21428571
0.36211445 1.14782873 -0.07142857
0.36211445 1.14782873 0.07142857
0.36211445 1.14782873 0.21428571
0.36211445 1.14782873 0.35714286
0.36211445 1.14782873 0.50000000
0.36211445 1.14782873 0.64285714
0.50497159 -1.06645698 -1.00000000
0.50497159 -1.13788555 -0.92857143
0.50497159 -1.13788555 -0.78571429
0.50497159 -1.13788555 -0.64285714
0.50497159 -1.13788555 -0.50000000
0.50497159 -1.13788555 -0.35714286
0.50497159 -1.13788555 -0.21428571
0.50497159 -1.13788555 -0.07142857
0.50497159 -1.13788555 0.07142857
0.50497159 -1.13788555 0.21428571
0.50497159 -1.13788555 0.35714286
0.50497159 -1.13788555 0.50000000
0.50497159 -1.13788555 0.64285714
0.50497159 -1.13788555 0.78571429
0.50497159 -1.13788555 0.92857143
0.50497159 -1.06645698 1.00000000
0.50497159 -0.92359984 -1.00000000
0.50497159 -0.92359984 1.00000000
0.50497159 -0.78074269 -1.00000000
0.50497159 -0.78074269 1.00000000
0.50497159 -0.63788555 -1.00000000
0.50497159 -0.63788555 1.00000000
0.50497159 -0.49502841 -1.00000000
0.50497159 -0.49502841 1.00000000
0.50497159 -0.35217127 -1.00000000
0.50497159 -0.35217127 1.00000000
0.50497159 -0.20931412 -1.00000000
0.50497159 -0.20931412 1.00000000
0.50497159 -0.06645698 -1.00000000
0.50497159 -0.06645698 1.00000000
0.50497159 0.07640016 -1.00000000
0.50497159 0.07640016 1.00000000
0.50497159 0.21925731 -1.00000000
0.50497159 0.21925731 1.00000000
0.50497159 0.36211445 -1.00000000
0.50497159 0.36211445 1.00000000
0.50497159 0.50497159 -1.00000000
0.50497159 0.50497159 1.00000000
0.50497159 0.64782873 -1.00000000
0.50497159 0.64782873 1.00000000
0.50497159 0.79068588 -1.00000000
0.50497159 0.79068588 1.00000000
0.50497159 0.93354302 -1.00000000
0.43354302 0.93354302 0.92857143
0.50497159 0.86211445 0.92857143
0.50497159 0.93354302 0.85714286
0.50497159 1.07640016 -1.00000000
0.50497159 1.00497159 0.78571429
0.50497159 1.07640016 0.71428571
0.50497159 1.14782873 -0.92857143
0.50497159 1.14782873 -0.78571429
0.50497159 1.14782873 -0.64285714
0.50497159 1.14782873 -0.50000000
0.50497159 1.14782873 -0.35714286
0.50497159 1.14782873 -0.21428571
0.50497159 1.14782873 -0.07142857
0.50497159 1.14782873 0.07142857
0.50497159 1.14782873 0.21428571
0.50497159 1.14782873 0.35714286
0.50497159 1.14782873 0.50000000
0.50497159 1.14782873 0.64285714
0.64782873 -1.06645698 -1.00000000
0.64782873 -1.13788555 -0.92857143
0.64782873 -1.13788555 -0.78571429
0.64782873 -1.13788555 -0.64285714
0.64782873 -1.13788555 -0.50000000
0.64782873 -1.13788555 -0.35714286
0.64782873 -1.13788555 -0.21428571
0.64782873 -1.13788555 -0.07142857
0.64782873 -1.13788555 0.07142857
0.64782873 -1.13788555 0.21428571
0.64782873 -1.13788555 0.35714286
0.64782873 -1.13788555 0.50000000
0.64782873 -1.13788555 0.64285714
0.64782873 -1.13788555 0.78571429
0.64782873 -1.13788555 0.92857143
0.64782873 -1.06645698 1.00000000
0.64782873 -0.92359984 -1.00000000
0.64782873 -0.92359984 1.00000000
0.64782873 -0.78074269 -1.00000000
0.64782873 -0.78074269 1.00000000
0.64782873 -0.63788555 -1.00000000
0.64782873 -0.63788555 1.00000000
0.64782873 -0.49502841 -1.00000000
0.64782873 -0.49502841 1.00000000
0.64782873 -0.35217127 -1.00000000
0.64782873 -0.35217127 1.00000000
0.64782873 -0.20931412 -1.00000000
0.64782873 -0.20931412 1.00000000
0.64782873 -0.06645698 -1.00000000
0.64782873 -0.06645698 1.00000000
0.64782873 0.07640016 -1.00000000
0.64782873 0.07640016 1.00000000
0.64782873 0.21925731 -1.00000000
0.64782873 0.21925731 1.00000000
0.64782873 0.36211445 -1.00000000
0.64782873 0.36211445 1.00000000
0.64782873 0.50497159 -1.00000000
0.64782873 0.50497159 1.00000000
0.64782873 0.64782873 -1.00000000
0.64782873 0.64782873 1.00000000
0.64782873 0.79068588 -1.00000000
0.57640016 0.79068588 0.92857143
0.64782873 0.71925731 0.92857143
0.64782873 0.79068588 0.85714286
0.64782873 0.93354302 -1.00000000
0.57640016 0.93354302 0.78571429
0.64782873 0.86211445 0.78571429
0.64782873 0.93354302 0.71428571
0.64782873 1.07640016 -1.00000000
0.57640016 1.07640016 0.64285714
0.64782873 1.00497159 0.64285714
0.64782873 1.07640016 0.57142857
0.64782873 1.14782873 -0.92857143
0.64782873 1.14782873 -0.78571429
0.64782873 1.14782873 -0.64285714
0.64782873 1.14782873 -0.50000000
0.64782873 1.14782873 -0.35714286
0.64782873 1.14782873 -0.21428571
0.64782873 1.14782873 -0.07142857
0.64782873 1.14782873 0.07142857
0.64782873 1.14782873 0.21428571
0.64782873 1.14782873 0.35714286
0.64782873 1.14782873 0.50000000
0.79068588 -1.06645698 -1.00000000
0.79068588 -1.13788555 -0.92857143
0.79068588 -1.13788555 -0.78571429
0.79068588 -1.13788555 -0.64285714
0.79068588 -1.13788555 -0.50000000
0.79068588 -1.13788555 -0.35714286
0.79068588 -1.13788555 -0.21428571
0.79068588 -1.13788555 -0.07142857
0.79068588 -1.13788555 0.07142857
0.79068588 -1.13788555 0.21428571
0.79068588 -1.13788555 0.35714286
0.79068588 -1.13788555 0.50000000
0.79068588 -1.13788555 0.64285714
0.79068588 -1.13788555 0.78571429
0.79068588 -1.13788555 0.92857143
0.79068588 -1.06645698 1.00000000
0.79068588 -0.92359984 -1.00000000
0.79068588 -0.92359984 1.00000000
0.79068588 -0.78074269 -1.00000000
0.79068588 -0.78074269 1.00000000
0.79068588 -0.63788555 -1.00000000
0.79068588 -0.63788555 1.00000000
0.79068588 -0.49502841 -1.00000000
0.79068588 -0.49502841 1.00000000
0.79068588 -0.35217127 -1.00000000
0.79068588 -0.35217127 1.00000000
0.79068588 -0.20931412 -1.00000000
0.79068588 -0.20931412 1.00000000
0.79068588 -0.06645698 -1.00000000
0.79068588 -0.06645698 1.00000000
0.79068588 0.07640016 -1.00000000
0.79068588 0.07640016 1.00000000
0.79068588 0.21925731 -1.00000000
0.79068588 0.21925731 1.00000000
0.79068588 0.36211445 -1.00000000
0.79068588 0.36211445 1.00000000
0.79068588 0.50497159 -1.00000000
0.79068588 0.50497159 1.00000000
0.79068588 0.64782873 -1.00000000
0.79068588 0.64782873 1.00000000
0.79068588 0.79068588 -1.00000000
0.71925731 0.79068588 0.78571429
0.79068588 0.71925731 0.78571429
0.79068588 0.79068588 0.71428571
0.79068588 0.71925731 0.92857143
0.79068588 0.93354302 -1.00000000
0.71925731 0.93354302 0.64285714
0.79068588 0.86211445 0.64285714
0.79068588 0.93354302 0.57142857
0.79068588 1.07640016 -1.00000000
0.71925731 1.07640016 0.50000000
0.79068588 1.00497159 0.50000000
0.79068588 1.07640016 0.42857143
0.79068588 1.14782873 -0.92857143
0.79068588 1.14782873 -0.78571429
0.79068588 1.14782873 -0.64285714
0.79068588 1.14782873 -0.50000000
0.79068588 1.14782873 -0.35714286
0.79068588 1.14782873 -0.21428571
0.79068588 1.14782873 -0.07142857
0.79068588 1.14782873 0.07142857
0.79068588 1.14782873 0.21428571
0.79068588 1.14782873 0.35714286
0.93354302 -1.06645698 -1.00000000
0.93354302 -1.13788555 -0.92857143
0.93354302 -1.13788555 -0.78571429
0.93354302 -1.13788555 -0.64285714
0.93354302 -1.13788555 -0.50000000
0.93354302 -1.13788555 -0.35714286
0.93354302 -1.13788555 -0.21428571
0.93354302 -1.13788555 -0.07142857
0.93354302 -1.13788555 0.07142857
0.93354302 -1.13788555 0.21428571
0.93354302 -1.13788555 0.35714286
0.93354302 -1.13788555 0.50000000
0.93354302 -1.13788555 0.64285714
0.93354302 -1.13788555 0.78571429
0.93354302 -1.13788555 0.92857143
0.93354302 -1.06645698 1.00000000
0.93354302 -0.92359984 -1.00000000
0.93354302 -0.92359984 1.00000000
0.93354302 -0.78074269 -1.00000000
0.93354302 -0.78074269 1.00000000
0.93354302 -0.63788555 -1.00000000
0.93354302 -0.63788555 1.00000000
0.93354302 -0.49502841 -1.00000000
0.93354302 -0.49502841 1.00000000
0.93354302 -0.35217127 -1.00000000
0.93354302 -0.35217127 1.00000000
0.93354302 -0.20931412 -1.00000000
0.93354302 -0.20931412 1.00000000
0.93354302 -0.06645698 -1.00000000
0.93354302 -0.06645698 1.00000000
0.93354302 0.07640016 -1.00000000
0.93354302 0.07640016 1.00000000
0.93354302 0.21925731 -1.00000000
0.93354302 0.21925731 1.00000000
0.93354302 0.36211445 -1.00000000
0.93354302 0.36211445 1.00000000
0.93354302 0.50497159 -1.00000000
0.93354302 0.50497159 1.00000000
0.93354302 0.64782873 -1.00000000
0.86211445 0.64782873 0.92857143
0.93354302 0.57640016 0.92857143
0.93354302 0.64782873 0.85714286
0.93354302 0.79068588 -1.00000000
0.86211445 0.79068588 0.64285714
0.93354302 0.71925731 0.64285714
0.93354302 0.79068588 0.57142857
0.93354302 0.71925731 0.78571429
0.93354302 0.93354302 -1.00000000
0.86211445 0.93354302 0.50000000
0.93354302 0.86211445 0.50000000
0.93354302 0.93354302 0.42857143
0.93354302 1.07640016 -1.00000000
0.86211445 1.07640016 0.35714286
0.93354302 1.00497159 0.35714286
0.93354302 1.07640016 0.28571429
0.93354302 1.14782873 -0.92857143
0.93354302 1.14782873 -0.78571429
0.93354302 1.14782873 -0.64285714
0.93354302 1.14782873 -0.50000000
0.93354302 1.14782873 -0.35714286
0.93354302 1.14782873 -0.21428571
0.93354302 1.14782873 -0.07142857
0.93354302 1.14782873 0.07142857
0.93354302 1.14782873 0.21428571
1.07640016 -1.06645698 -1.00000000
1.07640016 -1.13788555 -0.92857143
1.07640016 -1.13788555 -0.78571429
1.07640016 -1.13788555 -0.64285714
1.07640016 -1.13788555 -0.50000000
1.07640016 -1.13788555 -0.35714286
1.07640016 -1.13788555 -0.21428571
1.07640016 -1.13788555 -0.07142857
1.07640016 -1.13788555 0.07142857
1.07640016 -1.13788555 0.21428571
1.07640016 -1.13788555 0.35714286
1.07640016 -1.13788555 0.50000000
1.07640016 -1.13788555 0.64285714
1.07640016 -1.13788555 0.78571429
1.07640016 -1.13788555 0.92857143
1.07640016 -1.06645698 1.00000000
1.07640016 -0.92359984 -1.00000000
1.07640016 -0.92359984 1.00000000
1.07640016 -0.78074269 -1.00000000
1.07640016 -0.78074269 1.00000000
1.07640016 -0.63788555 -1.00000000
1.07640016 -0.63788555 1.00000000
1.07640016 -0.49502841 -1.00000000
1.07640016 -0.49502841 1.00000000
1.07640016 -0.35217127 -1.00000000
1.07640016 -0.35217127 1.00000000
1.07640016 -0.20931412 -1.00000000
1.07640016 -0.20931412 1.00000000
1.07640016 -0.06645698 -1.00000000
1.07640016 -0.06645698 1.00000000
1.07640016 0.07640016 -1.00000000
1.07640016 0.07640016 1.00000000
1.07640016 0.21925731 -1.00000000
1.07640016 0.21925731 1.00000000
1.07640016 0.36211445 -1.00000000
1.07640016 0.36211445 1.00000000
1.07640016 0.50497159 -1.00000000
1.00497159 0.50497159 0.92857143
1.07640016 0.43354302 0.92857143
1.07640016 0.50497159 0.85714286
1.07640016 0.64782873 -1.00000000
1.00497159 0.64782873 0.78571429
1.07640016 0.57640016 0.78571429
1.07640016 0.64782873 0.71428571
1.07640016 0.79068588 -1.00000000
1.07640016 0.71925731 0.64285714
1.07640016 0.79068588 0.57142857
1.07640016 0.93354302 -1.00000000
1.00497159 0.93354302 0.35714286
1.07640016 0.86211445 0.35714286
1.07640016 0.93354302 0.28571429
1.07640016 0.86211445 0.50000000
1.07640016 1.07640016 -1.00000000
1.00497159 1.07640016 0.21428571
1.07640016 1.00497159 0.21428571
1.07640016 1.07640016 0.14285714
1.07640016 1.14782873 -0.92857143
1.07640016 1.14782873 -0.78571429
1.07640016 1.14782873 -0.64285714
1.07640016 1.14782873 -0.50000000
1.07640016 1.14782873 -0.35714286
1.07640016 1.14782873 -0.21428571
1.07640016 1.14782873 -0.07142857
1.07640016 1.14782873 0.07142857
1.14782873 -1.06645698 -0.92857143
1.14782873 -1.06645698 -0.78571429
1.14782873 -1.06645698 -0.64285714
1.14782873 -1.06645698 -0.50000000
1.14782873 -1.06645698 -0.35714286
1.14782873 -1.06645698 -0.21428571
1.14782873 -1.06645698 -0.07142857
1.14782873 -1.06645698 0.07142857
1.14782873 -1.06645698 0.21428571
1.14782873 -1.06645698 0.35714286
1.14782873 -1.06645698 0.50000000
1.14782873 -1.06645698 0.64285714
1.14782873 -1.06645698 0.78571429
1.14782873 -1.06645698 0.92857143
1.14782873 -0.92359984 -0.92857143
1.14782873 -0.92359984 -0.78571429
1.14782873 -0.92359984 -0.64285714
1.14782873 -0.92359984 -0.50000000
1.14782873 -0.92359984 -0.35714286
1.14782873 -0.92359984 -0.21428571
1.14782873 -0.92359984 -0.07142857
1.14782873 -0.92359984 0.07142857
1.14782873 -0.92359984 0.21428571
1.14782873 -0.92359984 0.35714286
1.14782873 -0.92359984 0.50000000
1.14782873 -0.92359984 0.64285714
1.14782873 -0.92359984 0.78571429
1.14782873 -0.92359984 0.92857143
1.14782873 -0.78074269 -0.92857143
1.14782873 -0.78074269 -0.78571429
1.14782873 -0.78074269 -0.64285714
1.14782873 -0.78074269 -0.50000000
1.14782873 -0.78074269 -0.35714286
1.14782873 -0.78074269 -0.21428571
1.14782873 -0.78074269 -0.07142857
1.14782873 -0.78074269 0.07142857
1.14782873 -0.78074269 0.21428571
1.14782873 -0.78074269 0.35714286
1.14782873 -0.78074269 0.50000000
1.14782873 -0.78074269 0.64285714
1.14782873 -0.78074269 0.78571429
1.14782873 -0.78074269 0.92857143
1.14782873 -0.63788555 -0.92857143
1.14782873 -0.63788555 -0.78571429
1.14782873 -0.63788555 -0.64285714
1.14782873 -0.63788555 -0.50000000
1.14782873 -0.63788555 -0.35714286
1.14782873 -0.63788555 -0.21428571
1.14782873 -0.63788555 -0.07142857
1.14782873 -0.63788555 0.07142857
1.14782873 -0.63788555 0.21428571
1.14782873 -0.63788555 0.35714286
1.14782873 -0.63788555 0.50000000
1.14782873 -0.63788555 0.64285714
1.14782873 -0.63788555 0.78571429
1.14782873 -0.63788555 0.92857143
1.14782873 -0.49502841 -0.92857143
1.14782873 -0.49502841 -0.78571429
1.14782873 -0.49502841 -0.64285714
1.14782873 -0.49502841 -0.50000000
1.14782873 -0.49502841 -0.35714286
1.14782873 -0.49502841 -0.21428571
1.14782873 -0.49502841 -0.07142857
1.14782873 -0.49502841 0.07142857
1.14782873 -0.49502841 0.21428571
1.14782873 -0.49502841 0.35714286
1.14782873 -0.49502841 0.50000000
1.14782873 -0.49502841 0.64285714
1.14782873 -0.49502841 0.78571429
1.14782873 -0.49502841 0.92857143
1.14782873 -0.35217127 -0.92857143
1.14782873 -0.35217127 -0.78571429
1.14782873 -0.35217127 -0.64285714
1.14782873 -0.35217127 -0.50000000
1.14782873 -0.35217127 -0.35714286
1.14782873 -0.35217127 -0.21428571
1.14782873 -0.35217127 -0.07142857
1.14782873 -0.35217127 0.07142857
1.14782873 -0.35217127 0.21428571
1.14782873 -0.35217127 0.35714286
1.14782873 -0.35217127 0.50000000
1.14782873 -0.35217127 0.64285714
1.14782873 -0.35217127 0.78571429
1.14782873 -0.35217127 0.92857143
1.14782873 -0.20931412 -0.92857143
1.14782873 -0.20931412 -0.78571429
1.14782873 -0.20931412 -0.64285714
1.14782873 -0.20931412 -0.50000000
1.14782873 -0.20931412 -0.35714286
1.14782873 -0.20931412 -0.21428571
1.14782873 -0.20931412 -0.07142857
1.14782873 -0.20931412 0.07142857
1.14782873 -0.20931412 0.21428571
1.14782873 -0.20931412 0.35714286
1.14782873 -0.20931412 0.50000000
1.14782873 -0.20931412 0.64285714
1.14782873 -0.20931412 0.78571429
1.14782873 -0.20931412 0.92857143
1.14782873 -0.06645698 -0.92857143
1.14782873 -0.06645698 -0.78571429
1.14782873 -0.06645698 -0.64285714
1.14782873 -0.06645698 -0.50000000
1.14782873 -0.06645698 -0.35714286
1.14782873 -0.06645698 -0.21428571
1.14782873 -0.06645698 -0.07142857
1.14782873 -0.06645698 0.07142857
1.14782873 -0.06645698 0.21428571
1.14782873 -0.06645698 0.35714286
1.14782873 -0.06645698 0.50000000
1.14782873 -0.06645698 0.64285714
1.14782873 -0.06645698 0.78571429
1.14782873 -0.06645698 0.92857143
1.14782873 0.07640016 -0.92857143
1.14782873 0.07640016 -0.78571429
1.14782873 0.07640016 -0.64285714
1.14782873 0.07640016 -0.50000000
1.14782873 0.07640016 -0.35714286
1.14782873 0.07640016 -0.21428571
1.14782873 0.07640016 -0.07142857
1.14782873 0.07640016 0.07142857
1.14782873 0.07640016 0.21428571
1.14782873 0.07640016 0.35714286
1.14782873 0.07640016 0.50000000
1.14782873 0.07640016 0.64285714
1.14782873 0.07640016 0.78571429
1.14782873 0.07640016 0.92857143
1.14782873 0.21925731 -0.92857143
1.14782873 0.21925731 -0.78571429
1.14782873 0.21925731 -0.64285714
1.14782873 0.21925731 -0.50000000
1.14782873 0.21925731 -0.35714286
1.14782873 0.21925731 -0.21428571
1.14782873 0.21925731 -0.07142857
1.14782873 0.21925731 0.07142857
1.14782873 0.21925731 0.21428571
1.14782873 0.21925731 0.35714286
1.14782873 0.21925731 0.50000000
1.14782873 0.21925731 0.64285714
1.14782873 0.21925731 0.78571429
1.14782873 0.21925731 0.92857143
1.14782873 0.36211445 -0.92857143
1.14782873 0.36211445 -0.78571429
1.14782873 0.36211445 -0.64285714
1.14782873 0.36211445 -0.50000000
1.14782873 0.36211445 -0.35714286
1.14782873 0.36211445 -0.21428571
1.14782873 0.36211445 -0.07142857
1.14782873 0.36211445 0.07142857
1.14782873 0.36211445 0.21428571
1.14782873 0.36211445 0.35714286
1.14782873 0.36211445 0.50000000
1.14782873 0.36211445 0.64285714
1.14782873 0.36211445 0.78571429
1.14782873 0.36211445 0.92857143
1.14782873 0.50497159 -0.92857143
1.14782873 0.50497159 -0.78571429
1.14782873 0.50497159 -0.64285714
1.14782873 0.50497159 -0.50000000
1.14782873 0.50497159 -0.35714286
1.14782873 0.50497159 -0.21428571
1.14782873 0.50497159 -0.07142857
1.14782873 0.50497159 0.07142857
1.14782873 0.50497159 0.21428571
1.14782873 0.50497159 0.35714286
1.14782873 0.50497159 0.50000000
1.14782873 0.50497159 0.64285714
1.14782873 0.50497159 0.78571429
1.14782873 0.64782873 -0.92857143
1.14782873 0.64782873 -0.78571429
1.14782873 0.64782873 -0.64285714
1.14782873 0.64782873 -0.50000000
1.14782873 0.64782873 -0.35714286
1.14782873 0.64782873 -0.21428571
1.14782873 0.64782873 -0.07142857
1.14782873 0.64782873 0.07142857
1.14782873 0.64782873 0.21428571
1.14782873 0.64782873 0.35714286
1.14782873 0.64782873 0.50000000
1.14782873 0.64782873 0.64285714
1.14782873 0.79068588 -0.92857143
1.14782873 0.79068588 -0.78571429
1.14782873 0.79068588 -0.64285714
1.14782873 0.79068588 -0.50000000
1.14782873 0.79068588 -0.35714286
1.14782873 0.79068588 -0.21428571
1.14782873 0.79068588 -0.07142857
1.14782873 0.79068588 0.07142857
1.14782873 0.79068588 0.21428571
1.14782873 0.79068588 0.35714286
1.14782873 0.79068588 0.50000000
1.14782873 0.93354302 -0.92857143
1.14782873 0.93354302 -0.78571429
1.14782873 0.93354302 -0.64285714
1.14782873 0.93354302 -0.50000000
1.14782873 0.93354302 -0.35714286
1.14782873 0.93354302 -0.21428571
1.14782873 0.93354302 -0.07142857
1.14782873 0.93354302 0.07142857
1.14782873 0.93354302 0.21428571
1.14782873 1.07640016 -0.92857143
1.14782873 1.07640016 -0.78571429
1.14782873 1.07640016 -0.64285714
1.14782873 1.07640016 -0.50000000
1.14782873 1.07640016 -0.35714286
1.14782873 1.07640016 -0.21428571
1.14782873 1.07640016 -0.07142857
1.14782873 1.07640016 0.07142857
3 2 1 0
3 4 3 0
3 0 3 2
3 6 5 4
3 4 5 3
3 8 7 6
3 6 7 5
3 10 9 8
3 8 9 7
3 12 11 10
3 10 11 9
3 14 13 12
3 12 13 11
3 16 15 14
3 14 15 13
3 18 17 16
3 16 17 15
3 20 19 18
3 18 19 17
3 22 21 20
3 20 21 19
3 24 23 22
3 22 23 21
3 24 25 23
3 0 1 26
3 26 1 27
3 0 28 4
3 0 26 28
3 4 29 6
3 4 28 29
3 6 30 8
3 6 29 30
3 8 31 10
3 8 30 31
3 10 32 12
3 10 31 32
3 12 33 14
3 12 32 33
3 14 34 16
3 14 33 34
3 16 35 18
3 16 34 35
3 18 36 20
3 18 35 36
3 20 37 22
3 20 36 37
3 22 38 24
3 22 37 38
3 25 24 39
3 24 40 39
3 24 38 40
3 42 41 40
3 40 41 39
3 42 43 41
3 26 27 44
3 44 27 45
3 26 46 28
3 26 44 46
3 28 47 29
3 28 46 47
3 29 48 30
3 29 47 48
3 30 49 31
3 30 48 49
3 31 50 32
3 31 49 50
3 32 51 33
3 32 50 51
3 33 52 34
3 33 51 52
3 34 53 35
3 34 52 53
3 35 54 36
3 35 53 54
3 36 55 37
3 36 54 55
3 37 56 38
3 37 55 56
3 38 57 40
3 38 56 57
3 40 58 42
3 40 57 58
3 43 42 59
3 59 42 58
3 44 45 60
3 60 45 61
3 44 62 46
3 44 60 62
3 46 63 47
3 46 62 63
3 47 64 48
3 47 63 64
3 48 65 49
3 48 64 65
3 49 66 50
3 49 65 66
3 50 67 51
3 50 66 67
3 51 68 52
3 51 67 68
3 52 69 53
3 52 68 69
3 53 70 54
3 53 69 70
3 54 71 55
3 54 70 71
3 55 72 56
3 55 71 72
3 56 73 57
3 56 72 73
3 57 74 58
3 57 73 74
3 59 58 75
3 75 58 74
3 60 61 76
3 76 61 77
3 60 78 62
3 60 76 78
3 62 79 63
3 62 78 79
3 63 80 64
3 63 79 80
3 64 81 65
3 64 80 81
3 65 82 66
3 65 81 82
3 66 83 67
3 66 82 83
3 67 84 68
3 67 83 84
3 68 85 69
3 68 84 85
3 69 86 70
3 69 85 86
3 70 87 71
3 70 86 87
3 71 88 72
3 71 87 88
3 72 89 73
3 72 88 89
3 73 90 74
3 73 89 90
3 75 74 91
3 91 74 90
3 76 77 92
3 92 77 93
3 76 94 78
3 76 92 94
3 78 95 79
3 78 94 95
3 79 96 80
3 79 95 96
3 80 97 81
3 80 96 97
3 81 98 82
3 81 97 98
3 82 99 83
3 82 98 99
3 83 100 84
3 83 99 100
3 84 101 85
3 84 100 101
3 85 102 86
3 85 101 102
3 86 103 87
3 86 102 103
3 87 104 88
3 87 103 104
3 88 105 89
3 88 104 105
3 89 106 90
3 89 105 106
3 91 90 107
3 107 90 106
3 92 93 108
3 108 93 109
3 92 110 94
3 92 108 110
3 94 111 95
3 94 110 111
3 95 112 96
3 95 111 112
3 96 113 97
3 96 112 113
3 97 114 98
3 97 113 114
3 98 115 99
3 98 114 115
3 99 116 100
3 99 115 116
3 100 117 101
3 100 116 117
3 101 118 102
3 101 117 118
3 102 119 103
3 102 118 119
3 103 120 104
3 103 119 120
3 104 121 105
3 104 120 121
3 105 122 106
3 105 121 122
3 107 106 123
3 123 106 122
3 108 109 124
3 124 109 125
3 108 126 110
3 108 124 126
3 110 127 111
3 110 126 127
3 111 128 112
3 111 127 128
3 112 129 113
3 112 128 129
3 113 130 114
3 113 129 130
3 114 131 115
3 114 130 131
3 115 132 116
3 115 131 132
3 116 133 117
3 116 132 133
3 117 134 118
3 117 133 134
3 118 135 119
3 118 134 135
3 119 136 120
3 119 135 136
3 120 137 121
3 120 136 137
3 121 138 122
3 121 137 138
3 123 122 139
3 139 122 138
3 124 125 140
3 140 125 141
3 124 142 126
3 124 140 142
3 126 143 127
3 126 142 143
3 127 144 128
3 127 143 144
3 128 145 129
3 128 144 145
3 129 146 130
3 129 145 146
3 130 147 131
3 130 146 147
3 131 148 132
3 131 147 148
3 132 149 133
3 132 148 149
3 133 150 134
3 133 149 150
3 134 151 135
3 134 150 151
3 135 152 136
3 135 151 152
3 136 153 137
3 136 152 153
3 137 154 138
3 137 153 154
3 139 138 155
3 155 138 154
3 140 141 156
3 156 141 157
3 140 158 142
3 140 156 158
3 142 159 143
3 142 158 159
3 143 160 144
3 143 159 160
3 144 161 145
3 144 160 161
3 145 162 146
3 145 161 162
3 146 163 147
3 146 162 163
3 147 164 148
3 147 163 164
3 148 165 149
3 148 164 165
3 149 166 150
3 149 165 166
3 150 167 151
3 150 166 167
3 151 168 152
3 151 167 168
3 152 169 153
3 152 168 169
3 153 170 154
3 153 169 170
3 155 154 171
3 171 154 170
3 156 157 172
3 172 157 173
3 156 174 158
3 156 172 174
3 158 175 159
3 158 174 175
3 159 176 160
3 159 175 176
3 160 177 161
3 160 176 177
3 161 178 162
3 161 177 178
3 162 179 163
3 162 178 179
3 163 180 164
3 163 179 180
3 164 181 165
3 164 180 181
3 165 182 166
3 165 181 182
3 166 183 167
3 166 182 183
3 167 184 168
3 167 183 184
3 168 185 169
3 168 184 185
3 169 186 170
3 169 185 186
3 171 170 187
3 187 170 186
3 172 173 188
3 188 173 189
3 172 190 174
3 172 188 190
3 174 191 175
3 174 190 191
3 175 192 176
3 175 191 192
3 176 193 177
3 176 192 193
3 177 194 178
3 177 193 194
3 178 195 179
3 178 194 195
3 179 196 180
3 179 195 196
3 180 197 181
3 180 196 197
3 181 198 182
3 181 197 198
3 182 199 183
3 182 198 199
3 183 200 184
3 183 199 200
3 184 201 185
3 184 200 201
3 185 202 186
3 185 201 202
3 187 186 203
3 203 186 202
3 188 189 204
3 204 189 205
3 188 206 190
3 188 204 206
3 190 207 191
3 190 206 207
3 191 208 192
3 191 207 208
3 192 209 193
3 192 208 209
3 193 210 194
3 193 209 210
3 194 211 195
3 194 210 211
3 195 212 196
3 195 211 212
3 196 213 197
3 196 212 213
3 197 214 198
3 197 213 214
3 198 215 199
3 198 214 215
3 199 216 200
3 199 215 216
3 200 217 201
3 200 216 217
3 201 218 202
3 201 217 218
3 203 202 219
3 219 202 218
3 204 205 220
3 220 205 221
3 204 222 206
3 204 220 222
3 206 223 207
3 206 222 223
3 207 224 208
3 207 223 224
3 208 225 209
3 208 224 225
3 209 226 210
3 209 225 226
3 210 227 211
3 210 226 227
3 211 228 212
3 211 227 228
3 212 229 213
3 212 228 229
3 213 230 214
3 213 229 230
3 214 231 215
3 214 230 231
3 215 232 216
3 215 231 232
3 216 233 217
3 216 232 233
3 217 234 218
3 217 233 234
3 219 218 235
3 235 218 234
3 220 221 236
3 236 221 237
3 220 238 222
3 220 236 238
3 222 239 223
3 222 238 239
3 223 240 224
3 223 239 240
3 224 241 225
3 224 240 241
3 225 242 226
3 225 241 242
3 226 243 227
3 226 242 243
3 227 244 228
3 227 243 244
3 228 245 229
3 228 244 245
3 229 246 230
3 229 245 246
3 230 247 231
3 230 246 247
3 231 248 232
3 231 247 248
3 232 249 233
3 232 248 249
3 233 250 234
3 233 249 250
3 235 234 251
3 251 234 250
3 236 237 252
3 252 237 253
3 236 254 238
3 236 252 254
3 238 255 239
3 238 254 255
3 239 256 240
3 239 255 256
3 240 257 241
3 240 256 257
3 241 258 242
3 241 257 258
3 242 259 243
3 242 258 259
3 243 260 244
3 243 259 260
3 244 261 245
3 244 260 261
3 245 262 246
3 245 261 262
3 246 263 247
3 246 262 263
3 247 264 248
3 247 263 264
3 248 265 249
3 248 264 265
3 249 266 250
3 249 265 266
3 251 250 267
3 267 250 266
3 253 268 252
3 252 268 254
3 254 268 269
3 254 269 255
3 255 269 270
3 255 270 256
3 256 270 271
3 256 271 257
3 257 271 272
3 257 272 258
3 258 272 273
3 258 273 259
3 259 273 274
3 259 274 260
3 260 274 275
3 260 275 261
3 261 275 276
3 261 276 262
3 262 276 277
3 262 277 263
3 263 277 278
3 263 278 264
3 264 278 279
3 264 279 265
3 265 279 280
3 265 280 266
3 266 280 281
3 266 281 267
3 283 282 2
3 2 282 1
3 284 2 3
3 284 283 2
3 285 3 5
3 285 284 3
3 286 5 7
3 286 285 5
3 287 7 9
3 287 286 7
3 288 9 11
3 288 287 9
3 289 11 13
3 289 288 11
3 290 13 15
3 290 289 13
3 291 15 17
3 291 290 15
3 292 17 19
3 292 291 17
3 293 19 21
3 293 292 19
3 294 21 23
3 294 293 21
3 296 295 25
3 295 23 25
3 295 294 23
3 298 297 296
3 296 297 295
3 298 299 297
3 282 27 1
3 300 27 282
3 39 296 25
3 296 39 41
3 296 41 298
3 41 43 298
3 43 299 298
3 43 301 299
3 300 45 27
3 302 45 300
3 59 301 43
3 59 303 301
3 302 61 45
3 304 61 302
3 75 303 59
3 75 305 303
3 304 77 61
3 306 77 304
3 91 305 75
3 91 307 305
3 306 93 77
3 308 93 306
3 107 307 91
3 107 309 307
3 308 109 93
3 310 109 308
3 123 309 107
3 123 311 309
3 310 125 109
3 312 125 310
3 139 311 123
3 139 313 311
3 312 141 125
3 314 141 312
3 155 313 139
3 155 315 313
3 314 157 141
3 316 157 314
3 171 315 155
3 171 317 315
3 316 173 157
3 318 173 316
3 187 317 171
3 187 319 317
3 318 189 173
3 320 189 318
3 203 319 187
3 203 321 319
3 320 205 189
3 322 205 320
3 219 321 203
3 219 323 321
3 322 221 205
3 324 221 322
3 235 323 219
3 235 325 323
3 324 237 221
3 326 237 324
3 251 325 235
3 251 327 325
3 326 253 237
3 328 253 326
3 267 327 251
3 267 329 327
3 328 330 253
3 253 330 268
3 268 331 269
3 330 331 268
3 269 332 270
3 331 332 269
3 270 333 271
3 332 333 270
3 271 334 272
3 333 334 271
3 272 335 273
3 334 335 272
3 273 336 274
3 335 336 273
3 274 337 275
3 336 337 274
3 275 338 276
3 337 338 275
3 276 339 277
3 338 339 276
3 277 340 278
3 339 340 277
3 278 341 279
3 340 341 278
3 279 342 280
3 341 342 279
3 280 343 281
3 342 343 280
3 267 281 329
3 329 281 343
3 345 344 283
3 283 344 282
3 346 283 284
3 346 345 283
3 347 284 285
3 347 346 284
3 348 285 286
3 348 347 285
3 349 286 287
3 349 348 286
3 350 287 288
3 350 349 287
3 351 288 289
3 351 350 288
3 352 289 290
3 352 351 289
3 353 290 291
3 353 352 290
3 354 291 292
3 354 353 291
3 355 292 293
3 355 354 292
3 356 293 294
3 356 355 293
3 357 294 295
3 357 356 294
3 358 295 297
3 358 357 295
3 297 299 358
3 358 299 359
3 344 300 282
3 360 300 344
3 301 359 299
3 301 361 359
3 360 302 300
3 362 302 360
3 303 361 301
3 303 363 361
3 362 304 302
3 364 304 362
3 305 363 303
3 305 365 363
3 364 306 304
3 366 306 364
3 307 365 305
3 307 367 365
3 366 308 306
3 368 308 366
3 309 367 307
3 309 369 367
3 368 310 308
3 370 310 368
3 311 369 309
3 311 371 369
3 370 312 310
3 372 312 370
3 313 371 311
3 313 373 371
3 372 314 312
3 374 314 372
3 315 373 313
3 315 375 373
3 374 316 314
3 376 316 374
3 317 375 315
3 317 377 375
3 376 318 316
3 378 318 376
3 319 377 317
3 319 379 377
3 378 320 318
3 380 320 378
3 321 379 319
3 321 381 379
3 380 322 320
3 382 322 380
3 323 381 321
3 323 383 381
3 382 324 322
3 384 324 382
3 325 383 323
3 325 385 383
3 384 326 324
3 386 326 384
3 327 385 325
3 327 387 385
3 386 328 326
3 388 328 386
3 329 387 327
3 329 389 387
3 388 390 328
3 328 390 330
3 330 391 331
3 390 391 330
3 331 392 332
3 391 392 331
3 332 393 333
3 392 393 332
3 333 394 334
3 393 394 333
3 334 395 335
3 394 395 334
3 335 396 336
3 395 396 335
3 336 397 337
3 396 397 336
3 337 398 338
3 397 398 337
3 338 399 339
3 398 399 338
3 339 400 340
3 399 400 339
3 340 401 341
3 400 401 340
3 341 402 342
3 401 402 341
3 342 403 343
3 402 403 342
3 329 343 389
3 389 343 403
3 405 404 345
3 345 404 344
3 406 345 346
3 406 405 345
3 407 346 347
3 407 406 346
3 408 347 348
3 408 407 347
3 409 348 349
3 409 408 348
3 410 349 350
3 410 409 349
3 411 350 351
3 411 410 350
3 412 351 352
3 412 411 351
3 413 352 353
3 413 412 352
3 414 353 354
3 414 413 353
3 415 354 355
3 415 414 354
3 416 355 356
3 416 415 355
3 417 356 357
3 417 416 356
3 418 357 358
3 418 417 357
3 358 359 418
3 418 359 419
3 404 360 344
3 420 360 404
3 361 419 359
3 361 421 419
3 420 362 360
3 422 362 420
3 363 421 361
3 363 423 421
3 422 364 362
3 424 364 422
3 365 423 363
3 365 425 423
3 424 366 364
3 426 366 424
3 367 425 365
3 367 427 425
3 426 368 366
3 428 368 426
3 369 427 367
3 369 429 427
3 428 370 368
3 430 370 428
3 371 429 369
3 371 431 429
3 430 372 370
3 432 372 430
3 373 431 371
3 373 433 431
3 432 374 372
3 434 374 432
3 375 433 373
3 375 435 433
3 434 376 374
3 436 376 434
3 377 435 375
3 377 437 435
3 436 378 376
3 438 378 436
3 379 437 377
3 379 439 437
3 438 380 378
3 440 380 438
3 381 439 379
3 381 441 439
3 440 382 380
3 442 382 440
3 383 441 381
3 383 443 441
3 442 384 382
3 444 384 442
3 385 443 383
3 385 445 443
3 444 386 384
3 446 386 444
3 387 445 385
3 387 447 445
3 446 388 386
3 448 388 446
3 389 447 387
3 389 449 447
3 448 450 388
3 388 450 390
3 390 451 391
3 450 451 390
3 391 452 392
3 451 452 391
3 392 453 393
3 452 453 392
3 393 454 394
3 453 454 393
3 394 455 395
3 454 455 394
3 395 456 396
3 455 456 395
3 396 457 397
3 456 457 396
3 397 458 398
3 457 458 397
3 398 459 399
3 458 459 398
3 399 460 400
3 459 460 399
3 400 461 401
3 460 461 400
3 401 462 402
3 461 462 401
3 402 463 403
3 462 463 402
3 389 403 449
3 449 403 463
3 465 464 405
3 405 464 404
3 466 405 406
3 466 465 405
3 467 406 407
3 467 466 406
3 468 407 408
3 468 467 407
3 469 408 409
3 469 468 408
3 470 409 410
3 470 469 409
3 471 410 411
3 471 470 410
3 472 411 412
3 472 471 411
3 473 412 413
3 473 472 412
3 474 413 414
3 474 473 413
3 475 414 415
3 475 474 414
3 476 415 416
3 476 475 415
3 477 416 417
3 477 476 416
3 478 417 418
3 478 477 417
3 418 419 478
3 478 419 479
3 464 420 404
3 480 420 464
3 421 479 419
3 421 481 479
3 480 422 420
3 482 422 480
3 423 481 421
3 423 483 481
3 482 424 422
3 484 424 482
3 425 483 423
3 425 485 483
3 484 426 424
3 486 426 484
3 427 485 425
3 427 487 485
3 486 428 426
3 488 428 486
3 429 487 427
3 429 489 487
3 488 430 428
3 490 430 488
3 431 489 429
3 431 491 489
3 490 432 430
3 492 432 490
3 433 491 431
3 433 493 491
3 492 434 432
3 494 434 492
3 435 493 433
3 435 495 493
3 494 436 434
3 496 436 494
3 437 495 435
3 437 497 495
3 496 438 436
3 498 438 496
3 439 497 437
3 439 499 497
3 498 440 438
3 500 440 498
3 441 499 439
3 441 501 499
3 500 442 440
3 502 442 500
3 443 501 441
3 443 503 501
3 502 444 442
3 504 444 502
3 445 503 443
3 445 505 503
3 504 446 444
3 506 446 504
3 447 505 445
3 447 507 505
3 506 448 446
3 508 448 506
3 449 507 447
3 449 509 507
3 508 510 448
3 448 510 450
3 450 511 451
3 510 511 450
3 451 512 452
3 511 512 451
3 452 513 453
3 512 513 452
3 453 514 454
3 513 514 453
3 454 515 455
3 514 515 454
3 455 516 456
3 515 516 455
3 456 517 457
3 516 517 456
3 457 518 458
3 517 518 457
3 458 519 459
3 518 519 458
3 459 520 460
3 519 520 459
3 460 521 461
3 520 521 460
3 461 522 462
3 521 522 461
3 462 523 463
3 522 523 462
3 449 463 509
3 509 463 523
3 525 524 465
3 465 524 464
3 526 465 466
3 526 525 465
3 527 466 467
3 527 526 466
3 528 467 468
3 528 527 467
3 529 468 469
3 529 528 468
3 530 469 470
3 530 529 469
3 531 470 471
3 531 530 470
3 532 471 472
3 532 531 471
3 533 472 473
3 533 532 472
3 534 473 474
3 534 533 473
3 535 474 475
3 535 534 474
3 536 475 476
3 536 535 475
3 537 476 477
3 537 536 476
3 538 477 478
3 538 537 477
3 478 479 538
3 538 479 539
3 524 480 464
3 540 480 524
3 481 539 479
3 481 541 539
3 540 482 480
3 542 482 540
3 483 541 481
3 483 543 541
3 542 484 482
3 544 484 542
3 485 543 483
3 485 545 543
3 544 486 484
3 546 486 544
3 487 545 485
3 487 547 545
3 546 488 486
3 548 488 546
3 489 547 487
3 489 549 547
3 548 490 488
3 550 490 548
3 491 549 489
3 491 551 549
3 550 492 490
3 552 492 550
3 493 551 491
3 493 553 551
3 552 494 492
3 554 494 552
3 495 553 493
3 495 555 553
3 554 496 494
3 556 496 554
3 497 555 495
3 497 557 555
3 556 498 496
3 558 498 556
3 499 557 497
3 499 559 557
3 558 500 498
3 560 500 558
3 501 559 499
3 501 561 559
3 560 502 500
3 562 502 560
3 503 561 501
3 503 563 561
3 562 504 502
3 564 504 562
3 505 563 503
3 505 565 563
3 564 506 504
3 566 506 564
3 507 565 505
3 507 567 565
3 566 508 506
3 568 508 566
3 509 567 507
3 509 569 567
3 568 570 508
3 508 570 510
3 510 571 511
3 570 571 510
3 511 572 512
3 571 572 511
3 512 573 513
3 572 573 512
3 513 574 514
3 573 574 513
3 514 575 515
3 574 575 514
3 515 576 516
3 575 576 515
3 516 577 517
3 576 577 516
3 517 578 518
3 577 578 517
3 518 579 519
3 578 579 518
3 519 580 520
3 579 580 519
3 520 581 521
3 580 581 520
3 521 582 522
3 581 582 521
3 522 583 523
3 582 583 522
3 509 523 569
3 569 523 583
3 585 584 525
3 525 584 524
3 586 525 526
3 586 585 525
3 587 526 527
3 587 586 526
3 588 527 528
3 588 587 527
3 589 528 529
3 589 588 528
3 590 529 530
3 590 589 529
3 591 530 531
3 591 590 530
3 592 531 532
3 592 591 531
3 593 532 533
3 593 592 532
3 594 533 534
3 594 593 533
3 595 534 535
3 595 594 534
3 596 535 536
3 596 595 535
3 597 536 537
3 597 596 536
3 598 537 538
3 598 597 537
3 538 539 598
3 598 539 599
3 584 540 524
3 600 540 584
3 541 599 539
3 541 601 599
3 600 542 540
3 602 542 600
3 543 601 541
3 543 603 601
3 602 544 542
3 604 544 602
3 545 603 543
3 545 605 603
3 604 546 544
3 606 546 604
3 547 605 545
3 547 607 605
3 606 548 546
3 608 548 606
3 549 607 547
3 549 609 607
3 608 550 548
3 610 550 608
3 551 609 549
3 551 611 609
3 610 552 550
3 612 552 610
3 553 611 551
3 553 613 611
3 612 554 552
3 614 554 612
3 555 613 553
3 555 615 613
3 614 556 554
3 616 556 614
3 557 615 555
3 557 617 615
3 616 558 556
3 618 558 616
3 559 617 557
3 559 619 617
3 618 560 558
3 620 560 618
3 561 619 559
3 561 621 619
3 620 562 560
3 622 562 620
3 563 621 561
3 563 623 621
3 622 564 562
3 624 564 622
3 565 623 563
3 565 625 623
3 624 566 564
3 626 566 624
3 567 625 565
3 567 627 625
3 626 568 566
3 628 568 626
3 569 627 567
3 569 629 627
3 628 630 568
3 568 630 570
3 570 631 571
3 630 631 570
3 571 632 572
3 631 632 571
3 572 633 573
3 632 633 572
3 573 634 574
3 633 634 573
3 574 635 575
3 634 635 574
3 575 636 576
3 635 636 575
3 576 637 577
3 636 637 576
3 577 638 578
3 637 638 577
3 578 639 579
3 638 639 578
3 579 640 580
3 639 640 579
3 580 641 581
3 640 641 580
3 581 642 582
3 641 642 581
3 582 643 583
3 642 643 582
3 569 583 629
3 629 583 643
3 645 644 585
3 585 644 584
3 646 585 586
3 646 645 585
3 647 586 587
3 647 646 586
3 648 587 588
3 648 647 587
3 649 588 589
3 649 648 588
3 650 589 590
3 650 649 589
3 651 590 591
3 651 650 590
3 652 591 592
3 652 651 591
3 653 592 593
3 653 652 592
3 654 593 594
3 654 653 593
3 655 594 595
3 655 654 594
3 656 595 596
3 656 655 595
3 657 596 597
3 657 656 596
3 658 597 598
3 658 657 597
3 598 599 658
3 658 599 659
3 644 600 584
3 660 600 644
3 601 659 599
3 601 661 659
3 660 602 600
3 662 602 660
3 603 661 601
3 603 663 661
3 662 604 602
3 664 604 662
3 605 663 603
3 605 665 663
3 664 606 604
3 666 606 664
3 607 665 605
3 607 667 665
3 666 608 606
3 668 608 666
3 609 667 607
3 609 669 667
3 668 610 608
3 670 610 668
3 611 669 609
3 611 671 669
3 670 612 610
3 672 612 670
3 613 671 611
3 613 673 671
3 672 614 612
3 674 614 672
3 615 673 613
3 615 675 673
3 674 616 614
3 676 616 674
3 617 675 615
3 617 677 675
3 676 618 616
3 678 618 676
3 619 677 617
3 619 679 677
3 678 620 618
3 680 620 678
3 621 679 619
3 621 681 679
3 680 622 620
3 682 622 680
3 623 681 621
3 623 683 681
3 682 624 622
3 684 624 682
3 625 683 623
3 625 685 683
3 684 626 624
3 686 626 684
3 627 685 625
3 627 687 685
3 686 628 626
3 688 628 686
3 629 687 627
3 629 689 687
3 688 690 628
3 628 690 630
3 630 691 631
3 690 691 630
3 631 692 632
3 691 692 631
3 632 693 633
3 692 693 632
3 633 694 634
3 693 694 633
3 634 695 635
3 694 695 634
3 635 696 636
3 695 696 635
3 636 697 637
3 696 697 636
3 637 698 638
3 697 698 637
3 638 699 639
3 698 699 638
3 639 700 640
3 699 700 639
3 640 701 641
3 700 701 640
3 641 702 642
3 701 702 641
3 642 703 643
3 702 703 642
3 629 643 689
3 689 643 703
3 705 704 645
3 645 704 644
3 706 645 646
3 706 705 645
3 707 646 647
3 707 706 646
3 708 647 648
3 708 707 647
3 709 648 649
3 709 708 648
3 710 649 650
3 710 709 649
3 711 650 651
3 711 710 650
3 712 651 652
3 712 711 651
3 713 652 653
3 713 712 652
3 714 653 654
3 714 713 653
3 715 654 655
3 715 714 654
3 716 655 656
3 716 715 655
3 717 656 657
3 717 716 656
3 718 657 658
3 718 717 657
3 658 659 718
3 718 659 719
3 704 660 644
3 720 660 704
3 661 719 659
3 661 721 719
3 720 662 660
3 722 662 720
3 663 721 661
3 663 723 721
3 722 664 662
3 724 664 722
3 665 723 663
3 665 725 723
3 724 666 664
3 726 666 724
3 667 725 665
3 667 727 725
3 726 668 666
3 728 668 726
3 669 727 667
3 669 729 727
3 728 670 668
3 730 670 728
3 671 729 669
3 671 731 729
3 730 672 670
3 732 672 730
3 673 731 671
3 673 733 731
3 732 674 672
3 734 674 732
3 675 733 673
3 675 735 733
3 734 676 674
3 736 676 734
3 677 735 675
3 677 737 735
3 736 678 676
3 738 678 736
3 679 737 677
3 679 739 737
3 738 680 678
3 740 680 738
3 681 739 679
3 681 741 739
3 740 682 680
3 742 682 740
3 683 741 681
3 683 743 741
3 742 684 682
3 744 684 742
3 685 743 683
3 685 745 743
3 744 686 684
3 746 686 744
3 687 745 685
3 687 747 745
3 746 688 686
3 748 688 746
3 689 747 687
3 689 749 747
3 748 750 688
3 688 750 690
3 690 751 691
3 750 751 690
3 691 752 692
3 751 752 691
3 692 753 693
3 752 753 692
3 693 754 694
3 753 754 693
3 694 755 695
3 754 755 694
3 695 756 696
3 755 756 695
3 696 757 697
3 756 757 696
3 697 758 698
3 757 758 697
3 698 759 699
3 758 759 698
3 699 760 700
3 759 760 699
3 700 761 701
3 760 761 700
3 701 762 702
3 761 762 701
3 702 763 703
3 762 763 702
3 689 703 749
3 749 703 763
3 765 764 705
3 705 764 704
3 766 705 706
3 766 765 705
3 767 706 707
3 767 766 706
3 768 707 708
3 768 767 707
3 769 708 709
3 769 768 708
3 770 709 710
3 770 769 709
3 771 710 711
3 771 770 710
3 772 711 712
3 772 771 711
3 773 712 713
3 773 772 712
3 774 713 714
3 774 773 713
3 775 714 715
3 775 774 714
3 776 715 716
3 776 775 715
3 777 716 717
3 777 776 716
3 778 717 718
3 778 777 717
3 718 719 778
3 778 719 779
3 764 720 704
3 780 720 764
3 721 779 719
3 721 781 779
3 780 722 720
3 782 722 780
3 723 781 721
3 723 783 781
3 782 724 722
3 784 724 782
3 725 783 723
3 725 785 783
3 784 726 724
3 786 726 784
3 727 785 725
3 727 787 785
3 786 728 726
3 788 728 786
3 729 787 727
3 729 789 787
3 788 730 728
3 790 730 788
3 731 789 729
3 731 791 789
3 790 732 730
3 792 732 790
3 733 791 731
3 733 793 791
3 792 734 732
3 794 734 792
3 735 793 733
3 735 795 793
3 794 736 734
3 796 736 794
3 737 795 735
3 737 797 795
3 796 738 736
3 798 738 796
3 739 797 737
3 739 799 797
3 798 740 738
3 800 740 798
3 741 799 739
3 741 801 799
3 800 742 740
3 802 742 800
3 743 801 741
3 743 803 801
3 802 744 742
3 804 744 802
3 745 803 743
3 745 805 803
3 804 746 744
3 806 746 804
3 747 805 745
3 747 807 805
3 806 748 746
3 808 748 806
3 811 810 809
3 810 807 809
3 807 749 809
3 807 747 749
3 808 812 748
3 748 812 750
3 750 813 751
3 812 813 750
3 751 814 752
3 813 814 751
3 752 815 753
3 814 815 752
3 753 816 754
3 815 816 753
3 754 817 755
3 816 817 754
3 755 818 756
3 817 818 755
3 756 819 757
3 818 819 756
3 757 820 758
3 819 820 757
3 758 821 759
3 820 821 758
3 759 822 760
3 821 822 759
3 760 823 761
3 822 823 760
3 761 824 762
3 823 824 761
3 809 763 811
3 763 824 811
3 763 762 824
3 763 809 749
3 826 825 765
3 765 825 764
3 827 765 766
3 827 826 765
3 828 766 767
3 828 827 766
3 829 767 768
3 829 828 767
3 830 768 769
3 830 829 768
3 831 769 770
3 831 830 769
3 832 770 771
3 832 831 770
3 833 771 772
3 833 832 771
3 834 772 773
3 834 833 772
3 835 773 774
3 835 834 773
3 836 774 775
3 836 835 774
3 837 775 776
3 837 836 775
3 838 776 777
3 838 837 776
3 839 777 778
3 839 838 777
3 778 779 839
3 839 779 840
3 825 780 764
3 841 780 825
3 781 840 779
3 781 842 840
3 841 782 780
3 843 782 841
3 783 842 781
3 783 844 842
3 843 784 782
3 845 784 843
3 785 844 783
3 785 846 844
3 845 786 784
3 847 786 845
3 787 846 785
3 787 848 846
3 847 788 786
3 849 788 847
3 789 848 787
3 789 850 848
3 849 790 788
3 851 790 849
3 791 850 789
3 791 852 850
3 851 792 790
3 853 792 851
3 793 852 791
3 793 854 852
3 853 794 792
3 855 794 853
3 795 854 793
3 795 856 854
3 855 796 794
3 857 796 855
3 797 856 795
3 797 858 856
3 857 798 796
3 859 798 857
3 799 858 797
3 799 860 858
3 859 800 798
3 861 800 859
3 801 860 799
3 801 862 860
3 861 802 800
3 863 802 861
3 803 862 801
3 803 864 862
3 863 804 802
3 865 804 863
3 805 864 803
3 805 866 864
3 865 806 804
3 867 806 865
3 807 866 805
3 807 868 866
3 867 808 806
3 869 808 867
3 872 871 870
3 810 811 870
3 871 810 870
3 873 810 871
3 807 810 868
3 868 810 873
3 869 874 808
3 808 874 812
3 812 875 813
3 874 875 812
3 813 876 814
3 875 876 813
3 814 877 815
3 876 877 814
3 815 878 816
3 877 878 815
3 816 879 817
3 878 879 816
3 817 880 818
3 879 880 817
3 818 881 819
3 880 881 818
3 819 882 820
3 881 882 819
3 820 883 821
3 882 883 820
3 821 884 822
3 883 884 821
3 822 885 823
3 884 885 822
3 870 824 872
3 824 885 872
3 824 823 885
3 824 870 811
3 887 886 826
3 826 886 825
3 888 826 827
3 888 887 826
3 889 827 828
3 889 888 827
3 890 828 829
3 890 889 828
3 891 829 830
3 891 890 829
3 892 830 831
3 892 891 830
3 893 831 832
3 893 892 831
3 894 832 833
3 894 893 832
3 895 833 834
3 895 894 833
3 896 834 835
3 896 895 834
3 897 835 836
3 897 896 835
3 898 836 837
3 898 897 836
3 899 837 838
3 899 898 837
3 900 838 839
3 900 899 838
3 839 840 900
3 900 840 901
3 886 841 825
3 902 841 886
3 842 901 840
3 842 903 901
3 902 843 841
3 904 843 902
3 844 903 842
3 844 905 903
3 904 845 843
3 906 845 904
3 846 905 844
3 846 907 905
3 906 847 845
3 908 847 906
3 848 907 846
3 848 909 907
3 908 849 847
3 910 849 908
3 850 909 848
3 850 911 909
3 910 851 849
3 912 851 910
3 852 911 850
3 852 913 911
3 912 853 851
3 914 853 912
3 854 913 852
3 854 915 913
3 914 855 853
3 916 855 914
3 856 915 854
3 856 917 915
3 916 857 855
3 918 857 916
3 858 917 856
3 858 919 917
3 918 859 857
3 920 859 918
3 860 919 858
3 860 921 919
3 920 861 859
3 922 861 920
3 862 921 860
3 862 923 921
3 922 863 861
3 924 863 922
3 864 923 862
3 864 925 923
3 924 865 863
3 926 865 924
3 866 925 864
3 866 927 925
3 926 867 865
3 928 867 926
3 931 930 929
3 930 927 929
3 927 868 929
3 927 866 868
3 928 869 867
3 932 869 928
3 934 933 871
3 934 871 872
3 929 873 931
3 873 933 931
3 873 871 933
3 873 929 868
3 932 935 869
3 869 935 874
3 874 936 875
3 935 936 874
3 875 937 876
3 936 937 875
3 876 938 877
3 937 938 876
3 877 939 878
3 938 939 877
3 878 940 879
3 939 940 878
3 879 941 880
3 940 941 879
3 880 942 881
3 941 942 880
3 881 943 882
3 942 943 881
3 882 944 883
3 943 944 882
3 883 945 884
3 944 945 883
3 884 946 885
3 945 946 884
3 872 885 934
3 934 885 946
3 948 947 887
3 887 947 886
3 949 887 888
3 949 948 887
3 950 888 889
3 950 949 888
3 951 889 890
3 951 950 889
3 952 890 891
3 952 951 890
3 953 891 892
3 953 952 891
3 954 892 893
3 954 953 892
3 955 893 894
3 955 954 893
3 956 894 895
3 956 955 894
3 957 895 896
3 957 956 895
3 958 896 897
3 958 957 896
3 959 897 898
3 959 958 897
3 960 898 899
3 960 959 898
3 961 899 900
3 961 960 899
3 900 901 961
3 961 901 962
3 947 902 886
3 963 902 947
3 903 962 901
3 903 964 962
3 963 904 902
3 965 904 963
3 905 964 903
3 905 966 964
3 965 906 904
3 967 906 965
3 907 966 905
3 907 968 966
3 967 908 906
3 969 908 967
3 909 968 907
3 909 970 968
3 969 910 908
3 971 910 969
3 911 970 909
3 911 972 970
3 971 912 910
3 973 912 971
3 913 972 911
3 913 974 972
3 973 914 912
3 975 914 973
3 915 974 913
3 915 976 974
3 975 916 914
3 977 916 975
3 917 976 915
3 917 978 976
3 977 918 916
3 979 918 977
3 919 978 917
3 919 980 978
3 979 920 918
3 981 920 979
3 921 980 919
3 921 982 980
3 981 922 920
3 983 922 981
3 923 982 921
3 923 984 982
3 983 924 922
3 985 924 983
3 925 984 923
3 925 986 984
3 985 926 924
3 987 926 985
3 990 989 988
3 989 986 988
3 986 927 988
3 986 925 927
3 987 928 926
3 991 928 987
3 994 993 992
3 992 993 990
3 992 990 988
3 931 992 988
3 930 931 988
3 930 988 927
3 991 932 928
3 995 932 991
3 998 997 996
3 996 997 994
3 996 994 992
3 934 996 992
3 933 934 992
3 933 992 931
3 995 999 932
3 932 999 935
3 935 1000 936
3 999 1000 935
3 936 1001 937
3 1000 1001 936
3 937 1002 938
3 1001 1002 937
3 938 1003 939
3 1002 1003 938
3 939 1004 940
3 1003 1004 939
3 940 1005 941
3 1004 1005 940
3 941 1006 942
3 1005 1006 941
3 942 1007 943
3 1006 1007 942
3 943 1008 944
3 1007 1008 943
3 944 1009 945
3 1008 1009 944
3 996 946 998
3 946 1009 998
3 946 945 1009
3 946 996 934
3 1011 1010 948
3 948 1010 947
3 1012 948 949
3 1012 1011 948
3 1013 949 950
3 1013 1012 949
3 1014 950 951
3 1014 1013 950
3 1015 951 952
3 1015 1014 951
3 1016 952 953
3 1016 1015 952
3 1017 953 954
3 1017 1016 953
3 1018 954 955
3 1018 1017 954
3 1019 955 956
3 1019 1018 955
3 1020 956 957
3 1020 1019 956
3 1021 957 958
3 1021 1020 957
3 1022 958 959
3 1022 1021 958
3 1023 959 960
3 1023 1022 959
3 1024 960 961
3 1024 1023 960
3 961 962 1024
3 1024 962 1025
3 1010 963 947
3 1026 963 1010
3 964 1025 962
3 964 1027 1025
3 1026 965 963
3 1028 965 1026
3 966 1027 964
3 966 1029 1027
3 1028 967 965
3 1030 967 1028
3 968 1029 966
3 968 1031 1029
3 1030 969 967
3 1032 969 1030
3 970 1031 968
3 970 1033 1031
3 1032 971 969
3 1034 971 1032
3 972 1033 970
3 972 1035 1033
3 1034 973 971
3 1036 973 1034
3 974 1035 972
3 974 1037 1035
3 1036 975 973
3 1038 975 1036
3 976 1037 974
3 976 1039 1037
3 1038 977 975
3 1040 977 1038
3 978 1039 976
3 978 1041 1039
3 1040 979 977
3 1042 979 1040
3 980 1041 978
3 980 1043 1041
3 1042 981 979
3 1044 981 1042
3 982 1043 980
3 982 1045 1043
3 1044 983 981
3 1046 983 1044
3 984 1045 982
3 984 1047 1045
3 1046 985 983
3 1048 985 1046
3 986 1047 984
3 986 1049 1047
3 1048 987 985
3 1050 987 1048
3 1053 1052 1051
3 989 990 1051
3 1052 989 1051
3 1054 989 1052
3 986 989 1049
3 1049 989 1054
3 1050 991 987
3 1055 991 1050
3 1058 1057 1056
3 1056 1057 1053
3 1056 1053 1051
3 994 1056 1051
3 993 994 1051
3 993 1051 990
3 1055 995 991
3 1059 995 1055
3 1062 1061 1060
3 1060 1061 1058
3 1060 1058 1056
3 998 1060 1056
3 997 998 1056
3 997 1056 994
3 1059 1063 995
3 995 1063 999
3 999 1064 1000
3 1063 1064 999
3 1000 1065 1001
3 1064 1065 1000
3 1001 1066 1002
3 1065 1066 1001
3 1002 1067 1003
3 1066 1067 1002
3 1003 1068 1004
3 1067 1068 1003
3 1004 1069 1005
3 1068 1069 1004
3 1005 1070 1006
3 1069 1070 1005
3 1006 1071 1007
3 1070 1071 1006
3 1007 1072 1008
3 1071 1072 1007
3 1060 1009 1062
3 1009 1072 1062
3 1009 1008 1072
3 1009 1060 998
3 1074 1073 1011
3 1011 1073 1010
3 1075 1011 1012
3 1075 1074 1011
3 1076 1012 1013
3 1076 1075 1012
3 1077 1013 1014
3 1077 1076 1013
3 1078 1014 1015
3 1078 1077 1014
3 1079 1015 1016
3 1079 1078 1015
3 1080 1016 1017
3 1080 1079 1016
3 1081 1017 1018
3 1081 1080 1017
3 1082 1018 1019
3 1082 1081 1018
3 1083 1019 1020
3 1083 1082 1019
3 1084 1020 1021
3 1084 1083 1020
3 1085 1021 1022
3 1085 1084 1021
3 1086 1022 1023
3 1086 1085 1022
3 1087 1023 1024
3 1087 1086 1023
3 1024 1025 1087
3 1087 1025 1088
3 1073 1026 1010
3 1089 1026 1073
3 1027 1088 1025
3 1027 1090 1088
3 1089 1028 1026
3 1091 1028 1089
3 1029 1090 1027
3 1029 1092 1090
3 1091 1030 1028
3 1093 1030 1091
3 1031 1092 1029
3 1031 1094 1092
3 1093 1032 1030
3 1095 1032 1093
3 1033 1094 1031
3 1033 1096 1094
3 1095 1034 1032
3 1097 1034 1095
3 1035 1096 1033
3 1035 1098 1096
3 1097 1036 1034
3 1099 1036 1097
3 1037 1098 1035
3 1037 1100 1098
3 1099 1038 1036
3 1101 1038 1099
3 1039 1100 1037
3 1039 1102 1100
3 1101 1040 1038
3 1103 1040 1101
3 1041 1102 1039
3 1041 1104 1102
3 1103 1042 1040
3 1105 1042 1103
3 1043 1104 1041
3 1043 1106 1104
3 1105 1044 1042
3 1107 1044 1105
3 1045 1106 1043
3 1045 1108 1106
3 1107 1046 1044
3 1109 1046 1107
3 1047 1108 1045
3 1047 1110 1108
3 1109 1048 1046
3 1111 1048 1109
3 1114 1113 1112
3 1113 1110 1112
3 1110 1049 1112
3 1110 1047 1049
3 1111 1050 1048
3 1115 1050 1111
3 1118 1117 1116
3 1052 1053 1116
3 1117 1052 1116
3 1119 1052 1117
3 1112 1054 1114
3 1054 1119 1114
3 1054 1052 1119
3 1054 1112 1049
3 1115 1055 1050
3 1120 1055 1115
3 1123 1122 1121
3 1121 1122 1118
3 1121 1118 1116
3 1058 1121 1116
3 1057 1058 1116
3 1057 1116 1053
3 1120 1059 1055
3 1124 1059 1120
3 1127 1126 1125
3 1125 1126 1123
3 1125 1123 1121
3 1062 1125 1121
3 1061 1062 1121
3 1061 1121 1058
3 1124 1128 1059
3 1059 1128 1063
3 1063 1129 1064
3 1128 1129 1063
3 1064 1130 1065
3 1129 1130 1064
3 1065 1131 1066
3 1130 1131 1065
3 1066 1132 1067
3 1131 1132 1066
3 1067 1133 1068
3 1132 1133 1067
3 1068 1134 1069
3 1133 1134 1068
3 1069 1135 1070
3 1134 1135 1069
3 1070 1136 1071
3 1135 1136 1070
3 1125 1072 1127
3 1072 1136 1127
3 1072 1071 1136
3 1072 1125 1062
3 1138 1137 1074
3 1074 1137 1073
3 1139 1074 1075
3 1139 1138 1074
3 1140 1075 1076
3 1140 1139 1075
3 1141 1076 1077
3 1141 1140 1076
3 1142 1077 1078
3 1142 1141 1077
3 1143 1078 1079
3 1143 1142 1078
3 1144 1079 1080
3 1144 1143 1079
3 1145 1080 1081
3 1145 1144 1080
3 1146 1081 1082
3 1146 1145 1081
3 1147 1082 1083
3 1147 1146 1082
3 1148 1083 1084
3 1148 1147 1083
3 1149 1084 1085
3 1149 1148 1084
3 1150 1085 1086
3 1150 1149 1085
3 1151 1086 1087
3 1151 1150 1086
3 1087 1088 1151
3 1151 1088 1152
3 1137 1089 1073
3 1153 1089 1137
3 1090 1152 1088
3 1090 1154 1152
3 1153 1091 1089
3 1155 1091 1153
3 1092 1154 1090
3 1092 1156 1154
3 1155 1093 1091
3 1157 1093 1155
3 1094 1156 1092
3 1094 1158 1156
3 1157 1095 1093
3 1159 1095 1157
3 1096 1158 1094
3 1096 1160 1158
3 1159 1097 1095
3 1161 1097 1159
3 1098 1160 1096
3 1098 1162 1160
3 1161 1099 1097
3 1163 1099 1161
3 1100 1162 1098
3 1100 1164 1162
3 1163 1101 1099
3 1165 1101 1163
3 1102 1164 1100
3 1102 1166 1164
3 1165 1103 1101
3 1167 1103 1165
3 1104 1166 1102
3 1104 1168 1166
3 1167 1105 1103
3 1169 1105 1167
3 1106 1168 1104
3 1106 1170 1168
3 1169 1107 1105
3 1171 1107 1169
3 1108 1170 1106
3 1108 1172 1170
3 1171 1109 1107
3 1173 1109 1171
3 1176 1175 1174
3 1175 1172 1174
3 1172 1110 1174
3 1172 1108 1110
3 1173 1111 1109
3 1177 1111 1173
3 1180 1179 1178
3 1178 1179 1176
3 1178 1176 1174
3 1114 1178 1174
3 1113 1114 1174
3 1113 1174 1110
3 1177 1115 1111
3 1181 1115 1177
3 1183 1182 1117
3 1183 1117 1118
3 1178 1119 1180
3 1119 1182 1180
3 1119 1117 1182
3 1119 1178 1114
3 1181 1120 1115
3 1184 1120 1181
3 1187 1186 1185
3 1122 1123 1185
3 1186 1122 1185
3 1188 1122 1186
3 1118 1122 1183
3 1183 1122 1188
3 1184 1124 1120
3 1189 1124 1184
3 1192 1191 1190
3 1190 1191 1187
3 1190 1187 1185
3 1127 1190 1185
3 1126 1127 1185
3 1126 1185 1123
3 1189 1193 1124
3 1124 1193 1128
3 1128 1194 1129
3 1193 1194 1128
3 1129 1195 1130
3 1194 1195 1129
3 1130 1196 1131
3 1195 1196 1130
3 1131 1197 1132
3 1196 1197 1131
3 1132 1198 1133
3 1197 1198 1132
3 1133 1199 1134
3 1198 1199 1133
3 1134 1200 1135
3 1199 1200 1134
3 1190 1136 1192
3 1136 1200 1192
3 1136 1135 1200
3 1136 1190 1127
3 1201 1137 1138
3 1139 1202 1138
3 1138 1202 1201
3 1140 1203 1139
3 1139 1203 1202
3 1141 1204 1140
3 1140 1204 1203
3 1142 1205 1141
3 1141 1205 1204
3 1143 1206 1142
3 1142 1206 1205
3 1144 1207 1143
3 1143 1207 1206
3 1145 1208 1144
3 1144 1208 1207
3 1146 1209 1145
3 1145 1209 1208
3 1147 1210 1146
3 1146 1210 1209
3 1148 1211 1147
3 1147 1211 1210
3 1149 1212 1148
3 1148 1212 1211
3 1150 1213 1149
3 1149 1213 1212
3 1151 1214 1150
3 1150 1214 1213
3 1152 1214 1151
3 1215 1153 1201
3 1201 1153 1137
3 1216 1201 1202
3 1215 1201 1216
3 1217 1202 1203
3 1216 1202 1217
3 1218 1203 1204
3 1217 1203 1218
3 1219 1204 1205
3 1218 1204 1219
3 1220 1205 1206
3 1219 1205 1220
3 1221 1206 1207
3 1220 1206 1221
3 1222 1207 1208
3 1221 1207 1222
3 1223 1208 1209
3 1222 1208 1223
3 1224 1209 1210
3 1223 1209 1224
3 1225 1210 1211
3 1224 1210 1225
3 1226 1211 1212
3 1225 1211 1226
3 1227 1212 1213
3 1226 1212 1227
3 1228 1213 1214
3 1227 1213 1228
3 1154 1228 1152
3 1152 1228 1214
3 1229 1155 1215
3 1215 1155 1153
3 1230 1215 1216
3 1229 1215 1230
3 1231 1216 1217
3 1230 1216 1231
3 1232 1217 1218
3 1231 1217 1232
3 1233 1218 1219
3 1232 1218 1233
3 1234 1219 1220
3 1233 1219 1234
3 1235 1220 1221
3 1234 1220 1235
3 1236 1221 1222
3 1235 1221 1236
3 1237 1222 1223
3 1236 1222 1237
3 1238 1223 1224
3 1237 1223 1238
3 1239 1224 1225
3 1238 1224 1239
3 1240 1225 1226
3 1239 1225 1240
3 1241 1226 1227
3 1240 1226 1241
3 1242 1227 1228
3 1241 1227 1242
3 1156 1242 1154
3 1154 1242 1228
3 1243 1157 1229
3 1229 1157 1155
3 1244 1229 1230
3 1243 1229 1244
3 1245 1230 1231
3 1244 1230 1245
3 1246 1231 1232
3 1245 1231 1246
3 1247 1232 1233
3 1246 1232 1247
3 1248 1233 1234
3 1247 1233 1248
3 1249 1234 1235
3 1248 1234 1249
3 1250 1235 1236
3 1249 1235 1250
3 1251 1236 1237
3 1250 1236 1251
3 1252 1237 1238
3 1251 1237 1252
3 1253 1238 1239
3 1252 1238 1253
3 1254 1239 1240
3 1253 1239 1254
3 1255 1240 1241
3 1254 1240 1255
3 1256 1241 1242
3 1255 1241 1256
3 1158 1256 1156
3 1156 1256 1242
3 1257 1159 1243
3 1243 1159 1157
3 1258 1243 1244
3 1257 1243 1258
3 1259 1244 1245
3 1258 1244 1259
3 1260 1245 1246
3 1259 1245 1260
3 1261 1246 1247
3 1260 1246 1261
3 1262 1247 1248
3 1261 1247 1262
3 1263 1248 1249
3 1262 1248 1263
3 1264 1249 1250
3 1263 1249 1264
3 1265 1250 1251
3 1264 1250 1265
3 1266 1251 1252
3 1265 1251 1266
3 1267 1252 1253
3 1266 1252 1267
3 1268 1253 1254
3 1267 1253 1268
3 1269 1254 1255
3 1268 1254 1269
3 1270 1255 1256
3 1269 1255 1270
3 1160 1270 1158
3 1158 1270 1256
3 1271 1161 1257
3 1257 1161 1159
3 1272 1257 1258
3 1271 1257 1272
3 1273 1258 1259
3 1272 1258 1273
3 1274 1259 1260
3 1273 1259 1274
3 1275 1260 1261
3 1274 1260 1275
3 1276 1261 1262
3 1275 1261 1276
3 1277 1262 1263
3 1276 1262 1277
3 1278 1263 1264
3 1277 1263 1278
3 1279 1264 1265
3 1278 1264 1279
3 1280 1265 1266
3 1279 1265 1280
3 1281 1266 1267
3 1280 1266 1281
3 1282 1267 1268
3 1281 1267 1282
3 1283 1268 1269
3 1282 1268 1283
3 1284 1269 1270
3 1283 1269 1284
3 1162 1284 1160
3 1160 1284 1270
3 1285 1163 1271
3 1271 1163 1161
3 1286 1271 1272
3 1285 1271 1286
3 1287 1272 1273
3 1286 1272 1287
3 1288 1273 1274
3 1287 1273 1288
3 1289 1274 1275
3 1288 1274 1289
3 1290 1275 1276
3 1289 1275 1290
3 1291 1276 1277
3 1290 1276 1291
3 1292 1277 1278
3 1291 1277 1292
3 1293 1278 1279
3 1292 1278 1293
3 1294 1279 1280
3 1293 1279 1294
3 1295 1280 1281
3 1294 1280 1295
3 1296 1281 1282
3 1295 1281 1296
3 1297 1282 1283
3 1296 1282 1297
3 1298 1283 1284
3 1297 1283 1298
3 1164 1298 1162
3 1162 1298 1284
3 1299 1165 1285
3 1285 1165 1163
3 1300 1285 1286
3 1299 1285 1300
3 1301 1286 1287
3 1300 1286 1301
3 1302 1287 1288
3 1301 1287 1302
3 1303 1288 1289
3 1302 1288 1303
3 1304 1289 1290
3 1303 1289 1304
3 1305 1290 1291
3 1304 1290 1305
3 1306 1291 1292
3 1305 1291 1306
3 1307 1292 1293
3 1306 1292 1307
3 1308 1293 1294
3 1307 1293 1308
3 1309 1294 1295
3 1308 1294 1309
3 1310 1295 1296
3 1309 1295 1310
3 1311 1296 1297
3 1310 1296 1311
3 1312 1297 1298
3 1311 1297 1312
3 1166 1312 1164
3 1164 1312 1298
3 1313 1167 1299
3 1299 1167 1165
3 1314 1299 1300
3 1313 1299 1314
3 1315 1300 1301
3 1314 1300 1315
3 1316 1301 1302
3 1315 1301 1316
3 1317 1302 1303
3 1316 1302 1317
3 1318 1303 1304
3 1317 1303 1318
3 1319 1304 1305
3 1318 1304 1319
3 1320 1305 1306
3 1319 1305 1320
3 1321 1306 1307
3 1320 1306 1321
3 1322 1307 1308
3 1321 1307 1322
3 1323 1308 1309
3 1322 1308 1323
3 1324 1309 1310
3 1323 1309 1324
3 1325 1310 1311
3 1324 1310 1325
3 1326 1311 1312
3 1325 1311 1326
3 1168 1326 1166
3 1166 1326 1312
3 1327 1169 1313
3 1313 1169 1167
3 1328 1313 1314
3 1327 1313 1328
3 1329 1314 1315
3 1328 1314 1329
3 1330 1315 1316
3 1329 1315 1330
3 1331 1316 1317
3 1330 1316 1331
3 1332 1317 1318
3 1331 1317 1332
3 1333 1318 1319
3 1332 1318 1333
3 1334 1319 1320
3 1333 1319 1334
3 1335 1320 1321
3 1334 1320 1335
3 1336 1321 1322
3 1335 1321 1336
3 1337 1322 1323
3 1336 1322 1337
3 1338 1323 1324
3 1337 1323 1338
3 1339 1324 1325
3 1338 1324 1339
3 1340 1325 1326
3 1339 1325 1340
3 1170 1340 1168
3 1168 1340 1326
3 1341 1171 1327
3 1327 1171 1169
3 1342 1327 1328
3 1341 1327 1342
3 1343 1328 1329
3 1342 1328 1343
3 1344 1329 1330
3 1343 1329 1344
3 1345 1330 1331
3 1344 1330 1345
3 1346 1331 1332
3 1345 1331 1346
3 1347 1332 1333
3 1346 1332 1347
3 1348 1333 1334
3 1347 1333 1348
3 1349 1334 1335
3 1348 1334 1349
3 1350 1335 1336
3 1349 1335 1350
3 1351 1336 1337
3 1350 1336 1351
3 1352 1337 1338
3 1351 1337 1352
3 1353 1338 1339
3 1352 1338 1353
3 1354 1339 1340
3 1353 1339 1354
3 1172 1354 1170
3 1170 1354 1340
3 1355 1173 1341
3 1341 1173 1171
3 1356 1341 1342
3 1355 1341 1356
3 1357 1342 1343
3 1356 1342 1357
3 1358 1343 1344
3 1357 1343 1358
3 1359 1344 1345
3 1358 1344 1359
3 1360 1345 1346
3 1359 1345 1360
3 1361 1346 1347
3 1360 1346 1361
3 1362 1347 1348
3 1361 1347 1362
3 1363 1348 1349
3 1362 1348 1363
3 1364 1349 1350
3 1363 1349 1364
3 1365 1350 1351
3 1364 1350 1365
3 1366 1351 1352
3 1365 1351 1366
3 1367 1352 1353
3 1366 1352 1367
3 1176 1367 1175
3 1367 1354 1175
3 1367 1353 1354
3 1175 1354 1172
3 1368 1177 1355
3 1355 1177 1173
3 1369 1355 1356
3 1368 1355 1369
3 1370 1356 1357
3 1369 1356 1370
3 1371 1357 1358
3 1370 1357 1371
3 1372 1358 1359
3 1371 1358 1372
3 1373 1359 1360
3 1372 1359 1373
3 1374 1360 1361
3 1373 1360 1374
3 1375 1361 1362
3 1374 1361 1375
3 1376 1362 1363
3 1375 1362 1376
3 1377 1363 1364
3 1376 1363 1377
3 1378 1364 1365
3 1377 1364 1378
3 1379 1365 1366
3 1378 1365 1379
3 1180 1379 1179
3 1379 1367 1179
3 1379 1366 1367
3 1179 1367 1176
3 1380 1181 1368
3 1368 1181 1177
3 1381 1368 1369
3 1380 1368 1381
3 1382 1369 1370
3 1381 1369 1382
3 1383 1370 1371
3 1382 1370 1383
3 1384 1371 1372
3 1383 1371 1384
3 1385 1372 1373
3 1384 1372 1385
3 1386 1373 1374
3 1385 1373 1386
3 1387 1374 1375
3 1386 1374 1387
3 1388 1375 1376
3 1387 1375 1388
3 1389 1376 1377
3 1388 1376 1389
3 1390 1377 1378
3 1389 1377 1390
3 1183 1390 1182
3 1390 1379 1182
3 1390 1378 1379
3 1182 1379 1180
3 1391 1184 1380
3 1380 1184 1181
3 1392 1380 1381
3 1391 1380 1392
3 1393 1381 1382
3 1392 1381 1393
3 1394 1382 1383
3 1393 1382 1394
3 1395 1383 1384
3 1394 1383 1395
3 1396 1384 1385
3 1395 1384 1396
3 1397 1385 1386
3 1396 1385 1397
3 1398 1386 1387
3 1397 1386 1398
3 1399 1387 1388
3 1398 1387 1399
3 1187 1399 1186
3 1399 1389 1186
3 1399 1388 1389
3 1186 1389 1188
3 1188 1389 1390
3 1188 1390 1183
3 1400 1189 1391
3 1391 1189 1184
3 1401 1391 1392
3 1400 1391 1401
3 1402 1392 1393
3 1401 1392 1402
3 1403 1393 1394
3 1402 1393 1403
3 1404 1394 1395
3 1403 1394 1404
3 1405 1395 1396
3 1404 1395 1405
3 1406 1396 1397
3 1405 1396 1406
3 1407 1397 1398
3 1406 1397 1407
3 1192 1407 1191
3 1407 1399 1191
3 1407 1398 1399
3 1191 1399 1187
3 1400 1193 1189
3 1193 1400 1194
3 1194 1400 1401
3 1194 1401 1195
3 1195 1401 1402
3 1195 1402 1196
3 1196 1402 1403
3 1196 1403 1197
3 1197 1403 1404
3 1197 1404 1198
3 1198 1404 1405
3 1198 1405 1199
3 1199 1405 1406
3 1199 1406 1200
3 1200 1406 1407
3 1200 1407 1192
