# Asteroid shape model (convexinv -> dual reconstruction)
v -1.13788555 -1.06645698 -0.92857143
v -1.06645698 -1.06645698 -1.00000000
v -1.06645698 -1.13788555 -0.92857143
v -1.06645698 -1.13788555 -0.78571429
v -1.13788555 -1.06645698 -0.78571429
v -1.06645698 -1.13788555 -0.64285714
v -1.13788555 -1.06645698 -0.64285714
v -1.06645698 -1.13788555 -0.50000000
v -1.13788555 -1.06645698 -0.50000000
v -1.06645698 -1.13788555 -0.35714286
v -1.13788555 -1.06645698 -0.35714286
v -1.06645698 -1.13788555 -0.21428571
v -1.13788555 -1.06645698 -0.21428571
v -1.06645698 -1.13788555 -0.07142857
v -1.13788555 -1.06645698 -0.07142857
v -1.06645698 -1.13788555 0.07142857
v -1.13788555 -1.06645698 0.07142857
v -1.06645698 -1.13788555 0.21428571
v -1.13788555 -1.06645698 0.21428571
v -1.06645698 -1.13788555 0.35714286
v -1.13788555 -1.06645698 0.35714286
v -1.06645698 -1.13788555 0.50000000
v -1.13788555 -1.06645698 0.50000000
v -1.06645698 -1.13788555 0.64285714
v -1.13788555 -1.06645698 0.64285714
v -1.06645698 -1.06645698 0.71428571
v -1.13788555 -0.92359984 -0.92857143
v -1.06645698 -0.92359984 -1.00000000
v -1.13788555 -0.92359984 -0.78571429
v -1.13788555 -0.92359984 -0.64285714
v -1.13788555 -0.92359984 -0.50000000
v -1.13788555 -0.92359984 -0.35714286
v -1.13788555 -0.92359984 -0.21428571
v -1.13788555 -0.92359984 -0.07142857
v -1.13788555 -0.92359984 0.07142857
v -1.13788555 -0.92359984 0.21428571
v -1.13788555 -0.92359984 0.35714286
v -1.13788555 -0.92359984 0.50000000
v -1.13788555 -0.92359984 0.64285714
v -1.06645698 -0.99502841 0.78571429
v -1.13788555 -0.92359984 0.78571429
v -1.06645698 -0.99502841 0.92857143
v -1.13788555 -0.92359984 0.92857143
v -1.06645698 -0.92359984 1.00000000
v -1.13788555 -0.78074269 -0.92857143
v -1.06645698 -0.78074269 -1.00000000
v -1.13788555 -0.78074269 -0.78571429
v -1.13788555 -0.78074269 -0.64285714
v -1.13788555 -0.78074269 -0.50000000
v -1.13788555 -0.78074269 -0.35714286
v -1.13788555 -0.78074269 -0.21428571
v -1.13788555 -0.78074269 -0.07142857
v -1.13788555 -0.78074269 0.07142857
v -1.13788555 -0.78074269 0.21428571
v -1.13788555 -0.78074269 0.35714286
v -1.13788555 -0.78074269 0.50000000
v -1.13788555 -0.78074269 0.64285714
v -1.13788555 -0.78074269 0.78571429
v -1.13788555 -0.78074269 0.92857143
v -1.06645698 -0.78074269 1.00000000
v -1.13788555 -0.63788555 -0.92857143
v -1.06645698 -0.63788555 -1.00000000
v -1.13788555 -0.63788555 -0.78571429
v -1.13788555 -0.63788555 -0.64285714
v -1.13788555 -0.63788555 -0.50000000
v -1.13788555 -0.63788555 -0.35714286
v -1.13788555 -0.63788555 -0.21428571
v -1.13788555 -0.63788555 -0.07142857
v -1.13788555 -0.63788555 0.07142857
v -1.13788555 -0.63788555 0.21428571
v -1.13788555 -0.63788555 0.35714286
v -1.13788555 -0.63788555 0.50000000
v -1.13788555 -0.63788555 0.64285714
v -1.13788555 -0.63788555 0.78571429
v -1.13788555 -0.63788555 0.92857143
v -1.06645698 -0.63788555 1.00000000
v -1.13788555 -0.49502841 -0.92857143
v -1.06645698 -0.49502841 -1.00000000
v -1.13788555 -0.49502841 -0.78571429
v -1.13788555 -0.49502841 -0.64285714
v -1.13788555 -0.49502841 -0.50000000
v -1.13788555 -0.49502841 -0.35714286
v -1.13788555 -0.49502841 -0.21428571
v -1.13788555 -0.49502841 -0.07142857
v -1.13788555 -0.49502841 0.07142857
v -1.13788555 -0.49502841 0.21428571
v -1.13788555 -0.49502841 0.35714286
v -1.13788555 -0.49502841 0.50000000
v -1.13788555 -0.49502841 0.64285714
v -1.13788555 -0.49502841 0.78571429
v -1.13788555 -0.49502841 0.92857143
v -1.06645698 -0.49502841 1.00000000
v -1.13788555 -0.35217127 -0.92857143
v -1.06645698 -0.35217127 -1.00000000
v -1.13788555 -0.35217127 -0.78571429
v -1.13788555 -0.35217127 -0.64285714
v -1.13788555 -0.35217127 -0.50000000
v -1.13788555 -0.35217127 -0.35714286
v -1.13788555 -0.35217127 -0.21428571
v -1.13788555 -0.35217127 -0.07142857
v -1.13788555 -0.35217127 0.07142857
v -1.13788555 -0.35217127 0.21428571
v -1.13788555 -0.35217127 0.35714286
v -1.13788555 -0.35217127 0.50000000
v -1.13788555 -0.35217127 0.64285714
v -1.13788555 -0.35217127 0.78571429
v -1.13788555 -0.35217127 0.92857143
v -1.06645698 -0.35217127 1.00000000
v -1.13788555 -0.20931412 -0.92857143
v -1.06645698 -0.20931412 -1.00000000
v -1.13788555 -0.20931412 -0.78571429
v -1.13788555 -0.20931412 -0.64285714
v -1.13788555 -0.20931412 -0.50000000
v -1.13788555 -0.20931412 -0.35714286
v -1.13788555 -0.20931412 -0.21428571
v -1.13788555 -0.20931412 -0.07142857
v -1.13788555 -0.20931412 0.07142857
v -1.13788555 -0.20931412 0.21428571
v -1.13788555 -0.20931412 0.35714286
v -1.13788555 -0.20931412 0.50000000
v -1.13788555 -0.20931412 0.64285714
v -1.13788555 -0.20931412 0.78571429
v -1.13788555 -0.20931412 0.92857143
v -1.06645698 -0.20931412 1.00000000
v -1.13788555 -0.06645698 -0.92857143
v -1.06645698 -0.06645698 -1.00000000
v -1.13788555 -0.06645698 -0.78571429
v -1.13788555 -0.06645698 -0.64285714
v -1.13788555 -0.06645698 -0.50000000
v -1.13788555 -0.06645698 -0.35714286
v -1.13788555 -0.06645698 -0.21428571
v -1.13788555 -0.06645698 -0.07142857
v -1.13788555 -0.06645698 0.07142857
v -1.13788555 -0.06645698 0.21428571
v -1.13788555 -0.06645698 0.35714286
v -1.13788555 -0.06645698 0.50000000
v -1.13788555 -0.06645698 0.64285714
v -1.13788555 -0.06645698 0.78571429
v -1.13788555 -0.06645698 0.92857143
v -1.06645698 -0.06645698 1.00000000
v -1.13788555 0.07640016 -0.92857143
v -1.06645698 0.07640016 -1.00000000
v -1.13788555 0.07640016 -0.78571429
v -1.13788555 0.07640016 -0.64285714
v -1.13788555 0.07640016 -0.50000000
v -1.13788555 0.07640016 -0.35714286
v -1.13788555 0.07640016 -0.21428571
v -1.13788555 0.07640016 -0.07142857
v -1.13788555 0.07640016 0.07142857
v -1.13788555 0.07640016 0.21428571
v -1.13788555 0.07640016 0.35714286
v -1.13788555 0.07640016 0.50000000
v -1.13788555 0.07640016 0.64285714
v -1.13788555 0.07640016 0.78571429
v -1.13788555 0.07640016 0.92857143
v -1.06645698 0.07640016 1.00000000
v -1.13788555 0.21925731 -0.92857143
v -1.06645698 0.21925731 -1.00000000
v -1.13788555 0.21925731 -0.78571429
v -1.13788555 0.21925731 -0.64285714
v -1.13788555 0.21925731 -0.50000000
v -1.13788555 0.21925731 -0.35714286
v -1.13788555 0.21925731 -0.21428571
v -1.13788555 0.21925731 -0.07142857
v -1.13788555 0.21925731 0.07142857
v -1.13788555 0.21925731 0.21428571
v -1.13788555 0.21925731 0.35714286
v -1.13788555 0.21925731 0.50000000
v -1.13788555 0.21925731 0.64285714
v -1.13788555 0.21925731 0.78571429
v -1.13788555 0.21925731 0.92857143
v -1.06645698 0.21925731 1.00000000
v -1.13788555 0.36211445 -0.92857143
v -1.06645698 0.36211445 -1.00000000
v -1.13788555 0.36211445 -0.78571429
v -1.13788555 0.36211445 -0.64285714
v -1.13788555 0.36211445 -0.50000000
v -1.13788555 0.36211445 -0.35714286
v -1.13788555 0.36211445 -0.21428571
v -1.13788555 0.36211445 -0.07142857
v -1.13788555 0.36211445 0.07142857
v -1.13788555 0.36211445 0.21428571
v -1.13788555 0.36211445 0.35714286
v -1.13788555 0.36211445 0.50000000
v -1.13788555 0.36211445 0.64285714
v -1.13788555 0.36211445 0.78571429
v -1.13788555 0.36211445 0.92857143
v -1.06645698 0.36211445 1.00000000
v -1.13788555 0.50497159 -0.92857143
v -1.06645698 0.50497159 -1.00000000
v -1.13788555 0.50497159 -0.78571429
v -1.13788555 0.50497159 -0.64285714
v -1.13788555 0.50497159 -0.50000000
v -1.13788555 0.50497159 -0.35714286
v -1.13788555 0.50497159 -0.21428571
v -1.13788555 0.50497159 -0.07142857
v -1.13788555 0.50497159 0.07142857
v -1.13788555 0.50497159 0.21428571
v -1.13788555 0.50497159 0.35714286
v -1.13788555 0.50497159 0.50000000
v -1.13788555 0.50497159 0.64285714
v -1.13788555 0.50497159 0.78571429
v -1.13788555 0.50497159 0.92857143
v -1.06645698 0.50497159 1.00000000
v -1.13788555 0.64782873 -0.92857143
v -1.06645698 0.64782873 -1.00000000
v -1.13788555 0.64782873 -0.78571429
v -1.13788555 0.64782873 -0.64285714
v -1.13788555 0.64782873 -0.50000000
v -1.13788555 0.64782873 -0.35714286
v -1.13788555 0.64782873 -0.21428571
v -1.13788555 0.64782873 -0.07142857
v -1.13788555 0.64782873 0.07142857
v -1.13788555 0.64782873 0.21428571
v -1.13788555 0.64782873 0.35714286
v -1.13788555 0.64782873 0.50000000
v -1.13788555 0.64782873 0.64285714
v -1.13788555 0.64782873 0.78571429
v -1.13788555 0.64782873 0.92857143
v -1.06645698 0.64782873 1.00000000
v -1.13788555 0.79068588 -0.92857143
v -1.06645698 0.79068588 -1.00000000
v -1.13788555 0.79068588 -0.78571429
v -1.13788555 0.79068588 -0.64285714
v -1.13788555 0.79068588 -0.50000000
v -1.13788555 0.79068588 -0.35714286
v -1.13788555 0.79068588 -0.21428571
v -1.13788555 0.79068588 -0.07142857
v -1.13788555 0.79068588 0.07142857
v -1.13788555 0.79068588 0.21428571
v -1.13788555 0.79068588 0.35714286
v -1.13788555 0.79068588 0.50000000
v -1.13788555 0.79068588 0.64285714
v -1.13788555 0.79068588 0.78571429
v -1.13788555 0.79068588 0.92857143
v -1.06645698 0.79068588 1.00000000
v -1.13788555 0.93354302 -0.92857143
v -1.06645698 0.93354302 -1.00000000
v -1.13788555 0.93354302 -0.78571429
v -1.13788555 0.93354302 -0.64285714
v -1.13788555 0.93354302 -0.50000000
v -1.13788555 0.93354302 -0.35714286
v -1.13788555 0.93354302 -0.21428571
v -1.13788555 0.93354302 -0.07142857
v -1.13788555 0.93354302 0.07142857
v -1.13788555 0.93354302 0.21428571
v -1.13788555 0.93354302 0.35714286
v -1.13788555 0.93354302 0.50000000
v -1.13788555 0.93354302 0.64285714
v -1.13788555 0.93354302 0.78571429
v -1.13788555 0.93354302 0.92857143
v -1.06645698 0.93354302 1.00000000
v -1.13788555 1.07640016 -0.92857143
v -1.06645698 1.07640016 -1.00000000
v -1.13788555 1.07640016 -0.78571429
v -1.13788555 1.07640016 -0.64285714
v -1.13788555 1.07640016 -0.50000000
v -1.13788555 1.07640016 -0.35714286
v -1.13788555 1.07640016 -0.21428571
v -1.13788555 1.07640016 -0.07142857
v -1.13788555 1.07640016 0.07142857
v -1.13788555 1.07640016 0.21428571
v -1.13788555 1.07640016 0.35714286
v -1.13788555 1.07640016 0.50000000
v -1.13788555 1.07640016 0.64285714
v -1.13788555 1.07640016 0.78571429
v -1.13788555 1.07640016 0.92857143
v -1.06645698 1.07640016 1.00000000
v -1.06645698 1.14782873 -0.92857143
v -1.06645698 1.14782873 -0.78571429
v -1.06645698 1.14782873 -0.64285714
v -1.06645698 1.14782873 -0.50000000
v -1.06645698 1.14782873 -0.35714286
v -1.06645698 1.14782873 -0.21428571
v -1.06645698 1.14782873 -0.07142857
v -1.06645698 1.14782873 0.07142857
v -1.06645698 1.14782873 0.21428571
v -1.06645698 1.14782873 0.35714286
v -1.06645698 1.14782873 0.50000000
v -1.06645698 1.14782873 0.64285714
v -1.06645698 1.14782873 0.78571429
v -1.06645698 1.14782873 0.92857143
v -0.92359984 -1.06645698 -1.00000000
v -0.92359984 -1.13788555 -0.92857143
v -0.92359984 -1.13788555 -0.78571429
v -0.92359984 -1.13788555 -0.64285714
v -0.92359984 -1.13788555 -0.50000000
v -0.92359984 -1.13788555 -0.35714286
v -0.92359984 -1.13788555 -0.21428571
v -0.92359984 -1.13788555 -0.07142857
v -0.92359984 -1.13788555 0.07142857
v -0.92359984 -1.13788555 0.21428571
v -0.92359984 -1.13788555 0.35714286
v -0.92359984 -1.13788555 0.50000000
v -0.92359984 -1.13788555 0.64285714
v -0.92359984 -1.13788555 0.78571429
v -0.99502841 -1.06645698 0.78571429
v -0.92359984 -1.13788555 0.92857143
v -0.99502841 -1.06645698 0.92857143
v -0.92359984 -1.06645698 1.00000000
v -0.92359984 -0.92359984 -1.00000000
v -0.92359984 -0.92359984 1.00000000
v -0.92359984 -0.78074269 -1.00000000
v -0.92359984 -0.78074269 1.00000000
v -0.92359984 -0.63788555 -1.00000000
v -0.92359984 -0.63788555 1.00000000
v -0.92359984 -0.49502841 -1.00000000
v -0.92359984 -0.49502841 1.00000000
v -0.92359984 -0.35217127 -1.00000000
v -0.92359984 -0.35217127 1.00000000
v -0.92359984 -0.20931412 -1.00000000
v -0.92359984 -0.20931412 1.00000000
v -0.92359984 -0.06645698 -1.00000000
v -0.92359984 -0.06645698 1.00000000
v -0.92359984 0.07640016 -1.00000000
v -0.92359984 0.07640016 1.00000000
v -0.92359984 0.21925731 -1.00000000
v -0.92359984 0.21925731 1.00000000
v -0.92359984 0.36211445 -1.00000000
v -0.92359984 0.36211445 1.00000000
v -0.92359984 0.50497159 -1.00000000
v -0.92359984 0.50497159 1.00000000
v -0.92359984 0.64782873 -1.00000000
v -0.92359984 0.64782873 1.00000000
v -0.92359984 0.79068588 -1.00000000
v -0.92359984 0.79068588 1.00000000
v -0.92359984 0.93354302 -1.00000000
v -0.92359984 0.93354302 1.00000000
v -0.92359984 1.07640016 -1.00000000
v -0.92359984 1.07640016 1.00000000
v -0.92359984 1.14782873 -0.92857143
v -0.92359984 1.14782873 -0.78571429
v -0.92359984 1.14782873 -0.64285714
v -0.92359984 1.14782873 -0.50000000
v -0.92359984 1.14782873 -0.35714286
v -0.92359984 1.14782873 -0.21428571
v -0.92359984 1.14782873 -0.07142857
v -0.92359984 1.14782873 0.07142857
v -0.92359984 1.14782873 0.21428571
v -0.92359984 1.14782873 0.35714286
v -0.92359984 1.14782873 0.50000000
v -0.92359984 1.14782873 0.64285714
v -0.92359984 1.14782873 0.78571429
v -0.92359984 1.14782873 0.92857143
v -0.78074269 -1.06645698 -1.00000000
v -0.78074269 -1.13788555 -0.92857143
v -0.78074269 -1.13788555 -0.78571429
v -0.78074269 -1.13788555 -0.64285714
v -0.78074269 -1.13788555 -0.50000000
v -0.78074269 -1.13788555 -0.35714286
v -0.78074269 -1.13788555 -0.21428571
v -0.78074269 -1.13788555 -0.07142857
v -0.78074269 -1.13788555 0.07142857
v -0.78074269 -1.13788555 0.21428571
v -0.78074269 -1.13788555 0.35714286
v -0.78074269 -1.13788555 0.50000000
v -0.78074269 -1.13788555 0.64285714
v -0.78074269 -1.13788555 0.78571429
v -0.78074269 -1.13788555 0.92857143
v -0.78074269 -1.06645698 1.00000000
v -0.78074269 -0.92359984 -1.00000000
v -0.78074269 -0.92359984 1.00000000
v -0.78074269 -0.78074269 -1.00000000
v -0.78074269 -0.78074269 1.00000000
v -0.78074269 -0.63788555 -1.00000000
v -0.78074269 -0.63788555 1.00000000
v -0.78074269 -0.49502841 -1.00000000
v -0.78074269 -0.49502841 1.00000000
v -0.78074269 -0.35217127 -1.00000000
v -0.78074269 -0.35217127 1.00000000
v -0.78074269 -0.20931412 -1.00000000
v -0.78074269 -0.20931412 1.00000000
v -0.78074269 -0.06645698 -1.00000000
v -0.78074269 -0.06645698 1.00000000
v -0.78074269 0.07640016 -1.00000000
v -0.78074269 0.07640016 1.00000000
v -0.78074269 0.21925731 -1.00000000
v -0.78074269 0.21925731 1.00000000
v -0.78074269 0.36211445 -1.00000000
v -0.78074269 0.36211445 1.00000000
v -0.78074269 0.50497159 -1.00000000
v -0.78074269 0.50497159 1.00000000
v -0.78074269 0.64782873 -1.00000000
v -0.78074269 0.64782873 1.00000000
v -0.78074269 0.79068588 -1.00000000
v -0.78074269 0.79068588 1.00000000
v -0.78074269 0.93354302 -1.00000000
v -0.78074269 0.93354302 1.00000000
v -0.78074269 1.07640016 -1.00000000
v -0.78074269 1.07640016 1.00000000
v -0.78074269 1.14782873 -0.92857143
v -0.78074269 1.14782873 -0.78571429
v -0.78074269 1.14782873 -0.64285714
v -0.78074269 1.14782873 -0.50000000
v -0.78074269 1.14782873 -0.35714286
v -0.78074269 1.14782873 -0.21428571
v -0.78074269 1.14782873 -0.07142857
v -0.78074269 1.14782873 0.07142857
v -0.78074269 1.14782873 0.21428571
v -0.78074269 1.14782873 0.35714286
v -0.78074269 1.14782873 0.50000000
v -0.78074269 1.14782873 0.64285714
v -0.78074269 1.14782873 0.78571429
v -0.78074269 1.14782873 0.92857143
v -0.63788555 -1.06645698 -1.00000000
v -0.63788555 -1.13788555 -0.92857143
v -0.63788555 -1.13788555 -0.78571429
v -0.63788555 -1.13788555 -0.64285714
v -0.63788555 -1.13788555 -0.50000000
v -0.63788555 -1.13788555 -0.35714286
v -0.63788555 -1.13788555 -0.21428571
v -0.63788555 -1.13788555 -0.07142857
v -0.63788555 -1.13788555 0.07142857
v -0.63788555 -1.13788555 0.21428571
v -0.63788555 -1.13788555 0.35714286
v -0.63788555 -1.13788555 0.50000000
v -0.63788555 -1.13788555 0.64285714
v -0.63788555 -1.13788555 0.78571429
v -0.63788555 -1.13788555 0.92857143
v -0.63788555 -1.06645698 1.00000000
v -0.63788555 -0.92359984 -1.00000000
v -0.63788555 -0.92359984 1.00000000
v -0.63788555 -0.78074269 -1.00000000
v -0.63788555 -0.78074269 1.00000000
v -0.63788555 -0.63788555 -1.00000000
v -0.63788555 -0.63788555 1.00000000
v -0.63788555 -0.49502841 -1.00000000
v -0.63788555 -0.49502841 1.00000000
v -0.63788555 -0.35217127 -1.00000000
v -0.63788555 -0.35217127 1.00000000
v -0.63788555 -0.20931412 -1.00000000
v -0.63788555 -0.20931412 1.00000000
v -0.63788555 -0.06645698 -1.00000000
v -0.63788555 -0.06645698 1.00000000
v -0.63788555 0.07640016 -1.00000000
v -0.63788555 0.07640016 1.00000000
v -0.63788555 0.21925731 -1.00000000
v -0.63788555 0.21925731 1.00000000
v -0.63788555 0.36211445 -1.00000000
v -0.63788555 0.36211445 1.00000000
v -0.63788555 0.50497159 -1.00000000
v -0.63788555 0.50497159 1.00000000
v -0.63788555 0.64782873 -1.00000000
v -0.63788555 0.64782873 1.00000000
v -0.63788555 0.79068588 -1.00000000
v -0.63788555 0.79068588 1.00000000
v -0.63788555 0.93354302 -1.00000000
v -0.63788555 0.93354302 1.00000000
v -0.63788555 1.07640016 -1.00000000
v -0.63788555 1.07640016 1.00000000
v -0.63788555 1.14782873 -0.92857143
v -0.63788555 1.14782873 -0.78571429
v -0.63788555 1.14782873 -0.64285714
v -0.63788555 1.14782873 -0.50000000
v -0.63788555 1.14782873 -0.35714286
v -0.63788555 1.14782873 -0.21428571
v -0.63788555 1.14782873 -0.07142857
v -0.63788555 1.14782873 0.07142857
v -0.63788555 1.14782873 0.21428571
v -0.63788555 1.14782873 0.35714286
v -0.63788555 1.14782873 0.50000000
v -0.63788555 1.14782873 0.64285714
v -0.63788555 1.14782873 0.78571429
v -0.63788555 1.14782873 0.92857143
v -0.49502841 -1.06645698 -1.00000000
v -0.49502841 -1.13788555 -0.92857143
v -0.49502841 -1.13788555 -0.78571429
v -0.49502841 -1.13788555 -0.64285714
v -0.49502841 -1.13788555 -0.50000000
v -0.49502841 -1.13788555 -0.35714286
v -0.49502841 -1.13788555 -0.21428571
v -0.49502841 -1.13788555 -0.07142857
v -0.49502841 -1.13788555 0.07142857
v -0.49502841 -1.13788555 0.21428571
v -0.49502841 -1.13788555 0.35714286
v -0.49502841 -1.13788555 0.50000000
v -0.49502841 -1.13788555 0.64285714
v -0.49502841 -1.13788555 0.78571429
v -0.49502841 -1.13788555 0.92857143
v -0.49502841 -1.06645698 1.00000000
v -0.49502841 -0.92359984 -1.00000000
v -0.49502841 -0.92359984 1.00000000
v -0.49502841 -0.78074269 -1.00000000
v -0.49502841 -0.78074269 1.00000000
v -0.49502841 -0.63788555 -1.00000000
v -0.49502841 -0.63788555 1.00000000
v -0.49502841 -0.49502841 -1.00000000
v -0.49502841 -0.49502841 1.00000000
v -0.49502841 -0.35217127 -1.00000000
v -0.49502841 -0.35217127 1.00000000
v -0.49502841 -0.20931412 -1.00000000
v -0.49502841 -0.20931412 1.00000000
v -0.49502841 -0.06645698 -1.00000000
v -0.49502841 -0.06645698 1.00000000
v -0.49502841 0.07640016 -1.00000000
v -0.49502841 0.07640016 1.00000000
v -0.49502841 0.21925731 -1.00000000
v -0.49502841 0.21925731 1.00000000
v -0.49502841 0.36211445 -1.00000000
v -0.49502841 0.36211445 1.00000000
v -0.49502841 0.50497159 -1.00000000
v -0.49502841 0.50497159 1.00000000
v -0.49502841 0.64782873 -1.00000000
v -0.49502841 0.64782873 1.00000000
v -0.49502841 0.79068588 -1.00000000
v -0.49502841 0.79068588 1.00000000
v -0.49502841 0.93354302 -1.00000000
v -0.49502841 0.93354302 1.00000000
v -0.49502841 1.07640016 -1.00000000
v -0.49502841 1.07640016 1.00000000
v -0.49502841 1.14782873 -0.92857143
v -0.49502841 1.14782873 -0.78571429
v -0.49502841 1.14782873 -0.64285714
v -0.49502841 1.14782873 -0.50000000
v -0.49502841 1.14782873 -0.35714286
v -0.49502841 1.14782873 -0.21428571
v -0.49502841 1.14782873 -0.07142857
v -0.49502841 1.14782873 0.07142857
v -0.49502841 1.14782873 0.21428571
v -0.49502841 1.14782873 0.35714286
v -0.49502841 1.14782873 0.50000000
v -0.49502841 1.14782873 0.64285714
v -0.49502841 1.14782873 0.78571429
v -0.49502841 1.14782873 0.92857143
v -0.35217127 -1.06645698 -1.00000000
v -0.35217127 -1.13788555 -0.92857143
v -0.35217127 -1.13788555 -0.78571429
v -0.35217127 -1.13788555 -0.64285714
v -0.35217127 -1.13788555 -0.50000000
v -0.35217127 -1.13788555 -0.35714286
v -0.35217127 -1.13788555 -0.21428571
v -0.35217127 -1.13788555 -0.07142857
v -0.35217127 -1.13788555 0.07142857
v -0.35217127 -1.13788555 0.21428571
v -0.35217127 -1.13788555 0.35714286
v -0.35217127 -1.13788555 0.50000000
v -0.35217127 -1.13788555 0.64285714
v -0.35217127 -1.13788555 0.78571429
v -0.35217127 -1.13788555 0.92857143
v -0.35217127 -1.06645698 1.00000000
v -0.35217127 -0.92359984 -1.00000000
v -0.35217127 -0.92359984 1.00000000
v -0.35217127 -0.78074269 -1.00000000
v -0.35217127 -0.78074269 1.00000000
v -0.35217127 -0.63788555 -1.00000000
v -0.35217127 -0.63788555 1.00000000
v -0.35217127 -0.49502841 -1.00000000
v -0.35217127 -0.49502841 1.00000000
v -0.35217127 -0.35217127 -1.00000000
v -0.35217127 -0.35217127 1.00000000
v -0.35217127 -0.20931412 -1.00000000
v -0.35217127 -0.20931412 1.00000000
v -0.35217127 -0.06645698 -1.00000000
v -0.35217127 -0.06645698 1.00000000
v -0.35217127 0.07640016 -1.00000000
v -0.35217127 0.07640016 1.00000000
v -0.35217127 0.21925731 -1.00000000
v -0.35217127 0.21925731 1.00000000
v -0.35217127 0.36211445 -1.00000000
v -0.35217127 0.36211445 1.00000000
v -0.35217127 0.50497159 -1.00000000
v -0.35217127 0.50497159 1.00000000
v -0.35217127 0.64782873 -1.00000000
v -0.35217127 0.64782873 1.00000000
v -0.35217127 0.79068588 -1.00000000
v -0.35217127 0.79068588 1.00000000
v -0.35217127 0.93354302 -1.00000000
v -0.35217127 0.93354302 1.00000000
v -0.35217127 1.07640016 -1.00000000
v -0.35217127 1.07640016 1.00000000
v -0.35217127 1.14782873 -0.92857143
v -0.35217127 1.14782873 -0.78571429
v -0.35217127 1.14782873 -0.64285714
v -0.35217127 1.14782873 -0.50000000
v -0.35217127 1.14782873 -0.35714286
v -0.35217127 1.14782873 -0.21428571
v -0.35217127 1.14782873 -0.07142857
v -0.35217127 1.14782873 0.07142857
v -0.35217127 1.14782873 0.21428571
v -0.35217127 1.14782873 0.35714286
v -0.35217127 1.14782873 0.50000000
v -0.35217127 1.14782873 0.64285714
v -0.35217127 1.14782873 0.78571429
v -0.35217127 1.14782873 0.92857143
v -0.20931412 -1.06645698 -1.00000000
v -0.20931412 -1.13788555 -0.92857143
v -0.20931412 -1.13788555 -0.78571429
v -0.20931412 -1.13788555 -0.64285714
v -0.20931412 -1.13788555 -0.50000000
v -0.20931412 -1.13788555 -0.35714286
v -0.20931412 -1.13788555 -0.21428571
v -0.20931412 -1.13788555 -0.07142857
v -0.20931412 -1.13788555 0.07142857
v -0.20931412 -1.13788555 0.21428571
v -0.20931412 -1.13788555 0.35714286
v -0.20931412 -1.13788555 0.50000000
v -0.20931412 -1.13788555 0.64285714
v -0.20931412 -1.13788555 0.78571429
v -0.20931412 -1.13788555 0.92857143
v -0.20931412 -1.06645698 1.00000000
v -0.20931412 -0.92359984 -1.00000000
v -0.20931412 -0.92359984 1.00000000
v -0.20931412 -0.78074269 -1.00000000
v -0.20931412 -0.78074269 1.00000000
v -0.20931412 -0.63788555 -1.00000000
v -0.20931412 -0.63788555 1.00000000
v -0.20931412 -0.49502841 -1.00000000
v -0.20931412 -0.49502841 1.00000000
v -0.20931412 -0.35217127 -1.00000000
v -0.20931412 -0.35217127 1.00000000
v -0.20931412 -0.20931412 -1.00000000
v -0.20931412 -0.20931412 1.00000000
v -0.20931412 -0.06645698 -1.00000000
v -0.20931412 -0.06645698 1.00000000
v -0.20931412 0.07640016 -1.00000000
v -0.20931412 0.07640016 1.00000000
v -0.20931412 0.21925731 -1.00000000
v -0.20931412 0.21925731 1.00000000
v -0.20931412 0.36211445 -1.00000000
v -0.20931412 0.36211445 1.00000000
v -0.20931412 0.50497159 -1.00000000
v -0.20931412 0.50497159 1.00000000
v -0.20931412 0.64782873 -1.00000000
v -0.20931412 0.64782873 1.00000000
v -0.20931412 0.79068588 -1.00000000
v -0.20931412 0.79068588 1.00000000
v -0.20931412 0.93354302 -1.00000000
v -0.20931412 0.93354302 1.00000000
v -0.20931412 1.07640016 -1.00000000
v -0.20931412 1.07640016 1.00000000
v -0.20931412 1.14782873 -0.92857143
v -0.20931412 1.14782873 -0.78571429
v -0.20931412 1.14782873 -0.64285714
v -0.20931412 1.14782873 -0.50000000
v -0.20931412 1.14782873 -0.35714286
v -0.20931412 1.14782873 -0.21428571
v -0.20931412 1.14782873 -0.07142857
v -0.20931412 1.14782873 0.07142857
v -0.20931412 1.14782873 0.21428571
v -0.20931412 1.14782873 0.35714286
v -0.20931412 1.14782873 0.50000000
v -0.20931412 1.14782873 0.64285714
v -0.20931412 1.14782873 0.78571429
v -0.20931412 1.14782873 0.92857143
v -0.06645698 -1.06645698 -1.00000000
v -0.06645698 -1.13788555 -0.92857143
v -0.06645698 -1.13788555 -0.78571429
v -0.06645698 -1.13788555 -0.64285714
v -0.06645698 -1.13788555 -0.50000000
v -0.06645698 -1.13788555 -0.35714286
v -0.06645698 -1.13788555 -0.21428571
v -0.06645698 -1.13788555 -0.07142857
v -0.06645698 -1.13788555 0.07142857
v -0.06645698 -1.13788555 0.21428571
v -0.06645698 -1.13788555 0.35714286
v -0.06645698 -1.13788555 0.50000000
v -0.06645698 -1.13788555 0.64285714
v -0.06645698 -1.13788555 0.78571429
v -0.06645698 -1.13788555 0.92857143
v -0.06645698 -1.06645698 1.00000000
v -0.06645698 -0.92359984 -1.00000000
v -0.06645698 -0.92359984 1.00000000
v -0.06645698 -0.78074269 -1.00000000
v -0.06645698 -0.78074269 1.00000000
v -0.06645698 -0.63788555 -1.00000000
v -0.06645698 -0.63788555 1.00000000
v -0.06645698 -0.49502841 -1.00000000
v -0.06645698 -0.49502841 1.00000000
v -0.06645698 -0.35217127 -1.00000000
v -0.06645698 -0.35217127 1.00000000
v -0.06645698 -0.20931412 -1.00000000
v -0.06645698 -0.20931412 1.00000000
v -0.06645698 -0.06645698 -1.00000000
v -0.06645698 -0.06645698 1.00000000
v -0.06645698 0.07640016 -1.00000000
v -0.06645698 0.07640016 1.00000000
v -0.06645698 0.21925731 -1.00000000
v -0.06645698 0.21925731 1.00000000
v -0.06645698 0.36211445 -1.00000000
v -0.06645698 0.36211445 1.00000000
v -0.06645698 0.50497159 -1.00000000
v -0.06645698 0.50497159 1.00000000
v -0.06645698 0.64782873 -1.00000000
v -0.06645698 0.64782873 1.00000000
v -0.06645698 0.79068588 -1.00000000
v -0.06645698 0.79068588 1.00000000
v -0.06645698 0.93354302 -1.00000000
v -0.06645698 0.93354302 1.00000000
v -0.06645698 1.07640016 -1.00000000
v -0.06645698 1.07640016 1.00000000
v -0.06645698 1.14782873 -0.92857143
v -0.06645698 1.14782873 -0.78571429
v -0.06645698 1.14782873 -0.64285714
v -0.06645698 1.14782873 -0.50000000
v -0.06645698 1.14782873 -0.35714286
v -0.06645698 1.14782873 -0.21428571
v -0.06645698 1.14782873 -0.07142857
v -0.06645698 1.14782873 0.07142857
v -0.06645698 1.14782873 0.21428571
v -0.06645698 1.14782873 0.35714286
v -0.06645698 1.14782873 0.50000000
v -0.06645698 1.14782873 0.64285714
v -0.06645698 1.14782873 0.78571429
v -0.06645698 1.14782873 0.92857143
v 0.07640016 -1.06645698 -1.00000000
v 0.07640016 -1.13788555 -0.92857143
v 0.07640016 -1.13788555 -0.78571429
v 0.07640016 -1.13788555 -0.64285714
v 0.07640016 -1.13788555 -0.50000000
v 0.07640016 -1.13788555 -0.35714286
v 0.07640016 -1.13788555 -0.21428571
v 0.07640016 -1.13788555 -0.07142857
v 0.07640016 -1.13788555 0.07142857
v 0.07640016 -1.13788555 0.21428571
v 0.07640016 -1.13788555 0.35714286
v 0.07640016 -1.13788555 0.50000000
v 0.07640016 -1.13788555 0.64285714
v 0.07640016 -1.13788555 0.78571429
v 0.07640016 -1.13788555 0.92857143
v 0.07640016 -1.06645698 1.00000000
v 0.07640016 -0.92359984 -1.00000000
v 0.07640016 -0.92359984 1.00000000
v 0.07640016 -0.78074269 -1.00000000
v 0.07640016 -0.78074269 1.00000000
v 0.07640016 -0.63788555 -1.00000000
v 0.07640016 -0.63788555 1.00000000
v 0.07640016 -0.49502841 -1.00000000
v 0.07640016 -0.49502841 1.00000000
v 0.07640016 -0.35217127 -1.00000000
v 0.07640016 -0.35217127 1.00000000
v 0.07640016 -0.20931412 -1.00000000
v 0.07640016 -0.20931412 1.00000000
v 0.07640016 -0.06645698 -1.00000000
v 0.07640016 -0.06645698 1.00000000
v 0.07640016 0.07640016 -1.00000000
v 0.07640016 0.07640016 1.00000000
v 0.07640016 0.21925731 -1.00000000
v 0.07640016 0.21925731 1.00000000
v 0.07640016 0.36211445 -1.00000000
v 0.07640016 0.36211445 1.00000000
v 0.07640016 0.50497159 -1.00000000
v 0.07640016 0.50497159 1.00000000
v 0.07640016 0.64782873 -1.00000000
v 0.07640016 0.64782873 1.00000000
v 0.07640016 0.79068588 -1.00000000
v 0.07640016 0.79068588 1.00000000
v 0.07640016 0.93354302 -1.00000000
v 0.07640016 0.93354302 1.00000000
v 0.07640016 1.07640016 -1.00000000
v 0.07640016 1.07640016 1.00000000
v 0.07640016 1.14782873 -0.92857143
v 0.07640016 1.14782873 -0.78571429
v 0.07640016 1.14782873 -0.64285714
v 0.07640016 1.14782873 -0.50000000
v 0.07640016 1.14782873 -0.35714286
v 0.07640016 1.14782873 -0.21428571
v 0.07640016 1.14782873 -0.07142857
v 0.07640016 1.14782873 0.07142857
v 0.07640016 1.14782873 0.21428571
v 0.07640016 1.14782873 0.35714286
v 0.07640016 1.14782873 0.50000000
v 0.07640016 1.14782873 0.64285714
v 0.07640016 1.14782873 0.78571429
v 0.07640016 1.14782873 0.92857143
v 0.21925731 -1.06645698 -1.00000000
v 0.21925731 -1.13788555 -0.92857143
v 0.21925731 -1.13788555 -0.78571429
v 0.21925731 -1.13788555 -0.64285714
v 0.21925731 -1.13788555 -0.50000000
v 0.21925731 -1.13788555 -0.35714286
v 0.21925731 -1.13788555 -0.21428571
v 0.21925731 -1.13788555 -0.07142857
v 0.21925731 -1.13788555 0.07142857
v 0.21925731 -1.13788555 0.21428571
v 0.21925731 -1.13788555 0.35714286
v 0.21925731 -1.13788555 0.50000000
v 0.21925731 -1.13788555 0.64285714
v 0.21925731 -1.13788555 0.78571429
v 0.21925731 -1.13788555 0.92857143
v 0.21925731 -1.06645698 1.00000000
v 0.21925731 -0.92359984 -1.00000000
v 0.21925731 -0.92359984 1.00000000
v 0.21925731 -0.78074269 -1.00000000
v 0.21925731 -0.78074269 1.00000000
v 0.21925731 -0.63788555 -1.00000000
v 0.21925731 -0.63788555 1.00000000
v 0.21925731 -0.49502841 -1.00000000
v 0.21925731 -0.49502841 1.00000000
v 0.21925731 -0.35217127 -1.00000000
v 0.21925731 -0.35217127 1.00000000
v 0.21925731 -0.20931412 -1.00000000
v 0.21925731 -0.20931412 1.00000000
v 0.21925731 -0.06645698 -1.00000000
v 0.21925731 -0.06645698 1.00000000
v 0.21925731 0.07640016 -1.00000000
v 0.21925731 0.07640016 1.00000000
v 0.21925731 0.21925731 -1.00000000
v 0.21925731 0.21925731 1.00000000
v 0.21925731 0.36211445 -1.00000000
v 0.21925731 0.36211445 1.00000000
v 0.21925731 0.50497159 -1.00000000
v 0.21925731 0.50497159 1.00000000
v 0.21925731 0.64782873 -1.00000000
v 0.21925731 0.64782873 1.00000000
v 0.21925731 0.79068588 -1.00000000
v 0.21925731 0.79068588 1.00000000
v 0.21925731 0.93354302 -1.00000000
v 0.21925731 0.93354302 1.00000000
v 0.21925731 1.07640016 -1.00000000
v 0.14782873 1.07640016 0.92857143
v 0.21925731 1.00497159 0.92857143
v 0.21925731 1.07640016 0.85714286
v 0.21925731 1.14782873 -0.92857143
v 0.21925731 1.14782873 -0.78571429
v 0.21925731 1.14782873 -0.64285714
v 0.21925731 1.14782873 -0.50000000
v 0.21925731 1.14782873 -0.35714286
v 0.21925731 1.14782873 -0.21428571
v 0.21925731 1.14782873 -0.07142857
v 0.21925731 1.14782873 0.07142857
v 0.21925731 1.14782873 0.21428571
v 0.21925731 1.14782873 0.35714286
v 0.21925731 1.14782873 0.50000000
v 0.21925731 1.14782873 0.64285714
v 0.21925731 1.14782873 0.78571429
v 0.36211445 -1.06645698 -1.00000000
v 0.36211445 -1.13788555 -0.92857143
v 0.36211445 -1.13788555 -0.78571429
v 0.36211445 -1.13788555 -0.64285714
v 0.36211445 -1.13788555 -0.50000000
v 0.36211445 -1.13788555 -0.35714286
v 0.36211445 -1.13788555 -0.21428571
v 0.36211445 -1.13788555 -0.07142857
v 0.36211445 -1.13788555 0.07142857
v 0.36211445 -1.13788555 0.21428571
v 0.36211445 -1.13788555 0.35714286
v 0.36211445 -1.13788555 0.50000000
v 0.36211445 -1.13788555 0.64285714
v 0.36211445 -1.13788555 0.78571429
v 0.36211445 -1.13788555 0.92857143
v 0.36211445 -1.06645698 1.00000000
v 0.36211445 -0.92359984 -1.00000000
v 0.36211445 -0.92359984 1.00000000
v 0.36211445 -0.78074269 -1.00000000
v 0.36211445 -0.78074269 1.00000000
v 0.36211445 -0.63788555 -1.00000000
v 0.36211445 -0.63788555 1.00000000
v 0.36211445 -0.49502841 -1.00000000
v 0.36211445 -0.49502841 1.00000000
v 0.36211445 -0.35217127 -1.00000000
v 0.36211445 -0.35217127 1.00000000
v 0.36211445 -0.20931412 -1.00000000
v 0.36211445 -0.20931412 1.00000000
v 0.36211445 -0.06645698 -1.00000000
v 0.36211445 -0.06645698 1.00000000
v 0.36211445 0.07640016 -1.00000000
v 0.36211445 0.07640016 1.00000000
v 0.36211445 0.21925731 -1.00000000
v 0.36211445 0.21925731 1.00000000
v 0.36211445 0.36211445 -1.00000000
v 0.36211445 0.36211445 1.00000000
v 0.36211445 0.50497159 -1.00000000
v 0.36211445 0.50497159 1.00000000
v 0.36211445 0.64782873 -1.00000000
v 0.36211445 0.64782873 1.00000000
v 0.36211445 0.79068588 -1.00000000
v 0.36211445 0.79068588 1.00000000
v 0.36211445 0.93354302 -1.00000000
v 0.36211445 0.93354302 1.00000000
v 0.36211445 1.07640016 -1.00000000
v 0.29068588 1.07640016 0.78571429
v 0.36211445 1.00497159 0.78571429
v 0.36211445 1.07640016 0.71428571
v 0.36211445 1.00497159 0.92857143
v 0.36211445 1.14782873 -0.92857143
v 0.36211445 1.14782873 -0.78571429
v 0.36211445 1.14782873 -0.64285714
v 0.36211445 1.14782873 -0.50000000
v 0.36211445 1.14782873 -0.35714286
v 0.36211445 1.14782873 -0.21428571
v 0.36211445 1.14782873 -0.07142857
v 0.36211445 1.14782873 0.07142857
v 0.36211445 1.14782873 0.21428571
v 0.36211445 1.14782873 0.35714286
v 0.36211445 1.14782873 0.50000000
v 0.36211445 1.14782873 0.64285714
v 0.50497159 -1.06645698 -1.00000000
v 0.50497159 -1.13788555 -0.92857143
v 0.50497159 -1.13788555 -0.78571429
v 0.50497159 -1.13788555 -0.64285714
v 0.50497159 -1.13788555 -0.50000000
v 0.50497159 -1.13788555 -0.35714286
v 0.50497159 -1.13788555 -0.21428571
v 0.50497159 -1.13788555 -0.07142857
v 0.50497159 -1.13788555 0.07142857
v 0.50497159 -1.13788555 0.21428571
v 0.50497159 -1.13788555 0.35714286
v 0.50497159 -1.13788555 0.50000000
v 0.50497159 -1.13788555 0.64285714
v 0.50497159 -1.13788555 0.78571429
v 0.50497159 -1.13788555 0.92857143
v 0.50497159 -1.06645698 1.00000000
v 0.50497159 -0.92359984 -1.00000000
v 0.50497159 -0.92359984 1.00000000
v 0.50497159 -0.78074269 -1.00000000
v 0.50497159 -0.78074269 1.00000000
v 0.50497159 -0.63788555 -1.00000000
v 0.50497159 -0.63788555 1.00000000
v 0.50497159 -0.49502841 -1.00000000
v 0.50497159 -0.49502841 1.00000000
v 0.50497159 -0.35217127 -1.00000000
v 0.50497159 -0.35217127 1.00000000
v 0.50497159 -0.20931412 -1.00000000
v 0.50497159 -0.20931412 1.00000000
v 0.50497159 -0.06645698 -1.00000000
v 0.50497159 -0.06645698 1.00000000
v 0.50497159 0.07640016 -1.00000000
v 0.50497159 0.07640016 1.00000000
v 0.50497159 0.21925731 -1.00000000
v 0.50497159 0.21925731 1.00000000
v 0.50497159 0.36211445 -1.00000000
v 0.50497159 0.36211445 1.00000000
v 0.50497159 0.50497159 -1.00000000
v 0.50497159 0.50497159 1.00000000
v 0.50497159 0.64782873 -1.00000000
v 0.50497159 0.64782873 1.00000000
v 0.50497159 0.79068588 -1.00000000
v 0.50497159 0.79068588 1.00000000
v 0.50497159 0.93354302 -1.00000000
v 0.43354302 0.93354302 0.92857143
v 0.50497159 0.86211445 0.92857143
v 0.50497159 0.93354302 0.85714286
v 0.50497159 1.07640016 -1.00000000
v 0.50497159 1.00497159 0.78571429
v 0.50497159 1.07640016 0.71428571
v 0.50497159 1.14782873 -0.92857143
v 0.50497159 1.14782873 -0.78571429
v 0.50497159 1.14782873 -0.64285714
v 0.50497159 1.14782873 -0.50000000
v 0.50497159 1.14782873 -0.35714286
v 0.50497159 1.14782873 -0.21428571
v 0.50497159 1.14782873 -0.07142857
v 0.50497159 1.14782873 0.07142857
v 0.50497159 1.14782873 0.21428571
v 0.50497159 1.14782873 0.35714286
v 0.50497159 1.14782873 0.50000000
v 0.50497159 1.14782873 0.64285714
v 0.64782873 -1.06645698 -1.00000000
v 0.64782873 -1.13788555 -0.92857143
v 0.64782873 -1.13788555 -0.78571429
v 0.64782873 -1.13788555 -0.64285714
v 0.64782873 -1.13788555 -0.50000000
v 0.64782873 -1.13788555 -0.35714286
v 0.64782873 -1.13788555 -0.21428571
v 0.64782873 -1.13788555 -0.07142857
v 0.64782873 -1.13788555 0.07142857
v 0.64782873 -1.13788555 0.21428571
v 0.64782873 -1.13788555 0.35714286
v 0.64782873 -1.13788555 0.50000000
v 0.64782873 -1.13788555 0.64285714
v 0.64782873 -1.13788555 0.78571429
v 0.64782873 -1.13788555 0.92857143
v 0.64782873 -1.06645698 1.00000000
v 0.64782873 -0.92359984 -1.00000000
v 0.64782873 -0.92359984 1.00000000
v 0.64782873 -0.78074269 -1.00000000
v 0.64782873 -0.78074269 1.00000000
v 0.64782873 -0.63788555 -1.00000000
v 0.64782873 -0.63788555 1.00000000
v 0.64782873 -0.49502841 -1.00000000
v 0.64782873 -0.49502841 1.00000000
v 0.64782873 -0.35217127 -1.00000000
v 0.64782873 -0.35217127 1.00000000
v 0.64782873 -0.20931412 -1.00000000
v 0.64782873 -0.20931412 1.00000000
v 0.64782873 -0.06645698 -1.00000000
v 0.64782873 -0.06645698 1.00000000
v 0.64782873 0.07640016 -1.00000000
v 0.64782873 0.07640016 1.00000000
v 0.64782873 0.21925731 -1.00000000
v 0.64782873 0.21925731 1.00000000
v 0.64782873 0.36211445 -1.00000000
v 0.64782873 0.36211445 1.00000000
v 0.64782873 0.50497159 -1.00000000
v 0.64782873 0.50497159 1.00000000
v 0.64782873 0.64782873 -1.00000000
v 0.64782873 0.64782873 1.00000000
v 0.64782873 0.79068588 -1.00000000
v 0.57640016 0.79068588 0.92857143
v 0.64782873 0.71925731 0.92857143
v 0.64782873 0.79068588 0.85714286
v 0.64782873 0.93354302 -1.00000000
v 0.57640016 0.93354302 0.78571429
v 0.64782873 0.86211445 0.78571429
v 0.64782873 0.93354302 0.71428571
v 0.64782873 1.07640016 -1.00000000
v 0.57640016 1.07640016 0.64285714
v 0.64782873 1.00497159 0.64285714
v 0.64782873 1.07640016 0.57142857
v 0.64782873 1.14782873 -0.92857143
v 0.64782873 1.14782873 -0.78571429
v 0.64782873 1.14782873 -0.64285714
v 0.64782873 1.14782873 -0.50000000
v 0.64782873 1.14782873 -0.35714286
v 0.64782873 1.14782873 -0.21428571
v 0.64782873 1.14782873 -0.07142857
v 0.64782873 1.14782873 0.07142857
v 0.64782873 1.14782873 0.21428571
v 0.64782873 1.14782873 0.35714286
v 0.64782873 1.14782873 0.50000000
v 0.79068588 -1.06645698 -1.00000000
v 0.79068588 -1.13788555 -0.92857143
v 0.79068588 -1.13788555 -0.78571429
v 0.79068588 -1.13788555 -0.64285714
v 0.79068588 -1.13788555 -0.50000000
v 0.79068588 -1.13788555 -0.35714286
v 0.79068588 -1.13788555 -0.21428571
v 0.79068588 -1.13788555 -0.07142857
v 0.79068588 -1.13788555 0.07142857
v 0.79068588 -1.13788555 0.21428571
v 0.79068588 -1.13788555 0.35714286
v 0.79068588 -1.13788555 0.50000000
v 0.79068588 -1.13788555 0.64285714
v 0.79068588 -1.13788555 0.78571429
v 0.79068588 -1.13788555 0.92857143
v 0.79068588 -1.06645698 1.00000000
v 0.79068588 -0.92359984 -1.00000000
v 0.79068588 -0.92359984 1.00000000
v 0.79068588 -0.78074269 -1.00000000
v 0.79068588 -0.78074269 1.00000000
v 0.79068588 -0.63788555 -1.00000000
v 0.79068588 -0.63788555 1.00000000
v 0.79068588 -0.49502841 -1.00000000
v 0.79068588 -0.49502841 1.00000000
v 0.79068588 -0.35217127 -1.00000000
v 0.79068588 -0.35217127 1.00000000
v 0.79068588 -0.20931412 -1.00000000
v 0.79068588 -0.20931412 1.00000000
v 0.79068588 -0.06645698 -1.00000000
v 0.79068588 -0.06645698 1.00000000
v 0.79068588 0.07640016 -1.00000000
v 0.79068588 0.07640016 1.00000000
v 0.79068588 0.21925731 -1.00000000
v 0.79068588 0.21925731 1.00000000
v 0.79068588 0.36211445 -1.00000000
v 0.79068588 0.36211445 1.00000000
v 0.79068588 0.50497159 -1.00000000
v 0.79068588 0.50497159 1.00000000
v 0.79068588 0.64782873 -1.00000000
v 0.79068588 0.64782873 1.00000000
v 0.79068588 0.79068588 -1.00000000
v 0.71925731 0.79068588 0.78571429
v 0.79068588 0.71925731 0.78571429
v 0.79068588 0.79068588 0.71428571
v 0.79068588 0.71925731 0.92857143
v 0.79068588 0.93354302 -1.00000000
v 0.71925731 0.93354302 0.64285714
v 0.79068588 0.86211445 0.64285714
v 0.79068588 0.93354302 0.57142857
v 0.79068588 1.07640016 -1.00000000
v 0.71925731 1.07640016 0.50000000
v 0.79068588 1.00497159 0.50000000
v 0.79068588 1.07640016 0.42857143
v 0.79068588 1.14782873 -0.92857143
v 0.79068588 1.14782873 -0.78571429
v 0.79068588 1.14782873 -0.64285714
v 0.79068588 1.14782873 -0.50000000
v 0.79068588 1.14782873 -0.35714286
v 0.79068588 1.14782873 -0.21428571
v 0.79068588 1.14782873 -0.07142857
v 0.79068588 1.14782873 0.07142857
v 0.79068588 1.14782873 0.21428571
v 0.79068588 1.14782873 0.35714286
v 0.93354302 -1.06645698 -1.00000000
v 0.93354302 -1.13788555 -0.92857143
v 0.93354302 -1.13788555 -0.78571429
v 0.93354302 -1.13788555 -0.64285714
v 0.93354302 -1.13788555 -0.50000000
v 0.93354302 -1.13788555 -0.35714286
v 0.93354302 -1.13788555 -0.21428571
v 0.93354302 -1.13788555 -0.07142857
v 0.93354302 -1.13788555 0.07142857
v 0.93354302 -1.13788555 0.21428571
v 0.93354302 -1.13788555 0.35714286
v 0.93354302 -1.13788555 0.50000000
v 0.93354302 -1.13788555 0.64285714
v 0.93354302 -1.13788555 0.78571429
v 0.93354302 -1.13788555 0.92857143
v 0.93354302 -1.06645698 1.00000000
v 0.93354302 -0.92359984 -1.00000000
v 0.93354302 -0.92359984 1.00000000
v 0.93354302 -0.78074269 -1.00000000
v 0.93354302 -0.78074269 1.00000000
v 0.93354302 -0.63788555 -1.00000000
v 0.93354302 -0.63788555 1.00000000
v 0.93354302 -0.49502841 -1.00000000
v 0.93354302 -0.49502841 1.00000000
v 0.93354302 -0.35217127 -1.00000000
v 0.93354302 -0.35217127 1.00000000
v 0.93354302 -0.20931412 -1.00000000
v 0.93354302 -0.20931412 1.00000000
v 0.93354302 -0.06645698 -1.00000000
v 0.93354302 -0.06645698 1.00000000
v 0.93354302 0.07640016 -1.00000000
v 0.93354302 0.07640016 1.00000000
v 0.93354302 0.21925731 -1.00000000
v 0.93354302 0.21925731 1.00000000
v 0.93354302 0.36211445 -1.00000000
v 0.93354302 0.36211445 1.00000000
v 0.93354302 0.50497159 -1.00000000
v 0.93354302 0.50497159 1.00000000
v 0.93354302 0.64782873 -1.00000000
v 0.86211445 0.64782873 0.92857143
v 0.93354302 0.57640016 0.92857143
v 0.93354302 0.64782873 0.85714286
v 0.93354302 0.79068588 -1.00000000
v 0.86211445 0.79068588 0.64285714
v 0.93354302 0.71925731 0.64285714
v 0.93354302 0.79068588 0.57142857
v 0.93354302 0.71925731 0.78571429
v 0.93354302 0.93354302 -1.00000000
v 0.86211445 0.93354302 0.50000000
v 0.93354302 0.86211445 0.50000000
v 0.93354302 0.93354302 0.42857143
v 0.93354302 1.07640016 -1.00000000
v 0.86211445 1.07640016 0.35714286
v 0.93354302 1.00497159 0.35714286
v 0.93354302 1.07640016 0.28571429
v 0.93354302 1.14782873 -0.92857143
v 0.93354302 1.14782873 -0.78571429
v 0.93354302 1.14782873 -0.64285714
v 0.93354302 1.14782873 -0.50000000
v 0.93354302 1.14782873 -0.35714286
v 0.93354302 1.14782873 -0.21428571
v 0.93354302 1.14782873 -0.07142857
v 0.93354302 1.14782873 0.07142857
v 0.93354302 1.14782873 0.21428571
v 1.07640016 -1.06645698 -1.00000000
v 1.07640016 -1.13788555 -0.92857143
v 1.07640016 -1.13788555 -0.78571429
v 1.07640016 -1.13788555 -0.64285714
v 1.07640016 -1.13788555 -0.50000000
v 1.07640016 -1.13788555 -0.35714286
v 1.07640016 -1.13788555 -0.21428571
v 1.07640016 -1.13788555 -0.07142857
v 1.07640016 -1.13788555 0.07142857
v 1.07640016 -1.13788555 0.21428571
v 1.07640016 -1.13788555 0.35714286
v 1.07640016 -1.13788555 0.50000000
v 1.07640016 -1.13788555 0.64285714
v 1.07640016 -1.13788555 0.78571429
v 1.07640016 -1.13788555 0.92857143
v 1.07640016 -1.06645698 1.00000000
v 1.07640016 -0.92359984 -1.00000000
v 1.07640016 -0.92359984 1.00000000
v 1.07640016 -0.78074269 -1.00000000
v 1.07640016 -0.78074269 1.00000000
v 1.07640016 -0.63788555 -1.00000000
v 1.07640016 -0.63788555 1.00000000
v 1.07640016 -0.49502841 -1.00000000
v 1.07640016 -0.49502841 1.00000000
v 1.07640016 -0.35217127 -1.00000000
v 1.07640016 -0.35217127 1.00000000
v 1.07640016 -0.20931412 -1.00000000
v 1.07640016 -0.20931412 1.00000000
v 1.07640016 -0.06645698 -1.00000000
v 1.07640016 -0.06645698 1.00000000
v 1.07640016 0.07640016 -1.00000000
v 1.07640016 0.07640016 1.00000000
v 1.07640016 0.21925731 -1.00000000
v 1.07640016 0.21925731 1.00000000
v 1.07640016 0.36211445 -1.00000000
v 1.07640016 0.36211445 1.00000000
v 1.07640016 0.50497159 -1.00000000
v 1.00497159 0.50497159 0.92857143
v 1.07640016 0.43354302 0.92857143
v 1.07640016 0.50497159 0.85714286
v 1.07640016 0.64782873 -1.00000000
v 1.00497159 0.64782873 0.78571429
v 1.07640016 0.57640016 0.78571429
v 1.07640016 0.64782873 0.71428571
v 1.07640016 0.79068588 -1.00000000
v 1.07640016 0.71925731 0.64285714
v 1.07640016 0.79068588 0.57142857
v 1.07640016 0.93354302 -1.00000000
v 1.00497159 0.93354302 0.35714286
v 1.07640016 0.86211445 0.35714286
v 1.07640016 0.93354302 0.28571429
v 1.07640016 0.86211445 0.50000000
v 1.07640016 1.07640016 -1.00000000
v 1.00497159 1.07640016 0.21428571
v 1.07640016 1.00497159 0.21428571
v 1.07640016 1.07640016 0.14285714
v 1.07640016 1.14782873 -0.92857143
v 1.07640016 1.14782873 -0.78571429
v 1.07640016 1.14782873 -0.64285714
v 1.07640016 1.14782873 -0.50000000
v 1.07640016 1.14782873 -0.35714286
v 1.07640016 1.14782873 -0.21428571
v 1.07640016 1.14782873 -0.07142857
v 1.07640016 1.14782873 0.07142857
v 1.14782873 -1.06645698 -0.92857143
v 1.14782873 -1.06645698 -0.78571429
v 1.14782873 -1.06645698 -0.64285714
v 1.14782873 -1.06645698 -0.50000000
v 1.14782873 -1.06645698 -0.35714286
v 1.14782873 -1.06645698 -0.21428571
v 1.14782873 -1.06645698 -0.07142857
v 1.14782873 -1.06645698 0.07142857
v 1.14782873 -1.06645698 0.21428571
v 1.14782873 -1.06645698 0.35714286
v 1.14782873 -1.06645698 0.50000000
v 1.14782873 -1.06645698 0.64285714
v 1.14782873 -1.06645698 0.78571429
v 1.14782873 -1.06645698 0.92857143
v 1.14782873 -0.92359984 -0.92857143
v 1.14782873 -0.92359984 -0.78571429
v 1.14782873 -0.92359984 -0.64285714
v 1.14782873 -0.92359984 -0.50000000
v 1.14782873 -0.92359984 -0.35714286
v 1.14782873 -0.92359984 -0.21428571
v 1.14782873 -0.92359984 -0.07142857
v 1.14782873 -0.92359984 0.07142857
v 1.14782873 -0.92359984 0.21428571
v 1.14782873 -0.92359984 0.35714286
v 1.14782873 -0.92359984 0.50000000
v 1.14782873 -0.92359984 0.64285714
v 1.14782873 -0.92359984 0.78571429
v 1.14782873 -0.92359984 0.92857143
v 1.14782873 -0.78074269 -0.92857143
v 1.14782873 -0.78074269 -0.78571429
v 1.14782873 -0.78074269 -0.64285714
v 1.14782873 -0.78074269 -0.50000000
v 1.14782873 -0.78074269 -0.35714286
v 1.14782873 -0.78074269 -0.21428571
v 1.14782873 -0.78074269 -0.07142857
v 1.14782873 -0.78074269 0.07142857
v 1.14782873 -0.78074269 0.21428571
v 1.14782873 -0.78074269 0.35714286
v 1.14782873 -0.78074269 0.50000000
v 1.14782873 -0.78074269 0.64285714
v 1.14782873 -0.78074269 0.78571429
v 1.14782873 -0.78074269 0.92857143
v 1.14782873 -0.63788555 -0.92857143
v 1.14782873 -0.63788555 -0.78571429
v 1.14782873 -0.63788555 -0.64285714
v 1.14782873 -0.63788555 -0.50000000
v 1.14782873 -0.63788555 -0.35714286
v 1.14782873 -0.63788555 -0.21428571
v 1.14782873 -0.63788555 -0.07142857
v 1.14782873 -0.63788555 0.07142857
v 1.14782873 -0.63788555 0.21428571
v 1.14782873 -0.63788555 0.35714286
v 1.14782873 -0.63788555 0.50000000
v 1.14782873 -0.63788555 0.64285714
v 1.14782873 -0.63788555 0.78571429
v 1.14782873 -0.63788555 0.92857143
v 1.14782873 -0.49502841 -0.92857143
v 1.14782873 -0.49502841 -0.78571429
v 1.14782873 -0.49502841 -0.64285714
v 1.14782873 -0.49502841 -0.50000000
v 1.14782873 -0.49502841 -0.35714286
v 1.14782873 -0.49502841 -0.21428571
v 1.14782873 -0.49502841 -0.07142857
v 1.14782873 -0.49502841 0.07142857
v 1.14782873 -0.49502841 0.21428571
v 1.14782873 -0.49502841 0.35714286
v 1.14782873 -0.49502841 0.50000000
v 1.14782873 -0.49502841 0.64285714
v 1.14782873 -0.49502841 0.78571429
v 1.14782873 -0.49502841 0.92857143
v 1.14782873 -0.35217127 -0.92857143
v 1.14782873 -0.35217127 -0.78571429
v 1.14782873 -0.35217127 -0.64285714
v 1.14782873 -0.35217127 -0.50000000
v 1.14782873 -0.35217127 -0.35714286
v 1.14782873 -0.35217127 -0.21428571
v 1.14782873 -0.35217127 -0.07142857
v 1.14782873 -0.35217127 0.07142857
v 1.14782873 -0.35217127 0.21428571
v 1.14782873 -0.35217127 0.35714286
v 1.14782873 -0.35217127 0.50000000
v 1.14782873 -0.35217127 0.64285714
v 1.14782873 -0.35217127 0.78571429
v 1.14782873 -0.35217127 0.92857143
v 1.14782873 -0.20931412 -0.92857143
v 1.14782873 -0.20931412 -0.78571429
v 1.14782873 -0.20931412 -0.64285714
v 1.14782873 -0.20931412 -0.50000000
v 1.14782873 -0.20931412 -0.35714286
v 1.14782873 -0.20931412 -0.21428571
v 1.14782873 -0.20931412 -0.07142857
v 1.14782873 -0.20931412 0.07142857
v 1.14782873 -0.20931412 0.21428571
v 1.14782873 -0.20931412 0.35714286
v 1.14782873 -0.20931412 0.50000000
v 1.14782873 -0.20931412 0.64285714
v 1.14782873 -0.20931412 0.78571429
v 1.14782873 -0.20931412 0.92857143
v 1.14782873 -0.06645698 -0.92857143
v 1.14782873 -0.06645698 -0.78571429
v 1.14782873 -0.06645698 -0.64285714
v 1.14782873 -0.06645698 -0.50000000
v 1.14782873 -0.06645698 -0.35714286
v 1.14782873 -0.06645698 -0.21428571
v 1.14782873 -0.06645698 -0.07142857
v 1.14782873 -0.06645698 0.07142857
v 1.14782873 -0.06645698 0.21428571
v 1.14782873 -0.06645698 0.35714286
v 1.14782873 -0.06645698 0.50000000
v 1.14782873 -0.06645698 0.64285714
v 1.14782873 -0.06645698 0.78571429
v 1.14782873 -0.06645698 0.92857143
v 1.14782873 0.07640016 -0.92857143
v 1.14782873 0.07640016 -0.78571429
v 1.14782873 0.07640016 -0.64285714
v 1.14782873 0.07640016 -0.50000000
v 1.14782873 0.07640016 -0.35714286
v 1.14782873 0.07640016 -0.21428571
v 1.14782873 0.07640016 -0.07142857
v 1.14782873 0.07640016 0.07142857
v 1.14782873 0.07640016 0.21428571
v 1.14782873 0.07640016 0.35714286
v 1.14782873 0.07640016 0.50000000
v 1.14782873 0.07640016 0.64285714
v 1.14782873 0.07640016 0.78571429
v 1.14782873 0.07640016 0.92857143
v 1.14782873 0.21925731 -0.92857143
v 1.14782873 0.21925731 -0.78571429
v 1.14782873 0.21925731 -0.64285714
v 1.14782873 0.21925731 -0.50000000
v 1.14782873 0.21925731 -0.35714286
v 1.14782873 0.21925731 -0.21428571
v 1.14782873 0.21925731 -0.07142857
v 1.14782873 0.21925731 0.07142857
v 1.14782873 0.21925731 0.21428571
v 1.14782873 0.21925731 0.35714286
v 1.14782873 0.21925731 0.50000000
v 1.14782873 0.21925731 0.64285714
v 1.14782873 0.21925731 0.78571429
v 1.14782873 0.21925731 0.92857143
v 1.14782873 0.36211445 -0.92857143
v 1.14782873 0.36211445 -0.78571429
v 1.14782873 0.36211445 -0.64285714
v 1.14782873 0.36211445 -0.50000000
v 1.14782873 0.36211445 -0.35714286
v 1.14782873 0.36211445 -0.21428571
v 1.14782873 0.36211445 -0.07142857
v 1.14782873 0.36211445 0.07142857
v 1.14782873 0.36211445 0.21428571
v 1.14782873 0.36211445 0.35714286
v 1.14782873 0.36211445 0.50000000
v 1.14782873 0.36211445 0.64285714
v 1.14782873 0.36211445 0.78571429
v 1.14782873 0.36211445 0.92857143
v 1.14782873 0.50497159 -0.92857143
v 1.14782873 0.50497159 -0.78571429
v 1.14782873 0.50497159 -0.64285714
v 1.14782873 0.50497159 -0.50000000
v 1.14782873 0.50497159 -0.35714286
v 1.14782873 0.50497159 -0.21428571
v 1.14782873 0.50497159 -0.07142857
v 1.14782873 0.50497159 0.07142857
v 1.14782873 0.50497159 0.21428571
v 1.14782873 0.50497159 0.35714286
v 1.14782873 0.50497159 0.50000000
v 1.14782873 0.50497159 0.64285714
v 1.14782873 0.50497159 0.78571429
v 1.14782873 0.64782873 -0.92857143
v 1.14782873 0.64782873 -0.78571429
v 1.14782873 0.64782873 -0.64285714
v 1.14782873 0.64782873 -0.50000000
v 1.14782873 0.64782873 -0.35714286
v 1.14782873 0.64782873 -0.21428571
v 1.14782873 0.64782873 -0.07142857
v 1.14782873 0.64782873 0.07142857
v 1.14782873 0.64782873 0.21428571
v 1.14782873 0.64782873 0.35714286
v 1.14782873 0.64782873 0.50000000
v 1.14782873 0.64782873 0.64285714
v 1.14782873 0.79068588 -0.92857143
v 1.14782873 0.79068588 -0.78571429
v 1.14782873 0.79068588 -0.64285714
v 1.14782873 0.79068588 -0.50000000
v 1.14782873 0.79068588 -0.35714286
v 1.14782873 0.79068588 -0.21428571
v 1.14782873 0.79068588 -0.07142857
v 1.14782873 0.79068588 0.07142857
v 1.14782873 0.79068588 0.21428571
v 1.14782873 0.79068588 0.35714286
v 1.14782873 0.79068588 0.50000000
v 1.14782873 0.93354302 -0.92857143
v 1.14782873 0.93354302 -0.78571429
v 1.14782873 0.93354302 -0.64285714
v 1.14782873 0.93354302 -0.50000000
v 1.14782873 0.93354302 -0.35714286
v 1.14782873 0.93354302 -0.21428571
v 1.14782873 0.93354302 -0.07142857
v 1.14782873 0.93354302 0.07142857
v 1.14782873 0.93354302 0.21428571
v 1.14782873 1.07640016 -0.92857143
v 1.14782873 1.07640016 -0.78571429
v 1.14782873 1.07640016 -0.64285714
v 1.14782873 1.07640016 -0.50000000
v 1.14782873 1.07640016 -0.35714286
v 1.14782873 1.07640016 -0.21428571
v 1.14782873 1.07640016 -0.07142857
v 1.14782873 1.07640016 0.07142857
f 3 2 1
f 5 4 1
f 1 4 3
f 7 6 5
f 5 6 4
f 9 8 7
f 7 8 6
f 11 10 9
f 9 10 8
f 13 12 11
f 11 12 10
f 15 14 13
f 13 14 12
f 17 16 15
f 15 16 14
f 19 18 17
f 17 18 16
f 21 20 19
f 19 20 18
f 23 22 21
f 21 22 20
f 25 24 23
f 23 24 22
f 25 26 24
f 1 2 27
f 27 2 28
f 1 29 5
f 1 27 29
f 5 30 7
f 5 29 30
f 7 31 9
f 7 30 31
f 9 32 11
f 9 31 32
f 11 33 13
f 11 32 33
f 13 34 15
f 13 33 34
f 15 35 17
f 15 34 35
f 17 36 19
f 17 35 36
f 19 37 21
f 19 36 37
f 21 38 23
f 21 37 38
f 23 39 25
f 23 38 39
f 26 25 40
f 25 41 40
f 25 39 41
f 43 42 41
f 41 42 40
f 43 44 42
f 27 28 45
f 45 28 46
f 27 47 29
f 27 45 47
f 29 48 30
f 29 47 48
f 30 49 31
f 30 48 49
f 31 50 32
f 31 49 50
f 32 51 33
f 32 50 51
f 33 52 34
f 33 51 52
f 34 53 35
f 34 52 53
f 35 54 36
f 35 53 54
f 36 55 37
f 36 54 55
f 37 56 38
f 37 55 56
f 38 57 39
f 38 56 57
f 39 58 41
f 39 57 58
f 41 59 43
f 41 58 59
f 44 43 60
f 60 43 59
f 45 46 61
f 61 46 62
f 45 63 47
f 45 61 63
f 47 64 48
f 47 63 64
f 48 65 49
f 48 64 65
f 49 66 50
f 49 65 66
f 50 67 51
f 50 66 67
f 51 68 52
f 51 67 68
f 52 69 53
f 52 68 69
f 53 70 54
f 53 69 70
f 54 71 55
f 54 70 71
f 55 72 56
f 55 71 72
f 56 73 57
f 56 72 73
f 57 74 58
f 57 73 74
f 58 75 59
f 58 74 75
f 60 59 76
f 76 59 75
f 61 62 77
f 77 62 78
f 61 79 63
f 61 77 79
f 63 80 64
f 63 79 80
f 64 81 65
f 64 80 81
f 65 82 66
f 65 81 82
f 66 83 67
f 66 82 83
f 67 84 68
f 67 83 84
f 68 85 69
f 68 84 85
f 69 86 70
f 69 85 86
f 70 87 71
f 70 86 87
f 71 88 72
f 71 87 88
f 72 89 73
f 72 88 89
f 73 90 74
f 73 89 90
f 74 91 75
f 74 90 91
f 76 75 92
f 92 75 91
f 77 78 93
f 93 78 94
f 77 95 79
f 77 93 95
f 79 96 80
f 79 95 96
f 80 97 81
f 80 96 97
f 81 98 82
f 81 97 98
f 82 99 83
f 82 98 99
f 83 100 84
f 83 99 100
f 84 101 85
f 84 100 101
f 85 102 86
f 85 101 102
f 86 103 87
f 86 102 103
f 87 104 88
f 87 103 104
f 88 105 89
f 88 104 105
f 89 106 90
f 89 105 106
f 90 107 91
f 90 106 107
f 92 91 108
f 108 91 107
f 93 94 109
f 109 94 110
f 93 111 95
f 93 109 111
f 95 112 96
f 95 111 112
f 96 113 97
f 96 112 113
f 97 114 98
f 97 113 114
f 98 115 99
f 98 114 115
f 99 116 100
f 99 115 116
f 100 117 101
f 100 116 117
f 101 118 102
f 101 117 118
f 102 119 103
f 102 118 119
f 103 120 104
f 103 119 120
f 104 121 105
f 104 120 121
f 105 122 106
f 105 121 122
f 106 123 107
f 106 122 123
f 108 107 124
f 124 107 123
f 109 110 125
f 125 110 126
f 109 127 111
f 109 125 127
f 111 128 112
f 111 127 128
f 112 129 113
f 112 128 129
f 113 130 114
f 113 129 130
f 114 131 115
f 114 130 131
f 115 132 116
f 115 131 132
f 116 133 117
f 116 132 133
f 117 134 118
f 117 133 134
f 118 135 119
f 118 134 135
f 119 136 120
f 119 135 136
f 120 137 121
f 120 136 137
f 121 138 122
f 121 137 138
f 122 139 123
f 122 138 139
f 124 123 140
f 140 123 139
f 125 126 141
f 141 126 142
f 125 143 127
f 125 141 143
f 127 144 128
f 127 143 144
f 128 145 129
f 128 144 145
f 129 146 130
f 129 145 146
f 130 147 131
f 130 146 147
f 131 148 132
f 131 147 148
f 132 149 133
f 132 148 149
f 133 150 134
f 133 149 150
f 134 151 135
f 134 150 151
f 135 152 136
f 135 151 152
f 136 153 137
f 136 152 153
f 137 154 138
f 137 153 154
f 138 155 139
f 138 154 155
f 140 139 156
f 156 139 155
f 141 142 157
f 157 142 158
f 141 159 143
f 141 157 159
f 143 160 144
f 143 159 160
f 144 161 145
f 144 160 161
f 145 162 146
f 145 161 162
f 146 163 147
f 146 162 163
f 147 164 148
f 147 163 164
f 148 165 149
f 148 164 165
f 149 166 150
f 149 165 166
f 150 167 151
f 150 166 167
f 151 168 152
f 151 167 168
f 152 169 153
f 152 168 169
f 153 170 154
f 153 169 170
f 154 171 155
f 154 170 171
f 156 155 172
f 172 155 171
f 157 158 173
f 173 158 174
f 157 175 159
f 157 173 175
f 159 176 160
f 159 175 176
f 160 177 161
f 160 176 177
f 161 178 162
f 161 177 178
f 162 179 163
f 162 178 179
f 163 180 164
f 163 179 180
f 164 181 165
f 164 180 181
f 165 182 166
f 165 181 182
f 166 183 167
f 166 182 183
f 167 184 168
f 167 183 184
f 168 185 169
f 168 184 185
f 169 186 170
f 169 185 186
f 170 187 171
f 170 186 187
f 172 171 188
f 188 171 187
f 173 174 189
f 189 174 190
f 173 191 175
f 173 189 191
f 175 192 176
f 175 191 192
f 176 193 177
f 176 192 193
f 177 194 178
f 177 193 194
f 178 195 179
f 178 194 195
f 179 196 180
f 179 195 196
f 180 197 181
f 180 196 197
f 181 198 182
f 181 197 198
f 182 199 183
f 182 198 199
f 183 200 184
f 183 199 200
f 184 201 185
f 184 200 201
f 185 202 186
f 185 201 202
f 186 203 187
f 186 202 203
f 188 187 204
f 204 187 203
f 189 190 205
f 205 190 206
f 189 207 191
f 189 205 207
f 191 208 192
f 191 207 208
f 192 209 193
f 192 208 209
f 193 210 194
f 193 209 210
f 194 211 195
f 194 210 211
f 195 212 196
f 195 211 212
f 196 213 197
f 196 212 213
f 197 214 198
f 197 213 214
f 198 215 199
f 198 214 215
f 199 216 200
f 199 215 216
f 200 217 201
f 200 216 217
f 201 218 202
f 201 217 218
f 202 219 203
f 202 218 219
f 204 203 220
f 220 203 219
f 205 206 221
f 221 206 222
f 205 223 207
f 205 221 223
f 207 224 208
f 207 223 224
f 208 225 209
f 208 224 225
f 209 226 210
f 209 225 226
f 210 227 211
f 210 226 227
f 211 228 212
f 211 227 228
f 212 229 213
f 212 228 229
f 213 230 214
f 213 229 230
f 214 231 215
f 214 230 231
f 215 232 216
f 215 231 232
f 216 233 217
f 216 232 233
f 217 234 218
f 217 233 234
f 218 235 219
f 218 234 235
f 220 219 236
f 236 219 235
f 221 222 237
f 237 222 238
f 221 239 223
f 221 237 239
f 223 240 224
f 223 239 240
f 224 241 225
f 224 240 241
f 225 242 226
f 225 241 242
f 226 243 227
f 226 242 243
f 227 244 228
f 227 243 244
f 228 245 229
f 228 244 245
f 229 246 230
f 229 245 246
f 230 247 231
f 230 246 247
f 231 248 232
f 231 247 248
f 232 249 233
f 232 248 249
f 233 250 234
f 233 249 250
f 234 251 235
f 234 250 251
f 236 235 252
f 252 235 251
f 237 238 253
f 253 238 254
f 237 255 239
f 237 253 255
f 239 256 240
f 239 255 256
f 240 257 241
f 240 256 257
f 241 258 242
f 241 257 258
f 242 259 243
f 242 258 259
f 243 260 244
f 243 259 260
f 244 261 245
f 244 260 261
f 245 262 246
f 245 261 262
f 246 263 247
f 246 262 263
f 247 264 248
f 247 263 264
f 248 265 249
f 248 264 265
f 249 266 250
f 249 265 266
f 250 267 251
f 250 266 267
f 252 251 268
f 268 251 267
f 254 269 253
f 253 269 255
f 255 269 270
f 255 270 256
f 256 270 271
f 256 271 257
f 257 271 272
f 257 272 258
f 258 272 273
f 258 273 259
f 259 273 274
f 259 274 260
f 260 274 275
f 260 275 261
f 261 275 276
f 261 276 262
f 262 276 277
f 262 277 263
f 263 277 278
f 263 278 264
f 264 278 279
f 264 279 265
f 265 279 280
f 265 280 266
f 266 280 281
f 266 281 267
f 267 281 282
f 267 282 268
f 284 283 3
f 3 283 2
f 285 3 4
f 285 284 3
f 286 4 6
f 286 285 4
f 287 6 8
f 287 286 6
f 288 8 10
f 288 287 8
f 289 10 12
f 289 288 10
f 290 12 14
f 290 289 12
f 291 14 16
f 291 290 14
f 292 16 18
f 292 291 16
f 293 18 20
f 293 292 18
f 294 20 22
f 294 293 20
f 295 22 24
f 295 294 22
f 297 296 26
f 296 24 26
f 296 295 24
f 299 298 297
f 297 298 296
f 299 300 298
f 283 28 2
f 301 28 283
f 40 297 26
f 297 40 42
f 297 42 299
f 42 44 299
f 44 300 299
f 44 302 300
f 301 46 28
f 303 46 301
f 60 302 44
f 60 304 302
f 303 62 46
f 305 62 303
f 76 304 60
f 76 306 304
f 305 78 62
f 307 78 305
f 92 306 76
f 92 308 306
f 307 94 78
f 309 94 307
f 108 308 92
f 108 310 308
f 309 110 94
f 311 110 309
f 124 310 108
f 124 312 310
f 311 126 110
f 313 126 311
f 140 312 124
f 140 314 312
f 313 142 126
f 315 142 313
f 156 314 140
f 156 316 314
f 315 158 142
f 317 158 315
f 172 316 156
f 172 318 316
f 317 174 158
f 319 174 317
f 188 318 172
f 188 320 318
f 319 190 174
f 321 190 319
f 204 320 188
f 204 322 320
f 321 206 190
f 323 206 321
f 220 322 204
f 220 324 322
f 323 222 206
f 325 222 323
f 236 324 220
f 236 326 324
f 325 238 222
f 327 238 325
f 252 326 236
f 252 328 326
f 327 254 238
f 329 254 327
f 268 328 252
f 268 330 328
f 329 331 254
f 254 331 269
f 269 332 270
f 331 332 269
f 270 333 271
f 332 333 270
f 271 334 272
f 333 334 271
f 272 335 273
f 334 335 272
f 273 336 274
f 335 336 273
f 274 337 275
f 336 337 274
f 275 338 276
f 337 338 275
f 276 339 277
f 338 339 276
f 277 340 278
f 339 340 277
f 278 341 279
f 340 341 278
f 279 342 280
f 341 342 279
f 280 343 281
f 342 343 280
f 281 344 282
f 343 344 281
f 268 282 330
f 330 282 344
f 346 345 284
f 284 345 283
f 347 284 285
f 347 346 284
f 348 285 286
f 348 347 285
f 349 286 287
f 349 348 286
f 350 287 288
f 350 349 287
f 351 288 289
f 351 350 288
f 352 289 290
f 352 351 289
f 353 290 291
f 353 352 290
f 354 291 292
f 354 353 291
f 355 292 293
f 355 354 292
f 356 293 294
f 356 355 293
f 357 294 295
f 357 356 294
f 358 295 296
f 358 357 295
f 359 296 298
f 359 358 296
f 298 300 359
f 359 300 360
f 345 301 283
f 361 301 345
f 302 360 300
f 302 362 360
f 361 303 301
f 363 303 361
f 304 362 302
f 304 364 362
f 363 305 303
f 365 305 363
f 306 364 304
f 306 366 364
f 365 307 305
f 367 307 365
f 308 366 306
f 308 368 366
f 367 309 307
f 369 309 367
f 310 368 308
f 310 370 368
f 369 311 309
f 371 311 369
f 312 370 310
f 312 372 370
f 371 313 311
f 373 313 371
f 314 372 312
f 314 374 372
f 373 315 313
f 375 315 373
f 316 374 314
f 316 376 374
f 375 317 315
f 377 317 375
f 318 376 316
f 318 378 376
f 377 319 317
f 379 319 377
f 320 378 318
f 320 380 378
f 379 321 319
f 381 321 379
f 322 380 320
f 322 382 380
f 381 323 321
f 383 323 381
f 324 382 322
f 324 384 382
f 383 325 323
f 385 325 383
f 326 384 324
f 326 386 384
f 385 327 325
f 387 327 385
f 328 386 326
f 328 388 386
f 387 329 327
f 389 329 387
f 330 388 328
f 330 390 388
f 389 391 329
f 329 391 331
f 331 392 332
f 391 392 331
f 332 393 333
f 392 393 332
f 333 394 334
f 393 394 333
f 334 395 335
f 394 395 334
f 335 396 336
f 395 396 335
f 336 397 337
f 396 397 336
f 337 398 338
f 397 398 337
f 338 399 339
f 398 399 338
f 339 400 340
f 399 400 339
f 340 401 341
f 400 401 340
f 341 402 342
f 401 402 341
f 342 403 343
f 402 403 342
f 343 404 344
f 403 404 343
f 330 344 390
f 390 344 404
f 406 405 346
f 346 405 345
f 407 346 347
f 407 406 346
f 408 347 348
f 408 407 347
f 409 348 349
f 409 408 348
f 410 349 350
f 410 409 349
f 411 350 351
f 411 410 350
f 412 351 352
f 412 411 351
f 413 352 353
f 413 412 352
f 414 353 354
f 414 413 353
f 415 354 355
f 415 414 354
f 416 355 356
f 416 415 355
f 417 356 357
f 417 416 356
f 418 357 358
f 418 417 357
f 419 358 359
f 419 418 358
f 359 360 419
f 419 360 420
f 405 361 345
f 421 361 405
f 362 420 360
f 362 422 420
f 421 363 361
f 423 363 421
f 364 422 362
f 364 424 422
f 423 365 363
f 425 365 423
f 366 424 364
f 366 426 424
f 425 367 365
f 427 367 425
f 368 426 366
f 368 428 426
f 427 369 367
f 429 369 427
f 370 428 368
f 370 430 428
f 429 371 369
f 431 371 429
f 372 430 370
f 372 432 430
f 431 373 371
f 433 373 431
f 374 432 372
f 374 434 432
f 433 375 373
f 435 375 433
f 376 434 374
f 376 436 434
f 435 377 375
f 437 377 435
f 378 436 376
f 378 438 436
f 437 379 377
f 439 379 437
f 380 438 378
f 380 440 438
f 439 381 379
f 441 381 439
f 382 440 380
f 382 442 440
f 441 383 381
f 443 383 441
f 384 442 382
f 384 444 442
f 443 385 383
f 445 385 443
f 386 444 384
f 386 446 444
f 445 387 385
f 447 387 445
f 388 446 386
f 388 448 446
f 447 389 387
f 449 389 447
f 390 448 388
f 390 450 448
f 449 451 389
f 389 451 391
f 391 452 392
f 451 452 391
f 392 453 393
f 452 453 392
f 393 454 394
f 453 454 393
f 394 455 395
f 454 455 394
f 395 456 396
f 455 456 395
f 396 457 397
f 456 457 396
f 397 458 398
f 457 458 397
f 398 459 399
f 458 459 398
f 399 460 400
f 459 460 399
f 400 461 401
f 460 461 400
f 401 462 402
f 461 462 401
f 402 463 403
f 462 463 402
f 403 464 404
f 463 464 403
f 390 404 450
f 450 404 464
f 466 465 406
f 406 465 405
f 467 406 407
f 467 466 406
f 468 407 408
f 468 467 407
f 469 408 409
f 469 468 408
f 470 409 410
f 470 469 409
f 471 410 411
f 471 470 410
f 472 411 412
f 472 471 411
f 473 412 413
f 473 472 412
f 474 413 414
f 474 473 413
f 475 414 415
f 475 474 414
f 476 415 416
f 476 475 415
f 477 416 417
f 477 476 416
f 478 417 418
f 478 477 417
f 479 418 419
f 479 478 418
f 419 420 479
f 479 420 480
f 465 421 405
f 481 421 465
f 422 480 420
f 422 482 480
f 481 423 421
f 483 423 481
f 424 482 422
f 424 484 482
f 483 425 423
f 485 425 483
f 426 484 424
f 426 486 484
f 485 427 425
f 487 427 485
f 428 486 426
f 428 488 486
f 487 429 427
f 489 429 487
f 430 488 428
f 430 490 488
f 489 431 429
f 491 431 489
f 432 490 430
f 432 492 490
f 491 433 431
f 493 433 491
f 434 492 432
f 434 494 492
f 493 435 433
f 495 435 493
f 436 494 434
f 436 496 494
f 495 437 435
f 497 437 495
f 438 496 436
f 438 498 496
f 497 439 437
f 499 439 497
f 440 498 438
f 440 500 498
f 499 441 439
f 501 441 499
f 442 500 440
f 442 502 500
f 501 443 441
f 503 443 501
f 444 502 442
f 444 504 502
f 503 445 443
f 505 445 503
f 446 504 444
f 446 506 504
f 505 447 445
f 507 447 505
f 448 506 446
f 448 508 506
f 507 449 447
f 509 449 507
f 450 508 448
f 450 510 508
f 509 511 449
f 449 511 451
f 451 512 452
f 511 512 451
f 452 513 453
f 512 513 452
f 453 514 454
f 513 514 453
f 454 515 455
f 514 515 454
f 455 516 456
f 515 516 455
f 456 517 457
f 516 517 456
f 457 518 458
f 517 518 457
f 458 519 459
f 518 519 458
f 459 520 460
f 519 520 459
f 460 521 461
f 520 521 460
f 461 522 462
f 521 522 461
f 462 523 463
f 522 523 462
f 463 524 464
f 523 524 463
f 450 464 510
f 510 464 524
f 526 525 466
f 466 525 465
f 527 466 467
f 527 526 466
f 528 467 468
f 528 527 467
f 529 468 469
f 529 528 468
f 530 469 470
f 530 529 469
f 531 470 471
f 531 530 470
f 532 471 472
f 532 531 471
f 533 472 473
f 533 532 472
f 534 473 474
f 534 533 473
f 535 474 475
f 535 534 474
f 536 475 476
f 536 535 475
f 537 476 477
f 537 536 476
f 538 477 478
f 538 537 477
f 539 478 479
f 539 538 478
f 479 480 539
f 539 480 540
f 525 481 465
f 541 481 525
f 482 540 480
f 482 542 540
f 541 483 481
f 543 483 541
f 484 542 482
f 484 544 542
f 543 485 483
f 545 485 543
f 486 544 484
f 486 546 544
f 545 487 485
f 547 487 545
f 488 546 486
f 488 548 546
f 547 489 487
f 549 489 547
f 490 548 488
f 490 550 548
f 549 491 489
f 551 491 549
f 492 550 490
f 492 552 550
f 551 493 491
f 553 493 551
f 494 552 492
f 494 554 552
f 553 495 493
f 555 495 553
f 496 554 494
f 496 556 554
f 555 497 495
f 557 497 555
f 498 556 496
f 498 558 556
f 557 499 497
f 559 499 557
f 500 558 498
f 500 560 558
f 559 501 499
f 561 501 559
f 502 560 500
f 502 562 560
f 561 503 501
f 563 503 561
f 504 562 502
f 504 564 562
f 563 505 503
f 565 505 563
f 506 564 504
f 506 566 564
f 565 507 505
f 567 507 565
f 508 566 506
f 508 568 566
f 567 509 507
f 569 509 567
f 510 568 508
f 510 570 568
f 569 571 509
f 509 571 511
f 511 572 512
f 571 572 511
f 512 573 513
f 572 573 512
f 513 574 514
f 573 574 513
f 514 575 515
f 574 575 514
f 515 576 516
f 575 576 515
f 516 577 517
f 576 577 516
f 517 578 518
f 577 578 517
f 518 579 519
f 578 579 518
f 519 580 520
f 579 580 519
f 520 581 521
f 580 581 520
f 521 582 522
f 581 582 521
f 522 583 523
f 582 583 522
f 523 584 524
f 583 584 523
f 510 524 570
f 570 524 584
f 586 585 526
f 526 585 525
f 587 526 527
f 587 586 526
f 588 527 528
f 588 587 527
f 589 528 529
f 589 588 528
f 590 529 530
f 590 589 529
f 591 530 531
f 591 590 530
f 592 531 532
f 592 591 531
f 593 532 533
f 593 592 532
f 594 533 534
f 594 593 533
f 595 534 535
f 595 594 534
f 596 535 536
f 596 595 535
f 597 536 537
f 597 596 536
f 598 537 538
f 598 597 537
f 599 538 539
f 599 598 538
f 539 540 599
f 599 540 600
f 585 541 525
f 601 541 585
f 542 600 540
f 542 602 600
f 601 543 541
f 603 543 601
f 544 602 542
f 544 604 602
f 603 545 543
f 605 545 603
f 546 604 544
f 546 606 604
f 605 547 545
f 607 547 605
f 548 606 546
f 548 608 606
f 607 549 547
f 609 549 607
f 550 608 548
f 550 610 608
f 609 551 549
f 611 551 609
f 552 610 550
f 552 612 610
f 611 553 551
f 613 553 611
f 554 612 552
f 554 614 612
f 613 555 553
f 615 555 613
f 556 614 554
f 556 616 614
f 615 557 555
f 617 557 615
f 558 616 556
f 558 618 616
f 617 559 557
f 619 559 617
f 560 618 558
f 560 620 618
f 619 561 559
f 621 561 619
f 562 620 560
f 562 622 620
f 621 563 561
f 623 563 621
f 564 622 562
f 564 624 622
f 623 565 563
f 625 565 623
f 566 624 564
f 566 626 624
f 625 567 565
f 627 567 625
f 568 626 566
f 568 628 626
f 627 569 567
f 629 569 627
f 570 628 568
f 570 630 628
f 629 631 569
f 569 631 571
f 571 632 572
f 631 632 571
f 572 633 573
f 632 633 572
f 573 634 574
f 633 634 573
f 574 635 575
f 634 635 574
f 575 636 576
f 635 636 575
f 576 637 577
f 636 637 576
f 577 638 578
f 637 638 577
f 578 639 579
f 638 639 578
f 579 640 580
f 639 640 579
f 580 641 581
f 640 641 580
f 581 642 582
f 641 642 581
f 582 643 583
f 642 643 582
f 583 644 584
f 643 644 583
f 570 584 630
f 630 584 644
f 646 645 586
f 586 645 585
f 647 586 587
f 647 646 586
f 648 587 588
f 648 647 587
f 649 588 589
f 649 648 588
f 650 589 590
f 650 649 589
f 651 590 591
f 651 650 590
f 652 591 592
f 652 651 591
f 653 592 593
f 653 652 592
f 654 593 594
f 654 653 593
f 655 594 595
f 655 654 594
f 656 595 596
f 656 655 595
f 657 596 597
f 657 656 596
f 658 597 598
f 658 657 597
f 659 598 599
f 659 658 598
f 599 600 659
f 659 600 660
f 645 601 585
f 661 601 645
f 602 660 600
f 602 662 660
f 661 603 601
f 663 603 661
f 604 662 602
f 604 664 662
f 663 605 603
f 665 605 663
f 606 664 604
f 606 666 664
f 665 607 605
f 667 607 665
f 608 666 606
f 608 668 666
f 667 609 607
f 669 609 667
f 610 668 608
f 610 670 668
f 669 611 609
f 671 611 669
f 612 670 610
f 612 672 670
f 671 613 611
f 673 613 671
f 614 672 612
f 614 674 672
f 673 615 613
f 675 615 673
f 616 674 614
f 616 676 674
f 675 617 615
f 677 617 675
f 618 676 616
f 618 678 676
f 677 619 617
f 679 619 677
f 620 678 618
f 620 680 678
f 679 621 619
f 681 621 679
f 622 680 620
f 622 682 680
f 681 623 621
f 683 623 681
f 624 682 622
f 624 684 682
f 683 625 623
f 685 625 683
f 626 684 624
f 626 686 684
f 685 627 625
f 687 627 685
f 628 686 626
f 628 688 686
f 687 629 627
f 689 629 687
f 630 688 628
f 630 690 688
f 689 691 629
f 629 691 631
f 631 692 632
f 691 692 631
f 632 693 633
f 692 693 632
f 633 694 634
f 693 694 633
f 634 695 635
f 694 695 634
f 635 696 636
f 695 696 635
f 636 697 637
f 696 697 636
f 637 698 638
f 697 698 637
f 638 699 639
f 698 699 638
f 639 700 640
f 699 700 639
f 640 701 641
f 700 701 640
f 641 702 642
f 701 702 641
f 642 703 643
f 702 703 642
f 643 704 644
f 703 704 643
f 630 644 690
f 690 644 704
f 706 705 646
f 646 705 645
f 707 646 647
f 707 706 646
f 708 647 648
f 708 707 647
f 709 648 649
f 709 708 648
f 710 649 650
f 710 709 649
f 711 650 651
f 711 710 650
f 712 651 652
f 712 711 651
f 713 652 653
f 713 712 652
f 714 653 654
f 714 713 653
f 715 654 655
f 715 714 654
f 716 655 656
f 716 715 655
f 717 656 657
f 717 716 656
f 718 657 658
f 718 717 657
f 719 658 659
f 719 718 658
f 659 660 719
f 719 660 720
f 705 661 645
f 721 661 705
f 662 720 660
f 662 722 720
f 721 663 661
f 723 663 721
f 664 722 662
f 664 724 722
f 723 665 663
f 725 665 723
f 666 724 664
f 666 726 724
f 725 667 665
f 727 667 725
f 668 726 666
f 668 728 726
f 727 669 667
f 729 669 727
f 670 728 668
f 670 730 728
f 729 671 669
f 731 671 729
f 672 730 670
f 672 732 730
f 731 673 671
f 733 673 731
f 674 732 672
f 674 734 732
f 733 675 673
f 735 675 733
f 676 734 674
f 676 736 734
f 735 677 675
f 737 677 735
f 678 736 676
f 678 738 736
f 737 679 677
f 739 679 737
f 680 738 678
f 680 740 738
f 739 681 679
f 741 681 739
f 682 740 680
f 682 742 740
f 741 683 681
f 743 683 741
f 684 742 682
f 684 744 742
f 743 685 683
f 745 685 743
f 686 744 684
f 686 746 744
f 745 687 685
f 747 687 745
f 688 746 686
f 688 748 746
f 747 689 687
f 749 689 747
f 690 748 688
f 690 750 748
f 749 751 689
f 689 751 691
f 691 752 692
f 751 752 691
f 692 753 693
f 752 753 692
f 693 754 694
f 753 754 693
f 694 755 695
f 754 755 694
f 695 756 696
f 755 756 695
f 696 757 697
f 756 757 696
f 697 758 698
f 757 758 697
f 698 759 699
f 758 759 698
f 699 760 700
f 759 760 699
f 700 761 701
f 760 761 700
f 701 762 702
f 761 762 701
f 702 763 703
f 762 763 702
f 703 764 704
f 763 764 703
f 690 704 750
f 750 704 764
f 766 765 706
f 706 765 705
f 767 706 707
f 767 766 706
f 768 707 708
f 768 767 707
f 769 708 709
f 769 768 708
f 770 709 710
f 770 769 709
f 771 710 711
f 771 770 710
f 772 711 712
f 772 771 711
f 773 712 713
f 773 772 712
f 774 713 714
f 774 773 713
f 775 714 715
f 775 774 714
f 776 715 716
f 776 775 715
f 777 716 717
f 777 776 716
f 778 717 718
f 778 777 717
f 779 718 719
f 779 778 718
f 719 720 779
f 779 720 780
f 765 721 705
f 781 721 765
f 722 780 720
f 722 782 780
f 781 723 721
f 783 723 781
f 724 782 722
f 724 784 782
f 783 725 723
f 785 725 783
f 726 784 724
f 726 786 784
f 785 727 725
f 787 727 785
f 728 786 726
f 728 788 786
f 787 729 727
f 789 729 787
f 730 788 728
f 730 790 788
f 789 731 729
f 791 731 789
f 732 790 730
f 732 792 790
f 791 733 731
f 793 733 791
f 734 792 732
f 734 794 792
f 793 735 733
f 795 735 793
f 736 794 734
f 736 796 794
f 795 737 735
f 797 737 795
f 738 796 736
f 738 798 796
f 797 739 737
f 799 739 797
f 740 798 738
f 740 800 798
f 799 741 739
f 801 741 799
f 742 800 740
f 742 802 800
f 801 743 741
f 803 743 801
f 744 802 742
f 744 804 802
f 803 745 743
f 805 745 803
f 746 804 744
f 746 806 804
f 805 747 745
f 807 747 805
f 748 806 746
f 748 808 806
f 807 749 747
f 809 749 807
f 812 811 810
f 811 808 810
f 808 750 810
f 808 748 750
f 809 813 749
f 749 813 751
f 751 814 752
f 813 814 751
f 752 815 753
f 814 815 752
f 753 816 754
f 815 816 753
f 754 817 755
f 816 817 754
f 755 818 756
f 817 818 755
f 756 819 757
f 818 819 756
f 757 820 758
f 819 820 757
f 758 821 759
f 820 821 758
f 759 822 760
f 821 822 759
f 760 823 761
f 822 823 760
f 761 824 762
f 823 824 761
f 762 825 763
f 824 825 762
f 810 764 812
f 764 825 812
f 764 763 825
f 764 810 750
f 827 826 766
f 766 826 765
f 828 766 767
f 828 827 766
f 829 767 768
f 829 828 767
f 830 768 769
f 830 829 768
f 831 769 770
f 831 830 769
f 832 770 771
f 832 831 770
f 833 771 772
f 833 832 771
f 834 772 773
f 834 833 772
f 835 773 774
f 835 834 773
f 836 774 775
f 836 835 774
f 837 775 776
f 837 836 775
f 838 776 777
f 838 837 776
f 839 777 778
f 839 838 777
f 840 778 779
f 840 839 778
f 779 780 840
f 840 780 841
f 826 781 765
f 842 781 826
f 782 841 780
f 782 843 841
f 842 783 781
f 844 783 842
f 784 843 782
f 784 845 843
f 844 785 783
f 846 785 844
f 786 845 784
f 786 847 845
f 846 787 785
f 848 787 846
f 788 847 786
f 788 849 847
f 848 789 787
f 850 789 848
f 790 849 788
f 790 851 849
f 850 791 789
f 852 791 850
f 792 851 790
f 792 853 851
f 852 793 791
f 854 793 852
f 794 853 792
f 794 855 853
f 854 795 793
f 856 795 854
f 796 855 794
f 796 857 855
f 856 797 795
f 858 797 856
f 798 857 796
f 798 859 857
f 858 799 797
f 860 799 858
f 800 859 798
f 800 861 859
f 860 801 799
f 862 801 860
f 802 861 800
f 802 863 861
f 862 803 801
f 864 803 862
f 804 863 802
f 804 865 863
f 864 805 803
f 866 805 864
f 806 865 804
f 806 867 865
f 866 807 805
f 868 807 866
f 808 867 806
f 808 869 867
f 868 809 807
f 870 809 868
f 873 872 871
f 811 812 871
f 872 811 871
f 874 811 872
f 808 811 869
f 869 811 874
f 870 875 809
f 809 875 813
f 813 876 814
f 875 876 813
f 814 877 815
f 876 877 814
f 815 878 816
f 877 878 815
f 816 879 817
f 878 879 816
f 817 880 818
f 879 880 817
f 818 881 819
f 880 881 818
f 819 882 820
f 881 882 819
f 820 883 821
f 882 883 820
f 821 884 822
f 883 884 821
f 822 885 823
f 884 885 822
f 823 886 824
f 885 886 823
f 871 825 873
f 825 886 873
f 825 824 886
f 825 871 812
f 888 887 827
f 827 887 826
f 889 827 828
f 889 888 827
f 890 828 829
f 890 889 828
f 891 829 830
f 891 890 829
f 892 830 831
f 892 891 830
f 893 831 832
f 893 892 831
f 894 832 833
f 894 893 832
f 895 833 834
f 895 894 833
f 896 834 835
f 896 895 834
f 897 835 836
f 897 896 835
f 898 836 837
f 898 897 836
f 899 837 838
f 899 898 837
f 900 838 839
f 900 899 838
f 901 839 840
f 901 900 839
f 840 841 901
f 901 841 902
f 887 842 826
f 903 842 887
f 843 902 841
f 843 904 902
f 903 844 842
f 905 844 903
f 845 904 843
f 845 906 904
f 905 846 844
f 907 846 905
f 847 906 845
f 847 908 906
f 907 848 846
f 909 848 907
f 849 908 847
f 849 910 908
f 909 850 848
f 911 850 909
f 851 910 849
f 851 912 910
f 911 852 850
f 913 852 911
f 853 912 851
f 853 914 912
f 913 854 852
f 915 854 913
f 855 914 853
f 855 916 914
f 915 856 854
f 917 856 915
f 857 916 855
f 857 918 916
f 917 858 856
f 919 858 917
f 859 918 857
f 859 920 918
f 919 860 858
f 921 860 919
f 861 920 859
f 861 922 920
f 921 862 860
f 923 862 921
f 863 922 861
f 863 924 922
f 923 864 862
f 925 864 923
f 865 924 863
f 865 926 924
f 925 866 864
f 927 866 925
f 867 926 865
f 867 928 926
f 927 868 866
f 929 868 927
f 932 931 930
f 931 928 930
f 928 869 930
f 928 867 869
f 929 870 868
f 933 870 929
f 935 934 872
f 935 872 873
f 930 874 932
f 874 934 932
f 874 872 934
f 874 930 869
f 933 936 870
f 870 936 875
f 875 937 876
f 936 937 875
f 876 938 877
f 937 938 876
f 877 939 878
f 938 939 877
f 878 940 879
f 939 940 878
f 879 941 880
f 940 941 879
f 880 942 881
f 941 942 880
f 881 943 882
f 942 943 881
f 882 944 883
f 943 944 882
f 883 945 884
f 944 945 883
f 884 946 885
f 945 946 884
f 885 947 886
f 946 947 885
f 873 886 935
f 935 886 947
f 949 948 888
f 888 948 887
f 950 888 889
f 950 949 888
f 951 889 890
f 951 950 889
f 952 890 891
f 952 951 890
f 953 891 892
f 953 952 891
f 954 892 893
f 954 953 892
f 955 893 894
f 955 954 893
f 956 894 895
f 956 955 894
f 957 895 896
f 957 956 895
f 958 896 897
f 958 957 896
f 959 897 898
f 959 958 897
f 960 898 899
f 960 959 898
f 961 899 900
f 961 960 899
f 962 900 901
f 962 961 900
f 901 902 962
f 962 902 963
f 948 903 887
f 964 903 948
f 904 963 902
f 904 965 963
f 964 905 903
f 966 905 964
f 906 965 904
f 906 967 965
f 966 907 905
f 968 907 966
f 908 967 906
f 908 969 967
f 968 909 907
f 970 909 968
f 910 969 908
f 910 971 969
f 970 911 909
f 972 911 970
f 912 971 910
f 912 973 971
f 972 913 911
f 974 913 972
f 914 973 912
f 914 975 973
f 974 915 913
f 976 915 974
f 916 975 914
f 916 977 975
f 976 917 915
f 978 917 976
f 918 977 916
f 918 979 977
f 978 919 917
f 980 919 978
f 920 979 918
f 920 981 979
f 980 921 919
f 982 921 980
f 922 981 920
f 922 983 981
f 982 923 921
f 984 923 982
f 924 983 922
f 924 985 983
f 984 925 923
f 986 925 984
f 926 985 924
f 926 987 985
f 986 927 925
f 988 927 986
f 991 990 989
f 990 987 989
f 987 928 989
f 987 926 928
f 988 929 927
f 992 929 988
f 995 994 993
f 993 994 991
f 993 991 989
f 932 993 989
f 931 932 989
f 931 989 928
f 992 933 929
f 996 933 992
f 999 998 997
f 997 998 995
f 997 995 993
f 935 997 993
f 934 935 993
f 934 993 932
f 996 1000 933
f 933 1000 936
f 936 1001 937
f 1000 1001 936
f 937 1002 938
f 1001 1002 937
f 938 1003 939
f 1002 1003 938
f 939 1004 940
f 1003 1004 939
f 940 1005 941
f 1004 1005 940
f 941 1006 942
f 1005 1006 941
f 942 1007 943
f 1006 1007 942
f 943 1008 944
f 1007 1008 943
f 944 1009 945
f 1008 1009 944
f 945 1010 946
f 1009 1010 945
f 997 947 999
f 947 1010 999
f 947 946 1010
f 947 997 935
f 1012 1011 949
f 949 1011 948
f 1013 949 950
f 1013 1012 949
f 1014 950 951
f 1014 1013 950
f 1015 951 952
f 1015 1014 951
f 1016 952 953
f 1016 1015 952
f 1017 953 954
f 1017 1016 953
f 1018 954 955
f 1018 1017 954
f 1019 955 956
f 1019 1018 955
f 1020 956 957
f 1020 1019 956
f 1021 957 958
f 1021 1020 957
f 1022 958 959
f 1022 1021 958
f 1023 959 960
f 1023 1022 959
f 1024 960 961
f 1024 1023 960
f 1025 961 962
f 1025 1024 961
f 962 963 1025
f 1025 963 1026
f 1011 964 948
f 1027 964 1011
f 965 1026 963
f 965 1028 1026
f 1027 966 964
f 1029 966 1027
f 967 1028 965
f 967 1030 1028
f 1029 968 966
f 1031 968 1029
f 969 1030 967
f 969 1032 1030
f 1031 970 968
f 1033 970 1031
f 971 1032 969
f 971 1034 1032
f 1033 972 970
f 1035 972 1033
f 973 1034 971
f 973 1036 1034
f 1035 974 972
f 1037 974 1035
f 975 1036 973
f 975 1038 1036
f 1037 976 974
f 1039 976 1037
f 977 1038 975
f 977 1040 1038
f 1039 978 976
f 1041 978 1039
f 979 1040 977
f 979 1042 1040
f 1041 980 978
f 1043 980 1041
f 981 1042 979
f 981 1044 1042
f 1043 982 980
f 1045 982 1043
f 983 1044 981
f 983 1046 1044
f 1045 984 982
f 1047 984 1045
f 985 1046 983
f 985 1048 1046
f 1047 986 984
f 1049 986 1047
f 987 1048 985
f 987 1050 1048
f 1049 988 986
f 1051 988 1049
f 1054 1053 1052
f 990 991 1052
f 1053 990 1052
f 1055 990 1053
f 987 990 1050
f 1050 990 1055
f 1051 992 988
f 1056 992 1051
f 1059 1058 1057
f 1057 1058 1054
f 1057 1054 1052
f 995 1057 1052
f 994 995 1052
f 994 1052 991
f 1056 996 992
f 1060 996 1056
f 1063 1062 1061
f 1061 1062 1059
f 1061 1059 1057
f 999 1061 1057
f 998 999 1057
f 998 1057 995
f 1060 1064 996
f 996 1064 1000
f 1000 1065 1001
f 1064 1065 1000
f 1001 1066 1002
f 1065 1066 1001
f 1002 1067 1003
f 1066 1067 1002
f 1003 1068 1004
f 1067 1068 1003
f 1004 1069 1005
f 1068 1069 1004
f 1005 1070 1006
f 1069 1070 1005
f 1006 1071 1007
f 1070 1071 1006
f 1007 1072 1008
f 1071 1072 1007
f 1008 1073 1009
f 1072 1073 1008
f 1061 1010 1063
f 1010 1073 1063
f 1010 1009 1073
f 1010 1061 999
f 1075 1074 1012
f 1012 1074 1011
f 1076 1012 1013
f 1076 1075 1012
f 1077 1013 1014
f 1077 1076 1013
f 1078 1014 1015
f 1078 1077 1014
f 1079 1015 1016
f 1079 1078 1015
f 1080 1016 1017
f 1080 1079 1016
f 1081 1017 1018
f 1081 1080 1017
f 1082 1018 1019
f 1082 1081 1018
f 1083 1019 1020
f 1083 1082 1019
f 1084 1020 1021
f 1084 1083 1020
f 1085 1021 1022
f 1085 1084 1021
f 1086 1022 1023
f 1086 1085 1022
f 1087 1023 1024
f 1087 1086 1023
f 1088 1024 1025
f 1088 1087 1024
f 1025 1026 1088
f 1088 1026 1089
f 1074 1027 1011
f 1090 1027 1074
f 1028 1089 1026
f 1028 1091 1089
f 1090 1029 1027
f 1092 1029 1090
f 1030 1091 1028
f 1030 1093 1091
f 1092 1031 1029
f 1094 1031 1092
f 1032 1093 1030
f 1032 1095 1093
f 1094 1033 1031
f 1096 1033 1094
f 1034 1095 1032
f 1034 1097 1095
f 1096 1035 1033
f 1098 1035 1096
f 1036 1097 1034
f 1036 1099 1097
f 1098 1037 1035
f 1100 1037 1098
f 1038 1099 1036
f 1038 1101 1099
f 1100 1039 1037
f 1102 1039 1100
f 1040 1101 1038
f 1040 1103 1101
f 1102 1041 1039
f 1104 1041 1102
f 1042 1103 1040
f 1042 1105 1103
f 1104 1043 1041
f 1106 1043 1104
f 1044 1105 1042
f 1044 1107 1105
f 1106 1045 1043
f 1108 1045 1106
f 1046 1107 1044
f 1046 1109 1107
f 1108 1047 1045
f 1110 1047 1108
f 1048 1109 1046
f 1048 1111 1109
f 1110 1049 1047
f 1112 1049 1110
f 1115 1114 1113
f 1114 1111 1113
f 1111 1050 1113
f 1111 1048 1050
f 1112 1051 1049
f 1116 1051 1112
f 1119 1118 1117
f 1053 1054 1117
f 1118 1053 1117
f 1120 1053 1118
f 1113 1055 1115
f 1055 1120 1115
f 1055 1053 1120
f 1055 1113 1050
f 1116 1056 1051
f 1121 1056 1116
f 1124 1123 1122
f 1122 1123 1119
f 1122 1119 1117
f 1059 1122 1117
f 1058 1059 1117
f 1058 1117 1054
f 1121 1060 1056
f 1125 1060 1121
f 1128 1127 1126
f 1126 1127 1124
f 1126 1124 1122
f 1063 1126 1122
f 1062 1063 1122
f 1062 1122 1059
f 1125 1129 1060
f 1060 1129 1064
f 1064 1130 1065
f 1129 1130 1064
f 1065 1131 1066
f 1130 1131 1065
f 1066 1132 1067
f 1131 1132 1066
f 1067 1133 1068
f 1132 1133 1067
f 1068 1134 1069
f 1133 1134 1068
f 1069 1135 1070
f 1134 1135 1069
f 1070 1136 1071
f 1135 1136 1070
f 1071 1137 1072
f 1136 1137 1071
f 1126 1073 1128
f 1073 1137 1128
f 1073 1072 1137
f 1073 1126 1063
f 1139 1138 1075
f 1075 1138 1074
f 1140 1075 1076
f 1140 1139 1075
f 1141 1076 1077
f 1141 1140 1076
f 1142 1077 1078
f 1142 1141 1077
f 1143 1078 1079
f 1143 1142 1078
f 1144 1079 1080
f 1144 1143 1079
f 1145 1080 1081
f 1145 1144 1080
f 1146 1081 1082
f 1146 1145 1081
f 1147 1082 1083
f 1147 1146 1082
f 1148 1083 1084
f 1148 1147 1083
f 1149 1084 1085
f 1149 1148 1084
f 1150 1085 1086
f 1150 1149 1085
f 1151 1086 1087
f 1151 1150 1086
f 1152 1087 1088
f 1152 1151 1087
f 1088 1089 1152
f 1152 1089 1153
f 1138 1090 1074
f 1154 1090 1138
f 1091 1153 1089
f 1091 1155 1153
f 1154 1092 1090
f 1156 1092 1154
f 1093 1155 1091
f 1093 1157 1155
f 1156 1094 1092
f 1158 1094 1156
f 1095 1157 1093
f 1095 1159 1157
f 1158 1096 1094
f 1160 1096 1158
f 1097 1159 1095
f 1097 1161 1159
f 1160 1098 1096
f 1162 1098 1160
f 1099 1161 1097
f 1099 1163 1161
f 1162 1100 1098
f 1164 1100 1162
f 1101 1163 1099
f 1101 1165 1163
f 1164 1102 1100
f 1166 1102 1164
f 1103 1165 1101
f 1103 1167 1165
f 1166 1104 1102
f 1168 1104 1166
f 1105 1167 1103
f 1105 1169 1167
f 1168 1106 1104
f 1170 1106 1168
f 1107 1169 1105
f 1107 1171 1169
f 1170 1108 1106
f 1172 1108 1170
f 1109 1171 1107
f 1109 1173 1171
f 1172 1110 1108
f 1174 1110 1172
f 1177 1176 1175
f 1176 1173 1175
f 1173 1111 1175
f 1173 1109 1111
f 1174 1112 1110
f 1178 1112 1174
f 1181 1180 1179
f 1179 1180 1177
f 1179 1177 1175
f 1115 1179 1175
f 1114 1115 1175
f 1114 1175 1111
f 1178 1116 1112
f 1182 1116 1178
f 1184 1183 1118
f 1184 1118 1119
f 1179 1120 1181
f 1120 1183 1181
f 1120 1118 1183
f 1120 1179 1115
f 1182 1121 1116
f 1185 1121 1182
f 1188 1187 1186
f 1123 1124 1186
f 1187 1123 1186
f 1189 1123 1187
f 1119 1123 1184
f 1184 1123 1189
f 1185 1125 1121
f 1190 1125 1185
f 1193 1192 1191
f 1191 1192 1188
f 1191 1188 1186
f 1128 1191 1186
f 1127 1128 1186
f 1127 1186 1124
f 1190 1194 1125
f 1125 1194 1129
f 1129 1195 1130
f 1194 1195 1129
f 1130 1196 1131
f 1195 1196 1130
f 1131 1197 1132
f 1196 1197 1131
f 1132 1198 1133
f 1197 1198 1132
f 1133 1199 1134
f 1198 1199 1133
f 1134 1200 1135
f 1199 1200 1134
f 1135 1201 1136
f 1200 1201 1135
f 1191 1137 1193
f 1137 1201 1193
f 1137 1136 1201
f 1137 1191 1128
f 1202 1138 1139
f 1140 1203 1139
f 1139 1203 1202
f 1141 1204 1140
f 1140 1204 1203
f 1142 1205 1141
f 1141 1205 1204
f 1143 1206 1142
f 1142 1206 1205
f 1144 1207 1143
f 1143 1207 1206
f 1145 1208 1144
f 1144 1208 1207
f 1146 1209 1145
f 1145 1209 1208
f 1147 1210 1146
f 1146 1210 1209
f 1148 1211 1147
f 1147 1211 1210
f 1149 1212 1148
f 1148 1212 1211
f 1150 1213 1149
f 1149 1213 1212
f 1151 1214 1150
f 1150 1214 1213
f 1152 1215 1151
f 1151 1215 1214
f 1153 1215 1152
f 1216 1154 1202
f 1202 1154 1138
f 1217 1202 1203
f 1216 1202 1217
f 1218 1203 1204
f 1217 1203 1218
f 1219 1204 1205
f 1218 1204 1219
f 1220 1205 1206
f 1219 1205 1220
f 1221 1206 1207
f 1220 1206 1221
f 1222 1207 1208
f 1221 1207 1222
f 1223 1208 1209
f 1222 1208 1223
f 1224 1209 1210
f 1223 1209 1224
f 1225 1210 1211
f 1224 1210 1225
f 1226 1211 1212
f 1225 1211 1226
f 1227 1212 1213
f 1226 1212 1227
f 1228 1213 1214
f 1227 1213 1228
f 1229 1214 1215
f 1228 1214 1229
f 1155 1229 1153
f 1153 1229 1215
f 1230 1156 1216
f 1216 1156 1154
f 1231 1216 1217
f 1230 1216 1231
f 1232 1217 1218
f 1231 1217 1232
f 1233 1218 1219
f 1232 1218 1233
f 1234 1219 1220
f 1233 1219 1234
f 1235 1220 1221
f 1234 1220 1235
f 1236 1221 1222
f 1235 1221 1236
f 1237 1222 1223
f 1236 1222 1237
f 1238 1223 1224
f 1237 1223 1238
f 1239 1224 1225
f 1238 1224 1239
f 1240 1225 1226
f 1239 1225 1240
f 1241 1226 1227
f 1240 1226 1241
f 1242 1227 1228
f 1241 1227 1242
f 1243 1228 1229
f 1242 1228 1243
f 1157 1243 1155
f 1155 1243 1229
f 1244 1158 1230
f 1230 1158 1156
f 1245 1230 1231
f 1244 1230 1245
f 1246 1231 1232
f 1245 1231 1246
f 1247 1232 1233
f 1246 1232 1247
f 1248 1233 1234
f 1247 1233 1248
f 1249 1234 1235
f 1248 1234 1249
f 1250 1235 1236
f 1249 1235 1250
f 1251 1236 1237
f 1250 1236 1251
f 1252 1237 1238
f 1251 1237 1252
f 1253 1238 1239
f 1252 1238 1253
f 1254 1239 1240
f 1253 1239 1254
f 1255 1240 1241
f 1254 1240 1255
f 1256 1241 1242
f 1255 1241 1256
f 1257 1242 1243
f 1256 1242 1257
f 1159 1257 1157
f 1157 1257 1243
f 1258 1160 1244
f 1244 1160 1158
f 1259 1244 1245
f 1258 1244 1259
f 1260 1245 1246
f 1259 1245 1260
f 1261 1246 1247
f 1260 1246 1261
f 1262 1247 1248
f 1261 1247 1262
f 1263 1248 1249
f 1262 1248 1263
f 1264 1249 1250
f 1263 1249 1264
f 1265 1250 1251
f 1264 1250 1265
f 1266 1251 1252
f 1265 1251 1266
f 1267 1252 1253
f 1266 1252 1267
f 1268 1253 1254
f 1267 1253 1268
f 1269 1254 1255
f 1268 1254 1269
f 1270 1255 1256
f 1269 1255 1270
f 1271 1256 1257
f 1270 1256 1271
f 1161 1271 1159
f 1159 1271 1257
f 1272 1162 1258
f 1258 1162 1160
f 1273 1258 1259
f 1272 1258 1273
f 1274 1259 1260
f 1273 1259 1274
f 1275 1260 1261
f 1274 1260 1275
f 1276 1261 1262
f 1275 1261 1276
f 1277 1262 1263
f 1276 1262 1277
f 1278 1263 1264
f 1277 1263 1278
f 1279 1264 1265
f 1278 1264 1279
f 1280 1265 1266
f 1279 1265 1280
f 1281 1266 1267
f 1280 1266 1281
f 1282 1267 1268
f 1281 1267 1282
f 1283 1268 1269
f 1282 1268 1283
f 1284 1269 1270
f 1283 1269 1284
f 1285 1270 1271
f 1284 1270 1285
f 1163 1285 1161
f 1161 1285 1271
f 1286 1164 1272
f 1272 1164 1162
f 1287 1272 1273
f 1286 1272 1287
f 1288 1273 1274
f 1287 1273 1288
f 1289 1274 1275
f 1288 1274 1289
f 1290 1275 1276
f 1289 1275 1290
f 1291 1276 1277
f 1290 1276 1291
f 1292 1277 1278
f 1291 1277 1292
f 1293 1278 1279
f 1292 1278 1293
f 1294 1279 1280
f 1293 1279 1294
f 1295 1280 1281
f 1294 1280 1295
f 1296 1281 1282
f 1295 1281 1296
f 1297 1282 1283
f 1296 1282 1297
f 1298 1283 1284
f 1297 1283 1298
f 1299 1284 1285
f 1298 1284 1299
f 1165 1299 1163
f 1163 1299 1285
f 1300 1166 1286
f 1286 1166 1164
f 1301 1286 1287
f 1300 1286 1301
f 1302 1287 1288
f 1301 1287 1302
f 1303 1288 1289
f 1302 1288 1303
f 1304 1289 1290
f 1303 1289 1304
f 1305 1290 1291
f 1304 1290 1305
f 1306 1291 1292
f 1305 1291 1306
f 1307 1292 1293
f 1306 1292 1307
f 1308 1293 1294
f 1307 1293 1308
f 1309 1294 1295
f 1308 1294 1309
f 1310 1295 1296
f 1309 1295 1310
f 1311 1296 1297
f 1310 1296 1311
f 1312 1297 1298
f 1311 1297 1312
f 1313 1298 1299
f 1312 1298 1313
f 1167 1313 1165
f 1165 1313 1299
f 1314 1168 1300
f 1300 1168 1166
f 1315 1300 1301
f 1314 1300 1315
f 1316 1301 1302
f 1315 1301 1316
f 1317 1302 1303
f 1316 1302 1317
f 1318 1303 1304
f 1317 1303 1318
f 1319 1304 1305
f 1318 1304 1319
f 1320 1305 1306
f 1319 1305 1320
f 1321 1306 1307
f 1320 1306 1321
f 1322 1307 1308
f 1321 1307 1322
f 1323 1308 1309
f 1322 1308 1323
f 1324 1309 1310
f 1323 1309 1324
f 1325 1310 1311
f 1324 1310 1325
f 1326 1311 1312
f 1325 1311 1326
f 1327 1312 1313
f 1326 1312 1327
f 1169 1327 1167
f 1167 1327 1313
f 1328 1170 1314
f 1314 1170 1168
f 1329 1314 1315
f 1328 1314 1329
f 1330 1315 1316
f 1329 1315 1330
f 1331 1316 1317
f 1330 1316 1331
f 1332 1317 1318
f 1331 1317 1332
f 1333 1318 1319
f 1332 1318 1333
f 1334 1319 1320
f 1333 1319 1334
f 1335 1320 1321
f 1334 1320 1335
f 1336 1321 1322
f 1335 1321 1336
f 1337 1322 1323
f 1336 1322 1337
f 1338 1323 1324
f 1337 1323 1338
f 1339 1324 1325
f 1338 1324 1339
f 1340 1325 1326
f 1339 1325 1340
f 1341 1326 1327
f 1340 1326 1341
f 1171 1341 1169
f 1169 1341 1327
f 1342 1172 1328
f 1328 1172 1170
f 1343 1328 1329
f 1342 1328 1343
f 1344 1329 1330
f 1343 1329 1344
f 1345 1330 1331
f 1344 1330 1345
f 1346 1331 1332
f 1345 1331 1346
f 1347 1332 1333
f 1346 1332 1347
f 1348 1333 1334
f 1347 1333 1348
f 1349 1334 1335
f 1348 1334 1349
f 1350 1335 1336
f 1349 1335 1350
f 1351 1336 1337
f 1350 1336 1351
f 1352 1337 1338
f 1351 1337 1352
f 1353 1338 1339
f 1352 1338 1353
f 1354 1339 1340
f 1353 1339 1354
f 1355 1340 1341
f 1354 1340 1355
f 1173 1355 1171
f 1171 1355 1341
f 1356 1174 1342
f 1342 1174 1172
f 1357 1342 1343
f 1356 1342 1357
f 1358 1343 1344
f 1357 1343 1358
f 1359 1344 1345
f 1358 1344 1359
f 1360 1345 1346
f 1359 1345 1360
f 1361 1346 1347
f 1360 1346 1361
f 1362 1347 1348
f 1361 1347 1362
f 1363 1348 1349
f 1362 1348 1363
f 1364 1349 1350
f 1363 1349 1364
f 1365 1350 1351
f 1364 1350 1365
f 1366 1351 1352
f 1365 1351 1366
f 1367 1352 1353
f 1366 1352 1367
f 1368 1353 1354
f 1367 1353 1368
f 1177 1368 1176
f 1368 1355 1176
f 1368 1354 1355
f 1176 1355 1173
f 1369 1178 1356
f 1356 1178 1174
f 1370 1356 1357
f 1369 1356 1370
f 1371 1357 1358
f 1370 1357 1371
f 1372 1358 1359
f 1371 1358 1372
f 1373 1359 1360
f 1372 1359 1373
f 1374 1360 1361
f 1373 1360 1374
f 1375 1361 1362
f 1374 1361 1375
f 1376 1362 1363
f 1375 1362 1376
f 1377 1363 1364
f 1376 1363 1377
f 1378 1364 1365
f 1377 1364 1378
f 1379 1365 1366
f 1378 1365 1379
f 1380 1366 1367
f 1379 1366 1380
f 1181 1380 1180
f 1380 1368 1180
f 1380 1367 1368
f 1180 1368 1177
f 1381 1182 1369
f 1369 1182 1178
f 1382 1369 1370
f 1381 1369 1382
f 1383 1370 1371
f 1382 1370 1383
f 1384 1371 1372
f 1383 1371 1384
f 1385 1372 1373
f 1384 1372 1385
f 1386 1373 1374
f 1385 1373 1386
f 1387 1374 1375
f 1386 1374 1387
f 1388 1375 1376
f 1387 1375 1388
f 1389 1376 1377
f 1388 1376 1389
f 1390 1377 1378
f 1389 1377 1390
f 1391 1378 1379
f 1390 1378 1391
f 1184 1391 1183
f 1391 1380 1183
f 1391 1379 1380
f 1183 1380 1181
f 1392 1185 1381
f 1381 1185 1182
f 1393 1381 1382
f 1392 1381 1393
f 1394 1382 1383
f 1393 1382 1394
f 1395 1383 1384
f 1394 1383 1395
f 1396 1384 1385
f 1395 1384 1396
f 1397 1385 1386
f 1396 1385 1397
f 1398 1386 1387
f 1397 1386 1398
f 1399 1387 1388
f 1398 1387 1399
f 1400 1388 1389
f 1399 1388 1400
f 1188 1400 1187
f 1400 1390 1187
f 1400 1389 1390
f 1187 1390 1189
f 1189 1390 1391
f 1189 1391 1184
f 1401 1190 1392
f 1392 1190 1185
f 1402 1392 1393
f 1401 1392 1402
f 1403 1393 1394
f 1402 1393 1403
f 1404 1394 1395
f 1403 1394 1404
f 1405 1395 1396
f 1404 1395 1405
f 1406 1396 1397
f 1405 1396 1406
f 1407 1397 1398
f 1406 1397 1407
f 1408 1398 1399
f 1407 1398 1408
f 1193 1408 1192
f 1408 1400 1192
f 1408 1399 1400
f 1192 1400 1188
f 1401 1194 1190
f 1194 1401 1195
f 1195 1401 1402
f 1195 1402 1196
f 1196 1402 1403
f 1196 1403 1197
f 1197 1403 1404
f 1197 1404 1198
f 1198 1404 1405
f 1198 1405 1199
f 1199 1405 1406
f 1199 1406 1200
f 1200 1406 1407
f 1200 1407 1201
f 1201 1407 1408
f 1201 1408 1193
