ply
format ascii 1.0
element vertex 1414
property float x
property float y
property float z
element face 2824
property list uchar int vertex_indices
end_header
-1.27096383 0.79369570 -0.21428571
-1.19953526 0.79369570 -0.28571429
-1.19953526 0.72226712 -0.21428571
-1.19953526 0.79369570 -0.14285714
-1.27096383 0.93655284 -0.21428571
-1.19953526 0.93655284 -0.28571429
-1.19953526 0.93655284 -0.14285714
-1.19953526 1.00798141 -0.21428571
-1.12810669 -0.92059002 -0.92857143
-1.05667812 -0.92059002 -1.00000000
-1.05667812 -0.99201859 -0.92857143
-1.05667812 -0.99201859 -0.78571429
-1.12810669 -0.92059002 -0.78571429
-1.05667812 -0.99201859 -0.64285714
-1.12810669 -0.92059002 -0.64285714
-1.05667812 -0.99201859 -0.50000000
-1.12810669 -0.92059002 -0.50000000
-1.05667812 -0.99201859 -0.35714286
-1.12810669 -0.92059002 -0.35714286
-1.05667812 -0.99201859 -0.21428571
-1.12810669 -0.92059002 -0.21428571
-1.05667812 -0.99201859 -0.07142857
-1.12810669 -0.92059002 -0.07142857
-1.05667812 -0.99201859 0.07142857
-1.12810669 -0.92059002 0.07142857
-1.05667812 -0.99201859 0.21428571
-1.12810669 -0.92059002 0.21428571
-1.05667812 -0.99201859 0.35714286
-1.12810669 -0.92059002 0.35714286
-1.05667812 -0.99201859 0.50000000
-1.12810669 -0.92059002 0.50000000
-1.05667812 -0.99201859 0.64285714
-1.12810669 -0.92059002 0.64285714
-1.05667812 -0.99201859 0.78571429
-1.12810669 -0.92059002 0.78571429
-1.05667812 -0.99201859 0.92857143
-1.12810669 -0.92059002 0.92857143
-1.05667812 -0.92059002 1.00000000
-1.12810669 -0.77773288 -0.92857143
-1.05667812 -0.77773288 -1.00000000
-1.12810669 -0.77773288 -0.78571429
-1.12810669 -0.77773288 -0.64285714
-1.12810669 -0.77773288 -0.50000000
-1.12810669 -0.77773288 -0.35714286
-1.12810669 -0.77773288 -0.21428571
-1.12810669 -0.77773288 -0.07142857
-1.12810669 -0.77773288 0.07142857
-1.12810669 -0.77773288 0.21428571
-1.12810669 -0.77773288 0.35714286
-1.12810669 -0.77773288 0.50000000
-1.12810669 -0.77773288 0.64285714
-1.12810669 -0.77773288 0.78571429
-1.12810669 -0.77773288 0.92857143
-1.05667812 -0.77773288 1.00000000
-1.12810669 -0.63487573 -0.92857143
-1.05667812 -0.63487573 -1.00000000
-1.12810669 -0.63487573 -0.78571429
-1.12810669 -0.63487573 -0.64285714
-1.12810669 -0.63487573 -0.50000000
-1.12810669 -0.63487573 -0.35714286
-1.12810669 -0.63487573 -0.21428571
-1.12810669 -0.63487573 -0.07142857
-1.12810669 -0.63487573 0.07142857
-1.12810669 -0.63487573 0.21428571
-1.12810669 -0.63487573 0.35714286
-1.12810669 -0.63487573 0.50000000
-1.12810669 -0.63487573 0.64285714
-1.12810669 -0.63487573 0.78571429
-1.12810669 -0.63487573 0.92857143
-1.05667812 -0.63487573 1.00000000
-1.12810669 -0.49201859 -0.92857143
-1.05667812 -0.49201859 -1.00000000
-1.12810669 -0.49201859 -0.78571429
-1.12810669 -0.49201859 -0.64285714
-1.12810669 -0.49201859 -0.50000000
-1.12810669 -0.49201859 -0.35714286
-1.12810669 -0.49201859 -0.21428571
-1.12810669 -0.49201859 -0.07142857
-1.12810669 -0.49201859 0.07142857
-1.12810669 -0.49201859 0.21428571
-1.12810669 -0.49201859 0.35714286
-1.12810669 -0.49201859 0.50000000
-1.12810669 -0.49201859 0.64285714
-1.12810669 -0.49201859 0.78571429
-1.12810669 -0.49201859 0.92857143
-1.05667812 -0.49201859 1.00000000
-1.12810669 -0.34916145 -0.92857143
-1.05667812 -0.34916145 -1.00000000
-1.12810669 -0.34916145 -0.78571429
-1.12810669 -0.34916145 -0.64285714
-1.12810669 -0.34916145 -0.50000000
-1.12810669 -0.34916145 -0.35714286
-1.12810669 -0.34916145 -0.21428571
-1.12810669 -0.34916145 -0.07142857
-1.12810669 -0.34916145 0.07142857
-1.12810669 -0.34916145 0.21428571
-1.12810669 -0.34916145 0.35714286
-1.12810669 -0.34916145 0.50000000
-1.12810669 -0.34916145 0.64285714
-1.12810669 -0.34916145 0.78571429
-1.12810669 -0.34916145 0.92857143
-1.05667812 -0.34916145 1.00000000
-1.12810669 -0.20630430 -0.92857143
-1.05667812 -0.20630430 -1.00000000
-1.12810669 -0.20630430 -0.78571429
-1.12810669 -0.20630430 -0.64285714
-1.12810669 -0.20630430 -0.50000000
-1.12810669 -0.20630430 -0.35714286
-1.12810669 -0.20630430 -0.21428571
-1.12810669 -0.20630430 -0.07142857
-1.12810669 -0.20630430 0.07142857
-1.12810669 -0.20630430 0.21428571
-1.12810669 -0.20630430 0.35714286
-1.12810669 -0.20630430 0.50000000
-1.12810669 -0.20630430 0.64285714
-1.12810669 -0.20630430 0.78571429
-1.12810669 -0.20630430 0.92857143
-1.05667812 -0.20630430 1.00000000
-1.12810669 -0.06344716 -0.92857143
-1.05667812 -0.06344716 -1.00000000
-1.12810669 -0.06344716 -0.78571429
-1.12810669 -0.06344716 -0.64285714
-1.12810669 -0.06344716 -0.50000000
-1.12810669 -0.06344716 -0.35714286
-1.12810669 -0.06344716 -0.21428571
-1.12810669 -0.06344716 -0.07142857
-1.12810669 -0.06344716 0.07142857
-1.12810669 -0.06344716 0.21428571
-1.12810669 -0.06344716 0.35714286
-1.12810669 -0.06344716 0.50000000
-1.12810669 -0.06344716 0.64285714
-1.12810669 -0.06344716 0.78571429
-1.12810669 -0.06344716 0.92857143
-1.05667812 -0.06344716 1.00000000
-1.12810669 0.07940998 -0.92857143
-1.05667812 0.07940998 -1.00000000
-1.12810669 0.07940998 -0.78571429
-1.12810669 0.07940998 -0.64285714
-1.12810669 0.07940998 -0.50000000
-1.12810669 0.07940998 -0.35714286
-1.12810669 0.07940998 -0.21428571
-1.12810669 0.07940998 -0.07142857
-1.12810669 0.07940998 0.07142857
-1.12810669 0.07940998 0.21428571
-1.12810669 0.07940998 0.35714286
-1.12810669 0.07940998 0.50000000
-1.12810669 0.07940998 0.64285714
-1.12810669 0.07940998 0.78571429
-1.12810669 0.07940998 0.92857143
-1.05667812 0.07940998 1.00000000
-1.12810669 0.22226712 -0.92857143
-1.05667812 0.22226712 -1.00000000
-1.12810669 0.22226712 -0.78571429
-1.12810669 0.22226712 -0.64285714
-1.12810669 0.22226712 -0.50000000
-1.12810669 0.22226712 -0.35714286
-1.12810669 0.22226712 -0.21428571
-1.12810669 0.22226712 -0.07142857
-1.12810669 0.22226712 0.07142857
-1.12810669 0.22226712 0.21428571
-1.12810669 0.22226712 0.35714286
-1.12810669 0.22226712 0.50000000
-1.12810669 0.22226712 0.64285714
-1.12810669 0.22226712 0.78571429
-1.12810669 0.22226712 0.92857143
-1.05667812 0.22226712 1.00000000
-1.12810669 0.36512427 -0.92857143
-1.05667812 0.36512427 -1.00000000
-1.12810669 0.36512427 -0.78571429
-1.12810669 0.36512427 -0.64285714
-1.12810669 0.36512427 -0.50000000
-1.12810669 0.36512427 -0.35714286
-1.12810669 0.36512427 -0.21428571
-1.12810669 0.36512427 -0.07142857
-1.12810669 0.36512427 0.07142857
-1.12810669 0.36512427 0.21428571
-1.12810669 0.36512427 0.35714286
-1.12810669 0.36512427 0.50000000
-1.12810669 0.36512427 0.64285714
-1.12810669 0.36512427 0.78571429
-1.12810669 0.36512427 0.92857143
-1.05667812 0.36512427 1.00000000
-1.12810669 0.50798141 -0.92857143
-1.05667812 0.50798141 -1.00000000
-1.12810669 0.50798141 -0.78571429
-1.12810669 0.50798141 -0.64285714
-1.12810669 0.50798141 -0.50000000
-1.12810669 0.50798141 -0.35714286
-1.12810669 0.50798141 -0.21428571
-1.12810669 0.50798141 -0.07142857
-1.12810669 0.50798141 0.07142857
-1.12810669 0.50798141 0.21428571
-1.12810669 0.50798141 0.35714286
-1.12810669 0.50798141 0.50000000
-1.12810669 0.50798141 0.64285714
-1.12810669 0.50798141 0.78571429
-1.12810669 0.50798141 0.92857143
-1.05667812 0.50798141 1.00000000
-1.12810669 0.65083855 -0.92857143
-1.05667812 0.65083855 -1.00000000
-1.12810669 0.65083855 -0.78571429
-1.12810669 0.65083855 -0.64285714
-1.12810669 0.65083855 -0.50000000
-1.12810669 0.65083855 -0.35714286
-1.12810669 0.65083855 -0.21428571
-1.12810669 0.65083855 -0.07142857
-1.12810669 0.65083855 0.07142857
-1.12810669 0.65083855 0.21428571
-1.12810669 0.65083855 0.35714286
-1.12810669 0.65083855 0.50000000
-1.12810669 0.65083855 0.64285714
-1.12810669 0.65083855 0.78571429
-1.12810669 0.65083855 0.92857143
-1.05667812 0.65083855 1.00000000
-1.12810669 0.79369570 -0.92857143
-1.05667812 0.79369570 -1.00000000
-1.12810669 0.79369570 -0.78571429
-1.12810669 0.79369570 -0.64285714
-1.12810669 0.79369570 -0.50000000
-1.12810669 0.79369570 -0.35714286
-1.12810669 0.79369570 -0.07142857
-1.12810669 0.79369570 0.07142857
-1.12810669 0.79369570 0.21428571
-1.12810669 0.79369570 0.35714286
-1.12810669 0.79369570 0.50000000
-1.12810669 0.79369570 0.64285714
-1.12810669 0.79369570 0.78571429
-1.12810669 0.79369570 0.92857143
-1.05667812 0.79369570 1.00000000
-1.12810669 0.93655284 -0.92857143
-1.05667812 0.93655284 -1.00000000
-1.12810669 0.93655284 -0.78571429
-1.12810669 0.93655284 -0.64285714
-1.12810669 0.93655284 -0.50000000
-1.12810669 0.93655284 -0.35714286
-1.12810669 0.93655284 -0.07142857
-1.12810669 0.93655284 0.07142857
-1.12810669 0.93655284 0.21428571
-1.12810669 0.93655284 0.35714286
-1.12810669 0.93655284 0.50000000
-1.12810669 0.93655284 0.64285714
-1.12810669 0.93655284 0.78571429
-1.12810669 0.93655284 0.92857143
-1.05667812 0.93655284 1.00000000
-1.05667812 1.00798141 -0.92857143
-1.05667812 1.00798141 -0.78571429
-1.05667812 1.00798141 -0.64285714
-1.05667812 1.00798141 -0.50000000
-1.05667812 1.00798141 -0.35714286
-1.05667812 1.00798141 -0.21428571
-1.05667812 1.00798141 -0.07142857
-1.05667812 1.00798141 0.07142857
-1.05667812 1.00798141 0.21428571
-1.05667812 1.00798141 0.35714286
-1.05667812 1.00798141 0.50000000
-1.05667812 1.00798141 0.64285714
-1.05667812 1.00798141 0.78571429
-1.05667812 1.00798141 0.92857143
-0.98524955 -1.20630430 -0.07142857
-0.91382097 -1.20630430 -0.14285714
-0.91382097 -1.27773288 -0.07142857
-0.91382097 -1.20630430 0.00000000
-0.98524955 -1.06344716 -0.92857143
-0.91382097 -1.06344716 -1.00000000
-0.91382097 -1.13487573 -0.92857143
-0.91382097 -1.13487573 -0.78571429
-0.98524955 -1.06344716 -0.78571429
-0.91382097 -1.13487573 -0.64285714
-0.98524955 -1.06344716 -0.64285714
-0.91382097 -1.13487573 -0.50000000
-0.98524955 -1.06344716 -0.50000000
-0.91382097 -1.13487573 -0.35714286
-0.98524955 -1.06344716 -0.35714286
-0.91382097 -1.13487573 -0.21428571
-0.98524955 -1.06344716 -0.21428571
-0.98524955 -1.06344716 -0.07142857
-0.91382097 -1.13487573 0.07142857
-0.98524955 -1.06344716 0.07142857
-0.91382097 -1.13487573 0.21428571
-0.98524955 -1.06344716 0.21428571
-0.91382097 -1.13487573 0.35714286
-0.98524955 -1.06344716 0.35714286
-0.91382097 -1.13487573 0.50000000
-0.98524955 -1.06344716 0.50000000
-0.91382097 -1.13487573 0.64285714
-0.98524955 -1.06344716 0.64285714
-0.91382097 -1.13487573 0.78571429
-0.98524955 -1.06344716 0.78571429
-0.91382097 -1.13487573 0.92857143
-0.98524955 -1.06344716 0.92857143
-0.91382097 -1.06344716 1.00000000
-0.91382097 -0.92059002 -1.00000000
-0.91382097 -0.92059002 1.00000000
-0.91382097 -0.77773288 -1.00000000
-0.91382097 -0.77773288 1.00000000
-0.91382097 -0.63487573 -1.00000000
-0.91382097 -0.63487573 1.00000000
-0.91382097 -0.49201859 -1.00000000
-0.91382097 -0.49201859 1.00000000
-0.91382097 -0.34916145 -1.00000000
-0.91382097 -0.34916145 1.00000000
-0.91382097 -0.20630430 -1.00000000
-0.91382097 -0.20630430 1.00000000
-0.91382097 -0.06344716 -1.00000000
-0.91382097 -0.06344716 1.00000000
-0.91382097 0.07940998 -1.00000000
-0.91382097 0.07940998 1.00000000
-0.91382097 0.22226712 -1.00000000
-0.91382097 0.22226712 1.00000000
-0.91382097 0.36512427 -1.00000000
-0.91382097 0.36512427 1.00000000
-0.91382097 0.50798141 -1.00000000
-0.91382097 0.50798141 1.00000000
-0.91382097 0.65083855 -1.00000000
-0.91382097 0.65083855 1.00000000
-0.91382097 0.79369570 -1.00000000
-0.91382097 0.79369570 1.00000000
-0.91382097 0.93655284 -1.00000000
-0.91382097 0.93655284 1.00000000
-0.98524955 1.07940998 -0.92857143
-0.91382097 1.07940998 -1.00000000
-0.98524955 1.07940998 -0.78571429
-0.98524955 1.07940998 -0.64285714
-0.98524955 1.07940998 -0.50000000
-0.98524955 1.07940998 -0.35714286
-0.98524955 1.07940998 -0.21428571
-0.98524955 1.07940998 -0.07142857
-0.98524955 1.07940998 0.07142857
-0.98524955 1.07940998 0.21428571
-0.98524955 1.07940998 0.35714286
-0.98524955 1.07940998 0.50000000
-0.98524955 1.07940998 0.64285714
-0.98524955 1.07940998 0.78571429
-0.98524955 1.07940998 0.92857143
-0.91382097 1.07940998 1.00000000
-0.91382097 1.15083855 -0.92857143
-0.91382097 1.15083855 -0.78571429
-0.91382097 1.15083855 -0.64285714
-0.91382097 1.15083855 -0.50000000
-0.91382097 1.15083855 -0.35714286
-0.91382097 1.15083855 -0.21428571
-0.91382097 1.15083855 -0.07142857
-0.91382097 1.15083855 0.07142857
-0.91382097 1.15083855 0.21428571
-0.91382097 1.15083855 0.35714286
-0.91382097 1.15083855 0.50000000
-0.91382097 1.15083855 0.64285714
-0.91382097 1.15083855 0.78571429
-0.91382097 1.15083855 0.92857143
-0.84239240 -1.20630430 -0.07142857
-0.84239240 -1.20630430 0.21428571
-0.77096383 -1.20630430 0.14285714
-0.77096383 -1.27773288 0.21428571
-0.77096383 -1.20630430 0.28571429
-0.77096383 -1.06344716 -1.00000000
-0.77096383 -1.13487573 -0.92857143
-0.77096383 -1.13487573 -0.78571429
-0.77096383 -1.13487573 -0.64285714
-0.77096383 -1.13487573 -0.50000000
-0.77096383 -1.13487573 -0.35714286
-0.77096383 -1.13487573 -0.21428571
-0.77096383 -1.13487573 -0.07142857
-0.77096383 -1.13487573 0.07142857
-0.77096383 -1.13487573 0.35714286
-0.77096383 -1.13487573 0.50000000
-0.77096383 -1.13487573 0.64285714
-0.77096383 -1.13487573 0.78571429
-0.77096383 -1.13487573 0.92857143
-0.77096383 -1.06344716 1.00000000
-0.77096383 -0.92059002 -1.00000000
-0.77096383 -0.92059002 1.00000000
-0.77096383 -0.77773288 -1.00000000
-0.77096383 -0.77773288 1.00000000
-0.77096383 -0.63487573 -1.00000000
-0.77096383 -0.63487573 1.00000000
-0.77096383 -0.49201859 -1.00000000
-0.77096383 -0.49201859 1.00000000
-0.77096383 -0.34916145 -1.00000000
-0.77096383 -0.34916145 1.00000000
-0.77096383 -0.20630430 -1.00000000
-0.77096383 -0.20630430 1.00000000
-0.77096383 -0.06344716 -1.00000000
-0.77096383 -0.06344716 1.00000000
-0.77096383 0.07940998 -1.00000000
-0.77096383 0.07940998 1.00000000
-0.77096383 0.22226712 -1.00000000
-0.77096383 0.22226712 1.00000000
-0.77096383 0.36512427 -1.00000000
-0.77096383 0.36512427 1.00000000
-0.77096383 0.50798141 -1.00000000
-0.77096383 0.50798141 1.00000000
-0.77096383 0.65083855 -1.00000000
-0.77096383 0.65083855 1.00000000
-0.77096383 0.79369570 -1.00000000
-0.77096383 0.79369570 1.00000000
-0.77096383 0.93655284 -1.00000000
-0.77096383 0.93655284 1.00000000
-0.77096383 1.07940998 -1.00000000
-0.77096383 1.07940998 1.00000000
-0.77096383 1.15083855 -0.92857143
-0.77096383 1.15083855 -0.78571429
-0.77096383 1.15083855 -0.64285714
-0.77096383 1.15083855 -0.50000000
-0.77096383 1.15083855 -0.35714286
-0.77096383 1.15083855 -0.21428571
-0.77096383 1.15083855 -0.07142857
-0.77096383 1.15083855 0.07142857
-0.77096383 1.15083855 0.21428571
-0.77096383 1.15083855 0.35714286
-0.77096383 1.15083855 0.50000000
-0.77096383 1.15083855 0.64285714
-0.77096383 1.15083855 0.78571429
-0.77096383 1.15083855 0.92857143
-0.69953526 -1.20630430 0.21428571
-0.62810669 -1.06344716 -1.00000000
-0.62810669 -1.13487573 -0.92857143
-0.62810669 -1.13487573 -0.78571429
-0.62810669 -1.13487573 -0.64285714
-0.62810669 -1.13487573 -0.50000000
-0.62810669 -1.13487573 -0.35714286
-0.62810669 -1.13487573 -0.21428571
-0.62810669 -1.13487573 -0.07142857
-0.62810669 -1.13487573 0.07142857
-0.62810669 -1.13487573 0.21428571
-0.62810669 -1.13487573 0.35714286
-0.62810669 -1.13487573 0.50000000
-0.62810669 -1.13487573 0.64285714
-0.62810669 -1.13487573 0.78571429
-0.62810669 -1.13487573 0.92857143
-0.62810669 -1.06344716 1.00000000
-0.62810669 -0.92059002 -1.00000000
-0.62810669 -0.92059002 1.00000000
-0.62810669 -0.77773288 -1.00000000
-0.62810669 -0.77773288 1.00000000
-0.62810669 -0.63487573 -1.00000000
-0.62810669 -0.63487573 1.00000000
-0.62810669 -0.49201859 -1.00000000
-0.62810669 -0.49201859 1.00000000
-0.62810669 -0.34916145 -1.00000000
-0.62810669 -0.34916145 1.00000000
-0.62810669 -0.20630430 -1.00000000
-0.62810669 -0.20630430 1.00000000
-0.62810669 -0.06344716 -1.00000000
-0.62810669 -0.06344716 1.00000000
-0.62810669 0.07940998 -1.00000000
-0.62810669 0.07940998 1.00000000
-0.62810669 0.22226712 -1.00000000
-0.62810669 0.22226712 1.00000000
-0.62810669 0.36512427 -1.00000000
-0.62810669 0.36512427 1.00000000
-0.62810669 0.50798141 -1.00000000
-0.62810669 0.50798141 1.00000000
-0.62810669 0.65083855 -1.00000000
-0.62810669 0.65083855 1.00000000
-0.62810669 0.79369570 -1.00000000
-0.62810669 0.79369570 1.00000000
-0.62810669 0.93655284 -1.00000000
-0.62810669 0.93655284 1.00000000
-0.62810669 1.07940998 -1.00000000
-0.62810669 1.07940998 1.00000000
-0.62810669 1.15083855 -0.92857143
-0.62810669 1.15083855 -0.78571429
-0.62810669 1.15083855 -0.64285714
-0.62810669 1.15083855 -0.50000000
-0.62810669 1.15083855 -0.35714286
-0.62810669 1.15083855 -0.21428571
-0.62810669 1.15083855 -0.07142857
-0.62810669 1.15083855 0.07142857
-0.62810669 1.15083855 0.21428571
-0.62810669 1.15083855 0.35714286
-0.62810669 1.15083855 0.50000000
-0.62810669 1.15083855 0.64285714
-0.62810669 1.15083855 0.78571429
-0.62810669 1.15083855 0.92857143
-0.48524955 -1.06344716 -1.00000000
-0.48524955 -1.13487573 -0.92857143
-0.48524955 -1.13487573 -0.78571429
-0.48524955 -1.13487573 -0.64285714
-0.48524955 -1.13487573 -0.50000000
-0.48524955 -1.13487573 -0.35714286
-0.48524955 -1.13487573 -0.21428571
-0.48524955 -1.13487573 -0.07142857
-0.48524955 -1.13487573 0.07142857
-0.48524955 -1.13487573 0.21428571
-0.48524955 -1.13487573 0.35714286
-0.48524955 -1.13487573 0.50000000
-0.48524955 -1.13487573 0.64285714
-0.48524955 -1.13487573 0.78571429
-0.48524955 -1.13487573 0.92857143
-0.48524955 -1.06344716 1.00000000
-0.48524955 -0.92059002 -1.00000000
-0.48524955 -0.92059002 1.00000000
-0.48524955 -0.77773288 -1.00000000
-0.48524955 -0.77773288 1.00000000
-0.48524955 -0.63487573 -1.00000000
-0.48524955 -0.63487573 1.00000000
-0.48524955 -0.49201859 -1.00000000
-0.48524955 -0.49201859 1.00000000
-0.48524955 -0.34916145 -1.00000000
-0.48524955 -0.34916145 1.00000000
-0.48524955 -0.20630430 -1.00000000
-0.48524955 -0.20630430 1.00000000
-0.48524955 -0.06344716 -1.00000000
-0.48524955 -0.06344716 1.00000000
-0.48524955 0.07940998 -1.00000000
-0.48524955 0.07940998 1.00000000
-0.48524955 0.22226712 -1.00000000
-0.48524955 0.22226712 1.00000000
-0.48524955 0.36512427 -1.00000000
-0.48524955 0.36512427 1.00000000
-0.48524955 0.50798141 -1.00000000
-0.48524955 0.50798141 1.00000000
-0.48524955 0.65083855 -1.00000000
-0.48524955 0.65083855 1.00000000
-0.48524955 0.79369570 -1.00000000
-0.48524955 0.79369570 1.00000000
-0.48524955 0.93655284 -1.00000000
-0.48524955 0.93655284 1.00000000
-0.48524955 1.07940998 -1.00000000
-0.48524955 1.07940998 1.00000000
-0.48524955 1.15083855 -0.92857143
-0.48524955 1.15083855 -0.78571429
-0.48524955 1.15083855 -0.64285714
-0.48524955 1.15083855 -0.50000000
-0.48524955 1.15083855 -0.35714286
-0.48524955 1.15083855 -0.21428571
-0.48524955 1.15083855 -0.07142857
-0.48524955 1.15083855 0.07142857
-0.48524955 1.15083855 0.21428571
-0.48524955 1.15083855 0.35714286
-0.48524955 1.15083855 0.50000000
-0.48524955 1.15083855 0.64285714
-0.48524955 1.15083855 0.78571429
-0.48524955 1.15083855 0.92857143
-0.34239240 -1.06344716 -1.00000000
-0.34239240 -1.13487573 -0.92857143
-0.34239240 -1.13487573 -0.78571429
-0.34239240 -1.13487573 -0.64285714
-0.34239240 -1.13487573 -0.50000000
-0.34239240 -1.13487573 -0.35714286
-0.34239240 -1.13487573 -0.21428571
-0.34239240 -1.13487573 -0.07142857
-0.34239240 -1.13487573 0.07142857
-0.34239240 -1.13487573 0.21428571
-0.34239240 -1.13487573 0.35714286
-0.34239240 -1.13487573 0.50000000
-0.34239240 -1.13487573 0.64285714
-0.34239240 -1.13487573 0.78571429
-0.34239240 -1.13487573 0.92857143
-0.34239240 -1.06344716 1.00000000
-0.34239240 -0.92059002 -1.00000000
-0.34239240 -0.92059002 1.00000000
-0.34239240 -0.77773288 -1.00000000
-0.34239240 -0.77773288 1.00000000
-0.34239240 -0.63487573 -1.00000000
-0.34239240 -0.63487573 1.00000000
-0.34239240 -0.49201859 -1.00000000
-0.34239240 -0.49201859 1.00000000
-0.34239240 -0.34916145 -1.00000000
-0.34239240 -0.34916145 1.00000000
-0.34239240 -0.20630430 -1.00000000
-0.34239240 -0.20630430 1.00000000
-0.34239240 -0.06344716 -1.00000000
-0.34239240 -0.06344716 1.00000000
-0.34239240 0.07940998 -1.00000000
-0.34239240 0.07940998 1.00000000
-0.34239240 0.22226712 -1.00000000
-0.34239240 0.22226712 1.00000000
-0.34239240 0.36512427 -1.00000000
-0.34239240 0.36512427 1.00000000
-0.34239240 0.50798141 -1.00000000
-0.34239240 0.50798141 1.00000000
-0.34239240 0.65083855 -1.00000000
-0.34239240 0.65083855 1.00000000
-0.34239240 0.79369570 -1.00000000
-0.34239240 0.79369570 1.00000000
-0.34239240 0.93655284 -1.00000000
-0.34239240 0.93655284 1.00000000
-0.34239240 1.07940998 -1.00000000
-0.34239240 1.07940998 1.00000000
-0.34239240 1.15083855 -0.92857143
-0.34239240 1.15083855 -0.78571429
-0.34239240 1.15083855 -0.64285714
-0.34239240 1.15083855 -0.50000000
-0.34239240 1.15083855 -0.35714286
-0.34239240 1.15083855 -0.21428571
-0.34239240 1.15083855 -0.07142857
-0.34239240 1.15083855 0.07142857
-0.34239240 1.15083855 0.21428571
-0.34239240 1.15083855 0.35714286
-0.34239240 1.15083855 0.50000000
-0.34239240 1.15083855 0.64285714
-0.34239240 1.15083855 0.78571429
-0.34239240 1.15083855 0.92857143
-0.19953526 -1.06344716 -1.00000000
-0.19953526 -1.13487573 -0.92857143
-0.19953526 -1.13487573 -0.78571429
-0.19953526 -1.13487573 -0.64285714
-0.19953526 -1.13487573 -0.50000000
-0.19953526 -1.13487573 -0.35714286
-0.19953526 -1.13487573 -0.21428571
-0.19953526 -1.13487573 -0.07142857
-0.19953526 -1.13487573 0.07142857
-0.19953526 -1.13487573 0.21428571
-0.19953526 -1.13487573 0.35714286
-0.19953526 -1.13487573 0.50000000
-0.19953526 -1.13487573 0.64285714
-0.19953526 -1.13487573 0.78571429
-0.19953526 -1.13487573 0.92857143
-0.19953526 -1.06344716 1.00000000
-0.19953526 -0.92059002 -1.00000000
-0.19953526 -0.92059002 1.00000000
-0.19953526 -0.77773288 -1.00000000
-0.19953526 -0.77773288 1.00000000
-0.19953526 -0.63487573 -1.00000000
-0.19953526 -0.63487573 1.00000000
-0.19953526 -0.49201859 -1.00000000
-0.19953526 -0.49201859 1.00000000
-0.19953526 -0.34916145 -1.00000000
-0.19953526 -0.34916145 1.00000000
-0.19953526 -0.20630430 -1.00000000
-0.19953526 -0.20630430 1.00000000
-0.19953526 -0.06344716 -1.00000000
-0.19953526 -0.06344716 1.00000000
-0.19953526 0.07940998 -1.00000000
-0.19953526 0.07940998 1.00000000
-0.19953526 0.22226712 -1.00000000
-0.19953526 0.22226712 1.00000000
-0.19953526 0.36512427 -1.00000000
-0.19953526 0.36512427 1.00000000
-0.19953526 0.50798141 -1.00000000
-0.19953526 0.50798141 1.00000000
-0.19953526 0.65083855 -1.00000000
-0.19953526 0.65083855 1.00000000
-0.19953526 0.79369570 -1.00000000
-0.19953526 0.79369570 1.00000000
-0.19953526 0.93655284 -1.00000000
-0.19953526 0.93655284 1.00000000
-0.19953526 1.07940998 -1.00000000
-0.19953526 1.07940998 1.00000000
-0.19953526 1.15083855 -0.92857143
-0.19953526 1.15083855 -0.78571429
-0.19953526 1.15083855 -0.64285714
-0.19953526 1.15083855 -0.50000000
-0.19953526 1.15083855 -0.35714286
-0.19953526 1.15083855 -0.21428571
-0.19953526 1.15083855 -0.07142857
-0.19953526 1.15083855 0.07142857
-0.19953526 1.15083855 0.21428571
-0.19953526 1.15083855 0.35714286
-0.19953526 1.15083855 0.50000000
-0.19953526 1.15083855 0.64285714
-0.19953526 1.15083855 0.78571429
-0.19953526 1.15083855 0.92857143
-0.05667812 -1.06344716 -1.00000000
-0.05667812 -1.13487573 -0.92857143
-0.05667812 -1.13487573 -0.78571429
-0.05667812 -1.13487573 -0.64285714
-0.05667812 -1.13487573 -0.50000000
-0.05667812 -1.13487573 -0.35714286
-0.05667812 -1.13487573 -0.21428571
-0.05667812 -1.13487573 -0.07142857
-0.05667812 -1.13487573 0.07142857
-0.05667812 -1.13487573 0.21428571
-0.05667812 -1.13487573 0.35714286
-0.05667812 -1.13487573 0.50000000
-0.05667812 -1.13487573 0.64285714
-0.05667812 -1.13487573 0.78571429
-0.05667812 -1.13487573 0.92857143
-0.05667812 -1.06344716 1.00000000
-0.05667812 -0.92059002 -1.00000000
-0.05667812 -0.92059002 1.00000000
-0.05667812 -0.77773288 -1.00000000
-0.05667812 -0.77773288 1.00000000
-0.05667812 -0.63487573 -1.00000000
-0.05667812 -0.63487573 1.00000000
-0.05667812 -0.49201859 -1.00000000
-0.05667812 -0.49201859 1.00000000
-0.05667812 -0.34916145 -1.00000000
-0.05667812 -0.34916145 1.00000000
-0.05667812 -0.20630430 -1.00000000
-0.05667812 -0.20630430 1.00000000
-0.05667812 -0.06344716 -1.00000000
-0.05667812 -0.06344716 1.00000000
-0.05667812 0.07940998 -1.00000000
-0.05667812 0.07940998 1.00000000
-0.05667812 0.22226712 -1.00000000
-0.05667812 0.22226712 1.00000000
-0.05667812 0.36512427 -1.00000000
-0.05667812 0.36512427 1.00000000
-0.05667812 0.50798141 -1.00000000
-0.05667812 0.50798141 1.00000000
-0.05667812 0.65083855 -1.00000000
-0.05667812 0.65083855 1.00000000
-0.05667812 0.79369570 -1.00000000
-0.05667812 0.79369570 1.00000000
-0.05667812 0.93655284 -1.00000000
-0.05667812 0.93655284 1.00000000
-0.05667812 1.07940998 -1.00000000
-0.05667812 1.07940998 1.00000000
-0.05667812 1.15083855 -0.92857143
-0.05667812 1.15083855 -0.78571429
-0.05667812 1.15083855 -0.64285714
-0.05667812 1.15083855 -0.50000000
-0.05667812 1.15083855 -0.35714286
-0.05667812 1.15083855 -0.21428571
-0.05667812 1.15083855 -0.07142857
-0.05667812 1.15083855 0.07142857
-0.05667812 1.15083855 0.21428571
-0.05667812 1.15083855 0.35714286
-0.05667812 1.15083855 0.50000000
-0.05667812 1.15083855 0.64285714
-0.05667812 1.15083855 0.78571429
-0.05667812 1.15083855 0.92857143
0.08617903 -1.06344716 -1.00000000
0.08617903 -1.13487573 -0.92857143
0.08617903 -1.13487573 -0.78571429
0.08617903 -1.13487573 -0.64285714
0.08617903 -1.13487573 -0.50000000
0.08617903 -1.13487573 -0.35714286
0.08617903 -1.13487573 -0.21428571
0.08617903 -1.13487573 -0.07142857
0.08617903 -1.13487573 0.07142857
0.08617903 -1.13487573 0.21428571
0.08617903 -1.13487573 0.35714286
0.08617903 -1.13487573 0.50000000
0.08617903 -1.13487573 0.64285714
0.08617903 -1.13487573 0.78571429
0.08617903 -1.13487573 0.92857143
0.08617903 -1.06344716 1.00000000
0.08617903 -0.92059002 -1.00000000
0.08617903 -0.92059002 1.00000000
0.08617903 -0.77773288 -1.00000000
0.08617903 -0.77773288 1.00000000
0.08617903 -0.63487573 -1.00000000
0.08617903 -0.63487573 1.00000000
0.08617903 -0.49201859 -1.00000000
0.08617903 -0.49201859 1.00000000
0.08617903 -0.34916145 -1.00000000
0.08617903 -0.34916145 1.00000000
0.08617903 -0.20630430 -1.00000000
0.08617903 -0.20630430 1.00000000
0.08617903 -0.06344716 -1.00000000
0.08617903 -0.06344716 1.00000000
0.08617903 0.07940998 -1.00000000
0.08617903 0.07940998 1.00000000
0.08617903 0.22226712 -1.00000000
0.08617903 0.22226712 1.00000000
0.08617903 0.36512427 -1.00000000
0.08617903 0.36512427 1.00000000
0.08617903 0.50798141 -1.00000000
0.08617903 0.50798141 1.00000000
0.08617903 0.65083855 -1.00000000
0.08617903 0.65083855 1.00000000
0.08617903 0.79369570 -1.00000000
0.08617903 0.79369570 1.00000000
0.08617903 0.93655284 -1.00000000
0.08617903 0.93655284 1.00000000
0.08617903 1.07940998 -1.00000000
0.08617903 1.07940998 1.00000000
0.08617903 1.15083855 -0.92857143
0.08617903 1.15083855 -0.78571429
0.08617903 1.15083855 -0.64285714
0.08617903 1.15083855 -0.50000000
0.08617903 1.15083855 -0.35714286
0.08617903 1.15083855 -0.21428571
0.08617903 1.15083855 -0.07142857
0.08617903 1.15083855 0.07142857
0.08617903 1.15083855 0.21428571
0.08617903 1.15083855 0.35714286
0.08617903 1.15083855 0.50000000
0.08617903 1.15083855 0.64285714
0.08617903 1.15083855 0.78571429
0.08617903 1.15083855 0.92857143
0.22903617 -1.06344716 -1.00000000
0.22903617 -1.13487573 -0.92857143
0.22903617 -1.13487573 -0.78571429
0.22903617 -1.13487573 -0.64285714
0.22903617 -1.13487573 -0.50000000
0.22903617 -1.13487573 -0.35714286
0.22903617 -1.13487573 -0.21428571
0.22903617 -1.13487573 -0.07142857
0.22903617 -1.13487573 0.07142857
0.22903617 -1.13487573 0.21428571
0.22903617 -1.13487573 0.35714286
0.22903617 -1.13487573 0.50000000
0.22903617 -1.13487573 0.64285714
0.22903617 -1.13487573 0.78571429
0.22903617 -1.13487573 0.92857143
0.22903617 -1.06344716 1.00000000
0.22903617 -0.92059002 -1.00000000
0.22903617 -0.92059002 1.00000000
0.22903617 -0.77773288 -1.00000000
0.22903617 -0.77773288 1.00000000
0.22903617 -0.63487573 -1.00000000
0.22903617 -0.63487573 1.00000000
0.22903617 -0.49201859 -1.00000000
0.22903617 -0.49201859 1.00000000
0.22903617 -0.34916145 -1.00000000
0.22903617 -0.34916145 1.00000000
0.22903617 -0.20630430 -1.00000000
0.22903617 -0.20630430 1.00000000
0.22903617 -0.06344716 -1.00000000
0.22903617 -0.06344716 1.00000000
0.22903617 0.07940998 -1.00000000
0.22903617 0.07940998 1.00000000
0.22903617 0.22226712 -1.00000000
0.22903617 0.22226712 1.00000000
0.22903617 0.36512427 -1.00000000
0.22903617 0.36512427 1.00000000
0.22903617 0.50798141 -1.00000000
0.22903617 0.50798141 1.00000000
0.22903617 0.65083855 -1.00000000
0.22903617 0.65083855 1.00000000
0.22903617 0.79369570 -1.00000000
0.22903617 0.79369570 1.00000000
0.22903617 0.93655284 -1.00000000
0.22903617 0.93655284 1.00000000
0.22903617 1.07940998 -1.00000000
0.15760760 1.07940998 0.92857143
0.22903617 1.00798141 0.92857143
0.22903617 1.07940998 0.85714286
0.22903617 1.15083855 -0.92857143
0.22903617 1.15083855 -0.78571429
0.22903617 1.15083855 -0.64285714
0.22903617 1.15083855 -0.50000000
0.22903617 1.15083855 -0.35714286
0.22903617 1.15083855 -0.21428571
0.22903617 1.15083855 -0.07142857
0.22903617 1.15083855 0.07142857
0.22903617 1.15083855 0.21428571
0.22903617 1.15083855 0.35714286
0.22903617 1.15083855 0.50000000
0.22903617 1.15083855 0.64285714
0.22903617 1.15083855 0.78571429
0.37189331 -1.06344716 -1.00000000
0.37189331 -1.13487573 -0.92857143
0.37189331 -1.13487573 -0.78571429
0.37189331 -1.13487573 -0.64285714
0.37189331 -1.13487573 -0.50000000
0.37189331 -1.13487573 -0.35714286
0.37189331 -1.13487573 -0.21428571
0.37189331 -1.13487573 -0.07142857
0.37189331 -1.13487573 0.07142857
0.37189331 -1.13487573 0.21428571
0.37189331 -1.13487573 0.35714286
0.37189331 -1.13487573 0.50000000
0.37189331 -1.13487573 0.64285714
0.37189331 -1.13487573 0.78571429
0.37189331 -1.13487573 0.92857143
0.37189331 -1.06344716 1.00000000
0.37189331 -0.92059002 -1.00000000
0.37189331 -0.92059002 1.00000000
0.37189331 -0.77773288 -1.00000000
0.37189331 -0.77773288 1.00000000
0.37189331 -0.63487573 -1.00000000
0.37189331 -0.63487573 1.00000000
0.37189331 -0.49201859 -1.00000000
0.37189331 -0.49201859 1.00000000
0.37189331 -0.34916145 -1.00000000
0.37189331 -0.34916145 1.00000000
0.37189331 -0.20630430 -1.00000000
0.37189331 -0.20630430 1.00000000
0.37189331 -0.06344716 -1.00000000
0.37189331 -0.06344716 1.00000000
0.37189331 0.07940998 -1.00000000
0.37189331 0.07940998 1.00000000
0.37189331 0.22226712 -1.00000000
0.37189331 0.22226712 1.00000000
0.37189331 0.36512427 -1.00000000
0.37189331 0.36512427 1.00000000
0.37189331 0.50798141 -1.00000000
0.37189331 0.50798141 1.00000000
0.37189331 0.65083855 -1.00000000
0.37189331 0.65083855 1.00000000
0.37189331 0.79369570 -1.00000000
0.37189331 0.79369570 1.00000000
0.37189331 0.93655284 -1.00000000
0.37189331 0.93655284 1.00000000
0.37189331 1.07940998 -1.00000000
0.30046474 1.07940998 0.78571429
0.37189331 1.00798141 0.78571429
0.37189331 1.07940998 0.71428571
0.37189331 1.00798141 0.92857143
0.37189331 1.15083855 -0.92857143
0.37189331 1.15083855 -0.78571429
0.37189331 1.15083855 -0.64285714
0.37189331 1.15083855 -0.50000000
0.37189331 1.15083855 -0.35714286
0.37189331 1.15083855 -0.21428571
0.37189331 1.15083855 -0.07142857
0.37189331 1.15083855 0.07142857
0.37189331 1.15083855 0.21428571
0.37189331 1.15083855 0.35714286
0.37189331 1.15083855 0.50000000
0.37189331 1.15083855 0.64285714
0.51475045 -1.06344716 -1.00000000
0.51475045 -1.13487573 -0.92857143
0.51475045 -1.13487573 -0.78571429
0.51475045 -1.13487573 -0.64285714
0.51475045 -1.13487573 -0.50000000
0.51475045 -1.13487573 -0.35714286
0.51475045 -1.13487573 -0.21428571
0.51475045 -1.13487573 -0.07142857
0.51475045 -1.13487573 0.07142857
0.51475045 -1.13487573 0.21428571
0.51475045 -1.13487573 0.35714286
0.51475045 -1.13487573 0.50000000
0.51475045 -1.13487573 0.64285714
0.51475045 -1.13487573 0.78571429
0.51475045 -1.13487573 0.92857143
0.51475045 -1.06344716 1.00000000
0.51475045 -0.92059002 -1.00000000
0.51475045 -0.92059002 1.00000000
0.51475045 -0.77773288 -1.00000000
0.51475045 -0.77773288 1.00000000
0.51475045 -0.63487573 -1.00000000
0.51475045 -0.63487573 1.00000000
0.51475045 -0.49201859 -1.00000000
0.51475045 -0.49201859 1.00000000
0.51475045 -0.34916145 -1.00000000
0.51475045 -0.34916145 1.00000000
0.51475045 -0.20630430 -1.00000000
0.51475045 -0.20630430 1.00000000
0.51475045 -0.06344716 -1.00000000
0.51475045 -0.06344716 1.00000000
0.51475045 0.07940998 -1.00000000
0.51475045 0.07940998 1.00000000
0.51475045 0.22226712 -1.00000000
0.51475045 0.22226712 1.00000000
0.51475045 0.36512427 -1.00000000
0.51475045 0.36512427 1.00000000
0.51475045 0.50798141 -1.00000000
0.51475045 0.50798141 1.00000000
0.51475045 0.65083855 -1.00000000
0.51475045 0.65083855 1.00000000
0.51475045 0.79369570 -1.00000000
0.51475045 0.79369570 1.00000000
0.51475045 0.93655284 -1.00000000
0.44332188 0.93655284 0.92857143
0.51475045 0.86512427 0.92857143
0.51475045 0.93655284 0.85714286
0.51475045 1.07940998 -1.00000000
0.51475045 1.00798141 0.78571429
0.51475045 1.07940998 0.71428571
0.51475045 1.15083855 -0.92857143
0.51475045 1.15083855 -0.78571429
0.51475045 1.15083855 -0.64285714
0.51475045 1.15083855 -0.50000000
0.51475045 1.15083855 -0.35714286
0.51475045 1.15083855 -0.21428571
0.51475045 1.15083855 -0.07142857
0.51475045 1.15083855 0.07142857
0.51475045 1.15083855 0.21428571
0.51475045 1.15083855 0.35714286
0.51475045 1.15083855 0.50000000
0.51475045 1.15083855 0.64285714
0.65760760 -1.06344716 -1.00000000
0.65760760 -1.13487573 -0.92857143
0.65760760 -1.13487573 -0.78571429
0.65760760 -1.13487573 -0.64285714
0.65760760 -1.13487573 -0.50000000
0.65760760 -1.13487573 -0.35714286
0.65760760 -1.13487573 -0.21428571
0.65760760 -1.13487573 -0.07142857
0.65760760 -1.13487573 0.07142857
0.65760760 -1.13487573 0.21428571
0.65760760 -1.13487573 0.35714286
0.65760760 -1.13487573 0.50000000
0.65760760 -1.13487573 0.64285714
0.65760760 -1.13487573 0.78571429
0.65760760 -1.13487573 0.92857143
0.65760760 -1.06344716 1.00000000
0.65760760 -0.92059002 -1.00000000
0.65760760 -0.92059002 1.00000000
0.65760760 -0.77773288 -1.00000000
0.65760760 -0.77773288 1.00000000
0.65760760 -0.63487573 -1.00000000
0.65760760 -0.63487573 1.00000000
0.65760760 -0.49201859 -1.00000000
0.65760760 -0.49201859 1.00000000
0.65760760 -0.34916145 -1.00000000
0.65760760 -0.34916145 1.00000000
0.65760760 -0.20630430 -1.00000000
0.65760760 -0.20630430 1.00000000
0.65760760 -0.06344716 -1.00000000
0.65760760 -0.06344716 1.00000000
0.65760760 0.07940998 -1.00000000
0.65760760 0.07940998 1.00000000
0.65760760 0.22226712 -1.00000000
0.65760760 0.22226712 1.00000000
0.65760760 0.36512427 -1.00000000
0.65760760 0.36512427 1.00000000
0.65760760 0.50798141 -1.00000000
0.65760760 0.50798141 1.00000000
0.65760760 0.65083855 -1.00000000
0.65760760 0.65083855 1.00000000
0.65760760 0.79369570 -1.00000000
0.58617903 0.79369570 0.92857143
0.65760760 0.72226712 0.92857143
0.65760760 0.79369570 0.85714286
0.65760760 0.93655284 -1.00000000
0.58617903 0.93655284 0.78571429
0.65760760 0.86512427 0.78571429
0.65760760 0.93655284 0.71428571
0.65760760 1.07940998 -1.00000000
0.58617903 1.07940998 0.64285714
0.65760760 1.00798141 0.64285714
0.65760760 1.07940998 0.57142857
0.65760760 1.15083855 -0.92857143
0.65760760 1.15083855 -0.78571429
0.65760760 1.15083855 -0.64285714
0.65760760 1.15083855 -0.50000000
0.65760760 1.15083855 -0.35714286
0.65760760 1.15083855 -0.21428571
0.65760760 1.15083855 -0.07142857
0.65760760 1.15083855 0.07142857
0.65760760 1.15083855 0.21428571
0.65760760 1.15083855 0.35714286
0.65760760 1.15083855 0.50000000
0.80046474 -1.06344716 -1.00000000
0.80046474 -1.13487573 -0.92857143
0.80046474 -1.13487573 -0.78571429
0.80046474 -1.13487573 -0.64285714
0.80046474 -1.13487573 -0.50000000
0.80046474 -1.13487573 -0.35714286
0.80046474 -1.13487573 -0.21428571
0.80046474 -1.13487573 -0.07142857
0.80046474 -1.13487573 0.07142857
0.80046474 -1.13487573 0.21428571
0.80046474 -1.13487573 0.35714286
0.80046474 -1.13487573 0.50000000
0.80046474 -1.13487573 0.64285714
0.80046474 -1.13487573 0.78571429
0.80046474 -1.13487573 0.92857143
0.80046474 -1.06344716 1.00000000
0.80046474 -0.92059002 -1.00000000
0.80046474 -0.92059002 1.00000000
0.80046474 -0.77773288 -1.00000000
0.80046474 -0.77773288 1.00000000
0.80046474 -0.63487573 -1.00000000
0.80046474 -0.63487573 1.00000000
0.80046474 -0.49201859 -1.00000000
0.80046474 -0.49201859 1.00000000
0.80046474 -0.34916145 -1.00000000
0.80046474 -0.34916145 1.00000000
0.80046474 -0.20630430 -1.00000000
0.80046474 -0.20630430 1.00000000
0.80046474 -0.06344716 -1.00000000
0.80046474 -0.06344716 1.00000000
0.80046474 0.07940998 -1.00000000
0.80046474 0.07940998 1.00000000
0.80046474 0.22226712 -1.00000000
0.80046474 0.22226712 1.00000000
0.80046474 0.36512427 -1.00000000
0.80046474 0.36512427 1.00000000
0.80046474 0.50798141 -1.00000000
0.80046474 0.50798141 1.00000000
0.80046474 0.65083855 -1.00000000
0.80046474 0.65083855 1.00000000
0.80046474 0.79369570 -1.00000000
0.72903617 0.79369570 0.78571429
0.80046474 0.72226712 0.78571429
0.80046474 0.79369570 0.71428571
0.80046474 0.72226712 0.92857143
0.80046474 0.93655284 -1.00000000
0.72903617 0.93655284 0.64285714
0.80046474 0.86512427 0.64285714
0.80046474 0.93655284 0.57142857
0.80046474 1.07940998 -1.00000000
0.72903617 1.07940998 0.50000000
0.80046474 1.00798141 0.50000000
0.80046474 1.07940998 0.42857143
0.80046474 1.15083855 -0.92857143
0.80046474 1.15083855 -0.78571429
0.80046474 1.15083855 -0.64285714
0.80046474 1.15083855 -0.50000000
0.80046474 1.15083855 -0.35714286
0.80046474 1.15083855 -0.21428571
0.80046474 1.15083855 -0.07142857
0.80046474 1.15083855 0.07142857
0.80046474 1.15083855 0.21428571
0.80046474 1.15083855 0.35714286
0.94332188 -1.06344716 -1.00000000
0.94332188 -1.13487573 -0.92857143
0.94332188 -1.13487573 -0.78571429
0.94332188 -1.13487573 -0.64285714
0.94332188 -1.13487573 -0.50000000
0.94332188 -1.13487573 -0.35714286
0.94332188 -1.13487573 -0.21428571
0.94332188 -1.13487573 -0.07142857
0.94332188 -1.13487573 0.07142857
0.94332188 -1.13487573 0.21428571
0.94332188 -1.13487573 0.35714286
0.94332188 -1.13487573 0.50000000
0.94332188 -1.13487573 0.64285714
0.94332188 -1.13487573 0.78571429
0.94332188 -1.13487573 0.92857143
0.94332188 -1.06344716 1.00000000
0.94332188 -0.92059002 -1.00000000
0.94332188 -0.92059002 1.00000000
0.94332188 -0.77773288 -1.00000000
0.94332188 -0.77773288 1.00000000
0.94332188 -0.63487573 -1.00000000
0.94332188 -0.63487573 1.00000000
0.94332188 -0.49201859 -1.00000000
0.94332188 -0.49201859 1.00000000
0.94332188 -0.34916145 -1.00000000
0.94332188 -0.34916145 1.00000000
0.94332188 -0.20630430 -1.00000000
0.94332188 -0.20630430 1.00000000
0.94332188 -0.06344716 -1.00000000
0.94332188 -0.06344716 1.00000000
0.94332188 0.07940998 -1.00000000
0.94332188 0.07940998 1.00000000
0.94332188 0.22226712 -1.00000000
0.94332188 0.22226712 1.00000000
0.94332188 0.36512427 -1.00000000
0.94332188 0.36512427 1.00000000
0.94332188 0.50798141 -1.00000000
0.94332188 0.50798141 1.00000000
0.94332188 0.65083855 -1.00000000
0.87189331 0.65083855 0.92857143
0.94332188 0.57940998 0.92857143
0.94332188 0.65083855 0.85714286
0.94332188 0.79369570 -1.00000000
0.87189331 0.79369570 0.64285714
0.94332188 0.72226712 0.64285714
0.94332188 0.79369570 0.57142857
0.94332188 0.72226712 0.78571429
0.94332188 0.93655284 -1.00000000
0.87189331 0.93655284 0.50000000
0.94332188 0.86512427 0.50000000
0.94332188 0.93655284 0.42857143
0.94332188 1.07940998 -1.00000000
0.87189331 1.07940998 0.35714286
0.94332188 1.00798141 0.35714286
0.94332188 1.07940998 0.28571429
0.94332188 1.15083855 -0.92857143
0.94332188 1.15083855 -0.78571429
0.94332188 1.15083855 -0.64285714
0.94332188 1.15083855 -0.50000000
0.94332188 1.15083855 -0.35714286
0.94332188 1.15083855 -0.21428571
0.94332188 1.15083855 -0.07142857
0.94332188 1.15083855 0.07142857
0.94332188 1.15083855 0.21428571
1.01475045 -1.06344716 -0.92857143
1.01475045 -1.06344716 -0.78571429
1.01475045 -1.06344716 -0.64285714
1.01475045 -1.06344716 -0.50000000
1.01475045 -1.06344716 -0.35714286
1.01475045 -1.06344716 -0.21428571
1.01475045 -1.06344716 -0.07142857
1.01475045 -1.06344716 0.07142857
1.01475045 -1.06344716 0.21428571
1.01475045 -1.06344716 0.35714286
1.01475045 -1.06344716 0.50000000
1.01475045 -1.06344716 0.64285714
1.01475045 -1.06344716 0.78571429
1.01475045 -1.06344716 0.92857143
1.08617903 -0.92059002 -1.00000000
1.08617903 -0.99201859 -0.92857143
1.08617903 -0.99201859 -0.78571429
1.08617903 -0.99201859 -0.64285714
1.08617903 -0.99201859 -0.50000000
1.08617903 -0.99201859 -0.35714286
1.08617903 -0.99201859 -0.21428571
1.08617903 -0.99201859 -0.07142857
1.08617903 -0.99201859 0.07142857
1.08617903 -0.99201859 0.21428571
1.08617903 -0.99201859 0.35714286
1.08617903 -0.99201859 0.50000000
1.08617903 -0.99201859 0.64285714
1.08617903 -0.99201859 0.78571429
1.08617903 -0.99201859 0.92857143
1.08617903 -0.92059002 1.00000000
1.08617903 -0.77773288 -1.00000000
1.08617903 -0.77773288 1.00000000
1.08617903 -0.63487573 -1.00000000
1.08617903 -0.63487573 1.00000000
1.08617903 -0.49201859 -1.00000000
1.08617903 -0.49201859 1.00000000
1.08617903 -0.34916145 -1.00000000
1.08617903 -0.34916145 1.00000000
1.08617903 -0.20630430 -1.00000000
1.08617903 -0.20630430 1.00000000
1.08617903 -0.06344716 -1.00000000
1.08617903 -0.06344716 1.00000000
1.08617903 0.07940998 -1.00000000
1.08617903 0.07940998 1.00000000
1.08617903 0.22226712 -1.00000000
1.08617903 0.22226712 1.00000000
1.08617903 0.36512427 -1.00000000
1.08617903 0.36512427 1.00000000
1.08617903 0.50798141 -1.00000000
1.01475045 0.50798141 0.92857143
1.08617903 0.43655284 0.92857143
1.08617903 0.50798141 0.85714286
1.08617903 0.65083855 -1.00000000
1.01475045 0.65083855 0.78571429
1.08617903 0.57940998 0.78571429
1.08617903 0.65083855 0.71428571
1.08617903 0.79369570 -1.00000000
1.08617903 0.72226712 0.64285714
1.08617903 0.79369570 0.57142857
1.08617903 0.93655284 -1.00000000
1.01475045 0.93655284 0.35714286
1.08617903 0.86512427 0.35714286
1.08617903 0.93655284 0.28571429
1.08617903 0.86512427 0.50000000
1.08617903 1.00798141 -0.92857143
1.01475045 1.07940998 -0.92857143
1.01475045 1.07940998 -0.78571429
1.08617903 1.00798141 -0.78571429
1.01475045 1.07940998 -0.64285714
1.08617903 1.00798141 -0.64285714
1.01475045 1.07940998 -0.50000000
1.08617903 1.00798141 -0.50000000
1.01475045 1.07940998 -0.35714286
1.08617903 1.00798141 -0.35714286
1.01475045 1.07940998 -0.21428571
1.08617903 1.00798141 -0.21428571
1.01475045 1.07940998 -0.07142857
1.08617903 1.00798141 -0.07142857
1.01475045 1.07940998 0.07142857
1.08617903 1.00798141 0.07142857
1.01475045 1.07940998 0.21428571
1.08617903 1.00798141 0.21428571
1.15760760 -0.92059002 -0.92857143
1.15760760 -0.92059002 -0.78571429
1.15760760 -0.92059002 -0.64285714
1.15760760 -0.92059002 -0.50000000
1.15760760 -0.92059002 -0.35714286
1.15760760 -0.92059002 -0.21428571
1.15760760 -0.92059002 -0.07142857
1.15760760 -0.92059002 0.07142857
1.15760760 -0.92059002 0.21428571
1.15760760 -0.92059002 0.35714286
1.15760760 -0.92059002 0.50000000
1.15760760 -0.92059002 0.64285714
1.15760760 -0.92059002 0.78571429
1.15760760 -0.92059002 0.92857143
1.15760760 -0.77773288 -0.92857143
1.15760760 -0.77773288 -0.78571429
1.15760760 -0.77773288 -0.64285714
1.15760760 -0.77773288 -0.50000000
1.15760760 -0.77773288 -0.35714286
1.15760760 -0.77773288 -0.21428571
1.15760760 -0.77773288 -0.07142857
1.15760760 -0.77773288 0.07142857
1.15760760 -0.77773288 0.21428571
1.15760760 -0.77773288 0.35714286
1.15760760 -0.77773288 0.50000000
1.15760760 -0.77773288 0.64285714
1.15760760 -0.77773288 0.78571429
1.15760760 -0.77773288 0.92857143
1.15760760 -0.63487573 -0.92857143
1.15760760 -0.63487573 -0.78571429
1.15760760 -0.63487573 -0.64285714
1.15760760 -0.63487573 -0.50000000
1.15760760 -0.63487573 -0.35714286
1.15760760 -0.63487573 -0.21428571
1.15760760 -0.63487573 -0.07142857
1.15760760 -0.63487573 0.07142857
1.15760760 -0.63487573 0.21428571
1.15760760 -0.63487573 0.35714286
1.15760760 -0.63487573 0.50000000
1.15760760 -0.63487573 0.64285714
1.15760760 -0.63487573 0.78571429
1.15760760 -0.63487573 0.92857143
1.15760760 -0.49201859 -0.92857143
1.15760760 -0.49201859 -0.78571429
1.15760760 -0.49201859 -0.64285714
1.15760760 -0.49201859 -0.50000000
1.15760760 -0.49201859 -0.35714286
1.15760760 -0.49201859 -0.21428571
1.15760760 -0.49201859 -0.07142857
1.15760760 -0.49201859 0.07142857
1.15760760 -0.49201859 0.21428571
1.15760760 -0.49201859 0.35714286
1.15760760 -0.49201859 0.50000000
1.15760760 -0.49201859 0.64285714
1.15760760 -0.49201859 0.78571429
1.15760760 -0.49201859 0.92857143
1.15760760 -0.34916145 -0.92857143
1.15760760 -0.34916145 -0.78571429
1.15760760 -0.34916145 -0.64285714
1.15760760 -0.34916145 -0.50000000
1.15760760 -0.34916145 -0.35714286
1.15760760 -0.34916145 -0.21428571
1.15760760 -0.34916145 -0.07142857
1.15760760 -0.34916145 0.07142857
1.15760760 -0.34916145 0.21428571
1.15760760 -0.34916145 0.35714286
1.15760760 -0.34916145 0.50000000
1.15760760 -0.34916145 0.64285714
1.15760760 -0.34916145 0.78571429
1.15760760 -0.34916145 0.92857143
1.15760760 -0.20630430 -0.92857143
1.15760760 -0.20630430 -0.78571429
1.15760760 -0.20630430 -0.64285714
1.15760760 -0.20630430 -0.50000000
1.15760760 -0.20630430 -0.35714286
1.15760760 -0.20630430 -0.21428571
1.15760760 -0.20630430 -0.07142857
1.15760760 -0.20630430 0.07142857
1.15760760 -0.20630430 0.21428571
1.15760760 -0.20630430 0.35714286
1.15760760 -0.20630430 0.50000000
1.15760760 -0.20630430 0.64285714
1.15760760 -0.20630430 0.78571429
1.15760760 -0.20630430 0.92857143
1.15760760 -0.06344716 -0.92857143
1.15760760 -0.06344716 -0.78571429
1.15760760 -0.06344716 -0.64285714
1.15760760 -0.06344716 -0.50000000
1.15760760 -0.06344716 -0.35714286
1.15760760 -0.06344716 -0.21428571
1.15760760 -0.06344716 -0.07142857
1.15760760 -0.06344716 0.07142857
1.15760760 -0.06344716 0.21428571
1.15760760 -0.06344716 0.35714286
1.15760760 -0.06344716 0.50000000
1.15760760 -0.06344716 0.64285714
1.15760760 -0.06344716 0.78571429
1.15760760 -0.06344716 0.92857143
1.15760760 0.07940998 -0.92857143
1.15760760 0.07940998 -0.78571429
1.15760760 0.07940998 -0.64285714
1.15760760 0.07940998 -0.50000000
1.15760760 0.07940998 -0.35714286
1.15760760 0.07940998 -0.21428571
1.15760760 0.07940998 -0.07142857
1.15760760 0.07940998 0.07142857
1.15760760 0.07940998 0.21428571
1.15760760 0.07940998 0.35714286
1.15760760 0.07940998 0.50000000
1.15760760 0.07940998 0.64285714
1.15760760 0.07940998 0.78571429
1.15760760 0.07940998 0.92857143
1.15760760 0.22226712 -0.92857143
1.15760760 0.22226712 -0.78571429
1.15760760 0.22226712 -0.64285714
1.15760760 0.22226712 -0.50000000
1.15760760 0.22226712 -0.35714286
1.15760760 0.22226712 -0.21428571
1.15760760 0.22226712 -0.07142857
1.15760760 0.22226712 0.07142857
1.15760760 0.22226712 0.21428571
1.15760760 0.22226712 0.35714286
1.15760760 0.22226712 0.50000000
1.15760760 0.22226712 0.64285714
1.15760760 0.22226712 0.78571429
1.15760760 0.22226712 0.92857143
1.15760760 0.36512427 -0.92857143
1.15760760 0.36512427 -0.78571429
1.15760760 0.36512427 -0.64285714
1.15760760 0.36512427 -0.50000000
1.15760760 0.36512427 -0.35714286
1.15760760 0.36512427 -0.21428571
1.15760760 0.36512427 -0.07142857
1.15760760 0.36512427 0.07142857
1.15760760 0.36512427 0.21428571
1.15760760 0.36512427 0.35714286
1.15760760 0.36512427 0.50000000
1.15760760 0.36512427 0.64285714
1.15760760 0.36512427 0.78571429
1.15760760 0.36512427 0.92857143
1.15760760 0.50798141 -0.92857143
1.15760760 0.50798141 -0.78571429
1.15760760 0.50798141 -0.64285714
1.15760760 0.50798141 -0.50000000
1.15760760 0.50798141 -0.35714286
1.15760760 0.50798141 -0.21428571
1.15760760 0.50798141 -0.07142857
1.15760760 0.50798141 0.07142857
1.15760760 0.50798141 0.21428571
1.15760760 0.50798141 0.35714286
1.15760760 0.50798141 0.50000000
1.15760760 0.50798141 0.64285714
1.15760760 0.50798141 0.78571429
1.15760760 0.65083855 -0.92857143
1.15760760 0.65083855 -0.78571429
1.15760760 0.65083855 -0.64285714
1.15760760 0.65083855 -0.50000000
1.15760760 0.65083855 -0.35714286
1.15760760 0.65083855 -0.21428571
1.15760760 0.65083855 -0.07142857
1.15760760 0.65083855 0.07142857
1.15760760 0.65083855 0.21428571
1.15760760 0.65083855 0.35714286
1.15760760 0.65083855 0.50000000
1.15760760 0.65083855 0.64285714
1.15760760 0.79369570 -0.92857143
1.15760760 0.79369570 -0.78571429
1.15760760 0.79369570 -0.64285714
1.15760760 0.79369570 -0.50000000
1.15760760 0.79369570 -0.35714286
1.15760760 0.79369570 -0.21428571
1.15760760 0.79369570 -0.07142857
1.15760760 0.79369570 0.07142857
1.15760760 0.79369570 0.21428571
1.15760760 0.79369570 0.35714286
1.15760760 0.79369570 0.50000000
1.15760760 0.93655284 -0.92857143
1.15760760 0.93655284 -0.78571429
1.15760760 0.93655284 -0.64285714
1.15760760 0.93655284 -0.50000000
1.15760760 0.93655284 -0.35714286
1.15760760 0.93655284 -0.21428571
1.15760760 0.93655284 -0.07142857
1.15760760 0.93655284 0.07142857
1.15760760 0.93655284 0.21428571
3 2 1 0
3 0 3 2
3 0 1 4
3 4 1 5
3 3 0 6
3 6 0 4
3 5 7 4
3 4 7 6
3 10 9 8
3 12 11 8
3 8 11 10
3 14 13 12
3 12 13 11
3 16 15 14
3 14 15 13
3 18 17 16
3 16 17 15
3 20 19 18
3 18 19 17
3 22 21 20
3 20 21 19
3 24 23 22
3 22 23 21
3 26 25 24
3 24 25 23
3 28 27 26
3 26 27 25
3 30 29 28
3 28 29 27
3 32 31 30
3 30 31 29
3 34 33 32
3 32 33 31
3 36 35 34
3 34 35 33
3 36 37 35
3 8 9 38
3 38 9 39
3 8 40 12
3 8 38 40
3 12 41 14
3 12 40 41
3 14 42 16
3 14 41 42
3 16 43 18
3 16 42 43
3 18 44 20
3 18 43 44
3 20 45 22
3 20 44 45
3 22 46 24
3 22 45 46
3 24 47 26
3 24 46 47
3 26 48 28
3 26 47 48
3 28 49 30
3 28 48 49
3 30 50 32
3 30 49 50
3 32 51 34
3 32 50 51
3 34 52 36
3 34 51 52
3 37 36 53
3 53 36 52
3 38 39 54
3 54 39 55
3 38 56 40
3 38 54 56
3 40 57 41
3 40 56 57
3 41 58 42
3 41 57 58
3 42 59 43
3 42 58 59
3 43 60 44
3 43 59 60
3 44 61 45
3 44 60 61
3 45 62 46
3 45 61 62
3 46 63 47
3 46 62 63
3 47 64 48
3 47 63 64
3 48 65 49
3 48 64 65
3 49 66 50
3 49 65 66
3 50 67 51
3 50 66 67
3 51 68 52
3 51 67 68
3 53 52 69
3 69 52 68
3 54 55 70
3 70 55 71
3 54 72 56
3 54 70 72
3 56 73 57
3 56 72 73
3 57 74 58
3 57 73 74
3 58 75 59
3 58 74 75
3 59 76 60
3 59 75 76
3 60 77 61
3 60 76 77
3 61 78 62
3 61 77 78
3 62 79 63
3 62 78 79
3 63 80 64
3 63 79 80
3 64 81 65
3 64 80 81
3 65 82 66
3 65 81 82
3 66 83 67
3 66 82 83
3 67 84 68
3 67 83 84
3 69 68 85
3 85 68 84
3 70 71 86
3 86 71 87
3 70 88 72
3 70 86 88
3 72 89 73
3 72 88 89
3 73 90 74
3 73 89 90
3 74 91 75
3 74 90 91
3 75 92 76
3 75 91 92
3 76 93 77
3 76 92 93
3 77 94 78
3 77 93 94
3 78 95 79
3 78 94 95
3 79 96 80
3 79 95 96
3 80 97 81
3 80 96 97
3 81 98 82
3 81 97 98
3 82 99 83
3 82 98 99
3 83 100 84
3 83 99 100
3 85 84 101
3 101 84 100
3 86 87 102
3 102 87 103
3 86 104 88
3 86 102 104
3 88 105 89
3 88 104 105
3 89 106 90
3 89 105 106
3 90 107 91
3 90 106 107
3 91 108 92
3 91 107 108
3 92 109 93
3 92 108 109
3 93 110 94
3 93 109 110
3 94 111 95
3 94 110 111
3 95 112 96
3 95 111 112
3 96 113 97
3 96 112 113
3 97 114 98
3 97 113 114
3 98 115 99
3 98 114 115
3 99 116 100
3 99 115 116
3 101 100 117
3 117 100 116
3 102 103 118
3 118 103 119
3 102 120 104
3 102 118 120
3 104 121 105
3 104 120 121
3 105 122 106
3 105 121 122
3 106 123 107
3 106 122 123
3 107 124 108
3 107 123 124
3 108 125 109
3 108 124 125
3 109 126 110
3 109 125 126
3 110 127 111
3 110 126 127
3 111 128 112
3 111 127 128
3 112 129 113
3 112 128 129
3 113 130 114
3 113 129 130
3 114 131 115
3 114 130 131
3 115 132 116
3 115 131 132
3 117 116 133
3 133 116 132
3 118 119 134
3 134 119 135
3 118 136 120
3 118 134 136
3 120 137 121
3 120 136 137
3 121 138 122
3 121 137 138
3 122 139 123
3 122 138 139
3 123 140 124
3 123 139 140
3 124 141 125
3 124 140 141
3 125 142 126
3 125 141 142
3 126 143 127
3 126 142 143
3 127 144 128
3 127 143 144
3 128 145 129
3 128 144 145
3 129 146 130
3 129 145 146
3 130 147 131
3 130 146 147
3 131 148 132
3 131 147 148
3 133 132 149
3 149 132 148
3 134 135 150
3 150 135 151
3 134 152 136
3 134 150 152
3 136 153 137
3 136 152 153
3 137 154 138
3 137 153 154
3 138 155 139
3 138 154 155
3 139 156 140
3 139 155 156
3 140 157 141
3 140 156 157
3 141 158 142
3 141 157 158
3 142 159 143
3 142 158 159
3 143 160 144
3 143 159 160
3 144 161 145
3 144 160 161
3 145 162 146
3 145 161 162
3 146 163 147
3 146 162 163
3 147 164 148
3 147 163 164
3 149 148 165
3 165 148 164
3 150 151 166
3 166 151 167
3 150 168 152
3 150 166 168
3 152 169 153
3 152 168 169
3 153 170 154
3 153 169 170
3 154 171 155
3 154 170 171
3 155 172 156
3 155 171 172
3 156 173 157
3 156 172 173
3 157 174 158
3 157 173 174
3 158 175 159
3 158 174 175
3 159 176 160
3 159 175 176
3 160 177 161
3 160 176 177
3 161 178 162
3 161 177 178
3 162 179 163
3 162 178 179
3 163 180 164
3 163 179 180
3 165 164 181
3 181 164 180
3 166 167 182
3 182 167 183
3 166 184 168
3 166 182 184
3 168 185 169
3 168 184 185
3 169 186 170
3 169 185 186
3 170 187 171
3 170 186 187
3 171 188 172
3 171 187 188
3 172 189 173
3 172 188 189
3 173 190 174
3 173 189 190
3 174 191 175
3 174 190 191
3 175 192 176
3 175 191 192
3 176 193 177
3 176 192 193
3 177 194 178
3 177 193 194
3 178 195 179
3 178 194 195
3 179 196 180
3 179 195 196
3 181 180 197
3 197 180 196
3 182 183 198
3 198 183 199
3 182 200 184
3 182 198 200
3 184 201 185
3 184 200 201
3 185 202 186
3 185 201 202
3 186 203 187
3 186 202 203
3 187 204 188
3 187 203 204
3 188 205 189
3 188 204 205
3 189 206 190
3 189 205 206
3 190 207 191
3 190 206 207
3 191 208 192
3 191 207 208
3 192 209 193
3 192 208 209
3 193 210 194
3 193 209 210
3 194 211 195
3 194 210 211
3 195 212 196
3 195 211 212
3 197 196 213
3 213 196 212
3 198 199 214
3 214 199 215
3 198 216 200
3 198 214 216
3 200 217 201
3 200 216 217
3 201 218 202
3 201 217 218
3 202 219 203
3 202 218 219
3 219 1 2
3 204 219 2
3 203 219 204
3 204 2 3
3 220 204 3
3 205 204 220
3 205 221 206
3 205 220 221
3 206 222 207
3 206 221 222
3 207 223 208
3 207 222 223
3 208 224 209
3 208 223 224
3 209 225 210
3 209 224 225
3 210 226 211
3 210 225 226
3 211 227 212
3 211 226 227
3 213 212 228
3 228 212 227
3 214 215 229
3 229 215 230
3 214 231 216
3 214 229 231
3 216 232 217
3 216 231 232
3 217 233 218
3 217 232 233
3 218 234 219
3 218 233 234
3 234 5 1
3 234 1 219
3 6 235 220
3 6 220 3
3 220 236 221
3 220 235 236
3 221 237 222
3 221 236 237
3 222 238 223
3 222 237 238
3 223 239 224
3 223 238 239
3 224 240 225
3 224 239 240
3 225 241 226
3 225 240 241
3 226 242 227
3 226 241 242
3 228 227 243
3 243 227 242
3 230 244 229
3 229 244 231
3 231 244 245
3 231 245 232
3 232 245 246
3 232 246 233
3 233 246 247
3 233 247 234
3 234 247 248
3 234 248 5
3 248 7 5
3 248 249 7
3 6 7 235
3 7 250 235
3 7 249 250
3 235 250 236
3 236 250 251
3 236 251 237
3 237 251 252
3 237 252 238
3 238 252 253
3 238 253 239
3 239 253 254
3 239 254 240
3 240 254 255
3 240 255 241
3 241 255 256
3 241 256 242
3 242 256 257
3 242 257 243
3 260 259 258
3 258 261 260
3 264 263 262
3 266 265 262
3 262 265 264
3 268 267 266
3 266 267 265
3 270 269 268
3 268 269 267
3 272 271 270
3 270 271 269
3 274 273 272
3 272 273 271
3 273 274 259
3 274 258 259
3 274 275 258
3 261 258 276
3 258 277 276
3 258 275 277
3 279 278 277
3 277 278 276
3 281 280 279
3 279 280 278
3 283 282 281
3 281 282 280
3 285 284 283
3 283 284 282
3 287 286 285
3 285 286 284
3 289 288 287
3 287 288 286
3 289 290 288
3 262 263 10
3 263 9 10
3 263 291 9
3 262 10 11
3 262 11 266
3 266 11 13
3 266 13 268
3 268 13 15
3 268 15 270
3 270 15 17
3 270 17 272
3 272 17 19
3 272 19 274
3 274 19 21
3 274 21 275
3 275 21 23
3 275 23 277
3 277 23 25
3 277 25 279
3 279 25 27
3 279 27 281
3 281 27 29
3 281 29 283
3 283 29 31
3 283 31 285
3 285 31 33
3 285 33 287
3 287 33 35
3 287 35 289
3 35 37 289
3 37 290 289
3 37 292 290
3 291 39 9
3 293 39 291
3 53 292 37
3 53 294 292
3 293 55 39
3 295 55 293
3 69 294 53
3 69 296 294
3 295 71 55
3 297 71 295
3 85 296 69
3 85 298 296
3 297 87 71
3 299 87 297
3 101 298 85
3 101 300 298
3 299 103 87
3 301 103 299
3 117 300 101
3 117 302 300
3 301 119 103
3 303 119 301
3 133 302 117
3 133 304 302
3 303 135 119
3 305 135 303
3 149 304 133
3 149 306 304
3 305 151 135
3 307 151 305
3 165 306 149
3 165 308 306
3 307 167 151
3 309 167 307
3 181 308 165
3 181 310 308
3 309 183 167
3 311 183 309
3 197 310 181
3 197 312 310
3 311 199 183
3 313 199 311
3 213 312 197
3 213 314 312
3 313 215 199
3 315 215 313
3 228 314 213
3 228 316 314
3 315 230 215
3 317 230 315
3 243 316 228
3 243 318 316
3 244 230 319
3 230 320 319
3 230 317 320
3 321 245 244
3 321 244 319
3 322 246 245
3 322 245 321
3 323 247 246
3 323 246 322
3 324 248 247
3 324 247 323
3 325 249 248
3 325 248 324
3 326 250 249
3 326 249 325
3 327 251 250
3 327 250 326
3 328 252 251
3 328 251 327
3 329 253 252
3 329 252 328
3 330 254 253
3 330 253 329
3 331 255 254
3 331 254 330
3 332 256 255
3 332 255 331
3 333 257 256
3 333 256 332
3 333 334 257
3 334 243 257
3 334 318 243
3 320 335 319
3 319 335 321
3 321 335 336
3 321 336 322
3 322 336 337
3 322 337 323
3 323 337 338
3 323 338 324
3 324 338 339
3 324 339 325
3 325 339 340
3 325 340 326
3 326 340 341
3 326 341 327
3 327 341 342
3 327 342 328
3 328 342 343
3 328 343 329
3 329 343 344
3 329 344 330
3 330 344 345
3 330 345 331
3 331 345 346
3 331 346 332
3 332 346 347
3 332 347 333
3 333 347 348
3 333 348 334
3 349 259 260
3 261 349 260
3 352 351 350
3 350 353 352
3 355 354 264
3 264 354 263
3 356 264 265
3 356 355 264
3 357 265 267
3 357 356 265
3 358 267 269
3 358 357 267
3 359 269 271
3 359 358 269
3 360 271 273
3 360 359 271
3 273 259 349
3 361 273 349
3 360 273 361
3 361 349 261
3 276 361 261
3 362 361 276
3 278 350 351
3 362 278 351
3 276 278 362
3 363 353 350
3 278 363 350
3 280 363 278
3 364 280 282
3 364 363 280
3 365 282 284
3 365 364 282
3 366 284 286
3 366 365 284
3 367 286 288
3 367 366 286
3 288 290 367
3 367 290 368
3 354 291 263
3 369 291 354
3 292 368 290
3 292 370 368
3 369 293 291
3 371 293 369
3 294 370 292
3 294 372 370
3 371 295 293
3 373 295 371
3 296 372 294
3 296 374 372
3 373 297 295
3 375 297 373
3 298 374 296
3 298 376 374
3 375 299 297
3 377 299 375
3 300 376 298
3 300 378 376
3 377 301 299
3 379 301 377
3 302 378 300
3 302 380 378
3 379 303 301
3 381 303 379
3 304 380 302
3 304 382 380
3 381 305 303
3 383 305 381
3 306 382 304
3 306 384 382
3 383 307 305
3 385 307 383
3 308 384 306
3 308 386 384
3 385 309 307
3 387 309 385
3 310 386 308
3 310 388 386
3 387 311 309
3 389 311 387
3 312 388 310
3 312 390 388
3 389 313 311
3 391 313 389
3 314 390 312
3 314 392 390
3 391 315 313
3 393 315 391
3 316 392 314
3 316 394 392
3 393 317 315
3 395 317 393
3 318 394 316
3 318 396 394
3 395 320 317
3 397 320 395
3 334 396 318
3 334 398 396
3 397 399 320
3 320 399 335
3 335 400 336
3 399 400 335
3 336 401 337
3 400 401 336
3 337 402 338
3 401 402 337
3 338 403 339
3 402 403 338
3 339 404 340
3 403 404 339
3 340 405 341
3 404 405 340
3 341 406 342
3 405 406 341
3 342 407 343
3 406 407 342
3 343 408 344
3 407 408 343
3 344 409 345
3 408 409 344
3 345 410 346
3 409 410 345
3 346 411 347
3 410 411 346
3 347 412 348
3 411 412 347
3 334 348 398
3 398 348 412
3 413 351 352
3 353 413 352
3 415 414 355
3 355 414 354
3 416 355 356
3 416 415 355
3 417 356 357
3 417 416 356
3 418 357 358
3 418 417 357
3 419 358 359
3 419 418 358
3 420 359 360
3 420 419 359
3 421 360 361
3 421 420 360
3 422 361 362
3 422 421 361
3 362 351 413
3 423 362 413
3 422 362 423
3 423 413 353
3 363 423 353
3 424 423 363
3 425 363 364
3 425 424 363
3 426 364 365
3 426 425 364
3 427 365 366
3 427 426 365
3 428 366 367
3 428 427 366
3 367 368 428
3 428 368 429
3 414 369 354
3 430 369 414
3 370 429 368
3 370 431 429
3 430 371 369
3 432 371 430
3 372 431 370
3 372 433 431
3 432 373 371
3 434 373 432
3 374 433 372
3 374 435 433
3 434 375 373
3 436 375 434
3 376 435 374
3 376 437 435
3 436 377 375
3 438 377 436
3 378 437 376
3 378 439 437
3 438 379 377
3 440 379 438
3 380 439 378
3 380 441 439
3 440 381 379
3 442 381 440
3 382 441 380
3 382 443 441
3 442 383 381
3 444 383 442
3 384 443 382
3 384 445 443
3 444 385 383
3 446 385 444
3 386 445 384
3 386 447 445
3 446 387 385
3 448 387 446
3 388 447 386
3 388 449 447
3 448 389 387
3 450 389 448
3 390 449 388
3 390 451 449
3 450 391 389
3 452 391 450
3 392 451 390
3 392 453 451
3 452 393 391
3 454 393 452
3 394 453 392
3 394 455 453
3 454 395 393
3 456 395 454
3 396 455 394
3 396 457 455
3 456 397 395
3 458 397 456
3 398 457 396
3 398 459 457
3 458 460 397
3 397 460 399
3 399 461 400
3 460 461 399
3 400 462 401
3 461 462 400
3 401 463 402
3 462 463 401
3 402 464 403
3 463 464 402
3 403 465 404
3 464 465 403
3 404 466 405
3 465 466 404
3 405 467 406
3 466 467 405
3 406 468 407
3 467 468 406
3 407 469 408
3 468 469 407
3 408 470 409
3 469 470 408
3 409 471 410
3 470 471 409
3 410 472 411
3 471 472 410
3 411 473 412
3 472 473 411
3 398 412 459
3 459 412 473
3 475 474 415
3 415 474 414
3 476 415 416
3 476 475 415
3 477 416 417
3 477 476 416
3 478 417 418
3 478 477 417
3 479 418 419
3 479 478 418
3 480 419 420
3 480 479 419
3 481 420 421
3 481 480 420
3 482 421 422
3 482 481 421
3 483 422 423
3 483 482 422
3 484 423 424
3 484 483 423
3 485 424 425
3 485 484 424
3 486 425 426
3 486 485 425
3 487 426 427
3 487 486 426
3 488 427 428
3 488 487 427
3 428 429 488
3 488 429 489
3 474 430 414
3 490 430 474
3 431 489 429
3 431 491 489
3 490 432 430
3 492 432 490
3 433 491 431
3 433 493 491
3 492 434 432
3 494 434 492
3 435 493 433
3 435 495 493
3 494 436 434
3 496 436 494
3 437 495 435
3 437 497 495
3 496 438 436
3 498 438 496
3 439 497 437
3 439 499 497
3 498 440 438
3 500 440 498
3 441 499 439
3 441 501 499
3 500 442 440
3 502 442 500
3 443 501 441
3 443 503 501
3 502 444 442
3 504 444 502
3 445 503 443
3 445 505 503
3 504 446 444
3 506 446 504
3 447 505 445
3 447 507 505
3 506 448 446
3 508 448 506
3 449 507 447
3 449 509 507
3 508 450 448
3 510 450 508
3 451 509 449
3 451 511 509
3 510 452 450
3 512 452 510
3 453 511 451
3 453 513 511
3 512 454 452
3 514 454 512
3 455 513 453
3 455 515 513
3 514 456 454
3 516 456 514
3 457 515 455
3 457 517 515
3 516 458 456
3 518 458 516
3 459 517 457
3 459 519 517
3 518 520 458
3 458 520 460
3 460 521 461
3 520 521 460
3 461 522 462
3 521 522 461
3 462 523 463
3 522 523 462
3 463 524 464
3 523 524 463
3 464 525 465
3 524 525 464
3 465 526 466
3 525 526 465
3 466 527 467
3 526 527 466
3 467 528 468
3 527 528 467
3 468 529 469
3 528 529 468
3 469 530 470
3 529 530 469
3 470 531 471
3 530 531 470
3 471 532 472
3 531 532 471
3 472 533 473
3 532 533 472
3 459 473 519
3 519 473 533
3 535 534 475
3 475 534 474
3 536 475 476
3 536 535 475
3 537 476 477
3 537 536 476
3 538 477 478
3 538 537 477
3 539 478 479
3 539 538 478
3 540 479 480
3 540 539 479
3 541 480 481
3 541 540 480
3 542 481 482
3 542 541 481
3 543 482 483
3 543 542 482
3 544 483 484
3 544 543 483
3 545 484 485
3 545 544 484
3 546 485 486
3 546 545 485
3 547 486 487
3 547 546 486
3 548 487 488
3 548 547 487
3 488 489 548
3 548 489 549
3 534 490 474
3 550 490 534
3 491 549 489
3 491 551 549
3 550 492 490
3 552 492 550
3 493 551 491
3 493 553 551
3 552 494 492
3 554 494 552
3 495 553 493
3 495 555 553
3 554 496 494
3 556 496 554
3 497 555 495
3 497 557 555
3 556 498 496
3 558 498 556
3 499 557 497
3 499 559 557
3 558 500 498
3 560 500 558
3 501 559 499
3 501 561 559
3 560 502 500
3 562 502 560
3 503 561 501
3 503 563 561
3 562 504 502
3 564 504 562
3 505 563 503
3 505 565 563
3 564 506 504
3 566 506 564
3 507 565 505
3 507 567 565
3 566 508 506
3 568 508 566
3 509 567 507
3 509 569 567
3 568 510 508
3 570 510 568
3 511 569 509
3 511 571 569
3 570 512 510
3 572 512 570
3 513 571 511
3 513 573 571
3 572 514 512
3 574 514 572
3 515 573 513
3 515 575 573
3 574 516 514
3 576 516 574
3 517 575 515
3 517 577 575
3 576 518 516
3 578 518 576
3 519 577 517
3 519 579 577
3 578 580 518
3 518 580 520
3 520 581 521
3 580 581 520
3 521 582 522
3 581 582 521
3 522 583 523
3 582 583 522
3 523 584 524
3 583 584 523
3 524 585 525
3 584 585 524
3 525 586 526
3 585 586 525
3 526 587 527
3 586 587 526
3 527 588 528
3 587 588 527
3 528 589 529
3 588 589 528
3 529 590 530
3 589 590 529
3 530 591 531
3 590 591 530
3 531 592 532
3 591 592 531
3 532 593 533
3 592 593 532
3 519 533 579
3 579 533 593
3 595 594 535
3 535 594 534
3 596 535 536
3 596 595 535
3 597 536 537
3 597 596 536
3 598 537 538
3 598 597 537
3 599 538 539
3 599 598 538
3 600 539 540
3 600 599 539
3 601 540 541
3 601 600 540
3 602 541 542
3 602 601 541
3 603 542 543
3 603 602 542
3 604 543 544
3 604 603 543
3 605 544 545
3 605 604 544
3 606 545 546
3 606 605 545
3 607 546 547
3 607 606 546
3 608 547 548
3 608 607 547
3 548 549 608
3 608 549 609
3 594 550 534
3 610 550 594
3 551 609 549
3 551 611 609
3 610 552 550
3 612 552 610
3 553 611 551
3 553 613 611
3 612 554 552
3 614 554 612
3 555 613 553
3 555 615 613
3 614 556 554
3 616 556 614
3 557 615 555
3 557 617 615
3 616 558 556
3 618 558 616
3 559 617 557
3 559 619 617
3 618 560 558
3 620 560 618
3 561 619 559
3 561 621 619
3 620 562 560
3 622 562 620
3 563 621 561
3 563 623 621
3 622 564 562
3 624 564 622
3 565 623 563
3 565 625 623
3 624 566 564
3 626 566 624
3 567 625 565
3 567 627 625
3 626 568 566
3 628 568 626
3 569 627 567
3 569 629 627
3 628 570 568
3 630 570 628
3 571 629 569
3 571 631 629
3 630 572 570
3 632 572 630
3 573 631 571
3 573 633 631
3 632 574 572
3 634 574 632
3 575 633 573
3 575 635 633
3 634 576 574
3 636 576 634
3 577 635 575
3 577 637 635
3 636 578 576
3 638 578 636
3 579 637 577
3 579 639 637
3 638 640 578
3 578 640 580
3 580 641 581
3 640 641 580
3 581 642 582
3 641 642 581
3 582 643 583
3 642 643 582
3 583 644 584
3 643 644 583
3 584 645 585
3 644 645 584
3 585 646 586
3 645 646 585
3 586 647 587
3 646 647 586
3 587 648 588
3 647 648 587
3 588 649 589
3 648 649 588
3 589 650 590
3 649 650 589
3 590 651 591
3 650 651 590
3 591 652 592
3 651 652 591
3 592 653 593
3 652 653 592
3 579 593 639
3 639 593 653
3 655 654 595
3 595 654 594
3 656 595 596
3 656 655 595
3 657 596 597
3 657 656 596
3 658 597 598
3 658 657 597
3 659 598 599
3 659 658 598
3 660 599 600
3 660 659 599
3 661 600 601
3 661 660 600
3 662 601 602
3 662 661 601
3 663 602 603
3 663 662 602
3 664 603 604
3 664 663 603
3 665 604 605
3 665 664 604
3 666 605 606
3 666 665 605
3 667 606 607
3 667 666 606
3 668 607 608
3 668 667 607
3 608 609 668
3 668 609 669
3 654 610 594
3 670 610 654
3 611 669 609
3 611 671 669
3 670 612 610
3 672 612 670
3 613 671 611
3 613 673 671
3 672 614 612
3 674 614 672
3 615 673 613
3 615 675 673
3 674 616 614
3 676 616 674
3 617 675 615
3 617 677 675
3 676 618 616
3 678 618 676
3 619 677 617
3 619 679 677
3 678 620 618
3 680 620 678
3 621 679 619
3 621 681 679
3 680 622 620
3 682 622 680
3 623 681 621
3 623 683 681
3 682 624 622
3 684 624 682
3 625 683 623
3 625 685 683
3 684 626 624
3 686 626 684
3 627 685 625
3 627 687 685
3 686 628 626
3 688 628 686
3 629 687 627
3 629 689 687
3 688 630 628
3 690 630 688
3 631 689 629
3 631 691 689
3 690 632 630
3 692 632 690
3 633 691 631
3 633 693 691
3 692 634 632
3 694 634 692
3 635 693 633
3 635 695 693
3 694 636 634
3 696 636 694
3 637 695 635
3 637 697 695
3 696 638 636
3 698 638 696
3 639 697 637
3 639 699 697
3 698 700 638
3 638 700 640
3 640 701 641
3 700 701 640
3 641 702 642
3 701 702 641
3 642 703 643
3 702 703 642
3 643 704 644
3 703 704 643
3 644 705 645
3 704 705 644
3 645 706 646
3 705 706 645
3 646 707 647
3 706 707 646
3 647 708 648
3 707 708 647
3 648 709 649
3 708 709 648
3 649 710 650
3 709 710 649
3 650 711 651
3 710 711 650
3 651 712 652
3 711 712 651
3 652 713 653
3 712 713 652
3 639 653 699
3 699 653 713
3 715 714 655
3 655 714 654
3 716 655 656
3 716 715 655
3 717 656 657
3 717 716 656
3 718 657 658
3 718 717 657
3 719 658 659
3 719 718 658
3 720 659 660
3 720 719 659
3 721 660 661
3 721 720 660
3 722 661 662
3 722 721 661
3 723 662 663
3 723 722 662
3 724 663 664
3 724 723 663
3 725 664 665
3 725 724 664
3 726 665 666
3 726 725 665
3 727 666 667
3 727 726 666
3 728 667 668
3 728 727 667
3 668 669 728
3 728 669 729
3 714 670 654
3 730 670 714
3 671 729 669
3 671 731 729
3 730 672 670
3 732 672 730
3 673 731 671
3 673 733 731
3 732 674 672
3 734 674 732
3 675 733 673
3 675 735 733
3 734 676 674
3 736 676 734
3 677 735 675
3 677 737 735
3 736 678 676
3 738 678 736
3 679 737 677
3 679 739 737
3 738 680 678
3 740 680 738
3 681 739 679
3 681 741 739
3 740 682 680
3 742 682 740
3 683 741 681
3 683 743 741
3 742 684 682
3 744 684 742
3 685 743 683
3 685 745 743
3 744 686 684
3 746 686 744
3 687 745 685
3 687 747 745
3 746 688 686
3 748 688 746
3 689 747 687
3 689 749 747
3 748 690 688
3 750 690 748
3 691 749 689
3 691 751 749
3 750 692 690
3 752 692 750
3 693 751 691
3 693 753 751
3 752 694 692
3 754 694 752
3 695 753 693
3 695 755 753
3 754 696 694
3 756 696 754
3 697 755 695
3 697 757 755
3 756 698 696
3 758 698 756
3 699 757 697
3 699 759 757
3 758 760 698
3 698 760 700
3 700 761 701
3 760 761 700
3 701 762 702
3 761 762 701
3 702 763 703
3 762 763 702
3 703 764 704
3 763 764 703
3 704 765 705
3 764 765 704
3 705 766 706
3 765 766 705
3 706 767 707
3 766 767 706
3 707 768 708
3 767 768 707
3 708 769 709
3 768 769 708
3 709 770 710
3 769 770 709
3 710 771 711
3 770 771 710
3 711 772 712
3 771 772 711
3 712 773 713
3 772 773 712
3 699 713 759
3 759 713 773
3 775 774 715
3 715 774 714
3 776 715 716
3 776 775 715
3 777 716 717
3 777 776 716
3 778 717 718
3 778 777 717
3 779 718 719
3 779 778 718
3 780 719 720
3 780 779 719
3 781 720 721
3 781 780 720
3 782 721 722
3 782 781 721
3 783 722 723
3 783 782 722
3 784 723 724
3 784 783 723
3 785 724 725
3 785 784 724
3 786 725 726
3 786 785 725
3 787 726 727
3 787 786 726
3 788 727 728
3 788 787 727
3 728 729 788
3 788 729 789
3 774 730 714
3 790 730 774
3 731 789 729
3 731 791 789
3 790 732 730
3 792 732 790
3 733 791 731
3 733 793 791
3 792 734 732
3 794 734 792
3 735 793 733
3 735 795 793
3 794 736 734
3 796 736 794
3 737 795 735
3 737 797 795
3 796 738 736
3 798 738 796
3 739 797 737
3 739 799 797
3 798 740 738
3 800 740 798
3 741 799 739
3 741 801 799
3 800 742 740
3 802 742 800
3 743 801 741
3 743 803 801
3 802 744 742
3 804 744 802
3 745 803 743
3 745 805 803
3 804 746 744
3 806 746 804
3 747 805 745
3 747 807 805
3 806 748 746
3 808 748 806
3 749 807 747
3 749 809 807
3 808 750 748
3 810 750 808
3 751 809 749
3 751 811 809
3 810 752 750
3 812 752 810
3 753 811 751
3 753 813 811
3 812 754 752
3 814 754 812
3 755 813 753
3 755 815 813
3 814 756 754
3 816 756 814
3 757 815 755
3 757 817 815
3 816 758 756
3 818 758 816
3 821 820 819
3 820 817 819
3 817 759 819
3 817 757 759
3 818 822 758
3 758 822 760
3 760 823 761
3 822 823 760
3 761 824 762
3 823 824 761
3 762 825 763
3 824 825 762
3 763 826 764
3 825 826 763
3 764 827 765
3 826 827 764
3 765 828 766
3 827 828 765
3 766 829 767
3 828 829 766
3 767 830 768
3 829 830 767
3 768 831 769
3 830 831 768
3 769 832 770
3 831 832 769
3 770 833 771
3 832 833 770
3 771 834 772
3 833 834 771
3 819 773 821
3 773 834 821
3 773 772 834
3 773 819 759
3 836 835 775
3 775 835 774
3 837 775 776
3 837 836 775
3 838 776 777
3 838 837 776
3 839 777 778
3 839 838 777
3 840 778 779
3 840 839 778
3 841 779 780
3 841 840 779
3 842 780 781
3 842 841 780
3 843 781 782
3 843 842 781
3 844 782 783
3 844 843 782
3 845 783 784
3 845 844 783
3 846 784 785
3 846 845 784
3 847 785 786
3 847 846 785
3 848 786 787
3 848 847 786
3 849 787 788
3 849 848 787
3 788 789 849
3 849 789 850
3 835 790 774
3 851 790 835
3 791 850 789
3 791 852 850
3 851 792 790
3 853 792 851
3 793 852 791
3 793 854 852
3 853 794 792
3 855 794 853
3 795 854 793
3 795 856 854
3 855 796 794
3 857 796 855
3 797 856 795
3 797 858 856
3 857 798 796
3 859 798 857
3 799 858 797
3 799 860 858
3 859 800 798
3 861 800 859
3 801 860 799
3 801 862 860
3 861 802 800
3 863 802 861
3 803 862 801
3 803 864 862
3 863 804 802
3 865 804 863
3 805 864 803
3 805 866 864
3 865 806 804
3 867 806 865
3 807 866 805
3 807 868 866
3 867 808 806
3 869 808 867
3 809 868 807
3 809 870 868
3 869 810 808
3 871 810 869
3 811 870 809
3 811 872 870
3 871 812 810
3 873 812 871
3 813 872 811
3 813 874 872
3 873 814 812
3 875 814 873
3 815 874 813
3 815 876 874
3 875 816 814
3 877 816 875
3 817 876 815
3 817 878 876
3 877 818 816
3 879 818 877
3 882 881 880
3 820 821 880
3 881 820 880
3 883 820 881
3 817 820 878
3 878 820 883
3 879 884 818
3 818 884 822
3 822 885 823
3 884 885 822
3 823 886 824
3 885 886 823
3 824 887 825
3 886 887 824
3 825 888 826
3 887 888 825
3 826 889 827
3 888 889 826
3 827 890 828
3 889 890 827
3 828 891 829
3 890 891 828
3 829 892 830
3 891 892 829
3 830 893 831
3 892 893 830
3 831 894 832
3 893 894 831
3 832 895 833
3 894 895 832
3 880 834 882
3 834 895 882
3 834 833 895
3 834 880 821
3 897 896 836
3 836 896 835
3 898 836 837
3 898 897 836
3 899 837 838
3 899 898 837
3 900 838 839
3 900 899 838
3 901 839 840
3 901 900 839
3 902 840 841
3 902 901 840
3 903 841 842
3 903 902 841
3 904 842 843
3 904 903 842
3 905 843 844
3 905 904 843
3 906 844 845
3 906 905 844
3 907 845 846
3 907 906 845
3 908 846 847
3 908 907 846
3 909 847 848
3 909 908 847
3 910 848 849
3 910 909 848
3 849 850 910
3 910 850 911
3 896 851 835
3 912 851 896
3 852 911 850
3 852 913 911
3 912 853 851
3 914 853 912
3 854 913 852
3 854 915 913
3 914 855 853
3 916 855 914
3 856 915 854
3 856 917 915
3 916 857 855
3 918 857 916
3 858 917 856
3 858 919 917
3 918 859 857
3 920 859 918
3 860 919 858
3 860 921 919
3 920 861 859
3 922 861 920
3 862 921 860
3 862 923 921
3 922 863 861
3 924 863 922
3 864 923 862
3 864 925 923
3 924 865 863
3 926 865 924
3 866 925 864
3 866 927 925
3 926 867 865
3 928 867 926
3 868 927 866
3 868 929 927
3 928 869 867
3 930 869 928
3 870 929 868
3 870 931 929
3 930 871 869
3 932 871 930
3 872 931 870
3 872 933 931
3 932 873 871
3 934 873 932
3 874 933 872
3 874 935 933
3 934 875 873
3 936 875 934
3 876 935 874
3 876 937 935
3 936 877 875
3 938 877 936
3 941 940 939
3 940 937 939
3 937 878 939
3 937 876 878
3 938 879 877
3 942 879 938
3 944 943 881
3 944 881 882
3 939 883 941
3 883 943 941
3 883 881 943
3 883 939 878
3 942 945 879
3 879 945 884
3 884 946 885
3 945 946 884
3 885 947 886
3 946 947 885
3 886 948 887
3 947 948 886
3 887 949 888
3 948 949 887
3 888 950 889
3 949 950 888
3 889 951 890
3 950 951 889
3 890 952 891
3 951 952 890
3 891 953 892
3 952 953 891
3 892 954 893
3 953 954 892
3 893 955 894
3 954 955 893
3 894 956 895
3 955 956 894
3 882 895 944
3 944 895 956
3 958 957 897
3 897 957 896
3 959 897 898
3 959 958 897
3 960 898 899
3 960 959 898
3 961 899 900
3 961 960 899
3 962 900 901
3 962 961 900
3 963 901 902
3 963 962 901
3 964 902 903
3 964 963 902
3 965 903 904
3 965 964 903
3 966 904 905
3 966 965 904
3 967 905 906
3 967 966 905
3 968 906 907
3 968 967 906
3 969 907 908
3 969 968 907
3 970 908 909
3 970 969 908
3 971 909 910
3 971 970 909
3 910 911 971
3 971 911 972
3 957 912 896
3 973 912 957
3 913 972 911
3 913 974 972
3 973 914 912
3 975 914 973
3 915 974 913
3 915 976 974
3 975 916 914
3 977 916 975
3 917 976 915
3 917 978 976
3 977 918 916
3 979 918 977
3 919 978 917
3 919 980 978
3 979 920 918
3 981 920 979
3 921 980 919
3 921 982 980
3 981 922 920
3 983 922 981
3 923 982 921
3 923 984 982
3 983 924 922
3 985 924 983
3 925 984 923
3 925 986 984
3 985 926 924
3 987 926 985
3 927 986 925
3 927 988 986
3 987 928 926
3 989 928 987
3 929 988 927
3 929 990 988
3 989 930 928
3 991 930 989
3 931 990 929
3 931 992 990
3 991 932 930
3 993 932 991
3 933 992 931
3 933 994 992
3 993 934 932
3 995 934 993
3 935 994 933
3 935 996 994
3 995 936 934
3 997 936 995
3 1000 999 998
3 999 996 998
3 996 937 998
3 996 935 937
3 997 938 936
3 1001 938 997
3 1004 1003 1002
3 1002 1003 1000
3 1002 1000 998
3 941 1002 998
3 940 941 998
3 940 998 937
3 1001 942 938
3 1005 942 1001
3 1008 1007 1006
3 1006 1007 1004
3 1006 1004 1002
3 944 1006 1002
3 943 944 1002
3 943 1002 941
3 1005 1009 942
3 942 1009 945
3 945 1010 946
3 1009 1010 945
3 946 1011 947
3 1010 1011 946
3 947 1012 948
3 1011 1012 947
3 948 1013 949
3 1012 1013 948
3 949 1014 950
3 1013 1014 949
3 950 1015 951
3 1014 1015 950
3 951 1016 952
3 1015 1016 951
3 952 1017 953
3 1016 1017 952
3 953 1018 954
3 1017 1018 953
3 954 1019 955
3 1018 1019 954
3 1006 956 1008
3 956 1019 1008
3 956 955 1019
3 956 1006 944
3 1021 1020 958
3 958 1020 957
3 1022 958 959
3 1022 1021 958
3 1023 959 960
3 1023 1022 959
3 1024 960 961
3 1024 1023 960
3 1025 961 962
3 1025 1024 961
3 1026 962 963
3 1026 1025 962
3 1027 963 964
3 1027 1026 963
3 1028 964 965
3 1028 1027 964
3 1029 965 966
3 1029 1028 965
3 1030 966 967
3 1030 1029 966
3 1031 967 968
3 1031 1030 967
3 1032 968 969
3 1032 1031 968
3 1033 969 970
3 1033 1032 969
3 1034 970 971
3 1034 1033 970
3 971 972 1034
3 1034 972 1035
3 1020 973 957
3 1036 973 1020
3 974 1035 972
3 974 1037 1035
3 1036 975 973
3 1038 975 1036
3 976 1037 974
3 976 1039 1037
3 1038 977 975
3 1040 977 1038
3 978 1039 976
3 978 1041 1039
3 1040 979 977
3 1042 979 1040
3 980 1041 978
3 980 1043 1041
3 1042 981 979
3 1044 981 1042
3 982 1043 980
3 982 1045 1043
3 1044 983 981
3 1046 983 1044
3 984 1045 982
3 984 1047 1045
3 1046 985 983
3 1048 985 1046
3 986 1047 984
3 986 1049 1047
3 1048 987 985
3 1050 987 1048
3 988 1049 986
3 988 1051 1049
3 1050 989 987
3 1052 989 1050
3 990 1051 988
3 990 1053 1051
3 1052 991 989
3 1054 991 1052
3 992 1053 990
3 992 1055 1053
3 1054 993 991
3 1056 993 1054
3 994 1055 992
3 994 1057 1055
3 1056 995 993
3 1058 995 1056
3 996 1057 994
3 996 1059 1057
3 1058 997 995
3 1060 997 1058
3 1063 1062 1061
3 999 1000 1061
3 1062 999 1061
3 1064 999 1062
3 996 999 1059
3 1059 999 1064
3 1060 1001 997
3 1065 1001 1060
3 1068 1067 1066
3 1066 1067 1063
3 1066 1063 1061
3 1004 1066 1061
3 1003 1004 1061
3 1003 1061 1000
3 1065 1005 1001
3 1069 1005 1065
3 1072 1071 1070
3 1070 1071 1068
3 1070 1068 1066
3 1008 1070 1066
3 1007 1008 1066
3 1007 1066 1004
3 1069 1073 1005
3 1005 1073 1009
3 1009 1074 1010
3 1073 1074 1009
3 1010 1075 1011
3 1074 1075 1010
3 1011 1076 1012
3 1075 1076 1011
3 1012 1077 1013
3 1076 1077 1012
3 1013 1078 1014
3 1077 1078 1013
3 1014 1079 1015
3 1078 1079 1014
3 1015 1080 1016
3 1079 1080 1015
3 1016 1081 1017
3 1080 1081 1016
3 1017 1082 1018
3 1081 1082 1017
3 1070 1019 1072
3 1019 1082 1072
3 1019 1018 1082
3 1019 1070 1008
3 1084 1083 1021
3 1021 1083 1020
3 1085 1021 1022
3 1085 1084 1021
3 1086 1022 1023
3 1086 1085 1022
3 1087 1023 1024
3 1087 1086 1023
3 1088 1024 1025
3 1088 1087 1024
3 1089 1025 1026
3 1089 1088 1025
3 1090 1026 1027
3 1090 1089 1026
3 1091 1027 1028
3 1091 1090 1027
3 1092 1028 1029
3 1092 1091 1028
3 1093 1029 1030
3 1093 1092 1029
3 1094 1030 1031
3 1094 1093 1030
3 1095 1031 1032
3 1095 1094 1031
3 1096 1032 1033
3 1096 1095 1032
3 1097 1033 1034
3 1097 1096 1033
3 1034 1035 1097
3 1097 1035 1098
3 1083 1036 1020
3 1099 1036 1083
3 1037 1098 1035
3 1037 1100 1098
3 1099 1038 1036
3 1101 1038 1099
3 1039 1100 1037
3 1039 1102 1100
3 1101 1040 1038
3 1103 1040 1101
3 1041 1102 1039
3 1041 1104 1102
3 1103 1042 1040
3 1105 1042 1103
3 1043 1104 1041
3 1043 1106 1104
3 1105 1044 1042
3 1107 1044 1105
3 1045 1106 1043
3 1045 1108 1106
3 1107 1046 1044
3 1109 1046 1107
3 1047 1108 1045
3 1047 1110 1108
3 1109 1048 1046
3 1111 1048 1109
3 1049 1110 1047
3 1049 1112 1110
3 1111 1050 1048
3 1113 1050 1111
3 1051 1112 1049
3 1051 1114 1112
3 1113 1052 1050
3 1115 1052 1113
3 1053 1114 1051
3 1053 1116 1114
3 1115 1054 1052
3 1117 1054 1115
3 1055 1116 1053
3 1055 1118 1116
3 1117 1056 1054
3 1119 1056 1117
3 1057 1118 1055
3 1057 1120 1118
3 1119 1058 1056
3 1121 1058 1119
3 1124 1123 1122
3 1123 1120 1122
3 1120 1059 1122
3 1120 1057 1059
3 1121 1060 1058
3 1125 1060 1121
3 1128 1127 1126
3 1062 1063 1126
3 1127 1062 1126
3 1129 1062 1127
3 1122 1064 1124
3 1064 1129 1124
3 1064 1062 1129
3 1064 1122 1059
3 1125 1065 1060
3 1130 1065 1125
3 1133 1132 1131
3 1131 1132 1128
3 1131 1128 1126
3 1068 1131 1126
3 1067 1068 1126
3 1067 1126 1063
3 1130 1069 1065
3 1134 1069 1130
3 1137 1136 1135
3 1135 1136 1133
3 1135 1133 1131
3 1072 1135 1131
3 1071 1072 1131
3 1071 1131 1068
3 1134 1138 1069
3 1069 1138 1073
3 1073 1139 1074
3 1138 1139 1073
3 1074 1140 1075
3 1139 1140 1074
3 1075 1141 1076
3 1140 1141 1075
3 1076 1142 1077
3 1141 1142 1076
3 1077 1143 1078
3 1142 1143 1077
3 1078 1144 1079
3 1143 1144 1078
3 1079 1145 1080
3 1144 1145 1079
3 1080 1146 1081
3 1145 1146 1080
3 1135 1082 1137
3 1082 1146 1137
3 1082 1081 1146
3 1082 1135 1072
3 1147 1083 1084
3 1085 1148 1084
3 1084 1148 1147
3 1086 1149 1085
3 1085 1149 1148
3 1087 1150 1086
3 1086 1150 1149
3 1088 1151 1087
3 1087 1151 1150
3 1089 1152 1088
3 1088 1152 1151
3 1090 1153 1089
3 1089 1153 1152
3 1091 1154 1090
3 1090 1154 1153
3 1092 1155 1091
3 1091 1155 1154
3 1093 1156 1092
3 1092 1156 1155
3 1094 1157 1093
3 1093 1157 1156
3 1095 1158 1094
3 1094 1158 1157
3 1096 1159 1095
3 1095 1159 1158
3 1097 1160 1096
3 1096 1160 1159
3 1098 1160 1097
3 1162 1161 1147
3 1161 1083 1147
3 1161 1099 1083
3 1162 1147 1148
3 1162 1148 1163
3 1163 1148 1149
3 1163 1149 1164
3 1164 1149 1150
3 1164 1150 1165
3 1165 1150 1151
3 1165 1151 1166
3 1166 1151 1152
3 1166 1152 1167
3 1167 1152 1153
3 1167 1153 1168
3 1168 1153 1154
3 1168 1154 1169
3 1169 1154 1155
3 1169 1155 1170
3 1170 1155 1156
3 1170 1156 1171
3 1171 1156 1157
3 1171 1157 1172
3 1172 1157 1158
3 1172 1158 1173
3 1173 1158 1159
3 1173 1159 1174
3 1174 1159 1160
3 1174 1160 1175
3 1160 1098 1175
3 1098 1176 1175
3 1098 1100 1176
3 1161 1101 1099
3 1177 1101 1161
3 1102 1176 1100
3 1102 1178 1176
3 1177 1103 1101
3 1179 1103 1177
3 1104 1178 1102
3 1104 1180 1178
3 1179 1105 1103
3 1181 1105 1179
3 1106 1180 1104
3 1106 1182 1180
3 1181 1107 1105
3 1183 1107 1181
3 1108 1182 1106
3 1108 1184 1182
3 1183 1109 1107
3 1185 1109 1183
3 1110 1184 1108
3 1110 1186 1184
3 1185 1111 1109
3 1187 1111 1185
3 1112 1186 1110
3 1112 1188 1186
3 1187 1113 1111
3 1189 1113 1187
3 1114 1188 1112
3 1114 1190 1188
3 1189 1115 1113
3 1191 1115 1189
3 1116 1190 1114
3 1116 1192 1190
3 1191 1117 1115
3 1193 1117 1191
3 1118 1192 1116
3 1118 1194 1192
3 1193 1119 1117
3 1195 1119 1193
3 1198 1197 1196
3 1197 1194 1196
3 1194 1120 1196
3 1194 1118 1120
3 1195 1121 1119
3 1199 1121 1195
3 1202 1201 1200
3 1200 1201 1198
3 1200 1198 1196
3 1124 1200 1196
3 1123 1124 1196
3 1123 1196 1120
3 1199 1125 1121
3 1203 1125 1199
3 1205 1204 1127
3 1205 1127 1128
3 1200 1129 1202
3 1129 1204 1202
3 1129 1127 1204
3 1129 1200 1124
3 1203 1130 1125
3 1206 1130 1203
3 1209 1208 1207
3 1132 1133 1207
3 1208 1132 1207
3 1210 1132 1208
3 1128 1132 1205
3 1205 1132 1210
3 1212 1134 1211
3 1134 1206 1211
3 1134 1130 1206
3 1214 1213 1212
3 1214 1212 1211
3 1216 1215 1213
3 1216 1213 1214
3 1218 1217 1215
3 1218 1215 1216
3 1220 1219 1217
3 1220 1217 1218
3 1222 1221 1219
3 1222 1219 1220
3 1224 1223 1221
3 1224 1221 1222
3 1226 1225 1223
3 1226 1223 1224
3 1228 1227 1225
3 1228 1225 1226
3 1227 1228 1209
3 1227 1209 1207
3 1137 1227 1207
3 1136 1137 1207
3 1136 1207 1133
3 1212 1138 1134
3 1138 1212 1139
3 1139 1212 1213
3 1139 1213 1140
3 1140 1213 1215
3 1140 1215 1141
3 1141 1215 1217
3 1141 1217 1142
3 1142 1217 1219
3 1142 1219 1143
3 1143 1219 1221
3 1143 1221 1144
3 1144 1221 1223
3 1144 1223 1145
3 1145 1223 1225
3 1145 1225 1146
3 1146 1225 1227
3 1146 1227 1137
3 1229 1161 1162
3 1163 1230 1162
3 1162 1230 1229
3 1164 1231 1163
3 1163 1231 1230
3 1165 1232 1164
3 1164 1232 1231
3 1166 1233 1165
3 1165 1233 1232
3 1167 1234 1166
3 1166 1234 1233
3 1168 1235 1167
3 1167 1235 1234
3 1169 1236 1168
3 1168 1236 1235
3 1170 1237 1169
3 1169 1237 1236
3 1171 1238 1170
3 1170 1238 1237
3 1172 1239 1171
3 1171 1239 1238
3 1173 1240 1172
3 1172 1240 1239
3 1174 1241 1173
3 1173 1241 1240
3 1175 1242 1174
3 1174 1242 1241
3 1176 1242 1175
3 1243 1177 1229
3 1229 1177 1161
3 1244 1229 1230
3 1243 1229 1244
3 1245 1230 1231
3 1244 1230 1245
3 1246 1231 1232
3 1245 1231 1246
3 1247 1232 1233
3 1246 1232 1247
3 1248 1233 1234
3 1247 1233 1248
3 1249 1234 1235
3 1248 1234 1249
3 1250 1235 1236
3 1249 1235 1250
3 1251 1236 1237
3 1250 1236 1251
3 1252 1237 1238
3 1251 1237 1252
3 1253 1238 1239
3 1252 1238 1253
3 1254 1239 1240
3 1253 1239 1254
3 1255 1240 1241
3 1254 1240 1255
3 1256 1241 1242
3 1255 1241 1256
3 1178 1256 1176
3 1176 1256 1242
3 1257 1179 1243
3 1243 1179 1177
3 1258 1243 1244
3 1257 1243 1258
3 1259 1244 1245
3 1258 1244 1259
3 1260 1245 1246
3 1259 1245 1260
3 1261 1246 1247
3 1260 1246 1261
3 1262 1247 1248
3 1261 1247 1262
3 1263 1248 1249
3 1262 1248 1263
3 1264 1249 1250
3 1263 1249 1264
3 1265 1250 1251
3 1264 1250 1265
3 1266 1251 1252
3 1265 1251 1266
3 1267 1252 1253
3 1266 1252 1267
3 1268 1253 1254
3 1267 1253 1268
3 1269 1254 1255
3 1268 1254 1269
3 1270 1255 1256
3 1269 1255 1270
3 1180 1270 1178
3 1178 1270 1256
3 1271 1181 1257
3 1257 1181 1179
3 1272 1257 1258
3 1271 1257 1272
3 1273 1258 1259
3 1272 1258 1273
3 1274 1259 1260
3 1273 1259 1274
3 1275 1260 1261
3 1274 1260 1275
3 1276 1261 1262
3 1275 1261 1276
3 1277 1262 1263
3 1276 1262 1277
3 1278 1263 1264
3 1277 1263 1278
3 1279 1264 1265
3 1278 1264 1279
3 1280 1265 1266
3 1279 1265 1280
3 1281 1266 1267
3 1280 1266 1281
3 1282 1267 1268
3 1281 1267 1282
3 1283 1268 1269
3 1282 1268 1283
3 1284 1269 1270
3 1283 1269 1284
3 1182 1284 1180
3 1180 1284 1270
3 1285 1183 1271
3 1271 1183 1181
3 1286 1271 1272
3 1285 1271 1286
3 1287 1272 1273
3 1286 1272 1287
3 1288 1273 1274
3 1287 1273 1288
3 1289 1274 1275
3 1288 1274 1289
3 1290 1275 1276
3 1289 1275 1290
3 1291 1276 1277
3 1290 1276 1291
3 1292 1277 1278
3 1291 1277 1292
3 1293 1278 1279
3 1292 1278 1293
3 1294 1279 1280
3 1293 1279 1294
3 1295 1280 1281
3 1294 1280 1295
3 1296 1281 1282
3 1295 1281 1296
3 1297 1282 1283
3 1296 1282 1297
3 1298 1283 1284
3 1297 1283 1298
3 1184 1298 1182
3 1182 1298 1284
3 1299 1185 1285
3 1285 1185 1183
3 1300 1285 1286
3 1299 1285 1300
3 1301 1286 1287
3 1300 1286 1301
3 1302 1287 1288
3 1301 1287 1302
3 1303 1288 1289
3 1302 1288 1303
3 1304 1289 1290
3 1303 1289 1304
3 1305 1290 1291
3 1304 1290 1305
3 1306 1291 1292
3 1305 1291 1306
3 1307 1292 1293
3 1306 1292 1307
3 1308 1293 1294
3 1307 1293 1308
3 1309 1294 1295
3 1308 1294 1309
3 1310 1295 1296
3 1309 1295 1310
3 1311 1296 1297
3 1310 1296 1311
3 1312 1297 1298
3 1311 1297 1312
3 1186 1312 1184
3 1184 1312 1298
3 1313 1187 1299
3 1299 1187 1185
3 1314 1299 1300
3 1313 1299 1314
3 1315 1300 1301
3 1314 1300 1315
3 1316 1301 1302
3 1315 1301 1316
3 1317 1302 1303
3 1316 1302 1317
3 1318 1303 1304
3 1317 1303 1318
3 1319 1304 1305
3 1318 1304 1319
3 1320 1305 1306
3 1319 1305 1320
3 1321 1306 1307
3 1320 1306 1321
3 1322 1307 1308
3 1321 1307 1322
3 1323 1308 1309
3 1322 1308 1323
3 1324 1309 1310
3 1323 1309 1324
3 1325 1310 1311
3 1324 1310 1325
3 1326 1311 1312
3 1325 1311 1326
3 1188 1326 1186
3 1186 1326 1312
3 1327 1189 1313
3 1313 1189 1187
3 1328 1313 1314
3 1327 1313 1328
3 1329 1314 1315
3 1328 1314 1329
3 1330 1315 1316
3 1329 1315 1330
3 1331 1316 1317
3 1330 1316 1331
3 1332 1317 1318
3 1331 1317 1332
3 1333 1318 1319
3 1332 1318 1333
3 1334 1319 1320
3 1333 1319 1334
3 1335 1320 1321
3 1334 1320 1335
3 1336 1321 1322
3 1335 1321 1336
3 1337 1322 1323
3 1336 1322 1337
3 1338 1323 1324
3 1337 1323 1338
3 1339 1324 1325
3 1338 1324 1339
3 1340 1325 1326
3 1339 1325 1340
3 1190 1340 1188
3 1188 1340 1326
3 1341 1191 1327
3 1327 1191 1189
3 1342 1327 1328
3 1341 1327 1342
3 1343 1328 1329
3 1342 1328 1343
3 1344 1329 1330
3 1343 1329 1344
3 1345 1330 1331
3 1344 1330 1345
3 1346 1331 1332
3 1345 1331 1346
3 1347 1332 1333
3 1346 1332 1347
3 1348 1333 1334
3 1347 1333 1348
3 1349 1334 1335
3 1348 1334 1349
3 1350 1335 1336
3 1349 1335 1350
3 1351 1336 1337
3 1350 1336 1351
3 1352 1337 1338
3 1351 1337 1352
3 1353 1338 1339
3 1352 1338 1353
3 1354 1339 1340
3 1353 1339 1354
3 1192 1354 1190
3 1190 1354 1340
3 1355 1193 1341
3 1341 1193 1191
3 1356 1341 1342
3 1355 1341 1356
3 1357 1342 1343
3 1356 1342 1357
3 1358 1343 1344
3 1357 1343 1358
3 1359 1344 1345
3 1358 1344 1359
3 1360 1345 1346
3 1359 1345 1360
3 1361 1346 1347
3 1360 1346 1361
3 1362 1347 1348
3 1361 1347 1362
3 1363 1348 1349
3 1362 1348 1363
3 1364 1349 1350
3 1363 1349 1364
3 1365 1350 1351
3 1364 1350 1365
3 1366 1351 1352
3 1365 1351 1366
3 1367 1352 1353
3 1366 1352 1367
3 1368 1353 1354
3 1367 1353 1368
3 1194 1368 1192
3 1192 1368 1354
3 1369 1195 1355
3 1355 1195 1193
3 1370 1355 1356
3 1369 1355 1370
3 1371 1356 1357
3 1370 1356 1371
3 1372 1357 1358
3 1371 1357 1372
3 1373 1358 1359
3 1372 1358 1373
3 1374 1359 1360
3 1373 1359 1374
3 1375 1360 1361
3 1374 1360 1375
3 1376 1361 1362
3 1375 1361 1376
3 1377 1362 1363
3 1376 1362 1377
3 1378 1363 1364
3 1377 1363 1378
3 1379 1364 1365
3 1378 1364 1379
3 1380 1365 1366
3 1379 1365 1380
3 1381 1366 1367
3 1380 1366 1381
3 1198 1381 1197
3 1381 1368 1197
3 1381 1367 1368
3 1197 1368 1194
3 1382 1199 1369
3 1369 1199 1195
3 1383 1369 1370
3 1382 1369 1383
3 1384 1370 1371
3 1383 1370 1384
3 1385 1371 1372
3 1384 1371 1385
3 1386 1372 1373
3 1385 1372 1386
3 1387 1373 1374
3 1386 1373 1387
3 1388 1374 1375
3 1387 1374 1388
3 1389 1375 1376
3 1388 1375 1389
3 1390 1376 1377
3 1389 1376 1390
3 1391 1377 1378
3 1390 1377 1391
3 1392 1378 1379
3 1391 1378 1392
3 1393 1379 1380
3 1392 1379 1393
3 1202 1393 1201
3 1393 1381 1201
3 1393 1380 1381
3 1201 1381 1198
3 1394 1203 1382
3 1382 1203 1199
3 1395 1382 1383
3 1394 1382 1395
3 1396 1383 1384
3 1395 1383 1396
3 1397 1384 1385
3 1396 1384 1397
3 1398 1385 1386
3 1397 1385 1398
3 1399 1386 1387
3 1398 1386 1399
3 1400 1387 1388
3 1399 1387 1400
3 1401 1388 1389
3 1400 1388 1401
3 1402 1389 1390
3 1401 1389 1402
3 1403 1390 1391
3 1402 1390 1403
3 1404 1391 1392
3 1403 1391 1404
3 1205 1404 1204
3 1404 1393 1204
3 1404 1392 1393
3 1204 1393 1202
3 1405 1206 1394
3 1394 1206 1203
3 1406 1394 1395
3 1405 1394 1406
3 1407 1395 1396
3 1406 1395 1407
3 1408 1396 1397
3 1407 1396 1408
3 1409 1397 1398
3 1408 1397 1409
3 1410 1398 1399
3 1409 1398 1410
3 1411 1399 1400
3 1410 1399 1411
3 1412 1400 1401
3 1411 1400 1412
3 1413 1401 1402
3 1412 1401 1413
3 1209 1413 1208
3 1413 1403 1208
3 1413 1402 1403
3 1208 1403 1210
3 1210 1403 1404
3 1210 1404 1205
3 1405 1211 1206
3 1211 1405 1214
3 1214 1405 1406
3 1214 1406 1216
3 1216 1406 1407
3 1216 1407 1218
3 1218 1407 1408
3 1218 1408 1220
3 1220 1408 1409
3 1220 1409 1222
3 1222 1409 1410
3 1222 1410 1224
3 1224 1410 1411
3 1224 1411 1226
3 1226 1411 1412
3 1226 1412 1228
3 1228 1412 1413
3 1228 1413 1209
