# Asteroid shape model (convexinv -> dual reconstruction)
v -1.27096383 0.79369570 -0.21428571
v -1.19953526 0.79369570 -0.28571429
v -1.19953526 0.72226712 -0.21428571
v -1.19953526 0.79369570 -0.14285714
v -1.27096383 0.93655284 -0.21428571
v -1.19953526 0.93655284 -0.28571429
v -1.19953526 0.93655284 -0.14285714
v -1.19953526 1.00798141 -0.21428571
v -1.12810669 -0.92059002 -0.92857143
v -1.05667812 -0.92059002 -1.00000000
v -1.05667812 -0.99201859 -0.92857143
v -1.05667812 -0.99201859 -0.78571429
v -1.12810669 -0.92059002 -0.78571429
v -1.05667812 -0.99201859 -0.64285714
v -1.12810669 -0.92059002 -0.64285714
v -1.05667812 -0.99201859 -0.50000000
v -1.12810669 -0.92059002 -0.50000000
v -1.05667812 -0.99201859 -0.35714286
v -1.12810669 -0.92059002 -0.35714286
v -1.05667812 -0.99201859 -0.21428571
v -1.12810669 -0.92059002 -0.21428571
v -1.05667812 -0.99201859 -0.07142857
v -1.12810669 -0.92059002 -0.07142857
v -1.05667812 -0.99201859 0.07142857
v -1.12810669 -0.92059002 0.07142857
v -1.05667812 -0.99201859 0.21428571
v -1.12810669 -0.92059002 0.21428571
v -1.05667812 -0.99201859 0.35714286
v -1.12810669 -0.92059002 0.35714286
v -1.05667812 -0.99201859 0.50000000
v -1.12810669 -0.92059002 0.50000000
v -1.05667812 -0.99201859 0.64285714
v -1.12810669 -0.92059002 0.64285714
v -1.05667812 -0.99201859 0.78571429
v -1.12810669 -0.92059002 0.78571429
v -1.05667812 -0.99201859 0.92857143
v -1.12810669 -0.92059002 0.92857143
v -1.05667812 -0.92059002 1.00000000
v -1.12810669 -0.77773288 -0.92857143
v -1.05667812 -0.77773288 -1.00000000
v -1.12810669 -0.77773288 -0.78571429
v -1.12810669 -0.77773288 -0.64285714
v -1.12810669 -0.77773288 -0.50000000
v -1.12810669 -0.77773288 -0.35714286
v -1.12810669 -0.77773288 -0.21428571
v -1.12810669 -0.77773288 -0.07142857
v -1.12810669 -0.77773288 0.07142857
v -1.12810669 -0.77773288 0.21428571
v -1.12810669 -0.77773288 0.35714286
v -1.12810669 -0.77773288 0.50000000
v -1.12810669 -0.77773288 0.64285714
v -1.12810669 -0.77773288 0.78571429
v -1.12810669 -0.77773288 0.92857143
v -1.05667812 -0.77773288 1.00000000
v -1.12810669 -0.63487573 -0.92857143
v -1.05667812 -0.63487573 -1.00000000
v -1.12810669 -0.63487573 -0.78571429
v -1.12810669 -0.63487573 -0.64285714
v -1.12810669 -0.63487573 -0.50000000
v -1.12810669 -0.63487573 -0.35714286
v -1.12810669 -0.63487573 -0.21428571
v -1.12810669 -0.63487573 -0.07142857
v -1.12810669 -0.63487573 0.07142857
v -1.12810669 -0.63487573 0.21428571
v -1.12810669 -0.63487573 0.35714286
v -1.12810669 -0.63487573 0.50000000
v -1.12810669 -0.63487573 0.64285714
v -1.12810669 -0.63487573 0.78571429
v -1.12810669 -0.63487573 0.92857143
v -1.05667812 -0.63487573 1.00000000
v -1.12810669 -0.49201859 -0.92857143
v -1.05667812 -0.49201859 -1.00000000
v -1.12810669 -0.49201859 -0.78571429
v -1.12810669 -0.49201859 -0.64285714
v -1.12810669 -0.49201859 -0.50000000
v -1.12810669 -0.49201859 -0.35714286
v -1.12810669 -0.49201859 -0.21428571
v -1.12810669 -0.49201859 -0.07142857
v -1.12810669 -0.49201859 0.07142857
v -1.12810669 -0.49201859 0.21428571
v -1.12810669 -0.49201859 0.35714286
v -1.12810669 -0.49201859 0.50000000
v -1.12810669 -0.49201859 0.64285714
v -1.12810669 -0.49201859 0.78571429
v -1.12810669 -0.49201859 0.92857143
v -1.05667812 -0.49201859 1.00000000
v -1.12810669 -0.34916145 -0.92857143
v -1.05667812 -0.34916145 -1.00000000
v -1.12810669 -0.34916145 -0.78571429
v -1.12810669 -0.34916145 -0.64285714
v -1.12810669 -0.34916145 -0.50000000
v -1.12810669 -0.34916145 -0.35714286
v -1.12810669 -0.34916145 -0.21428571
v -1.12810669 -0.34916145 -0.07142857
v -1.12810669 -0.34916145 0.07142857
v -1.12810669 -0.34916145 0.21428571
v -1.12810669 -0.34916145 0.35714286
v -1.12810669 -0.34916145 0.50000000
v -1.12810669 -0.34916145 0.64285714
v -1.12810669 -0.34916145 0.78571429
v -1.12810669 -0.34916145 0.92857143
v -1.05667812 -0.34916145 1.00000000
v -1.12810669 -0.20630430 -0.92857143
v -1.05667812 -0.20630430 -1.00000000
v -1.12810669 -0.20630430 -0.78571429
v -1.12810669 -0.20630430 -0.64285714
v -1.12810669 -0.20630430 -0.50000000
v -1.12810669 -0.20630430 -0.35714286
v -1.12810669 -0.20630430 -0.21428571
v -1.12810669 -0.20630430 -0.07142857
v -1.12810669 -0.20630430 0.07142857
v -1.12810669 -0.20630430 0.21428571
v -1.12810669 -0.20630430 0.35714286
v -1.12810669 -0.20630430 0.50000000
v -1.12810669 -0.20630430 0.64285714
v -1.12810669 -0.20630430 0.78571429
v -1.12810669 -0.20630430 0.92857143
v -1.05667812 -0.20630430 1.00000000
v -1.12810669 -0.06344716 -0.92857143
v -1.05667812 -0.06344716 -1.00000000
v -1.12810669 -0.06344716 -0.78571429
v -1.12810669 -0.06344716 -0.64285714
v -1.12810669 -0.06344716 -0.50000000
v -1.12810669 -0.06344716 -0.35714286
v -1.12810669 -0.06344716 -0.21428571
v -1.12810669 -0.06344716 -0.07142857
v -1.12810669 -0.06344716 0.07142857
v -1.12810669 -0.06344716 0.21428571
v -1.12810669 -0.06344716 0.35714286
v -1.12810669 -0.06344716 0.50000000
v -1.12810669 -0.06344716 0.64285714
v -1.12810669 -0.06344716 0.78571429
v -1.12810669 -0.06344716 0.92857143
v -1.05667812 -0.06344716 1.00000000
v -1.12810669 0.07940998 -0.92857143
v -1.05667812 0.07940998 -1.00000000
v -1.12810669 0.07940998 -0.78571429
v -1.12810669 0.07940998 -0.64285714
v -1.12810669 0.07940998 -0.50000000
v -1.12810669 0.07940998 -0.35714286
v -1.12810669 0.07940998 -0.21428571
v -1.12810669 0.07940998 -0.07142857
v -1.12810669 0.07940998 0.07142857
v -1.12810669 0.07940998 0.21428571
v -1.12810669 0.07940998 0.35714286
v -1.12810669 0.07940998 0.50000000
v -1.12810669 0.07940998 0.64285714
v -1.12810669 0.07940998 0.78571429
v -1.12810669 0.07940998 0.92857143
v -1.05667812 0.07940998 1.00000000
v -1.12810669 0.22226712 -0.92857143
v -1.05667812 0.22226712 -1.00000000
v -1.12810669 0.22226712 -0.78571429
v -1.12810669 0.22226712 -0.64285714
v -1.12810669 0.22226712 -0.50000000
v -1.12810669 0.22226712 -0.35714286
v -1.12810669 0.22226712 -0.21428571
v -1.12810669 0.22226712 -0.07142857
v -1.12810669 0.22226712 0.07142857
v -1.12810669 0.22226712 0.21428571
v -1.12810669 0.22226712 0.35714286
v -1.12810669 0.22226712 0.50000000
v -1.12810669 0.22226712 0.64285714
v -1.12810669 0.22226712 0.78571429
v -1.12810669 0.22226712 0.92857143
v -1.05667812 0.22226712 1.00000000
v -1.12810669 0.36512427 -0.92857143
v -1.05667812 0.36512427 -1.00000000
v -1.12810669 0.36512427 -0.78571429
v -1.12810669 0.36512427 -0.64285714
v -1.12810669 0.36512427 -0.50000000
v -1.12810669 0.36512427 -0.35714286
v -1.12810669 0.36512427 -0.21428571
v -1.12810669 0.36512427 -0.07142857
v -1.12810669 0.36512427 0.07142857
v -1.12810669 0.36512427 0.21428571
v -1.12810669 0.36512427 0.35714286
v -1.12810669 0.36512427 0.50000000
v -1.12810669 0.36512427 0.64285714
v -1.12810669 0.36512427 0.78571429
v -1.12810669 0.36512427 0.92857143
v -1.05667812 0.36512427 1.00000000
v -1.12810669 0.50798141 -0.92857143
v -1.05667812 0.50798141 -1.00000000
v -1.12810669 0.50798141 -0.78571429
v -1.12810669 0.50798141 -0.64285714
v -1.12810669 0.50798141 -0.50000000
v -1.12810669 0.50798141 -0.35714286
v -1.12810669 0.50798141 -0.21428571
v -1.12810669 0.50798141 -0.07142857
v -1.12810669 0.50798141 0.07142857
v -1.12810669 0.50798141 0.21428571
v -1.12810669 0.50798141 0.35714286
v -1.12810669 0.50798141 0.50000000
v -1.12810669 0.50798141 0.64285714
v -1.12810669 0.50798141 0.78571429
v -1.12810669 0.50798141 0.92857143
v -1.05667812 0.50798141 1.00000000
v -1.12810669 0.65083855 -0.92857143
v -1.05667812 0.65083855 -1.00000000
v -1.12810669 0.65083855 -0.78571429
v -1.12810669 0.65083855 -0.64285714
v -1.12810669 0.65083855 -0.50000000
v -1.12810669 0.65083855 -0.35714286
v -1.12810669 0.65083855 -0.21428571
v -1.12810669 0.65083855 -0.07142857
v -1.12810669 0.65083855 0.07142857
v -1.12810669 0.65083855 0.21428571
v -1.12810669 0.65083855 0.35714286
v -1.12810669 0.65083855 0.50000000
v -1.12810669 0.65083855 0.64285714
v -1.12810669 0.65083855 0.78571429
v -1.12810669 0.65083855 0.92857143
v -1.05667812 0.65083855 1.00000000
v -1.12810669 0.79369570 -0.92857143
v -1.05667812 0.79369570 -1.00000000
v -1.12810669 0.79369570 -0.78571429
v -1.12810669 0.79369570 -0.64285714
v -1.12810669 0.79369570 -0.50000000
v -1.12810669 0.79369570 -0.35714286
v -1.12810669 0.79369570 -0.07142857
v -1.12810669 0.79369570 0.07142857
v -1.12810669 0.79369570 0.21428571
v -1.12810669 0.79369570 0.35714286
v -1.12810669 0.79369570 0.50000000
v -1.12810669 0.79369570 0.64285714
v -1.12810669 0.79369570 0.78571429
v -1.12810669 0.79369570 0.92857143
v -1.05667812 0.79369570 1.00000000
v -1.12810669 0.93655284 -0.92857143
v -1.05667812 0.93655284 -1.00000000
v -1.12810669 0.93655284 -0.78571429
v -1.12810669 0.93655284 -0.64285714
v -1.12810669 0.93655284 -0.50000000
v -1.12810669 0.93655284 -0.35714286
v -1.12810669 0.93655284 -0.07142857
v -1.12810669 0.93655284 0.07142857
v -1.12810669 0.93655284 0.21428571
v -1.12810669 0.93655284 0.35714286
v -1.12810669 0.93655284 0.50000000
v -1.12810669 0.93655284 0.64285714
v -1.12810669 0.93655284 0.78571429
v -1.12810669 0.93655284 0.92857143
v -1.05667812 0.93655284 1.00000000
v -1.05667812 1.00798141 -0.92857143
v -1.05667812 1.00798141 -0.78571429
v -1.05667812 1.00798141 -0.64285714
v -1.05667812 1.00798141 -0.50000000
v -1.05667812 1.00798141 -0.35714286
v -1.05667812 1.00798141 -0.21428571
v -1.05667812 1.00798141 -0.07142857
v -1.05667812 1.00798141 0.07142857
v -1.05667812 1.00798141 0.21428571
v -1.05667812 1.00798141 0.35714286
v -1.05667812 1.00798141 0.50000000
v -1.05667812 1.00798141 0.64285714
v -1.05667812 1.00798141 0.78571429
v -1.05667812 1.00798141 0.92857143
v -0.98524955 -1.20630430 -0.07142857
v -0.91382097 -1.20630430 -0.14285714
v -0.91382097 -1.27773288 -0.07142857
v -0.91382097 -1.20630430 0.00000000
v -0.98524955 -1.06344716 -0.92857143
v -0.91382097 -1.06344716 -1.00000000
v -0.91382097 -1.13487573 -0.92857143
v -0.91382097 -1.13487573 -0.78571429
v -0.98524955 -1.06344716 -0.78571429
v -0.91382097 -1.13487573 -0.64285714
v -0.98524955 -1.06344716 -0.64285714
v -0.91382097 -1.13487573 -0.50000000
v -0.98524955 -1.06344716 -0.50000000
v -0.91382097 -1.13487573 -0.35714286
v -0.98524955 -1.06344716 -0.35714286
v -0.91382097 -1.13487573 -0.21428571
v -0.98524955 -1.06344716 -0.21428571
v -0.98524955 -1.06344716 -0.07142857
v -0.91382097 -1.13487573 0.07142857
v -0.98524955 -1.06344716 0.07142857
v -0.91382097 -1.13487573 0.21428571
v -0.98524955 -1.06344716 0.21428571
v -0.91382097 -1.13487573 0.35714286
v -0.98524955 -1.06344716 0.35714286
v -0.91382097 -1.13487573 0.50000000
v -0.98524955 -1.06344716 0.50000000
v -0.91382097 -1.13487573 0.64285714
v -0.98524955 -1.06344716 0.64285714
v -0.91382097 -1.13487573 0.78571429
v -0.98524955 -1.06344716 0.78571429
v -0.91382097 -1.13487573 0.92857143
v -0.98524955 -1.06344716 0.92857143
v -0.91382097 -1.06344716 1.00000000
v -0.91382097 -0.92059002 -1.00000000
v -0.91382097 -0.92059002 1.00000000
v -0.91382097 -0.77773288 -1.00000000
v -0.91382097 -0.77773288 1.00000000
v -0.91382097 -0.63487573 -1.00000000
v -0.91382097 -0.63487573 1.00000000
v -0.91382097 -0.49201859 -1.00000000
v -0.91382097 -0.49201859 1.00000000
v -0.91382097 -0.34916145 -1.00000000
v -0.91382097 -0.34916145 1.00000000
v -0.91382097 -0.20630430 -1.00000000
v -0.91382097 -0.20630430 1.00000000
v -0.91382097 -0.06344716 -1.00000000
v -0.91382097 -0.06344716 1.00000000
v -0.91382097 0.07940998 -1.00000000
v -0.91382097 0.07940998 1.00000000
v -0.91382097 0.22226712 -1.00000000
v -0.91382097 0.22226712 1.00000000
v -0.91382097 0.36512427 -1.00000000
v -0.91382097 0.36512427 1.00000000
v -0.91382097 0.50798141 -1.00000000
v -0.91382097 0.50798141 1.00000000
v -0.91382097 0.65083855 -1.00000000
v -0.91382097 0.65083855 1.00000000
v -0.91382097 0.79369570 -1.00000000
v -0.91382097 0.79369570 1.00000000
v -0.91382097 0.93655284 -1.00000000
v -0.91382097 0.93655284 1.00000000
v -0.98524955 1.07940998 -0.92857143
v -0.91382097 1.07940998 -1.00000000
v -0.98524955 1.07940998 -0.78571429
v -0.98524955 1.07940998 -0.64285714
v -0.98524955 1.07940998 -0.50000000
v -0.98524955 1.07940998 -0.35714286
v -0.98524955 1.07940998 -0.21428571
v -0.98524955 1.07940998 -0.07142857
v -0.98524955 1.07940998 0.07142857
v -0.98524955 1.07940998 0.21428571
v -0.98524955 1.07940998 0.35714286
v -0.98524955 1.07940998 0.50000000
v -0.98524955 1.07940998 0.64285714
v -0.98524955 1.07940998 0.78571429
v -0.98524955 1.07940998 0.92857143
v -0.91382097 1.07940998 1.00000000
v -0.91382097 1.15083855 -0.92857143
v -0.91382097 1.15083855 -0.78571429
v -0.91382097 1.15083855 -0.64285714
v -0.91382097 1.15083855 -0.50000000
v -0.91382097 1.15083855 -0.35714286
v -0.91382097 1.15083855 -0.21428571
v -0.91382097 1.15083855 -0.07142857
v -0.91382097 1.15083855 0.07142857
v -0.91382097 1.15083855 0.21428571
v -0.91382097 1.15083855 0.35714286
v -0.91382097 1.15083855 0.50000000
v -0.91382097 1.15083855 0.64285714
v -0.91382097 1.15083855 0.78571429
v -0.91382097 1.15083855 0.92857143
v -0.84239240 -1.20630430 -0.07142857
v -0.84239240 -1.20630430 0.21428571
v -0.77096383 -1.20630430 0.14285714
v -0.77096383 -1.27773288 0.21428571
v -0.77096383 -1.20630430 0.28571429
v -0.77096383 -1.06344716 -1.00000000
v -0.77096383 -1.13487573 -0.92857143
v -0.77096383 -1.13487573 -0.78571429
v -0.77096383 -1.13487573 -0.64285714
v -0.77096383 -1.13487573 -0.50000000
v -0.77096383 -1.13487573 -0.35714286
v -0.77096383 -1.13487573 -0.21428571
v -0.77096383 -1.13487573 -0.07142857
v -0.77096383 -1.13487573 0.07142857
v -0.77096383 -1.13487573 0.35714286
v -0.77096383 -1.13487573 0.50000000
v -0.77096383 -1.13487573 0.64285714
v -0.77096383 -1.13487573 0.78571429
v -0.77096383 -1.13487573 0.92857143
v -0.77096383 -1.06344716 1.00000000
v -0.77096383 -0.92059002 -1.00000000
v -0.77096383 -0.92059002 1.00000000
v -0.77096383 -0.77773288 -1.00000000
v -0.77096383 -0.77773288 1.00000000
v -0.77096383 -0.63487573 -1.00000000
v -0.77096383 -0.63487573 1.00000000
v -0.77096383 -0.49201859 -1.00000000
v -0.77096383 -0.49201859 1.00000000
v -0.77096383 -0.34916145 -1.00000000
v -0.77096383 -0.34916145 1.00000000
v -0.77096383 -0.20630430 -1.00000000
v -0.77096383 -0.20630430 1.00000000
v -0.77096383 -0.06344716 -1.00000000
v -0.77096383 -0.06344716 1.00000000
v -0.77096383 0.07940998 -1.00000000
v -0.77096383 0.07940998 1.00000000
v -0.77096383 0.22226712 -1.00000000
v -0.77096383 0.22226712 1.00000000
v -0.77096383 0.36512427 -1.00000000
v -0.77096383 0.36512427 1.00000000
v -0.77096383 0.50798141 -1.00000000
v -0.77096383 0.50798141 1.00000000
v -0.77096383 0.65083855 -1.00000000
v -0.77096383 0.65083855 1.00000000
v -0.77096383 0.79369570 -1.00000000
v -0.77096383 0.79369570 1.00000000
v -0.77096383 0.93655284 -1.00000000
v -0.77096383 0.93655284 1.00000000
v -0.77096383 1.07940998 -1.00000000
v -0.77096383 1.07940998 1.00000000
v -0.77096383 1.15083855 -0.92857143
v -0.77096383 1.15083855 -0.78571429
v -0.77096383 1.15083855 -0.64285714
v -0.77096383 1.15083855 -0.50000000
v -0.77096383 1.15083855 -0.35714286
v -0.77096383 1.15083855 -0.21428571
v -0.77096383 1.15083855 -0.07142857
v -0.77096383 1.15083855 0.07142857
v -0.77096383 1.15083855 0.21428571
v -0.77096383 1.15083855 0.35714286
v -0.77096383 1.15083855 0.50000000
v -0.77096383 1.15083855 0.64285714
v -0.77096383 1.15083855 0.78571429
v -0.77096383 1.15083855 0.92857143
v -0.69953526 -1.20630430 0.21428571
v -0.62810669 -1.06344716 -1.00000000
v -0.62810669 -1.13487573 -0.92857143
v -0.62810669 -1.13487573 -0.78571429
v -0.62810669 -1.13487573 -0.64285714
v -0.62810669 -1.13487573 -0.50000000
v -0.62810669 -1.13487573 -0.35714286
v -0.62810669 -1.13487573 -0.21428571
v -0.62810669 -1.13487573 -0.07142857
v -0.62810669 -1.13487573 0.07142857
v -0.62810669 -1.13487573 0.21428571
v -0.62810669 -1.13487573 0.35714286
v -0.62810669 -1.13487573 0.50000000
v -0.62810669 -1.13487573 0.64285714
v -0.62810669 -1.13487573 0.78571429
v -0.62810669 -1.13487573 0.92857143
v -0.62810669 -1.06344716 1.00000000
v -0.62810669 -0.92059002 -1.00000000
v -0.62810669 -0.92059002 1.00000000
v -0.62810669 -0.77773288 -1.00000000
v -0.62810669 -0.77773288 1.00000000
v -0.62810669 -0.63487573 -1.00000000
v -0.62810669 -0.63487573 1.00000000
v -0.62810669 -0.49201859 -1.00000000
v -0.62810669 -0.49201859 1.00000000
v -0.62810669 -0.34916145 -1.00000000
v -0.62810669 -0.34916145 1.00000000
v -0.62810669 -0.20630430 -1.00000000
v -0.62810669 -0.20630430 1.00000000
v -0.62810669 -0.06344716 -1.00000000
v -0.62810669 -0.06344716 1.00000000
v -0.62810669 0.07940998 -1.00000000
v -0.62810669 0.07940998 1.00000000
v -0.62810669 0.22226712 -1.00000000
v -0.62810669 0.22226712 1.00000000
v -0.62810669 0.36512427 -1.00000000
v -0.62810669 0.36512427 1.00000000
v -0.62810669 0.50798141 -1.00000000
v -0.62810669 0.50798141 1.00000000
v -0.62810669 0.65083855 -1.00000000
v -0.62810669 0.65083855 1.00000000
v -0.62810669 0.79369570 -1.00000000
v -0.62810669 0.79369570 1.00000000
v -0.62810669 0.93655284 -1.00000000
v -0.62810669 0.93655284 1.00000000
v -0.62810669 1.07940998 -1.00000000
v -0.62810669 1.07940998 1.00000000
v -0.62810669 1.15083855 -0.92857143
v -0.62810669 1.15083855 -0.78571429
v -0.62810669 1.15083855 -0.64285714
v -0.62810669 1.15083855 -0.50000000
v -0.62810669 1.15083855 -0.35714286
v -0.62810669 1.15083855 -0.21428571
v -0.62810669 1.15083855 -0.07142857
v -0.62810669 1.15083855 0.07142857
v -0.62810669 1.15083855 0.21428571
v -0.62810669 1.15083855 0.35714286
v -0.62810669 1.15083855 0.50000000
v -0.62810669 1.15083855 0.64285714
v -0.62810669 1.15083855 0.78571429
v -0.62810669 1.15083855 0.92857143
v -0.48524955 -1.06344716 -1.00000000
v -0.48524955 -1.13487573 -0.92857143
v -0.48524955 -1.13487573 -0.78571429
v -0.48524955 -1.13487573 -0.64285714
v -0.48524955 -1.13487573 -0.50000000
v -0.48524955 -1.13487573 -0.35714286
v -0.48524955 -1.13487573 -0.21428571
v -0.48524955 -1.13487573 -0.07142857
v -0.48524955 -1.13487573 0.07142857
v -0.48524955 -1.13487573 0.21428571
v -0.48524955 -1.13487573 0.35714286
v -0.48524955 -1.13487573 0.50000000
v -0.48524955 -1.13487573 0.64285714
v -0.48524955 -1.13487573 0.78571429
v -0.48524955 -1.13487573 0.92857143
v -0.48524955 -1.06344716 1.00000000
v -0.48524955 -0.92059002 -1.00000000
v -0.48524955 -0.92059002 1.00000000
v -0.48524955 -0.77773288 -1.00000000
v -0.48524955 -0.77773288 1.00000000
v -0.48524955 -0.63487573 -1.00000000
v -0.48524955 -0.63487573 1.00000000
v -0.48524955 -0.49201859 -1.00000000
v -0.48524955 -0.49201859 1.00000000
v -0.48524955 -0.34916145 -1.00000000
v -0.48524955 -0.34916145 1.00000000
v -0.48524955 -0.20630430 -1.00000000
v -0.48524955 -0.20630430 1.00000000
v -0.48524955 -0.06344716 -1.00000000
v -0.48524955 -0.06344716 1.00000000
v -0.48524955 0.07940998 -1.00000000
v -0.48524955 0.07940998 1.00000000
v -0.48524955 0.22226712 -1.00000000
v -0.48524955 0.22226712 1.00000000
v -0.48524955 0.36512427 -1.00000000
v -0.48524955 0.36512427 1.00000000
v -0.48524955 0.50798141 -1.00000000
v -0.48524955 0.50798141 1.00000000
v -0.48524955 0.65083855 -1.00000000
v -0.48524955 0.65083855 1.00000000
v -0.48524955 0.79369570 -1.00000000
v -0.48524955 0.79369570 1.00000000
v -0.48524955 0.93655284 -1.00000000
v -0.48524955 0.93655284 1.00000000
v -0.48524955 1.07940998 -1.00000000
v -0.48524955 1.07940998 1.00000000
v -0.48524955 1.15083855 -0.92857143
v -0.48524955 1.15083855 -0.78571429
v -0.48524955 1.15083855 -0.64285714
v -0.48524955 1.15083855 -0.50000000
v -0.48524955 1.15083855 -0.35714286
v -0.48524955 1.15083855 -0.21428571
v -0.48524955 1.15083855 -0.07142857
v -0.48524955 1.15083855 0.07142857
v -0.48524955 1.15083855 0.21428571
v -0.48524955 1.15083855 0.35714286
v -0.48524955 1.15083855 0.50000000
v -0.48524955 1.15083855 0.64285714
v -0.48524955 1.15083855 0.78571429
v -0.48524955 1.15083855 0.92857143
v -0.34239240 -1.06344716 -1.00000000
v -0.34239240 -1.13487573 -0.92857143
v -0.34239240 -1.13487573 -0.78571429
v -0.34239240 -1.13487573 -0.64285714
v -0.34239240 -1.13487573 -0.50000000
v -0.34239240 -1.13487573 -0.35714286
v -0.34239240 -1.13487573 -0.21428571
v -0.34239240 -1.13487573 -0.07142857
v -0.34239240 -1.13487573 0.07142857
v -0.34239240 -1.13487573 0.21428571
v -0.34239240 -1.13487573 0.35714286
v -0.34239240 -1.13487573 0.50000000
v -0.34239240 -1.13487573 0.64285714
v -0.34239240 -1.13487573 0.78571429
v -0.34239240 -1.13487573 0.92857143
v -0.34239240 -1.06344716 1.00000000
v -0.34239240 -0.92059002 -1.00000000
v -0.34239240 -0.92059002 1.00000000
v -0.34239240 -0.77773288 -1.00000000
v -0.34239240 -0.77773288 1.00000000
v -0.34239240 -0.63487573 -1.00000000
v -0.34239240 -0.63487573 1.00000000
v -0.34239240 -0.49201859 -1.00000000
v -0.34239240 -0.49201859 1.00000000
v -0.34239240 -0.34916145 -1.00000000
v -0.34239240 -0.34916145 1.00000000
v -0.34239240 -0.20630430 -1.00000000
v -0.34239240 -0.20630430 1.00000000
v -0.34239240 -0.06344716 -1.00000000
v -0.34239240 -0.06344716 1.00000000
v -0.34239240 0.07940998 -1.00000000
v -0.34239240 0.07940998 1.00000000
v -0.34239240 0.22226712 -1.00000000
v -0.34239240 0.22226712 1.00000000
v -0.34239240 0.36512427 -1.00000000
v -0.34239240 0.36512427 1.00000000
v -0.34239240 0.50798141 -1.00000000
v -0.34239240 0.50798141 1.00000000
v -0.34239240 0.65083855 -1.00000000
v -0.34239240 0.65083855 1.00000000
v -0.34239240 0.79369570 -1.00000000
v -0.34239240 0.79369570 1.00000000
v -0.34239240 0.93655284 -1.00000000
v -0.34239240 0.93655284 1.00000000
v -0.34239240 1.07940998 -1.00000000
v -0.34239240 1.07940998 1.00000000
v -0.34239240 1.15083855 -0.92857143
v -0.34239240 1.15083855 -0.78571429
v -0.34239240 1.15083855 -0.64285714
v -0.34239240 1.15083855 -0.50000000
v -0.34239240 1.15083855 -0.35714286
v -0.34239240 1.15083855 -0.21428571
v -0.34239240 1.15083855 -0.07142857
v -0.34239240 1.15083855 0.07142857
v -0.34239240 1.15083855 0.21428571
v -0.34239240 1.15083855 0.35714286
v -0.34239240 1.15083855 0.50000000
v -0.34239240 1.15083855 0.64285714
v -0.34239240 1.15083855 0.78571429
v -0.34239240 1.15083855 0.92857143
v -0.19953526 -1.06344716 -1.00000000
v -0.19953526 -1.13487573 -0.92857143
v -0.19953526 -1.13487573 -0.78571429
v -0.19953526 -1.13487573 -0.64285714
v -0.19953526 -1.13487573 -0.50000000
v -0.19953526 -1.13487573 -0.35714286
v -0.19953526 -1.13487573 -0.21428571
v -0.19953526 -1.13487573 -0.07142857
v -0.19953526 -1.13487573 0.07142857
v -0.19953526 -1.13487573 0.21428571
v -0.19953526 -1.13487573 0.35714286
v -0.19953526 -1.13487573 0.50000000
v -0.19953526 -1.13487573 0.64285714
v -0.19953526 -1.13487573 0.78571429
v -0.19953526 -1.13487573 0.92857143
v -0.19953526 -1.06344716 1.00000000
v -0.19953526 -0.92059002 -1.00000000
v -0.19953526 -0.92059002 1.00000000
v -0.19953526 -0.77773288 -1.00000000
v -0.19953526 -0.77773288 1.00000000
v -0.19953526 -0.63487573 -1.00000000
v -0.19953526 -0.63487573 1.00000000
v -0.19953526 -0.49201859 -1.00000000
v -0.19953526 -0.49201859 1.00000000
v -0.19953526 -0.34916145 -1.00000000
v -0.19953526 -0.34916145 1.00000000
v -0.19953526 -0.20630430 -1.00000000
v -0.19953526 -0.20630430 1.00000000
v -0.19953526 -0.06344716 -1.00000000
v -0.19953526 -0.06344716 1.00000000
v -0.19953526 0.07940998 -1.00000000
v -0.19953526 0.07940998 1.00000000
v -0.19953526 0.22226712 -1.00000000
v -0.19953526 0.22226712 1.00000000
v -0.19953526 0.36512427 -1.00000000
v -0.19953526 0.36512427 1.00000000
v -0.19953526 0.50798141 -1.00000000
v -0.19953526 0.50798141 1.00000000
v -0.19953526 0.65083855 -1.00000000
v -0.19953526 0.65083855 1.00000000
v -0.19953526 0.79369570 -1.00000000
v -0.19953526 0.79369570 1.00000000
v -0.19953526 0.93655284 -1.00000000
v -0.19953526 0.93655284 1.00000000
v -0.19953526 1.07940998 -1.00000000
v -0.19953526 1.07940998 1.00000000
v -0.19953526 1.15083855 -0.92857143
v -0.19953526 1.15083855 -0.78571429
v -0.19953526 1.15083855 -0.64285714
v -0.19953526 1.15083855 -0.50000000
v -0.19953526 1.15083855 -0.35714286
v -0.19953526 1.15083855 -0.21428571
v -0.19953526 1.15083855 -0.07142857
v -0.19953526 1.15083855 0.07142857
v -0.19953526 1.15083855 0.21428571
v -0.19953526 1.15083855 0.35714286
v -0.19953526 1.15083855 0.50000000
v -0.19953526 1.15083855 0.64285714
v -0.19953526 1.15083855 0.78571429
v -0.19953526 1.15083855 0.92857143
v -0.05667812 -1.06344716 -1.00000000
v -0.05667812 -1.13487573 -0.92857143
v -0.05667812 -1.13487573 -0.78571429
v -0.05667812 -1.13487573 -0.64285714
v -0.05667812 -1.13487573 -0.50000000
v -0.05667812 -1.13487573 -0.35714286
v -0.05667812 -1.13487573 -0.21428571
v -0.05667812 -1.13487573 -0.07142857
v -0.05667812 -1.13487573 0.07142857
v -0.05667812 -1.13487573 0.21428571
v -0.05667812 -1.13487573 0.35714286
v -0.05667812 -1.13487573 0.50000000
v -0.05667812 -1.13487573 0.64285714
v -0.05667812 -1.13487573 0.78571429
v -0.05667812 -1.13487573 0.92857143
v -0.05667812 -1.06344716 1.00000000
v -0.05667812 -0.92059002 -1.00000000
v -0.05667812 -0.92059002 1.00000000
v -0.05667812 -0.77773288 -1.00000000
v -0.05667812 -0.77773288 1.00000000
v -0.05667812 -0.63487573 -1.00000000
v -0.05667812 -0.63487573 1.00000000
v -0.05667812 -0.49201859 -1.00000000
v -0.05667812 -0.49201859 1.00000000
v -0.05667812 -0.34916145 -1.00000000
v -0.05667812 -0.34916145 1.00000000
v -0.05667812 -0.20630430 -1.00000000
v -0.05667812 -0.20630430 1.00000000
v -0.05667812 -0.06344716 -1.00000000
v -0.05667812 -0.06344716 1.00000000
v -0.05667812 0.07940998 -1.00000000
v -0.05667812 0.07940998 1.00000000
v -0.05667812 0.22226712 -1.00000000
v -0.05667812 0.22226712 1.00000000
v -0.05667812 0.36512427 -1.00000000
v -0.05667812 0.36512427 1.00000000
v -0.05667812 0.50798141 -1.00000000
v -0.05667812 0.50798141 1.00000000
v -0.05667812 0.65083855 -1.00000000
v -0.05667812 0.65083855 1.00000000
v -0.05667812 0.79369570 -1.00000000
v -0.05667812 0.79369570 1.00000000
v -0.05667812 0.93655284 -1.00000000
v -0.05667812 0.93655284 1.00000000
v -0.05667812 1.07940998 -1.00000000
v -0.05667812 1.07940998 1.00000000
v -0.05667812 1.15083855 -0.92857143
v -0.05667812 1.15083855 -0.78571429
v -0.05667812 1.15083855 -0.64285714
v -0.05667812 1.15083855 -0.50000000
v -0.05667812 1.15083855 -0.35714286
v -0.05667812 1.15083855 -0.21428571
v -0.05667812 1.15083855 -0.07142857
v -0.05667812 1.15083855 0.07142857
v -0.05667812 1.15083855 0.21428571
v -0.05667812 1.15083855 0.35714286
v -0.05667812 1.15083855 0.50000000
v -0.05667812 1.15083855 0.64285714
v -0.05667812 1.15083855 0.78571429
v -0.05667812 1.15083855 0.92857143
v 0.08617903 -1.06344716 -1.00000000
v 0.08617903 -1.13487573 -0.92857143
v 0.08617903 -1.13487573 -0.78571429
v 0.08617903 -1.13487573 -0.64285714
v 0.08617903 -1.13487573 -0.50000000
v 0.08617903 -1.13487573 -0.35714286
v 0.08617903 -1.13487573 -0.21428571
v 0.08617903 -1.13487573 -0.07142857
v 0.08617903 -1.13487573 0.07142857
v 0.08617903 -1.13487573 0.21428571
v 0.08617903 -1.13487573 0.35714286
v 0.08617903 -1.13487573 0.50000000
v 0.08617903 -1.13487573 0.64285714
v 0.08617903 -1.13487573 0.78571429
v 0.08617903 -1.13487573 0.92857143
v 0.08617903 -1.06344716 1.00000000
v 0.08617903 -0.92059002 -1.00000000
v 0.08617903 -0.92059002 1.00000000
v 0.08617903 -0.77773288 -1.00000000
v 0.08617903 -0.77773288 1.00000000
v 0.08617903 -0.63487573 -1.00000000
v 0.08617903 -0.63487573 1.00000000
v 0.08617903 -0.49201859 -1.00000000
v 0.08617903 -0.49201859 1.00000000
v 0.08617903 -0.34916145 -1.00000000
v 0.08617903 -0.34916145 1.00000000
v 0.08617903 -0.20630430 -1.00000000
v 0.08617903 -0.20630430 1.00000000
v 0.08617903 -0.06344716 -1.00000000
v 0.08617903 -0.06344716 1.00000000
v 0.08617903 0.07940998 -1.00000000
v 0.08617903 0.07940998 1.00000000
v 0.08617903 0.22226712 -1.00000000
v 0.08617903 0.22226712 1.00000000
v 0.08617903 0.36512427 -1.00000000
v 0.08617903 0.36512427 1.00000000
v 0.08617903 0.50798141 -1.00000000
v 0.08617903 0.50798141 1.00000000
v 0.08617903 0.65083855 -1.00000000
v 0.08617903 0.65083855 1.00000000
v 0.08617903 0.79369570 -1.00000000
v 0.08617903 0.79369570 1.00000000
v 0.08617903 0.93655284 -1.00000000
v 0.08617903 0.93655284 1.00000000
v 0.08617903 1.07940998 -1.00000000
v 0.08617903 1.07940998 1.00000000
v 0.08617903 1.15083855 -0.92857143
v 0.08617903 1.15083855 -0.78571429
v 0.08617903 1.15083855 -0.64285714
v 0.08617903 1.15083855 -0.50000000
v 0.08617903 1.15083855 -0.35714286
v 0.08617903 1.15083855 -0.21428571
v 0.08617903 1.15083855 -0.07142857
v 0.08617903 1.15083855 0.07142857
v 0.08617903 1.15083855 0.21428571
v 0.08617903 1.15083855 0.35714286
v 0.08617903 1.15083855 0.50000000
v 0.08617903 1.15083855 0.64285714
v 0.08617903 1.15083855 0.78571429
v 0.08617903 1.15083855 0.92857143
v 0.22903617 -1.06344716 -1.00000000
v 0.22903617 -1.13487573 -0.92857143
v 0.22903617 -1.13487573 -0.78571429
v 0.22903617 -1.13487573 -0.64285714
v 0.22903617 -1.13487573 -0.50000000
v 0.22903617 -1.13487573 -0.35714286
v 0.22903617 -1.13487573 -0.21428571
v 0.22903617 -1.13487573 -0.07142857
v 0.22903617 -1.13487573 0.07142857
v 0.22903617 -1.13487573 0.21428571
v 0.22903617 -1.13487573 0.35714286
v 0.22903617 -1.13487573 0.50000000
v 0.22903617 -1.13487573 0.64285714
v 0.22903617 -1.13487573 0.78571429
v 0.22903617 -1.13487573 0.92857143
v 0.22903617 -1.06344716 1.00000000
v 0.22903617 -0.92059002 -1.00000000
v 0.22903617 -0.92059002 1.00000000
v 0.22903617 -0.77773288 -1.00000000
v 0.22903617 -0.77773288 1.00000000
v 0.22903617 -0.63487573 -1.00000000
v 0.22903617 -0.63487573 1.00000000
v 0.22903617 -0.49201859 -1.00000000
v 0.22903617 -0.49201859 1.00000000
v 0.22903617 -0.34916145 -1.00000000
v 0.22903617 -0.34916145 1.00000000
v 0.22903617 -0.20630430 -1.00000000
v 0.22903617 -0.20630430 1.00000000
v 0.22903617 -0.06344716 -1.00000000
v 0.22903617 -0.06344716 1.00000000
v 0.22903617 0.07940998 -1.00000000
v 0.22903617 0.07940998 1.00000000
v 0.22903617 0.22226712 -1.00000000
v 0.22903617 0.22226712 1.00000000
v 0.22903617 0.36512427 -1.00000000
v 0.22903617 0.36512427 1.00000000
v 0.22903617 0.50798141 -1.00000000
v 0.22903617 0.50798141 1.00000000
v 0.22903617 0.65083855 -1.00000000
v 0.22903617 0.65083855 1.00000000
v 0.22903617 0.79369570 -1.00000000
v 0.22903617 0.79369570 1.00000000
v 0.22903617 0.93655284 -1.00000000
v 0.22903617 0.93655284 1.00000000
v 0.22903617 1.07940998 -1.00000000
v 0.15760760 1.07940998 0.92857143
v 0.22903617 1.00798141 0.92857143
v 0.22903617 1.07940998 0.85714286
v 0.22903617 1.15083855 -0.92857143
v 0.22903617 1.15083855 -0.78571429
v 0.22903617 1.15083855 -0.64285714
v 0.22903617 1.15083855 -0.50000000
v 0.22903617 1.15083855 -0.35714286
v 0.22903617 1.15083855 -0.21428571
v 0.22903617 1.15083855 -0.07142857
v 0.22903617 1.15083855 0.07142857
v 0.22903617 1.15083855 0.21428571
v 0.22903617 1.15083855 0.35714286
v 0.22903617 1.15083855 0.50000000
v 0.22903617 1.15083855 0.64285714
v 0.22903617 1.15083855 0.78571429
v 0.37189331 -1.06344716 -1.00000000
v 0.37189331 -1.13487573 -0.92857143
v 0.37189331 -1.13487573 -0.78571429
v 0.37189331 -1.13487573 -0.64285714
v 0.37189331 -1.13487573 -0.50000000
v 0.37189331 -1.13487573 -0.35714286
v 0.37189331 -1.13487573 -0.21428571
v 0.37189331 -1.13487573 -0.07142857
v 0.37189331 -1.13487573 0.07142857
v 0.37189331 -1.13487573 0.21428571
v 0.37189331 -1.13487573 0.35714286
v 0.37189331 -1.13487573 0.50000000
v 0.37189331 -1.13487573 0.64285714
v 0.37189331 -1.13487573 0.78571429
v 0.37189331 -1.13487573 0.92857143
v 0.37189331 -1.06344716 1.00000000
v 0.37189331 -0.92059002 -1.00000000
v 0.37189331 -0.92059002 1.00000000
v 0.37189331 -0.77773288 -1.00000000
v 0.37189331 -0.77773288 1.00000000
v 0.37189331 -0.63487573 -1.00000000
v 0.37189331 -0.63487573 1.00000000
v 0.37189331 -0.49201859 -1.00000000
v 0.37189331 -0.49201859 1.00000000
v 0.37189331 -0.34916145 -1.00000000
v 0.37189331 -0.34916145 1.00000000
v 0.37189331 -0.20630430 -1.00000000
v 0.37189331 -0.20630430 1.00000000
v 0.37189331 -0.06344716 -1.00000000
v 0.37189331 -0.06344716 1.00000000
v 0.37189331 0.07940998 -1.00000000
v 0.37189331 0.07940998 1.00000000
v 0.37189331 0.22226712 -1.00000000
v 0.37189331 0.22226712 1.00000000
v 0.37189331 0.36512427 -1.00000000
v 0.37189331 0.36512427 1.00000000
v 0.37189331 0.50798141 -1.00000000
v 0.37189331 0.50798141 1.00000000
v 0.37189331 0.65083855 -1.00000000
v 0.37189331 0.65083855 1.00000000
v 0.37189331 0.79369570 -1.00000000
v 0.37189331 0.79369570 1.00000000
v 0.37189331 0.93655284 -1.00000000
v 0.37189331 0.93655284 1.00000000
v 0.37189331 1.07940998 -1.00000000
v 0.30046474 1.07940998 0.78571429
v 0.37189331 1.00798141 0.78571429
v 0.37189331 1.07940998 0.71428571
v 0.37189331 1.00798141 0.92857143
v 0.37189331 1.15083855 -0.92857143
v 0.37189331 1.15083855 -0.78571429
v 0.37189331 1.15083855 -0.64285714
v 0.37189331 1.15083855 -0.50000000
v 0.37189331 1.15083855 -0.35714286
v 0.37189331 1.15083855 -0.21428571
v 0.37189331 1.15083855 -0.07142857
v 0.37189331 1.15083855 0.07142857
v 0.37189331 1.15083855 0.21428571
v 0.37189331 1.15083855 0.35714286
v 0.37189331 1.15083855 0.50000000
v 0.37189331 1.15083855 0.64285714
v 0.51475045 -1.06344716 -1.00000000
v 0.51475045 -1.13487573 -0.92857143
v 0.51475045 -1.13487573 -0.78571429
v 0.51475045 -1.13487573 -0.64285714
v 0.51475045 -1.13487573 -0.50000000
v 0.51475045 -1.13487573 -0.35714286
v 0.51475045 -1.13487573 -0.21428571
v 0.51475045 -1.13487573 -0.07142857
v 0.51475045 -1.13487573 0.07142857
v 0.51475045 -1.13487573 0.21428571
v 0.51475045 -1.13487573 0.35714286
v 0.51475045 -1.13487573 0.50000000
v 0.51475045 -1.13487573 0.64285714
v 0.51475045 -1.13487573 0.78571429
v 0.51475045 -1.13487573 0.92857143
v 0.51475045 -1.06344716 1.00000000
v 0.51475045 -0.92059002 -1.00000000
v 0.51475045 -0.92059002 1.00000000
v 0.51475045 -0.77773288 -1.00000000
v 0.51475045 -0.77773288 1.00000000
v 0.51475045 -0.63487573 -1.00000000
v 0.51475045 -0.63487573 1.00000000
v 0.51475045 -0.49201859 -1.00000000
v 0.51475045 -0.49201859 1.00000000
v 0.51475045 -0.34916145 -1.00000000
v 0.51475045 -0.34916145 1.00000000
v 0.51475045 -0.20630430 -1.00000000
v 0.51475045 -0.20630430 1.00000000
v 0.51475045 -0.06344716 -1.00000000
v 0.51475045 -0.06344716 1.00000000
v 0.51475045 0.07940998 -1.00000000
v 0.51475045 0.07940998 1.00000000
v 0.51475045 0.22226712 -1.00000000
v 0.51475045 0.22226712 1.00000000
v 0.51475045 0.36512427 -1.00000000
v 0.51475045 0.36512427 1.00000000
v 0.51475045 0.50798141 -1.00000000
v 0.51475045 0.50798141 1.00000000
v 0.51475045 0.65083855 -1.00000000
v 0.51475045 0.65083855 1.00000000
v 0.51475045 0.79369570 -1.00000000
v 0.51475045 0.79369570 1.00000000
v 0.51475045 0.93655284 -1.00000000
v 0.44332188 0.93655284 0.92857143
v 0.51475045 0.86512427 0.92857143
v 0.51475045 0.93655284 0.85714286
v 0.51475045 1.07940998 -1.00000000
v 0.51475045 1.00798141 0.78571429
v 0.51475045 1.07940998 0.71428571
v 0.51475045 1.15083855 -0.92857143
v 0.51475045 1.15083855 -0.78571429
v 0.51475045 1.15083855 -0.64285714
v 0.51475045 1.15083855 -0.50000000
v 0.51475045 1.15083855 -0.35714286
v 0.51475045 1.15083855 -0.21428571
v 0.51475045 1.15083855 -0.07142857
v 0.51475045 1.15083855 0.07142857
v 0.51475045 1.15083855 0.21428571
v 0.51475045 1.15083855 0.35714286
v 0.51475045 1.15083855 0.50000000
v 0.51475045 1.15083855 0.64285714
v 0.65760760 -1.06344716 -1.00000000
v 0.65760760 -1.13487573 -0.92857143
v 0.65760760 -1.13487573 -0.78571429
v 0.65760760 -1.13487573 -0.64285714
v 0.65760760 -1.13487573 -0.50000000
v 0.65760760 -1.13487573 -0.35714286
v 0.65760760 -1.13487573 -0.21428571
v 0.65760760 -1.13487573 -0.07142857
v 0.65760760 -1.13487573 0.07142857
v 0.65760760 -1.13487573 0.21428571
v 0.65760760 -1.13487573 0.35714286
v 0.65760760 -1.13487573 0.50000000
v 0.65760760 -1.13487573 0.64285714
v 0.65760760 -1.13487573 0.78571429
v 0.65760760 -1.13487573 0.92857143
v 0.65760760 -1.06344716 1.00000000
v 0.65760760 -0.92059002 -1.00000000
v 0.65760760 -0.92059002 1.00000000
v 0.65760760 -0.77773288 -1.00000000
v 0.65760760 -0.77773288 1.00000000
v 0.65760760 -0.63487573 -1.00000000
v 0.65760760 -0.63487573 1.00000000
v 0.65760760 -0.49201859 -1.00000000
v 0.65760760 -0.49201859 1.00000000
v 0.65760760 -0.34916145 -1.00000000
v 0.65760760 -0.34916145 1.00000000
v 0.65760760 -0.20630430 -1.00000000
v 0.65760760 -0.20630430 1.00000000
v 0.65760760 -0.06344716 -1.00000000
v 0.65760760 -0.06344716 1.00000000
v 0.65760760 0.07940998 -1.00000000
v 0.65760760 0.07940998 1.00000000
v 0.65760760 0.22226712 -1.00000000
v 0.65760760 0.22226712 1.00000000
v 0.65760760 0.36512427 -1.00000000
v 0.65760760 0.36512427 1.00000000
v 0.65760760 0.50798141 -1.00000000
v 0.65760760 0.50798141 1.00000000
v 0.65760760 0.65083855 -1.00000000
v 0.65760760 0.65083855 1.00000000
v 0.65760760 0.79369570 -1.00000000
v 0.58617903 0.79369570 0.92857143
v 0.65760760 0.72226712 0.92857143
v 0.65760760 0.79369570 0.85714286
v 0.65760760 0.93655284 -1.00000000
v 0.58617903 0.93655284 0.78571429
v 0.65760760 0.86512427 0.78571429
v 0.65760760 0.93655284 0.71428571
v 0.65760760 1.07940998 -1.00000000
v 0.58617903 1.07940998 0.64285714
v 0.65760760 1.00798141 0.64285714
v 0.65760760 1.07940998 0.57142857
v 0.65760760 1.15083855 -0.92857143
v 0.65760760 1.15083855 -0.78571429
v 0.65760760 1.15083855 -0.64285714
v 0.65760760 1.15083855 -0.50000000
v 0.65760760 1.15083855 -0.35714286
v 0.65760760 1.15083855 -0.21428571
v 0.65760760 1.15083855 -0.07142857
v 0.65760760 1.15083855 0.07142857
v 0.65760760 1.15083855 0.21428571
v 0.65760760 1.15083855 0.35714286
v 0.65760760 1.15083855 0.50000000
v 0.80046474 -1.06344716 -1.00000000
v 0.80046474 -1.13487573 -0.92857143
v 0.80046474 -1.13487573 -0.78571429
v 0.80046474 -1.13487573 -0.64285714
v 0.80046474 -1.13487573 -0.50000000
v 0.80046474 -1.13487573 -0.35714286
v 0.80046474 -1.13487573 -0.21428571
v 0.80046474 -1.13487573 -0.07142857
v 0.80046474 -1.13487573 0.07142857
v 0.80046474 -1.13487573 0.21428571
v 0.80046474 -1.13487573 0.35714286
v 0.80046474 -1.13487573 0.50000000
v 0.80046474 -1.13487573 0.64285714
v 0.80046474 -1.13487573 0.78571429
v 0.80046474 -1.13487573 0.92857143
v 0.80046474 -1.06344716 1.00000000
v 0.80046474 -0.92059002 -1.00000000
v 0.80046474 -0.92059002 1.00000000
v 0.80046474 -0.77773288 -1.00000000
v 0.80046474 -0.77773288 1.00000000
v 0.80046474 -0.63487573 -1.00000000
v 0.80046474 -0.63487573 1.00000000
v 0.80046474 -0.49201859 -1.00000000
v 0.80046474 -0.49201859 1.00000000
v 0.80046474 -0.34916145 -1.00000000
v 0.80046474 -0.34916145 1.00000000
v 0.80046474 -0.20630430 -1.00000000
v 0.80046474 -0.20630430 1.00000000
v 0.80046474 -0.06344716 -1.00000000
v 0.80046474 -0.06344716 1.00000000
v 0.80046474 0.07940998 -1.00000000
v 0.80046474 0.07940998 1.00000000
v 0.80046474 0.22226712 -1.00000000
v 0.80046474 0.22226712 1.00000000
v 0.80046474 0.36512427 -1.00000000
v 0.80046474 0.36512427 1.00000000
v 0.80046474 0.50798141 -1.00000000
v 0.80046474 0.50798141 1.00000000
v 0.80046474 0.65083855 -1.00000000
v 0.80046474 0.65083855 1.00000000
v 0.80046474 0.79369570 -1.00000000
v 0.72903617 0.79369570 0.78571429
v 0.80046474 0.72226712 0.78571429
v 0.80046474 0.79369570 0.71428571
v 0.80046474 0.72226712 0.92857143
v 0.80046474 0.93655284 -1.00000000
v 0.72903617 0.93655284 0.64285714
v 0.80046474 0.86512427 0.64285714
v 0.80046474 0.93655284 0.57142857
v 0.80046474 1.07940998 -1.00000000
v 0.72903617 1.07940998 0.50000000
v 0.80046474 1.00798141 0.50000000
v 0.80046474 1.07940998 0.42857143
v 0.80046474 1.15083855 -0.92857143
v 0.80046474 1.15083855 -0.78571429
v 0.80046474 1.15083855 -0.64285714
v 0.80046474 1.15083855 -0.50000000
v 0.80046474 1.15083855 -0.35714286
v 0.80046474 1.15083855 -0.21428571
v 0.80046474 1.15083855 -0.07142857
v 0.80046474 1.15083855 0.07142857
v 0.80046474 1.15083855 0.21428571
v 0.80046474 1.15083855 0.35714286
v 0.94332188 -1.06344716 -1.00000000
v 0.94332188 -1.13487573 -0.92857143
v 0.94332188 -1.13487573 -0.78571429
v 0.94332188 -1.13487573 -0.64285714
v 0.94332188 -1.13487573 -0.50000000
v 0.94332188 -1.13487573 -0.35714286
v 0.94332188 -1.13487573 -0.21428571
v 0.94332188 -1.13487573 -0.07142857
v 0.94332188 -1.13487573 0.07142857
v 0.94332188 -1.13487573 0.21428571
v 0.94332188 -1.13487573 0.35714286
v 0.94332188 -1.13487573 0.50000000
v 0.94332188 -1.13487573 0.64285714
v 0.94332188 -1.13487573 0.78571429
v 0.94332188 -1.13487573 0.92857143
v 0.94332188 -1.06344716 1.00000000
v 0.94332188 -0.92059002 -1.00000000
v 0.94332188 -0.92059002 1.00000000
v 0.94332188 -0.77773288 -1.00000000
v 0.94332188 -0.77773288 1.00000000
v 0.94332188 -0.63487573 -1.00000000
v 0.94332188 -0.63487573 1.00000000
v 0.94332188 -0.49201859 -1.00000000
v 0.94332188 -0.49201859 1.00000000
v 0.94332188 -0.34916145 -1.00000000
v 0.94332188 -0.34916145 1.00000000
v 0.94332188 -0.20630430 -1.00000000
v 0.94332188 -0.20630430 1.00000000
v 0.94332188 -0.06344716 -1.00000000
v 0.94332188 -0.06344716 1.00000000
v 0.94332188 0.07940998 -1.00000000
v 0.94332188 0.07940998 1.00000000
v 0.94332188 0.22226712 -1.00000000
v 0.94332188 0.22226712 1.00000000
v 0.94332188 0.36512427 -1.00000000
v 0.94332188 0.36512427 1.00000000
v 0.94332188 0.50798141 -1.00000000
v 0.94332188 0.50798141 1.00000000
v 0.94332188 0.65083855 -1.00000000
v 0.87189331 0.65083855 0.92857143
v 0.94332188 0.57940998 0.92857143
v 0.94332188 0.65083855 0.85714286
v 0.94332188 0.79369570 -1.00000000
v 0.87189331 0.79369570 0.64285714
v 0.94332188 0.72226712 0.64285714
v 0.94332188 0.79369570 0.57142857
v 0.94332188 0.72226712 0.78571429
v 0.94332188 0.93655284 -1.00000000
v 0.87189331 0.93655284 0.50000000
v 0.94332188 0.86512427 0.50000000
v 0.94332188 0.93655284 0.42857143
v 0.94332188 1.07940998 -1.00000000
v 0.87189331 1.07940998 0.35714286
v 0.94332188 1.00798141 0.35714286
v 0.94332188 1.07940998 0.28571429
v 0.94332188 1.15083855 -0.92857143
v 0.94332188 1.15083855 -0.78571429
v 0.94332188 1.15083855 -0.64285714
v 0.94332188 1.15083855 -0.50000000
v 0.94332188 1.15083855 -0.35714286
v 0.94332188 1.15083855 -0.21428571
v 0.94332188 1.15083855 -0.07142857
v 0.94332188 1.15083855 0.07142857
v 0.94332188 1.15083855 0.21428571
v 1.01475045 -1.06344716 -0.92857143
v 1.01475045 -1.06344716 -0.78571429
v 1.01475045 -1.06344716 -0.64285714
v 1.01475045 -1.06344716 -0.50000000
v 1.01475045 -1.06344716 -0.35714286
v 1.01475045 -1.06344716 -0.21428571
v 1.01475045 -1.06344716 -0.07142857
v 1.01475045 -1.06344716 0.07142857
v 1.01475045 -1.06344716 0.21428571
v 1.01475045 -1.06344716 0.35714286
v 1.01475045 -1.06344716 0.50000000
v 1.01475045 -1.06344716 0.64285714
v 1.01475045 -1.06344716 0.78571429
v 1.01475045 -1.06344716 0.92857143
v 1.08617903 -0.92059002 -1.00000000
v 1.08617903 -0.99201859 -0.92857143
v 1.08617903 -0.99201859 -0.78571429
v 1.08617903 -0.99201859 -0.64285714
v 1.08617903 -0.99201859 -0.50000000
v 1.08617903 -0.99201859 -0.35714286
v 1.08617903 -0.99201859 -0.21428571
v 1.08617903 -0.99201859 -0.07142857
v 1.08617903 -0.99201859 0.07142857
v 1.08617903 -0.99201859 0.21428571
v 1.08617903 -0.99201859 0.35714286
v 1.08617903 -0.99201859 0.50000000
v 1.08617903 -0.99201859 0.64285714
v 1.08617903 -0.99201859 0.78571429
v 1.08617903 -0.99201859 0.92857143
v 1.08617903 -0.92059002 1.00000000
v 1.08617903 -0.77773288 -1.00000000
v 1.08617903 -0.77773288 1.00000000
v 1.08617903 -0.63487573 -1.00000000
v 1.08617903 -0.63487573 1.00000000
v 1.08617903 -0.49201859 -1.00000000
v 1.08617903 -0.49201859 1.00000000
v 1.08617903 -0.34916145 -1.00000000
v 1.08617903 -0.34916145 1.00000000
v 1.08617903 -0.20630430 -1.00000000
v 1.08617903 -0.20630430 1.00000000
v 1.08617903 -0.06344716 -1.00000000
v 1.08617903 -0.06344716 1.00000000
v 1.08617903 0.07940998 -1.00000000
v 1.08617903 0.07940998 1.00000000
v 1.08617903 0.22226712 -1.00000000
v 1.08617903 0.22226712 1.00000000
v 1.08617903 0.36512427 -1.00000000
v 1.08617903 0.36512427 1.00000000
v 1.08617903 0.50798141 -1.00000000
v 1.01475045 0.50798141 0.92857143
v 1.08617903 0.43655284 0.92857143
v 1.08617903 0.50798141 0.85714286
v 1.08617903 0.65083855 -1.00000000
v 1.01475045 0.65083855 0.78571429
v 1.08617903 0.57940998 0.78571429
v 1.08617903 0.65083855 0.71428571
v 1.08617903 0.79369570 -1.00000000
v 1.08617903 0.72226712 0.64285714
v 1.08617903 0.79369570 0.57142857
v 1.08617903 0.93655284 -1.00000000
v 1.01475045 0.93655284 0.35714286
v 1.08617903 0.86512427 0.35714286
v 1.08617903 0.93655284 0.28571429
v 1.08617903 0.86512427 0.50000000
v 1.08617903 1.00798141 -0.92857143
v 1.01475045 1.07940998 -0.92857143
v 1.01475045 1.07940998 -0.78571429
v 1.08617903 1.00798141 -0.78571429
v 1.01475045 1.07940998 -0.64285714
v 1.08617903 1.00798141 -0.64285714
v 1.01475045 1.07940998 -0.50000000
v 1.08617903 1.00798141 -0.50000000
v 1.01475045 1.07940998 -0.35714286
v 1.08617903 1.00798141 -0.35714286
v 1.01475045 1.07940998 -0.21428571
v 1.08617903 1.00798141 -0.21428571
v 1.01475045 1.07940998 -0.07142857
v 1.08617903 1.00798141 -0.07142857
v 1.01475045 1.07940998 0.07142857
v 1.08617903 1.00798141 0.07142857
v 1.01475045 1.07940998 0.21428571
v 1.08617903 1.00798141 0.21428571
v 1.15760760 -0.92059002 -0.92857143
v 1.15760760 -0.92059002 -0.78571429
v 1.15760760 -0.92059002 -0.64285714
v 1.15760760 -0.92059002 -0.50000000
v 1.15760760 -0.92059002 -0.35714286
v 1.15760760 -0.92059002 -0.21428571
v 1.15760760 -0.92059002 -0.07142857
v 1.15760760 -0.92059002 0.07142857
v 1.15760760 -0.92059002 0.21428571
v 1.15760760 -0.92059002 0.35714286
v 1.15760760 -0.92059002 0.50000000
v 1.15760760 -0.92059002 0.64285714
v 1.15760760 -0.92059002 0.78571429
v 1.15760760 -0.92059002 0.92857143
v 1.15760760 -0.77773288 -0.92857143
v 1.15760760 -0.77773288 -0.78571429
v 1.15760760 -0.77773288 -0.64285714
v 1.15760760 -0.77773288 -0.50000000
v 1.15760760 -0.77773288 -0.35714286
v 1.15760760 -0.77773288 -0.21428571
v 1.15760760 -0.77773288 -0.07142857
v 1.15760760 -0.77773288 0.07142857
v 1.15760760 -0.77773288 0.21428571
v 1.15760760 -0.77773288 0.35714286
v 1.15760760 -0.77773288 0.50000000
v 1.15760760 -0.77773288 0.64285714
v 1.15760760 -0.77773288 0.78571429
v 1.15760760 -0.77773288 0.92857143
v 1.15760760 -0.63487573 -0.92857143
v 1.15760760 -0.63487573 -0.78571429
v 1.15760760 -0.63487573 -0.64285714
v 1.15760760 -0.63487573 -0.50000000
v 1.15760760 -0.63487573 -0.35714286
v 1.15760760 -0.63487573 -0.21428571
v 1.15760760 -0.63487573 -0.07142857
v 1.15760760 -0.63487573 0.07142857
v 1.15760760 -0.63487573 0.21428571
v 1.15760760 -0.63487573 0.35714286
v 1.15760760 -0.63487573 0.50000000
v 1.15760760 -0.63487573 0.64285714
v 1.15760760 -0.63487573 0.78571429
v 1.15760760 -0.63487573 0.92857143
v 1.15760760 -0.49201859 -0.92857143
v 1.15760760 -0.49201859 -0.78571429
v 1.15760760 -0.49201859 -0.64285714
v 1.15760760 -0.49201859 -0.50000000
v 1.15760760 -0.49201859 -0.35714286
v 1.15760760 -0.49201859 -0.21428571
v 1.15760760 -0.49201859 -0.07142857
v 1.15760760 -0.49201859 0.07142857
v 1.15760760 -0.49201859 0.21428571
v 1.15760760 -0.49201859 0.35714286
v 1.15760760 -0.49201859 0.50000000
v 1.15760760 -0.49201859 0.64285714
v 1.15760760 -0.49201859 0.78571429
v 1.15760760 -0.49201859 0.92857143
v 1.15760760 -0.34916145 -0.92857143
v 1.15760760 -0.34916145 -0.78571429
v 1.15760760 -0.34916145 -0.64285714
v 1.15760760 -0.34916145 -0.50000000
v 1.15760760 -0.34916145 -0.35714286
v 1.15760760 -0.34916145 -0.21428571
v 1.15760760 -0.34916145 -0.07142857
v 1.15760760 -0.34916145 0.07142857
v 1.15760760 -0.34916145 0.21428571
v 1.15760760 -0.34916145 0.35714286
v 1.15760760 -0.34916145 0.50000000
v 1.15760760 -0.34916145 0.64285714
v 1.15760760 -0.34916145 0.78571429
v 1.15760760 -0.34916145 0.92857143
v 1.15760760 -0.20630430 -0.92857143
v 1.15760760 -0.20630430 -0.78571429
v 1.15760760 -0.20630430 -0.64285714
v 1.15760760 -0.20630430 -0.50000000
v 1.15760760 -0.20630430 -0.35714286
v 1.15760760 -0.20630430 -0.21428571
v 1.15760760 -0.20630430 -0.07142857
v 1.15760760 -0.20630430 0.07142857
v 1.15760760 -0.20630430 0.21428571
v 1.15760760 -0.20630430 0.35714286
v 1.15760760 -0.20630430 0.50000000
v 1.15760760 -0.20630430 0.64285714
v 1.15760760 -0.20630430 0.78571429
v 1.15760760 -0.20630430 0.92857143
v 1.15760760 -0.06344716 -0.92857143
v 1.15760760 -0.06344716 -0.78571429
v 1.15760760 -0.06344716 -0.64285714
v 1.15760760 -0.06344716 -0.50000000
v 1.15760760 -0.06344716 -0.35714286
v 1.15760760 -0.06344716 -0.21428571
v 1.15760760 -0.06344716 -0.07142857
v 1.15760760 -0.06344716 0.07142857
v 1.15760760 -0.06344716 0.21428571
v 1.15760760 -0.06344716 0.35714286
v 1.15760760 -0.06344716 0.50000000
v 1.15760760 -0.06344716 0.64285714
v 1.15760760 -0.06344716 0.78571429
v 1.15760760 -0.06344716 0.92857143
v 1.15760760 0.07940998 -0.92857143
v 1.15760760 0.07940998 -0.78571429
v 1.15760760 0.07940998 -0.64285714
v 1.15760760 0.07940998 -0.50000000
v 1.15760760 0.07940998 -0.35714286
v 1.15760760 0.07940998 -0.21428571
v 1.15760760 0.07940998 -0.07142857
v 1.15760760 0.07940998 0.07142857
v 1.15760760 0.07940998 0.21428571
v 1.15760760 0.07940998 0.35714286
v 1.15760760 0.07940998 0.50000000
v 1.15760760 0.07940998 0.64285714
v 1.15760760 0.07940998 0.78571429
v 1.15760760 0.07940998 0.92857143
v 1.15760760 0.22226712 -0.92857143
v 1.15760760 0.22226712 -0.78571429
v 1.15760760 0.22226712 -0.64285714
v 1.15760760 0.22226712 -0.50000000
v 1.15760760 0.22226712 -0.35714286
v 1.15760760 0.22226712 -0.21428571
v 1.15760760 0.22226712 -0.07142857
v 1.15760760 0.22226712 0.07142857
v 1.15760760 0.22226712 0.21428571
v 1.15760760 0.22226712 0.35714286
v 1.15760760 0.22226712 0.50000000
v 1.15760760 0.22226712 0.64285714
v 1.15760760 0.22226712 0.78571429
v 1.15760760 0.22226712 0.92857143
v 1.15760760 0.36512427 -0.92857143
v 1.15760760 0.36512427 -0.78571429
v 1.15760760 0.36512427 -0.64285714
v 1.15760760 0.36512427 -0.50000000
v 1.15760760 0.36512427 -0.35714286
v 1.15760760 0.36512427 -0.21428571
v 1.15760760 0.36512427 -0.07142857
v 1.15760760 0.36512427 0.07142857
v 1.15760760 0.36512427 0.21428571
v 1.15760760 0.36512427 0.35714286
v 1.15760760 0.36512427 0.50000000
v 1.15760760 0.36512427 0.64285714
v 1.15760760 0.36512427 0.78571429
v 1.15760760 0.36512427 0.92857143
v 1.15760760 0.50798141 -0.92857143
v 1.15760760 0.50798141 -0.78571429
v 1.15760760 0.50798141 -0.64285714
v 1.15760760 0.50798141 -0.50000000
v 1.15760760 0.50798141 -0.35714286
v 1.15760760 0.50798141 -0.21428571
v 1.15760760 0.50798141 -0.07142857
v 1.15760760 0.50798141 0.07142857
v 1.15760760 0.50798141 0.21428571
v 1.15760760 0.50798141 0.35714286
v 1.15760760 0.50798141 0.50000000
v 1.15760760 0.50798141 0.64285714
v 1.15760760 0.50798141 0.78571429
v 1.15760760 0.65083855 -0.92857143
v 1.15760760 0.65083855 -0.78571429
v 1.15760760 0.65083855 -0.64285714
v 1.15760760 0.65083855 -0.50000000
v 1.15760760 0.65083855 -0.35714286
v 1.15760760 0.65083855 -0.21428571
v 1.15760760 0.65083855 -0.07142857
v 1.15760760 0.65083855 0.07142857
v 1.15760760 0.65083855 0.21428571
v 1.15760760 0.65083855 0.35714286
v 1.15760760 0.65083855 0.50000000
v 1.15760760 0.65083855 0.64285714
v 1.15760760 0.79369570 -0.92857143
v 1.15760760 0.79369570 -0.78571429
v 1.15760760 0.79369570 -0.64285714
v 1.15760760 0.79369570 -0.50000000
v 1.15760760 0.79369570 -0.35714286
v 1.15760760 0.79369570 -0.21428571
v 1.15760760 0.79369570 -0.07142857
v 1.15760760 0.79369570 0.07142857
v 1.15760760 0.79369570 0.21428571
v 1.15760760 0.79369570 0.35714286
v 1.15760760 0.79369570 0.50000000
v 1.15760760 0.93655284 -0.92857143
v 1.15760760 0.93655284 -0.78571429
v 1.15760760 0.93655284 -0.64285714
v 1.15760760 0.93655284 -0.50000000
v 1.15760760 0.93655284 -0.35714286
v 1.15760760 0.93655284 -0.21428571
v 1.15760760 0.93655284 -0.07142857
v 1.15760760 0.93655284 0.07142857
v 1.15760760 0.93655284 0.21428571
f 3 2 1
f 1 4 3
f 1 2 5
f 5 2 6
f 4 1 7
f 7 1 5
f 6 8 5
f 5 8 7
f 11 10 9
f 13 12 9
f 9 12 11
f 15 14 13
f 13 14 12
f 17 16 15
f 15 16 14
f 19 18 17
f 17 18 16
f 21 20 19
f 19 20 18
f 23 22 21
f 21 22 20
f 25 24 23
f 23 24 22
f 27 26 25
f 25 26 24
f 29 28 27
f 27 28 26
f 31 30 29
f 29 30 28
f 33 32 31
f 31 32 30
f 35 34 33
f 33 34 32
f 37 36 35
f 35 36 34
f 37 38 36
f 9 10 39
f 39 10 40
f 9 41 13
f 9 39 41
f 13 42 15
f 13 41 42
f 15 43 17
f 15 42 43
f 17 44 19
f 17 43 44
f 19 45 21
f 19 44 45
f 21 46 23
f 21 45 46
f 23 47 25
f 23 46 47
f 25 48 27
f 25 47 48
f 27 49 29
f 27 48 49
f 29 50 31
f 29 49 50
f 31 51 33
f 31 50 51
f 33 52 35
f 33 51 52
f 35 53 37
f 35 52 53
f 38 37 54
f 54 37 53
f 39 40 55
f 55 40 56
f 39 57 41
f 39 55 57
f 41 58 42
f 41 57 58
f 42 59 43
f 42 58 59
f 43 60 44
f 43 59 60
f 44 61 45
f 44 60 61
f 45 62 46
f 45 61 62
f 46 63 47
f 46 62 63
f 47 64 48
f 47 63 64
f 48 65 49
f 48 64 65
f 49 66 50
f 49 65 66
f 50 67 51
f 50 66 67
f 51 68 52
f 51 67 68
f 52 69 53
f 52 68 69
f 54 53 70
f 70 53 69
f 55 56 71
f 71 56 72
f 55 73 57
f 55 71 73
f 57 74 58
f 57 73 74
f 58 75 59
f 58 74 75
f 59 76 60
f 59 75 76
f 60 77 61
f 60 76 77
f 61 78 62
f 61 77 78
f 62 79 63
f 62 78 79
f 63 80 64
f 63 79 80
f 64 81 65
f 64 80 81
f 65 82 66
f 65 81 82
f 66 83 67
f 66 82 83
f 67 84 68
f 67 83 84
f 68 85 69
f 68 84 85
f 70 69 86
f 86 69 85
f 71 72 87
f 87 72 88
f 71 89 73
f 71 87 89
f 73 90 74
f 73 89 90
f 74 91 75
f 74 90 91
f 75 92 76
f 75 91 92
f 76 93 77
f 76 92 93
f 77 94 78
f 77 93 94
f 78 95 79
f 78 94 95
f 79 96 80
f 79 95 96
f 80 97 81
f 80 96 97
f 81 98 82
f 81 97 98
f 82 99 83
f 82 98 99
f 83 100 84
f 83 99 100
f 84 101 85
f 84 100 101
f 86 85 102
f 102 85 101
f 87 88 103
f 103 88 104
f 87 105 89
f 87 103 105
f 89 106 90
f 89 105 106
f 90 107 91
f 90 106 107
f 91 108 92
f 91 107 108
f 92 109 93
f 92 108 109
f 93 110 94
f 93 109 110
f 94 111 95
f 94 110 111
f 95 112 96
f 95 111 112
f 96 113 97
f 96 112 113
f 97 114 98
f 97 113 114
f 98 115 99
f 98 114 115
f 99 116 100
f 99 115 116
f 100 117 101
f 100 116 117
f 102 101 118
f 118 101 117
f 103 104 119
f 119 104 120
f 103 121 105
f 103 119 121
f 105 122 106
f 105 121 122
f 106 123 107
f 106 122 123
f 107 124 108
f 107 123 124
f 108 125 109
f 108 124 125
f 109 126 110
f 109 125 126
f 110 127 111
f 110 126 127
f 111 128 112
f 111 127 128
f 112 129 113
f 112 128 129
f 113 130 114
f 113 129 130
f 114 131 115
f 114 130 131
f 115 132 116
f 115 131 132
f 116 133 117
f 116 132 133
f 118 117 134
f 134 117 133
f 119 120 135
f 135 120 136
f 119 137 121
f 119 135 137
f 121 138 122
f 121 137 138
f 122 139 123
f 122 138 139
f 123 140 124
f 123 139 140
f 124 141 125
f 124 140 141
f 125 142 126
f 125 141 142
f 126 143 127
f 126 142 143
f 127 144 128
f 127 143 144
f 128 145 129
f 128 144 145
f 129 146 130
f 129 145 146
f 130 147 131
f 130 146 147
f 131 148 132
f 131 147 148
f 132 149 133
f 132 148 149
f 134 133 150
f 150 133 149
f 135 136 151
f 151 136 152
f 135 153 137
f 135 151 153
f 137 154 138
f 137 153 154
f 138 155 139
f 138 154 155
f 139 156 140
f 139 155 156
f 140 157 141
f 140 156 157
f 141 158 142
f 141 157 158
f 142 159 143
f 142 158 159
f 143 160 144
f 143 159 160
f 144 161 145
f 144 160 161
f 145 162 146
f 145 161 162
f 146 163 147
f 146 162 163
f 147 164 148
f 147 163 164
f 148 165 149
f 148 164 165
f 150 149 166
f 166 149 165
f 151 152 167
f 167 152 168
f 151 169 153
f 151 167 169
f 153 170 154
f 153 169 170
f 154 171 155
f 154 170 171
f 155 172 156
f 155 171 172
f 156 173 157
f 156 172 173
f 157 174 158
f 157 173 174
f 158 175 159
f 158 174 175
f 159 176 160
f 159 175 176
f 160 177 161
f 160 176 177
f 161 178 162
f 161 177 178
f 162 179 163
f 162 178 179
f 163 180 164
f 163 179 180
f 164 181 165
f 164 180 181
f 166 165 182
f 182 165 181
f 167 168 183
f 183 168 184
f 167 185 169
f 167 183 185
f 169 186 170
f 169 185 186
f 170 187 171
f 170 186 187
f 171 188 172
f 171 187 188
f 172 189 173
f 172 188 189
f 173 190 174
f 173 189 190
f 174 191 175
f 174 190 191
f 175 192 176
f 175 191 192
f 176 193 177
f 176 192 193
f 177 194 178
f 177 193 194
f 178 195 179
f 178 194 195
f 179 196 180
f 179 195 196
f 180 197 181
f 180 196 197
f 182 181 198
f 198 181 197
f 183 184 199
f 199 184 200
f 183 201 185
f 183 199 201
f 185 202 186
f 185 201 202
f 186 203 187
f 186 202 203
f 187 204 188
f 187 203 204
f 188 205 189
f 188 204 205
f 189 206 190
f 189 205 206
f 190 207 191
f 190 206 207
f 191 208 192
f 191 207 208
f 192 209 193
f 192 208 209
f 193 210 194
f 193 209 210
f 194 211 195
f 194 210 211
f 195 212 196
f 195 211 212
f 196 213 197
f 196 212 213
f 198 197 214
f 214 197 213
f 199 200 215
f 215 200 216
f 199 217 201
f 199 215 217
f 201 218 202
f 201 217 218
f 202 219 203
f 202 218 219
f 203 220 204
f 203 219 220
f 220 2 3
f 205 220 3
f 204 220 205
f 205 3 4
f 221 205 4
f 206 205 221
f 206 222 207
f 206 221 222
f 207 223 208
f 207 222 223
f 208 224 209
f 208 223 224
f 209 225 210
f 209 224 225
f 210 226 211
f 210 225 226
f 211 227 212
f 211 226 227
f 212 228 213
f 212 227 228
f 214 213 229
f 229 213 228
f 215 216 230
f 230 216 231
f 215 232 217
f 215 230 232
f 217 233 218
f 217 232 233
f 218 234 219
f 218 233 234
f 219 235 220
f 219 234 235
f 235 6 2
f 235 2 220
f 7 236 221
f 7 221 4
f 221 237 222
f 221 236 237
f 222 238 223
f 222 237 238
f 223 239 224
f 223 238 239
f 224 240 225
f 224 239 240
f 225 241 226
f 225 240 241
f 226 242 227
f 226 241 242
f 227 243 228
f 227 242 243
f 229 228 244
f 244 228 243
f 231 245 230
f 230 245 232
f 232 245 246
f 232 246 233
f 233 246 247
f 233 247 234
f 234 247 248
f 234 248 235
f 235 248 249
f 235 249 6
f 249 8 6
f 249 250 8
f 7 8 236
f 8 251 236
f 8 250 251
f 236 251 237
f 237 251 252
f 237 252 238
f 238 252 253
f 238 253 239
f 239 253 254
f 239 254 240
f 240 254 255
f 240 255 241
f 241 255 256
f 241 256 242
f 242 256 257
f 242 257 243
f 243 257 258
f 243 258 244
f 261 260 259
f 259 262 261
f 265 264 263
f 267 266 263
f 263 266 265
f 269 268 267
f 267 268 266
f 271 270 269
f 269 270 268
f 273 272 271
f 271 272 270
f 275 274 273
f 273 274 272
f 274 275 260
f 275 259 260
f 275 276 259
f 262 259 277
f 259 278 277
f 259 276 278
f 280 279 278
f 278 279 277
f 282 281 280
f 280 281 279
f 284 283 282
f 282 283 281
f 286 285 284
f 284 285 283
f 288 287 286
f 286 287 285
f 290 289 288
f 288 289 287
f 290 291 289
f 263 264 11
f 264 10 11
f 264 292 10
f 263 11 12
f 263 12 267
f 267 12 14
f 267 14 269
f 269 14 16
f 269 16 271
f 271 16 18
f 271 18 273
f 273 18 20
f 273 20 275
f 275 20 22
f 275 22 276
f 276 22 24
f 276 24 278
f 278 24 26
f 278 26 280
f 280 26 28
f 280 28 282
f 282 28 30
f 282 30 284
f 284 30 32
f 284 32 286
f 286 32 34
f 286 34 288
f 288 34 36
f 288 36 290
f 36 38 290
f 38 291 290
f 38 293 291
f 292 40 10
f 294 40 292
f 54 293 38
f 54 295 293
f 294 56 40
f 296 56 294
f 70 295 54
f 70 297 295
f 296 72 56
f 298 72 296
f 86 297 70
f 86 299 297
f 298 88 72
f 300 88 298
f 102 299 86
f 102 301 299
f 300 104 88
f 302 104 300
f 118 301 102
f 118 303 301
f 302 120 104
f 304 120 302
f 134 303 118
f 134 305 303
f 304 136 120
f 306 136 304
f 150 305 134
f 150 307 305
f 306 152 136
f 308 152 306
f 166 307 150
f 166 309 307
f 308 168 152
f 310 168 308
f 182 309 166
f 182 311 309
f 310 184 168
f 312 184 310
f 198 311 182
f 198 313 311
f 312 200 184
f 314 200 312
f 214 313 198
f 214 315 313
f 314 216 200
f 316 216 314
f 229 315 214
f 229 317 315
f 316 231 216
f 318 231 316
f 244 317 229
f 244 319 317
f 245 231 320
f 231 321 320
f 231 318 321
f 322 246 245
f 322 245 320
f 323 247 246
f 323 246 322
f 324 248 247
f 324 247 323
f 325 249 248
f 325 248 324
f 326 250 249
f 326 249 325
f 327 251 250
f 327 250 326
f 328 252 251
f 328 251 327
f 329 253 252
f 329 252 328
f 330 254 253
f 330 253 329
f 331 255 254
f 331 254 330
f 332 256 255
f 332 255 331
f 333 257 256
f 333 256 332
f 334 258 257
f 334 257 333
f 334 335 258
f 335 244 258
f 335 319 244
f 321 336 320
f 320 336 322
f 322 336 337
f 322 337 323
f 323 337 338
f 323 338 324
f 324 338 339
f 324 339 325
f 325 339 340
f 325 340 326
f 326 340 341
f 326 341 327
f 327 341 342
f 327 342 328
f 328 342 343
f 328 343 329
f 329 343 344
f 329 344 330
f 330 344 345
f 330 345 331
f 331 345 346
f 331 346 332
f 332 346 347
f 332 347 333
f 333 347 348
f 333 348 334
f 334 348 349
f 334 349 335
f 350 260 261
f 262 350 261
f 353 352 351
f 351 354 353
f 356 355 265
f 265 355 264
f 357 265 266
f 357 356 265
f 358 266 268
f 358 357 266
f 359 268 270
f 359 358 268
f 360 270 272
f 360 359 270
f 361 272 274
f 361 360 272
f 274 260 350
f 362 274 350
f 361 274 362
f 362 350 262
f 277 362 262
f 363 362 277
f 279 351 352
f 363 279 352
f 277 279 363
f 364 354 351
f 279 364 351
f 281 364 279
f 365 281 283
f 365 364 281
f 366 283 285
f 366 365 283
f 367 285 287
f 367 366 285
f 368 287 289
f 368 367 287
f 289 291 368
f 368 291 369
f 355 292 264
f 370 292 355
f 293 369 291
f 293 371 369
f 370 294 292
f 372 294 370
f 295 371 293
f 295 373 371
f 372 296 294
f 374 296 372
f 297 373 295
f 297 375 373
f 374 298 296
f 376 298 374
f 299 375 297
f 299 377 375
f 376 300 298
f 378 300 376
f 301 377 299
f 301 379 377
f 378 302 300
f 380 302 378
f 303 379 301
f 303 381 379
f 380 304 302
f 382 304 380
f 305 381 303
f 305 383 381
f 382 306 304
f 384 306 382
f 307 383 305
f 307 385 383
f 384 308 306
f 386 308 384
f 309 385 307
f 309 387 385
f 386 310 308
f 388 310 386
f 311 387 309
f 311 389 387
f 388 312 310
f 390 312 388
f 313 389 311
f 313 391 389
f 390 314 312
f 392 314 390
f 315 391 313
f 315 393 391
f 392 316 314
f 394 316 392
f 317 393 315
f 317 395 393
f 394 318 316
f 396 318 394
f 319 395 317
f 319 397 395
f 396 321 318
f 398 321 396
f 335 397 319
f 335 399 397
f 398 400 321
f 321 400 336
f 336 401 337
f 400 401 336
f 337 402 338
f 401 402 337
f 338 403 339
f 402 403 338
f 339 404 340
f 403 404 339
f 340 405 341
f 404 405 340
f 341 406 342
f 405 406 341
f 342 407 343
f 406 407 342
f 343 408 344
f 407 408 343
f 344 409 345
f 408 409 344
f 345 410 346
f 409 410 345
f 346 411 347
f 410 411 346
f 347 412 348
f 411 412 347
f 348 413 349
f 412 413 348
f 335 349 399
f 399 349 413
f 414 352 353
f 354 414 353
f 416 415 356
f 356 415 355
f 417 356 357
f 417 416 356
f 418 357 358
f 418 417 357
f 419 358 359
f 419 418 358
f 420 359 360
f 420 419 359
f 421 360 361
f 421 420 360
f 422 361 362
f 422 421 361
f 423 362 363
f 423 422 362
f 363 352 414
f 424 363 414
f 423 363 424
f 424 414 354
f 364 424 354
f 425 424 364
f 426 364 365
f 426 425 364
f 427 365 366
f 427 426 365
f 428 366 367
f 428 427 366
f 429 367 368
f 429 428 367
f 368 369 429
f 429 369 430
f 415 370 355
f 431 370 415
f 371 430 369
f 371 432 430
f 431 372 370
f 433 372 431
f 373 432 371
f 373 434 432
f 433 374 372
f 435 374 433
f 375 434 373
f 375 436 434
f 435 376 374
f 437 376 435
f 377 436 375
f 377 438 436
f 437 378 376
f 439 378 437
f 379 438 377
f 379 440 438
f 439 380 378
f 441 380 439
f 381 440 379
f 381 442 440
f 441 382 380
f 443 382 441
f 383 442 381
f 383 444 442
f 443 384 382
f 445 384 443
f 385 444 383
f 385 446 444
f 445 386 384
f 447 386 445
f 387 446 385
f 387 448 446
f 447 388 386
f 449 388 447
f 389 448 387
f 389 450 448
f 449 390 388
f 451 390 449
f 391 450 389
f 391 452 450
f 451 392 390
f 453 392 451
f 393 452 391
f 393 454 452
f 453 394 392
f 455 394 453
f 395 454 393
f 395 456 454
f 455 396 394
f 457 396 455
f 397 456 395
f 397 458 456
f 457 398 396
f 459 398 457
f 399 458 397
f 399 460 458
f 459 461 398
f 398 461 400
f 400 462 401
f 461 462 400
f 401 463 402
f 462 463 401
f 402 464 403
f 463 464 402
f 403 465 404
f 464 465 403
f 404 466 405
f 465 466 404
f 405 467 406
f 466 467 405
f 406 468 407
f 467 468 406
f 407 469 408
f 468 469 407
f 408 470 409
f 469 470 408
f 409 471 410
f 470 471 409
f 410 472 411
f 471 472 410
f 411 473 412
f 472 473 411
f 412 474 413
f 473 474 412
f 399 413 460
f 460 413 474
f 476 475 416
f 416 475 415
f 477 416 417
f 477 476 416
f 478 417 418
f 478 477 417
f 479 418 419
f 479 478 418
f 480 419 420
f 480 479 419
f 481 420 421
f 481 480 420
f 482 421 422
f 482 481 421
f 483 422 423
f 483 482 422
f 484 423 424
f 484 483 423
f 485 424 425
f 485 484 424
f 486 425 426
f 486 485 425
f 487 426 427
f 487 486 426
f 488 427 428
f 488 487 427
f 489 428 429
f 489 488 428
f 429 430 489
f 489 430 490
f 475 431 415
f 491 431 475
f 432 490 430
f 432 492 490
f 491 433 431
f 493 433 491
f 434 492 432
f 434 494 492
f 493 435 433
f 495 435 493
f 436 494 434
f 436 496 494
f 495 437 435
f 497 437 495
f 438 496 436
f 438 498 496
f 497 439 437
f 499 439 497
f 440 498 438
f 440 500 498
f 499 441 439
f 501 441 499
f 442 500 440
f 442 502 500
f 501 443 441
f 503 443 501
f 444 502 442
f 444 504 502
f 503 445 443
f 505 445 503
f 446 504 444
f 446 506 504
f 505 447 445
f 507 447 505
f 448 506 446
f 448 508 506
f 507 449 447
f 509 449 507
f 450 508 448
f 450 510 508
f 509 451 449
f 511 451 509
f 452 510 450
f 452 512 510
f 511 453 451
f 513 453 511
f 454 512 452
f 454 514 512
f 513 455 453
f 515 455 513
f 456 514 454
f 456 516 514
f 515 457 455
f 517 457 515
f 458 516 456
f 458 518 516
f 517 459 457
f 519 459 517
f 460 518 458
f 460 520 518
f 519 521 459
f 459 521 461
f 461 522 462
f 521 522 461
f 462 523 463
f 522 523 462
f 463 524 464
f 523 524 463
f 464 525 465
f 524 525 464
f 465 526 466
f 525 526 465
f 466 527 467
f 526 527 466
f 467 528 468
f 527 528 467
f 468 529 469
f 528 529 468
f 469 530 470
f 529 530 469
f 470 531 471
f 530 531 470
f 471 532 472
f 531 532 471
f 472 533 473
f 532 533 472
f 473 534 474
f 533 534 473
f 460 474 520
f 520 474 534
f 536 535 476
f 476 535 475
f 537 476 477
f 537 536 476
f 538 477 478
f 538 537 477
f 539 478 479
f 539 538 478
f 540 479 480
f 540 539 479
f 541 480 481
f 541 540 480
f 542 481 482
f 542 541 481
f 543 482 483
f 543 542 482
f 544 483 484
f 544 543 483
f 545 484 485
f 545 544 484
f 546 485 486
f 546 545 485
f 547 486 487
f 547 546 486
f 548 487 488
f 548 547 487
f 549 488 489
f 549 548 488
f 489 490 549
f 549 490 550
f 535 491 475
f 551 491 535
f 492 550 490
f 492 552 550
f 551 493 491
f 553 493 551
f 494 552 492
f 494 554 552
f 553 495 493
f 555 495 553
f 496 554 494
f 496 556 554
f 555 497 495
f 557 497 555
f 498 556 496
f 498 558 556
f 557 499 497
f 559 499 557
f 500 558 498
f 500 560 558
f 559 501 499
f 561 501 559
f 502 560 500
f 502 562 560
f 561 503 501
f 563 503 561
f 504 562 502
f 504 564 562
f 563 505 503
f 565 505 563
f 506 564 504
f 506 566 564
f 565 507 505
f 567 507 565
f 508 566 506
f 508 568 566
f 567 509 507
f 569 509 567
f 510 568 508
f 510 570 568
f 569 511 509
f 571 511 569
f 512 570 510
f 512 572 570
f 571 513 511
f 573 513 571
f 514 572 512
f 514 574 572
f 573 515 513
f 575 515 573
f 516 574 514
f 516 576 574
f 575 517 515
f 577 517 575
f 518 576 516
f 518 578 576
f 577 519 517
f 579 519 577
f 520 578 518
f 520 580 578
f 579 581 519
f 519 581 521
f 521 582 522
f 581 582 521
f 522 583 523
f 582 583 522
f 523 584 524
f 583 584 523
f 524 585 525
f 584 585 524
f 525 586 526
f 585 586 525
f 526 587 527
f 586 587 526
f 527 588 528
f 587 588 527
f 528 589 529
f 588 589 528
f 529 590 530
f 589 590 529
f 530 591 531
f 590 591 530
f 531 592 532
f 591 592 531
f 532 593 533
f 592 593 532
f 533 594 534
f 593 594 533
f 520 534 580
f 580 534 594
f 596 595 536
f 536 595 535
f 597 536 537
f 597 596 536
f 598 537 538
f 598 597 537
f 599 538 539
f 599 598 538
f 600 539 540
f 600 599 539
f 601 540 541
f 601 600 540
f 602 541 542
f 602 601 541
f 603 542 543
f 603 602 542
f 604 543 544
f 604 603 543
f 605 544 545
f 605 604 544
f 606 545 546
f 606 605 545
f 607 546 547
f 607 606 546
f 608 547 548
f 608 607 547
f 609 548 549
f 609 608 548
f 549 550 609
f 609 550 610
f 595 551 535
f 611 551 595
f 552 610 550
f 552 612 610
f 611 553 551
f 613 553 611
f 554 612 552
f 554 614 612
f 613 555 553
f 615 555 613
f 556 614 554
f 556 616 614
f 615 557 555
f 617 557 615
f 558 616 556
f 558 618 616
f 617 559 557
f 619 559 617
f 560 618 558
f 560 620 618
f 619 561 559
f 621 561 619
f 562 620 560
f 562 622 620
f 621 563 561
f 623 563 621
f 564 622 562
f 564 624 622
f 623 565 563
f 625 565 623
f 566 624 564
f 566 626 624
f 625 567 565
f 627 567 625
f 568 626 566
f 568 628 626
f 627 569 567
f 629 569 627
f 570 628 568
f 570 630 628
f 629 571 569
f 631 571 629
f 572 630 570
f 572 632 630
f 631 573 571
f 633 573 631
f 574 632 572
f 574 634 632
f 633 575 573
f 635 575 633
f 576 634 574
f 576 636 634
f 635 577 575
f 637 577 635
f 578 636 576
f 578 638 636
f 637 579 577
f 639 579 637
f 580 638 578
f 580 640 638
f 639 641 579
f 579 641 581
f 581 642 582
f 641 642 581
f 582 643 583
f 642 643 582
f 583 644 584
f 643 644 583
f 584 645 585
f 644 645 584
f 585 646 586
f 645 646 585
f 586 647 587
f 646 647 586
f 587 648 588
f 647 648 587
f 588 649 589
f 648 649 588
f 589 650 590
f 649 650 589
f 590 651 591
f 650 651 590
f 591 652 592
f 651 652 591
f 592 653 593
f 652 653 592
f 593 654 594
f 653 654 593
f 580 594 640
f 640 594 654
f 656 655 596
f 596 655 595
f 657 596 597
f 657 656 596
f 658 597 598
f 658 657 597
f 659 598 599
f 659 658 598
f 660 599 600
f 660 659 599
f 661 600 601
f 661 660 600
f 662 601 602
f 662 661 601
f 663 602 603
f 663 662 602
f 664 603 604
f 664 663 603
f 665 604 605
f 665 664 604
f 666 605 606
f 666 665 605
f 667 606 607
f 667 666 606
f 668 607 608
f 668 667 607
f 669 608 609
f 669 668 608
f 609 610 669
f 669 610 670
f 655 611 595
f 671 611 655
f 612 670 610
f 612 672 670
f 671 613 611
f 673 613 671
f 614 672 612
f 614 674 672
f 673 615 613
f 675 615 673
f 616 674 614
f 616 676 674
f 675 617 615
f 677 617 675
f 618 676 616
f 618 678 676
f 677 619 617
f 679 619 677
f 620 678 618
f 620 680 678
f 679 621 619
f 681 621 679
f 622 680 620
f 622 682 680
f 681 623 621
f 683 623 681
f 624 682 622
f 624 684 682
f 683 625 623
f 685 625 683
f 626 684 624
f 626 686 684
f 685 627 625
f 687 627 685
f 628 686 626
f 628 688 686
f 687 629 627
f 689 629 687
f 630 688 628
f 630 690 688
f 689 631 629
f 691 631 689
f 632 690 630
f 632 692 690
f 691 633 631
f 693 633 691
f 634 692 632
f 634 694 692
f 693 635 633
f 695 635 693
f 636 694 634
f 636 696 694
f 695 637 635
f 697 637 695
f 638 696 636
f 638 698 696
f 697 639 637
f 699 639 697
f 640 698 638
f 640 700 698
f 699 701 639
f 639 701 641
f 641 702 642
f 701 702 641
f 642 703 643
f 702 703 642
f 643 704 644
f 703 704 643
f 644 705 645
f 704 705 644
f 645 706 646
f 705 706 645
f 646 707 647
f 706 707 646
f 647 708 648
f 707 708 647
f 648 709 649
f 708 709 648
f 649 710 650
f 709 710 649
f 650 711 651
f 710 711 650
f 651 712 652
f 711 712 651
f 652 713 653
f 712 713 652
f 653 714 654
f 713 714 653
f 640 654 700
f 700 654 714
f 716 715 656
f 656 715 655
f 717 656 657
f 717 716 656
f 718 657 658
f 718 717 657
f 719 658 659
f 719 718 658
f 720 659 660
f 720 719 659
f 721 660 661
f 721 720 660
f 722 661 662
f 722 721 661
f 723 662 663
f 723 722 662
f 724 663 664
f 724 723 663
f 725 664 665
f 725 724 664
f 726 665 666
f 726 725 665
f 727 666 667
f 727 726 666
f 728 667 668
f 728 727 667
f 729 668 669
f 729 728 668
f 669 670 729
f 729 670 730
f 715 671 655
f 731 671 715
f 672 730 670
f 672 732 730
f 731 673 671
f 733 673 731
f 674 732 672
f 674 734 732
f 733 675 673
f 735 675 733
f 676 734 674
f 676 736 734
f 735 677 675
f 737 677 735
f 678 736 676
f 678 738 736
f 737 679 677
f 739 679 737
f 680 738 678
f 680 740 738
f 739 681 679
f 741 681 739
f 682 740 680
f 682 742 740
f 741 683 681
f 743 683 741
f 684 742 682
f 684 744 742
f 743 685 683
f 745 685 743
f 686 744 684
f 686 746 744
f 745 687 685
f 747 687 745
f 688 746 686
f 688 748 746
f 747 689 687
f 749 689 747
f 690 748 688
f 690 750 748
f 749 691 689
f 751 691 749
f 692 750 690
f 692 752 750
f 751 693 691
f 753 693 751
f 694 752 692
f 694 754 752
f 753 695 693
f 755 695 753
f 696 754 694
f 696 756 754
f 755 697 695
f 757 697 755
f 698 756 696
f 698 758 756
f 757 699 697
f 759 699 757
f 700 758 698
f 700 760 758
f 759 761 699
f 699 761 701
f 701 762 702
f 761 762 701
f 702 763 703
f 762 763 702
f 703 764 704
f 763 764 703
f 704 765 705
f 764 765 704
f 705 766 706
f 765 766 705
f 706 767 707
f 766 767 706
f 707 768 708
f 767 768 707
f 708 769 709
f 768 769 708
f 709 770 710
f 769 770 709
f 710 771 711
f 770 771 710
f 711 772 712
f 771 772 711
f 712 773 713
f 772 773 712
f 713 774 714
f 773 774 713
f 700 714 760
f 760 714 774
f 776 775 716
f 716 775 715
f 777 716 717
f 777 776 716
f 778 717 718
f 778 777 717
f 779 718 719
f 779 778 718
f 780 719 720
f 780 779 719
f 781 720 721
f 781 780 720
f 782 721 722
f 782 781 721
f 783 722 723
f 783 782 722
f 784 723 724
f 784 783 723
f 785 724 725
f 785 784 724
f 786 725 726
f 786 785 725
f 787 726 727
f 787 786 726
f 788 727 728
f 788 787 727
f 789 728 729
f 789 788 728
f 729 730 789
f 789 730 790
f 775 731 715
f 791 731 775
f 732 790 730
f 732 792 790
f 791 733 731
f 793 733 791
f 734 792 732
f 734 794 792
f 793 735 733
f 795 735 793
f 736 794 734
f 736 796 794
f 795 737 735
f 797 737 795
f 738 796 736
f 738 798 796
f 797 739 737
f 799 739 797
f 740 798 738
f 740 800 798
f 799 741 739
f 801 741 799
f 742 800 740
f 742 802 800
f 801 743 741
f 803 743 801
f 744 802 742
f 744 804 802
f 803 745 743
f 805 745 803
f 746 804 744
f 746 806 804
f 805 747 745
f 807 747 805
f 748 806 746
f 748 808 806
f 807 749 747
f 809 749 807
f 750 808 748
f 750 810 808
f 809 751 749
f 811 751 809
f 752 810 750
f 752 812 810
f 811 753 751
f 813 753 811
f 754 812 752
f 754 814 812
f 813 755 753
f 815 755 813
f 756 814 754
f 756 816 814
f 815 757 755
f 817 757 815
f 758 816 756
f 758 818 816
f 817 759 757
f 819 759 817
f 822 821 820
f 821 818 820
f 818 760 820
f 818 758 760
f 819 823 759
f 759 823 761
f 761 824 762
f 823 824 761
f 762 825 763
f 824 825 762
f 763 826 764
f 825 826 763
f 764 827 765
f 826 827 764
f 765 828 766
f 827 828 765
f 766 829 767
f 828 829 766
f 767 830 768
f 829 830 767
f 768 831 769
f 830 831 768
f 769 832 770
f 831 832 769
f 770 833 771
f 832 833 770
f 771 834 772
f 833 834 771
f 772 835 773
f 834 835 772
f 820 774 822
f 774 835 822
f 774 773 835
f 774 820 760
f 837 836 776
f 776 836 775
f 838 776 777
f 838 837 776
f 839 777 778
f 839 838 777
f 840 778 779
f 840 839 778
f 841 779 780
f 841 840 779
f 842 780 781
f 842 841 780
f 843 781 782
f 843 842 781
f 844 782 783
f 844 843 782
f 845 783 784
f 845 844 783
f 846 784 785
f 846 845 784
f 847 785 786
f 847 846 785
f 848 786 787
f 848 847 786
f 849 787 788
f 849 848 787
f 850 788 789
f 850 849 788
f 789 790 850
f 850 790 851
f 836 791 775
f 852 791 836
f 792 851 790
f 792 853 851
f 852 793 791
f 854 793 852
f 794 853 792
f 794 855 853
f 854 795 793
f 856 795 854
f 796 855 794
f 796 857 855
f 856 797 795
f 858 797 856
f 798 857 796
f 798 859 857
f 858 799 797
f 860 799 858
f 800 859 798
f 800 861 859
f 860 801 799
f 862 801 860
f 802 861 800
f 802 863 861
f 862 803 801
f 864 803 862
f 804 863 802
f 804 865 863
f 864 805 803
f 866 805 864
f 806 865 804
f 806 867 865
f 866 807 805
f 868 807 866
f 808 867 806
f 808 869 867
f 868 809 807
f 870 809 868
f 810 869 808
f 810 871 869
f 870 811 809
f 872 811 870
f 812 871 810
f 812 873 871
f 872 813 811
f 874 813 872
f 814 873 812
f 814 875 873
f 874 815 813
f 876 815 874
f 816 875 814
f 816 877 875
f 876 817 815
f 878 817 876
f 818 877 816
f 818 879 877
f 878 819 817
f 880 819 878
f 883 882 881
f 821 822 881
f 882 821 881
f 884 821 882
f 818 821 879
f 879 821 884
f 880 885 819
f 819 885 823
f 823 886 824
f 885 886 823
f 824 887 825
f 886 887 824
f 825 888 826
f 887 888 825
f 826 889 827
f 888 889 826
f 827 890 828
f 889 890 827
f 828 891 829
f 890 891 828
f 829 892 830
f 891 892 829
f 830 893 831
f 892 893 830
f 831 894 832
f 893 894 831
f 832 895 833
f 894 895 832
f 833 896 834
f 895 896 833
f 881 835 883
f 835 896 883
f 835 834 896
f 835 881 822
f 898 897 837
f 837 897 836
f 899 837 838
f 899 898 837
f 900 838 839
f 900 899 838
f 901 839 840
f 901 900 839
f 902 840 841
f 902 901 840
f 903 841 842
f 903 902 841
f 904 842 843
f 904 903 842
f 905 843 844
f 905 904 843
f 906 844 845
f 906 905 844
f 907 845 846
f 907 906 845
f 908 846 847
f 908 907 846
f 909 847 848
f 909 908 847
f 910 848 849
f 910 909 848
f 911 849 850
f 911 910 849
f 850 851 911
f 911 851 912
f 897 852 836
f 913 852 897
f 853 912 851
f 853 914 912
f 913 854 852
f 915 854 913
f 855 914 853
f 855 916 914
f 915 856 854
f 917 856 915
f 857 916 855
f 857 918 916
f 917 858 856
f 919 858 917
f 859 918 857
f 859 920 918
f 919 860 858
f 921 860 919
f 861 920 859
f 861 922 920
f 921 862 860
f 923 862 921
f 863 922 861
f 863 924 922
f 923 864 862
f 925 864 923
f 865 924 863
f 865 926 924
f 925 866 864
f 927 866 925
f 867 926 865
f 867 928 926
f 927 868 866
f 929 868 927
f 869 928 867
f 869 930 928
f 929 870 868
f 931 870 929
f 871 930 869
f 871 932 930
f 931 872 870
f 933 872 931
f 873 932 871
f 873 934 932
f 933 874 872
f 935 874 933
f 875 934 873
f 875 936 934
f 935 876 874
f 937 876 935
f 877 936 875
f 877 938 936
f 937 878 876
f 939 878 937
f 942 941 940
f 941 938 940
f 938 879 940
f 938 877 879
f 939 880 878
f 943 880 939
f 945 944 882
f 945 882 883
f 940 884 942
f 884 944 942
f 884 882 944
f 884 940 879
f 943 946 880
f 880 946 885
f 885 947 886
f 946 947 885
f 886 948 887
f 947 948 886
f 887 949 888
f 948 949 887
f 888 950 889
f 949 950 888
f 889 951 890
f 950 951 889
f 890 952 891
f 951 952 890
f 891 953 892
f 952 953 891
f 892 954 893
f 953 954 892
f 893 955 894
f 954 955 893
f 894 956 895
f 955 956 894
f 895 957 896
f 956 957 895
f 883 896 945
f 945 896 957
f 959 958 898
f 898 958 897
f 960 898 899
f 960 959 898
f 961 899 900
f 961 960 899
f 962 900 901
f 962 961 900
f 963 901 902
f 963 962 901
f 964 902 903
f 964 963 902
f 965 903 904
f 965 964 903
f 966 904 905
f 966 965 904
f 967 905 906
f 967 966 905
f 968 906 907
f 968 967 906
f 969 907 908
f 969 968 907
f 970 908 909
f 970 969 908
f 971 909 910
f 971 970 909
f 972 910 911
f 972 971 910
f 911 912 972
f 972 912 973
f 958 913 897
f 974 913 958
f 914 973 912
f 914 975 973
f 974 915 913
f 976 915 974
f 916 975 914
f 916 977 975
f 976 917 915
f 978 917 976
f 918 977 916
f 918 979 977
f 978 919 917
f 980 919 978
f 920 979 918
f 920 981 979
f 980 921 919
f 982 921 980
f 922 981 920
f 922 983 981
f 982 923 921
f 984 923 982
f 924 983 922
f 924 985 983
f 984 925 923
f 986 925 984
f 926 985 924
f 926 987 985
f 986 927 925
f 988 927 986
f 928 987 926
f 928 989 987
f 988 929 927
f 990 929 988
f 930 989 928
f 930 991 989
f 990 931 929
f 992 931 990
f 932 991 930
f 932 993 991
f 992 933 931
f 994 933 992
f 934 993 932
f 934 995 993
f 994 935 933
f 996 935 994
f 936 995 934
f 936 997 995
f 996 937 935
f 998 937 996
f 1001 1000 999
f 1000 997 999
f 997 938 999
f 997 936 938
f 998 939 937
f 1002 939 998
f 1005 1004 1003
f 1003 1004 1001
f 1003 1001 999
f 942 1003 999
f 941 942 999
f 941 999 938
f 1002 943 939
f 1006 943 1002
f 1009 1008 1007
f 1007 1008 1005
f 1007 1005 1003
f 945 1007 1003
f 944 945 1003
f 944 1003 942
f 1006 1010 943
f 943 1010 946
f 946 1011 947
f 1010 1011 946
f 947 1012 948
f 1011 1012 947
f 948 1013 949
f 1012 1013 948
f 949 1014 950
f 1013 1014 949
f 950 1015 951
f 1014 1015 950
f 951 1016 952
f 1015 1016 951
f 952 1017 953
f 1016 1017 952
f 953 1018 954
f 1017 1018 953
f 954 1019 955
f 1018 1019 954
f 955 1020 956
f 1019 1020 955
f 1007 957 1009
f 957 1020 1009
f 957 956 1020
f 957 1007 945
f 1022 1021 959
f 959 1021 958
f 1023 959 960
f 1023 1022 959
f 1024 960 961
f 1024 1023 960
f 1025 961 962
f 1025 1024 961
f 1026 962 963
f 1026 1025 962
f 1027 963 964
f 1027 1026 963
f 1028 964 965
f 1028 1027 964
f 1029 965 966
f 1029 1028 965
f 1030 966 967
f 1030 1029 966
f 1031 967 968
f 1031 1030 967
f 1032 968 969
f 1032 1031 968
f 1033 969 970
f 1033 1032 969
f 1034 970 971
f 1034 1033 970
f 1035 971 972
f 1035 1034 971
f 972 973 1035
f 1035 973 1036
f 1021 974 958
f 1037 974 1021
f 975 1036 973
f 975 1038 1036
f 1037 976 974
f 1039 976 1037
f 977 1038 975
f 977 1040 1038
f 1039 978 976
f 1041 978 1039
f 979 1040 977
f 979 1042 1040
f 1041 980 978
f 1043 980 1041
f 981 1042 979
f 981 1044 1042
f 1043 982 980
f 1045 982 1043
f 983 1044 981
f 983 1046 1044
f 1045 984 982
f 1047 984 1045
f 985 1046 983
f 985 1048 1046
f 1047 986 984
f 1049 986 1047
f 987 1048 985
f 987 1050 1048
f 1049 988 986
f 1051 988 1049
f 989 1050 987
f 989 1052 1050
f 1051 990 988
f 1053 990 1051
f 991 1052 989
f 991 1054 1052
f 1053 992 990
f 1055 992 1053
f 993 1054 991
f 993 1056 1054
f 1055 994 992
f 1057 994 1055
f 995 1056 993
f 995 1058 1056
f 1057 996 994
f 1059 996 1057
f 997 1058 995
f 997 1060 1058
f 1059 998 996
f 1061 998 1059
f 1064 1063 1062
f 1000 1001 1062
f 1063 1000 1062
f 1065 1000 1063
f 997 1000 1060
f 1060 1000 1065
f 1061 1002 998
f 1066 1002 1061
f 1069 1068 1067
f 1067 1068 1064
f 1067 1064 1062
f 1005 1067 1062
f 1004 1005 1062
f 1004 1062 1001
f 1066 1006 1002
f 1070 1006 1066
f 1073 1072 1071
f 1071 1072 1069
f 1071 1069 1067
f 1009 1071 1067
f 1008 1009 1067
f 1008 1067 1005
f 1070 1074 1006
f 1006 1074 1010
f 1010 1075 1011
f 1074 1075 1010
f 1011 1076 1012
f 1075 1076 1011
f 1012 1077 1013
f 1076 1077 1012
f 1013 1078 1014
f 1077 1078 1013
f 1014 1079 1015
f 1078 1079 1014
f 1015 1080 1016
f 1079 1080 1015
f 1016 1081 1017
f 1080 1081 1016
f 1017 1082 1018
f 1081 1082 1017
f 1018 1083 1019
f 1082 1083 1018
f 1071 1020 1073
f 1020 1083 1073
f 1020 1019 1083
f 1020 1071 1009
f 1085 1084 1022
f 1022 1084 1021
f 1086 1022 1023
f 1086 1085 1022
f 1087 1023 1024
f 1087 1086 1023
f 1088 1024 1025
f 1088 1087 1024
f 1089 1025 1026
f 1089 1088 1025
f 1090 1026 1027
f 1090 1089 1026
f 1091 1027 1028
f 1091 1090 1027
f 1092 1028 1029
f 1092 1091 1028
f 1093 1029 1030
f 1093 1092 1029
f 1094 1030 1031
f 1094 1093 1030
f 1095 1031 1032
f 1095 1094 1031
f 1096 1032 1033
f 1096 1095 1032
f 1097 1033 1034
f 1097 1096 1033
f 1098 1034 1035
f 1098 1097 1034
f 1035 1036 1098
f 1098 1036 1099
f 1084 1037 1021
f 1100 1037 1084
f 1038 1099 1036
f 1038 1101 1099
f 1100 1039 1037
f 1102 1039 1100
f 1040 1101 1038
f 1040 1103 1101
f 1102 1041 1039
f 1104 1041 1102
f 1042 1103 1040
f 1042 1105 1103
f 1104 1043 1041
f 1106 1043 1104
f 1044 1105 1042
f 1044 1107 1105
f 1106 1045 1043
f 1108 1045 1106
f 1046 1107 1044
f 1046 1109 1107
f 1108 1047 1045
f 1110 1047 1108
f 1048 1109 1046
f 1048 1111 1109
f 1110 1049 1047
f 1112 1049 1110
f 1050 1111 1048
f 1050 1113 1111
f 1112 1051 1049
f 1114 1051 1112
f 1052 1113 1050
f 1052 1115 1113
f 1114 1053 1051
f 1116 1053 1114
f 1054 1115 1052
f 1054 1117 1115
f 1116 1055 1053
f 1118 1055 1116
f 1056 1117 1054
f 1056 1119 1117
f 1118 1057 1055
f 1120 1057 1118
f 1058 1119 1056
f 1058 1121 1119
f 1120 1059 1057
f 1122 1059 1120
f 1125 1124 1123
f 1124 1121 1123
f 1121 1060 1123
f 1121 1058 1060
f 1122 1061 1059
f 1126 1061 1122
f 1129 1128 1127
f 1063 1064 1127
f 1128 1063 1127
f 1130 1063 1128
f 1123 1065 1125
f 1065 1130 1125
f 1065 1063 1130
f 1065 1123 1060
f 1126 1066 1061
f 1131 1066 1126
f 1134 1133 1132
f 1132 1133 1129
f 1132 1129 1127
f 1069 1132 1127
f 1068 1069 1127
f 1068 1127 1064
f 1131 1070 1066
f 1135 1070 1131
f 1138 1137 1136
f 1136 1137 1134
f 1136 1134 1132
f 1073 1136 1132
f 1072 1073 1132
f 1072 1132 1069
f 1135 1139 1070
f 1070 1139 1074
f 1074 1140 1075
f 1139 1140 1074
f 1075 1141 1076
f 1140 1141 1075
f 1076 1142 1077
f 1141 1142 1076
f 1077 1143 1078
f 1142 1143 1077
f 1078 1144 1079
f 1143 1144 1078
f 1079 1145 1080
f 1144 1145 1079
f 1080 1146 1081
f 1145 1146 1080
f 1081 1147 1082
f 1146 1147 1081
f 1136 1083 1138
f 1083 1147 1138
f 1083 1082 1147
f 1083 1136 1073
f 1148 1084 1085
f 1086 1149 1085
f 1085 1149 1148
f 1087 1150 1086
f 1086 1150 1149
f 1088 1151 1087
f 1087 1151 1150
f 1089 1152 1088
f 1088 1152 1151
f 1090 1153 1089
f 1089 1153 1152
f 1091 1154 1090
f 1090 1154 1153
f 1092 1155 1091
f 1091 1155 1154
f 1093 1156 1092
f 1092 1156 1155
f 1094 1157 1093
f 1093 1157 1156
f 1095 1158 1094
f 1094 1158 1157
f 1096 1159 1095
f 1095 1159 1158
f 1097 1160 1096
f 1096 1160 1159
f 1098 1161 1097
f 1097 1161 1160
f 1099 1161 1098
f 1163 1162 1148
f 1162 1084 1148
f 1162 1100 1084
f 1163 1148 1149
f 1163 1149 1164
f 1164 1149 1150
f 1164 1150 1165
f 1165 1150 1151
f 1165 1151 1166
f 1166 1151 1152
f 1166 1152 1167
f 1167 1152 1153
f 1167 1153 1168
f 1168 1153 1154
f 1168 1154 1169
f 1169 1154 1155
f 1169 1155 1170
f 1170 1155 1156
f 1170 1156 1171
f 1171 1156 1157
f 1171 1157 1172
f 1172 1157 1158
f 1172 1158 1173
f 1173 1158 1159
f 1173 1159 1174
f 1174 1159 1160
f 1174 1160 1175
f 1175 1160 1161
f 1175 1161 1176
f 1161 1099 1176
f 1099 1177 1176
f 1099 1101 1177
f 1162 1102 1100
f 1178 1102 1162
f 1103 1177 1101
f 1103 1179 1177
f 1178 1104 1102
f 1180 1104 1178
f 1105 1179 1103
f 1105 1181 1179
f 1180 1106 1104
f 1182 1106 1180
f 1107 1181 1105
f 1107 1183 1181
f 1182 1108 1106
f 1184 1108 1182
f 1109 1183 1107
f 1109 1185 1183
f 1184 1110 1108
f 1186 1110 1184
f 1111 1185 1109
f 1111 1187 1185
f 1186 1112 1110
f 1188 1112 1186
f 1113 1187 1111
f 1113 1189 1187
f 1188 1114 1112
f 1190 1114 1188
f 1115 1189 1113
f 1115 1191 1189
f 1190 1116 1114
f 1192 1116 1190
f 1117 1191 1115
f 1117 1193 1191
f 1192 1118 1116
f 1194 1118 1192
f 1119 1193 1117
f 1119 1195 1193
f 1194 1120 1118
f 1196 1120 1194
f 1199 1198 1197
f 1198 1195 1197
f 1195 1121 1197
f 1195 1119 1121
f 1196 1122 1120
f 1200 1122 1196
f 1203 1202 1201
f 1201 1202 1199
f 1201 1199 1197
f 1125 1201 1197
f 1124 1125 1197
f 1124 1197 1121
f 1200 1126 1122
f 1204 1126 1200
f 1206 1205 1128
f 1206 1128 1129
f 1201 1130 1203
f 1130 1205 1203
f 1130 1128 1205
f 1130 1201 1125
f 1204 1131 1126
f 1207 1131 1204
f 1210 1209 1208
f 1133 1134 1208
f 1209 1133 1208
f 1211 1133 1209
f 1129 1133 1206
f 1206 1133 1211
f 1213 1135 1212
f 1135 1207 1212
f 1135 1131 1207
f 1215 1214 1213
f 1215 1213 1212
f 1217 1216 1214
f 1217 1214 1215
f 1219 1218 1216
f 1219 1216 1217
f 1221 1220 1218
f 1221 1218 1219
f 1223 1222 1220
f 1223 1220 1221
f 1225 1224 1222
f 1225 1222 1223
f 1227 1226 1224
f 1227 1224 1225
f 1229 1228 1226
f 1229 1226 1227
f 1228 1229 1210
f 1228 1210 1208
f 1138 1228 1208
f 1137 1138 1208
f 1137 1208 1134
f 1213 1139 1135
f 1139 1213 1140
f 1140 1213 1214
f 1140 1214 1141
f 1141 1214 1216
f 1141 1216 1142
f 1142 1216 1218
f 1142 1218 1143
f 1143 1218 1220
f 1143 1220 1144
f 1144 1220 1222
f 1144 1222 1145
f 1145 1222 1224
f 1145 1224 1146
f 1146 1224 1226
f 1146 1226 1147
f 1147 1226 1228
f 1147 1228 1138
f 1230 1162 1163
f 1164 1231 1163
f 1163 1231 1230
f 1165 1232 1164
f 1164 1232 1231
f 1166 1233 1165
f 1165 1233 1232
f 1167 1234 1166
f 1166 1234 1233
f 1168 1235 1167
f 1167 1235 1234
f 1169 1236 1168
f 1168 1236 1235
f 1170 1237 1169
f 1169 1237 1236
f 1171 1238 1170
f 1170 1238 1237
f 1172 1239 1171
f 1171 1239 1238
f 1173 1240 1172
f 1172 1240 1239
f 1174 1241 1173
f 1173 1241 1240
f 1175 1242 1174
f 1174 1242 1241
f 1176 1243 1175
f 1175 1243 1242
f 1177 1243 1176
f 1244 1178 1230
f 1230 1178 1162
f 1245 1230 1231
f 1244 1230 1245
f 1246 1231 1232
f 1245 1231 1246
f 1247 1232 1233
f 1246 1232 1247
f 1248 1233 1234
f 1247 1233 1248
f 1249 1234 1235
f 1248 1234 1249
f 1250 1235 1236
f 1249 1235 1250
f 1251 1236 1237
f 1250 1236 1251
f 1252 1237 1238
f 1251 1237 1252
f 1253 1238 1239
f 1252 1238 1253
f 1254 1239 1240
f 1253 1239 1254
f 1255 1240 1241
f 1254 1240 1255
f 1256 1241 1242
f 1255 1241 1256
f 1257 1242 1243
f 1256 1242 1257
f 1179 1257 1177
f 1177 1257 1243
f 1258 1180 1244
f 1244 1180 1178
f 1259 1244 1245
f 1258 1244 1259
f 1260 1245 1246
f 1259 1245 1260
f 1261 1246 1247
f 1260 1246 1261
f 1262 1247 1248
f 1261 1247 1262
f 1263 1248 1249
f 1262 1248 1263
f 1264 1249 1250
f 1263 1249 1264
f 1265 1250 1251
f 1264 1250 1265
f 1266 1251 1252
f 1265 1251 1266
f 1267 1252 1253
f 1266 1252 1267
f 1268 1253 1254
f 1267 1253 1268
f 1269 1254 1255
f 1268 1254 1269
f 1270 1255 1256
f 1269 1255 1270
f 1271 1256 1257
f 1270 1256 1271
f 1181 1271 1179
f 1179 1271 1257
f 1272 1182 1258
f 1258 1182 1180
f 1273 1258 1259
f 1272 1258 1273
f 1274 1259 1260
f 1273 1259 1274
f 1275 1260 1261
f 1274 1260 1275
f 1276 1261 1262
f 1275 1261 1276
f 1277 1262 1263
f 1276 1262 1277
f 1278 1263 1264
f 1277 1263 1278
f 1279 1264 1265
f 1278 1264 1279
f 1280 1265 1266
f 1279 1265 1280
f 1281 1266 1267
f 1280 1266 1281
f 1282 1267 1268
f 1281 1267 1282
f 1283 1268 1269
f 1282 1268 1283
f 1284 1269 1270
f 1283 1269 1284
f 1285 1270 1271
f 1284 1270 1285
f 1183 1285 1181
f 1181 1285 1271
f 1286 1184 1272
f 1272 1184 1182
f 1287 1272 1273
f 1286 1272 1287
f 1288 1273 1274
f 1287 1273 1288
f 1289 1274 1275
f 1288 1274 1289
f 1290 1275 1276
f 1289 1275 1290
f 1291 1276 1277
f 1290 1276 1291
f 1292 1277 1278
f 1291 1277 1292
f 1293 1278 1279
f 1292 1278 1293
f 1294 1279 1280
f 1293 1279 1294
f 1295 1280 1281
f 1294 1280 1295
f 1296 1281 1282
f 1295 1281 1296
f 1297 1282 1283
f 1296 1282 1297
f 1298 1283 1284
f 1297 1283 1298
f 1299 1284 1285
f 1298 1284 1299
f 1185 1299 1183
f 1183 1299 1285
f 1300 1186 1286
f 1286 1186 1184
f 1301 1286 1287
f 1300 1286 1301
f 1302 1287 1288
f 1301 1287 1302
f 1303 1288 1289
f 1302 1288 1303
f 1304 1289 1290
f 1303 1289 1304
f 1305 1290 1291
f 1304 1290 1305
f 1306 1291 1292
f 1305 1291 1306
f 1307 1292 1293
f 1306 1292 1307
f 1308 1293 1294
f 1307 1293 1308
f 1309 1294 1295
f 1308 1294 1309
f 1310 1295 1296
f 1309 1295 1310
f 1311 1296 1297
f 1310 1296 1311
f 1312 1297 1298
f 1311 1297 1312
f 1313 1298 1299
f 1312 1298 1313
f 1187 1313 1185
f 1185 1313 1299
f 1314 1188 1300
f 1300 1188 1186
f 1315 1300 1301
f 1314 1300 1315
f 1316 1301 1302
f 1315 1301 1316
f 1317 1302 1303
f 1316 1302 1317
f 1318 1303 1304
f 1317 1303 1318
f 1319 1304 1305
f 1318 1304 1319
f 1320 1305 1306
f 1319 1305 1320
f 1321 1306 1307
f 1320 1306 1321
f 1322 1307 1308
f 1321 1307 1322
f 1323 1308 1309
f 1322 1308 1323
f 1324 1309 1310
f 1323 1309 1324
f 1325 1310 1311
f 1324 1310 1325
f 1326 1311 1312
f 1325 1311 1326
f 1327 1312 1313
f 1326 1312 1327
f 1189 1327 1187
f 1187 1327 1313
f 1328 1190 1314
f 1314 1190 1188
f 1329 1314 1315
f 1328 1314 1329
f 1330 1315 1316
f 1329 1315 1330
f 1331 1316 1317
f 1330 1316 1331
f 1332 1317 1318
f 1331 1317 1332
f 1333 1318 1319
f 1332 1318 1333
f 1334 1319 1320
f 1333 1319 1334
f 1335 1320 1321
f 1334 1320 1335
f 1336 1321 1322
f 1335 1321 1336
f 1337 1322 1323
f 1336 1322 1337
f 1338 1323 1324
f 1337 1323 1338
f 1339 1324 1325
f 1338 1324 1339
f 1340 1325 1326
f 1339 1325 1340
f 1341 1326 1327
f 1340 1326 1341
f 1191 1341 1189
f 1189 1341 1327
f 1342 1192 1328
f 1328 1192 1190
f 1343 1328 1329
f 1342 1328 1343
f 1344 1329 1330
f 1343 1329 1344
f 1345 1330 1331
f 1344 1330 1345
f 1346 1331 1332
f 1345 1331 1346
f 1347 1332 1333
f 1346 1332 1347
f 1348 1333 1334
f 1347 1333 1348
f 1349 1334 1335
f 1348 1334 1349
f 1350 1335 1336
f 1349 1335 1350
f 1351 1336 1337
f 1350 1336 1351
f 1352 1337 1338
f 1351 1337 1352
f 1353 1338 1339
f 1352 1338 1353
f 1354 1339 1340
f 1353 1339 1354
f 1355 1340 1341
f 1354 1340 1355
f 1193 1355 1191
f 1191 1355 1341
f 1356 1194 1342
f 1342 1194 1192
f 1357 1342 1343
f 1356 1342 1357
f 1358 1343 1344
f 1357 1343 1358
f 1359 1344 1345
f 1358 1344 1359
f 1360 1345 1346
f 1359 1345 1360
f 1361 1346 1347
f 1360 1346 1361
f 1362 1347 1348
f 1361 1347 1362
f 1363 1348 1349
f 1362 1348 1363
f 1364 1349 1350
f 1363 1349 1364
f 1365 1350 1351
f 1364 1350 1365
f 1366 1351 1352
f 1365 1351 1366
f 1367 1352 1353
f 1366 1352 1367
f 1368 1353 1354
f 1367 1353 1368
f 1369 1354 1355
f 1368 1354 1369
f 1195 1369 1193
f 1193 1369 1355
f 1370 1196 1356
f 1356 1196 1194
f 1371 1356 1357
f 1370 1356 1371
f 1372 1357 1358
f 1371 1357 1372
f 1373 1358 1359
f 1372 1358 1373
f 1374 1359 1360
f 1373 1359 1374
f 1375 1360 1361
f 1374 1360 1375
f 1376 1361 1362
f 1375 1361 1376
f 1377 1362 1363
f 1376 1362 1377
f 1378 1363 1364
f 1377 1363 1378
f 1379 1364 1365
f 1378 1364 1379
f 1380 1365 1366
f 1379 1365 1380
f 1381 1366 1367
f 1380 1366 1381
f 1382 1367 1368
f 1381 1367 1382
f 1199 1382 1198
f 1382 1369 1198
f 1382 1368 1369
f 1198 1369 1195
f 1383 1200 1370
f 1370 1200 1196
f 1384 1370 1371
f 1383 1370 1384
f 1385 1371 1372
f 1384 1371 1385
f 1386 1372 1373
f 1385 1372 1386
f 1387 1373 1374
f 1386 1373 1387
f 1388 1374 1375
f 1387 1374 1388
f 1389 1375 1376
f 1388 1375 1389
f 1390 1376 1377
f 1389 1376 1390
f 1391 1377 1378
f 1390 1377 1391
f 1392 1378 1379
f 1391 1378 1392
f 1393 1379 1380
f 1392 1379 1393
f 1394 1380 1381
f 1393 1380 1394
f 1203 1394 1202
f 1394 1382 1202
f 1394 1381 1382
f 1202 1382 1199
f 1395 1204 1383
f 1383 1204 1200
f 1396 1383 1384
f 1395 1383 1396
f 1397 1384 1385
f 1396 1384 1397
f 1398 1385 1386
f 1397 1385 1398
f 1399 1386 1387
f 1398 1386 1399
f 1400 1387 1388
f 1399 1387 1400
f 1401 1388 1389
f 1400 1388 1401
f 1402 1389 1390
f 1401 1389 1402
f 1403 1390 1391
f 1402 1390 1403
f 1404 1391 1392
f 1403 1391 1404
f 1405 1392 1393
f 1404 1392 1405
f 1206 1405 1205
f 1405 1394 1205
f 1405 1393 1394
f 1205 1394 1203
f 1406 1207 1395
f 1395 1207 1204
f 1407 1395 1396
f 1406 1395 1407
f 1408 1396 1397
f 1407 1396 1408
f 1409 1397 1398
f 1408 1397 1409
f 1410 1398 1399
f 1409 1398 1410
f 1411 1399 1400
f 1410 1399 1411
f 1412 1400 1401
f 1411 1400 1412
f 1413 1401 1402
f 1412 1401 1413
f 1414 1402 1403
f 1413 1402 1414
f 1210 1414 1209
f 1414 1404 1209
f 1414 1403 1404
f 1209 1404 1211
f 1211 1404 1405
f 1211 1405 1206
f 1406 1212 1207
f 1212 1406 1215
f 1215 1406 1407
f 1215 1407 1217
f 1217 1407 1408
f 1217 1408 1219
f 1219 1408 1409
f 1219 1409 1221
f 1221 1409 1410
f 1221 1410 1223
f 1223 1410 1411
f 1223 1411 1225
f 1225 1411 1412
f 1225 1412 1227
f 1227 1412 1413
f 1227 1413 1229
f 1229 1413 1414
f 1229 1414 1210
