# Asteroid shape model (convexinv -> dual reconstruction)
v 0.98285138 -0.72473202 -2.06896642
v 1.20060667 -3.03633636 3.57078817
v 1.24687670 -1.96142518 4.26032484
v 1.55520083 -3.31803480 3.81581074
v -2.77808573 -4.01287037 -2.58668074
v -0.72394738 -1.33190388 -0.85323227
v -1.40389419 1.38849750 -1.67302516
v 2.27608496 -1.79892375 1.53510415
v 1.45319616 1.48391740 3.77680820
v 2.16620267 -0.93700604 -3.81614668
v -2.72782901 -1.04361754 1.99577569
v -2.44221236 0.06067264 2.54403097
v -2.33729043 0.33402374 2.29968131
v 0.31794158 -0.38832875 -1.62912778
v -0.33737158 0.19711189 -2.73617871
v -0.10663022 0.42387256 -2.73244125
v -0.90759878 -0.13588890 -2.95890967
v -0.00566795 0.26589334 -2.48932207
v -0.38026258 -0.67820026 -2.66726280
v 0.34542011 1.07375272 -2.66726280
v 2.05905812 1.57901761 -2.14692559
v -1.21969416 -0.30843653 -2.43093176
v -1.33235192 0.00332594 -2.25079495
v 0.10550371 -0.56032708 -2.76862879
v 0.96112606 -0.22538839 -3.27393899
v -0.32026190 -0.65605213 -0.92757501
v -0.69137331 0.03435108 -1.69920220
v -0.72650499 0.05904633 -1.67302516
v -1.45739951 0.21268038 -0.68140687
v -2.27333152 0.99310559 0.22238494
v -1.51471989 0.18685919 -0.55663314
v -2.87618225 2.16574900 -2.53324835
v -3.14418861 3.52950927 -0.91527595
v -2.54259861 1.81026381 -0.91527595
v -3.77510621 -4.63212980 -0.25996306
v -4.43261678 -3.04475886 -0.25996306
v -2.31608600 -3.61967571 0.78900557
v 4.59960552 0.63015038 1.57990429
v 1.08462529 -2.45325859 3.57078817
v 0.90434002 -3.00690255 3.24426109
v -0.29164713 1.37008014 2.63166916
v -2.08395327 -2.79893982 -0.74932640
v -2.09637904 -0.16668310 -1.73065051
v -0.29820736 -1.27037128 -1.38387329
v 0.96561356 0.37643275 -3.57611999
v -0.05212662 0.44288455 -2.68295897
v 0.06216785 1.72853481 -3.57611999
v -2.89763564 -3.98132075 2.54403097
v -2.38676912 1.38352264 -1.72969396
v 2.98737775 -2.57417572 0.87168397
v 3.63567435 -1.28929869 0.51358015
v -0.56506149 -1.89807056 3.18794418
v 1.05590478 0.58607386 3.30684170
v -2.28171743 -2.03067296 4.64551022
v -2.75418235 -2.40601085 4.97198080
v -1.40267970 -0.68724569 4.41968240
v -1.70958588 -0.90298048 4.64836194
v 4.39935311 0.58482782 1.64566121
v 2.35228575 -1.46223955 1.64566121
v 2.16240927 0.77470429 2.89756957
v -2.53356542 1.01762822 0.82654807
v 0.46068049 1.23239037 -2.95890967
v -0.07515515 0.02953310 -2.33264562
v 0.31643782 0.00835377 -1.67290435
v 0.36165710 -0.03686551 -1.54362782
v 1.82240552 1.03315389 0.39713469
v 1.90927143 1.07098948 0.59216393
v 0.99880629 0.24963835 -0.62692204
v 1.00942624 0.26141228 -0.61696261
v -0.11133344 0.11557269 -2.37731633
v 1.71647002 1.73629903 -0.69092528
v 1.96906515 2.34611760 -0.69092528
v 0.33647744 -0.39100776 -1.60602475
v 0.64477096 -0.05601033 -1.29501983
v 1.65706985 0.06635525 0.55740165
v -0.73612239 -1.31867429 -0.84095018
v -1.20849145 1.66374656 -0.84095018
v -1.91573291 -1.11182071 1.16584024
v -2.58126506 2.53730237 1.51216788
v -3.06691891 0.31175532 4.69667283
v 0.98849427 0.19133655 -3.15603504
v -2.29029709 -0.97801199 0.61910080
v 1.80848691 0.39800733 -3.81614668
v 1.33889435 -0.90246557 -3.21846871
v 0.58286185 1.43533318 -2.97963854
v 0.69420147 -1.05237918 -2.66491057
v 1.14967258 -1.41421677 -2.97963854
v -0.48215167 1.37431354 -0.95533685
v -0.54076188 1.23144737 -0.91149212
v -0.41783840 1.36501828 -1.03549669
v -2.41422504 -0.14738889 1.99577569
v -2.58811948 -0.33270042 2.83921152
v -2.24474072 0.72069753 -2.58668074
v -1.32148143 0.13285594 -3.59982601
v -0.44788929 1.44027897 -3.59982601
v -0.46834920 1.28453956 -3.53769573
v -0.76798299 -0.03935701 -3.10296755
v -1.52966538 -0.48914305 -3.44567609
v 1.85331472 1.60445311 -0.61696261
v 1.62832719 1.15361712 -0.43677328
v 1.47641254 0.66541172 0.79199777
v 1.95422427 1.68645154 0.02629709
v 2.79027404 1.37829090 3.16062492
v -0.41949575 -0.57493073 -2.95263274
v 0.13853256 -0.62453952 -3.34030360
v -0.44833873 -1.01667438 -3.34030360
v -1.09181696 -0.90416782 -2.93716058
v -1.74202042 1.02587938 -1.64291653
v -1.67799918 -0.84957620 -2.46608930
v 0.73244490 0.14886244 -2.46608930
v -1.12641494 -5.33446474 -2.98396031
v -3.11264680 1.78362082 -1.48705380
v 4.00543875 -0.20261104 -2.98396031
v -3.78802024 -0.02706960 -2.92006215
v -0.40263155 2.15770089 0.21709947
v 1.11188900 -1.84419006 -1.89448062
v -0.37179359 0.58879294 -2.01819703
v -1.44579959 1.45668695 -2.21171479
v -0.17805326 0.89194525 -1.55166644
v 1.31062345 -5.12571329 -2.92006215
v 3.28400171 1.94630866 -1.43284264
v 0.52884540 -0.50725805 -2.57690159
v -0.49448470 2.10657790 -3.10056910
v -0.64687856 -0.45228632 -2.80791842
v -1.14796155 0.93539504 -3.44567609
v -1.01713597 -0.52096743 -3.10056910
v -0.86642034 -0.40123519 -2.99642545
v -1.00288097 0.13837790 -3.17681788
v 3.16405878 -1.36625903 4.23350910
v -1.58259926 2.71908987 -0.33941705
v 3.42396247 -2.68878860 2.66445302
v 2.63859111 -0.36115924 2.76108952
v 2.74128600 -2.55117407 0.55740165
v 2.84056040 -1.02152126 2.66445302
v 2.46744944 -0.41149319 2.13429598
v -0.62571399 0.45046604 -2.15153822
v -0.16824672 -0.75259242 -1.02549817
v -0.53192079 -0.95435028 0.40562559
v 3.74009814 -1.69518472 -0.63122541
v 1.09789604 0.90874144 -2.71343364
v 0.61886416 -0.27329399 -2.41505762
v 2.82885489 -2.48328472 -1.46697824
v 0.26608778 -0.10724609 -2.91935385
v 0.44890447 -0.54860463 -2.91935385
v 0.78920924 4.82622056 -3.00413959
v -4.48065038 -0.44363906 -3.00413959
v -1.41891132 0.10861759 -2.40554123
v 0.37203507 2.37744068 -4.12863050
v -1.76226666 0.82683742 -1.03446171
v -1.16610863 0.33299419 -1.30194728
v -2.01701333 0.64608069 0.10409182
v -2.26655948 1.76712965 -1.30194728
v 0.26106802 -3.61896588 2.70461845
v -2.51345080 -3.50312853 0.70020399
v 4.70229849 -2.87887258 0.04698253
v 1.13416607 -3.36394376 -2.74736046
v 0.85538590 -1.77416213 -0.04277409
v 4.87484638 -2.41078213 -0.04277409
v -0.92628042 -0.13451913 1.61128934
v -1.10099510 -1.34335857 0.10459569
v -2.05779674 2.98436814 4.26032484
v -1.84841453 1.94992088 3.48567442
v 1.63362870 0.79184133 5.66763502
v -1.65288076 2.25587946 3.95652367
v -0.22874356 1.52253536 -0.03254320
v 2.20238120 0.71214230 1.54284351
v -0.88424277 1.11850405 1.54284351
v 1.93295257 1.53564407 -0.87868191
v -1.28746763 0.18103449 0.89364618
v -0.11244714 -0.98604619 2.04847852
v -1.17641928 2.28134095 0.12144513
v 0.57202898 2.45504761 2.04847852
v -1.94958795 3.01495674 -0.06497944
v -1.49207880 -0.46017026 -0.06497944
v -2.41923200 -0.15682955 -2.79129416
v -2.67418261 1.96084574 0.22238494
v -2.63621476 1.15116416 1.03712165
v -3.00418976 -0.31896035 3.96727374
v -2.16926809 -0.59212528 1.51216788
v -1.84424571 -1.10675544 1.03084949
v -2.29059577 1.25281309 -0.22868202
v -2.94841171 2.32832743 0.70601515
v -3.01188968 2.39597307 1.01390073
v -3.06288887 2.65548437 0.70601515
v -2.21283608 -0.34311264 1.36750121
v -0.64515383 1.06037717 3.27348565
v 1.02313601 0.77695754 5.62036595
v -0.13494364 1.59101110 4.75746667
v -1.66424014 0.75844798 0.45027299
v -1.94025289 2.47962603 2.94013891
v -1.97665289 1.08821478 0.12506095
v -2.08201870 1.05722597 -0.26083341
v -2.96991844 2.83642311 0.45027299
v -0.04510392 -5.39483607 2.26079232
v 0.66321620 -2.75134941 2.26079232
v -0.97495354 -2.81974369 3.44426640
v -0.60806507 1.09652516 5.34839738
v 2.24534941 -2.24744741 -1.09045909
v -2.09591371 -0.08654640 5.63455141
v -2.31974666 -0.10116123 5.83098550
v -2.29460972 -0.38391600 5.63455141
v 4.90732473 -2.26517737 0.06189949
v 5.13932533 -2.91975700 -0.15585750
v 4.64320400 -2.90282123 0.06189949
v 1.72240416 1.72471609 -1.09045909
v 1.94567936 1.37118921 -1.42110234
v 2.50582943 -0.69922964 -0.87544463
v 2.78216516 1.37798951 -4.20671004
v 0.81353793 -2.00868717 1.52946405
v 1.66978197 1.35164032 -0.90011966
v 0.24164953 1.60207409 1.52946405
v -4.03628264 2.87132621 -0.96093455
v -2.48212357 5.47865336 -1.40793101
v 0.81938866 1.58559195 0.24937143
v 0.14546342 6.14669360 -0.57623996
v -2.50849851 5.54602985 -1.44772197
v 0.41916544 1.24270230 1.29442649
v -0.71157972 1.35917414 1.82806166
v -0.03152686 1.07802895 1.75218599
v 1.07571153 0.19506986 -0.28320516
v 0.82626560 -0.92552892 1.12226931
v 0.27561640 -0.09932149 -1.60528626
v 0.42601503 0.05179535 -1.60716392
v 0.08315893 -0.88001699 -0.06743266
v -1.14448413 -1.15329104 -1.60716392
v 0.85584972 1.68695050 -2.23221741
v 0.84989510 1.81780766 -2.34257501
v 0.05962751 0.12427641 -2.23221741
v 1.97928717 1.11295683 0.77589987
v 1.37774767 0.16049822 -0.11490653
v 1.73506231 0.13518046 0.55981801
v 2.37947337 4.15267280 0.77589987
v 1.08137261 2.70058398 -1.29501983
v -2.90339823 -2.69106111 1.83914790
v -0.61449632 -1.44897394 1.23289018
v -3.55129777 -3.55764006 -0.28565592
v -2.49938793 -3.52111982 1.40211798
v -1.11126197 -2.37054845 -0.91149212
v -1.96542740 0.98162155 1.51219355
v -1.94652110 0.67832070 1.40211798
v -1.76398160 0.96734797 1.13179932
v 0.51740961 -0.27974811 -3.15603504
v 0.21847660 0.49026955 -2.55151008
v 0.47371398 0.23503218 -2.86793762
v 0.68665250 0.46803164 -2.91048645
v 2.31254896 1.42815037 -3.64203626
v -2.37924812 0.23765606 -2.45316970
v -0.07003364 -0.72671708 2.21496065
v 0.51829050 -0.10145086 1.61081075
v -0.32488125 -0.61191553 2.76970725
v -0.42624890 1.61571015 4.64836194
v 1.05204694 -0.57850848 0.26914540
v 2.81283126 2.97073433 4.47600689
v 2.23905866 1.98998683 1.40782220
v 2.46789910 3.15444986 0.02629709
v 1.95717941 1.35286467 0.42372412
v 2.44536064 2.62471389 1.56063531
v 3.14317565 -0.53145817 4.23877575
v 3.06305591 -3.44930870 2.89087064
v 2.70141581 -0.23966407 2.89087064
v 2.80950799 -0.52127456 3.14260341
v -1.43027866 -0.66504721 -2.59138385
v 0.23383808 -0.21914848 -2.59138385
v -1.38722337 0.36620659 -1.84636816
v -0.58893854 0.62500682 -1.45939172
v -0.69069745 -0.39924973 -2.58826503
v 1.32512593 0.00172247 -2.58826503
v 0.24474030 1.12079585 -1.03590563
v 0.27730758 1.34612674 -0.75505392
v 3.84142151 1.07981394 -1.52096004
v 2.66977679 0.61728913 -2.09770174
v -0.48935396 2.23929955 0.30089311
v -0.23736634 0.97632454 -1.48879440
v -2.15753741 1.95470057 -1.48879440
v -0.45926516 2.03198010 -0.05656673
v 1.37384281 0.36736670 0.26655587
v 1.20914945 0.29317706 -0.09194494
v 0.49572023 -0.48483287 -2.21171479
v 0.29104709 1.25201381 -0.38693759
v -0.11944995 0.57244869 -1.89448062
v 0.09046623 0.42489147 -1.73806952
v -0.54762835 -1.86470921 -3.83316031
v -1.94965580 0.23357316 -3.83316031
v -0.37025855 0.13044881 -2.44709333
v -1.38205492 -0.75227366 -3.63339068
v -1.62302328 0.14703248 -3.63339068
v -1.06572291 0.12376495 -3.23077639
v 0.60268025 0.19310487 -1.28054185
v 0.64871925 0.14307804 -1.23409794
v -0.53739818 -0.55133139 -3.17337420
v -0.42648797 -0.44042118 -3.03587456
v -0.28349257 -0.76357817 -3.20502760
v -2.08016308 0.43691868 -3.20502760
v 0.68985769 -0.74331559 -2.70663303
v -0.59123191 -0.07514419 -2.53296797
v -0.90216697 -0.27864508 -3.30905127
v -0.62005550 -1.52512132 -3.71835692
v 0.85345096 0.40860247 -2.27222509
v 1.27176244 -0.06593061 -2.29608724
v 0.15929869 0.38490664 -2.57690159
v 1.65206585 -1.00434855 -2.53296797
v 1.71164769 0.74105816 -1.76687609
v 0.95488950 -1.19212913 -2.90857052
v -1.51118811 -0.63398872 -3.71835692
v 2.43150595 0.88575212 -2.47032200
v 1.72114853 1.19515764 -0.87544463
v 3.04136145 -1.20923056 -2.06117824
v 2.30378832 1.39258968 -2.63513593
v -1.34811127 1.50861293 -2.46677224
v 1.06347610 -1.88411232 0.18092091
v 1.83720694 -1.15494701 -1.74465005
v 0.63015416 -2.48762861 1.61732603
v -0.15445159 -0.65714478 -1.14446380
v 0.39838062 -1.16590866 -0.63122541
v 1.51114416 -2.91190372 2.48849342
v 1.72530810 -2.18371973 -0.17842592
v 3.92981465 -3.53206024 1.73744442
v 3.80439905 -3.01943978 0.18092091
v 2.71213253 -3.41402098 2.76036872
v 2.33318235 -3.22801668 2.58303118
v 0.65288663 -2.16680076 1.01150022
v -1.35172897 0.53456199 -3.59743051
v 0.66577037 0.99309016 -2.93636569
v -0.40123293 0.49383950 -3.09517948
v -0.04227442 1.40951155 -3.59743051
v -0.43327595 0.52588253 -3.13490445
v -1.19193298 0.56095578 -3.53769573
v 0.40861654 0.66939207 -2.71269213
v 2.65016064 0.16517668 -2.68773312
v -0.31808393 0.75559723 -2.68773312
v -1.27762879 4.42272238 -3.02026449
v -1.37795851 1.30830038 -2.93210460
v -3.17082187 -2.36193886 -1.59347586
v -0.83654583 -0.02766282 -2.59487326
v 3.61383937 -0.46874578 -3.02026449
v 0.16394327 0.66962375 -2.93210460
v 0.29004844 1.41155222 -3.58806984
v -0.22030698 0.90119680 -2.95536269
v -0.73041388 2.05399345 -3.55878164
v 1.39992622 0.63054571 -3.55878164
v -0.57538974 1.07948663 -2.91153886
v -0.70320116 1.93694507 -3.48530794
v 1.25593689 1.49353886 -4.12863050
v -0.32297300 -0.65399036 -0.92587743
v -1.63038710 0.65342374 -0.92587743
v -1.12777486 -0.15137812 0.71652546
v -2.55314806 1.58148600 0.75031962
v -2.95802461 2.59022475 -0.76321637
v -2.05150118 1.14750099 -0.76321637
v 0.31063869 -1.22511656 -0.39390401
v 2.26443700 -2.45276940 -0.39390401
v 0.89835978 -1.90446825 1.65579124
v -3.30617180 -3.17668940 -2.63543424
v 1.20690580 -2.33735349 -0.80882904
v 3.87689558 1.80630894 0.88606028
v 0.01711697 -2.05346967 0.88606028
v 5.37078370 -3.54735779 -0.23979561
v 5.87181056 -2.61977892 -0.33942665
v 5.78910950 -0.19711137 0.72392776
v 2.67535690 -1.48686993 0.72392776
v 0.91095364 -2.42689084 0.82654807
v -3.86673155 -3.76005697 -0.17818108
v -4.46088539 -4.35421081 -0.43307129
v 4.51931240 0.49417938 1.51872600
v 4.45386451 -1.07341883 0.38623538
v 1.98970580 -0.18362666 1.51872600
v -0.29990892 -0.78678091 1.39749405
v -0.04333500 -1.03198655 0.63582414
v 2.24735603 -0.92774912 2.56766461
v -0.34264016 0.39191985 2.56766461
v 1.93042456 1.61847495 -1.15079972
v 3.18140502 1.13830390 -0.03254320
v 2.81960212 1.52253536 -3.08088888
v -1.17299330 -0.10513506 2.20635569
v -1.17186071 -0.10898599 2.22045945
v -4.48983017 0.93962093 1.75681360
v -0.45427262 -0.76920215 5.65508650
v 0.06123597 0.02469550 5.01072961
v -0.86952269 -1.91996874 1.30621887
v 0.19116943 1.12730480 3.85229902
v 1.64909175 4.40008536 2.14833558
v -1.04137334 -0.10523797 3.85229902
v 0.03189632 4.21904881 0.79993151
v 0.57562287 5.08612407 0.49634064
v -2.18370625 2.66304576 -0.24704921
v 0.15058451 2.12024163 1.75726277
v 0.64564458 4.29847936 1.04352954
v -1.19389028 4.80733991 -0.57623996
v -0.60475095 2.72896781 0.89364618
v -1.82773401 2.00677611 0.34338174
v 0.24719606 4.70560726 0.54524774
v 1.19913432 5.12683530 1.04352954
v -1.48750062 1.73156780 -0.74932640
v -2.51813965 -0.46909862 -1.61467221
v -2.20637184 0.42188259 -1.61467221
v -2.69622612 1.33610386 -4.30361078
v -2.00037402 1.35734142 -2.01758218
v -2.82994681 4.57280456 -2.38849772
v -2.37885374 0.56924286 -2.38849772
v -2.90472599 3.34538450 2.27832735
v -2.90472599 0.95904806 4.66466380
v -2.60393807 0.67581790 2.27832735
v -0.09342439 1.01165856 4.10550755
v -1.18940540 0.74531879 1.89257005
v -1.03915511 0.58563397 2.04686204
v -2.05902125 2.84475716 1.89257005
v -0.01168631 2.80791068 5.62036595
v -0.91966656 -1.36650970 0.78269307
v -0.99023079 -1.37150958 0.64944519
v 1.42295410 -2.93194678 3.89066004
v 0.17493934 -1.57583092 2.63166916
v -0.72876761 0.38424096 2.07596195
v -0.97797567 0.72755532 2.32198772
v -0.11538237 0.10140848 2.94013891
v -1.52643213 0.62059780 0.60851339
v -1.62784075 0.73731752 0.64854179
v -1.53464481 0.61477046 0.57180803
v -0.65406615 2.93184746 0.29277247
v -0.57923306 0.99243510 0.87168397
v 4.36779825 2.37285560 -0.16865803
v -0.77726539 -0.33930089 3.83988044
v -0.15789358 -0.20802164 3.28344582
v -0.47360871 -0.64295757 2.97176225
v -2.24942474 -1.81290995 3.28344582
v -2.21309144 -0.50850121 5.34839738
v 0.80764170 1.11804402 3.08501838
v 0.48125736 -0.34818912 1.24604330
v -0.63165092 -0.75767864 3.08501838
v -0.91388842 -1.89478045 3.13797223
v -1.29008354 -1.84040863 3.60686063
v -0.35600425 -0.82542085 2.66456625
v -1.74624475 0.66133002 4.64551022
v 0.20784272 2.73456879 2.66456625
v -1.14617048 1.02336161 3.18794418
v 1.16475173 -0.33915027 1.31112292
v 0.21478826 1.26589778 1.46453729
v 0.33823340 0.87588749 1.55192446
v 0.84283244 0.94881766 0.92299382
v 0.50557973 -0.12737741 2.02023810
v 0.46732176 0.50516590 1.94168281
v -0.51252015 1.15987533 1.94168281
v -0.00489410 1.04450437 1.77535129
v -2.37395782 2.31001659 -0.01715667
v 1.69855761 3.99690771 -0.01715667
v 1.72932591 1.19846776 0.83560686
v -1.01508925 2.76819364 0.36512412
v -2.63609876 2.41659663 -0.08242546
v -2.41881972 2.19931759 0.01078659
v -2.62348575 -1.11481902 0.36512412
v -1.41796988 -1.94882804 0.83560686
v 0.79288727 1.21157258 0.95563988
v -0.36039954 1.90478265 0.56030394
v -2.54674132 4.66132692 -0.98031560
v -3.10706149 4.86365500 -1.23783040
v -3.12194356 4.50720194 -0.98031560
v -0.98163654 1.26701751 1.75218599
v -0.07948847 1.56078755 1.22011882
v -1.58314327 0.60613695 2.67355728
v -0.12964981 1.21372450 1.65269709
v 0.96996474 0.20176437 2.67355728
v -0.33596497 -0.95308338 -0.92745062
v -0.40439287 -0.80118049 -1.25810944
v -1.09550527 -1.45146047 -0.59033710
v -2.05515163 -0.87485214 -2.37731633
v -0.75674602 -2.22069748 1.07822429
v -0.78988242 -1.75303680 0.19513105
v -3.77022712 -2.55936654 -0.59033710
v -1.66416984 -2.00626091 0.02012336
v -1.53236087 -2.45442779 1.66150095
v 1.89724629 -0.07586057 0.88993542
v 2.64550619 -3.89251681 1.34977164
v 1.14868558 -3.01358512 -1.23409794
v 2.06831269 -0.06373955 1.21296360
v 2.16069576 -0.21001599 1.34977164
v -2.66772700 -3.49237254 -1.09559516
v 1.06375623 0.70632248 3.41237098
v 0.94192264 0.89695979 3.70574870
v -0.24660782 -0.79385392 2.44590277
v 1.21565912 0.69281830 3.30684170
v 2.56542691 -1.71983151 -0.29241828
v 3.90122206 1.30318096 2.42687553
v 2.71775902 -0.18652943 1.39749405
v -4.30079694 -3.54575092 0.62471071
v -2.22590751 0.39512485 2.00081063
v -1.61049479 0.66317595 0.61910080
v -2.10428569 0.35935503 1.55537979
v -3.18761154 -1.81144215 0.68775938
v -1.72934798 -0.39625748 -0.71345197
v -2.17591855 -0.61181954 -0.10951741
v -1.91921667 -0.54070270 -0.59469961
v -1.72932412 -0.39629111 -0.71360226
v 0.13603742 -0.76458862 -2.79271469
v 0.81449730 0.87335841 -2.79271469
v -0.45991388 0.91686218 -2.23335163
v 1.70154214 -0.85215812 -3.64203626
v 0.60360492 -1.95997214 -2.92182553
v 0.89944088 1.36915250 -2.62115500
v 1.30209543 1.55157679 -2.92182553
v 1.03328693 1.33802862 -2.73608038
v 0.61071835 0.98772120 -2.45272891
v 0.70714736 -0.09696799 -3.20627918
v 1.46937471 1.04378586 -3.20627918
v -0.48408290 0.57001436 3.45172808
v -2.22219578 -1.16274286 3.43772654
v -2.79725293 -1.08905105 1.19715671
v -3.34560129 -1.96708732 -0.59469961
v -2.96360339 -1.25333202 1.52516130
v -2.68605461 -1.01321887 0.68775938
v -2.26621003 -0.54775278 0.29402737
v 2.23966860 2.18939744 -2.09643577
v 1.83294740 4.15207519 -0.02665257
v -1.24954313 1.36869223 -1.02222777
v 0.43923379 1.79900897 0.19879158
v 0.56509258 1.08128217 -1.02222777
v -1.72851577 0.47823670 -2.19968885
v -1.08882546 -0.26671888 -2.70663303
v 0.64383825 0.35893506 -1.91032661
v 0.34964606 0.06486461 -2.19968885
v 0.52432623 -0.15501793 -2.35162645
v 0.70359436 1.54954080 -0.31216665
v -0.43123923 -0.46610439 -2.81934928
v 0.34607989 0.24925170 -2.09770174
v 0.50724595 1.16832296 -0.53414887
v 0.09982835 1.67923071 -0.10889487
v 1.91920588 -0.77891660 -0.27407383
v -0.62721295 -2.50986621 -3.30082284
v -1.18233969 0.28094437 -3.30082284
v 0.23569428 0.14006405 -1.73795200
v 1.36335340 1.57541946 -0.50802491
v 2.12516447 -0.02580981 0.24717418
v 1.24954083 1.52415016 -0.26028026
v 1.08349561 0.20741975 1.64271226
v 0.09130283 1.76761182 1.31112292
v 0.52395801 1.46348377 0.98874626
v -0.29324294 1.58415830 1.64271226
v 0.43115435 1.26146176 1.26555697
v 0.96181761 0.50653561 1.82806166
v 0.76843646 1.42652197 0.57989894
v 0.93836117 1.43902386 0.34875631
v 3.07996953 -1.63887724 1.64373726
v 1.79162201 0.41151608 1.64373726
v 2.50456058 -0.20526170 3.79476864
v 1.25890746 1.32090310 -0.87657377
v 2.17973773 0.12023069 -0.20517808
v 2.91025949 -2.73069316 -3.10288052
v 2.50463438 0.86932929 -3.10288052
v 2.95412875 -0.76534374 -2.58780791
v 2.51182788 -0.16706732 -1.20713865
v 2.77985609 -0.83485220 -0.20517808
v 2.84555147 -0.64963778 -2.06117824
v 1.98651003 0.75487575 -0.84055777
v -1.18557254 0.12931681 -1.01764715
v -1.05937321 0.25551614 -1.37843596
v -0.89249867 0.02562620 -1.21369234
v -0.17239593 -1.24639357 -0.04986359
v 0.19372357 -0.03322192 -2.46677224
v 0.75917751 -1.24174951 -1.21369234
v -0.00625671 -0.87758163 -0.85268519
v -0.68473980 0.35810629 -2.00940290
v -0.43497368 0.00278685 -1.74465005
v 0.77575422 0.52011238 -2.53024874
v 0.29022667 -0.52226370 -1.39932159
v 0.25763806 -0.29678525 -1.68035721
v -0.54965354 -1.03972460 -0.93088381
v -3.53551885 -1.51263921 -0.93088381
v -1.93666263 0.20288704 -2.71269213
v 1.37971394 1.41009563 -3.50201996
v -0.72513475 1.97408813 -3.50201996
v -0.67067652 0.66971256 -2.55969106
v -1.02892338 -0.22169178 -1.30856061
v -0.06991408 -0.82060916 0.64854179
v 0.96415096 -1.93666489 -2.13354343
v 4.79598410 -3.30837559 0.13707051
v -2.96554412 -1.63743779 0.57894289
v -6.08563743 -0.34505282 0.57894289
v -4.47503457 1.55342984 2.06830519
v -4.05818555 0.84752408 1.75069258
v -0.47354661 2.07214681 4.44081633
v -1.85613265 2.89513276 4.36588373
v -1.91947775 3.03828712 4.44081633
v -1.68386949 0.21132801 1.75069258
v 1.82032418 -0.39207787 1.82752583
v -3.99675545 -0.62384053 0.68772466
v -1.25630349 0.21990143 1.82752583
v -3.22445987 2.69736201 3.53943711
v 0.83631764 1.87816396 -0.74183889
v 0.07655524 2.14401632 -0.74183889
v 0.67922298 2.02557998 -1.45684708
v -0.07641538 2.30606439 0.74703692
v 2.93010548 1.29867324 -0.31216665
v 2.69388170 1.54954080 1.67812069
v -1.55493505 -1.76610481 5.90150758
v 1.63253949 0.02251885 5.04236853
v -1.71930984 -1.36586260 5.04236853
v -1.73049275 -1.37638480 5.05317377
v 0.13545878 0.01550256 3.32612250
v -0.96703481 -0.68079378 4.35725220
v -0.78222182 0.13387218 1.86674794
v 1.49304628 0.93002292 1.86674794
v -0.31176885 0.57534040 -0.27449428
v -2.05691498 -0.69177396 -0.99070731
v -0.35602143 0.37696829 -0.99070731
v -1.54527004 -0.10035933 0.79367003
v 0.59004603 3.65564610 1.35922768
v -1.83832929 1.88211024 -1.44275995
v -1.41152286 1.85186859 -0.63681263
v -1.78040754 0.48840219 -0.27747184
v -0.36948775 3.45395208 0.05741024
v -0.29924483 1.91031450 1.35922768
v -0.24032516 2.14604640 1.28818988
v -0.22245335 2.16546624 1.30621887
v 0.48818098 -0.35310181 1.21509918
v 0.91716583 0.21098746 1.56830791
v -0.69252797 -1.33900125 1.72439726
v -0.44324668 -1.14942505 1.56830791
v 0.39417929 -0.62643850 -0.14067277
v 0.06331096 0.06251943 2.35219933
v 0.62097565 0.19219594 1.87336694
v 0.09529646 -0.07821507 2.39831316
v 0.41767599 0.20068379 2.02023810
v -0.84923179 1.33537136 2.39831316
v 0.33106411 0.81309618 1.78050003
v -0.54046354 3.06245202 0.20669250
v 0.58558802 2.76072741 0.20669250
v 0.55645396 3.45854201 -0.29743444
v -0.44776959 2.66306714 2.53333881
v -1.50150363 3.08600340 0.95229080
v 0.00557354 2.13904406 0.95229080
v 0.94088855 1.81420535 -0.65095946
v 0.94946318 1.84336014 -0.75773672
v 1.20516249 1.25630563 0.56030394
v 0.84458991 1.59557480 0.21190852
v -2.69647179 -2.95717187 1.97830778
v -3.08594203 -3.21172808 2.37106076
v -0.41006033 -1.57145851 1.39091205
v -0.64512541 -1.04963824 2.52679878
v -2.26946272 -2.57800619 0.95731813
v -1.66102168 -1.51453377 2.44590277
v -4.70790274 -3.58804112 0.95731813
v 0.56351867 -2.18251326 -0.46984536
v 2.38943406 -0.50214845 1.22529803
v -2.84449274 -2.72228924 -0.46984536
v 0.32714715 -3.53045384 -2.76300417
v 0.23644470 -2.25035210 -0.34576182
v -0.51697744 -0.42239771 -2.71789490
v -0.19254075 -0.27787122 -2.88681189
v -2.07170044 -1.32670104 -2.25092145
v -0.50350825 -0.12338485 -2.25092145
v -0.70057968 -0.21714482 -2.15797526
v 0.07956331 1.32717484 -1.63531776
v -0.99122330 -1.07655377 -2.88681189
v -1.13727891 1.16610602 0.13315554
v -2.34540833 -1.37322722 -1.06448816
v -0.90702696 -0.36206756 -2.13615373
v -1.59799073 -0.39917363 -1.06448816
v -1.17613862 -0.09295590 -1.36679561
v -0.00812665 3.29116926 0.84401300
v -1.10023409 2.13048616 -0.27747184
v -1.71598281 1.86228871 -1.65993603
v -1.38492887 1.76492346 -0.44747578
v -1.97817736 -0.16495893 1.46712798
v -2.36823496 -0.95692482 2.51785250
v 1.70363968 0.79289155 -0.84809347
v 2.32751985 0.81193250 -2.89767834
v 2.35862823 3.10339123 -0.33840066
v 1.28765556 0.23365620 -0.11654914
v 1.36815290 1.95029848 1.61081075
v 1.13399768 0.27884804 0.44621132
v 1.68618751 1.18166607 -0.33840066
v 0.69090930 -0.55291983 0.95108899
v 1.35115396 0.49249066 -0.02665257
v 1.35285421 0.94772379 -1.03206712
v -0.10407461 0.65727066 0.65049273
v 1.33439263 0.93995844 -1.05611241
v 1.10432274 0.71946805 -1.52096004
v 0.56326229 0.37775322 -2.02699790
v 1.34324163 1.44971758 0.62635506
v 1.32762512 0.93803997 -1.05461951
v -0.38873150 0.36064449 -0.97763381
v -0.47903333 0.30541326 -1.05611241
v 0.46465895 2.15783931 0.87637827
v 1.51812227 1.49250877 -0.10889487
v -1.71893579 2.74860902 0.30089311
v -0.69017847 2.70036820 1.33607334
v -0.08698428 2.30814140 0.73449791
v -0.07366043 2.30347918 0.73449791
v -0.69511611 2.68357960 1.27458636
v 1.39432067 1.87090522 1.00378837
v 1.39378773 1.88836695 1.06115403
v 0.35569280 1.31665952 -0.20212322
v 0.49476250 1.12507413 -0.33941705
v 0.25529000 1.38954080 -0.27407383
v 0.04125309 2.35761941 1.69724679
v -0.06723802 2.20471917 1.01388120
v 1.41662250 0.82726412 1.29206115
v 1.54188436 0.91614427 1.85190097
v -0.83093907 0.10979178 -2.71343364
v -0.62177927 1.02475291 -3.17253431
v 1.14912578 -0.59199636 -2.05473156
v 0.54399698 0.95384393 -2.96766806
v 0.81287262 1.40916672 -3.17253431
v 4.23040849 -3.63583678 -1.60750012
v 0.12448360 -0.65944653 1.44676093
v 1.47995047 -1.93482949 0.13707051
v 1.45856240 -1.29415639 2.07596195
v -0.25125100 -0.91355095 -0.06851573
v 2.02154991 -3.17827592 -2.65468547
v 0.28387106 -1.15032369 0.23895351
v -0.14486138 -0.76361240 0.60161298
v 2.54536848 -2.57131670 0.23895351
v 2.24425590 -2.42104792 0.11860536
v -2.61565790 -2.29605260 1.22364396
v -2.20459765 2.54666776 3.93387833
v -2.86399637 0.41019426 2.71569478
v -0.17970930 0.97821041 3.64406655
v -4.27366649 1.34216371 0.79993151
v 0.16831692 0.43364155 4.48212065
v -2.38785591 1.77076226 1.41784646
v -2.77756089 1.28021247 1.75681360
v 3.89006581 0.50980596 3.32612250
v 0.46319505 1.01722017 0.38054946
v 0.97988237 0.83757152 1.16468634
v 0.45152253 0.63476812 1.63698935
v 1.44128938 -0.56662450 4.73683759
v -1.20295246 -0.98543126 4.73683759
v -1.01955417 0.06042231 2.95759869
v 1.31526064 0.43688534 -0.64455182
v 1.73602141 1.48519923 0.92836365
v 0.79393300 -0.01412590 0.92836365
v -2.86622245 -2.67250872 1.82428955
v -1.26382734 -2.02935687 -0.57998277
v -0.57443630 -1.23248404 1.82428955
v 0.01173849 -0.77936170 -0.51729694
v 4.42145143 0.92773731 -0.22395439
v 1.27335074 -0.30460629 1.63523898
v 2.74110761 0.87037648 0.51358015
v 2.51082040 1.62090852 0.29277247
v 2.82949802 0.83455536 0.49126815
v 2.59487958 4.08336105 -0.78804432
v 1.48253560 1.24180705 0.89010988
v 0.06676214 2.32769865 -1.17231334
v 0.40708339 1.93431849 0.01456740
v -0.72426801 2.64519369 0.01456740
v 0.56631377 1.75343946 0.53683982
v 0.82960829 1.55320633 0.37197598
v 1.87747841 1.08688299 -1.14838447
v 1.53013352 0.84042274 0.40402346
v 1.69144383 0.62830940 0.53683982
v 1.03291625 1.39763579 0.24717418
v 0.95414921 1.45481190 0.30362018
v -3.28015748 -2.99464609 1.42452961
v 1.62215985 -3.17668940 -0.95142229
v -4.29608281 -3.84351520 -0.95142229
v 0.69292108 -0.18512776 -3.15811497
v -0.93227819 -1.01320815 -3.15811497
v -0.74446690 -0.11971972 -1.94590248
v -0.84905584 -0.36024095 -1.55540352
v -0.02768796 1.25178427 -1.55540352
v -0.91393368 1.06549540 -0.35301737
v -1.63048619 -0.26214699 2.63019311
v -1.80994529 -0.49602265 2.63019311
v -1.76924986 -0.31320445 2.40089934
v -2.83101119 -1.07424840 0.35813228
v -2.68230724 -0.94560157 0.80679203
v -2.95102935 -1.37327035 0.80679203
v -2.95055126 -1.26069409 0.70635462
v -3.58931870 -2.28351283 2.79367642
v -1.92773252 -0.62192664 2.79367642
v -1.78081697 -0.25127888 0.19201955
v -0.17154254 0.39463411 2.60661377
v -2.47316767 -1.05157281 2.60661377
v 1.37299883 1.25505771 -2.14748960
v 4.68517477 1.25505771 1.16468634
v -0.72646488 -0.24150066 -2.18298627
v -0.41914750 0.46406267 -0.59887249
v 1.15513746 0.53788455 -2.18298627
v 1.04969153 1.49992852 3.21784125
v 1.71393683 0.43631366 1.04726459
v -0.01392334 2.16417383 1.04726459
v 0.55178328 -0.46548237 0.82811355
v 0.99646766 0.24656319 -0.62499651
v -0.16026227 -0.91016674 -0.62499651
v -0.91642519 -1.77284611 1.89379928
v -2.34710838 -2.34707810 -0.25283232
v -0.30090898 -1.06136580 -0.25283232
v 1.08937473 1.57140680 0.84039333
v 0.31620769 1.50577876 1.27309721
v 1.02374670 0.79823976 1.27309721
v -0.14023106 2.06411952 0.67638660
v 1.33173729 0.93463848 0.67638660
v 1.01039148 1.80799028 -0.76674419
v 4.75068161 1.33056700 -1.03206712
v 1.71334988 1.33056700 2.00526460
v -1.85734036 -0.21695453 -0.96131808
v -1.61731337 -0.77091813 -0.37581543
v 0.64454781 -2.11366717 2.23043816
v 0.15230014 -2.57331303 2.55938134
v 0.57944351 -0.90167484 0.94411784
v 0.65517864 -0.97740997 0.94411784
v 4.88390240 -2.57331303 0.03028724
v 3.65282178 -1.51488399 0.53672340
v 3.51788175 -0.90167484 0.65470693
v 2.84694102 -1.51488399 0.78118466
v -0.56054205 -3.18101823 3.20784059
v 0.01731307 -2.93063927 2.59708620
v -2.59747815 -0.70710617 2.77069535
v -2.55341630 -0.48681466 2.54361938
v -2.26556989 -0.11396403 -0.00608358
v -2.14491625 0.47313151 -0.64400499
v 2.20754695 1.82356766 -0.52238118
v 2.20754695 2.32173590 -1.02054942
v 0.06633672 0.09822952 -2.39775193
v -0.11391624 -0.11142641 -2.48399920
v -0.12790447 -0.51231335 -2.60736455
v 0.06633672 -0.72484169 -2.64742785
v 0.46671820 0.31006464 -2.49305082
v 0.27482939 0.14508707 -2.57198914
v -1.45637999 0.31006464 -3.52096822
v -1.20794236 0.07808116 -3.35495044
v 0.16860298 0.14508707 -2.60421257
v 0.67295276 -0.31586558 -2.50913858
v -2.43464678 1.62229892 -0.83095299
v -2.29536843 1.41500187 -0.51004980
v 4.40364965 -3.70112140 0.25026024
v 4.17332869 -3.65378828 0.00000000
v -1.53614279 -3.37331341 1.26978674
v -1.64310107 -3.27343904 1.19831216
v -0.77562008 -0.77091813 1.19888195
v -0.02566730 -1.88461438 2.32763652
v -0.29096400 -3.37331341 2.29167856
v 1.04210278 -1.88461438 3.62871813
v -2.19963149 -0.48681466 -1.04841806
v -2.19963149 -0.08240160 -0.64400499
v -2.39085461 -0.21695453 -2.72007884
v -2.41776736 -0.08240160 -2.85877569
v -2.31882856 0.72341351 -1.04841806
v -2.33339713 0.79430355 -1.12544517
v -2.84261346 2.38555091 -0.83095299
v -2.74700800 2.15779588 -1.12544517
v -0.38319389 3.05144886 0.19004936
v -1.92694044 4.70469045 -0.91472488
v -2.25241061 -0.70710617 1.63316014
v -2.30771590 -0.57946587 1.76806744
v -1.02517186 -0.57946587 -0.63140370
v -0.95656528 -0.47758361 -0.73466351
v 0.30623046 -0.63534853 -2.86517476
v 0.13464798 -0.78286760 -2.79458997
v -2.15471353 0.25148042 -0.00608358
v -2.39494438 -0.32080684 0.73389624
v 2.24913932 2.74403031 -1.02054942
v 2.18412803 2.42768809 -0.67682091
v 1.92416734 1.57071253 -0.67682091
v 2.09648257 1.98120857 -0.14604063
v 2.57967483 1.82356766 3.25589657
v 2.32256472 0.53812065 1.93086081
v 0.29588555 0.42329022 -1.87594808
v 1.38063311 1.15374922 -0.77653361
v 1.38063311 0.86383812 -1.31891914
v 2.72977562 1.44840833 0.10703468
v -0.82073643 0.07808116 -3.03717875
v -0.65962723 -0.10183714 -2.87558941
v 2.31559453 0.72654219 -0.52238118
v 2.54099193 -0.37023212 0.66934276
v -0.58749215 -0.78286760 -2.57553115
v -0.51408781 -0.71577940 -2.58936846
v -0.12790447 -0.71577940 -2.62740420
v -0.52781829 -0.31586558 -2.62740420
v -0.52781829 0.08033890 -2.66642694
v -0.52787777 0.08040398 -2.66643920
v 0.08009787 -1.86894635 0.89140140
v 0.25009287 -1.67122166 0.97274045
v 0.57944351 -2.38294053 0.79822590
v 0.25009287 -2.02258264 0.86615626
v -1.95375558 -2.11366717 4.36281064
v -0.65721245 -0.66575583 3.06240357
v 0.70379103 -0.66575583 1.40401603
v 0.01370922 0.35903071 2.44265875
v -0.38319389 3.83866742 -0.23072772
v 0.46990458 2.84641100 0.17746206
v 0.65517864 1.05606154 0.74383838
v 0.46990458 0.85334455 0.78205216
v -2.78756906 -3.27343904 0.58658127
v -4.52904418 -1.77619524 -0.12981858
v -1.28918309 -0.97740997 0.75261492
v -2.16317130 -1.77619524 0.58786112
v -0.50436752 2.49873370 0.34048522
v 0.00727388 2.15497307 1.13252423
v -1.92694044 1.33770616 1.84848772
v -1.71417213 1.14718118 2.03958050
v 2.25664278 0.53812065 1.71354530
v 2.01285348 -0.02452607 1.11886518
v 0.91073199 -0.10183714 -0.96210116
v 0.85867143 -0.02452607 -1.04045757
v -0.00000000 -3.70991252 4.74316767
v 1.71671093 -0.63534853 -3.61909228
v 1.87072268 -0.49153705 -3.72201022
v 0.71445608 -0.47758361 -2.77080894
v 0.72695080 -0.49153705 -2.78334090
v -2.90430563 -1.27375470 0.73389624
v -2.78167757 -1.09123935 1.01643647
v 2.34184660 2.32173590 -2.38411666
v 2.53613586 1.35036788 -3.38540053
v 1.50004356 0.35903071 -0.33807721
v 1.92958023 1.35036788 -1.38585461
v 0.29588555 0.32685450 -1.99345535
v -0.19407147 -0.11188122 -2.43349858
v -0.11391624 -0.33492708 -2.60346279
v -0.19407147 -0.24908659 -2.54610012
v 1.15283760 1.21483323 1.13252423
v 0.95871692 1.40895391 1.49466651
v 2.65526595 -0.74694308 0.66934276
v 2.90863682 -1.35053297 1.44979757
v 2.30935338 -0.23680138 1.49466651
v 2.32882738 -0.26578581 1.44979757
v 0.01731307 -1.22229502 -0.59900109
v 0.30236544 -1.41424666 -0.31009452
v 0.30236544 0.34074188 -2.44855424
v 0.33840498 0.37301376 -2.48092230
v -0.98676619 -0.17953459 -0.51004980
v -1.07134876 -0.09495202 -0.35225659
v 4.99862018 -3.88160374 0.25026024
v 4.60739054 -3.71737602 -0.25560816
v 1.01012629 -1.80317444 -0.35225659
v 0.94769333 -1.76122711 -0.25560816
v 0.08009787 0.08791441 1.93736527
v 0.43520975 -0.29238488 1.68323129
v 0.89211794 -0.32266776 1.73296591
v 0.43520975 -0.73180965 1.32260470
v -0.07411864 2.26876088 0.34048522
v 0.68384002 1.95059014 -0.63957176
v 2.79508556 1.29790079 -0.77561927
v 2.92029360 1.27216937 -0.63957176
v -1.71417213 -0.82449482 4.44207466
v 0.19460219 0.46085621 2.50749173
v 1.27790198 0.44975200 -0.14604063
v 1.43287389 0.68040682 0.21102120
v -4.10332699 -3.40193373 1.05595840
v 0.89211794 -2.41692630 -0.81889551
v 1.33128461 -2.12119552 -0.37379085
v 1.33128461 -4.18360597 -4.23228942
v 1.42490674 -4.22417152 -4.33124178
v 1.42490674 -3.19477221 -0.93776703
v -0.00000000 -3.47977652 -2.40655756
v -0.00000000 -3.24275128 0.00000000
v 0.00000000 -3.24275128 -0.00000000
v -3.75723950 -3.39812956 2.17965738
v -2.93418056 -1.27706479 1.01643647
v -2.77170988 -1.11459410 0.71333891
v -1.77669090 -0.26325901 0.35188160
v -1.54319668 -0.10637938 0.71333891
v -0.10576155 0.62987133 0.35188160
v -0.31378788 0.54254745 0.08289905
v -0.52787777 0.13282839 -2.68234198
v -0.05223675 0.68605626 -2.90992626
v 0.33840498 1.09193091 -3.07092235
v -0.05223675 1.51028012 -3.35048309
v 0.19460219 0.18546649 3.02270965
v 1.80354417 0.88260526 1.32216509
v 0.51920404 -0.43290312 0.21102120
v 0.35992397 -0.59218318 0.50816649
v -0.93805001 -1.71005793 1.05595840
v -1.29191266 -1.94781047 0.50816649
v 1.80354417 0.99088962 0.96519941
v 2.98747391 1.22769464 -0.25519260
v 3.47882690 1.23055815 -0.77561927
v 2.98747391 1.23055815 -0.28426628
v 2.72977562 1.14530422 -0.89216567
v 3.47882690 1.29512654 -0.12004536
v 1.63406242 1.13342138 0.08289905
v 1.29615068 1.06397735 -0.28426628
f 208 941 396
f 407 215 580
f 407 200 592
f 407 580 200
f 216 580 215
f 113 358 941
f 113 941 208
f 113 792 358
f 113 208 792
f 55 200 575
f 55 592 200
f 585 200 580
f 585 580 216
f 639 575 363
f 639 55 575
f 146 575 398
f 146 398 396
f 146 363 575
f 111 363 5
f 111 396 941
f 111 146 396
f 120 111 941
f 120 194 111
f 80 575 200
f 80 585 575
f 576 575 585
f 163 407 592
f 921 358 129
f 921 194 120
f 894 592 55
f 894 55 194
f 894 163 592
f 894 129 163
f 253 407 163
f 454 398 575
f 454 216 398
f 454 575 576
f 454 585 216
f 454 576 585
f 145 215 739
f 145 216 215
f 145 792 208
f 48 194 55
f 48 55 639
f 48 639 363
f 353 5 363
f 353 363 146
f 353 111 5
f 353 146 111
f 35 363 111
f 35 111 194
f 35 48 363
f 35 194 48
f 401 200 585
f 401 80 200
f 401 585 80
f 357 358 921
f 357 120 941
f 357 921 120
f 259 194 921
f 259 894 194
f 259 921 129
f 259 129 894
f 359 129 358
f 359 358 792
f 392 215 407
f 392 407 253
f 148 208 396
f 148 145 208
f 331 396 398
f 331 148 396
f 331 145 148
f 331 398 216
f 331 216 145
f 702 941 358
f 702 358 357
f 702 357 941
f 720 129 359
f 720 359 253
f 420 253 359
f 420 359 792
f 420 792 145
f 420 145 739
f 258 129 720
f 258 720 253
f 258 163 129
f 258 253 163
f 232 392 253
f 232 253 420
f 232 420 739
f 232 739 215
f 232 215 392
