# Asteroid shape model (convexinv -> dual reconstruction)
v 0.62184711 -0.45135886 -1.95754616
v -0.16672934 -0.33870919 2.01457142
v -0.77871866 -0.40660669 1.26394771
v -0.93239326 0.26955330 1.48550197
v -1.31608142 -1.59649666 -0.11409233
v -0.68778718 -1.68628248 -0.77703884
v -1.12062915 0.04547635 -1.29890432
v 1.22484575 -1.01684468 0.68442885
v 0.24179717 -0.90610897 1.46998783
v 0.11907884 -0.32901773 -1.15851154
v 0.05587576 -0.26581464 -1.33920162
v 1.13512751 -1.89617989 -2.23627023
v -1.29674592 1.62454684 -0.40883167
v -1.04378662 2.35565410 -0.75511750
v -1.21859319 1.90023388 -0.34801552
v 0.00078385 0.12717344 -2.30154083
v 0.04139735 0.98920675 -2.76429439
v 0.00117444 -0.37217462 -1.52386377
v 0.27549996 0.99836454 -2.55309456
v 0.22044644 0.87477902 -2.48875013
v -1.20830343 -0.48543884 -2.55309456
v -0.21050590 -0.04095096 -2.03359425
v 0.64826674 -0.45226073 -1.94595009
v 0.63420169 -0.48621676 -1.94595009
v 1.81874584 1.49627281 1.39004753
v 0.16399169 -0.24603608 -2.54327272
v -0.40446021 0.40446021 -2.02591414
v 0.45926584 -1.21661310 -1.97234344
v 0.17365780 -1.32841614 -1.80367013
v -1.30391969 0.22278474 -0.69952326
v -0.87941606 -0.17936610 -1.44593313
v -1.07674045 -0.04066007 -1.29890432
v -1.12409581 -0.03070597 -1.23465642
v 3.10143632 -1.84961282 -0.03943714
v -1.23174192 -0.15869979 -0.93992363
v -1.28427893 -0.10286388 -0.88597339
v -0.99689458 -0.95896895 -1.09382366
v -1.19100600 0.02877420 0.07804004
v -0.75528689 -1.21643946 0.07804004
v -1.12388116 -0.71281119 0.77633213
v -2.31849844 2.17125006 0.77633213
v -1.51840692 -0.06544098 0.88364698
v -3.36783644 -0.78941167 -0.20858210
v 0.69283978 -1.81213685 0.57268220
v -0.42920368 0.98083841 2.01457142
v -0.83720240 -0.27209833 1.27561677
v -0.18959567 1.53394920 2.41328058
v -0.75174792 -1.24652297 1.61627416
v -0.92830375 -0.89791903 -0.12638712
v -1.20393132 -1.76088127 -0.13371842
v -0.43048166 -0.04860340 -1.99020852
v -0.65215896 -0.03412932 -1.79566622
v -0.62726411 0.24590234 -1.99020852
v -1.37693419 2.04195319 1.88794810
v -1.37693419 -0.60111241 -0.75511750
v -1.48841303 0.15947778 0.10415052
v 0.96185817 -1.45887251 1.21658288
v 1.38554790 0.03444020 0.90042280
v 1.27426152 -1.65262439 1.19909068
v 1.79714700 0.83461329 -0.59916840
v 0.33113237 -0.70421930 1.57566480
v 1.63189523 -0.70348194 0.49496301
v 1.50754768 -0.80226673 0.58088647
v 0.90081120 0.16642929 1.85824415
v 1.92864423 0.88892809 1.09239322
v -0.13468377 -1.99942793 0.84441628
v 1.33511613 -0.52962802 0.84441628
v 1.47144795 -2.13575975 -0.05445731
v -1.17472043 2.55262603 1.17121340
v 1.20687179 0.68250703 -0.06360111
v 0.68879644 -0.05958431 -0.22368838
v 0.77293367 0.03369551 -0.14478413
v -0.80329852 -0.88426287 -1.40523225
v 1.26940462 2.01604785 -1.40546771
v -0.00509981 0.12802382 -2.30887420
v 0.17772620 0.32668592 -2.12444027
v 0.60920521 0.42218550 -1.40546771
v 0.75659451 0.57882967 -1.25411368
v 0.98300960 1.81141863 0.19298184
v -0.95055204 -1.40075734 -0.51196300
v -1.27211998 0.62954270 -0.51196300
v -1.75357864 -1.25994058 0.85417104
v -1.42444921 1.18047259 -0.36267156
v -1.92035640 1.87881591 1.95743243
v -1.91452212 0.93610871 0.84267243
v 0.54995100 0.28772857 -2.23627023
v -0.21824143 -1.83967616 -1.25854673
v -0.53187750 0.30295096 -1.35092148
v -0.15652489 -1.82532491 -1.31153892
v -0.09953085 -1.87060240 -1.35092148
v -1.52815828 1.10876154 0.31517348
v -1.19818987 1.55566347 -0.00064570
v -1.59992225 1.11913365 0.40461987
v -1.42200012 1.26659091 -0.40883167
v -1.35254625 1.34060479 -0.74570202
v -0.88032832 2.27091902 -0.11409233
v -0.78692629 0.93512262 -3.49122489
v 0.04036295 -0.22373327 -2.30095687
v 0.03114038 -0.22917935 -2.30510644
v 1.66819836 1.45850110 -0.14478413
v 1.27146216 0.66351055 0.17295630
v 1.26835026 0.46229057 1.34995421
v 1.31521301 0.73504221 0.23512231
v 1.50750063 0.69773576 0.91699749
v -0.37960077 -0.69580578 -2.39245945
v 0.92075018 -0.91527348 -3.41641223
v -0.28194906 0.89314813 -1.87049762
v -0.27608083 0.72124284 -1.94595009
v -0.05513820 0.81276027 -1.94595009
v -0.42167395 0.11791586 -2.05669679
v -0.53924044 0.53924044 -1.96809383
v -0.11791586 0.42167395 -2.05669679
v -1.75991897 0.67062991 -2.21712736
v 1.58031954 0.32032063 -0.78107243
v 1.31831165 0.55624538 -0.14567729
v 0.67569225 0.97569957 -0.68954685
v 1.10398142 1.01214882 -0.25320573
v 0.78873490 1.15258138 -0.41733789
v -0.67014705 -0.41914202 -2.21712736
v -0.24836189 1.09241507 -1.89925262
v -0.14268797 0.56776578 -2.56139255
v -0.14897120 -0.23669909 -2.43522567
v -0.04673718 -0.51982235 -2.30510644
v -0.23498647 0.10374989 -2.56139255
v -0.54702148 -0.14413850 -2.77700698
v 0.97060008 -0.17450976 -0.98158700
v 1.39738774 1.06627720 1.07779649
v 1.69298835 0.26671659 -0.72793365
v 1.55895346 0.24414406 0.10241338
v 1.30262402 1.67220637 0.91057245
v 1.33606473 0.95906814 0.19298184
v 1.19628922 1.28057891 0.10241338
v 1.00948887 1.58599329 -0.16301307
v -1.11174415 0.38555830 -1.75820652
v -0.09365935 -1.12995237 -0.60105038
v -1.37775879 0.11872078 -0.23442435
v 1.30250885 1.44976357 -2.47554668
v 0.50878651 -0.50878651 -1.98115847
v 0.53924044 -0.53924044 -1.96809383
v 1.21986481 0.92938396 -2.68624568
v 2.08576758 -1.16109024 -2.68624568
v 0.42167395 -0.11791586 -2.05669679
v 0.11791586 -0.42167395 -2.05669679
v -0.79780645 0.05334226 -1.97781141
v -0.36930131 1.07058468 -2.59143051
v -1.99437489 0.86117598 -0.56341041
v 0.93329532 -1.33449079 1.54400199
v -1.46475164 0.74656250 -1.64838664
v -1.91988861 0.91402808 -0.89631609
v -2.05336734 1.51366141 -1.64838664
v -2.34145001 -0.05810161 0.27563156
v -1.84632725 1.31307373 0.90580331
v -1.46916366 -0.09451993 0.90580331
v 1.25383453 -1.08177385 0.64456722
v 1.42686362 -1.77576725 0.89122645
v 1.30140038 -1.06029613 2.10840835
v 0.93662900 -0.72460205 2.44705481
v 0.71088272 -2.28652581 0.50027799
v -0.83453824 -1.03449763 0.82774221
v -0.33749029 -1.06695162 1.26394771
v -0.50137580 -1.46760128 0.73390780
v -0.47785022 -0.29842201 1.85373381
v 0.08545971 -0.54935913 2.14701944
v -1.31279235 1.53388486 0.91896646
v -3.04498137 1.76193187 0.91896646
v -1.46399357 1.99602756 -0.43997449
v -1.79743516 1.76117489 0.96210712
v -0.12435268 1.67625355 2.34903326
v 0.09107749 1.01468193 2.73921371
v -0.26294354 0.97951028 2.34903326
v -0.77280328 1.79504715 1.38648548
v -0.38542679 -1.14736944 1.38648548
v -1.17045448 -0.89052854 -0.92190603
v -1.27853559 -0.04572988 -0.93992363
v -1.27410338 -0.14024870 -0.84481469
v -1.70740848 -0.73052009 1.27992570
v -1.14880118 -0.91328205 -0.36267156
v -0.96514611 -1.20407568 -0.63464225
v -1.35807592 -0.16494560 -0.53727156
v -0.99422216 -0.75983836 -1.05427496
v -1.12926922 -0.61592474 -0.39925959
v -1.23776816 -0.06382389 -1.05427496
v -1.04302253 -0.75079730 -0.90272965
v -0.77087784 -0.26389111 1.54587122
v -0.80540874 0.02913650 1.85373381
v -0.09318670 -1.03023034 1.69090525
v -0.44304737 -0.78430138 1.43021980
v -1.31793035 0.01198971 0.61851967
v -1.21894187 0.35289473 1.58665552
v -0.73101428 -1.07309831 0.32519816
v -0.82589158 -1.10100238 -0.02228286
v -1.62600871 0.50229361 0.61851967
v 1.68176477 0.84710366 0.70715863
v 1.17432797 -1.04667627 0.70715863
v 2.34790414 -0.99767896 -0.14067597
v 1.23840603 0.92427062 2.25281198
v 1.14790509 -0.50516064 0.99569544
v 1.87716525 -0.45754470 0.35570228
v 1.79526773 0.46368602 0.99569544
v 1.48144636 1.05510697 0.84402167
v 2.37543778 -1.46725108 0.00491657
v 0.46368317 -1.40199073 0.84402167
v 1.56475507 -0.53661197 0.59813735
v 1.69933610 -0.74970332 0.39883931
v 1.91351537 -1.54134973 0.60747727
v 2.30851792 -0.77995207 -1.58891398
v 1.70839202 -2.88705791 0.90833692
v 2.26319094 -0.70975101 -0.66589933
v 1.33783988 -0.54748374 0.90833692
v -2.55053595 1.90736613 0.22742209
v -1.17686585 1.44803845 1.04609451
v -1.65708739 -0.12664864 1.46992630
v -1.74639575 -0.14686155 1.44060009
v 0.20047302 0.64660517 1.39543377
v -1.64911225 1.21917490 1.82478418
v -0.06372417 1.02139404 1.11661489
v -0.10573115 -0.38312329 -1.45501228
v 0.71774880 -0.08012760 -0.09428999
v 0.95925204 1.00478982 -1.45501228
v -0.03747562 -0.39441749 -1.24704230
v -0.37689757 -1.31689652 0.27726656
v -1.59224420 -1.58743338 -1.24704230
v -0.32700700 0.48995538 -2.89666437
v 0.48242095 2.07854717 -2.89666437
v 0.54635568 0.67353624 -1.71175687
v 0.87543852 0.49094127 -0.94159530
v 0.84281166 0.43928094 -0.98991168
v 0.82643267 0.44044148 -1.02084048
v 1.18733325 2.86001699 -0.94159530
v 0.43749742 1.96681685 -2.12444027
v -1.74469496 -1.98617852 0.94564856
v 0.16141007 -0.91905969 0.54204493
v -1.67337114 -2.33801602 -0.30556829
v -1.63494470 -0.04873951 0.30059863
v -1.58042216 -0.85765627 -0.00064570
v -2.15270886 1.38828138 1.62321196
v -1.35690761 2.06316189 0.30059863
v -1.79896837 1.36321686 0.95523654
v 0.76167723 0.78421738 -2.07441292
v 1.07977564 0.46611898 -2.46877169
v 1.79817962 1.40951307 -2.53420637
v 1.55117281 1.26365147 -2.42306904
v -1.24295798 1.55139771 -1.71739893
v 1.54775107 1.20130054 2.09626990
v 1.91076258 1.58710628 1.72349348
v 2.14174716 0.93372233 0.80327248
v 2.12614690 1.27654891 1.09239322
v 2.30093553 -0.20225700 -0.35194782
v 1.64800751 1.08968644 1.84926710
v 1.91537985 2.45022049 0.23512231
v 1.41780327 0.69499818 0.62232175
v 1.36940531 0.56890788 0.50960912
v 1.71619491 1.31390578 1.86758093
v 1.71516724 -2.47888847 0.45542458
v 1.30058068 1.20066906 0.45542458
v 1.25167464 1.32808303 0.34152872
v 1.10156594 1.34168283 -1.82890038
v -3.04985637 0.22931257 -1.82890038
v 0.26440253 -0.73580162 -2.81982571
v 0.40464832 -0.10251869 -2.10158148
v 0.47682692 0.39688033 -1.47913212
v 2.29007897 0.68572327 -0.86888338
v 2.50991507 -0.23098545 -2.63807139
v 1.87616173 0.04195743 -1.06692352
v 1.73845694 -0.19850140 -1.42404616
v 0.65962422 0.35119132 -1.42404616
v 1.61378487 0.39461021 -0.61936053
v 1.20920889 1.57101582 0.42526583
v 1.36773820 1.64242873 0.77034889
v 1.59668108 0.51944917 -0.25320573
v 1.54474116 0.96020890 0.20986815
v 0.69256053 1.78435110 -0.14567729
v 1.18850383 1.43573568 0.22385612
v 0.99613979 -0.28688311 -1.01840786
v -0.19569432 1.49682269 -1.01840786
v 1.14691813 1.40915885 0.15985858
v 0.22226642 -2.89097258 -2.03917254
v -0.54117876 -0.04175635 -2.03917254
v 1.22448167 -0.11547342 -0.76359449
v 1.37887233 0.31394796 -0.21869361
v 0.59804141 1.16241323 -1.00639183
v 0.15092823 1.36466543 -0.82643407
v 0.13621655 1.34995375 -0.84467270
v 0.74040904 -0.01546805 -1.55938799
v -0.57639048 0.86438926 -1.55938799
v -1.10108059 -0.40092024 -2.76027161
v -0.25439963 -0.21110416 -1.91014020
v -0.05689778 -1.08374278 -2.19668872
v 0.65564983 0.14514036 -1.37268664
v -1.54623110 -0.20545414 -2.45603460
v -2.17306873 0.04857819 -2.61426448
v -1.75391033 0.30700490 -2.32667682
v -1.70339260 1.78688499 -1.67712958
v -1.97830580 1.08460162 -2.09188143
v -2.29747998 1.15683942 -2.19668872
v 1.84948304 -0.17583144 -0.76656644
v 1.23748480 0.09073243 0.60747727
v 1.91007867 -0.91240083 -0.11192273
v 1.86872656 -0.76652954 -0.14410172
v -1.69165027 1.64395762 -2.39524119
v -0.06842323 -0.34494483 -1.34429424
v 1.07745414 -0.35966022 -2.18801280
v 1.22892392 -2.00504024 0.71530657
v 0.05462109 -0.10400969 -1.87978208
v 1.05738984 -1.02684398 -0.94883160
v 0.24971379 -1.07534872 0.29559098
v 0.32640908 -0.81457521 -0.65947247
v 0.47814166 -0.90737928 -0.52760625
v 2.67941720 -1.67763890 -0.52760625
v 1.87942415 -1.15176963 -1.34429424
v 2.57988894 -1.64942428 -0.50565047
v 2.32941356 -1.64497472 -0.22938418
v 1.30048126 -0.99513712 -1.19171417
v -1.65461087 -0.22497510 -2.67416330
v 0.45985010 0.25559008 -1.98132750
v 0.72084291 0.99174930 -2.39881699
v 0.08675752 0.93857006 -2.67416330
v 0.29758059 1.41501162 -2.92355149
v -0.58176348 1.10231726 -3.12782225
v -0.09963608 -0.44867559 -1.49468390
v 2.05587346 -0.42999153 -1.86879776
v -0.20793665 0.02030830 -1.86879776
v -0.42167395 -0.11791586 -2.05669679
v -0.76204011 1.10109117 -2.43768813
v -0.53924044 -0.53924044 -1.96809383
v -0.22473541 -0.22473541 -2.10301554
v -0.11791586 -0.42167395 -2.05669679
v 0.58458744 0.54329977 -2.43768813
v -0.45022926 0.11716869 -2.05785008
v -0.55909193 0.00830602 -1.92288886
v -1.17851215 1.40814116 -2.65561744
v 0.18002358 0.50039661 -2.65561744
v -0.75884695 0.71377888 -2.34798201
v -0.63986985 0.45680142 -2.21608479
v 0.50318673 0.19809663 -2.59143051
v -1.15251343 0.10764163 -0.79432743
v -2.27483201 1.22996022 -0.79432743
v -1.84337647 0.53909717 0.61555433
v -1.74533803 0.54290213 -0.43686605
v -1.88510828 0.89113585 -0.95936435
v -1.57216101 0.39308314 -0.95936435
v -1.23081719 0.15684720 -0.63768675
v 0.27190094 -0.78737318 -0.63768675
v -0.77878530 -0.36566021 0.93878826
v 2.75273668 -1.73088173 0.90603056
v 2.22590737 -2.14845242 -0.66619727
v 2.20676712 -1.52131908 1.39407497
v 1.48525801 -0.95163566 2.44745101
v 1.92525758 -1.22952398 2.03593240
v 0.87672604 2.11898217 1.16113782
v -1.94692148 -0.70466536 1.16113782
v 1.96959014 -1.79752946 0.33751022
v 1.24942530 -3.23397024 -0.26701877
v 1.18200737 -1.25901101 0.59982802
v -1.35632457 -2.31042253 0.59982802
v 1.88635679 -0.50845120 1.17121340
v -2.35947929 -1.69321005 0.27833011
v -1.30548402 -0.63921478 0.73049091
v 0.23436993 -2.58852469 0.22335714
v 0.20407863 -3.31405723 -0.30079425
v -0.93640960 -2.90223412 0.22335714
v -1.23135104 -2.14825413 0.89027970
v -0.06528549 -0.76751209 1.60701612
v 0.92755168 -0.72233323 2.44431936
v -0.19501110 -0.15035893 2.44431936
v -1.45113447 1.57469669 0.94419096
v -0.44533464 1.18863473 1.84327952
v -0.71668916 1.47681082 -0.44299949
v 0.43532257 1.16859132 1.64041578
v 0.33091982 1.52357363 0.34031966
v 1.79445209 1.51069390 0.91070017
v -0.09526701 0.86483234 1.54881632
v -1.29181711 0.17112839 1.18575351
v 0.10293134 -0.77356709 3.09877542
v -1.42157829 -0.93001884 2.34264800
v -1.21278720 -0.46131938 2.09862102
v -0.19066988 0.30088956 2.34264800
v -1.63243826 -0.59554122 1.83063262
v -0.96658862 -0.61866139 2.47750374
v -1.36018179 0.55026098 1.51862511
v -0.92937225 0.45008272 1.88853478
v -1.02442117 0.03187255 2.02556780
v -2.32286597 -0.79242723 1.46992630
v -2.38462050 -0.06489411 1.06276150
v -2.13051629 0.51809919 0.96210712
v -2.01017454 0.58916298 1.01625324
v -1.70039566 -0.74911895 1.91102123
v -1.48156113 -0.65228574 2.02556780
v -0.33224265 1.93993587 1.61627416
v -1.46383466 0.42745853 -0.38395154
v -0.96803596 1.84436983 -0.38395154
v -1.18238007 1.66179275 -0.88357394
v -1.11332380 1.66390036 -0.65670878
v -1.26641196 2.45165764 0.00316248
v -1.26641196 -0.67209216 -3.12058732
v -0.87267612 -1.04284465 0.00316248
v -1.34866846 2.15052860 -0.97279795
v -1.34866846 -0.51304672 1.69077737
v -1.01293571 -0.82918189 -0.97279795
v -0.46193019 -0.95272045 1.19062406
v -0.35304694 -1.23772695 1.17380130
v -0.57379852 -1.00311393 0.94711157
v -0.77056035 -0.22976042 1.17380130
v -0.43493623 -0.35950913 1.69090525
v -0.62487777 -0.76823033 1.03188787
v -0.77899590 -0.77915047 0.74086345
v -0.47004731 -0.21903307 1.73323771
v 0.20406682 -0.95153791 2.41328058
v -1.34044828 0.67632436 2.35981185
v -0.70544983 -0.19846310 1.73292208
v -0.90955613 -0.05030462 1.58665552
v -1.14878334 0.03771794 1.19135532
v -2.09037250 1.03840196 1.34584929
v -1.26607141 -0.04550437 0.66715320
v -0.09988230 1.26493016 1.00820125
v -1.76451632 1.26750198 1.21658288
v 2.01707373 2.32271754 0.42132878
v 1.11806335 -0.09695173 1.17988869
v 0.53230249 0.08894963 2.20768444
v 0.70047877 0.32063286 2.37371317
v -1.16662090 -1.21468014 2.20768444
v 0.09684100 -0.21729440 2.25281198
v 1.77482444 1.67857966 2.32137242
v 1.54776081 0.65853003 1.04200845
v 0.77351716 0.37365062 2.32137242
v 2.39365139 -0.62780220 -0.34459833
v 1.67608827 -0.52409214 0.54977008
v 1.90902206 -0.27098198 0.31478767
v 1.93010474 0.79571850 0.49496301
v 2.06596183 0.71989669 0.31478767
v 0.94434234 0.00599132 1.19909068
v 1.33455687 -1.49259949 1.63252118
v 0.68624725 0.12717508 1.42703313
v 1.78709872 -0.07773572 0.27025583
v 1.00902825 -0.19019096 1.24004040
v 1.16546435 -0.21946177 1.05442421
v 0.25494114 -0.18759941 2.12752535
v -0.85332770 0.55292216 2.12752535
v 0.56442075 0.23070267 1.66297817
v -2.48451393 -0.02670094 1.07632054
v 0.00126104 1.00294077 1.07632054
v 1.37166542 1.14557390 1.20524499
v -2.38675039 1.19604879 0.59884229
v -2.84372961 2.32183848 0.31876334
v -1.91081684 1.38892571 0.71898011
v -3.07131952 -0.45664728 0.59884229
v -1.66746503 -1.89355655 1.20524499
v -1.12236510 2.21721847 -0.40636389
v -1.84469065 1.62871788 1.22209935
v 0.76699285 0.91098993 1.23513880
v -1.41868762 1.70022536 0.23063263
v -1.47673914 0.30978376 1.23513880
v -1.59223968 1.32543468 1.11661489
v -0.14088375 1.79804543 0.26063694
v -2.69680642 1.81603555 0.73198854
v -0.27421598 0.87552843 1.41045922
v -1.00502735 1.54808407 0.73198854
v -1.01255421 -1.87977035 -0.05460862
v -1.22331271 -1.41190818 -1.07304054
v -2.00714174 -2.14942690 -0.31568277
v -2.61406402 -1.80689398 -1.40523225
v -1.05948584 -2.48029719 1.01138389
v -1.08159481 -2.16826892 0.42217451
v -2.45120072 -2.38311437 -0.45581594
v 1.53556184 0.99801197 0.58854733
v 1.33601904 -1.25364853 -0.33936509
v 0.97346671 -1.20792887 -1.00639183
v 1.32947910 0.98340985 0.19939708
v 0.96566635 1.55945944 -0.33936509
v -1.65355371 -2.29607009 -0.18930611
v 0.27991922 -1.48857247 0.88732244
v -0.39306403 -0.43553192 2.50787958
v -0.51033317 -0.60236001 2.38357393
v -0.71090721 -1.40048788 1.57566480
v -0.90180991 -2.25556391 0.69592356
v -0.26448619 -1.29902732 1.42938806
v -0.88429025 -2.07921945 0.89027970
v -1.67651553 -2.44104218 -0.64403211
v -2.40021691 -2.38711486 0.37595415
v 0.53076703 -2.06685970 0.09436289
v -1.93395378 0.52171974 0.42569628
v -2.11967471 0.44082655 0.84267243
v -1.88617899 0.50766884 0.25072467
v -2.44234838 -0.60679818 -0.19470355
v -2.26671667 -0.34032931 0.65570570
v -2.99048625 -1.12993028 0.48360015
v -2.03883409 -0.40539030 -0.11014811
v -2.15686282 -0.49515010 -0.03624353
v 1.78871227 -0.62642809 -2.82073717
v 0.94935144 1.74179214 -2.03290864
v 0.75360335 -1.71291826 -2.42306904
v -0.70018487 -1.43388930 -1.18442631
v -0.29340864 1.18663940 -1.09047555
v -0.16753181 1.24393848 -1.18442631
v -0.25182900 1.17697069 -1.12617742
v -0.82023919 0.46909991 -0.88502025
v -0.70565308 -0.81983087 -1.78046029
v 0.20009790 0.53572127 -1.78046029
v -1.47011091 -0.19012248 1.54881632
v -1.24318467 0.12249595 1.32478785
v -1.16996836 0.62560321 0.20090720
v -2.70213774 -0.81963455 1.24349171
v -3.11638199 -1.48293821 -0.11014811
v -2.51985944 -0.79991485 -0.48446048
v -2.61589657 -0.88299855 -0.19470355
v -2.89788902 -1.19563309 0.06975014
v 1.49705694 0.55204025 1.78163150
v 1.87912097 1.35811894 0.82153933
v -0.88193023 -0.07092981 -2.31138969
v 1.21687247 0.46386547 -0.79391354
v 1.37328909 -0.42812146 -2.31138969
v -1.14075676 -0.60575503 -3.01302756
v -2.48088248 -0.03120344 -2.76027161
v -1.13677987 0.45414354 -2.14254208
v 0.48680791 -0.92949777 -3.01302756
v -1.01804234 0.96476590 -1.70410204
v -2.24116861 1.26607605 0.52765673
v 0.20773280 -0.34370751 -2.33112086
v -0.12289746 -0.64798199 -2.63807139
v 0.05970812 0.39335104 -0.86652297
v -1.06210507 0.69091219 -0.93046142
v 1.53943899 0.87691447 0.09790190
v 0.67075716 -1.91773260 -1.51223094
v 0.20265758 0.43556289 -1.51223094
v 1.39838651 0.31676836 -0.19437120
v 1.42421209 -0.10771984 0.41572707
v 1.80763492 -0.91362551 0.79582207
v 1.39701810 -0.11996995 0.47492234
v 0.93113445 -0.78344037 2.05208283
v 0.54378388 0.05937990 1.63252118
v 0.56110935 0.04720124 1.61961176
v -0.39167723 0.53937132 2.05208283
v 0.01590548 0.35780585 1.83987611
v 0.00166785 0.37806042 1.82478418
v -0.18909961 1.28561247 0.59349132
v 0.79168492 0.39992179 0.80881116
v 1.58903129 0.42469078 -0.62716043
v 1.54402801 0.49631309 -0.62716043
v 1.56893167 0.47476842 -0.55202273
v 1.68240228 0.26632795 -1.86814627
v 1.35771093 0.51118662 -0.58081748
v 1.87382917 -0.10930877 -2.41490741
v 1.47079180 0.27020228 0.78263707
v 1.67635054 0.27693338 -1.52295513
v 1.76469685 0.15909475 -1.80874863
v 2.09317303 -0.65929460 -0.58081748
v 1.38543251 0.58695173 -0.11192273
v 1.85159334 -0.17521079 -0.77429525
v -1.59052751 0.78583456 -1.49367434
v -1.56038232 0.81597974 -1.57985584
v -1.71030759 1.02252001 -1.72786662
v -0.54350561 -0.43342166 -0.82098616
v -0.73240444 0.68471179 -2.39524119
v -0.18702240 -0.14633783 -1.72786662
v -0.37409034 -0.05733719 -1.63963845
v -0.87886354 0.74995478 -2.31898770
v -0.75530267 0.57417601 -2.18801280
v 0.60364097 -0.36277237 -1.45037768
v -0.20620545 -1.52135186 -0.31244533
v -0.25032485 -1.21609259 -0.69291951
v -0.95084783 -1.86077425 -0.04256796
v -2.51719375 -2.10885908 -0.04256796
v -2.21075354 -0.86860297 -1.49468390
v 1.10892193 0.54263705 -2.51243004
v -1.02880664 1.11543970 -2.51243004
v -0.97349771 -0.20931155 -1.55538101
v -1.70195179 0.41644792 0.07659389
v -1.07999775 0.02802720 1.34584929
v -0.76448233 -0.37327504 -0.13523676
v 2.09539580 -1.11670792 2.60825248
v 1.69666715 -2.13626200 0.65358783
v -1.25847663 -3.18364429 -0.32949076
v -1.18201892 -0.94387119 0.65358783
v -0.68555671 -1.72008365 0.53485334
v -0.26405420 -2.43386979 0.21369506
v 0.10463825 -1.41372655 1.15491508
v -0.53671500 -0.97879566 1.15966568
v -0.53269903 -0.98787140 1.15491508
v 1.43944621 -2.89032135 0.21369506
v 1.27591480 -2.10253219 0.83352153
v -0.21997995 -3.48952967 -0.54895247
v 0.68084348 -1.98416515 0.83352153
v 0.25478176 -1.44785050 1.20411193
v 0.24710452 0.98639478 0.92447403
v -1.36175520 1.54935914 0.92447403
v -0.08555642 1.29856038 -0.58961496
v 0.75156003 0.97136521 1.25593508
v 0.63047835 0.94251915 0.52765673
v 0.32580828 1.26607605 3.09463362
v -0.38569611 1.50452058 0.15354223
v 1.30204635 1.56911201 1.31750928
v 0.14134546 1.08833396 1.31750928
v -0.09713463 0.86394380 1.54793548
v 1.05203861 1.62721469 0.83407008
v 0.70373791 1.40724017 1.15982543
v -0.02817484 0.88510278 2.04322745
v 1.33983409 1.36378981 2.04322745
v 0.25468583 1.15053632 0.75580180
v -1.96056043 -0.31808780 0.12980623
v -0.39970384 0.66266340 0.12980623
v -1.49103994 0.22463483 1.76727328
v 0.04517653 0.42294611 3.03594515
v -0.46424454 1.45231317 1.48941967
v -0.63267100 1.46424714 1.17137654
v -1.04558202 -0.06194880 1.57360461
v -0.48991367 0.31047014 2.30997826
v -0.45074226 -0.55034931 3.03594515
v -0.05432034 1.03569641 2.55799031
v 0.48175010 1.61820045 3.09877542
v 1.37680006 0.77983605 1.80609285
v 1.07093856 0.37764658 1.55425889
v 0.01980746 -0.71949427 1.43397379
v -0.17229293 -0.86558490 1.55425889
v 0.59300019 -0.38764653 -0.00751636
v 0.28763611 0.52769511 1.65287098
v 1.54045315 0.81901883 0.57715401
v 0.59976321 -0.84564737 2.10286786
v 0.87981374 0.84660081 1.05442421
v -0.08385371 0.17745766 2.10286786
v 0.13656323 0.07992423 1.98749299
v -0.32465809 0.98171014 1.19177831
v 0.86740198 0.66229861 1.19177831
v 0.83656010 1.40101871 0.65809973
v 1.50610230 0.47017555 0.15290922
v 0.73632543 0.77914018 -1.00208259
v 1.83727984 0.08736468 -1.00208259
v -0.45209330 1.41404456 0.31682223
v -0.40875983 1.56138374 -0.22279650
v -0.12845067 0.91782800 1.22209935
v -0.28740300 1.06738909 1.06851511
v -1.78700555 -2.61378164 1.08192435
v -1.85048158 -2.80779449 1.65242349
v -1.26237158 -2.26889790 0.09436289
v -1.84081061 -2.49092349 0.61143189
v -1.07212686 -2.06685970 -1.50853100
v -0.71339892 -1.56841959 1.07290281
v -0.92461491 -1.09954183 2.09354545
v -1.27667428 -1.43080077 1.75337573
v -2.26753479 -1.49769895 2.38357393
v -1.34110956 -1.45784119 1.75273282
v -1.05514200 -1.19466918 2.01821939
v -2.74801659 -1.68067338 1.75273282
v -1.43868927 -2.01430268 0.80606309
v -1.47447766 -1.82351857 1.17180990
v -1.45316131 -1.81005590 1.19174645
v -0.62907447 -0.30544550 -1.79172178
v -1.07515120 -0.50415886 -1.55947326
v -2.61942278 -1.29891194 -0.92826093
v -1.00380431 -0.05920429 -0.92826093
v -1.07165380 -0.09148479 -0.89626059
v -1.19314176 0.70741664 -0.31114878
v -2.26121639 -1.69022405 -1.55947326
v -2.13897676 0.42031248 0.86249370
v -3.09068418 -1.58005457 -0.08095356
v -2.13618254 -0.62919271 -0.44472559
v -2.64883046 -1.00421958 -0.08095356
v -2.13450139 -0.63087386 -0.44953180
v -1.16119545 0.61286334 0.84874707
v -0.45532563 1.36305618 1.57360461
v -0.98967406 1.13031370 0.37389838
v -1.34148774 1.23378453 -0.91459286
v -1.74311855 0.14544652 -0.04220933
v -1.03920460 0.44131335 1.02456414
v 1.41593118 0.34068486 1.97056294
v 2.02701015 0.35933512 -0.03696714
v 2.00240156 1.62702084 1.51774785
v 2.01198959 1.83148990 1.72349348
v 1.85207823 1.67123197 2.06829575
v 1.60715841 1.27079353 2.41630475
v 1.47754542 -0.14391516 1.20287660
v 1.73505303 0.26381425 0.82153933
v 0.22755339 0.93567310 0.72118066
v -0.26078516 0.91551534 2.14249327
v 1.16347023 1.19541021 0.45274913
v -0.02779115 0.38056988 -0.86888338
v 0.05682708 0.43401179 -0.78974245
v 0.17453365 0.99897049 0.94953748
v 0.17195042 0.91433069 0.67147694
v -0.81338617 0.45621722 0.29514606
v -0.63203935 0.56713423 0.45274913
v 1.21379200 0.42039031 -0.87600857
v 1.27201350 0.38361965 -0.93046142
v 0.48939298 0.61637586 -1.06692352
v 1.64966428 0.56196804 0.10059177
v -0.48830393 1.21502345 -0.21504608
v 1.07474974 0.66808731 -0.21504608
v 1.58846529 0.35388390 -0.66150082
v 1.06827039 1.00635531 0.90070672
v 1.07543120 0.77173033 0.12991157
v 1.44714450 0.86261225 -0.06914905
v 2.11445034 -0.05668256 -0.72793365
v 1.68025418 0.69340053 0.09790190
v 2.02244086 0.19338028 -0.31472858
v 1.90431429 0.02690044 -1.05878620
v 1.42426848 0.62908603 -0.73947141
v 1.57137125 0.73346351 -0.08201679
v -0.39339574 0.74729689 -2.47554668
v -1.73941748 0.48329126 -2.52721243
v 1.34755196 0.13025828 -1.89639097
v 0.84098217 1.42432329 -2.66063497
v 0.66587245 1.12778675 -2.52721243
v 0.90195031 -1.31781834 -0.74171366
v 2.81532266 -1.69383454 1.52832142
v 0.40320023 -0.84979640 1.52832142
v 0.11231982 -0.37324658 2.46524446
v -0.03568663 -0.23398467 2.60825248
v -0.11122626 -0.26689087 2.35981185
v -1.07209649 -0.05300061 1.15467171
v 0.31237771 -1.03309806 0.81410237
v -1.24778783 0.18538182 1.55030596
v -1.03752275 -0.00427465 1.37244533
v 0.35889517 -0.82416403 1.55030596
v 0.37191560 -0.83066181 1.55550995
v -1.45706353 -0.33647947 0.79464602
v 0.10560118 -1.89914419 0.79464602
v -1.60200907 -2.04408972 -0.16102015
v 2.13586214 1.76990276 0.83407008
v 1.14664459 1.91637547 -0.01621368
v 0.72488501 1.14901377 2.35678344
v 1.12794631 1.30372312 1.99648531
v 1.52907358 0.82637587 0.61927918
v 1.93430780 1.83600576 2.13415225
v 1.02698354 0.39200747 2.13415225
v -2.22367714 -2.22521226 1.13708732
v -0.90045328 -1.69411112 -0.84830972
v -0.33116879 -1.03607045 1.13708732
v -0.49622746 -1.14872081 -0.47437054
v 1.96609789 1.67243687 0.35551549
v 0.47185601 1.08750659 1.23797920
v 0.72462162 1.63005738 0.90042280
v 1.49744797 0.60329430 1.00820125
v 1.15144077 1.45708458 0.79268271
v 1.53987296 1.84610344 0.46270892
v 0.99312368 0.44939737 1.28757029
v 0.96931379 0.80766203 -1.41161841
v 1.42282956 0.28343939 0.17003169
v -0.08482153 1.23075936 0.17003169
v 0.95712451 0.71927607 -0.38803252
v 0.84562652 0.80406929 -0.31821721
v 1.56117349 0.19356584 -0.59283657
v 1.61179966 0.22948789 -0.81910295
v 2.13535039 -0.45894981 -0.38803252
v 0.72078707 0.50278219 0.79582207
v 0.82146462 0.42970148 0.72367457
v -0.92892711 -2.22051108 -0.19471745
v -1.48353782 -2.22051108 0.35989326
v -1.54936361 -2.29041749 -0.19471745
v 0.80593713 -0.19419019 -2.51138972
v -1.30800452 -1.27129726 -2.51138972
v -1.06371318 -0.10911214 -0.93463140
v -1.95434032 -0.29885876 -0.02269211
v -1.58027362 0.43528849 -0.02269211
v -1.98388694 0.35044896 0.52489764
v -0.94925783 0.33585417 1.53542156
v -1.85388198 -0.84307497 1.53542156
v -1.64874290 0.07848182 0.37958900
v -2.10420441 -0.19044690 -0.93092348
v -1.83965463 0.03842055 -0.13274128
v -2.31772114 -0.72241794 -0.13274128
v -2.22799822 -0.36944218 -0.69056494
v -2.65656841 -1.05568507 0.70988824
v -1.54175532 0.05912801 0.70988824
v -1.08771358 0.50114983 -0.01210206
v -0.13945347 0.88175211 1.41069030
v -1.49567914 0.02957904 1.41069030
v 0.97156718 1.41098804 0.27837966
v -1.11939848 -0.13640862 -0.94239286
v -0.83268764 0.52184460 0.53550143
v 0.63603687 0.59071651 -0.94239286
v 1.87088697 0.08569950 -0.73247317
v 2.02418829 -0.15977241 -1.23342105
v 1.62541505 0.23900083 -1.23342105
v 2.16249327 2.03777002 0.33948506
v 0.63141819 2.42790280 -0.76751272
v -1.55125148 0.64787204 0.73942263
v 0.01947808 0.50823398 1.83063262
v -0.57008121 0.62733180 1.34364067
v -1.07713078 -0.09400129 1.88111477
v -1.08323041 0.25761536 1.46931316
v -0.44100219 1.06603440 0.91070017
v 0.40355522 -0.55901700 1.07291582
v 0.83791924 0.13650320 -0.34647005
v -0.29196497 -0.99338102 -0.34647005
v -1.10240871 -1.83259658 1.46478022
v -2.35747888 -2.33634293 -0.41835736
v -0.56244568 -1.20844882 -0.41835736
v 0.77391383 0.71727484 1.19734505
v 0.07257128 0.65774341 1.58985227
v 0.71438241 0.01593228 1.58985227
v -0.33544741 1.09024700 1.09117464
v 1.19371822 -0.08312305 1.09117464
v 0.85988565 0.82416518 -0.40803286
v 3.17182937 1.26741333 0.72118066
v 0.53992911 1.26741333 3.35308092
v -0.59932515 0.49015363 1.47368583
v -0.67325119 0.66076916 1.29335657
v 1.14453689 0.07965731 1.02276979
v 1.66186867 0.56272594 0.67706422
v 0.01667518 0.65409247 1.10156639
v -0.07790365 0.74867130 1.10156639
v 1.44401898 0.56272594 0.79350731
v 1.33849501 0.65345081 0.83691726
v 0.68251673 0.65409247 1.03598672
v 0.68181466 0.65345081 1.03611907
v 2.60004801 -1.80753728 0.00809048
v 1.28864731 -2.37575434 1.39415372
v -1.26617240 0.60711281 -0.67147558
v -1.22571945 0.80936129 -0.87995283
v -1.03102454 2.18107015 -1.48501460
v -1.07713452 1.95670091 -1.24122133
v 1.46795658 0.58616815 1.01050920
v 1.46795658 -0.15593371 1.75261107
v 0.00000000 0.81695150 -1.95160683
v -0.00000000 0.81695150 -1.95160683
v 0.00000000 0.43730678 -2.06677080
v 0.00000000 0.43730678 -2.06677080
v -0.77775647 -2.13182857 -2.46496992
v 0.59909462 -0.94807248 -1.89856739
v 0.16915394 -2.13182857 -1.95883576
v -0.13936359 -1.84374431 -2.16500177
v 0.31161506 -0.94807248 -1.98577336
v -0.72571525 -0.00000000 -2.18131847
v -1.74366053 0.54347987 -0.45925042
v -1.48617568 0.16024834 0.13400555
v 3.11504825 -1.91948377 0.03204007
v -1.80964349 1.58667958 0.98057317
v -1.86937175 1.64245201 0.94065992
v 0.22014803 0.66076916 2.96478895
v -0.16497592 1.23268663 2.38513857
v -0.13105091 1.58667958 2.35815850
v -0.44803657 1.23268663 2.04022816
v -1.20867930 0.80936129 -1.05296436
v -1.20867930 0.62110431 -1.24122133
v -1.08659475 0.49015363 -0.13262675
v -1.11278700 0.62110431 -0.26761041
v -1.06728771 -0.62621162 -1.05296436
v -1.03906864 -0.76352445 -0.90376412
v -1.12376471 -0.61626365 -0.45925042
v -0.97945549 -0.96004265 -0.90376412
v 0.20175779 0.94488016 1.13607009
v 0.26612510 0.87594740 1.18213423
v -1.57738256 0.60711281 0.35444682
v -1.32249796 0.01885901 -0.26729829
v -1.22221374 0.01885901 -0.45491686
v -1.54837410 -0.46549623 0.03598737
v 1.32399268 -0.44048425 -2.54570816
v 1.83632898 -0.00000000 -2.75647066
v -1.22163535 1.55271052 -1.48501460
v -1.30956069 1.34325137 -1.21417937
v 1.56724207 0.85212883 1.75261107
v 1.54260420 0.73224200 1.88287671
v 1.77352586 1.49348867 1.88287671
v 1.60285350 1.08690636 1.35715697
v 1.43418391 0.58616815 0.66760956
v 1.44741347 0.65231061 0.73578905
v 0.47290746 -0.39745359 -2.44778724
v 0.75869774 -0.20500505 -2.15813277
v 0.75869774 0.55131865 -0.74315065
v 0.71990599 0.53451057 -0.78415094
v 0.66522440 -1.84374431 -1.50469347
v -0.24685118 -0.82518616 -2.41948720
v 1.52254017 0.03197163 1.01050920
v 1.33082343 0.96485726 -0.00313793
v -0.43730678 0.00000000 -2.06677080
v -0.43730678 -0.00000000 -2.06677080
v -0.00000000 0.00000000 -2.10984175
v -0.00000000 -0.00000000 -2.10984175
v -0.00000000 -0.43730678 -2.06677080
v -0.00000000 -0.43730678 -2.06677080
v 0.30747903 -2.03066556 0.51106824
v 0.16647535 -2.19466985 0.44360093
v 0.01667518 -0.26057616 1.01147940
v 0.16647535 -0.42447952 0.98058229
v 1.87655858 0.07965731 0.42201512
v 1.20112816 -0.67462793 1.09945844
v 1.52758804 -0.67462793 0.70166594
v 1.90606688 -1.23667727 0.13201711
v 0.20175779 1.01818114 1.09688991
v -0.00412841 1.25765161 0.99837767
v -0.07790365 0.95339574 1.08140280
v -0.00412841 1.03411667 1.06618625
v -2.91176056 1.64245201 0.38349150
v -2.23401007 1.05975191 0.66230131
v -1.31716886 0.74867130 0.97950942
v -0.97680106 1.05975191 1.04367149
v 1.49326599 0.43290504 -0.34442577
v 0.96295786 0.78920743 -1.16536154
v 0.26612510 1.18646848 0.92729616
v 0.04974582 1.38022694 0.73296027
v 1.16873888 0.65231061 -0.18287796
v 0.94907464 0.14534268 -0.71870931
v 0.94218825 -0.82518616 -0.97063847
v 0.28864308 0.14534268 -1.95428986
v 2.60004801 -1.87716223 0.23761321
v 2.53991266 -1.88919027 0.29960058
v 0.84262748 -0.44048425 -2.28841310
v 0.61572308 -0.65236066 -2.13678484
v -0.62776964 -0.46549623 -1.08577240
v -0.46044049 -0.65236066 -1.25360023
v -2.46517397 -0.81874902 -1.21417937
v -2.05452697 -0.20755626 -0.26803133
v 1.48808508 -0.15593371 1.54824294
v 1.66695635 -1.05021802 0.62641676
v 1.65138370 -1.23667727 0.60849583
v 1.73217466 -1.05021802 0.41142081
v 0.47290746 -0.72642283 -2.84863741
v -0.00000000 -0.20477503 -2.49773104
v -0.56750930 0.40298664 -2.09159594
v 1.64529892 0.22922459 -1.16536154
v 1.82985549 0.04466803 -1.50966146
v 1.53689834 0.28551931 -0.00313793
v 1.20416322 1.07817383 -1.02805740
v 1.74228312 0.15137526 -1.50966146
v 1.53325742 0.46248188 -1.02805740
v 1.28864731 -1.79783850 0.31294924
v 0.33795470 -1.15765087 -0.65059771
v 0.33795470 -0.30152770 -1.69378681
v -0.12079486 -0.71231846 -1.28177182
v -1.69892075 0.41947896 0.13400555
v -1.83095772 0.55151592 0.38032742
v 0.89571868 -1.21660458 0.36136259
v 0.92684156 -1.22966913 0.40160515
v -0.75117552 -0.33463842 0.38032742
v -0.76492051 -0.32540347 0.40160515
v 0.30747903 -2.81112479 0.09390409
v 0.31105723 -2.81495679 0.09134337
v 0.31366837 -2.03057660 0.73549381
v 0.31105723 -2.03291477 0.73314867
v 0.76060097 0.82452266 -0.34442577
v -0.07804522 1.17656385 0.73996193
v 0.37613727 1.14093472 1.87438136
v -0.66789823 1.35549381 0.73996193
v 0.04974582 1.86511228 0.14212577
v -0.31249177 1.62118482 0.50926120
v 1.47377668 0.84542062 1.35715697
v 1.22612985 0.47683166 0.78656820
v 0.31366837 -1.43046665 1.46672989
v 0.72713315 -1.15204329 1.88578514
v 0.72713315 -1.27552334 1.65477022
v 1.60293624 -1.65500022 0.72910465
v 1.60293624 -1.98840725 -0.36999100
v 2.50787260 -1.80740540 0.56281528
v 2.50787260 -1.85968219 0.03204007
v 2.53991266 -1.85968219 -0.00000000
v -1.51546135 -2.29988788 -0.41410935
v -1.13434582 -2.22156506 -0.00000000
v -2.20569066 -0.39174974 -0.26803133
v -2.66785661 -0.85391569 0.59416340
v -1.05588904 0.40874654 1.22092072
v -1.46076177 0.13672144 0.59416340
v -0.26599142 0.83095561 1.22092072
v 0.24830148 1.04684199 1.88591257
v -0.00000000 0.77720010 -2.43518743
v -0.15290041 0.59935848 -2.36202778
v -0.12079486 0.59653601 -2.35592092
v -0.15290041 0.63091875 -2.37889709
v -0.31249177 1.55501828 0.63305009
v -0.37564916 1.52765280 0.69980325
v 0.38843757 -0.54389935 0.78656820
v 0.56884528 -0.36349163 0.45000817
v -1.13670055 -1.73302943 0.13616342
v -0.93396309 -1.59681459 0.45000817
v -0.37564916 1.09695073 2.11963770
v 0.10090438 1.19226911 1.62840743
v 0.55530354 1.12328839 1.87438136
v 0.10090438 1.12328839 2.32878052
v 0.71990599 1.04263784 0.89092020
v 0.55530354 1.00971470 0.72124838
v 0.47941613 1.11694985 1.88591257
v 0.88699894 1.20071194 2.32878052
f 258 461 43
f 654 43 461
f 572 581 632
f 639 632 374
f 295 258 444
f 570 374 632
f 570 703 793
f 69 229 444
f 817 572 461
f 106 97 224
f 464 572 632
f 464 654 461
f 464 461 572
f 642 632 639
f 642 43 654
f 607 639 374
f 84 69 444
f 809 444 229
f 809 229 224
f 300 224 97
f 300 809 224
f 300 295 444
f 300 444 809
f 722 570 793
f 722 423 570
f 722 69 609
f 277 581 572
f 277 572 817
f 277 817 106
f 277 106 141
f 277 353 581
f 277 141 353
f 513 817 461
f 513 461 258
f 513 258 295
f 513 300 97
f 513 295 300
f 479 464 632
f 479 654 464
f 479 632 642
f 479 642 654
f 54 609 69
f 54 84 609
f 54 69 84
f 165 84 444
f 165 642 639
f 165 639 84
f 165 258 43
f 165 444 258
f 165 43 642
f 825 353 141
f 825 793 703
f 263 106 224
f 263 141 106
f 263 825 141
f 417 722 793
f 250 229 69
f 250 69 722
f 250 722 417
f 250 793 229
f 250 417 793
f 395 106 817
f 395 817 513
f 395 97 106
f 395 513 97
f 794 84 639
f 794 639 607
f 794 609 84
f 794 607 374
f 794 374 570
f 794 570 423
f 794 722 609
f 794 423 722
f 207 825 703
f 207 353 825
f 207 703 570
f 207 570 632
f 207 632 581
f 207 581 353
f 241 263 224
f 241 224 229
f 241 229 793
f 241 793 263
f 34 793 825
f 34 263 793
f 34 825 263
