ply
format ascii 1.0
element vertex 646
property float x
property float y
property float z
element face 1288
property list uchar int vertex_indices
end_header
-0.87925697 -0.35095091 0.21428571
-0.80782839 -0.35095091 0.14285714
-0.80782839 -0.42237948 0.21428571
-0.80782839 -0.42237948 0.35714286
-0.87925697 -0.35095091 0.35714286
-0.80782839 -0.42237948 0.50000000
-0.87925697 -0.35095091 0.50000000
-0.80782839 -0.42237948 0.64285714
-0.87925697 -0.35095091 0.64285714
-0.80782839 -0.35095091 0.71428571
-0.87925697 -0.20809376 0.21428571
-0.80782839 -0.20809376 0.14285714
-0.87925697 -0.20809376 0.35714286
-0.87925697 -0.20809376 0.50000000
-0.87925697 -0.20809376 0.64285714
-0.80782839 -0.20809376 0.71428571
-0.87925697 -0.06523662 0.07142857
-0.80782839 -0.06523662 0.00000000
-0.80782839 -0.13666519 0.07142857
-0.87925697 -0.06523662 0.21428571
-0.87925697 -0.06523662 0.35714286
-0.87925697 -0.06523662 0.50000000
-0.87925697 -0.06523662 0.64285714
-0.80782839 -0.06523662 0.71428571
-0.87925697 0.07762052 0.07142857
-0.80782839 0.07762052 0.00000000
-0.87925697 0.07762052 0.21428571
-0.87925697 0.07762052 0.35714286
-0.87925697 0.07762052 0.50000000
-0.87925697 0.07762052 0.64285714
-0.80782839 0.07762052 0.71428571
-0.80782839 0.14904909 0.07142857
-0.87925697 0.22047766 0.21428571
-0.80782839 0.22047766 0.14285714
-0.87925697 0.22047766 0.35714286
-0.87925697 0.22047766 0.50000000
-0.87925697 0.22047766 0.64285714
-0.80782839 0.22047766 0.71428571
-0.80782839 0.29190624 0.21428571
-0.87925697 0.36333481 0.35714286
-0.80782839 0.36333481 0.28571429
-0.87925697 0.36333481 0.50000000
-0.80782839 0.36333481 0.57142857
-0.80782839 0.29190624 0.64285714
-0.80782839 0.43476338 0.35714286
-0.80782839 0.43476338 0.50000000
-0.73639982 -0.49380805 0.21428571
-0.66497125 -0.49380805 0.14285714
-0.66497125 -0.56523662 0.21428571
-0.66497125 -0.56523662 0.35714286
-0.73639982 -0.49380805 0.35714286
-0.66497125 -0.56523662 0.50000000
-0.73639982 -0.49380805 0.50000000
-0.66497125 -0.56523662 0.64285714
-0.73639982 -0.49380805 0.64285714
-0.66497125 -0.49380805 0.71428571
-0.73639982 -0.35095091 0.07142857
-0.66497125 -0.35095091 0.00000000
-0.66497125 -0.42237948 0.07142857
-0.66497125 -0.35095091 0.71428571
-0.73639982 -0.20809376 0.07142857
-0.66497125 -0.20809376 0.00000000
-0.66497125 -0.27952234 0.78571429
-0.73639982 -0.20809376 0.78571429
-0.66497125 -0.20809376 0.85714286
-0.66497125 -0.06523662 0.00000000
-0.73639982 -0.06523662 0.78571429
-0.66497125 -0.06523662 0.85714286
-0.66497125 0.07762052 0.00000000
-0.73639982 0.07762052 0.78571429
-0.66497125 0.07762052 0.85714286
-0.73639982 0.22047766 0.07142857
-0.66497125 0.22047766 0.00000000
-0.73639982 0.22047766 0.78571429
-0.66497125 0.22047766 0.85714286
-0.73639982 0.36333481 0.07142857
-0.66497125 0.36333481 0.00000000
-0.73639982 0.36333481 0.21428571
-0.73639982 0.36333481 0.64285714
-0.66497125 0.36333481 0.71428571
-0.66497125 0.29190624 0.78571429
-0.66497125 0.43476338 0.07142857
-0.66497125 0.43476338 0.21428571
-0.66497125 0.43476338 0.35714286
-0.66497125 0.43476338 0.50000000
-0.66497125 0.43476338 0.64285714
-0.59354268 -0.63666519 0.21428571
-0.52211411 -0.63666519 0.14285714
-0.52211411 -0.70809376 0.21428571
-0.52211411 -0.70809376 0.35714286
-0.59354268 -0.63666519 0.35714286
-0.52211411 -0.70809376 0.50000000
-0.59354268 -0.63666519 0.50000000
-0.52211411 -0.70809376 0.64285714
-0.59354268 -0.63666519 0.64285714
-0.52211411 -0.63666519 0.71428571
-0.59354268 -0.49380805 0.07142857
-0.52211411 -0.49380805 0.00000000
-0.52211411 -0.56523662 0.07142857
-0.52211411 -0.49380805 0.71428571
-0.52211411 -0.35095091 0.00000000
-0.52211411 -0.42237948 0.78571429
-0.59354268 -0.35095091 0.78571429
-0.52211411 -0.35095091 0.85714286
-0.59354268 -0.20809376 -0.07142857
-0.52211411 -0.20809376 -0.14285714
-0.52211411 -0.27952234 -0.07142857
-0.52211411 -0.20809376 0.85714286
-0.59354268 -0.06523662 -0.07142857
-0.52211411 -0.06523662 -0.14285714
-0.52211411 -0.06523662 0.85714286
-0.59354268 0.07762052 -0.07142857
-0.52211411 0.07762052 -0.14285714
-0.52211411 0.07762052 0.85714286
-0.59354268 0.22047766 -0.07142857
-0.52211411 0.22047766 -0.14285714
-0.52211411 0.22047766 0.85714286
-0.52211411 0.29190624 -0.07142857
-0.52211411 0.36333481 0.00000000
-0.59354268 0.36333481 0.78571429
-0.52211411 0.36333481 0.85714286
-0.59354268 0.50619195 0.07142857
-0.52211411 0.50619195 0.00000000
-0.59354268 0.50619195 0.21428571
-0.59354268 0.50619195 0.35714286
-0.59354268 0.50619195 0.50000000
-0.52211411 0.50619195 0.57142857
-0.52211411 0.43476338 0.64285714
-0.52211411 0.43476338 0.78571429
-0.52211411 0.57762052 0.07142857
-0.52211411 0.57762052 0.21428571
-0.52211411 0.57762052 0.35714286
-0.52211411 0.57762052 0.50000000
-0.45068554 -0.63666519 0.07142857
-0.37925697 -0.63666519 0.00000000
-0.37925697 -0.70809376 0.07142857
-0.37925697 -0.70809376 0.21428571
-0.37925697 -0.70809376 0.35714286
-0.37925697 -0.70809376 0.50000000
-0.37925697 -0.70809376 0.64285714
-0.37925697 -0.63666519 0.71428571
-0.37925697 -0.49380805 0.00000000
-0.37925697 -0.49380805 0.71428571
-0.45068554 -0.35095091 -0.07142857
-0.37925697 -0.35095091 -0.14285714
-0.37925697 -0.42237948 -0.07142857
-0.37925697 -0.42237948 0.78571429
-0.37925697 -0.35095091 0.85714286
-0.37925697 -0.20809376 -0.14285714
-0.37925697 -0.20809376 0.85714286
-0.45068554 -0.06523662 -0.21428571
-0.37925697 -0.06523662 -0.28571429
-0.37925697 -0.13666519 -0.21428571
-0.37925697 -0.06523662 0.85714286
-0.45068554 0.07762052 -0.21428571
-0.37925697 0.07762052 -0.28571429
-0.37925697 0.07762052 0.85714286
-0.37925697 0.14904909 -0.21428571
-0.37925697 0.22047766 -0.14285714
-0.37925697 0.22047766 0.85714286
-0.45068554 0.36333481 -0.07142857
-0.37925697 0.36333481 -0.14285714
-0.37925697 0.36333481 0.85714286
-0.37925697 0.43476338 -0.07142857
-0.37925697 0.50619195 0.00000000
-0.37925697 0.43476338 0.64285714
-0.37925697 0.50619195 0.57142857
-0.37925697 0.43476338 0.78571429
-0.37925697 0.57762052 0.07142857
-0.37925697 0.57762052 0.21428571
-0.37925697 0.57762052 0.35714286
-0.37925697 0.57762052 0.50000000
-0.23639982 -0.63666519 0.00000000
-0.23639982 -0.70809376 0.07142857
-0.23639982 -0.70809376 0.21428571
-0.23639982 -0.70809376 0.35714286
-0.23639982 -0.70809376 0.50000000
-0.23639982 -0.70809376 0.64285714
-0.23639982 -0.63666519 0.71428571
-0.23639982 -0.49380805 0.00000000
-0.23639982 -0.49380805 0.71428571
-0.23639982 -0.35095091 -0.14285714
-0.23639982 -0.42237948 -0.07142857
-0.23639982 -0.42237948 0.78571429
-0.23639982 -0.35095091 0.85714286
-0.30782839 -0.20809376 -0.92857143
-0.23639982 -0.20809376 -1.00000000
-0.23639982 -0.27952234 -0.92857143
-0.23639982 -0.27952234 -0.78571429
-0.30782839 -0.20809376 -0.78571429
-0.23639982 -0.27952234 -0.64285714
-0.30782839 -0.20809376 -0.64285714
-0.23639982 -0.27952234 -0.50000000
-0.30782839 -0.20809376 -0.50000000
-0.23639982 -0.27952234 -0.35714286
-0.30782839 -0.20809376 -0.35714286
-0.23639982 -0.27952234 -0.21428571
-0.30782839 -0.20809376 -0.21428571
-0.23639982 -0.20809376 0.85714286
-0.30782839 -0.06523662 -0.92857143
-0.23639982 -0.06523662 -1.00000000
-0.30782839 -0.06523662 -0.78571429
-0.30782839 -0.06523662 -0.64285714
-0.30782839 -0.06523662 -0.50000000
-0.30782839 -0.06523662 -0.35714286
-0.23639982 -0.06523662 0.85714286
-0.30782839 0.07762052 -0.92857143
-0.23639982 0.07762052 -1.00000000
-0.30782839 0.07762052 -0.78571429
-0.30782839 0.07762052 -0.64285714
-0.30782839 0.07762052 -0.50000000
-0.30782839 0.07762052 -0.35714286
-0.23639982 0.07762052 0.85714286
-0.30782839 0.22047766 -0.92857143
-0.23639982 0.22047766 -1.00000000
-0.30782839 0.22047766 -0.78571429
-0.30782839 0.22047766 -0.64285714
-0.30782839 0.22047766 -0.50000000
-0.30782839 0.22047766 -0.35714286
-0.30782839 0.22047766 -0.21428571
-0.23639982 0.14904909 0.92857143
-0.30782839 0.22047766 0.92857143
-0.23639982 0.22047766 1.00000000
-0.30782839 0.36333481 -0.92857143
-0.23639982 0.36333481 -1.00000000
-0.30782839 0.36333481 -0.78571429
-0.30782839 0.36333481 -0.64285714
-0.30782839 0.36333481 -0.50000000
-0.30782839 0.36333481 -0.35714286
-0.30782839 0.36333481 -0.21428571
-0.23639982 0.29190624 0.92857143
-0.23639982 0.36333481 0.85714286
-0.23639982 0.43476338 -0.92857143
-0.23639982 0.43476338 -0.78571429
-0.23639982 0.43476338 -0.64285714
-0.23639982 0.43476338 -0.50000000
-0.23639982 0.43476338 -0.35714286
-0.23639982 0.43476338 -0.21428571
-0.30782839 0.50619195 -0.07142857
-0.23639982 0.50619195 -0.14285714
-0.30782839 0.50619195 0.64285714
-0.23639982 0.50619195 0.71428571
-0.23639982 0.43476338 0.78571429
-0.23639982 0.57762052 -0.07142857
-0.23639982 0.57762052 0.07142857
-0.23639982 0.57762052 0.21428571
-0.23639982 0.57762052 0.35714286
-0.23639982 0.57762052 0.50000000
-0.23639982 0.57762052 0.64285714
-0.16497125 -0.63666519 0.07142857
-0.09354268 -0.63666519 0.14285714
-0.09354268 -0.70809376 0.21428571
-0.09354268 -0.70809376 0.35714286
-0.09354268 -0.70809376 0.50000000
-0.09354268 -0.70809376 0.64285714
-0.09354268 -0.63666519 0.71428571
-0.09354268 -0.49380805 0.00000000
-0.09354268 -0.56523662 0.07142857
-0.09354268 -0.49380805 0.71428571
-0.16497125 -0.35095091 -0.78571429
-0.09354268 -0.35095091 -0.85714286
-0.09354268 -0.42237948 -0.78571429
-0.09354268 -0.42237948 -0.64285714
-0.16497125 -0.35095091 -0.64285714
-0.09354268 -0.42237948 -0.50000000
-0.16497125 -0.35095091 -0.50000000
-0.09354268 -0.42237948 -0.35714286
-0.16497125 -0.35095091 -0.35714286
-0.09354268 -0.42237948 -0.21428571
-0.16497125 -0.35095091 -0.21428571
-0.09354268 -0.42237948 -0.07142857
-0.09354268 -0.42237948 0.78571429
-0.09354268 -0.35095091 0.85714286
-0.09354268 -0.20809376 -1.00000000
-0.09354268 -0.27952234 -0.92857143
-0.09354268 -0.20809376 0.85714286
-0.09354268 -0.06523662 -1.00000000
-0.09354268 -0.13666519 0.92857143
-0.16497125 -0.06523662 0.92857143
-0.09354268 -0.06523662 1.00000000
-0.09354268 0.07762052 -1.00000000
-0.16497125 0.07762052 0.92857143
-0.09354268 0.07762052 1.00000000
-0.09354268 0.22047766 -1.00000000
-0.09354268 0.22047766 1.00000000
-0.09354268 0.36333481 -1.00000000
-0.16497125 0.36333481 0.92857143
-0.09354268 0.36333481 1.00000000
-0.09354268 0.43476338 -0.92857143
-0.16497125 0.50619195 -0.78571429
-0.09354268 0.50619195 -0.85714286
-0.16497125 0.50619195 -0.64285714
-0.16497125 0.50619195 -0.50000000
-0.16497125 0.50619195 -0.35714286
-0.16497125 0.50619195 -0.21428571
-0.09354268 0.43476338 0.78571429
-0.09354268 0.50619195 0.71428571
-0.09354268 0.43476338 0.92857143
-0.09354268 0.57762052 -0.78571429
-0.09354268 0.57762052 -0.64285714
-0.09354268 0.57762052 -0.50000000
-0.09354268 0.57762052 -0.35714286
-0.09354268 0.57762052 -0.21428571
-0.09354268 0.57762052 -0.07142857
-0.09354268 0.57762052 0.07142857
-0.09354268 0.57762052 0.21428571
-0.09354268 0.57762052 0.35714286
-0.09354268 0.57762052 0.50000000
-0.09354268 0.57762052 0.64285714
0.04931446 -0.63666519 0.14285714
0.04931446 -0.70809376 0.21428571
0.04931446 -0.70809376 0.35714286
0.04931446 -0.70809376 0.50000000
-0.02211411 -0.63666519 0.64285714
0.04931446 -0.63666519 0.57142857
0.04931446 -0.49380805 0.00000000
0.04931446 -0.56523662 0.07142857
0.04931446 -0.56523662 0.64285714
0.04931446 -0.49380805 0.71428571
-0.02211411 -0.35095091 -0.92857143
0.04931446 -0.35095091 -1.00000000
0.04931446 -0.42237948 -0.92857143
0.04931446 -0.42237948 -0.78571429
0.04931446 -0.42237948 -0.64285714
0.04931446 -0.42237948 -0.50000000
0.04931446 -0.42237948 -0.35714286
0.04931446 -0.42237948 -0.21428571
0.04931446 -0.42237948 -0.07142857
0.04931446 -0.42237948 0.78571429
0.04931446 -0.35095091 0.85714286
0.04931446 -0.20809376 -1.00000000
0.04931446 -0.20809376 0.85714286
0.04931446 -0.06523662 -1.00000000
0.04931446 -0.13666519 0.92857143
0.04931446 -0.06523662 1.00000000
0.04931446 0.07762052 -1.00000000
0.04931446 0.07762052 1.00000000
0.04931446 0.22047766 -1.00000000
0.04931446 0.22047766 1.00000000
0.04931446 0.36333481 -1.00000000
0.04931446 0.36333481 1.00000000
0.04931446 0.43476338 -0.92857143
0.04931446 0.50619195 -0.85714286
0.04931446 0.43476338 0.78571429
0.04931446 0.50619195 0.71428571
0.04931446 0.43476338 0.92857143
0.04931446 0.57762052 -0.78571429
-0.02211411 0.64904909 -0.64285714
0.04931446 0.64904909 -0.71428571
-0.02211411 0.64904909 -0.50000000
0.04931446 0.64904909 -0.42857143
0.04931446 0.57762052 -0.35714286
0.04931446 0.57762052 -0.21428571
0.04931446 0.57762052 -0.07142857
0.04931446 0.57762052 0.07142857
0.04931446 0.57762052 0.21428571
0.04931446 0.57762052 0.35714286
0.04931446 0.57762052 0.50000000
0.04931446 0.57762052 0.64285714
0.04931446 0.72047766 -0.64285714
0.04931446 0.72047766 -0.50000000
0.19217161 -0.63666519 0.14285714
0.19217161 -0.70809376 0.21428571
0.19217161 -0.70809376 0.35714286
0.19217161 -0.70809376 0.50000000
0.19217161 -0.63666519 0.57142857
0.12074303 -0.49380805 -0.64285714
0.19217161 -0.49380805 -0.71428571
0.19217161 -0.56523662 -0.64285714
0.19217161 -0.56523662 -0.50000000
0.12074303 -0.49380805 -0.50000000
0.19217161 -0.49380805 -0.42857143
0.19217161 -0.49380805 0.00000000
0.19217161 -0.56523662 0.07142857
0.19217161 -0.56523662 0.64285714
0.19217161 -0.49380805 0.71428571
0.19217161 -0.35095091 -1.00000000
0.19217161 -0.42237948 -0.92857143
0.19217161 -0.42237948 -0.78571429
0.19217161 -0.42237948 -0.35714286
0.19217161 -0.42237948 -0.21428571
0.19217161 -0.42237948 -0.07142857
0.19217161 -0.42237948 0.78571429
0.19217161 -0.35095091 0.85714286
0.19217161 -0.20809376 -1.00000000
0.19217161 -0.20809376 0.85714286
0.19217161 -0.06523662 -1.00000000
0.12074303 -0.06523662 0.92857143
0.19217161 -0.06523662 0.85714286
0.19217161 0.07762052 -1.00000000
0.19217161 0.00619195 0.92857143
0.19217161 0.07762052 1.00000000
0.19217161 0.22047766 -1.00000000
0.19217161 0.22047766 1.00000000
0.19217161 0.36333481 -1.00000000
0.12074303 0.36333481 0.92857143
0.19217161 0.29190624 0.92857143
0.19217161 0.36333481 0.85714286
0.19217161 0.43476338 -0.92857143
0.19217161 0.50619195 -0.85714286
0.19217161 0.43476338 0.78571429
0.19217161 0.50619195 0.71428571
0.19217161 0.57762052 -0.78571429
0.19217161 0.64904909 -0.71428571
0.19217161 0.57762052 -0.35714286
0.19217161 0.64904909 -0.42857143
0.19217161 0.57762052 -0.21428571
0.19217161 0.57762052 -0.07142857
0.19217161 0.57762052 0.07142857
0.19217161 0.57762052 0.21428571
0.19217161 0.57762052 0.35714286
0.19217161 0.57762052 0.50000000
0.19217161 0.57762052 0.64285714
0.19217161 0.72047766 -0.64285714
0.19217161 0.72047766 -0.50000000
0.26360018 -0.63666519 0.21428571
0.26360018 -0.63666519 0.35714286
0.26360018 -0.63666519 0.50000000
0.33502875 -0.49380805 -0.71428571
0.33502875 -0.56523662 -0.64285714
0.33502875 -0.56523662 -0.50000000
0.33502875 -0.49380805 -0.42857143
0.26360018 -0.49380805 0.07142857
0.33502875 -0.49380805 0.14285714
0.33502875 -0.56523662 0.21428571
0.33502875 -0.56523662 0.35714286
0.33502875 -0.56523662 0.50000000
0.33502875 -0.56523662 0.64285714
0.33502875 -0.49380805 0.71428571
0.26360018 -0.35095091 -0.92857143
0.33502875 -0.35095091 -0.85714286
0.33502875 -0.42237948 -0.78571429
0.33502875 -0.42237948 -0.35714286
0.33502875 -0.42237948 -0.21428571
0.33502875 -0.42237948 -0.07142857
0.33502875 -0.42237948 0.07142857
0.33502875 -0.42237948 0.78571429
0.33502875 -0.35095091 0.85714286
0.26360018 -0.20809376 -0.92857143
0.33502875 -0.20809376 -0.85714286
0.33502875 -0.20809376 0.85714286
0.26360018 -0.06523662 -0.92857143
0.33502875 -0.06523662 -0.85714286
0.33502875 -0.06523662 0.85714286
0.26360018 0.07762052 -0.92857143
0.33502875 0.07762052 -0.85714286
0.26360018 0.07762052 0.92857143
0.33502875 0.07762052 0.85714286
0.26360018 0.22047766 -0.92857143
0.33502875 0.22047766 -0.85714286
0.26360018 0.22047766 0.92857143
0.33502875 0.22047766 0.85714286
0.26360018 0.36333481 -0.92857143
0.33502875 0.36333481 -0.85714286
0.33502875 0.36333481 0.85714286
0.33502875 0.50619195 -0.85714286
0.26360018 0.50619195 -0.07142857
0.33502875 0.43476338 -0.07142857
0.33502875 0.50619195 -0.14285714
0.26360018 0.50619195 0.07142857
0.33502875 0.43476338 0.07142857
0.26360018 0.50619195 0.21428571
0.33502875 0.43476338 0.21428571
0.26360018 0.50619195 0.35714286
0.33502875 0.43476338 0.35714286
0.26360018 0.50619195 0.50000000
0.33502875 0.43476338 0.50000000
0.26360018 0.50619195 0.64285714
0.33502875 0.43476338 0.64285714
0.33502875 0.43476338 0.78571429
0.33502875 0.57762052 -0.78571429
0.26360018 0.64904909 -0.64285714
0.33502875 0.57762052 -0.64285714
0.26360018 0.64904909 -0.50000000
0.33502875 0.57762052 -0.50000000
0.33502875 0.57762052 -0.35714286
0.33502875 0.57762052 -0.21428571
0.40645732 -0.49380805 -0.64285714
0.40645732 -0.49380805 -0.50000000
0.40645732 -0.49380805 0.21428571
0.40645732 -0.49380805 0.35714286
0.40645732 -0.49380805 0.50000000
0.40645732 -0.49380805 0.64285714
0.47788589 -0.35095091 -0.85714286
0.47788589 -0.42237948 -0.78571429
0.47788589 -0.42237948 -0.64285714
0.47788589 -0.42237948 -0.50000000
0.47788589 -0.42237948 -0.35714286
0.47788589 -0.42237948 -0.21428571
0.47788589 -0.42237948 -0.07142857
0.47788589 -0.42237948 0.07142857
0.47788589 -0.42237948 0.21428571
0.47788589 -0.42237948 0.35714286
0.47788589 -0.42237948 0.50000000
0.47788589 -0.42237948 0.64285714
0.40645732 -0.35095091 0.78571429
0.47788589 -0.35095091 0.71428571
0.47788589 -0.20809376 -0.85714286
0.47788589 -0.27952234 0.78571429
0.47788589 -0.20809376 0.85714286
0.47788589 -0.06523662 -0.85714286
0.47788589 -0.06523662 0.85714286
0.47788589 0.07762052 -0.85714286
0.47788589 0.07762052 0.85714286
0.47788589 0.22047766 -0.85714286
0.47788589 0.22047766 0.85714286
0.47788589 0.29190624 -0.78571429
0.40645732 0.36333481 -0.78571429
0.47788589 0.36333481 -0.71428571
0.40645732 0.36333481 0.64285714
0.47788589 0.29190624 0.64285714
0.47788589 0.36333481 0.57142857
0.40645732 0.36333481 0.78571429
0.47788589 0.29190624 0.78571429
0.40645732 0.50619195 -0.78571429
0.47788589 0.43476338 -0.64285714
0.40645732 0.50619195 -0.64285714
0.40645732 0.50619195 -0.50000000
0.47788589 0.43476338 -0.50000000
0.40645732 0.50619195 -0.35714286
0.47788589 0.43476338 -0.35714286
0.47788589 0.50619195 -0.28571429
0.47788589 0.43476338 -0.07142857
0.47788589 0.50619195 -0.14285714
0.47788589 0.43476338 0.07142857
0.47788589 0.43476338 0.21428571
0.47788589 0.43476338 0.35714286
0.47788589 0.43476338 0.50000000
0.47788589 0.57762052 -0.21428571
0.54931446 -0.35095091 -0.78571429
0.62074303 -0.35095091 -0.71428571
0.62074303 -0.42237948 -0.64285714
0.62074303 -0.42237948 -0.50000000
0.62074303 -0.42237948 -0.35714286
0.62074303 -0.42237948 -0.21428571
0.54931446 -0.35095091 -0.07142857
0.62074303 -0.35095091 -0.14285714
0.54931446 -0.35095091 0.07142857
0.54931446 -0.35095091 0.21428571
0.54931446 -0.35095091 0.35714286
0.54931446 -0.35095091 0.50000000
0.54931446 -0.35095091 0.64285714
0.62074303 -0.20809376 -0.85714286
0.62074303 -0.27952234 -0.78571429
0.62074303 -0.27952234 -0.07142857
0.62074303 -0.20809376 0.00000000
0.54931446 -0.20809376 0.07142857
0.54931446 -0.20809376 0.21428571
0.54931446 -0.20809376 0.35714286
0.54931446 -0.20809376 0.50000000
0.54931446 -0.20809376 0.64285714
0.54931446 -0.20809376 0.78571429
0.62074303 -0.06523662 -0.85714286
0.62074303 -0.13666519 0.07142857
0.62074303 -0.13666519 0.21428571
0.62074303 -0.06523662 0.28571429
0.54931446 -0.06523662 0.35714286
0.54931446 -0.06523662 0.50000000
0.54931446 -0.06523662 0.64285714
0.54931446 -0.06523662 0.78571429
0.62074303 0.07762052 -0.85714286
0.54931446 0.07762052 0.35714286
0.62074303 0.07762052 0.28571429
0.54931446 0.07762052 0.50000000
0.54931446 0.07762052 0.64285714
0.54931446 0.07762052 0.78571429
0.62074303 0.14904909 -0.78571429
0.54931446 0.22047766 -0.78571429
0.62074303 0.22047766 -0.71428571
0.54931446 0.22047766 0.35714286
0.62074303 0.22047766 0.28571429
0.54931446 0.22047766 0.50000000
0.54931446 0.22047766 0.64285714
0.54931446 0.22047766 0.78571429
0.54931446 0.36333481 -0.64285714
0.62074303 0.29190624 -0.64285714
0.62074303 0.36333481 -0.57142857
0.54931446 0.36333481 0.07142857
0.62074303 0.29190624 0.07142857
0.62074303 0.36333481 0.00000000
0.54931446 0.36333481 0.21428571
0.62074303 0.29190624 0.21428571
0.54931446 0.36333481 0.35714286
0.54931446 0.36333481 0.50000000
0.62074303 0.43476338 -0.50000000
0.62074303 0.43476338 -0.35714286
0.54931446 0.50619195 -0.21428571
0.62074303 0.43476338 -0.21428571
0.62074303 0.43476338 -0.07142857
0.69217161 -0.35095091 -0.64285714
0.69217161 -0.35095091 -0.50000000
0.69217161 -0.35095091 -0.35714286
0.69217161 -0.35095091 -0.21428571
0.69217161 -0.20809376 -0.78571429
0.76360018 -0.20809376 -0.71428571
0.76360018 -0.27952234 -0.64285714
0.76360018 -0.27952234 -0.50000000
0.76360018 -0.27952234 -0.35714286
0.76360018 -0.27952234 -0.21428571
0.69217161 -0.20809376 -0.07142857
0.76360018 -0.20809376 -0.14285714
0.69217161 -0.06523662 -0.78571429
0.76360018 -0.06523662 -0.71428571
0.69217161 -0.06523662 -0.07142857
0.76360018 -0.06523662 -0.14285714
0.69217161 -0.06523662 0.07142857
0.69217161 -0.06523662 0.21428571
0.69217161 0.07762052 -0.78571429
0.76360018 0.07762052 -0.71428571
0.76360018 0.00619195 -0.07142857
0.76360018 0.07762052 0.00000000
0.69217161 0.07762052 0.07142857
0.69217161 0.07762052 0.21428571
0.69217161 0.22047766 -0.64285714
0.76360018 0.14904909 -0.64285714
0.76360018 0.22047766 -0.57142857
0.69217161 0.22047766 0.07142857
0.76360018 0.22047766 0.00000000
0.69217161 0.22047766 0.21428571
0.69217161 0.36333481 -0.50000000
0.76360018 0.29190624 -0.50000000
0.76360018 0.36333481 -0.42857143
0.76360018 0.36333481 0.00000000
0.76360018 0.43476338 -0.35714286
0.76360018 0.43476338 -0.21428571
0.76360018 0.43476338 -0.07142857
0.83502875 -0.20809376 -0.64285714
0.83502875 -0.20809376 -0.50000000
0.83502875 -0.20809376 -0.35714286
0.83502875 -0.20809376 -0.21428571
0.83502875 -0.06523662 -0.64285714
0.83502875 -0.06523662 -0.50000000
0.83502875 -0.06523662 -0.35714286
0.83502875 -0.06523662 -0.21428571
0.83502875 0.07762052 -0.64285714
0.83502875 0.07762052 -0.50000000
0.83502875 0.07762052 -0.35714286
0.83502875 0.07762052 -0.21428571
0.83502875 0.07762052 -0.07142857
0.83502875 0.22047766 -0.50000000
0.83502875 0.22047766 -0.35714286
0.83502875 0.22047766 -0.21428571
0.83502875 0.22047766 -0.07142857
0.83502875 0.36333481 -0.35714286
0.83502875 0.36333481 -0.21428571
0.83502875 0.36333481 -0.07142857
3 2 1 0
3 4 3 0
3 0 3 2
3 6 5 4
3 4 5 3
3 8 7 6
3 6 7 5
3 8 9 7
3 0 1 10
3 10 1 11
3 0 12 4
3 0 10 12
3 4 13 6
3 4 12 13
3 6 14 8
3 6 13 14
3 9 8 15
3 15 8 14
3 18 17 16
3 18 16 11
3 16 10 11
3 16 19 10
3 10 20 12
3 10 19 20
3 12 21 13
3 12 20 21
3 13 22 14
3 13 21 22
3 15 14 23
3 23 14 22
3 16 17 24
3 24 17 25
3 16 26 19
3 16 24 26
3 19 27 20
3 19 26 27
3 20 28 21
3 20 27 28
3 21 29 22
3 21 28 29
3 23 22 30
3 30 22 29
3 25 31 24
3 33 32 31
3 32 24 31
3 32 26 24
3 26 34 27
3 26 32 34
3 27 35 28
3 27 34 35
3 28 36 29
3 28 35 36
3 30 29 37
3 37 29 36
3 33 38 32
3 40 39 38
3 39 32 38
3 39 34 32
3 34 41 35
3 34 39 41
3 43 36 42
3 36 41 42
3 36 35 41
3 36 43 37
3 40 44 39
3 39 44 41
3 41 44 45
3 41 45 42
3 48 47 46
3 50 49 46
3 46 49 48
3 52 51 50
3 50 51 49
3 54 53 52
3 52 53 51
3 54 55 53
3 58 57 56
3 58 56 47
3 47 56 46
3 56 1 46
3 1 2 46
3 46 2 3
3 46 3 50
3 50 3 5
3 50 5 52
3 52 5 7
3 52 7 54
3 7 9 54
3 9 55 54
3 9 59 55
3 56 57 60
3 60 57 61
3 60 11 1
3 60 1 56
3 15 63 62
3 59 15 62
3 9 15 59
3 63 64 62
3 60 61 18
3 61 17 18
3 61 65 17
3 60 18 11
3 23 66 63
3 23 63 15
3 64 63 67
3 67 63 66
3 65 25 17
3 68 25 65
3 30 69 66
3 30 66 23
3 67 66 70
3 70 66 69
3 31 25 71
3 25 72 71
3 25 68 72
3 71 33 31
3 37 73 69
3 37 69 30
3 70 69 74
3 74 69 73
3 71 72 75
3 75 72 76
3 77 38 33
3 71 77 33
3 75 77 71
3 77 40 38
3 42 78 43
3 78 79 43
3 43 79 37
3 79 80 37
3 80 73 37
3 73 80 74
3 76 81 75
3 75 81 77
3 77 81 82
3 77 82 40
3 82 44 40
3 82 83 44
3 44 84 45
3 83 84 44
3 42 45 78
3 45 85 78
3 45 84 85
3 78 85 79
3 88 87 86
3 90 89 86
3 86 89 88
3 92 91 90
3 90 91 89
3 94 93 92
3 92 93 91
3 94 95 93
3 98 97 96
3 98 96 87
3 87 96 86
3 96 47 86
3 47 48 86
3 86 48 49
3 86 49 90
3 90 49 51
3 90 51 92
3 92 51 53
3 92 53 94
3 53 55 94
3 55 95 94
3 55 99 95
3 96 97 58
3 97 57 58
3 97 100 57
3 96 58 47
3 59 102 101
3 99 59 101
3 55 59 99
3 102 103 101
3 106 105 104
3 100 106 104
3 61 100 104
3 57 100 61
3 62 102 59
3 62 64 102
3 64 103 102
3 64 107 103
3 104 105 108
3 108 105 109
3 108 65 61
3 108 61 104
3 67 107 64
3 67 110 107
3 108 109 111
3 111 109 112
3 111 68 65
3 111 65 108
3 70 110 67
3 70 113 110
3 111 112 114
3 114 112 115
3 114 72 68
3 114 68 111
3 74 113 70
3 74 116 113
3 115 117 114
3 72 114 117
3 118 72 117
3 76 72 118
3 79 119 80
3 119 120 80
3 120 74 80
3 120 116 74
3 81 76 121
3 76 122 121
3 76 118 122
3 123 82 81
3 123 81 121
3 124 83 82
3 124 82 123
3 125 84 83
3 125 83 124
3 84 125 126
3 127 84 126
3 85 84 127
3 79 85 119
3 85 128 119
3 85 127 128
3 119 128 120
3 122 129 121
3 121 129 123
3 123 129 130
3 123 130 124
3 124 130 131
3 124 131 125
3 125 131 132
3 125 132 126
3 135 134 133
3 87 88 133
3 88 135 133
3 88 136 135
3 137 88 89
3 137 136 88
3 138 89 91
3 138 137 89
3 139 91 93
3 139 138 91
3 93 95 139
3 139 95 140
3 133 134 98
3 134 97 98
3 134 141 97
3 133 98 87
3 99 140 95
3 99 142 140
3 145 144 143
3 141 145 143
3 100 141 143
3 97 141 100
3 146 142 99
3 146 99 101
3 101 103 146
3 146 103 147
3 143 144 106
3 144 105 106
3 144 148 105
3 143 106 100
3 107 147 103
3 107 149 147
3 152 151 150
3 148 152 150
3 109 148 150
3 105 148 109
3 110 149 107
3 110 153 149
3 150 151 154
3 154 151 155
3 154 112 109
3 154 109 150
3 113 153 110
3 113 156 153
3 155 157 154
3 112 154 157
3 158 112 157
3 115 112 158
3 116 156 113
3 116 159 156
3 117 115 160
3 115 161 160
3 115 158 161
3 160 118 117
3 120 159 116
3 120 162 159
3 161 163 160
3 118 160 163
3 164 118 163
3 122 118 164
3 166 165 127
3 166 127 126
3 127 167 128
3 165 167 127
3 120 128 162
3 162 128 167
3 164 168 122
3 122 168 129
3 129 169 130
3 168 169 129
3 130 170 131
3 169 170 130
3 131 171 132
3 170 171 131
3 126 132 166
3 166 132 171
3 173 172 135
3 135 172 134
3 174 135 136
3 174 173 135
3 175 136 137
3 175 174 136
3 176 137 138
3 176 175 137
3 177 138 139
3 177 176 138
3 139 140 177
3 177 140 178
3 172 141 134
3 179 141 172
3 142 178 140
3 142 180 178
3 182 181 145
3 145 181 144
3 145 141 179
3 145 179 182
3 183 180 142
3 183 142 146
3 146 147 183
3 183 147 184
3 187 186 185
3 189 188 185
3 185 188 187
3 191 190 189
3 189 190 188
3 193 192 191
3 191 192 190
3 195 194 193
3 193 194 192
3 197 196 195
3 195 196 194
3 181 196 197
3 148 181 197
3 144 181 148
3 149 184 147
3 149 198 184
3 185 186 199
3 199 186 200
3 185 201 189
3 185 199 201
3 189 202 191
3 189 201 202
3 191 203 193
3 191 202 203
3 193 204 195
3 193 203 204
3 204 151 152
3 197 204 152
3 195 204 197
3 197 152 148
3 153 198 149
3 153 205 198
3 199 200 206
3 206 200 207
3 199 208 201
3 199 206 208
3 201 209 202
3 201 208 209
3 202 210 203
3 202 209 210
3 203 211 204
3 203 210 211
3 211 155 151
3 211 151 204
3 156 205 153
3 156 212 205
3 206 207 213
3 213 207 214
3 206 215 208
3 206 213 215
3 208 216 209
3 208 215 216
3 209 217 210
3 209 216 217
3 210 218 211
3 210 217 218
3 219 157 155
3 211 219 155
3 218 219 211
3 219 158 157
3 159 221 220
3 212 159 220
3 156 159 212
3 221 222 220
3 213 214 223
3 223 214 224
3 213 225 215
3 213 223 225
3 215 226 216
3 215 225 226
3 216 227 217
3 216 226 227
3 217 228 218
3 217 227 228
3 218 229 219
3 218 228 229
3 229 161 158
3 229 158 219
3 231 230 221
3 159 231 221
3 162 231 159
3 221 230 222
3 224 232 223
3 223 232 225
3 225 232 233
3 225 233 226
3 226 233 234
3 226 234 227
3 227 234 235
3 227 235 228
3 228 235 236
3 228 236 229
3 229 236 237
3 237 239 238
3 237 238 163
3 229 237 163
3 161 229 163
3 238 164 163
3 166 240 165
3 165 240 241
3 242 165 241
3 167 165 242
3 162 167 231
3 231 167 242
3 239 243 238
3 238 243 164
3 243 168 164
3 243 244 168
3 168 245 169
3 244 245 168
3 169 246 170
3 245 246 169
3 170 247 171
3 246 247 170
3 166 171 240
3 171 248 240
3 171 247 248
3 240 248 241
3 249 172 173
3 249 173 250
3 173 251 250
3 173 174 251
3 252 174 175
3 252 251 174
3 253 175 176
3 253 252 175
3 254 176 177
3 254 253 176
3 177 178 254
3 254 178 255
3 257 256 249
3 256 172 249
3 256 179 172
3 257 249 250
3 180 255 178
3 180 258 255
3 261 260 259
3 263 262 259
3 259 262 261
3 265 264 263
3 263 264 262
3 267 266 265
3 265 266 264
3 269 268 267
3 267 268 266
3 181 182 269
3 182 268 269
3 182 270 268
3 182 179 256
3 182 256 270
3 271 258 180
3 271 180 183
3 183 184 271
3 271 184 272
3 274 273 187
3 187 273 186
3 188 259 260
3 274 188 260
3 187 188 274
3 259 188 190
3 259 190 263
3 263 190 192
3 263 192 265
3 265 192 194
3 265 194 267
3 267 194 196
3 267 196 269
3 269 196 181
3 198 272 184
3 198 275 272
3 273 200 186
3 276 200 273
3 205 278 277
3 275 205 277
3 198 205 275
3 278 279 277
3 276 207 200
3 280 207 276
3 212 281 278
3 212 278 205
3 279 278 282
3 282 278 281
3 280 214 207
3 283 214 280
3 220 281 212
3 220 222 281
3 222 282 281
3 222 284 282
3 283 224 214
3 285 224 283
3 231 286 230
3 286 287 230
3 287 222 230
3 287 284 222
3 285 288 224
3 224 288 232
3 288 290 289
3 233 288 289
3 232 288 233
3 291 234 233
3 291 233 289
3 292 235 234
3 292 234 291
3 293 236 235
3 293 235 292
3 294 237 236
3 294 236 293
3 294 239 237
3 296 295 242
3 296 242 241
3 231 242 286
3 242 297 286
3 242 295 297
3 286 297 287
3 290 298 289
3 289 298 291
3 291 298 299
3 291 299 292
3 292 299 300
3 292 300 293
3 293 300 301
3 293 301 294
3 294 301 302
3 294 302 239
3 302 243 239
3 302 303 243
3 243 304 244
3 303 304 243
3 244 305 245
3 304 305 244
3 245 306 246
3 305 306 245
3 246 307 247
3 306 307 246
3 247 308 248
3 307 308 247
3 241 248 296
3 296 248 308
3 310 309 251
3 251 309 250
3 311 251 252
3 311 310 251
3 312 252 253
3 312 311 252
3 314 312 313
3 312 254 313
3 312 253 254
3 255 313 254
3 316 315 257
3 257 315 256
3 257 250 309
3 257 309 316
3 317 314 313
3 313 255 317
3 255 318 317
3 255 258 318
3 321 320 319
3 260 261 319
3 261 321 319
3 261 322 321
3 323 261 262
3 323 322 261
3 324 262 264
3 324 323 262
3 325 264 266
3 325 324 264
3 326 266 268
3 326 325 266
3 327 268 270
3 327 326 268
3 270 256 315
3 270 315 327
3 328 318 258
3 328 258 271
3 271 272 328
3 328 272 329
3 319 320 274
3 320 273 274
3 320 330 273
3 319 274 260
3 275 329 272
3 275 331 329
3 330 276 273
3 332 276 330
3 333 331 275
3 333 275 277
3 277 279 333
3 333 279 334
3 332 280 276
3 335 280 332
3 282 334 279
3 282 336 334
3 335 283 280
3 337 283 335
3 284 336 282
3 284 338 336
3 337 285 283
3 339 285 337
3 287 338 284
3 287 340 338
3 339 341 285
3 285 341 288
3 290 288 341
3 290 341 342
3 344 343 295
3 344 295 296
3 295 345 297
3 343 345 295
3 287 297 340
3 340 297 345
3 342 346 290
3 290 346 298
3 346 348 347
3 299 346 347
3 298 346 299
3 349 300 299
3 349 299 347
3 300 349 350
3 351 300 350
3 301 300 351
3 301 352 302
3 351 352 301
3 302 353 303
3 352 353 302
3 303 354 304
3 353 354 303
3 304 355 305
3 354 355 304
3 305 356 306
3 355 356 305
3 306 357 307
3 356 357 306
3 307 358 308
3 357 358 307
3 296 308 344
3 344 308 358
3 348 359 347
3 347 359 349
3 349 359 360
3 349 360 350
3 362 361 310
3 310 361 309
3 363 310 311
3 363 362 310
3 364 311 312
3 364 363 311
3 312 314 364
3 364 314 365
3 368 367 366
3 370 369 366
3 366 369 368
3 370 371 369
3 373 372 316
3 316 372 315
3 316 309 361
3 316 361 373
3 374 365 314
3 374 314 317
3 317 318 374
3 374 318 375
3 377 376 321
3 321 376 320
3 378 321 322
3 378 377 321
3 323 366 367
3 378 323 367
3 322 323 378
3 366 323 324
3 366 324 370
3 379 371 370
3 324 379 370
3 325 379 324
3 380 325 326
3 380 379 325
3 381 326 327
3 381 380 326
3 327 315 372
3 327 372 381
3 382 375 318
3 382 318 328
3 328 329 382
3 382 329 383
3 376 330 320
3 384 330 376
3 331 383 329
3 331 385 383
3 384 332 330
3 386 332 384
3 331 333 387
3 388 331 387
3 385 331 388
3 334 387 333
3 386 335 332
3 389 335 386
3 390 388 387
3 387 334 390
3 334 391 390
3 334 336 391
3 389 337 335
3 392 337 389
3 338 391 336
3 338 393 391
3 392 339 337
3 394 339 392
3 397 396 395
3 396 393 395
3 393 340 395
3 393 338 340
3 394 398 339
3 339 398 341
3 342 341 398
3 342 398 399
3 401 400 343
3 401 343 344
3 395 345 397
3 345 400 397
3 345 343 400
3 345 395 340
3 399 402 342
3 342 402 346
3 348 346 402
3 348 402 403
3 405 404 351
3 405 351 350
3 351 406 352
3 404 406 351
3 352 407 353
3 406 407 352
3 353 408 354
3 407 408 353
3 354 409 355
3 408 409 354
3 355 410 356
3 409 410 355
3 356 411 357
3 410 411 356
3 357 412 358
3 411 412 357
3 344 358 401
3 401 358 412
3 403 413 348
3 348 413 359
3 359 414 360
3 413 414 359
3 350 360 405
3 405 360 414
3 415 361 362
3 363 416 362
3 362 416 415
3 364 417 363
3 363 417 416
3 365 417 364
3 419 418 368
3 368 418 367
3 420 368 369
3 420 419 368
3 369 371 420
3 420 371 421
3 422 372 373
3 423 422 373
3 423 373 361
3 424 423 361
3 415 424 361
3 424 415 416
3 424 416 425
3 425 416 417
3 425 417 426
3 426 417 365
3 374 426 365
3 427 426 374
3 374 375 427
3 427 375 428
3 429 376 377
3 429 377 430
3 377 431 430
3 377 378 431
3 378 367 418
3 378 418 431
3 432 421 371
3 432 371 379
3 433 379 380
3 433 432 379
3 434 380 381
3 434 433 380
3 381 372 422
3 435 381 422
3 434 381 435
3 435 422 423
3 436 428 375
3 436 375 382
3 382 383 436
3 436 383 437
3 438 384 429
3 429 384 376
3 429 430 439
3 429 439 438
3 385 437 383
3 385 440 437
3 441 386 438
3 438 386 384
3 438 439 442
3 438 442 441
3 388 440 385
3 388 443 440
3 444 389 441
3 441 389 386
3 441 442 445
3 441 445 444
3 388 390 446
3 447 388 446
3 443 388 447
3 391 446 390
3 448 392 444
3 444 392 389
3 444 445 449
3 444 449 448
3 447 446 450
3 447 450 451
3 393 450 391
3 391 450 446
3 452 394 448
3 448 394 392
3 448 449 453
3 448 453 452
3 451 450 396
3 397 451 396
3 454 451 397
3 396 450 393
3 452 398 394
3 399 398 452
3 453 399 452
3 455 399 453
3 458 457 456
3 460 459 456
3 460 456 457
3 462 461 459
3 462 459 460
3 464 463 461
3 464 461 462
3 466 465 463
3 466 463 464
3 468 467 465
3 468 465 466
3 400 401 467
3 468 400 467
3 469 400 468
3 397 400 454
3 454 400 469
3 455 470 399
3 399 470 402
3 472 471 403
3 402 472 403
3 470 472 402
3 474 473 471
3 474 471 472
3 404 405 473
3 474 404 473
3 475 404 474
3 404 476 406
3 475 476 404
3 456 407 458
3 407 476 458
3 407 406 476
3 407 456 408
3 408 456 459
3 408 459 409
3 409 459 461
3 409 461 410
3 410 461 463
3 410 463 411
3 411 463 465
3 411 465 412
3 412 465 467
3 412 467 401
3 471 413 403
3 413 471 414
3 414 471 473
3 414 473 405
3 477 418 419
3 420 478 419
3 419 478 477
3 421 478 420
3 479 423 424
3 425 480 424
3 424 480 479
3 426 481 425
3 425 481 480
3 427 482 426
3 426 482 481
3 428 482 427
3 484 483 431
3 431 483 430
3 431 418 477
3 485 431 477
3 484 431 485
3 485 477 478
3 485 478 486
3 486 478 421
3 432 486 421
3 487 486 432
3 488 432 433
3 488 487 432
3 489 433 434
3 489 488 433
3 490 434 435
3 490 489 434
3 435 423 479
3 491 435 479
3 490 435 491
3 491 479 480
3 491 480 492
3 492 480 481
3 492 481 493
3 493 481 482
3 493 482 494
3 496 494 495
3 495 494 436
3 494 482 436
3 482 428 436
3 437 495 436
3 483 439 430
3 497 439 483
3 498 496 495
3 495 437 498
3 437 499 498
3 437 440 499
3 497 442 439
3 500 442 497
3 443 499 440
3 443 501 499
3 500 445 442
3 502 445 500
3 447 501 443
3 447 503 501
3 502 449 445
3 504 449 502
3 451 503 447
3 451 505 503
3 507 453 506
3 453 504 506
3 453 449 504
3 508 507 506
3 511 510 509
3 513 512 509
3 513 509 510
3 513 505 512
3 505 454 512
3 505 451 454
3 514 455 507
3 507 455 453
3 507 508 515
3 516 507 515
3 514 507 516
3 518 517 516
3 518 516 515
3 520 519 517
3 520 517 518
3 521 519 520
3 523 522 457
3 523 457 458
3 457 524 460
3 522 524 457
3 460 525 462
3 524 525 460
3 462 526 464
3 525 526 462
3 464 527 466
3 526 527 464
3 509 468 511
3 468 527 511
3 468 466 527
3 468 509 469
3 469 509 512
3 469 512 454
3 514 470 455
3 470 514 472
3 472 514 516
3 472 516 474
3 474 516 517
3 474 517 475
3 475 517 519
3 521 528 519
3 528 475 519
3 528 476 475
3 458 476 523
3 523 476 528
3 529 483 484
3 529 484 530
3 484 531 530
3 484 485 531
3 532 485 486
3 532 531 485
3 533 486 487
3 533 532 486
3 534 487 488
3 534 533 487
3 536 534 535
3 534 489 535
3 534 488 489
3 490 537 489
3 489 537 535
3 491 538 490
3 490 538 537
3 492 539 491
3 491 539 538
3 493 540 492
3 492 540 539
3 494 541 493
3 493 541 540
3 496 541 494
3 543 542 529
3 542 483 529
3 542 497 483
3 543 529 530
3 544 536 535
3 546 545 544
3 535 546 544
3 537 546 535
3 547 537 538
3 546 537 547
3 548 538 539
3 547 538 548
3 549 539 540
3 548 539 549
3 550 540 541
3 549 540 550
3 498 551 496
3 551 541 496
3 551 550 541
3 499 551 498
3 542 500 497
3 552 500 542
3 553 545 546
3 553 546 547
3 553 547 554
3 556 555 554
3 547 556 554
3 548 556 547
3 557 548 549
3 556 548 557
3 558 549 550
3 557 549 558
3 559 550 551
3 558 550 559
3 501 559 499
3 499 559 551
3 552 502 500
3 560 502 552
3 555 556 561
3 555 561 562
3 563 556 557
3 561 556 563
3 564 557 558
3 563 557 564
3 565 558 559
3 564 558 565
3 503 565 501
3 501 565 559
3 567 504 566
3 504 560 566
3 504 502 560
3 568 567 566
3 562 561 569
3 562 569 570
3 571 561 563
3 569 561 571
3 572 563 564
3 571 563 572
3 573 564 565
3 572 564 573
3 505 573 503
3 503 573 565
3 567 506 504
3 575 574 508
3 575 508 506
3 568 575 506
3 567 568 506
3 576 574 575
3 579 578 577
3 581 580 577
3 581 577 578
3 580 581 570
3 569 580 570
3 582 580 569
3 583 569 571
3 582 569 583
3 511 583 510
3 583 572 510
3 583 571 572
3 510 572 513
3 513 572 573
3 513 573 505
3 574 515 508
3 576 584 574
3 584 515 574
3 584 518 515
3 518 585 520
3 584 585 518
3 587 586 521
3 520 587 521
3 585 587 520
3 522 523 586
3 587 522 586
3 588 522 587
3 577 524 579
3 524 588 579
3 524 522 588
3 524 577 525
3 525 577 580
3 525 580 526
3 526 580 582
3 526 582 527
3 527 582 583
3 527 583 511
3 586 528 521
3 528 586 523
3 589 530 531
3 532 590 531
3 531 590 589
3 533 591 532
3 532 591 590
3 534 592 533
3 533 592 591
3 536 592 534
3 593 542 543
3 594 593 543
3 594 543 530
3 595 594 530
3 589 595 530
3 595 589 590
3 595 590 596
3 596 590 591
3 596 591 597
3 597 591 592
3 597 592 598
3 600 598 599
3 599 598 544
3 598 592 544
3 592 536 544
3 545 599 544
3 601 552 593
3 593 552 542
3 593 594 602
3 593 602 601
3 600 599 603
3 600 603 604
3 553 605 545
3 605 599 545
3 605 603 599
3 554 606 553
3 553 606 605
3 555 606 554
3 607 560 601
3 601 560 552
3 601 602 608
3 601 608 607
3 609 604 603
3 611 610 609
3 603 611 609
3 605 611 603
3 612 605 606
3 611 605 612
3 562 612 555
3 555 612 606
3 607 566 560
3 614 613 568
3 614 568 566
3 608 614 566
3 607 608 566
3 615 613 614
3 610 611 616
3 610 616 617
3 618 611 612
3 616 611 618
3 570 618 562
3 562 618 612
3 613 575 568
3 620 619 576
3 620 576 575
3 615 620 575
3 613 615 575
3 621 619 620
3 617 616 578
3 579 617 578
3 622 617 579
3 578 616 581
3 581 616 618
3 581 618 570
3 619 584 576
3 621 623 619
3 623 584 619
3 623 585 584
3 585 624 587
3 623 624 585
3 587 625 588
3 624 625 587
3 579 588 622
3 622 588 625
3 626 594 595
3 596 627 595
3 595 627 626
3 597 628 596
3 596 628 627
3 598 629 597
3 597 629 628
3 600 629 598
3 630 602 626
3 626 602 594
3 631 626 627
3 630 626 631
3 632 627 628
3 631 627 632
3 633 628 629
3 632 628 633
3 604 633 600
3 600 633 629
3 634 608 630
3 630 608 602
3 635 630 631
3 634 630 635
3 636 631 632
3 635 631 636
3 637 632 633
3 636 632 637
3 609 638 604
3 638 633 604
3 638 637 633
3 610 638 609
3 634 614 608
3 614 634 615
3 634 639 615
3 634 635 639
3 640 635 636
3 639 635 640
3 641 636 637
3 640 636 641
3 642 637 638
3 641 637 642
3 617 642 610
3 610 642 638
3 639 620 615
3 620 639 621
3 639 643 621
3 639 640 643
3 644 640 641
3 643 640 644
3 645 641 642
3 644 641 645
3 622 645 617
3 617 645 642
3 643 623 621
3 623 643 624
3 624 643 644
3 624 644 625
3 625 644 645
3 625 645 622
