ply
format ascii 1.0
element vertex 735
property float x
property float y
property float z
element face 1470
property list uchar int vertex_indices
end_header
-1.02254616 -0.23586006 0.35714286
-0.95111759 -0.23586006 0.28571429
-0.95111759 -0.30728863 0.35714286
-0.95111759 -0.23586006 0.42857143
-0.95111759 -0.16443149 0.35714286
-1.02254616 0.04985423 0.07142857
-0.95111759 0.04985423 0.00000000
-0.95111759 -0.02157434 0.07142857
-0.95111759 0.04985423 0.14285714
-0.95111759 0.12128280 0.07142857
-0.87968902 -0.37871720 0.21428571
-0.80826045 -0.37871720 0.14285714
-0.80826045 -0.45014577 0.21428571
-0.80826045 -0.45014577 0.35714286
-0.87968902 -0.37871720 0.35714286
-0.80826045 -0.45014577 0.50000000
-0.87968902 -0.37871720 0.50000000
-0.80826045 -0.45014577 0.64285714
-0.87968902 -0.37871720 0.64285714
-0.80826045 -0.37871720 0.71428571
-0.87968902 -0.23586006 0.21428571
-0.80826045 -0.23586006 0.14285714
-0.87968902 -0.23586006 0.50000000
-0.87968902 -0.23586006 0.64285714
-0.80826045 -0.23586006 0.71428571
-0.87968902 -0.09300292 0.07142857
-0.80826045 -0.09300292 0.00000000
-0.80826045 -0.16443149 0.07142857
-0.87968902 -0.09300292 0.21428571
-0.87968902 -0.09300292 0.35714286
-0.87968902 -0.09300292 0.50000000
-0.87968902 -0.09300292 0.64285714
-0.80826045 -0.09300292 0.71428571
-0.80826045 0.04985423 0.00000000
-0.87968902 0.04985423 0.21428571
-0.87968902 0.04985423 0.35714286
-0.87968902 0.04985423 0.50000000
-0.87968902 0.04985423 0.64285714
-0.80826045 0.04985423 0.71428571
-0.80826045 0.12128280 0.07142857
-0.87968902 0.19271137 0.21428571
-0.80826045 0.19271137 0.14285714
-0.87968902 0.19271137 0.35714286
-0.87968902 0.19271137 0.50000000
-0.87968902 0.19271137 0.64285714
-0.80826045 0.19271137 0.71428571
-0.80826045 0.26413994 0.21428571
-0.87968902 0.33556851 0.35714286
-0.80826045 0.33556851 0.28571429
-0.87968902 0.33556851 0.50000000
-0.80826045 0.33556851 0.57142857
-0.80826045 0.26413994 0.64285714
-0.80826045 0.40699708 0.35714286
-0.80826045 0.40699708 0.50000000
-0.73683188 -0.52157434 0.21428571
-0.66540330 -0.52157434 0.14285714
-0.66540330 -0.59300292 0.21428571
-0.66540330 -0.59300292 0.35714286
-0.73683188 -0.52157434 0.35714286
-0.66540330 -0.59300292 0.50000000
-0.73683188 -0.52157434 0.50000000
-0.66540330 -0.59300292 0.64285714
-0.73683188 -0.52157434 0.64285714
-0.66540330 -0.52157434 0.71428571
-0.73683188 -0.37871720 0.07142857
-0.66540330 -0.37871720 0.00000000
-0.66540330 -0.45014577 0.07142857
-0.66540330 -0.37871720 0.71428571
-0.73683188 -0.23586006 0.07142857
-0.66540330 -0.23586006 0.00000000
-0.66540330 -0.23586006 0.71428571
-0.66540330 -0.09300292 0.00000000
-0.66540330 -0.16443149 0.78571429
-0.73683188 -0.09300292 0.78571429
-0.66540330 -0.09300292 0.85714286
-0.66540330 0.04985423 0.00000000
-0.73683188 0.04985423 0.78571429
-0.66540330 0.04985423 0.85714286
-0.73683188 0.19271137 -0.21428571
-0.66540330 0.19271137 -0.28571429
-0.66540330 0.12128280 -0.21428571
-0.66540330 0.12128280 -0.07142857
-0.73683188 0.19271137 -0.07142857
-0.73683188 0.19271137 0.07142857
-0.73683188 0.19271137 0.78571429
-0.66540330 0.19271137 0.85714286
-0.73683188 0.33556851 -0.21428571
-0.66540330 0.33556851 -0.28571429
-0.73683188 0.33556851 -0.07142857
-0.73683188 0.33556851 0.07142857
-0.73683188 0.33556851 0.21428571
-0.73683188 0.33556851 0.64285714
-0.73683188 0.33556851 0.78571429
-0.66540330 0.33556851 0.85714286
-0.66540330 0.40699708 -0.21428571
-0.66540330 0.40699708 -0.07142857
-0.66540330 0.40699708 0.07142857
-0.66540330 0.40699708 0.21428571
-0.66540330 0.40699708 0.35714286
-0.66540330 0.40699708 0.50000000
-0.73683188 0.47842566 0.64285714
-0.66540330 0.47842566 0.57142857
-0.66540330 0.47842566 0.71428571
-0.66540330 0.40699708 0.78571429
-0.66540330 0.54985423 0.64285714
-0.59397473 -0.66443149 0.21428571
-0.52254616 -0.66443149 0.14285714
-0.52254616 -0.73586006 0.21428571
-0.52254616 -0.73586006 0.35714286
-0.59397473 -0.66443149 0.35714286
-0.52254616 -0.73586006 0.50000000
-0.59397473 -0.66443149 0.50000000
-0.52254616 -0.73586006 0.64285714
-0.59397473 -0.66443149 0.64285714
-0.52254616 -0.66443149 0.71428571
-0.59397473 -0.52157434 0.07142857
-0.52254616 -0.52157434 0.00000000
-0.52254616 -0.59300292 0.07142857
-0.52254616 -0.52157434 0.71428571
-0.52254616 -0.37871720 0.00000000
-0.52254616 -0.45014577 0.78571429
-0.59397473 -0.37871720 0.78571429
-0.52254616 -0.37871720 0.85714286
-0.59397473 -0.23586006 -0.07142857
-0.52254616 -0.23586006 -0.14285714
-0.52254616 -0.30728863 -0.07142857
-0.59397473 -0.23586006 0.78571429
-0.52254616 -0.23586006 0.85714286
-0.59397473 -0.09300292 -0.07142857
-0.52254616 -0.09300292 -0.14285714
-0.52254616 -0.09300292 0.85714286
-0.59397473 0.04985423 -0.07142857
-0.52254616 0.04985423 -0.14285714
-0.52254616 0.04985423 0.85714286
-0.52254616 0.19271137 -0.28571429
-0.52254616 0.12128280 -0.21428571
-0.52254616 0.19271137 0.85714286
-0.52254616 0.33556851 -0.28571429
-0.52254616 0.33556851 0.85714286
-0.52254616 0.40699708 -0.21428571
-0.52254616 0.40699708 -0.07142857
-0.59397473 0.47842566 0.07142857
-0.52254616 0.47842566 0.00000000
-0.59397473 0.47842566 0.21428571
-0.59397473 0.47842566 0.35714286
-0.59397473 0.47842566 0.50000000
-0.59397473 0.47842566 0.78571429
-0.52254616 0.40699708 0.92857143
-0.59397473 0.47842566 0.92857143
-0.52254616 0.47842566 1.00000000
-0.52254616 0.54985423 0.07142857
-0.52254616 0.54985423 0.21428571
-0.52254616 0.54985423 0.35714286
-0.59397473 0.62128280 0.50000000
-0.52254616 0.62128280 0.42857143
-0.52254616 0.54985423 0.64285714
-0.52254616 0.62128280 0.57142857
-0.52254616 0.54985423 0.78571429
-0.52254616 0.54985423 0.92857143
-0.59397473 0.76413994 0.50000000
-0.52254616 0.76413994 0.42857143
-0.52254616 0.76413994 0.57142857
-0.59397473 0.90699708 0.50000000
-0.52254616 0.90699708 0.42857143
-0.52254616 0.90699708 0.57142857
-0.52254616 0.97842566 0.50000000
-0.37968902 -0.66443149 0.14285714
-0.37968902 -0.73586006 0.21428571
-0.37968902 -0.73586006 0.35714286
-0.37968902 -0.73586006 0.50000000
-0.37968902 -0.73586006 0.64285714
-0.37968902 -0.66443149 0.71428571
-0.37968902 -0.52157434 0.00000000
-0.37968902 -0.59300292 0.07142857
-0.37968902 -0.52157434 0.71428571
-0.45111759 -0.37871720 -0.07142857
-0.37968902 -0.37871720 -0.14285714
-0.37968902 -0.45014577 -0.07142857
-0.37968902 -0.45014577 0.78571429
-0.37968902 -0.37871720 0.85714286
-0.37968902 -0.23586006 -0.14285714
-0.37968902 -0.23586006 0.85714286
-0.45111759 -0.09300292 -0.21428571
-0.37968902 -0.09300292 -0.28571429
-0.37968902 -0.16443149 -0.21428571
-0.37968902 -0.09300292 0.85714286
-0.45111759 0.04985423 -0.21428571
-0.37968902 0.04985423 -0.28571429
-0.37968902 0.04985423 0.85714286
-0.37968902 0.19271137 -0.28571429
-0.37968902 0.19271137 0.85714286
-0.37968902 0.33556851 -0.28571429
-0.37968902 0.33556851 0.85714286
-0.37968902 0.40699708 -0.21428571
-0.37968902 0.40699708 -0.07142857
-0.37968902 0.47842566 0.00000000
-0.37968902 0.40699708 0.92857143
-0.37968902 0.47842566 1.00000000
-0.37968902 0.54985423 0.07142857
-0.37968902 0.54985423 0.21428571
-0.37968902 0.54985423 0.35714286
-0.45111759 0.62128280 0.50000000
-0.37968902 0.54985423 0.50000000
-0.37968902 0.54985423 0.64285714
-0.37968902 0.54985423 0.78571429
-0.37968902 0.54985423 0.92857143
-0.45111759 0.76413994 0.50000000
-0.45111759 0.90699708 0.50000000
-0.30826045 -0.66443149 0.07142857
-0.23683188 -0.66443149 0.00000000
-0.23683188 -0.73586006 0.07142857
-0.23683188 -0.73586006 0.21428571
-0.23683188 -0.73586006 0.35714286
-0.23683188 -0.73586006 0.50000000
-0.23683188 -0.73586006 0.64285714
-0.23683188 -0.66443149 0.71428571
-0.23683188 -0.52157434 0.00000000
-0.23683188 -0.52157434 0.71428571
-0.23683188 -0.37871720 -0.14285714
-0.23683188 -0.45014577 -0.07142857
-0.23683188 -0.45014577 0.78571429
-0.23683188 -0.37871720 0.85714286
-0.30826045 -0.23586006 -0.92857143
-0.23683188 -0.23586006 -1.00000000
-0.23683188 -0.30728863 -0.92857143
-0.23683188 -0.30728863 -0.78571429
-0.30826045 -0.23586006 -0.78571429
-0.23683188 -0.30728863 -0.64285714
-0.30826045 -0.23586006 -0.64285714
-0.23683188 -0.30728863 -0.50000000
-0.30826045 -0.23586006 -0.50000000
-0.23683188 -0.30728863 -0.35714286
-0.30826045 -0.23586006 -0.35714286
-0.23683188 -0.30728863 -0.21428571
-0.30826045 -0.23586006 -0.21428571
-0.23683188 -0.23586006 0.85714286
-0.30826045 -0.09300292 -0.92857143
-0.23683188 -0.09300292 -1.00000000
-0.30826045 -0.09300292 -0.78571429
-0.30826045 -0.09300292 -0.64285714
-0.30826045 -0.09300292 -0.50000000
-0.30826045 -0.09300292 -0.35714286
-0.23683188 -0.09300292 0.85714286
-0.30826045 0.04985423 -0.92857143
-0.23683188 0.04985423 -1.00000000
-0.30826045 0.04985423 -0.78571429
-0.30826045 0.04985423 -0.64285714
-0.30826045 0.04985423 -0.50000000
-0.30826045 0.04985423 -0.35714286
-0.23683188 0.04985423 0.85714286
-0.30826045 0.19271137 -0.92857143
-0.23683188 0.19271137 -1.00000000
-0.30826045 0.19271137 -0.78571429
-0.30826045 0.19271137 -0.64285714
-0.30826045 0.19271137 -0.50000000
-0.30826045 0.19271137 -0.35714286
-0.23683188 0.12128280 0.92857143
-0.30826045 0.19271137 0.92857143
-0.23683188 0.19271137 1.00000000
-0.30826045 0.33556851 -0.92857143
-0.23683188 0.33556851 -1.00000000
-0.30826045 0.33556851 -0.78571429
-0.30826045 0.33556851 -0.64285714
-0.30826045 0.33556851 -0.50000000
-0.30826045 0.33556851 -0.35714286
-0.30826045 0.33556851 0.92857143
-0.23683188 0.33556851 1.00000000
-0.23683188 0.40699708 -0.92857143
-0.23683188 0.40699708 -0.78571429
-0.23683188 0.40699708 -0.64285714
-0.23683188 0.40699708 -0.50000000
-0.23683188 0.40699708 -0.35714286
-0.23683188 0.40699708 -0.21428571
-0.30826045 0.47842566 -0.07142857
-0.23683188 0.47842566 -0.14285714
-0.30826045 0.47842566 0.78571429
-0.23683188 0.40699708 0.78571429
-0.23683188 0.47842566 0.71428571
-0.30826045 0.40699708 0.85714286
-0.23683188 0.40699708 0.92857143
-0.30826045 0.47842566 0.92857143
-0.23683188 0.54985423 -0.07142857
-0.23683188 0.54985423 0.07142857
-0.23683188 0.54985423 0.21428571
-0.23683188 0.54985423 0.35714286
-0.23683188 0.54985423 0.50000000
-0.23683188 0.54985423 0.64285714
-0.16540330 -0.66443149 0.07142857
-0.09397473 -0.66443149 0.14285714
-0.09397473 -0.73586006 0.21428571
-0.09397473 -0.73586006 0.35714286
-0.09397473 -0.73586006 0.50000000
-0.09397473 -0.73586006 0.64285714
-0.09397473 -0.66443149 0.71428571
-0.09397473 -0.52157434 0.00000000
-0.09397473 -0.59300292 0.07142857
-0.09397473 -0.52157434 0.71428571
-0.16540330 -0.37871720 -0.78571429
-0.09397473 -0.37871720 -0.85714286
-0.09397473 -0.45014577 -0.78571429
-0.09397473 -0.45014577 -0.64285714
-0.16540330 -0.37871720 -0.64285714
-0.09397473 -0.45014577 -0.50000000
-0.16540330 -0.37871720 -0.50000000
-0.09397473 -0.45014577 -0.35714286
-0.16540330 -0.37871720 -0.35714286
-0.09397473 -0.45014577 -0.21428571
-0.16540330 -0.37871720 -0.21428571
-0.09397473 -0.45014577 -0.07142857
-0.09397473 -0.45014577 0.78571429
-0.09397473 -0.37871720 0.85714286
-0.09397473 -0.23586006 -1.00000000
-0.09397473 -0.30728863 -0.92857143
-0.09397473 -0.23586006 0.85714286
-0.09397473 -0.09300292 -1.00000000
-0.09397473 -0.16443149 0.92857143
-0.16540330 -0.09300292 0.92857143
-0.09397473 -0.09300292 1.00000000
-0.09397473 0.04985423 -1.00000000
-0.16540330 0.04985423 0.92857143
-0.09397473 0.04985423 1.00000000
-0.09397473 0.19271137 -1.00000000
-0.09397473 0.19271137 1.00000000
-0.09397473 0.33556851 -1.00000000
-0.09397473 0.33556851 1.00000000
-0.09397473 0.40699708 -0.92857143
-0.16540330 0.47842566 -0.78571429
-0.09397473 0.47842566 -0.85714286
-0.16540330 0.47842566 -0.64285714
-0.16540330 0.47842566 -0.50000000
-0.16540330 0.47842566 -0.35714286
-0.16540330 0.47842566 -0.21428571
-0.09397473 0.40699708 0.78571429
-0.09397473 0.47842566 0.71428571
-0.09397473 0.40699708 0.92857143
-0.09397473 0.54985423 -0.78571429
-0.09397473 0.54985423 -0.64285714
-0.09397473 0.54985423 -0.50000000
-0.09397473 0.54985423 -0.35714286
-0.09397473 0.54985423 -0.21428571
-0.09397473 0.54985423 -0.07142857
-0.09397473 0.54985423 0.07142857
-0.09397473 0.54985423 0.21428571
-0.09397473 0.54985423 0.35714286
-0.09397473 0.54985423 0.50000000
-0.09397473 0.54985423 0.64285714
0.04888241 -0.66443149 0.14285714
0.04888241 -0.73586006 0.21428571
0.04888241 -0.73586006 0.35714286
0.04888241 -0.73586006 0.50000000
0.04888241 -0.73586006 0.64285714
0.04888241 -0.66443149 0.71428571
-0.02254616 -0.52157434 -0.64285714
0.04888241 -0.52157434 -0.71428571
0.04888241 -0.59300292 -0.64285714
0.04888241 -0.52157434 -0.57142857
0.04888241 -0.52157434 0.00000000
0.04888241 -0.59300292 0.07142857
0.04888241 -0.52157434 0.71428571
-0.02254616 -0.37871720 -0.92857143
0.04888241 -0.37871720 -1.00000000
0.04888241 -0.45014577 -0.92857143
0.04888241 -0.45014577 -0.78571429
0.04888241 -0.45014577 -0.50000000
0.04888241 -0.45014577 -0.35714286
0.04888241 -0.45014577 -0.21428571
0.04888241 -0.45014577 -0.07142857
0.04888241 -0.45014577 0.78571429
0.04888241 -0.37871720 0.85714286
0.04888241 -0.23586006 -1.00000000
0.04888241 -0.23586006 0.85714286
0.04888241 -0.09300292 -1.00000000
0.04888241 -0.16443149 0.92857143
0.04888241 -0.09300292 1.00000000
0.04888241 0.04985423 -1.00000000
0.04888241 0.04985423 1.00000000
0.04888241 0.19271137 -1.00000000
0.04888241 0.19271137 1.00000000
0.04888241 0.33556851 -1.00000000
0.04888241 0.33556851 1.00000000
0.04888241 0.40699708 -0.92857143
0.04888241 0.47842566 -0.85714286
0.04888241 0.40699708 0.78571429
0.04888241 0.47842566 0.71428571
0.04888241 0.40699708 0.92857143
0.04888241 0.54985423 -0.78571429
-0.02254616 0.62128280 -0.64285714
0.04888241 0.62128280 -0.71428571
-0.02254616 0.62128280 -0.50000000
0.04888241 0.62128280 -0.42857143
0.04888241 0.54985423 -0.35714286
0.04888241 0.54985423 -0.21428571
0.04888241 0.54985423 -0.07142857
-0.02254616 0.62128280 0.07142857
0.04888241 0.62128280 0.00000000
0.04888241 0.62128280 0.14285714
0.04888241 0.54985423 0.21428571
0.04888241 0.54985423 0.35714286
0.04888241 0.54985423 0.50000000
0.04888241 0.54985423 0.64285714
0.04888241 0.69271137 -0.64285714
0.04888241 0.69271137 -0.50000000
-0.02254616 0.76413994 0.07142857
0.04888241 0.76413994 0.00000000
0.04888241 0.76413994 0.14285714
-0.02254616 0.90699708 0.07142857
0.04888241 0.90699708 0.00000000
0.04888241 0.90699708 0.14285714
0.04888241 0.97842566 0.07142857
0.19173955 -0.66443149 0.14285714
0.19173955 -0.73586006 0.21428571
0.19173955 -0.73586006 0.35714286
0.19173955 -0.73586006 0.50000000
0.19173955 -0.73586006 0.64285714
0.19173955 -0.66443149 0.71428571
0.19173955 -0.52157434 -0.71428571
0.19173955 -0.59300292 -0.64285714
0.19173955 -0.59300292 -0.50000000
0.12031098 -0.52157434 -0.50000000
0.19173955 -0.52157434 -0.42857143
0.19173955 -0.52157434 0.00000000
0.19173955 -0.59300292 0.07142857
0.19173955 -0.52157434 0.71428571
0.19173955 -0.37871720 -1.00000000
0.19173955 -0.45014577 -0.92857143
0.19173955 -0.45014577 -0.78571429
0.19173955 -0.45014577 -0.35714286
0.19173955 -0.45014577 -0.21428571
0.19173955 -0.45014577 -0.07142857
0.19173955 -0.45014577 0.78571429
0.19173955 -0.37871720 0.85714286
0.19173955 -0.23586006 -1.00000000
0.19173955 -0.23586006 0.85714286
0.19173955 -0.09300292 -1.00000000
0.12031098 -0.09300292 0.92857143
0.19173955 -0.09300292 0.85714286
0.19173955 0.04985423 -1.00000000
0.19173955 -0.02157434 0.92857143
0.19173955 0.04985423 1.00000000
0.19173955 0.19271137 -1.00000000
0.19173955 0.19271137 1.00000000
0.19173955 0.33556851 -1.00000000
0.19173955 0.33556851 1.00000000
0.19173955 0.40699708 -0.92857143
0.19173955 0.47842566 -0.85714286
0.19173955 0.40699708 0.78571429
0.19173955 0.47842566 0.71428571
0.19173955 0.40699708 0.92857143
0.19173955 0.54985423 -0.78571429
0.12031098 0.62128280 -0.64285714
0.19173955 0.54985423 -0.64285714
0.19173955 0.62128280 -0.57142857
0.19173955 0.54985423 -0.35714286
0.19173955 0.62128280 -0.42857143
0.19173955 0.54985423 -0.21428571
0.19173955 0.54985423 -0.07142857
0.12031098 0.62128280 0.07142857
0.19173955 0.54985423 0.07142857
0.19173955 0.54985423 0.21428571
0.19173955 0.54985423 0.35714286
0.19173955 0.54985423 0.50000000
0.19173955 0.54985423 0.64285714
0.19173955 0.69271137 -0.50000000
0.12031098 0.76413994 0.07142857
0.12031098 0.90699708 0.07142857
0.26316812 -0.66443149 0.21428571
0.26316812 -0.66443149 0.35714286
0.26316812 -0.66443149 0.50000000
0.33459670 -0.66443149 0.57142857
0.33459670 -0.73586006 0.64285714
0.33459670 -0.73586006 0.78571429
0.26316812 -0.66443149 0.78571429
0.33459670 -0.66443149 0.85714286
0.33459670 -0.52157434 -0.71428571
0.33459670 -0.59300292 -0.64285714
0.33459670 -0.59300292 -0.50000000
0.33459670 -0.52157434 -0.42857143
0.26316812 -0.52157434 0.07142857
0.33459670 -0.52157434 0.14285714
0.33459670 -0.59300292 0.21428571
0.33459670 -0.59300292 0.35714286
0.33459670 -0.59300292 0.50000000
0.26316812 -0.52157434 0.78571429
0.33459670 -0.52157434 0.85714286
0.26316812 -0.37871720 -0.92857143
0.33459670 -0.37871720 -0.85714286
0.33459670 -0.45014577 -0.78571429
0.33459670 -0.45014577 -0.35714286
0.33459670 -0.45014577 -0.21428571
0.33459670 -0.45014577 -0.07142857
0.33459670 -0.45014577 0.07142857
0.33459670 -0.37871720 0.85714286
0.26316812 -0.23586006 -0.92857143
0.33459670 -0.23586006 -0.85714286
0.33459670 -0.23586006 0.85714286
0.26316812 -0.09300292 -0.92857143
0.33459670 -0.09300292 -0.85714286
0.33459670 -0.09300292 0.85714286
0.26316812 0.04985423 -0.92857143
0.33459670 0.04985423 -0.85714286
0.33459670 -0.02157434 0.92857143
0.33459670 0.04985423 1.00000000
0.26316812 0.19271137 -0.92857143
0.33459670 0.19271137 -0.85714286
0.26316812 0.19271137 0.92857143
0.33459670 0.12128280 0.92857143
0.33459670 0.19271137 0.85714286
0.26316812 0.33556851 -0.92857143
0.33459670 0.33556851 -0.85714286
0.26316812 0.33556851 0.92857143
0.33459670 0.33556851 0.85714286
0.26316812 0.47842566 -0.78571429
0.33459670 0.40699708 -0.78571429
0.33459670 0.47842566 -0.71428571
0.26316812 0.47842566 -0.07142857
0.33459670 0.40699708 -0.07142857
0.33459670 0.47842566 -0.14285714
0.26316812 0.47842566 0.07142857
0.33459670 0.40699708 0.07142857
0.26316812 0.47842566 0.21428571
0.33459670 0.40699708 0.21428571
0.26316812 0.47842566 0.35714286
0.33459670 0.40699708 0.35714286
0.26316812 0.47842566 0.50000000
0.33459670 0.40699708 0.50000000
0.33459670 0.47842566 0.57142857
0.33459670 0.40699708 0.78571429
0.33459670 0.47842566 0.71428571
0.33459670 0.54985423 -0.64285714
0.26316812 0.62128280 -0.50000000
0.33459670 0.54985423 -0.50000000
0.33459670 0.54985423 -0.35714286
0.33459670 0.54985423 -0.21428571
0.33459670 0.54985423 0.64285714
0.40602527 -0.80728863 0.64285714
0.47745384 -0.80728863 0.57142857
0.47745384 -0.87871720 0.64285714
0.47745384 -0.80728863 0.71428571
0.47745384 -0.66443149 0.57142857
0.47745384 -0.66443149 0.71428571
0.40602527 -0.66443149 0.78571429
0.40602527 -0.52157434 -0.64285714
0.47745384 -0.52157434 -0.57142857
0.47745384 -0.59300292 -0.50000000
0.47745384 -0.52157434 -0.42857143
0.40602527 -0.52157434 0.21428571
0.40602527 -0.52157434 0.35714286
0.40602527 -0.52157434 0.50000000
0.47745384 -0.52157434 0.57142857
0.40602527 -0.52157434 0.78571429
0.47745384 -0.52157434 0.71428571
0.47745384 -0.37871720 -0.85714286
0.47745384 -0.45014577 -0.78571429
0.47745384 -0.45014577 -0.64285714
0.47745384 -0.45014577 -0.35714286
0.47745384 -0.45014577 -0.21428571
0.47745384 -0.45014577 -0.07142857
0.47745384 -0.45014577 0.07142857
0.47745384 -0.45014577 0.21428571
0.47745384 -0.45014577 0.35714286
0.47745384 -0.45014577 0.50000000
0.40602527 -0.37871720 0.78571429
0.47745384 -0.37871720 0.71428571
0.47745384 -0.23586006 -0.85714286
0.47745384 -0.30728863 0.78571429
0.47745384 -0.23586006 0.85714286
0.47745384 -0.09300292 -0.85714286
0.47745384 -0.09300292 0.85714286
0.47745384 0.04985423 -0.85714286
0.47745384 -0.02157434 0.92857143
0.47745384 0.04985423 1.00000000
0.47745384 0.19271137 -0.85714286
0.47745384 0.12128280 0.92857143
0.47745384 0.19271137 0.85714286
0.47745384 0.26413994 -0.78571429
0.40602527 0.33556851 -0.78571429
0.47745384 0.33556851 -0.71428571
0.47745384 0.33556851 0.85714286
0.47745384 0.47842566 -0.71428571
0.47745384 0.40699708 -0.07142857
0.47745384 0.47842566 -0.14285714
0.47745384 0.40699708 0.07142857
0.47745384 0.40699708 0.21428571
0.47745384 0.40699708 0.35714286
0.47745384 0.40699708 0.50000000
0.47745384 0.47842566 0.57142857
0.40602527 0.47842566 0.78571429
0.47745384 0.47842566 0.85714286
0.47745384 0.54985423 -0.64285714
0.47745384 0.54985423 -0.50000000
0.47745384 0.54985423 -0.35714286
0.47745384 0.54985423 -0.21428571
0.47745384 0.54985423 0.64285714
0.47745384 0.54985423 0.78571429
0.54888241 -0.80728863 0.64285714
0.54888241 -0.66443149 0.64285714
0.54888241 -0.52157434 -0.50000000
0.54888241 -0.52157434 0.64285714
0.54888241 -0.37871720 -0.78571429
0.54888241 -0.37871720 -0.64285714
0.62031098 -0.37871720 -0.57142857
0.62031098 -0.45014577 -0.50000000
0.62031098 -0.45014577 -0.35714286
0.62031098 -0.45014577 -0.21428571
0.54888241 -0.37871720 -0.07142857
0.62031098 -0.37871720 -0.14285714
0.54888241 -0.37871720 0.07142857
0.54888241 -0.37871720 0.21428571
0.54888241 -0.37871720 0.35714286
0.54888241 -0.37871720 0.50000000
0.54888241 -0.37871720 0.64285714
0.62031098 -0.23586006 -0.85714286
0.62031098 -0.30728863 -0.78571429
0.62031098 -0.30728863 -0.64285714
0.62031098 -0.30728863 -0.07142857
0.62031098 -0.23586006 0.00000000
0.54888241 -0.23586006 0.07142857
0.54888241 -0.23586006 0.21428571
0.54888241 -0.23586006 0.35714286
0.54888241 -0.23586006 0.50000000
0.54888241 -0.23586006 0.64285714
0.54888241 -0.23586006 0.78571429
0.62031098 -0.09300292 -0.85714286
0.62031098 -0.16443149 0.07142857
0.62031098 -0.16443149 0.21428571
0.62031098 -0.09300292 0.28571429
0.54888241 -0.09300292 0.35714286
0.54888241 -0.09300292 0.50000000
0.54888241 -0.09300292 0.64285714
0.54888241 -0.09300292 0.78571429
0.62031098 0.04985423 -0.85714286
0.54888241 0.04985423 0.35714286
0.62031098 0.04985423 0.28571429
0.54888241 0.04985423 0.50000000
0.54888241 0.04985423 0.64285714
0.54888241 0.04985423 0.78571429
0.54888241 0.04985423 0.92857143
0.62031098 0.12128280 -0.78571429
0.54888241 0.19271137 -0.78571429
0.62031098 0.19271137 -0.71428571
0.54888241 0.19271137 0.35714286
0.62031098 0.19271137 0.28571429
0.54888241 0.19271137 0.50000000
0.54888241 0.19271137 0.64285714
0.54888241 0.19271137 0.78571429
0.54888241 0.33556851 -0.64285714
0.62031098 0.26413994 -0.64285714
0.62031098 0.33556851 -0.57142857
0.54888241 0.33556851 0.07142857
0.62031098 0.26413994 0.07142857
0.62031098 0.33556851 0.00000000
0.54888241 0.33556851 0.21428571
0.62031098 0.26413994 0.21428571
0.54888241 0.33556851 0.35714286
0.54888241 0.33556851 0.50000000
0.54888241 0.33556851 0.64285714
0.54888241 0.33556851 0.78571429
0.54888241 0.47842566 -0.64285714
0.62031098 0.40699708 -0.50000000
0.54888241 0.47842566 -0.50000000
0.54888241 0.47842566 -0.35714286
0.62031098 0.40699708 -0.35714286
0.54888241 0.47842566 -0.21428571
0.62031098 0.40699708 -0.21428571
0.62031098 0.40699708 -0.07142857
0.54888241 0.47842566 0.64285714
0.54888241 0.47842566 0.78571429
0.69173955 -0.37871720 -0.50000000
0.69173955 -0.37871720 -0.35714286
0.69173955 -0.37871720 -0.21428571
0.69173955 -0.23586006 -0.78571429
0.69173955 -0.23586006 -0.64285714
0.76316812 -0.23586006 -0.57142857
0.76316812 -0.30728863 -0.50000000
0.76316812 -0.30728863 -0.35714286
0.76316812 -0.30728863 -0.21428571
0.69173955 -0.23586006 -0.07142857
0.76316812 -0.23586006 -0.14285714
0.69173955 -0.09300292 -0.78571429
0.76316812 -0.09300292 -0.71428571
0.76316812 -0.16443149 -0.64285714
0.69173955 -0.09300292 -0.07142857
0.76316812 -0.09300292 -0.14285714
0.69173955 -0.09300292 0.07142857
0.69173955 -0.09300292 0.21428571
0.69173955 0.04985423 -0.78571429
0.76316812 -0.02157434 -0.64285714
0.69173955 0.04985423 -0.64285714
0.76316812 0.04985423 -0.57142857
0.76316812 -0.02157434 -0.07142857
0.76316812 0.04985423 0.00000000
0.69173955 0.04985423 0.07142857
0.69173955 0.04985423 0.21428571
0.69173955 0.19271137 -0.64285714
0.76316812 0.19271137 -0.57142857
0.69173955 0.19271137 0.07142857
0.76316812 0.19271137 0.00000000
0.69173955 0.19271137 0.21428571
0.76316812 0.33556851 -0.57142857
0.76316812 0.33556851 0.00000000
0.76316812 0.40699708 -0.50000000
0.76316812 0.40699708 -0.35714286
0.76316812 0.40699708 -0.21428571
0.76316812 0.40699708 -0.07142857
0.83459670 -0.23586006 -0.50000000
0.83459670 -0.23586006 -0.35714286
0.83459670 -0.23586006 -0.21428571
0.83459670 -0.09300292 -0.64285714
0.83459670 -0.09300292 -0.50000000
0.90602527 -0.09300292 -0.42857143
0.90602527 -0.16443149 -0.35714286
0.90602527 -0.09300292 -0.28571429
0.83459670 -0.09300292 -0.21428571
0.90602527 -0.02157434 -0.50000000
0.90602527 0.04985423 -0.57142857
0.90602527 0.04985423 -0.42857143
0.83459670 0.04985423 -0.35714286
0.90602527 -0.02157434 -0.35714286
0.83459670 0.04985423 -0.21428571
0.83459670 0.04985423 -0.07142857
0.90602527 0.12128280 -0.50000000
0.83459670 0.19271137 -0.50000000
0.83459670 0.19271137 -0.35714286
0.83459670 0.19271137 -0.21428571
0.83459670 0.19271137 -0.07142857
0.83459670 0.33556851 -0.50000000
0.83459670 0.33556851 -0.35714286
0.83459670 0.33556851 -0.21428571
0.83459670 0.33556851 -0.07142857
1.04888241 -0.09300292 -0.42857143
1.04888241 -0.16443149 -0.35714286
1.04888241 -0.09300292 -0.28571429
0.97745384 0.04985423 -0.50000000
1.04888241 -0.02157434 -0.35714286
1.12031098 -0.09300292 -0.35714286
3 2 1 0
3 0 3 2
3 1 4 0
3 0 4 3
3 7 6 5
3 5 8 7
3 6 9 5
3 5 9 8
3 12 11 10
3 14 13 10
3 10 13 12
3 16 15 14
3 14 15 13
3 18 17 16
3 16 17 15
3 18 19 17
3 10 11 20
3 20 11 21
3 20 1 2
3 14 20 2
3 10 20 14
3 14 2 3
3 22 14 3
3 16 14 22
3 16 23 18
3 16 22 23
3 19 18 24
3 24 18 23
3 27 26 25
3 27 25 21
3 25 20 21
3 25 28 20
3 29 4 1
3 20 29 1
3 28 29 20
3 22 3 4
3 29 22 4
3 30 22 29
3 22 31 23
3 22 30 31
3 24 23 32
3 32 23 31
3 25 26 7
3 26 6 7
3 26 33 6
3 25 7 8
3 34 25 8
3 28 25 34
3 28 35 29
3 28 34 35
3 29 36 30
3 29 35 36
3 30 37 31
3 30 36 37
3 32 31 38
3 38 31 37
3 33 39 6
3 6 39 9
3 9 39 8
3 39 40 8
3 40 34 8
3 40 39 41
3 34 42 35
3 34 40 42
3 35 43 36
3 35 42 43
3 36 44 37
3 36 43 44
3 38 37 45
3 45 37 44
3 41 46 40
3 48 47 46
3 47 40 46
3 47 42 40
3 42 49 43
3 42 47 49
3 51 44 50
3 44 49 50
3 44 43 49
3 44 51 45
3 48 52 47
3 47 52 49
3 49 52 53
3 49 53 50
3 56 55 54
3 58 57 54
3 54 57 56
3 60 59 58
3 58 59 57
3 62 61 60
3 60 61 59
3 62 63 61
3 66 65 64
3 66 64 55
3 55 64 54
3 64 11 54
3 11 12 54
3 54 12 13
3 54 13 58
3 58 13 15
3 58 15 60
3 60 15 17
3 60 17 62
3 17 19 62
3 19 63 62
3 19 67 63
3 64 65 68
3 68 65 69
3 68 21 11
3 68 11 64
3 24 67 19
3 24 70 67
3 68 69 27
3 69 26 27
3 69 71 26
3 68 27 21
3 32 73 72
3 70 32 72
3 24 32 70
3 73 74 72
3 71 33 26
3 75 33 71
3 38 76 73
3 38 73 32
3 74 73 77
3 77 73 76
3 80 79 78
3 82 81 78
3 78 81 80
3 82 83 39
3 75 82 39
3 33 75 39
3 82 75 81
3 83 41 39
3 45 84 76
3 45 76 38
3 77 76 85
3 85 76 84
3 78 79 86
3 86 79 87
3 78 88 82
3 78 86 88
3 82 89 83
3 82 88 89
3 90 46 41
3 83 90 41
3 89 90 83
3 90 48 46
3 50 91 51
3 84 45 51
3 91 84 51
3 92 84 91
3 85 84 93
3 93 84 92
3 87 94 86
3 86 94 88
3 88 94 95
3 88 95 89
3 89 95 96
3 89 96 90
3 90 96 97
3 90 97 48
3 97 52 48
3 97 98 52
3 52 99 53
3 98 99 52
3 53 99 50
3 99 100 50
3 100 91 50
3 100 99 101
3 103 92 102
3 92 100 102
3 92 91 100
3 92 103 93
3 101 104 100
3 100 104 102
3 107 106 105
3 109 108 105
3 105 108 107
3 111 110 109
3 109 110 108
3 113 112 111
3 111 112 110
3 113 114 112
3 117 116 115
3 117 115 106
3 106 115 105
3 115 55 105
3 55 56 105
3 105 56 57
3 105 57 109
3 109 57 59
3 109 59 111
3 111 59 61
3 111 61 113
3 61 63 113
3 63 114 113
3 63 118 114
3 115 116 66
3 116 65 66
3 116 119 65
3 115 66 55
3 67 121 120
3 118 67 120
3 63 67 118
3 121 122 120
3 125 124 123
3 119 125 123
3 69 119 123
3 65 119 69
3 70 126 121
3 70 121 67
3 122 121 127
3 127 121 126
3 123 124 128
3 128 124 129
3 128 71 69
3 128 69 123
3 72 126 70
3 72 74 126
3 74 127 126
3 74 130 127
3 128 129 131
3 131 129 132
3 131 75 71
3 131 71 128
3 77 130 74
3 77 133 130
3 135 134 80
3 80 134 79
3 81 131 132
3 135 81 132
3 80 81 135
3 131 81 75
3 85 133 77
3 85 136 133
3 134 87 79
3 137 87 134
3 93 136 85
3 93 138 136
3 137 139 87
3 87 139 94
3 94 140 95
3 139 140 94
3 140 142 141
3 96 140 141
3 95 140 96
3 143 97 96
3 143 96 141
3 144 98 97
3 144 97 143
3 145 99 98
3 145 98 144
3 145 101 99
3 102 146 103
3 138 93 147
3 93 146 147
3 146 148 147
3 93 103 146
3 148 149 147
3 142 150 141
3 141 150 143
3 143 150 151
3 143 151 144
3 144 151 152
3 154 153 152
3 153 144 152
3 153 145 144
3 145 153 101
3 153 155 101
3 155 104 101
3 153 156 155
3 102 104 146
3 104 157 146
3 104 155 157
3 146 157 148
3 148 157 158
3 148 158 149
3 153 154 159
3 159 154 160
3 156 153 161
3 161 153 159
3 159 160 162
3 162 160 163
3 161 159 164
3 164 159 162
3 163 165 162
3 162 165 164
3 167 166 107
3 107 166 106
3 168 107 108
3 168 167 107
3 169 108 110
3 169 168 108
3 170 110 112
3 170 169 110
3 112 114 170
3 170 114 171
3 173 172 117
3 117 172 116
3 117 106 166
3 117 166 173
3 118 171 114
3 118 174 171
3 177 176 175
3 172 177 175
3 119 172 175
3 116 172 119
3 178 174 118
3 178 118 120
3 120 122 178
3 178 122 179
3 175 176 125
3 176 124 125
3 176 180 124
3 175 125 119
3 127 179 122
3 127 181 179
3 184 183 182
3 180 184 182
3 129 180 182
3 124 180 129
3 130 181 127
3 130 185 181
3 182 183 186
3 186 183 187
3 186 132 129
3 186 129 182
3 133 185 130
3 133 188 185
3 186 187 135
3 187 134 135
3 187 189 134
3 186 135 132
3 136 188 133
3 136 190 188
3 189 137 134
3 191 137 189
3 138 190 136
3 138 192 190
3 191 193 137
3 137 193 139
3 139 194 140
3 193 194 139
3 142 140 194
3 142 194 195
3 196 192 138
3 196 138 147
3 147 149 196
3 196 149 197
3 195 198 142
3 142 198 150
3 150 199 151
3 198 199 150
3 151 200 152
3 199 200 151
3 202 201 154
3 152 202 154
3 200 202 152
3 155 156 201
3 202 155 201
3 203 155 202
3 155 204 157
3 203 204 155
3 157 205 158
3 204 205 157
3 149 158 197
3 197 158 205
3 206 160 201
3 201 160 154
3 161 206 156
3 156 206 201
3 207 163 206
3 206 163 160
3 164 207 161
3 161 207 206
3 207 165 163
3 165 207 164
3 210 209 208
3 166 167 208
3 167 210 208
3 167 211 210
3 212 167 168
3 212 211 167
3 213 168 169
3 213 212 168
3 214 169 170
3 214 213 169
3 170 171 214
3 214 171 215
3 208 209 173
3 209 172 173
3 209 216 172
3 208 173 166
3 174 215 171
3 174 217 215
3 219 218 177
3 177 218 176
3 177 172 216
3 177 216 219
3 220 217 174
3 220 174 178
3 178 179 220
3 220 179 221
3 224 223 222
3 226 225 222
3 222 225 224
3 228 227 226
3 226 227 225
3 230 229 228
3 228 229 227
3 232 231 230
3 230 231 229
3 234 233 232
3 232 233 231
3 218 233 234
3 180 218 234
3 176 218 180
3 181 221 179
3 181 235 221
3 222 223 236
3 236 223 237
3 222 238 226
3 222 236 238
3 226 239 228
3 226 238 239
3 228 240 230
3 228 239 240
3 230 241 232
3 230 240 241
3 241 183 184
3 234 241 184
3 232 241 234
3 234 184 180
3 185 235 181
3 185 242 235
3 236 237 243
3 243 237 244
3 236 245 238
3 236 243 245
3 238 246 239
3 238 245 246
3 239 247 240
3 239 246 247
3 240 248 241
3 240 247 248
3 248 187 183
3 248 183 241
3 188 242 185
3 188 249 242
3 243 244 250
3 250 244 251
3 243 252 245
3 243 250 252
3 245 253 246
3 245 252 253
3 246 254 247
3 246 253 254
3 247 255 248
3 247 254 255
3 255 189 187
3 255 187 248
3 190 257 256
3 249 190 256
3 188 190 249
3 257 258 256
3 250 251 259
3 259 251 260
3 250 261 252
3 250 259 261
3 252 262 253
3 252 261 262
3 253 263 254
3 253 262 263
3 254 264 255
3 254 263 264
3 264 191 189
3 264 189 255
3 192 265 257
3 192 257 190
3 258 257 266
3 266 257 265
3 260 267 259
3 259 267 261
3 261 267 268
3 261 268 262
3 262 268 269
3 262 269 263
3 263 269 270
3 263 270 264
3 264 270 271
3 264 271 191
3 271 193 191
3 271 272 193
3 272 274 273
3 194 272 273
3 193 272 194
3 273 195 194
3 277 276 275
3 279 278 276
3 278 265 276
3 192 276 265
3 276 192 275
3 196 275 192
3 275 196 278
3 278 280 275
3 279 280 278
3 278 196 265
3 280 279 197
3 279 266 197
3 265 196 197
3 265 197 266
3 274 281 273
3 273 281 195
3 281 198 195
3 281 282 198
3 198 283 199
3 282 283 198
3 199 284 200
3 283 284 199
3 200 285 202
3 284 285 200
3 202 286 203
3 285 286 202
3 275 204 277
3 204 286 277
3 204 203 286
3 204 275 205
3 205 275 280
3 205 280 197
3 287 209 210
3 287 210 288
3 210 289 288
3 210 211 289
3 290 211 212
3 290 289 211
3 291 212 213
3 291 290 212
3 292 213 214
3 292 291 213
3 214 215 292
3 292 215 293
3 295 294 287
3 294 209 287
3 294 216 209
3 295 287 288
3 217 293 215
3 217 296 293
3 299 298 297
3 301 300 297
3 297 300 299
3 303 302 301
3 301 302 300
3 305 304 303
3 303 304 302
3 307 306 305
3 305 306 304
3 218 219 307
3 219 306 307
3 219 308 306
3 219 216 294
3 219 294 308
3 309 296 217
3 309 217 220
3 220 221 309
3 309 221 310
3 312 311 224
3 224 311 223
3 225 297 298
3 312 225 298
3 224 225 312
3 297 225 227
3 297 227 301
3 301 227 229
3 301 229 303
3 303 229 231
3 303 231 305
3 305 231 233
3 305 233 307
3 307 233 218
3 235 310 221
3 235 313 310
3 311 237 223
3 314 237 311
3 242 316 315
3 313 242 315
3 235 242 313
3 316 317 315
3 314 244 237
3 318 244 314
3 249 319 316
3 249 316 242
3 317 316 320
3 320 316 319
3 318 251 244
3 321 251 318
3 256 319 249
3 256 258 319
3 258 320 319
3 258 322 320
3 321 260 251
3 323 260 321
3 266 322 258
3 266 324 322
3 323 325 260
3 260 325 267
3 325 327 326
3 268 325 326
3 267 325 268
3 328 269 268
3 328 268 326
3 329 270 269
3 329 269 328
3 330 271 270
3 330 270 329
3 331 272 271
3 331 271 330
3 331 274 272
3 333 332 276
3 333 276 277
3 276 334 279
3 332 334 276
3 266 279 324
3 324 279 334
3 327 335 326
3 326 335 328
3 328 335 336
3 328 336 329
3 329 336 337
3 329 337 330
3 330 337 338
3 330 338 331
3 331 338 339
3 331 339 274
3 339 281 274
3 339 340 281
3 281 341 282
3 340 341 281
3 282 342 283
3 341 342 282
3 283 343 284
3 342 343 283
3 284 344 285
3 343 344 284
3 285 345 286
3 344 345 285
3 277 286 333
3 333 286 345
3 347 346 289
3 289 346 288
3 348 289 290
3 348 347 289
3 349 290 291
3 349 348 290
3 350 291 292
3 350 349 291
3 292 293 350
3 350 293 351
3 354 353 352
3 352 355 354
3 357 356 295
3 295 356 294
3 295 288 346
3 295 346 357
3 296 351 293
3 296 358 351
3 361 360 359
3 298 299 359
3 299 361 359
3 299 362 361
3 300 352 353
3 362 300 353
3 299 300 362
3 363 355 352
3 300 363 352
3 302 363 300
3 364 302 304
3 364 363 302
3 365 304 306
3 365 364 304
3 366 306 308
3 366 365 306
3 308 294 356
3 308 356 366
3 367 358 296
3 367 296 309
3 309 310 367
3 367 310 368
3 359 360 312
3 360 311 312
3 360 369 311
3 359 312 298
3 313 368 310
3 313 370 368
3 369 314 311
3 371 314 369
3 372 370 313
3 372 313 315
3 315 317 372
3 372 317 373
3 371 318 314
3 374 318 371
3 320 373 317
3 320 375 373
3 374 321 318
3 376 321 374
3 322 375 320
3 322 377 375
3 376 323 321
3 378 323 376
3 324 377 322
3 324 379 377
3 378 380 323
3 323 380 325
3 327 325 380
3 327 380 381
3 383 382 332
3 383 332 333
3 332 384 334
3 382 384 332
3 324 334 379
3 379 334 384
3 381 385 327
3 327 385 335
3 385 387 386
3 336 385 386
3 335 385 336
3 388 337 336
3 388 336 386
3 337 388 389
3 390 337 389
3 338 337 390
3 338 391 339
3 390 391 338
3 339 392 340
3 391 392 339
3 392 394 393
3 341 392 393
3 340 392 341
3 341 393 395
3 396 341 395
3 342 341 396
3 342 397 343
3 396 397 342
3 343 398 344
3 397 398 343
3 344 399 345
3 398 399 344
3 333 345 383
3 383 345 399
3 387 400 386
3 386 400 388
3 388 400 401
3 388 401 389
3 393 394 402
3 402 394 403
3 395 393 404
3 404 393 402
3 402 403 405
3 405 403 406
3 404 402 407
3 407 402 405
3 406 408 405
3 405 408 407
3 410 409 347
3 347 409 346
3 411 347 348
3 411 410 347
3 412 348 349
3 412 411 348
3 413 349 350
3 413 412 349
3 350 351 413
3 413 351 414
3 416 415 354
3 354 415 353
3 418 417 355
3 417 354 355
3 417 416 354
3 418 419 417
3 421 420 357
3 357 420 356
3 357 346 409
3 357 409 421
3 358 414 351
3 358 422 414
3 424 423 361
3 361 423 360
3 425 361 362
3 425 424 361
3 362 353 415
3 362 415 425
3 363 418 355
3 426 419 418
3 363 426 418
3 364 426 363
3 427 364 365
3 427 426 364
3 428 365 366
3 428 427 365
3 366 356 420
3 366 420 428
3 429 422 358
3 429 358 367
3 367 368 429
3 429 368 430
3 423 369 360
3 431 369 423
3 370 430 368
3 370 432 430
3 431 371 369
3 433 371 431
3 370 372 434
3 435 370 434
3 432 370 435
3 373 434 372
3 433 374 371
3 436 374 433
3 437 435 434
3 434 373 437
3 373 438 437
3 373 375 438
3 436 376 374
3 439 376 436
3 377 438 375
3 377 440 438
3 439 378 376
3 441 378 439
3 379 440 377
3 379 442 440
3 441 443 378
3 378 443 380
3 381 380 443
3 381 443 444
3 446 445 382
3 446 382 383
3 382 447 384
3 445 447 382
3 379 384 442
3 442 384 447
3 444 448 381
3 381 448 385
3 450 449 387
3 385 450 387
3 448 450 385
3 451 449 450
3 453 452 390
3 453 390 389
3 390 454 391
3 452 454 390
3 391 455 392
3 454 455 391
3 457 456 394
3 392 457 394
3 455 457 392
3 396 395 456
3 457 396 456
3 458 396 457
3 396 459 397
3 458 459 396
3 397 460 398
3 459 460 397
3 398 461 399
3 460 461 398
3 383 399 446
3 446 399 461
3 449 400 387
3 451 462 449
3 462 400 449
3 462 401 400
3 389 401 453
3 453 401 462
3 463 403 456
3 456 403 394
3 404 463 395
3 395 463 456
3 464 406 463
3 463 406 403
3 407 464 404
3 404 464 463
3 464 408 406
3 408 464 407
3 465 409 410
3 411 466 410
3 410 466 465
3 412 467 411
3 411 467 466
3 467 412 468
3 412 469 468
3 412 413 469
3 471 470 414
3 470 413 414
3 470 469 413
3 471 472 470
3 474 473 416
3 416 473 415
3 475 416 417
3 475 474 416
3 417 419 475
3 475 419 476
3 477 420 421
3 478 477 421
3 478 421 409
3 479 478 409
3 465 479 409
3 479 465 466
3 479 466 480
3 480 466 467
3 480 467 481
3 481 467 468
3 422 482 471
3 422 471 414
3 472 471 483
3 483 471 482
3 484 423 424
3 484 424 485
3 424 486 485
3 424 425 486
3 425 415 473
3 425 473 486
3 487 476 419
3 487 419 426
3 488 426 427
3 488 487 426
3 489 427 428
3 489 488 427
3 428 420 477
3 490 428 477
3 489 428 490
3 490 477 478
3 429 482 422
3 429 430 482
3 430 483 482
3 430 491 483
3 492 431 484
3 484 431 423
3 484 485 493
3 484 493 492
3 432 491 430
3 432 494 491
3 495 433 492
3 492 433 431
3 492 493 496
3 492 496 495
3 435 494 432
3 435 497 494
3 498 436 495
3 495 436 433
3 495 496 499
3 495 499 498
3 500 497 435
3 500 435 437
3 437 438 500
3 500 438 501
3 502 439 498
3 498 439 436
3 498 499 503
3 498 503 502
3 506 505 504
3 505 501 504
3 501 440 504
3 501 438 440
3 507 441 502
3 502 441 439
3 502 503 508
3 502 508 507
3 506 504 509
3 506 509 510
3 442 509 440
3 440 509 504
3 507 443 441
3 512 511 444
3 512 444 443
3 508 512 443
3 507 508 443
3 513 511 512
3 516 515 514
3 518 517 514
3 518 514 515
3 520 519 517
3 520 517 518
3 522 521 519
3 522 519 520
3 524 523 521
3 524 521 522
3 525 523 524
3 527 526 445
3 527 445 446
3 509 447 510
3 447 526 510
3 447 445 526
3 447 509 442
3 511 448 444
3 513 528 511
3 528 448 511
3 528 450 448
3 530 529 451
3 450 530 451
3 528 530 450
3 452 453 529
3 530 452 529
3 531 452 530
3 452 532 454
3 531 532 452
3 514 455 516
3 455 532 516
3 455 454 532
3 455 514 457
3 457 514 517
3 457 517 458
3 458 517 519
3 458 519 459
3 459 519 521
3 459 521 460
3 460 521 523
3 525 533 523
3 533 460 523
3 533 461 460
3 446 461 527
3 527 461 533
3 529 462 451
3 462 529 453
3 536 535 534
3 534 537 536
3 534 535 469
3 535 468 469
3 535 538 468
3 469 470 534
3 470 539 534
3 539 537 534
3 470 540 539
3 472 540 470
3 541 473 474
3 541 474 542
3 474 543 542
3 474 475 543
3 475 476 543
3 543 476 544
3 545 478 479
3 480 546 479
3 479 546 545
3 481 547 480
3 480 547 546
3 548 547 481
3 468 548 481
3 538 548 468
3 539 540 549
3 539 549 550
3 483 549 472
3 472 549 540
3 552 551 486
3 486 551 485
3 486 473 541
3 553 486 541
3 552 486 553
3 553 541 542
3 554 544 476
3 554 476 487
3 555 487 488
3 555 554 487
3 556 488 489
3 556 555 488
3 557 489 490
3 557 556 489
3 490 478 545
3 558 490 545
3 557 490 558
3 558 545 546
3 558 546 559
3 559 546 547
3 559 547 560
3 560 547 548
3 550 549 561
3 550 561 562
3 491 561 483
3 483 561 549
3 551 493 485
3 563 493 551
3 564 562 561
3 561 491 564
3 491 565 564
3 491 494 565
3 563 496 493
3 566 496 563
3 497 565 494
3 497 567 565
3 566 499 496
3 568 499 566
3 569 567 497
3 569 497 500
3 500 501 569
3 569 501 570
3 568 503 499
3 571 503 568
3 573 572 505
3 573 505 506
3 501 505 570
3 570 505 572
3 575 508 574
3 508 571 574
3 508 503 571
3 576 575 574
3 510 573 506
3 510 577 573
3 575 512 508
3 513 512 575
3 576 513 575
3 578 513 576
3 580 579 515
3 580 515 516
3 515 581 518
3 579 581 515
3 518 582 520
3 581 582 518
3 520 583 522
3 582 583 520
3 522 584 524
3 583 584 522
3 525 524 584
3 525 584 585
3 527 586 526
3 586 587 526
3 587 510 526
3 587 577 510
3 578 588 513
3 513 588 528
3 528 589 530
3 588 589 528
3 530 590 531
3 589 590 530
3 531 591 532
3 590 591 531
3 516 532 580
3 580 532 591
3 585 592 525
3 525 592 533
3 527 533 586
3 533 593 586
3 533 592 593
3 586 593 587
3 594 535 536
3 537 594 536
3 595 538 594
3 594 538 535
3 539 595 537
3 537 595 594
3 596 542 543
3 544 596 543
3 597 548 595
3 595 548 538
3 550 597 539
3 539 597 595
3 598 551 552
3 553 599 552
3 552 599 598
3 600 599 553
3 600 553 542
3 601 600 542
3 596 601 542
3 601 596 544
3 554 601 544
3 602 601 554
3 603 554 555
3 603 602 554
3 605 603 604
3 603 556 604
3 603 555 556
3 557 606 556
3 556 606 604
3 558 607 557
3 557 607 606
3 559 608 558
3 558 608 607
3 560 609 559
3 559 609 608
3 548 597 560
3 597 609 560
3 597 610 609
3 562 610 550
3 550 610 597
3 612 611 598
3 611 551 598
3 611 563 551
3 612 598 599
3 612 599 613
3 613 599 600
3 614 605 604
3 616 615 614
3 604 616 614
3 606 616 604
3 617 606 607
3 616 606 617
3 618 607 608
3 617 607 618
3 619 608 609
3 618 608 619
3 620 609 610
3 619 609 620
3 564 621 562
3 621 610 562
3 621 620 610
3 565 621 564
3 611 566 563
3 622 566 611
3 623 615 616
3 623 616 617
3 623 617 624
3 626 625 624
3 617 626 624
3 618 626 617
3 627 618 619
3 626 618 627
3 628 619 620
3 627 619 628
3 629 620 621
3 628 620 629
3 567 629 565
3 565 629 621
3 622 568 566
3 630 568 622
3 625 626 631
3 625 631 632
3 633 626 627
3 631 626 633
3 634 627 628
3 633 627 634
3 635 628 629
3 634 628 635
3 569 636 567
3 636 629 567
3 636 635 629
3 570 636 569
3 638 571 637
3 571 630 637
3 571 568 630
3 639 638 637
3 632 631 640
3 632 640 641
3 642 631 633
3 640 631 642
3 643 633 634
3 642 633 643
3 644 634 635
3 643 634 644
3 573 644 572
3 644 636 572
3 644 635 636
3 572 636 570
3 638 574 571
3 646 645 576
3 646 576 574
3 639 646 574
3 638 639 574
3 647 645 646
3 650 649 648
3 652 651 648
3 652 648 649
3 651 652 641
3 640 651 641
3 653 651 640
3 654 640 642
3 653 640 654
3 655 642 643
3 654 642 655
3 656 643 644
3 655 643 656
3 577 656 573
3 573 656 644
3 657 578 645
3 645 578 576
3 645 647 658
3 659 645 658
3 657 645 659
3 661 660 659
3 661 659 658
3 663 662 660
3 663 660 661
3 579 580 662
3 663 579 662
3 664 579 663
3 648 581 650
3 581 664 650
3 581 579 664
3 581 648 582
3 582 648 651
3 582 651 583
3 583 651 653
3 583 653 584
3 584 653 654
3 584 654 585
3 654 665 585
3 654 655 665
3 666 655 656
3 665 655 666
3 587 666 577
3 577 666 656
3 657 588 578
3 588 657 589
3 589 657 659
3 589 659 590
3 590 659 660
3 590 660 591
3 591 660 662
3 591 662 580
3 665 592 585
3 592 665 593
3 593 665 666
3 593 666 587
3 667 600 601
3 602 668 601
3 601 668 667
3 603 669 602
3 602 669 668
3 605 669 603
3 670 611 612
3 613 671 612
3 612 671 670
3 672 671 613
3 672 613 600
3 673 672 600
3 667 673 600
3 673 667 668
3 673 668 674
3 674 668 669
3 674 669 675
3 677 675 676
3 676 675 614
3 675 669 614
3 669 605 614
3 615 676 614
3 678 622 670
3 670 622 611
3 671 680 679
3 678 671 679
3 670 671 678
3 680 671 672
3 677 676 681
3 677 681 682
3 623 683 615
3 683 676 615
3 683 681 676
3 624 684 623
3 623 684 683
3 625 684 624
3 685 630 678
3 678 630 622
3 678 679 686
3 687 678 686
3 685 678 687
3 688 687 686
3 689 682 681
3 691 690 689
3 681 691 689
3 683 691 681
3 692 683 684
3 691 683 692
3 632 692 625
3 625 692 684
3 685 637 630
3 637 685 639
3 685 693 639
3 685 687 693
3 687 688 694
3 687 694 693
3 690 691 695
3 690 695 696
3 697 691 692
3 695 691 697
3 641 697 632
3 632 697 692
3 693 646 639
3 647 646 693
3 694 647 693
3 698 647 694
3 696 695 649
3 650 696 649
3 699 696 650
3 649 695 652
3 652 695 697
3 652 697 641
3 698 700 647
3 647 700 658
3 658 701 661
3 700 701 658
3 661 702 663
3 701 702 661
3 663 703 664
3 702 703 663
3 650 664 699
3 699 664 703
3 704 672 673
3 674 705 673
3 673 705 704
3 675 706 674
3 674 706 705
3 677 706 675
3 707 679 680
3 672 704 680
3 704 707 680
3 704 708 707
3 705 710 709
3 708 705 709
3 704 705 708
3 712 711 710
3 705 712 710
3 706 712 705
3 682 712 677
3 677 712 706
3 707 686 679
3 707 708 713
3 688 707 713
3 714 688 713
3 707 688 686
3 717 716 715
3 709 713 708
3 716 717 711
3 712 716 711
3 718 716 712
3 689 719 682
3 719 712 682
3 719 718 712
3 690 719 689
3 721 694 720
3 694 714 720
3 694 688 714
3 721 720 715
3 716 721 715
3 722 721 716
3 723 716 718
3 722 716 723
3 724 718 719
3 723 718 724
3 696 724 690
3 690 724 719
3 725 698 721
3 721 698 694
3 726 721 722
3 725 721 726
3 727 722 723
3 726 722 727
3 728 723 724
3 727 723 728
3 699 728 696
3 696 728 724
3 725 700 698
3 700 725 701
3 701 725 726
3 701 726 702
3 702 726 727
3 702 727 703
3 703 727 728
3 703 728 699
3 730 729 710
3 710 729 709
3 710 711 730
3 730 711 731
3 732 714 713
3 717 715 733
3 732 733 715
3 733 732 729
3 713 729 732
3 729 713 709
3 711 717 731
3 731 717 733
3 732 720 714
3 720 732 715
3 734 729 730
3 731 734 730
3 734 733 729
3 733 734 731
