# Asteroid shape model (convexinv -> dual reconstruction)
v -1.02254616 -0.23586006 0.35714286
v -0.95111759 -0.23586006 0.28571429
v -0.95111759 -0.30728863 0.35714286
v -0.95111759 -0.23586006 0.42857143
v -0.95111759 -0.16443149 0.35714286
v -1.02254616 0.04985423 0.07142857
v -0.95111759 0.04985423 0.00000000
v -0.95111759 -0.02157434 0.07142857
v -0.95111759 0.04985423 0.14285714
v -0.95111759 0.12128280 0.07142857
v -0.87968902 -0.37871720 0.21428571
v -0.80826045 -0.37871720 0.14285714
v -0.80826045 -0.45014577 0.21428571
v -0.80826045 -0.45014577 0.35714286
v -0.87968902 -0.37871720 0.35714286
v -0.80826045 -0.45014577 0.50000000
v -0.87968902 -0.37871720 0.50000000
v -0.80826045 -0.45014577 0.64285714
v -0.87968902 -0.37871720 0.64285714
v -0.80826045 -0.37871720 0.71428571
v -0.87968902 -0.23586006 0.21428571
v -0.80826045 -0.23586006 0.14285714
v -0.87968902 -0.23586006 0.50000000
v -0.87968902 -0.23586006 0.64285714
v -0.80826045 -0.23586006 0.71428571
v -0.87968902 -0.09300292 0.07142857
v -0.80826045 -0.09300292 0.00000000
v -0.80826045 -0.16443149 0.07142857
v -0.87968902 -0.09300292 0.21428571
v -0.87968902 -0.09300292 0.35714286
v -0.87968902 -0.09300292 0.50000000
v -0.87968902 -0.09300292 0.64285714
v -0.80826045 -0.09300292 0.71428571
v -0.80826045 0.04985423 0.00000000
v -0.87968902 0.04985423 0.21428571
v -0.87968902 0.04985423 0.35714286
v -0.87968902 0.04985423 0.50000000
v -0.87968902 0.04985423 0.64285714
v -0.80826045 0.04985423 0.71428571
v -0.80826045 0.12128280 0.07142857
v -0.87968902 0.19271137 0.21428571
v -0.80826045 0.19271137 0.14285714
v -0.87968902 0.19271137 0.35714286
v -0.87968902 0.19271137 0.50000000
v -0.87968902 0.19271137 0.64285714
v -0.80826045 0.19271137 0.71428571
v -0.80826045 0.26413994 0.21428571
v -0.87968902 0.33556851 0.35714286
v -0.80826045 0.33556851 0.28571429
v -0.87968902 0.33556851 0.50000000
v -0.80826045 0.33556851 0.57142857
v -0.80826045 0.26413994 0.64285714
v -0.80826045 0.40699708 0.35714286
v -0.80826045 0.40699708 0.50000000
v -0.73683188 -0.52157434 0.21428571
v -0.66540330 -0.52157434 0.14285714
v -0.66540330 -0.59300292 0.21428571
v -0.66540330 -0.59300292 0.35714286
v -0.73683188 -0.52157434 0.35714286
v -0.66540330 -0.59300292 0.50000000
v -0.73683188 -0.52157434 0.50000000
v -0.66540330 -0.59300292 0.64285714
v -0.73683188 -0.52157434 0.64285714
v -0.66540330 -0.52157434 0.71428571
v -0.73683188 -0.37871720 0.07142857
v -0.66540330 -0.37871720 0.00000000
v -0.66540330 -0.45014577 0.07142857
v -0.66540330 -0.37871720 0.71428571
v -0.73683188 -0.23586006 0.07142857
v -0.66540330 -0.23586006 0.00000000
v -0.66540330 -0.23586006 0.71428571
v -0.66540330 -0.09300292 0.00000000
v -0.66540330 -0.16443149 0.78571429
v -0.73683188 -0.09300292 0.78571429
v -0.66540330 -0.09300292 0.85714286
v -0.66540330 0.04985423 0.00000000
v -0.73683188 0.04985423 0.78571429
v -0.66540330 0.04985423 0.85714286
v -0.73683188 0.19271137 -0.21428571
v -0.66540330 0.19271137 -0.28571429
v -0.66540330 0.12128280 -0.21428571
v -0.66540330 0.12128280 -0.07142857
v -0.73683188 0.19271137 -0.07142857
v -0.73683188 0.19271137 0.07142857
v -0.73683188 0.19271137 0.78571429
v -0.66540330 0.19271137 0.85714286
v -0.73683188 0.33556851 -0.21428571
v -0.66540330 0.33556851 -0.28571429
v -0.73683188 0.33556851 -0.07142857
v -0.73683188 0.33556851 0.07142857
v -0.73683188 0.33556851 0.21428571
v -0.73683188 0.33556851 0.64285714
v -0.73683188 0.33556851 0.78571429
v -0.66540330 0.33556851 0.85714286
v -0.66540330 0.40699708 -0.21428571
v -0.66540330 0.40699708 -0.07142857
v -0.66540330 0.40699708 0.07142857
v -0.66540330 0.40699708 0.21428571
v -0.66540330 0.40699708 0.35714286
v -0.66540330 0.40699708 0.50000000
v -0.73683188 0.47842566 0.64285714
v -0.66540330 0.47842566 0.57142857
v -0.66540330 0.47842566 0.71428571
v -0.66540330 0.40699708 0.78571429
v -0.66540330 0.54985423 0.64285714
v -0.59397473 -0.66443149 0.21428571
v -0.52254616 -0.66443149 0.14285714
v -0.52254616 -0.73586006 0.21428571
v -0.52254616 -0.73586006 0.35714286
v -0.59397473 -0.66443149 0.35714286
v -0.52254616 -0.73586006 0.50000000
v -0.59397473 -0.66443149 0.50000000
v -0.52254616 -0.73586006 0.64285714
v -0.59397473 -0.66443149 0.64285714
v -0.52254616 -0.66443149 0.71428571
v -0.59397473 -0.52157434 0.07142857
v -0.52254616 -0.52157434 0.00000000
v -0.52254616 -0.59300292 0.07142857
v -0.52254616 -0.52157434 0.71428571
v -0.52254616 -0.37871720 0.00000000
v -0.52254616 -0.45014577 0.78571429
v -0.59397473 -0.37871720 0.78571429
v -0.52254616 -0.37871720 0.85714286
v -0.59397473 -0.23586006 -0.07142857
v -0.52254616 -0.23586006 -0.14285714
v -0.52254616 -0.30728863 -0.07142857
v -0.59397473 -0.23586006 0.78571429
v -0.52254616 -0.23586006 0.85714286
v -0.59397473 -0.09300292 -0.07142857
v -0.52254616 -0.09300292 -0.14285714
v -0.52254616 -0.09300292 0.85714286
v -0.59397473 0.04985423 -0.07142857
v -0.52254616 0.04985423 -0.14285714
v -0.52254616 0.04985423 0.85714286
v -0.52254616 0.19271137 -0.28571429
v -0.52254616 0.12128280 -0.21428571
v -0.52254616 0.19271137 0.85714286
v -0.52254616 0.33556851 -0.28571429
v -0.52254616 0.33556851 0.85714286
v -0.52254616 0.40699708 -0.21428571
v -0.52254616 0.40699708 -0.07142857
v -0.59397473 0.47842566 0.07142857
v -0.52254616 0.47842566 0.00000000
v -0.59397473 0.47842566 0.21428571
v -0.59397473 0.47842566 0.35714286
v -0.59397473 0.47842566 0.50000000
v -0.59397473 0.47842566 0.78571429
v -0.52254616 0.40699708 0.92857143
v -0.59397473 0.47842566 0.92857143
v -0.52254616 0.47842566 1.00000000
v -0.52254616 0.54985423 0.07142857
v -0.52254616 0.54985423 0.21428571
v -0.52254616 0.54985423 0.35714286
v -0.59397473 0.62128280 0.50000000
v -0.52254616 0.62128280 0.42857143
v -0.52254616 0.54985423 0.64285714
v -0.52254616 0.62128280 0.57142857
v -0.52254616 0.54985423 0.78571429
v -0.52254616 0.54985423 0.92857143
v -0.59397473 0.76413994 0.50000000
v -0.52254616 0.76413994 0.42857143
v -0.52254616 0.76413994 0.57142857
v -0.59397473 0.90699708 0.50000000
v -0.52254616 0.90699708 0.42857143
v -0.52254616 0.90699708 0.57142857
v -0.52254616 0.97842566 0.50000000
v -0.37968902 -0.66443149 0.14285714
v -0.37968902 -0.73586006 0.21428571
v -0.37968902 -0.73586006 0.35714286
v -0.37968902 -0.73586006 0.50000000
v -0.37968902 -0.73586006 0.64285714
v -0.37968902 -0.66443149 0.71428571
v -0.37968902 -0.52157434 0.00000000
v -0.37968902 -0.59300292 0.07142857
v -0.37968902 -0.52157434 0.71428571
v -0.45111759 -0.37871720 -0.07142857
v -0.37968902 -0.37871720 -0.14285714
v -0.37968902 -0.45014577 -0.07142857
v -0.37968902 -0.45014577 0.78571429
v -0.37968902 -0.37871720 0.85714286
v -0.37968902 -0.23586006 -0.14285714
v -0.37968902 -0.23586006 0.85714286
v -0.45111759 -0.09300292 -0.21428571
v -0.37968902 -0.09300292 -0.28571429
v -0.37968902 -0.16443149 -0.21428571
v -0.37968902 -0.09300292 0.85714286
v -0.45111759 0.04985423 -0.21428571
v -0.37968902 0.04985423 -0.28571429
v -0.37968902 0.04985423 0.85714286
v -0.37968902 0.19271137 -0.28571429
v -0.37968902 0.19271137 0.85714286
v -0.37968902 0.33556851 -0.28571429
v -0.37968902 0.33556851 0.85714286
v -0.37968902 0.40699708 -0.21428571
v -0.37968902 0.40699708 -0.07142857
v -0.37968902 0.47842566 0.00000000
v -0.37968902 0.40699708 0.92857143
v -0.37968902 0.47842566 1.00000000
v -0.37968902 0.54985423 0.07142857
v -0.37968902 0.54985423 0.21428571
v -0.37968902 0.54985423 0.35714286
v -0.45111759 0.62128280 0.50000000
v -0.37968902 0.54985423 0.50000000
v -0.37968902 0.54985423 0.64285714
v -0.37968902 0.54985423 0.78571429
v -0.37968902 0.54985423 0.92857143
v -0.45111759 0.76413994 0.50000000
v -0.45111759 0.90699708 0.50000000
v -0.30826045 -0.66443149 0.07142857
v -0.23683188 -0.66443149 0.00000000
v -0.23683188 -0.73586006 0.07142857
v -0.23683188 -0.73586006 0.21428571
v -0.23683188 -0.73586006 0.35714286
v -0.23683188 -0.73586006 0.50000000
v -0.23683188 -0.73586006 0.64285714
v -0.23683188 -0.66443149 0.71428571
v -0.23683188 -0.52157434 0.00000000
v -0.23683188 -0.52157434 0.71428571
v -0.23683188 -0.37871720 -0.14285714
v -0.23683188 -0.45014577 -0.07142857
v -0.23683188 -0.45014577 0.78571429
v -0.23683188 -0.37871720 0.85714286
v -0.30826045 -0.23586006 -0.92857143
v -0.23683188 -0.23586006 -1.00000000
v -0.23683188 -0.30728863 -0.92857143
v -0.23683188 -0.30728863 -0.78571429
v -0.30826045 -0.23586006 -0.78571429
v -0.23683188 -0.30728863 -0.64285714
v -0.30826045 -0.23586006 -0.64285714
v -0.23683188 -0.30728863 -0.50000000
v -0.30826045 -0.23586006 -0.50000000
v -0.23683188 -0.30728863 -0.35714286
v -0.30826045 -0.23586006 -0.35714286
v -0.23683188 -0.30728863 -0.21428571
v -0.30826045 -0.23586006 -0.21428571
v -0.23683188 -0.23586006 0.85714286
v -0.30826045 -0.09300292 -0.92857143
v -0.23683188 -0.09300292 -1.00000000
v -0.30826045 -0.09300292 -0.78571429
v -0.30826045 -0.09300292 -0.64285714
v -0.30826045 -0.09300292 -0.50000000
v -0.30826045 -0.09300292 -0.35714286
v -0.23683188 -0.09300292 0.85714286
v -0.30826045 0.04985423 -0.92857143
v -0.23683188 0.04985423 -1.00000000
v -0.30826045 0.04985423 -0.78571429
v -0.30826045 0.04985423 -0.64285714
v -0.30826045 0.04985423 -0.50000000
v -0.30826045 0.04985423 -0.35714286
v -0.23683188 0.04985423 0.85714286
v -0.30826045 0.19271137 -0.92857143
v -0.23683188 0.19271137 -1.00000000
v -0.30826045 0.19271137 -0.78571429
v -0.30826045 0.19271137 -0.64285714
v -0.30826045 0.19271137 -0.50000000
v -0.30826045 0.19271137 -0.35714286
v -0.23683188 0.12128280 0.92857143
v -0.30826045 0.19271137 0.92857143
v -0.23683188 0.19271137 1.00000000
v -0.30826045 0.33556851 -0.92857143
v -0.23683188 0.33556851 -1.00000000
v -0.30826045 0.33556851 -0.78571429
v -0.30826045 0.33556851 -0.64285714
v -0.30826045 0.33556851 -0.50000000
v -0.30826045 0.33556851 -0.35714286
v -0.30826045 0.33556851 0.92857143
v -0.23683188 0.33556851 1.00000000
v -0.23683188 0.40699708 -0.92857143
v -0.23683188 0.40699708 -0.78571429
v -0.23683188 0.40699708 -0.64285714
v -0.23683188 0.40699708 -0.50000000
v -0.23683188 0.40699708 -0.35714286
v -0.23683188 0.40699708 -0.21428571
v -0.30826045 0.47842566 -0.07142857
v -0.23683188 0.47842566 -0.14285714
v -0.30826045 0.47842566 0.78571429
v -0.23683188 0.40699708 0.78571429
v -0.23683188 0.47842566 0.71428571
v -0.30826045 0.40699708 0.85714286
v -0.23683188 0.40699708 0.92857143
v -0.30826045 0.47842566 0.92857143
v -0.23683188 0.54985423 -0.07142857
v -0.23683188 0.54985423 0.07142857
v -0.23683188 0.54985423 0.21428571
v -0.23683188 0.54985423 0.35714286
v -0.23683188 0.54985423 0.50000000
v -0.23683188 0.54985423 0.64285714
v -0.16540330 -0.66443149 0.07142857
v -0.09397473 -0.66443149 0.14285714
v -0.09397473 -0.73586006 0.21428571
v -0.09397473 -0.73586006 0.35714286
v -0.09397473 -0.73586006 0.50000000
v -0.09397473 -0.73586006 0.64285714
v -0.09397473 -0.66443149 0.71428571
v -0.09397473 -0.52157434 0.00000000
v -0.09397473 -0.59300292 0.07142857
v -0.09397473 -0.52157434 0.71428571
v -0.16540330 -0.37871720 -0.78571429
v -0.09397473 -0.37871720 -0.85714286
v -0.09397473 -0.45014577 -0.78571429
v -0.09397473 -0.45014577 -0.64285714
v -0.16540330 -0.37871720 -0.64285714
v -0.09397473 -0.45014577 -0.50000000
v -0.16540330 -0.37871720 -0.50000000
v -0.09397473 -0.45014577 -0.35714286
v -0.16540330 -0.37871720 -0.35714286
v -0.09397473 -0.45014577 -0.21428571
v -0.16540330 -0.37871720 -0.21428571
v -0.09397473 -0.45014577 -0.07142857
v -0.09397473 -0.45014577 0.78571429
v -0.09397473 -0.37871720 0.85714286
v -0.09397473 -0.23586006 -1.00000000
v -0.09397473 -0.30728863 -0.92857143
v -0.09397473 -0.23586006 0.85714286
v -0.09397473 -0.09300292 -1.00000000
v -0.09397473 -0.16443149 0.92857143
v -0.16540330 -0.09300292 0.92857143
v -0.09397473 -0.09300292 1.00000000
v -0.09397473 0.04985423 -1.00000000
v -0.16540330 0.04985423 0.92857143
v -0.09397473 0.04985423 1.00000000
v -0.09397473 0.19271137 -1.00000000
v -0.09397473 0.19271137 1.00000000
v -0.09397473 0.33556851 -1.00000000
v -0.09397473 0.33556851 1.00000000
v -0.09397473 0.40699708 -0.92857143
v -0.16540330 0.47842566 -0.78571429
v -0.09397473 0.47842566 -0.85714286
v -0.16540330 0.47842566 -0.64285714
v -0.16540330 0.47842566 -0.50000000
v -0.16540330 0.47842566 -0.35714286
v -0.16540330 0.47842566 -0.21428571
v -0.09397473 0.40699708 0.78571429
v -0.09397473 0.47842566 0.71428571
v -0.09397473 0.40699708 0.92857143
v -0.09397473 0.54985423 -0.78571429
v -0.09397473 0.54985423 -0.64285714
v -0.09397473 0.54985423 -0.50000000
v -0.09397473 0.54985423 -0.35714286
v -0.09397473 0.54985423 -0.21428571
v -0.09397473 0.54985423 -0.07142857
v -0.09397473 0.54985423 0.07142857
v -0.09397473 0.54985423 0.21428571
v -0.09397473 0.54985423 0.35714286
v -0.09397473 0.54985423 0.50000000
v -0.09397473 0.54985423 0.64285714
v 0.04888241 -0.66443149 0.14285714
v 0.04888241 -0.73586006 0.21428571
v 0.04888241 -0.73586006 0.35714286
v 0.04888241 -0.73586006 0.50000000
v 0.04888241 -0.73586006 0.64285714
v 0.04888241 -0.66443149 0.71428571
v -0.02254616 -0.52157434 -0.64285714
v 0.04888241 -0.52157434 -0.71428571
v 0.04888241 -0.59300292 -0.64285714
v 0.04888241 -0.52157434 -0.57142857
v 0.04888241 -0.52157434 0.00000000
v 0.04888241 -0.59300292 0.07142857
v 0.04888241 -0.52157434 0.71428571
v -0.02254616 -0.37871720 -0.92857143
v 0.04888241 -0.37871720 -1.00000000
v 0.04888241 -0.45014577 -0.92857143
v 0.04888241 -0.45014577 -0.78571429
v 0.04888241 -0.45014577 -0.50000000
v 0.04888241 -0.45014577 -0.35714286
v 0.04888241 -0.45014577 -0.21428571
v 0.04888241 -0.45014577 -0.07142857
v 0.04888241 -0.45014577 0.78571429
v 0.04888241 -0.37871720 0.85714286
v 0.04888241 -0.23586006 -1.00000000
v 0.04888241 -0.23586006 0.85714286
v 0.04888241 -0.09300292 -1.00000000
v 0.04888241 -0.16443149 0.92857143
v 0.04888241 -0.09300292 1.00000000
v 0.04888241 0.04985423 -1.00000000
v 0.04888241 0.04985423 1.00000000
v 0.04888241 0.19271137 -1.00000000
v 0.04888241 0.19271137 1.00000000
v 0.04888241 0.33556851 -1.00000000
v 0.04888241 0.33556851 1.00000000
v 0.04888241 0.40699708 -0.92857143
v 0.04888241 0.47842566 -0.85714286
v 0.04888241 0.40699708 0.78571429
v 0.04888241 0.47842566 0.71428571
v 0.04888241 0.40699708 0.92857143
v 0.04888241 0.54985423 -0.78571429
v -0.02254616 0.62128280 -0.64285714
v 0.04888241 0.62128280 -0.71428571
v -0.02254616 0.62128280 -0.50000000
v 0.04888241 0.62128280 -0.42857143
v 0.04888241 0.54985423 -0.35714286
v 0.04888241 0.54985423 -0.21428571
v 0.04888241 0.54985423 -0.07142857
v -0.02254616 0.62128280 0.07142857
v 0.04888241 0.62128280 0.00000000
v 0.04888241 0.62128280 0.14285714
v 0.04888241 0.54985423 0.21428571
v 0.04888241 0.54985423 0.35714286
v 0.04888241 0.54985423 0.50000000
v 0.04888241 0.54985423 0.64285714
v 0.04888241 0.69271137 -0.64285714
v 0.04888241 0.69271137 -0.50000000
v -0.02254616 0.76413994 0.07142857
v 0.04888241 0.76413994 0.00000000
v 0.04888241 0.76413994 0.14285714
v -0.02254616 0.90699708 0.07142857
v 0.04888241 0.90699708 0.00000000
v 0.04888241 0.90699708 0.14285714
v 0.04888241 0.97842566 0.07142857
v 0.19173955 -0.66443149 0.14285714
v 0.19173955 -0.73586006 0.21428571
v 0.19173955 -0.73586006 0.35714286
v 0.19173955 -0.73586006 0.50000000
v 0.19173955 -0.73586006 0.64285714
v 0.19173955 -0.66443149 0.71428571
v 0.19173955 -0.52157434 -0.71428571
v 0.19173955 -0.59300292 -0.64285714
v 0.19173955 -0.59300292 -0.50000000
v 0.12031098 -0.52157434 -0.50000000
v 0.19173955 -0.52157434 -0.42857143
v 0.19173955 -0.52157434 0.00000000
v 0.19173955 -0.59300292 0.07142857
v 0.19173955 -0.52157434 0.71428571
v 0.19173955 -0.37871720 -1.00000000
v 0.19173955 -0.45014577 -0.92857143
v 0.19173955 -0.45014577 -0.78571429
v 0.19173955 -0.45014577 -0.35714286
v 0.19173955 -0.45014577 -0.21428571
v 0.19173955 -0.45014577 -0.07142857
v 0.19173955 -0.45014577 0.78571429
v 0.19173955 -0.37871720 0.85714286
v 0.19173955 -0.23586006 -1.00000000
v 0.19173955 -0.23586006 0.85714286
v 0.19173955 -0.09300292 -1.00000000
v 0.12031098 -0.09300292 0.92857143
v 0.19173955 -0.09300292 0.85714286
v 0.19173955 0.04985423 -1.00000000
v 0.19173955 -0.02157434 0.92857143
v 0.19173955 0.04985423 1.00000000
v 0.19173955 0.19271137 -1.00000000
v 0.19173955 0.19271137 1.00000000
v 0.19173955 0.33556851 -1.00000000
v 0.19173955 0.33556851 1.00000000
v 0.19173955 0.40699708 -0.92857143
v 0.19173955 0.47842566 -0.85714286
v 0.19173955 0.40699708 0.78571429
v 0.19173955 0.47842566 0.71428571
v 0.19173955 0.40699708 0.92857143
v 0.19173955 0.54985423 -0.78571429
v 0.12031098 0.62128280 -0.64285714
v 0.19173955 0.54985423 -0.64285714
v 0.19173955 0.62128280 -0.57142857
v 0.19173955 0.54985423 -0.35714286
v 0.19173955 0.62128280 -0.42857143
v 0.19173955 0.54985423 -0.21428571
v 0.19173955 0.54985423 -0.07142857
v 0.12031098 0.62128280 0.07142857
v 0.19173955 0.54985423 0.07142857
v 0.19173955 0.54985423 0.21428571
v 0.19173955 0.54985423 0.35714286
v 0.19173955 0.54985423 0.50000000
v 0.19173955 0.54985423 0.64285714
v 0.19173955 0.69271137 -0.50000000
v 0.12031098 0.76413994 0.07142857
v 0.12031098 0.90699708 0.07142857
v 0.26316812 -0.66443149 0.21428571
v 0.26316812 -0.66443149 0.35714286
v 0.26316812 -0.66443149 0.50000000
v 0.33459670 -0.66443149 0.57142857
v 0.33459670 -0.73586006 0.64285714
v 0.33459670 -0.73586006 0.78571429
v 0.26316812 -0.66443149 0.78571429
v 0.33459670 -0.66443149 0.85714286
v 0.33459670 -0.52157434 -0.71428571
v 0.33459670 -0.59300292 -0.64285714
v 0.33459670 -0.59300292 -0.50000000
v 0.33459670 -0.52157434 -0.42857143
v 0.26316812 -0.52157434 0.07142857
v 0.33459670 -0.52157434 0.14285714
v 0.33459670 -0.59300292 0.21428571
v 0.33459670 -0.59300292 0.35714286
v 0.33459670 -0.59300292 0.50000000
v 0.26316812 -0.52157434 0.78571429
v 0.33459670 -0.52157434 0.85714286
v 0.26316812 -0.37871720 -0.92857143
v 0.33459670 -0.37871720 -0.85714286
v 0.33459670 -0.45014577 -0.78571429
v 0.33459670 -0.45014577 -0.35714286
v 0.33459670 -0.45014577 -0.21428571
v 0.33459670 -0.45014577 -0.07142857
v 0.33459670 -0.45014577 0.07142857
v 0.33459670 -0.37871720 0.85714286
v 0.26316812 -0.23586006 -0.92857143
v 0.33459670 -0.23586006 -0.85714286
v 0.33459670 -0.23586006 0.85714286
v 0.26316812 -0.09300292 -0.92857143
v 0.33459670 -0.09300292 -0.85714286
v 0.33459670 -0.09300292 0.85714286
v 0.26316812 0.04985423 -0.92857143
v 0.33459670 0.04985423 -0.85714286
v 0.33459670 -0.02157434 0.92857143
v 0.33459670 0.04985423 1.00000000
v 0.26316812 0.19271137 -0.92857143
v 0.33459670 0.19271137 -0.85714286
v 0.26316812 0.19271137 0.92857143
v 0.33459670 0.12128280 0.92857143
v 0.33459670 0.19271137 0.85714286
v 0.26316812 0.33556851 -0.92857143
v 0.33459670 0.33556851 -0.85714286
v 0.26316812 0.33556851 0.92857143
v 0.33459670 0.33556851 0.85714286
v 0.26316812 0.47842566 -0.78571429
v 0.33459670 0.40699708 -0.78571429
v 0.33459670 0.47842566 -0.71428571
v 0.26316812 0.47842566 -0.07142857
v 0.33459670 0.40699708 -0.07142857
v 0.33459670 0.47842566 -0.14285714
v 0.26316812 0.47842566 0.07142857
v 0.33459670 0.40699708 0.07142857
v 0.26316812 0.47842566 0.21428571
v 0.33459670 0.40699708 0.21428571
v 0.26316812 0.47842566 0.35714286
v 0.33459670 0.40699708 0.35714286
v 0.26316812 0.47842566 0.50000000
v 0.33459670 0.40699708 0.50000000
v 0.33459670 0.47842566 0.57142857
v 0.33459670 0.40699708 0.78571429
v 0.33459670 0.47842566 0.71428571
v 0.33459670 0.54985423 -0.64285714
v 0.26316812 0.62128280 -0.50000000
v 0.33459670 0.54985423 -0.50000000
v 0.33459670 0.54985423 -0.35714286
v 0.33459670 0.54985423 -0.21428571
v 0.33459670 0.54985423 0.64285714
v 0.40602527 -0.80728863 0.64285714
v 0.47745384 -0.80728863 0.57142857
v 0.47745384 -0.87871720 0.64285714
v 0.47745384 -0.80728863 0.71428571
v 0.47745384 -0.66443149 0.57142857
v 0.47745384 -0.66443149 0.71428571
v 0.40602527 -0.66443149 0.78571429
v 0.40602527 -0.52157434 -0.64285714
v 0.47745384 -0.52157434 -0.57142857
v 0.47745384 -0.59300292 -0.50000000
v 0.47745384 -0.52157434 -0.42857143
v 0.40602527 -0.52157434 0.21428571
v 0.40602527 -0.52157434 0.35714286
v 0.40602527 -0.52157434 0.50000000
v 0.47745384 -0.52157434 0.57142857
v 0.40602527 -0.52157434 0.78571429
v 0.47745384 -0.52157434 0.71428571
v 0.47745384 -0.37871720 -0.85714286
v 0.47745384 -0.45014577 -0.78571429
v 0.47745384 -0.45014577 -0.64285714
v 0.47745384 -0.45014577 -0.35714286
v 0.47745384 -0.45014577 -0.21428571
v 0.47745384 -0.45014577 -0.07142857
v 0.47745384 -0.45014577 0.07142857
v 0.47745384 -0.45014577 0.21428571
v 0.47745384 -0.45014577 0.35714286
v 0.47745384 -0.45014577 0.50000000
v 0.40602527 -0.37871720 0.78571429
v 0.47745384 -0.37871720 0.71428571
v 0.47745384 -0.23586006 -0.85714286
v 0.47745384 -0.30728863 0.78571429
v 0.47745384 -0.23586006 0.85714286
v 0.47745384 -0.09300292 -0.85714286
v 0.47745384 -0.09300292 0.85714286
v 0.47745384 0.04985423 -0.85714286
v 0.47745384 -0.02157434 0.92857143
v 0.47745384 0.04985423 1.00000000
v 0.47745384 0.19271137 -0.85714286
v 0.47745384 0.12128280 0.92857143
v 0.47745384 0.19271137 0.85714286
v 0.47745384 0.26413994 -0.78571429
v 0.40602527 0.33556851 -0.78571429
v 0.47745384 0.33556851 -0.71428571
v 0.47745384 0.33556851 0.85714286
v 0.47745384 0.47842566 -0.71428571
v 0.47745384 0.40699708 -0.07142857
v 0.47745384 0.47842566 -0.14285714
v 0.47745384 0.40699708 0.07142857
v 0.47745384 0.40699708 0.21428571
v 0.47745384 0.40699708 0.35714286
v 0.47745384 0.40699708 0.50000000
v 0.47745384 0.47842566 0.57142857
v 0.40602527 0.47842566 0.78571429
v 0.47745384 0.47842566 0.85714286
v 0.47745384 0.54985423 -0.64285714
v 0.47745384 0.54985423 -0.50000000
v 0.47745384 0.54985423 -0.35714286
v 0.47745384 0.54985423 -0.21428571
v 0.47745384 0.54985423 0.64285714
v 0.47745384 0.54985423 0.78571429
v 0.54888241 -0.80728863 0.64285714
v 0.54888241 -0.66443149 0.64285714
v 0.54888241 -0.52157434 -0.50000000
v 0.54888241 -0.52157434 0.64285714
v 0.54888241 -0.37871720 -0.78571429
v 0.54888241 -0.37871720 -0.64285714
v 0.62031098 -0.37871720 -0.57142857
v 0.62031098 -0.45014577 -0.50000000
v 0.62031098 -0.45014577 -0.35714286
v 0.62031098 -0.45014577 -0.21428571
v 0.54888241 -0.37871720 -0.07142857
v 0.62031098 -0.37871720 -0.14285714
v 0.54888241 -0.37871720 0.07142857
v 0.54888241 -0.37871720 0.21428571
v 0.54888241 -0.37871720 0.35714286
v 0.54888241 -0.37871720 0.50000000
v 0.54888241 -0.37871720 0.64285714
v 0.62031098 -0.23586006 -0.85714286
v 0.62031098 -0.30728863 -0.78571429
v 0.62031098 -0.30728863 -0.64285714
v 0.62031098 -0.30728863 -0.07142857
v 0.62031098 -0.23586006 0.00000000
v 0.54888241 -0.23586006 0.07142857
v 0.54888241 -0.23586006 0.21428571
v 0.54888241 -0.23586006 0.35714286
v 0.54888241 -0.23586006 0.50000000
v 0.54888241 -0.23586006 0.64285714
v 0.54888241 -0.23586006 0.78571429
v 0.62031098 -0.09300292 -0.85714286
v 0.62031098 -0.16443149 0.07142857
v 0.62031098 -0.16443149 0.21428571
v 0.62031098 -0.09300292 0.28571429
v 0.54888241 -0.09300292 0.35714286
v 0.54888241 -0.09300292 0.50000000
v 0.54888241 -0.09300292 0.64285714
v 0.54888241 -0.09300292 0.78571429
v 0.62031098 0.04985423 -0.85714286
v 0.54888241 0.04985423 0.35714286
v 0.62031098 0.04985423 0.28571429
v 0.54888241 0.04985423 0.50000000
v 0.54888241 0.04985423 0.64285714
v 0.54888241 0.04985423 0.78571429
v 0.54888241 0.04985423 0.92857143
v 0.62031098 0.12128280 -0.78571429
v 0.54888241 0.19271137 -0.78571429
v 0.62031098 0.19271137 -0.71428571
v 0.54888241 0.19271137 0.35714286
v 0.62031098 0.19271137 0.28571429
v 0.54888241 0.19271137 0.50000000
v 0.54888241 0.19271137 0.64285714
v 0.54888241 0.19271137 0.78571429
v 0.54888241 0.33556851 -0.64285714
v 0.62031098 0.26413994 -0.64285714
v 0.62031098 0.33556851 -0.57142857
v 0.54888241 0.33556851 0.07142857
v 0.62031098 0.26413994 0.07142857
v 0.62031098 0.33556851 0.00000000
v 0.54888241 0.33556851 0.21428571
v 0.62031098 0.26413994 0.21428571
v 0.54888241 0.33556851 0.35714286
v 0.54888241 0.33556851 0.50000000
v 0.54888241 0.33556851 0.64285714
v 0.54888241 0.33556851 0.78571429
v 0.54888241 0.47842566 -0.64285714
v 0.62031098 0.40699708 -0.50000000
v 0.54888241 0.47842566 -0.50000000
v 0.54888241 0.47842566 -0.35714286
v 0.62031098 0.40699708 -0.35714286
v 0.54888241 0.47842566 -0.21428571
v 0.62031098 0.40699708 -0.21428571
v 0.62031098 0.40699708 -0.07142857
v 0.54888241 0.47842566 0.64285714
v 0.54888241 0.47842566 0.78571429
v 0.69173955 -0.37871720 -0.50000000
v 0.69173955 -0.37871720 -0.35714286
v 0.69173955 -0.37871720 -0.21428571
v 0.69173955 -0.23586006 -0.78571429
v 0.69173955 -0.23586006 -0.64285714
v 0.76316812 -0.23586006 -0.57142857
v 0.76316812 -0.30728863 -0.50000000
v 0.76316812 -0.30728863 -0.35714286
v 0.76316812 -0.30728863 -0.21428571
v 0.69173955 -0.23586006 -0.07142857
v 0.76316812 -0.23586006 -0.14285714
v 0.69173955 -0.09300292 -0.78571429
v 0.76316812 -0.09300292 -0.71428571
v 0.76316812 -0.16443149 -0.64285714
v 0.69173955 -0.09300292 -0.07142857
v 0.76316812 -0.09300292 -0.14285714
v 0.69173955 -0.09300292 0.07142857
v 0.69173955 -0.09300292 0.21428571
v 0.69173955 0.04985423 -0.78571429
v 0.76316812 -0.02157434 -0.64285714
v 0.69173955 0.04985423 -0.64285714
v 0.76316812 0.04985423 -0.57142857
v 0.76316812 -0.02157434 -0.07142857
v 0.76316812 0.04985423 0.00000000
v 0.69173955 0.04985423 0.07142857
v 0.69173955 0.04985423 0.21428571
v 0.69173955 0.19271137 -0.64285714
v 0.76316812 0.19271137 -0.57142857
v 0.69173955 0.19271137 0.07142857
v 0.76316812 0.19271137 0.00000000
v 0.69173955 0.19271137 0.21428571
v 0.76316812 0.33556851 -0.57142857
v 0.76316812 0.33556851 0.00000000
v 0.76316812 0.40699708 -0.50000000
v 0.76316812 0.40699708 -0.35714286
v 0.76316812 0.40699708 -0.21428571
v 0.76316812 0.40699708 -0.07142857
v 0.83459670 -0.23586006 -0.50000000
v 0.83459670 -0.23586006 -0.35714286
v 0.83459670 -0.23586006 -0.21428571
v 0.83459670 -0.09300292 -0.64285714
v 0.83459670 -0.09300292 -0.50000000
v 0.90602527 -0.09300292 -0.42857143
v 0.90602527 -0.16443149 -0.35714286
v 0.90602527 -0.09300292 -0.28571429
v 0.83459670 -0.09300292 -0.21428571
v 0.90602527 -0.02157434 -0.50000000
v 0.90602527 0.04985423 -0.57142857
v 0.90602527 0.04985423 -0.42857143
v 0.83459670 0.04985423 -0.35714286
v 0.90602527 -0.02157434 -0.35714286
v 0.83459670 0.04985423 -0.21428571
v 0.83459670 0.04985423 -0.07142857
v 0.90602527 0.12128280 -0.50000000
v 0.83459670 0.19271137 -0.50000000
v 0.83459670 0.19271137 -0.35714286
v 0.83459670 0.19271137 -0.21428571
v 0.83459670 0.19271137 -0.07142857
v 0.83459670 0.33556851 -0.50000000
v 0.83459670 0.33556851 -0.35714286
v 0.83459670 0.33556851 -0.21428571
v 0.83459670 0.33556851 -0.07142857
v 1.04888241 -0.09300292 -0.42857143
v 1.04888241 -0.16443149 -0.35714286
v 1.04888241 -0.09300292 -0.28571429
v 0.97745384 0.04985423 -0.50000000
v 1.04888241 -0.02157434 -0.35714286
v 1.12031098 -0.09300292 -0.35714286
f 3 2 1
f 1 4 3
f 2 5 1
f 1 5 4
f 8 7 6
f 6 9 8
f 7 10 6
f 6 10 9
f 13 12 11
f 15 14 11
f 11 14 13
f 17 16 15
f 15 16 14
f 19 18 17
f 17 18 16
f 19 20 18
f 11 12 21
f 21 12 22
f 21 2 3
f 15 21 3
f 11 21 15
f 15 3 4
f 23 15 4
f 17 15 23
f 17 24 19
f 17 23 24
f 20 19 25
f 25 19 24
f 28 27 26
f 28 26 22
f 26 21 22
f 26 29 21
f 30 5 2
f 21 30 2
f 29 30 21
f 23 4 5
f 30 23 5
f 31 23 30
f 23 32 24
f 23 31 32
f 25 24 33
f 33 24 32
f 26 27 8
f 27 7 8
f 27 34 7
f 26 8 9
f 35 26 9
f 29 26 35
f 29 36 30
f 29 35 36
f 30 37 31
f 30 36 37
f 31 38 32
f 31 37 38
f 33 32 39
f 39 32 38
f 34 40 7
f 7 40 10
f 10 40 9
f 40 41 9
f 41 35 9
f 41 40 42
f 35 43 36
f 35 41 43
f 36 44 37
f 36 43 44
f 37 45 38
f 37 44 45
f 39 38 46
f 46 38 45
f 42 47 41
f 49 48 47
f 48 41 47
f 48 43 41
f 43 50 44
f 43 48 50
f 52 45 51
f 45 50 51
f 45 44 50
f 45 52 46
f 49 53 48
f 48 53 50
f 50 53 54
f 50 54 51
f 57 56 55
f 59 58 55
f 55 58 57
f 61 60 59
f 59 60 58
f 63 62 61
f 61 62 60
f 63 64 62
f 67 66 65
f 67 65 56
f 56 65 55
f 65 12 55
f 12 13 55
f 55 13 14
f 55 14 59
f 59 14 16
f 59 16 61
f 61 16 18
f 61 18 63
f 18 20 63
f 20 64 63
f 20 68 64
f 65 66 69
f 69 66 70
f 69 22 12
f 69 12 65
f 25 68 20
f 25 71 68
f 69 70 28
f 70 27 28
f 70 72 27
f 69 28 22
f 33 74 73
f 71 33 73
f 25 33 71
f 74 75 73
f 72 34 27
f 76 34 72
f 39 77 74
f 39 74 33
f 75 74 78
f 78 74 77
f 81 80 79
f 83 82 79
f 79 82 81
f 83 84 40
f 76 83 40
f 34 76 40
f 83 76 82
f 84 42 40
f 46 85 77
f 46 77 39
f 78 77 86
f 86 77 85
f 79 80 87
f 87 80 88
f 79 89 83
f 79 87 89
f 83 90 84
f 83 89 90
f 91 47 42
f 84 91 42
f 90 91 84
f 91 49 47
f 51 92 52
f 85 46 52
f 92 85 52
f 93 85 92
f 86 85 94
f 94 85 93
f 88 95 87
f 87 95 89
f 89 95 96
f 89 96 90
f 90 96 97
f 90 97 91
f 91 97 98
f 91 98 49
f 98 53 49
f 98 99 53
f 53 100 54
f 99 100 53
f 54 100 51
f 100 101 51
f 101 92 51
f 101 100 102
f 104 93 103
f 93 101 103
f 93 92 101
f 93 104 94
f 102 105 101
f 101 105 103
f 108 107 106
f 110 109 106
f 106 109 108
f 112 111 110
f 110 111 109
f 114 113 112
f 112 113 111
f 114 115 113
f 118 117 116
f 118 116 107
f 107 116 106
f 116 56 106
f 56 57 106
f 106 57 58
f 106 58 110
f 110 58 60
f 110 60 112
f 112 60 62
f 112 62 114
f 62 64 114
f 64 115 114
f 64 119 115
f 116 117 67
f 117 66 67
f 117 120 66
f 116 67 56
f 68 122 121
f 119 68 121
f 64 68 119
f 122 123 121
f 126 125 124
f 120 126 124
f 70 120 124
f 66 120 70
f 71 127 122
f 71 122 68
f 123 122 128
f 128 122 127
f 124 125 129
f 129 125 130
f 129 72 70
f 129 70 124
f 73 127 71
f 73 75 127
f 75 128 127
f 75 131 128
f 129 130 132
f 132 130 133
f 132 76 72
f 132 72 129
f 78 131 75
f 78 134 131
f 136 135 81
f 81 135 80
f 82 132 133
f 136 82 133
f 81 82 136
f 132 82 76
f 86 134 78
f 86 137 134
f 135 88 80
f 138 88 135
f 94 137 86
f 94 139 137
f 138 140 88
f 88 140 95
f 95 141 96
f 140 141 95
f 141 143 142
f 97 141 142
f 96 141 97
f 144 98 97
f 144 97 142
f 145 99 98
f 145 98 144
f 146 100 99
f 146 99 145
f 146 102 100
f 103 147 104
f 139 94 148
f 94 147 148
f 147 149 148
f 94 104 147
f 149 150 148
f 143 151 142
f 142 151 144
f 144 151 152
f 144 152 145
f 145 152 153
f 155 154 153
f 154 145 153
f 154 146 145
f 146 154 102
f 154 156 102
f 156 105 102
f 154 157 156
f 103 105 147
f 105 158 147
f 105 156 158
f 147 158 149
f 149 158 159
f 149 159 150
f 154 155 160
f 160 155 161
f 157 154 162
f 162 154 160
f 160 161 163
f 163 161 164
f 162 160 165
f 165 160 163
f 164 166 163
f 163 166 165
f 168 167 108
f 108 167 107
f 169 108 109
f 169 168 108
f 170 109 111
f 170 169 109
f 171 111 113
f 171 170 111
f 113 115 171
f 171 115 172
f 174 173 118
f 118 173 117
f 118 107 167
f 118 167 174
f 119 172 115
f 119 175 172
f 178 177 176
f 173 178 176
f 120 173 176
f 117 173 120
f 179 175 119
f 179 119 121
f 121 123 179
f 179 123 180
f 176 177 126
f 177 125 126
f 177 181 125
f 176 126 120
f 128 180 123
f 128 182 180
f 185 184 183
f 181 185 183
f 130 181 183
f 125 181 130
f 131 182 128
f 131 186 182
f 183 184 187
f 187 184 188
f 187 133 130
f 187 130 183
f 134 186 131
f 134 189 186
f 187 188 136
f 188 135 136
f 188 190 135
f 187 136 133
f 137 189 134
f 137 191 189
f 190 138 135
f 192 138 190
f 139 191 137
f 139 193 191
f 192 194 138
f 138 194 140
f 140 195 141
f 194 195 140
f 143 141 195
f 143 195 196
f 197 193 139
f 197 139 148
f 148 150 197
f 197 150 198
f 196 199 143
f 143 199 151
f 151 200 152
f 199 200 151
f 152 201 153
f 200 201 152
f 203 202 155
f 153 203 155
f 201 203 153
f 156 157 202
f 203 156 202
f 204 156 203
f 156 205 158
f 204 205 156
f 158 206 159
f 205 206 158
f 150 159 198
f 198 159 206
f 207 161 202
f 202 161 155
f 162 207 157
f 157 207 202
f 208 164 207
f 207 164 161
f 165 208 162
f 162 208 207
f 208 166 164
f 166 208 165
f 211 210 209
f 167 168 209
f 168 211 209
f 168 212 211
f 213 168 169
f 213 212 168
f 214 169 170
f 214 213 169
f 215 170 171
f 215 214 170
f 171 172 215
f 215 172 216
f 209 210 174
f 210 173 174
f 210 217 173
f 209 174 167
f 175 216 172
f 175 218 216
f 220 219 178
f 178 219 177
f 178 173 217
f 178 217 220
f 221 218 175
f 221 175 179
f 179 180 221
f 221 180 222
f 225 224 223
f 227 226 223
f 223 226 225
f 229 228 227
f 227 228 226
f 231 230 229
f 229 230 228
f 233 232 231
f 231 232 230
f 235 234 233
f 233 234 232
f 219 234 235
f 181 219 235
f 177 219 181
f 182 222 180
f 182 236 222
f 223 224 237
f 237 224 238
f 223 239 227
f 223 237 239
f 227 240 229
f 227 239 240
f 229 241 231
f 229 240 241
f 231 242 233
f 231 241 242
f 242 184 185
f 235 242 185
f 233 242 235
f 235 185 181
f 186 236 182
f 186 243 236
f 237 238 244
f 244 238 245
f 237 246 239
f 237 244 246
f 239 247 240
f 239 246 247
f 240 248 241
f 240 247 248
f 241 249 242
f 241 248 249
f 249 188 184
f 249 184 242
f 189 243 186
f 189 250 243
f 244 245 251
f 251 245 252
f 244 253 246
f 244 251 253
f 246 254 247
f 246 253 254
f 247 255 248
f 247 254 255
f 248 256 249
f 248 255 256
f 256 190 188
f 256 188 249
f 191 258 257
f 250 191 257
f 189 191 250
f 258 259 257
f 251 252 260
f 260 252 261
f 251 262 253
f 251 260 262
f 253 263 254
f 253 262 263
f 254 264 255
f 254 263 264
f 255 265 256
f 255 264 265
f 265 192 190
f 265 190 256
f 193 266 258
f 193 258 191
f 259 258 267
f 267 258 266
f 261 268 260
f 260 268 262
f 262 268 269
f 262 269 263
f 263 269 270
f 263 270 264
f 264 270 271
f 264 271 265
f 265 271 272
f 265 272 192
f 272 194 192
f 272 273 194
f 273 275 274
f 195 273 274
f 194 273 195
f 274 196 195
f 278 277 276
f 280 279 277
f 279 266 277
f 193 277 266
f 277 193 276
f 197 276 193
f 276 197 279
f 279 281 276
f 280 281 279
f 279 197 266
f 281 280 198
f 280 267 198
f 266 197 198
f 266 198 267
f 275 282 274
f 274 282 196
f 282 199 196
f 282 283 199
f 199 284 200
f 283 284 199
f 200 285 201
f 284 285 200
f 201 286 203
f 285 286 201
f 203 287 204
f 286 287 203
f 276 205 278
f 205 287 278
f 205 204 287
f 205 276 206
f 206 276 281
f 206 281 198
f 288 210 211
f 288 211 289
f 211 290 289
f 211 212 290
f 291 212 213
f 291 290 212
f 292 213 214
f 292 291 213
f 293 214 215
f 293 292 214
f 215 216 293
f 293 216 294
f 296 295 288
f 295 210 288
f 295 217 210
f 296 288 289
f 218 294 216
f 218 297 294
f 300 299 298
f 302 301 298
f 298 301 300
f 304 303 302
f 302 303 301
f 306 305 304
f 304 305 303
f 308 307 306
f 306 307 305
f 219 220 308
f 220 307 308
f 220 309 307
f 220 217 295
f 220 295 309
f 310 297 218
f 310 218 221
f 221 222 310
f 310 222 311
f 313 312 225
f 225 312 224
f 226 298 299
f 313 226 299
f 225 226 313
f 298 226 228
f 298 228 302
f 302 228 230
f 302 230 304
f 304 230 232
f 304 232 306
f 306 232 234
f 306 234 308
f 308 234 219
f 236 311 222
f 236 314 311
f 312 238 224
f 315 238 312
f 243 317 316
f 314 243 316
f 236 243 314
f 317 318 316
f 315 245 238
f 319 245 315
f 250 320 317
f 250 317 243
f 318 317 321
f 321 317 320
f 319 252 245
f 322 252 319
f 257 320 250
f 257 259 320
f 259 321 320
f 259 323 321
f 322 261 252
f 324 261 322
f 267 323 259
f 267 325 323
f 324 326 261
f 261 326 268
f 326 328 327
f 269 326 327
f 268 326 269
f 329 270 269
f 329 269 327
f 330 271 270
f 330 270 329
f 331 272 271
f 331 271 330
f 332 273 272
f 332 272 331
f 332 275 273
f 334 333 277
f 334 277 278
f 277 335 280
f 333 335 277
f 267 280 325
f 325 280 335
f 328 336 327
f 327 336 329
f 329 336 337
f 329 337 330
f 330 337 338
f 330 338 331
f 331 338 339
f 331 339 332
f 332 339 340
f 332 340 275
f 340 282 275
f 340 341 282
f 282 342 283
f 341 342 282
f 283 343 284
f 342 343 283
f 284 344 285
f 343 344 284
f 285 345 286
f 344 345 285
f 286 346 287
f 345 346 286
f 278 287 334
f 334 287 346
f 348 347 290
f 290 347 289
f 349 290 291
f 349 348 290
f 350 291 292
f 350 349 291
f 351 292 293
f 351 350 292
f 293 294 351
f 351 294 352
f 355 354 353
f 353 356 355
f 358 357 296
f 296 357 295
f 296 289 347
f 296 347 358
f 297 352 294
f 297 359 352
f 362 361 360
f 299 300 360
f 300 362 360
f 300 363 362
f 301 353 354
f 363 301 354
f 300 301 363
f 364 356 353
f 301 364 353
f 303 364 301
f 365 303 305
f 365 364 303
f 366 305 307
f 366 365 305
f 367 307 309
f 367 366 307
f 309 295 357
f 309 357 367
f 368 359 297
f 368 297 310
f 310 311 368
f 368 311 369
f 360 361 313
f 361 312 313
f 361 370 312
f 360 313 299
f 314 369 311
f 314 371 369
f 370 315 312
f 372 315 370
f 373 371 314
f 373 314 316
f 316 318 373
f 373 318 374
f 372 319 315
f 375 319 372
f 321 374 318
f 321 376 374
f 375 322 319
f 377 322 375
f 323 376 321
f 323 378 376
f 377 324 322
f 379 324 377
f 325 378 323
f 325 380 378
f 379 381 324
f 324 381 326
f 328 326 381
f 328 381 382
f 384 383 333
f 384 333 334
f 333 385 335
f 383 385 333
f 325 335 380
f 380 335 385
f 382 386 328
f 328 386 336
f 386 388 387
f 337 386 387
f 336 386 337
f 389 338 337
f 389 337 387
f 338 389 390
f 391 338 390
f 339 338 391
f 339 392 340
f 391 392 339
f 340 393 341
f 392 393 340
f 393 395 394
f 342 393 394
f 341 393 342
f 342 394 396
f 397 342 396
f 343 342 397
f 343 398 344
f 397 398 343
f 344 399 345
f 398 399 344
f 345 400 346
f 399 400 345
f 334 346 384
f 384 346 400
f 388 401 387
f 387 401 389
f 389 401 402
f 389 402 390
f 394 395 403
f 403 395 404
f 396 394 405
f 405 394 403
f 403 404 406
f 406 404 407
f 405 403 408
f 408 403 406
f 407 409 406
f 406 409 408
f 411 410 348
f 348 410 347
f 412 348 349
f 412 411 348
f 413 349 350
f 413 412 349
f 414 350 351
f 414 413 350
f 351 352 414
f 414 352 415
f 417 416 355
f 355 416 354
f 419 418 356
f 418 355 356
f 418 417 355
f 419 420 418
f 422 421 358
f 358 421 357
f 358 347 410
f 358 410 422
f 359 415 352
f 359 423 415
f 425 424 362
f 362 424 361
f 426 362 363
f 426 425 362
f 363 354 416
f 363 416 426
f 364 419 356
f 427 420 419
f 364 427 419
f 365 427 364
f 428 365 366
f 428 427 365
f 429 366 367
f 429 428 366
f 367 357 421
f 367 421 429
f 430 423 359
f 430 359 368
f 368 369 430
f 430 369 431
f 424 370 361
f 432 370 424
f 371 431 369
f 371 433 431
f 432 372 370
f 434 372 432
f 371 373 435
f 436 371 435
f 433 371 436
f 374 435 373
f 434 375 372
f 437 375 434
f 438 436 435
f 435 374 438
f 374 439 438
f 374 376 439
f 437 377 375
f 440 377 437
f 378 439 376
f 378 441 439
f 440 379 377
f 442 379 440
f 380 441 378
f 380 443 441
f 442 444 379
f 379 444 381
f 382 381 444
f 382 444 445
f 447 446 383
f 447 383 384
f 383 448 385
f 446 448 383
f 380 385 443
f 443 385 448
f 445 449 382
f 382 449 386
f 451 450 388
f 386 451 388
f 449 451 386
f 452 450 451
f 454 453 391
f 454 391 390
f 391 455 392
f 453 455 391
f 392 456 393
f 455 456 392
f 458 457 395
f 393 458 395
f 456 458 393
f 397 396 457
f 458 397 457
f 459 397 458
f 397 460 398
f 459 460 397
f 398 461 399
f 460 461 398
f 399 462 400
f 461 462 399
f 384 400 447
f 447 400 462
f 450 401 388
f 452 463 450
f 463 401 450
f 463 402 401
f 390 402 454
f 454 402 463
f 464 404 457
f 457 404 395
f 405 464 396
f 396 464 457
f 465 407 464
f 464 407 404
f 408 465 405
f 405 465 464
f 465 409 407
f 409 465 408
f 466 410 411
f 412 467 411
f 411 467 466
f 413 468 412
f 412 468 467
f 468 413 469
f 413 470 469
f 413 414 470
f 472 471 415
f 471 414 415
f 471 470 414
f 472 473 471
f 475 474 417
f 417 474 416
f 476 417 418
f 476 475 417
f 418 420 476
f 476 420 477
f 478 421 422
f 479 478 422
f 479 422 410
f 480 479 410
f 466 480 410
f 480 466 467
f 480 467 481
f 481 467 468
f 481 468 482
f 482 468 469
f 423 483 472
f 423 472 415
f 473 472 484
f 484 472 483
f 485 424 425
f 485 425 486
f 425 487 486
f 425 426 487
f 426 416 474
f 426 474 487
f 488 477 420
f 488 420 427
f 489 427 428
f 489 488 427
f 490 428 429
f 490 489 428
f 429 421 478
f 491 429 478
f 490 429 491
f 491 478 479
f 430 483 423
f 430 431 483
f 431 484 483
f 431 492 484
f 493 432 485
f 485 432 424
f 485 486 494
f 485 494 493
f 433 492 431
f 433 495 492
f 496 434 493
f 493 434 432
f 493 494 497
f 493 497 496
f 436 495 433
f 436 498 495
f 499 437 496
f 496 437 434
f 496 497 500
f 496 500 499
f 501 498 436
f 501 436 438
f 438 439 501
f 501 439 502
f 503 440 499
f 499 440 437
f 499 500 504
f 499 504 503
f 507 506 505
f 506 502 505
f 502 441 505
f 502 439 441
f 508 442 503
f 503 442 440
f 503 504 509
f 503 509 508
f 507 505 510
f 507 510 511
f 443 510 441
f 441 510 505
f 508 444 442
f 513 512 445
f 513 445 444
f 509 513 444
f 508 509 444
f 514 512 513
f 517 516 515
f 519 518 515
f 519 515 516
f 521 520 518
f 521 518 519
f 523 522 520
f 523 520 521
f 525 524 522
f 525 522 523
f 526 524 525
f 528 527 446
f 528 446 447
f 510 448 511
f 448 527 511
f 448 446 527
f 448 510 443
f 512 449 445
f 514 529 512
f 529 449 512
f 529 451 449
f 531 530 452
f 451 531 452
f 529 531 451
f 453 454 530
f 531 453 530
f 532 453 531
f 453 533 455
f 532 533 453
f 515 456 517
f 456 533 517
f 456 455 533
f 456 515 458
f 458 515 518
f 458 518 459
f 459 518 520
f 459 520 460
f 460 520 522
f 460 522 461
f 461 522 524
f 526 534 524
f 534 461 524
f 534 462 461
f 447 462 528
f 528 462 534
f 530 463 452
f 463 530 454
f 537 536 535
f 535 538 537
f 535 536 470
f 536 469 470
f 536 539 469
f 470 471 535
f 471 540 535
f 540 538 535
f 471 541 540
f 473 541 471
f 542 474 475
f 542 475 543
f 475 544 543
f 475 476 544
f 476 477 544
f 544 477 545
f 546 479 480
f 481 547 480
f 480 547 546
f 482 548 481
f 481 548 547
f 549 548 482
f 469 549 482
f 539 549 469
f 540 541 550
f 540 550 551
f 484 550 473
f 473 550 541
f 553 552 487
f 487 552 486
f 487 474 542
f 554 487 542
f 553 487 554
f 554 542 543
f 555 545 477
f 555 477 488
f 556 488 489
f 556 555 488
f 557 489 490
f 557 556 489
f 558 490 491
f 558 557 490
f 491 479 546
f 559 491 546
f 558 491 559
f 559 546 547
f 559 547 560
f 560 547 548
f 560 548 561
f 561 548 549
f 551 550 562
f 551 562 563
f 492 562 484
f 484 562 550
f 552 494 486
f 564 494 552
f 565 563 562
f 562 492 565
f 492 566 565
f 492 495 566
f 564 497 494
f 567 497 564
f 498 566 495
f 498 568 566
f 567 500 497
f 569 500 567
f 570 568 498
f 570 498 501
f 501 502 570
f 570 502 571
f 569 504 500
f 572 504 569
f 574 573 506
f 574 506 507
f 502 506 571
f 571 506 573
f 576 509 575
f 509 572 575
f 509 504 572
f 577 576 575
f 511 574 507
f 511 578 574
f 576 513 509
f 514 513 576
f 577 514 576
f 579 514 577
f 581 580 516
f 581 516 517
f 516 582 519
f 580 582 516
f 519 583 521
f 582 583 519
f 521 584 523
f 583 584 521
f 523 585 525
f 584 585 523
f 526 525 585
f 526 585 586
f 528 587 527
f 587 588 527
f 588 511 527
f 588 578 511
f 579 589 514
f 514 589 529
f 529 590 531
f 589 590 529
f 531 591 532
f 590 591 531
f 532 592 533
f 591 592 532
f 517 533 581
f 581 533 592
f 586 593 526
f 526 593 534
f 528 534 587
f 534 594 587
f 534 593 594
f 587 594 588
f 595 536 537
f 538 595 537
f 596 539 595
f 595 539 536
f 540 596 538
f 538 596 595
f 597 543 544
f 545 597 544
f 598 549 596
f 596 549 539
f 551 598 540
f 540 598 596
f 599 552 553
f 554 600 553
f 553 600 599
f 601 600 554
f 601 554 543
f 602 601 543
f 597 602 543
f 602 597 545
f 555 602 545
f 603 602 555
f 604 555 556
f 604 603 555
f 606 604 605
f 604 557 605
f 604 556 557
f 558 607 557
f 557 607 605
f 559 608 558
f 558 608 607
f 560 609 559
f 559 609 608
f 561 610 560
f 560 610 609
f 549 598 561
f 598 610 561
f 598 611 610
f 563 611 551
f 551 611 598
f 613 612 599
f 612 552 599
f 612 564 552
f 613 599 600
f 613 600 614
f 614 600 601
f 615 606 605
f 617 616 615
f 605 617 615
f 607 617 605
f 618 607 608
f 617 607 618
f 619 608 609
f 618 608 619
f 620 609 610
f 619 609 620
f 621 610 611
f 620 610 621
f 565 622 563
f 622 611 563
f 622 621 611
f 566 622 565
f 612 567 564
f 623 567 612
f 624 616 617
f 624 617 618
f 624 618 625
f 627 626 625
f 618 627 625
f 619 627 618
f 628 619 620
f 627 619 628
f 629 620 621
f 628 620 629
f 630 621 622
f 629 621 630
f 568 630 566
f 566 630 622
f 623 569 567
f 631 569 623
f 626 627 632
f 626 632 633
f 634 627 628
f 632 627 634
f 635 628 629
f 634 628 635
f 636 629 630
f 635 629 636
f 570 637 568
f 637 630 568
f 637 636 630
f 571 637 570
f 639 572 638
f 572 631 638
f 572 569 631
f 640 639 638
f 633 632 641
f 633 641 642
f 643 632 634
f 641 632 643
f 644 634 635
f 643 634 644
f 645 635 636
f 644 635 645
f 574 645 573
f 645 637 573
f 645 636 637
f 573 637 571
f 639 575 572
f 647 646 577
f 647 577 575
f 640 647 575
f 639 640 575
f 648 646 647
f 651 650 649
f 653 652 649
f 653 649 650
f 652 653 642
f 641 652 642
f 654 652 641
f 655 641 643
f 654 641 655
f 656 643 644
f 655 643 656
f 657 644 645
f 656 644 657
f 578 657 574
f 574 657 645
f 658 579 646
f 646 579 577
f 646 648 659
f 660 646 659
f 658 646 660
f 662 661 660
f 662 660 659
f 664 663 661
f 664 661 662
f 580 581 663
f 664 580 663
f 665 580 664
f 649 582 651
f 582 665 651
f 582 580 665
f 582 649 583
f 583 649 652
f 583 652 584
f 584 652 654
f 584 654 585
f 585 654 655
f 585 655 586
f 655 666 586
f 655 656 666
f 667 656 657
f 666 656 667
f 588 667 578
f 578 667 657
f 658 589 579
f 589 658 590
f 590 658 660
f 590 660 591
f 591 660 661
f 591 661 592
f 592 661 663
f 592 663 581
f 666 593 586
f 593 666 594
f 594 666 667
f 594 667 588
f 668 601 602
f 603 669 602
f 602 669 668
f 604 670 603
f 603 670 669
f 606 670 604
f 671 612 613
f 614 672 613
f 613 672 671
f 673 672 614
f 673 614 601
f 674 673 601
f 668 674 601
f 674 668 669
f 674 669 675
f 675 669 670
f 675 670 676
f 678 676 677
f 677 676 615
f 676 670 615
f 670 606 615
f 616 677 615
f 679 623 671
f 671 623 612
f 672 681 680
f 679 672 680
f 671 672 679
f 681 672 673
f 678 677 682
f 678 682 683
f 624 684 616
f 684 677 616
f 684 682 677
f 625 685 624
f 624 685 684
f 626 685 625
f 686 631 679
f 679 631 623
f 679 680 687
f 688 679 687
f 686 679 688
f 689 688 687
f 690 683 682
f 692 691 690
f 682 692 690
f 684 692 682
f 693 684 685
f 692 684 693
f 633 693 626
f 626 693 685
f 686 638 631
f 638 686 640
f 686 694 640
f 686 688 694
f 688 689 695
f 688 695 694
f 691 692 696
f 691 696 697
f 698 692 693
f 696 692 698
f 642 698 633
f 633 698 693
f 694 647 640
f 648 647 694
f 695 648 694
f 699 648 695
f 697 696 650
f 651 697 650
f 700 697 651
f 650 696 653
f 653 696 698
f 653 698 642
f 699 701 648
f 648 701 659
f 659 702 662
f 701 702 659
f 662 703 664
f 702 703 662
f 664 704 665
f 703 704 664
f 651 665 700
f 700 665 704
f 705 673 674
f 675 706 674
f 674 706 705
f 676 707 675
f 675 707 706
f 678 707 676
f 708 680 681
f 673 705 681
f 705 708 681
f 705 709 708
f 706 711 710
f 709 706 710
f 705 706 709
f 713 712 711
f 706 713 711
f 707 713 706
f 683 713 678
f 678 713 707
f 708 687 680
f 708 709 714
f 689 708 714
f 715 689 714
f 708 689 687
f 718 717 716
f 710 714 709
f 717 718 712
f 713 717 712
f 719 717 713
f 690 720 683
f 720 713 683
f 720 719 713
f 691 720 690
f 722 695 721
f 695 715 721
f 695 689 715
f 722 721 716
f 717 722 716
f 723 722 717
f 724 717 719
f 723 717 724
f 725 719 720
f 724 719 725
f 697 725 691
f 691 725 720
f 726 699 722
f 722 699 695
f 727 722 723
f 726 722 727
f 728 723 724
f 727 723 728
f 729 724 725
f 728 724 729
f 700 729 697
f 697 729 725
f 726 701 699
f 701 726 702
f 702 726 727
f 702 727 703
f 703 727 728
f 703 728 704
f 704 728 729
f 704 729 700
f 731 730 711
f 711 730 710
f 711 712 731
f 731 712 732
f 733 715 714
f 718 716 734
f 733 734 716
f 734 733 730
f 714 730 733
f 730 714 710
f 712 718 732
f 732 718 734
f 733 721 715
f 721 733 716
f 735 730 731
f 732 735 731
f 735 734 730
f 734 735 732
