# Asteroid shape model (convexinv -> dual reconstruction)
v 1.12853804 0.18450016 -1.66272481
v 2.05121838 -0.49434587 -1.55003172
v 0.15490750 -0.43792846 1.88960697
v -0.02104345 -0.54890119 1.61970303
v -0.09059027 -0.24289891 1.71996940
v -2.04877529 -2.32915828 -0.72478370
v -0.85811441 -0.39603132 -0.73573821
v -1.00515313 0.19225639 -0.91301870
v 2.12778394 -1.25874293 0.10917811
v 1.08860697 -0.14090691 1.43654527
v -0.20767860 -1.50831875 -0.18109221
v -0.36630696 -1.34969038 -0.63459177
v 0.82629177 -0.68982670 -2.07189213
v -2.48381138 -2.51129381 1.16242305
v -1.85422629 -0.52831303 0.85085306
v -2.11218697 -1.20037304 1.45161024
v 0.66142449 1.41928970 -1.92932330
v 0.39738311 0.25838218 -1.54916104
v -0.16569740 -0.90490902 -0.98562552
v -0.06067007 -0.26081123 -1.49175670
v 0.22086731 0.37119092 -1.82080674
v -1.45518611 -1.65532728 -1.49175670
v -0.07814858 -1.04189973 -0.77480622
v -0.10376122 0.22656638 -2.20360416
v 0.55227948 1.81038874 -2.20360416
v 1.00001580 0.59816255 -0.04466382
v 0.37750711 -1.40370698 -3.16509821
v -0.55978947 0.55978947 -1.93391368
v 1.31500798 -0.38770174 1.72817800
v -0.44596629 -0.70520206 -1.38965394
v 0.33477307 -0.39957679 -1.85074003
v -1.47481904 -0.20409241 -0.17596125
v -0.25665272 -1.16870386 -0.97693411
v -0.34243230 -1.10840648 -0.91301870
v -1.05749983 -0.95809927 0.05712681
v -0.14636295 -0.53120169 -0.61228035
v -0.86758768 -0.65188144 -0.52394779
v -0.72176518 -0.80686043 -0.67369287
v -1.31301563 -0.15661737 -1.94036186
v -1.61213330 1.36545396 -0.13456838
v -0.94070818 -0.55336879 -0.13456838
v -0.65636321 -0.48205445 1.16909584
v -1.42417228 1.37160062 1.16909584
v -0.79708636 -0.02179910 1.30471499
v -2.09860688 -0.53128740 0.53606793
v 1.22929880 -1.40123819 0.43004314
v -0.25948158 1.64534614 1.88960697
v -0.90362158 -0.33276460 0.72296057
v -0.87566667 2.42491354 1.28923354
v -1.78277552 -1.41544907 -0.18728163
v -1.40772070 0.64437990 -0.29363625
v -1.34553554 -0.46647875 -0.12821806
v 0.53560089 -1.40091695 -1.50275401
v -0.51288414 -1.33245772 -0.58261155
v -0.39513696 -0.00796933 -1.50275401
v -0.70954311 -1.10949946 -0.87939300
v 2.08911689 -0.52686310 2.24556223
v -0.22378639 -1.46955830 1.25436486
v 1.18572709 -1.25552378 0.79990011
v 2.26125857 -2.63483112 0.40614083
v 1.31700440 1.48995890 -0.56070106
v 0.75913627 -0.88548166 1.04680566
v 2.63953734 0.60399119 0.21145981
v 1.34722176 -0.42265648 1.10444258
v 0.42764540 0.66949547 2.81800324
v 0.09682595 0.43695123 3.06450085
v 1.09713081 -1.43115140 0.47344317
v 2.37885145 -0.14943076 0.47344317
v 2.49773791 -1.55003786 -0.31040831
v -1.65302151 2.89036549 1.29050846
v 0.79669976 0.19446456 -0.12853775
v -0.24428774 -1.30268831 -0.43847149
v -0.27351834 -1.33509519 -0.46588407
v -0.19983819 -1.21501642 -0.64581486
v 0.86240531 1.59566500 -1.53848638
v 0.43766493 1.45162987 -2.20821651
v 0.27540270 1.27531274 -2.37190581
v 0.16870949 -0.07906485 -1.53848638
v 0.43253670 0.20132860 -1.26756229
v 0.39828038 0.86384613 -1.13411731
v 0.14455518 -0.84015417 1.83883057
v 2.59566611 -0.84015417 -0.61228035
v -1.02535968 -0.21429953 -0.56702204
v -1.36688397 1.94200001 -0.56702204
v -1.87822175 -0.06474375 0.88389366
v -1.81885267 2.79717471 0.06791855
v -2.29235803 -1.20587190 2.04351218
v -2.13629946 -2.53719172 -0.02164692
v 0.14235097 1.86267514 -2.07189213
v -0.75549463 -0.62378644 -0.92915144
v -0.64563420 1.68287133 -1.39585767
v -0.28029108 -0.51328502 -1.33717952
v -0.19537265 -0.58074634 -1.39585767
v -0.74668239 -0.61780200 -1.08462985
v -1.02920629 -0.87582450 -0.79016976
v -0.78646082 -0.61205279 -1.03505015
v -1.92468394 -0.91339940 1.16242305
v -2.23472196 -1.24379306 2.66619265
v -1.75253760 0.30002389 -0.72478370
v -2.04877529 0.02107835 -3.07502032
v -0.99659751 0.16736434 -2.77250780
v 0.24083601 2.01931448 -2.77250780
v 0.15308444 2.26558433 -2.96001212
v -0.20019912 0.70464259 -2.44744537
v 0.39745649 1.05756810 -2.17853842
v 0.60449228 0.06225070 -0.46588407
v 0.68662843 0.22683730 -0.53166576
v 0.21235028 -0.91476028 1.00004679
v 0.62349785 0.12362022 -0.62136862
v 1.19840701 1.28894014 -0.06632908
v 0.56345345 -0.45674284 -2.29011069
v 0.76229510 -1.04249573 -3.08773127
v -0.55606121 0.98115313 -1.75665656
v -0.54308450 0.60100983 -1.92350861
v -0.05450233 0.80338720 -1.92350861
v -0.41681104 0.11655601 -2.03297814
v -0.53302170 0.53302170 -1.94539698
v -0.11655601 0.41681104 -2.03297814
v 0.98985131 1.46202119 0.31787760
v 0.95859866 -0.55464294 -1.18408693
v 0.40401667 1.51269753 -0.22672227
v -0.42639025 2.03082406 -0.51992113
v 0.47774350 1.62806049 -0.04918658
v 0.72729542 1.40472834 -1.49530485
v 0.40682444 2.20114937 -2.39044702
v 0.75747074 1.07259885 -1.91845089
v 0.55312127 1.63851697 -2.17853842
v 0.24303477 1.37772308 -2.39044702
v 0.06240463 1.23422599 -2.51526143
v 0.98941441 -1.05161257 -1.44227565
v 1.05164115 0.23635249 0.90565200
v 0.11755851 1.87702879 -0.09352802
v 1.32038319 -1.13115134 -0.71676178
v 0.97178322 0.61404942 0.15349746
v 1.03178784 -0.66557618 -1.13411731
v 0.71714180 0.59281350 -0.71676178
v 0.74495597 0.54733796 -0.67724036
v -0.28874497 -0.39115910 -1.67683662
v -0.70242516 -0.17831261 -1.67923494
v -1.35206951 -0.03109728 -0.94913804
v 1.37353550 -0.01658301 -2.27694683
v 0.30384188 1.08689959 -2.39575654
v -0.03323377 0.25514835 -2.18580122
v 1.55393851 -1.33202393 -1.50490909
v 0.65116627 2.39030994 -2.41942840
v 1.90019520 -0.62511264 -2.41942840
v 0.57321936 2.18259233 -2.24401961
v -1.96067775 -0.35130478 -2.24401961
v 0.19259301 -1.23839026 -1.43437663
v 0.18769620 0.25026503 -2.06412872
v -0.88156649 -0.76425151 -0.26247872
v -1.28237652 -0.32152991 0.88628544
v -0.52204498 -0.87548638 -0.91158419
v -0.86203106 -0.75039005 -0.34978953
v -0.96173930 -0.30246558 -0.91158419
v -0.90676995 -0.43268919 1.01916608
v -0.41477206 0.92983222 1.64536062
v -0.03998887 -0.46887767 1.64536062
v 1.24018729 -1.37113246 0.43819952
v -0.84116694 -0.84238176 0.93352625
v -0.94989162 -0.22236454 1.98831898
v 0.61770399 -0.47064729 1.98831898
v -0.86182869 -0.30340765 1.90656311
v -1.02336046 -1.42103545 0.51355535
v -0.13101751 -1.78595304 0.76030407
v 0.84825144 -1.84989292 1.61970303
v -0.30846102 -1.42150073 0.93588593
v 0.35497832 -1.55006064 1.43808217
v -0.22539396 -1.29152278 1.13591307
v -1.45593180 1.07855429 0.89117455
v 1.53739063 0.52907637 1.43239351
v -0.99346439 0.86226975 1.43239351
v 1.31647457 1.20430070 -0.55311876
v -0.21273718 -0.87950747 1.94462765
v -0.42938817 -1.36859626 1.84666718
v -0.89923417 0.07426931 0.99569666
v -0.12712616 0.15097750 1.84666718
v -1.15003463 0.39899852 0.27693522
v -1.95068678 0.66095134 -2.07740038
v -1.41536114 0.67056067 -0.52394779
v -1.36347708 -0.43589030 0.58941114
v -2.14013359 0.62737311 1.93297549
v -1.50587318 0.41985940 0.06791855
v -1.22887312 -0.01873372 -0.34228465
v -1.05839667 -0.34616404 -0.52792299
v -1.08078588 -0.30955819 -0.49610994
v -1.38875717 0.01863306 0.99763551
v -1.63618616 1.27768464 -0.49610994
v -1.44582644 0.60618271 -0.34797761
v 0.15490230 -1.52648332 1.22787700
v 0.13132498 -1.32640730 1.43808217
v 0.44774973 -1.70489089 1.48014713
v 0.23253698 -1.55361053 1.31978949
v -0.31819059 -1.44806656 0.30137011
v -0.40281024 -0.90140663 1.10158166
v -1.02522292 -0.89783723 -0.81547306
v -0.77502749 -0.82425302 0.10084896
v -1.02540166 -0.32254658 0.30137011
v 2.99821112 0.28460361 -0.13503400
v 2.67055437 -0.93822802 -0.13503400
v 3.42834362 -0.90659000 -0.68248883
v -0.00792755 -0.30828959 2.30892236
v 1.22803036 -0.07921274 1.36356560
v 1.56477161 -0.05722573 1.06804404
v 1.52695483 0.36815934 1.36356560
v 1.98551122 1.07487966 0.51945016
v 2.92293039 -1.57000795 -0.36041647
v 0.91830775 -1.50157742 0.51945016
v 0.94455576 -1.01591735 2.01741294
v 1.32772363 -1.62261324 1.44998820
v 1.25359818 -1.34863179 1.37778054
v 1.52810615 -1.20684005 0.30146995
v 1.59147551 -2.94276814 1.28170324
v 1.93889836 -1.57930805 0.29589444
v 1.35943056 -1.47769401 1.28170324
v -1.29890138 0.36831468 1.18534543
v -0.73948238 1.34171230 1.00964034
v 1.14986067 0.77382671 1.06994819
v 1.20939660 -0.18377857 2.48426826
v -0.03230797 -0.46481007 2.07652948
v -0.10211331 1.70710486 0.72085816
v -0.05079529 1.08312552 1.41488388
v 0.70129205 0.59940963 1.53156443
v -0.92139605 -1.75262335 -1.03237945
v -0.05793407 -1.43491645 0.39440934
v 0.19529476 -0.29732355 -1.03237945
v -0.99070891 -2.20987988 -0.01816320
v -1.25307517 -2.92293738 1.16009651
v -0.41356141 -0.07477060 -2.29352732
v 0.50842282 1.73472533 -2.29352732
v 0.58124810 0.13433838 -0.94385063
v 0.62351379 1.10084985 -1.75681547
v 0.80723638 1.39175037 -1.48474480
v 0.90136861 1.38508057 -1.30699297
v 0.18271926 -2.23216696 -1.10386262
v -1.29311075 -2.84886075 -0.14364520
v 2.66754280 -1.14779442 -0.39026339
v -2.00864065 -3.12198458 0.39651401
v -1.32205151 -2.72477641 -0.79016976
v -1.76050588 -1.00406339 0.45394003
v -1.73225409 -1.02262028 0.39651401
v -1.72224632 -1.00677429 0.38169372
v 1.01891057 -0.77406065 -3.01566611
v 1.76509801 0.38226596 -2.99601279
v 1.16009635 0.02500248 -2.72380059
v -2.08674278 -0.78916148 -0.76703505
v 0.56577155 0.71991800 2.65715328
v 0.09877133 0.22359388 3.13671569
v 0.84487310 0.59419076 2.04961127
v 0.79011212 1.79760196 3.06450085
v 1.18974494 1.55313335 2.14561912
v 1.29011571 1.36226035 1.74674003
v 0.94703252 0.46839667 0.94786348
v 1.20696537 1.79107460 -0.62136862
v 1.06345090 1.28482125 -0.50968988
v 0.98170628 1.07185356 -0.70006256
v 1.26792615 -0.29866203 0.07636253
v 1.31500798 -2.82129996 -0.70542022
v 1.00826291 -0.09886216 -0.70542022
v 1.08278436 -0.29301146 -0.53186936
v 0.81538626 -0.66218810 -2.83146196
v -0.01724312 -0.88529047 -2.83146196
v 0.79384384 -1.17816886 -3.20422544
v 0.76244976 -0.18261195 -2.08957916
v 0.66483269 -1.16517870 -3.17250451
v 0.60288364 0.61706915 -1.14882999
v 0.68103671 1.15780515 -0.47485834
v 2.04283100 0.79190929 -0.73800864
v 2.45225678 0.19502128 -1.95555098
v 1.80049281 0.69927414 -0.46538714
v 0.92415538 0.99299110 -0.52238454
v 0.52332574 1.19722400 -0.52238454
v 0.87783470 1.21335585 -0.22341155
v 0.62808350 0.61961320 -0.89813255
v 1.02006808 0.79619102 -0.04486926
v 0.45647752 1.14795628 -0.51992113
v 0.36340646 1.93775300 0.30986025
v 0.18038212 0.97269303 -1.18408693
v 0.69601462 0.61023740 -0.79988286
v 0.95144087 -0.88453102 -1.38752880
v -0.28384874 0.96421053 -1.38752880
v 1.10771674 0.87335038 -0.16630155
v 0.89773441 -3.09929808 -1.85178614
v 0.28925815 -0.82843378 -1.85178614
v 1.69651366 -0.88718730 -0.83513300
v 1.04588292 -0.90385880 -1.28932312
v 0.59864098 -0.41787746 -1.74049849
v 0.64029594 0.93821138 -0.71364371
v 0.37483206 0.67274749 -1.04274946
v 0.47340513 0.44998104 -1.15935415
v -0.93844947 1.39335212 -1.15935415
v -0.49077417 -0.34838582 -2.23145750
v 0.29894554 -0.83415435 -1.84742744
v 0.43778374 -1.44759456 -2.04886292
v 1.40357421 -0.40174059 -1.19506002
v -1.13028809 -0.45285517 -2.29220260
v -1.04976341 -0.48548862 -2.27187610
v -0.86326695 -1.11174335 -2.45852285
v -0.78366629 1.22010012 -1.43503284
v -1.03613655 0.57514868 -1.81592582
v -1.74550999 0.73569918 -2.04886292
v 1.18493619 0.11561623 -0.09560931
v 0.52868924 0.40145322 1.37778054
v 1.41612249 -1.43026346 0.93294104
v 1.35125553 -1.20144253 0.88246349
v -0.65437526 -0.27588635 -1.44177689
v -1.68814926 0.45015136 -1.78398988
v -0.42456398 0.19633250 -2.27852030
v -0.56443724 -0.51039726 -0.87575393
v -0.64047757 0.25029872 -2.21345474
v -0.70886775 0.31323727 -2.27694683
v -1.43813150 -0.12385900 -0.49523564
v -1.43524317 -0.11403831 -0.53120321
v -1.63123717 0.00583734 -0.70153570
v 0.05596979 -0.58454191 -0.70153570
v -0.15737350 -0.18391673 -1.78398988
v -0.17698602 -0.82427445 0.36522546
v -0.18639968 -0.51583416 -0.64806935
v -0.39008521 -0.17294216 -1.55003172
v -0.53408276 -0.08199835 -1.68470837
v -1.80230705 -0.75941421 -2.12260343
v -0.31630054 -0.42168134 -1.63569044
v 0.31846781 0.31719493 -1.86959361
v -0.08110545 0.39065593 -2.12260343
v 0.01893169 0.61673105 -2.24094001
v -1.62992159 0.48257830 -2.96001212
v 0.09706786 0.09865532 -1.99524014
v 0.41880119 0.18679674 -2.34050969
v -0.76203379 0.42167943 -2.34050969
v 0.24881349 0.40854787 -2.15724879
v -0.77363222 -1.22663850 -1.53274980
v 0.42552054 -0.02748573 -2.04718273
v 2.36555372 -0.46823464 -2.15724879
v 0.04649489 -1.41323435 -1.13314926
v 0.20507041 -1.25465883 -1.32974140
v -0.30808383 -0.09497545 -1.93676514
v 0.08540611 -0.35789702 -1.93676514
v -0.19298291 -0.29462602 -1.84554667
v 0.30399124 -0.95381633 -1.60243922
v 1.70999427 -1.27203304 -2.06412872
v -0.84207624 -0.68528766 -0.57215790
v -1.25768312 -0.26968078 -0.57215790
v -1.09791040 -0.52551494 -0.05006323
v -0.86612825 -0.86241718 0.41503548
v -1.13472595 -0.19321339 -0.58905403
v -0.53333248 -1.15032563 -0.58905403
v -2.06270133 0.32617005 -0.67324360
v -1.07985631 -0.29139241 -0.67324360
v -1.76705221 -0.01557322 0.35784173
v 0.10366311 -0.85304664 -1.25789564
v 2.79345068 -0.85304664 1.43189193
v -0.21558315 -0.51400995 1.43189193
v -0.36203246 -0.88980296 0.13867231
v -0.37537365 -0.45267664 1.57472931
v -0.78530757 -0.05402742 2.42219188
v -0.59645348 -0.17330105 2.24556223
v 0.37760472 2.15510739 1.14293421
v -2.28605256 -0.50854989 1.14293421
v 1.40854622 -1.53949139 0.36597404
v 1.66056145 -2.50292627 -0.22058763
v 1.59226914 -0.50235267 0.65750179
v -0.97898387 -1.56740054 0.65750179
v 1.27237318 -0.03502920 1.29050846
v -2.78526582 -1.16727351 0.43720230
v -1.68370574 -0.06571344 0.90976827
v 1.21008020 -1.43378360 0.41539978
v 1.16849108 -2.42991989 -0.30424572
v -0.39736801 -1.86449805 0.41539978
v -0.14486128 -1.43866658 0.72365064
v -0.91204933 -0.24067440 1.98348501
v -1.08189602 -0.24840323 1.84024583
v -0.88985690 -0.34625205 1.84024583
v 1.32646613 0.87692540 0.52238177
v 1.73903029 0.71856851 0.89117455
v 1.40005780 1.07855429 -1.96481505
v -0.94723550 0.83703925 0.61692046
v -1.02260068 1.09329022 -0.32157951
v 2.11185617 0.49167189 1.85308167
v -0.50391521 1.34429313 -0.09002326
v -1.23071131 1.03911517 -0.49849465
v -1.17108782 -1.31866505 0.93326722
v -1.37193408 -0.15929462 0.76058646
v -1.19676037 0.23393972 0.55585018
v -0.03230152 1.18033794 0.76058646
v -1.04137232 0.13463343 0.79498171
v -0.44587200 -0.23387222 1.64790332
v -0.57404652 -0.20406716 1.53784773
v -0.88832856 -1.58689128 1.99095141
v -0.28656893 -1.67974410 2.48426826
v -0.03514494 -0.21672419 1.94462765
v 0.05684697 -0.16240145 1.98601815
v -1.49826437 0.74562767 -0.18728163
v -2.20545169 -1.39321615 -0.05038140
v -1.93898752 -0.63170530 -0.05038140
v -2.07483299 0.55698922 -1.88269458
v -1.64891560 0.56998831 -0.48346140
v -1.52974330 0.96228305 -0.57781117
v -1.60439483 1.01929788 0.02130772
v -0.48865952 -1.50805765 0.20970318
v -0.34493348 -1.19414623 0.71189639
v -0.18027810 -1.36914066 0.88098095
v -1.09640043 0.62005548 0.71189639
v -0.42010944 -0.00162137 1.48014713
v -0.95157978 0.08477139 0.57082257
v -1.48152561 0.04722173 -0.42988499
v -0.35708570 -0.25377327 1.40416116
v -0.47101136 -0.12997954 1.28923354
v -0.78363289 -0.41613419 1.85905306
v 0.07810410 -1.60328152 1.00832012
v 0.20824505 -1.69774938 1.10158166
v -0.26424295 -1.52389958 0.32084018
v -1.01507912 -0.51875409 0.98569096
v -0.25543032 -1.51764654 0.36022695
v -2.02749896 2.01372139 0.94368140
v -3.14630436 1.45295967 1.25436486
v 0.90734451 2.58409057 0.40189781
v -0.13697468 -1.40337755 1.15839391
v -0.99452665 -2.03737058 1.19726512
v -0.36720012 -1.17315212 1.81658093
v -1.23206264 -1.53242469 2.30892236
v 0.28589843 0.13166055 2.37970926
v -0.04039931 -1.33418353 0.54122214
v -1.15301228 -1.74356440 2.37970926
v 2.22213087 0.56252226 0.67149985
v 0.54210222 0.80533834 2.76548223
v 1.23808948 1.56161093 2.06337387
v 2.47613258 -0.21749998 0.21145981
v 1.21873015 1.43938095 2.06337387
v 1.93791289 -1.00926260 0.40614083
v 1.12408749 -0.97020810 1.32781384
v 1.11102602 1.19622777 0.06150683
v 2.76387772 -1.09132142 -0.50418739
v 1.21047500 -1.31583615 1.43196884
v 2.16292233 -2.04955522 0.39130101
v -0.07128528 1.23495923 1.13520956
v -0.69854663 1.65408186 1.13520956
v -0.01274143 1.49821514 0.91049490
v -0.71142463 0.51978072 1.37040159
v 0.34496943 0.95735346 1.37040159
v 1.06389122 1.32746235 1.34846304
v -0.81226401 0.35170265 1.39893973
v -2.81551012 2.40997119 0.53263959
v -0.77310939 0.36757045 1.40882336
v -1.07133575 -0.27375188 1.39893973
v -1.73300128 -1.46943016 1.34846304
v 1.16580721 0.99888333 0.64496917
v 0.46741447 0.95846196 1.24980649
v 1.53932175 0.38421195 1.84780944
v 0.30077031 0.83144506 1.27858965
v 0.26787446 0.04352867 1.84780944
v 0.11268147 0.71649156 1.53156443
v 0.67157895 0.89848754 1.20193894
v -0.37948245 0.60512854 1.76224437
v 0.67214880 0.90243030 1.19702470
v 1.28097239 0.34213833 1.76224437
v -0.31720385 -1.77336866 0.11171209
v -0.14415592 -2.15751723 0.94791811
v 0.05399799 -1.97107068 0.75645620
v -1.21544580 -1.73249434 -0.64581486
v 1.12882096 -1.00303424 -0.20266514
v 1.17291698 -1.62537009 0.97250439
v 0.35315353 -1.84715640 0.75645620
v 0.21599778 -2.24358155 1.91349013
v 0.10285831 -1.85889332 0.50459830
v 1.21135433 -0.52532136 -0.69813132
v 0.99804773 -2.12131197 -1.49029957
v 0.84399894 -1.96700665 -1.74049849
v 0.99793329 -0.54044345 -1.10113865
v 0.73514256 -0.12434892 -1.49029957
v 0.06565180 -1.83412309 0.35394326
v 0.72396626 -1.42412684 0.57409476
v 0.34437675 -0.83016979 1.48815389
v -0.09784457 -1.45927766 1.01939794
v 0.04352804 -1.36363580 1.04680566
v 0.77014591 -1.73662397 0.18399944
v 0.87651961 -1.17431722 0.77386311
v 0.81879116 -1.24698419 0.72365064
v 2.66671587 -1.17488902 -0.47927516
v 1.16594332 -1.63079845 -0.24937216
v 1.34436817 -1.46336640 0.56271930
v 2.02886567 -1.32884886 -0.24937216
v 0.92105543 -0.94651381 -0.14890708
v -2.06189325 -0.95044568 1.57500575
v -1.35074511 -0.64069576 -0.02164692
v -1.96480686 -0.97899946 1.21943410
v -2.14776764 -1.34562115 1.07290338
v -0.53055084 0.76670401 0.94398702
v -1.25246090 0.13703651 1.18514034
v -0.20261920 1.15485133 1.10141122
v -0.59449987 0.85682957 1.34679024
v 0.43606779 1.93715562 -2.06293720
v -0.04865468 0.76693205 -2.06293720
v 0.86184240 0.73585098 -2.46257152
v 0.85951490 -1.09678277 -2.72380059
v -0.25032594 -2.14207939 -1.98361528
v 0.46492559 -0.00402119 -2.22158366
v 0.06899082 -0.53676564 -1.98361528
v 0.67740128 -0.05342921 -2.40402348
v -0.05702081 -0.69406885 -1.93037426
v 1.41722037 -0.59781051 -3.22415707
v -1.00289473 0.96141268 -0.09002326
v -1.06603098 0.87443483 -0.02769323
v -0.89396237 1.25746841 -0.57922719
v -0.90616558 0.71547483 2.53717655
v -1.34554209 0.01192844 1.10141122
v -1.69670132 -0.22180182 2.75910904
v -1.13782474 0.26169377 1.07290338
v -1.25112135 0.13608602 1.17915342
v 0.97455255 1.16749684 2.15618110
v 0.02140718 0.39343822 -1.53354537
v 1.69655331 0.82028171 -0.32238135
v 1.82139625 0.10834796 -1.53354537
v -0.76716794 0.17093385 -1.95685642
v -2.37004867 0.15516427 -2.23145750
v -0.53939618 0.81620134 -1.39011690
v 0.67572077 -0.11607456 -1.95685642
v -0.43195637 1.27823865 -0.99339386
v -1.01989823 1.02697822 -0.29268050
v 0.70658815 0.20389090 -1.60784323
v 0.33205646 -0.14078546 -1.95555098
v 0.47910849 0.69779860 -0.52892546
v -0.13260369 0.73021039 -0.94142252
v 0.36424060 1.17417716 -0.63657962
v 0.94766319 -2.36327701 -1.69066025
v 0.62995476 -0.76604887 -1.69066025
v 1.44151961 -0.84667707 -0.79620281
v 0.70737226 0.21155032 1.19429099
v 0.53385496 0.57626146 1.02227970
v 1.18770941 0.42792845 0.14870381
v 0.14805068 0.90251224 1.24140907
v 0.31861989 0.61061108 1.32781384
v 0.25960348 0.65209572 1.37178769
v -0.77866587 1.82922879 1.24140907
v -0.19128797 1.56757014 0.93559252
v 0.26087238 0.92432291 1.41488388
v 0.22485544 1.09566895 1.18241550
v 0.05035712 1.73153523 0.37041553
v 0.73241414 0.57246961 -0.66719579
v -0.13899634 1.95931145 -0.66719579
v 0.34321994 1.54213625 0.78771547
v -0.23107589 2.18203810 -0.94659051
v -0.10878555 1.86232253 0.51085928
v 1.37184755 -0.70093018 -1.03242505
v 1.03874912 -0.38727555 1.61025065
v 1.12724924 0.03967879 -0.81100622
v 0.42674067 1.39902781 -1.10489522
v 0.85896104 0.32216264 0.51085928
v 0.76769286 0.42284196 0.93294104
v 0.99056535 0.05845043 0.61625932
v -0.61874940 -0.57820569 -1.12415216
v -0.75032452 -0.70978081 -0.74799461
v -1.46421418 0.27368888 -1.45276818
v -1.14475179 0.16356051 -1.67115425
v -0.31643006 -0.61383155 -1.44177689
v -0.95052018 -0.12048239 -1.45276818
v -1.21584153 0.00574859 -1.32763279
v -0.40565115 -0.57408632 -1.39532419
v -1.23885262 0.61123329 -2.27852030
v -0.31543528 -0.42540234 -1.63249544
v 0.01285688 -0.74897211 -1.06103671
v 0.10722533 -1.40190121 -0.24722794
v 1.24200665 -0.35757758 -1.30073626
v -0.38990777 -0.61604743 -1.30073626
v -1.57113449 -0.23317076 -1.99524014
v 0.56918422 -0.21495256 -2.03535155
v -0.26418229 0.00834732 -2.03535155
v -0.24262080 -0.50809024 -1.66225807
v -0.87454909 -0.74377612 0.52647628
v -0.64952706 -0.88430614 0.98569096
v -1.69244603 -0.05177225 0.74258845
v -0.50063783 -0.13104458 2.49721643
v 0.68310095 -1.30984471 0.82975517
v -1.61469801 -2.12424635 0.06535346
v -1.55524762 -0.38269038 0.82975517
v -1.27934318 -1.26756094 0.57129148
v -1.16872372 -1.45488755 0.48700644
v -0.28489334 -1.41940556 0.95225876
v -0.34562575 -1.32160809 0.99478092
v -0.30967917 -1.40284419 0.95225876
v 0.17183333 -1.81408873 0.48700644
v -0.38985062 -1.21474315 0.88718558
v -1.13403981 -2.28563129 -0.11315340
v -1.05704024 -1.08203088 0.88718558
v -0.90009878 -1.27958443 0.75067720
v 2.13617347 0.55953034 0.63550492
v 0.81366513 1.02229602 0.63550492
v 1.86272088 0.81613544 -0.60910037
v 2.14090369 0.72202212 0.49809362
v 2.03589553 0.68267295 -0.29268050
v 1.71168823 1.02697822 2.43890596
v -0.76457486 1.27917910 -0.30823689
v -0.54640684 1.11562006 0.15758737
v -1.11555885 0.87986958 0.15758737
v -0.74272530 1.23067532 -0.20265495
v -1.06506162 0.70356907 0.92322394
v -0.31238164 1.17893538 0.21926458
v -1.07038435 0.76171782 0.72394542
v -0.72714266 0.88182329 0.72394542
v -0.99941290 0.82831670 0.40092257
v -0.83399029 0.64081221 1.14420826
v 0.21917392 1.30255915 1.14420826
v -0.51718850 1.00700605 2.24906421
v -0.77654792 0.52932133 0.86895560
v -1.62721895 0.47142037 -0.36100019
v -1.66954979 0.47441975 -0.44093438
v -2.04656796 -0.91910956 -0.07367053
v -1.67765659 0.33990827 -0.35359541
v -1.61169071 -1.10973867 0.86895560
v -1.30123348 0.13237064 0.49464599
v -0.86643624 0.60482934 0.93326722
v -0.19839180 -1.22207919 1.24734683
v -0.56615938 -1.70567142 0.94454192
v -1.38842294 -2.71453400 0.45670882
v -1.18177148 -2.69141295 -1.06711440
v 0.99064850 -0.25673218 1.06069518
v 2.97709519 0.20518606 -0.64494448
v 0.98432944 -0.22892866 1.05158493
v 1.54271988 0.26507184 0.39130101
v -0.01714935 1.26989026 1.05158493
v -0.10368617 1.30818238 1.09688169
v -0.50042823 1.46184157 1.01995745
v 0.03662327 1.31793906 1.01995745
v 0.02272827 1.65075008 0.77952252
v 0.59268348 1.45498101 -0.56778434
v 0.70844846 1.40851653 -0.39408777
v 0.54287844 1.51255107 -0.39408777
v 1.17152456 1.14953775 -0.20284244
v 1.10651380 0.92849310 0.60671704
v 1.23127287 0.64206145 1.24980649
v 0.38093817 1.44215654 0.42818906
v 0.73869427 -0.81474927 -0.65101151
v 2.90879548 -0.52905002 -0.65101151
v 2.71936930 -1.10802635 1.05148135
v 2.71822203 -1.14561679 1.17497429
v -0.16336971 -1.77100521 0.59647133
v -0.06332095 -1.99310316 0.11301349
v 0.03788177 -1.89787971 0.21079842
v -0.66485738 -1.74818512 1.01939794
v 0.20790849 -1.82745234 0.21079842
v 1.42757449 -0.75203560 1.25684538
v 0.72172708 -1.40161726 0.60155074
v 0.07837672 -0.96572754 1.25684538
v 0.56312918 -0.86341250 1.32886663
v 1.33399736 -1.28567185 0.34900665
v 2.86789698 -0.55998407 1.32886663
v 1.35048250 -1.51832991 -0.09032631
v 0.23108210 0.06333030 -1.48975382
v 0.76003218 0.29896117 -1.76515011
v -0.79299644 0.05343086 -0.23462901
v 0.40917144 0.97588673 -0.23462901
v -0.05099671 0.75695418 -0.01759665
v -0.37277629 -0.49227401 -1.44444825
v -0.64717091 -1.10824192 -1.76515011
v -1.31637329 -0.60416566 -0.05694333
v -1.50632901 -1.00342824 -0.24525037
v -0.49882492 0.15061518 -0.44256144
v -0.38681913 0.45554545 -0.24525037
v -0.62839671 0.28018698 -0.07213115
v -1.53042858 0.27358627 -0.03311275
v -1.56992394 0.23161091 -0.07367053
v -2.00142115 0.04366663 -1.04245767
v -1.59840640 -0.07486280 0.43355367
v -1.08921025 0.49941011 0.89215005
v -0.67512901 0.94905904 0.79916403
v 1.15219686 1.63031017 1.74247038
v 1.24154921 1.63303722 1.44892809
v 1.31732787 2.21281674 1.87097047
v 0.92297462 0.58258646 1.28623432
v 0.86363484 0.60003870 1.50356183
v 0.60506205 0.17727797 1.87097047
v 0.78206558 1.58201974 2.91544840
v 0.70300633 1.45683983 3.03252548
v -0.61287559 0.77006851 0.17640878
v -0.61113581 0.92739769 1.91783021
v 0.33583226 1.11349598 0.79434227
v -0.05297044 0.51599179 -0.73800864
v 0.46864812 0.84542781 -0.25015421
v 0.12997018 1.07514517 0.90619438
v 0.12935422 1.05496286 0.83989102
v -0.24289892 1.07196393 1.32888872
v -0.85797768 0.69576382 0.79434227
v 1.69281869 0.76757422 -0.42190997
v 2.24828641 0.41676027 -0.94142252
v 1.52785090 0.81220612 -0.46538714
v 1.75596289 0.80150942 -0.23585096
v 1.32762686 0.88184739 -0.46678231
v 2.35289686 0.52308990 -0.46678231
v 1.77757008 0.87497655 0.03321689
v 2.04046065 1.05197442 0.92643891
v 2.05191953 0.67652237 -0.30700442
v 0.18755953 1.76190607 -0.19286511
v 0.08693753 1.90052509 -0.09352802
v -0.43161773 2.21135994 -0.63657962
v 0.09362241 1.88235698 -0.12354910
v 0.10894585 1.90395283 -0.02702956
v -0.02713032 1.83528975 -0.56228736
v 0.18376605 1.98493228 0.38028354
v -1.76534439 0.22981457 -2.39575654
v -1.98040453 0.17580755 -2.39769050
v 0.35879934 -0.52303899 -1.68912418
v -0.16467273 0.81420396 -2.47886806
v -0.27121380 0.63378383 -2.39769050
v -1.35803439 -0.29856517 -0.02424765
v 0.07310432 -0.57981275 1.67366289
v -1.73108282 0.05149963 1.67366289
v -0.95763572 -0.34187150 1.76320142
v -1.71730611 0.37291592 2.49721643
v -0.75440394 -0.43856235 1.85905306
v -0.77725191 -0.43347638 1.83039673
v -1.51859074 -0.08331040 1.47290808
v -1.95641991 0.25335736 1.66320543
v -0.94025864 -0.66320737 0.80364720
v -1.07887487 -0.29804073 1.66320543
v -1.51738337 -0.07920519 1.48794312
v -0.69080214 -0.49140338 1.15051094
v 0.48457896 -1.66678449 1.15051094
v -0.79982504 -1.77580739 0.43169267
v 0.24378961 1.09997776 0.75133692
v 0.23646070 1.15068598 0.68813436
v 0.51719064 1.22085262 0.77273232
v -0.53795497 0.77407373 0.66727029
v 1.26000078 0.61423524 1.91633780
v -0.93205228 0.48242647 0.77273232
v -0.62800118 0.91497220 0.45043721
v 0.39689393 0.41807220 1.63352752
v 0.14447612 0.10033566 1.85308167
v 1.12630788 0.99206833 0.92322394
v -0.87377895 1.28821971 -0.79595436
v -1.06837738 0.76694447 0.85017954
v -0.88757027 0.83634471 0.68855533
v 1.65202538 0.83587867 1.34492083
v -0.47099363 0.49962549 1.34492083
v -0.32374611 1.33932441 -0.08360130
v 0.24033671 -0.87646873 -0.36615299
v 0.70691726 0.28600384 1.37804893
v -0.33776216 -1.37659393 1.37804893
v -1.38697340 -2.73423002 0.31669614
v 2.16008748 1.49359187 -0.11463974
v 0.53775548 0.85851992 0.84347095
v 0.07646795 1.42246468 0.79990011
v -0.02344574 1.18361537 0.94368140
v -0.15889724 1.51784881 0.85931232
v 0.02978178 2.74287692 0.25929214
v -0.30292851 1.89294715 0.76124045
v 0.50799934 1.50654725 -0.22930149
v 0.62199264 1.37478145 0.16825364
v 0.24303751 1.61289474 0.16825364
v -0.78585976 2.52850992 0.18558709
v 0.03491560 1.90431758 -0.32834756
v 0.30015629 1.62611799 -0.29446861
v 0.18071289 1.54136635 0.23936643
v 0.11539594 1.62725422 0.18558709
v -0.49671155 1.91932188 1.02227970
v -0.07092785 1.61025025 0.71715480
v 1.40527057 -1.43858277 0.00537279
v 1.16777293 -1.66144811 1.08633097
v 2.31639107 -1.25952924 1.08633097
v 0.72823269 -0.96281685 0.93984955
v 1.53249532 0.41032108 -1.85673034
v -0.11512116 -0.42918145 -1.85673034
v 0.07528070 0.47663133 -0.62779718
v -1.19994296 -2.26635484 -1.53357404
v -0.25316238 -0.40819332 -1.53357404
v -1.27472684 -0.62292619 -0.14759840
v -0.92790069 0.97470206 0.07129362
v -1.63574905 0.05221612 0.07129362
v -1.47523227 0.77331391 -0.83311975
v -1.62875333 -0.03884474 -0.12539449
v -1.38273237 0.17399304 0.61688378
v -1.82731555 -0.53355703 0.61688378
v -0.85894498 0.83172868 0.45040531
v -0.96210172 0.66655018 0.78749404
v -0.69376648 0.93488541 0.78749404
v -0.61317754 0.99370707 0.86360519
v -0.71598876 0.95244182 0.70934475
v -0.56894555 1.04483520 0.70934475
v -0.79735982 1.05476271 -1.43326041
v 1.48608013 1.05476271 0.85017954
v -0.40405803 0.42475249 -0.35873448
v -0.19423150 0.90648868 0.72284801
v 0.88064018 0.95689191 -0.35873448
v -0.30997869 2.27119454 0.21681838
v -0.08651868 1.91338187 -0.51338939
v -0.66779136 2.49465455 -0.51338939
v -1.19097466 -2.70472166 1.68311812
v -0.64190732 -1.82553413 -0.11108765
v 0.76782395 2.17969251 0.01643724
v -0.93227234 2.03538477 0.96789821
v 0.62351622 0.47959621 0.96789821
v -0.54672363 1.88350685 0.86570876
v 0.07954762 1.40295202 0.86570876
v -0.05717383 1.77453278 0.25170689
v 1.98627800 1.06292279 0.17640878
v -0.33711596 1.06292279 2.49980274
v -1.53374264 1.42198521 -0.42024672
v -1.33031199 0.95248311 0.07598575
v 2.11537791 -1.36999635 0.31938636
v 2.93606467 -0.60366409 -0.22903535
v -1.01925259 0.60776615 1.12811284
v -1.45615533 1.04466889 1.12811284
v 1.85791997 -0.60366409 0.34724500
v 1.08571133 0.06024697 0.66491256
v 0.17246430 0.60776615 1.01073897
v -0.42660196 0.06024697 1.12366778
v 1.60658031 -0.45532136 -1.51352509
v 0.78679118 -0.81052795 -0.64706255
v -1.83870551 0.23746760 1.08412404
v -1.67566758 1.05259159 0.24389614
v -1.91329811 -0.71033724 0.89367059
v -1.73723629 0.14637221 -0.03720566
v 1.09251643 0.62292806 0.47981317
v 1.09251643 0.43706832 0.66567291
v -0.64167074 0.75875473 -1.86326983
v -1.34679929 -0.06139482 -2.20065910
v -0.00000000 -0.35488848 -2.12046367
v -0.64167074 0.34719340 -1.98811559
v 0.07308551 -1.22805465 -2.02456726
v 0.33867511 -0.99971238 -1.91531026
v 0.76681539 -1.22805465 -1.65376092
v 0.37796877 -0.86496155 -1.91360662
v 0.15132193 -0.99971238 -1.97214323
v -0.94251000 -0.00000000 -2.17833934
v -0.80727309 -0.84214692 -0.37032352
v -0.64303486 -1.08659341 0.00808829
v 0.08648712 -0.69576986 0.43094021
v 0.03625854 -0.68544742 0.37636325
v -0.12084339 0.43394303 1.80563113
v -0.39819735 0.69292771 1.62029009
v -0.98548527 0.95248311 0.72111116
v -0.72354852 0.56350133 1.11535238
v -0.29459653 0.43394303 1.66303561
v -0.17858258 0.56350133 1.77939531
v -1.59324794 1.05259159 -0.59292460
v -1.59324794 1.60831052 -0.03720566
v -1.65054714 1.42198521 -0.80529955
v -1.68781520 1.60831052 -0.99736323
v -1.60962368 1.21885728 -0.59292460
v -1.61034688 1.22237633 -0.59674830
v -1.26323886 0.01090503 -0.37032352
v -1.18973116 -0.16420786 -0.59674830
v -0.35977311 1.45200083 1.00507256
v 0.69261111 0.32497298 1.75820588
v -1.71379187 0.23746760 0.67233893
v -1.56381608 -0.10866483 0.30649999
v -1.19929974 -0.10866483 -0.37546212
v -1.09568310 0.04520814 -0.53141561
v 0.73248049 1.32056988 -2.30968162
v 0.36519621 1.00479500 -2.15858994
v -1.93436324 -0.77977964 0.89367059
v -2.12634257 -1.23712025 1.48502192
v 1.17924833 1.31767203 0.66567291
v 1.20543342 1.44508761 0.52722675
v 0.94754146 0.59493176 0.52722675
v 0.89302972 0.46507177 0.35931497
v 0.99926482 0.62292806 -0.46698631
v 0.99699026 0.61155615 -0.47870844
v 0.76988552 0.05753470 -1.79839467
v 1.13372056 0.30253786 -1.42964020
v 1.13372056 0.71211946 -0.66336692
v 0.95514042 0.63474244 -0.85211423
v 0.83562103 -0.86496155 -1.53802112
v 0.22826424 -0.18669736 -2.14718794
v 1.21676199 -0.63855832 0.47981317
v 1.15171201 -0.32202783 0.13588010
v 0.66712948 1.00479500 -2.25018040
v -0.43226358 -0.00000000 -2.04293596
v -0.00000000 0.00000000 -2.08551021
v -0.00000000 -0.00000000 -2.08551021
v 0.00000000 0.40739276 -2.12563489
v 0.40657811 -0.03746332 -2.04177595
v -0.26868742 -1.23749637 0.73210929
v -0.52249154 -1.53270117 0.61066933
v -1.01925259 0.26878552 1.09472616
v -0.52249154 -0.27474391 0.99226649
v 2.38995034 -1.36999635 0.09405060
v 2.18388418 -1.60012022 0.30073087
v 1.48175176 -1.60012022 1.15628170
v 1.02568415 -0.92284987 1.84270945
v -0.35977311 0.90378383 1.29810064
v -1.26416258 1.95569786 0.86536919
v -1.45615533 0.99336449 1.13316588
v -1.26416258 1.20343271 1.09356633
v -0.99785548 0.69292771 1.29976614
v -1.39878618 1.03763030 1.13483316
v -1.39969192 1.04466889 1.13367400
v -1.40739317 1.03763030 1.13222225
v 0.59796808 1.47032500 -0.36303533
v 0.51477502 1.52622059 -0.49182114
v 0.69261111 0.67312514 1.47248479
v 0.98901584 0.40770729 1.73869363
v 0.75819230 0.61155615 -1.26591979
v 0.65403685 0.37117349 -1.51998827
v 0.69850867 -0.18669736 -1.57419344
v 0.32284359 0.37117349 -2.13960728
v 1.60658031 -0.88366960 -0.10145018
v 2.06661793 -0.79165466 -0.57565588
v 1.02864172 1.32056988 -2.46798310
v 0.23230335 0.57697342 -1.93583213
v -0.08676331 0.04520814 -1.76078793
v -0.56293653 0.57697342 -1.28319562
v -1.60122065 -0.25468623 1.48502192
v -1.48862688 -0.08710557 1.74444272
v 0.97141753 0.43706832 1.89521067
v 1.07082060 -0.05990697 1.38292971
v 0.58273351 -0.92284987 2.67141182
v 0.95663820 -0.05990697 1.75933863
v 0.76988552 0.05599491 -1.80027090
v -0.41604923 -1.00595931 -2.86538995
v -1.34679929 0.08357400 -2.12317164
v -0.41604923 -0.91319240 -2.78925811
v -0.25508533 2.15802865 -0.49182114
v -0.33911495 2.24205827 -0.33505949
v 1.04036683 0.04502805 0.13588010
v 0.95762408 0.24214102 -0.11899124
v 0.36904883 1.37915821 -0.33505949
v 0.27527092 1.51873399 -0.11899124
v 0.78679118 -0.51988535 -1.19081661
v -0.14489922 0.10750637 -2.13510442
v -0.14489922 0.22894956 -2.28308337
v -0.57803850 -0.15890828 -1.89406965
v -0.90191726 -0.77114429 0.00808829
v -1.12272851 -0.55033305 0.42002321
v -1.36060589 -0.25679900 0.43094021
v -1.28439219 -0.28879147 0.52948618
v -1.70077149 -0.07594543 0.42002321
v -1.77148239 -0.02843633 0.52948618
v -0.26868742 -1.78326829 0.44038812
v -0.20538011 -1.85106587 0.39508257
v 0.01585927 -1.24508163 0.92851680
v -0.20538011 -1.44319210 0.72981592
v 2.14576847 0.64300845 -0.36303533
v 1.86615348 0.76038334 -0.00148708
v 1.79813082 0.81204161 0.34306055
v 1.48103475 0.87720783 -0.00148708
v 0.98901584 0.78169627 1.28298674
v 0.60708076 0.52450471 1.67008597
v 0.18596982 -0.85774427 0.35931497
v 0.15981803 -0.89666769 0.29906015
v 1.34299178 -1.48572173 0.31908014
v 1.40394357 -1.46013580 0.24026815
v 0.01585927 -0.97083658 1.26268536
v 0.74339729 -0.48091919 2.00006044
v 0.74339729 -0.40875343 2.13507308
v 1.58560342 -0.77367309 1.24491727
v 1.58560342 -0.88421899 0.88049626
v 2.07207829 -0.78691618 1.38195342
v 2.07207829 -0.88595816 0.37636325
v 2.06661793 -0.88595816 0.38182361
v -0.79062657 0.76341027 1.74444272
v -0.87236380 0.68167304 1.89692780
v -0.58977046 0.92574405 1.77049871
v -0.50809979 0.98061678 1.89692780
v -0.61196813 0.91387915 1.77049871
v -1.00428432 0.74919533 1.26322537
v 0.40657811 0.39490904 -2.17293467
v -0.16982133 -0.27551303 -1.89713958
v -0.57803850 0.27392220 -2.24928444
v -0.16982133 -0.16324904 -1.95714594
v 0.60708076 0.94649737 0.88059325
v 0.17583717 0.75964375 1.33638901
v -1.26404568 -2.63165064 0.29906015
v -1.25278974 -2.62039469 0.27806160
v 0.17583717 0.93464863 0.75947522
v 0.15635166 0.93075122 0.77956085
v 0.53525886 0.93642364 0.34306055
v 0.15635166 0.93642364 0.72196775
v 0.95514042 0.96839518 0.24779144
v 0.53525886 0.88441210 -0.18502149
v -0.38811827 0.93610726 1.26322537
v -0.88625163 0.83373618 0.72196775
f 283 500 201
f 213 238 283
f 27 762 100
f 27 283 762
f 506 415 98
f 506 98 248
f 60 283 201
f 60 213 283
f 389 248 98
f 389 785 213
f 333 201 500
f 333 244 201
f 333 500 244
f 103 145 244
f 103 500 100
f 103 244 500
f 514 364 415
f 14 238 785
f 14 785 98
f 14 98 415
f 14 415 364
f 6 100 762
f 6 238 14
f 6 14 364
f 6 514 100
f 6 364 514
f 614 283 238
f 614 762 283
f 614 238 6
f 614 6 762
f 263 500 283
f 263 283 27
f 263 100 500
f 263 27 100
f 228 238 213
f 228 785 238
f 228 213 785
f 905 213 57
f 905 389 213
f 905 57 248
f 905 248 389
f 423 98 785
f 423 389 98
f 423 785 389
f 269 244 145
f 269 145 616
f 269 201 244
f 269 616 201
f 707 415 506
f 442 415 70
f 442 514 415
f 442 100 514
f 442 103 100
f 86 145 103
f 86 743 145
f 86 70 743
f 86 103 442
f 86 442 70
f 738 616 145
f 250 667 70
f 250 248 57
f 250 506 248
f 250 707 506
f 250 70 415
f 250 415 707
f 416 738 145
f 416 667 738
f 416 145 743
f 416 743 70
f 416 70 667
f 199 616 738
f 199 738 667
f 199 201 616
f 199 645 201
f 351 201 645
f 351 60 201
f 351 645 57
f 351 213 60
f 351 57 213
f 590 667 250
f 590 199 667
f 590 645 199
f 590 250 57
f 590 57 645
