ply
format ascii 1.0
element vertex 970
property float x
property float y
property float z
element face 84
property list uchar int vertex_indices
end_header
1.12853804 0.18450016 -1.66272481
2.05121838 -0.49434587 -1.55003172
0.15490750 -0.43792846 1.88960697
-0.02104345 -0.54890119 1.61970303
-0.09059027 -0.24289891 1.71996940
-2.04877529 -2.32915828 -0.72478370
-0.85811441 -0.39603132 -0.73573821
-1.00515313 0.19225639 -0.91301870
2.12778394 -1.25874293 0.10917811
1.08860697 -0.14090691 1.43654527
-0.20767860 -1.50831875 -0.18109221
-0.36630696 -1.34969038 -0.63459177
0.82629177 -0.68982670 -2.07189213
-2.48381138 -2.51129381 1.16242305
-1.85422629 -0.52831303 0.85085306
-2.11218697 -1.20037304 1.45161024
0.66142449 1.41928970 -1.92932330
0.39738311 0.25838218 -1.54916104
-0.16569740 -0.90490902 -0.98562552
-0.06067007 -0.26081123 -1.49175670
0.22086731 0.37119092 -1.82080674
-1.45518611 -1.65532728 -1.49175670
-0.07814858 -1.04189973 -0.77480622
-0.10376122 0.22656638 -2.20360416
0.55227948 1.81038874 -2.20360416
1.00001580 0.59816255 -0.04466382
0.37750711 -1.40370698 -3.16509821
-0.55978947 0.55978947 -1.93391368
1.31500798 -0.38770174 1.72817800
-0.44596629 -0.70520206 -1.38965394
0.33477307 -0.39957679 -1.85074003
-1.47481904 -0.20409241 -0.17596125
-0.25665272 -1.16870386 -0.97693411
-0.34243230 -1.10840648 -0.91301870
-1.05749983 -0.95809927 0.05712681
-0.14636295 -0.53120169 -0.61228035
-0.86758768 -0.65188144 -0.52394779
-0.72176518 -0.80686043 -0.67369287
-1.31301563 -0.15661737 -1.94036186
-1.61213330 1.36545396 -0.13456838
-0.94070818 -0.55336879 -0.13456838
-0.65636321 -0.48205445 1.16909584
-1.42417228 1.37160062 1.16909584
-0.79708636 -0.02179910 1.30471499
-2.09860688 -0.53128740 0.53606793
1.22929880 -1.40123819 0.43004314
-0.25948158 1.64534614 1.88960697
-0.90362158 -0.33276460 0.72296057
-0.87566667 2.42491354 1.28923354
-1.78277552 -1.41544907 -0.18728163
-1.40772070 0.64437990 -0.29363625
-1.34553554 -0.46647875 -0.12821806
0.53560089 -1.40091695 -1.50275401
-0.51288414 -1.33245772 -0.58261155
-0.39513696 -0.00796933 -1.50275401
-0.70954311 -1.10949946 -0.87939300
2.08911689 -0.52686310 2.24556223
-0.22378639 -1.46955830 1.25436486
1.18572709 -1.25552378 0.79990011
2.26125857 -2.63483112 0.40614083
1.31700440 1.48995890 -0.56070106
0.75913627 -0.88548166 1.04680566
2.63953734 0.60399119 0.21145981
1.34722176 -0.42265648 1.10444258
0.42764540 0.66949547 2.81800324
0.09682595 0.43695123 3.06450085
1.09713081 -1.43115140 0.47344317
2.37885145 -0.14943076 0.47344317
2.49773791 -1.55003786 -0.31040831
-1.65302151 2.89036549 1.29050846
0.79669976 0.19446456 -0.12853775
-0.24428774 -1.30268831 -0.43847149
-0.27351834 -1.33509519 -0.46588407
-0.19983819 -1.21501642 -0.64581486
0.86240531 1.59566500 -1.53848638
0.43766493 1.45162987 -2.20821651
0.27540270 1.27531274 -2.37190581
0.16870949 -0.07906485 -1.53848638
0.43253670 0.20132860 -1.26756229
0.39828038 0.86384613 -1.13411731
0.14455518 -0.84015417 1.83883057
2.59566611 -0.84015417 -0.61228035
-1.02535968 -0.21429953 -0.56702204
-1.36688397 1.94200001 -0.56702204
-1.87822175 -0.06474375 0.88389366
-1.81885267 2.79717471 0.06791855
-2.29235803 -1.20587190 2.04351218
-2.13629946 -2.53719172 -0.02164692
0.14235097 1.86267514 -2.07189213
-0.75549463 -0.62378644 -0.92915144
-0.64563420 1.68287133 -1.39585767
-0.28029108 -0.51328502 -1.33717952
-0.19537265 -0.58074634 -1.39585767
-0.74668239 -0.61780200 -1.08462985
-1.02920629 -0.87582450 -0.79016976
-0.78646082 -0.61205279 -1.03505015
-1.92468394 -0.91339940 1.16242305
-2.23472196 -1.24379306 2.66619265
-1.75253760 0.30002389 -0.72478370
-2.04877529 0.02107835 -3.07502032
-0.99659751 0.16736434 -2.77250780
0.24083601 2.01931448 -2.77250780
0.15308444 2.26558433 -2.96001212
-0.20019912 0.70464259 -2.44744537
0.39745649 1.05756810 -2.17853842
0.60449228 0.06225070 -0.46588407
0.68662843 0.22683730 -0.53166576
0.21235028 -0.91476028 1.00004679
0.62349785 0.12362022 -0.62136862
1.19840701 1.28894014 -0.06632908
0.56345345 -0.45674284 -2.29011069
0.76229510 -1.04249573 -3.08773127
-0.55606121 0.98115313 -1.75665656
-0.54308450 0.60100983 -1.92350861
-0.05450233 0.80338720 -1.92350861
-0.41681104 0.11655601 -2.03297814
-0.53302170 0.53302170 -1.94539698
-0.11655601 0.41681104 -2.03297814
0.98985131 1.46202119 0.31787760
0.95859866 -0.55464294 -1.18408693
0.40401667 1.51269753 -0.22672227
-0.42639025 2.03082406 -0.51992113
0.47774350 1.62806049 -0.04918658
0.72729542 1.40472834 -1.49530485
0.40682444 2.20114937 -2.39044702
0.75747074 1.07259885 -1.91845089
0.55312127 1.63851697 -2.17853842
0.24303477 1.37772308 -2.39044702
0.06240463 1.23422599 -2.51526143
0.98941441 -1.05161257 -1.44227565
1.05164115 0.23635249 0.90565200
0.11755851 1.87702879 -0.09352802
1.32038319 -1.13115134 -0.71676178
0.97178322 0.61404942 0.15349746
1.03178784 -0.66557618 -1.13411731
0.71714180 0.59281350 -0.71676178
0.74495597 0.54733796 -0.67724036
-0.28874497 -0.39115910 -1.67683662
-0.70242516 -0.17831261 -1.67923494
-1.35206951 -0.03109728 -0.94913804
1.37353550 -0.01658301 -2.27694683
0.30384188 1.08689959 -2.39575654
-0.03323377 0.25514835 -2.18580122
1.55393851 -1.33202393 -1.50490909
0.65116627 2.39030994 -2.41942840
1.90019520 -0.62511264 -2.41942840
0.57321936 2.18259233 -2.24401961
-1.96067775 -0.35130478 -2.24401961
0.19259301 -1.23839026 -1.43437663
0.18769620 0.25026503 -2.06412872
-0.88156649 -0.76425151 -0.26247872
-1.28237652 -0.32152991 0.88628544
-0.52204498 -0.87548638 -0.91158419
-0.86203106 -0.75039005 -0.34978953
-0.96173930 -0.30246558 -0.91158419
-0.90676995 -0.43268919 1.01916608
-0.41477206 0.92983222 1.64536062
-0.03998887 -0.46887767 1.64536062
1.24018729 -1.37113246 0.43819952
-0.84116694 -0.84238176 0.93352625
-0.94989162 -0.22236454 1.98831898
0.61770399 -0.47064729 1.98831898
-0.86182869 -0.30340765 1.90656311
-1.02336046 -1.42103545 0.51355535
-0.13101751 -1.78595304 0.76030407
0.84825144 -1.84989292 1.61970303
-0.30846102 -1.42150073 0.93588593
0.35497832 -1.55006064 1.43808217
-0.22539396 -1.29152278 1.13591307
-1.45593180 1.07855429 0.89117455
1.53739063 0.52907637 1.43239351
-0.99346439 0.86226975 1.43239351
1.31647457 1.20430070 -0.55311876
-0.21273718 -0.87950747 1.94462765
-0.42938817 -1.36859626 1.84666718
-0.89923417 0.07426931 0.99569666
-0.12712616 0.15097750 1.84666718
-1.15003463 0.39899852 0.27693522
-1.95068678 0.66095134 -2.07740038
-1.41536114 0.67056067 -0.52394779
-1.36347708 -0.43589030 0.58941114
-2.14013359 0.62737311 1.93297549
-1.50587318 0.41985940 0.06791855
-1.22887312 -0.01873372 -0.34228465
-1.05839667 -0.34616404 -0.52792299
-1.08078588 -0.30955819 -0.49610994
-1.38875717 0.01863306 0.99763551
-1.63618616 1.27768464 -0.49610994
-1.44582644 0.60618271 -0.34797761
0.15490230 -1.52648332 1.22787700
0.13132498 -1.32640730 1.43808217
0.44774973 -1.70489089 1.48014713
0.23253698 -1.55361053 1.31978949
-0.31819059 -1.44806656 0.30137011
-0.40281024 -0.90140663 1.10158166
-1.02522292 -0.89783723 -0.81547306
-0.77502749 -0.82425302 0.10084896
-1.02540166 -0.32254658 0.30137011
2.99821112 0.28460361 -0.13503400
2.67055437 -0.93822802 -0.13503400
3.42834362 -0.90659000 -0.68248883
-0.00792755 -0.30828959 2.30892236
1.22803036 -0.07921274 1.36356560
1.56477161 -0.05722573 1.06804404
1.52695483 0.36815934 1.36356560
1.98551122 1.07487966 0.51945016
2.92293039 -1.57000795 -0.36041647
0.91830775 -1.50157742 0.51945016
0.94455576 -1.01591735 2.01741294
1.32772363 -1.62261324 1.44998820
1.25359818 -1.34863179 1.37778054
1.52810615 -1.20684005 0.30146995
1.59147551 -2.94276814 1.28170324
1.93889836 -1.57930805 0.29589444
1.35943056 -1.47769401 1.28170324
-1.29890138 0.36831468 1.18534543
-0.73948238 1.34171230 1.00964034
1.14986067 0.77382671 1.06994819
1.20939660 -0.18377857 2.48426826
-0.03230797 -0.46481007 2.07652948
-0.10211331 1.70710486 0.72085816
-0.05079529 1.08312552 1.41488388
0.70129205 0.59940963 1.53156443
-0.92139605 -1.75262335 -1.03237945
-0.05793407 -1.43491645 0.39440934
0.19529476 -0.29732355 -1.03237945
-0.99070891 -2.20987988 -0.01816320
-1.25307517 -2.92293738 1.16009651
-0.41356141 -0.07477060 -2.29352732
0.50842282 1.73472533 -2.29352732
0.58124810 0.13433838 -0.94385063
0.62351379 1.10084985 -1.75681547
0.80723638 1.39175037 -1.48474480
0.90136861 1.38508057 -1.30699297
0.18271926 -2.23216696 -1.10386262
-1.29311075 -2.84886075 -0.14364520
2.66754280 -1.14779442 -0.39026339
-2.00864065 -3.12198458 0.39651401
-1.32205151 -2.72477641 -0.79016976
-1.76050588 -1.00406339 0.45394003
-1.73225409 -1.02262028 0.39651401
-1.72224632 -1.00677429 0.38169372
1.01891057 -0.77406065 -3.01566611
1.76509801 0.38226596 -2.99601279
1.16009635 0.02500248 -2.72380059
-2.08674278 -0.78916148 -0.76703505
0.56577155 0.71991800 2.65715328
0.09877133 0.22359388 3.13671569
0.84487310 0.59419076 2.04961127
0.79011212 1.79760196 3.06450085
1.18974494 1.55313335 2.14561912
1.29011571 1.36226035 1.74674003
0.94703252 0.46839667 0.94786348
1.20696537 1.79107460 -0.62136862
1.06345090 1.28482125 -0.50968988
0.98170628 1.07185356 -0.70006256
1.26792615 -0.29866203 0.07636253
1.31500798 -2.82129996 -0.70542022
1.00826291 -0.09886216 -0.70542022
1.08278436 -0.29301146 -0.53186936
0.81538626 -0.66218810 -2.83146196
-0.01724312 -0.88529047 -2.83146196
0.79384384 -1.17816886 -3.20422544
0.76244976 -0.18261195 -2.08957916
0.66483269 -1.16517870 -3.17250451
0.60288364 0.61706915 -1.14882999
0.68103671 1.15780515 -0.47485834
2.04283100 0.79190929 -0.73800864
2.45225678 0.19502128 -1.95555098
1.80049281 0.69927414 -0.46538714
0.92415538 0.99299110 -0.52238454
0.52332574 1.19722400 -0.52238454
0.87783470 1.21335585 -0.22341155
0.62808350 0.61961320 -0.89813255
1.02006808 0.79619102 -0.04486926
0.45647752 1.14795628 -0.51992113
0.36340646 1.93775300 0.30986025
0.18038212 0.97269303 -1.18408693
0.69601462 0.61023740 -0.79988286
0.95144087 -0.88453102 -1.38752880
-0.28384874 0.96421053 -1.38752880
1.10771674 0.87335038 -0.16630155
0.89773441 -3.09929808 -1.85178614
0.28925815 -0.82843378 -1.85178614
1.69651366 -0.88718730 -0.83513300
1.04588292 -0.90385880 -1.28932312
0.59864098 -0.41787746 -1.74049849
0.64029594 0.93821138 -0.71364371
0.37483206 0.67274749 -1.04274946
0.47340513 0.44998104 -1.15935415
-0.93844947 1.39335212 -1.15935415
-0.49077417 -0.34838582 -2.23145750
0.29894554 -0.83415435 -1.84742744
0.43778374 -1.44759456 -2.04886292
1.40357421 -0.40174059 -1.19506002
-1.13028809 -0.45285517 -2.29220260
-1.04976341 -0.48548862 -2.27187610
-0.86326695 -1.11174335 -2.45852285
-0.78366629 1.22010012 -1.43503284
-1.03613655 0.57514868 -1.81592582
-1.74550999 0.73569918 -2.04886292
1.18493619 0.11561623 -0.09560931
0.52868924 0.40145322 1.37778054
1.41612249 -1.43026346 0.93294104
1.35125553 -1.20144253 0.88246349
-0.65437526 -0.27588635 -1.44177689
-1.68814926 0.45015136 -1.78398988
-0.42456398 0.19633250 -2.27852030
-0.56443724 -0.51039726 -0.87575393
-0.64047757 0.25029872 -2.21345474
-0.70886775 0.31323727 -2.27694683
-1.43813150 -0.12385900 -0.49523564
-1.43524317 -0.11403831 -0.53120321
-1.63123717 0.00583734 -0.70153570
0.05596979 -0.58454191 -0.70153570
-0.15737350 -0.18391673 -1.78398988
-0.17698602 -0.82427445 0.36522546
-0.18639968 -0.51583416 -0.64806935
-0.39008521 -0.17294216 -1.55003172
-0.53408276 -0.08199835 -1.68470837
-1.80230705 -0.75941421 -2.12260343
-0.31630054 -0.42168134 -1.63569044
0.31846781 0.31719493 -1.86959361
-0.08110545 0.39065593 -2.12260343
0.01893169 0.61673105 -2.24094001
-1.62992159 0.48257830 -2.96001212
0.09706786 0.09865532 -1.99524014
0.41880119 0.18679674 -2.34050969
-0.76203379 0.42167943 -2.34050969
0.24881349 0.40854787 -2.15724879
-0.77363222 -1.22663850 -1.53274980
0.42552054 -0.02748573 -2.04718273
2.36555372 -0.46823464 -2.15724879
0.04649489 -1.41323435 -1.13314926
0.20507041 -1.25465883 -1.32974140
-0.30808383 -0.09497545 -1.93676514
0.08540611 -0.35789702 -1.93676514
-0.19298291 -0.29462602 -1.84554667
0.30399124 -0.95381633 -1.60243922
1.70999427 -1.27203304 -2.06412872
-0.84207624 -0.68528766 -0.57215790
-1.25768312 -0.26968078 -0.57215790
-1.09791040 -0.52551494 -0.05006323
-0.86612825 -0.86241718 0.41503548
-1.13472595 -0.19321339 -0.58905403
-0.53333248 -1.15032563 -0.58905403
-2.06270133 0.32617005 -0.67324360
-1.07985631 -0.29139241 -0.67324360
-1.76705221 -0.01557322 0.35784173
0.10366311 -0.85304664 -1.25789564
2.79345068 -0.85304664 1.43189193
-0.21558315 -0.51400995 1.43189193
-0.36203246 -0.88980296 0.13867231
-0.37537365 -0.45267664 1.57472931
-0.78530757 -0.05402742 2.42219188
-0.59645348 -0.17330105 2.24556223
0.37760472 2.15510739 1.14293421
-2.28605256 -0.50854989 1.14293421
1.40854622 -1.53949139 0.36597404
1.66056145 -2.50292627 -0.22058763
1.59226914 -0.50235267 0.65750179
-0.97898387 -1.56740054 0.65750179
1.27237318 -0.03502920 1.29050846
-2.78526582 -1.16727351 0.43720230
-1.68370574 -0.06571344 0.90976827
1.21008020 -1.43378360 0.41539978
1.16849108 -2.42991989 -0.30424572
-0.39736801 -1.86449805 0.41539978
-0.14486128 -1.43866658 0.72365064
-0.91204933 -0.24067440 1.98348501
-1.08189602 -0.24840323 1.84024583
-0.88985690 -0.34625205 1.84024583
1.32646613 0.87692540 0.52238177
1.73903029 0.71856851 0.89117455
1.40005780 1.07855429 -1.96481505
-0.94723550 0.83703925 0.61692046
-1.02260068 1.09329022 -0.32157951
2.11185617 0.49167189 1.85308167
-0.50391521 1.34429313 -0.09002326
-1.23071131 1.03911517 -0.49849465
-1.17108782 -1.31866505 0.93326722
-1.37193408 -0.15929462 0.76058646
-1.19676037 0.23393972 0.55585018
-0.03230152 1.18033794 0.76058646
-1.04137232 0.13463343 0.79498171
-0.44587200 -0.23387222 1.64790332
-0.57404652 -0.20406716 1.53784773
-0.88832856 -1.58689128 1.99095141
-0.28656893 -1.67974410 2.48426826
-0.03514494 -0.21672419 1.94462765
0.05684697 -0.16240145 1.98601815
-1.49826437 0.74562767 -0.18728163
-2.20545169 -1.39321615 -0.05038140
-1.93898752 -0.63170530 -0.05038140
-2.07483299 0.55698922 -1.88269458
-1.64891560 0.56998831 -0.48346140
-1.52974330 0.96228305 -0.57781117
-1.60439483 1.01929788 0.02130772
-0.48865952 -1.50805765 0.20970318
-0.34493348 -1.19414623 0.71189639
-0.18027810 -1.36914066 0.88098095
-1.09640043 0.62005548 0.71189639
-0.42010944 -0.00162137 1.48014713
-0.95157978 0.08477139 0.57082257
-1.48152561 0.04722173 -0.42988499
-0.35708570 -0.25377327 1.40416116
-0.47101136 -0.12997954 1.28923354
-0.78363289 -0.41613419 1.85905306
0.07810410 -1.60328152 1.00832012
0.20824505 -1.69774938 1.10158166
-0.26424295 -1.52389958 0.32084018
-1.01507912 -0.51875409 0.98569096
-0.25543032 -1.51764654 0.36022695
-2.02749896 2.01372139 0.94368140
-3.14630436 1.45295967 1.25436486
0.90734451 2.58409057 0.40189781
-0.13697468 -1.40337755 1.15839391
-0.99452665 -2.03737058 1.19726512
-0.36720012 -1.17315212 1.81658093
-1.23206264 -1.53242469 2.30892236
0.28589843 0.13166055 2.37970926
-0.04039931 -1.33418353 0.54122214
-1.15301228 -1.74356440 2.37970926
2.22213087 0.56252226 0.67149985
0.54210222 0.80533834 2.76548223
1.23808948 1.56161093 2.06337387
2.47613258 -0.21749998 0.21145981
1.21873015 1.43938095 2.06337387
1.93791289 -1.00926260 0.40614083
1.12408749 -0.97020810 1.32781384
1.11102602 1.19622777 0.06150683
2.76387772 -1.09132142 -0.50418739
1.21047500 -1.31583615 1.43196884
2.16292233 -2.04955522 0.39130101
-0.07128528 1.23495923 1.13520956
-0.69854663 1.65408186 1.13520956
-0.01274143 1.49821514 0.91049490
-0.71142463 0.51978072 1.37040159
0.34496943 0.95735346 1.37040159
1.06389122 1.32746235 1.34846304
-0.81226401 0.35170265 1.39893973
-2.81551012 2.40997119 0.53263959
-0.77310939 0.36757045 1.40882336
-1.07133575 -0.27375188 1.39893973
-1.73300128 -1.46943016 1.34846304
1.16580721 0.99888333 0.64496917
0.46741447 0.95846196 1.24980649
1.53932175 0.38421195 1.84780944
0.30077031 0.83144506 1.27858965
0.26787446 0.04352867 1.84780944
0.11268147 0.71649156 1.53156443
0.67157895 0.89848754 1.20193894
-0.37948245 0.60512854 1.76224437
0.67214880 0.90243030 1.19702470
1.28097239 0.34213833 1.76224437
-0.31720385 -1.77336866 0.11171209
-0.14415592 -2.15751723 0.94791811
0.05399799 -1.97107068 0.75645620
-1.21544580 -1.73249434 -0.64581486
1.12882096 -1.00303424 -0.20266514
1.17291698 -1.62537009 0.97250439
0.35315353 -1.84715640 0.75645620
0.21599778 -2.24358155 1.91349013
0.10285831 -1.85889332 0.50459830
1.21135433 -0.52532136 -0.69813132
0.99804773 -2.12131197 -1.49029957
0.84399894 -1.96700665 -1.74049849
0.99793329 -0.54044345 -1.10113865
0.73514256 -0.12434892 -1.49029957
0.06565180 -1.83412309 0.35394326
0.72396626 -1.42412684 0.57409476
0.34437675 -0.83016979 1.48815389
-0.09784457 -1.45927766 1.01939794
0.04352804 -1.36363580 1.04680566
0.77014591 -1.73662397 0.18399944
0.87651961 -1.17431722 0.77386311
0.81879116 -1.24698419 0.72365064
2.66671587 -1.17488902 -0.47927516
1.16594332 -1.63079845 -0.24937216
1.34436817 -1.46336640 0.56271930
2.02886567 -1.32884886 -0.24937216
0.92105543 -0.94651381 -0.14890708
-2.06189325 -0.95044568 1.57500575
-1.35074511 -0.64069576 -0.02164692
-1.96480686 -0.97899946 1.21943410
-2.14776764 -1.34562115 1.07290338
-0.53055084 0.76670401 0.94398702
-1.25246090 0.13703651 1.18514034
-0.20261920 1.15485133 1.10141122
-0.59449987 0.85682957 1.34679024
0.43606779 1.93715562 -2.06293720
-0.04865468 0.76693205 -2.06293720
0.86184240 0.73585098 -2.46257152
0.85951490 -1.09678277 -2.72380059
-0.25032594 -2.14207939 -1.98361528
0.46492559 -0.00402119 -2.22158366
0.06899082 -0.53676564 -1.98361528
0.67740128 -0.05342921 -2.40402348
-0.05702081 -0.69406885 -1.93037426
1.41722037 -0.59781051 -3.22415707
-1.00289473 0.96141268 -0.09002326
-1.06603098 0.87443483 -0.02769323
-0.89396237 1.25746841 -0.57922719
-0.90616558 0.71547483 2.53717655
-1.34554209 0.01192844 1.10141122
-1.69670132 -0.22180182 2.75910904
-1.13782474 0.26169377 1.07290338
-1.25112135 0.13608602 1.17915342
0.97455255 1.16749684 2.15618110
0.02140718 0.39343822 -1.53354537
1.69655331 0.82028171 -0.32238135
1.82139625 0.10834796 -1.53354537
-0.76716794 0.17093385 -1.95685642
-2.37004867 0.15516427 -2.23145750
-0.53939618 0.81620134 -1.39011690
0.67572077 -0.11607456 -1.95685642
-0.43195637 1.27823865 -0.99339386
-1.01989823 1.02697822 -0.29268050
0.70658815 0.20389090 -1.60784323
0.33205646 -0.14078546 -1.95555098
0.47910849 0.69779860 -0.52892546
-0.13260369 0.73021039 -0.94142252
0.36424060 1.17417716 -0.63657962
0.94766319 -2.36327701 -1.69066025
0.62995476 -0.76604887 -1.69066025
1.44151961 -0.84667707 -0.79620281
0.70737226 0.21155032 1.19429099
0.53385496 0.57626146 1.02227970
1.18770941 0.42792845 0.14870381
0.14805068 0.90251224 1.24140907
0.31861989 0.61061108 1.32781384
0.25960348 0.65209572 1.37178769
-0.77866587 1.82922879 1.24140907
-0.19128797 1.56757014 0.93559252
0.26087238 0.92432291 1.41488388
0.22485544 1.09566895 1.18241550
0.05035712 1.73153523 0.37041553
0.73241414 0.57246961 -0.66719579
-0.13899634 1.95931145 -0.66719579
0.34321994 1.54213625 0.78771547
-0.23107589 2.18203810 -0.94659051
-0.10878555 1.86232253 0.51085928
1.37184755 -0.70093018 -1.03242505
1.03874912 -0.38727555 1.61025065
1.12724924 0.03967879 -0.81100622
0.42674067 1.39902781 -1.10489522
0.85896104 0.32216264 0.51085928
0.76769286 0.42284196 0.93294104
0.99056535 0.05845043 0.61625932
-0.61874940 -0.57820569 -1.12415216
-0.75032452 -0.70978081 -0.74799461
-1.46421418 0.27368888 -1.45276818
-1.14475179 0.16356051 -1.67115425
-0.31643006 -0.61383155 -1.44177689
-0.95052018 -0.12048239 -1.45276818
-1.21584153 0.00574859 -1.32763279
-0.40565115 -0.57408632 -1.39532419
-1.23885262 0.61123329 -2.27852030
-0.31543528 -0.42540234 -1.63249544
0.01285688 -0.74897211 -1.06103671
0.10722533 -1.40190121 -0.24722794
1.24200665 -0.35757758 -1.30073626
-0.38990777 -0.61604743 -1.30073626
-1.57113449 -0.23317076 -1.99524014
0.56918422 -0.21495256 -2.03535155
-0.26418229 0.00834732 -2.03535155
-0.24262080 -0.50809024 -1.66225807
-0.87454909 -0.74377612 0.52647628
-0.64952706 -0.88430614 0.98569096
-1.69244603 -0.05177225 0.74258845
-0.50063783 -0.13104458 2.49721643
0.68310095 -1.30984471 0.82975517
-1.61469801 -2.12424635 0.06535346
-1.55524762 -0.38269038 0.82975517
-1.27934318 -1.26756094 0.57129148
-1.16872372 -1.45488755 0.48700644
-0.28489334 -1.41940556 0.95225876
-0.34562575 -1.32160809 0.99478092
-0.30967917 -1.40284419 0.95225876
0.17183333 -1.81408873 0.48700644
-0.38985062 -1.21474315 0.88718558
-1.13403981 -2.28563129 -0.11315340
-1.05704024 -1.08203088 0.88718558
-0.90009878 -1.27958443 0.75067720
2.13617347 0.55953034 0.63550492
0.81366513 1.02229602 0.63550492
1.86272088 0.81613544 -0.60910037
2.14090369 0.72202212 0.49809362
2.03589553 0.68267295 -0.29268050
1.71168823 1.02697822 2.43890596
-0.76457486 1.27917910 -0.30823689
-0.54640684 1.11562006 0.15758737
-1.11555885 0.87986958 0.15758737
-0.74272530 1.23067532 -0.20265495
-1.06506162 0.70356907 0.92322394
-0.31238164 1.17893538 0.21926458
-1.07038435 0.76171782 0.72394542
-0.72714266 0.88182329 0.72394542
-0.99941290 0.82831670 0.40092257
-0.83399029 0.64081221 1.14420826
0.21917392 1.30255915 1.14420826
-0.51718850 1.00700605 2.24906421
-0.77654792 0.52932133 0.86895560
-1.62721895 0.47142037 -0.36100019
-1.66954979 0.47441975 -0.44093438
-2.04656796 -0.91910956 -0.07367053
-1.67765659 0.33990827 -0.35359541
-1.61169071 -1.10973867 0.86895560
-1.30123348 0.13237064 0.49464599
-0.86643624 0.60482934 0.93326722
-0.19839180 -1.22207919 1.24734683
-0.56615938 -1.70567142 0.94454192
-1.38842294 -2.71453400 0.45670882
-1.18177148 -2.69141295 -1.06711440
0.99064850 -0.25673218 1.06069518
2.97709519 0.20518606 -0.64494448
0.98432944 -0.22892866 1.05158493
1.54271988 0.26507184 0.39130101
-0.01714935 1.26989026 1.05158493
-0.10368617 1.30818238 1.09688169
-0.50042823 1.46184157 1.01995745
0.03662327 1.31793906 1.01995745
0.02272827 1.65075008 0.77952252
0.59268348 1.45498101 -0.56778434
0.70844846 1.40851653 -0.39408777
0.54287844 1.51255107 -0.39408777
1.17152456 1.14953775 -0.20284244
1.10651380 0.92849310 0.60671704
1.23127287 0.64206145 1.24980649
0.38093817 1.44215654 0.42818906
0.73869427 -0.81474927 -0.65101151
2.90879548 -0.52905002 -0.65101151
2.71936930 -1.10802635 1.05148135
2.71822203 -1.14561679 1.17497429
-0.16336971 -1.77100521 0.59647133
-0.06332095 -1.99310316 0.11301349
0.03788177 -1.89787971 0.21079842
-0.66485738 -1.74818512 1.01939794
0.20790849 -1.82745234 0.21079842
1.42757449 -0.75203560 1.25684538
0.72172708 -1.40161726 0.60155074
0.07837672 -0.96572754 1.25684538
0.56312918 -0.86341250 1.32886663
1.33399736 -1.28567185 0.34900665
2.86789698 -0.55998407 1.32886663
1.35048250 -1.51832991 -0.09032631
0.23108210 0.06333030 -1.48975382
0.76003218 0.29896117 -1.76515011
-0.79299644 0.05343086 -0.23462901
0.40917144 0.97588673 -0.23462901
-0.05099671 0.75695418 -0.01759665
-0.37277629 -0.49227401 -1.44444825
-0.64717091 -1.10824192 -1.76515011
-1.31637329 -0.60416566 -0.05694333
-1.50632901 -1.00342824 -0.24525037
-0.49882492 0.15061518 -0.44256144
-0.38681913 0.45554545 -0.24525037
-0.62839671 0.28018698 -0.07213115
-1.53042858 0.27358627 -0.03311275
-1.56992394 0.23161091 -0.07367053
-2.00142115 0.04366663 -1.04245767
-1.59840640 -0.07486280 0.43355367
-1.08921025 0.49941011 0.89215005
-0.67512901 0.94905904 0.79916403
1.15219686 1.63031017 1.74247038
1.24154921 1.63303722 1.44892809
1.31732787 2.21281674 1.87097047
0.92297462 0.58258646 1.28623432
0.86363484 0.60003870 1.50356183
0.60506205 0.17727797 1.87097047
0.78206558 1.58201974 2.91544840
0.70300633 1.45683983 3.03252548
-0.61287559 0.77006851 0.17640878
-0.61113581 0.92739769 1.91783021
0.33583226 1.11349598 0.79434227
-0.05297044 0.51599179 -0.73800864
0.46864812 0.84542781 -0.25015421
0.12997018 1.07514517 0.90619438
0.12935422 1.05496286 0.83989102
-0.24289892 1.07196393 1.32888872
-0.85797768 0.69576382 0.79434227
1.69281869 0.76757422 -0.42190997
2.24828641 0.41676027 -0.94142252
1.52785090 0.81220612 -0.46538714
1.75596289 0.80150942 -0.23585096
1.32762686 0.88184739 -0.46678231
2.35289686 0.52308990 -0.46678231
1.77757008 0.87497655 0.03321689
2.04046065 1.05197442 0.92643891
2.05191953 0.67652237 -0.30700442
0.18755953 1.76190607 -0.19286511
0.08693753 1.90052509 -0.09352802
-0.43161773 2.21135994 -0.63657962
0.09362241 1.88235698 -0.12354910
0.10894585 1.90395283 -0.02702956
-0.02713032 1.83528975 -0.56228736
0.18376605 1.98493228 0.38028354
-1.76534439 0.22981457 -2.39575654
-1.98040453 0.17580755 -2.39769050
0.35879934 -0.52303899 -1.68912418
-0.16467273 0.81420396 -2.47886806
-0.27121380 0.63378383 -2.39769050
-1.35803439 -0.29856517 -0.02424765
0.07310432 -0.57981275 1.67366289
-1.73108282 0.05149963 1.67366289
-0.95763572 -0.34187150 1.76320142
-1.71730611 0.37291592 2.49721643
-0.75440394 -0.43856235 1.85905306
-0.77725191 -0.43347638 1.83039673
-1.51859074 -0.08331040 1.47290808
-1.95641991 0.25335736 1.66320543
-0.94025864 -0.66320737 0.80364720
-1.07887487 -0.29804073 1.66320543
-1.51738337 -0.07920519 1.48794312
-0.69080214 -0.49140338 1.15051094
0.48457896 -1.66678449 1.15051094
-0.79982504 -1.77580739 0.43169267
0.24378961 1.09997776 0.75133692
0.23646070 1.15068598 0.68813436
0.51719064 1.22085262 0.77273232
-0.53795497 0.77407373 0.66727029
1.26000078 0.61423524 1.91633780
-0.93205228 0.48242647 0.77273232
-0.62800118 0.91497220 0.45043721
0.39689393 0.41807220 1.63352752
0.14447612 0.10033566 1.85308167
1.12630788 0.99206833 0.92322394
-0.87377895 1.28821971 -0.79595436
-1.06837738 0.76694447 0.85017954
-0.88757027 0.83634471 0.68855533
1.65202538 0.83587867 1.34492083
-0.47099363 0.49962549 1.34492083
-0.32374611 1.33932441 -0.08360130
0.24033671 -0.87646873 -0.36615299
0.70691726 0.28600384 1.37804893
-0.33776216 -1.37659393 1.37804893
-1.38697340 -2.73423002 0.31669614
2.16008748 1.49359187 -0.11463974
0.53775548 0.85851992 0.84347095
0.07646795 1.42246468 0.79990011
-0.02344574 1.18361537 0.94368140
-0.15889724 1.51784881 0.85931232
0.02978178 2.74287692 0.25929214
-0.30292851 1.89294715 0.76124045
0.50799934 1.50654725 -0.22930149
0.62199264 1.37478145 0.16825364
0.24303751 1.61289474 0.16825364
-0.78585976 2.52850992 0.18558709
0.03491560 1.90431758 -0.32834756
0.30015629 1.62611799 -0.29446861
0.18071289 1.54136635 0.23936643
0.11539594 1.62725422 0.18558709
-0.49671155 1.91932188 1.02227970
-0.07092785 1.61025025 0.71715480
1.40527057 -1.43858277 0.00537279
1.16777293 -1.66144811 1.08633097
2.31639107 -1.25952924 1.08633097
0.72823269 -0.96281685 0.93984955
1.53249532 0.41032108 -1.85673034
-0.11512116 -0.42918145 -1.85673034
0.07528070 0.47663133 -0.62779718
-1.19994296 -2.26635484 -1.53357404
-0.25316238 -0.40819332 -1.53357404
-1.27472684 -0.62292619 -0.14759840
-0.92790069 0.97470206 0.07129362
-1.63574905 0.05221612 0.07129362
-1.47523227 0.77331391 -0.83311975
-1.62875333 -0.03884474 -0.12539449
-1.38273237 0.17399304 0.61688378
-1.82731555 -0.53355703 0.61688378
-0.85894498 0.83172868 0.45040531
-0.96210172 0.66655018 0.78749404
-0.69376648 0.93488541 0.78749404
-0.61317754 0.99370707 0.86360519
-0.71598876 0.95244182 0.70934475
-0.56894555 1.04483520 0.70934475
-0.79735982 1.05476271 -1.43326041
1.48608013 1.05476271 0.85017954
-0.40405803 0.42475249 -0.35873448
-0.19423150 0.90648868 0.72284801
0.88064018 0.95689191 -0.35873448
-0.30997869 2.27119454 0.21681838
-0.08651868 1.91338187 -0.51338939
-0.66779136 2.49465455 -0.51338939
-1.19097466 -2.70472166 1.68311812
-0.64190732 -1.82553413 -0.11108765
0.76782395 2.17969251 0.01643724
-0.93227234 2.03538477 0.96789821
0.62351622 0.47959621 0.96789821
-0.54672363 1.88350685 0.86570876
0.07954762 1.40295202 0.86570876
-0.05717383 1.77453278 0.25170689
1.98627800 1.06292279 0.17640878
-0.33711596 1.06292279 2.49980274
-1.53374264 1.42198521 -0.42024672
-1.33031199 0.95248311 0.07598575
2.11537791 -1.36999635 0.31938636
2.93606467 -0.60366409 -0.22903535
-1.01925259 0.60776615 1.12811284
-1.45615533 1.04466889 1.12811284
1.85791997 -0.60366409 0.34724500
1.08571133 0.06024697 0.66491256
0.17246430 0.60776615 1.01073897
-0.42660196 0.06024697 1.12366778
1.60658031 -0.45532136 -1.51352509
0.78679118 -0.81052795 -0.64706255
-1.83870551 0.23746760 1.08412404
-1.67566758 1.05259159 0.24389614
-1.91329811 -0.71033724 0.89367059
-1.73723629 0.14637221 -0.03720566
1.09251643 0.62292806 0.47981317
1.09251643 0.43706832 0.66567291
-0.64167074 0.75875473 -1.86326983
-1.34679929 -0.06139482 -2.20065910
-0.00000000 -0.35488848 -2.12046367
-0.64167074 0.34719340 -1.98811559
0.07308551 -1.22805465 -2.02456726
0.33867511 -0.99971238 -1.91531026
0.76681539 -1.22805465 -1.65376092
0.37796877 -0.86496155 -1.91360662
0.15132193 -0.99971238 -1.97214323
-0.94251000 -0.00000000 -2.17833934
-0.80727309 -0.84214692 -0.37032352
-0.64303486 -1.08659341 0.00808829
0.08648712 -0.69576986 0.43094021
0.03625854 -0.68544742 0.37636325
-0.12084339 0.43394303 1.80563113
-0.39819735 0.69292771 1.62029009
-0.98548527 0.95248311 0.72111116
-0.72354852 0.56350133 1.11535238
-0.29459653 0.43394303 1.66303561
-0.17858258 0.56350133 1.77939531
-1.59324794 1.05259159 -0.59292460
-1.59324794 1.60831052 -0.03720566
-1.65054714 1.42198521 -0.80529955
-1.68781520 1.60831052 -0.99736323
-1.60962368 1.21885728 -0.59292460
-1.61034688 1.22237633 -0.59674830
-1.26323886 0.01090503 -0.37032352
-1.18973116 -0.16420786 -0.59674830
-0.35977311 1.45200083 1.00507256
0.69261111 0.32497298 1.75820588
-1.71379187 0.23746760 0.67233893
-1.56381608 -0.10866483 0.30649999
-1.19929974 -0.10866483 -0.37546212
-1.09568310 0.04520814 -0.53141561
0.73248049 1.32056988 -2.30968162
0.36519621 1.00479500 -2.15858994
-1.93436324 -0.77977964 0.89367059
-2.12634257 -1.23712025 1.48502192
1.17924833 1.31767203 0.66567291
1.20543342 1.44508761 0.52722675
0.94754146 0.59493176 0.52722675
0.89302972 0.46507177 0.35931497
0.99926482 0.62292806 -0.46698631
0.99699026 0.61155615 -0.47870844
0.76988552 0.05753470 -1.79839467
1.13372056 0.30253786 -1.42964020
1.13372056 0.71211946 -0.66336692
0.95514042 0.63474244 -0.85211423
0.83562103 -0.86496155 -1.53802112
0.22826424 -0.18669736 -2.14718794
1.21676199 -0.63855832 0.47981317
1.15171201 -0.32202783 0.13588010
0.66712948 1.00479500 -2.25018040
-0.43226358 -0.00000000 -2.04293596
-0.00000000 0.00000000 -2.08551021
-0.00000000 -0.00000000 -2.08551021
0.00000000 0.40739276 -2.12563489
0.40657811 -0.03746332 -2.04177595
-0.26868742 -1.23749637 0.73210929
-0.52249154 -1.53270117 0.61066933
-1.01925259 0.26878552 1.09472616
-0.52249154 -0.27474391 0.99226649
2.38995034 -1.36999635 0.09405060
2.18388418 -1.60012022 0.30073087
1.48175176 -1.60012022 1.15628170
1.02568415 -0.92284987 1.84270945
-0.35977311 0.90378383 1.29810064
-1.26416258 1.95569786 0.86536919
-1.45615533 0.99336449 1.13316588
-1.26416258 1.20343271 1.09356633
-0.99785548 0.69292771 1.29976614
-1.39878618 1.03763030 1.13483316
-1.39969192 1.04466889 1.13367400
-1.40739317 1.03763030 1.13222225
0.59796808 1.47032500 -0.36303533
0.51477502 1.52622059 -0.49182114
0.69261111 0.67312514 1.47248479
0.98901584 0.40770729 1.73869363
0.75819230 0.61155615 -1.26591979
0.65403685 0.37117349 -1.51998827
0.69850867 -0.18669736 -1.57419344
0.32284359 0.37117349 -2.13960728
1.60658031 -0.88366960 -0.10145018
2.06661793 -0.79165466 -0.57565588
1.02864172 1.32056988 -2.46798310
0.23230335 0.57697342 -1.93583213
-0.08676331 0.04520814 -1.76078793
-0.56293653 0.57697342 -1.28319562
-1.60122065 -0.25468623 1.48502192
-1.48862688 -0.08710557 1.74444272
0.97141753 0.43706832 1.89521067
1.07082060 -0.05990697 1.38292971
0.58273351 -0.92284987 2.67141182
0.95663820 -0.05990697 1.75933863
0.76988552 0.05599491 -1.80027090
-0.41604923 -1.00595931 -2.86538995
-1.34679929 0.08357400 -2.12317164
-0.41604923 -0.91319240 -2.78925811
-0.25508533 2.15802865 -0.49182114
-0.33911495 2.24205827 -0.33505949
1.04036683 0.04502805 0.13588010
0.95762408 0.24214102 -0.11899124
0.36904883 1.37915821 -0.33505949
0.27527092 1.51873399 -0.11899124
0.78679118 -0.51988535 -1.19081661
-0.14489922 0.10750637 -2.13510442
-0.14489922 0.22894956 -2.28308337
-0.57803850 -0.15890828 -1.89406965
-0.90191726 -0.77114429 0.00808829
-1.12272851 -0.55033305 0.42002321
-1.36060589 -0.25679900 0.43094021
-1.28439219 -0.28879147 0.52948618
-1.70077149 -0.07594543 0.42002321
-1.77148239 -0.02843633 0.52948618
-0.26868742 -1.78326829 0.44038812
-0.20538011 -1.85106587 0.39508257
0.01585927 -1.24508163 0.92851680
-0.20538011 -1.44319210 0.72981592
2.14576847 0.64300845 -0.36303533
1.86615348 0.76038334 -0.00148708
1.79813082 0.81204161 0.34306055
1.48103475 0.87720783 -0.00148708
0.98901584 0.78169627 1.28298674
0.60708076 0.52450471 1.67008597
0.18596982 -0.85774427 0.35931497
0.15981803 -0.89666769 0.29906015
1.34299178 -1.48572173 0.31908014
1.40394357 -1.46013580 0.24026815
0.01585927 -0.97083658 1.26268536
0.74339729 -0.48091919 2.00006044
0.74339729 -0.40875343 2.13507308
1.58560342 -0.77367309 1.24491727
1.58560342 -0.88421899 0.88049626
2.07207829 -0.78691618 1.38195342
2.07207829 -0.88595816 0.37636325
2.06661793 -0.88595816 0.38182361
-0.79062657 0.76341027 1.74444272
-0.87236380 0.68167304 1.89692780
-0.58977046 0.92574405 1.77049871
-0.50809979 0.98061678 1.89692780
-0.61196813 0.91387915 1.77049871
-1.00428432 0.74919533 1.26322537
0.40657811 0.39490904 -2.17293467
-0.16982133 -0.27551303 -1.89713958
-0.57803850 0.27392220 -2.24928444
-0.16982133 -0.16324904 -1.95714594
0.60708076 0.94649737 0.88059325
0.17583717 0.75964375 1.33638901
-1.26404568 -2.63165064 0.29906015
-1.25278974 -2.62039469 0.27806160
0.17583717 0.93464863 0.75947522
0.15635166 0.93075122 0.77956085
0.53525886 0.93642364 0.34306055
0.15635166 0.93642364 0.72196775
0.95514042 0.96839518 0.24779144
0.53525886 0.88441210 -0.18502149
-0.38811827 0.93610726 1.26322537
-0.88625163 0.83373618 0.72196775
3 282 499 200
3 212 237 282
3 26 761 99
3 26 282 761
3 505 414 97
3 505 97 247
3 59 282 200
3 59 212 282
3 388 247 97
3 388 784 212
3 332 200 499
3 332 243 200
3 332 499 243
3 102 144 243
3 102 499 99
3 102 243 499
3 513 363 414
3 13 237 784
3 13 784 97
3 13 97 414
3 13 414 363
3 5 99 761
3 5 237 13
3 5 13 363
3 5 513 99
3 5 363 513
3 613 282 237
3 613 761 282
3 613 237 5
3 613 5 761
3 262 499 282
3 262 282 26
3 262 99 499
3 262 26 99
3 227 237 212
3 227 784 237
3 227 212 784
3 904 212 56
3 904 388 212
3 904 56 247
3 904 247 388
3 422 97 784
3 422 388 97
3 422 784 388
3 268 243 144
3 268 144 615
3 268 200 243
3 268 615 200
3 706 414 505
3 441 414 69
3 441 513 414
3 441 99 513
3 441 102 99
3 85 144 102
3 85 742 144
3 85 69 742
3 85 102 441
3 85 441 69
3 737 615 144
3 249 666 69
3 249 247 56
3 249 505 247
3 249 706 505
3 249 69 414
3 249 414 706
3 415 737 144
3 415 666 737
3 415 144 742
3 415 742 69
3 415 69 666
3 198 615 737
3 198 737 666
3 198 200 615
3 198 644 200
3 350 200 644
3 350 59 200
3 350 644 56
3 350 212 59
3 350 56 212
3 589 666 249
3 589 198 666
3 589 644 198
3 589 249 56
3 589 56 644
