# Asteroid shape model (convexinv -> dual reconstruction)
v -1.28852110 -0.31523422 -0.50000000
v -1.21709253 -0.31523422 -0.57142857
v -1.21709253 -0.38666280 -0.50000000
v -1.21709253 -0.38666280 -0.35714286
v -1.28852110 -0.31523422 -0.35714286
v -1.21709253 -0.38666280 -0.21428571
v -1.28852110 -0.31523422 -0.21428571
v -1.21709253 -0.38666280 -0.07142857
v -1.28852110 -0.31523422 -0.07142857
v -1.21709253 -0.38666280 0.07142857
v -1.28852110 -0.31523422 0.07142857
v -1.21709253 -0.38666280 0.21428571
v -1.28852110 -0.31523422 0.21428571
v -1.21709253 -0.38666280 0.35714286
v -1.28852110 -0.31523422 0.35714286
v -1.21709253 -0.31523422 0.42857143
v -1.28852110 -0.17237708 -0.50000000
v -1.21709253 -0.17237708 -0.57142857
v -1.28852110 -0.17237708 -0.35714286
v -1.28852110 -0.17237708 -0.21428571
v -1.28852110 -0.17237708 -0.07142857
v -1.28852110 -0.17237708 0.07142857
v -1.28852110 -0.17237708 0.21428571
v -1.28852110 -0.17237708 0.35714286
v -1.21709253 -0.17237708 0.42857143
v -1.28852110 -0.02951994 -0.50000000
v -1.21709253 -0.02951994 -0.57142857
v -1.28852110 -0.02951994 -0.35714286
v -1.28852110 -0.02951994 -0.21428571
v -1.28852110 -0.02951994 -0.07142857
v -1.28852110 -0.02951994 0.07142857
v -1.28852110 -0.02951994 0.21428571
v -1.28852110 -0.02951994 0.35714286
v -1.21709253 -0.02951994 0.42857143
v -1.28852110 0.11333720 -0.64285714
v -1.21709253 0.11333720 -0.71428571
v -1.21709253 0.04190863 -0.64285714
v -1.28852110 0.11333720 -0.50000000
v -1.28852110 0.11333720 -0.35714286
v -1.28852110 0.11333720 -0.21428571
v -1.28852110 0.11333720 -0.07142857
v -1.28852110 0.11333720 0.07142857
v -1.28852110 0.11333720 0.21428571
v -1.28852110 0.11333720 0.35714286
v -1.21709253 0.04190863 0.50000000
v -1.28852110 0.11333720 0.50000000
v -1.21709253 0.11333720 0.57142857
v -1.21709253 0.18476578 -0.64285714
v -1.21709253 0.18476578 -0.50000000
v -1.28852110 0.25619435 -0.35714286
v -1.21709253 0.25619435 -0.42857143
v -1.28852110 0.25619435 -0.21428571
v -1.28852110 0.25619435 -0.07142857
v -1.28852110 0.25619435 0.07142857
v -1.28852110 0.25619435 0.21428571
v -1.28852110 0.25619435 0.35714286
v -1.21709253 0.25619435 0.42857143
v -1.21709253 0.18476578 0.50000000
v -1.21709253 0.32762292 -0.35714286
v -1.28852110 0.39905149 -0.21428571
v -1.21709253 0.39905149 -0.28571429
v -1.28852110 0.39905149 -0.07142857
v -1.28852110 0.39905149 0.07142857
v -1.28852110 0.39905149 0.21428571
v -1.21709253 0.39905149 0.28571429
v -1.21709253 0.32762292 0.35714286
v -1.21709253 0.47048006 -0.21428571
v -1.21709253 0.47048006 -0.07142857
v -1.21709253 0.47048006 0.07142857
v -1.21709253 0.47048006 0.21428571
v -1.14566396 -0.60094851 -0.35714286
v -1.07423539 -0.60094851 -0.42857143
v -1.07423539 -0.67237708 -0.35714286
v -1.07423539 -0.67237708 -0.21428571
v -1.14566396 -0.60094851 -0.21428571
v -1.07423539 -0.67237708 -0.07142857
v -1.14566396 -0.60094851 -0.07142857
v -1.07423539 -0.67237708 0.07142857
v -1.14566396 -0.60094851 0.07142857
v -1.07423539 -0.67237708 0.21428571
v -1.14566396 -0.60094851 0.21428571
v -1.07423539 -0.60094851 0.28571429
v -1.14566396 -0.45809137 -0.50000000
v -1.07423539 -0.45809137 -0.57142857
v -1.07423539 -0.52951994 -0.50000000
v -1.14566396 -0.45809137 -0.35714286
v -1.14566396 -0.45809137 -0.21428571
v -1.14566396 -0.45809137 -0.07142857
v -1.14566396 -0.45809137 0.07142857
v -1.14566396 -0.45809137 0.21428571
v -1.07423539 -0.52951994 0.35714286
v -1.14566396 -0.45809137 0.35714286
v -1.07423539 -0.52951994 0.50000000
v -1.14566396 -0.45809137 0.50000000
v -1.07423539 -0.45809137 0.57142857
v -1.14566396 -0.31523422 -0.64285714
v -1.07423539 -0.31523422 -0.71428571
v -1.07423539 -0.38666280 -0.64285714
v -1.14566396 -0.31523422 0.50000000
v -1.07423539 -0.31523422 0.57142857
v -1.14566396 -0.17237708 -0.64285714
v -1.07423539 -0.17237708 -0.71428571
v -1.14566396 -0.17237708 0.50000000
v -1.07423539 -0.17237708 0.57142857
v -1.14566396 -0.02951994 -0.64285714
v -1.07423539 -0.02951994 -0.71428571
v -1.14566396 -0.02951994 0.50000000
v -1.07423539 -0.10094851 0.64285714
v -1.14566396 -0.02951994 0.64285714
v -1.07423539 -0.02951994 0.71428571
v -1.07423539 0.11333720 -0.71428571
v -1.14566396 0.11333720 0.64285714
v -1.07423539 0.11333720 0.71428571
v -1.14566396 0.25619435 -0.64285714
v -1.07423539 0.25619435 -0.71428571
v -1.14566396 0.25619435 -0.50000000
v -1.14566396 0.25619435 0.50000000
v -1.14566396 0.25619435 0.64285714
v -1.07423539 0.25619435 0.71428571
v -1.07423539 0.32762292 -0.64285714
v -1.14566396 0.39905149 -0.50000000
v -1.07423539 0.39905149 -0.57142857
v -1.14566396 0.39905149 -0.35714286
v -1.14566396 0.39905149 0.35714286
v -1.14566396 0.39905149 0.50000000
v -1.07423539 0.39905149 0.57142857
v -1.07423539 0.32762292 0.64285714
v -1.14566396 0.54190863 -0.50000000
v -1.07423539 0.54190863 -0.57142857
v -1.14566396 0.54190863 -0.35714286
v -1.14566396 0.54190863 -0.21428571
v -1.14566396 0.54190863 -0.07142857
v -1.14566396 0.54190863 0.07142857
v -1.14566396 0.54190863 0.21428571
v -1.14566396 0.54190863 0.35714286
v -1.07423539 0.54190863 0.42857143
v -1.07423539 0.47048006 0.50000000
v -1.07423539 0.61333720 -0.50000000
v -1.07423539 0.61333720 -0.35714286
v -1.14566396 0.68476578 -0.21428571
v -1.07423539 0.68476578 -0.28571429
v -1.14566396 0.68476578 -0.07142857
v -1.14566396 0.68476578 0.07142857
v -1.14566396 0.68476578 0.21428571
v -1.07423539 0.68476578 0.28571429
v -1.07423539 0.61333720 0.35714286
v -1.07423539 0.75619435 -0.21428571
v -1.07423539 0.75619435 -0.07142857
v -1.07423539 0.75619435 0.07142857
v -1.07423539 0.75619435 0.21428571
v -1.00280681 -0.74380565 -0.35714286
v -0.93137824 -0.74380565 -0.42857143
v -0.93137824 -0.81523422 -0.35714286
v -0.93137824 -0.81523422 -0.21428571
v -1.00280681 -0.74380565 -0.21428571
v -0.93137824 -0.81523422 -0.07142857
v -1.00280681 -0.74380565 -0.07142857
v -0.93137824 -0.81523422 0.07142857
v -1.00280681 -0.74380565 0.07142857
v -0.93137824 -0.81523422 0.21428571
v -1.00280681 -0.74380565 0.21428571
v -0.93137824 -0.74380565 0.28571429
v -1.00280681 -0.60094851 -0.64285714
v -0.93137824 -0.60094851 -0.71428571
v -0.93137824 -0.67237708 -0.64285714
v -0.93137824 -0.67237708 -0.50000000
v -1.00280681 -0.60094851 -0.50000000
v -0.93137824 -0.67237708 0.35714286
v -1.00280681 -0.60094851 0.35714286
v -0.93137824 -0.67237708 0.50000000
v -1.00280681 -0.60094851 0.50000000
v -0.93137824 -0.67237708 0.64285714
v -1.00280681 -0.60094851 0.64285714
v -0.93137824 -0.60094851 0.71428571
v -1.00280681 -0.45809137 -0.64285714
v -0.93137824 -0.45809137 -0.71428571
v -1.00280681 -0.45809137 0.64285714
v -0.93137824 -0.45809137 0.71428571
v -1.00280681 -0.31523422 -0.78571429
v -0.93137824 -0.31523422 -0.85714286
v -0.93137824 -0.38666280 -0.78571429
v -1.00280681 -0.31523422 0.64285714
v -0.93137824 -0.31523422 0.71428571
v -1.00280681 -0.17237708 -0.78571429
v -0.93137824 -0.17237708 -0.85714286
v -1.00280681 -0.17237708 0.64285714
v -0.93137824 -0.24380565 0.78571429
v -1.00280681 -0.17237708 0.78571429
v -0.93137824 -0.17237708 0.85714286
v -1.00280681 -0.02951994 -0.78571429
v -0.93137824 -0.02951994 -0.85714286
v -1.00280681 -0.02951994 0.78571429
v -0.93137824 -0.02951994 0.85714286
v -1.00280681 0.11333720 -0.78571429
v -0.93137824 0.11333720 -0.85714286
v -1.00280681 0.11333720 0.78571429
v -0.93137824 0.11333720 0.85714286
v -1.00280681 0.25619435 -0.92857143
v -0.93137824 0.25619435 -1.00000000
v -0.93137824 0.18476578 -0.92857143
v -1.00280681 0.25619435 -0.78571429
v -1.00280681 0.25619435 0.78571429
v -0.93137824 0.18476578 0.92857143
v -1.00280681 0.25619435 0.92857143
v -0.93137824 0.25619435 1.00000000
v -0.93137824 0.32762292 -0.92857143
v -1.00280681 0.39905149 -0.78571429
v -0.93137824 0.39905149 -0.85714286
v -1.00280681 0.39905149 -0.64285714
v -1.00280681 0.39905149 0.64285714
v -1.00280681 0.39905149 0.78571429
v -0.93137824 0.39905149 0.85714286
v -0.93137824 0.32762292 0.92857143
v -1.00280681 0.54190863 -0.78571429
v -0.93137824 0.54190863 -0.85714286
v -1.00280681 0.54190863 -0.64285714
v -1.00280681 0.54190863 0.50000000
v -1.00280681 0.54190863 0.64285714
v -0.93137824 0.54190863 0.71428571
v -0.93137824 0.47048006 0.78571429
v -0.93137824 0.61333720 -0.78571429
v -1.00280681 0.68476578 -0.64285714
v -0.93137824 0.68476578 -0.71428571
v -1.00280681 0.68476578 -0.50000000
v -1.00280681 0.68476578 -0.35714286
v -1.00280681 0.68476578 0.35714286
v -1.00280681 0.68476578 0.50000000
v -0.93137824 0.68476578 0.57142857
v -0.93137824 0.61333720 0.64285714
v -0.93137824 0.75619435 -0.64285714
v -0.93137824 0.75619435 -0.50000000
v -0.93137824 0.75619435 -0.35714286
v -1.00280681 0.82762292 -0.21428571
v -0.93137824 0.82762292 -0.28571429
v -1.00280681 0.82762292 -0.07142857
v -1.00280681 0.82762292 0.07142857
v -0.93137824 0.82762292 0.14285714
v -0.93137824 0.75619435 0.21428571
v -0.93137824 0.75619435 0.35714286
v -0.93137824 0.75619435 0.50000000
v -0.93137824 0.89905149 -0.21428571
v -0.93137824 0.89905149 -0.07142857
v -0.93137824 0.89905149 0.07142857
v -0.85994967 -0.88666280 -0.35714286
v -0.78852110 -0.88666280 -0.42857143
v -0.78852110 -0.95809137 -0.35714286
v -0.78852110 -0.95809137 -0.21428571
v -0.85994967 -0.88666280 -0.21428571
v -0.78852110 -0.95809137 -0.07142857
v -0.85994967 -0.88666280 -0.07142857
v -0.78852110 -0.95809137 0.07142857
v -0.85994967 -0.88666280 0.07142857
v -0.78852110 -0.95809137 0.21428571
v -0.85994967 -0.88666280 0.21428571
v -0.78852110 -0.88666280 0.28571429
v -0.85994967 -0.74380565 -0.64285714
v -0.78852110 -0.74380565 -0.71428571
v -0.78852110 -0.81523422 -0.64285714
v -0.78852110 -0.81523422 -0.50000000
v -0.85994967 -0.74380565 -0.50000000
v -0.78852110 -0.81523422 0.35714286
v -0.85994967 -0.74380565 0.35714286
v -0.78852110 -0.81523422 0.50000000
v -0.85994967 -0.74380565 0.50000000
v -0.78852110 -0.81523422 0.64285714
v -0.85994967 -0.74380565 0.64285714
v -0.78852110 -0.74380565 0.71428571
v -0.85994967 -0.60094851 -0.78571429
v -0.78852110 -0.60094851 -0.85714286
v -0.78852110 -0.67237708 -0.78571429
v -0.78852110 -0.67237708 0.78571429
v -0.85994967 -0.60094851 0.78571429
v -0.78852110 -0.60094851 0.85714286
v -0.85994967 -0.45809137 -0.92857143
v -0.78852110 -0.45809137 -1.00000000
v -0.78852110 -0.52951994 -0.92857143
v -0.85994967 -0.45809137 -0.78571429
v -0.85994967 -0.45809137 0.78571429
v -0.78852110 -0.45809137 0.85714286
v -0.85994967 -0.31523422 -0.92857143
v -0.78852110 -0.31523422 -1.00000000
v -0.85994967 -0.31523422 0.78571429
v -0.78852110 -0.31523422 0.85714286
v -0.85994967 -0.17237708 -0.92857143
v -0.78852110 -0.17237708 -1.00000000
v -0.78852110 -0.24380565 0.92857143
v -0.85994967 -0.17237708 0.92857143
v -0.78852110 -0.17237708 1.00000000
v -0.85994967 -0.02951994 -0.92857143
v -0.78852110 -0.02951994 -1.00000000
v -0.85994967 -0.02951994 0.92857143
v -0.78852110 -0.02951994 1.00000000
v -0.85994967 0.11333720 -0.92857143
v -0.78852110 0.11333720 -1.00000000
v -0.85994967 0.11333720 0.92857143
v -0.78852110 0.11333720 1.00000000
v -0.78852110 0.25619435 -1.00000000
v -0.78852110 0.25619435 1.00000000
v -0.85994967 0.39905149 -0.92857143
v -0.78852110 0.39905149 -1.00000000
v -0.85994967 0.39905149 0.92857143
v -0.78852110 0.39905149 1.00000000
v -0.85994967 0.54190863 -0.92857143
v -0.78852110 0.54190863 -1.00000000
v -0.85994967 0.54190863 0.78571429
v -0.85994967 0.54190863 0.92857143
v -0.78852110 0.54190863 1.00000000
v -0.78852110 0.61333720 -0.92857143
v -0.85994967 0.68476578 -0.78571429
v -0.78852110 0.68476578 -0.85714286
v -0.85994967 0.68476578 0.64285714
v -0.78852110 0.68476578 0.71428571
v -0.78852110 0.61333720 0.78571429
v -0.78852110 0.61333720 0.92857143
v -0.78852110 0.75619435 -0.78571429
v -0.85994967 0.82762292 -0.64285714
v -0.78852110 0.82762292 -0.71428571
v -0.85994967 0.82762292 -0.50000000
v -0.85994967 0.82762292 -0.35714286
v -0.85994967 0.82762292 0.21428571
v -0.85994967 0.82762292 0.35714286
v -0.85994967 0.82762292 0.50000000
v -0.78852110 0.82762292 0.57142857
v -0.78852110 0.75619435 0.64285714
v -0.78852110 0.89905149 -0.64285714
v -0.78852110 0.89905149 -0.50000000
v -0.78852110 0.89905149 -0.35714286
v -0.85994967 0.97048006 -0.21428571
v -0.78852110 0.97048006 -0.28571429
v -0.85994967 0.97048006 -0.07142857
v -0.85994967 0.97048006 0.07142857
v -0.78852110 0.97048006 0.14285714
v -0.78852110 0.89905149 0.21428571
v -0.78852110 0.89905149 0.35714286
v -0.78852110 0.89905149 0.50000000
v -0.78852110 1.04190863 -0.21428571
v -0.78852110 1.04190863 -0.07142857
v -0.78852110 1.04190863 0.07142857
v -0.71709253 -1.02951994 -0.21428571
v -0.64566396 -1.02951994 -0.28571429
v -0.64566396 -1.10094851 -0.21428571
v -0.64566396 -1.10094851 -0.07142857
v -0.71709253 -1.02951994 -0.07142857
v -0.64566396 -1.10094851 0.07142857
v -0.71709253 -1.02951994 0.07142857
v -0.64566396 -1.10094851 0.21428571
v -0.71709253 -1.02951994 0.21428571
v -0.64566396 -1.02951994 0.28571429
v -0.71709253 -0.88666280 -0.64285714
v -0.64566396 -0.88666280 -0.71428571
v -0.64566396 -0.95809137 -0.64285714
v -0.64566396 -0.95809137 -0.50000000
v -0.71709253 -0.88666280 -0.50000000
v -0.64566396 -0.95809137 -0.35714286
v -0.64566396 -0.95809137 0.35714286
v -0.71709253 -0.88666280 0.35714286
v -0.64566396 -0.95809137 0.50000000
v -0.71709253 -0.88666280 0.50000000
v -0.64566396 -0.95809137 0.64285714
v -0.71709253 -0.88666280 0.64285714
v -0.64566396 -0.88666280 0.71428571
v -0.71709253 -0.74380565 -0.78571429
v -0.64566396 -0.74380565 -0.85714286
v -0.64566396 -0.81523422 -0.78571429
v -0.64566396 -0.81523422 0.78571429
v -0.71709253 -0.74380565 0.78571429
v -0.64566396 -0.74380565 0.85714286
v -0.64566396 -0.60094851 -0.85714286
v -0.64566396 -0.60094851 0.85714286
v -0.64566396 -0.45809137 -1.00000000
v -0.64566396 -0.52951994 -0.92857143
v -0.64566396 -0.52951994 0.92857143
v -0.71709253 -0.45809137 0.92857143
v -0.64566396 -0.45809137 1.00000000
v -0.64566396 -0.31523422 -1.00000000
v -0.71709253 -0.31523422 0.92857143
v -0.64566396 -0.31523422 1.00000000
v -0.64566396 -0.17237708 -1.00000000
v -0.64566396 -0.17237708 1.00000000
v -0.64566396 -0.02951994 -1.00000000
v -0.64566396 -0.02951994 1.00000000
v -0.64566396 0.11333720 -1.00000000
v -0.64566396 0.11333720 1.00000000
v -0.64566396 0.25619435 -1.00000000
v -0.64566396 0.25619435 1.00000000
v -0.64566396 0.39905149 -1.00000000
v -0.64566396 0.39905149 1.00000000
v -0.64566396 0.54190863 -1.00000000
v -0.64566396 0.54190863 1.00000000
v -0.71709253 0.68476578 -0.92857143
v -0.64566396 0.68476578 -1.00000000
v -0.71709253 0.68476578 0.78571429
v -0.71709253 0.68476578 0.92857143
v -0.64566396 0.68476578 1.00000000
v -0.64566396 0.75619435 -0.92857143
v -0.71709253 0.82762292 -0.78571429
v -0.64566396 0.82762292 -0.85714286
v -0.71709253 0.82762292 0.64285714
v -0.64566396 0.82762292 0.71428571
v -0.64566396 0.75619435 0.78571429
v -0.64566396 0.75619435 0.92857143
v -0.64566396 0.89905149 -0.78571429
v -0.71709253 0.97048006 -0.64285714
v -0.64566396 0.97048006 -0.71428571
v -0.71709253 0.97048006 -0.50000000
v -0.71709253 0.97048006 -0.35714286
v -0.71709253 0.97048006 0.21428571
v -0.71709253 0.97048006 0.35714286
v -0.71709253 0.97048006 0.50000000
v -0.64566396 0.97048006 0.57142857
v -0.64566396 0.89905149 0.64285714
v -0.64566396 1.04190863 -0.64285714
v -0.64566396 1.04190863 -0.50000000
v -0.64566396 1.04190863 -0.35714286
v -0.71709253 1.11333720 -0.21428571
v -0.64566396 1.11333720 -0.28571429
v -0.71709253 1.11333720 -0.07142857
v -0.71709253 1.11333720 0.07142857
v -0.64566396 1.11333720 0.14285714
v -0.64566396 1.04190863 0.21428571
v -0.64566396 1.04190863 0.35714286
v -0.64566396 1.04190863 0.50000000
v -0.64566396 1.18476578 -0.21428571
v -0.64566396 1.18476578 -0.07142857
v -0.64566396 1.18476578 0.07142857
v -0.57423539 -1.02951994 -0.50000000
v -0.50280681 -1.02951994 -0.57142857
v -0.50280681 -1.10094851 -0.50000000
v -0.50280681 -1.10094851 -0.35714286
v -0.57423539 -1.02951994 -0.35714286
v -0.50280681 -1.10094851 -0.21428571
v -0.50280681 -1.10094851 -0.07142857
v -0.50280681 -1.10094851 0.07142857
v -0.50280681 -1.10094851 0.21428571
v -0.50280681 -1.10094851 0.35714286
v -0.57423539 -1.02951994 0.35714286
v -0.50280681 -1.10094851 0.50000000
v -0.57423539 -1.02951994 0.50000000
v -0.50280681 -1.02951994 0.57142857
v -0.50280681 -0.88666280 -0.71428571
v -0.50280681 -0.95809137 -0.64285714
v -0.50280681 -0.95809137 0.64285714
v -0.50280681 -0.88666280 0.71428571
v -0.50280681 -0.74380565 -0.85714286
v -0.50280681 -0.81523422 -0.78571429
v -0.50280681 -0.81523422 0.78571429
v -0.50280681 -0.74380565 0.85714286
v -0.57423539 -0.60094851 -0.92857143
v -0.50280681 -0.60094851 -1.00000000
v -0.50280681 -0.67237708 -0.92857143
v -0.50280681 -0.67237708 0.92857143
v -0.57423539 -0.60094851 0.92857143
v -0.50280681 -0.60094851 1.00000000
v -0.50280681 -0.45809137 -1.00000000
v -0.50280681 -0.45809137 1.00000000
v -0.50280681 -0.31523422 -1.00000000
v -0.50280681 -0.31523422 1.00000000
v -0.50280681 -0.17237708 -1.00000000
v -0.50280681 -0.17237708 1.00000000
v -0.50280681 -0.02951994 -1.00000000
v -0.50280681 -0.02951994 1.00000000
v -0.50280681 0.11333720 -1.00000000
v -0.50280681 0.11333720 1.00000000
v -0.50280681 0.25619435 -1.00000000
v -0.50280681 0.25619435 1.00000000
v -0.50280681 0.39905149 -1.00000000
v -0.50280681 0.39905149 1.00000000
v -0.50280681 0.54190863 -1.00000000
v -0.50280681 0.54190863 1.00000000
v -0.50280681 0.68476578 -1.00000000
v -0.50280681 0.68476578 1.00000000
v -0.57423539 0.82762292 -0.92857143
v -0.50280681 0.82762292 -1.00000000
v -0.57423539 0.82762292 0.78571429
v -0.50280681 0.82762292 0.85714286
v -0.50280681 0.75619435 0.92857143
v -0.50280681 0.89905149 -0.92857143
v -0.57423539 0.97048006 -0.78571429
v -0.50280681 0.97048006 -0.85714286
v -0.57423539 0.97048006 0.64285714
v -0.50280681 0.97048006 0.71428571
v -0.50280681 0.89905149 0.78571429
v -0.50280681 1.04190863 -0.78571429
v -0.50280681 1.04190863 -0.64285714
v -0.57423539 1.11333720 -0.50000000
v -0.50280681 1.11333720 -0.57142857
v -0.57423539 1.11333720 -0.35714286
v -0.57423539 1.11333720 0.21428571
v -0.57423539 1.11333720 0.35714286
v -0.50280681 1.11333720 0.42857143
v -0.50280681 1.04190863 0.50000000
v -0.50280681 1.04190863 0.64285714
v -0.50280681 1.18476578 -0.50000000
v -0.50280681 1.18476578 -0.35714286
v -0.50280681 1.18476578 -0.21428571
v -0.50280681 1.18476578 -0.07142857
v -0.50280681 1.18476578 0.07142857
v -0.50280681 1.18476578 0.21428571
v -0.50280681 1.18476578 0.35714286
v -0.43137824 -1.17237708 -0.35714286
v -0.35994967 -1.17237708 -0.42857143
v -0.35994967 -1.24380565 -0.35714286
v -0.35994967 -1.24380565 -0.21428571
v -0.43137824 -1.17237708 -0.21428571
v -0.35994967 -1.24380565 -0.07142857
v -0.43137824 -1.17237708 -0.07142857
v -0.35994967 -1.24380565 0.07142857
v -0.43137824 -1.17237708 0.07142857
v -0.35994967 -1.24380565 0.21428571
v -0.43137824 -1.17237708 0.21428571
v -0.35994967 -1.24380565 0.35714286
v -0.43137824 -1.17237708 0.35714286
v -0.35994967 -1.17237708 0.42857143
v -0.35994967 -1.02951994 -0.57142857
v -0.35994967 -1.10094851 -0.50000000
v -0.35994967 -1.10094851 0.50000000
v -0.35994967 -1.02951994 0.57142857
v -0.43137824 -0.88666280 -0.78571429
v -0.35994967 -0.88666280 -0.85714286
v -0.35994967 -0.95809137 -0.78571429
v -0.35994967 -0.95809137 -0.64285714
v -0.35994967 -0.95809137 0.64285714
v -0.35994967 -0.95809137 0.78571429
v -0.43137824 -0.88666280 0.78571429
v -0.35994967 -0.88666280 0.85714286
v -0.43137824 -0.74380565 -0.92857143
v -0.35994967 -0.74380565 -1.00000000
v -0.35994967 -0.81523422 -0.92857143
v -0.35994967 -0.74380565 0.85714286
v -0.35994967 -0.60094851 -1.00000000
v -0.35994967 -0.67237708 0.92857143
v -0.35994967 -0.60094851 1.00000000
v -0.35994967 -0.45809137 -1.00000000
v -0.35994967 -0.45809137 1.00000000
v -0.35994967 -0.31523422 -1.00000000
v -0.35994967 -0.31523422 1.00000000
v -0.35994967 -0.17237708 -1.00000000
v -0.35994967 -0.17237708 1.00000000
v -0.35994967 -0.02951994 -1.00000000
v -0.35994967 -0.02951994 1.00000000
v -0.35994967 0.11333720 -1.00000000
v -0.35994967 0.11333720 1.00000000
v -0.35994967 0.25619435 -1.00000000
v -0.35994967 0.25619435 1.00000000
v -0.35994967 0.39905149 -1.00000000
v -0.35994967 0.39905149 1.00000000
v -0.35994967 0.54190863 -1.00000000
v -0.35994967 0.54190863 1.00000000
v -0.35994967 0.68476578 -1.00000000
v -0.35994967 0.68476578 1.00000000
v -0.35994967 0.82762292 -1.00000000
v -0.43137824 0.82762292 0.92857143
v -0.35994967 0.82762292 1.00000000
v -0.35994967 0.89905149 -0.92857143
v -0.35994967 0.97048006 -0.85714286
v -0.43137824 0.97048006 0.78571429
v -0.35994967 0.97048006 0.85714286
v -0.35994967 0.89905149 0.92857143
v -0.35994967 1.04190863 -0.78571429
v -0.43137824 1.11333720 -0.64285714
v -0.35994967 1.11333720 -0.71428571
v -0.43137824 1.11333720 0.50000000
v -0.35994967 1.11333720 0.57142857
v -0.35994967 1.04190863 0.64285714
v -0.35994967 1.04190863 0.78571429
v -0.35994967 1.18476578 -0.64285714
v -0.35994967 1.18476578 -0.50000000
v -0.43137824 1.25619435 -0.35714286
v -0.35994967 1.25619435 -0.42857143
v -0.43137824 1.25619435 -0.21428571
v -0.43137824 1.25619435 -0.07142857
v -0.43137824 1.25619435 0.07142857
v -0.43137824 1.25619435 0.21428571
v -0.43137824 1.25619435 0.35714286
v -0.35994967 1.25619435 0.42857143
v -0.35994967 1.18476578 0.50000000
v -0.35994967 1.32762292 -0.35714286
v -0.35994967 1.32762292 -0.21428571
v -0.35994967 1.32762292 -0.07142857
v -0.35994967 1.32762292 0.07142857
v -0.35994967 1.32762292 0.21428571
v -0.35994967 1.32762292 0.35714286
v -0.28852110 -1.17237708 -0.50000000
v -0.21709253 -1.17237708 -0.57142857
v -0.21709253 -1.24380565 -0.50000000
v -0.21709253 -1.24380565 -0.35714286
v -0.21709253 -1.24380565 -0.21428571
v -0.21709253 -1.24380565 -0.07142857
v -0.21709253 -1.24380565 0.07142857
v -0.21709253 -1.24380565 0.21428571
v -0.21709253 -1.24380565 0.35714286
v -0.21709253 -1.24380565 0.50000000
v -0.28852110 -1.17237708 0.50000000
v -0.21709253 -1.17237708 0.57142857
v -0.28852110 -1.02951994 -0.64285714
v -0.21709253 -1.02951994 -0.71428571
v -0.21709253 -1.10094851 -0.64285714
v -0.21709253 -1.10094851 0.64285714
v -0.28852110 -1.02951994 0.64285714
v -0.21709253 -1.02951994 0.71428571
v -0.21709253 -0.88666280 -0.85714286
v -0.21709253 -0.95809137 -0.78571429
v -0.21709253 -0.95809137 0.78571429
v -0.21709253 -0.88666280 0.85714286
v -0.21709253 -0.74380565 -1.00000000
v -0.21709253 -0.81523422 -0.92857143
v -0.21709253 -0.74380565 0.85714286
v -0.21709253 -0.60094851 -1.00000000
v -0.21709253 -0.67237708 0.92857143
v -0.21709253 -0.60094851 1.00000000
v -0.21709253 -0.45809137 -1.00000000
v -0.21709253 -0.45809137 1.00000000
v -0.21709253 -0.31523422 -1.00000000
v -0.21709253 -0.31523422 1.00000000
v -0.21709253 -0.17237708 -1.00000000
v -0.21709253 -0.17237708 1.00000000
v -0.21709253 -0.02951994 -1.00000000
v -0.21709253 -0.02951994 1.00000000
v -0.21709253 0.11333720 -1.00000000
v -0.21709253 0.11333720 1.00000000
v -0.21709253 0.25619435 -1.00000000
v -0.21709253 0.25619435 1.00000000
v -0.21709253 0.39905149 -1.00000000
v -0.21709253 0.39905149 1.00000000
v -0.21709253 0.54190863 -1.00000000
v -0.21709253 0.54190863 1.00000000
v -0.21709253 0.68476578 -1.00000000
v -0.21709253 0.68476578 1.00000000
v -0.21709253 0.82762292 -1.00000000
v -0.21709253 0.82762292 1.00000000
v -0.28852110 0.97048006 -0.92857143
v -0.21709253 0.97048006 -1.00000000
v -0.21709253 0.89905149 0.92857143
v -0.21709253 0.97048006 0.85714286
v -0.21709253 1.04190863 -0.92857143
v -0.21709253 1.04190863 -0.78571429
v -0.21709253 1.11333720 -0.71428571
v -0.21709253 1.04190863 0.64285714
v -0.21709253 1.11333720 0.57142857
v -0.21709253 1.04190863 0.78571429
v -0.21709253 1.18476578 -0.64285714
v -0.28852110 1.25619435 -0.50000000
v -0.21709253 1.25619435 -0.57142857
v -0.21709253 1.18476578 0.50000000
v -0.21709253 1.25619435 0.42857143
v -0.21709253 1.32762292 -0.50000000
v -0.21709253 1.32762292 -0.35714286
v -0.21709253 1.32762292 -0.21428571
v -0.21709253 1.32762292 -0.07142857
v -0.21709253 1.32762292 0.07142857
v -0.21709253 1.32762292 0.21428571
v -0.21709253 1.32762292 0.35714286
v -0.14566396 -1.17237708 -0.64285714
v -0.07423539 -1.17237708 -0.71428571
v -0.07423539 -1.24380565 -0.64285714
v -0.07423539 -1.24380565 -0.50000000
v -0.07423539 -1.24380565 -0.35714286
v -0.07423539 -1.24380565 -0.21428571
v -0.07423539 -1.24380565 -0.07142857
v -0.07423539 -1.24380565 0.07142857
v -0.07423539 -1.24380565 0.21428571
v -0.07423539 -1.24380565 0.35714286
v -0.07423539 -1.24380565 0.50000000
v -0.07423539 -1.24380565 0.64285714
v -0.14566396 -1.17237708 0.64285714
v -0.07423539 -1.24380565 0.78571429
v -0.14566396 -1.17237708 0.78571429
v -0.07423539 -1.24380565 0.92857143
v -0.14566396 -1.17237708 0.92857143
v -0.07423539 -1.17237708 1.00000000
v -0.07423539 -1.02951994 -0.71428571
v -0.14566396 -1.02951994 0.78571429
v -0.14566396 -1.02951994 0.92857143
v -0.07423539 -1.02951994 1.00000000
v -0.07423539 -0.88666280 -0.85714286
v -0.07423539 -0.95809137 -0.78571429
v -0.14566396 -0.88666280 0.92857143
v -0.07423539 -0.88666280 1.00000000
v -0.07423539 -0.74380565 -1.00000000
v -0.07423539 -0.81523422 -0.92857143
v -0.14566396 -0.74380565 0.92857143
v -0.07423539 -0.74380565 1.00000000
v -0.07423539 -0.60094851 -1.00000000
v -0.07423539 -0.60094851 1.00000000
v -0.07423539 -0.45809137 -1.00000000
v -0.07423539 -0.45809137 1.00000000
v -0.07423539 -0.31523422 -1.00000000
v -0.07423539 -0.31523422 1.00000000
v -0.07423539 -0.17237708 -1.00000000
v -0.07423539 -0.17237708 1.00000000
v -0.07423539 -0.02951994 -1.00000000
v -0.07423539 -0.02951994 1.00000000
v -0.07423539 0.11333720 -1.00000000
v -0.07423539 0.11333720 1.00000000
v -0.07423539 0.25619435 -1.00000000
v -0.07423539 0.25619435 1.00000000
v -0.07423539 0.39905149 -1.00000000
v -0.07423539 0.39905149 1.00000000
v -0.07423539 0.54190863 -1.00000000
v -0.07423539 0.54190863 1.00000000
v -0.07423539 0.68476578 -1.00000000
v -0.07423539 0.68476578 1.00000000
v -0.07423539 0.82762292 -1.00000000
v -0.07423539 0.82762292 1.00000000
v -0.07423539 0.97048006 -1.00000000
v -0.14566396 0.97048006 0.92857143
v -0.07423539 0.97048006 1.00000000
v -0.07423539 1.04190863 -0.92857143
v -0.14566396 1.11333720 -0.78571429
v -0.07423539 1.11333720 -0.85714286
v -0.14566396 1.11333720 0.64285714
v -0.07423539 1.11333720 0.71428571
v -0.07423539 1.04190863 0.78571429
v -0.07423539 1.04190863 0.92857143
v -0.07423539 1.18476578 -0.78571429
v -0.07423539 1.18476578 -0.64285714
v -0.07423539 1.25619435 -0.57142857
v -0.07423539 1.18476578 0.50000000
v -0.07423539 1.25619435 0.42857143
v -0.07423539 1.18476578 0.64285714
v -0.07423539 1.32762292 -0.50000000
v -0.07423539 1.32762292 -0.35714286
v -0.07423539 1.32762292 -0.21428571
v -0.07423539 1.32762292 -0.07142857
v -0.07423539 1.32762292 0.07142857
v -0.07423539 1.32762292 0.21428571
v -0.07423539 1.32762292 0.35714286
v -0.00280681 -1.31523422 -0.35714286
v 0.06862176 -1.31523422 -0.42857143
v 0.06862176 -1.38666280 -0.35714286
v 0.06862176 -1.38666280 -0.21428571
v -0.00280681 -1.31523422 -0.21428571
v 0.06862176 -1.38666280 -0.07142857
v -0.00280681 -1.31523422 -0.07142857
v 0.06862176 -1.38666280 0.07142857
v -0.00280681 -1.31523422 0.07142857
v 0.06862176 -1.38666280 0.21428571
v -0.00280681 -1.31523422 0.21428571
v 0.06862176 -1.38666280 0.35714286
v -0.00280681 -1.31523422 0.35714286
v 0.06862176 -1.38666280 0.50000000
v -0.00280681 -1.31523422 0.50000000
v 0.06862176 -1.38666280 0.64285714
v -0.00280681 -1.31523422 0.64285714
v 0.06862176 -1.38666280 0.78571429
v -0.00280681 -1.31523422 0.78571429
v 0.06862176 -1.38666280 0.92857143
v -0.00280681 -1.31523422 0.92857143
v 0.06862176 -1.31523422 1.00000000
v 0.06862176 -1.17237708 -0.71428571
v 0.06862176 -1.24380565 -0.64285714
v 0.06862176 -1.24380565 -0.50000000
v 0.06862176 -1.17237708 1.00000000
v 0.06862176 -1.02951994 -0.71428571
v 0.06862176 -1.02951994 1.00000000
v 0.06862176 -0.88666280 -0.85714286
v 0.06862176 -0.95809137 -0.78571429
v 0.06862176 -0.88666280 1.00000000
v 0.06862176 -0.74380565 -1.00000000
v 0.06862176 -0.81523422 -0.92857143
v 0.06862176 -0.74380565 1.00000000
v 0.06862176 -0.60094851 -1.00000000
v 0.06862176 -0.60094851 1.00000000
v 0.06862176 -0.45809137 -1.00000000
v 0.06862176 -0.45809137 1.00000000
v 0.06862176 -0.31523422 -1.00000000
v 0.06862176 -0.31523422 1.00000000
v 0.06862176 -0.17237708 -1.00000000
v 0.06862176 -0.17237708 1.00000000
v 0.06862176 -0.02951994 -1.00000000
v 0.06862176 -0.02951994 1.00000000
v 0.06862176 0.11333720 -1.00000000
v 0.06862176 0.11333720 1.00000000
v 0.06862176 0.25619435 -1.00000000
v 0.06862176 0.25619435 1.00000000
v 0.06862176 0.39905149 -1.00000000
v 0.06862176 0.39905149 1.00000000
v 0.06862176 0.54190863 -1.00000000
v 0.06862176 0.54190863 1.00000000
v 0.06862176 0.68476578 -1.00000000
v 0.06862176 0.68476578 1.00000000
v 0.06862176 0.82762292 -1.00000000
v 0.06862176 0.82762292 1.00000000
v 0.06862176 0.97048006 -1.00000000
v 0.06862176 0.97048006 1.00000000
v 0.06862176 1.04190863 -0.92857143
v 0.06862176 1.11333720 -0.85714286
v 0.06862176 1.04190863 0.78571429
v 0.06862176 1.11333720 0.71428571
v 0.06862176 1.04190863 0.92857143
v 0.06862176 1.18476578 -0.78571429
v 0.06862176 1.18476578 -0.64285714
v 0.06862176 1.25619435 -0.57142857
v 0.06862176 1.18476578 0.50000000
v 0.06862176 1.25619435 0.42857143
v 0.06862176 1.18476578 0.64285714
v 0.06862176 1.32762292 -0.50000000
v 0.06862176 1.32762292 -0.35714286
v 0.06862176 1.32762292 -0.21428571
v 0.06862176 1.32762292 -0.07142857
v 0.06862176 1.32762292 0.07142857
v 0.06862176 1.32762292 0.21428571
v 0.06862176 1.32762292 0.35714286
v 0.21147890 -1.31523422 -0.42857143
v 0.21147890 -1.38666280 -0.35714286
v 0.21147890 -1.38666280 -0.21428571
v 0.21147890 -1.38666280 -0.07142857
v 0.21147890 -1.38666280 0.07142857
v 0.21147890 -1.38666280 0.21428571
v 0.21147890 -1.38666280 0.35714286
v 0.14005033 -1.31523422 0.50000000
v 0.21147890 -1.31523422 0.42857143
v 0.14005033 -1.31523422 0.64285714
v 0.14005033 -1.31523422 0.78571429
v 0.14005033 -1.31523422 0.92857143
v 0.21147890 -1.17237708 -0.71428571
v 0.21147890 -1.24380565 -0.64285714
v 0.21147890 -1.24380565 -0.50000000
v 0.21147890 -1.24380565 0.50000000
v 0.21147890 -1.24380565 0.64285714
v 0.21147890 -1.24380565 0.78571429
v 0.21147890 -1.24380565 0.92857143
v 0.21147890 -1.17237708 1.00000000
v 0.21147890 -1.02951994 -0.71428571
v 0.21147890 -1.02951994 1.00000000
v 0.21147890 -0.88666280 -0.85714286
v 0.21147890 -0.95809137 -0.78571429
v 0.21147890 -0.88666280 1.00000000
v 0.14005033 -0.74380565 -0.92857143
v 0.21147890 -0.74380565 -0.85714286
v 0.21147890 -0.74380565 1.00000000
v 0.21147890 -0.60094851 -1.00000000
v 0.21147890 -0.67237708 -0.92857143
v 0.21147890 -0.60094851 1.00000000
v 0.21147890 -0.45809137 -1.00000000
v 0.21147890 -0.45809137 1.00000000
v 0.21147890 -0.31523422 -1.00000000
v 0.21147890 -0.31523422 1.00000000
v 0.21147890 -0.17237708 -1.00000000
v 0.21147890 -0.17237708 1.00000000
v 0.21147890 -0.02951994 -1.00000000
v 0.21147890 -0.02951994 1.00000000
v 0.21147890 0.11333720 -1.00000000
v 0.21147890 0.11333720 1.00000000
v 0.21147890 0.25619435 -1.00000000
v 0.21147890 0.25619435 1.00000000
v 0.21147890 0.39905149 -1.00000000
v 0.21147890 0.39905149 1.00000000
v 0.21147890 0.54190863 -1.00000000
v 0.21147890 0.54190863 1.00000000
v 0.21147890 0.68476578 -1.00000000
v 0.21147890 0.68476578 1.00000000
v 0.21147890 0.82762292 -1.00000000
v 0.21147890 0.82762292 1.00000000
v 0.21147890 0.89905149 -0.92857143
v 0.14005033 0.97048006 -0.92857143
v 0.21147890 0.97048006 -0.85714286
v 0.14005033 0.97048006 0.92857143
v 0.21147890 0.89905149 0.92857143
v 0.21147890 0.97048006 0.85714286
v 0.14005033 1.11333720 -0.78571429
v 0.21147890 1.04190863 -0.78571429
v 0.21147890 1.11333720 -0.71428571
v 0.21147890 1.04190863 0.78571429
v 0.21147890 1.11333720 0.71428571
v 0.21147890 1.18476578 -0.64285714
v 0.14005033 1.25619435 -0.50000000
v 0.21147890 1.18476578 -0.50000000
v 0.21147890 1.25619435 -0.42857143
v 0.21147890 1.18476578 0.50000000
v 0.21147890 1.25619435 0.42857143
v 0.21147890 1.18476578 0.64285714
v 0.21147890 1.32762292 -0.35714286
v 0.21147890 1.32762292 -0.21428571
v 0.21147890 1.32762292 -0.07142857
v 0.21147890 1.32762292 0.07142857
v 0.21147890 1.32762292 0.21428571
v 0.21147890 1.32762292 0.35714286
v 0.28290747 -1.31523422 -0.35714286
v 0.28290747 -1.31523422 -0.21428571
v 0.28290747 -1.31523422 -0.07142857
v 0.28290747 -1.31523422 0.07142857
v 0.28290747 -1.31523422 0.21428571
v 0.28290747 -1.31523422 0.35714286
v 0.28290747 -1.17237708 -0.64285714
v 0.35433604 -1.17237708 -0.57142857
v 0.35433604 -1.24380565 -0.50000000
v 0.35433604 -1.24380565 -0.35714286
v 0.35433604 -1.24380565 -0.21428571
v 0.35433604 -1.24380565 -0.07142857
v 0.35433604 -1.24380565 0.07142857
v 0.35433604 -1.24380565 0.21428571
v 0.35433604 -1.24380565 0.35714286
v 0.35433604 -1.24380565 0.50000000
v 0.35433604 -1.24380565 0.64285714
v 0.35433604 -1.24380565 0.78571429
v 0.35433604 -1.24380565 0.92857143
v 0.35433604 -1.17237708 1.00000000
v 0.35433604 -1.02951994 -0.71428571
v 0.35433604 -1.10094851 -0.64285714
v 0.35433604 -1.02951994 1.00000000
v 0.35433604 -0.88666280 -0.85714286
v 0.35433604 -0.95809137 -0.78571429
v 0.35433604 -0.88666280 1.00000000
v 0.35433604 -0.74380565 -0.85714286
v 0.35433604 -0.74380565 1.00000000
v 0.35433604 -0.60094851 -1.00000000
v 0.35433604 -0.67237708 -0.92857143
v 0.35433604 -0.60094851 1.00000000
v 0.35433604 -0.45809137 -1.00000000
v 0.35433604 -0.45809137 1.00000000
v 0.35433604 -0.31523422 -1.00000000
v 0.35433604 -0.31523422 1.00000000
v 0.35433604 -0.17237708 -1.00000000
v 0.35433604 -0.17237708 1.00000000
v 0.35433604 -0.02951994 -1.00000000
v 0.35433604 -0.02951994 1.00000000
v 0.35433604 0.11333720 -1.00000000
v 0.35433604 0.11333720 1.00000000
v 0.35433604 0.25619435 -1.00000000
v 0.35433604 0.25619435 1.00000000
v 0.35433604 0.39905149 -1.00000000
v 0.35433604 0.39905149 1.00000000
v 0.35433604 0.54190863 -1.00000000
v 0.35433604 0.54190863 1.00000000
v 0.35433604 0.68476578 -1.00000000
v 0.35433604 0.68476578 1.00000000
v 0.35433604 0.75619435 -0.92857143
v 0.28290747 0.82762292 -0.92857143
v 0.35433604 0.82762292 -0.85714286
v 0.35433604 0.82762292 1.00000000
v 0.35433604 0.97048006 -0.85714286
v 0.35433604 0.89905149 0.92857143
v 0.35433604 0.97048006 0.85714286
v 0.35433604 1.04190863 -0.78571429
v 0.35433604 1.11333720 -0.71428571
v 0.28290747 1.11333720 0.64285714
v 0.35433604 1.04190863 0.64285714
v 0.35433604 1.11333720 0.57142857
v 0.35433604 1.04190863 0.78571429
v 0.35433604 1.18476578 -0.64285714
v 0.35433604 1.18476578 -0.50000000
v 0.28290747 1.25619435 -0.35714286
v 0.35433604 1.18476578 -0.35714286
v 0.35433604 1.25619435 -0.28571429
v 0.28290747 1.25619435 0.35714286
v 0.35433604 1.18476578 0.35714286
v 0.35433604 1.25619435 0.28571429
v 0.35433604 1.18476578 0.50000000
v 0.35433604 1.32762292 -0.21428571
v 0.35433604 1.32762292 -0.07142857
v 0.35433604 1.32762292 0.07142857
v 0.35433604 1.32762292 0.21428571
v 0.42576461 -1.17237708 -0.50000000
v 0.42576461 -1.17237708 -0.35714286
v 0.49719319 -1.17237708 -0.28571429
v 0.49719319 -1.24380565 -0.21428571
v 0.49719319 -1.24380565 -0.07142857
v 0.49719319 -1.24380565 0.07142857
v 0.42576461 -1.17237708 0.21428571
v 0.49719319 -1.17237708 0.14285714
v 0.42576461 -1.17237708 0.35714286
v 0.42576461 -1.17237708 0.50000000
v 0.42576461 -1.17237708 0.64285714
v 0.42576461 -1.17237708 0.78571429
v 0.42576461 -1.17237708 0.92857143
v 0.42576461 -1.02951994 -0.64285714
v 0.49719319 -1.02951994 -0.57142857
v 0.49719319 -1.10094851 -0.50000000
v 0.49719319 -1.10094851 -0.35714286
v 0.49719319 -1.10094851 0.21428571
v 0.49719319 -1.10094851 0.35714286
v 0.49719319 -1.10094851 0.50000000
v 0.49719319 -1.10094851 0.64285714
v 0.49719319 -1.10094851 0.78571429
v 0.49719319 -1.10094851 0.92857143
v 0.49719319 -1.02951994 1.00000000
v 0.42576461 -0.88666280 -0.78571429
v 0.49719319 -0.88666280 -0.71428571
v 0.49719319 -0.95809137 -0.64285714
v 0.49719319 -0.88666280 1.00000000
v 0.49719319 -0.74380565 -0.85714286
v 0.49719319 -0.81523422 -0.78571429
v 0.49719319 -0.74380565 1.00000000
v 0.42576461 -0.60094851 -0.92857143
v 0.49719319 -0.60094851 -0.85714286
v 0.49719319 -0.60094851 1.00000000
v 0.49719319 -0.45809137 -1.00000000
v 0.49719319 -0.52951994 -0.92857143
v 0.49719319 -0.45809137 1.00000000
v 0.49719319 -0.31523422 -1.00000000
v 0.49719319 -0.31523422 1.00000000
v 0.49719319 -0.17237708 -1.00000000
v 0.49719319 -0.17237708 1.00000000
v 0.49719319 -0.02951994 -1.00000000
v 0.49719319 -0.02951994 1.00000000
v 0.49719319 0.11333720 -1.00000000
v 0.49719319 0.11333720 1.00000000
v 0.49719319 0.25619435 -1.00000000
v 0.49719319 0.25619435 1.00000000
v 0.49719319 0.39905149 -1.00000000
v 0.49719319 0.39905149 1.00000000
v 0.49719319 0.54190863 -1.00000000
v 0.49719319 0.54190863 1.00000000
v 0.49719319 0.61333720 -0.92857143
v 0.42576461 0.68476578 -0.92857143
v 0.49719319 0.68476578 -0.85714286
v 0.49719319 0.68476578 1.00000000
v 0.49719319 0.82762292 -0.85714286
v 0.49719319 0.82762292 1.00000000
v 0.49719319 0.89905149 -0.78571429
v 0.42576461 0.97048006 -0.78571429
v 0.49719319 0.97048006 -0.71428571
v 0.42576461 0.97048006 0.78571429
v 0.49719319 0.89905149 0.78571429
v 0.49719319 0.97048006 0.71428571
v 0.49719319 0.89905149 0.92857143
v 0.42576461 1.11333720 -0.64285714
v 0.49719319 1.04190863 -0.64285714
v 0.42576461 1.11333720 -0.50000000
v 0.49719319 1.04190863 -0.50000000
v 0.49719319 1.11333720 -0.42857143
v 0.42576461 1.11333720 0.50000000
v 0.49719319 1.04190863 0.50000000
v 0.49719319 1.11333720 0.42857143
v 0.49719319 1.04190863 0.64285714
v 0.49719319 1.18476578 -0.35714286
v 0.42576461 1.25619435 -0.21428571
v 0.49719319 1.18476578 -0.21428571
v 0.42576461 1.25619435 -0.07142857
v 0.49719319 1.18476578 -0.07142857
v 0.42576461 1.25619435 0.07142857
v 0.49719319 1.18476578 0.07142857
v 0.42576461 1.25619435 0.21428571
v 0.49719319 1.18476578 0.21428571
v 0.49719319 1.18476578 0.35714286
v 0.56862176 -1.17237708 -0.21428571
v 0.56862176 -1.17237708 -0.07142857
v 0.56862176 -1.17237708 0.07142857
v 0.56862176 -1.02951994 -0.50000000
v 0.64005033 -1.02951994 -0.42857143
v 0.64005033 -1.10094851 -0.35714286
v 0.64005033 -1.10094851 -0.21428571
v 0.64005033 -1.10094851 -0.07142857
v 0.64005033 -1.10094851 0.07142857
v 0.64005033 -1.10094851 0.21428571
v 0.56862176 -1.02951994 0.35714286
v 0.64005033 -1.02951994 0.28571429
v 0.56862176 -1.02951994 0.50000000
v 0.56862176 -1.02951994 0.64285714
v 0.56862176 -1.02951994 0.78571429
v 0.56862176 -1.02951994 0.92857143
v 0.64005033 -0.88666280 -0.71428571
v 0.64005033 -0.95809137 -0.64285714
v 0.64005033 -0.95809137 -0.50000000
v 0.64005033 -0.95809137 0.35714286
v 0.64005033 -0.95809137 0.50000000
v 0.64005033 -0.95809137 0.64285714
v 0.64005033 -0.95809137 0.78571429
v 0.64005033 -0.88666280 0.85714286
v 0.56862176 -0.88666280 0.92857143
v 0.64005033 -0.74380565 -0.85714286
v 0.64005033 -0.81523422 -0.78571429
v 0.64005033 -0.81523422 0.92857143
v 0.64005033 -0.74380565 1.00000000
v 0.64005033 -0.60094851 -0.85714286
v 0.64005033 -0.60094851 1.00000000
v 0.56862176 -0.45809137 -0.92857143
v 0.64005033 -0.45809137 -0.85714286
v 0.64005033 -0.45809137 1.00000000
v 0.64005033 -0.31523422 -1.00000000
v 0.64005033 -0.38666280 -0.92857143
v 0.64005033 -0.31523422 1.00000000
v 0.64005033 -0.17237708 -1.00000000
v 0.64005033 -0.17237708 1.00000000
v 0.64005033 -0.02951994 -1.00000000
v 0.64005033 -0.02951994 1.00000000
v 0.64005033 0.11333720 -1.00000000
v 0.64005033 0.11333720 1.00000000
v 0.64005033 0.25619435 -1.00000000
v 0.64005033 0.25619435 1.00000000
v 0.64005033 0.39905149 -1.00000000
v 0.64005033 0.39905149 1.00000000
v 0.64005033 0.47048006 -0.92857143
v 0.56862176 0.54190863 -0.92857143
v 0.64005033 0.54190863 -0.85714286
v 0.64005033 0.54190863 1.00000000
v 0.64005033 0.68476578 -0.85714286
v 0.64005033 0.68476578 1.00000000
v 0.64005033 0.82762292 -0.85714286
v 0.56862176 0.82762292 0.92857143
v 0.64005033 0.75619435 0.92857143
v 0.64005033 0.82762292 0.85714286
v 0.64005033 0.89905149 -0.78571429
v 0.64005033 0.97048006 -0.71428571
v 0.56862176 0.97048006 0.64285714
v 0.64005033 0.89905149 0.64285714
v 0.64005033 0.97048006 0.57142857
v 0.64005033 0.89905149 0.78571429
v 0.64005033 1.04190863 -0.64285714
v 0.64005033 1.04190863 -0.50000000
v 0.56862176 1.11333720 -0.35714286
v 0.64005033 1.04190863 -0.35714286
v 0.56862176 1.11333720 -0.21428571
v 0.64005033 1.04190863 -0.21428571
v 0.56862176 1.11333720 -0.07142857
v 0.64005033 1.04190863 -0.07142857
v 0.56862176 1.11333720 0.07142857
v 0.64005033 1.04190863 0.07142857
v 0.56862176 1.11333720 0.21428571
v 0.64005033 1.04190863 0.21428571
v 0.56862176 1.11333720 0.35714286
v 0.64005033 1.04190863 0.35714286
v 0.64005033 1.04190863 0.50000000
v 0.71147890 -1.02951994 -0.35714286
v 0.71147890 -1.02951994 -0.21428571
v 0.71147890 -1.02951994 -0.07142857
v 0.71147890 -1.02951994 0.07142857
v 0.71147890 -1.02951994 0.21428571
v 0.71147890 -0.88666280 -0.64285714
v 0.71147890 -0.88666280 -0.50000000
v 0.78290747 -0.88666280 -0.42857143
v 0.78290747 -0.95809137 -0.35714286
v 0.78290747 -0.95809137 -0.21428571
v 0.78290747 -0.95809137 -0.07142857
v 0.78290747 -0.95809137 0.07142857
v 0.78290747 -0.88666280 0.14285714
v 0.71147890 -0.88666280 0.21428571
v 0.71147890 -0.88666280 0.35714286
v 0.71147890 -0.88666280 0.50000000
v 0.71147890 -0.88666280 0.64285714
v 0.71147890 -0.88666280 0.78571429
v 0.71147890 -0.74380565 -0.78571429
v 0.78290747 -0.74380565 -0.71428571
v 0.78290747 -0.81523422 -0.64285714
v 0.78290747 -0.81523422 -0.50000000
v 0.78290747 -0.81523422 0.21428571
v 0.78290747 -0.81523422 0.35714286
v 0.78290747 -0.81523422 0.50000000
v 0.78290747 -0.81523422 0.64285714
v 0.78290747 -0.81523422 0.78571429
v 0.78290747 -0.81523422 0.92857143
v 0.78290747 -0.74380565 1.00000000
v 0.78290747 -0.60094851 -0.85714286
v 0.78290747 -0.67237708 -0.78571429
v 0.78290747 -0.60094851 1.00000000
v 0.78290747 -0.45809137 -0.85714286
v 0.78290747 -0.45809137 1.00000000
v 0.71147890 -0.31523422 -0.92857143
v 0.78290747 -0.31523422 -0.85714286
v 0.78290747 -0.31523422 1.00000000
v 0.71147890 -0.17237708 -0.92857143
v 0.78290747 -0.17237708 -0.85714286
v 0.78290747 -0.17237708 1.00000000
v 0.71147890 -0.02951994 -0.92857143
v 0.78290747 -0.02951994 -0.85714286
v 0.78290747 -0.02951994 1.00000000
v 0.71147890 0.11333720 -0.92857143
v 0.78290747 0.11333720 -0.85714286
v 0.78290747 0.11333720 1.00000000
v 0.71147890 0.25619435 -0.92857143
v 0.78290747 0.25619435 -0.85714286
v 0.78290747 0.25619435 1.00000000
v 0.71147890 0.39905149 -0.92857143
v 0.78290747 0.39905149 -0.85714286
v 0.78290747 0.39905149 1.00000000
v 0.78290747 0.54190863 -0.85714286
v 0.71147890 0.54190863 0.92857143
v 0.78290747 0.47048006 0.92857143
v 0.78290747 0.54190863 0.85714286
v 0.78290747 0.68476578 -0.85714286
v 0.71147890 0.68476578 0.92857143
v 0.78290747 0.68476578 0.85714286
v 0.78290747 0.75619435 -0.78571429
v 0.71147890 0.82762292 -0.78571429
v 0.78290747 0.82762292 -0.71428571
v 0.71147890 0.82762292 0.78571429
v 0.78290747 0.75619435 0.78571429
v 0.78290747 0.82762292 0.71428571
v 0.71147890 0.97048006 -0.64285714
v 0.78290747 0.89905149 -0.64285714
v 0.71147890 0.97048006 -0.50000000
v 0.78290747 0.89905149 -0.50000000
v 0.71147890 0.97048006 -0.35714286
v 0.78290747 0.89905149 -0.35714286
v 0.71147890 0.97048006 -0.21428571
v 0.78290747 0.89905149 -0.21428571
v 0.71147890 0.97048006 -0.07142857
v 0.78290747 0.89905149 -0.07142857
v 0.71147890 0.97048006 0.07142857
v 0.78290747 0.89905149 0.07142857
v 0.71147890 0.97048006 0.21428571
v 0.78290747 0.89905149 0.21428571
v 0.71147890 0.97048006 0.35714286
v 0.78290747 0.89905149 0.35714286
v 0.71147890 0.97048006 0.50000000
v 0.78290747 0.89905149 0.50000000
v 0.78290747 0.89905149 0.64285714
v 0.85433604 -0.88666280 -0.35714286
v 0.85433604 -0.88666280 -0.21428571
v 0.85433604 -0.88666280 -0.07142857
v 0.85433604 -0.88666280 0.07142857
v 0.85433604 -0.74380565 -0.64285714
v 0.85433604 -0.74380565 -0.50000000
v 0.85433604 -0.74380565 -0.35714286
v 0.92576461 -0.74380565 -0.28571429
v 0.92576461 -0.81523422 -0.21428571
v 0.92576461 -0.74380565 -0.14285714
v 0.85433604 -0.74380565 -0.07142857
v 0.85433604 -0.74380565 0.07142857
v 0.85433604 -0.74380565 0.21428571
v 0.85433604 -0.74380565 0.35714286
v 0.85433604 -0.74380565 0.50000000
v 0.85433604 -0.74380565 0.64285714
v 0.85433604 -0.74380565 0.78571429
v 0.85433604 -0.74380565 0.92857143
v 0.85433604 -0.60094851 -0.78571429
v 0.92576461 -0.60094851 -0.71428571
v 0.92576461 -0.67237708 -0.64285714
v 0.92576461 -0.67237708 -0.50000000
v 0.92576461 -0.67237708 -0.35714286
v 0.92576461 -0.67237708 -0.07142857
v 0.92576461 -0.67237708 0.07142857
v 0.92576461 -0.67237708 0.21428571
v 0.92576461 -0.67237708 0.35714286
v 0.92576461 -0.67237708 0.50000000
v 0.92576461 -0.67237708 0.64285714
v 0.92576461 -0.67237708 0.78571429
v 0.92576461 -0.60094851 0.85714286
v 0.85433604 -0.60094851 0.92857143
v 0.85433604 -0.45809137 -0.78571429
v 0.92576461 -0.45809137 -0.71428571
v 0.85433604 -0.45809137 0.92857143
v 0.92576461 -0.45809137 0.85714286
v 0.85433604 -0.31523422 -0.78571429
v 0.92576461 -0.31523422 -0.71428571
v 0.85433604 -0.31523422 0.92857143
v 0.92576461 -0.31523422 0.85714286
v 0.92576461 -0.17237708 -0.85714286
v 0.92576461 -0.24380565 -0.78571429
v 0.85433604 -0.17237708 0.92857143
v 0.92576461 -0.17237708 0.85714286
v 0.92576461 -0.02951994 -0.85714286
v 0.92576461 -0.10094851 0.92857143
v 0.92576461 -0.02951994 1.00000000
v 0.92576461 0.11333720 -0.85714286
v 0.92576461 0.11333720 1.00000000
v 0.92576461 0.25619435 -0.85714286
v 0.92576461 0.25619435 1.00000000
v 0.92576461 0.39905149 -0.85714286
v 0.85433604 0.39905149 0.92857143
v 0.92576461 0.32762292 0.92857143
v 0.92576461 0.39905149 0.85714286
v 0.92576461 0.47048006 -0.78571429
v 0.85433604 0.54190863 -0.78571429
v 0.92576461 0.54190863 -0.71428571
v 0.85433604 0.54190863 0.78571429
v 0.92576461 0.47048006 0.78571429
v 0.92576461 0.54190863 0.71428571
v 0.85433604 0.68476578 -0.78571429
v 0.92576461 0.68476578 -0.71428571
v 0.85433604 0.68476578 0.78571429
v 0.92576461 0.68476578 0.71428571
v 0.85433604 0.82762292 -0.64285714
v 0.92576461 0.75619435 -0.64285714
v 0.85433604 0.82762292 -0.50000000
v 0.92576461 0.75619435 -0.50000000
v 0.85433604 0.82762292 -0.35714286
v 0.92576461 0.75619435 -0.35714286
v 0.85433604 0.82762292 -0.21428571
v 0.92576461 0.75619435 -0.21428571
v 0.85433604 0.82762292 -0.07142857
v 0.92576461 0.75619435 -0.07142857
v 0.85433604 0.82762292 0.07142857
v 0.92576461 0.75619435 0.07142857
v 0.85433604 0.82762292 0.21428571
v 0.92576461 0.75619435 0.21428571
v 0.85433604 0.82762292 0.35714286
v 0.92576461 0.75619435 0.35714286
v 0.85433604 0.82762292 0.50000000
v 0.92576461 0.75619435 0.50000000
v 0.85433604 0.82762292 0.64285714
v 0.92576461 0.75619435 0.64285714
v 0.99719319 -0.74380565 -0.21428571
v 0.99719319 -0.60094851 -0.64285714
v 0.99719319 -0.60094851 -0.50000000
v 0.99719319 -0.60094851 -0.35714286
v 0.99719319 -0.60094851 -0.21428571
v 0.99719319 -0.60094851 -0.07142857
v 0.99719319 -0.60094851 0.07142857
v 0.99719319 -0.60094851 0.21428571
v 0.99719319 -0.60094851 0.35714286
v 0.99719319 -0.60094851 0.50000000
v 0.99719319 -0.60094851 0.64285714
v 0.99719319 -0.60094851 0.78571429
v 0.99719319 -0.45809137 -0.64285714
v 0.99719319 -0.45809137 -0.50000000
v 1.06862176 -0.45809137 -0.42857143
v 1.06862176 -0.52951994 -0.35714286
v 1.06862176 -0.52951994 -0.21428571
v 1.06862176 -0.52951994 -0.07142857
v 1.06862176 -0.52951994 0.07142857
v 1.06862176 -0.52951994 0.21428571
v 1.06862176 -0.45809137 0.28571429
v 0.99719319 -0.45809137 0.35714286
v 0.99719319 -0.45809137 0.50000000
v 0.99719319 -0.45809137 0.64285714
v 0.99719319 -0.45809137 0.78571429
v 0.99719319 -0.31523422 -0.64285714
v 1.06862176 -0.31523422 -0.57142857
v 1.06862176 -0.38666280 -0.50000000
v 1.06862176 -0.38666280 0.35714286
v 1.06862176 -0.38666280 0.50000000
v 1.06862176 -0.38666280 0.64285714
v 1.06862176 -0.38666280 0.78571429
v 1.06862176 -0.31523422 0.85714286
v 0.99719319 -0.17237708 -0.78571429
v 1.06862176 -0.17237708 -0.71428571
v 1.06862176 -0.24380565 -0.64285714
v 1.06862176 -0.17237708 0.85714286
v 0.99719319 -0.02951994 -0.78571429
v 1.06862176 -0.02951994 -0.71428571
v 1.06862176 -0.10094851 0.92857143
v 1.06862176 -0.02951994 1.00000000
v 0.99719319 0.11333720 -0.78571429
v 1.06862176 0.11333720 -0.71428571
v 1.06862176 0.11333720 1.00000000
v 0.99719319 0.25619435 -0.78571429
v 1.06862176 0.25619435 -0.71428571
v 1.06862176 0.25619435 1.00000000
v 0.99719319 0.39905149 -0.78571429
v 1.06862176 0.39905149 -0.71428571
v 0.99719319 0.39905149 0.78571429
v 1.06862176 0.32762292 0.78571429
v 1.06862176 0.39905149 0.71428571
v 1.06862176 0.32762292 0.92857143
v 0.99719319 0.54190863 -0.64285714
v 1.06862176 0.47048006 -0.64285714
v 1.06862176 0.54190863 -0.57142857
v 0.99719319 0.54190863 0.50000000
v 1.06862176 0.47048006 0.50000000
v 1.06862176 0.54190863 0.42857143
v 0.99719319 0.54190863 0.64285714
v 1.06862176 0.47048006 0.64285714
v 0.99719319 0.68476578 -0.64285714
v 1.06862176 0.61333720 -0.50000000
v 0.99719319 0.68476578 -0.50000000
v 0.99719319 0.68476578 -0.35714286
v 1.06862176 0.61333720 -0.35714286
v 0.99719319 0.68476578 -0.21428571
v 1.06862176 0.61333720 -0.21428571
v 0.99719319 0.68476578 -0.07142857
v 1.06862176 0.61333720 -0.07142857
v 0.99719319 0.68476578 0.07142857
v 1.06862176 0.61333720 0.07142857
v 0.99719319 0.68476578 0.21428571
v 1.06862176 0.61333720 0.21428571
v 0.99719319 0.68476578 0.35714286
v 1.06862176 0.61333720 0.35714286
v 0.99719319 0.68476578 0.50000000
v 0.99719319 0.68476578 0.64285714
v 1.14005033 -0.45809137 -0.35714286
v 1.14005033 -0.45809137 -0.21428571
v 1.14005033 -0.45809137 -0.07142857
v 1.14005033 -0.45809137 0.07142857
v 1.14005033 -0.45809137 0.21428571
v 1.14005033 -0.31523422 -0.50000000
v 1.14005033 -0.31523422 -0.35714286
v 1.21147890 -0.31523422 -0.28571429
v 1.21147890 -0.38666280 -0.21428571
v 1.21147890 -0.31523422 -0.14285714
v 1.14005033 -0.31523422 -0.07142857
v 1.14005033 -0.31523422 0.07142857
v 1.14005033 -0.31523422 0.21428571
v 1.14005033 -0.31523422 0.35714286
v 1.14005033 -0.31523422 0.50000000
v 1.14005033 -0.31523422 0.64285714
v 1.14005033 -0.31523422 0.78571429
v 1.14005033 -0.17237708 -0.64285714
v 1.21147890 -0.17237708 -0.57142857
v 1.21147890 -0.24380565 -0.50000000
v 1.21147890 -0.24380565 -0.35714286
v 1.21147890 -0.24380565 -0.07142857
v 1.21147890 -0.24380565 0.07142857
v 1.21147890 -0.24380565 0.21428571
v 1.21147890 -0.17237708 0.28571429
v 1.14005033 -0.17237708 0.35714286
v 1.14005033 -0.17237708 0.50000000
v 1.14005033 -0.17237708 0.64285714
v 1.14005033 -0.17237708 0.78571429
v 1.14005033 -0.02951994 -0.64285714
v 1.21147890 -0.02951994 -0.57142857
v 1.21147890 -0.10094851 0.35714286
v 1.21147890 -0.10094851 0.50000000
v 1.21147890 -0.10094851 0.64285714
v 1.21147890 -0.10094851 0.78571429
v 1.21147890 -0.10094851 0.92857143
v 1.21147890 -0.02951994 1.00000000
v 1.21147890 0.11333720 -0.71428571
v 1.21147890 0.04190863 -0.64285714
v 1.21147890 0.11333720 1.00000000
v 1.21147890 0.18476578 -0.64285714
v 1.14005033 0.25619435 -0.64285714
v 1.21147890 0.25619435 -0.57142857
v 1.14005033 0.25619435 0.50000000
v 1.21147890 0.18476578 0.50000000
v 1.21147890 0.25619435 0.42857143
v 1.14005033 0.25619435 0.64285714
v 1.21147890 0.18476578 0.64285714
v 1.14005033 0.25619435 0.78571429
v 1.21147890 0.18476578 0.78571429
v 1.14005033 0.25619435 0.92857143
v 1.21147890 0.18476578 0.92857143
v 1.14005033 0.39905149 -0.64285714
v 1.21147890 0.32762292 -0.50000000
v 1.14005033 0.39905149 -0.50000000
v 1.21147890 0.39905149 -0.42857143
v 1.14005033 0.39905149 0.35714286
v 1.21147890 0.32762292 0.35714286
v 1.21147890 0.39905149 0.28571429
v 1.14005033 0.39905149 0.50000000
v 1.14005033 0.39905149 0.64285714
v 1.14005033 0.54190863 -0.50000000
v 1.21147890 0.47048006 -0.35714286
v 1.14005033 0.54190863 -0.35714286
v 1.14005033 0.54190863 -0.21428571
v 1.21147890 0.47048006 -0.21428571
v 1.14005033 0.54190863 -0.07142857
v 1.21147890 0.47048006 -0.07142857
v 1.14005033 0.54190863 0.07142857
v 1.21147890 0.47048006 0.07142857
v 1.14005033 0.54190863 0.21428571
v 1.21147890 0.47048006 0.21428571
v 1.14005033 0.54190863 0.35714286
v 1.28290747 -0.31523422 -0.21428571
v 1.28290747 -0.17237708 -0.50000000
v 1.28290747 -0.17237708 -0.35714286
v 1.28290747 -0.17237708 -0.21428571
v 1.28290747 -0.17237708 -0.07142857
v 1.28290747 -0.17237708 0.07142857
v 1.28290747 -0.17237708 0.21428571
v 1.28290747 -0.02951994 -0.50000000
v 1.28290747 -0.02951994 -0.35714286
v 1.28290747 -0.02951994 -0.21428571
v 1.28290747 -0.02951994 -0.07142857
v 1.28290747 -0.02951994 0.07142857
v 1.28290747 -0.02951994 0.21428571
v 1.28290747 -0.02951994 0.35714286
v 1.28290747 -0.02951994 0.50000000
v 1.28290747 -0.02951994 0.64285714
v 1.28290747 -0.02951994 0.78571429
v 1.28290747 -0.02951994 0.92857143
v 1.28290747 0.11333720 -0.64285714
v 1.28290747 0.11333720 -0.50000000
v 1.28290747 0.11333720 -0.35714286
v 1.28290747 0.11333720 -0.21428571
v 1.28290747 0.11333720 -0.07142857
v 1.28290747 0.11333720 0.07142857
v 1.28290747 0.11333720 0.21428571
v 1.28290747 0.11333720 0.35714286
v 1.28290747 0.11333720 0.50000000
v 1.28290747 0.11333720 0.64285714
v 1.28290747 0.11333720 0.78571429
v 1.28290747 0.11333720 0.92857143
v 1.28290747 0.25619435 -0.50000000
v 1.28290747 0.25619435 -0.35714286
v 1.28290747 0.25619435 -0.21428571
v 1.28290747 0.25619435 -0.07142857
v 1.28290747 0.25619435 0.07142857
v 1.28290747 0.25619435 0.21428571
v 1.28290747 0.25619435 0.35714286
v 1.28290747 0.39905149 -0.35714286
v 1.28290747 0.39905149 -0.21428571
v 1.28290747 0.39905149 -0.07142857
v 1.28290747 0.39905149 0.07142857
v 1.28290747 0.39905149 0.21428571
f 3 2 1
f 5 4 1
f 1 4 3
f 7 6 5
f 5 6 4
f 9 8 7
f 7 8 6
f 11 10 9
f 9 10 8
f 13 12 11
f 11 12 10
f 15 14 13
f 13 14 12
f 15 16 14
f 1 2 17
f 17 2 18
f 1 19 5
f 1 17 19
f 5 20 7
f 5 19 20
f 7 21 9
f 7 20 21
f 9 22 11
f 9 21 22
f 11 23 13
f 11 22 23
f 13 24 15
f 13 23 24
f 16 15 25
f 25 15 24
f 17 18 26
f 26 18 27
f 17 28 19
f 17 26 28
f 19 29 20
f 19 28 29
f 20 30 21
f 20 29 30
f 21 31 22
f 21 30 31
f 22 32 23
f 22 31 32
f 23 33 24
f 23 32 33
f 25 24 34
f 34 24 33
f 37 36 35
f 37 35 27
f 35 26 27
f 35 38 26
f 26 39 28
f 26 38 39
f 28 40 29
f 28 39 40
f 29 41 30
f 29 40 41
f 30 42 31
f 30 41 42
f 31 43 32
f 31 42 43
f 32 44 33
f 32 43 44
f 34 33 45
f 33 46 45
f 33 44 46
f 46 47 45
f 36 48 35
f 35 48 38
f 38 48 49
f 51 50 49
f 50 38 49
f 50 39 38
f 39 52 40
f 39 50 52
f 40 53 41
f 40 52 53
f 41 54 42
f 41 53 54
f 42 55 43
f 42 54 55
f 43 56 44
f 43 55 56
f 58 46 57
f 46 56 57
f 46 44 56
f 46 58 47
f 51 59 50
f 61 60 59
f 60 50 59
f 60 52 50
f 52 62 53
f 52 60 62
f 53 63 54
f 53 62 63
f 54 64 55
f 54 63 64
f 66 56 65
f 56 64 65
f 56 55 64
f 56 66 57
f 61 67 60
f 60 67 62
f 62 67 68
f 62 68 63
f 63 68 69
f 63 69 64
f 64 69 70
f 64 70 65
f 73 72 71
f 75 74 71
f 71 74 73
f 77 76 75
f 75 76 74
f 79 78 77
f 77 78 76
f 81 80 79
f 79 80 78
f 81 82 80
f 85 84 83
f 85 83 72
f 83 71 72
f 83 86 71
f 71 87 75
f 71 86 87
f 75 88 77
f 75 87 88
f 77 89 79
f 77 88 89
f 79 90 81
f 79 89 90
f 82 81 91
f 81 92 91
f 81 90 92
f 94 93 92
f 92 93 91
f 94 95 93
f 98 97 96
f 98 96 84
f 84 96 83
f 96 2 83
f 2 3 83
f 83 3 4
f 83 4 86
f 86 4 6
f 86 6 87
f 87 6 8
f 87 8 88
f 88 8 10
f 88 10 89
f 89 10 12
f 89 12 90
f 90 12 14
f 90 14 92
f 92 14 16
f 99 92 16
f 94 92 99
f 95 94 100
f 100 94 99
f 96 97 101
f 101 97 102
f 101 18 2
f 101 2 96
f 25 103 99
f 25 99 16
f 100 99 104
f 104 99 103
f 101 102 105
f 105 102 106
f 105 27 18
f 105 18 101
f 34 107 103
f 34 103 25
f 104 103 108
f 103 109 108
f 103 107 109
f 109 110 108
f 105 106 37
f 106 36 37
f 106 111 36
f 105 37 27
f 45 107 34
f 107 45 47
f 112 107 47
f 109 107 112
f 110 109 113
f 113 109 112
f 48 36 114
f 36 115 114
f 36 111 115
f 116 49 48
f 116 48 114
f 116 51 49
f 57 117 58
f 112 47 58
f 117 112 58
f 118 112 117
f 113 112 119
f 119 112 118
f 115 120 114
f 122 121 120
f 121 114 120
f 121 116 114
f 123 59 51
f 116 123 51
f 121 123 116
f 123 61 59
f 65 124 66
f 117 57 66
f 124 117 66
f 125 117 124
f 127 118 126
f 118 125 126
f 118 117 125
f 118 127 119
f 121 122 128
f 128 122 129
f 121 130 123
f 121 128 130
f 131 67 61
f 123 131 61
f 130 131 123
f 132 68 67
f 132 67 131
f 133 69 68
f 133 68 132
f 134 70 69
f 134 69 133
f 124 65 70
f 134 124 70
f 135 124 134
f 137 125 136
f 125 135 136
f 125 124 135
f 125 137 126
f 129 138 128
f 128 138 130
f 130 138 139
f 141 140 139
f 140 130 139
f 140 131 130
f 131 142 132
f 131 140 142
f 132 143 133
f 132 142 143
f 133 144 134
f 133 143 144
f 146 135 145
f 135 144 145
f 135 134 144
f 135 146 136
f 141 147 140
f 140 147 142
f 142 147 148
f 142 148 143
f 143 148 149
f 143 149 144
f 144 149 150
f 144 150 145
f 153 152 151
f 155 154 151
f 151 154 153
f 157 156 155
f 155 156 154
f 159 158 157
f 157 158 156
f 161 160 159
f 159 160 158
f 161 162 160
f 165 164 163
f 167 166 163
f 163 166 165
f 166 167 152
f 152 167 151
f 167 72 151
f 72 73 151
f 151 73 74
f 151 74 155
f 155 74 76
f 155 76 157
f 157 76 78
f 157 78 159
f 159 78 80
f 159 80 161
f 169 168 82
f 82 168 80
f 168 162 80
f 162 161 80
f 171 170 169
f 169 170 168
f 173 172 171
f 171 172 170
f 173 174 172
f 163 164 175
f 175 164 176
f 175 84 85
f 167 175 85
f 163 175 167
f 167 85 72
f 91 169 82
f 169 91 93
f 169 93 171
f 171 93 95
f 177 171 95
f 173 171 177
f 174 173 178
f 178 173 177
f 181 180 179
f 181 179 176
f 176 179 175
f 179 97 175
f 97 98 175
f 175 98 84
f 100 182 177
f 100 177 95
f 178 177 183
f 183 177 182
f 179 180 184
f 184 180 185
f 184 102 97
f 184 97 179
f 104 186 182
f 104 182 100
f 183 182 187
f 182 188 187
f 182 186 188
f 188 189 187
f 184 185 190
f 190 185 191
f 190 106 102
f 190 102 184
f 108 186 104
f 186 108 110
f 192 186 110
f 188 186 192
f 189 188 193
f 193 188 192
f 190 191 194
f 194 191 195
f 194 111 106
f 194 106 190
f 113 196 192
f 113 192 110
f 193 192 197
f 197 192 196
f 200 199 198
f 200 198 195
f 198 194 195
f 198 201 194
f 201 115 111
f 201 111 194
f 119 202 196
f 119 196 113
f 197 196 203
f 196 204 203
f 196 202 204
f 204 205 203
f 199 206 198
f 208 207 206
f 207 198 206
f 207 201 198
f 209 120 115
f 201 209 115
f 207 209 201
f 209 122 120
f 126 210 127
f 202 119 127
f 210 202 127
f 211 202 210
f 213 204 212
f 204 211 212
f 204 202 211
f 204 213 205
f 207 208 214
f 214 208 215
f 207 216 209
f 207 214 216
f 216 129 122
f 216 122 209
f 136 217 137
f 210 126 137
f 217 210 137
f 218 210 217
f 220 211 219
f 211 218 219
f 211 210 218
f 211 220 212
f 215 221 214
f 223 222 221
f 222 214 221
f 222 216 214
f 224 138 129
f 216 224 129
f 222 224 216
f 225 139 138
f 225 138 224
f 225 141 139
f 145 226 146
f 217 136 146
f 226 217 146
f 227 217 226
f 229 218 228
f 218 227 228
f 218 217 227
f 218 229 219
f 223 230 222
f 222 230 224
f 224 230 231
f 224 231 225
f 225 231 232
f 232 234 233
f 232 233 147
f 225 232 147
f 141 225 147
f 235 148 147
f 235 147 233
f 236 149 148
f 236 148 235
f 149 236 237
f 238 149 237
f 150 149 238
f 145 150 226
f 150 239 226
f 150 238 239
f 226 239 227
f 227 239 240
f 227 240 228
f 234 241 233
f 233 241 235
f 235 241 242
f 235 242 236
f 236 242 243
f 236 243 237
f 246 245 244
f 248 247 244
f 244 247 246
f 250 249 248
f 248 249 247
f 252 251 250
f 250 251 249
f 254 253 252
f 252 253 251
f 254 255 253
f 258 257 256
f 260 259 256
f 256 259 258
f 259 260 245
f 245 260 244
f 260 152 244
f 152 153 244
f 244 153 154
f 244 154 248
f 248 154 156
f 248 156 250
f 250 156 158
f 250 158 252
f 252 158 160
f 252 160 254
f 262 261 162
f 162 261 160
f 261 255 160
f 255 254 160
f 264 263 262
f 262 263 261
f 266 265 264
f 264 265 263
f 266 267 265
f 270 269 268
f 270 268 257
f 257 268 256
f 268 164 256
f 164 165 256
f 256 165 166
f 256 166 260
f 260 166 152
f 168 262 162
f 262 168 170
f 262 170 264
f 264 170 172
f 264 172 266
f 272 271 174
f 174 271 172
f 271 267 172
f 267 266 172
f 272 273 271
f 276 275 274
f 276 274 269
f 274 268 269
f 274 277 268
f 277 176 164
f 277 164 268
f 178 278 272
f 178 272 174
f 273 272 279
f 279 272 278
f 274 275 280
f 280 275 281
f 280 180 181
f 277 280 181
f 274 280 277
f 277 181 176
f 183 282 278
f 183 278 178
f 279 278 283
f 283 278 282
f 280 281 284
f 284 281 285
f 284 185 180
f 284 180 280
f 187 282 183
f 287 286 189
f 189 286 187
f 286 283 187
f 283 282 187
f 287 288 286
f 284 285 289
f 289 285 290
f 289 191 185
f 289 185 284
f 193 291 287
f 193 287 189
f 288 287 292
f 292 287 291
f 289 290 293
f 293 290 294
f 293 195 191
f 293 191 289
f 197 295 291
f 197 291 193
f 292 291 296
f 296 291 295
f 293 294 200
f 294 199 200
f 294 297 199
f 293 200 195
f 203 295 197
f 203 205 295
f 205 296 295
f 205 298 296
f 206 199 299
f 199 300 299
f 199 297 300
f 299 208 206
f 212 301 213
f 301 302 213
f 302 205 213
f 302 298 205
f 299 300 303
f 303 300 304
f 303 215 208
f 303 208 299
f 219 305 220
f 301 212 220
f 305 301 220
f 306 301 305
f 302 301 307
f 307 301 306
f 304 308 303
f 308 310 309
f 308 309 221
f 303 308 221
f 215 303 221
f 309 223 221
f 228 311 229
f 311 312 229
f 229 312 219
f 312 313 219
f 313 305 219
f 305 313 306
f 306 313 314
f 306 314 307
f 310 315 309
f 315 317 316
f 315 316 230
f 309 315 230
f 223 309 230
f 318 231 230
f 318 230 316
f 319 232 231
f 319 231 318
f 319 234 232
f 237 320 238
f 321 239 238
f 321 238 320
f 322 240 239
f 322 239 321
f 322 323 240
f 240 323 228
f 323 324 228
f 324 311 228
f 311 324 312
f 317 325 316
f 316 325 318
f 318 325 326
f 318 326 319
f 319 326 327
f 327 329 328
f 327 328 241
f 319 327 241
f 234 319 241
f 330 242 241
f 330 241 328
f 331 243 242
f 331 242 330
f 331 332 243
f 243 332 237
f 332 333 237
f 333 320 237
f 320 333 321
f 321 333 334
f 321 334 322
f 322 334 335
f 322 335 323
f 329 336 328
f 328 336 330
f 330 336 337
f 330 337 331
f 331 337 338
f 331 338 332
f 341 340 339
f 343 342 339
f 339 342 341
f 345 344 343
f 343 344 342
f 347 346 345
f 345 346 344
f 347 348 346
f 351 350 349
f 353 352 349
f 349 352 351
f 245 246 353
f 246 352 353
f 246 354 352
f 247 339 340
f 354 247 340
f 246 247 354
f 339 247 249
f 339 249 343
f 343 249 251
f 343 251 345
f 345 251 253
f 345 253 347
f 356 355 255
f 255 355 253
f 355 348 253
f 348 347 253
f 358 357 356
f 356 357 355
f 360 359 358
f 358 359 357
f 360 361 359
f 364 363 362
f 364 362 350
f 350 362 349
f 362 257 349
f 257 258 349
f 349 258 259
f 349 259 353
f 353 259 245
f 261 356 255
f 356 261 263
f 356 263 358
f 358 263 265
f 358 265 360
f 366 365 267
f 267 365 265
f 365 361 265
f 361 360 265
f 366 367 365
f 362 363 270
f 363 269 270
f 363 368 269
f 362 270 257
f 271 366 267
f 271 273 366
f 273 367 366
f 273 369 367
f 371 370 276
f 276 370 275
f 276 269 368
f 276 368 371
f 279 373 372
f 369 279 372
f 273 279 369
f 373 374 372
f 370 281 275
f 375 281 370
f 283 376 373
f 283 373 279
f 374 373 377
f 377 373 376
f 375 285 281
f 378 285 375
f 286 376 283
f 286 288 376
f 288 377 376
f 288 379 377
f 378 290 285
f 380 290 378
f 292 379 288
f 292 381 379
f 380 294 290
f 382 294 380
f 296 381 292
f 296 383 381
f 382 297 294
f 384 297 382
f 298 383 296
f 298 385 383
f 384 300 297
f 386 300 384
f 302 385 298
f 302 387 385
f 386 304 300
f 388 304 386
f 307 387 302
f 307 389 387
f 308 304 390
f 304 391 390
f 304 388 391
f 390 310 308
f 312 392 313
f 393 314 313
f 393 313 392
f 393 394 314
f 394 307 314
f 394 389 307
f 391 395 390
f 395 397 396
f 395 396 315
f 390 395 315
f 310 390 315
f 396 317 315
f 323 398 324
f 398 399 324
f 324 399 312
f 399 400 312
f 400 392 312
f 392 400 393
f 393 400 401
f 393 401 394
f 397 402 396
f 402 404 403
f 402 403 325
f 396 402 325
f 317 396 325
f 405 326 325
f 405 325 403
f 406 327 326
f 406 326 405
f 406 329 327
f 332 407 333
f 408 334 333
f 408 333 407
f 409 335 334
f 409 334 408
f 409 410 335
f 335 410 323
f 410 411 323
f 411 398 323
f 398 411 399
f 404 412 403
f 403 412 405
f 405 412 413
f 405 413 406
f 406 413 414
f 414 416 415
f 414 415 336
f 406 414 336
f 329 406 336
f 417 337 336
f 417 336 415
f 418 338 337
f 418 337 417
f 418 419 338
f 338 419 332
f 419 420 332
f 420 407 332
f 407 420 408
f 408 420 421
f 408 421 409
f 409 421 422
f 409 422 410
f 416 423 415
f 415 423 417
f 417 423 424
f 417 424 418
f 418 424 425
f 418 425 419
f 428 427 426
f 430 429 426
f 426 429 428
f 340 341 430
f 341 429 430
f 341 431 429
f 432 341 342
f 432 431 341
f 433 342 344
f 433 432 342
f 434 344 346
f 434 433 344
f 436 435 348
f 435 346 348
f 435 434 346
f 438 437 436
f 436 437 435
f 438 439 437
f 441 440 351
f 351 440 350
f 352 426 427
f 441 352 427
f 351 352 441
f 426 352 354
f 426 354 430
f 430 354 340
f 355 436 348
f 436 355 357
f 436 357 438
f 442 439 438
f 357 442 438
f 359 442 357
f 359 361 442
f 442 361 443
f 445 444 364
f 364 444 363
f 364 350 440
f 364 440 445
f 446 443 361
f 446 361 365
f 365 367 446
f 446 367 447
f 450 449 448
f 444 450 448
f 368 444 448
f 363 444 368
f 369 452 451
f 447 369 451
f 367 369 447
f 452 453 451
f 448 449 371
f 449 370 371
f 449 454 370
f 448 371 368
f 372 452 369
f 372 374 452
f 374 453 452
f 374 455 453
f 454 375 370
f 456 375 454
f 377 455 374
f 377 457 455
f 456 378 375
f 458 378 456
f 379 457 377
f 379 459 457
f 458 380 378
f 460 380 458
f 381 459 379
f 381 461 459
f 460 382 380
f 462 382 460
f 383 461 381
f 383 463 461
f 462 384 382
f 464 384 462
f 385 463 383
f 385 465 463
f 464 386 384
f 466 386 464
f 387 465 385
f 387 467 465
f 466 388 386
f 468 388 466
f 389 467 387
f 389 469 467
f 468 391 388
f 470 391 468
f 394 469 389
f 394 471 469
f 395 391 472
f 391 473 472
f 391 470 473
f 472 397 395
f 399 474 400
f 400 474 475
f 476 400 475
f 401 400 476
f 394 401 471
f 471 401 476
f 473 477 472
f 477 479 478
f 477 478 402
f 472 477 402
f 397 472 402
f 478 404 402
f 410 480 411
f 480 481 411
f 411 481 399
f 481 482 399
f 482 474 399
f 474 482 475
f 479 483 478
f 478 483 404
f 483 412 404
f 483 484 412
f 484 486 485
f 413 484 485
f 412 484 413
f 487 414 413
f 487 413 485
f 487 416 414
f 419 488 420
f 489 421 420
f 489 420 488
f 421 489 490
f 491 421 490
f 422 421 491
f 410 422 480
f 422 492 480
f 422 491 492
f 480 492 481
f 486 493 485
f 485 493 487
f 487 493 494
f 487 494 416
f 494 423 416
f 494 495 423
f 423 496 424
f 495 496 423
f 424 497 425
f 496 497 424
f 419 425 488
f 425 498 488
f 425 497 498
f 488 498 489
f 489 498 499
f 489 499 490
f 502 501 500
f 504 503 500
f 500 503 502
f 506 505 504
f 504 505 503
f 508 507 506
f 506 507 505
f 510 509 508
f 508 509 507
f 512 511 510
f 510 511 509
f 512 513 511
f 515 514 428
f 428 514 427
f 429 500 501
f 515 429 501
f 428 429 515
f 500 429 431
f 500 431 504
f 504 431 432
f 504 432 506
f 506 432 433
f 506 433 508
f 508 433 434
f 508 434 510
f 510 434 435
f 510 435 512
f 516 513 512
f 435 516 512
f 437 516 435
f 437 439 516
f 516 439 517
f 520 519 518
f 440 441 518
f 441 520 518
f 441 521 520
f 441 427 514
f 441 514 521
f 522 517 439
f 522 439 442
f 524 523 443
f 523 442 443
f 523 522 442
f 524 525 523
f 528 527 526
f 528 526 519
f 519 526 518
f 526 444 518
f 444 445 518
f 518 445 440
f 446 524 443
f 446 447 524
f 447 525 524
f 447 529 525
f 526 527 450
f 527 449 450
f 527 530 449
f 526 450 444
f 531 529 447
f 531 447 451
f 451 453 531
f 531 453 532
f 530 454 449
f 533 454 530
f 455 532 453
f 455 534 532
f 533 456 454
f 535 456 533
f 457 534 455
f 457 536 534
f 535 458 456
f 537 458 535
f 459 536 457
f 459 538 536
f 537 460 458
f 539 460 537
f 461 538 459
f 461 540 538
f 539 462 460
f 541 462 539
f 463 540 461
f 463 542 540
f 541 464 462
f 543 464 541
f 465 542 463
f 465 544 542
f 543 466 464
f 545 466 543
f 467 544 465
f 467 546 544
f 545 468 466
f 547 468 545
f 469 546 467
f 469 548 546
f 547 470 468
f 549 470 547
f 471 548 469
f 471 550 548
f 549 473 470
f 551 473 549
f 475 552 476
f 552 553 476
f 553 471 476
f 553 550 471
f 551 554 473
f 473 554 477
f 479 477 554
f 479 554 555
f 481 556 482
f 556 557 482
f 482 557 475
f 557 558 475
f 558 552 475
f 552 558 553
f 555 559 479
f 479 559 483
f 559 561 560
f 484 559 560
f 483 559 484
f 560 486 484
f 490 562 491
f 491 562 563
f 564 491 563
f 492 491 564
f 481 492 556
f 492 565 556
f 492 564 565
f 556 565 557
f 561 566 560
f 560 566 486
f 566 493 486
f 566 567 493
f 567 569 568
f 494 567 568
f 493 567 494
f 570 495 494
f 570 494 568
f 571 496 495
f 571 495 570
f 572 497 496
f 572 496 571
f 573 498 497
f 573 497 572
f 574 499 498
f 574 498 573
f 574 575 499
f 499 575 490
f 575 576 490
f 576 562 490
f 562 576 563
f 569 577 568
f 568 577 570
f 570 577 578
f 570 578 571
f 571 578 579
f 571 579 572
f 572 579 580
f 572 580 573
f 573 580 581
f 573 581 574
f 574 581 582
f 574 582 575
f 585 584 583
f 501 502 583
f 502 585 583
f 502 586 585
f 587 502 503
f 587 586 502
f 588 503 505
f 588 587 503
f 589 505 507
f 589 588 505
f 590 507 509
f 590 589 507
f 591 509 511
f 591 590 509
f 593 592 513
f 592 511 513
f 592 591 511
f 593 594 592
f 597 596 595
f 597 595 584
f 584 595 583
f 595 514 583
f 514 515 583
f 583 515 501
f 516 593 513
f 599 598 517
f 517 598 516
f 598 594 516
f 594 593 516
f 599 600 598
f 602 601 520
f 520 601 519
f 521 595 596
f 602 521 596
f 520 521 602
f 595 521 514
f 522 599 517
f 603 600 599
f 522 603 599
f 523 603 522
f 523 525 603
f 603 525 604
f 606 605 528
f 528 605 527
f 528 519 601
f 528 601 606
f 529 604 525
f 529 607 604
f 605 530 527
f 608 530 605
f 609 607 529
f 609 529 531
f 531 532 609
f 609 532 610
f 608 533 530
f 611 533 608
f 534 610 532
f 534 612 610
f 611 535 533
f 613 535 611
f 536 612 534
f 536 614 612
f 613 537 535
f 615 537 613
f 538 614 536
f 538 616 614
f 615 539 537
f 617 539 615
f 540 616 538
f 540 618 616
f 617 541 539
f 619 541 617
f 542 618 540
f 542 620 618
f 619 543 541
f 621 543 619
f 544 620 542
f 544 622 620
f 621 545 543
f 623 545 621
f 546 622 544
f 546 624 622
f 623 547 545
f 625 547 623
f 548 624 546
f 548 626 624
f 625 549 547
f 627 549 625
f 550 626 548
f 550 628 626
f 627 551 549
f 629 551 627
f 553 628 550
f 553 630 628
f 554 551 631
f 551 632 631
f 551 629 632
f 631 555 554
f 634 633 558
f 634 558 557
f 553 558 630
f 630 558 633
f 632 635 631
f 631 635 555
f 635 559 555
f 635 636 559
f 561 559 636
f 561 636 637
f 639 638 564
f 639 564 563
f 564 640 565
f 638 640 564
f 557 565 634
f 634 565 640
f 637 641 561
f 561 641 566
f 641 643 642
f 567 641 642
f 566 641 567
f 642 569 567
f 645 644 576
f 645 576 575
f 563 576 639
f 639 576 644
f 643 646 642
f 642 646 569
f 646 577 569
f 646 647 577
f 577 648 578
f 647 648 577
f 578 649 579
f 648 649 578
f 579 650 580
f 649 650 579
f 580 651 581
f 650 651 580
f 581 652 582
f 651 652 581
f 575 582 645
f 645 582 652
f 655 654 653
f 584 585 653
f 585 655 653
f 585 656 655
f 657 585 586
f 657 656 585
f 658 586 587
f 658 657 586
f 659 587 588
f 659 658 587
f 660 588 589
f 660 659 588
f 661 589 590
f 661 660 589
f 662 590 591
f 662 661 590
f 663 591 592
f 663 662 591
f 665 664 594
f 664 592 594
f 664 663 592
f 667 666 665
f 665 666 664
f 669 668 667
f 667 668 666
f 669 670 668
f 653 654 597
f 654 596 597
f 654 671 596
f 653 597 584
f 598 665 594
f 665 598 600
f 672 665 600
f 667 665 672
f 667 673 669
f 667 672 673
f 670 669 674
f 674 669 673
f 676 675 602
f 602 675 601
f 602 596 671
f 602 671 676
f 603 672 600
f 672 603 604
f 677 672 604
f 673 672 677
f 674 673 678
f 678 673 677
f 680 679 606
f 606 679 605
f 606 601 675
f 606 675 680
f 607 681 677
f 607 677 604
f 678 677 682
f 682 677 681
f 679 608 605
f 683 608 679
f 609 681 607
f 609 610 681
f 610 682 681
f 610 684 682
f 683 611 608
f 685 611 683
f 612 684 610
f 612 686 684
f 685 613 611
f 687 613 685
f 614 686 612
f 614 688 686
f 687 615 613
f 689 615 687
f 616 688 614
f 616 690 688
f 689 617 615
f 691 617 689
f 618 690 616
f 618 692 690
f 691 619 617
f 693 619 691
f 620 692 618
f 620 694 692
f 693 621 619
f 695 621 693
f 622 694 620
f 622 696 694
f 695 623 621
f 697 623 695
f 624 696 622
f 624 698 696
f 697 625 623
f 699 625 697
f 626 698 624
f 626 700 698
f 699 627 625
f 701 627 699
f 628 700 626
f 628 702 700
f 701 629 627
f 703 629 701
f 630 702 628
f 630 704 702
f 703 632 629
f 705 632 703
f 634 706 633
f 706 707 633
f 707 630 633
f 707 704 630
f 705 708 632
f 632 708 635
f 708 710 709
f 636 708 709
f 635 708 636
f 709 637 636
f 639 711 638
f 638 711 712
f 713 638 712
f 640 638 713
f 634 640 706
f 640 714 706
f 640 713 714
f 706 714 707
f 710 715 709
f 709 715 637
f 715 641 637
f 715 716 641
f 643 641 716
f 643 716 717
f 719 718 644
f 719 644 645
f 639 644 711
f 644 720 711
f 644 718 720
f 711 720 712
f 717 721 643
f 643 721 646
f 646 722 647
f 721 722 646
f 647 723 648
f 722 723 647
f 648 724 649
f 723 724 648
f 649 725 650
f 724 725 649
f 650 726 651
f 725 726 650
f 651 727 652
f 726 727 651
f 645 652 719
f 719 652 727
f 730 729 728
f 732 731 728
f 728 731 730
f 734 733 732
f 732 733 731
f 736 735 734
f 734 735 733
f 738 737 736
f 736 737 735
f 740 739 738
f 738 739 737
f 742 741 740
f 740 741 739
f 744 743 742
f 742 743 741
f 746 745 744
f 744 745 743
f 748 747 746
f 746 747 745
f 748 749 747
f 751 750 655
f 655 750 654
f 752 655 656
f 752 751 655
f 657 728 729
f 752 657 729
f 656 657 752
f 728 657 658
f 728 658 732
f 732 658 659
f 732 659 734
f 734 659 660
f 734 660 736
f 736 660 661
f 736 661 738
f 738 661 662
f 738 662 740
f 740 662 663
f 740 663 742
f 742 663 664
f 742 664 744
f 744 664 666
f 744 666 746
f 746 666 668
f 746 668 748
f 668 670 748
f 670 749 748
f 670 753 749
f 750 671 654
f 754 671 750
f 674 753 670
f 674 755 753
f 757 756 676
f 676 756 675
f 676 671 754
f 676 754 757
f 678 755 674
f 678 758 755
f 760 759 680
f 680 759 679
f 680 675 756
f 680 756 760
f 682 758 678
f 682 761 758
f 759 683 679
f 762 683 759
f 684 761 682
f 684 763 761
f 762 685 683
f 764 685 762
f 686 763 684
f 686 765 763
f 764 687 685
f 766 687 764
f 688 765 686
f 688 767 765
f 766 689 687
f 768 689 766
f 690 767 688
f 690 769 767
f 768 691 689
f 770 691 768
f 692 769 690
f 692 771 769
f 770 693 691
f 772 693 770
f 694 771 692
f 694 773 771
f 772 695 693
f 774 695 772
f 696 773 694
f 696 775 773
f 774 697 695
f 776 697 774
f 698 775 696
f 698 777 775
f 776 699 697
f 778 699 776
f 700 777 698
f 700 779 777
f 778 701 699
f 780 701 778
f 702 779 700
f 702 781 779
f 780 703 701
f 782 703 780
f 704 781 702
f 704 783 781
f 782 705 703
f 784 705 782
f 707 783 704
f 707 785 783
f 784 786 705
f 705 786 708
f 710 708 786
f 710 786 787
f 789 788 713
f 789 713 712
f 713 790 714
f 788 790 713
f 707 714 785
f 785 714 790
f 787 791 710
f 710 791 715
f 715 792 716
f 791 792 715
f 717 716 792
f 717 792 793
f 795 794 718
f 795 718 719
f 718 796 720
f 794 796 718
f 712 720 789
f 789 720 796
f 793 797 717
f 717 797 721
f 721 798 722
f 797 798 721
f 722 799 723
f 798 799 722
f 723 800 724
f 799 800 723
f 724 801 725
f 800 801 724
f 725 802 726
f 801 802 725
f 726 803 727
f 802 803 726
f 719 727 795
f 795 727 803
f 805 804 730
f 730 804 729
f 806 730 731
f 806 805 730
f 807 731 733
f 807 806 731
f 808 733 735
f 808 807 733
f 809 735 737
f 809 808 735
f 810 737 739
f 810 809 737
f 812 810 811
f 810 741 811
f 810 739 741
f 743 813 741
f 741 813 811
f 745 814 743
f 743 814 813
f 747 815 745
f 745 815 814
f 749 815 747
f 817 816 751
f 751 816 750
f 818 751 752
f 818 817 751
f 752 729 804
f 752 804 818
f 819 812 811
f 819 811 813
f 819 813 820
f 820 813 814
f 820 814 821
f 821 814 815
f 821 815 822
f 815 749 822
f 749 823 822
f 749 753 823
f 816 754 750
f 824 754 816
f 755 823 753
f 755 825 823
f 827 826 757
f 757 826 756
f 757 754 824
f 757 824 827
f 758 825 755
f 758 828 825
f 829 759 760
f 830 829 760
f 756 830 760
f 826 830 756
f 761 828 758
f 761 831 828
f 833 832 829
f 832 759 829
f 832 762 759
f 833 829 830
f 763 831 761
f 763 834 831
f 832 764 762
f 835 764 832
f 765 834 763
f 765 836 834
f 835 766 764
f 837 766 835
f 767 836 765
f 767 838 836
f 837 768 766
f 839 768 837
f 769 838 767
f 769 840 838
f 839 770 768
f 841 770 839
f 771 840 769
f 771 842 840
f 841 772 770
f 843 772 841
f 773 842 771
f 773 844 842
f 843 774 772
f 845 774 843
f 775 844 773
f 775 846 844
f 845 776 774
f 847 776 845
f 777 846 775
f 777 848 846
f 847 778 776
f 849 778 847
f 779 848 777
f 779 850 848
f 849 780 778
f 851 780 849
f 781 850 779
f 781 852 850
f 851 782 780
f 853 782 851
f 783 852 781
f 783 854 852
f 856 784 855
f 784 853 855
f 784 782 853
f 857 856 855
f 860 859 858
f 859 854 858
f 854 785 858
f 854 783 785
f 856 786 784
f 862 861 787
f 862 787 786
f 857 862 786
f 856 857 786
f 863 861 862
f 865 864 788
f 865 788 789
f 858 790 860
f 790 864 860
f 790 788 864
f 790 858 785
f 861 791 787
f 863 866 861
f 866 791 861
f 866 792 791
f 868 867 793
f 792 868 793
f 866 868 792
f 869 867 868
f 871 870 794
f 871 794 795
f 794 872 796
f 870 872 794
f 789 796 865
f 865 796 872
f 867 797 793
f 869 873 867
f 873 797 867
f 873 798 797
f 798 874 799
f 873 874 798
f 799 875 800
f 874 875 799
f 800 876 801
f 875 876 800
f 801 877 802
f 876 877 801
f 802 878 803
f 877 878 802
f 795 803 871
f 871 803 878
f 879 804 805
f 806 880 805
f 805 880 879
f 807 881 806
f 806 881 880
f 808 882 807
f 807 882 881
f 809 883 808
f 808 883 882
f 810 884 809
f 809 884 883
f 812 884 810
f 885 816 817
f 885 817 886
f 817 887 886
f 817 818 887
f 818 804 879
f 888 818 879
f 887 818 888
f 888 879 880
f 888 880 889
f 889 880 881
f 889 881 890
f 890 881 882
f 890 882 891
f 891 882 883
f 891 883 892
f 892 883 884
f 892 884 893
f 893 884 812
f 819 893 812
f 894 893 819
f 895 819 820
f 895 894 819
f 896 820 821
f 896 895 820
f 897 821 822
f 897 896 821
f 822 823 897
f 897 823 898
f 900 899 885
f 899 816 885
f 899 824 816
f 900 885 886
f 825 898 823
f 825 901 898
f 903 902 827
f 827 902 826
f 827 824 899
f 827 899 903
f 828 901 825
f 828 904 901
f 902 830 826
f 905 830 902
f 831 904 828
f 831 906 904
f 908 907 833
f 833 907 832
f 833 830 905
f 833 905 908
f 834 906 831
f 834 909 906
f 907 835 832
f 910 835 907
f 836 909 834
f 836 911 909
f 910 837 835
f 912 837 910
f 838 911 836
f 838 913 911
f 912 839 837
f 914 839 912
f 840 913 838
f 840 915 913
f 914 841 839
f 916 841 914
f 842 915 840
f 842 917 915
f 916 843 841
f 918 843 916
f 844 917 842
f 844 919 917
f 918 845 843
f 920 845 918
f 846 919 844
f 846 921 919
f 920 847 845
f 922 847 920
f 848 921 846
f 848 923 921
f 922 849 847
f 924 849 922
f 850 923 848
f 850 925 923
f 924 851 849
f 926 851 924
f 852 925 850
f 852 927 925
f 929 853 928
f 853 926 928
f 853 851 926
f 930 929 928
f 854 927 852
f 854 931 927
f 929 855 853
f 857 855 929
f 930 857 929
f 932 857 930
f 934 933 859
f 934 859 860
f 854 859 931
f 931 859 933
f 932 935 857
f 857 935 862
f 863 862 935
f 863 935 936
f 939 938 937
f 864 865 937
f 938 864 937
f 940 864 938
f 860 864 934
f 934 864 940
f 936 941 863
f 863 941 866
f 866 942 868
f 941 942 866
f 944 943 869
f 868 944 869
f 942 944 868
f 945 943 944
f 948 947 946
f 870 871 946
f 947 870 946
f 949 870 947
f 937 872 939
f 872 949 939
f 872 870 949
f 872 937 865
f 943 873 869
f 945 950 943
f 950 873 943
f 950 874 873
f 874 951 875
f 950 951 874
f 875 952 876
f 951 952 875
f 876 953 877
f 952 953 876
f 946 878 948
f 878 953 948
f 878 877 953
f 878 946 871
f 954 886 887
f 888 955 887
f 887 955 954
f 955 888 956
f 888 957 956
f 888 889 957
f 958 889 890
f 958 957 889
f 959 890 891
f 959 958 890
f 961 959 960
f 959 892 960
f 959 891 892
f 893 962 892
f 892 962 960
f 894 963 893
f 893 963 962
f 895 964 894
f 894 964 963
f 896 965 895
f 895 965 964
f 897 966 896
f 896 966 965
f 898 966 897
f 967 899 900
f 968 967 900
f 968 900 886
f 969 968 886
f 954 969 886
f 969 954 955
f 969 955 970
f 970 955 956
f 971 961 960
f 971 960 962
f 971 962 972
f 972 962 963
f 972 963 973
f 973 963 964
f 973 964 974
f 974 964 965
f 974 965 975
f 975 965 966
f 975 966 976
f 966 898 976
f 898 977 976
f 898 901 977
f 978 902 903
f 979 978 903
f 979 903 899
f 980 979 899
f 967 980 899
f 980 967 968
f 904 977 901
f 904 981 977
f 983 982 978
f 982 902 978
f 982 905 902
f 983 978 979
f 906 981 904
f 906 984 981
f 985 907 908
f 986 985 908
f 905 986 908
f 982 986 905
f 909 984 906
f 909 987 984
f 989 988 985
f 988 907 985
f 988 910 907
f 989 985 986
f 911 987 909
f 911 990 987
f 988 912 910
f 991 912 988
f 913 990 911
f 913 992 990
f 991 914 912
f 993 914 991
f 915 992 913
f 915 994 992
f 993 916 914
f 995 916 993
f 917 994 915
f 917 996 994
f 995 918 916
f 997 918 995
f 919 996 917
f 919 998 996
f 997 920 918
f 999 920 997
f 921 998 919
f 921 1000 998
f 999 922 920
f 1001 922 999
f 923 1000 921
f 923 1002 1000
f 1001 924 922
f 1003 924 1001
f 925 1002 923
f 925 1004 1002
f 1006 926 1005
f 926 1003 1005
f 926 924 1003
f 1007 1006 1005
f 927 1004 925
f 927 1008 1004
f 1006 928 926
f 930 928 1006
f 1007 930 1006
f 1009 930 1007
f 931 1008 927
f 931 1010 1008
f 1012 932 1011
f 932 1009 1011
f 932 930 1009
f 1013 1012 1011
f 1016 1015 1014
f 933 934 1014
f 1015 933 1014
f 1017 933 1015
f 931 933 1010
f 1010 933 1017
f 1012 935 932
f 1019 1018 936
f 1019 936 935
f 1013 1019 935
f 1012 1013 935
f 1021 1020 1018
f 1021 1018 1019
f 1022 1020 1021
f 1025 1024 1023
f 938 939 1023
f 1024 938 1023
f 1026 938 1024
f 1014 940 1016
f 940 1026 1016
f 940 938 1026
f 940 1014 934
f 1018 941 936
f 941 1018 942
f 942 1018 1020
f 1022 1027 1020
f 1027 942 1020
f 1027 944 942
f 1029 1028 945
f 944 1029 945
f 1027 1029 944
f 1031 1030 1028
f 1031 1028 1029
f 1033 1032 1030
f 1033 1030 1031
f 1035 1034 1032
f 1035 1032 1033
f 947 948 1034
f 1035 947 1034
f 1036 947 1035
f 1023 949 1025
f 949 1036 1025
f 949 947 1036
f 949 1023 939
f 1028 950 945
f 950 1028 951
f 951 1028 1030
f 951 1030 952
f 952 1030 1032
f 952 1032 953
f 953 1032 1034
f 953 1034 948
f 1037 956 957
f 958 1038 957
f 957 1038 1037
f 959 1039 958
f 958 1039 1038
f 961 1039 959
f 1040 968 969
f 1040 969 1041
f 969 1042 1041
f 969 970 1042
f 970 956 1037
f 1043 970 1037
f 1042 970 1043
f 1043 1037 1038
f 1043 1038 1044
f 1044 1038 1039
f 1044 1039 1045
f 1045 1039 961
f 971 1045 961
f 1046 1045 971
f 1048 1046 1047
f 1046 972 1047
f 1046 971 972
f 973 1049 972
f 972 1049 1047
f 974 1050 973
f 973 1050 1049
f 975 1051 974
f 974 1051 1050
f 976 1052 975
f 975 1052 1051
f 977 1052 976
f 1054 1053 980
f 980 1053 979
f 980 968 1040
f 1055 980 1040
f 1054 980 1055
f 1055 1040 1041
f 1056 1048 1047
f 1056 1047 1049
f 1056 1049 1057
f 1057 1049 1050
f 1057 1050 1058
f 1058 1050 1051
f 1058 1051 1059
f 1061 1060 1059
f 1051 1061 1059
f 1052 1061 1051
f 981 1061 977
f 977 1061 1052
f 1063 1062 983
f 983 1062 982
f 983 979 1053
f 983 1053 1063
f 1064 1060 1061
f 1061 981 1064
f 981 1065 1064
f 981 984 1065
f 1062 986 982
f 1066 986 1062
f 987 1065 984
f 987 1067 1065
f 1068 988 989
f 1069 1068 989
f 986 1069 989
f 1066 1069 986
f 990 1067 987
f 990 1070 1067
f 1072 1071 1068
f 1071 988 1068
f 1071 991 988
f 1072 1068 1069
f 992 1070 990
f 992 1073 1070
f 1071 993 991
f 1074 993 1071
f 994 1073 992
f 994 1075 1073
f 1074 995 993
f 1076 995 1074
f 996 1075 994
f 996 1077 1075
f 1076 997 995
f 1078 997 1076
f 998 1077 996
f 998 1079 1077
f 1078 999 997
f 1080 999 1078
f 1000 1079 998
f 1000 1081 1079
f 1080 1001 999
f 1082 1001 1080
f 1002 1081 1000
f 1002 1083 1081
f 1085 1003 1084
f 1003 1082 1084
f 1003 1001 1082
f 1086 1085 1084
f 1004 1083 1002
f 1004 1087 1083
f 1085 1005 1003
f 1007 1005 1085
f 1086 1007 1085
f 1088 1007 1086
f 1008 1087 1004
f 1008 1089 1087
f 1088 1009 1007
f 1090 1009 1088
f 1093 1092 1091
f 1092 1089 1091
f 1089 1010 1091
f 1089 1008 1010
f 1090 1094 1009
f 1009 1094 1011
f 1013 1011 1094
f 1013 1094 1095
f 1098 1097 1096
f 1015 1016 1096
f 1097 1015 1096
f 1099 1015 1097
f 1091 1017 1093
f 1017 1099 1093
f 1017 1015 1099
f 1017 1091 1010
f 1095 1100 1013
f 1013 1100 1019
f 1019 1101 1021
f 1100 1101 1019
f 1103 1102 1022
f 1021 1103 1022
f 1101 1103 1021
f 1105 1104 1102
f 1105 1102 1103
f 1107 1106 1104
f 1107 1104 1105
f 1109 1108 1106
f 1109 1106 1107
f 1111 1110 1108
f 1111 1108 1109
f 1113 1112 1110
f 1113 1110 1111
f 1024 1025 1112
f 1113 1024 1112
f 1114 1024 1113
f 1096 1026 1098
f 1026 1114 1098
f 1026 1024 1114
f 1026 1096 1016
f 1102 1027 1022
f 1027 1102 1029
f 1029 1102 1104
f 1029 1104 1031
f 1031 1104 1106
f 1031 1106 1033
f 1033 1106 1108
f 1033 1108 1035
f 1035 1108 1110
f 1035 1110 1036
f 1036 1110 1112
f 1036 1112 1025
f 1115 1041 1042
f 1043 1116 1042
f 1042 1116 1115
f 1044 1117 1043
f 1043 1117 1116
f 1045 1118 1044
f 1044 1118 1117
f 1046 1119 1045
f 1045 1119 1118
f 1048 1119 1046
f 1120 1053 1054
f 1055 1121 1054
f 1054 1121 1120
f 1122 1121 1055
f 1122 1055 1041
f 1123 1122 1041
f 1115 1123 1041
f 1123 1115 1116
f 1123 1116 1124
f 1124 1116 1117
f 1124 1117 1125
f 1125 1117 1118
f 1125 1118 1126
f 1128 1127 1126
f 1118 1128 1126
f 1119 1128 1118
f 1056 1129 1048
f 1129 1119 1048
f 1129 1128 1119
f 1057 1130 1056
f 1056 1130 1129
f 1058 1131 1057
f 1057 1131 1130
f 1059 1132 1058
f 1058 1132 1131
f 1060 1132 1059
f 1133 1062 1063
f 1134 1133 1063
f 1134 1063 1053
f 1135 1134 1053
f 1120 1135 1053
f 1135 1120 1121
f 1135 1121 1136
f 1136 1121 1122
f 1137 1127 1128
f 1137 1128 1129
f 1137 1129 1138
f 1138 1129 1130
f 1138 1130 1139
f 1139 1130 1131
f 1139 1131 1140
f 1140 1131 1132
f 1140 1132 1141
f 1141 1132 1060
f 1064 1141 1060
f 1142 1141 1064
f 1064 1065 1142
f 1142 1065 1143
f 1145 1144 1133
f 1144 1062 1133
f 1144 1066 1062
f 1145 1133 1134
f 1067 1143 1065
f 1067 1146 1143
f 1144 1069 1066
f 1147 1069 1144
f 1070 1146 1067
f 1070 1148 1146
f 1149 1071 1072
f 1150 1149 1072
f 1069 1150 1072
f 1147 1150 1069
f 1073 1148 1070
f 1073 1151 1148
f 1152 1074 1149
f 1149 1074 1071
f 1149 1150 1153
f 1149 1153 1152
f 1075 1151 1073
f 1075 1154 1151
f 1155 1076 1152
f 1152 1076 1074
f 1152 1153 1156
f 1152 1156 1155
f 1077 1154 1075
f 1077 1157 1154
f 1158 1078 1155
f 1155 1078 1076
f 1155 1156 1159
f 1155 1159 1158
f 1079 1157 1077
f 1079 1160 1157
f 1161 1080 1158
f 1158 1080 1078
f 1158 1159 1162
f 1158 1162 1161
f 1081 1160 1079
f 1081 1163 1160
f 1164 1082 1161
f 1161 1082 1080
f 1161 1162 1165
f 1161 1165 1164
f 1083 1163 1081
f 1083 1166 1163
f 1164 1084 1082
f 1086 1084 1164
f 1165 1086 1164
f 1167 1086 1165
f 1170 1169 1168
f 1169 1166 1168
f 1166 1087 1168
f 1166 1083 1087
f 1167 1088 1086
f 1171 1088 1167
f 1170 1168 1172
f 1170 1172 1173
f 1089 1172 1087
f 1087 1172 1168
f 1175 1090 1174
f 1090 1171 1174
f 1090 1088 1171
f 1176 1175 1174
f 1179 1178 1177
f 1177 1178 1173
f 1177 1173 1172
f 1093 1177 1172
f 1092 1093 1172
f 1092 1172 1089
f 1175 1094 1090
f 1181 1180 1095
f 1181 1095 1094
f 1176 1181 1094
f 1175 1176 1094
f 1183 1182 1180
f 1183 1180 1181
f 1185 1184 1182
f 1185 1182 1183
f 1187 1186 1184
f 1187 1184 1185
f 1189 1188 1186
f 1189 1186 1187
f 1191 1190 1188
f 1191 1188 1189
f 1193 1192 1190
f 1193 1190 1191
f 1195 1194 1192
f 1195 1192 1193
f 1197 1196 1194
f 1197 1194 1195
f 1097 1098 1196
f 1197 1097 1196
f 1198 1097 1197
f 1177 1099 1179
f 1099 1198 1179
f 1099 1097 1198
f 1099 1177 1093
f 1180 1100 1095
f 1100 1180 1101
f 1101 1180 1182
f 1101 1182 1103
f 1103 1182 1184
f 1103 1184 1105
f 1105 1184 1186
f 1105 1186 1107
f 1107 1186 1188
f 1107 1188 1109
f 1109 1188 1190
f 1109 1190 1111
f 1111 1190 1192
f 1111 1192 1113
f 1113 1192 1194
f 1113 1194 1114
f 1114 1194 1196
f 1114 1196 1098
f 1199 1122 1123
f 1124 1200 1123
f 1123 1200 1199
f 1125 1201 1124
f 1124 1201 1200
f 1126 1202 1125
f 1125 1202 1201
f 1127 1202 1126
f 1203 1134 1135
f 1136 1204 1135
f 1135 1204 1203
f 1122 1199 1136
f 1199 1204 1136
f 1199 1205 1204
f 1200 1207 1206
f 1205 1200 1206
f 1199 1200 1205
f 1209 1208 1207
f 1200 1209 1207
f 1201 1209 1200
f 1210 1201 1202
f 1209 1201 1210
f 1137 1211 1127
f 1211 1202 1127
f 1211 1210 1202
f 1138 1212 1137
f 1137 1212 1211
f 1139 1213 1138
f 1138 1213 1212
f 1140 1214 1139
f 1139 1214 1213
f 1141 1215 1140
f 1140 1215 1214
f 1142 1216 1141
f 1141 1216 1215
f 1143 1216 1142
f 1217 1144 1145
f 1218 1217 1145
f 1218 1145 1134
f 1219 1218 1134
f 1203 1219 1134
f 1219 1203 1204
f 1219 1204 1220
f 1220 1204 1205
f 1220 1205 1221
f 1221 1205 1206
f 1222 1208 1209
f 1222 1209 1210
f 1222 1210 1223
f 1223 1210 1211
f 1223 1211 1224
f 1224 1211 1212
f 1224 1212 1225
f 1225 1212 1213
f 1225 1213 1226
f 1226 1213 1214
f 1226 1214 1227
f 1227 1214 1215
f 1227 1215 1228
f 1230 1229 1228
f 1215 1230 1228
f 1216 1230 1215
f 1146 1230 1143
f 1143 1230 1216
f 1231 1147 1217
f 1217 1147 1144
f 1217 1218 1232
f 1217 1232 1231
f 1229 1230 1233
f 1229 1233 1234
f 1148 1233 1146
f 1146 1233 1230
f 1235 1150 1231
f 1231 1150 1147
f 1231 1232 1236
f 1231 1236 1235
f 1234 1233 1237
f 1234 1237 1238
f 1151 1237 1148
f 1148 1237 1233
f 1240 1239 1235
f 1239 1150 1235
f 1239 1153 1150
f 1240 1235 1236
f 1238 1237 1241
f 1238 1241 1242
f 1154 1241 1151
f 1151 1241 1237
f 1239 1156 1153
f 1243 1156 1239
f 1244 1242 1241
f 1241 1154 1244
f 1154 1245 1244
f 1154 1157 1245
f 1243 1159 1156
f 1246 1159 1243
f 1160 1245 1157
f 1160 1247 1245
f 1246 1162 1159
f 1248 1162 1246
f 1163 1247 1160
f 1163 1249 1247
f 1248 1165 1162
f 1250 1165 1248
f 1253 1252 1251
f 1252 1249 1251
f 1249 1166 1251
f 1249 1163 1166
f 1255 1167 1254
f 1167 1250 1254
f 1167 1165 1250
f 1256 1255 1254
f 1259 1258 1257
f 1257 1258 1253
f 1257 1253 1251
f 1170 1257 1251
f 1169 1170 1251
f 1169 1251 1166
f 1260 1171 1255
f 1255 1171 1167
f 1255 1256 1261
f 1255 1261 1260
f 1259 1257 1262
f 1259 1262 1263
f 1173 1262 1170
f 1170 1262 1257
f 1260 1174 1171
f 1265 1264 1176
f 1265 1176 1174
f 1261 1265 1174
f 1260 1261 1174
f 1267 1266 1264
f 1267 1264 1265
f 1269 1268 1266
f 1269 1266 1267
f 1271 1270 1268
f 1271 1268 1269
f 1273 1272 1270
f 1273 1270 1271
f 1275 1274 1272
f 1275 1272 1273
f 1277 1276 1274
f 1277 1274 1275
f 1279 1278 1276
f 1279 1276 1277
f 1281 1280 1278
f 1281 1278 1279
f 1283 1282 1280
f 1283 1280 1281
f 1282 1283 1263
f 1282 1263 1262
f 1179 1282 1262
f 1178 1179 1262
f 1178 1262 1173
f 1264 1181 1176
f 1181 1264 1183
f 1183 1264 1266
f 1183 1266 1185
f 1185 1266 1268
f 1185 1268 1187
f 1187 1268 1270
f 1187 1270 1189
f 1189 1270 1272
f 1189 1272 1191
f 1191 1272 1274
f 1191 1274 1193
f 1193 1274 1276
f 1193 1276 1195
f 1195 1276 1278
f 1195 1278 1197
f 1197 1278 1280
f 1197 1280 1198
f 1198 1280 1282
f 1198 1282 1179
f 1284 1206 1207
f 1208 1284 1207
f 1285 1218 1219
f 1220 1286 1219
f 1219 1286 1285
f 1221 1287 1220
f 1220 1287 1286
f 1206 1284 1221
f 1284 1287 1221
f 1284 1288 1287
f 1222 1289 1208
f 1289 1284 1208
f 1289 1288 1284
f 1223 1290 1222
f 1222 1290 1289
f 1224 1291 1223
f 1223 1291 1290
f 1225 1292 1224
f 1224 1292 1291
f 1226 1293 1225
f 1225 1293 1292
f 1227 1294 1226
f 1226 1294 1293
f 1228 1295 1227
f 1227 1295 1294
f 1229 1295 1228
f 1296 1232 1285
f 1285 1232 1218
f 1297 1285 1286
f 1296 1285 1297
f 1287 1299 1298
f 1297 1287 1298
f 1286 1287 1297
f 1299 1287 1288
f 1299 1288 1300
f 1300 1288 1289
f 1300 1289 1301
f 1301 1289 1290
f 1301 1290 1302
f 1302 1290 1291
f 1302 1291 1303
f 1305 1304 1303
f 1291 1305 1303
f 1292 1305 1291
f 1306 1292 1293
f 1305 1292 1306
f 1307 1293 1294
f 1306 1293 1307
f 1308 1294 1295
f 1307 1294 1308
f 1234 1308 1229
f 1229 1308 1295
f 1309 1236 1296
f 1296 1236 1232
f 1297 1311 1310
f 1309 1297 1310
f 1296 1297 1309
f 1311 1297 1298
f 1312 1304 1305
f 1312 1305 1306
f 1312 1306 1313
f 1313 1306 1307
f 1313 1307 1314
f 1314 1307 1308
f 1314 1308 1315
f 1308 1234 1315
f 1234 1316 1315
f 1234 1238 1316
f 1317 1239 1240
f 1318 1317 1240
f 1318 1240 1236
f 1319 1318 1236
f 1309 1319 1236
f 1319 1309 1310
f 1242 1316 1238
f 1242 1320 1316
f 1321 1243 1317
f 1317 1243 1239
f 1317 1318 1322
f 1317 1322 1321
f 1323 1320 1242
f 1323 1242 1244
f 1244 1245 1323
f 1323 1245 1324
f 1325 1246 1321
f 1321 1246 1243
f 1321 1322 1326
f 1321 1326 1325
f 1247 1324 1245
f 1247 1327 1324
f 1328 1248 1325
f 1325 1248 1246
f 1325 1326 1329
f 1325 1329 1328
f 1249 1327 1247
f 1249 1330 1327
f 1331 1250 1328
f 1328 1250 1248
f 1328 1329 1332
f 1328 1332 1331
f 1335 1334 1333
f 1252 1253 1333
f 1334 1252 1333
f 1336 1252 1334
f 1249 1252 1330
f 1330 1252 1336
f 1331 1254 1250
f 1338 1337 1256
f 1338 1256 1254
f 1332 1338 1254
f 1331 1332 1254
f 1339 1337 1338
f 1342 1341 1340
f 1344 1343 1340
f 1344 1340 1341
f 1343 1344 1335
f 1343 1335 1333
f 1259 1343 1333
f 1258 1259 1333
f 1258 1333 1253
f 1345 1261 1337
f 1337 1261 1256
f 1337 1339 1346
f 1347 1337 1346
f 1345 1337 1347
f 1349 1348 1347
f 1349 1347 1346
f 1351 1350 1348
f 1351 1348 1349
f 1353 1352 1350
f 1353 1350 1351
f 1355 1354 1352
f 1355 1352 1353
f 1357 1356 1354
f 1357 1354 1355
f 1359 1358 1356
f 1359 1356 1357
f 1358 1359 1342
f 1340 1358 1342
f 1360 1358 1340
f 1361 1340 1343
f 1360 1340 1361
f 1263 1361 1259
f 1259 1361 1343
f 1345 1265 1261
f 1265 1345 1267
f 1267 1345 1347
f 1267 1347 1269
f 1269 1347 1348
f 1269 1348 1271
f 1271 1348 1350
f 1271 1350 1273
f 1273 1350 1352
f 1273 1352 1275
f 1275 1352 1354
f 1275 1354 1277
f 1277 1354 1356
f 1277 1356 1279
f 1279 1356 1358
f 1279 1358 1281
f 1281 1358 1360
f 1281 1360 1283
f 1283 1360 1361
f 1283 1361 1263
f 1362 1298 1299
f 1300 1363 1299
f 1299 1363 1362
f 1301 1364 1300
f 1300 1364 1363
f 1302 1365 1301
f 1301 1365 1364
f 1303 1366 1302
f 1302 1366 1365
f 1304 1366 1303
f 1367 1310 1311
f 1298 1362 1311
f 1362 1367 1311
f 1362 1368 1367
f 1363 1370 1369
f 1368 1363 1369
f 1362 1363 1368
f 1372 1371 1370
f 1363 1372 1370
f 1364 1372 1363
f 1373 1364 1365
f 1372 1364 1373
f 1374 1365 1366
f 1373 1365 1374
f 1312 1375 1304
f 1375 1366 1304
f 1375 1374 1366
f 1313 1376 1312
f 1312 1376 1375
f 1314 1377 1313
f 1313 1377 1376
f 1315 1378 1314
f 1314 1378 1377
f 1316 1378 1315
f 1379 1318 1319
f 1380 1379 1319
f 1380 1319 1310
f 1381 1380 1310
f 1367 1381 1310
f 1381 1367 1368
f 1381 1368 1382
f 1382 1368 1369
f 1383 1371 1372
f 1383 1372 1373
f 1383 1373 1384
f 1384 1373 1374
f 1384 1374 1385
f 1387 1386 1385
f 1374 1387 1385
f 1375 1387 1374
f 1388 1375 1376
f 1387 1375 1388
f 1389 1376 1377
f 1388 1376 1389
f 1390 1377 1378
f 1389 1377 1390
f 1320 1390 1316
f 1316 1390 1378
f 1391 1322 1379
f 1379 1322 1318
f 1379 1380 1392
f 1379 1392 1391
f 1393 1386 1387
f 1393 1387 1388
f 1393 1388 1394
f 1394 1388 1389
f 1394 1389 1395
f 1395 1389 1390
f 1395 1390 1396
f 1396 1390 1320
f 1323 1396 1320
f 1397 1396 1323
f 1323 1324 1397
f 1397 1324 1398
f 1400 1399 1391
f 1399 1322 1391
f 1399 1326 1322
f 1400 1391 1392
f 1327 1398 1324
f 1327 1401 1398
f 1403 1329 1402
f 1329 1399 1402
f 1329 1326 1399
f 1404 1403 1402
f 1407 1406 1405
f 1409 1408 1405
f 1409 1405 1406
f 1411 1410 1408
f 1411 1408 1409
f 1413 1412 1410
f 1413 1410 1411
f 1413 1401 1412
f 1401 1330 1412
f 1401 1327 1330
f 1414 1332 1403
f 1403 1332 1329
f 1403 1404 1415
f 1416 1403 1415
f 1414 1403 1416
f 1417 1416 1415
f 1420 1419 1418
f 1418 1419 1407
f 1405 1418 1407
f 1421 1418 1405
f 1422 1405 1408
f 1421 1405 1422
f 1335 1422 1334
f 1422 1410 1334
f 1422 1408 1410
f 1334 1410 1336
f 1336 1410 1412
f 1336 1412 1330
f 1414 1338 1332
f 1338 1414 1339
f 1414 1423 1339
f 1414 1416 1423
f 1416 1417 1424
f 1425 1416 1424
f 1423 1416 1425
f 1427 1426 1425
f 1427 1425 1424
f 1429 1428 1426
f 1429 1426 1427
f 1431 1430 1428
f 1431 1428 1429
f 1433 1432 1430
f 1433 1430 1431
f 1432 1433 1420
f 1418 1432 1420
f 1434 1432 1418
f 1342 1434 1341
f 1434 1421 1341
f 1434 1418 1421
f 1341 1421 1344
f 1344 1421 1422
f 1344 1422 1335
f 1423 1346 1339
f 1346 1423 1349
f 1349 1423 1425
f 1349 1425 1351
f 1351 1425 1426
f 1351 1426 1353
f 1353 1426 1428
f 1353 1428 1355
f 1355 1428 1430
f 1355 1430 1357
f 1357 1430 1432
f 1357 1432 1359
f 1359 1432 1434
f 1359 1434 1342
f 1435 1369 1370
f 1371 1435 1370
f 1436 1380 1381
f 1382 1437 1381
f 1381 1437 1436
f 1369 1435 1382
f 1435 1437 1382
f 1435 1438 1437
f 1383 1439 1371
f 1439 1435 1371
f 1439 1438 1435
f 1384 1440 1383
f 1383 1440 1439
f 1385 1441 1384
f 1384 1441 1440
f 1386 1441 1385
f 1442 1392 1436
f 1436 1392 1380
f 1443 1436 1437
f 1442 1436 1443
f 1444 1437 1438
f 1443 1437 1444
f 1445 1438 1439
f 1444 1438 1445
f 1446 1439 1440
f 1445 1439 1446
f 1447 1440 1441
f 1446 1440 1447
f 1393 1448 1386
f 1448 1441 1386
f 1448 1447 1441
f 1394 1449 1393
f 1393 1449 1448
f 1395 1450 1394
f 1394 1450 1449
f 1396 1451 1395
f 1395 1451 1450
f 1397 1452 1396
f 1396 1452 1451
f 1398 1452 1397
f 1453 1399 1400
f 1392 1442 1400
f 1442 1453 1400
f 1442 1454 1453
f 1455 1442 1443
f 1454 1442 1455
f 1456 1443 1444
f 1455 1443 1456
f 1457 1444 1445
f 1456 1444 1457
f 1458 1445 1446
f 1457 1445 1458
f 1459 1446 1447
f 1458 1446 1459
f 1460 1447 1448
f 1459 1447 1460
f 1461 1448 1449
f 1460 1448 1461
f 1462 1449 1450
f 1461 1449 1462
f 1463 1450 1451
f 1462 1450 1463
f 1464 1451 1452
f 1463 1451 1464
f 1401 1464 1398
f 1398 1464 1452
f 1453 1402 1399
f 1402 1453 1404
f 1453 1465 1404
f 1453 1454 1465
f 1466 1454 1455
f 1465 1454 1466
f 1467 1455 1456
f 1466 1455 1467
f 1468 1456 1457
f 1467 1456 1468
f 1469 1457 1458
f 1468 1457 1469
f 1470 1458 1459
f 1469 1458 1470
f 1471 1459 1460
f 1470 1459 1471
f 1407 1471 1406
f 1471 1461 1406
f 1471 1460 1461
f 1406 1461 1409
f 1409 1461 1462
f 1409 1462 1411
f 1411 1462 1463
f 1411 1463 1413
f 1413 1463 1464
f 1413 1464 1401
f 1465 1415 1404
f 1415 1465 1417
f 1465 1472 1417
f 1465 1466 1472
f 1473 1466 1467
f 1472 1466 1473
f 1474 1467 1468
f 1473 1467 1474
f 1475 1468 1469
f 1474 1468 1475
f 1476 1469 1470
f 1475 1469 1476
f 1420 1476 1419
f 1476 1471 1419
f 1476 1470 1471
f 1419 1471 1407
f 1472 1424 1417
f 1424 1472 1427
f 1427 1472 1473
f 1427 1473 1429
f 1429 1473 1474
f 1429 1474 1431
f 1431 1474 1475
f 1431 1475 1433
f 1433 1475 1476
f 1433 1476 1420
