# Asteroid shape model (convexinv -> dual reconstruction)
v -0.93014822 -0.39482813 0.35714286
v -0.85871965 -0.39482813 0.28571429
v -0.85871965 -0.46625670 0.35714286
v -0.85871965 -0.46625670 0.50000000
v -0.93014822 -0.39482813 0.50000000
v -0.85871965 -0.46625670 0.64285714
v -0.93014822 -0.39482813 0.64285714
v -0.85871965 -0.39482813 0.71428571
v -0.93014822 -0.25197099 0.21428571
v -0.85871965 -0.25197099 0.14285714
v -0.85871965 -0.32339956 0.21428571
v -0.93014822 -0.25197099 0.35714286
v -0.93014822 -0.25197099 0.50000000
v -0.93014822 -0.25197099 0.64285714
v -0.85871965 -0.25197099 0.71428571
v -0.93014822 -0.10911384 0.07142857
v -0.85871965 -0.10911384 0.00000000
v -0.85871965 -0.18054242 0.07142857
v -0.93014822 -0.10911384 0.21428571
v -0.93014822 -0.10911384 0.35714286
v -0.93014822 -0.10911384 0.50000000
v -0.93014822 -0.10911384 0.64285714
v -0.85871965 -0.10911384 0.71428571
v -0.93014822 0.03374330 0.07142857
v -0.85871965 0.03374330 0.00000000
v -0.93014822 0.03374330 0.21428571
v -0.93014822 0.03374330 0.35714286
v -0.85871965 0.03374330 0.42857143
v -0.85871965 -0.03768527 0.50000000
v -0.85871965 -0.03768527 0.64285714
v -0.85871965 0.10517187 0.07142857
v -0.85871965 0.10517187 0.21428571
v -0.85871965 0.10517187 0.35714286
v -0.93014822 0.46231473 -0.21428571
v -0.85871965 0.46231473 -0.28571429
v -0.85871965 0.39088616 -0.21428571
v -0.85871965 0.39088616 -0.07142857
v -0.93014822 0.46231473 -0.07142857
v -0.85871965 0.46231473 0.00000000
v -0.93014822 0.60517187 -0.21428571
v -0.85871965 0.60517187 -0.28571429
v -0.85871965 0.60517187 -0.14285714
v -0.85871965 0.53374330 -0.07142857
v -0.85871965 0.67660044 -0.21428571
v -0.78729108 -0.68054242 0.64285714
v -0.71586250 -0.68054242 0.57142857
v -0.71586250 -0.75197099 0.64285714
v -0.71586250 -0.68054242 0.71428571
v -0.78729108 -0.53768527 0.64285714
v -0.71586250 -0.53768527 0.57142857
v -0.71586250 -0.53768527 0.71428571
v -0.78729108 -0.39482813 0.07142857
v -0.71586250 -0.39482813 0.00000000
v -0.71586250 -0.46625670 0.07142857
v -0.71586250 -0.46625670 0.21428571
v -0.78729108 -0.39482813 0.21428571
v -0.71586250 -0.46625670 0.35714286
v -0.71586250 -0.46625670 0.50000000
v -0.71586250 -0.39482813 0.71428571
v -0.78729108 -0.25197099 0.07142857
v -0.71586250 -0.25197099 0.00000000
v -0.71586250 -0.25197099 0.71428571
v -0.71586250 -0.10911384 0.00000000
v -0.71586250 -0.10911384 0.71428571
v -0.71586250 0.03374330 0.00000000
v -0.78729108 0.03374330 0.50000000
v -0.78729108 0.03374330 0.64285714
v -0.71586250 0.03374330 0.71428571
v -0.78729108 0.17660044 0.07142857
v -0.71586250 0.17660044 0.00000000
v -0.78729108 0.17660044 0.21428571
v -0.78729108 0.17660044 0.35714286
v -0.78729108 0.17660044 0.50000000
v -0.78729108 0.17660044 0.64285714
v -0.71586250 0.10517187 0.78571429
v -0.78729108 0.17660044 0.78571429
v -0.71586250 0.17660044 0.85714286
v -0.78729108 0.31945758 0.07142857
v -0.71586250 0.31945758 0.00000000
v -0.78729108 0.31945758 0.21428571
v -0.78729108 0.31945758 0.35714286
v -0.78729108 0.31945758 0.50000000
v -0.71586250 0.31945758 0.57142857
v -0.71586250 0.24802901 0.64285714
v -0.71586250 0.24802901 0.78571429
v -0.71586250 0.46231473 -0.28571429
v -0.71586250 0.39088616 -0.21428571
v -0.71586250 0.39088616 -0.07142857
v -0.71586250 0.39088616 0.07142857
v -0.71586250 0.46231473 0.00000000
v -0.71586250 0.39088616 0.21428571
v -0.71586250 0.39088616 0.35714286
v -0.71586250 0.39088616 0.50000000
v -0.78729108 0.60517187 -0.35714286
v -0.71586250 0.60517187 -0.42857143
v -0.71586250 0.53374330 -0.35714286
v -0.71586250 0.53374330 -0.07142857
v -0.71586250 0.60517187 -0.14285714
v -0.71586250 0.67660044 -0.35714286
v -0.71586250 0.67660044 -0.21428571
v -0.64443393 -0.68054242 0.35714286
v -0.57300536 -0.68054242 0.28571429
v -0.57300536 -0.75197099 0.35714286
v -0.57300536 -0.75197099 0.50000000
v -0.64443393 -0.68054242 0.50000000
v -0.57300536 -0.75197099 0.64285714
v -0.57300536 -0.68054242 0.71428571
v -0.64443393 -0.53768527 -0.35714286
v -0.57300536 -0.53768527 -0.42857143
v -0.57300536 -0.60911384 -0.35714286
v -0.57300536 -0.60911384 -0.21428571
v -0.64443393 -0.53768527 -0.21428571
v -0.57300536 -0.60911384 -0.07142857
v -0.64443393 -0.53768527 -0.07142857
v -0.57300536 -0.60911384 0.07142857
v -0.64443393 -0.53768527 0.07142857
v -0.57300536 -0.60911384 0.21428571
v -0.64443393 -0.53768527 0.21428571
v -0.64443393 -0.53768527 0.35714286
v -0.64443393 -0.53768527 0.50000000
v -0.57300536 -0.53768527 0.71428571
v -0.57300536 -0.46625670 -0.35714286
v -0.57300536 -0.46625670 -0.21428571
v -0.64443393 -0.39482813 -0.07142857
v -0.57300536 -0.39482813 -0.14285714
v -0.57300536 -0.46625670 0.78571429
v -0.64443393 -0.39482813 0.78571429
v -0.57300536 -0.39482813 0.85714286
v -0.64443393 -0.25197099 -0.07142857
v -0.57300536 -0.25197099 -0.14285714
v -0.64443393 -0.25197099 0.78571429
v -0.57300536 -0.25197099 0.85714286
v -0.64443393 -0.10911384 -0.07142857
v -0.57300536 -0.10911384 -0.14285714
v -0.64443393 -0.10911384 0.78571429
v -0.57300536 -0.10911384 0.85714286
v -0.64443393 0.03374330 -0.07142857
v -0.57300536 0.03374330 -0.14285714
v -0.64443393 0.03374330 0.78571429
v -0.57300536 0.03374330 0.85714286
v -0.64443393 0.17660044 -0.07142857
v -0.57300536 0.17660044 -0.14285714
v -0.57300536 0.17660044 0.85714286
v -0.64443393 0.31945758 -0.07142857
v -0.57300536 0.31945758 -0.14285714
v -0.64443393 0.31945758 0.64285714
v -0.64443393 0.31945758 0.78571429
v -0.57300536 0.31945758 0.85714286
v -0.57300536 0.46231473 -0.28571429
v -0.57300536 0.39088616 -0.21428571
v -0.64443393 0.46231473 0.07142857
v -0.57300536 0.46231473 0.14285714
v -0.57300536 0.39088616 0.21428571
v -0.57300536 0.39088616 0.35714286
v -0.57300536 0.39088616 0.50000000
v -0.57300536 0.39088616 0.64285714
v -0.57300536 0.39088616 0.78571429
v -0.57300536 0.60517187 -0.42857143
v -0.57300536 0.53374330 -0.35714286
v -0.64443393 0.60517187 -0.07142857
v -0.64443393 0.60517187 0.07142857
v -0.57300536 0.60517187 0.14285714
v -0.57300536 0.67660044 -0.35714286
v -0.64443393 0.74802901 -0.21428571
v -0.57300536 0.74802901 -0.28571429
v -0.64443393 0.74802901 -0.07142857
v -0.64443393 0.74802901 0.07142857
v -0.57300536 0.74802901 0.14285714
v -0.57300536 0.81945758 -0.21428571
v -0.57300536 0.81945758 -0.07142857
v -0.57300536 0.81945758 0.07142857
v -0.50157679 -0.82339956 0.50000000
v -0.43014822 -0.82339956 0.42857143
v -0.43014822 -0.89482813 0.50000000
v -0.43014822 -0.89482813 0.64285714
v -0.50157679 -0.82339956 0.64285714
v -0.43014822 -0.82339956 0.71428571
v -0.43014822 -0.68054242 0.28571429
v -0.43014822 -0.75197099 0.35714286
v -0.43014822 -0.68054242 0.71428571
v -0.50157679 -0.53768527 -0.50000000
v -0.43014822 -0.53768527 -0.57142857
v -0.43014822 -0.60911384 -0.50000000
v -0.43014822 -0.60911384 -0.35714286
v -0.43014822 -0.60911384 -0.21428571
v -0.43014822 -0.60911384 -0.07142857
v -0.43014822 -0.60911384 0.07142857
v -0.43014822 -0.60911384 0.21428571
v -0.43014822 -0.60911384 0.78571429
v -0.50157679 -0.53768527 0.78571429
v -0.43014822 -0.53768527 0.85714286
v -0.43014822 -0.46625670 -0.50000000
v -0.50157679 -0.39482813 -0.35714286
v -0.43014822 -0.39482813 -0.42857143
v -0.50157679 -0.39482813 -0.21428571
v -0.43014822 -0.39482813 0.85714286
v -0.50157679 -0.25197099 -0.35714286
v -0.43014822 -0.25197099 -0.42857143
v -0.50157679 -0.25197099 -0.21428571
v -0.43014822 -0.25197099 0.85714286
v -0.50157679 -0.10911384 -0.35714286
v -0.43014822 -0.10911384 -0.42857143
v -0.50157679 -0.10911384 -0.21428571
v -0.43014822 -0.10911384 0.85714286
v -0.50157679 0.03374330 -0.50000000
v -0.43014822 0.03374330 -0.57142857
v -0.43014822 -0.03768527 -0.50000000
v -0.50157679 0.03374330 -0.35714286
v -0.50157679 0.03374330 -0.21428571
v -0.43014822 0.03374330 0.85714286
v -0.50157679 0.17660044 -0.50000000
v -0.43014822 0.17660044 -0.57142857
v -0.50157679 0.17660044 -0.35714286
v -0.50157679 0.17660044 -0.21428571
v -0.43014822 0.17660044 0.85714286
v -0.50157679 0.31945758 -0.64285714
v -0.43014822 0.31945758 -0.71428571
v -0.43014822 0.24802901 -0.64285714
v -0.50157679 0.31945758 -0.50000000
v -0.50157679 0.31945758 -0.35714286
v -0.50157679 0.31945758 -0.21428571
v -0.43014822 0.31945758 0.85714286
v -0.43014822 0.39088616 -0.64285714
v -0.50157679 0.46231473 -0.50000000
v -0.43014822 0.46231473 -0.57142857
v -0.50157679 0.46231473 -0.35714286
v -0.43014822 0.39088616 0.21428571
v -0.43014822 0.46231473 0.14285714
v -0.43014822 0.39088616 0.35714286
v -0.43014822 0.39088616 0.50000000
v -0.43014822 0.39088616 0.64285714
v -0.50157679 0.46231473 0.78571429
v -0.43014822 0.46231473 0.71428571
v -0.43014822 0.46231473 0.85714286
v -0.50157679 0.60517187 -0.50000000
v -0.43014822 0.60517187 -0.57142857
v -0.43014822 0.60517187 0.14285714
v -0.50157679 0.60517187 0.78571429
v -0.43014822 0.60517187 0.71428571
v -0.43014822 0.53374330 0.92857143
v -0.50157679 0.60517187 0.92857143
v -0.43014822 0.60517187 1.00000000
v -0.43014822 0.67660044 -0.50000000
v -0.43014822 0.67660044 -0.35714286
v -0.43014822 0.74802901 -0.28571429
v -0.43014822 0.74802901 0.14285714
v -0.50157679 0.74802901 0.78571429
v -0.43014822 0.74802901 0.71428571
v -0.43014822 0.74802901 0.85714286
v -0.43014822 0.67660044 0.92857143
v -0.43014822 0.81945758 -0.21428571
v -0.50157679 0.89088616 -0.07142857
v -0.43014822 0.89088616 -0.14285714
v -0.50157679 0.89088616 0.07142857
v -0.43014822 0.89088616 0.14285714
v -0.43014822 0.81945758 0.78571429
v -0.43014822 0.96231473 -0.07142857
v -0.43014822 0.96231473 0.07142857
v -0.35871965 -0.82339956 0.21428571
v -0.28729108 -0.82339956 0.14285714
v -0.28729108 -0.89482813 0.21428571
v -0.28729108 -0.89482813 0.35714286
v -0.35871965 -0.82339956 0.35714286
v -0.28729108 -0.89482813 0.50000000
v -0.28729108 -0.89482813 0.64285714
v -0.28729108 -0.82339956 0.71428571
v -0.35871965 -0.68054242 0.07142857
v -0.28729108 -0.68054242 0.00000000
v -0.28729108 -0.75197099 0.07142857
v -0.35871965 -0.68054242 0.21428571
v -0.28729108 -0.68054242 0.71428571
v -0.28729108 -0.53768527 -0.57142857
v -0.28729108 -0.60911384 -0.50000000
v -0.28729108 -0.60911384 -0.35714286
v -0.28729108 -0.60911384 -0.21428571
v -0.28729108 -0.60911384 -0.07142857
v -0.28729108 -0.60911384 0.78571429
v -0.28729108 -0.53768527 0.85714286
v -0.35871965 -0.39482813 -0.50000000
v -0.28729108 -0.39482813 -0.57142857
v -0.28729108 -0.39482813 0.85714286
v -0.35871965 -0.25197099 -0.50000000
v -0.28729108 -0.25197099 -0.57142857
v -0.28729108 -0.25197099 0.85714286
v -0.35871965 -0.10911384 -0.92857143
v -0.28729108 -0.10911384 -1.00000000
v -0.28729108 -0.18054242 -0.92857143
v -0.28729108 -0.18054242 -0.78571429
v -0.35871965 -0.10911384 -0.78571429
v -0.28729108 -0.18054242 -0.64285714
v -0.35871965 -0.10911384 -0.64285714
v -0.35871965 -0.10911384 -0.50000000
v -0.28729108 -0.18054242 0.92857143
v -0.35871965 -0.10911384 0.92857143
v -0.28729108 -0.10911384 1.00000000
v -0.35871965 0.03374330 -0.92857143
v -0.28729108 0.03374330 -1.00000000
v -0.35871965 0.03374330 -0.78571429
v -0.35871965 0.03374330 -0.64285714
v -0.35871965 0.03374330 0.92857143
v -0.28729108 0.03374330 1.00000000
v -0.35871965 0.17660044 -0.92857143
v -0.28729108 0.17660044 -1.00000000
v -0.35871965 0.17660044 -0.78571429
v -0.35871965 0.17660044 -0.64285714
v -0.35871965 0.17660044 0.92857143
v -0.28729108 0.17660044 1.00000000
v -0.28729108 0.24802901 -0.92857143
v -0.28729108 0.24802901 -0.78571429
v -0.28729108 0.31945758 -0.71428571
v -0.35871965 0.31945758 0.92857143
v -0.28729108 0.31945758 1.00000000
v -0.35871965 0.46231473 -0.64285714
v -0.28729108 0.46231473 -0.71428571
v -0.35871965 0.46231473 0.21428571
v -0.35871965 0.46231473 0.35714286
v -0.35871965 0.46231473 0.50000000
v -0.35871965 0.46231473 0.64285714
v -0.28729108 0.39088616 0.78571429
v -0.28729108 0.46231473 0.71428571
v -0.35871965 0.46231473 0.78571429
v -0.28729108 0.39088616 0.92857143
v -0.28729108 0.53374330 -0.64285714
v -0.28729108 0.60517187 -0.57142857
v -0.35871965 0.60517187 0.21428571
v -0.28729108 0.60517187 0.28571429
v -0.28729108 0.53374330 0.35714286
v -0.28729108 0.53374330 0.50000000
v -0.28729108 0.53374330 0.64285714
v -0.35871965 0.60517187 0.78571429
v -0.35871965 0.60517187 0.92857143
v -0.28729108 0.67660044 -0.50000000
v -0.35871965 0.74802901 -0.35714286
v -0.28729108 0.74802901 -0.42857143
v -0.35871965 0.74802901 0.07142857
v -0.28729108 0.67660044 0.07142857
v -0.28729108 0.74802901 0.00000000
v -0.28729108 0.67660044 0.21428571
v -0.35871965 0.74802901 0.78571429
v -0.28729108 0.81945758 -0.35714286
v -0.35871965 0.89088616 -0.21428571
v -0.28729108 0.89088616 -0.28571429
v -0.35871965 0.89088616 0.07142857
v -0.28729108 0.89088616 0.00000000
v -0.28729108 0.96231473 -0.21428571
v -0.28729108 0.96231473 -0.07142857
v -0.14443393 -0.82339956 0.14285714
v -0.14443393 -0.89482813 0.21428571
v -0.14443393 -0.89482813 0.35714286
v -0.14443393 -0.89482813 0.50000000
v -0.14443393 -0.89482813 0.64285714
v -0.14443393 -0.82339956 0.71428571
v -0.14443393 -0.68054242 0.00000000
v -0.14443393 -0.75197099 0.07142857
v -0.14443393 -0.68054242 0.71428571
v -0.21586250 -0.53768527 -0.64285714
v -0.14443393 -0.53768527 -0.71428571
v -0.14443393 -0.60911384 -0.64285714
v -0.14443393 -0.60911384 -0.50000000
v -0.14443393 -0.60911384 -0.35714286
v -0.14443393 -0.60911384 -0.21428571
v -0.14443393 -0.60911384 -0.07142857
v -0.14443393 -0.60911384 0.78571429
v -0.14443393 -0.53768527 0.85714286
v -0.21586250 -0.39482813 -0.78571429
v -0.14443393 -0.39482813 -0.85714286
v -0.14443393 -0.46625670 -0.78571429
v -0.21586250 -0.39482813 -0.64285714
v -0.14443393 -0.39482813 0.85714286
v -0.21586250 -0.25197099 -0.92857143
v -0.14443393 -0.25197099 -1.00000000
v -0.14443393 -0.32339956 -0.92857143
v -0.21586250 -0.25197099 -0.78571429
v -0.21586250 -0.25197099 -0.64285714
v -0.14443393 -0.25197099 0.85714286
v -0.14443393 -0.10911384 -1.00000000
v -0.14443393 -0.18054242 0.92857143
v -0.14443393 -0.10911384 1.00000000
v -0.14443393 0.03374330 -1.00000000
v -0.14443393 0.03374330 1.00000000
v -0.14443393 0.17660044 -1.00000000
v -0.14443393 0.17660044 1.00000000
v -0.14443393 0.24802901 -0.92857143
v -0.14443393 0.24802901 -0.78571429
v -0.14443393 0.31945758 -0.71428571
v -0.14443393 0.31945758 1.00000000
v -0.14443393 0.46231473 -0.71428571
v -0.14443393 0.39088616 0.78571429
v -0.14443393 0.46231473 0.71428571
v -0.14443393 0.39088616 0.92857143
v -0.21586250 0.60517187 -0.64285714
v -0.14443393 0.60517187 -0.71428571
v -0.21586250 0.60517187 0.07142857
v -0.14443393 0.53374330 0.07142857
v -0.14443393 0.60517187 0.00000000
v -0.21586250 0.60517187 0.21428571
v -0.14443393 0.53374330 0.21428571
v -0.14443393 0.53374330 0.35714286
v -0.14443393 0.53374330 0.50000000
v -0.14443393 0.53374330 0.64285714
v -0.14443393 0.67660044 -0.64285714
v -0.14443393 0.67660044 -0.50000000
v -0.14443393 0.74802901 -0.42857143
v -0.14443393 0.74802901 0.00000000
v -0.14443393 0.81945758 -0.35714286
v -0.14443393 0.89088616 -0.28571429
v -0.14443393 0.89088616 0.00000000
v -0.14443393 0.96231473 -0.21428571
v -0.14443393 0.96231473 -0.07142857
v -0.00157679 -0.82339956 0.14285714
v -0.00157679 -0.89482813 0.21428571
v -0.00157679 -0.89482813 0.35714286
v -0.00157679 -0.89482813 0.50000000
v -0.00157679 -0.89482813 0.64285714
v -0.00157679 -0.82339956 0.71428571
v -0.07300536 -0.68054242 -0.21428571
v -0.00157679 -0.68054242 -0.28571429
v -0.00157679 -0.75197099 -0.21428571
v -0.00157679 -0.75197099 -0.07142857
v -0.07300536 -0.68054242 -0.07142857
v -0.00157679 -0.75197099 0.07142857
v -0.00157679 -0.68054242 0.71428571
v -0.00157679 -0.53768527 -0.71428571
v -0.00157679 -0.60911384 -0.64285714
v -0.00157679 -0.60911384 -0.50000000
v -0.00157679 -0.60911384 -0.35714286
v -0.00157679 -0.60911384 0.78571429
v -0.00157679 -0.53768527 0.85714286
v -0.07300536 -0.39482813 -0.92857143
v -0.00157679 -0.39482813 -1.00000000
v -0.00157679 -0.46625670 -0.92857143
v -0.00157679 -0.46625670 -0.78571429
v -0.00157679 -0.39482813 0.85714286
v -0.00157679 -0.25197099 -1.00000000
v -0.00157679 -0.25197099 0.85714286
v -0.00157679 -0.10911384 -1.00000000
v -0.00157679 -0.18054242 0.92857143
v -0.00157679 -0.10911384 1.00000000
v -0.00157679 0.03374330 -1.00000000
v -0.00157679 0.03374330 1.00000000
v -0.00157679 0.17660044 -1.00000000
v -0.00157679 0.17660044 1.00000000
v -0.00157679 0.24802901 -0.92857143
v -0.07300536 0.31945758 -0.78571429
v -0.00157679 0.31945758 -0.85714286
v -0.00157679 0.31945758 1.00000000
v -0.07300536 0.46231473 -0.78571429
v -0.00157679 0.46231473 -0.85714286
v -0.00157679 0.39088616 0.78571429
v -0.00157679 0.46231473 0.71428571
v -0.00157679 0.39088616 0.92857143
v -0.07300536 0.60517187 -0.78571429
v -0.00157679 0.60517187 -0.85714286
v -0.00157679 0.53374330 0.07142857
v -0.00157679 0.60517187 0.00000000
v -0.00157679 0.53374330 0.21428571
v -0.00157679 0.53374330 0.35714286
v -0.00157679 0.53374330 0.50000000
v -0.00157679 0.53374330 0.64285714
v -0.00157679 0.67660044 -0.78571429
v -0.00157679 0.67660044 -0.64285714
v -0.07300536 0.74802901 -0.50000000
v -0.00157679 0.74802901 -0.57142857
v -0.00157679 0.74802901 0.00000000
v -0.00157679 0.81945758 -0.50000000
v -0.00157679 0.81945758 -0.35714286
v -0.00157679 0.89088616 -0.28571429
v -0.00157679 0.89088616 0.00000000
v -0.00157679 0.96231473 -0.21428571
v -0.00157679 0.96231473 -0.07142857
v 0.06985178 -0.82339956 0.07142857
v 0.14128035 -0.82339956 0.00000000
v 0.14128035 -0.89482813 0.07142857
v 0.14128035 -0.89482813 0.21428571
v 0.14128035 -0.89482813 0.35714286
v 0.14128035 -0.89482813 0.50000000
v 0.14128035 -0.89482813 0.64285714
v 0.14128035 -0.82339956 0.71428571
v 0.14128035 -0.68054242 -0.28571429
v 0.14128035 -0.75197099 -0.21428571
v 0.14128035 -0.75197099 -0.07142857
v 0.14128035 -0.75197099 0.78571429
v 0.06985178 -0.68054242 0.78571429
v 0.14128035 -0.68054242 0.85714286
v 0.14128035 -0.53768527 -0.71428571
v 0.14128035 -0.60911384 -0.64285714
v 0.14128035 -0.60911384 -0.50000000
v 0.14128035 -0.60911384 -0.35714286
v 0.14128035 -0.53768527 0.85714286
v 0.14128035 -0.39482813 -1.00000000
v 0.14128035 -0.46625670 -0.92857143
v 0.14128035 -0.46625670 -0.78571429
v 0.14128035 -0.39482813 0.85714286
v 0.14128035 -0.25197099 -1.00000000
v 0.14128035 -0.25197099 0.85714286
v 0.14128035 -0.10911384 -1.00000000
v 0.14128035 -0.18054242 0.92857143
v 0.14128035 -0.10911384 1.00000000
v 0.14128035 0.03374330 -1.00000000
v 0.14128035 0.03374330 1.00000000
v 0.14128035 0.17660044 -1.00000000
v 0.14128035 0.17660044 1.00000000
v 0.14128035 0.24802901 -0.92857143
v 0.14128035 0.31945758 -0.85714286
v 0.14128035 0.31945758 1.00000000
v 0.14128035 0.46231473 -0.85714286
v 0.06985178 0.46231473 0.78571429
v 0.14128035 0.46231473 0.85714286
v 0.14128035 0.39088616 0.92857143
v 0.14128035 0.53374330 -0.78571429
v 0.06985178 0.60517187 -0.78571429
v 0.14128035 0.60517187 -0.71428571
v 0.14128035 0.53374330 0.07142857
v 0.14128035 0.60517187 0.00000000
v 0.14128035 0.53374330 0.21428571
v 0.14128035 0.53374330 0.35714286
v 0.14128035 0.53374330 0.50000000
v 0.14128035 0.53374330 0.64285714
v 0.14128035 0.53374330 0.78571429
v 0.14128035 0.67660044 -0.64285714
v 0.14128035 0.74802901 -0.57142857
v 0.14128035 0.74802901 0.00000000
v 0.14128035 0.81945758 -0.50000000
v 0.06985178 0.89088616 -0.35714286
v 0.14128035 0.89088616 -0.42857143
v 0.14128035 0.89088616 0.00000000
v 0.14128035 0.96231473 -0.35714286
v 0.14128035 0.96231473 -0.21428571
v 0.14128035 0.96231473 -0.07142857
v 0.28413750 -0.82339956 0.00000000
v 0.28413750 -0.89482813 0.07142857
v 0.28413750 -0.89482813 0.21428571
v 0.28413750 -0.89482813 0.35714286
v 0.28413750 -0.89482813 0.50000000
v 0.28413750 -0.89482813 0.64285714
v 0.28413750 -0.82339956 0.71428571
v 0.21270892 -0.68054242 -0.92857143
v 0.28413750 -0.68054242 -1.00000000
v 0.28413750 -0.75197099 -0.92857143
v 0.28413750 -0.75197099 -0.78571429
v 0.21270892 -0.68054242 -0.78571429
v 0.28413750 -0.75197099 -0.64285714
v 0.21270892 -0.68054242 -0.64285714
v 0.28413750 -0.75197099 -0.50000000
v 0.21270892 -0.68054242 -0.50000000
v 0.28413750 -0.75197099 -0.35714286
v 0.21270892 -0.68054242 -0.35714286
v 0.28413750 -0.75197099 -0.21428571
v 0.28413750 -0.75197099 -0.07142857
v 0.28413750 -0.75197099 0.78571429
v 0.28413750 -0.68054242 0.85714286
v 0.28413750 -0.60911384 -0.92857143
v 0.28413750 -0.60911384 -0.78571429
v 0.28413750 -0.53768527 -0.71428571
v 0.28413750 -0.53768527 0.85714286
v 0.21270892 -0.39482813 -0.92857143
v 0.21270892 -0.39482813 -0.78571429
v 0.28413750 -0.39482813 -0.71428571
v 0.28413750 -0.46625670 0.92857143
v 0.21270892 -0.39482813 0.92857143
v 0.28413750 -0.39482813 1.00000000
v 0.21270892 -0.25197099 -0.92857143
v 0.21270892 -0.25197099 -0.78571429
v 0.28413750 -0.25197099 -0.71428571
v 0.21270892 -0.25197099 0.92857143
v 0.28413750 -0.25197099 1.00000000
v 0.21270892 -0.10911384 -0.92857143
v 0.21270892 -0.10911384 -0.78571429
v 0.28413750 -0.10911384 -0.71428571
v 0.28413750 -0.10911384 1.00000000
v 0.21270892 0.03374330 -0.92857143
v 0.28413750 0.03374330 -0.85714286
v 0.28413750 -0.03768527 -0.78571429
v 0.28413750 0.03374330 1.00000000
v 0.21270892 0.17660044 -0.92857143
v 0.28413750 0.17660044 -0.85714286
v 0.28413750 0.17660044 1.00000000
v 0.28413750 0.31945758 -0.85714286
v 0.28413750 0.31945758 1.00000000
v 0.28413750 0.46231473 -0.85714286
v 0.21270892 0.46231473 0.92857143
v 0.28413750 0.46231473 1.00000000
v 0.28413750 0.53374330 -0.78571429
v 0.28413750 0.60517187 -0.71428571
v 0.21270892 0.60517187 -0.07142857
v 0.28413750 0.53374330 -0.07142857
v 0.28413750 0.60517187 -0.14285714
v 0.28413750 0.53374330 0.07142857
v 0.28413750 0.53374330 0.21428571
v 0.28413750 0.53374330 0.35714286
v 0.28413750 0.53374330 0.50000000
v 0.28413750 0.53374330 0.64285714
v 0.28413750 0.53374330 0.78571429
v 0.21270892 0.60517187 0.92857143
v 0.28413750 0.60517187 0.85714286
v 0.28413750 0.60517187 1.00000000
v 0.28413750 0.67660044 -0.64285714
v 0.28413750 0.74802901 -0.57142857
v 0.21270892 0.74802901 -0.07142857
v 0.28413750 0.74802901 -0.14285714
v 0.28413750 0.67660044 0.92857143
v 0.28413750 0.81945758 -0.50000000
v 0.21270892 0.89088616 -0.35714286
v 0.28413750 0.81945758 -0.35714286
v 0.28413750 0.89088616 -0.28571429
v 0.21270892 0.89088616 -0.07142857
v 0.28413750 0.89088616 -0.14285714
v 0.28413750 0.96231473 -0.21428571
v 0.35556607 -0.82339956 -0.07142857
v 0.42699464 -0.82339956 -0.14285714
v 0.42699464 -0.89482813 -0.07142857
v 0.42699464 -0.89482813 0.07142857
v 0.42699464 -0.89482813 0.21428571
v 0.42699464 -0.89482813 0.35714286
v 0.42699464 -0.89482813 0.50000000
v 0.35556607 -0.82339956 0.64285714
v 0.42699464 -0.82339956 0.57142857
v 0.35556607 -0.68054242 -0.92857143
v 0.35556607 -0.68054242 -0.78571429
v 0.35556607 -0.68054242 -0.64285714
v 0.35556607 -0.68054242 -0.50000000
v 0.42699464 -0.68054242 -0.42857143
v 0.42699464 -0.75197099 -0.35714286
v 0.42699464 -0.75197099 -0.21428571
v 0.42699464 -0.75197099 0.64285714
v 0.35556607 -0.68054242 0.78571429
v 0.42699464 -0.68054242 0.71428571
v 0.35556607 -0.53768527 -0.64285714
v 0.42699464 -0.53768527 -0.57142857
v 0.42699464 -0.60911384 -0.50000000
v 0.35556607 -0.53768527 0.78571429
v 0.42699464 -0.53768527 0.71428571
v 0.35556607 -0.39482813 -0.64285714
v 0.42699464 -0.39482813 -0.57142857
v 0.42699464 -0.46625670 0.78571429
v 0.35556607 -0.39482813 0.92857143
v 0.42699464 -0.39482813 0.85714286
v 0.35556607 -0.25197099 -0.64285714
v 0.42699464 -0.25197099 -0.57142857
v 0.42699464 -0.32339956 0.92857143
v 0.42699464 -0.25197099 1.00000000
v 0.35556607 -0.10911384 -0.64285714
v 0.42699464 -0.10911384 -0.57142857
v 0.42699464 -0.10911384 1.00000000
v 0.42699464 0.03374330 -0.85714286
v 0.42699464 -0.03768527 -0.78571429
v 0.42699464 -0.03768527 -0.64285714
v 0.42699464 0.03374330 1.00000000
v 0.42699464 0.10517187 -0.78571429
v 0.35556607 0.17660044 -0.78571429
v 0.42699464 0.17660044 -0.71428571
v 0.42699464 0.17660044 1.00000000
v 0.35556607 0.31945758 -0.78571429
v 0.42699464 0.31945758 -0.71428571
v 0.42699464 0.31945758 1.00000000
v 0.35556607 0.46231473 -0.78571429
v 0.42699464 0.46231473 -0.71428571
v 0.42699464 0.46231473 1.00000000
v 0.35556607 0.60517187 -0.64285714
v 0.42699464 0.53374330 -0.64285714
v 0.42699464 0.60517187 -0.57142857
v 0.35556607 0.60517187 -0.21428571
v 0.42699464 0.53374330 -0.21428571
v 0.42699464 0.60517187 -0.28571429
v 0.42699464 0.53374330 -0.07142857
v 0.42699464 0.53374330 0.07142857
v 0.42699464 0.53374330 0.21428571
v 0.42699464 0.53374330 0.35714286
v 0.42699464 0.53374330 0.50000000
v 0.42699464 0.53374330 0.64285714
v 0.42699464 0.53374330 0.78571429
v 0.42699464 0.60517187 0.85714286
v 0.42699464 0.60517187 1.00000000
v 0.42699464 0.74802901 -0.57142857
v 0.35556607 0.74802901 -0.21428571
v 0.42699464 0.74802901 -0.28571429
v 0.35556607 0.74802901 0.92857143
v 0.42699464 0.74802901 0.85714286
v 0.42699464 0.74802901 1.00000000
v 0.42699464 0.81945758 -0.50000000
v 0.42699464 0.81945758 -0.35714286
v 0.35556607 0.89088616 -0.21428571
v 0.42699464 0.81945758 0.92857143
v 0.49842321 -0.82339956 -0.07142857
v 0.49842321 -0.82339956 0.07142857
v 0.49842321 -0.82339956 0.21428571
v 0.49842321 -0.82339956 0.35714286
v 0.49842321 -0.82339956 0.50000000
v 0.56985178 -0.68054242 -0.42857143
v 0.56985178 -0.75197099 -0.35714286
v 0.56985178 -0.75197099 -0.21428571
v 0.49842321 -0.68054242 -0.07142857
v 0.56985178 -0.68054242 -0.14285714
v 0.49842321 -0.68054242 0.07142857
v 0.49842321 -0.68054242 0.21428571
v 0.49842321 -0.68054242 0.35714286
v 0.49842321 -0.68054242 0.50000000
v 0.56985178 -0.75197099 0.64285714
v 0.56985178 -0.68054242 0.57142857
v 0.56985178 -0.68054242 0.71428571
v 0.49842321 -0.53768527 -0.50000000
v 0.56985178 -0.53768527 -0.42857143
v 0.49842321 -0.53768527 -0.21428571
v 0.56985178 -0.60911384 -0.21428571
v 0.56985178 -0.53768527 -0.28571429
v 0.49842321 -0.53768527 -0.07142857
v 0.49842321 -0.53768527 0.07142857
v 0.49842321 -0.53768527 0.21428571
v 0.56985178 -0.53768527 0.28571429
v 0.56985178 -0.60911384 0.35714286
v 0.56985178 -0.60911384 0.50000000
v 0.56985178 -0.53768527 0.71428571
v 0.49842321 -0.39482813 -0.50000000
v 0.56985178 -0.39482813 -0.42857143
v 0.49842321 -0.39482813 -0.21428571
v 0.56985178 -0.39482813 -0.28571429
v 0.49842321 -0.39482813 -0.07142857
v 0.49842321 -0.39482813 0.07142857
v 0.49842321 -0.39482813 0.21428571
v 0.56985178 -0.39482813 0.28571429
v 0.56985178 -0.46625670 0.78571429
v 0.56985178 -0.39482813 0.85714286
v 0.56985178 -0.25197099 -0.57142857
v 0.56985178 -0.32339956 -0.50000000
v 0.49842321 -0.25197099 -0.21428571
v 0.56985178 -0.25197099 -0.28571429
v 0.49842321 -0.25197099 -0.07142857
v 0.49842321 -0.25197099 0.07142857
v 0.49842321 -0.25197099 0.21428571
v 0.56985178 -0.25197099 0.28571429
v 0.49842321 -0.25197099 0.92857143
v 0.56985178 -0.25197099 0.85714286
v 0.56985178 -0.10911384 -0.57142857
v 0.56985178 -0.18054242 -0.21428571
v 0.56985178 -0.18054242 -0.07142857
v 0.56985178 -0.18054242 0.07142857
v 0.56985178 -0.18054242 0.21428571
v 0.49842321 -0.10911384 0.92857143
v 0.56985178 -0.10911384 0.85714286
v 0.56985178 0.03374330 -0.85714286
v 0.56985178 -0.03768527 -0.78571429
v 0.56985178 -0.03768527 -0.64285714
v 0.56985178 -0.03768527 0.92857143
v 0.56985178 0.03374330 1.00000000
v 0.56985178 0.10517187 -0.78571429
v 0.49842321 0.17660044 -0.64285714
v 0.56985178 0.10517187 -0.64285714
v 0.56985178 0.17660044 -0.57142857
v 0.56985178 0.17660044 1.00000000
v 0.49842321 0.31945758 -0.64285714
v 0.56985178 0.31945758 -0.57142857
v 0.49842321 0.31945758 0.92857143
v 0.56985178 0.24802901 0.92857143
v 0.56985178 0.31945758 0.85714286
v 0.49842321 0.46231473 -0.64285714
v 0.56985178 0.46231473 -0.57142857
v 0.49842321 0.46231473 0.07142857
v 0.56985178 0.39088616 0.07142857
v 0.56985178 0.46231473 0.00000000
v 0.49842321 0.46231473 0.21428571
v 0.56985178 0.39088616 0.21428571
v 0.49842321 0.46231473 0.35714286
v 0.56985178 0.39088616 0.35714286
v 0.49842321 0.46231473 0.50000000
v 0.56985178 0.39088616 0.50000000
v 0.56985178 0.46231473 0.57142857
v 0.49842321 0.46231473 0.92857143
v 0.56985178 0.46231473 0.85714286
v 0.49842321 0.60517187 -0.50000000
v 0.56985178 0.53374330 -0.50000000
v 0.56985178 0.60517187 -0.42857143
v 0.56985178 0.53374330 -0.21428571
v 0.56985178 0.60517187 -0.28571429
v 0.56985178 0.53374330 -0.07142857
v 0.56985178 0.60517187 0.57142857
v 0.49842321 0.60517187 0.64285714
v 0.56985178 0.60517187 0.71428571
v 0.56985178 0.53374330 0.78571429
v 0.49842321 0.60517187 0.92857143
v 0.49842321 0.74802901 -0.50000000
v 0.56985178 0.74802901 -0.42857143
v 0.56985178 0.74802901 -0.28571429
v 0.56985178 0.67660044 0.64285714
v 0.49842321 0.74802901 0.92857143
v 0.56985178 0.81945758 -0.35714286
v 0.64128035 -0.68054242 -0.35714286
v 0.64128035 -0.68054242 -0.21428571
v 0.64128035 -0.68054242 0.64285714
v 0.71270892 -0.53768527 -0.42857143
v 0.71270892 -0.60911384 -0.35714286
v 0.71270892 -0.53768527 -0.28571429
v 0.71270892 -0.53768527 0.28571429
v 0.71270892 -0.60911384 0.35714286
v 0.71270892 -0.60911384 0.50000000
v 0.64128035 -0.53768527 0.64285714
v 0.71270892 -0.53768527 0.57142857
v 0.71270892 -0.46625670 -0.35714286
v 0.64128035 -0.39482813 -0.35714286
v 0.71270892 -0.39482813 0.28571429
v 0.64128035 -0.39482813 0.64285714
v 0.71270892 -0.39482813 0.57142857
v 0.64128035 -0.39482813 0.78571429
v 0.64128035 -0.25197099 -0.50000000
v 0.64128035 -0.25197099 -0.35714286
v 0.71270892 -0.25197099 0.28571429
v 0.71270892 -0.32339956 0.64285714
v 0.71270892 -0.32339956 0.78571429
v 0.71270892 -0.25197099 0.85714286
v 0.64128035 -0.10911384 -0.50000000
v 0.64128035 -0.10911384 -0.35714286
v 0.71270892 -0.18054242 -0.21428571
v 0.71270892 -0.10911384 -0.28571429
v 0.64128035 -0.10911384 -0.07142857
v 0.71270892 -0.10911384 -0.14285714
v 0.64128035 -0.10911384 0.07142857
v 0.64128035 -0.10911384 0.21428571
v 0.71270892 -0.18054242 0.35714286
v 0.64128035 -0.10911384 0.35714286
v 0.64128035 -0.10911384 0.50000000
v 0.71270892 -0.18054242 0.50000000
v 0.71270892 -0.10911384 0.57142857
v 0.71270892 -0.10911384 0.85714286
v 0.64128035 0.03374330 -0.78571429
v 0.64128035 0.03374330 -0.64285714
v 0.64128035 0.03374330 -0.50000000
v 0.71270892 0.03374330 -0.42857143
v 0.71270892 -0.03768527 -0.35714286
v 0.64128035 0.03374330 -0.07142857
v 0.71270892 0.03374330 -0.14285714
v 0.64128035 0.03374330 0.07142857
v 0.64128035 0.03374330 0.21428571
v 0.64128035 0.03374330 0.35714286
v 0.64128035 0.03374330 0.50000000
v 0.71270892 0.03374330 0.57142857
v 0.71270892 -0.03768527 0.92857143
v 0.71270892 0.03374330 1.00000000
v 0.64128035 0.17660044 -0.50000000
v 0.71270892 0.10517187 -0.35714286
v 0.64128035 0.17660044 -0.35714286
v 0.71270892 0.17660044 -0.28571429
v 0.64128035 0.17660044 -0.07142857
v 0.71270892 0.17660044 -0.14285714
v 0.64128035 0.17660044 0.07142857
v 0.64128035 0.17660044 0.21428571
v 0.64128035 0.17660044 0.35714286
v 0.64128035 0.17660044 0.50000000
v 0.71270892 0.17660044 0.57142857
v 0.64128035 0.17660044 0.78571429
v 0.71270892 0.10517187 0.78571429
v 0.71270892 0.17660044 0.71428571
v 0.64128035 0.17660044 0.92857143
v 0.71270892 0.10517187 0.92857143
v 0.64128035 0.31945758 -0.50000000
v 0.64128035 0.31945758 -0.35714286
v 0.71270892 0.24802901 -0.21428571
v 0.64128035 0.31945758 -0.21428571
v 0.64128035 0.31945758 -0.07142857
v 0.64128035 0.31945758 0.07142857
v 0.64128035 0.31945758 0.21428571
v 0.71270892 0.31945758 0.28571429
v 0.71270892 0.24802901 0.35714286
v 0.71270892 0.24802901 0.50000000
v 0.71270892 0.31945758 0.57142857
v 0.64128035 0.31945758 0.64285714
v 0.71270892 0.24802901 0.64285714
v 0.64128035 0.31945758 0.78571429
v 0.64128035 0.46231473 -0.50000000
v 0.64128035 0.46231473 -0.35714286
v 0.64128035 0.46231473 -0.21428571
v 0.64128035 0.46231473 -0.07142857
v 0.71270892 0.39088616 0.35714286
v 0.71270892 0.39088616 0.50000000
v 0.64128035 0.46231473 0.64285714
v 0.64128035 0.46231473 0.78571429
v 0.64128035 0.60517187 -0.35714286
v 0.64128035 0.60517187 0.64285714
v 0.64128035 0.74802901 -0.35714286
v 0.78413750 -0.53768527 -0.35714286
v 0.78413750 -0.53768527 0.35714286
v 0.78413750 -0.53768527 0.50000000
v 0.85556607 -0.39482813 0.28571429
v 0.85556607 -0.46625670 0.35714286
v 0.85556607 -0.46625670 0.50000000
v 0.85556607 -0.39482813 0.57142857
v 0.85556607 -0.25197099 0.28571429
v 0.78413750 -0.25197099 0.64285714
v 0.85556607 -0.25197099 0.57142857
v 0.78413750 -0.25197099 0.78571429
v 0.78413750 -0.10911384 -0.21428571
v 0.85556607 -0.18054242 0.35714286
v 0.85556607 -0.18054242 0.50000000
v 0.78413750 -0.10911384 0.64285714
v 0.78413750 -0.10911384 0.78571429
v 0.78413750 0.03374330 -0.35714286
v 0.78413750 0.03374330 -0.21428571
v 0.78413750 0.03374330 0.64285714
v 0.78413750 0.03374330 0.78571429
v 0.78413750 0.03374330 0.92857143
v 0.78413750 0.17660044 -0.21428571
v 0.78413750 0.17660044 0.64285714
v 0.78413750 0.31945758 0.35714286
v 0.78413750 0.31945758 0.50000000
v 0.92699464 -0.39482813 0.35714286
v 0.92699464 -0.39482813 0.50000000
v 0.92699464 -0.25197099 0.35714286
v 0.92699464 -0.25197099 0.50000000
f 3 2 1
f 5 4 1
f 1 4 3
f 7 6 5
f 5 6 4
f 7 8 6
f 11 10 9
f 11 9 2
f 9 1 2
f 9 12 1
f 1 13 5
f 1 12 13
f 5 14 7
f 5 13 14
f 8 7 15
f 15 7 14
f 18 17 16
f 18 16 10
f 16 9 10
f 16 19 9
f 9 20 12
f 9 19 20
f 12 21 13
f 12 20 21
f 13 22 14
f 13 21 22
f 15 14 23
f 23 14 22
f 16 17 24
f 24 17 25
f 16 26 19
f 16 24 26
f 19 27 20
f 19 26 27
f 29 21 28
f 21 27 28
f 21 20 27
f 21 29 22
f 22 29 30
f 22 30 23
f 25 31 24
f 24 31 26
f 26 31 32
f 26 32 27
f 27 32 33
f 27 33 28
f 36 35 34
f 38 37 34
f 34 37 36
f 38 39 37
f 34 35 40
f 40 35 41
f 43 38 42
f 38 40 42
f 38 34 40
f 38 43 39
f 41 44 40
f 40 44 42
f 47 46 45
f 45 48 47
f 45 46 49
f 49 46 50
f 48 45 51
f 51 45 49
f 54 53 52
f 56 55 52
f 52 55 54
f 2 3 56
f 3 55 56
f 3 57 55
f 58 3 4
f 58 57 3
f 6 49 50
f 58 6 50
f 4 6 58
f 6 8 49
f 8 51 49
f 8 59 51
f 52 53 60
f 60 53 61
f 60 10 11
f 56 60 11
f 52 60 56
f 56 11 2
f 15 59 8
f 15 62 59
f 60 61 18
f 61 17 18
f 61 63 17
f 60 18 10
f 23 62 15
f 23 64 62
f 63 25 17
f 65 25 63
f 28 66 29
f 67 30 29
f 67 29 66
f 67 68 30
f 68 23 30
f 68 64 23
f 31 25 69
f 25 70 69
f 25 65 70
f 71 32 31
f 71 31 69
f 72 33 32
f 72 32 71
f 66 28 33
f 72 66 33
f 73 66 72
f 66 74 67
f 66 73 74
f 68 67 75
f 67 76 75
f 67 74 76
f 76 77 75
f 69 70 78
f 78 70 79
f 69 80 71
f 69 78 80
f 71 81 72
f 71 80 81
f 72 82 73
f 72 81 82
f 84 74 83
f 74 82 83
f 74 73 82
f 74 84 76
f 76 84 85
f 76 85 77
f 87 86 36
f 36 86 35
f 88 36 37
f 88 87 36
f 37 79 88
f 79 37 78
f 39 78 37
f 78 39 89
f 90 89 39
f 78 89 80
f 80 89 91
f 80 91 81
f 81 91 92
f 81 92 82
f 82 92 93
f 82 93 83
f 96 95 94
f 86 96 94
f 41 86 94
f 35 86 41
f 98 97 43
f 98 43 42
f 39 43 90
f 90 43 97
f 95 99 94
f 94 99 41
f 99 44 41
f 99 100 44
f 42 44 98
f 98 44 100
f 103 102 101
f 105 104 101
f 101 104 103
f 46 47 105
f 47 104 105
f 47 106 104
f 47 48 106
f 106 48 107
f 110 109 108
f 112 111 108
f 108 111 110
f 114 113 112
f 112 113 111
f 116 115 114
f 114 115 113
f 118 117 116
f 116 117 115
f 117 118 102
f 118 101 102
f 118 119 101
f 101 120 105
f 101 119 120
f 120 50 46
f 120 46 105
f 51 107 48
f 51 121 107
f 109 122 108
f 108 122 112
f 112 122 123
f 125 124 123
f 124 112 123
f 124 114 112
f 124 53 54
f 116 124 54
f 114 124 116
f 116 54 55
f 116 55 118
f 118 55 57
f 118 57 119
f 119 57 58
f 119 58 120
f 120 58 50
f 59 127 126
f 121 59 126
f 51 59 121
f 127 128 126
f 124 125 129
f 129 125 130
f 129 61 53
f 129 53 124
f 62 131 127
f 62 127 59
f 128 127 132
f 132 127 131
f 129 130 133
f 133 130 134
f 133 63 61
f 133 61 129
f 64 135 131
f 64 131 62
f 132 131 136
f 136 131 135
f 133 134 137
f 137 134 138
f 137 65 63
f 137 63 133
f 68 139 135
f 68 135 64
f 136 135 140
f 140 135 139
f 137 138 141
f 141 138 142
f 141 70 65
f 141 65 137
f 75 139 68
f 75 77 139
f 77 140 139
f 77 143 140
f 141 142 144
f 144 142 145
f 144 79 70
f 144 70 141
f 83 146 84
f 147 85 84
f 147 84 146
f 147 148 85
f 148 77 85
f 148 143 77
f 150 149 87
f 87 149 86
f 88 144 145
f 150 88 145
f 87 88 150
f 79 144 88
f 89 90 151
f 89 151 152
f 153 89 152
f 91 89 153
f 91 154 92
f 153 154 91
f 92 155 93
f 154 155 92
f 83 93 146
f 93 156 146
f 93 155 156
f 146 156 147
f 147 156 157
f 147 157 148
f 159 158 96
f 96 158 95
f 96 86 149
f 96 149 159
f 98 160 97
f 151 90 97
f 160 151 97
f 161 151 160
f 152 151 162
f 162 151 161
f 158 163 95
f 95 163 99
f 163 165 164
f 100 163 164
f 99 163 100
f 160 98 100
f 164 160 100
f 166 160 164
f 160 167 161
f 160 166 167
f 162 161 168
f 168 161 167
f 165 169 164
f 164 169 166
f 166 169 170
f 166 170 167
f 167 170 171
f 167 171 168
f 174 173 172
f 176 175 172
f 172 175 174
f 176 177 175
f 179 178 103
f 103 178 102
f 104 172 173
f 179 104 173
f 103 104 179
f 172 104 106
f 172 106 176
f 106 107 176
f 107 177 176
f 107 180 177
f 183 182 181
f 109 110 181
f 110 183 181
f 110 184 183
f 185 110 111
f 185 184 110
f 186 111 113
f 186 185 111
f 187 113 115
f 187 186 113
f 188 115 117
f 188 187 115
f 117 102 178
f 117 178 188
f 121 190 189
f 180 121 189
f 107 121 180
f 190 191 189
f 182 192 181
f 192 194 193
f 192 193 122
f 181 192 122
f 109 181 122
f 195 123 122
f 195 122 193
f 195 125 123
f 126 190 121
f 126 128 190
f 128 191 190
f 128 196 191
f 193 194 197
f 197 194 198
f 193 199 195
f 193 197 199
f 199 130 125
f 199 125 195
f 132 196 128
f 132 200 196
f 197 198 201
f 201 198 202
f 197 203 199
f 197 201 203
f 203 134 130
f 203 130 199
f 136 200 132
f 136 204 200
f 207 206 205
f 207 205 202
f 205 201 202
f 205 208 201
f 201 209 203
f 201 208 209
f 209 138 134
f 209 134 203
f 140 204 136
f 140 210 204
f 205 206 211
f 211 206 212
f 205 213 208
f 205 211 213
f 208 214 209
f 208 213 214
f 214 142 138
f 214 138 209
f 143 210 140
f 143 215 210
f 218 217 216
f 218 216 212
f 216 211 212
f 216 219 211
f 211 220 213
f 211 219 220
f 213 221 214
f 213 220 221
f 221 145 142
f 221 142 214
f 148 215 143
f 148 222 215
f 217 223 216
f 225 224 223
f 224 216 223
f 224 219 216
f 219 226 220
f 219 224 226
f 226 149 150
f 221 226 150
f 220 226 221
f 221 150 145
f 228 227 153
f 228 153 152
f 153 229 154
f 227 229 153
f 154 230 155
f 229 230 154
f 155 231 156
f 230 231 155
f 231 233 232
f 157 231 232
f 156 231 157
f 232 234 157
f 234 148 157
f 234 222 148
f 224 225 235
f 235 225 236
f 235 158 159
f 226 235 159
f 224 235 226
f 226 159 149
f 162 228 152
f 162 237 228
f 232 233 238
f 238 233 239
f 234 232 240
f 232 241 240
f 232 238 241
f 241 242 240
f 236 243 235
f 235 243 158
f 243 163 158
f 243 244 163
f 165 163 244
f 165 244 245
f 168 237 162
f 168 246 237
f 238 239 247
f 247 239 248
f 250 241 249
f 241 247 249
f 241 238 247
f 241 250 242
f 245 251 165
f 165 251 169
f 251 253 252
f 170 251 252
f 169 251 170
f 254 171 170
f 254 170 252
f 254 255 171
f 255 168 171
f 255 246 168
f 248 256 247
f 247 256 249
f 253 257 252
f 252 257 254
f 254 257 258
f 254 258 255
f 261 260 259
f 263 262 259
f 259 262 261
f 173 174 263
f 174 262 263
f 174 264 262
f 265 174 175
f 265 264 174
f 175 177 265
f 265 177 266
f 269 268 267
f 269 267 260
f 267 259 260
f 267 270 259
f 270 178 179
f 263 270 179
f 259 270 263
f 263 179 173
f 180 266 177
f 180 271 266
f 273 272 183
f 183 272 182
f 274 183 184
f 274 273 183
f 275 184 185
f 275 274 184
f 276 185 186
f 276 275 185
f 187 267 268
f 276 187 268
f 186 187 276
f 267 187 188
f 267 188 270
f 270 188 178
f 277 271 180
f 277 180 189
f 189 191 277
f 277 191 278
f 192 182 279
f 182 280 279
f 182 272 280
f 279 194 192
f 196 278 191
f 196 281 278
f 279 280 282
f 282 280 283
f 282 198 194
f 282 194 279
f 200 281 196
f 200 284 281
f 287 286 285
f 289 288 285
f 285 288 287
f 291 290 289
f 289 290 288
f 290 291 283
f 291 282 283
f 291 292 282
f 292 202 198
f 292 198 282
f 204 294 293
f 284 204 293
f 200 204 284
f 294 295 293
f 285 286 296
f 296 286 297
f 285 298 289
f 285 296 298
f 289 299 291
f 289 298 299
f 299 206 207
f 292 299 207
f 291 299 292
f 292 207 202
f 210 300 294
f 210 294 204
f 295 294 301
f 301 294 300
f 296 297 302
f 302 297 303
f 296 304 298
f 296 302 304
f 298 305 299
f 298 304 305
f 305 212 206
f 305 206 299
f 215 306 300
f 215 300 210
f 301 300 307
f 307 300 306
f 303 308 302
f 302 308 304
f 304 308 309
f 310 217 218
f 304 310 218
f 305 304 218
f 309 310 304
f 305 218 212
f 222 311 306
f 222 306 215
f 307 306 312
f 312 306 311
f 223 217 313
f 217 314 313
f 217 310 314
f 313 225 223
f 228 315 227
f 316 229 227
f 316 227 315
f 317 230 229
f 317 229 316
f 318 231 230
f 318 230 317
f 233 231 318
f 321 320 319
f 319 322 311
f 234 319 311
f 222 234 311
f 321 319 234
f 311 322 312
f 314 323 313
f 225 313 323
f 324 225 323
f 236 225 324
f 237 325 315
f 237 315 228
f 327 316 326
f 316 325 326
f 316 315 325
f 316 327 317
f 317 327 328
f 317 328 318
f 318 328 329
f 233 318 239
f 329 239 318
f 239 329 330
f 320 330 329
f 330 320 321
f 240 331 234
f 331 321 234
f 331 330 321
f 242 331 240
f 324 332 236
f 236 332 243
f 332 334 333
f 244 332 333
f 243 332 244
f 333 245 244
f 337 336 335
f 336 338 325
f 246 336 325
f 237 246 325
f 335 336 246
f 325 338 326
f 339 248 330
f 330 248 239
f 249 339 250
f 339 331 250
f 339 330 331
f 250 331 242
f 334 340 333
f 340 342 341
f 340 341 251
f 333 340 251
f 245 333 251
f 341 253 251
f 337 335 343
f 337 343 344
f 255 343 246
f 246 343 335
f 339 256 248
f 256 339 249
f 342 345 341
f 341 345 253
f 345 257 253
f 345 346 257
f 343 258 344
f 258 346 344
f 258 257 346
f 258 343 255
f 348 347 261
f 261 347 260
f 349 261 262
f 349 348 261
f 350 262 264
f 350 349 262
f 351 264 265
f 351 350 264
f 265 266 351
f 351 266 352
f 354 353 269
f 269 353 268
f 269 260 347
f 269 347 354
f 271 352 266
f 271 355 352
f 358 357 356
f 272 273 356
f 273 358 356
f 273 359 358
f 360 273 274
f 360 359 273
f 361 274 275
f 361 360 274
f 362 275 276
f 362 361 275
f 276 268 353
f 276 353 362
f 363 355 271
f 363 271 277
f 277 278 363
f 363 278 364
f 367 366 365
f 367 365 357
f 365 356 357
f 365 368 356
f 368 280 272
f 368 272 356
f 281 364 278
f 281 369 364
f 372 371 370
f 372 370 366
f 370 365 366
f 370 373 365
f 365 374 368
f 365 373 374
f 374 283 280
f 374 280 368
f 284 369 281
f 284 375 369
f 370 371 287
f 371 286 287
f 371 376 286
f 370 287 288
f 370 288 373
f 373 288 290
f 373 290 374
f 374 290 283
f 377 375 284
f 377 284 293
f 293 295 377
f 377 295 378
f 376 297 286
f 379 297 376
f 301 378 295
f 301 380 378
f 379 303 297
f 381 303 379
f 307 380 301
f 307 382 380
f 381 383 303
f 303 383 308
f 308 384 309
f 383 384 308
f 310 309 384
f 310 384 385
f 312 382 307
f 312 386 382
f 385 314 310
f 387 314 385
f 389 388 319
f 389 319 320
f 319 390 322
f 388 390 319
f 312 322 386
f 386 322 390
f 323 314 391
f 314 392 391
f 314 387 392
f 391 324 323
f 395 394 393
f 397 396 393
f 397 393 394
f 327 326 396
f 397 327 396
f 398 327 397
f 327 399 328
f 398 399 327
f 328 400 329
f 399 400 328
f 320 329 389
f 389 329 400
f 392 401 391
f 391 401 324
f 401 332 324
f 401 402 332
f 334 332 402
f 334 402 403
f 395 393 336
f 337 395 336
f 404 395 337
f 336 393 338
f 338 393 396
f 338 396 326
f 403 405 334
f 334 405 340
f 342 340 405
f 342 405 406
f 344 404 337
f 344 407 404
f 406 408 342
f 342 408 345
f 345 409 346
f 408 409 345
f 344 346 407
f 407 346 409
f 411 410 348
f 348 410 347
f 412 348 349
f 412 411 348
f 413 349 350
f 413 412 349
f 414 350 351
f 414 413 350
f 351 352 414
f 414 352 415
f 418 417 416
f 420 419 416
f 416 419 418
f 353 354 420
f 354 419 420
f 354 421 419
f 354 347 410
f 354 410 421
f 355 415 352
f 355 422 415
f 424 423 358
f 358 423 357
f 425 358 359
f 425 424 358
f 426 359 360
f 426 425 359
f 361 416 417
f 426 361 417
f 360 361 426
f 416 361 362
f 416 362 420
f 420 362 353
f 427 422 355
f 427 355 363
f 363 364 427
f 427 364 428
f 431 430 429
f 366 367 429
f 367 431 429
f 367 432 431
f 367 357 423
f 367 423 432
f 369 428 364
f 369 433 428
f 429 430 372
f 430 371 372
f 430 434 371
f 429 372 366
f 375 433 369
f 375 435 433
f 434 376 371
f 436 376 434
f 437 435 375
f 437 375 377
f 377 378 437
f 437 378 438
f 436 379 376
f 439 379 436
f 380 438 378
f 380 440 438
f 439 381 379
f 441 381 439
f 382 440 380
f 382 442 440
f 441 443 381
f 381 443 383
f 443 445 444
f 384 443 444
f 383 443 384
f 444 385 384
f 386 442 382
f 386 446 442
f 444 445 447
f 447 445 448
f 447 387 385
f 447 385 444
f 450 449 388
f 450 388 389
f 388 451 390
f 449 451 388
f 386 390 446
f 446 390 451
f 447 448 452
f 452 448 453
f 452 392 387
f 452 387 447
f 455 454 394
f 455 394 395
f 394 456 397
f 454 456 394
f 397 457 398
f 456 457 397
f 398 458 399
f 457 458 398
f 399 459 400
f 458 459 399
f 389 400 450
f 450 400 459
f 453 460 452
f 452 460 392
f 460 401 392
f 460 461 401
f 461 463 462
f 402 461 462
f 401 461 402
f 462 403 402
f 404 455 395
f 404 464 455
f 463 465 462
f 462 465 403
f 465 405 403
f 465 466 405
f 406 405 466
f 406 466 467
f 407 464 404
f 407 468 464
f 467 469 406
f 406 469 408
f 408 470 409
f 469 470 408
f 407 409 468
f 468 409 470
f 473 472 471
f 410 411 471
f 411 473 471
f 411 474 473
f 475 411 412
f 475 474 411
f 476 412 413
f 476 475 412
f 477 413 414
f 477 476 413
f 414 415 477
f 477 415 478
f 480 479 418
f 418 479 417
f 481 418 419
f 481 480 418
f 421 471 472
f 481 421 472
f 419 421 481
f 471 421 410
f 422 483 482
f 478 422 482
f 415 422 478
f 483 484 482
f 486 485 424
f 424 485 423
f 487 424 425
f 487 486 424
f 488 425 426
f 488 487 425
f 426 417 479
f 426 479 488
f 427 483 422
f 427 428 483
f 428 484 483
f 428 489 484
f 491 490 431
f 431 490 430
f 492 431 432
f 492 491 431
f 432 423 485
f 432 485 492
f 433 489 428
f 433 493 489
f 490 434 430
f 494 434 490
f 435 493 433
f 435 495 493
f 494 436 434
f 496 436 494
f 497 495 435
f 497 435 437
f 437 438 497
f 497 438 498
f 496 439 436
f 499 439 496
f 440 498 438
f 440 500 498
f 499 441 439
f 501 441 499
f 442 500 440
f 442 502 500
f 501 503 441
f 441 503 443
f 445 443 503
f 445 503 504
f 446 502 442
f 446 505 502
f 504 448 445
f 506 448 504
f 450 507 449
f 449 507 508
f 509 449 508
f 451 449 509
f 446 451 505
f 505 451 509
f 511 453 510
f 453 506 510
f 453 448 506
f 512 511 510
f 514 513 454
f 514 454 455
f 454 515 456
f 513 515 454
f 456 516 457
f 515 516 456
f 457 517 458
f 516 517 457
f 458 518 459
f 517 518 458
f 450 459 507
f 459 519 507
f 459 518 519
f 507 519 508
f 511 460 453
f 512 520 511
f 520 460 511
f 520 461 460
f 463 461 520
f 463 520 521
f 464 514 455
f 464 522 514
f 521 523 463
f 463 523 465
f 523 525 524
f 466 523 524
f 465 523 466
f 524 467 466
f 468 522 464
f 468 526 522
f 525 527 524
f 524 527 467
f 527 469 467
f 527 528 469
f 469 529 470
f 528 529 469
f 468 470 526
f 526 470 529
f 531 530 473
f 473 530 472
f 532 473 474
f 532 531 473
f 533 474 475
f 533 532 474
f 534 475 476
f 534 533 475
f 535 476 477
f 535 534 476
f 477 478 535
f 535 478 536
f 539 538 537
f 541 540 537
f 537 540 539
f 543 542 541
f 541 542 540
f 545 544 543
f 543 544 542
f 547 546 545
f 545 546 544
f 479 480 547
f 480 546 547
f 480 548 546
f 549 480 481
f 549 548 480
f 481 472 530
f 481 530 549
f 550 536 478
f 550 478 482
f 482 484 550
f 550 484 551
f 538 552 537
f 537 552 541
f 541 552 553
f 554 485 486
f 541 554 486
f 543 541 486
f 553 554 541
f 543 486 487
f 543 487 545
f 545 487 488
f 545 488 547
f 547 488 479
f 489 551 484
f 489 555 551
f 556 490 491
f 492 557 491
f 491 557 556
f 558 557 492
f 485 558 492
f 554 558 485
f 493 560 559
f 555 493 559
f 489 493 555
f 560 561 559
f 562 494 556
f 556 494 490
f 563 556 557
f 562 556 563
f 557 558 564
f 557 564 563
f 495 565 560
f 495 560 493
f 561 560 566
f 566 560 565
f 567 496 562
f 562 496 494
f 568 562 563
f 567 562 568
f 563 564 569
f 563 569 568
f 497 565 495
f 497 498 565
f 498 566 565
f 498 570 566
f 571 499 567
f 567 499 496
f 568 573 572
f 571 568 572
f 567 568 571
f 573 568 569
f 500 570 498
f 500 574 570
f 575 501 571
f 571 501 499
f 571 572 576
f 571 576 575
f 502 574 500
f 502 577 574
f 575 503 501
f 504 503 575
f 576 504 575
f 578 504 576
f 505 577 502
f 505 579 577
f 578 506 504
f 580 506 578
f 508 581 509
f 581 582 509
f 582 505 509
f 582 579 505
f 580 583 506
f 506 583 510
f 512 510 583
f 512 583 584
f 587 586 585
f 513 514 585
f 586 513 585
f 588 513 586
f 513 589 515
f 588 589 513
f 515 590 516
f 589 590 515
f 516 591 517
f 590 591 516
f 517 592 518
f 591 592 517
f 518 593 519
f 592 593 518
f 519 593 508
f 593 594 508
f 594 581 508
f 594 593 595
f 582 581 596
f 596 581 594
f 584 597 512
f 512 597 520
f 521 520 597
f 521 597 598
f 587 585 599
f 587 599 600
f 522 599 514
f 514 599 585
f 595 601 594
f 594 601 596
f 598 602 521
f 521 602 523
f 604 603 525
f 523 604 525
f 602 604 523
f 605 603 604
f 600 599 606
f 600 606 607
f 526 606 522
f 522 606 599
f 603 527 525
f 605 608 603
f 608 527 603
f 608 528 527
f 606 529 607
f 529 608 607
f 529 528 608
f 529 606 526
f 611 610 609
f 530 531 609
f 531 611 609
f 531 612 611
f 613 531 532
f 613 612 531
f 614 532 533
f 614 613 532
f 615 533 534
f 615 614 533
f 617 615 616
f 615 535 616
f 615 534 535
f 536 616 535
f 618 538 539
f 540 619 539
f 539 619 618
f 542 620 540
f 540 620 619
f 544 621 542
f 542 621 620
f 621 544 622
f 544 623 622
f 544 546 623
f 624 546 548
f 624 623 546
f 549 609 610
f 624 549 610
f 548 549 624
f 609 549 530
f 625 617 616
f 627 625 626
f 626 625 550
f 625 616 550
f 616 536 550
f 551 626 550
f 618 552 538
f 552 618 553
f 553 618 619
f 553 619 554
f 619 628 554
f 619 620 628
f 621 630 629
f 628 621 629
f 620 621 628
f 630 621 622
f 627 626 631
f 627 631 632
f 555 631 551
f 551 631 626
f 633 558 628
f 628 558 554
f 628 629 634
f 628 634 633
f 635 632 631
f 637 635 636
f 636 635 559
f 635 631 559
f 631 555 559
f 561 636 559
f 638 564 633
f 633 564 558
f 633 634 639
f 633 639 638
f 640 637 636
f 636 561 640
f 561 641 640
f 561 566 641
f 642 569 638
f 638 569 564
f 638 639 643
f 638 643 642
f 570 641 566
f 570 644 641
f 646 645 573
f 573 645 572
f 573 569 642
f 647 573 642
f 646 573 647
f 647 642 643
f 574 644 570
f 574 648 644
f 650 576 649
f 576 645 649
f 576 572 645
f 651 650 649
f 577 648 574
f 577 652 648
f 653 578 650
f 650 578 576
f 650 651 654
f 650 654 653
f 579 652 577
f 579 655 652
f 656 580 653
f 653 580 578
f 653 654 657
f 653 657 656
f 582 655 579
f 582 658 655
f 656 583 580
f 660 659 584
f 660 584 583
f 657 660 583
f 656 657 583
f 661 659 660
f 664 663 662
f 586 587 662
f 663 586 662
f 665 586 663
f 586 666 588
f 665 666 586
f 588 667 589
f 666 667 588
f 589 668 590
f 667 668 589
f 590 669 591
f 668 669 590
f 591 670 592
f 669 670 591
f 592 671 593
f 670 671 592
f 595 593 671
f 595 671 672
f 596 658 582
f 596 673 658
f 659 597 584
f 598 597 659
f 661 598 659
f 674 598 661
f 664 662 675
f 664 675 676
f 600 675 587
f 587 675 662
f 601 595 677
f 595 678 677
f 595 672 678
f 677 679 601
f 679 596 601
f 679 673 596
f 674 680 598
f 598 680 602
f 602 681 604
f 680 681 602
f 675 682 605
f 681 675 605
f 604 681 605
f 676 675 681
f 607 682 600
f 600 682 675
f 678 683 677
f 677 683 679
f 682 608 605
f 608 682 607
f 684 610 611
f 612 685 611
f 611 685 684
f 613 686 612
f 612 686 685
f 614 687 613
f 613 687 686
f 615 688 614
f 614 688 687
f 617 688 615
f 690 689 623
f 623 689 622
f 691 623 624
f 691 690 623
f 691 624 610
f 692 691 610
f 684 692 610
f 691 692 693
f 694 684 685
f 692 684 694
f 695 685 686
f 694 685 695
f 696 686 687
f 695 686 696
f 697 687 688
f 696 687 697
f 697 688 617
f 698 697 617
f 625 698 617
f 699 697 698
f 625 627 698
f 698 627 700
f 701 629 630
f 702 701 630
f 622 702 630
f 689 702 622
f 705 704 703
f 703 704 693
f 692 703 693
f 706 703 692
f 707 692 694
f 706 692 707
f 708 694 695
f 707 694 708
f 696 710 709
f 708 696 709
f 695 696 708
f 710 696 697
f 710 697 711
f 711 697 699
f 632 700 627
f 632 712 700
f 713 634 701
f 701 634 629
f 701 702 714
f 701 714 713
f 705 703 715
f 705 715 716
f 717 703 706
f 715 703 717
f 718 706 707
f 717 706 718
f 719 707 708
f 718 707 719
f 708 709 720
f 708 720 719
f 721 712 632
f 721 632 635
f 635 637 721
f 721 637 722
f 724 723 713
f 723 634 713
f 723 639 634
f 724 713 714
f 716 715 725
f 716 725 726
f 727 715 717
f 725 715 727
f 728 717 718
f 727 717 728
f 729 718 719
f 728 718 729
f 719 720 730
f 719 730 729
f 637 640 731
f 732 637 731
f 722 637 732
f 641 731 640
f 723 643 639
f 733 643 723
f 734 726 725
f 734 725 727
f 734 727 735
f 735 727 728
f 735 728 736
f 736 728 729
f 736 729 737
f 737 729 730
f 732 731 738
f 732 738 739
f 644 738 641
f 641 738 731
f 741 740 646
f 646 740 645
f 742 646 647
f 742 741 646
f 647 643 733
f 647 733 742
f 743 739 738
f 738 644 743
f 644 744 743
f 644 648 744
f 740 745 645
f 645 745 649
f 747 746 651
f 649 747 651
f 745 747 649
f 748 746 747
f 652 744 648
f 652 749 744
f 750 654 746
f 746 654 651
f 746 748 751
f 746 751 750
f 754 753 752
f 753 749 752
f 749 655 752
f 749 652 655
f 755 657 750
f 750 657 654
f 750 751 756
f 750 756 755
f 759 758 757
f 761 760 757
f 761 757 758
f 763 762 760
f 763 760 761
f 765 764 762
f 765 762 763
f 766 764 765
f 754 752 767
f 754 767 768
f 658 767 655
f 655 767 752
f 755 660 657
f 770 769 661
f 770 661 660
f 756 770 660
f 755 756 660
f 771 769 770
f 773 772 663
f 773 663 664
f 663 774 665
f 772 774 663
f 757 666 759
f 666 774 759
f 666 665 774
f 666 757 667
f 667 757 760
f 667 760 668
f 668 760 762
f 668 762 669
f 669 762 764
f 670 669 764
f 775 670 764
f 766 775 764
f 776 670 775
f 670 776 777
f 778 670 777
f 671 670 778
f 767 779 672
f 778 767 672
f 671 778 672
f 768 767 778
f 673 779 658
f 658 779 767
f 780 674 769
f 769 674 661
f 769 771 781
f 769 781 780
f 676 773 664
f 676 782 773
f 775 783 776
f 776 783 777
f 784 678 779
f 779 678 672
f 679 784 673
f 673 784 779
f 780 680 674
f 781 785 780
f 785 680 780
f 785 681 680
f 676 681 782
f 782 681 785
f 784 683 678
f 683 784 679
f 786 689 690
f 691 787 690
f 690 787 786
f 693 787 691
f 788 699 698
f 700 788 698
f 790 789 786
f 789 689 786
f 789 702 689
f 705 791 704
f 791 786 704
f 786 787 704
f 791 790 786
f 704 787 693
f 793 792 710
f 710 792 709
f 794 710 711
f 794 793 710
f 794 711 699
f 795 794 699
f 788 795 699
f 794 795 796
f 712 795 700
f 700 795 788
f 798 714 797
f 714 789 797
f 714 702 789
f 797 791 798
f 791 716 798
f 791 705 716
f 792 720 709
f 799 720 792
f 796 795 800
f 796 800 801
f 721 802 712
f 802 795 712
f 802 800 795
f 722 802 721
f 803 723 724
f 714 798 724
f 798 803 724
f 798 804 803
f 726 804 716
f 716 804 798
f 799 730 720
f 805 730 799
f 806 801 800
f 806 800 802
f 806 802 807
f 802 722 807
f 722 808 807
f 722 732 808
f 809 733 803
f 803 733 723
f 810 803 804
f 809 803 810
f 810 804 726
f 811 810 726
f 734 811 726
f 812 810 811
f 814 811 813
f 811 735 813
f 811 734 735
f 736 815 735
f 735 815 813
f 737 816 736
f 736 816 815
f 730 805 817
f 816 730 817
f 818 816 817
f 737 730 816
f 820 819 818
f 820 818 817
f 821 819 820
f 739 808 732
f 739 822 808
f 823 740 741
f 742 824 741
f 741 824 823
f 733 809 742
f 809 824 742
f 809 825 824
f 810 827 826
f 825 810 826
f 809 810 825
f 827 810 812
f 814 813 828
f 814 828 829
f 830 813 815
f 828 813 830
f 831 815 816
f 830 815 831
f 832 816 818
f 831 816 832
f 833 818 819
f 832 818 833
f 819 821 834
f 819 834 833
f 835 822 739
f 835 739 743
f 743 744 835
f 835 744 836
f 823 745 740
f 745 823 747
f 747 823 824
f 747 824 748
f 824 837 748
f 824 825 837
f 825 826 838
f 839 825 838
f 837 825 839
f 840 839 838
f 829 828 841
f 829 841 842
f 843 828 830
f 841 828 843
f 844 830 831
f 843 830 844
f 845 831 832
f 844 831 845
f 846 832 833
f 845 832 846
f 833 834 847
f 833 847 846
f 850 849 848
f 852 851 848
f 852 848 849
f 852 836 851
f 836 749 851
f 836 744 749
f 853 751 837
f 837 751 748
f 854 837 839
f 853 837 854
f 839 840 855
f 856 839 855
f 854 839 856
f 856 855 842
f 841 856 842
f 857 856 841
f 858 841 843
f 857 841 858
f 859 843 844
f 858 843 859
f 845 861 860
f 859 845 860
f 844 845 859
f 861 845 846
f 861 846 862
f 865 864 863
f 847 862 846
f 864 865 850
f 848 864 850
f 866 864 848
f 754 866 753
f 866 851 753
f 866 848 851
f 753 851 749
f 867 756 853
f 853 756 751
f 868 853 854
f 867 853 868
f 869 854 856
f 868 854 869
f 870 856 857
f 869 856 870
f 759 870 758
f 870 858 758
f 870 857 858
f 758 858 761
f 761 858 859
f 860 871 859
f 871 761 859
f 871 763 761
f 763 872 765
f 871 872 763
f 864 873 766
f 872 864 766
f 765 872 766
f 863 864 872
f 874 864 866
f 873 864 874
f 768 874 754
f 754 874 866
f 867 770 756
f 770 867 771
f 867 875 771
f 867 868 875
f 773 875 772
f 875 869 772
f 875 868 869
f 772 869 774
f 774 869 870
f 774 870 759
f 876 775 873
f 873 775 766
f 777 876 778
f 876 874 778
f 876 873 874
f 778 874 768
f 877 781 875
f 875 781 771
f 782 877 773
f 773 877 875
f 876 783 775
f 783 876 777
f 877 785 781
f 785 877 782
f 878 789 790
f 791 878 790
f 879 792 793
f 794 880 793
f 793 880 879
f 796 880 794
f 878 797 789
f 797 878 791
f 882 881 879
f 881 792 879
f 881 799 792
f 882 879 880
f 882 880 883
f 880 796 883
f 796 884 883
f 796 801 884
f 881 805 799
f 885 805 881
f 801 806 886
f 887 801 886
f 884 801 887
f 807 888 806
f 806 888 886
f 808 888 807
f 889 812 811
f 814 889 811
f 885 890 805
f 805 890 817
f 817 891 820
f 890 891 817
f 886 892 821
f 891 886 821
f 820 891 821
f 887 886 891
f 893 886 888
f 892 886 893
f 822 893 808
f 808 893 888
f 894 826 827
f 812 889 827
f 889 894 827
f 889 895 894
f 829 895 814
f 814 895 889
f 896 834 892
f 892 834 821
f 897 892 893
f 896 892 897
f 835 898 822
f 898 893 822
f 898 897 893
f 836 898 835
f 894 838 826
f 838 894 840
f 894 899 840
f 894 895 899
f 842 899 829
f 829 899 895
f 900 847 896
f 896 847 834
f 850 900 849
f 900 897 849
f 900 896 897
f 849 897 852
f 852 897 898
f 852 898 836
f 899 855 840
f 855 899 842
f 901 860 861
f 862 902 861
f 861 902 901
f 862 847 902
f 847 900 902
f 865 863 902
f 865 902 900
f 865 900 850
f 901 871 860
f 871 901 872
f 872 901 902
f 872 902 863
f 903 881 882
f 883 904 882
f 882 904 903
f 884 904 883
f 905 885 903
f 903 885 881
f 906 903 904
f 905 903 906
f 887 906 884
f 884 906 904
f 905 890 885
f 890 905 891
f 891 905 906
f 891 906 887
