ply
format ascii 1.0
element vertex 906
property float x
property float y
property float z
element face 1808
property list uchar int vertex_indices
end_header
-0.93014822 -0.39482813 0.35714286
-0.85871965 -0.39482813 0.28571429
-0.85871965 -0.46625670 0.35714286
-0.85871965 -0.46625670 0.50000000
-0.93014822 -0.39482813 0.50000000
-0.85871965 -0.46625670 0.64285714
-0.93014822 -0.39482813 0.64285714
-0.85871965 -0.39482813 0.71428571
-0.93014822 -0.25197099 0.21428571
-0.85871965 -0.25197099 0.14285714
-0.85871965 -0.32339956 0.21428571
-0.93014822 -0.25197099 0.35714286
-0.93014822 -0.25197099 0.50000000
-0.93014822 -0.25197099 0.64285714
-0.85871965 -0.25197099 0.71428571
-0.93014822 -0.10911384 0.07142857
-0.85871965 -0.10911384 0.00000000
-0.85871965 -0.18054242 0.07142857
-0.93014822 -0.10911384 0.21428571
-0.93014822 -0.10911384 0.35714286
-0.93014822 -0.10911384 0.50000000
-0.93014822 -0.10911384 0.64285714
-0.85871965 -0.10911384 0.71428571
-0.93014822 0.03374330 0.07142857
-0.85871965 0.03374330 0.00000000
-0.93014822 0.03374330 0.21428571
-0.93014822 0.03374330 0.35714286
-0.85871965 0.03374330 0.42857143
-0.85871965 -0.03768527 0.50000000
-0.85871965 -0.03768527 0.64285714
-0.85871965 0.10517187 0.07142857
-0.85871965 0.10517187 0.21428571
-0.85871965 0.10517187 0.35714286
-0.93014822 0.46231473 -0.21428571
-0.85871965 0.46231473 -0.28571429
-0.85871965 0.39088616 -0.21428571
-0.85871965 0.39088616 -0.07142857
-0.93014822 0.46231473 -0.07142857
-0.85871965 0.46231473 0.00000000
-0.93014822 0.60517187 -0.21428571
-0.85871965 0.60517187 -0.28571429
-0.85871965 0.60517187 -0.14285714
-0.85871965 0.53374330 -0.07142857
-0.85871965 0.67660044 -0.21428571
-0.78729108 -0.68054242 0.64285714
-0.71586250 -0.68054242 0.57142857
-0.71586250 -0.75197099 0.64285714
-0.71586250 -0.68054242 0.71428571
-0.78729108 -0.53768527 0.64285714
-0.71586250 -0.53768527 0.57142857
-0.71586250 -0.53768527 0.71428571
-0.78729108 -0.39482813 0.07142857
-0.71586250 -0.39482813 0.00000000
-0.71586250 -0.46625670 0.07142857
-0.71586250 -0.46625670 0.21428571
-0.78729108 -0.39482813 0.21428571
-0.71586250 -0.46625670 0.35714286
-0.71586250 -0.46625670 0.50000000
-0.71586250 -0.39482813 0.71428571
-0.78729108 -0.25197099 0.07142857
-0.71586250 -0.25197099 0.00000000
-0.71586250 -0.25197099 0.71428571
-0.71586250 -0.10911384 0.00000000
-0.71586250 -0.10911384 0.71428571
-0.71586250 0.03374330 0.00000000
-0.78729108 0.03374330 0.50000000
-0.78729108 0.03374330 0.64285714
-0.71586250 0.03374330 0.71428571
-0.78729108 0.17660044 0.07142857
-0.71586250 0.17660044 0.00000000
-0.78729108 0.17660044 0.21428571
-0.78729108 0.17660044 0.35714286
-0.78729108 0.17660044 0.50000000
-0.78729108 0.17660044 0.64285714
-0.71586250 0.10517187 0.78571429
-0.78729108 0.17660044 0.78571429
-0.71586250 0.17660044 0.85714286
-0.78729108 0.31945758 0.07142857
-0.71586250 0.31945758 0.00000000
-0.78729108 0.31945758 0.21428571
-0.78729108 0.31945758 0.35714286
-0.78729108 0.31945758 0.50000000
-0.71586250 0.31945758 0.57142857
-0.71586250 0.24802901 0.64285714
-0.71586250 0.24802901 0.78571429
-0.71586250 0.46231473 -0.28571429
-0.71586250 0.39088616 -0.21428571
-0.71586250 0.39088616 -0.07142857
-0.71586250 0.39088616 0.07142857
-0.71586250 0.46231473 0.00000000
-0.71586250 0.39088616 0.21428571
-0.71586250 0.39088616 0.35714286
-0.71586250 0.39088616 0.50000000
-0.78729108 0.60517187 -0.35714286
-0.71586250 0.60517187 -0.42857143
-0.71586250 0.53374330 -0.35714286
-0.71586250 0.53374330 -0.07142857
-0.71586250 0.60517187 -0.14285714
-0.71586250 0.67660044 -0.35714286
-0.71586250 0.67660044 -0.21428571
-0.64443393 -0.68054242 0.35714286
-0.57300536 -0.68054242 0.28571429
-0.57300536 -0.75197099 0.35714286
-0.57300536 -0.75197099 0.50000000
-0.64443393 -0.68054242 0.50000000
-0.57300536 -0.75197099 0.64285714
-0.57300536 -0.68054242 0.71428571
-0.64443393 -0.53768527 -0.35714286
-0.57300536 -0.53768527 -0.42857143
-0.57300536 -0.60911384 -0.35714286
-0.57300536 -0.60911384 -0.21428571
-0.64443393 -0.53768527 -0.21428571
-0.57300536 -0.60911384 -0.07142857
-0.64443393 -0.53768527 -0.07142857
-0.57300536 -0.60911384 0.07142857
-0.64443393 -0.53768527 0.07142857
-0.57300536 -0.60911384 0.21428571
-0.64443393 -0.53768527 0.21428571
-0.64443393 -0.53768527 0.35714286
-0.64443393 -0.53768527 0.50000000
-0.57300536 -0.53768527 0.71428571
-0.57300536 -0.46625670 -0.35714286
-0.57300536 -0.46625670 -0.21428571
-0.64443393 -0.39482813 -0.07142857
-0.57300536 -0.39482813 -0.14285714
-0.57300536 -0.46625670 0.78571429
-0.64443393 -0.39482813 0.78571429
-0.57300536 -0.39482813 0.85714286
-0.64443393 -0.25197099 -0.07142857
-0.57300536 -0.25197099 -0.14285714
-0.64443393 -0.25197099 0.78571429
-0.57300536 -0.25197099 0.85714286
-0.64443393 -0.10911384 -0.07142857
-0.57300536 -0.10911384 -0.14285714
-0.64443393 -0.10911384 0.78571429
-0.57300536 -0.10911384 0.85714286
-0.64443393 0.03374330 -0.07142857
-0.57300536 0.03374330 -0.14285714
-0.64443393 0.03374330 0.78571429
-0.57300536 0.03374330 0.85714286
-0.64443393 0.17660044 -0.07142857
-0.57300536 0.17660044 -0.14285714
-0.57300536 0.17660044 0.85714286
-0.64443393 0.31945758 -0.07142857
-0.57300536 0.31945758 -0.14285714
-0.64443393 0.31945758 0.64285714
-0.64443393 0.31945758 0.78571429
-0.57300536 0.31945758 0.85714286
-0.57300536 0.46231473 -0.28571429
-0.57300536 0.39088616 -0.21428571
-0.64443393 0.46231473 0.07142857
-0.57300536 0.46231473 0.14285714
-0.57300536 0.39088616 0.21428571
-0.57300536 0.39088616 0.35714286
-0.57300536 0.39088616 0.50000000
-0.57300536 0.39088616 0.64285714
-0.57300536 0.39088616 0.78571429
-0.57300536 0.60517187 -0.42857143
-0.57300536 0.53374330 -0.35714286
-0.64443393 0.60517187 -0.07142857
-0.64443393 0.60517187 0.07142857
-0.57300536 0.60517187 0.14285714
-0.57300536 0.67660044 -0.35714286
-0.64443393 0.74802901 -0.21428571
-0.57300536 0.74802901 -0.28571429
-0.64443393 0.74802901 -0.07142857
-0.64443393 0.74802901 0.07142857
-0.57300536 0.74802901 0.14285714
-0.57300536 0.81945758 -0.21428571
-0.57300536 0.81945758 -0.07142857
-0.57300536 0.81945758 0.07142857
-0.50157679 -0.82339956 0.50000000
-0.43014822 -0.82339956 0.42857143
-0.43014822 -0.89482813 0.50000000
-0.43014822 -0.89482813 0.64285714
-0.50157679 -0.82339956 0.64285714
-0.43014822 -0.82339956 0.71428571
-0.43014822 -0.68054242 0.28571429
-0.43014822 -0.75197099 0.35714286
-0.43014822 -0.68054242 0.71428571
-0.50157679 -0.53768527 -0.50000000
-0.43014822 -0.53768527 -0.57142857
-0.43014822 -0.60911384 -0.50000000
-0.43014822 -0.60911384 -0.35714286
-0.43014822 -0.60911384 -0.21428571
-0.43014822 -0.60911384 -0.07142857
-0.43014822 -0.60911384 0.07142857
-0.43014822 -0.60911384 0.21428571
-0.43014822 -0.60911384 0.78571429
-0.50157679 -0.53768527 0.78571429
-0.43014822 -0.53768527 0.85714286
-0.43014822 -0.46625670 -0.50000000
-0.50157679 -0.39482813 -0.35714286
-0.43014822 -0.39482813 -0.42857143
-0.50157679 -0.39482813 -0.21428571
-0.43014822 -0.39482813 0.85714286
-0.50157679 -0.25197099 -0.35714286
-0.43014822 -0.25197099 -0.42857143
-0.50157679 -0.25197099 -0.21428571
-0.43014822 -0.25197099 0.85714286
-0.50157679 -0.10911384 -0.35714286
-0.43014822 -0.10911384 -0.42857143
-0.50157679 -0.10911384 -0.21428571
-0.43014822 -0.10911384 0.85714286
-0.50157679 0.03374330 -0.50000000
-0.43014822 0.03374330 -0.57142857
-0.43014822 -0.03768527 -0.50000000
-0.50157679 0.03374330 -0.35714286
-0.50157679 0.03374330 -0.21428571
-0.43014822 0.03374330 0.85714286
-0.50157679 0.17660044 -0.50000000
-0.43014822 0.17660044 -0.57142857
-0.50157679 0.17660044 -0.35714286
-0.50157679 0.17660044 -0.21428571
-0.43014822 0.17660044 0.85714286
-0.50157679 0.31945758 -0.64285714
-0.43014822 0.31945758 -0.71428571
-0.43014822 0.24802901 -0.64285714
-0.50157679 0.31945758 -0.50000000
-0.50157679 0.31945758 -0.35714286
-0.50157679 0.31945758 -0.21428571
-0.43014822 0.31945758 0.85714286
-0.43014822 0.39088616 -0.64285714
-0.50157679 0.46231473 -0.50000000
-0.43014822 0.46231473 -0.57142857
-0.50157679 0.46231473 -0.35714286
-0.43014822 0.39088616 0.21428571
-0.43014822 0.46231473 0.14285714
-0.43014822 0.39088616 0.35714286
-0.43014822 0.39088616 0.50000000
-0.43014822 0.39088616 0.64285714
-0.50157679 0.46231473 0.78571429
-0.43014822 0.46231473 0.71428571
-0.43014822 0.46231473 0.85714286
-0.50157679 0.60517187 -0.50000000
-0.43014822 0.60517187 -0.57142857
-0.43014822 0.60517187 0.14285714
-0.50157679 0.60517187 0.78571429
-0.43014822 0.60517187 0.71428571
-0.43014822 0.53374330 0.92857143
-0.50157679 0.60517187 0.92857143
-0.43014822 0.60517187 1.00000000
-0.43014822 0.67660044 -0.50000000
-0.43014822 0.67660044 -0.35714286
-0.43014822 0.74802901 -0.28571429
-0.43014822 0.74802901 0.14285714
-0.50157679 0.74802901 0.78571429
-0.43014822 0.74802901 0.71428571
-0.43014822 0.74802901 0.85714286
-0.43014822 0.67660044 0.92857143
-0.43014822 0.81945758 -0.21428571
-0.50157679 0.89088616 -0.07142857
-0.43014822 0.89088616 -0.14285714
-0.50157679 0.89088616 0.07142857
-0.43014822 0.89088616 0.14285714
-0.43014822 0.81945758 0.78571429
-0.43014822 0.96231473 -0.07142857
-0.43014822 0.96231473 0.07142857
-0.35871965 -0.82339956 0.21428571
-0.28729108 -0.82339956 0.14285714
-0.28729108 -0.89482813 0.21428571
-0.28729108 -0.89482813 0.35714286
-0.35871965 -0.82339956 0.35714286
-0.28729108 -0.89482813 0.50000000
-0.28729108 -0.89482813 0.64285714
-0.28729108 -0.82339956 0.71428571
-0.35871965 -0.68054242 0.07142857
-0.28729108 -0.68054242 0.00000000
-0.28729108 -0.75197099 0.07142857
-0.35871965 -0.68054242 0.21428571
-0.28729108 -0.68054242 0.71428571
-0.28729108 -0.53768527 -0.57142857
-0.28729108 -0.60911384 -0.50000000
-0.28729108 -0.60911384 -0.35714286
-0.28729108 -0.60911384 -0.21428571
-0.28729108 -0.60911384 -0.07142857
-0.28729108 -0.60911384 0.78571429
-0.28729108 -0.53768527 0.85714286
-0.35871965 -0.39482813 -0.50000000
-0.28729108 -0.39482813 -0.57142857
-0.28729108 -0.39482813 0.85714286
-0.35871965 -0.25197099 -0.50000000
-0.28729108 -0.25197099 -0.57142857
-0.28729108 -0.25197099 0.85714286
-0.35871965 -0.10911384 -0.92857143
-0.28729108 -0.10911384 -1.00000000
-0.28729108 -0.18054242 -0.92857143
-0.28729108 -0.18054242 -0.78571429
-0.35871965 -0.10911384 -0.78571429
-0.28729108 -0.18054242 -0.64285714
-0.35871965 -0.10911384 -0.64285714
-0.35871965 -0.10911384 -0.50000000
-0.28729108 -0.18054242 0.92857143
-0.35871965 -0.10911384 0.92857143
-0.28729108 -0.10911384 1.00000000
-0.35871965 0.03374330 -0.92857143
-0.28729108 0.03374330 -1.00000000
-0.35871965 0.03374330 -0.78571429
-0.35871965 0.03374330 -0.64285714
-0.35871965 0.03374330 0.92857143
-0.28729108 0.03374330 1.00000000
-0.35871965 0.17660044 -0.92857143
-0.28729108 0.17660044 -1.00000000
-0.35871965 0.17660044 -0.78571429
-0.35871965 0.17660044 -0.64285714
-0.35871965 0.17660044 0.92857143
-0.28729108 0.17660044 1.00000000
-0.28729108 0.24802901 -0.92857143
-0.28729108 0.24802901 -0.78571429
-0.28729108 0.31945758 -0.71428571
-0.35871965 0.31945758 0.92857143
-0.28729108 0.31945758 1.00000000
-0.35871965 0.46231473 -0.64285714
-0.28729108 0.46231473 -0.71428571
-0.35871965 0.46231473 0.21428571
-0.35871965 0.46231473 0.35714286
-0.35871965 0.46231473 0.50000000
-0.35871965 0.46231473 0.64285714
-0.28729108 0.39088616 0.78571429
-0.28729108 0.46231473 0.71428571
-0.35871965 0.46231473 0.78571429
-0.28729108 0.39088616 0.92857143
-0.28729108 0.53374330 -0.64285714
-0.28729108 0.60517187 -0.57142857
-0.35871965 0.60517187 0.21428571
-0.28729108 0.60517187 0.28571429
-0.28729108 0.53374330 0.35714286
-0.28729108 0.53374330 0.50000000
-0.28729108 0.53374330 0.64285714
-0.35871965 0.60517187 0.78571429
-0.35871965 0.60517187 0.92857143
-0.28729108 0.67660044 -0.50000000
-0.35871965 0.74802901 -0.35714286
-0.28729108 0.74802901 -0.42857143
-0.35871965 0.74802901 0.07142857
-0.28729108 0.67660044 0.07142857
-0.28729108 0.74802901 0.00000000
-0.28729108 0.67660044 0.21428571
-0.35871965 0.74802901 0.78571429
-0.28729108 0.81945758 -0.35714286
-0.35871965 0.89088616 -0.21428571
-0.28729108 0.89088616 -0.28571429
-0.35871965 0.89088616 0.07142857
-0.28729108 0.89088616 0.00000000
-0.28729108 0.96231473 -0.21428571
-0.28729108 0.96231473 -0.07142857
-0.14443393 -0.82339956 0.14285714
-0.14443393 -0.89482813 0.21428571
-0.14443393 -0.89482813 0.35714286
-0.14443393 -0.89482813 0.50000000
-0.14443393 -0.89482813 0.64285714
-0.14443393 -0.82339956 0.71428571
-0.14443393 -0.68054242 0.00000000
-0.14443393 -0.75197099 0.07142857
-0.14443393 -0.68054242 0.71428571
-0.21586250 -0.53768527 -0.64285714
-0.14443393 -0.53768527 -0.71428571
-0.14443393 -0.60911384 -0.64285714
-0.14443393 -0.60911384 -0.50000000
-0.14443393 -0.60911384 -0.35714286
-0.14443393 -0.60911384 -0.21428571
-0.14443393 -0.60911384 -0.07142857
-0.14443393 -0.60911384 0.78571429
-0.14443393 -0.53768527 0.85714286
-0.21586250 -0.39482813 -0.78571429
-0.14443393 -0.39482813 -0.85714286
-0.14443393 -0.46625670 -0.78571429
-0.21586250 -0.39482813 -0.64285714
-0.14443393 -0.39482813 0.85714286
-0.21586250 -0.25197099 -0.92857143
-0.14443393 -0.25197099 -1.00000000
-0.14443393 -0.32339956 -0.92857143
-0.21586250 -0.25197099 -0.78571429
-0.21586250 -0.25197099 -0.64285714
-0.14443393 -0.25197099 0.85714286
-0.14443393 -0.10911384 -1.00000000
-0.14443393 -0.18054242 0.92857143
-0.14443393 -0.10911384 1.00000000
-0.14443393 0.03374330 -1.00000000
-0.14443393 0.03374330 1.00000000
-0.14443393 0.17660044 -1.00000000
-0.14443393 0.17660044 1.00000000
-0.14443393 0.24802901 -0.92857143
-0.14443393 0.24802901 -0.78571429
-0.14443393 0.31945758 -0.71428571
-0.14443393 0.31945758 1.00000000
-0.14443393 0.46231473 -0.71428571
-0.14443393 0.39088616 0.78571429
-0.14443393 0.46231473 0.71428571
-0.14443393 0.39088616 0.92857143
-0.21586250 0.60517187 -0.64285714
-0.14443393 0.60517187 -0.71428571
-0.21586250 0.60517187 0.07142857
-0.14443393 0.53374330 0.07142857
-0.14443393 0.60517187 0.00000000
-0.21586250 0.60517187 0.21428571
-0.14443393 0.53374330 0.21428571
-0.14443393 0.53374330 0.35714286
-0.14443393 0.53374330 0.50000000
-0.14443393 0.53374330 0.64285714
-0.14443393 0.67660044 -0.64285714
-0.14443393 0.67660044 -0.50000000
-0.14443393 0.74802901 -0.42857143
-0.14443393 0.74802901 0.00000000
-0.14443393 0.81945758 -0.35714286
-0.14443393 0.89088616 -0.28571429
-0.14443393 0.89088616 0.00000000
-0.14443393 0.96231473 -0.21428571
-0.14443393 0.96231473 -0.07142857
-0.00157679 -0.82339956 0.14285714
-0.00157679 -0.89482813 0.21428571
-0.00157679 -0.89482813 0.35714286
-0.00157679 -0.89482813 0.50000000
-0.00157679 -0.89482813 0.64285714
-0.00157679 -0.82339956 0.71428571
-0.07300536 -0.68054242 -0.21428571
-0.00157679 -0.68054242 -0.28571429
-0.00157679 -0.75197099 -0.21428571
-0.00157679 -0.75197099 -0.07142857
-0.07300536 -0.68054242 -0.07142857
-0.00157679 -0.75197099 0.07142857
-0.00157679 -0.68054242 0.71428571
-0.00157679 -0.53768527 -0.71428571
-0.00157679 -0.60911384 -0.64285714
-0.00157679 -0.60911384 -0.50000000
-0.00157679 -0.60911384 -0.35714286
-0.00157679 -0.60911384 0.78571429
-0.00157679 -0.53768527 0.85714286
-0.07300536 -0.39482813 -0.92857143
-0.00157679 -0.39482813 -1.00000000
-0.00157679 -0.46625670 -0.92857143
-0.00157679 -0.46625670 -0.78571429
-0.00157679 -0.39482813 0.85714286
-0.00157679 -0.25197099 -1.00000000
-0.00157679 -0.25197099 0.85714286
-0.00157679 -0.10911384 -1.00000000
-0.00157679 -0.18054242 0.92857143
-0.00157679 -0.10911384 1.00000000
-0.00157679 0.03374330 -1.00000000
-0.00157679 0.03374330 1.00000000
-0.00157679 0.17660044 -1.00000000
-0.00157679 0.17660044 1.00000000
-0.00157679 0.24802901 -0.92857143
-0.07300536 0.31945758 -0.78571429
-0.00157679 0.31945758 -0.85714286
-0.00157679 0.31945758 1.00000000
-0.07300536 0.46231473 -0.78571429
-0.00157679 0.46231473 -0.85714286
-0.00157679 0.39088616 0.78571429
-0.00157679 0.46231473 0.71428571
-0.00157679 0.39088616 0.92857143
-0.07300536 0.60517187 -0.78571429
-0.00157679 0.60517187 -0.85714286
-0.00157679 0.53374330 0.07142857
-0.00157679 0.60517187 0.00000000
-0.00157679 0.53374330 0.21428571
-0.00157679 0.53374330 0.35714286
-0.00157679 0.53374330 0.50000000
-0.00157679 0.53374330 0.64285714
-0.00157679 0.67660044 -0.78571429
-0.00157679 0.67660044 -0.64285714
-0.07300536 0.74802901 -0.50000000
-0.00157679 0.74802901 -0.57142857
-0.00157679 0.74802901 0.00000000
-0.00157679 0.81945758 -0.50000000
-0.00157679 0.81945758 -0.35714286
-0.00157679 0.89088616 -0.28571429
-0.00157679 0.89088616 0.00000000
-0.00157679 0.96231473 -0.21428571
-0.00157679 0.96231473 -0.07142857
0.06985178 -0.82339956 0.07142857
0.14128035 -0.82339956 0.00000000
0.14128035 -0.89482813 0.07142857
0.14128035 -0.89482813 0.21428571
0.14128035 -0.89482813 0.35714286
0.14128035 -0.89482813 0.50000000
0.14128035 -0.89482813 0.64285714
0.14128035 -0.82339956 0.71428571
0.14128035 -0.68054242 -0.28571429
0.14128035 -0.75197099 -0.21428571
0.14128035 -0.75197099 -0.07142857
0.14128035 -0.75197099 0.78571429
0.06985178 -0.68054242 0.78571429
0.14128035 -0.68054242 0.85714286
0.14128035 -0.53768527 -0.71428571
0.14128035 -0.60911384 -0.64285714
0.14128035 -0.60911384 -0.50000000
0.14128035 -0.60911384 -0.35714286
0.14128035 -0.53768527 0.85714286
0.14128035 -0.39482813 -1.00000000
0.14128035 -0.46625670 -0.92857143
0.14128035 -0.46625670 -0.78571429
0.14128035 -0.39482813 0.85714286
0.14128035 -0.25197099 -1.00000000
0.14128035 -0.25197099 0.85714286
0.14128035 -0.10911384 -1.00000000
0.14128035 -0.18054242 0.92857143
0.14128035 -0.10911384 1.00000000
0.14128035 0.03374330 -1.00000000
0.14128035 0.03374330 1.00000000
0.14128035 0.17660044 -1.00000000
0.14128035 0.17660044 1.00000000
0.14128035 0.24802901 -0.92857143
0.14128035 0.31945758 -0.85714286
0.14128035 0.31945758 1.00000000
0.14128035 0.46231473 -0.85714286
0.06985178 0.46231473 0.78571429
0.14128035 0.46231473 0.85714286
0.14128035 0.39088616 0.92857143
0.14128035 0.53374330 -0.78571429
0.06985178 0.60517187 -0.78571429
0.14128035 0.60517187 -0.71428571
0.14128035 0.53374330 0.07142857
0.14128035 0.60517187 0.00000000
0.14128035 0.53374330 0.21428571
0.14128035 0.53374330 0.35714286
0.14128035 0.53374330 0.50000000
0.14128035 0.53374330 0.64285714
0.14128035 0.53374330 0.78571429
0.14128035 0.67660044 -0.64285714
0.14128035 0.74802901 -0.57142857
0.14128035 0.74802901 0.00000000
0.14128035 0.81945758 -0.50000000
0.06985178 0.89088616 -0.35714286
0.14128035 0.89088616 -0.42857143
0.14128035 0.89088616 0.00000000
0.14128035 0.96231473 -0.35714286
0.14128035 0.96231473 -0.21428571
0.14128035 0.96231473 -0.07142857
0.28413750 -0.82339956 0.00000000
0.28413750 -0.89482813 0.07142857
0.28413750 -0.89482813 0.21428571
0.28413750 -0.89482813 0.35714286
0.28413750 -0.89482813 0.50000000
0.28413750 -0.89482813 0.64285714
0.28413750 -0.82339956 0.71428571
0.21270892 -0.68054242 -0.92857143
0.28413750 -0.68054242 -1.00000000
0.28413750 -0.75197099 -0.92857143
0.28413750 -0.75197099 -0.78571429
0.21270892 -0.68054242 -0.78571429
0.28413750 -0.75197099 -0.64285714
0.21270892 -0.68054242 -0.64285714
0.28413750 -0.75197099 -0.50000000
0.21270892 -0.68054242 -0.50000000
0.28413750 -0.75197099 -0.35714286
0.21270892 -0.68054242 -0.35714286
0.28413750 -0.75197099 -0.21428571
0.28413750 -0.75197099 -0.07142857
0.28413750 -0.75197099 0.78571429
0.28413750 -0.68054242 0.85714286
0.28413750 -0.60911384 -0.92857143
0.28413750 -0.60911384 -0.78571429
0.28413750 -0.53768527 -0.71428571
0.28413750 -0.53768527 0.85714286
0.21270892 -0.39482813 -0.92857143
0.21270892 -0.39482813 -0.78571429
0.28413750 -0.39482813 -0.71428571
0.28413750 -0.46625670 0.92857143
0.21270892 -0.39482813 0.92857143
0.28413750 -0.39482813 1.00000000
0.21270892 -0.25197099 -0.92857143
0.21270892 -0.25197099 -0.78571429
0.28413750 -0.25197099 -0.71428571
0.21270892 -0.25197099 0.92857143
0.28413750 -0.25197099 1.00000000
0.21270892 -0.10911384 -0.92857143
0.21270892 -0.10911384 -0.78571429
0.28413750 -0.10911384 -0.71428571
0.28413750 -0.10911384 1.00000000
0.21270892 0.03374330 -0.92857143
0.28413750 0.03374330 -0.85714286
0.28413750 -0.03768527 -0.78571429
0.28413750 0.03374330 1.00000000
0.21270892 0.17660044 -0.92857143
0.28413750 0.17660044 -0.85714286
0.28413750 0.17660044 1.00000000
0.28413750 0.31945758 -0.85714286
0.28413750 0.31945758 1.00000000
0.28413750 0.46231473 -0.85714286
0.21270892 0.46231473 0.92857143
0.28413750 0.46231473 1.00000000
0.28413750 0.53374330 -0.78571429
0.28413750 0.60517187 -0.71428571
0.21270892 0.60517187 -0.07142857
0.28413750 0.53374330 -0.07142857
0.28413750 0.60517187 -0.14285714
0.28413750 0.53374330 0.07142857
0.28413750 0.53374330 0.21428571
0.28413750 0.53374330 0.35714286
0.28413750 0.53374330 0.50000000
0.28413750 0.53374330 0.64285714
0.28413750 0.53374330 0.78571429
0.21270892 0.60517187 0.92857143
0.28413750 0.60517187 0.85714286
0.28413750 0.60517187 1.00000000
0.28413750 0.67660044 -0.64285714
0.28413750 0.74802901 -0.57142857
0.21270892 0.74802901 -0.07142857
0.28413750 0.74802901 -0.14285714
0.28413750 0.67660044 0.92857143
0.28413750 0.81945758 -0.50000000
0.21270892 0.89088616 -0.35714286
0.28413750 0.81945758 -0.35714286
0.28413750 0.89088616 -0.28571429
0.21270892 0.89088616 -0.07142857
0.28413750 0.89088616 -0.14285714
0.28413750 0.96231473 -0.21428571
0.35556607 -0.82339956 -0.07142857
0.42699464 -0.82339956 -0.14285714
0.42699464 -0.89482813 -0.07142857
0.42699464 -0.89482813 0.07142857
0.42699464 -0.89482813 0.21428571
0.42699464 -0.89482813 0.35714286
0.42699464 -0.89482813 0.50000000
0.35556607 -0.82339956 0.64285714
0.42699464 -0.82339956 0.57142857
0.35556607 -0.68054242 -0.92857143
0.35556607 -0.68054242 -0.78571429
0.35556607 -0.68054242 -0.64285714
0.35556607 -0.68054242 -0.50000000
0.42699464 -0.68054242 -0.42857143
0.42699464 -0.75197099 -0.35714286
0.42699464 -0.75197099 -0.21428571
0.42699464 -0.75197099 0.64285714
0.35556607 -0.68054242 0.78571429
0.42699464 -0.68054242 0.71428571
0.35556607 -0.53768527 -0.64285714
0.42699464 -0.53768527 -0.57142857
0.42699464 -0.60911384 -0.50000000
0.35556607 -0.53768527 0.78571429
0.42699464 -0.53768527 0.71428571
0.35556607 -0.39482813 -0.64285714
0.42699464 -0.39482813 -0.57142857
0.42699464 -0.46625670 0.78571429
0.35556607 -0.39482813 0.92857143
0.42699464 -0.39482813 0.85714286
0.35556607 -0.25197099 -0.64285714
0.42699464 -0.25197099 -0.57142857
0.42699464 -0.32339956 0.92857143
0.42699464 -0.25197099 1.00000000
0.35556607 -0.10911384 -0.64285714
0.42699464 -0.10911384 -0.57142857
0.42699464 -0.10911384 1.00000000
0.42699464 0.03374330 -0.85714286
0.42699464 -0.03768527 -0.78571429
0.42699464 -0.03768527 -0.64285714
0.42699464 0.03374330 1.00000000
0.42699464 0.10517187 -0.78571429
0.35556607 0.17660044 -0.78571429
0.42699464 0.17660044 -0.71428571
0.42699464 0.17660044 1.00000000
0.35556607 0.31945758 -0.78571429
0.42699464 0.31945758 -0.71428571
0.42699464 0.31945758 1.00000000
0.35556607 0.46231473 -0.78571429
0.42699464 0.46231473 -0.71428571
0.42699464 0.46231473 1.00000000
0.35556607 0.60517187 -0.64285714
0.42699464 0.53374330 -0.64285714
0.42699464 0.60517187 -0.57142857
0.35556607 0.60517187 -0.21428571
0.42699464 0.53374330 -0.21428571
0.42699464 0.60517187 -0.28571429
0.42699464 0.53374330 -0.07142857
0.42699464 0.53374330 0.07142857
0.42699464 0.53374330 0.21428571
0.42699464 0.53374330 0.35714286
0.42699464 0.53374330 0.50000000
0.42699464 0.53374330 0.64285714
0.42699464 0.53374330 0.78571429
0.42699464 0.60517187 0.85714286
0.42699464 0.60517187 1.00000000
0.42699464 0.74802901 -0.57142857
0.35556607 0.74802901 -0.21428571
0.42699464 0.74802901 -0.28571429
0.35556607 0.74802901 0.92857143
0.42699464 0.74802901 0.85714286
0.42699464 0.74802901 1.00000000
0.42699464 0.81945758 -0.50000000
0.42699464 0.81945758 -0.35714286
0.35556607 0.89088616 -0.21428571
0.42699464 0.81945758 0.92857143
0.49842321 -0.82339956 -0.07142857
0.49842321 -0.82339956 0.07142857
0.49842321 -0.82339956 0.21428571
0.49842321 -0.82339956 0.35714286
0.49842321 -0.82339956 0.50000000
0.56985178 -0.68054242 -0.42857143
0.56985178 -0.75197099 -0.35714286
0.56985178 -0.75197099 -0.21428571
0.49842321 -0.68054242 -0.07142857
0.56985178 -0.68054242 -0.14285714
0.49842321 -0.68054242 0.07142857
0.49842321 -0.68054242 0.21428571
0.49842321 -0.68054242 0.35714286
0.49842321 -0.68054242 0.50000000
0.56985178 -0.75197099 0.64285714
0.56985178 -0.68054242 0.57142857
0.56985178 -0.68054242 0.71428571
0.49842321 -0.53768527 -0.50000000
0.56985178 -0.53768527 -0.42857143
0.49842321 -0.53768527 -0.21428571
0.56985178 -0.60911384 -0.21428571
0.56985178 -0.53768527 -0.28571429
0.49842321 -0.53768527 -0.07142857
0.49842321 -0.53768527 0.07142857
0.49842321 -0.53768527 0.21428571
0.56985178 -0.53768527 0.28571429
0.56985178 -0.60911384 0.35714286
0.56985178 -0.60911384 0.50000000
0.56985178 -0.53768527 0.71428571
0.49842321 -0.39482813 -0.50000000
0.56985178 -0.39482813 -0.42857143
0.49842321 -0.39482813 -0.21428571
0.56985178 -0.39482813 -0.28571429
0.49842321 -0.39482813 -0.07142857
0.49842321 -0.39482813 0.07142857
0.49842321 -0.39482813 0.21428571
0.56985178 -0.39482813 0.28571429
0.56985178 -0.46625670 0.78571429
0.56985178 -0.39482813 0.85714286
0.56985178 -0.25197099 -0.57142857
0.56985178 -0.32339956 -0.50000000
0.49842321 -0.25197099 -0.21428571
0.56985178 -0.25197099 -0.28571429
0.49842321 -0.25197099 -0.07142857
0.49842321 -0.25197099 0.07142857
0.49842321 -0.25197099 0.21428571
0.56985178 -0.25197099 0.28571429
0.49842321 -0.25197099 0.92857143
0.56985178 -0.25197099 0.85714286
0.56985178 -0.10911384 -0.57142857
0.56985178 -0.18054242 -0.21428571
0.56985178 -0.18054242 -0.07142857
0.56985178 -0.18054242 0.07142857
0.56985178 -0.18054242 0.21428571
0.49842321 -0.10911384 0.92857143
0.56985178 -0.10911384 0.85714286
0.56985178 0.03374330 -0.85714286
0.56985178 -0.03768527 -0.78571429
0.56985178 -0.03768527 -0.64285714
0.56985178 -0.03768527 0.92857143
0.56985178 0.03374330 1.00000000
0.56985178 0.10517187 -0.78571429
0.49842321 0.17660044 -0.64285714
0.56985178 0.10517187 -0.64285714
0.56985178 0.17660044 -0.57142857
0.56985178 0.17660044 1.00000000
0.49842321 0.31945758 -0.64285714
0.56985178 0.31945758 -0.57142857
0.49842321 0.31945758 0.92857143
0.56985178 0.24802901 0.92857143
0.56985178 0.31945758 0.85714286
0.49842321 0.46231473 -0.64285714
0.56985178 0.46231473 -0.57142857
0.49842321 0.46231473 0.07142857
0.56985178 0.39088616 0.07142857
0.56985178 0.46231473 0.00000000
0.49842321 0.46231473 0.21428571
0.56985178 0.39088616 0.21428571
0.49842321 0.46231473 0.35714286
0.56985178 0.39088616 0.35714286
0.49842321 0.46231473 0.50000000
0.56985178 0.39088616 0.50000000
0.56985178 0.46231473 0.57142857
0.49842321 0.46231473 0.92857143
0.56985178 0.46231473 0.85714286
0.49842321 0.60517187 -0.50000000
0.56985178 0.53374330 -0.50000000
0.56985178 0.60517187 -0.42857143
0.56985178 0.53374330 -0.21428571
0.56985178 0.60517187 -0.28571429
0.56985178 0.53374330 -0.07142857
0.56985178 0.60517187 0.57142857
0.49842321 0.60517187 0.64285714
0.56985178 0.60517187 0.71428571
0.56985178 0.53374330 0.78571429
0.49842321 0.60517187 0.92857143
0.49842321 0.74802901 -0.50000000
0.56985178 0.74802901 -0.42857143
0.56985178 0.74802901 -0.28571429
0.56985178 0.67660044 0.64285714
0.49842321 0.74802901 0.92857143
0.56985178 0.81945758 -0.35714286
0.64128035 -0.68054242 -0.35714286
0.64128035 -0.68054242 -0.21428571
0.64128035 -0.68054242 0.64285714
0.71270892 -0.53768527 -0.42857143
0.71270892 -0.60911384 -0.35714286
0.71270892 -0.53768527 -0.28571429
0.71270892 -0.53768527 0.28571429
0.71270892 -0.60911384 0.35714286
0.71270892 -0.60911384 0.50000000
0.64128035 -0.53768527 0.64285714
0.71270892 -0.53768527 0.57142857
0.71270892 -0.46625670 -0.35714286
0.64128035 -0.39482813 -0.35714286
0.71270892 -0.39482813 0.28571429
0.64128035 -0.39482813 0.64285714
0.71270892 -0.39482813 0.57142857
0.64128035 -0.39482813 0.78571429
0.64128035 -0.25197099 -0.50000000
0.64128035 -0.25197099 -0.35714286
0.71270892 -0.25197099 0.28571429
0.71270892 -0.32339956 0.64285714
0.71270892 -0.32339956 0.78571429
0.71270892 -0.25197099 0.85714286
0.64128035 -0.10911384 -0.50000000
0.64128035 -0.10911384 -0.35714286
0.71270892 -0.18054242 -0.21428571
0.71270892 -0.10911384 -0.28571429
0.64128035 -0.10911384 -0.07142857
0.71270892 -0.10911384 -0.14285714
0.64128035 -0.10911384 0.07142857
0.64128035 -0.10911384 0.21428571
0.71270892 -0.18054242 0.35714286
0.64128035 -0.10911384 0.35714286
0.64128035 -0.10911384 0.50000000
0.71270892 -0.18054242 0.50000000
0.71270892 -0.10911384 0.57142857
0.71270892 -0.10911384 0.85714286
0.64128035 0.03374330 -0.78571429
0.64128035 0.03374330 -0.64285714
0.64128035 0.03374330 -0.50000000
0.71270892 0.03374330 -0.42857143
0.71270892 -0.03768527 -0.35714286
0.64128035 0.03374330 -0.07142857
0.71270892 0.03374330 -0.14285714
0.64128035 0.03374330 0.07142857
0.64128035 0.03374330 0.21428571
0.64128035 0.03374330 0.35714286
0.64128035 0.03374330 0.50000000
0.71270892 0.03374330 0.57142857
0.71270892 -0.03768527 0.92857143
0.71270892 0.03374330 1.00000000
0.64128035 0.17660044 -0.50000000
0.71270892 0.10517187 -0.35714286
0.64128035 0.17660044 -0.35714286
0.71270892 0.17660044 -0.28571429
0.64128035 0.17660044 -0.07142857
0.71270892 0.17660044 -0.14285714
0.64128035 0.17660044 0.07142857
0.64128035 0.17660044 0.21428571
0.64128035 0.17660044 0.35714286
0.64128035 0.17660044 0.50000000
0.71270892 0.17660044 0.57142857
0.64128035 0.17660044 0.78571429
0.71270892 0.10517187 0.78571429
0.71270892 0.17660044 0.71428571
0.64128035 0.17660044 0.92857143
0.71270892 0.10517187 0.92857143
0.64128035 0.31945758 -0.50000000
0.64128035 0.31945758 -0.35714286
0.71270892 0.24802901 -0.21428571
0.64128035 0.31945758 -0.21428571
0.64128035 0.31945758 -0.07142857
0.64128035 0.31945758 0.07142857
0.64128035 0.31945758 0.21428571
0.71270892 0.31945758 0.28571429
0.71270892 0.24802901 0.35714286
0.71270892 0.24802901 0.50000000
0.71270892 0.31945758 0.57142857
0.64128035 0.31945758 0.64285714
0.71270892 0.24802901 0.64285714
0.64128035 0.31945758 0.78571429
0.64128035 0.46231473 -0.50000000
0.64128035 0.46231473 -0.35714286
0.64128035 0.46231473 -0.21428571
0.64128035 0.46231473 -0.07142857
0.71270892 0.39088616 0.35714286
0.71270892 0.39088616 0.50000000
0.64128035 0.46231473 0.64285714
0.64128035 0.46231473 0.78571429
0.64128035 0.60517187 -0.35714286
0.64128035 0.60517187 0.64285714
0.64128035 0.74802901 -0.35714286
0.78413750 -0.53768527 -0.35714286
0.78413750 -0.53768527 0.35714286
0.78413750 -0.53768527 0.50000000
0.85556607 -0.39482813 0.28571429
0.85556607 -0.46625670 0.35714286
0.85556607 -0.46625670 0.50000000
0.85556607 -0.39482813 0.57142857
0.85556607 -0.25197099 0.28571429
0.78413750 -0.25197099 0.64285714
0.85556607 -0.25197099 0.57142857
0.78413750 -0.25197099 0.78571429
0.78413750 -0.10911384 -0.21428571
0.85556607 -0.18054242 0.35714286
0.85556607 -0.18054242 0.50000000
0.78413750 -0.10911384 0.64285714
0.78413750 -0.10911384 0.78571429
0.78413750 0.03374330 -0.35714286
0.78413750 0.03374330 -0.21428571
0.78413750 0.03374330 0.64285714
0.78413750 0.03374330 0.78571429
0.78413750 0.03374330 0.92857143
0.78413750 0.17660044 -0.21428571
0.78413750 0.17660044 0.64285714
0.78413750 0.31945758 0.35714286
0.78413750 0.31945758 0.50000000
0.92699464 -0.39482813 0.35714286
0.92699464 -0.39482813 0.50000000
0.92699464 -0.25197099 0.35714286
0.92699464 -0.25197099 0.50000000
3 2 1 0
3 4 3 0
3 0 3 2
3 6 5 4
3 4 5 3
3 6 7 5
3 10 9 8
3 10 8 1
3 8 0 1
3 8 11 0
3 0 12 4
3 0 11 12
3 4 13 6
3 4 12 13
3 7 6 14
3 14 6 13
3 17 16 15
3 17 15 9
3 15 8 9
3 15 18 8
3 8 19 11
3 8 18 19
3 11 20 12
3 11 19 20
3 12 21 13
3 12 20 21
3 14 13 22
3 22 13 21
3 15 16 23
3 23 16 24
3 15 25 18
3 15 23 25
3 18 26 19
3 18 25 26
3 28 20 27
3 20 26 27
3 20 19 26
3 20 28 21
3 21 28 29
3 21 29 22
3 24 30 23
3 23 30 25
3 25 30 31
3 25 31 26
3 26 31 32
3 26 32 27
3 35 34 33
3 37 36 33
3 33 36 35
3 37 38 36
3 33 34 39
3 39 34 40
3 42 37 41
3 37 39 41
3 37 33 39
3 37 42 38
3 40 43 39
3 39 43 41
3 46 45 44
3 44 47 46
3 44 45 48
3 48 45 49
3 47 44 50
3 50 44 48
3 53 52 51
3 55 54 51
3 51 54 53
3 1 2 55
3 2 54 55
3 2 56 54
3 57 2 3
3 57 56 2
3 5 48 49
3 57 5 49
3 3 5 57
3 5 7 48
3 7 50 48
3 7 58 50
3 51 52 59
3 59 52 60
3 59 9 10
3 55 59 10
3 51 59 55
3 55 10 1
3 14 58 7
3 14 61 58
3 59 60 17
3 60 16 17
3 60 62 16
3 59 17 9
3 22 61 14
3 22 63 61
3 62 24 16
3 64 24 62
3 27 65 28
3 66 29 28
3 66 28 65
3 66 67 29
3 67 22 29
3 67 63 22
3 30 24 68
3 24 69 68
3 24 64 69
3 70 31 30
3 70 30 68
3 71 32 31
3 71 31 70
3 65 27 32
3 71 65 32
3 72 65 71
3 65 73 66
3 65 72 73
3 67 66 74
3 66 75 74
3 66 73 75
3 75 76 74
3 68 69 77
3 77 69 78
3 68 79 70
3 68 77 79
3 70 80 71
3 70 79 80
3 71 81 72
3 71 80 81
3 83 73 82
3 73 81 82
3 73 72 81
3 73 83 75
3 75 83 84
3 75 84 76
3 86 85 35
3 35 85 34
3 87 35 36
3 87 86 35
3 36 78 87
3 78 36 77
3 38 77 36
3 77 38 88
3 89 88 38
3 77 88 79
3 79 88 90
3 79 90 80
3 80 90 91
3 80 91 81
3 81 91 92
3 81 92 82
3 95 94 93
3 85 95 93
3 40 85 93
3 34 85 40
3 97 96 42
3 97 42 41
3 38 42 89
3 89 42 96
3 94 98 93
3 93 98 40
3 98 43 40
3 98 99 43
3 41 43 97
3 97 43 99
3 102 101 100
3 104 103 100
3 100 103 102
3 45 46 104
3 46 103 104
3 46 105 103
3 46 47 105
3 105 47 106
3 109 108 107
3 111 110 107
3 107 110 109
3 113 112 111
3 111 112 110
3 115 114 113
3 113 114 112
3 117 116 115
3 115 116 114
3 116 117 101
3 117 100 101
3 117 118 100
3 100 119 104
3 100 118 119
3 119 49 45
3 119 45 104
3 50 106 47
3 50 120 106
3 108 121 107
3 107 121 111
3 111 121 122
3 124 123 122
3 123 111 122
3 123 113 111
3 123 52 53
3 115 123 53
3 113 123 115
3 115 53 54
3 115 54 117
3 117 54 56
3 117 56 118
3 118 56 57
3 118 57 119
3 119 57 49
3 58 126 125
3 120 58 125
3 50 58 120
3 126 127 125
3 123 124 128
3 128 124 129
3 128 60 52
3 128 52 123
3 61 130 126
3 61 126 58
3 127 126 131
3 131 126 130
3 128 129 132
3 132 129 133
3 132 62 60
3 132 60 128
3 63 134 130
3 63 130 61
3 131 130 135
3 135 130 134
3 132 133 136
3 136 133 137
3 136 64 62
3 136 62 132
3 67 138 134
3 67 134 63
3 135 134 139
3 139 134 138
3 136 137 140
3 140 137 141
3 140 69 64
3 140 64 136
3 74 138 67
3 74 76 138
3 76 139 138
3 76 142 139
3 140 141 143
3 143 141 144
3 143 78 69
3 143 69 140
3 82 145 83
3 146 84 83
3 146 83 145
3 146 147 84
3 147 76 84
3 147 142 76
3 149 148 86
3 86 148 85
3 87 143 144
3 149 87 144
3 86 87 149
3 78 143 87
3 88 89 150
3 88 150 151
3 152 88 151
3 90 88 152
3 90 153 91
3 152 153 90
3 91 154 92
3 153 154 91
3 82 92 145
3 92 155 145
3 92 154 155
3 145 155 146
3 146 155 156
3 146 156 147
3 158 157 95
3 95 157 94
3 95 85 148
3 95 148 158
3 97 159 96
3 150 89 96
3 159 150 96
3 160 150 159
3 151 150 161
3 161 150 160
3 157 162 94
3 94 162 98
3 162 164 163
3 99 162 163
3 98 162 99
3 159 97 99
3 163 159 99
3 165 159 163
3 159 166 160
3 159 165 166
3 161 160 167
3 167 160 166
3 164 168 163
3 163 168 165
3 165 168 169
3 165 169 166
3 166 169 170
3 166 170 167
3 173 172 171
3 175 174 171
3 171 174 173
3 175 176 174
3 178 177 102
3 102 177 101
3 103 171 172
3 178 103 172
3 102 103 178
3 171 103 105
3 171 105 175
3 105 106 175
3 106 176 175
3 106 179 176
3 182 181 180
3 108 109 180
3 109 182 180
3 109 183 182
3 184 109 110
3 184 183 109
3 185 110 112
3 185 184 110
3 186 112 114
3 186 185 112
3 187 114 116
3 187 186 114
3 116 101 177
3 116 177 187
3 120 189 188
3 179 120 188
3 106 120 179
3 189 190 188
3 181 191 180
3 191 193 192
3 191 192 121
3 180 191 121
3 108 180 121
3 194 122 121
3 194 121 192
3 194 124 122
3 125 189 120
3 125 127 189
3 127 190 189
3 127 195 190
3 192 193 196
3 196 193 197
3 192 198 194
3 192 196 198
3 198 129 124
3 198 124 194
3 131 195 127
3 131 199 195
3 196 197 200
3 200 197 201
3 196 202 198
3 196 200 202
3 202 133 129
3 202 129 198
3 135 199 131
3 135 203 199
3 206 205 204
3 206 204 201
3 204 200 201
3 204 207 200
3 200 208 202
3 200 207 208
3 208 137 133
3 208 133 202
3 139 203 135
3 139 209 203
3 204 205 210
3 210 205 211
3 204 212 207
3 204 210 212
3 207 213 208
3 207 212 213
3 213 141 137
3 213 137 208
3 142 209 139
3 142 214 209
3 217 216 215
3 217 215 211
3 215 210 211
3 215 218 210
3 210 219 212
3 210 218 219
3 212 220 213
3 212 219 220
3 220 144 141
3 220 141 213
3 147 214 142
3 147 221 214
3 216 222 215
3 224 223 222
3 223 215 222
3 223 218 215
3 218 225 219
3 218 223 225
3 225 148 149
3 220 225 149
3 219 225 220
3 220 149 144
3 227 226 152
3 227 152 151
3 152 228 153
3 226 228 152
3 153 229 154
3 228 229 153
3 154 230 155
3 229 230 154
3 230 232 231
3 156 230 231
3 155 230 156
3 231 233 156
3 233 147 156
3 233 221 147
3 223 224 234
3 234 224 235
3 234 157 158
3 225 234 158
3 223 234 225
3 225 158 148
3 161 227 151
3 161 236 227
3 231 232 237
3 237 232 238
3 233 231 239
3 231 240 239
3 231 237 240
3 240 241 239
3 235 242 234
3 234 242 157
3 242 162 157
3 242 243 162
3 164 162 243
3 164 243 244
3 167 236 161
3 167 245 236
3 237 238 246
3 246 238 247
3 249 240 248
3 240 246 248
3 240 237 246
3 240 249 241
3 244 250 164
3 164 250 168
3 250 252 251
3 169 250 251
3 168 250 169
3 253 170 169
3 253 169 251
3 253 254 170
3 254 167 170
3 254 245 167
3 247 255 246
3 246 255 248
3 252 256 251
3 251 256 253
3 253 256 257
3 253 257 254
3 260 259 258
3 262 261 258
3 258 261 260
3 172 173 262
3 173 261 262
3 173 263 261
3 264 173 174
3 264 263 173
3 174 176 264
3 264 176 265
3 268 267 266
3 268 266 259
3 266 258 259
3 266 269 258
3 269 177 178
3 262 269 178
3 258 269 262
3 262 178 172
3 179 265 176
3 179 270 265
3 272 271 182
3 182 271 181
3 273 182 183
3 273 272 182
3 274 183 184
3 274 273 183
3 275 184 185
3 275 274 184
3 186 266 267
3 275 186 267
3 185 186 275
3 266 186 187
3 266 187 269
3 269 187 177
3 276 270 179
3 276 179 188
3 188 190 276
3 276 190 277
3 191 181 278
3 181 279 278
3 181 271 279
3 278 193 191
3 195 277 190
3 195 280 277
3 278 279 281
3 281 279 282
3 281 197 193
3 281 193 278
3 199 280 195
3 199 283 280
3 286 285 284
3 288 287 284
3 284 287 286
3 290 289 288
3 288 289 287
3 289 290 282
3 290 281 282
3 290 291 281
3 291 201 197
3 291 197 281
3 203 293 292
3 283 203 292
3 199 203 283
3 293 294 292
3 284 285 295
3 295 285 296
3 284 297 288
3 284 295 297
3 288 298 290
3 288 297 298
3 298 205 206
3 291 298 206
3 290 298 291
3 291 206 201
3 209 299 293
3 209 293 203
3 294 293 300
3 300 293 299
3 295 296 301
3 301 296 302
3 295 303 297
3 295 301 303
3 297 304 298
3 297 303 304
3 304 211 205
3 304 205 298
3 214 305 299
3 214 299 209
3 300 299 306
3 306 299 305
3 302 307 301
3 301 307 303
3 303 307 308
3 309 216 217
3 303 309 217
3 304 303 217
3 308 309 303
3 304 217 211
3 221 310 305
3 221 305 214
3 306 305 311
3 311 305 310
3 222 216 312
3 216 313 312
3 216 309 313
3 312 224 222
3 227 314 226
3 315 228 226
3 315 226 314
3 316 229 228
3 316 228 315
3 317 230 229
3 317 229 316
3 232 230 317
3 320 319 318
3 318 321 310
3 233 318 310
3 221 233 310
3 320 318 233
3 310 321 311
3 313 322 312
3 224 312 322
3 323 224 322
3 235 224 323
3 236 324 314
3 236 314 227
3 326 315 325
3 315 324 325
3 315 314 324
3 315 326 316
3 316 326 327
3 316 327 317
3 317 327 328
3 232 317 238
3 328 238 317
3 238 328 329
3 319 329 328
3 329 319 320
3 239 330 233
3 330 320 233
3 330 329 320
3 241 330 239
3 323 331 235
3 235 331 242
3 331 333 332
3 243 331 332
3 242 331 243
3 332 244 243
3 336 335 334
3 335 337 324
3 245 335 324
3 236 245 324
3 334 335 245
3 324 337 325
3 338 247 329
3 329 247 238
3 248 338 249
3 338 330 249
3 338 329 330
3 249 330 241
3 333 339 332
3 339 341 340
3 339 340 250
3 332 339 250
3 244 332 250
3 340 252 250
3 336 334 342
3 336 342 343
3 254 342 245
3 245 342 334
3 338 255 247
3 255 338 248
3 341 344 340
3 340 344 252
3 344 256 252
3 344 345 256
3 342 257 343
3 257 345 343
3 257 256 345
3 257 342 254
3 347 346 260
3 260 346 259
3 348 260 261
3 348 347 260
3 349 261 263
3 349 348 261
3 350 263 264
3 350 349 263
3 264 265 350
3 350 265 351
3 353 352 268
3 268 352 267
3 268 259 346
3 268 346 353
3 270 351 265
3 270 354 351
3 357 356 355
3 271 272 355
3 272 357 355
3 272 358 357
3 359 272 273
3 359 358 272
3 360 273 274
3 360 359 273
3 361 274 275
3 361 360 274
3 275 267 352
3 275 352 361
3 362 354 270
3 362 270 276
3 276 277 362
3 362 277 363
3 366 365 364
3 366 364 356
3 364 355 356
3 364 367 355
3 367 279 271
3 367 271 355
3 280 363 277
3 280 368 363
3 371 370 369
3 371 369 365
3 369 364 365
3 369 372 364
3 364 373 367
3 364 372 373
3 373 282 279
3 373 279 367
3 283 368 280
3 283 374 368
3 369 370 286
3 370 285 286
3 370 375 285
3 369 286 287
3 369 287 372
3 372 287 289
3 372 289 373
3 373 289 282
3 376 374 283
3 376 283 292
3 292 294 376
3 376 294 377
3 375 296 285
3 378 296 375
3 300 377 294
3 300 379 377
3 378 302 296
3 380 302 378
3 306 379 300
3 306 381 379
3 380 382 302
3 302 382 307
3 307 383 308
3 382 383 307
3 309 308 383
3 309 383 384
3 311 381 306
3 311 385 381
3 384 313 309
3 386 313 384
3 388 387 318
3 388 318 319
3 318 389 321
3 387 389 318
3 311 321 385
3 385 321 389
3 322 313 390
3 313 391 390
3 313 386 391
3 390 323 322
3 394 393 392
3 396 395 392
3 396 392 393
3 326 325 395
3 396 326 395
3 397 326 396
3 326 398 327
3 397 398 326
3 327 399 328
3 398 399 327
3 319 328 388
3 388 328 399
3 391 400 390
3 390 400 323
3 400 331 323
3 400 401 331
3 333 331 401
3 333 401 402
3 394 392 335
3 336 394 335
3 403 394 336
3 335 392 337
3 337 392 395
3 337 395 325
3 402 404 333
3 333 404 339
3 341 339 404
3 341 404 405
3 343 403 336
3 343 406 403
3 405 407 341
3 341 407 344
3 344 408 345
3 407 408 344
3 343 345 406
3 406 345 408
3 410 409 347
3 347 409 346
3 411 347 348
3 411 410 347
3 412 348 349
3 412 411 348
3 413 349 350
3 413 412 349
3 350 351 413
3 413 351 414
3 417 416 415
3 419 418 415
3 415 418 417
3 352 353 419
3 353 418 419
3 353 420 418
3 353 346 409
3 353 409 420
3 354 414 351
3 354 421 414
3 423 422 357
3 357 422 356
3 424 357 358
3 424 423 357
3 425 358 359
3 425 424 358
3 360 415 416
3 425 360 416
3 359 360 425
3 415 360 361
3 415 361 419
3 419 361 352
3 426 421 354
3 426 354 362
3 362 363 426
3 426 363 427
3 430 429 428
3 365 366 428
3 366 430 428
3 366 431 430
3 366 356 422
3 366 422 431
3 368 427 363
3 368 432 427
3 428 429 371
3 429 370 371
3 429 433 370
3 428 371 365
3 374 432 368
3 374 434 432
3 433 375 370
3 435 375 433
3 436 434 374
3 436 374 376
3 376 377 436
3 436 377 437
3 435 378 375
3 438 378 435
3 379 437 377
3 379 439 437
3 438 380 378
3 440 380 438
3 381 439 379
3 381 441 439
3 440 442 380
3 380 442 382
3 442 444 443
3 383 442 443
3 382 442 383
3 443 384 383
3 385 441 381
3 385 445 441
3 443 444 446
3 446 444 447
3 446 386 384
3 446 384 443
3 449 448 387
3 449 387 388
3 387 450 389
3 448 450 387
3 385 389 445
3 445 389 450
3 446 447 451
3 451 447 452
3 451 391 386
3 451 386 446
3 454 453 393
3 454 393 394
3 393 455 396
3 453 455 393
3 396 456 397
3 455 456 396
3 397 457 398
3 456 457 397
3 398 458 399
3 457 458 398
3 388 399 449
3 449 399 458
3 452 459 451
3 451 459 391
3 459 400 391
3 459 460 400
3 460 462 461
3 401 460 461
3 400 460 401
3 461 402 401
3 403 454 394
3 403 463 454
3 462 464 461
3 461 464 402
3 464 404 402
3 464 465 404
3 405 404 465
3 405 465 466
3 406 463 403
3 406 467 463
3 466 468 405
3 405 468 407
3 407 469 408
3 468 469 407
3 406 408 467
3 467 408 469
3 472 471 470
3 409 410 470
3 410 472 470
3 410 473 472
3 474 410 411
3 474 473 410
3 475 411 412
3 475 474 411
3 476 412 413
3 476 475 412
3 413 414 476
3 476 414 477
3 479 478 417
3 417 478 416
3 480 417 418
3 480 479 417
3 420 470 471
3 480 420 471
3 418 420 480
3 470 420 409
3 421 482 481
3 477 421 481
3 414 421 477
3 482 483 481
3 485 484 423
3 423 484 422
3 486 423 424
3 486 485 423
3 487 424 425
3 487 486 424
3 425 416 478
3 425 478 487
3 426 482 421
3 426 427 482
3 427 483 482
3 427 488 483
3 490 489 430
3 430 489 429
3 491 430 431
3 491 490 430
3 431 422 484
3 431 484 491
3 432 488 427
3 432 492 488
3 489 433 429
3 493 433 489
3 434 492 432
3 434 494 492
3 493 435 433
3 495 435 493
3 496 494 434
3 496 434 436
3 436 437 496
3 496 437 497
3 495 438 435
3 498 438 495
3 439 497 437
3 439 499 497
3 498 440 438
3 500 440 498
3 441 499 439
3 441 501 499
3 500 502 440
3 440 502 442
3 444 442 502
3 444 502 503
3 445 501 441
3 445 504 501
3 503 447 444
3 505 447 503
3 449 506 448
3 448 506 507
3 508 448 507
3 450 448 508
3 445 450 504
3 504 450 508
3 510 452 509
3 452 505 509
3 452 447 505
3 511 510 509
3 513 512 453
3 513 453 454
3 453 514 455
3 512 514 453
3 455 515 456
3 514 515 455
3 456 516 457
3 515 516 456
3 457 517 458
3 516 517 457
3 449 458 506
3 458 518 506
3 458 517 518
3 506 518 507
3 510 459 452
3 511 519 510
3 519 459 510
3 519 460 459
3 462 460 519
3 462 519 520
3 463 513 454
3 463 521 513
3 520 522 462
3 462 522 464
3 522 524 523
3 465 522 523
3 464 522 465
3 523 466 465
3 467 521 463
3 467 525 521
3 524 526 523
3 523 526 466
3 526 468 466
3 526 527 468
3 468 528 469
3 527 528 468
3 467 469 525
3 525 469 528
3 530 529 472
3 472 529 471
3 531 472 473
3 531 530 472
3 532 473 474
3 532 531 473
3 533 474 475
3 533 532 474
3 534 475 476
3 534 533 475
3 476 477 534
3 534 477 535
3 538 537 536
3 540 539 536
3 536 539 538
3 542 541 540
3 540 541 539
3 544 543 542
3 542 543 541
3 546 545 544
3 544 545 543
3 478 479 546
3 479 545 546
3 479 547 545
3 548 479 480
3 548 547 479
3 480 471 529
3 480 529 548
3 549 535 477
3 549 477 481
3 481 483 549
3 549 483 550
3 537 551 536
3 536 551 540
3 540 551 552
3 553 484 485
3 540 553 485
3 542 540 485
3 552 553 540
3 542 485 486
3 542 486 544
3 544 486 487
3 544 487 546
3 546 487 478
3 488 550 483
3 488 554 550
3 555 489 490
3 491 556 490
3 490 556 555
3 557 556 491
3 484 557 491
3 553 557 484
3 492 559 558
3 554 492 558
3 488 492 554
3 559 560 558
3 561 493 555
3 555 493 489
3 562 555 556
3 561 555 562
3 556 557 563
3 556 563 562
3 494 564 559
3 494 559 492
3 560 559 565
3 565 559 564
3 566 495 561
3 561 495 493
3 567 561 562
3 566 561 567
3 562 563 568
3 562 568 567
3 496 564 494
3 496 497 564
3 497 565 564
3 497 569 565
3 570 498 566
3 566 498 495
3 567 572 571
3 570 567 571
3 566 567 570
3 572 567 568
3 499 569 497
3 499 573 569
3 574 500 570
3 570 500 498
3 570 571 575
3 570 575 574
3 501 573 499
3 501 576 573
3 574 502 500
3 503 502 574
3 575 503 574
3 577 503 575
3 504 576 501
3 504 578 576
3 577 505 503
3 579 505 577
3 507 580 508
3 580 581 508
3 581 504 508
3 581 578 504
3 579 582 505
3 505 582 509
3 511 509 582
3 511 582 583
3 586 585 584
3 512 513 584
3 585 512 584
3 587 512 585
3 512 588 514
3 587 588 512
3 514 589 515
3 588 589 514
3 515 590 516
3 589 590 515
3 516 591 517
3 590 591 516
3 517 592 518
3 591 592 517
3 518 592 507
3 592 593 507
3 593 580 507
3 593 592 594
3 581 580 595
3 595 580 593
3 583 596 511
3 511 596 519
3 520 519 596
3 520 596 597
3 586 584 598
3 586 598 599
3 521 598 513
3 513 598 584
3 594 600 593
3 593 600 595
3 597 601 520
3 520 601 522
3 603 602 524
3 522 603 524
3 601 603 522
3 604 602 603
3 599 598 605
3 599 605 606
3 525 605 521
3 521 605 598
3 602 526 524
3 604 607 602
3 607 526 602
3 607 527 526
3 605 528 606
3 528 607 606
3 528 527 607
3 528 605 525
3 610 609 608
3 529 530 608
3 530 610 608
3 530 611 610
3 612 530 531
3 612 611 530
3 613 531 532
3 613 612 531
3 614 532 533
3 614 613 532
3 616 614 615
3 614 534 615
3 614 533 534
3 535 615 534
3 617 537 538
3 539 618 538
3 538 618 617
3 541 619 539
3 539 619 618
3 543 620 541
3 541 620 619
3 620 543 621
3 543 622 621
3 543 545 622
3 623 545 547
3 623 622 545
3 548 608 609
3 623 548 609
3 547 548 623
3 608 548 529
3 624 616 615
3 626 624 625
3 625 624 549
3 624 615 549
3 615 535 549
3 550 625 549
3 617 551 537
3 551 617 552
3 552 617 618
3 552 618 553
3 618 627 553
3 618 619 627
3 620 629 628
3 627 620 628
3 619 620 627
3 629 620 621
3 626 625 630
3 626 630 631
3 554 630 550
3 550 630 625
3 632 557 627
3 627 557 553
3 627 628 633
3 627 633 632
3 634 631 630
3 636 634 635
3 635 634 558
3 634 630 558
3 630 554 558
3 560 635 558
3 637 563 632
3 632 563 557
3 632 633 638
3 632 638 637
3 639 636 635
3 635 560 639
3 560 640 639
3 560 565 640
3 641 568 637
3 637 568 563
3 637 638 642
3 637 642 641
3 569 640 565
3 569 643 640
3 645 644 572
3 572 644 571
3 572 568 641
3 646 572 641
3 645 572 646
3 646 641 642
3 573 643 569
3 573 647 643
3 649 575 648
3 575 644 648
3 575 571 644
3 650 649 648
3 576 647 573
3 576 651 647
3 652 577 649
3 649 577 575
3 649 650 653
3 649 653 652
3 578 651 576
3 578 654 651
3 655 579 652
3 652 579 577
3 652 653 656
3 652 656 655
3 581 654 578
3 581 657 654
3 655 582 579
3 659 658 583
3 659 583 582
3 656 659 582
3 655 656 582
3 660 658 659
3 663 662 661
3 585 586 661
3 662 585 661
3 664 585 662
3 585 665 587
3 664 665 585
3 587 666 588
3 665 666 587
3 588 667 589
3 666 667 588
3 589 668 590
3 667 668 589
3 590 669 591
3 668 669 590
3 591 670 592
3 669 670 591
3 594 592 670
3 594 670 671
3 595 657 581
3 595 672 657
3 658 596 583
3 597 596 658
3 660 597 658
3 673 597 660
3 663 661 674
3 663 674 675
3 599 674 586
3 586 674 661
3 600 594 676
3 594 677 676
3 594 671 677
3 676 678 600
3 678 595 600
3 678 672 595
3 673 679 597
3 597 679 601
3 601 680 603
3 679 680 601
3 674 681 604
3 680 674 604
3 603 680 604
3 675 674 680
3 606 681 599
3 599 681 674
3 677 682 676
3 676 682 678
3 681 607 604
3 607 681 606
3 683 609 610
3 611 684 610
3 610 684 683
3 612 685 611
3 611 685 684
3 613 686 612
3 612 686 685
3 614 687 613
3 613 687 686
3 616 687 614
3 689 688 622
3 622 688 621
3 690 622 623
3 690 689 622
3 690 623 609
3 691 690 609
3 683 691 609
3 690 691 692
3 693 683 684
3 691 683 693
3 694 684 685
3 693 684 694
3 695 685 686
3 694 685 695
3 696 686 687
3 695 686 696
3 696 687 616
3 697 696 616
3 624 697 616
3 698 696 697
3 624 626 697
3 697 626 699
3 700 628 629
3 701 700 629
3 621 701 629
3 688 701 621
3 704 703 702
3 702 703 692
3 691 702 692
3 705 702 691
3 706 691 693
3 705 691 706
3 707 693 694
3 706 693 707
3 695 709 708
3 707 695 708
3 694 695 707
3 709 695 696
3 709 696 710
3 710 696 698
3 631 699 626
3 631 711 699
3 712 633 700
3 700 633 628
3 700 701 713
3 700 713 712
3 704 702 714
3 704 714 715
3 716 702 705
3 714 702 716
3 717 705 706
3 716 705 717
3 718 706 707
3 717 706 718
3 707 708 719
3 707 719 718
3 720 711 631
3 720 631 634
3 634 636 720
3 720 636 721
3 723 722 712
3 722 633 712
3 722 638 633
3 723 712 713
3 715 714 724
3 715 724 725
3 726 714 716
3 724 714 726
3 727 716 717
3 726 716 727
3 728 717 718
3 727 717 728
3 718 719 729
3 718 729 728
3 636 639 730
3 731 636 730
3 721 636 731
3 640 730 639
3 722 642 638
3 732 642 722
3 733 725 724
3 733 724 726
3 733 726 734
3 734 726 727
3 734 727 735
3 735 727 728
3 735 728 736
3 736 728 729
3 731 730 737
3 731 737 738
3 643 737 640
3 640 737 730
3 740 739 645
3 645 739 644
3 741 645 646
3 741 740 645
3 646 642 732
3 646 732 741
3 742 738 737
3 737 643 742
3 643 743 742
3 643 647 743
3 739 744 644
3 644 744 648
3 746 745 650
3 648 746 650
3 744 746 648
3 747 745 746
3 651 743 647
3 651 748 743
3 749 653 745
3 745 653 650
3 745 747 750
3 745 750 749
3 753 752 751
3 752 748 751
3 748 654 751
3 748 651 654
3 754 656 749
3 749 656 653
3 749 750 755
3 749 755 754
3 758 757 756
3 760 759 756
3 760 756 757
3 762 761 759
3 762 759 760
3 764 763 761
3 764 761 762
3 765 763 764
3 753 751 766
3 753 766 767
3 657 766 654
3 654 766 751
3 754 659 656
3 769 768 660
3 769 660 659
3 755 769 659
3 754 755 659
3 770 768 769
3 772 771 662
3 772 662 663
3 662 773 664
3 771 773 662
3 756 665 758
3 665 773 758
3 665 664 773
3 665 756 666
3 666 756 759
3 666 759 667
3 667 759 761
3 667 761 668
3 668 761 763
3 669 668 763
3 774 669 763
3 765 774 763
3 775 669 774
3 669 775 776
3 777 669 776
3 670 669 777
3 766 778 671
3 777 766 671
3 670 777 671
3 767 766 777
3 672 778 657
3 657 778 766
3 779 673 768
3 768 673 660
3 768 770 780
3 768 780 779
3 675 772 663
3 675 781 772
3 774 782 775
3 775 782 776
3 783 677 778
3 778 677 671
3 678 783 672
3 672 783 778
3 779 679 673
3 780 784 779
3 784 679 779
3 784 680 679
3 675 680 781
3 781 680 784
3 783 682 677
3 682 783 678
3 785 688 689
3 690 786 689
3 689 786 785
3 692 786 690
3 787 698 697
3 699 787 697
3 789 788 785
3 788 688 785
3 788 701 688
3 704 790 703
3 790 785 703
3 785 786 703
3 790 789 785
3 703 786 692
3 792 791 709
3 709 791 708
3 793 709 710
3 793 792 709
3 793 710 698
3 794 793 698
3 787 794 698
3 793 794 795
3 711 794 699
3 699 794 787
3 797 713 796
3 713 788 796
3 713 701 788
3 796 790 797
3 790 715 797
3 790 704 715
3 791 719 708
3 798 719 791
3 795 794 799
3 795 799 800
3 720 801 711
3 801 794 711
3 801 799 794
3 721 801 720
3 802 722 723
3 713 797 723
3 797 802 723
3 797 803 802
3 725 803 715
3 715 803 797
3 798 729 719
3 804 729 798
3 805 800 799
3 805 799 801
3 805 801 806
3 801 721 806
3 721 807 806
3 721 731 807
3 808 732 802
3 802 732 722
3 809 802 803
3 808 802 809
3 809 803 725
3 810 809 725
3 733 810 725
3 811 809 810
3 813 810 812
3 810 734 812
3 810 733 734
3 735 814 734
3 734 814 812
3 736 815 735
3 735 815 814
3 729 804 816
3 815 729 816
3 817 815 816
3 736 729 815
3 819 818 817
3 819 817 816
3 820 818 819
3 738 807 731
3 738 821 807
3 822 739 740
3 741 823 740
3 740 823 822
3 732 808 741
3 808 823 741
3 808 824 823
3 809 826 825
3 824 809 825
3 808 809 824
3 826 809 811
3 813 812 827
3 813 827 828
3 829 812 814
3 827 812 829
3 830 814 815
3 829 814 830
3 831 815 817
3 830 815 831
3 832 817 818
3 831 817 832
3 818 820 833
3 818 833 832
3 834 821 738
3 834 738 742
3 742 743 834
3 834 743 835
3 822 744 739
3 744 822 746
3 746 822 823
3 746 823 747
3 823 836 747
3 823 824 836
3 824 825 837
3 838 824 837
3 836 824 838
3 839 838 837
3 828 827 840
3 828 840 841
3 842 827 829
3 840 827 842
3 843 829 830
3 842 829 843
3 844 830 831
3 843 830 844
3 845 831 832
3 844 831 845
3 832 833 846
3 832 846 845
3 849 848 847
3 851 850 847
3 851 847 848
3 851 835 850
3 835 748 850
3 835 743 748
3 852 750 836
3 836 750 747
3 853 836 838
3 852 836 853
3 838 839 854
3 855 838 854
3 853 838 855
3 855 854 841
3 840 855 841
3 856 855 840
3 857 840 842
3 856 840 857
3 858 842 843
3 857 842 858
3 844 860 859
3 858 844 859
3 843 844 858
3 860 844 845
3 860 845 861
3 864 863 862
3 846 861 845
3 863 864 849
3 847 863 849
3 865 863 847
3 753 865 752
3 865 850 752
3 865 847 850
3 752 850 748
3 866 755 852
3 852 755 750
3 867 852 853
3 866 852 867
3 868 853 855
3 867 853 868
3 869 855 856
3 868 855 869
3 758 869 757
3 869 857 757
3 869 856 857
3 757 857 760
3 760 857 858
3 859 870 858
3 870 760 858
3 870 762 760
3 762 871 764
3 870 871 762
3 863 872 765
3 871 863 765
3 764 871 765
3 862 863 871
3 873 863 865
3 872 863 873
3 767 873 753
3 753 873 865
3 866 769 755
3 769 866 770
3 866 874 770
3 866 867 874
3 772 874 771
3 874 868 771
3 874 867 868
3 771 868 773
3 773 868 869
3 773 869 758
3 875 774 872
3 872 774 765
3 776 875 777
3 875 873 777
3 875 872 873
3 777 873 767
3 876 780 874
3 874 780 770
3 781 876 772
3 772 876 874
3 875 782 774
3 782 875 776
3 876 784 780
3 784 876 781
3 877 788 789
3 790 877 789
3 878 791 792
3 793 879 792
3 792 879 878
3 795 879 793
3 877 796 788
3 796 877 790
3 881 880 878
3 880 791 878
3 880 798 791
3 881 878 879
3 881 879 882
3 879 795 882
3 795 883 882
3 795 800 883
3 880 804 798
3 884 804 880
3 800 805 885
3 886 800 885
3 883 800 886
3 806 887 805
3 805 887 885
3 807 887 806
3 888 811 810
3 813 888 810
3 884 889 804
3 804 889 816
3 816 890 819
3 889 890 816
3 885 891 820
3 890 885 820
3 819 890 820
3 886 885 890
3 892 885 887
3 891 885 892
3 821 892 807
3 807 892 887
3 893 825 826
3 811 888 826
3 888 893 826
3 888 894 893
3 828 894 813
3 813 894 888
3 895 833 891
3 891 833 820
3 896 891 892
3 895 891 896
3 834 897 821
3 897 892 821
3 897 896 892
3 835 897 834
3 893 837 825
3 837 893 839
3 893 898 839
3 893 894 898
3 841 898 828
3 828 898 894
3 899 846 895
3 895 846 833
3 849 899 848
3 899 896 848
3 899 895 896
3 848 896 851
3 851 896 897
3 851 897 835
3 898 854 839
3 854 898 841
3 900 859 860
3 861 901 860
3 860 901 900
3 861 846 901
3 846 899 901
3 864 862 901
3 864 901 899
3 864 899 849
3 900 870 859
3 870 900 871
3 871 900 901
3 871 901 862
3 902 880 881
3 882 903 881
3 881 903 902
3 883 903 882
3 904 884 902
3 902 884 880
3 905 902 903
3 904 902 905
3 886 905 883
3 883 905 903
3 904 889 884
3 889 904 890
3 890 904 905
3 890 905 886
