ply
format ascii 1.0
element vertex 1476
property float x
property float y
property float z
element face 2948
property list uchar int vertex_indices
end_header
-1.35493946 -0.33148335 -0.50000000
-1.27982901 -0.33148335 -0.57142857
-1.27982901 -0.40659379 -0.50000000
-1.27982901 -0.40659379 -0.35714286
-1.35493946 -0.33148335 -0.35714286
-1.27982901 -0.40659379 -0.21428571
-1.35493946 -0.33148335 -0.21428571
-1.27982901 -0.40659379 -0.07142857
-1.35493946 -0.33148335 -0.07142857
-1.27982901 -0.40659379 0.07142857
-1.35493946 -0.33148335 0.07142857
-1.27982901 -0.40659379 0.21428571
-1.35493946 -0.33148335 0.21428571
-1.27982901 -0.40659379 0.35714286
-1.35493946 -0.33148335 0.35714286
-1.27982901 -0.33148335 0.42857143
-1.35493946 -0.18126246 -0.50000000
-1.27982901 -0.18126246 -0.57142857
-1.35493946 -0.18126246 -0.35714286
-1.35493946 -0.18126246 -0.21428571
-1.35493946 -0.18126246 -0.07142857
-1.35493946 -0.18126246 0.07142857
-1.35493946 -0.18126246 0.21428571
-1.35493946 -0.18126246 0.35714286
-1.27982901 -0.18126246 0.42857143
-1.35493946 -0.03104158 -0.50000000
-1.27982901 -0.03104158 -0.57142857
-1.35493946 -0.03104158 -0.35714286
-1.35493946 -0.03104158 -0.21428571
-1.35493946 -0.03104158 -0.07142857
-1.35493946 -0.03104158 0.07142857
-1.35493946 -0.03104158 0.21428571
-1.35493946 -0.03104158 0.35714286
-1.27982901 -0.03104158 0.42857143
-1.35493946 0.11917931 -0.64285714
-1.27982901 0.11917931 -0.71428571
-1.27982901 0.04406886 -0.64285714
-1.35493946 0.11917931 -0.50000000
-1.35493946 0.11917931 -0.35714286
-1.35493946 0.11917931 -0.21428571
-1.35493946 0.11917931 -0.07142857
-1.35493946 0.11917931 0.07142857
-1.35493946 0.11917931 0.21428571
-1.35493946 0.11917931 0.35714286
-1.27982901 0.04406886 0.50000000
-1.35493946 0.11917931 0.50000000
-1.27982901 0.11917931 0.57142857
-1.27982901 0.19428975 -0.64285714
-1.27982901 0.19428975 -0.50000000
-1.35493946 0.26940019 -0.35714286
-1.27982901 0.26940019 -0.42857143
-1.35493946 0.26940019 -0.21428571
-1.35493946 0.26940019 -0.07142857
-1.35493946 0.26940019 0.07142857
-1.35493946 0.26940019 0.21428571
-1.35493946 0.26940019 0.35714286
-1.27982901 0.26940019 0.42857143
-1.27982901 0.19428975 0.50000000
-1.27982901 0.34451063 -0.35714286
-1.35493946 0.41962108 -0.21428571
-1.27982901 0.41962108 -0.28571429
-1.35493946 0.41962108 -0.07142857
-1.35493946 0.41962108 0.07142857
-1.35493946 0.41962108 0.21428571
-1.27982901 0.41962108 0.28571429
-1.27982901 0.34451063 0.35714286
-1.27982901 0.49473152 -0.21428571
-1.27982901 0.49473152 -0.07142857
-1.27982901 0.49473152 0.07142857
-1.27982901 0.49473152 0.21428571
-1.20471857 -0.63192512 -0.35714286
-1.12960813 -0.63192512 -0.42857143
-1.12960813 -0.70703556 -0.35714286
-1.12960813 -0.70703556 -0.21428571
-1.20471857 -0.63192512 -0.21428571
-1.12960813 -0.70703556 -0.07142857
-1.20471857 -0.63192512 -0.07142857
-1.12960813 -0.70703556 0.07142857
-1.20471857 -0.63192512 0.07142857
-1.12960813 -0.70703556 0.21428571
-1.20471857 -0.63192512 0.21428571
-1.12960813 -0.63192512 0.28571429
-1.20471857 -0.48170423 -0.50000000
-1.12960813 -0.48170423 -0.57142857
-1.12960813 -0.55681467 -0.50000000
-1.20471857 -0.48170423 -0.35714286
-1.20471857 -0.48170423 -0.21428571
-1.20471857 -0.48170423 -0.07142857
-1.20471857 -0.48170423 0.07142857
-1.20471857 -0.48170423 0.21428571
-1.12960813 -0.55681467 0.35714286
-1.20471857 -0.48170423 0.35714286
-1.12960813 -0.55681467 0.50000000
-1.20471857 -0.48170423 0.50000000
-1.12960813 -0.48170423 0.57142857
-1.20471857 -0.33148335 -0.64285714
-1.12960813 -0.33148335 -0.71428571
-1.12960813 -0.40659379 -0.64285714
-1.20471857 -0.33148335 0.50000000
-1.12960813 -0.33148335 0.57142857
-1.20471857 -0.18126246 -0.64285714
-1.12960813 -0.18126246 -0.71428571
-1.20471857 -0.18126246 0.50000000
-1.12960813 -0.18126246 0.57142857
-1.20471857 -0.03104158 -0.64285714
-1.12960813 -0.03104158 -0.71428571
-1.20471857 -0.03104158 0.50000000
-1.12960813 -0.10615202 0.64285714
-1.20471857 -0.03104158 0.64285714
-1.12960813 -0.03104158 0.71428571
-1.12960813 0.11917931 -0.71428571
-1.20471857 0.11917931 0.64285714
-1.12960813 0.11917931 0.71428571
-1.20471857 0.26940019 -0.64285714
-1.12960813 0.26940019 -0.71428571
-1.20471857 0.26940019 -0.50000000
-1.20471857 0.26940019 0.50000000
-1.20471857 0.26940019 0.64285714
-1.12960813 0.26940019 0.71428571
-1.12960813 0.34451063 -0.64285714
-1.20471857 0.41962108 -0.50000000
-1.12960813 0.41962108 -0.57142857
-1.20471857 0.41962108 -0.35714286
-1.20471857 0.41962108 0.35714286
-1.20471857 0.41962108 0.50000000
-1.12960813 0.41962108 0.57142857
-1.12960813 0.34451063 0.64285714
-1.20471857 0.56984196 -0.50000000
-1.12960813 0.56984196 -0.57142857
-1.20471857 0.56984196 -0.35714286
-1.20471857 0.56984196 -0.21428571
-1.20471857 0.56984196 -0.07142857
-1.20471857 0.56984196 0.07142857
-1.20471857 0.56984196 0.21428571
-1.20471857 0.56984196 0.35714286
-1.12960813 0.56984196 0.42857143
-1.12960813 0.49473152 0.50000000
-1.12960813 0.64495240 -0.50000000
-1.12960813 0.64495240 -0.35714286
-1.20471857 0.72006284 -0.21428571
-1.12960813 0.72006284 -0.28571429
-1.20471857 0.72006284 -0.07142857
-1.20471857 0.72006284 0.07142857
-1.20471857 0.72006284 0.21428571
-1.12960813 0.72006284 0.28571429
-1.12960813 0.64495240 0.35714286
-1.12960813 0.79517329 -0.21428571
-1.12960813 0.79517329 -0.07142857
-1.12960813 0.79517329 0.07142857
-1.12960813 0.79517329 0.21428571
-1.05449769 -0.78214600 -0.35714286
-0.97938724 -0.78214600 -0.42857143
-0.97938724 -0.85725644 -0.35714286
-0.97938724 -0.85725644 -0.21428571
-1.05449769 -0.78214600 -0.21428571
-0.97938724 -0.85725644 -0.07142857
-1.05449769 -0.78214600 -0.07142857
-0.97938724 -0.85725644 0.07142857
-1.05449769 -0.78214600 0.07142857
-0.97938724 -0.85725644 0.21428571
-1.05449769 -0.78214600 0.21428571
-0.97938724 -0.78214600 0.28571429
-1.05449769 -0.63192512 -0.64285714
-0.97938724 -0.63192512 -0.71428571
-0.97938724 -0.70703556 -0.64285714
-0.97938724 -0.70703556 -0.50000000
-1.05449769 -0.63192512 -0.50000000
-0.97938724 -0.70703556 0.35714286
-1.05449769 -0.63192512 0.35714286
-0.97938724 -0.70703556 0.50000000
-1.05449769 -0.63192512 0.50000000
-0.97938724 -0.70703556 0.64285714
-1.05449769 -0.63192512 0.64285714
-0.97938724 -0.63192512 0.71428571
-1.05449769 -0.48170423 -0.64285714
-0.97938724 -0.48170423 -0.71428571
-1.05449769 -0.48170423 0.64285714
-0.97938724 -0.48170423 0.71428571
-1.05449769 -0.33148335 -0.78571429
-0.97938724 -0.33148335 -0.85714286
-0.97938724 -0.40659379 -0.78571429
-1.05449769 -0.33148335 0.64285714
-0.97938724 -0.33148335 0.71428571
-1.05449769 -0.18126246 -0.78571429
-0.97938724 -0.18126246 -0.85714286
-1.05449769 -0.18126246 0.64285714
-0.97938724 -0.25637291 0.78571429
-1.05449769 -0.18126246 0.78571429
-0.97938724 -0.18126246 0.85714286
-1.05449769 -0.03104158 -0.78571429
-0.97938724 -0.03104158 -0.85714286
-1.05449769 -0.03104158 0.78571429
-0.97938724 -0.03104158 0.85714286
-1.05449769 0.11917931 -0.78571429
-0.97938724 0.11917931 -0.85714286
-1.05449769 0.11917931 0.78571429
-0.97938724 0.11917931 0.85714286
-1.05449769 0.26940019 -0.92857143
-0.97938724 0.26940019 -1.00000000
-0.97938724 0.19428975 -0.92857143
-1.05449769 0.26940019 -0.78571429
-1.05449769 0.26940019 0.78571429
-0.97938724 0.19428975 0.92857143
-1.05449769 0.26940019 0.92857143
-0.97938724 0.26940019 1.00000000
-0.97938724 0.34451063 -0.92857143
-1.05449769 0.41962108 -0.78571429
-0.97938724 0.41962108 -0.85714286
-1.05449769 0.41962108 -0.64285714
-1.05449769 0.41962108 0.64285714
-1.05449769 0.41962108 0.78571429
-0.97938724 0.41962108 0.85714286
-0.97938724 0.34451063 0.92857143
-1.05449769 0.56984196 -0.78571429
-0.97938724 0.56984196 -0.85714286
-1.05449769 0.56984196 -0.64285714
-1.05449769 0.56984196 0.50000000
-1.05449769 0.56984196 0.64285714
-0.97938724 0.56984196 0.71428571
-0.97938724 0.49473152 0.78571429
-0.97938724 0.64495240 -0.78571429
-1.05449769 0.72006284 -0.64285714
-0.97938724 0.72006284 -0.71428571
-1.05449769 0.72006284 -0.50000000
-1.05449769 0.72006284 -0.35714286
-1.05449769 0.72006284 0.35714286
-1.05449769 0.72006284 0.50000000
-0.97938724 0.72006284 0.57142857
-0.97938724 0.64495240 0.64285714
-0.97938724 0.79517329 -0.64285714
-0.97938724 0.79517329 -0.50000000
-0.97938724 0.79517329 -0.35714286
-1.05449769 0.87028373 -0.21428571
-0.97938724 0.87028373 -0.28571429
-1.05449769 0.87028373 -0.07142857
-1.05449769 0.87028373 0.07142857
-0.97938724 0.87028373 0.14285714
-0.97938724 0.79517329 0.21428571
-0.97938724 0.79517329 0.35714286
-0.97938724 0.79517329 0.50000000
-0.97938724 0.94539417 -0.21428571
-0.97938724 0.94539417 -0.07142857
-0.97938724 0.94539417 0.07142857
-0.90427680 -0.93236689 -0.35714286
-0.82916636 -0.93236689 -0.42857143
-0.82916636 -1.00747733 -0.35714286
-0.82916636 -1.00747733 -0.21428571
-0.90427680 -0.93236689 -0.21428571
-0.82916636 -1.00747733 -0.07142857
-0.90427680 -0.93236689 -0.07142857
-0.82916636 -1.00747733 0.07142857
-0.90427680 -0.93236689 0.07142857
-0.82916636 -1.00747733 0.21428571
-0.90427680 -0.93236689 0.21428571
-0.82916636 -0.93236689 0.28571429
-0.90427680 -0.78214600 -0.64285714
-0.82916636 -0.78214600 -0.71428571
-0.82916636 -0.85725644 -0.64285714
-0.82916636 -0.85725644 -0.50000000
-0.90427680 -0.78214600 -0.50000000
-0.82916636 -0.85725644 0.35714286
-0.90427680 -0.78214600 0.35714286
-0.82916636 -0.85725644 0.50000000
-0.90427680 -0.78214600 0.50000000
-0.82916636 -0.85725644 0.64285714
-0.90427680 -0.78214600 0.64285714
-0.82916636 -0.78214600 0.71428571
-0.90427680 -0.63192512 -0.78571429
-0.82916636 -0.63192512 -0.85714286
-0.82916636 -0.70703556 -0.78571429
-0.82916636 -0.70703556 0.78571429
-0.90427680 -0.63192512 0.78571429
-0.82916636 -0.63192512 0.85714286
-0.90427680 -0.48170423 -0.92857143
-0.82916636 -0.48170423 -1.00000000
-0.82916636 -0.55681467 -0.92857143
-0.90427680 -0.48170423 -0.78571429
-0.90427680 -0.48170423 0.78571429
-0.82916636 -0.48170423 0.85714286
-0.90427680 -0.33148335 -0.92857143
-0.82916636 -0.33148335 -1.00000000
-0.90427680 -0.33148335 0.78571429
-0.82916636 -0.33148335 0.85714286
-0.90427680 -0.18126246 -0.92857143
-0.82916636 -0.18126246 -1.00000000
-0.82916636 -0.25637291 0.92857143
-0.90427680 -0.18126246 0.92857143
-0.82916636 -0.18126246 1.00000000
-0.90427680 -0.03104158 -0.92857143
-0.82916636 -0.03104158 -1.00000000
-0.90427680 -0.03104158 0.92857143
-0.82916636 -0.03104158 1.00000000
-0.90427680 0.11917931 -0.92857143
-0.82916636 0.11917931 -1.00000000
-0.90427680 0.11917931 0.92857143
-0.82916636 0.11917931 1.00000000
-0.82916636 0.26940019 -1.00000000
-0.82916636 0.26940019 1.00000000
-0.90427680 0.41962108 -0.92857143
-0.82916636 0.41962108 -1.00000000
-0.90427680 0.41962108 0.92857143
-0.82916636 0.41962108 1.00000000
-0.90427680 0.56984196 -0.92857143
-0.82916636 0.56984196 -1.00000000
-0.90427680 0.56984196 0.78571429
-0.90427680 0.56984196 0.92857143
-0.82916636 0.56984196 1.00000000
-0.82916636 0.64495240 -0.92857143
-0.90427680 0.72006284 -0.78571429
-0.82916636 0.72006284 -0.85714286
-0.90427680 0.72006284 0.64285714
-0.82916636 0.72006284 0.71428571
-0.82916636 0.64495240 0.78571429
-0.82916636 0.64495240 0.92857143
-0.82916636 0.79517329 -0.78571429
-0.90427680 0.87028373 -0.64285714
-0.82916636 0.87028373 -0.71428571
-0.90427680 0.87028373 -0.50000000
-0.90427680 0.87028373 -0.35714286
-0.90427680 0.87028373 0.21428571
-0.90427680 0.87028373 0.35714286
-0.90427680 0.87028373 0.50000000
-0.82916636 0.87028373 0.57142857
-0.82916636 0.79517329 0.64285714
-0.82916636 0.94539417 -0.64285714
-0.82916636 0.94539417 -0.50000000
-0.82916636 0.94539417 -0.35714286
-0.90427680 1.02050461 -0.21428571
-0.82916636 1.02050461 -0.28571429
-0.90427680 1.02050461 -0.07142857
-0.90427680 1.02050461 0.07142857
-0.82916636 1.02050461 0.14285714
-0.82916636 0.94539417 0.21428571
-0.82916636 0.94539417 0.35714286
-0.82916636 0.94539417 0.50000000
-0.82916636 1.09561506 -0.21428571
-0.82916636 1.09561506 -0.07142857
-0.82916636 1.09561506 0.07142857
-0.75405592 -1.08258777 -0.21428571
-0.67894548 -1.08258777 -0.28571429
-0.67894548 -1.15769821 -0.21428571
-0.67894548 -1.15769821 -0.07142857
-0.75405592 -1.08258777 -0.07142857
-0.67894548 -1.15769821 0.07142857
-0.75405592 -1.08258777 0.07142857
-0.67894548 -1.15769821 0.21428571
-0.75405592 -1.08258777 0.21428571
-0.67894548 -1.08258777 0.28571429
-0.75405592 -0.93236689 -0.64285714
-0.67894548 -0.93236689 -0.71428571
-0.67894548 -1.00747733 -0.64285714
-0.67894548 -1.00747733 -0.50000000
-0.75405592 -0.93236689 -0.50000000
-0.67894548 -1.00747733 -0.35714286
-0.67894548 -1.00747733 0.35714286
-0.75405592 -0.93236689 0.35714286
-0.67894548 -1.00747733 0.50000000
-0.75405592 -0.93236689 0.50000000
-0.67894548 -1.00747733 0.64285714
-0.75405592 -0.93236689 0.64285714
-0.67894548 -0.93236689 0.71428571
-0.75405592 -0.78214600 -0.78571429
-0.67894548 -0.78214600 -0.85714286
-0.67894548 -0.85725644 -0.78571429
-0.67894548 -0.85725644 0.78571429
-0.75405592 -0.78214600 0.78571429
-0.67894548 -0.78214600 0.85714286
-0.67894548 -0.63192512 -0.85714286
-0.67894548 -0.63192512 0.85714286
-0.67894548 -0.48170423 -1.00000000
-0.67894548 -0.55681467 -0.92857143
-0.67894548 -0.55681467 0.92857143
-0.75405592 -0.48170423 0.92857143
-0.67894548 -0.48170423 1.00000000
-0.67894548 -0.33148335 -1.00000000
-0.75405592 -0.33148335 0.92857143
-0.67894548 -0.33148335 1.00000000
-0.67894548 -0.18126246 -1.00000000
-0.67894548 -0.18126246 1.00000000
-0.67894548 -0.03104158 -1.00000000
-0.67894548 -0.03104158 1.00000000
-0.67894548 0.11917931 -1.00000000
-0.67894548 0.11917931 1.00000000
-0.67894548 0.26940019 -1.00000000
-0.67894548 0.26940019 1.00000000
-0.67894548 0.41962108 -1.00000000
-0.67894548 0.41962108 1.00000000
-0.67894548 0.56984196 -1.00000000
-0.67894548 0.56984196 1.00000000
-0.75405592 0.72006284 -0.92857143
-0.67894548 0.72006284 -1.00000000
-0.75405592 0.72006284 0.78571429
-0.75405592 0.72006284 0.92857143
-0.67894548 0.72006284 1.00000000
-0.67894548 0.79517329 -0.92857143
-0.75405592 0.87028373 -0.78571429
-0.67894548 0.87028373 -0.85714286
-0.75405592 0.87028373 0.64285714
-0.67894548 0.87028373 0.71428571
-0.67894548 0.79517329 0.78571429
-0.67894548 0.79517329 0.92857143
-0.67894548 0.94539417 -0.78571429
-0.75405592 1.02050461 -0.64285714
-0.67894548 1.02050461 -0.71428571
-0.75405592 1.02050461 -0.50000000
-0.75405592 1.02050461 -0.35714286
-0.75405592 1.02050461 0.21428571
-0.75405592 1.02050461 0.35714286
-0.75405592 1.02050461 0.50000000
-0.67894548 1.02050461 0.57142857
-0.67894548 0.94539417 0.64285714
-0.67894548 1.09561506 -0.64285714
-0.67894548 1.09561506 -0.50000000
-0.67894548 1.09561506 -0.35714286
-0.75405592 1.17072550 -0.21428571
-0.67894548 1.17072550 -0.28571429
-0.75405592 1.17072550 -0.07142857
-0.75405592 1.17072550 0.07142857
-0.67894548 1.17072550 0.14285714
-0.67894548 1.09561506 0.21428571
-0.67894548 1.09561506 0.35714286
-0.67894548 1.09561506 0.50000000
-0.67894548 1.24583594 -0.21428571
-0.67894548 1.24583594 -0.07142857
-0.67894548 1.24583594 0.07142857
-0.60383503 -1.08258777 -0.50000000
-0.52872459 -1.08258777 -0.57142857
-0.52872459 -1.15769821 -0.50000000
-0.52872459 -1.15769821 -0.35714286
-0.60383503 -1.08258777 -0.35714286
-0.52872459 -1.15769821 -0.21428571
-0.52872459 -1.15769821 -0.07142857
-0.52872459 -1.15769821 0.07142857
-0.52872459 -1.15769821 0.21428571
-0.52872459 -1.15769821 0.35714286
-0.60383503 -1.08258777 0.35714286
-0.52872459 -1.15769821 0.50000000
-0.60383503 -1.08258777 0.50000000
-0.52872459 -1.08258777 0.57142857
-0.52872459 -0.93236689 -0.71428571
-0.52872459 -1.00747733 -0.64285714
-0.52872459 -1.00747733 0.64285714
-0.52872459 -0.93236689 0.71428571
-0.52872459 -0.78214600 -0.85714286
-0.52872459 -0.85725644 -0.78571429
-0.52872459 -0.85725644 0.78571429
-0.52872459 -0.78214600 0.85714286
-0.60383503 -0.63192512 -0.92857143
-0.52872459 -0.63192512 -1.00000000
-0.52872459 -0.70703556 -0.92857143
-0.52872459 -0.70703556 0.92857143
-0.60383503 -0.63192512 0.92857143
-0.52872459 -0.63192512 1.00000000
-0.52872459 -0.48170423 -1.00000000
-0.52872459 -0.48170423 1.00000000
-0.52872459 -0.33148335 -1.00000000
-0.52872459 -0.33148335 1.00000000
-0.52872459 -0.18126246 -1.00000000
-0.52872459 -0.18126246 1.00000000
-0.52872459 -0.03104158 -1.00000000
-0.52872459 -0.03104158 1.00000000
-0.52872459 0.11917931 -1.00000000
-0.52872459 0.11917931 1.00000000
-0.52872459 0.26940019 -1.00000000
-0.52872459 0.26940019 1.00000000
-0.52872459 0.41962108 -1.00000000
-0.52872459 0.41962108 1.00000000
-0.52872459 0.56984196 -1.00000000
-0.52872459 0.56984196 1.00000000
-0.52872459 0.72006284 -1.00000000
-0.52872459 0.72006284 1.00000000
-0.60383503 0.87028373 -0.92857143
-0.52872459 0.87028373 -1.00000000
-0.60383503 0.87028373 0.78571429
-0.52872459 0.87028373 0.85714286
-0.52872459 0.79517329 0.92857143
-0.52872459 0.94539417 -0.92857143
-0.60383503 1.02050461 -0.78571429
-0.52872459 1.02050461 -0.85714286
-0.60383503 1.02050461 0.64285714
-0.52872459 1.02050461 0.71428571
-0.52872459 0.94539417 0.78571429
-0.52872459 1.09561506 -0.78571429
-0.52872459 1.09561506 -0.64285714
-0.60383503 1.17072550 -0.50000000
-0.52872459 1.17072550 -0.57142857
-0.60383503 1.17072550 -0.35714286
-0.60383503 1.17072550 0.21428571
-0.60383503 1.17072550 0.35714286
-0.52872459 1.17072550 0.42857143
-0.52872459 1.09561506 0.50000000
-0.52872459 1.09561506 0.64285714
-0.52872459 1.24583594 -0.50000000
-0.52872459 1.24583594 -0.35714286
-0.52872459 1.24583594 -0.21428571
-0.52872459 1.24583594 -0.07142857
-0.52872459 1.24583594 0.07142857
-0.52872459 1.24583594 0.21428571
-0.52872459 1.24583594 0.35714286
-0.45361415 -1.23280866 -0.35714286
-0.37850371 -1.23280866 -0.42857143
-0.37850371 -1.30791910 -0.35714286
-0.37850371 -1.30791910 -0.21428571
-0.45361415 -1.23280866 -0.21428571
-0.37850371 -1.30791910 -0.07142857
-0.45361415 -1.23280866 -0.07142857
-0.37850371 -1.30791910 0.07142857
-0.45361415 -1.23280866 0.07142857
-0.37850371 -1.30791910 0.21428571
-0.45361415 -1.23280866 0.21428571
-0.37850371 -1.30791910 0.35714286
-0.45361415 -1.23280866 0.35714286
-0.37850371 -1.23280866 0.42857143
-0.37850371 -1.08258777 -0.57142857
-0.37850371 -1.15769821 -0.50000000
-0.37850371 -1.15769821 0.50000000
-0.37850371 -1.08258777 0.57142857
-0.45361415 -0.93236689 -0.78571429
-0.37850371 -0.93236689 -0.85714286
-0.37850371 -1.00747733 -0.78571429
-0.37850371 -1.00747733 -0.64285714
-0.37850371 -1.00747733 0.64285714
-0.37850371 -1.00747733 0.78571429
-0.45361415 -0.93236689 0.78571429
-0.37850371 -0.93236689 0.85714286
-0.45361415 -0.78214600 -0.92857143
-0.37850371 -0.78214600 -1.00000000
-0.37850371 -0.85725644 -0.92857143
-0.37850371 -0.78214600 0.85714286
-0.37850371 -0.63192512 -1.00000000
-0.37850371 -0.70703556 0.92857143
-0.37850371 -0.63192512 1.00000000
-0.37850371 -0.48170423 -1.00000000
-0.37850371 -0.48170423 1.00000000
-0.37850371 -0.33148335 -1.00000000
-0.37850371 -0.33148335 1.00000000
-0.37850371 -0.18126246 -1.00000000
-0.37850371 -0.18126246 1.00000000
-0.37850371 -0.03104158 -1.00000000
-0.37850371 -0.03104158 1.00000000
-0.37850371 0.11917931 -1.00000000
-0.37850371 0.11917931 1.00000000
-0.37850371 0.26940019 -1.00000000
-0.37850371 0.26940019 1.00000000
-0.37850371 0.41962108 -1.00000000
-0.37850371 0.41962108 1.00000000
-0.37850371 0.56984196 -1.00000000
-0.37850371 0.56984196 1.00000000
-0.37850371 0.72006284 -1.00000000
-0.37850371 0.72006284 1.00000000
-0.37850371 0.87028373 -1.00000000
-0.45361415 0.87028373 0.92857143
-0.37850371 0.87028373 1.00000000
-0.37850371 0.94539417 -0.92857143
-0.37850371 1.02050461 -0.85714286
-0.45361415 1.02050461 0.78571429
-0.37850371 1.02050461 0.85714286
-0.37850371 0.94539417 0.92857143
-0.37850371 1.09561506 -0.78571429
-0.45361415 1.17072550 -0.64285714
-0.37850371 1.17072550 -0.71428571
-0.45361415 1.17072550 0.50000000
-0.37850371 1.17072550 0.57142857
-0.37850371 1.09561506 0.64285714
-0.37850371 1.09561506 0.78571429
-0.37850371 1.24583594 -0.64285714
-0.37850371 1.24583594 -0.50000000
-0.45361415 1.32094638 -0.35714286
-0.37850371 1.32094638 -0.42857143
-0.45361415 1.32094638 -0.21428571
-0.45361415 1.32094638 -0.07142857
-0.45361415 1.32094638 0.07142857
-0.45361415 1.32094638 0.21428571
-0.45361415 1.32094638 0.35714286
-0.37850371 1.32094638 0.42857143
-0.37850371 1.24583594 0.50000000
-0.37850371 1.39605683 -0.35714286
-0.37850371 1.39605683 -0.21428571
-0.37850371 1.39605683 -0.07142857
-0.37850371 1.39605683 0.07142857
-0.37850371 1.39605683 0.21428571
-0.37850371 1.39605683 0.35714286
-0.30339326 -1.23280866 -0.50000000
-0.22828282 -1.23280866 -0.57142857
-0.22828282 -1.30791910 -0.50000000
-0.22828282 -1.30791910 -0.35714286
-0.22828282 -1.30791910 -0.21428571
-0.22828282 -1.30791910 -0.07142857
-0.22828282 -1.30791910 0.07142857
-0.22828282 -1.30791910 0.21428571
-0.22828282 -1.30791910 0.35714286
-0.22828282 -1.30791910 0.50000000
-0.30339326 -1.23280866 0.50000000
-0.22828282 -1.23280866 0.57142857
-0.30339326 -1.08258777 -0.64285714
-0.22828282 -1.08258777 -0.71428571
-0.22828282 -1.15769821 -0.64285714
-0.22828282 -1.15769821 0.64285714
-0.30339326 -1.08258777 0.64285714
-0.22828282 -1.08258777 0.71428571
-0.22828282 -0.93236689 -0.85714286
-0.22828282 -1.00747733 -0.78571429
-0.22828282 -1.00747733 0.78571429
-0.22828282 -0.93236689 0.85714286
-0.22828282 -0.78214600 -1.00000000
-0.22828282 -0.85725644 -0.92857143
-0.22828282 -0.78214600 0.85714286
-0.22828282 -0.63192512 -1.00000000
-0.22828282 -0.70703556 0.92857143
-0.22828282 -0.63192512 1.00000000
-0.22828282 -0.48170423 -1.00000000
-0.22828282 -0.48170423 1.00000000
-0.22828282 -0.33148335 -1.00000000
-0.22828282 -0.33148335 1.00000000
-0.22828282 -0.18126246 -1.00000000
-0.22828282 -0.18126246 1.00000000
-0.22828282 -0.03104158 -1.00000000
-0.22828282 -0.03104158 1.00000000
-0.22828282 0.11917931 -1.00000000
-0.22828282 0.11917931 1.00000000
-0.22828282 0.26940019 -1.00000000
-0.22828282 0.26940019 1.00000000
-0.22828282 0.41962108 -1.00000000
-0.22828282 0.41962108 1.00000000
-0.22828282 0.56984196 -1.00000000
-0.22828282 0.56984196 1.00000000
-0.22828282 0.72006284 -1.00000000
-0.22828282 0.72006284 1.00000000
-0.22828282 0.87028373 -1.00000000
-0.22828282 0.87028373 1.00000000
-0.30339326 1.02050461 -0.92857143
-0.22828282 1.02050461 -1.00000000
-0.22828282 0.94539417 0.92857143
-0.22828282 1.02050461 0.85714286
-0.22828282 1.09561506 -0.92857143
-0.22828282 1.09561506 -0.78571429
-0.22828282 1.17072550 -0.71428571
-0.22828282 1.09561506 0.64285714
-0.22828282 1.17072550 0.57142857
-0.22828282 1.09561506 0.78571429
-0.22828282 1.24583594 -0.64285714
-0.30339326 1.32094638 -0.50000000
-0.22828282 1.32094638 -0.57142857
-0.22828282 1.24583594 0.50000000
-0.22828282 1.32094638 0.42857143
-0.22828282 1.39605683 -0.50000000
-0.22828282 1.39605683 -0.35714286
-0.22828282 1.39605683 -0.21428571
-0.22828282 1.39605683 -0.07142857
-0.22828282 1.39605683 0.07142857
-0.22828282 1.39605683 0.21428571
-0.22828282 1.39605683 0.35714286
-0.15317238 -1.23280866 -0.64285714
-0.07806194 -1.23280866 -0.71428571
-0.07806194 -1.30791910 -0.64285714
-0.07806194 -1.30791910 -0.50000000
-0.07806194 -1.30791910 -0.35714286
-0.07806194 -1.30791910 -0.21428571
-0.07806194 -1.30791910 -0.07142857
-0.07806194 -1.30791910 0.07142857
-0.07806194 -1.30791910 0.21428571
-0.07806194 -1.30791910 0.35714286
-0.07806194 -1.30791910 0.50000000
-0.07806194 -1.30791910 0.64285714
-0.15317238 -1.23280866 0.64285714
-0.07806194 -1.30791910 0.78571429
-0.15317238 -1.23280866 0.78571429
-0.07806194 -1.30791910 0.92857143
-0.15317238 -1.23280866 0.92857143
-0.07806194 -1.23280866 1.00000000
-0.07806194 -1.08258777 -0.71428571
-0.15317238 -1.08258777 0.78571429
-0.15317238 -1.08258777 0.92857143
-0.07806194 -1.08258777 1.00000000
-0.07806194 -0.93236689 -0.85714286
-0.07806194 -1.00747733 -0.78571429
-0.15317238 -0.93236689 0.92857143
-0.07806194 -0.93236689 1.00000000
-0.07806194 -0.78214600 -1.00000000
-0.07806194 -0.85725644 -0.92857143
-0.15317238 -0.78214600 0.92857143
-0.07806194 -0.78214600 1.00000000
-0.07806194 -0.63192512 -1.00000000
-0.07806194 -0.63192512 1.00000000
-0.07806194 -0.48170423 -1.00000000
-0.07806194 -0.48170423 1.00000000
-0.07806194 -0.33148335 -1.00000000
-0.07806194 -0.33148335 1.00000000
-0.07806194 -0.18126246 -1.00000000
-0.07806194 -0.18126246 1.00000000
-0.07806194 -0.03104158 -1.00000000
-0.07806194 -0.03104158 1.00000000
-0.07806194 0.11917931 -1.00000000
-0.07806194 0.11917931 1.00000000
-0.07806194 0.26940019 -1.00000000
-0.07806194 0.26940019 1.00000000
-0.07806194 0.41962108 -1.00000000
-0.07806194 0.41962108 1.00000000
-0.07806194 0.56984196 -1.00000000
-0.07806194 0.56984196 1.00000000
-0.07806194 0.72006284 -1.00000000
-0.07806194 0.72006284 1.00000000
-0.07806194 0.87028373 -1.00000000
-0.07806194 0.87028373 1.00000000
-0.07806194 1.02050461 -1.00000000
-0.15317238 1.02050461 0.92857143
-0.07806194 1.02050461 1.00000000
-0.07806194 1.09561506 -0.92857143
-0.15317238 1.17072550 -0.78571429
-0.07806194 1.17072550 -0.85714286
-0.15317238 1.17072550 0.64285714
-0.07806194 1.17072550 0.71428571
-0.07806194 1.09561506 0.78571429
-0.07806194 1.09561506 0.92857143
-0.07806194 1.24583594 -0.78571429
-0.07806194 1.24583594 -0.64285714
-0.07806194 1.32094638 -0.57142857
-0.07806194 1.24583594 0.50000000
-0.07806194 1.32094638 0.42857143
-0.07806194 1.24583594 0.64285714
-0.07806194 1.39605683 -0.50000000
-0.07806194 1.39605683 -0.35714286
-0.07806194 1.39605683 -0.21428571
-0.07806194 1.39605683 -0.07142857
-0.07806194 1.39605683 0.07142857
-0.07806194 1.39605683 0.21428571
-0.07806194 1.39605683 0.35714286
-0.00295149 -1.38302954 -0.35714286
0.07215895 -1.38302954 -0.42857143
0.07215895 -1.45813998 -0.35714286
0.07215895 -1.45813998 -0.21428571
-0.00295149 -1.38302954 -0.21428571
0.07215895 -1.45813998 -0.07142857
-0.00295149 -1.38302954 -0.07142857
0.07215895 -1.45813998 0.07142857
-0.00295149 -1.38302954 0.07142857
0.07215895 -1.45813998 0.21428571
-0.00295149 -1.38302954 0.21428571
0.07215895 -1.45813998 0.35714286
-0.00295149 -1.38302954 0.35714286
0.07215895 -1.45813998 0.50000000
-0.00295149 -1.38302954 0.50000000
0.07215895 -1.45813998 0.64285714
-0.00295149 -1.38302954 0.64285714
0.07215895 -1.45813998 0.78571429
-0.00295149 -1.38302954 0.78571429
0.07215895 -1.45813998 0.92857143
-0.00295149 -1.38302954 0.92857143
0.07215895 -1.38302954 1.00000000
0.07215895 -1.23280866 -0.71428571
0.07215895 -1.30791910 -0.64285714
0.07215895 -1.30791910 -0.50000000
0.07215895 -1.23280866 1.00000000
0.07215895 -1.08258777 -0.71428571
0.07215895 -1.08258777 1.00000000
0.07215895 -0.93236689 -0.85714286
0.07215895 -1.00747733 -0.78571429
0.07215895 -0.93236689 1.00000000
0.07215895 -0.78214600 -1.00000000
0.07215895 -0.85725644 -0.92857143
0.07215895 -0.78214600 1.00000000
0.07215895 -0.63192512 -1.00000000
0.07215895 -0.63192512 1.00000000
0.07215895 -0.48170423 -1.00000000
0.07215895 -0.48170423 1.00000000
0.07215895 -0.33148335 -1.00000000
0.07215895 -0.33148335 1.00000000
0.07215895 -0.18126246 -1.00000000
0.07215895 -0.18126246 1.00000000
0.07215895 -0.03104158 -1.00000000
0.07215895 -0.03104158 1.00000000
0.07215895 0.11917931 -1.00000000
0.07215895 0.11917931 1.00000000
0.07215895 0.26940019 -1.00000000
0.07215895 0.26940019 1.00000000
0.07215895 0.41962108 -1.00000000
0.07215895 0.41962108 1.00000000
0.07215895 0.56984196 -1.00000000
0.07215895 0.56984196 1.00000000
0.07215895 0.72006284 -1.00000000
0.07215895 0.72006284 1.00000000
0.07215895 0.87028373 -1.00000000
0.07215895 0.87028373 1.00000000
0.07215895 1.02050461 -1.00000000
0.07215895 1.02050461 1.00000000
0.07215895 1.09561506 -0.92857143
0.07215895 1.17072550 -0.85714286
0.07215895 1.09561506 0.78571429
0.07215895 1.17072550 0.71428571
0.07215895 1.09561506 0.92857143
0.07215895 1.24583594 -0.78571429
0.07215895 1.24583594 -0.64285714
0.07215895 1.32094638 -0.57142857
0.07215895 1.24583594 0.50000000
0.07215895 1.32094638 0.42857143
0.07215895 1.24583594 0.64285714
0.07215895 1.39605683 -0.50000000
0.07215895 1.39605683 -0.35714286
0.07215895 1.39605683 -0.21428571
0.07215895 1.39605683 -0.07142857
0.07215895 1.39605683 0.07142857
0.07215895 1.39605683 0.21428571
0.07215895 1.39605683 0.35714286
0.22237983 -1.38302954 -0.42857143
0.22237983 -1.45813998 -0.35714286
0.22237983 -1.45813998 -0.21428571
0.22237983 -1.45813998 -0.07142857
0.22237983 -1.45813998 0.07142857
0.22237983 -1.45813998 0.21428571
0.22237983 -1.45813998 0.35714286
0.14726939 -1.38302954 0.50000000
0.22237983 -1.38302954 0.42857143
0.14726939 -1.38302954 0.64285714
0.14726939 -1.38302954 0.78571429
0.14726939 -1.38302954 0.92857143
0.22237983 -1.23280866 -0.71428571
0.22237983 -1.30791910 -0.64285714
0.22237983 -1.30791910 -0.50000000
0.22237983 -1.30791910 0.50000000
0.22237983 -1.30791910 0.64285714
0.22237983 -1.30791910 0.78571429
0.22237983 -1.30791910 0.92857143
0.22237983 -1.23280866 1.00000000
0.22237983 -1.08258777 -0.71428571
0.22237983 -1.08258777 1.00000000
0.22237983 -0.93236689 -0.85714286
0.22237983 -1.00747733 -0.78571429
0.22237983 -0.93236689 1.00000000
0.14726939 -0.78214600 -0.92857143
0.22237983 -0.78214600 -0.85714286
0.22237983 -0.78214600 1.00000000
0.22237983 -0.63192512 -1.00000000
0.22237983 -0.70703556 -0.92857143
0.22237983 -0.63192512 1.00000000
0.22237983 -0.48170423 -1.00000000
0.22237983 -0.48170423 1.00000000
0.22237983 -0.33148335 -1.00000000
0.22237983 -0.33148335 1.00000000
0.22237983 -0.18126246 -1.00000000
0.22237983 -0.18126246 1.00000000
0.22237983 -0.03104158 -1.00000000
0.22237983 -0.03104158 1.00000000
0.22237983 0.11917931 -1.00000000
0.22237983 0.11917931 1.00000000
0.22237983 0.26940019 -1.00000000
0.22237983 0.26940019 1.00000000
0.22237983 0.41962108 -1.00000000
0.22237983 0.41962108 1.00000000
0.22237983 0.56984196 -1.00000000
0.22237983 0.56984196 1.00000000
0.22237983 0.72006284 -1.00000000
0.22237983 0.72006284 1.00000000
0.22237983 0.87028373 -1.00000000
0.22237983 0.87028373 1.00000000
0.22237983 0.94539417 -0.92857143
0.14726939 1.02050461 -0.92857143
0.22237983 1.02050461 -0.85714286
0.14726939 1.02050461 0.92857143
0.22237983 0.94539417 0.92857143
0.22237983 1.02050461 0.85714286
0.14726939 1.17072550 -0.78571429
0.22237983 1.09561506 -0.78571429
0.22237983 1.17072550 -0.71428571
0.22237983 1.09561506 0.78571429
0.22237983 1.17072550 0.71428571
0.22237983 1.24583594 -0.64285714
0.14726939 1.32094638 -0.50000000
0.22237983 1.24583594 -0.50000000
0.22237983 1.32094638 -0.42857143
0.22237983 1.24583594 0.50000000
0.22237983 1.32094638 0.42857143
0.22237983 1.24583594 0.64285714
0.22237983 1.39605683 -0.35714286
0.22237983 1.39605683 -0.21428571
0.22237983 1.39605683 -0.07142857
0.22237983 1.39605683 0.07142857
0.22237983 1.39605683 0.21428571
0.22237983 1.39605683 0.35714286
0.29749028 -1.38302954 -0.35714286
0.29749028 -1.38302954 -0.21428571
0.29749028 -1.38302954 -0.07142857
0.29749028 -1.38302954 0.07142857
0.29749028 -1.38302954 0.21428571
0.29749028 -1.38302954 0.35714286
0.29749028 -1.23280866 -0.64285714
0.37260072 -1.23280866 -0.57142857
0.37260072 -1.30791910 -0.50000000
0.37260072 -1.30791910 -0.35714286
0.37260072 -1.30791910 -0.21428571
0.37260072 -1.30791910 -0.07142857
0.37260072 -1.30791910 0.07142857
0.37260072 -1.30791910 0.21428571
0.37260072 -1.30791910 0.35714286
0.37260072 -1.30791910 0.50000000
0.37260072 -1.30791910 0.64285714
0.37260072 -1.30791910 0.78571429
0.37260072 -1.30791910 0.92857143
0.37260072 -1.23280866 1.00000000
0.37260072 -1.08258777 -0.71428571
0.37260072 -1.15769821 -0.64285714
0.37260072 -1.08258777 1.00000000
0.37260072 -0.93236689 -0.85714286
0.37260072 -1.00747733 -0.78571429
0.37260072 -0.93236689 1.00000000
0.37260072 -0.78214600 -0.85714286
0.37260072 -0.78214600 1.00000000
0.37260072 -0.63192512 -1.00000000
0.37260072 -0.70703556 -0.92857143
0.37260072 -0.63192512 1.00000000
0.37260072 -0.48170423 -1.00000000
0.37260072 -0.48170423 1.00000000
0.37260072 -0.33148335 -1.00000000
0.37260072 -0.33148335 1.00000000
0.37260072 -0.18126246 -1.00000000
0.37260072 -0.18126246 1.00000000
0.37260072 -0.03104158 -1.00000000
0.37260072 -0.03104158 1.00000000
0.37260072 0.11917931 -1.00000000
0.37260072 0.11917931 1.00000000
0.37260072 0.26940019 -1.00000000
0.37260072 0.26940019 1.00000000
0.37260072 0.41962108 -1.00000000
0.37260072 0.41962108 1.00000000
0.37260072 0.56984196 -1.00000000
0.37260072 0.56984196 1.00000000
0.37260072 0.72006284 -1.00000000
0.37260072 0.72006284 1.00000000
0.37260072 0.79517329 -0.92857143
0.29749028 0.87028373 -0.92857143
0.37260072 0.87028373 -0.85714286
0.37260072 0.87028373 1.00000000
0.37260072 1.02050461 -0.85714286
0.37260072 0.94539417 0.92857143
0.37260072 1.02050461 0.85714286
0.37260072 1.09561506 -0.78571429
0.37260072 1.17072550 -0.71428571
0.29749028 1.17072550 0.64285714
0.37260072 1.09561506 0.64285714
0.37260072 1.17072550 0.57142857
0.37260072 1.09561506 0.78571429
0.37260072 1.24583594 -0.64285714
0.37260072 1.24583594 -0.50000000
0.29749028 1.32094638 -0.35714286
0.37260072 1.24583594 -0.35714286
0.37260072 1.32094638 -0.28571429
0.29749028 1.32094638 0.35714286
0.37260072 1.24583594 0.35714286
0.37260072 1.32094638 0.28571429
0.37260072 1.24583594 0.50000000
0.37260072 1.39605683 -0.21428571
0.37260072 1.39605683 -0.07142857
0.37260072 1.39605683 0.07142857
0.37260072 1.39605683 0.21428571
0.44771116 -1.23280866 -0.50000000
0.44771116 -1.23280866 -0.35714286
0.52282160 -1.23280866 -0.28571429
0.52282160 -1.30791910 -0.21428571
0.52282160 -1.30791910 -0.07142857
0.52282160 -1.30791910 0.07142857
0.44771116 -1.23280866 0.21428571
0.52282160 -1.23280866 0.14285714
0.44771116 -1.23280866 0.35714286
0.44771116 -1.23280866 0.50000000
0.44771116 -1.23280866 0.64285714
0.44771116 -1.23280866 0.78571429
0.44771116 -1.23280866 0.92857143
0.44771116 -1.08258777 -0.64285714
0.52282160 -1.08258777 -0.57142857
0.52282160 -1.15769821 -0.50000000
0.52282160 -1.15769821 -0.35714286
0.52282160 -1.15769821 0.21428571
0.52282160 -1.15769821 0.35714286
0.52282160 -1.15769821 0.50000000
0.52282160 -1.15769821 0.64285714
0.52282160 -1.15769821 0.78571429
0.52282160 -1.15769821 0.92857143
0.52282160 -1.08258777 1.00000000
0.44771116 -0.93236689 -0.78571429
0.52282160 -0.93236689 -0.71428571
0.52282160 -1.00747733 -0.64285714
0.52282160 -0.93236689 1.00000000
0.52282160 -0.78214600 -0.85714286
0.52282160 -0.85725644 -0.78571429
0.52282160 -0.78214600 1.00000000
0.44771116 -0.63192512 -0.92857143
0.52282160 -0.63192512 -0.85714286
0.52282160 -0.63192512 1.00000000
0.52282160 -0.48170423 -1.00000000
0.52282160 -0.55681467 -0.92857143
0.52282160 -0.48170423 1.00000000
0.52282160 -0.33148335 -1.00000000
0.52282160 -0.33148335 1.00000000
0.52282160 -0.18126246 -1.00000000
0.52282160 -0.18126246 1.00000000
0.52282160 -0.03104158 -1.00000000
0.52282160 -0.03104158 1.00000000
0.52282160 0.11917931 -1.00000000
0.52282160 0.11917931 1.00000000
0.52282160 0.26940019 -1.00000000
0.52282160 0.26940019 1.00000000
0.52282160 0.41962108 -1.00000000
0.52282160 0.41962108 1.00000000
0.52282160 0.56984196 -1.00000000
0.52282160 0.56984196 1.00000000
0.52282160 0.64495240 -0.92857143
0.44771116 0.72006284 -0.92857143
0.52282160 0.72006284 -0.85714286
0.52282160 0.72006284 1.00000000
0.52282160 0.87028373 -0.85714286
0.52282160 0.87028373 1.00000000
0.52282160 0.94539417 -0.78571429
0.44771116 1.02050461 -0.78571429
0.52282160 1.02050461 -0.71428571
0.44771116 1.02050461 0.78571429
0.52282160 0.94539417 0.78571429
0.52282160 1.02050461 0.71428571
0.52282160 0.94539417 0.92857143
0.44771116 1.17072550 -0.64285714
0.52282160 1.09561506 -0.64285714
0.44771116 1.17072550 -0.50000000
0.52282160 1.09561506 -0.50000000
0.52282160 1.17072550 -0.42857143
0.44771116 1.17072550 0.50000000
0.52282160 1.09561506 0.50000000
0.52282160 1.17072550 0.42857143
0.52282160 1.09561506 0.64285714
0.52282160 1.24583594 -0.35714286
0.44771116 1.32094638 -0.21428571
0.52282160 1.24583594 -0.21428571
0.44771116 1.32094638 -0.07142857
0.52282160 1.24583594 -0.07142857
0.44771116 1.32094638 0.07142857
0.52282160 1.24583594 0.07142857
0.44771116 1.32094638 0.21428571
0.52282160 1.24583594 0.21428571
0.52282160 1.24583594 0.35714286
0.59793204 -1.23280866 -0.21428571
0.59793204 -1.23280866 -0.07142857
0.59793204 -1.23280866 0.07142857
0.59793204 -1.08258777 -0.50000000
0.67304249 -1.08258777 -0.42857143
0.67304249 -1.15769821 -0.35714286
0.67304249 -1.15769821 -0.21428571
0.67304249 -1.15769821 -0.07142857
0.67304249 -1.15769821 0.07142857
0.67304249 -1.15769821 0.21428571
0.59793204 -1.08258777 0.35714286
0.67304249 -1.08258777 0.28571429
0.59793204 -1.08258777 0.50000000
0.59793204 -1.08258777 0.64285714
0.59793204 -1.08258777 0.78571429
0.59793204 -1.08258777 0.92857143
0.67304249 -0.93236689 -0.71428571
0.67304249 -1.00747733 -0.64285714
0.67304249 -1.00747733 -0.50000000
0.67304249 -1.00747733 0.35714286
0.67304249 -1.00747733 0.50000000
0.67304249 -1.00747733 0.64285714
0.67304249 -1.00747733 0.78571429
0.67304249 -0.93236689 0.85714286
0.59793204 -0.93236689 0.92857143
0.67304249 -0.78214600 -0.85714286
0.67304249 -0.85725644 -0.78571429
0.67304249 -0.85725644 0.92857143
0.67304249 -0.78214600 1.00000000
0.67304249 -0.63192512 -0.85714286
0.67304249 -0.63192512 1.00000000
0.59793204 -0.48170423 -0.92857143
0.67304249 -0.48170423 -0.85714286
0.67304249 -0.48170423 1.00000000
0.67304249 -0.33148335 -1.00000000
0.67304249 -0.40659379 -0.92857143
0.67304249 -0.33148335 1.00000000
0.67304249 -0.18126246 -1.00000000
0.67304249 -0.18126246 1.00000000
0.67304249 -0.03104158 -1.00000000
0.67304249 -0.03104158 1.00000000
0.67304249 0.11917931 -1.00000000
0.67304249 0.11917931 1.00000000
0.67304249 0.26940019 -1.00000000
0.67304249 0.26940019 1.00000000
0.67304249 0.41962108 -1.00000000
0.67304249 0.41962108 1.00000000
0.67304249 0.49473152 -0.92857143
0.59793204 0.56984196 -0.92857143
0.67304249 0.56984196 -0.85714286
0.67304249 0.56984196 1.00000000
0.67304249 0.72006284 -0.85714286
0.67304249 0.72006284 1.00000000
0.67304249 0.87028373 -0.85714286
0.59793204 0.87028373 0.92857143
0.67304249 0.79517329 0.92857143
0.67304249 0.87028373 0.85714286
0.67304249 0.94539417 -0.78571429
0.67304249 1.02050461 -0.71428571
0.59793204 1.02050461 0.64285714
0.67304249 0.94539417 0.64285714
0.67304249 1.02050461 0.57142857
0.67304249 0.94539417 0.78571429
0.67304249 1.09561506 -0.64285714
0.67304249 1.09561506 -0.50000000
0.59793204 1.17072550 -0.35714286
0.67304249 1.09561506 -0.35714286
0.59793204 1.17072550 -0.21428571
0.67304249 1.09561506 -0.21428571
0.59793204 1.17072550 -0.07142857
0.67304249 1.09561506 -0.07142857
0.59793204 1.17072550 0.07142857
0.67304249 1.09561506 0.07142857
0.59793204 1.17072550 0.21428571
0.67304249 1.09561506 0.21428571
0.59793204 1.17072550 0.35714286
0.67304249 1.09561506 0.35714286
0.67304249 1.09561506 0.50000000
0.74815293 -1.08258777 -0.35714286
0.74815293 -1.08258777 -0.21428571
0.74815293 -1.08258777 -0.07142857
0.74815293 -1.08258777 0.07142857
0.74815293 -1.08258777 0.21428571
0.74815293 -0.93236689 -0.64285714
0.74815293 -0.93236689 -0.50000000
0.82326337 -0.93236689 -0.42857143
0.82326337 -1.00747733 -0.35714286
0.82326337 -1.00747733 -0.21428571
0.82326337 -1.00747733 -0.07142857
0.82326337 -1.00747733 0.07142857
0.82326337 -0.93236689 0.14285714
0.74815293 -0.93236689 0.21428571
0.74815293 -0.93236689 0.35714286
0.74815293 -0.93236689 0.50000000
0.74815293 -0.93236689 0.64285714
0.74815293 -0.93236689 0.78571429
0.74815293 -0.78214600 -0.78571429
0.82326337 -0.78214600 -0.71428571
0.82326337 -0.85725644 -0.64285714
0.82326337 -0.85725644 -0.50000000
0.82326337 -0.85725644 0.21428571
0.82326337 -0.85725644 0.35714286
0.82326337 -0.85725644 0.50000000
0.82326337 -0.85725644 0.64285714
0.82326337 -0.85725644 0.78571429
0.82326337 -0.85725644 0.92857143
0.82326337 -0.78214600 1.00000000
0.82326337 -0.63192512 -0.85714286
0.82326337 -0.70703556 -0.78571429
0.82326337 -0.63192512 1.00000000
0.82326337 -0.48170423 -0.85714286
0.82326337 -0.48170423 1.00000000
0.74815293 -0.33148335 -0.92857143
0.82326337 -0.33148335 -0.85714286
0.82326337 -0.33148335 1.00000000
0.74815293 -0.18126246 -0.92857143
0.82326337 -0.18126246 -0.85714286
0.82326337 -0.18126246 1.00000000
0.74815293 -0.03104158 -0.92857143
0.82326337 -0.03104158 -0.85714286
0.82326337 -0.03104158 1.00000000
0.74815293 0.11917931 -0.92857143
0.82326337 0.11917931 -0.85714286
0.82326337 0.11917931 1.00000000
0.74815293 0.26940019 -0.92857143
0.82326337 0.26940019 -0.85714286
0.82326337 0.26940019 1.00000000
0.74815293 0.41962108 -0.92857143
0.82326337 0.41962108 -0.85714286
0.82326337 0.41962108 1.00000000
0.82326337 0.56984196 -0.85714286
0.74815293 0.56984196 0.92857143
0.82326337 0.49473152 0.92857143
0.82326337 0.56984196 0.85714286
0.82326337 0.72006284 -0.85714286
0.74815293 0.72006284 0.92857143
0.82326337 0.72006284 0.85714286
0.82326337 0.79517329 -0.78571429
0.74815293 0.87028373 -0.78571429
0.82326337 0.87028373 -0.71428571
0.74815293 0.87028373 0.78571429
0.82326337 0.79517329 0.78571429
0.82326337 0.87028373 0.71428571
0.74815293 1.02050461 -0.64285714
0.82326337 0.94539417 -0.64285714
0.74815293 1.02050461 -0.50000000
0.82326337 0.94539417 -0.50000000
0.74815293 1.02050461 -0.35714286
0.82326337 0.94539417 -0.35714286
0.74815293 1.02050461 -0.21428571
0.82326337 0.94539417 -0.21428571
0.74815293 1.02050461 -0.07142857
0.82326337 0.94539417 -0.07142857
0.74815293 1.02050461 0.07142857
0.82326337 0.94539417 0.07142857
0.74815293 1.02050461 0.21428571
0.82326337 0.94539417 0.21428571
0.74815293 1.02050461 0.35714286
0.82326337 0.94539417 0.35714286
0.74815293 1.02050461 0.50000000
0.82326337 0.94539417 0.50000000
0.82326337 0.94539417 0.64285714
0.89837381 -0.93236689 -0.35714286
0.89837381 -0.93236689 -0.21428571
0.89837381 -0.93236689 -0.07142857
0.89837381 -0.93236689 0.07142857
0.89837381 -0.78214600 -0.64285714
0.89837381 -0.78214600 -0.50000000
0.89837381 -0.78214600 -0.35714286
0.97348426 -0.78214600 -0.28571429
0.97348426 -0.85725644 -0.21428571
0.97348426 -0.78214600 -0.14285714
0.89837381 -0.78214600 -0.07142857
0.89837381 -0.78214600 0.07142857
0.89837381 -0.78214600 0.21428571
0.89837381 -0.78214600 0.35714286
0.89837381 -0.78214600 0.50000000
0.89837381 -0.78214600 0.64285714
0.89837381 -0.78214600 0.78571429
0.89837381 -0.78214600 0.92857143
0.89837381 -0.63192512 -0.78571429
0.97348426 -0.63192512 -0.71428571
0.97348426 -0.70703556 -0.64285714
0.97348426 -0.70703556 -0.50000000
0.97348426 -0.70703556 -0.35714286
0.97348426 -0.70703556 -0.07142857
0.97348426 -0.70703556 0.07142857
0.97348426 -0.70703556 0.21428571
0.97348426 -0.70703556 0.35714286
0.97348426 -0.70703556 0.50000000
0.97348426 -0.70703556 0.64285714
0.97348426 -0.70703556 0.78571429
0.97348426 -0.63192512 0.85714286
0.89837381 -0.63192512 0.92857143
0.89837381 -0.48170423 -0.78571429
0.97348426 -0.48170423 -0.71428571
0.89837381 -0.48170423 0.92857143
0.97348426 -0.48170423 0.85714286
0.89837381 -0.33148335 -0.78571429
0.97348426 -0.33148335 -0.71428571
0.89837381 -0.33148335 0.92857143
0.97348426 -0.33148335 0.85714286
0.97348426 -0.18126246 -0.85714286
0.97348426 -0.25637291 -0.78571429
0.89837381 -0.18126246 0.92857143
0.97348426 -0.18126246 0.85714286
0.97348426 -0.03104158 -0.85714286
0.97348426 -0.10615202 0.92857143
0.97348426 -0.03104158 1.00000000
0.97348426 0.11917931 -0.85714286
0.97348426 0.11917931 1.00000000
0.97348426 0.26940019 -0.85714286
0.97348426 0.26940019 1.00000000
0.97348426 0.41962108 -0.85714286
0.89837381 0.41962108 0.92857143
0.97348426 0.34451063 0.92857143
0.97348426 0.41962108 0.85714286
0.97348426 0.49473152 -0.78571429
0.89837381 0.56984196 -0.78571429
0.97348426 0.56984196 -0.71428571
0.89837381 0.56984196 0.78571429
0.97348426 0.49473152 0.78571429
0.97348426 0.56984196 0.71428571
0.89837381 0.72006284 -0.78571429
0.97348426 0.72006284 -0.71428571
0.89837381 0.72006284 0.78571429
0.97348426 0.72006284 0.71428571
0.89837381 0.87028373 -0.64285714
0.97348426 0.79517329 -0.64285714
0.89837381 0.87028373 -0.50000000
0.97348426 0.79517329 -0.50000000
0.89837381 0.87028373 -0.35714286
0.97348426 0.79517329 -0.35714286
0.89837381 0.87028373 -0.21428571
0.97348426 0.79517329 -0.21428571
0.89837381 0.87028373 -0.07142857
0.97348426 0.79517329 -0.07142857
0.89837381 0.87028373 0.07142857
0.97348426 0.79517329 0.07142857
0.89837381 0.87028373 0.21428571
0.97348426 0.79517329 0.21428571
0.89837381 0.87028373 0.35714286
0.97348426 0.79517329 0.35714286
0.89837381 0.87028373 0.50000000
0.97348426 0.79517329 0.50000000
0.89837381 0.87028373 0.64285714
0.97348426 0.79517329 0.64285714
1.04859470 -0.78214600 -0.21428571
1.04859470 -0.63192512 -0.64285714
1.04859470 -0.63192512 -0.50000000
1.04859470 -0.63192512 -0.35714286
1.04859470 -0.63192512 -0.21428571
1.04859470 -0.63192512 -0.07142857
1.04859470 -0.63192512 0.07142857
1.04859470 -0.63192512 0.21428571
1.04859470 -0.63192512 0.35714286
1.04859470 -0.63192512 0.50000000
1.04859470 -0.63192512 0.64285714
1.04859470 -0.63192512 0.78571429
1.04859470 -0.48170423 -0.64285714
1.04859470 -0.48170423 -0.50000000
1.12370514 -0.48170423 -0.42857143
1.12370514 -0.55681467 -0.35714286
1.12370514 -0.55681467 -0.21428571
1.12370514 -0.55681467 -0.07142857
1.12370514 -0.55681467 0.07142857
1.12370514 -0.55681467 0.21428571
1.12370514 -0.48170423 0.28571429
1.04859470 -0.48170423 0.35714286
1.04859470 -0.48170423 0.50000000
1.04859470 -0.48170423 0.64285714
1.04859470 -0.48170423 0.78571429
1.04859470 -0.33148335 -0.64285714
1.12370514 -0.33148335 -0.57142857
1.12370514 -0.40659379 -0.50000000
1.12370514 -0.40659379 0.35714286
1.12370514 -0.40659379 0.50000000
1.12370514 -0.40659379 0.64285714
1.12370514 -0.40659379 0.78571429
1.12370514 -0.33148335 0.85714286
1.04859470 -0.18126246 -0.78571429
1.12370514 -0.18126246 -0.71428571
1.12370514 -0.25637291 -0.64285714
1.12370514 -0.18126246 0.85714286
1.04859470 -0.03104158 -0.78571429
1.12370514 -0.03104158 -0.71428571
1.12370514 -0.10615202 0.92857143
1.12370514 -0.03104158 1.00000000
1.04859470 0.11917931 -0.78571429
1.12370514 0.11917931 -0.71428571
1.12370514 0.11917931 1.00000000
1.04859470 0.26940019 -0.78571429
1.12370514 0.26940019 -0.71428571
1.12370514 0.26940019 1.00000000
1.04859470 0.41962108 -0.78571429
1.12370514 0.41962108 -0.71428571
1.04859470 0.41962108 0.78571429
1.12370514 0.34451063 0.78571429
1.12370514 0.41962108 0.71428571
1.12370514 0.34451063 0.92857143
1.04859470 0.56984196 -0.64285714
1.12370514 0.49473152 -0.64285714
1.12370514 0.56984196 -0.57142857
1.04859470 0.56984196 0.50000000
1.12370514 0.49473152 0.50000000
1.12370514 0.56984196 0.42857143
1.04859470 0.56984196 0.64285714
1.12370514 0.49473152 0.64285714
1.04859470 0.72006284 -0.64285714
1.12370514 0.64495240 -0.50000000
1.04859470 0.72006284 -0.50000000
1.04859470 0.72006284 -0.35714286
1.12370514 0.64495240 -0.35714286
1.04859470 0.72006284 -0.21428571
1.12370514 0.64495240 -0.21428571
1.04859470 0.72006284 -0.07142857
1.12370514 0.64495240 -0.07142857
1.04859470 0.72006284 0.07142857
1.12370514 0.64495240 0.07142857
1.04859470 0.72006284 0.21428571
1.12370514 0.64495240 0.21428571
1.04859470 0.72006284 0.35714286
1.12370514 0.64495240 0.35714286
1.04859470 0.72006284 0.50000000
1.04859470 0.72006284 0.64285714
1.19881558 -0.48170423 -0.35714286
1.19881558 -0.48170423 -0.21428571
1.19881558 -0.48170423 -0.07142857
1.19881558 -0.48170423 0.07142857
1.19881558 -0.48170423 0.21428571
1.19881558 -0.33148335 -0.50000000
1.19881558 -0.33148335 -0.35714286
1.27392603 -0.33148335 -0.28571429
1.27392603 -0.40659379 -0.21428571
1.27392603 -0.33148335 -0.14285714
1.19881558 -0.33148335 -0.07142857
1.19881558 -0.33148335 0.07142857
1.19881558 -0.33148335 0.21428571
1.19881558 -0.33148335 0.35714286
1.19881558 -0.33148335 0.50000000
1.19881558 -0.33148335 0.64285714
1.19881558 -0.33148335 0.78571429
1.19881558 -0.18126246 -0.64285714
1.27392603 -0.18126246 -0.57142857
1.27392603 -0.25637291 -0.50000000
1.27392603 -0.25637291 -0.35714286
1.27392603 -0.25637291 -0.07142857
1.27392603 -0.25637291 0.07142857
1.27392603 -0.25637291 0.21428571
1.27392603 -0.18126246 0.28571429
1.19881558 -0.18126246 0.35714286
1.19881558 -0.18126246 0.50000000
1.19881558 -0.18126246 0.64285714
1.19881558 -0.18126246 0.78571429
1.19881558 -0.03104158 -0.64285714
1.27392603 -0.03104158 -0.57142857
1.27392603 -0.10615202 0.35714286
1.27392603 -0.10615202 0.50000000
1.27392603 -0.10615202 0.64285714
1.27392603 -0.10615202 0.78571429
1.27392603 -0.10615202 0.92857143
1.27392603 -0.03104158 1.00000000
1.27392603 0.11917931 -0.71428571
1.27392603 0.04406886 -0.64285714
1.27392603 0.11917931 1.00000000
1.27392603 0.19428975 -0.64285714
1.19881558 0.26940019 -0.64285714
1.27392603 0.26940019 -0.57142857
1.19881558 0.26940019 0.50000000
1.27392603 0.19428975 0.50000000
1.27392603 0.26940019 0.42857143
1.19881558 0.26940019 0.64285714
1.27392603 0.19428975 0.64285714
1.19881558 0.26940019 0.78571429
1.27392603 0.19428975 0.78571429
1.19881558 0.26940019 0.92857143
1.27392603 0.19428975 0.92857143
1.19881558 0.41962108 -0.64285714
1.27392603 0.34451063 -0.50000000
1.19881558 0.41962108 -0.50000000
1.27392603 0.41962108 -0.42857143
1.19881558 0.41962108 0.35714286
1.27392603 0.34451063 0.35714286
1.27392603 0.41962108 0.28571429
1.19881558 0.41962108 0.50000000
1.19881558 0.41962108 0.64285714
1.19881558 0.56984196 -0.50000000
1.27392603 0.49473152 -0.35714286
1.19881558 0.56984196 -0.35714286
1.19881558 0.56984196 -0.21428571
1.27392603 0.49473152 -0.21428571
1.19881558 0.56984196 -0.07142857
1.27392603 0.49473152 -0.07142857
1.19881558 0.56984196 0.07142857
1.27392603 0.49473152 0.07142857
1.19881558 0.56984196 0.21428571
1.27392603 0.49473152 0.21428571
1.19881558 0.56984196 0.35714286
1.34903647 -0.33148335 -0.21428571
1.34903647 -0.18126246 -0.50000000
1.34903647 -0.18126246 -0.35714286
1.34903647 -0.18126246 -0.21428571
1.34903647 -0.18126246 -0.07142857
1.34903647 -0.18126246 0.07142857
1.34903647 -0.18126246 0.21428571
1.34903647 -0.03104158 -0.50000000
1.34903647 -0.03104158 -0.35714286
1.34903647 -0.03104158 -0.21428571
1.34903647 -0.03104158 -0.07142857
1.34903647 -0.03104158 0.07142857
1.34903647 -0.03104158 0.21428571
1.34903647 -0.03104158 0.35714286
1.34903647 -0.03104158 0.50000000
1.34903647 -0.03104158 0.64285714
1.34903647 -0.03104158 0.78571429
1.34903647 -0.03104158 0.92857143
1.34903647 0.11917931 -0.64285714
1.34903647 0.11917931 -0.50000000
1.34903647 0.11917931 -0.35714286
1.34903647 0.11917931 -0.21428571
1.34903647 0.11917931 -0.07142857
1.34903647 0.11917931 0.07142857
1.34903647 0.11917931 0.21428571
1.34903647 0.11917931 0.35714286
1.34903647 0.11917931 0.50000000
1.34903647 0.11917931 0.64285714
1.34903647 0.11917931 0.78571429
1.34903647 0.11917931 0.92857143
1.34903647 0.26940019 -0.50000000
1.34903647 0.26940019 -0.35714286
1.34903647 0.26940019 -0.21428571
1.34903647 0.26940019 -0.07142857
1.34903647 0.26940019 0.07142857
1.34903647 0.26940019 0.21428571
1.34903647 0.26940019 0.35714286
1.34903647 0.41962108 -0.35714286
1.34903647 0.41962108 -0.21428571
1.34903647 0.41962108 -0.07142857
1.34903647 0.41962108 0.07142857
1.34903647 0.41962108 0.21428571
3 2 1 0
3 4 3 0
3 0 3 2
3 6 5 4
3 4 5 3
3 8 7 6
3 6 7 5
3 10 9 8
3 8 9 7
3 12 11 10
3 10 11 9
3 14 13 12
3 12 13 11
3 14 15 13
3 0 1 16
3 16 1 17
3 0 18 4
3 0 16 18
3 4 19 6
3 4 18 19
3 6 20 8
3 6 19 20
3 8 21 10
3 8 20 21
3 10 22 12
3 10 21 22
3 12 23 14
3 12 22 23
3 15 14 24
3 24 14 23
3 16 17 25
3 25 17 26
3 16 27 18
3 16 25 27
3 18 28 19
3 18 27 28
3 19 29 20
3 19 28 29
3 20 30 21
3 20 29 30
3 21 31 22
3 21 30 31
3 22 32 23
3 22 31 32
3 24 23 33
3 33 23 32
3 36 35 34
3 36 34 26
3 34 25 26
3 34 37 25
3 25 38 27
3 25 37 38
3 27 39 28
3 27 38 39
3 28 40 29
3 28 39 40
3 29 41 30
3 29 40 41
3 30 42 31
3 30 41 42
3 31 43 32
3 31 42 43
3 33 32 44
3 32 45 44
3 32 43 45
3 45 46 44
3 35 47 34
3 34 47 37
3 37 47 48
3 50 49 48
3 49 37 48
3 49 38 37
3 38 51 39
3 38 49 51
3 39 52 40
3 39 51 52
3 40 53 41
3 40 52 53
3 41 54 42
3 41 53 54
3 42 55 43
3 42 54 55
3 57 45 56
3 45 55 56
3 45 43 55
3 45 57 46
3 50 58 49
3 60 59 58
3 59 49 58
3 59 51 49
3 51 61 52
3 51 59 61
3 52 62 53
3 52 61 62
3 53 63 54
3 53 62 63
3 65 55 64
3 55 63 64
3 55 54 63
3 55 65 56
3 60 66 59
3 59 66 61
3 61 66 67
3 61 67 62
3 62 67 68
3 62 68 63
3 63 68 69
3 63 69 64
3 72 71 70
3 74 73 70
3 70 73 72
3 76 75 74
3 74 75 73
3 78 77 76
3 76 77 75
3 80 79 78
3 78 79 77
3 80 81 79
3 84 83 82
3 84 82 71
3 82 70 71
3 82 85 70
3 70 86 74
3 70 85 86
3 74 87 76
3 74 86 87
3 76 88 78
3 76 87 88
3 78 89 80
3 78 88 89
3 81 80 90
3 80 91 90
3 80 89 91
3 93 92 91
3 91 92 90
3 93 94 92
3 97 96 95
3 97 95 83
3 83 95 82
3 95 1 82
3 1 2 82
3 82 2 3
3 82 3 85
3 85 3 5
3 85 5 86
3 86 5 7
3 86 7 87
3 87 7 9
3 87 9 88
3 88 9 11
3 88 11 89
3 89 11 13
3 89 13 91
3 91 13 15
3 98 91 15
3 93 91 98
3 94 93 99
3 99 93 98
3 95 96 100
3 100 96 101
3 100 17 1
3 100 1 95
3 24 102 98
3 24 98 15
3 99 98 103
3 103 98 102
3 100 101 104
3 104 101 105
3 104 26 17
3 104 17 100
3 33 106 102
3 33 102 24
3 103 102 107
3 102 108 107
3 102 106 108
3 108 109 107
3 104 105 36
3 105 35 36
3 105 110 35
3 104 36 26
3 44 106 33
3 106 44 46
3 111 106 46
3 108 106 111
3 109 108 112
3 112 108 111
3 47 35 113
3 35 114 113
3 35 110 114
3 115 48 47
3 115 47 113
3 115 50 48
3 56 116 57
3 111 46 57
3 116 111 57
3 117 111 116
3 112 111 118
3 118 111 117
3 114 119 113
3 121 120 119
3 120 113 119
3 120 115 113
3 122 58 50
3 115 122 50
3 120 122 115
3 122 60 58
3 64 123 65
3 116 56 65
3 123 116 65
3 124 116 123
3 126 117 125
3 117 124 125
3 117 116 124
3 117 126 118
3 120 121 127
3 127 121 128
3 120 129 122
3 120 127 129
3 130 66 60
3 122 130 60
3 129 130 122
3 131 67 66
3 131 66 130
3 132 68 67
3 132 67 131
3 133 69 68
3 133 68 132
3 123 64 69
3 133 123 69
3 134 123 133
3 136 124 135
3 124 134 135
3 124 123 134
3 124 136 125
3 128 137 127
3 127 137 129
3 129 137 138
3 140 139 138
3 139 129 138
3 139 130 129
3 130 141 131
3 130 139 141
3 131 142 132
3 131 141 142
3 132 143 133
3 132 142 143
3 145 134 144
3 134 143 144
3 134 133 143
3 134 145 135
3 140 146 139
3 139 146 141
3 141 146 147
3 141 147 142
3 142 147 148
3 142 148 143
3 143 148 149
3 143 149 144
3 152 151 150
3 154 153 150
3 150 153 152
3 156 155 154
3 154 155 153
3 158 157 156
3 156 157 155
3 160 159 158
3 158 159 157
3 160 161 159
3 164 163 162
3 166 165 162
3 162 165 164
3 165 166 151
3 151 166 150
3 166 71 150
3 71 72 150
3 150 72 73
3 150 73 154
3 154 73 75
3 154 75 156
3 156 75 77
3 156 77 158
3 158 77 79
3 158 79 160
3 168 167 81
3 81 167 79
3 167 161 79
3 161 160 79
3 170 169 168
3 168 169 167
3 172 171 170
3 170 171 169
3 172 173 171
3 162 163 174
3 174 163 175
3 174 83 84
3 166 174 84
3 162 174 166
3 166 84 71
3 90 168 81
3 168 90 92
3 168 92 170
3 170 92 94
3 176 170 94
3 172 170 176
3 173 172 177
3 177 172 176
3 180 179 178
3 180 178 175
3 175 178 174
3 178 96 174
3 96 97 174
3 174 97 83
3 99 181 176
3 99 176 94
3 177 176 182
3 182 176 181
3 178 179 183
3 183 179 184
3 183 101 96
3 183 96 178
3 103 185 181
3 103 181 99
3 182 181 186
3 181 187 186
3 181 185 187
3 187 188 186
3 183 184 189
3 189 184 190
3 189 105 101
3 189 101 183
3 107 185 103
3 185 107 109
3 191 185 109
3 187 185 191
3 188 187 192
3 192 187 191
3 189 190 193
3 193 190 194
3 193 110 105
3 193 105 189
3 112 195 191
3 112 191 109
3 192 191 196
3 196 191 195
3 199 198 197
3 199 197 194
3 197 193 194
3 197 200 193
3 200 114 110
3 200 110 193
3 118 201 195
3 118 195 112
3 196 195 202
3 195 203 202
3 195 201 203
3 203 204 202
3 198 205 197
3 207 206 205
3 206 197 205
3 206 200 197
3 208 119 114
3 200 208 114
3 206 208 200
3 208 121 119
3 125 209 126
3 201 118 126
3 209 201 126
3 210 201 209
3 212 203 211
3 203 210 211
3 203 201 210
3 203 212 204
3 206 207 213
3 213 207 214
3 206 215 208
3 206 213 215
3 215 128 121
3 215 121 208
3 135 216 136
3 209 125 136
3 216 209 136
3 217 209 216
3 219 210 218
3 210 217 218
3 210 209 217
3 210 219 211
3 214 220 213
3 222 221 220
3 221 213 220
3 221 215 213
3 223 137 128
3 215 223 128
3 221 223 215
3 224 138 137
3 224 137 223
3 224 140 138
3 144 225 145
3 216 135 145
3 225 216 145
3 226 216 225
3 228 217 227
3 217 226 227
3 217 216 226
3 217 228 218
3 222 229 221
3 221 229 223
3 223 229 230
3 223 230 224
3 224 230 231
3 231 233 232
3 231 232 146
3 224 231 146
3 140 224 146
3 234 147 146
3 234 146 232
3 235 148 147
3 235 147 234
3 148 235 236
3 237 148 236
3 149 148 237
3 144 149 225
3 149 238 225
3 149 237 238
3 225 238 226
3 226 238 239
3 226 239 227
3 233 240 232
3 232 240 234
3 234 240 241
3 234 241 235
3 235 241 242
3 235 242 236
3 245 244 243
3 247 246 243
3 243 246 245
3 249 248 247
3 247 248 246
3 251 250 249
3 249 250 248
3 253 252 251
3 251 252 250
3 253 254 252
3 257 256 255
3 259 258 255
3 255 258 257
3 258 259 244
3 244 259 243
3 259 151 243
3 151 152 243
3 243 152 153
3 243 153 247
3 247 153 155
3 247 155 249
3 249 155 157
3 249 157 251
3 251 157 159
3 251 159 253
3 261 260 161
3 161 260 159
3 260 254 159
3 254 253 159
3 263 262 261
3 261 262 260
3 265 264 263
3 263 264 262
3 265 266 264
3 269 268 267
3 269 267 256
3 256 267 255
3 267 163 255
3 163 164 255
3 255 164 165
3 255 165 259
3 259 165 151
3 167 261 161
3 261 167 169
3 261 169 263
3 263 169 171
3 263 171 265
3 271 270 173
3 173 270 171
3 270 266 171
3 266 265 171
3 271 272 270
3 275 274 273
3 275 273 268
3 273 267 268
3 273 276 267
3 276 175 163
3 276 163 267
3 177 277 271
3 177 271 173
3 272 271 278
3 278 271 277
3 273 274 279
3 279 274 280
3 279 179 180
3 276 279 180
3 273 279 276
3 276 180 175
3 182 281 277
3 182 277 177
3 278 277 282
3 282 277 281
3 279 280 283
3 283 280 284
3 283 184 179
3 283 179 279
3 186 281 182
3 286 285 188
3 188 285 186
3 285 282 186
3 282 281 186
3 286 287 285
3 283 284 288
3 288 284 289
3 288 190 184
3 288 184 283
3 192 290 286
3 192 286 188
3 287 286 291
3 291 286 290
3 288 289 292
3 292 289 293
3 292 194 190
3 292 190 288
3 196 294 290
3 196 290 192
3 291 290 295
3 295 290 294
3 292 293 199
3 293 198 199
3 293 296 198
3 292 199 194
3 202 294 196
3 202 204 294
3 204 295 294
3 204 297 295
3 205 198 298
3 198 299 298
3 198 296 299
3 298 207 205
3 211 300 212
3 300 301 212
3 301 204 212
3 301 297 204
3 298 299 302
3 302 299 303
3 302 214 207
3 302 207 298
3 218 304 219
3 300 211 219
3 304 300 219
3 305 300 304
3 301 300 306
3 306 300 305
3 303 307 302
3 307 309 308
3 307 308 220
3 302 307 220
3 214 302 220
3 308 222 220
3 227 310 228
3 310 311 228
3 228 311 218
3 311 312 218
3 312 304 218
3 304 312 305
3 305 312 313
3 305 313 306
3 309 314 308
3 314 316 315
3 314 315 229
3 308 314 229
3 222 308 229
3 317 230 229
3 317 229 315
3 318 231 230
3 318 230 317
3 318 233 231
3 236 319 237
3 320 238 237
3 320 237 319
3 321 239 238
3 321 238 320
3 321 322 239
3 239 322 227
3 322 323 227
3 323 310 227
3 310 323 311
3 316 324 315
3 315 324 317
3 317 324 325
3 317 325 318
3 318 325 326
3 326 328 327
3 326 327 240
3 318 326 240
3 233 318 240
3 329 241 240
3 329 240 327
3 330 242 241
3 330 241 329
3 330 331 242
3 242 331 236
3 331 332 236
3 332 319 236
3 319 332 320
3 320 332 333
3 320 333 321
3 321 333 334
3 321 334 322
3 328 335 327
3 327 335 329
3 329 335 336
3 329 336 330
3 330 336 337
3 330 337 331
3 340 339 338
3 342 341 338
3 338 341 340
3 344 343 342
3 342 343 341
3 346 345 344
3 344 345 343
3 346 347 345
3 350 349 348
3 352 351 348
3 348 351 350
3 244 245 352
3 245 351 352
3 245 353 351
3 246 338 339
3 353 246 339
3 245 246 353
3 338 246 248
3 338 248 342
3 342 248 250
3 342 250 344
3 344 250 252
3 344 252 346
3 355 354 254
3 254 354 252
3 354 347 252
3 347 346 252
3 357 356 355
3 355 356 354
3 359 358 357
3 357 358 356
3 359 360 358
3 363 362 361
3 363 361 349
3 349 361 348
3 361 256 348
3 256 257 348
3 348 257 258
3 348 258 352
3 352 258 244
3 260 355 254
3 355 260 262
3 355 262 357
3 357 262 264
3 357 264 359
3 365 364 266
3 266 364 264
3 364 360 264
3 360 359 264
3 365 366 364
3 361 362 269
3 362 268 269
3 362 367 268
3 361 269 256
3 270 365 266
3 270 272 365
3 272 366 365
3 272 368 366
3 370 369 275
3 275 369 274
3 275 268 367
3 275 367 370
3 278 372 371
3 368 278 371
3 272 278 368
3 372 373 371
3 369 280 274
3 374 280 369
3 282 375 372
3 282 372 278
3 373 372 376
3 376 372 375
3 374 284 280
3 377 284 374
3 285 375 282
3 285 287 375
3 287 376 375
3 287 378 376
3 377 289 284
3 379 289 377
3 291 378 287
3 291 380 378
3 379 293 289
3 381 293 379
3 295 380 291
3 295 382 380
3 381 296 293
3 383 296 381
3 297 382 295
3 297 384 382
3 383 299 296
3 385 299 383
3 301 384 297
3 301 386 384
3 385 303 299
3 387 303 385
3 306 386 301
3 306 388 386
3 307 303 389
3 303 390 389
3 303 387 390
3 389 309 307
3 311 391 312
3 392 313 312
3 392 312 391
3 392 393 313
3 393 306 313
3 393 388 306
3 390 394 389
3 394 396 395
3 394 395 314
3 389 394 314
3 309 389 314
3 395 316 314
3 322 397 323
3 397 398 323
3 323 398 311
3 398 399 311
3 399 391 311
3 391 399 392
3 392 399 400
3 392 400 393
3 396 401 395
3 401 403 402
3 401 402 324
3 395 401 324
3 316 395 324
3 404 325 324
3 404 324 402
3 405 326 325
3 405 325 404
3 405 328 326
3 331 406 332
3 407 333 332
3 407 332 406
3 408 334 333
3 408 333 407
3 408 409 334
3 334 409 322
3 409 410 322
3 410 397 322
3 397 410 398
3 403 411 402
3 402 411 404
3 404 411 412
3 404 412 405
3 405 412 413
3 413 415 414
3 413 414 335
3 405 413 335
3 328 405 335
3 416 336 335
3 416 335 414
3 417 337 336
3 417 336 416
3 417 418 337
3 337 418 331
3 418 419 331
3 419 406 331
3 406 419 407
3 407 419 420
3 407 420 408
3 408 420 421
3 408 421 409
3 415 422 414
3 414 422 416
3 416 422 423
3 416 423 417
3 417 423 424
3 417 424 418
3 427 426 425
3 429 428 425
3 425 428 427
3 339 340 429
3 340 428 429
3 340 430 428
3 431 340 341
3 431 430 340
3 432 341 343
3 432 431 341
3 433 343 345
3 433 432 343
3 435 434 347
3 434 345 347
3 434 433 345
3 437 436 435
3 435 436 434
3 437 438 436
3 440 439 350
3 350 439 349
3 351 425 426
3 440 351 426
3 350 351 440
3 425 351 353
3 425 353 429
3 429 353 339
3 354 435 347
3 435 354 356
3 435 356 437
3 441 438 437
3 356 441 437
3 358 441 356
3 358 360 441
3 441 360 442
3 444 443 363
3 363 443 362
3 363 349 439
3 363 439 444
3 445 442 360
3 445 360 364
3 364 366 445
3 445 366 446
3 449 448 447
3 443 449 447
3 367 443 447
3 362 443 367
3 368 451 450
3 446 368 450
3 366 368 446
3 451 452 450
3 447 448 370
3 448 369 370
3 448 453 369
3 447 370 367
3 371 451 368
3 371 373 451
3 373 452 451
3 373 454 452
3 453 374 369
3 455 374 453
3 376 454 373
3 376 456 454
3 455 377 374
3 457 377 455
3 378 456 376
3 378 458 456
3 457 379 377
3 459 379 457
3 380 458 378
3 380 460 458
3 459 381 379
3 461 381 459
3 382 460 380
3 382 462 460
3 461 383 381
3 463 383 461
3 384 462 382
3 384 464 462
3 463 385 383
3 465 385 463
3 386 464 384
3 386 466 464
3 465 387 385
3 467 387 465
3 388 466 386
3 388 468 466
3 467 390 387
3 469 390 467
3 393 468 388
3 393 470 468
3 394 390 471
3 390 472 471
3 390 469 472
3 471 396 394
3 398 473 399
3 399 473 474
3 475 399 474
3 400 399 475
3 393 400 470
3 470 400 475
3 472 476 471
3 476 478 477
3 476 477 401
3 471 476 401
3 396 471 401
3 477 403 401
3 409 479 410
3 479 480 410
3 410 480 398
3 480 481 398
3 481 473 398
3 473 481 474
3 478 482 477
3 477 482 403
3 482 411 403
3 482 483 411
3 483 485 484
3 412 483 484
3 411 483 412
3 486 413 412
3 486 412 484
3 486 415 413
3 418 487 419
3 488 420 419
3 488 419 487
3 420 488 489
3 490 420 489
3 421 420 490
3 409 421 479
3 421 491 479
3 421 490 491
3 479 491 480
3 485 492 484
3 484 492 486
3 486 492 493
3 486 493 415
3 493 422 415
3 493 494 422
3 422 495 423
3 494 495 422
3 423 496 424
3 495 496 423
3 418 424 487
3 424 497 487
3 424 496 497
3 487 497 488
3 488 497 498
3 488 498 489
3 501 500 499
3 503 502 499
3 499 502 501
3 505 504 503
3 503 504 502
3 507 506 505
3 505 506 504
3 509 508 507
3 507 508 506
3 511 510 509
3 509 510 508
3 511 512 510
3 514 513 427
3 427 513 426
3 428 499 500
3 514 428 500
3 427 428 514
3 499 428 430
3 499 430 503
3 503 430 431
3 503 431 505
3 505 431 432
3 505 432 507
3 507 432 433
3 507 433 509
3 509 433 434
3 509 434 511
3 515 512 511
3 434 515 511
3 436 515 434
3 436 438 515
3 515 438 516
3 519 518 517
3 439 440 517
3 440 519 517
3 440 520 519
3 440 426 513
3 440 513 520
3 521 516 438
3 521 438 441
3 523 522 442
3 522 441 442
3 522 521 441
3 523 524 522
3 527 526 525
3 527 525 518
3 518 525 517
3 525 443 517
3 443 444 517
3 517 444 439
3 445 523 442
3 445 446 523
3 446 524 523
3 446 528 524
3 525 526 449
3 526 448 449
3 526 529 448
3 525 449 443
3 530 528 446
3 530 446 450
3 450 452 530
3 530 452 531
3 529 453 448
3 532 453 529
3 454 531 452
3 454 533 531
3 532 455 453
3 534 455 532
3 456 533 454
3 456 535 533
3 534 457 455
3 536 457 534
3 458 535 456
3 458 537 535
3 536 459 457
3 538 459 536
3 460 537 458
3 460 539 537
3 538 461 459
3 540 461 538
3 462 539 460
3 462 541 539
3 540 463 461
3 542 463 540
3 464 541 462
3 464 543 541
3 542 465 463
3 544 465 542
3 466 543 464
3 466 545 543
3 544 467 465
3 546 467 544
3 468 545 466
3 468 547 545
3 546 469 467
3 548 469 546
3 470 547 468
3 470 549 547
3 548 472 469
3 550 472 548
3 474 551 475
3 551 552 475
3 552 470 475
3 552 549 470
3 550 553 472
3 472 553 476
3 478 476 553
3 478 553 554
3 480 555 481
3 555 556 481
3 481 556 474
3 556 557 474
3 557 551 474
3 551 557 552
3 554 558 478
3 478 558 482
3 558 560 559
3 483 558 559
3 482 558 483
3 559 485 483
3 489 561 490
3 490 561 562
3 563 490 562
3 491 490 563
3 480 491 555
3 491 564 555
3 491 563 564
3 555 564 556
3 560 565 559
3 559 565 485
3 565 492 485
3 565 566 492
3 566 568 567
3 493 566 567
3 492 566 493
3 569 494 493
3 569 493 567
3 570 495 494
3 570 494 569
3 571 496 495
3 571 495 570
3 572 497 496
3 572 496 571
3 573 498 497
3 573 497 572
3 573 574 498
3 498 574 489
3 574 575 489
3 575 561 489
3 561 575 562
3 568 576 567
3 567 576 569
3 569 576 577
3 569 577 570
3 570 577 578
3 570 578 571
3 571 578 579
3 571 579 572
3 572 579 580
3 572 580 573
3 573 580 581
3 573 581 574
3 584 583 582
3 500 501 582
3 501 584 582
3 501 585 584
3 586 501 502
3 586 585 501
3 587 502 504
3 587 586 502
3 588 504 506
3 588 587 504
3 589 506 508
3 589 588 506
3 590 508 510
3 590 589 508
3 592 591 512
3 591 510 512
3 591 590 510
3 592 593 591
3 596 595 594
3 596 594 583
3 583 594 582
3 594 513 582
3 513 514 582
3 582 514 500
3 515 592 512
3 598 597 516
3 516 597 515
3 597 593 515
3 593 592 515
3 598 599 597
3 601 600 519
3 519 600 518
3 520 594 595
3 601 520 595
3 519 520 601
3 594 520 513
3 521 598 516
3 602 599 598
3 521 602 598
3 522 602 521
3 522 524 602
3 602 524 603
3 605 604 527
3 527 604 526
3 527 518 600
3 527 600 605
3 528 603 524
3 528 606 603
3 604 529 526
3 607 529 604
3 608 606 528
3 608 528 530
3 530 531 608
3 608 531 609
3 607 532 529
3 610 532 607
3 533 609 531
3 533 611 609
3 610 534 532
3 612 534 610
3 535 611 533
3 535 613 611
3 612 536 534
3 614 536 612
3 537 613 535
3 537 615 613
3 614 538 536
3 616 538 614
3 539 615 537
3 539 617 615
3 616 540 538
3 618 540 616
3 541 617 539
3 541 619 617
3 618 542 540
3 620 542 618
3 543 619 541
3 543 621 619
3 620 544 542
3 622 544 620
3 545 621 543
3 545 623 621
3 622 546 544
3 624 546 622
3 547 623 545
3 547 625 623
3 624 548 546
3 626 548 624
3 549 625 547
3 549 627 625
3 626 550 548
3 628 550 626
3 552 627 549
3 552 629 627
3 553 550 630
3 550 631 630
3 550 628 631
3 630 554 553
3 633 632 557
3 633 557 556
3 552 557 629
3 629 557 632
3 631 634 630
3 630 634 554
3 634 558 554
3 634 635 558
3 560 558 635
3 560 635 636
3 638 637 563
3 638 563 562
3 563 639 564
3 637 639 563
3 556 564 633
3 633 564 639
3 636 640 560
3 560 640 565
3 640 642 641
3 566 640 641
3 565 640 566
3 641 568 566
3 644 643 575
3 644 575 574
3 562 575 638
3 638 575 643
3 642 645 641
3 641 645 568
3 645 576 568
3 645 646 576
3 576 647 577
3 646 647 576
3 577 648 578
3 647 648 577
3 578 649 579
3 648 649 578
3 579 650 580
3 649 650 579
3 580 651 581
3 650 651 580
3 574 581 644
3 644 581 651
3 654 653 652
3 583 584 652
3 584 654 652
3 584 655 654
3 656 584 585
3 656 655 584
3 657 585 586
3 657 656 585
3 658 586 587
3 658 657 586
3 659 587 588
3 659 658 587
3 660 588 589
3 660 659 588
3 661 589 590
3 661 660 589
3 662 590 591
3 662 661 590
3 664 663 593
3 663 591 593
3 663 662 591
3 666 665 664
3 664 665 663
3 668 667 666
3 666 667 665
3 668 669 667
3 652 653 596
3 653 595 596
3 653 670 595
3 652 596 583
3 597 664 593
3 664 597 599
3 671 664 599
3 666 664 671
3 666 672 668
3 666 671 672
3 669 668 673
3 673 668 672
3 675 674 601
3 601 674 600
3 601 595 670
3 601 670 675
3 602 671 599
3 671 602 603
3 676 671 603
3 672 671 676
3 673 672 677
3 677 672 676
3 679 678 605
3 605 678 604
3 605 600 674
3 605 674 679
3 606 680 676
3 606 676 603
3 677 676 681
3 681 676 680
3 678 607 604
3 682 607 678
3 608 680 606
3 608 609 680
3 609 681 680
3 609 683 681
3 682 610 607
3 684 610 682
3 611 683 609
3 611 685 683
3 684 612 610
3 686 612 684
3 613 685 611
3 613 687 685
3 686 614 612
3 688 614 686
3 615 687 613
3 615 689 687
3 688 616 614
3 690 616 688
3 617 689 615
3 617 691 689
3 690 618 616
3 692 618 690
3 619 691 617
3 619 693 691
3 692 620 618
3 694 620 692
3 621 693 619
3 621 695 693
3 694 622 620
3 696 622 694
3 623 695 621
3 623 697 695
3 696 624 622
3 698 624 696
3 625 697 623
3 625 699 697
3 698 626 624
3 700 626 698
3 627 699 625
3 627 701 699
3 700 628 626
3 702 628 700
3 629 701 627
3 629 703 701
3 702 631 628
3 704 631 702
3 633 705 632
3 705 706 632
3 706 629 632
3 706 703 629
3 704 707 631
3 631 707 634
3 707 709 708
3 635 707 708
3 634 707 635
3 708 636 635
3 638 710 637
3 637 710 711
3 712 637 711
3 639 637 712
3 633 639 705
3 639 713 705
3 639 712 713
3 705 713 706
3 709 714 708
3 708 714 636
3 714 640 636
3 714 715 640
3 642 640 715
3 642 715 716
3 718 717 643
3 718 643 644
3 638 643 710
3 643 719 710
3 643 717 719
3 710 719 711
3 716 720 642
3 642 720 645
3 645 721 646
3 720 721 645
3 646 722 647
3 721 722 646
3 647 723 648
3 722 723 647
3 648 724 649
3 723 724 648
3 649 725 650
3 724 725 649
3 650 726 651
3 725 726 650
3 644 651 718
3 718 651 726
3 729 728 727
3 731 730 727
3 727 730 729
3 733 732 731
3 731 732 730
3 735 734 733
3 733 734 732
3 737 736 735
3 735 736 734
3 739 738 737
3 737 738 736
3 741 740 739
3 739 740 738
3 743 742 741
3 741 742 740
3 745 744 743
3 743 744 742
3 747 746 745
3 745 746 744
3 747 748 746
3 750 749 654
3 654 749 653
3 751 654 655
3 751 750 654
3 656 727 728
3 751 656 728
3 655 656 751
3 727 656 657
3 727 657 731
3 731 657 658
3 731 658 733
3 733 658 659
3 733 659 735
3 735 659 660
3 735 660 737
3 737 660 661
3 737 661 739
3 739 661 662
3 739 662 741
3 741 662 663
3 741 663 743
3 743 663 665
3 743 665 745
3 745 665 667
3 745 667 747
3 667 669 747
3 669 748 747
3 669 752 748
3 749 670 653
3 753 670 749
3 673 752 669
3 673 754 752
3 756 755 675
3 675 755 674
3 675 670 753
3 675 753 756
3 677 754 673
3 677 757 754
3 759 758 679
3 679 758 678
3 679 674 755
3 679 755 759
3 681 757 677
3 681 760 757
3 758 682 678
3 761 682 758
3 683 760 681
3 683 762 760
3 761 684 682
3 763 684 761
3 685 762 683
3 685 764 762
3 763 686 684
3 765 686 763
3 687 764 685
3 687 766 764
3 765 688 686
3 767 688 765
3 689 766 687
3 689 768 766
3 767 690 688
3 769 690 767
3 691 768 689
3 691 770 768
3 769 692 690
3 771 692 769
3 693 770 691
3 693 772 770
3 771 694 692
3 773 694 771
3 695 772 693
3 695 774 772
3 773 696 694
3 775 696 773
3 697 774 695
3 697 776 774
3 775 698 696
3 777 698 775
3 699 776 697
3 699 778 776
3 777 700 698
3 779 700 777
3 701 778 699
3 701 780 778
3 779 702 700
3 781 702 779
3 703 780 701
3 703 782 780
3 781 704 702
3 783 704 781
3 706 782 703
3 706 784 782
3 783 785 704
3 704 785 707
3 709 707 785
3 709 785 786
3 788 787 712
3 788 712 711
3 712 789 713
3 787 789 712
3 706 713 784
3 784 713 789
3 786 790 709
3 709 790 714
3 714 791 715
3 790 791 714
3 716 715 791
3 716 791 792
3 794 793 717
3 794 717 718
3 717 795 719
3 793 795 717
3 711 719 788
3 788 719 795
3 792 796 716
3 716 796 720
3 720 797 721
3 796 797 720
3 721 798 722
3 797 798 721
3 722 799 723
3 798 799 722
3 723 800 724
3 799 800 723
3 724 801 725
3 800 801 724
3 725 802 726
3 801 802 725
3 718 726 794
3 794 726 802
3 804 803 729
3 729 803 728
3 805 729 730
3 805 804 729
3 806 730 732
3 806 805 730
3 807 732 734
3 807 806 732
3 808 734 736
3 808 807 734
3 809 736 738
3 809 808 736
3 811 809 810
3 809 740 810
3 809 738 740
3 742 812 740
3 740 812 810
3 744 813 742
3 742 813 812
3 746 814 744
3 744 814 813
3 748 814 746
3 816 815 750
3 750 815 749
3 817 750 751
3 817 816 750
3 751 728 803
3 751 803 817
3 818 811 810
3 818 810 812
3 818 812 819
3 819 812 813
3 819 813 820
3 820 813 814
3 820 814 821
3 814 748 821
3 748 822 821
3 748 752 822
3 815 753 749
3 823 753 815
3 754 822 752
3 754 824 822
3 826 825 756
3 756 825 755
3 756 753 823
3 756 823 826
3 757 824 754
3 757 827 824
3 828 758 759
3 829 828 759
3 755 829 759
3 825 829 755
3 760 827 757
3 760 830 827
3 832 831 828
3 831 758 828
3 831 761 758
3 832 828 829
3 762 830 760
3 762 833 830
3 831 763 761
3 834 763 831
3 764 833 762
3 764 835 833
3 834 765 763
3 836 765 834
3 766 835 764
3 766 837 835
3 836 767 765
3 838 767 836
3 768 837 766
3 768 839 837
3 838 769 767
3 840 769 838
3 770 839 768
3 770 841 839
3 840 771 769
3 842 771 840
3 772 841 770
3 772 843 841
3 842 773 771
3 844 773 842
3 774 843 772
3 774 845 843
3 844 775 773
3 846 775 844
3 776 845 774
3 776 847 845
3 846 777 775
3 848 777 846
3 778 847 776
3 778 849 847
3 848 779 777
3 850 779 848
3 780 849 778
3 780 851 849
3 850 781 779
3 852 781 850
3 782 851 780
3 782 853 851
3 855 783 854
3 783 852 854
3 783 781 852
3 856 855 854
3 859 858 857
3 858 853 857
3 853 784 857
3 853 782 784
3 855 785 783
3 861 860 786
3 861 786 785
3 856 861 785
3 855 856 785
3 862 860 861
3 864 863 787
3 864 787 788
3 857 789 859
3 789 863 859
3 789 787 863
3 789 857 784
3 860 790 786
3 862 865 860
3 865 790 860
3 865 791 790
3 867 866 792
3 791 867 792
3 865 867 791
3 868 866 867
3 870 869 793
3 870 793 794
3 793 871 795
3 869 871 793
3 788 795 864
3 864 795 871
3 866 796 792
3 868 872 866
3 872 796 866
3 872 797 796
3 797 873 798
3 872 873 797
3 798 874 799
3 873 874 798
3 799 875 800
3 874 875 799
3 800 876 801
3 875 876 800
3 801 877 802
3 876 877 801
3 794 802 870
3 870 802 877
3 878 803 804
3 805 879 804
3 804 879 878
3 806 880 805
3 805 880 879
3 807 881 806
3 806 881 880
3 808 882 807
3 807 882 881
3 809 883 808
3 808 883 882
3 811 883 809
3 884 815 816
3 884 816 885
3 816 886 885
3 816 817 886
3 817 803 878
3 887 817 878
3 886 817 887
3 887 878 879
3 887 879 888
3 888 879 880
3 888 880 889
3 889 880 881
3 889 881 890
3 890 881 882
3 890 882 891
3 891 882 883
3 891 883 892
3 892 883 811
3 818 892 811
3 893 892 818
3 894 818 819
3 894 893 818
3 895 819 820
3 895 894 819
3 896 820 821
3 896 895 820
3 821 822 896
3 896 822 897
3 899 898 884
3 898 815 884
3 898 823 815
3 899 884 885
3 824 897 822
3 824 900 897
3 902 901 826
3 826 901 825
3 826 823 898
3 826 898 902
3 827 900 824
3 827 903 900
3 901 829 825
3 904 829 901
3 830 903 827
3 830 905 903
3 907 906 832
3 832 906 831
3 832 829 904
3 832 904 907
3 833 905 830
3 833 908 905
3 906 834 831
3 909 834 906
3 835 908 833
3 835 910 908
3 909 836 834
3 911 836 909
3 837 910 835
3 837 912 910
3 911 838 836
3 913 838 911
3 839 912 837
3 839 914 912
3 913 840 838
3 915 840 913
3 841 914 839
3 841 916 914
3 915 842 840
3 917 842 915
3 843 916 841
3 843 918 916
3 917 844 842
3 919 844 917
3 845 918 843
3 845 920 918
3 919 846 844
3 921 846 919
3 847 920 845
3 847 922 920
3 921 848 846
3 923 848 921
3 849 922 847
3 849 924 922
3 923 850 848
3 925 850 923
3 851 924 849
3 851 926 924
3 928 852 927
3 852 925 927
3 852 850 925
3 929 928 927
3 853 926 851
3 853 930 926
3 928 854 852
3 856 854 928
3 929 856 928
3 931 856 929
3 933 932 858
3 933 858 859
3 853 858 930
3 930 858 932
3 931 934 856
3 856 934 861
3 862 861 934
3 862 934 935
3 938 937 936
3 863 864 936
3 937 863 936
3 939 863 937
3 859 863 933
3 933 863 939
3 935 940 862
3 862 940 865
3 865 941 867
3 940 941 865
3 943 942 868
3 867 943 868
3 941 943 867
3 944 942 943
3 947 946 945
3 869 870 945
3 946 869 945
3 948 869 946
3 936 871 938
3 871 948 938
3 871 869 948
3 871 936 864
3 942 872 868
3 944 949 942
3 949 872 942
3 949 873 872
3 873 950 874
3 949 950 873
3 874 951 875
3 950 951 874
3 875 952 876
3 951 952 875
3 945 877 947
3 877 952 947
3 877 876 952
3 877 945 870
3 953 885 886
3 887 954 886
3 886 954 953
3 954 887 955
3 887 956 955
3 887 888 956
3 957 888 889
3 957 956 888
3 958 889 890
3 958 957 889
3 960 958 959
3 958 891 959
3 958 890 891
3 892 961 891
3 891 961 959
3 893 962 892
3 892 962 961
3 894 963 893
3 893 963 962
3 895 964 894
3 894 964 963
3 896 965 895
3 895 965 964
3 897 965 896
3 966 898 899
3 967 966 899
3 967 899 885
3 968 967 885
3 953 968 885
3 968 953 954
3 968 954 969
3 969 954 955
3 970 960 959
3 970 959 961
3 970 961 971
3 971 961 962
3 971 962 972
3 972 962 963
3 972 963 973
3 973 963 964
3 973 964 974
3 974 964 965
3 974 965 975
3 965 897 975
3 897 976 975
3 897 900 976
3 977 901 902
3 978 977 902
3 978 902 898
3 979 978 898
3 966 979 898
3 979 966 967
3 903 976 900
3 903 980 976
3 982 981 977
3 981 901 977
3 981 904 901
3 982 977 978
3 905 980 903
3 905 983 980
3 984 906 907
3 985 984 907
3 904 985 907
3 981 985 904
3 908 983 905
3 908 986 983
3 988 987 984
3 987 906 984
3 987 909 906
3 988 984 985
3 910 986 908
3 910 989 986
3 987 911 909
3 990 911 987
3 912 989 910
3 912 991 989
3 990 913 911
3 992 913 990
3 914 991 912
3 914 993 991
3 992 915 913
3 994 915 992
3 916 993 914
3 916 995 993
3 994 917 915
3 996 917 994
3 918 995 916
3 918 997 995
3 996 919 917
3 998 919 996
3 920 997 918
3 920 999 997
3 998 921 919
3 1000 921 998
3 922 999 920
3 922 1001 999
3 1000 923 921
3 1002 923 1000
3 924 1001 922
3 924 1003 1001
3 1005 925 1004
3 925 1002 1004
3 925 923 1002
3 1006 1005 1004
3 926 1003 924
3 926 1007 1003
3 1005 927 925
3 929 927 1005
3 1006 929 1005
3 1008 929 1006
3 930 1007 926
3 930 1009 1007
3 1011 931 1010
3 931 1008 1010
3 931 929 1008
3 1012 1011 1010
3 1015 1014 1013
3 932 933 1013
3 1014 932 1013
3 1016 932 1014
3 930 932 1009
3 1009 932 1016
3 1011 934 931
3 1018 1017 935
3 1018 935 934
3 1012 1018 934
3 1011 1012 934
3 1020 1019 1017
3 1020 1017 1018
3 1021 1019 1020
3 1024 1023 1022
3 937 938 1022
3 1023 937 1022
3 1025 937 1023
3 1013 939 1015
3 939 1025 1015
3 939 937 1025
3 939 1013 933
3 1017 940 935
3 940 1017 941
3 941 1017 1019
3 1021 1026 1019
3 1026 941 1019
3 1026 943 941
3 1028 1027 944
3 943 1028 944
3 1026 1028 943
3 1030 1029 1027
3 1030 1027 1028
3 1032 1031 1029
3 1032 1029 1030
3 1034 1033 1031
3 1034 1031 1032
3 946 947 1033
3 1034 946 1033
3 1035 946 1034
3 1022 948 1024
3 948 1035 1024
3 948 946 1035
3 948 1022 938
3 1027 949 944
3 949 1027 950
3 950 1027 1029
3 950 1029 951
3 951 1029 1031
3 951 1031 952
3 952 1031 1033
3 952 1033 947
3 1036 955 956
3 957 1037 956
3 956 1037 1036
3 958 1038 957
3 957 1038 1037
3 960 1038 958
3 1039 967 968
3 1039 968 1040
3 968 1041 1040
3 968 969 1041
3 969 955 1036
3 1042 969 1036
3 1041 969 1042
3 1042 1036 1037
3 1042 1037 1043
3 1043 1037 1038
3 1043 1038 1044
3 1044 1038 960
3 970 1044 960
3 1045 1044 970
3 1047 1045 1046
3 1045 971 1046
3 1045 970 971
3 972 1048 971
3 971 1048 1046
3 973 1049 972
3 972 1049 1048
3 974 1050 973
3 973 1050 1049
3 975 1051 974
3 974 1051 1050
3 976 1051 975
3 1053 1052 979
3 979 1052 978
3 979 967 1039
3 1054 979 1039
3 1053 979 1054
3 1054 1039 1040
3 1055 1047 1046
3 1055 1046 1048
3 1055 1048 1056
3 1056 1048 1049
3 1056 1049 1057
3 1057 1049 1050
3 1057 1050 1058
3 1060 1059 1058
3 1050 1060 1058
3 1051 1060 1050
3 980 1060 976
3 976 1060 1051
3 1062 1061 982
3 982 1061 981
3 982 978 1052
3 982 1052 1062
3 1063 1059 1060
3 1060 980 1063
3 980 1064 1063
3 980 983 1064
3 1061 985 981
3 1065 985 1061
3 986 1064 983
3 986 1066 1064
3 1067 987 988
3 1068 1067 988
3 985 1068 988
3 1065 1068 985
3 989 1066 986
3 989 1069 1066
3 1071 1070 1067
3 1070 987 1067
3 1070 990 987
3 1071 1067 1068
3 991 1069 989
3 991 1072 1069
3 1070 992 990
3 1073 992 1070
3 993 1072 991
3 993 1074 1072
3 1073 994 992
3 1075 994 1073
3 995 1074 993
3 995 1076 1074
3 1075 996 994
3 1077 996 1075
3 997 1076 995
3 997 1078 1076
3 1077 998 996
3 1079 998 1077
3 999 1078 997
3 999 1080 1078
3 1079 1000 998
3 1081 1000 1079
3 1001 1080 999
3 1001 1082 1080
3 1084 1002 1083
3 1002 1081 1083
3 1002 1000 1081
3 1085 1084 1083
3 1003 1082 1001
3 1003 1086 1082
3 1084 1004 1002
3 1006 1004 1084
3 1085 1006 1084
3 1087 1006 1085
3 1007 1086 1003
3 1007 1088 1086
3 1087 1008 1006
3 1089 1008 1087
3 1092 1091 1090
3 1091 1088 1090
3 1088 1009 1090
3 1088 1007 1009
3 1089 1093 1008
3 1008 1093 1010
3 1012 1010 1093
3 1012 1093 1094
3 1097 1096 1095
3 1014 1015 1095
3 1096 1014 1095
3 1098 1014 1096
3 1090 1016 1092
3 1016 1098 1092
3 1016 1014 1098
3 1016 1090 1009
3 1094 1099 1012
3 1012 1099 1018
3 1018 1100 1020
3 1099 1100 1018
3 1102 1101 1021
3 1020 1102 1021
3 1100 1102 1020
3 1104 1103 1101
3 1104 1101 1102
3 1106 1105 1103
3 1106 1103 1104
3 1108 1107 1105
3 1108 1105 1106
3 1110 1109 1107
3 1110 1107 1108
3 1112 1111 1109
3 1112 1109 1110
3 1023 1024 1111
3 1112 1023 1111
3 1113 1023 1112
3 1095 1025 1097
3 1025 1113 1097
3 1025 1023 1113
3 1025 1095 1015
3 1101 1026 1021
3 1026 1101 1028
3 1028 1101 1103
3 1028 1103 1030
3 1030 1103 1105
3 1030 1105 1032
3 1032 1105 1107
3 1032 1107 1034
3 1034 1107 1109
3 1034 1109 1035
3 1035 1109 1111
3 1035 1111 1024
3 1114 1040 1041
3 1042 1115 1041
3 1041 1115 1114
3 1043 1116 1042
3 1042 1116 1115
3 1044 1117 1043
3 1043 1117 1116
3 1045 1118 1044
3 1044 1118 1117
3 1047 1118 1045
3 1119 1052 1053
3 1054 1120 1053
3 1053 1120 1119
3 1121 1120 1054
3 1121 1054 1040
3 1122 1121 1040
3 1114 1122 1040
3 1122 1114 1115
3 1122 1115 1123
3 1123 1115 1116
3 1123 1116 1124
3 1124 1116 1117
3 1124 1117 1125
3 1127 1126 1125
3 1117 1127 1125
3 1118 1127 1117
3 1055 1128 1047
3 1128 1118 1047
3 1128 1127 1118
3 1056 1129 1055
3 1055 1129 1128
3 1057 1130 1056
3 1056 1130 1129
3 1058 1131 1057
3 1057 1131 1130
3 1059 1131 1058
3 1132 1061 1062
3 1133 1132 1062
3 1133 1062 1052
3 1134 1133 1052
3 1119 1134 1052
3 1134 1119 1120
3 1134 1120 1135
3 1135 1120 1121
3 1136 1126 1127
3 1136 1127 1128
3 1136 1128 1137
3 1137 1128 1129
3 1137 1129 1138
3 1138 1129 1130
3 1138 1130 1139
3 1139 1130 1131
3 1139 1131 1140
3 1140 1131 1059
3 1063 1140 1059
3 1141 1140 1063
3 1063 1064 1141
3 1141 1064 1142
3 1144 1143 1132
3 1143 1061 1132
3 1143 1065 1061
3 1144 1132 1133
3 1066 1142 1064
3 1066 1145 1142
3 1143 1068 1065
3 1146 1068 1143
3 1069 1145 1066
3 1069 1147 1145
3 1148 1070 1071
3 1149 1148 1071
3 1068 1149 1071
3 1146 1149 1068
3 1072 1147 1069
3 1072 1150 1147
3 1151 1073 1148
3 1148 1073 1070
3 1148 1149 1152
3 1148 1152 1151
3 1074 1150 1072
3 1074 1153 1150
3 1154 1075 1151
3 1151 1075 1073
3 1151 1152 1155
3 1151 1155 1154
3 1076 1153 1074
3 1076 1156 1153
3 1157 1077 1154
3 1154 1077 1075
3 1154 1155 1158
3 1154 1158 1157
3 1078 1156 1076
3 1078 1159 1156
3 1160 1079 1157
3 1157 1079 1077
3 1157 1158 1161
3 1157 1161 1160
3 1080 1159 1078
3 1080 1162 1159
3 1163 1081 1160
3 1160 1081 1079
3 1160 1161 1164
3 1160 1164 1163
3 1082 1162 1080
3 1082 1165 1162
3 1163 1083 1081
3 1085 1083 1163
3 1164 1085 1163
3 1166 1085 1164
3 1169 1168 1167
3 1168 1165 1167
3 1165 1086 1167
3 1165 1082 1086
3 1166 1087 1085
3 1170 1087 1166
3 1169 1167 1171
3 1169 1171 1172
3 1088 1171 1086
3 1086 1171 1167
3 1174 1089 1173
3 1089 1170 1173
3 1089 1087 1170
3 1175 1174 1173
3 1178 1177 1176
3 1176 1177 1172
3 1176 1172 1171
3 1092 1176 1171
3 1091 1092 1171
3 1091 1171 1088
3 1174 1093 1089
3 1180 1179 1094
3 1180 1094 1093
3 1175 1180 1093
3 1174 1175 1093
3 1182 1181 1179
3 1182 1179 1180
3 1184 1183 1181
3 1184 1181 1182
3 1186 1185 1183
3 1186 1183 1184
3 1188 1187 1185
3 1188 1185 1186
3 1190 1189 1187
3 1190 1187 1188
3 1192 1191 1189
3 1192 1189 1190
3 1194 1193 1191
3 1194 1191 1192
3 1196 1195 1193
3 1196 1193 1194
3 1096 1097 1195
3 1196 1096 1195
3 1197 1096 1196
3 1176 1098 1178
3 1098 1197 1178
3 1098 1096 1197
3 1098 1176 1092
3 1179 1099 1094
3 1099 1179 1100
3 1100 1179 1181
3 1100 1181 1102
3 1102 1181 1183
3 1102 1183 1104
3 1104 1183 1185
3 1104 1185 1106
3 1106 1185 1187
3 1106 1187 1108
3 1108 1187 1189
3 1108 1189 1110
3 1110 1189 1191
3 1110 1191 1112
3 1112 1191 1193
3 1112 1193 1113
3 1113 1193 1195
3 1113 1195 1097
3 1198 1121 1122
3 1123 1199 1122
3 1122 1199 1198
3 1124 1200 1123
3 1123 1200 1199
3 1125 1201 1124
3 1124 1201 1200
3 1126 1201 1125
3 1202 1133 1134
3 1135 1203 1134
3 1134 1203 1202
3 1121 1198 1135
3 1198 1203 1135
3 1198 1204 1203
3 1199 1206 1205
3 1204 1199 1205
3 1198 1199 1204
3 1208 1207 1206
3 1199 1208 1206
3 1200 1208 1199
3 1209 1200 1201
3 1208 1200 1209
3 1136 1210 1126
3 1210 1201 1126
3 1210 1209 1201
3 1137 1211 1136
3 1136 1211 1210
3 1138 1212 1137
3 1137 1212 1211
3 1139 1213 1138
3 1138 1213 1212
3 1140 1214 1139
3 1139 1214 1213
3 1141 1215 1140
3 1140 1215 1214
3 1142 1215 1141
3 1216 1143 1144
3 1217 1216 1144
3 1217 1144 1133
3 1218 1217 1133
3 1202 1218 1133
3 1218 1202 1203
3 1218 1203 1219
3 1219 1203 1204
3 1219 1204 1220
3 1220 1204 1205
3 1221 1207 1208
3 1221 1208 1209
3 1221 1209 1222
3 1222 1209 1210
3 1222 1210 1223
3 1223 1210 1211
3 1223 1211 1224
3 1224 1211 1212
3 1224 1212 1225
3 1225 1212 1213
3 1225 1213 1226
3 1226 1213 1214
3 1226 1214 1227
3 1229 1228 1227
3 1214 1229 1227
3 1215 1229 1214
3 1145 1229 1142
3 1142 1229 1215
3 1230 1146 1216
3 1216 1146 1143
3 1216 1217 1231
3 1216 1231 1230
3 1228 1229 1232
3 1228 1232 1233
3 1147 1232 1145
3 1145 1232 1229
3 1234 1149 1230
3 1230 1149 1146
3 1230 1231 1235
3 1230 1235 1234
3 1233 1232 1236
3 1233 1236 1237
3 1150 1236 1147
3 1147 1236 1232
3 1239 1238 1234
3 1238 1149 1234
3 1238 1152 1149
3 1239 1234 1235
3 1237 1236 1240
3 1237 1240 1241
3 1153 1240 1150
3 1150 1240 1236
3 1238 1155 1152
3 1242 1155 1238
3 1243 1241 1240
3 1240 1153 1243
3 1153 1244 1243
3 1153 1156 1244
3 1242 1158 1155
3 1245 1158 1242
3 1159 1244 1156
3 1159 1246 1244
3 1245 1161 1158
3 1247 1161 1245
3 1162 1246 1159
3 1162 1248 1246
3 1247 1164 1161
3 1249 1164 1247
3 1252 1251 1250
3 1251 1248 1250
3 1248 1165 1250
3 1248 1162 1165
3 1254 1166 1253
3 1166 1249 1253
3 1166 1164 1249
3 1255 1254 1253
3 1258 1257 1256
3 1256 1257 1252
3 1256 1252 1250
3 1169 1256 1250
3 1168 1169 1250
3 1168 1250 1165
3 1259 1170 1254
3 1254 1170 1166
3 1254 1255 1260
3 1254 1260 1259
3 1258 1256 1261
3 1258 1261 1262
3 1172 1261 1169
3 1169 1261 1256
3 1259 1173 1170
3 1264 1263 1175
3 1264 1175 1173
3 1260 1264 1173
3 1259 1260 1173
3 1266 1265 1263
3 1266 1263 1264
3 1268 1267 1265
3 1268 1265 1266
3 1270 1269 1267
3 1270 1267 1268
3 1272 1271 1269
3 1272 1269 1270
3 1274 1273 1271
3 1274 1271 1272
3 1276 1275 1273
3 1276 1273 1274
3 1278 1277 1275
3 1278 1275 1276
3 1280 1279 1277
3 1280 1277 1278
3 1282 1281 1279
3 1282 1279 1280
3 1281 1282 1262
3 1281 1262 1261
3 1178 1281 1261
3 1177 1178 1261
3 1177 1261 1172
3 1263 1180 1175
3 1180 1263 1182
3 1182 1263 1265
3 1182 1265 1184
3 1184 1265 1267
3 1184 1267 1186
3 1186 1267 1269
3 1186 1269 1188
3 1188 1269 1271
3 1188 1271 1190
3 1190 1271 1273
3 1190 1273 1192
3 1192 1273 1275
3 1192 1275 1194
3 1194 1275 1277
3 1194 1277 1196
3 1196 1277 1279
3 1196 1279 1197
3 1197 1279 1281
3 1197 1281 1178
3 1283 1205 1206
3 1207 1283 1206
3 1284 1217 1218
3 1219 1285 1218
3 1218 1285 1284
3 1220 1286 1219
3 1219 1286 1285
3 1205 1283 1220
3 1283 1286 1220
3 1283 1287 1286
3 1221 1288 1207
3 1288 1283 1207
3 1288 1287 1283
3 1222 1289 1221
3 1221 1289 1288
3 1223 1290 1222
3 1222 1290 1289
3 1224 1291 1223
3 1223 1291 1290
3 1225 1292 1224
3 1224 1292 1291
3 1226 1293 1225
3 1225 1293 1292
3 1227 1294 1226
3 1226 1294 1293
3 1228 1294 1227
3 1295 1231 1284
3 1284 1231 1217
3 1296 1284 1285
3 1295 1284 1296
3 1286 1298 1297
3 1296 1286 1297
3 1285 1286 1296
3 1298 1286 1287
3 1298 1287 1299
3 1299 1287 1288
3 1299 1288 1300
3 1300 1288 1289
3 1300 1289 1301
3 1301 1289 1290
3 1301 1290 1302
3 1304 1303 1302
3 1290 1304 1302
3 1291 1304 1290
3 1305 1291 1292
3 1304 1291 1305
3 1306 1292 1293
3 1305 1292 1306
3 1307 1293 1294
3 1306 1293 1307
3 1233 1307 1228
3 1228 1307 1294
3 1308 1235 1295
3 1295 1235 1231
3 1296 1310 1309
3 1308 1296 1309
3 1295 1296 1308
3 1310 1296 1297
3 1311 1303 1304
3 1311 1304 1305
3 1311 1305 1312
3 1312 1305 1306
3 1312 1306 1313
3 1313 1306 1307
3 1313 1307 1314
3 1307 1233 1314
3 1233 1315 1314
3 1233 1237 1315
3 1316 1238 1239
3 1317 1316 1239
3 1317 1239 1235
3 1318 1317 1235
3 1308 1318 1235
3 1318 1308 1309
3 1241 1315 1237
3 1241 1319 1315
3 1320 1242 1316
3 1316 1242 1238
3 1316 1317 1321
3 1316 1321 1320
3 1322 1319 1241
3 1322 1241 1243
3 1243 1244 1322
3 1322 1244 1323
3 1324 1245 1320
3 1320 1245 1242
3 1320 1321 1325
3 1320 1325 1324
3 1246 1323 1244
3 1246 1326 1323
3 1327 1247 1324
3 1324 1247 1245
3 1324 1325 1328
3 1324 1328 1327
3 1248 1326 1246
3 1248 1329 1326
3 1330 1249 1327
3 1327 1249 1247
3 1327 1328 1331
3 1327 1331 1330
3 1334 1333 1332
3 1251 1252 1332
3 1333 1251 1332
3 1335 1251 1333
3 1248 1251 1329
3 1329 1251 1335
3 1330 1253 1249
3 1337 1336 1255
3 1337 1255 1253
3 1331 1337 1253
3 1330 1331 1253
3 1338 1336 1337
3 1341 1340 1339
3 1343 1342 1339
3 1343 1339 1340
3 1342 1343 1334
3 1342 1334 1332
3 1258 1342 1332
3 1257 1258 1332
3 1257 1332 1252
3 1344 1260 1336
3 1336 1260 1255
3 1336 1338 1345
3 1346 1336 1345
3 1344 1336 1346
3 1348 1347 1346
3 1348 1346 1345
3 1350 1349 1347
3 1350 1347 1348
3 1352 1351 1349
3 1352 1349 1350
3 1354 1353 1351
3 1354 1351 1352
3 1356 1355 1353
3 1356 1353 1354
3 1358 1357 1355
3 1358 1355 1356
3 1357 1358 1341
3 1339 1357 1341
3 1359 1357 1339
3 1360 1339 1342
3 1359 1339 1360
3 1262 1360 1258
3 1258 1360 1342
3 1344 1264 1260
3 1264 1344 1266
3 1266 1344 1346
3 1266 1346 1268
3 1268 1346 1347
3 1268 1347 1270
3 1270 1347 1349
3 1270 1349 1272
3 1272 1349 1351
3 1272 1351 1274
3 1274 1351 1353
3 1274 1353 1276
3 1276 1353 1355
3 1276 1355 1278
3 1278 1355 1357
3 1278 1357 1280
3 1280 1357 1359
3 1280 1359 1282
3 1282 1359 1360
3 1282 1360 1262
3 1361 1297 1298
3 1299 1362 1298
3 1298 1362 1361
3 1300 1363 1299
3 1299 1363 1362
3 1301 1364 1300
3 1300 1364 1363
3 1302 1365 1301
3 1301 1365 1364
3 1303 1365 1302
3 1366 1309 1310
3 1297 1361 1310
3 1361 1366 1310
3 1361 1367 1366
3 1362 1369 1368
3 1367 1362 1368
3 1361 1362 1367
3 1371 1370 1369
3 1362 1371 1369
3 1363 1371 1362
3 1372 1363 1364
3 1371 1363 1372
3 1373 1364 1365
3 1372 1364 1373
3 1311 1374 1303
3 1374 1365 1303
3 1374 1373 1365
3 1312 1375 1311
3 1311 1375 1374
3 1313 1376 1312
3 1312 1376 1375
3 1314 1377 1313
3 1313 1377 1376
3 1315 1377 1314
3 1378 1317 1318
3 1379 1378 1318
3 1379 1318 1309
3 1380 1379 1309
3 1366 1380 1309
3 1380 1366 1367
3 1380 1367 1381
3 1381 1367 1368
3 1382 1370 1371
3 1382 1371 1372
3 1382 1372 1383
3 1383 1372 1373
3 1383 1373 1384
3 1386 1385 1384
3 1373 1386 1384
3 1374 1386 1373
3 1387 1374 1375
3 1386 1374 1387
3 1388 1375 1376
3 1387 1375 1388
3 1389 1376 1377
3 1388 1376 1389
3 1319 1389 1315
3 1315 1389 1377
3 1390 1321 1378
3 1378 1321 1317
3 1378 1379 1391
3 1378 1391 1390
3 1392 1385 1386
3 1392 1386 1387
3 1392 1387 1393
3 1393 1387 1388
3 1393 1388 1394
3 1394 1388 1389
3 1394 1389 1395
3 1395 1389 1319
3 1322 1395 1319
3 1396 1395 1322
3 1322 1323 1396
3 1396 1323 1397
3 1399 1398 1390
3 1398 1321 1390
3 1398 1325 1321
3 1399 1390 1391
3 1326 1397 1323
3 1326 1400 1397
3 1402 1328 1401
3 1328 1398 1401
3 1328 1325 1398
3 1403 1402 1401
3 1406 1405 1404
3 1408 1407 1404
3 1408 1404 1405
3 1410 1409 1407
3 1410 1407 1408
3 1412 1411 1409
3 1412 1409 1410
3 1412 1400 1411
3 1400 1329 1411
3 1400 1326 1329
3 1413 1331 1402
3 1402 1331 1328
3 1402 1403 1414
3 1415 1402 1414
3 1413 1402 1415
3 1416 1415 1414
3 1419 1418 1417
3 1417 1418 1406
3 1404 1417 1406
3 1420 1417 1404
3 1421 1404 1407
3 1420 1404 1421
3 1334 1421 1333
3 1421 1409 1333
3 1421 1407 1409
3 1333 1409 1335
3 1335 1409 1411
3 1335 1411 1329
3 1413 1337 1331
3 1337 1413 1338
3 1413 1422 1338
3 1413 1415 1422
3 1415 1416 1423
3 1424 1415 1423
3 1422 1415 1424
3 1426 1425 1424
3 1426 1424 1423
3 1428 1427 1425
3 1428 1425 1426
3 1430 1429 1427
3 1430 1427 1428
3 1432 1431 1429
3 1432 1429 1430
3 1431 1432 1419
3 1417 1431 1419
3 1433 1431 1417
3 1341 1433 1340
3 1433 1420 1340
3 1433 1417 1420
3 1340 1420 1343
3 1343 1420 1421
3 1343 1421 1334
3 1422 1345 1338
3 1345 1422 1348
3 1348 1422 1424
3 1348 1424 1350
3 1350 1424 1425
3 1350 1425 1352
3 1352 1425 1427
3 1352 1427 1354
3 1354 1427 1429
3 1354 1429 1356
3 1356 1429 1431
3 1356 1431 1358
3 1358 1431 1433
3 1358 1433 1341
3 1434 1368 1369
3 1370 1434 1369
3 1435 1379 1380
3 1381 1436 1380
3 1380 1436 1435
3 1368 1434 1381
3 1434 1436 1381
3 1434 1437 1436
3 1382 1438 1370
3 1438 1434 1370
3 1438 1437 1434
3 1383 1439 1382
3 1382 1439 1438
3 1384 1440 1383
3 1383 1440 1439
3 1385 1440 1384
3 1441 1391 1435
3 1435 1391 1379
3 1442 1435 1436
3 1441 1435 1442
3 1443 1436 1437
3 1442 1436 1443
3 1444 1437 1438
3 1443 1437 1444
3 1445 1438 1439
3 1444 1438 1445
3 1446 1439 1440
3 1445 1439 1446
3 1392 1447 1385
3 1447 1440 1385
3 1447 1446 1440
3 1393 1448 1392
3 1392 1448 1447
3 1394 1449 1393
3 1393 1449 1448
3 1395 1450 1394
3 1394 1450 1449
3 1396 1451 1395
3 1395 1451 1450
3 1397 1451 1396
3 1452 1398 1399
3 1391 1441 1399
3 1441 1452 1399
3 1441 1453 1452
3 1454 1441 1442
3 1453 1441 1454
3 1455 1442 1443
3 1454 1442 1455
3 1456 1443 1444
3 1455 1443 1456
3 1457 1444 1445
3 1456 1444 1457
3 1458 1445 1446
3 1457 1445 1458
3 1459 1446 1447
3 1458 1446 1459
3 1460 1447 1448
3 1459 1447 1460
3 1461 1448 1449
3 1460 1448 1461
3 1462 1449 1450
3 1461 1449 1462
3 1463 1450 1451
3 1462 1450 1463
3 1400 1463 1397
3 1397 1463 1451
3 1452 1401 1398
3 1401 1452 1403
3 1452 1464 1403
3 1452 1453 1464
3 1465 1453 1454
3 1464 1453 1465
3 1466 1454 1455
3 1465 1454 1466
3 1467 1455 1456
3 1466 1455 1467
3 1468 1456 1457
3 1467 1456 1468
3 1469 1457 1458
3 1468 1457 1469
3 1470 1458 1459
3 1469 1458 1470
3 1406 1470 1405
3 1470 1460 1405
3 1470 1459 1460
3 1405 1460 1408
3 1408 1460 1461
3 1408 1461 1410
3 1410 1461 1462
3 1410 1462 1412
3 1412 1462 1463
3 1412 1463 1400
3 1464 1414 1403
3 1414 1464 1416
3 1464 1471 1416
3 1464 1465 1471
3 1472 1465 1466
3 1471 1465 1472
3 1473 1466 1467
3 1472 1466 1473
3 1474 1467 1468
3 1473 1467 1474
3 1475 1468 1469
3 1474 1468 1475
3 1419 1475 1418
3 1475 1470 1418
3 1475 1469 1470
3 1418 1470 1406
3 1471 1423 1416
3 1423 1471 1426
3 1426 1471 1472
3 1426 1472 1428
3 1428 1472 1473
3 1428 1473 1430
3 1430 1473 1474
3 1430 1474 1432
3 1432 1474 1475
3 1432 1475 1419
