ply
format ascii 1.0
element vertex 970
property float x
property float y
property float z
element face 98
property list uchar int vertex_indices
end_header
0.88891552 -1.71771031 -6.82835986
-1.74630213 -1.74630213 -4.00419219
-3.82988972 -3.82988972 -1.42108890
-9.50016363 3.76292536 -3.42003320
-6.76041989 4.12758357 -0.02375108
-6.05561784 1.02649240 -1.03987149
4.24587376 -2.19634210 0.64397638
5.09942584 -3.36911487 -0.57272006
3.69299318 -2.12009161 -1.84031573
0.18779231 -5.30778497 -8.86702932
-3.52695886 -1.47328392 -2.58867616
3.15119076 -3.23732099 -5.32805912
-3.23732099 3.15119076 -5.32805912
-2.23906830 -1.25947107 -3.87972921
-0.25954878 -0.92816146 -4.52706808
-3.05090975 -1.21213545 -3.29579620
-3.03892298 -1.22165804 -3.30407899
-2.99633237 -1.13416807 -3.40527390
-3.15275208 -1.12395489 -3.26800116
-3.01389865 -1.33176372 -3.26800116
-0.09577148 0.80963653 -7.06051134
-1.02911188 -0.06922243 0.34425486
-1.02911188 -7.47398864 -7.06051134
0.12250876 -2.50113833 0.15616061
2.20998212 1.38798492 -3.83752909
1.12761580 7.03851327 1.43113619
1.15353690 -3.64073469 -2.64572700
-1.24144052 -2.26960182 -3.86599107
-1.25947107 -2.23906830 -3.87972921
-1.27834997 -2.80383279 -3.45063919
-6.08902673 -1.71900833 -4.23224352
2.66788688 -1.30748319 3.10243180
0.26627930 4.49051040 3.10243180
-1.07308699 -1.15998655 1.57725110
-1.84326501 -1.46147752 1.12240228
0.14517327 -3.37141449 1.88570165
-0.03594783 -4.28536134 1.79682466
-1.94451747 -8.54953909 4.39058218
0.40659003 -6.57057068 3.42872352
8.15408925 -1.32066610 -2.37631006
1.08395583 0.43462998 -0.63115335
5.62399824 -2.18362743 0.04781053
6.31289702 -0.88806012 -0.29936788
6.14682070 -1.01999528 -0.18461008
3.27370630 -1.58483452 2.81669500
3.27846946 -1.58148633 2.81314591
-1.26807700 -3.69127145 2.34977093
5.42158242 2.99838797 2.34977093
6.04208421 -4.31177324 -1.74136973
4.75146685 5.38749158 4.57570453
-2.11924975 -3.88153476 -9.89423924
0.06516967 -0.48586109 -9.73728092
4.01493444 1.42451593 -1.77826559
3.68085024 1.15388625 -2.59677864
-4.97684187 -2.90013876 5.13839414
4.39379579 -2.90013876 -4.23224352
-3.64073469 -1.15353690 -2.64572700
-3.28181226 -0.05131015 -3.29579620
-3.85710101 -0.04108268 -2.59677864
-4.44122180 0.57907643 -3.65723146
-3.96692913 -2.93885809 2.16607291
-1.18694121 -1.18694121 -4.33204096
-1.24654811 -1.24654811 -4.30646977
-0.92816146 -0.25954878 -4.52706808
0.25954878 0.92816146 -4.52706808
1.20934922 1.33833826 -4.28329959
-1.23824596 2.18484741 -3.91175078
-2.26960182 -1.24144052 -3.86599107
-2.99394425 -1.21119891 -3.34269946
4.03321153 -3.19583653 -2.63208282
3.09268176 -2.31829008 -2.56538328
2.42485682 -2.26521120 -3.24223711
2.37563611 -2.28699113 -3.26800116
0.92816146 0.25954878 -4.52706808
1.18694121 1.18694121 -4.33204096
1.24654811 1.24654811 -4.30646977
-6.10213343 2.24920464 7.74897106
-0.60358396 2.24648382 5.76881577
0.24698215 2.13450466 5.76881577
-0.52933881 2.01955540 6.43610387
-7.41191039 -1.46616632 -3.61745040
-3.01104614 3.01104614 -1.83755539
0.14752894 -1.24667170 -8.00495988
-1.28921338 -4.12565419 -6.85429320
-1.20037175 -3.98040012 -6.72805725
-0.17832189 0.18500081 -8.17417237
1.06479275 7.70668727 -6.86997447
-2.47556212 0.88238230 -5.94561526
-0.99703946 2.55793913 -3.99531996
-0.88779009 2.65847983 -3.89389502
3.67642463 1.15869520 -2.60124317
3.65343122 1.25068963 -2.57352065
3.01389865 1.33176372 -3.26800116
2.37563611 2.28699113 -3.26800116
3.09464493 2.24004454 -2.63700450
3.69109951 2.07847697 -1.87541119
3.48638177 1.98625750 -2.32103618
4.44187672 -0.77531387 -4.20320219
3.17654225 2.18663692 -2.57352065
3.09774533 2.24202596 -2.63223320
0.96621909 6.44896357 -2.34747713
1.64162372 3.01214208 -6.42494033
1.57450540 2.48747688 -7.25745807
1.31916750 7.93267305 -1.77826559
0.12555267 7.34482422 -6.42494033
2.86441366 2.86684781 -2.53326571
1.47759085 -4.64745887 -1.94220842
1.13029331 -3.15393036 -3.22460954
1.21213545 -3.05090975 -3.29579620
0.05131015 -3.28181226 -3.29579620
-0.04108268 -3.85710101 -2.59677864
-1.20934922 -1.33833826 -4.28329959
-0.12136665 -1.78899540 -4.28329959
-1.23824596 -2.18484741 -3.91175078
-1.15353690 -3.64073469 -2.64572700
-0.77437193 -3.14058015 -3.45063919
-1.25358094 -3.18318189 -3.11772532
-2.20842600 -2.29151840 -4.34417037
-1.25068963 -3.65343122 -2.57352065
-1.07670486 -4.12098759 -1.84800318
-1.15388625 -3.68085024 -2.59677864
-1.15869520 -3.67642463 -2.60124317
2.88067018 -2.91364925 7.40208130
-8.99612314 1.22894270 -3.42003320
-8.21262605 3.63500973 -2.00098755
-3.85710101 -0.04108268 2.59677864
-1.08420549 2.76392925 7.64168410
-1.08420549 -5.49968635 -0.62193150
-0.74273372 -5.94674547 1.66430611
-0.04261065 -6.48048067 7.64168410
-8.22140771 0.52287062 -2.89950212
-5.59587712 7.79392140 0.44216446
-3.59585895 0.32975198 0.44216446
-1.41830446 -1.24190193 3.45311871
-1.07670486 -4.12098759 1.84800318
-1.15388625 -3.68085024 2.59677864
-0.04108268 -3.85710101 2.59677864
2.32718304 -6.88443042 -0.63497657
2.52568280 -5.51102355 1.07683340
-7.30949302 -2.04870853 -4.31451622
-2.42024684 -2.36794443 -0.02375108
-0.86411521 -8.14812920 -3.98969839
-0.04276019 -6.25295295 -1.43915759
0.26067823 -6.38812536 -1.28117328
-7.37134985 -7.37186467 -0.72770109
-1.04852675 -0.21629713 -0.30789715
-0.25540807 2.10034415 7.08182258
-0.77229738 2.82881401 3.82603154
-3.96859829 -5.79032512 -5.56374724
-4.43122612 -1.86448702 -1.43915759
-3.57930710 -2.36235950 -0.67905276
-5.66649387 -0.11119768 -1.26109136
-5.00518213 -0.57605619 -0.76833992
6.68178334 5.67669611 0.46954650
4.63355061 -1.96741251 0.46954650
9.37060776 -1.76963836 -2.95267785
1.97788178 -4.49373386 1.30218523
0.12387041 4.27611387 8.53805462
5.79437831 -3.06160179 -0.93648542
5.60391503 -3.07403780 -0.76933630
5.62530448 -3.31463866 -0.93648542
0.60697390 5.19190206 3.64716671
3.06120147 -1.73259476 1.34361565
-2.18703783 -1.55343895 3.64716671
-0.03034584 5.44750254 8.53805462
3.30101186 0.17273618 3.60472143
2.73559098 2.26263691 3.05392928
0.28217706 5.34525308 7.61907405
3.85710101 0.04108268 2.59677864
3.90148904 0.21528338 2.47082807
3.82745409 0.22826597 2.59677864
-3.60203457 1.06293373 0.07899266
-0.15420327 4.64420391 0.02235716
3.19017378 1.79134560 -0.19093919
-1.88661360 3.05680040 4.56883604
1.25815206 5.28304755 0.35065897
-0.26898274 4.93741542 -0.15080659
0.37721275 6.99493419 -2.81339755
-4.43154722 5.87728993 1.32851482
-4.83910571 8.56714880 -1.55308121
-1.86284037 -5.32700756 -6.29406886
-1.56515855 -5.51378543 -1.60247939
0.86575177 -2.94365425 -5.39149750
4.12098759 1.07670486 -1.84800318
3.19185531 1.01087058 -3.60250270
0.17831630 5.78241289 -8.06518529
3.85710101 0.04108268 -2.59677864
2.95005498 -1.32801217 4.60226017
0.72047818 -2.03342981 6.75223024
-0.62603771 -2.21734499 5.80433536
-3.21515582 -1.23370826 -3.39043152
-3.67642463 -1.15869520 -2.60124317
-3.68085024 -1.15388625 -2.59677864
-4.12098759 -1.07670486 -1.84800318
0.17216499 -4.87072697 -0.99523852
-4.03179888 -2.89526731 -0.00699375
-0.55745513 -3.30469023 -3.65723146
-0.52770185 -3.62053181 -3.18324804
-1.15976254 -3.03638095 -3.34364190
-0.43323517 -4.06994507 -2.57352065
0.32069663 -4.23943610 -3.23516547
-0.60755781 -3.79780383 -2.79736626
-2.44800037 -3.62312255 0.23738242
-2.98440889 -1.84787733 -3.00135669
-3.22124195 -1.52161104 -3.23516547
-3.28181226 0.05131015 -3.29579620
-2.18484741 1.23824596 -3.91175078
-2.18484741 -1.23824596 -3.91175078
-1.78899540 -0.12136665 -4.28329959
-1.33833826 -1.20934922 -4.28329959
-0.07258145 2.58279667 -3.86599107
1.04827592 -2.43524598 -4.79025071
2.23333514 -3.15274832 -2.57352065
1.12311404 -3.43024093 -2.90808576
0.82581883 -3.70383762 -2.63208282
3.15256802 -2.23368899 -2.57352065
3.12024855 -2.25640745 -2.59760229
3.09464493 -2.24004454 -2.63700450
3.65343122 -1.25068963 -2.57352065
3.01389865 -1.33176372 -3.26800116
3.67642463 -1.15869520 -2.60124317
3.64073469 -1.15353690 -2.64572700
1.62983356 -3.04039710 -3.06092746
2.24004454 -3.09464493 -2.63700450
2.27158470 -2.61159269 -3.06092746
2.99394425 -1.21119891 -3.34269946
3.28181226 -0.05131015 -3.29579620
3.03892298 -1.22165804 -3.30407899
3.05090975 -1.21213545 -3.29579620
-0.22489699 0.22489699 -4.93771530
2.26960182 1.24144052 -3.86599107
2.23906830 1.25947107 -3.87972921
0.57653458 3.88967187 -5.00311584
-0.32333288 0.21677518 -6.53055018
-1.32505535 -1.90505381 9.85831592
-0.35014773 -2.34422175 7.73615880
-0.08451390 -8.18171281 2.81314591
1.49944178 1.26211805 7.08346074
1.06479275 0.33450223 0.50221057
0.07135464 -2.62517811 -0.55983467
1.09307965 2.57390741 -6.72805725
0.42104978 0.20329377 -6.20510339
0.13555907 -0.54048972 -6.86997447
-0.12305427 5.88101360 -8.95137220
1.12761580 -2.23602287 -7.84339994
0.02960323 6.91200076 -8.06518529
0.83664930 5.85172324 -5.79853293
2.28622677 2.28622677 -3.33482695
1.38798492 2.20998212 -3.83752909
2.28699113 2.37563611 -3.26800116
2.31418357 2.31418357 -3.30016783
0.12136665 1.78899540 -4.28329959
1.23824596 2.18484741 -3.91175078
1.25947107 2.23906830 -3.87972921
1.24144052 2.26960182 -3.86599107
-2.23368899 3.15256802 -2.57352065
-5.71513942 1.37868043 -2.57352065
-2.63601239 1.23856539 -5.17028386
-4.79412386 -0.11086625 -4.51254462
-0.30144113 0.09980609 -9.03327678
-1.21213545 3.05090975 -3.29579620
-1.15353690 3.64073469 -2.64572700
-0.05131015 3.28181226 -3.29579620
-0.54760589 2.61807959 4.46981903
3.12074305 1.21003604 7.74897106
2.14223334 2.24920464 -0.49539572
-1.36719906 1.69246641 -2.50618726
3.64073469 1.15353690 -2.64572700
2.79912348 0.90777756 4.41724749
3.40634460 0.64329443 3.05392928
4.95239945 -1.09512380 -3.77432984
4.09951551 2.12994729 -1.15085775
1.19425436 2.47230850 -4.20320219
0.92601875 2.37973949 -4.68589227
1.59153919 3.59561053 5.30410576
1.10264304 5.32021228 4.92366117
-1.21119891 -2.99394425 -3.34269946
-0.05131015 -3.28181226 -3.29579620
-0.07258145 -2.58279667 -3.86599107
-1.21213545 -3.05090975 -3.29579620
-1.22165804 -3.03892298 -3.30407899
-0.35891529 -3.05761081 -4.34417037
-3.82302214 -1.09737195 -6.82835986
-0.98927465 -2.88706762 -4.17803952
0.03913840 -3.72613104 -2.58674681
-1.90635006 -2.98504800 -2.78707441
-3.41172134 -2.35450242 -3.13173956
-3.39961093 -2.75130232 -1.82816380
-2.12393642 -3.72486865 -0.07753672
-5.01117256 -1.95895081 -2.58674681
-1.69473411 -4.44152621 0.00270910
-1.00657278 -5.03686870 2.07898422
-2.25014548 -3.05773409 2.07898422
-3.33176499 -2.22909590 -1.09661552
-3.44478493 -2.08048148 -1.18967156
0.00702060 -3.00650829 9.09564403
-1.08032722 3.24332357 -7.86276254
0.02477525 -6.56473220 -7.86276254
-1.08032722 -5.52413735 0.90469837
-0.69366992 -6.01646148 -1.73087036
-2.99541520 6.26091233 4.87426097
-8.92111873 0.33520881 4.87426097
-0.70193183 -1.95827457 3.14579701
0.02294666 -3.05917877 2.07010065
-0.14623875 1.89698466 4.24545410
-6.51618693 -0.74153427 4.24545410
2.48439877 -2.73703049 2.86714822
3.55459755 -1.66683171 3.32626028
0.82424569 -2.22145105 2.40311193
0.63058473 -6.85998943 -0.94793884
-6.66088487 -4.22708574 2.40311193
-4.49645473 -6.67006067 0.04488580
0.55472643 -5.67260983 0.24125350
-2.04744231 -5.79102098 -1.95326982
0.89472973 -7.29013251 -1.95326982
-2.01210472 3.77634635 1.83952000
0.00710136 2.81379077 5.90291988
-0.43731359 2.20155522 6.34165982
-1.19535892 1.89111055 5.90291988
-9.36336840 0.58499869 -3.66141199
-3.64073469 1.15353690 2.64572700
-0.17154209 2.46251554 0.40705332
-1.04852675 -7.22989652 6.70570224
-0.16449132 0.61613491 6.70570224
1.32865879 4.67719154 4.48635773
-2.03968753 2.03968753 -4.61455370
-1.02968691 3.43108600 -3.61745040
-0.37555540 2.36514915 -8.11429220
-2.42299186 -0.35563019 -9.87463873
-3.23268511 0.78549832 -4.77452933
2.10105730 4.84176185 -8.11429220
-6.91771849 0.15180977 -2.95865123
-1.90843214 -2.50238006 4.21395310
-5.15355774 0.94651363 0.88153448
-3.81295841 0.13215483 2.72203281
-6.82612228 2.16470122 -1.26109136
-7.22914428 3.77715326 -0.77517898
-3.88658401 0.14506563 2.59677864
-1.51795519 -5.12735909 -1.44945069
-2.26983144 -4.09155827 -0.70717561
-2.23058767 -4.12004489 -0.67905276
-2.60650588 -3.26308232 0.57856028
-3.27346179 -3.73632411 -2.40230306
-5.63825196 1.68509342 2.79146821
-7.80512652 -2.68893004 4.39058218
0.32377176 -0.42064082 2.68110557
2.14051559 -3.11363102 2.75215788
0.35358364 -3.03057370 5.10454481
1.07021355 -2.04332899 5.81202363
2.03419417 -1.74099588 5.10454481
3.52061842 -2.95099722 1.30218523
-2.26579258 -3.88236292 8.92574364
-2.49460189 -4.91025473 7.63654387
-3.27479794 -5.19732430 8.92574364
3.64073469 -1.15353690 2.64572700
1.74076886 -0.87893309 5.01383840
4.13675625 1.72459099 2.59677864
5.26680871 -6.14710119 -0.29936788
3.08065703 -4.94335706 2.59677864
8.68279877 -3.97866833 -2.37631006
7.52515719 -3.72608834 -1.18180167
7.24118154 1.05277762 -3.67888350
7.33224582 -3.84449218 -0.88781270
7.54699379 -3.81345446 -1.15547389
5.51230016 -9.11302672 1.06379979
0.65020988 2.81385629 0.85588451
-4.90449273 6.52538991 0.85588451
-2.84528477 6.05738239 0.18115322
0.03040945 -0.76389155 2.39607209
6.98120684 2.11522300 2.39607209
9.71127400 -2.34144338 4.09102084
1.57373890 0.88625163 2.35073710
0.86142458 0.12802018 2.22993093
0.52728089 0.46216388 2.08658429
-1.18169410 -5.76595210 2.35073710
3.33088814 -8.72182923 4.09102084
-1.86430907 3.37158871 3.97441483
-2.41231517 3.19902852 4.70738439
-0.09445930 5.23295913 -0.28378243
-2.63069373 -5.55327926 -7.70994689
-0.14320499 -3.06579052 -7.70994689
-1.09947607 -4.59700818 -4.58510780
2.97553149 -1.41463546 4.28500886
5.36611414 -6.13324227 -3.41834131
3.37409947 -3.01626688 1.37846989
3.08596524 -3.42616911 1.07304672
0.37680209 -5.68969181 0.04781053
0.10482062 -8.16839209 -2.66884565
0.35937089 -5.69365349 0.05352213
0.34944184 -5.70615191 0.04488580
-0.65711829 -3.23570544 2.45879523
4.48505356 -0.38916227 5.93628126
3.30456911 -1.49691672 0.56336763
-1.22416459 -2.38690410 5.93628126
-8.74262888 -2.67601166 -4.59100847
-3.85710101 0.04108268 -2.59677864
-4.12098759 1.07670486 -1.84800318
-3.68085024 1.15388625 -2.59677864
-3.54729875 -1.45898632 -2.57352065
-3.65343122 -1.25068963 -2.57352065
-3.66181436 -1.43491513 -2.41815519
-2.61106908 -1.87572685 -4.01076804
-3.74503116 -0.11997820 -3.91570791
-3.28320955 -2.19464315 -1.31362707
-1.70848602 -2.77405549 -3.91570791
-1.25947107 2.23906830 -3.87972921
-1.24144052 2.26960182 -3.86599107
-1.33176372 3.01389865 -3.26800116
-1.22165804 3.03892298 -3.30407899
-1.21119891 2.99394425 -3.34269946
-2.23906830 1.25947107 -3.87972921
-2.26960182 1.24144052 -3.86599107
-2.99394425 1.21119891 -3.34269946
-2.24004454 3.09464493 -2.63700450
-2.28699113 2.37563611 -3.26800116
-2.31418357 2.31418357 -3.30016783
-2.37563611 2.28699113 -3.26800116
-3.09268176 2.31829008 -2.56538328
-2.25640745 3.12024855 -2.59760229
-2.31829008 3.09268176 -2.56538328
-3.69299318 2.12009161 -1.84031573
-0.92816146 0.25954878 -4.52706808
-1.78899540 0.12136665 -4.28329959
-1.33833826 1.20934922 -4.28329959
-1.20934922 1.33833826 -4.28329959
-1.24654811 1.24654811 -4.30646977
-1.18694121 1.18694121 -4.33204096
-0.12136665 1.78899540 -4.28329959
-0.25954878 0.92816146 -4.52706808
2.23364810 -3.15276256 -2.57325672
3.01104614 -3.01104614 -1.83755539
2.06971256 -2.06971256 -4.52871570
2.31829008 -3.09268176 -2.56538328
2.23368899 -3.15256802 -2.57352065
2.25640745 -3.12024855 -2.59760229
2.36761211 1.27553768 -4.28329959
5.05120368 -4.89155806 0.01374562
4.58865116 0.55779524 -3.03599161
-0.39814962 -4.42900554 -3.03599161
0.63259488 2.34080164 -5.47182384
1.33833826 1.20934922 -4.28329959
2.18484741 1.23824596 -3.91175078
1.78899540 0.12136665 -4.28329959
-3.25644253 1.17167753 1.71273739
-1.85776462 0.99446525 8.39290048
-0.43220761 1.74241310 6.45674563
-0.08361969 2.70831220 -0.79894546
-1.13803611 -2.65712474 -7.16452825
1.22879722 4.10689628 -7.16452825
0.32662686 0.23661209 -8.66581220
-2.51778936 1.69263875 -4.27193659
1.08395583 7.19873372 6.13295039
0.23136830 -0.36818985 6.13295039
2.32211853 2.11452140 0.39436120
3.25120188 1.24267914 4.62303584
-1.24215640 2.81497320 4.62303584
-1.13253947 -0.12504687 -8.81424128
-2.17783381 -0.78521816 -9.79187420
-1.20257489 0.86337693 -6.94778038
-5.42636635 1.93963997 -3.89389502
-0.78810856 2.13043048 -0.61941376
0.74340450 1.90662773 -4.24745762
-1.37902603 1.30495368 -3.77925258
-1.83971552 1.12812458 -4.19106479
2.24004454 3.09464493 -2.63700450
1.33176372 3.01389865 -3.26800116
0.40904718 4.08226947 -2.57352065
1.69870472 2.24759149 -3.94056161
1.21119891 2.99394425 -3.34269946
1.22165804 3.03892298 -3.30407899
1.21213545 3.05090975 -3.29579620
0.07258145 2.58279667 -3.86599107
2.32570767 1.49682872 -4.69648861
4.16159382 0.87977502 -4.61230705
2.45179414 1.92553838 -3.12637157
-0.53651885 2.52371575 -4.61230705
2.88220179 1.55456483 -3.85814234
3.28181226 0.05131015 -3.29579620
2.58279667 0.07258145 -3.86599107
2.99394425 1.21119891 -3.34269946
3.03892298 1.22165804 -3.30407899
3.05090975 1.21213545 -3.29579620
6.30022985 -2.43230381 0.08219929
5.78617161 -1.35181927 -0.42739728
7.61089745 -1.84188561 -2.77083268
4.86448637 -0.51407866 0.02370184
6.43966646 -1.59569283 -1.18180167
4.84786166 -0.47675910 0.00427152
1.15785134 3.19255636 0.02370184
-1.34133284 4.30586547 1.32489464
-1.33791758 4.30100690 1.32851482
-1.69542363 6.00179667 -0.97897850
4.47373650 2.80180649 -3.46005506
3.83139071 0.92919347 -3.30770401
2.85005574 2.49097912 -3.30770401
3.39310142 2.02117917 -1.66926230
4.60344584 0.82269414 -3.26445581
3.41405245 1.79723706 0.78878272
0.50630907 3.61955833 -3.20128951
2.92261884 0.12639329 -7.77335721
0.12045411 2.76300007 -5.06582641
1.25068963 3.65343122 -2.57352065
-0.73207014 1.64021503 -7.77335721
1.07670486 4.12098759 -1.84800318
0.87021243 1.20671883 -7.35107655
1.12374596 7.05320262 -1.14904455
1.12374596 -1.47325242 7.37741049
1.12637496 5.96261594 2.49587802
3.74847450 1.50792168 -0.22021350
4.01838477 0.83544768 0.78878272
0.54739175 6.57961248 5.30410576
3.83085844 1.21121794 0.63859553
-5.52307183 -2.91364925 -1.00166071
-6.52049751 -1.85439205 7.40208130
-1.48633253 -5.21330298 -1.59146479
-1.37310327 -5.23850788 -1.44945069
0.37551465 -6.07044152 -0.62473765
-2.11147863 -3.73038517 1.77826559
-1.78354566 -4.19434125 -0.42439023
-2.60803800 -2.14014130 -3.50656144
-0.76198979 -5.07811019 -3.50656144
-0.96734528 -4.07128720 5.48809626
-0.15431460 -4.09610107 8.15908255
-1.43660627 -2.41594932 5.85326135
-1.85942326 -2.52372652 4.32398665
-1.85429554 -2.63307736 4.21395310
0.12091944 -6.86710206 5.85326135
-2.43252389 -2.69227938 2.22504852
0.16418713 -4.20030665 9.09564403
-2.62519611 0.21631450 4.96490870
7.83511934 -1.19715714 4.00658340
2.31966344 -3.15198279 2.17177365
2.46236348 1.02831120 4.00658340
2.34124174 -3.09685963 2.20432808
2.27533178 -2.98524554 2.25454730
5.55934343 -7.57708293 0.47277716
-1.28064784 -2.87221142 0.57275971
-1.19612648 -3.06322224 0.47277716
8.43686828 -4.63622427 2.25454730
-0.64565875 -6.54371999 -0.79355440
2.43474771 -6.80355216 -0.50393786
2.69428332 -7.20807578 -0.79355440
2.42074797 -6.86375707 -0.55563212
-3.59402920 0.90138837 2.84909622
1.18070685 2.82582969 7.62494022
0.96640434 3.67517423 5.92640636
0.55879302 3.00873885 5.34722741
-1.08578618 -2.18964934 5.92640636
-0.06988962 -0.62087411 7.47702811
-0.64604920 -0.63845862 5.58421598
2.73400688 4.50358134 8.61428995
1.74552598 3.21536796 8.61428995
1.96968101 4.22235112 7.35131416
0.77815856 4.18130441 2.99309184
2.05327052 4.97763319 5.59528211
-0.01817022 2.90619246 5.59528211
1.18032021 4.93244489 0.76381336
-0.21059358 1.46702150 5.96341830
2.90367903 6.42335797 5.96341830
-0.03863753 -1.82688540 6.03359869
-1.48413483 -5.42830210 0.62994609
-0.52671266 -3.66111412 5.75749135
-1.83344169 -5.37938414 4.68158367
-3.27512328 -6.97772297 6.03359869
1.19421510 -2.20425559 5.30403118
6.11661247 -1.94002602 -0.60308980
8.28445226 -1.43592756 -2.46448057
6.73373132 -4.65531582 0.28661684
3.40059193 -1.23202431 1.06379979
2.72256848 1.34781359 0.28661684
0.95230576 2.13114621 1.21324173
-8.01311542 6.86181603 0.36458461
-2.01211496 5.25385280 0.36458461
-2.16737738 8.97267517 -2.32202948
3.62443018 1.57438085 -0.02020700
1.22833909 2.53609772 -3.61535995
4.65528938 0.38280214 -3.61535995
4.44113590 0.72700766 -1.81558239
4.53238015 0.79175046 -1.40777935
3.10019454 1.31871663 -3.77432984
4.21163814 -0.14140495 -4.68589227
3.20917625 1.23960802 -3.69623143
3.49435367 1.80802666 -1.46464196
3.33077842 1.57749443 -2.49497252
-0.14010348 3.31690042 1.67575434
-0.20520941 3.09553220 2.48649887
0.22564141 2.10635113 4.70738439
-2.35597518 4.53544024 2.21295342
1.01424481 -2.26515692 -2.32139109
0.90451465 -0.40631441 -8.62152376
1.80938545 0.16517030 -9.46782270
3.12473930 -1.31255376 -2.68888289
4.95754623 -0.14834108 -4.76871947
3.85710101 -0.04108268 -2.59677864
3.68085024 -1.15388625 -2.59677864
4.12098759 -1.07670486 -1.84800318
3.04563972 -3.61801269 0.81276896
2.17081663 -1.67599550 5.04010859
3.34145398 -0.57452194 6.17121150
2.73701385 -3.60396873 1.07304672
1.10103202 -1.50253510 6.17121150
0.16988670 -3.83670046 2.59677864
-0.44010753 -4.39806976 2.03047218
0.04108268 -3.85710101 2.59677864
-5.03657923 -2.58724191 6.22316890
0.16095316 -3.88764517 2.51010990
-0.23827898 -1.95553370 6.22316890
0.01281566 -1.79695111 6.45801030
-1.53659581 -1.72720192 -6.81967060
-0.80366245 -6.23919243 -4.01076804
-0.97485656 -2.58840072 -7.68435295
0.27761041 -4.70118979 -9.38842931
-0.70199482 -4.67129203 -6.17020868
0.10029498 -4.64317673 -8.86702932
-2.23649472 -0.94317788 -5.40652966
-2.20394043 -2.94988277 -3.18292539
0.35550777 -7.13452329 -6.81967060
-1.38798492 2.20998212 -3.83752909
-2.20998212 1.38798492 -3.83752909
-2.28622677 2.28622677 -3.33482695
-3.05090975 1.21213545 -3.29579620
-3.03892298 1.22165804 -3.30407899
-3.01389865 1.33176372 -3.26800116
-3.65343122 1.25068963 -2.57352065
-3.09464493 2.24004454 -2.63700450
-3.64073469 1.15353690 -2.64572700
-3.67642463 1.15869520 -2.60124317
-3.12024855 2.25640745 -2.59760229
-3.15256802 2.23368899 -2.57352065
0.92816146 -0.25954878 -4.52706808
0.25954878 -0.92816146 -4.52706808
1.18694121 -1.18694121 -4.33204096
2.58279667 -0.07258145 -3.86599107
1.28074516 1.31263936 -4.76034596
1.78899540 -0.12136665 -4.28329959
2.26960182 -1.24144052 -3.86599107
4.47636958 0.06169231 -2.87308620
-1.33672684 -3.63122650 -3.23562689
0.86152715 -4.36560259 -2.52825674
-7.98686410 -1.22949517 -5.47182384
1.55233894 -2.85710366 -3.23562689
0.78180589 -4.16194953 -2.64852939
-4.22643585 -0.11085240 -5.61513078
-3.41332348 0.44664156 6.06004283
-2.59448477 1.39314403 3.20431781
-0.69120628 2.15706116 6.06004283
-0.29739557 1.76016144 6.45674563
1.55855163 2.11792086 7.42527194
-2.10084002 0.94207292 7.07783336
-0.31334215 1.58726984 7.01233495
-0.30916319 1.72419400 6.56250868
-4.51154518 -0.00609788 7.42527194
-2.23202625 1.38812239 5.44421060
0.04108268 3.85710101 2.59677864
-4.17721379 1.90486134 5.78968703
8.27283851 5.95902093 -1.55308121
-3.63195979 5.67743820 1.08755917
-2.00631143 4.18137638 2.59677864
1.30380889 4.22953868 -7.27111307
1.39816274 4.69748175 -6.65388463
-0.38566422 0.63023470 -9.03963554
0.63358321 0.67969296 5.19624368
0.31288302 0.66990512 6.24981500
1.00527568 1.99085377 5.48548382
-1.29812564 -3.40128923 6.86891074
-0.88497533 -3.52279959 5.35577868
-0.97625848 -3.67204551 5.48548382
-3.72888214 1.02773334 1.05848692
-1.23758159 1.76716921 -5.61513078
-3.32736010 0.92839674 -2.47957663
-4.82058083 -0.02090927 -4.18308391
-4.89465278 -0.06621384 -4.24745762
-0.93180401 2.09231852 3.45848168
6.71774246 2.09231852 -4.19106479
2.91021424 2.14945392 2.84301072
-4.61429958 2.14945392 -4.68150311
3.80328584 1.20101982 -4.68150311
1.15353690 3.64073469 -2.64572700
1.15388625 3.68085024 -2.59677864
1.15869520 3.67642463 -2.60124317
0.05131015 3.28181226 -3.29579620
0.04108268 3.85710101 -2.59677864
-3.75397881 0.49106322 -9.82893313
3.51956005 -0.46651633 -9.82893313
2.88465938 1.47404146 -4.12267950
-0.98561752 -4.42597823 0.98053433
-0.99942490 -3.97357723 2.46677204
-5.14959896 -2.79707133 1.55124979
-1.15645848 -4.12596747 1.77826559
-1.95549759 -4.08849867 0.97423780
-1.07855119 -4.14704522 1.79879801
-1.07644125 -4.14837778 1.79682466
-1.18283438 -4.78557260 0.32021447
-1.82639990 2.16843769 2.67020643
3.76000128 -3.41796349 2.67020643
-2.34456857 -3.93613216 -0.74622355
-4.84301651 5.10121247 -2.54386111
-4.17756650 3.52116444 -0.43557160
-1.75692280 5.94180814 -0.43557160
-4.18838851 0.48359300 2.40623185
-6.12085198 5.90939286 -3.77900966
-4.98708638 4.77562726 -2.37343705
-6.45058183 4.12803766 -3.13948793
-5.49450667 -1.46961118 0.35065897
-9.22151686 -0.01895967 -3.13948793
-5.01612364 1.41795922 -0.72770109
-4.81395055 1.53734577 -0.63673609
-9.02275261 0.85559235 -3.42604841
-0.88307721 1.47123054 6.52709555
-2.29944812 0.95967952 4.31750234
-1.08153313 5.83243956 2.84909622
0.59824774 0.80393610 9.75161061
-1.23329361 -4.79251843 3.44857308
2.71267770 -1.59479166 3.02569322
-2.36469792 -5.49909937 5.75749135
1.23638174 -2.76051042 3.50264827
3.36595884 -0.83965855 5.30403118
2.76788142 0.09171073 1.21240286
1.80033009 -0.28704325 1.78381565
-2.28161865 -0.08066084 3.42872352
-0.35933856 -0.50150410 2.79146821
-0.18565774 -0.93007032 2.89964930
-0.21913097 3.60577539 0.98870589
-0.54592508 2.77095889 1.48172866
4.53942027 0.85063476 0.26242103
5.42264300 -0.56361511 -2.62371553
3.12517040 1.73385749 -2.62371553
3.18790066 1.88053652 -2.18390005
4.17656227 0.73773435 1.26408752
0.88989209 2.80288610 1.26408752
3.20089477 1.69861078 -0.40219361
2.62959702 2.13307762 -0.04447123
5.43109696 0.24330084 -2.42802464
5.05584701 -0.02295957 -0.75089908
5.47936249 -0.57985694 -0.40219361
4.22036018 0.68878592 -0.42739728
3.14286074 1.47093073 0.34475985
0.69588752 -0.46275830 -8.67650732
3.68421905 -1.34321820 1.02676305
0.31021950 -2.67601166 4.46183991
-1.20069048 -2.30320130 -4.76871947
1.38468650 -1.53493726 -4.59100847
1.03240437 -1.67015574 -4.27610205
1.07189469 -2.13650210 -5.76902051
4.52191261 -0.41478731 -4.39012339
4.48378102 -0.28513517 -4.86496465
1.67925121 -1.92205853 -5.25222577
5.22321863 1.41252365 -8.67650732
2.50260806 -1.64944904 -4.49569142
4.00792514 -0.29167190 -5.76902051
-0.21186339 -2.81706562 -2.25143206
0.90690027 -1.62894856 7.17463485
-0.88321173 1.39018048 7.00464217
-2.63147104 0.91719040 6.54388943
-2.12009161 3.69299318 1.84031573
-1.28844500 1.84682332 5.85901704
-1.99725513 1.17989123 6.54388943
1.35812056 5.16395453 -2.25463052
-0.33487997 0.94589035 -8.58351589
-2.36765453 -3.85132196 2.81556803
-0.64606693 -4.87919948 -1.18967156
-2.36886726 -3.80328181 2.32614071
-3.46034934 -2.58826694 -0.99523852
-2.39533374 -3.54889767 -0.09435500
-3.19090464 -3.18199421 3.87505509
-2.68034069 -3.66110217 1.55124979
-1.95947059 -4.10200735 0.92476327
-1.89258709 -4.38542421 -1.57664579
-2.53381230 -3.35867000 0.51870733
-0.86583288 -5.02664941 0.51870733
-3.85710101 0.04108268 2.59677864
-3.63540848 -0.82894908 3.22582893
-4.00517023 -0.89378958 2.59677864
2.67484391 3.85368436 -0.92225475
-3.14655396 3.35955192 2.33569768
2.18071147 -1.96771351 2.33569768
0.61565602 3.12163797 0.81142198
3.61555904 0.81973142 0.81142198
2.96064940 2.59964110 -2.12970947
0.06119713 -4.83668643 -2.54584824
1.66715670 -0.47201874 -9.75804646
7.41751411 0.80801413 -2.54584824
-0.04108268 3.85710101 2.59677864
-1.07670486 4.12098759 1.84800318
-1.15388625 3.68085024 2.59677864
-0.48601326 3.42336634 3.03941782
-0.59726389 4.19310214 2.08002155
-2.52452096 3.71139665 1.49924268
0.90264897 8.94034341 -2.54386111
0.56135842 8.86277643 -2.65569023
-0.01807584 8.13340068 -2.15169571
-2.06724826 3.94438872 1.49924268
-1.53829920 4.69687623 0.93855505
-1.91463794 -4.11497311 1.04870123
-1.87320039 -4.16287111 0.90418653
-2.01095383 -4.07631489 0.90418653
-0.44366904 -3.82420089 -2.55917161
-0.00000000 -3.52543825 -3.00883952
-1.01252017 -0.20181611 0.04320271
-0.98132095 -0.05000201 -0.12175419
5.07325625 -2.83771220 0.39971164
6.15687712 -1.82586009 -0.32441508
1.95696266 -3.07430110 3.46705605
2.30007907 -3.41741751 3.46705605
0.07353234 -1.82586009 2.92720044
0.04400005 -1.80046953 2.93934930
-4.23304107 -3.07430110 4.07671821
-2.83928256 -1.80046953 3.81398351
-0.44366904 -0.43233924 -8.90489843
-2.68606089 -1.40394564 -6.53483951
-0.27805564 0.00000000 -9.30282042
1.34381925 3.54097153 0.12874489
1.34381925 3.68696867 -0.01725225
-6.77927225 1.09078116 -1.62326462
-5.01140642 -0.55999801 -0.44189304
-0.14575599 2.70448654 -0.12175419
-0.24933960 2.45772563 -0.44082139
1.24920736 6.21379011 -0.61560512
0.49521434 7.02126244 -1.15519632
-3.86045837 -0.00000000 -2.60061632
-3.86045837 0.00000000 -2.60061632
-3.28564917 -0.00000000 -3.30102336
-3.28564917 0.00000000 -3.30102336
1.01151994 0.31307713 -0.01725225
1.03222453 0.41382484 -0.12672186
0.14846490 -2.49954024 -0.12672186
0.09637207 -2.62363781 -0.28718271
0.59802065 3.54097153 -7.44347538
0.75473544 4.32448237 -6.63583424
3.18664286 1.84869462 0.43407805
2.31598300 2.21417429 -0.69170402
0.99270398 7.10590470 0.12874489
0.99564610 7.09158846 0.14430052
-0.00000000 -3.28564917 -3.30102336
-0.00000000 -3.28564917 -3.30102336
-3.86045837 0.00000000 2.60061632
-3.86045837 -0.00000000 2.60061632
-7.92747611 1.09078116 -2.56557118
-8.90422433 -0.00000000 -3.54523029
-1.81783813 -4.20615188 0.03320599
-1.66627967 -4.43172624 0.38240308
-1.26610018 -2.77645717 0.04320271
-1.26610018 -2.88210074 0.14884628
-0.46924593 -3.42254783 -7.40130361
-0.59847447 -2.77645717 -6.73531487
-1.00281183 -5.55531227 0.14884628
-1.00794005 -5.53035857 0.12173230
-0.85553434 -6.00649566 0.03320599
-0.88427397 -5.93803098 0.12173230
0.64318099 -0.65047592 3.26874805
1.06001840 -0.16564374 3.46819603
1.95696266 0.67708017 3.83653486
1.06001840 1.65846870 4.02153449
-0.64995070 -2.88210074 6.40471695
-0.49610379 -3.65127331 7.19757824
0.06360964 -3.65127331 9.04270615
0.60172711 4.35773586 -0.34874392
0.35509885 4.11110760 -0.80884183
1.09004433 4.96353672 -0.44082139
1.24977250 5.20127059 -0.80884183
5.51428069 -2.83771220 0.03777224
8.05533149 0.00000000 -2.51085137
3.86045837 -0.00000000 2.60061632
3.52531070 0.49770160 3.10504737
1.24920736 1.67951619 1.80801479
1.72566400 1.12533966 2.03598933
2.30007907 -3.32399044 3.45785429
1.72566400 -3.95248475 3.57633052
-0.78597362 -0.55999801 1.81664785
0.75060332 -1.88107935 2.44875765
4.03412618 -3.41741751 3.63784478
5.71510539 -1.88107935 3.95472289
3.60709873 1.52405856 -0.69170402
3.16697211 1.81976997 -1.37303561
3.86045837 0.00000000 -2.60061632
3.86045837 0.00000000 -2.60061632
0.63624827 -0.00000000 -8.63268914
-2.68606089 -2.12078712 -4.17172985
-3.13283441 -2.21014902 -3.71119675
-0.96257141 -0.00000000 -4.54924232
-0.96257141 -0.00000000 -4.54924232
-1.79822085 0.00000000 -4.29575084
-1.79822085 -0.00000000 -4.29575084
0.00000000 1.79822085 -4.29575084
-0.00000000 1.79822085 -4.29575084
-0.00000000 0.96257141 -4.54924232
-0.00000000 0.96257141 -4.54924232
0.00000000 0.00000000 -4.64404733
0.00000000 -0.00000000 -4.64404733
0.96257141 -0.00000000 -4.54924232
0.96257141 0.00000000 -4.54924232
-0.00000000 -0.96257141 -4.54924232
0.00000000 -0.96257141 -4.54924232
-0.00000000 1.78034663 6.49223166
0.72129309 2.09287585 5.72987288
0.76202134 3.68696867 5.88984108
0.55649263 4.71452943 6.94904831
0.08539202 4.71452943 8.50205889
1.96546450 -0.01401790 -9.36957301
1.95648338 -0.01012647 -9.36008057
0.72129309 1.44261501 7.87349561
1.34203856 1.56677410 7.23363263
3.00957003 1.90240907 0.43407805
2.21612765 2.06546892 1.29621009
0.00000000 2.58787473 -3.87367204
0.00000000 2.58787473 -3.87367204
3.28564917 -0.00000000 -3.30102336
3.28564917 0.00000000 -3.30102336
4.50358875 0.72283704 -1.37303561
4.45760565 0.76882014 -1.28725174
1.34214607 5.94933114 0.14430052
1.13682302 6.43845967 -0.48815327
3.82843883 1.53546212 -1.28725174
3.48161427 2.05166380 -0.48815327
-5.06242043 -2.68735053 3.06349754
-5.66378772 -2.56376391 2.41006887
0.64318099 -4.09094945 1.42977663
0.31459344 -3.73905581 1.66492861
-0.00000000 -6.59200155 -0.72777868
0.31459344 -6.31029648 -0.44523408
-1.41540478 -5.45197336 -0.28718271
-1.47727198 -5.54405436 -0.42972736
-0.00000000 -3.86045837 2.60061632
-0.00000000 -3.86045837 2.60061632
0.00000000 -4.28851637 1.79977612
-4.11340613 -2.50621785 6.14737257
-4.11340613 -2.31061520 6.79218807
-3.98266833 -2.28446554 6.92695229
-3.13283441 -2.72933972 1.56023495
-3.98266833 -2.72933972 2.41006887
2.58787473 -0.00000000 -3.87367204
2.58787473 0.00000000 -3.87367204
1.79822085 0.00000000 -4.29575084
1.79822085 0.00000000 -4.29575084
-0.00000000 -3.53770421 -3.09416713
-0.94891428 -2.52148522 -3.77325273
-0.00000000 -0.62238921 -4.65243546
-0.94891428 -1.72609097 -4.19839982
0.00000000 3.86045837 2.60061632
0.00000000 3.86045837 2.60061632
0.49521434 6.54062197 -0.76074489
-0.00000000 6.98406539 -1.20550985
-3.72701430 1.05807062 1.38911721
-3.25113817 1.25783067 0.77379906
-3.38235727 1.08808231 -0.34874392
-2.65721689 1.57528821 0.77379906
-1.01715440 1.88009763 1.38911721
-0.87722105 1.90885525 1.54116484
1.34203856 2.12743324 1.54116484
1.58699331 2.12743324 1.29621009
1.96546450 1.65666233 -3.86207838
1.58699331 1.58096200 -4.25220560
0.00000000 3.28564917 -3.30102336
-0.00000000 3.28564917 -3.30102336
1.95648338 3.70057082 -2.41785422
0.00000000 2.38309295 -4.40079129
-1.02853963 -4.99727241 -0.42972736
-0.86387574 -4.83260851 -0.12253826
2.77741000 -1.78274344 0.51767825
3.19097710 -1.50487679 -0.12253826
3.68709503 -1.29650666 0.51767825
3.30708684 -1.45602392 1.00903707
0.42989543 -2.37844146 1.56023495
-0.07738621 -2.48269259 1.00903707
-2.26624808 -3.70066263 0.38240308
-1.73703680 -4.22987391 1.36967439
-1.90635356 -4.09091923 1.36967439
-2.34798102 -3.79419944 2.05332933
-3.18631990 -3.25645941 3.06349754
-3.96756605 -2.92851321 2.05332933
3 353 234 76
3 538 370 364
3 558 451 550
3 711 370 550
3 711 76 234
3 571 179 3
3 700 3 179
3 141 22 364
3 141 144 22
3 528 234 353
3 528 711 234
3 528 370 711
3 301 394 144
3 301 571 3
3 301 76 571
3 37 141 364
3 37 144 141
3 655 451 558
3 655 370 155
3 164 76 711
3 164 711 550
3 164 550 451
3 164 571 76
3 131 451 179
3 131 179 571
3 131 164 451
3 131 571 164
3 639 3 682
3 639 394 3
3 639 682 394
3 616 364 22
3 616 22 297
3 359 683 155
3 359 538 364
3 359 155 370
3 359 370 538
3 344 144 353
3 344 301 144
3 513 353 76
3 513 76 301
3 513 344 353
3 513 301 344
3 319 3 394
3 319 301 3
3 563 353 144
3 563 144 37
3 563 37 353
3 375 37 364
3 375 364 370
3 375 370 528
3 49 558 550
3 49 655 558
3 49 550 370
3 49 370 655
3 611 683 359
3 611 297 22
3 383 616 297
3 383 297 611
3 383 611 359
3 383 364 616
3 383 359 364
3 704 394 301
3 704 319 394
3 704 301 319
3 322 353 37
3 322 37 375
3 788 451 655
3 788 655 86
3 747 86 655
3 747 155 683
3 747 655 155
3 245 700 179
3 245 3 700
3 328 682 683
3 50 611 22
3 50 394 682
3 50 682 328
3 50 683 611
3 50 328 683
3 129 375 528
3 129 322 375
3 129 528 353
3 129 353 322
3 573 788 86
3 573 245 179
3 573 86 245
3 573 179 451
3 573 451 788
3 243 682 3
3 243 3 245
3 243 683 682
3 243 747 683
3 243 86 747
3 243 245 86
3 379 50 22
3 379 394 50
3 379 22 144
3 379 144 394
