# Asteroid shape model (convexinv -> dual reconstruction)
v -1.07508737 -0.30253758 -0.35714286
v -1.01533641 -0.30253758 -0.42857143
v -1.01533641 -0.36228854 -0.35714286
v -1.01533641 -0.36228854 -0.21428571
v -1.07508737 -0.30253758 -0.21428571
v -1.01533641 -0.36228854 -0.07142857
v -1.07508737 -0.30253758 -0.07142857
v -1.01533641 -0.36228854 0.07142857
v -1.07508737 -0.30253758 0.07142857
v -1.01533641 -0.36228854 0.21428571
v -1.07508737 -0.30253758 0.21428571
v -1.01533641 -0.30253758 0.28571429
v -1.07508737 -0.18303567 -0.35714286
v -1.01533641 -0.18303567 -0.42857143
v -1.07508737 -0.18303567 -0.21428571
v -1.07508737 -0.18303567 -0.07142857
v -1.07508737 -0.18303567 0.07142857
v -1.07508737 -0.18303567 0.21428571
v -1.01533641 -0.18303567 0.28571429
v -1.07508737 -0.06353375 -0.35714286
v -1.01533641 -0.06353375 -0.42857143
v -1.07508737 -0.06353375 -0.21428571
v -1.07508737 -0.06353375 -0.07142857
v -1.07508737 -0.06353375 0.07142857
v -1.07508737 -0.06353375 0.21428571
v -1.01533641 -0.06353375 0.28571429
v -1.07508737 0.05596816 -0.35714286
v -1.01533641 0.05596816 -0.42857143
v -1.07508737 0.05596816 -0.21428571
v -1.07508737 0.05596816 -0.07142857
v -1.07508737 0.05596816 0.07142857
v -1.07508737 0.05596816 0.21428571
v -1.01533641 0.05596816 0.28571429
v -1.07508737 0.17547008 -0.35714286
v -1.01533641 0.17547008 -0.42857143
v -1.07508737 0.17547008 -0.21428571
v -1.07508737 0.17547008 -0.07142857
v -1.07508737 0.17547008 0.07142857
v -1.07508737 0.17547008 0.21428571
v -1.01533641 0.17547008 0.28571429
v -1.07508737 0.29497199 -0.35714286
v -1.01533641 0.29497199 -0.42857143
v -1.07508737 0.29497199 -0.21428571
v -1.07508737 0.29497199 -0.07142857
v -1.07508737 0.29497199 0.07142857
v -1.07508737 0.29497199 0.21428571
v -1.01533641 0.29497199 0.28571429
v -1.01533641 0.35472295 -0.35714286
v -1.01533641 0.35472295 -0.21428571
v -1.01533641 0.35472295 -0.07142857
v -1.01533641 0.35472295 0.07142857
v -1.01533641 0.35472295 0.21428571
v -0.95558545 -0.54154141 -0.35714286
v -0.89583450 -0.54154141 -0.42857143
v -0.89583450 -0.60129237 -0.35714286
v -0.89583450 -0.60129237 -0.21428571
v -0.95558545 -0.54154141 -0.21428571
v -0.89583450 -0.60129237 -0.07142857
v -0.95558545 -0.54154141 -0.07142857
v -0.89583450 -0.60129237 0.07142857
v -0.95558545 -0.54154141 0.07142857
v -0.89583450 -0.60129237 0.21428571
v -0.95558545 -0.54154141 0.21428571
v -0.89583450 -0.60129237 0.35714286
v -0.95558545 -0.54154141 0.35714286
v -0.89583450 -0.54154141 0.42857143
v -0.95558545 -0.42203950 -0.50000000
v -0.89583450 -0.42203950 -0.57142857
v -0.89583450 -0.48179045 -0.50000000
v -0.95558545 -0.42203950 -0.35714286
v -0.95558545 -0.42203950 -0.21428571
v -0.95558545 -0.42203950 -0.07142857
v -0.95558545 -0.42203950 0.07142857
v -0.95558545 -0.42203950 0.21428571
v -0.95558545 -0.42203950 0.35714286
v -0.89583450 -0.48179045 0.50000000
v -0.95558545 -0.42203950 0.50000000
v -0.89583450 -0.42203950 0.57142857
v -0.95558545 -0.30253758 -0.64285714
v -0.89583450 -0.30253758 -0.71428571
v -0.89583450 -0.36228854 -0.64285714
v -0.95558545 -0.30253758 -0.50000000
v -0.95558545 -0.30253758 0.35714286
v -0.95558545 -0.30253758 0.50000000
v -0.89583450 -0.30253758 0.57142857
v -0.95558545 -0.18303567 -0.64285714
v -0.89583450 -0.18303567 -0.71428571
v -0.95558545 -0.18303567 -0.50000000
v -0.95558545 -0.18303567 0.35714286
v -0.95558545 -0.18303567 0.50000000
v -0.89583450 -0.24278662 0.64285714
v -0.95558545 -0.18303567 0.64285714
v -0.89583450 -0.18303567 0.71428571
v -0.95558545 -0.06353375 -0.64285714
v -0.89583450 -0.06353375 -0.71428571
v -0.95558545 -0.06353375 -0.50000000
v -0.95558545 -0.06353375 0.35714286
v -0.95558545 -0.06353375 0.50000000
v -0.95558545 -0.06353375 0.64285714
v -0.89583450 -0.06353375 0.71428571
v -0.95558545 0.05596816 -0.64285714
v -0.89583450 0.05596816 -0.71428571
v -0.95558545 0.05596816 -0.50000000
v -0.95558545 0.05596816 0.35714286
v -0.95558545 0.05596816 0.50000000
v -0.95558545 0.05596816 0.64285714
v -0.89583450 0.05596816 0.71428571
v -0.95558545 0.17547008 -0.64285714
v -0.89583450 0.17547008 -0.71428571
v -0.95558545 0.17547008 -0.50000000
v -0.95558545 0.17547008 0.35714286
v -0.95558545 0.17547008 0.50000000
v -0.95558545 0.17547008 0.64285714
v -0.89583450 0.17547008 0.71428571
v -0.89583450 0.23522103 -0.64285714
v -0.95558545 0.29497199 -0.50000000
v -0.89583450 0.29497199 -0.57142857
v -0.95558545 0.29497199 0.35714286
v -0.95558545 0.29497199 0.50000000
v -0.95558545 0.29497199 0.64285714
v -0.89583450 0.29497199 0.71428571
v -0.95558545 0.41447391 -0.50000000
v -0.89583450 0.41447391 -0.57142857
v -0.95558545 0.41447391 -0.35714286
v -0.95558545 0.41447391 -0.21428571
v -0.95558545 0.41447391 -0.07142857
v -0.95558545 0.41447391 0.07142857
v -0.95558545 0.41447391 0.21428571
v -0.95558545 0.41447391 0.35714286
v -0.95558545 0.41447391 0.50000000
v -0.89583450 0.41447391 0.57142857
v -0.89583450 0.35472295 0.64285714
v -0.89583450 0.47422486 -0.50000000
v -0.95558545 0.53397582 -0.35714286
v -0.89583450 0.53397582 -0.42857143
v -0.95558545 0.53397582 -0.21428571
v -0.95558545 0.53397582 -0.07142857
v -0.95558545 0.53397582 0.07142857
v -0.95558545 0.53397582 0.21428571
v -0.89583450 0.53397582 0.28571429
v -0.89583450 0.47422486 0.35714286
v -0.89583450 0.47422486 0.50000000
v -0.89583450 0.59372678 -0.35714286
v -0.89583450 0.59372678 -0.21428571
v -0.89583450 0.59372678 -0.07142857
v -0.89583450 0.59372678 0.07142857
v -0.89583450 0.59372678 0.21428571
v -0.83608354 -0.66104332 -0.50000000
v -0.77633258 -0.66104332 -0.57142857
v -0.77633258 -0.72079428 -0.50000000
v -0.77633258 -0.72079428 -0.35714286
v -0.83608354 -0.66104332 -0.35714286
v -0.77633258 -0.72079428 -0.21428571
v -0.83608354 -0.66104332 -0.21428571
v -0.77633258 -0.72079428 -0.07142857
v -0.83608354 -0.66104332 -0.07142857
v -0.77633258 -0.72079428 0.07142857
v -0.83608354 -0.66104332 0.07142857
v -0.77633258 -0.72079428 0.21428571
v -0.83608354 -0.66104332 0.21428571
v -0.77633258 -0.72079428 0.35714286
v -0.83608354 -0.66104332 0.35714286
v -0.77633258 -0.66104332 0.42857143
v -0.83608354 -0.54154141 -0.64285714
v -0.77633258 -0.54154141 -0.71428571
v -0.77633258 -0.60129237 -0.64285714
v -0.83608354 -0.54154141 -0.50000000
v -0.77633258 -0.60129237 0.50000000
v -0.83608354 -0.54154141 0.50000000
v -0.77633258 -0.54154141 0.57142857
v -0.83608354 -0.42203950 -0.64285714
v -0.77633258 -0.42203950 -0.71428571
v -0.77633258 -0.48179045 0.64285714
v -0.83608354 -0.42203950 0.64285714
v -0.77633258 -0.42203950 0.71428571
v -0.83608354 -0.30253758 -0.78571429
v -0.77633258 -0.30253758 -0.85714286
v -0.77633258 -0.36228854 -0.78571429
v -0.83608354 -0.30253758 0.64285714
v -0.77633258 -0.30253758 0.71428571
v -0.83608354 -0.18303567 -0.78571429
v -0.77633258 -0.18303567 -0.85714286
v -0.77633258 -0.24278662 0.78571429
v -0.83608354 -0.18303567 0.78571429
v -0.77633258 -0.18303567 0.85714286
v -0.83608354 -0.06353375 -0.78571429
v -0.77633258 -0.06353375 -0.85714286
v -0.83608354 -0.06353375 0.78571429
v -0.77633258 -0.06353375 0.85714286
v -0.83608354 0.05596816 -0.78571429
v -0.77633258 0.05596816 -0.85714286
v -0.83608354 0.05596816 0.78571429
v -0.77633258 0.05596816 0.85714286
v -0.83608354 0.17547008 -0.78571429
v -0.77633258 0.17547008 -0.85714286
v -0.83608354 0.17547008 0.78571429
v -0.77633258 0.17547008 0.85714286
v -0.77633258 0.23522103 -0.78571429
v -0.83608354 0.29497199 -0.64285714
v -0.77633258 0.29497199 -0.71428571
v -0.77633258 0.23522103 0.78571429
v -0.77633258 0.29497199 0.71428571
v -0.83608354 0.41447391 -0.64285714
v -0.77633258 0.41447391 -0.71428571
v -0.83608354 0.41447391 0.64285714
v -0.77633258 0.41447391 0.71428571
v -0.77633258 0.47422486 -0.64285714
v -0.83608354 0.53397582 -0.50000000
v -0.77633258 0.53397582 -0.57142857
v -0.83608354 0.53397582 0.35714286
v -0.83608354 0.53397582 0.50000000
v -0.77633258 0.53397582 0.57142857
v -0.77633258 0.47422486 0.64285714
v -0.77633258 0.59372678 -0.50000000
v -0.83608354 0.65347774 -0.35714286
v -0.77633258 0.65347774 -0.42857143
v -0.83608354 0.65347774 -0.21428571
v -0.83608354 0.65347774 -0.07142857
v -0.83608354 0.65347774 0.07142857
v -0.83608354 0.65347774 0.21428571
v -0.83608354 0.65347774 0.35714286
v -0.77633258 0.65347774 0.42857143
v -0.77633258 0.59372678 0.50000000
v -0.77633258 0.71322869 -0.35714286
v -0.77633258 0.71322869 -0.21428571
v -0.77633258 0.71322869 -0.07142857
v -0.77633258 0.71322869 0.07142857
v -0.77633258 0.71322869 0.21428571
v -0.77633258 0.71322869 0.35714286
v -0.71658162 -0.78054524 -0.50000000
v -0.65683067 -0.78054524 -0.57142857
v -0.65683067 -0.84029620 -0.50000000
v -0.65683067 -0.84029620 -0.35714286
v -0.71658162 -0.78054524 -0.35714286
v -0.65683067 -0.84029620 -0.21428571
v -0.71658162 -0.78054524 -0.21428571
v -0.65683067 -0.84029620 -0.07142857
v -0.71658162 -0.78054524 -0.07142857
v -0.65683067 -0.84029620 0.07142857
v -0.71658162 -0.78054524 0.07142857
v -0.65683067 -0.84029620 0.21428571
v -0.71658162 -0.78054524 0.21428571
v -0.65683067 -0.84029620 0.35714286
v -0.71658162 -0.78054524 0.35714286
v -0.65683067 -0.78054524 0.42857143
v -0.71658162 -0.66104332 -0.64285714
v -0.65683067 -0.66104332 -0.71428571
v -0.65683067 -0.72079428 -0.64285714
v -0.65683067 -0.72079428 0.50000000
v -0.71658162 -0.66104332 0.50000000
v -0.65683067 -0.66104332 0.57142857
v -0.65683067 -0.54154141 -0.71428571
v -0.65683067 -0.60129237 0.64285714
v -0.71658162 -0.54154141 0.64285714
v -0.65683067 -0.54154141 0.71428571
v -0.71658162 -0.42203950 -0.78571429
v -0.65683067 -0.42203950 -0.85714286
v -0.65683067 -0.48179045 -0.78571429
v -0.65683067 -0.48179045 0.78571429
v -0.71658162 -0.42203950 0.78571429
v -0.65683067 -0.42203950 0.85714286
v -0.65683067 -0.30253758 -0.85714286
v -0.71658162 -0.30253758 0.78571429
v -0.65683067 -0.30253758 0.85714286
v -0.65683067 -0.18303567 -0.85714286
v -0.65683067 -0.18303567 0.85714286
v -0.65683067 -0.06353375 -0.85714286
v -0.65683067 -0.06353375 0.85714286
v -0.65683067 0.05596816 -0.85714286
v -0.65683067 0.05596816 0.85714286
v -0.65683067 0.17547008 -0.85714286
v -0.65683067 0.17547008 0.85714286
v -0.71658162 0.29497199 -0.78571429
v -0.65683067 0.29497199 -0.85714286
v -0.71658162 0.29497199 0.78571429
v -0.65683067 0.29497199 0.85714286
v -0.71658162 0.41447391 -0.78571429
v -0.65683067 0.41447391 -0.85714286
v -0.71658162 0.41447391 0.78571429
v -0.65683067 0.41447391 0.85714286
v -0.65683067 0.47422486 -0.78571429
v -0.71658162 0.53397582 -0.64285714
v -0.65683067 0.53397582 -0.71428571
v -0.71658162 0.53397582 0.64285714
v -0.65683067 0.53397582 0.71428571
v -0.65683067 0.47422486 0.78571429
v -0.65683067 0.59372678 -0.64285714
v -0.71658162 0.65347774 -0.50000000
v -0.65683067 0.65347774 -0.57142857
v -0.71658162 0.65347774 0.50000000
v -0.65683067 0.65347774 0.57142857
v -0.65683067 0.59372678 0.64285714
v -0.65683067 0.71322869 -0.50000000
v -0.71658162 0.77297965 -0.35714286
v -0.65683067 0.77297965 -0.42857143
v -0.71658162 0.77297965 -0.21428571
v -0.71658162 0.77297965 -0.07142857
v -0.71658162 0.77297965 0.07142857
v -0.71658162 0.77297965 0.21428571
v -0.71658162 0.77297965 0.35714286
v -0.65683067 0.77297965 0.42857143
v -0.65683067 0.71322869 0.50000000
v -0.65683067 0.83273061 -0.35714286
v -0.65683067 0.83273061 -0.21428571
v -0.65683067 0.83273061 -0.07142857
v -0.65683067 0.83273061 0.07142857
v -0.65683067 0.83273061 0.21428571
v -0.65683067 0.83273061 0.35714286
v -0.59707971 -0.90004715 -0.35714286
v -0.53732875 -0.90004715 -0.42857143
v -0.53732875 -0.95979811 -0.35714286
v -0.53732875 -0.95979811 -0.21428571
v -0.59707971 -0.90004715 -0.21428571
v -0.53732875 -0.95979811 -0.07142857
v -0.59707971 -0.90004715 -0.07142857
v -0.53732875 -0.95979811 0.07142857
v -0.59707971 -0.90004715 0.07142857
v -0.53732875 -0.95979811 0.21428571
v -0.59707971 -0.90004715 0.21428571
v -0.53732875 -0.90004715 0.28571429
v -0.59707971 -0.78054524 -0.64285714
v -0.53732875 -0.78054524 -0.71428571
v -0.53732875 -0.84029620 -0.64285714
v -0.53732875 -0.84029620 -0.50000000
v -0.53732875 -0.84029620 0.35714286
v -0.53732875 -0.84029620 0.50000000
v -0.59707971 -0.78054524 0.50000000
v -0.53732875 -0.78054524 0.57142857
v -0.53732875 -0.66104332 -0.71428571
v -0.53732875 -0.72079428 0.64285714
v -0.59707971 -0.66104332 0.64285714
v -0.53732875 -0.66104332 0.71428571
v -0.59707971 -0.54154141 -0.78571429
v -0.53732875 -0.54154141 -0.85714286
v -0.53732875 -0.60129237 -0.78571429
v -0.53732875 -0.60129237 0.78571429
v -0.59707971 -0.54154141 0.78571429
v -0.53732875 -0.54154141 0.85714286
v -0.53732875 -0.42203950 -0.85714286
v -0.53732875 -0.42203950 0.85714286
v -0.59707971 -0.30253758 -0.92857143
v -0.53732875 -0.30253758 -1.00000000
v -0.53732875 -0.36228854 -0.92857143
v -0.53732875 -0.36228854 0.92857143
v -0.59707971 -0.30253758 0.92857143
v -0.53732875 -0.30253758 1.00000000
v -0.59707971 -0.18303567 -0.92857143
v -0.53732875 -0.18303567 -1.00000000
v -0.59707971 -0.18303567 0.92857143
v -0.53732875 -0.18303567 1.00000000
v -0.59707971 -0.06353375 -0.92857143
v -0.53732875 -0.06353375 -1.00000000
v -0.59707971 -0.06353375 0.92857143
v -0.53732875 -0.06353375 1.00000000
v -0.59707971 0.05596816 -0.92857143
v -0.53732875 0.05596816 -1.00000000
v -0.59707971 0.05596816 0.92857143
v -0.53732875 0.05596816 1.00000000
v -0.59707971 0.17547008 -0.92857143
v -0.53732875 0.17547008 -1.00000000
v -0.59707971 0.17547008 0.92857143
v -0.53732875 0.17547008 1.00000000
v -0.59707971 0.29497199 -0.92857143
v -0.53732875 0.29497199 -1.00000000
v -0.59707971 0.29497199 0.92857143
v -0.53732875 0.29497199 1.00000000
v -0.53732875 0.35472295 -0.92857143
v -0.53732875 0.41447391 -0.85714286
v -0.53732875 0.35472295 0.92857143
v -0.53732875 0.41447391 0.85714286
v -0.59707971 0.53397582 -0.78571429
v -0.53732875 0.53397582 -0.85714286
v -0.59707971 0.53397582 0.78571429
v -0.53732875 0.53397582 0.85714286
v -0.53732875 0.59372678 -0.78571429
v -0.59707971 0.65347774 -0.64285714
v -0.53732875 0.65347774 -0.71428571
v -0.59707971 0.65347774 0.64285714
v -0.53732875 0.65347774 0.71428571
v -0.53732875 0.59372678 0.78571429
v -0.53732875 0.71322869 -0.64285714
v -0.59707971 0.77297965 -0.50000000
v -0.53732875 0.77297965 -0.57142857
v -0.59707971 0.77297965 0.50000000
v -0.53732875 0.77297965 0.57142857
v -0.53732875 0.71322869 0.64285714
v -0.53732875 0.83273061 -0.50000000
v -0.59707971 0.89248156 -0.35714286
v -0.53732875 0.89248156 -0.42857143
v -0.59707971 0.89248156 -0.21428571
v -0.59707971 0.89248156 -0.07142857
v -0.59707971 0.89248156 0.07142857
v -0.59707971 0.89248156 0.21428571
v -0.59707971 0.89248156 0.35714286
v -0.53732875 0.89248156 0.42857143
v -0.53732875 0.83273061 0.50000000
v -0.53732875 0.95223252 -0.35714286
v -0.53732875 0.95223252 -0.21428571
v -0.53732875 0.95223252 -0.07142857
v -0.53732875 0.95223252 0.07142857
v -0.53732875 0.95223252 0.21428571
v -0.53732875 0.95223252 0.35714286
v -0.47757780 -0.90004715 -0.50000000
v -0.41782684 -0.90004715 -0.57142857
v -0.41782684 -0.95979811 -0.50000000
v -0.41782684 -0.95979811 -0.35714286
v -0.41782684 -0.95979811 -0.21428571
v -0.41782684 -0.95979811 -0.07142857
v -0.41782684 -0.95979811 0.07142857
v -0.41782684 -0.95979811 0.21428571
v -0.41782684 -0.95979811 0.35714286
v -0.47757780 -0.90004715 0.35714286
v -0.41782684 -0.90004715 0.42857143
v -0.41782684 -0.78054524 -0.71428571
v -0.41782684 -0.84029620 -0.64285714
v -0.41782684 -0.84029620 0.50000000
v -0.41782684 -0.84029620 0.64285714
v -0.47757780 -0.78054524 0.64285714
v -0.41782684 -0.78054524 0.71428571
v -0.47757780 -0.66104332 -0.78571429
v -0.41782684 -0.66104332 -0.85714286
v -0.41782684 -0.72079428 -0.78571429
v -0.41782684 -0.72079428 0.78571429
v -0.47757780 -0.66104332 0.78571429
v -0.41782684 -0.66104332 0.85714286
v -0.41782684 -0.54154141 -0.85714286
v -0.41782684 -0.54154141 0.85714286
v -0.47757780 -0.42203950 -0.92857143
v -0.41782684 -0.42203950 -1.00000000
v -0.41782684 -0.48179045 -0.92857143
v -0.41782684 -0.48179045 0.92857143
v -0.47757780 -0.42203950 0.92857143
v -0.41782684 -0.42203950 1.00000000
v -0.41782684 -0.30253758 -1.00000000
v -0.41782684 -0.30253758 1.00000000
v -0.41782684 -0.18303567 -1.00000000
v -0.41782684 -0.18303567 1.00000000
v -0.41782684 -0.06353375 -1.00000000
v -0.41782684 -0.06353375 1.00000000
v -0.41782684 0.05596816 -1.00000000
v -0.41782684 0.05596816 1.00000000
v -0.41782684 0.17547008 -1.00000000
v -0.41782684 0.17547008 1.00000000
v -0.41782684 0.29497199 -1.00000000
v -0.41782684 0.29497199 1.00000000
v -0.47757780 0.41447391 -0.92857143
v -0.41782684 0.41447391 -1.00000000
v -0.47757780 0.41447391 0.92857143
v -0.41782684 0.41447391 1.00000000
v -0.41782684 0.47422486 -0.92857143
v -0.41782684 0.53397582 -0.85714286
v -0.41782684 0.47422486 0.92857143
v -0.41782684 0.53397582 0.85714286
v -0.47757780 0.65347774 -0.78571429
v -0.41782684 0.65347774 -0.85714286
v -0.47757780 0.65347774 0.78571429
v -0.41782684 0.65347774 0.85714286
v -0.41782684 0.71322869 -0.78571429
v -0.47757780 0.77297965 -0.64285714
v -0.41782684 0.77297965 -0.71428571
v -0.47757780 0.77297965 0.64285714
v -0.41782684 0.77297965 0.71428571
v -0.41782684 0.71322869 0.78571429
v -0.41782684 0.83273061 -0.64285714
v -0.47757780 0.89248156 -0.50000000
v -0.41782684 0.89248156 -0.57142857
v -0.41782684 0.83273061 0.50000000
v -0.41782684 0.89248156 0.42857143
v -0.41782684 0.83273061 0.64285714
v -0.41782684 0.95223252 -0.50000000
v -0.41782684 0.95223252 -0.35714286
v -0.41782684 0.95223252 -0.21428571
v -0.41782684 0.95223252 -0.07142857
v -0.41782684 0.95223252 0.07142857
v -0.41782684 0.95223252 0.21428571
v -0.41782684 0.95223252 0.35714286
v -0.35807588 -1.01954907 -0.35714286
v -0.29832492 -1.01954907 -0.42857143
v -0.29832492 -1.07930003 -0.35714286
v -0.29832492 -1.07930003 -0.21428571
v -0.35807588 -1.01954907 -0.21428571
v -0.29832492 -1.07930003 -0.07142857
v -0.35807588 -1.01954907 -0.07142857
v -0.29832492 -1.07930003 0.07142857
v -0.35807588 -1.01954907 0.07142857
v -0.29832492 -1.07930003 0.21428571
v -0.35807588 -1.01954907 0.21428571
v -0.29832492 -1.01954907 0.28571429
v -0.35807588 -0.90004715 -0.64285714
v -0.29832492 -0.90004715 -0.71428571
v -0.29832492 -0.95979811 -0.64285714
v -0.29832492 -0.95979811 -0.50000000
v -0.29832492 -0.95979811 0.35714286
v -0.29832492 -0.95979811 0.50000000
v -0.35807588 -0.90004715 0.50000000
v -0.29832492 -0.90004715 0.57142857
v -0.29832492 -0.78054524 -0.71428571
v -0.29832492 -0.84029620 0.64285714
v -0.29832492 -0.78054524 0.71428571
v -0.29832492 -0.66104332 -0.85714286
v -0.29832492 -0.72079428 -0.78571429
v -0.29832492 -0.72079428 0.78571429
v -0.29832492 -0.66104332 0.85714286
v -0.35807588 -0.54154141 -0.92857143
v -0.29832492 -0.54154141 -1.00000000
v -0.29832492 -0.60129237 -0.92857143
v -0.29832492 -0.60129237 0.92857143
v -0.35807588 -0.54154141 0.92857143
v -0.29832492 -0.54154141 1.00000000
v -0.29832492 -0.42203950 -1.00000000
v -0.29832492 -0.42203950 1.00000000
v -0.29832492 -0.30253758 -1.00000000
v -0.29832492 -0.30253758 1.00000000
v -0.29832492 -0.18303567 -1.00000000
v -0.29832492 -0.18303567 1.00000000
v -0.29832492 -0.06353375 -1.00000000
v -0.29832492 -0.06353375 1.00000000
v -0.29832492 0.05596816 -1.00000000
v -0.29832492 0.05596816 1.00000000
v -0.29832492 0.17547008 -1.00000000
v -0.29832492 0.17547008 1.00000000
v -0.29832492 0.29497199 -1.00000000
v -0.29832492 0.29497199 1.00000000
v -0.29832492 0.41447391 -1.00000000
v -0.29832492 0.41447391 1.00000000
v -0.35807588 0.53397582 -0.92857143
v -0.29832492 0.53397582 -1.00000000
v -0.35807588 0.53397582 0.92857143
v -0.29832492 0.53397582 1.00000000
v -0.29832492 0.59372678 -0.92857143
v -0.29832492 0.65347774 -0.85714286
v -0.29832492 0.59372678 0.92857143
v -0.29832492 0.65347774 0.85714286
v -0.35807588 0.77297965 -0.78571429
v -0.29832492 0.77297965 -0.85714286
v -0.29832492 0.71322869 0.78571429
v -0.29832492 0.77297965 0.71428571
v -0.29832492 0.83273061 -0.78571429
v -0.29832492 0.83273061 -0.64285714
v -0.29832492 0.89248156 -0.57142857
v -0.35807588 0.89248156 0.50000000
v -0.29832492 0.89248156 0.57142857
v -0.29832492 0.83273061 0.64285714
v -0.29832492 0.95223252 -0.50000000
v -0.35807588 1.01198348 -0.35714286
v -0.29832492 1.01198348 -0.42857143
v -0.35807588 1.01198348 -0.21428571
v -0.35807588 1.01198348 -0.07142857
v -0.35807588 1.01198348 0.07142857
v -0.35807588 1.01198348 0.21428571
v -0.29832492 1.01198348 0.28571429
v -0.29832492 0.95223252 0.35714286
v -0.29832492 0.95223252 0.50000000
v -0.29832492 1.07173444 -0.35714286
v -0.29832492 1.07173444 -0.21428571
v -0.29832492 1.07173444 -0.07142857
v -0.29832492 1.07173444 0.07142857
v -0.29832492 1.07173444 0.21428571
v -0.17882301 -1.01954907 -0.42857143
v -0.17882301 -1.07930003 -0.35714286
v -0.17882301 -1.07930003 -0.21428571
v -0.17882301 -1.07930003 -0.07142857
v -0.17882301 -1.07930003 0.07142857
v -0.17882301 -1.07930003 0.21428571
v -0.17882301 -1.01954907 0.28571429
v -0.17882301 -0.90004715 -0.71428571
v -0.17882301 -0.95979811 -0.64285714
v -0.17882301 -0.95979811 -0.50000000
v -0.17882301 -0.95979811 0.35714286
v -0.17882301 -0.95979811 0.50000000
v -0.17882301 -0.95979811 0.64285714
v -0.23857397 -0.90004715 0.64285714
v -0.17882301 -0.90004715 0.71428571
v -0.23857397 -0.78054524 -0.78571429
v -0.17882301 -0.78054524 -0.85714286
v -0.17882301 -0.84029620 -0.78571429
v -0.17882301 -0.84029620 0.78571429
v -0.23857397 -0.78054524 0.78571429
v -0.17882301 -0.78054524 0.85714286
v -0.17882301 -0.66104332 -0.85714286
v -0.17882301 -0.66104332 0.85714286
v -0.17882301 -0.54154141 -1.00000000
v -0.17882301 -0.60129237 -0.92857143
v -0.17882301 -0.60129237 0.92857143
v -0.17882301 -0.54154141 1.00000000
v -0.17882301 -0.42203950 -1.00000000
v -0.17882301 -0.42203950 1.00000000
v -0.17882301 -0.30253758 -1.00000000
v -0.17882301 -0.30253758 1.00000000
v -0.17882301 -0.18303567 -1.00000000
v -0.17882301 -0.18303567 1.00000000
v -0.17882301 -0.06353375 -1.00000000
v -0.17882301 -0.06353375 1.00000000
v -0.17882301 0.05596816 -1.00000000
v -0.17882301 0.05596816 1.00000000
v -0.17882301 0.17547008 -1.00000000
v -0.17882301 0.17547008 1.00000000
v -0.17882301 0.29497199 -1.00000000
v -0.17882301 0.29497199 1.00000000
v -0.17882301 0.41447391 -1.00000000
v -0.17882301 0.41447391 1.00000000
v -0.17882301 0.53397582 -1.00000000
v -0.17882301 0.53397582 1.00000000
v -0.23857397 0.65347774 -0.92857143
v -0.17882301 0.65347774 -1.00000000
v -0.23857397 0.65347774 0.92857143
v -0.17882301 0.65347774 1.00000000
v -0.17882301 0.71322869 -0.92857143
v -0.17882301 0.77297965 -0.85714286
v -0.23857397 0.77297965 0.78571429
v -0.17882301 0.77297965 0.85714286
v -0.17882301 0.71322869 0.92857143
v -0.17882301 0.83273061 -0.78571429
v -0.23857397 0.89248156 -0.64285714
v -0.17882301 0.89248156 -0.71428571
v -0.17882301 0.83273061 0.64285714
v -0.17882301 0.89248156 0.57142857
v -0.17882301 0.83273061 0.78571429
v -0.17882301 0.95223252 -0.64285714
v -0.17882301 0.95223252 -0.50000000
v -0.17882301 1.01198348 -0.42857143
v -0.17882301 0.95223252 0.35714286
v -0.17882301 1.01198348 0.28571429
v -0.17882301 0.95223252 0.50000000
v -0.17882301 1.07173444 -0.35714286
v -0.17882301 1.07173444 -0.21428571
v -0.17882301 1.07173444 -0.07142857
v -0.17882301 1.07173444 0.07142857
v -0.17882301 1.07173444 0.21428571
v -0.05932109 -1.01954907 -0.42857143
v -0.05932109 -1.07930003 -0.35714286
v -0.05932109 -1.07930003 -0.21428571
v -0.05932109 -1.07930003 -0.07142857
v -0.05932109 -1.07930003 0.07142857
v -0.05932109 -1.07930003 0.21428571
v -0.05932109 -1.01954907 0.28571429
v -0.05932109 -0.90004715 -0.71428571
v -0.05932109 -0.95979811 -0.64285714
v -0.05932109 -0.95979811 -0.50000000
v -0.05932109 -0.95979811 0.35714286
v -0.05932109 -0.95979811 0.50000000
v -0.05932109 -0.95979811 0.64285714
v -0.05932109 -0.90004715 0.71428571
v -0.05932109 -0.78054524 -0.85714286
v -0.05932109 -0.84029620 -0.78571429
v -0.05932109 -0.84029620 0.78571429
v -0.05932109 -0.78054524 0.85714286
v -0.05932109 -0.66104332 -0.85714286
v -0.05932109 -0.66104332 0.85714286
v -0.05932109 -0.54154141 -1.00000000
v -0.05932109 -0.60129237 -0.92857143
v -0.05932109 -0.60129237 0.92857143
v -0.05932109 -0.54154141 1.00000000
v -0.05932109 -0.42203950 -1.00000000
v -0.05932109 -0.42203950 1.00000000
v -0.05932109 -0.30253758 -1.00000000
v -0.05932109 -0.30253758 1.00000000
v -0.05932109 -0.18303567 -1.00000000
v -0.05932109 -0.18303567 1.00000000
v -0.05932109 -0.06353375 -1.00000000
v -0.05932109 -0.06353375 1.00000000
v -0.05932109 0.05596816 -1.00000000
v -0.05932109 0.05596816 1.00000000
v -0.05932109 0.17547008 -1.00000000
v -0.05932109 0.17547008 1.00000000
v -0.05932109 0.29497199 -1.00000000
v -0.05932109 0.29497199 1.00000000
v -0.05932109 0.41447391 -1.00000000
v -0.05932109 0.41447391 1.00000000
v -0.05932109 0.53397582 -1.00000000
v -0.05932109 0.53397582 1.00000000
v -0.05932109 0.65347774 -1.00000000
v -0.05932109 0.65347774 1.00000000
v -0.05932109 0.71322869 -0.92857143
v -0.05932109 0.77297965 -0.85714286
v -0.05932109 0.71322869 0.92857143
v -0.05932109 0.77297965 0.85714286
v -0.05932109 0.83273061 -0.78571429
v -0.05932109 0.89248156 -0.71428571
v -0.05932109 0.83273061 0.64285714
v -0.05932109 0.89248156 0.57142857
v -0.05932109 0.83273061 0.78571429
v -0.05932109 0.95223252 -0.64285714
v -0.05932109 0.95223252 -0.50000000
v -0.05932109 1.01198348 -0.42857143
v -0.05932109 0.95223252 0.35714286
v -0.05932109 1.01198348 0.28571429
v -0.05932109 0.95223252 0.50000000
v -0.05932109 1.07173444 -0.35714286
v -0.05932109 1.07173444 -0.21428571
v -0.05932109 1.07173444 -0.07142857
v -0.05932109 1.07173444 0.07142857
v -0.05932109 1.07173444 0.21428571
v 0.06018082 -1.01954907 -0.42857143
v 0.06018082 -1.07930003 -0.35714286
v 0.06018082 -1.07930003 -0.21428571
v 0.06018082 -1.07930003 -0.07142857
v 0.06018082 -1.07930003 0.07142857
v 0.06018082 -1.07930003 0.21428571
v 0.06018082 -1.01954907 0.28571429
v 0.06018082 -0.90004715 -0.71428571
v 0.06018082 -0.95979811 -0.64285714
v 0.06018082 -0.95979811 -0.50000000
v 0.06018082 -0.95979811 0.35714286
v 0.06018082 -0.95979811 0.50000000
v 0.06018082 -0.95979811 0.64285714
v 0.06018082 -0.90004715 0.71428571
v 0.06018082 -0.78054524 -0.85714286
v 0.06018082 -0.84029620 -0.78571429
v 0.06018082 -0.84029620 0.78571429
v 0.06018082 -0.78054524 0.85714286
v 0.06018082 -0.66104332 -0.85714286
v 0.06018082 -0.66104332 0.85714286
v 0.06018082 -0.54154141 -1.00000000
v 0.06018082 -0.60129237 -0.92857143
v 0.06018082 -0.60129237 0.92857143
v 0.06018082 -0.54154141 1.00000000
v 0.06018082 -0.42203950 -1.00000000
v 0.06018082 -0.42203950 1.00000000
v 0.06018082 -0.30253758 -1.00000000
v 0.06018082 -0.30253758 1.00000000
v 0.06018082 -0.18303567 -1.00000000
v 0.06018082 -0.18303567 1.00000000
v 0.06018082 -0.06353375 -1.00000000
v 0.06018082 -0.06353375 1.00000000
v 0.06018082 0.05596816 -1.00000000
v 0.06018082 0.05596816 1.00000000
v 0.06018082 0.17547008 -1.00000000
v 0.06018082 0.17547008 1.00000000
v 0.06018082 0.29497199 -1.00000000
v 0.06018082 0.29497199 1.00000000
v 0.06018082 0.41447391 -1.00000000
v 0.06018082 0.41447391 1.00000000
v 0.06018082 0.53397582 -1.00000000
v 0.06018082 0.53397582 1.00000000
v 0.06018082 0.65347774 -1.00000000
v 0.06018082 0.65347774 1.00000000
v 0.06018082 0.71322869 -0.92857143
v 0.06018082 0.77297965 -0.85714286
v 0.06018082 0.71322869 0.92857143
v 0.06018082 0.77297965 0.85714286
v 0.06018082 0.83273061 -0.78571429
v 0.06018082 0.89248156 -0.71428571
v 0.06018082 0.83273061 0.64285714
v 0.06018082 0.89248156 0.57142857
v 0.06018082 0.83273061 0.78571429
v 0.06018082 0.95223252 -0.64285714
v 0.06018082 0.95223252 -0.50000000
v 0.06018082 1.01198348 -0.42857143
v 0.00042986 1.01198348 0.35714286
v 0.06018082 1.01198348 0.42857143
v 0.06018082 0.95223252 0.50000000
v 0.06018082 1.07173444 -0.35714286
v 0.06018082 1.07173444 -0.21428571
v 0.06018082 1.07173444 -0.07142857
v 0.06018082 1.07173444 0.07142857
v 0.06018082 1.07173444 0.21428571
v 0.06018082 1.07173444 0.35714286
v 0.17968273 -1.01954907 -0.42857143
v 0.17968273 -1.07930003 -0.35714286
v 0.17968273 -1.07930003 -0.21428571
v 0.17968273 -1.07930003 -0.07142857
v 0.17968273 -1.07930003 0.07142857
v 0.17968273 -1.07930003 0.21428571
v 0.17968273 -1.01954907 0.28571429
v 0.17968273 -0.90004715 -0.71428571
v 0.17968273 -0.95979811 -0.64285714
v 0.17968273 -0.95979811 -0.50000000
v 0.17968273 -0.95979811 0.35714286
v 0.17968273 -0.95979811 0.50000000
v 0.17968273 -0.95979811 0.64285714
v 0.17968273 -0.90004715 0.71428571
v 0.17968273 -0.78054524 -0.85714286
v 0.17968273 -0.84029620 -0.78571429
v 0.17968273 -0.84029620 0.78571429
v 0.17968273 -0.78054524 0.85714286
v 0.17968273 -0.66104332 -0.85714286
v 0.17968273 -0.66104332 0.85714286
v 0.17968273 -0.54154141 -1.00000000
v 0.17968273 -0.60129237 -0.92857143
v 0.17968273 -0.60129237 0.92857143
v 0.17968273 -0.54154141 1.00000000
v 0.17968273 -0.42203950 -1.00000000
v 0.17968273 -0.42203950 1.00000000
v 0.17968273 -0.30253758 -1.00000000
v 0.17968273 -0.30253758 1.00000000
v 0.17968273 -0.18303567 -1.00000000
v 0.17968273 -0.18303567 1.00000000
v 0.17968273 -0.06353375 -1.00000000
v 0.17968273 -0.06353375 1.00000000
v 0.17968273 0.05596816 -1.00000000
v 0.17968273 0.05596816 1.00000000
v 0.17968273 0.17547008 -1.00000000
v 0.17968273 0.17547008 1.00000000
v 0.17968273 0.29497199 -1.00000000
v 0.17968273 0.29497199 1.00000000
v 0.17968273 0.41447391 -1.00000000
v 0.17968273 0.41447391 1.00000000
v 0.17968273 0.53397582 -1.00000000
v 0.17968273 0.53397582 1.00000000
v 0.17968273 0.65347774 -1.00000000
v 0.17968273 0.65347774 1.00000000
v 0.17968273 0.71322869 -0.92857143
v 0.17968273 0.77297965 -0.85714286
v 0.17968273 0.71322869 0.92857143
v 0.17968273 0.77297965 0.85714286
v 0.17968273 0.83273061 -0.78571429
v 0.17968273 0.89248156 -0.71428571
v 0.17968273 0.83273061 0.64285714
v 0.17968273 0.89248156 0.57142857
v 0.17968273 0.83273061 0.78571429
v 0.17968273 0.95223252 -0.64285714
v 0.17968273 0.95223252 -0.50000000
v 0.17968273 1.01198348 -0.42857143
v 0.11993178 1.01198348 0.35714286
v 0.17968273 0.95223252 0.35714286
v 0.17968273 1.01198348 0.28571429
v 0.17968273 0.95223252 0.50000000
v 0.17968273 1.07173444 -0.35714286
v 0.17968273 1.07173444 -0.21428571
v 0.17968273 1.07173444 -0.07142857
v 0.17968273 1.07173444 0.07142857
v 0.17968273 1.07173444 0.21428571
v 0.23943369 -1.01954907 -0.35714286
v 0.29918465 -1.01954907 -0.28571429
v 0.29918465 -1.07930003 -0.21428571
v 0.29918465 -1.07930003 -0.07142857
v 0.29918465 -1.07930003 0.07142857
v 0.23943369 -1.01954907 0.21428571
v 0.29918465 -1.01954907 0.14285714
v 0.23943369 -0.90004715 -0.64285714
v 0.29918465 -0.90004715 -0.57142857
v 0.29918465 -0.95979811 -0.50000000
v 0.29918465 -0.95979811 -0.35714286
v 0.29918465 -0.95979811 0.21428571
v 0.29918465 -0.95979811 0.35714286
v 0.29918465 -0.95979811 0.50000000
v 0.23943369 -0.90004715 0.64285714
v 0.29918465 -0.90004715 0.57142857
v 0.23943369 -0.78054524 -0.78571429
v 0.29918465 -0.78054524 -0.71428571
v 0.29918465 -0.84029620 -0.64285714
v 0.29918465 -0.84029620 0.64285714
v 0.23943369 -0.78054524 0.78571429
v 0.29918465 -0.78054524 0.71428571
v 0.29918465 -0.66104332 -0.85714286
v 0.29918465 -0.72079428 -0.78571429
v 0.29918465 -0.72079428 0.78571429
v 0.29918465 -0.66104332 0.85714286
v 0.29918465 -0.54154141 -1.00000000
v 0.29918465 -0.60129237 -0.92857143
v 0.29918465 -0.60129237 0.92857143
v 0.29918465 -0.54154141 1.00000000
v 0.29918465 -0.42203950 -1.00000000
v 0.29918465 -0.42203950 1.00000000
v 0.29918465 -0.30253758 -1.00000000
v 0.29918465 -0.30253758 1.00000000
v 0.29918465 -0.18303567 -1.00000000
v 0.29918465 -0.18303567 1.00000000
v 0.29918465 -0.06353375 -1.00000000
v 0.29918465 -0.06353375 1.00000000
v 0.29918465 0.05596816 -1.00000000
v 0.29918465 0.05596816 1.00000000
v 0.29918465 0.17547008 -1.00000000
v 0.29918465 0.17547008 1.00000000
v 0.29918465 0.29497199 -1.00000000
v 0.29918465 0.29497199 1.00000000
v 0.29918465 0.41447391 -1.00000000
v 0.29918465 0.41447391 1.00000000
v 0.29918465 0.53397582 -1.00000000
v 0.29918465 0.53397582 1.00000000
v 0.29918465 0.65347774 -1.00000000
v 0.23943369 0.65347774 0.92857143
v 0.29918465 0.59372678 0.92857143
v 0.29918465 0.65347774 0.85714286
v 0.29918465 0.71322869 -0.92857143
v 0.29918465 0.77297965 -0.85714286
v 0.23943369 0.77297965 0.78571429
v 0.29918465 0.71322869 0.78571429
v 0.29918465 0.77297965 0.71428571
v 0.29918465 0.83273061 -0.78571429
v 0.29918465 0.89248156 -0.71428571
v 0.29918465 0.83273061 0.64285714
v 0.29918465 0.89248156 0.57142857
v 0.29918465 0.95223252 -0.64285714
v 0.29918465 0.95223252 -0.50000000
v 0.23943369 1.01198348 -0.35714286
v 0.29918465 0.95223252 -0.35714286
v 0.29918465 1.01198348 -0.28571429
v 0.29918465 0.95223252 0.35714286
v 0.29918465 1.01198348 0.28571429
v 0.29918465 0.95223252 0.50000000
v 0.29918465 1.07173444 -0.21428571
v 0.29918465 1.07173444 -0.07142857
v 0.29918465 1.07173444 0.07142857
v 0.29918465 1.07173444 0.21428571
v 0.35893561 -1.01954907 -0.21428571
v 0.35893561 -1.01954907 -0.07142857
v 0.35893561 -1.01954907 0.07142857
v 0.41868656 -0.90004715 -0.57142857
v 0.41868656 -0.95979811 -0.50000000
v 0.41868656 -0.95979811 -0.35714286
v 0.41868656 -0.95979811 -0.21428571
v 0.41868656 -0.95979811 -0.07142857
v 0.41868656 -0.95979811 0.07142857
v 0.41868656 -0.95979811 0.21428571
v 0.41868656 -0.95979811 0.35714286
v 0.35893561 -0.90004715 0.50000000
v 0.41868656 -0.90004715 0.42857143
v 0.41868656 -0.78054524 -0.71428571
v 0.41868656 -0.84029620 -0.64285714
v 0.41868656 -0.84029620 0.50000000
v 0.41868656 -0.84029620 0.64285714
v 0.41868656 -0.78054524 0.71428571
v 0.41868656 -0.66104332 -0.85714286
v 0.41868656 -0.72079428 -0.78571429
v 0.41868656 -0.72079428 0.78571429
v 0.41868656 -0.66104332 0.85714286
v 0.35893561 -0.54154141 -0.92857143
v 0.41868656 -0.54154141 -0.85714286
v 0.35893561 -0.54154141 0.92857143
v 0.41868656 -0.54154141 0.85714286
v 0.41868656 -0.42203950 -1.00000000
v 0.41868656 -0.48179045 -0.92857143
v 0.41868656 -0.48179045 0.92857143
v 0.41868656 -0.42203950 1.00000000
v 0.41868656 -0.30253758 -1.00000000
v 0.41868656 -0.30253758 1.00000000
v 0.41868656 -0.18303567 -1.00000000
v 0.41868656 -0.18303567 1.00000000
v 0.41868656 -0.06353375 -1.00000000
v 0.41868656 -0.06353375 1.00000000
v 0.41868656 0.05596816 -1.00000000
v 0.41868656 0.05596816 1.00000000
v 0.41868656 0.17547008 -1.00000000
v 0.41868656 0.17547008 1.00000000
v 0.41868656 0.29497199 -1.00000000
v 0.41868656 0.29497199 1.00000000
v 0.41868656 0.41447391 -1.00000000
v 0.41868656 0.41447391 1.00000000
v 0.41868656 0.53397582 -1.00000000
v 0.41868656 0.53397582 1.00000000
v 0.41868656 0.59372678 -0.92857143
v 0.35893561 0.65347774 -0.92857143
v 0.41868656 0.65347774 -0.85714286
v 0.41868656 0.59372678 0.92857143
v 0.41868656 0.65347774 0.85714286
v 0.35893561 0.77297965 -0.78571429
v 0.41868656 0.71322869 -0.78571429
v 0.41868656 0.77297965 -0.71428571
v 0.41868656 0.71322869 0.78571429
v 0.41868656 0.77297965 0.71428571
v 0.35893561 0.89248156 -0.64285714
v 0.41868656 0.83273061 -0.64285714
v 0.35893561 0.89248156 -0.50000000
v 0.41868656 0.83273061 -0.50000000
v 0.41868656 0.89248156 -0.42857143
v 0.35893561 0.89248156 0.50000000
v 0.41868656 0.83273061 0.50000000
v 0.41868656 0.89248156 0.42857143
v 0.41868656 0.83273061 0.64285714
v 0.41868656 0.95223252 -0.35714286
v 0.35893561 1.01198348 -0.21428571
v 0.41868656 0.95223252 -0.21428571
v 0.35893561 1.01198348 -0.07142857
v 0.41868656 0.95223252 -0.07142857
v 0.35893561 1.01198348 0.07142857
v 0.41868656 0.95223252 0.07142857
v 0.35893561 1.01198348 0.21428571
v 0.41868656 0.95223252 0.21428571
v 0.41868656 0.95223252 0.35714286
v 0.47843752 -0.90004715 -0.50000000
v 0.47843752 -0.90004715 -0.35714286
v 0.53818848 -0.90004715 -0.28571429
v 0.53818848 -0.95979811 -0.21428571
v 0.53818848 -0.95979811 -0.07142857
v 0.53818848 -0.95979811 0.07142857
v 0.47843752 -0.90004715 0.21428571
v 0.53818848 -0.90004715 0.14285714
v 0.47843752 -0.90004715 0.35714286
v 0.47843752 -0.78054524 -0.64285714
v 0.53818848 -0.78054524 -0.57142857
v 0.53818848 -0.84029620 -0.50000000
v 0.53818848 -0.84029620 -0.35714286
v 0.53818848 -0.84029620 0.21428571
v 0.53818848 -0.84029620 0.35714286
v 0.53818848 -0.84029620 0.50000000
v 0.47843752 -0.78054524 0.64285714
v 0.53818848 -0.78054524 0.57142857
v 0.47843752 -0.66104332 -0.78571429
v 0.53818848 -0.66104332 -0.71428571
v 0.53818848 -0.72079428 -0.64285714
v 0.53818848 -0.72079428 0.64285714
v 0.47843752 -0.66104332 0.78571429
v 0.53818848 -0.66104332 0.71428571
v 0.53818848 -0.54154141 -0.85714286
v 0.53818848 -0.60129237 -0.78571429
v 0.53818848 -0.60129237 0.78571429
v 0.53818848 -0.54154141 0.85714286
v 0.47843752 -0.42203950 -0.92857143
v 0.53818848 -0.42203950 -0.85714286
v 0.47843752 -0.42203950 0.92857143
v 0.53818848 -0.42203950 0.85714286
v 0.53818848 -0.30253758 -1.00000000
v 0.53818848 -0.36228854 -0.92857143
v 0.53818848 -0.36228854 0.92857143
v 0.53818848 -0.30253758 1.00000000
v 0.53818848 -0.18303567 -1.00000000
v 0.53818848 -0.18303567 1.00000000
v 0.53818848 -0.06353375 -1.00000000
v 0.53818848 -0.06353375 1.00000000
v 0.53818848 0.05596816 -1.00000000
v 0.53818848 0.05596816 1.00000000
v 0.53818848 0.17547008 -1.00000000
v 0.53818848 0.17547008 1.00000000
v 0.53818848 0.29497199 -1.00000000
v 0.53818848 0.29497199 1.00000000
v 0.53818848 0.41447391 -1.00000000
v 0.53818848 0.41447391 1.00000000
v 0.53818848 0.47422486 -0.92857143
v 0.47843752 0.53397582 -0.92857143
v 0.53818848 0.53397582 -0.85714286
v 0.47843752 0.53397582 0.92857143
v 0.53818848 0.47422486 0.92857143
v 0.53818848 0.53397582 0.85714286
v 0.53818848 0.65347774 -0.85714286
v 0.47843752 0.65347774 0.78571429
v 0.53818848 0.59372678 0.78571429
v 0.53818848 0.65347774 0.71428571
v 0.53818848 0.71322869 -0.78571429
v 0.47843752 0.77297965 -0.64285714
v 0.53818848 0.71322869 -0.64285714
v 0.53818848 0.77297965 -0.57142857
v 0.47843752 0.77297965 0.64285714
v 0.53818848 0.71322869 0.64285714
v 0.53818848 0.77297965 0.57142857
v 0.53818848 0.83273061 -0.50000000
v 0.53818848 0.89248156 -0.42857143
v 0.47843752 0.89248156 0.35714286
v 0.53818848 0.83273061 0.35714286
v 0.53818848 0.89248156 0.28571429
v 0.53818848 0.83273061 0.50000000
v 0.53818848 0.95223252 -0.35714286
v 0.53818848 0.95223252 -0.21428571
v 0.53818848 0.95223252 -0.07142857
v 0.53818848 0.95223252 0.07142857
v 0.53818848 0.95223252 0.21428571
v 0.59793944 -0.90004715 -0.21428571
v 0.59793944 -0.90004715 -0.07142857
v 0.59793944 -0.90004715 0.07142857
v 0.59793944 -0.78054524 -0.50000000
v 0.65769039 -0.78054524 -0.42857143
v 0.65769039 -0.84029620 -0.35714286
v 0.65769039 -0.84029620 -0.21428571
v 0.65769039 -0.84029620 -0.07142857
v 0.65769039 -0.84029620 0.07142857
v 0.65769039 -0.84029620 0.21428571
v 0.59793944 -0.78054524 0.35714286
v 0.65769039 -0.78054524 0.28571429
v 0.59793944 -0.78054524 0.50000000
v 0.59793944 -0.66104332 -0.64285714
v 0.65769039 -0.66104332 -0.57142857
v 0.65769039 -0.72079428 -0.50000000
v 0.65769039 -0.72079428 0.35714286
v 0.65769039 -0.72079428 0.50000000
v 0.59793944 -0.66104332 0.64285714
v 0.65769039 -0.66104332 0.57142857
v 0.59793944 -0.54154141 -0.78571429
v 0.65769039 -0.54154141 -0.71428571
v 0.65769039 -0.60129237 -0.64285714
v 0.65769039 -0.60129237 0.64285714
v 0.59793944 -0.54154141 0.78571429
v 0.65769039 -0.54154141 0.71428571
v 0.65769039 -0.42203950 -0.85714286
v 0.65769039 -0.48179045 -0.78571429
v 0.65769039 -0.48179045 0.78571429
v 0.65769039 -0.42203950 0.85714286
v 0.59793944 -0.30253758 -0.92857143
v 0.65769039 -0.30253758 -0.85714286
v 0.59793944 -0.30253758 0.92857143
v 0.65769039 -0.30253758 0.85714286
v 0.59793944 -0.18303567 -0.92857143
v 0.65769039 -0.18303567 -0.85714286
v 0.59793944 -0.18303567 0.92857143
v 0.65769039 -0.18303567 0.85714286
v 0.59793944 -0.06353375 -0.92857143
v 0.65769039 -0.06353375 -0.85714286
v 0.65769039 -0.12328471 0.92857143
v 0.65769039 -0.06353375 1.00000000
v 0.59793944 0.05596816 -0.92857143
v 0.65769039 0.05596816 -0.85714286
v 0.65769039 0.05596816 1.00000000
v 0.59793944 0.17547008 -0.92857143
v 0.65769039 0.17547008 -0.85714286
v 0.59793944 0.17547008 0.92857143
v 0.65769039 0.11571912 0.92857143
v 0.65769039 0.17547008 0.85714286
v 0.59793944 0.29497199 -0.92857143
v 0.65769039 0.29497199 -0.85714286
v 0.59793944 0.29497199 0.92857143
v 0.65769039 0.29497199 0.85714286
v 0.59793944 0.41447391 -0.92857143
v 0.65769039 0.41447391 -0.85714286
v 0.59793944 0.41447391 0.92857143
v 0.65769039 0.41447391 0.85714286
v 0.65769039 0.53397582 -0.85714286
v 0.59793944 0.53397582 0.78571429
v 0.65769039 0.47422486 0.78571429
v 0.65769039 0.53397582 0.71428571
v 0.65769039 0.59372678 -0.78571429
v 0.59793944 0.65347774 -0.78571429
v 0.59793944 0.65347774 -0.64285714
v 0.65769039 0.59372678 -0.64285714
v 0.65769039 0.65347774 -0.57142857
v 0.59793944 0.65347774 0.64285714
v 0.65769039 0.59372678 0.64285714
v 0.65769039 0.65347774 0.57142857
v 0.59793944 0.77297965 -0.50000000
v 0.65769039 0.71322869 -0.50000000
v 0.65769039 0.77297965 -0.42857143
v 0.59793944 0.77297965 0.50000000
v 0.65769039 0.71322869 0.50000000
v 0.65769039 0.77297965 0.42857143
v 0.59793944 0.89248156 -0.35714286
v 0.65769039 0.83273061 -0.35714286
v 0.59793944 0.89248156 -0.21428571
v 0.65769039 0.83273061 -0.21428571
v 0.59793944 0.89248156 -0.07142857
v 0.65769039 0.83273061 -0.07142857
v 0.59793944 0.89248156 0.07142857
v 0.65769039 0.83273061 0.07142857
v 0.59793944 0.89248156 0.21428571
v 0.65769039 0.83273061 0.21428571
v 0.65769039 0.83273061 0.35714286
v 0.71744135 -0.78054524 -0.35714286
v 0.71744135 -0.78054524 -0.21428571
v 0.71744135 -0.78054524 -0.07142857
v 0.71744135 -0.78054524 0.07142857
v 0.71744135 -0.78054524 0.21428571
v 0.71744135 -0.66104332 -0.50000000
v 0.77719231 -0.66104332 -0.42857143
v 0.77719231 -0.72079428 -0.35714286
v 0.77719231 -0.72079428 -0.21428571
v 0.77719231 -0.72079428 -0.07142857
v 0.77719231 -0.72079428 0.07142857
v 0.77719231 -0.72079428 0.21428571
v 0.71744135 -0.66104332 0.35714286
v 0.77719231 -0.66104332 0.28571429
v 0.71744135 -0.66104332 0.50000000
v 0.71744135 -0.54154141 -0.64285714
v 0.77719231 -0.54154141 -0.57142857
v 0.77719231 -0.60129237 -0.50000000
v 0.77719231 -0.60129237 0.35714286
v 0.77719231 -0.60129237 0.50000000
v 0.71744135 -0.54154141 0.64285714
v 0.77719231 -0.54154141 0.57142857
v 0.71744135 -0.42203950 -0.78571429
v 0.77719231 -0.42203950 -0.71428571
v 0.77719231 -0.48179045 -0.64285714
v 0.77719231 -0.48179045 0.64285714
v 0.71744135 -0.42203950 0.78571429
v 0.77719231 -0.42203950 0.71428571
v 0.71744135 -0.30253758 -0.78571429
v 0.77719231 -0.30253758 -0.71428571
v 0.71744135 -0.30253758 0.78571429
v 0.77719231 -0.30253758 0.71428571
v 0.77719231 -0.18303567 -0.85714286
v 0.77719231 -0.24278662 -0.78571429
v 0.77719231 -0.24278662 0.78571429
v 0.77719231 -0.18303567 0.85714286
v 0.77719231 -0.06353375 -0.85714286
v 0.71744135 -0.06353375 0.92857143
v 0.77719231 -0.06353375 0.85714286
v 0.77719231 0.05596816 -0.85714286
v 0.71744135 0.05596816 0.92857143
v 0.77719231 0.05596816 0.85714286
v 0.77719231 0.17547008 -0.85714286
v 0.77719231 0.17547008 0.85714286
v 0.77719231 0.29497199 -0.85714286
v 0.71744135 0.29497199 0.78571429
v 0.77719231 0.23522103 0.78571429
v 0.77719231 0.29497199 0.71428571
v 0.77719231 0.35472295 -0.78571429
v 0.71744135 0.41447391 -0.78571429
v 0.77719231 0.41447391 -0.71428571
v 0.71744135 0.41447391 0.78571429
v 0.77719231 0.41447391 0.71428571
v 0.71744135 0.53397582 -0.78571429
v 0.77719231 0.47422486 -0.64285714
v 0.71744135 0.53397582 -0.64285714
v 0.77719231 0.53397582 -0.57142857
v 0.71744135 0.53397582 0.64285714
v 0.77719231 0.47422486 0.64285714
v 0.77719231 0.53397582 0.57142857
v 0.71744135 0.65347774 -0.50000000
v 0.77719231 0.59372678 -0.50000000
v 0.77719231 0.65347774 -0.42857143
v 0.71744135 0.65347774 0.50000000
v 0.77719231 0.59372678 0.50000000
v 0.77719231 0.65347774 0.42857143
v 0.71744135 0.77297965 -0.35714286
v 0.77719231 0.71322869 -0.35714286
v 0.71744135 0.77297965 -0.21428571
v 0.77719231 0.71322869 -0.21428571
v 0.71744135 0.77297965 -0.07142857
v 0.77719231 0.71322869 -0.07142857
v 0.71744135 0.77297965 0.07142857
v 0.77719231 0.71322869 0.07142857
v 0.71744135 0.77297965 0.21428571
v 0.77719231 0.71322869 0.21428571
v 0.71744135 0.77297965 0.35714286
v 0.77719231 0.71322869 0.35714286
v 0.83694327 -0.66104332 -0.35714286
v 0.83694327 -0.66104332 -0.21428571
v 0.83694327 -0.66104332 -0.07142857
v 0.83694327 -0.66104332 0.07142857
v 0.83694327 -0.66104332 0.21428571
v 0.83694327 -0.54154141 -0.50000000
v 0.83694327 -0.54154141 -0.35714286
v 0.89669422 -0.54154141 -0.28571429
v 0.89669422 -0.60129237 -0.21428571
v 0.89669422 -0.60129237 -0.07142857
v 0.89669422 -0.60129237 0.07142857
v 0.89669422 -0.54154141 0.14285714
v 0.83694327 -0.54154141 0.21428571
v 0.83694327 -0.54154141 0.35714286
v 0.83694327 -0.54154141 0.50000000
v 0.83694327 -0.42203950 -0.64285714
v 0.83694327 -0.42203950 -0.50000000
v 0.89669422 -0.42203950 -0.42857143
v 0.89669422 -0.48179045 -0.35714286
v 0.89669422 -0.48179045 0.21428571
v 0.89669422 -0.48179045 0.35714286
v 0.89669422 -0.42203950 0.42857143
v 0.83694327 -0.42203950 0.50000000
v 0.83694327 -0.42203950 0.64285714
v 0.83694327 -0.30253758 -0.64285714
v 0.89669422 -0.30253758 -0.57142857
v 0.89669422 -0.36228854 -0.50000000
v 0.89669422 -0.36228854 0.50000000
v 0.89669422 -0.30253758 0.57142857
v 0.83694327 -0.30253758 0.64285714
v 0.83694327 -0.18303567 -0.78571429
v 0.89669422 -0.18303567 -0.71428571
v 0.89669422 -0.24278662 -0.64285714
v 0.83694327 -0.18303567 0.64285714
v 0.89669422 -0.18303567 0.57142857
v 0.83694327 -0.18303567 0.78571429
v 0.83694327 -0.06353375 -0.78571429
v 0.89669422 -0.06353375 -0.71428571
v 0.89669422 -0.12328471 0.64285714
v 0.89669422 -0.06353375 0.71428571
v 0.83694327 -0.06353375 0.78571429
v 0.83694327 0.05596816 -0.78571429
v 0.89669422 0.05596816 -0.71428571
v 0.83694327 0.05596816 0.78571429
v 0.89669422 0.05596816 0.71428571
v 0.83694327 0.17547008 -0.78571429
v 0.89669422 0.17547008 -0.71428571
v 0.83694327 0.17547008 0.78571429
v 0.89669422 0.17547008 0.71428571
v 0.83694327 0.29497199 -0.78571429
v 0.89669422 0.29497199 -0.71428571
v 0.83694327 0.29497199 0.64285714
v 0.89669422 0.23522103 0.64285714
v 0.89669422 0.29497199 0.57142857
v 0.83694327 0.41447391 -0.64285714
v 0.89669422 0.35472295 -0.64285714
v 0.89669422 0.41447391 -0.57142857
v 0.83694327 0.41447391 0.50000000
v 0.89669422 0.35472295 0.50000000
v 0.89669422 0.41447391 0.42857143
v 0.83694327 0.41447391 0.64285714
v 0.83694327 0.53397582 -0.50000000
v 0.89669422 0.47422486 -0.50000000
v 0.89669422 0.53397582 -0.42857143
v 0.83694327 0.53397582 0.35714286
v 0.89669422 0.47422486 0.35714286
v 0.89669422 0.53397582 0.28571429
v 0.83694327 0.53397582 0.50000000
v 0.83694327 0.65347774 -0.35714286
v 0.89669422 0.59372678 -0.35714286
v 0.83694327 0.65347774 -0.21428571
v 0.89669422 0.59372678 -0.21428571
v 0.83694327 0.65347774 -0.07142857
v 0.89669422 0.59372678 -0.07142857
v 0.83694327 0.65347774 0.07142857
v 0.89669422 0.59372678 0.07142857
v 0.83694327 0.65347774 0.21428571
v 0.89669422 0.59372678 0.21428571
v 0.83694327 0.65347774 0.35714286
v 0.95644518 -0.54154141 -0.21428571
v 0.95644518 -0.54154141 -0.07142857
v 0.95644518 -0.54154141 0.07142857
v 0.95644518 -0.42203950 -0.35714286
v 0.95644518 -0.42203950 -0.21428571
v 0.95644518 -0.42203950 -0.07142857
v 0.95644518 -0.42203950 0.07142857
v 0.95644518 -0.42203950 0.21428571
v 0.95644518 -0.42203950 0.35714286
v 0.95644518 -0.30253758 -0.50000000
v 0.95644518 -0.30253758 -0.35714286
v 1.01619614 -0.30253758 -0.28571429
v 1.01619614 -0.36228854 -0.21428571
v 1.01619614 -0.36228854 -0.07142857
v 1.01619614 -0.36228854 0.07142857
v 1.01619614 -0.30253758 0.14285714
v 0.95644518 -0.30253758 0.21428571
v 0.95644518 -0.30253758 0.35714286
v 0.95644518 -0.30253758 0.50000000
v 0.95644518 -0.18303567 -0.64285714
v 0.95644518 -0.18303567 -0.50000000
v 0.95644518 -0.18303567 -0.35714286
v 1.01619614 -0.18303567 -0.28571429
v 1.01619614 -0.24278662 0.21428571
v 1.01619614 -0.18303567 0.28571429
v 0.95644518 -0.18303567 0.35714286
v 0.95644518 -0.18303567 0.50000000
v 0.95644518 -0.06353375 -0.64285714
v 0.95644518 -0.06353375 -0.50000000
v 1.01619614 -0.06353375 -0.42857143
v 1.01619614 -0.12328471 -0.35714286
v 0.95644518 -0.06353375 0.35714286
v 1.01619614 -0.06353375 0.28571429
v 0.95644518 -0.06353375 0.50000000
v 0.95644518 -0.06353375 0.64285714
v 0.95644518 0.05596816 -0.64285714
v 0.95644518 0.05596816 -0.50000000
v 1.01619614 0.05596816 -0.42857143
v 0.95644518 0.05596816 0.35714286
v 1.01619614 0.05596816 0.28571429
v 0.95644518 0.05596816 0.50000000
v 0.95644518 0.05596816 0.64285714
v 0.95644518 0.17547008 -0.64285714
v 0.95644518 0.17547008 -0.50000000
v 1.01619614 0.17547008 -0.42857143
v 0.95644518 0.17547008 0.35714286
v 1.01619614 0.17547008 0.28571429
v 0.95644518 0.17547008 0.50000000
v 0.95644518 0.17547008 0.64285714
v 0.95644518 0.29497199 -0.64285714
v 0.95644518 0.29497199 -0.50000000
v 1.01619614 0.23522103 -0.35714286
v 0.95644518 0.29497199 -0.35714286
v 1.01619614 0.29497199 -0.28571429
v 0.95644518 0.29497199 0.35714286
v 1.01619614 0.29497199 0.28571429
v 0.95644518 0.29497199 0.50000000
v 0.95644518 0.41447391 -0.50000000
v 0.95644518 0.41447391 -0.35714286
v 1.01619614 0.35472295 -0.21428571
v 0.95644518 0.41447391 -0.21428571
v 0.95644518 0.41447391 -0.07142857
v 1.01619614 0.35472295 -0.07142857
v 0.95644518 0.41447391 0.07142857
v 1.01619614 0.35472295 0.07142857
v 0.95644518 0.41447391 0.21428571
v 1.01619614 0.35472295 0.21428571
v 0.95644518 0.41447391 0.35714286
v 0.95644518 0.53397582 -0.35714286
v 0.95644518 0.53397582 -0.21428571
v 0.95644518 0.53397582 -0.07142857
v 0.95644518 0.53397582 0.07142857
v 0.95644518 0.53397582 0.21428571
v 1.07594709 -0.30253758 -0.21428571
v 1.07594709 -0.30253758 -0.07142857
v 1.07594709 -0.30253758 0.07142857
v 1.07594709 -0.18303567 -0.21428571
v 1.07594709 -0.18303567 -0.07142857
v 1.07594709 -0.18303567 0.07142857
v 1.07594709 -0.18303567 0.21428571
v 1.07594709 -0.06353375 -0.35714286
v 1.07594709 -0.06353375 -0.21428571
v 1.07594709 -0.06353375 -0.07142857
v 1.07594709 -0.06353375 0.07142857
v 1.07594709 -0.06353375 0.21428571
v 1.07594709 0.05596816 -0.35714286
v 1.07594709 0.05596816 -0.21428571
v 1.07594709 0.05596816 -0.07142857
v 1.07594709 0.05596816 0.07142857
v 1.07594709 0.05596816 0.21428571
v 1.07594709 0.17547008 -0.35714286
v 1.07594709 0.17547008 -0.21428571
v 1.07594709 0.17547008 -0.07142857
v 1.07594709 0.17547008 0.07142857
v 1.07594709 0.17547008 0.21428571
v 1.07594709 0.29497199 -0.21428571
v 1.07594709 0.29497199 -0.07142857
v 1.07594709 0.29497199 0.07142857
v 1.07594709 0.29497199 0.21428571
f 3 2 1
f 5 4 1
f 1 4 3
f 7 6 5
f 5 6 4
f 9 8 7
f 7 8 6
f 11 10 9
f 9 10 8
f 11 12 10
f 1 2 13
f 13 2 14
f 1 15 5
f 1 13 15
f 5 16 7
f 5 15 16
f 7 17 9
f 7 16 17
f 9 18 11
f 9 17 18
f 12 11 19
f 19 11 18
f 13 14 20
f 20 14 21
f 13 22 15
f 13 20 22
f 15 23 16
f 15 22 23
f 16 24 17
f 16 23 24
f 17 25 18
f 17 24 25
f 19 18 26
f 26 18 25
f 20 21 27
f 27 21 28
f 20 29 22
f 20 27 29
f 22 30 23
f 22 29 30
f 23 31 24
f 23 30 31
f 24 32 25
f 24 31 32
f 26 25 33
f 33 25 32
f 27 28 34
f 34 28 35
f 27 36 29
f 27 34 36
f 29 37 30
f 29 36 37
f 30 38 31
f 30 37 38
f 31 39 32
f 31 38 39
f 33 32 40
f 40 32 39
f 34 35 41
f 41 35 42
f 34 43 36
f 34 41 43
f 36 44 37
f 36 43 44
f 37 45 38
f 37 44 45
f 38 46 39
f 38 45 46
f 40 39 47
f 47 39 46
f 42 48 41
f 41 48 43
f 43 48 49
f 43 49 44
f 44 49 50
f 44 50 45
f 45 50 51
f 45 51 46
f 46 51 52
f 46 52 47
f 55 54 53
f 57 56 53
f 53 56 55
f 59 58 57
f 57 58 56
f 61 60 59
f 59 60 58
f 63 62 61
f 61 62 60
f 65 64 63
f 63 64 62
f 65 66 64
f 69 68 67
f 69 67 54
f 67 53 54
f 67 70 53
f 53 71 57
f 53 70 71
f 57 72 59
f 57 71 72
f 59 73 61
f 59 72 73
f 61 74 63
f 61 73 74
f 63 75 65
f 63 74 75
f 66 65 76
f 65 77 76
f 65 75 77
f 77 78 76
f 81 80 79
f 81 79 68
f 79 67 68
f 79 82 67
f 82 2 3
f 70 82 3
f 67 82 70
f 70 3 4
f 70 4 71
f 71 4 6
f 71 6 72
f 72 6 8
f 72 8 73
f 73 8 10
f 73 10 74
f 74 10 12
f 83 74 12
f 75 74 83
f 75 84 77
f 75 83 84
f 78 77 85
f 85 77 84
f 79 80 86
f 86 80 87
f 79 88 82
f 79 86 88
f 88 14 2
f 88 2 82
f 19 89 83
f 19 83 12
f 83 90 84
f 83 89 90
f 85 84 91
f 84 92 91
f 84 90 92
f 92 93 91
f 86 87 94
f 94 87 95
f 86 96 88
f 86 94 96
f 96 21 14
f 96 14 88
f 26 97 89
f 26 89 19
f 89 98 90
f 89 97 98
f 90 99 92
f 90 98 99
f 93 92 100
f 100 92 99
f 94 95 101
f 101 95 102
f 94 103 96
f 94 101 103
f 103 28 21
f 103 21 96
f 33 104 97
f 33 97 26
f 97 105 98
f 97 104 105
f 98 106 99
f 98 105 106
f 100 99 107
f 107 99 106
f 101 102 108
f 108 102 109
f 101 110 103
f 101 108 110
f 110 35 28
f 110 28 103
f 40 111 104
f 40 104 33
f 104 112 105
f 104 111 112
f 105 113 106
f 105 112 113
f 107 106 114
f 114 106 113
f 109 115 108
f 117 116 115
f 116 108 115
f 116 110 108
f 116 42 35
f 116 35 110
f 47 118 111
f 47 111 40
f 111 119 112
f 111 118 119
f 112 120 113
f 112 119 120
f 114 113 121
f 121 113 120
f 116 117 122
f 122 117 123
f 124 48 42
f 116 124 42
f 122 124 116
f 125 49 48
f 125 48 124
f 126 50 49
f 126 49 125
f 127 51 50
f 127 50 126
f 128 52 51
f 128 51 127
f 118 47 52
f 128 118 52
f 129 118 128
f 118 130 119
f 118 129 130
f 132 120 131
f 120 130 131
f 120 119 130
f 120 132 121
f 123 133 122
f 135 134 133
f 134 122 133
f 134 124 122
f 124 136 125
f 124 134 136
f 125 137 126
f 125 136 137
f 126 138 127
f 126 137 138
f 127 139 128
f 127 138 139
f 141 129 140
f 129 139 140
f 129 128 139
f 129 141 130
f 130 141 142
f 130 142 131
f 135 143 134
f 134 143 136
f 136 143 144
f 136 144 137
f 137 144 145
f 137 145 138
f 138 145 146
f 138 146 139
f 139 146 147
f 139 147 140
f 150 149 148
f 152 151 148
f 148 151 150
f 154 153 152
f 152 153 151
f 156 155 154
f 154 155 153
f 158 157 156
f 156 157 155
f 160 159 158
f 158 159 157
f 162 161 160
f 160 161 159
f 162 163 161
f 166 165 164
f 166 164 149
f 164 148 149
f 164 167 148
f 167 54 55
f 152 167 55
f 148 167 152
f 152 55 56
f 152 56 154
f 154 56 58
f 154 58 156
f 156 58 60
f 156 60 158
f 158 60 62
f 158 62 160
f 160 62 64
f 160 64 162
f 169 168 66
f 66 168 64
f 168 163 64
f 163 162 64
f 169 170 168
f 164 165 171
f 171 165 172
f 171 68 69
f 167 171 69
f 164 171 167
f 167 69 54
f 76 169 66
f 174 173 78
f 78 173 76
f 173 170 76
f 170 169 76
f 174 175 173
f 178 177 176
f 178 176 172
f 172 176 171
f 176 80 171
f 80 81 171
f 171 81 68
f 85 179 174
f 85 174 78
f 175 174 180
f 180 174 179
f 176 177 181
f 181 177 182
f 181 87 80
f 181 80 176
f 91 179 85
f 184 183 93
f 93 183 91
f 183 180 91
f 180 179 91
f 184 185 183
f 181 182 186
f 186 182 187
f 186 95 87
f 186 87 181
f 100 188 184
f 100 184 93
f 185 184 189
f 189 184 188
f 186 187 190
f 190 187 191
f 190 102 95
f 190 95 186
f 107 192 188
f 107 188 100
f 189 188 193
f 193 188 192
f 190 191 194
f 194 191 195
f 194 109 102
f 194 102 190
f 114 196 192
f 114 192 107
f 193 192 197
f 197 192 196
f 195 198 194
f 198 200 199
f 198 199 115
f 194 198 115
f 109 194 115
f 199 117 115
f 202 201 196
f 114 202 196
f 121 202 114
f 196 201 197
f 199 200 203
f 203 200 204
f 203 123 117
f 203 117 199
f 131 205 132
f 205 206 132
f 206 121 132
f 206 202 121
f 204 207 203
f 207 209 208
f 207 208 133
f 203 207 133
f 123 203 133
f 208 135 133
f 140 210 141
f 211 142 141
f 211 141 210
f 211 212 142
f 142 212 131
f 212 213 131
f 213 205 131
f 205 213 206
f 209 214 208
f 214 216 215
f 214 215 143
f 208 214 143
f 135 208 143
f 217 144 143
f 217 143 215
f 218 145 144
f 218 144 217
f 219 146 145
f 219 145 218
f 220 147 146
f 220 146 219
f 210 140 147
f 220 210 147
f 221 210 220
f 223 211 222
f 211 221 222
f 211 210 221
f 211 223 212
f 216 224 215
f 215 224 217
f 217 224 225
f 217 225 218
f 218 225 226
f 218 226 219
f 219 226 227
f 219 227 220
f 220 227 228
f 220 228 221
f 221 228 229
f 221 229 222
f 232 231 230
f 234 233 230
f 230 233 232
f 236 235 234
f 234 235 233
f 238 237 236
f 236 237 235
f 240 239 238
f 238 239 237
f 242 241 240
f 240 241 239
f 244 243 242
f 242 243 241
f 244 245 243
f 248 247 246
f 248 246 231
f 231 246 230
f 246 149 230
f 149 150 230
f 230 150 151
f 230 151 234
f 234 151 153
f 234 153 236
f 236 153 155
f 236 155 238
f 238 155 157
f 238 157 240
f 240 157 159
f 240 159 242
f 242 159 161
f 242 161 244
f 250 249 163
f 163 249 161
f 249 245 161
f 245 244 161
f 250 251 249
f 246 247 166
f 247 165 166
f 247 252 165
f 246 166 149
f 168 250 163
f 254 253 170
f 170 253 168
f 253 251 168
f 251 250 168
f 254 255 253
f 258 257 256
f 252 258 256
f 172 252 256
f 165 252 172
f 173 254 170
f 260 259 175
f 175 259 173
f 259 255 173
f 255 254 173
f 260 261 259
f 256 257 178
f 257 177 178
f 257 262 177
f 256 178 172
f 180 263 260
f 180 260 175
f 261 260 264
f 264 260 263
f 262 182 177
f 265 182 262
f 183 263 180
f 183 185 263
f 185 264 263
f 185 266 264
f 265 187 182
f 267 187 265
f 189 266 185
f 189 268 266
f 267 191 187
f 269 191 267
f 193 268 189
f 193 270 268
f 269 195 191
f 271 195 269
f 197 270 193
f 197 272 270
f 198 195 273
f 195 274 273
f 195 271 274
f 273 200 198
f 202 275 201
f 275 276 201
f 276 197 201
f 276 272 197
f 273 274 277
f 277 274 278
f 277 204 200
f 277 200 273
f 206 279 275
f 206 275 202
f 276 275 280
f 280 275 279
f 278 281 277
f 281 283 282
f 281 282 207
f 277 281 207
f 204 277 207
f 282 209 207
f 212 284 213
f 284 285 213
f 213 285 206
f 285 286 206
f 286 279 206
f 279 286 280
f 283 287 282
f 287 289 288
f 287 288 214
f 282 287 214
f 209 282 214
f 288 216 214
f 222 290 223
f 290 291 223
f 223 291 212
f 291 292 212
f 292 284 212
f 284 292 285
f 289 293 288
f 293 295 294
f 293 294 224
f 288 293 224
f 216 288 224
f 296 225 224
f 296 224 294
f 297 226 225
f 297 225 296
f 298 227 226
f 298 226 297
f 299 228 227
f 299 227 298
f 300 229 228
f 300 228 299
f 300 301 229
f 229 301 222
f 301 302 222
f 302 290 222
f 290 302 291
f 295 303 294
f 294 303 296
f 296 303 304
f 296 304 297
f 297 304 305
f 297 305 298
f 298 305 306
f 298 306 299
f 299 306 307
f 299 307 300
f 300 307 308
f 300 308 301
f 311 310 309
f 313 312 309
f 309 312 311
f 315 314 313
f 313 314 312
f 317 316 315
f 315 316 314
f 319 318 317
f 317 318 316
f 319 320 318
f 323 322 321
f 231 232 321
f 232 323 321
f 232 324 323
f 233 309 310
f 324 233 310
f 232 233 324
f 309 233 235
f 309 235 313
f 313 235 237
f 313 237 315
f 315 237 239
f 315 239 317
f 317 239 241
f 317 241 319
f 325 320 319
f 241 325 319
f 243 325 241
f 327 326 245
f 326 243 245
f 326 325 243
f 327 328 326
f 321 322 248
f 322 247 248
f 322 329 247
f 321 248 231
f 249 327 245
f 331 330 251
f 251 330 249
f 330 328 249
f 328 327 249
f 331 332 330
f 335 334 333
f 329 335 333
f 252 329 333
f 247 329 252
f 253 331 251
f 337 336 255
f 255 336 253
f 336 332 253
f 332 331 253
f 337 338 336
f 333 334 258
f 334 257 258
f 334 339 257
f 333 258 252
f 259 337 255
f 259 261 337
f 261 338 337
f 261 340 338
f 343 342 341
f 339 343 341
f 262 339 341
f 257 339 262
f 264 345 344
f 340 264 344
f 261 264 340
f 345 346 344
f 341 342 347
f 347 342 348
f 347 265 262
f 347 262 341
f 266 349 345
f 266 345 264
f 346 345 350
f 350 345 349
f 347 348 351
f 351 348 352
f 351 267 265
f 351 265 347
f 268 353 349
f 268 349 266
f 350 349 354
f 354 349 353
f 351 352 355
f 355 352 356
f 355 269 267
f 355 267 351
f 270 357 353
f 270 353 268
f 354 353 358
f 358 353 357
f 355 356 359
f 359 356 360
f 359 271 269
f 359 269 355
f 272 361 357
f 272 357 270
f 358 357 362
f 362 357 361
f 359 360 363
f 363 360 364
f 363 274 271
f 363 271 359
f 276 365 361
f 276 361 272
f 362 361 366
f 366 361 365
f 364 367 363
f 274 363 367
f 368 274 367
f 278 274 368
f 370 369 365
f 276 370 365
f 280 370 276
f 365 369 366
f 281 278 371
f 278 372 371
f 278 368 372
f 371 283 281
f 285 373 286
f 373 374 286
f 374 280 286
f 374 370 280
f 372 375 371
f 375 377 376
f 375 376 287
f 371 375 287
f 283 371 287
f 376 289 287
f 291 378 292
f 378 379 292
f 292 379 285
f 379 380 285
f 380 373 285
f 373 380 374
f 377 381 376
f 381 383 382
f 381 382 293
f 376 381 293
f 289 376 293
f 382 295 293
f 301 384 302
f 384 385 302
f 302 385 291
f 385 386 291
f 386 378 291
f 378 386 379
f 383 387 382
f 387 389 388
f 387 388 303
f 382 387 303
f 295 382 303
f 390 304 303
f 390 303 388
f 391 305 304
f 391 304 390
f 392 306 305
f 392 305 391
f 393 307 306
f 393 306 392
f 394 308 307
f 394 307 393
f 394 395 308
f 308 395 301
f 395 396 301
f 396 384 301
f 384 396 385
f 389 397 388
f 388 397 390
f 390 397 398
f 390 398 391
f 391 398 399
f 391 399 392
f 392 399 400
f 392 400 393
f 393 400 401
f 393 401 394
f 394 401 402
f 394 402 395
f 405 404 403
f 310 311 403
f 311 405 403
f 311 406 405
f 407 311 312
f 407 406 311
f 408 312 314
f 408 407 312
f 409 314 316
f 409 408 314
f 410 316 318
f 410 409 316
f 412 411 320
f 411 318 320
f 411 410 318
f 412 413 411
f 415 414 323
f 323 414 322
f 324 403 404
f 415 324 404
f 323 324 415
f 403 324 310
f 325 412 320
f 416 413 412
f 325 416 412
f 326 416 325
f 418 417 328
f 417 326 328
f 417 416 326
f 418 419 417
f 422 421 420
f 414 422 420
f 329 414 420
f 322 414 329
f 330 418 328
f 424 423 332
f 332 423 330
f 423 419 330
f 419 418 330
f 424 425 423
f 420 421 335
f 421 334 335
f 421 426 334
f 420 335 329
f 336 424 332
f 336 338 424
f 338 425 424
f 338 427 425
f 430 429 428
f 426 430 428
f 339 426 428
f 334 426 339
f 340 432 431
f 427 340 431
f 338 340 427
f 432 433 431
f 428 429 343
f 429 342 343
f 429 434 342
f 428 343 339
f 344 432 340
f 344 346 432
f 346 433 432
f 346 435 433
f 434 348 342
f 436 348 434
f 350 435 346
f 350 437 435
f 436 352 348
f 438 352 436
f 354 437 350
f 354 439 437
f 438 356 352
f 440 356 438
f 358 439 354
f 358 441 439
f 440 360 356
f 442 360 440
f 362 441 358
f 362 443 441
f 442 364 360
f 444 364 442
f 366 443 362
f 366 445 443
f 367 364 446
f 364 447 446
f 364 444 447
f 446 368 367
f 370 448 369
f 448 449 369
f 449 366 369
f 449 445 366
f 447 450 446
f 368 446 450
f 451 368 450
f 372 368 451
f 453 452 448
f 370 453 448
f 374 453 370
f 448 452 449
f 375 372 454
f 372 455 454
f 372 451 455
f 454 377 375
f 379 456 380
f 456 457 380
f 457 374 380
f 457 453 374
f 455 458 454
f 458 460 459
f 458 459 381
f 454 458 381
f 377 454 381
f 459 383 381
f 385 461 386
f 461 462 386
f 386 462 379
f 462 463 379
f 463 456 379
f 456 463 457
f 460 464 459
f 464 466 465
f 464 465 387
f 459 464 387
f 383 459 387
f 465 389 387
f 468 467 396
f 468 396 395
f 385 396 461
f 396 469 461
f 396 467 469
f 461 469 462
f 466 470 465
f 465 470 389
f 470 397 389
f 470 471 397
f 397 472 398
f 471 472 397
f 398 473 399
f 472 473 398
f 399 474 400
f 473 474 399
f 400 475 401
f 474 475 400
f 401 476 402
f 475 476 401
f 395 402 468
f 468 402 476
f 479 478 477
f 481 480 477
f 477 480 479
f 483 482 481
f 481 482 480
f 485 484 483
f 483 484 482
f 487 486 485
f 485 486 484
f 487 488 486
f 491 490 489
f 404 405 489
f 405 491 489
f 405 492 491
f 406 477 478
f 492 406 478
f 405 406 492
f 477 406 407
f 477 407 481
f 481 407 408
f 481 408 483
f 483 408 409
f 483 409 485
f 485 409 410
f 485 410 487
f 493 488 487
f 410 493 487
f 411 493 410
f 495 494 413
f 494 411 413
f 494 493 411
f 495 496 494
f 489 490 415
f 490 414 415
f 490 497 414
f 489 415 404
f 416 495 413
f 498 496 495
f 416 498 495
f 417 498 416
f 417 419 498
f 498 419 499
f 501 500 422
f 422 500 421
f 422 414 497
f 422 497 501
f 502 499 419
f 502 419 423
f 423 425 502
f 502 425 503
f 506 505 504
f 500 506 504
f 426 500 504
f 421 500 426
f 427 508 507
f 503 427 507
f 425 427 503
f 508 509 507
f 504 505 430
f 505 429 430
f 505 510 429
f 504 430 426
f 431 508 427
f 431 433 508
f 433 509 508
f 433 511 509
f 510 434 429
f 512 434 510
f 435 511 433
f 435 513 511
f 512 436 434
f 514 436 512
f 437 513 435
f 437 515 513
f 514 438 436
f 516 438 514
f 439 515 437
f 439 517 515
f 516 440 438
f 518 440 516
f 441 517 439
f 441 519 517
f 518 442 440
f 520 442 518
f 443 519 441
f 443 521 519
f 520 444 442
f 522 444 520
f 445 521 443
f 445 523 521
f 522 447 444
f 524 447 522
f 449 523 445
f 449 525 523
f 450 447 526
f 447 527 526
f 447 524 527
f 526 451 450
f 453 528 452
f 528 529 452
f 529 449 452
f 529 525 449
f 527 530 526
f 451 526 530
f 531 451 530
f 455 451 531
f 533 532 528
f 453 533 528
f 457 533 453
f 528 532 529
f 458 455 534
f 455 535 534
f 455 531 535
f 534 460 458
f 537 536 463
f 537 463 462
f 457 463 533
f 533 463 536
f 535 538 534
f 534 538 460
f 538 464 460
f 538 539 464
f 466 464 539
f 466 539 540
f 468 541 467
f 467 541 542
f 543 467 542
f 469 467 543
f 462 469 537
f 537 469 543
f 540 544 466
f 466 544 470
f 544 546 545
f 471 544 545
f 470 544 471
f 547 472 471
f 547 471 545
f 548 473 472
f 548 472 547
f 549 474 473
f 549 473 548
f 550 475 474
f 550 474 549
f 475 550 551
f 552 475 551
f 476 475 552
f 468 476 541
f 476 553 541
f 476 552 553
f 541 553 542
f 546 554 545
f 545 554 547
f 547 554 555
f 547 555 548
f 548 555 556
f 548 556 549
f 549 556 557
f 549 557 550
f 550 557 558
f 550 558 551
f 560 559 479
f 479 559 478
f 561 479 480
f 561 560 479
f 562 480 482
f 562 561 480
f 563 482 484
f 563 562 482
f 564 484 486
f 564 563 484
f 486 488 564
f 564 488 565
f 567 566 491
f 491 566 490
f 568 491 492
f 568 567 491
f 492 478 559
f 492 559 568
f 569 565 488
f 569 488 493
f 570 493 494
f 570 569 493
f 572 571 496
f 571 494 496
f 571 570 494
f 572 573 571
f 576 575 574
f 566 576 574
f 497 566 574
f 490 566 497
f 498 572 496
f 578 577 499
f 499 577 498
f 577 573 498
f 573 572 498
f 578 579 577
f 574 575 501
f 575 500 501
f 575 580 500
f 574 501 497
f 502 578 499
f 502 503 578
f 503 579 578
f 503 581 579
f 583 582 506
f 506 582 505
f 506 500 580
f 506 580 583
f 584 581 503
f 584 503 507
f 507 509 584
f 584 509 585
f 582 510 505
f 586 510 582
f 511 585 509
f 511 587 585
f 586 512 510
f 588 512 586
f 513 587 511
f 513 589 587
f 588 514 512
f 590 514 588
f 515 589 513
f 515 591 589
f 590 516 514
f 592 516 590
f 517 591 515
f 517 593 591
f 592 518 516
f 594 518 592
f 519 593 517
f 519 595 593
f 594 520 518
f 596 520 594
f 521 595 519
f 521 597 595
f 596 522 520
f 598 522 596
f 523 597 521
f 523 599 597
f 598 524 522
f 600 524 598
f 525 599 523
f 525 601 599
f 600 527 524
f 602 527 600
f 529 601 525
f 529 603 601
f 530 527 604
f 527 605 604
f 527 602 605
f 604 531 530
f 533 606 532
f 606 607 532
f 607 529 532
f 607 603 529
f 605 608 604
f 531 604 608
f 609 531 608
f 535 531 609
f 537 610 536
f 610 611 536
f 536 611 533
f 611 612 533
f 612 606 533
f 606 612 607
f 609 613 535
f 535 613 538
f 613 615 614
f 539 613 614
f 538 613 539
f 614 540 539
f 617 616 543
f 617 543 542
f 537 543 610
f 543 618 610
f 543 616 618
f 610 618 611
f 615 619 614
f 614 619 540
f 619 544 540
f 619 620 544
f 546 544 620
f 546 620 621
f 623 622 552
f 623 552 551
f 552 624 553
f 622 624 552
f 542 553 617
f 617 553 624
f 621 625 546
f 546 625 554
f 554 626 555
f 625 626 554
f 555 627 556
f 626 627 555
f 556 628 557
f 627 628 556
f 557 629 558
f 628 629 557
f 551 558 623
f 623 558 629
f 631 630 560
f 560 630 559
f 632 560 561
f 632 631 560
f 633 561 562
f 633 632 561
f 634 562 563
f 634 633 562
f 635 563 564
f 635 634 563
f 564 565 635
f 635 565 636
f 638 637 567
f 567 637 566
f 639 567 568
f 639 638 567
f 568 559 630
f 568 630 639
f 640 636 565
f 640 565 569
f 641 569 570
f 641 640 569
f 642 570 571
f 642 641 570
f 571 573 642
f 642 573 643
f 645 644 576
f 576 644 575
f 576 566 637
f 576 637 645
f 646 643 573
f 646 573 577
f 577 579 646
f 646 579 647
f 644 580 575
f 648 580 644
f 581 647 579
f 581 649 647
f 651 650 583
f 583 650 582
f 583 580 648
f 583 648 651
f 652 649 581
f 652 581 584
f 584 585 652
f 652 585 653
f 650 586 582
f 654 586 650
f 587 653 585
f 587 655 653
f 654 588 586
f 656 588 654
f 589 655 587
f 589 657 655
f 656 590 588
f 658 590 656
f 591 657 589
f 591 659 657
f 658 592 590
f 660 592 658
f 593 659 591
f 593 661 659
f 660 594 592
f 662 594 660
f 595 661 593
f 595 663 661
f 662 596 594
f 664 596 662
f 597 663 595
f 597 665 663
f 664 598 596
f 666 598 664
f 599 665 597
f 599 667 665
f 666 600 598
f 668 600 666
f 601 667 599
f 601 669 667
f 668 602 600
f 670 602 668
f 603 669 601
f 603 671 669
f 670 605 602
f 672 605 670
f 607 671 603
f 607 673 671
f 672 674 605
f 605 674 608
f 609 608 674
f 609 674 675
f 677 676 612
f 677 612 611
f 607 612 673
f 673 612 676
f 675 678 609
f 609 678 613
f 615 613 678
f 615 678 679
f 681 680 616
f 681 616 617
f 616 682 618
f 680 682 616
f 611 618 677
f 677 618 682
f 679 683 615
f 615 683 619
f 619 684 620
f 683 684 619
f 621 620 684
f 621 684 685
f 687 686 622
f 687 622 623
f 622 688 624
f 686 688 622
f 617 624 681
f 681 624 688
f 685 689 621
f 621 689 625
f 625 690 626
f 689 690 625
f 626 691 627
f 690 691 626
f 627 692 628
f 691 692 627
f 628 693 629
f 692 693 628
f 623 629 687
f 687 629 693
f 695 694 631
f 631 694 630
f 696 631 632
f 696 695 631
f 697 632 633
f 697 696 632
f 698 633 634
f 698 697 633
f 699 634 635
f 699 698 634
f 635 636 699
f 699 636 700
f 702 701 638
f 638 701 637
f 703 638 639
f 703 702 638
f 639 630 694
f 639 694 703
f 704 700 636
f 704 636 640
f 705 640 641
f 705 704 640
f 706 641 642
f 706 705 641
f 642 643 706
f 706 643 707
f 709 708 645
f 645 708 644
f 645 637 701
f 645 701 709
f 710 707 643
f 710 643 646
f 646 647 710
f 710 647 711
f 708 648 644
f 712 648 708
f 649 711 647
f 649 713 711
f 715 714 651
f 651 714 650
f 651 648 712
f 651 712 715
f 716 713 649
f 716 649 652
f 652 653 716
f 716 653 717
f 714 654 650
f 718 654 714
f 655 717 653
f 655 719 717
f 718 656 654
f 720 656 718
f 657 719 655
f 657 721 719
f 720 658 656
f 722 658 720
f 659 721 657
f 659 723 721
f 722 660 658
f 724 660 722
f 661 723 659
f 661 725 723
f 724 662 660
f 726 662 724
f 663 725 661
f 663 727 725
f 726 664 662
f 728 664 726
f 665 727 663
f 665 729 727
f 728 666 664
f 730 666 728
f 667 729 665
f 667 731 729
f 730 668 666
f 732 668 730
f 669 731 667
f 669 733 731
f 732 670 668
f 734 670 732
f 671 733 669
f 671 735 733
f 734 672 670
f 736 672 734
f 673 735 671
f 673 737 735
f 736 738 672
f 672 738 674
f 675 674 738
f 675 738 739
f 741 740 676
f 741 676 677
f 673 676 737
f 737 676 740
f 739 742 675
f 675 742 678
f 679 678 742
f 679 742 743
f 745 744 680
f 745 680 681
f 680 746 682
f 744 746 680
f 677 682 741
f 741 682 746
f 743 747 679
f 679 747 683
f 683 748 684
f 747 748 683
f 685 684 748
f 685 748 749
f 687 750 686
f 686 750 751
f 752 686 751
f 688 686 752
f 681 688 745
f 745 688 752
f 749 753 685
f 685 753 689
f 689 754 690
f 753 754 689
f 690 755 691
f 754 755 690
f 691 756 692
f 755 756 691
f 692 757 693
f 756 757 692
f 687 693 750
f 693 758 750
f 693 757 758
f 750 758 751
f 760 759 695
f 695 759 694
f 761 695 696
f 761 760 695
f 762 696 697
f 762 761 696
f 763 697 698
f 763 762 697
f 764 698 699
f 764 763 698
f 699 700 764
f 764 700 765
f 767 766 702
f 702 766 701
f 768 702 703
f 768 767 702
f 703 694 759
f 703 759 768
f 769 765 700
f 769 700 704
f 770 704 705
f 770 769 704
f 771 705 706
f 771 770 705
f 706 707 771
f 771 707 772
f 774 773 709
f 709 773 708
f 709 701 766
f 709 766 774
f 775 772 707
f 775 707 710
f 710 711 775
f 775 711 776
f 773 712 708
f 777 712 773
f 713 776 711
f 713 778 776
f 780 779 715
f 715 779 714
f 715 712 777
f 715 777 780
f 781 778 713
f 781 713 716
f 716 717 781
f 781 717 782
f 779 718 714
f 783 718 779
f 719 782 717
f 719 784 782
f 783 720 718
f 785 720 783
f 721 784 719
f 721 786 784
f 785 722 720
f 787 722 785
f 723 786 721
f 723 788 786
f 787 724 722
f 789 724 787
f 725 788 723
f 725 790 788
f 789 726 724
f 791 726 789
f 727 790 725
f 727 792 790
f 791 728 726
f 793 728 791
f 729 792 727
f 729 794 792
f 793 730 728
f 795 730 793
f 731 794 729
f 731 796 794
f 795 732 730
f 797 732 795
f 733 796 731
f 733 798 796
f 797 734 732
f 799 734 797
f 735 798 733
f 735 800 798
f 799 736 734
f 801 736 799
f 737 800 735
f 737 802 800
f 801 803 736
f 736 803 738
f 739 738 803
f 739 803 804
f 806 805 740
f 806 740 741
f 737 740 802
f 802 740 805
f 804 807 739
f 739 807 742
f 743 742 807
f 743 807 808
f 810 809 744
f 810 744 745
f 744 811 746
f 809 811 744
f 741 746 806
f 806 746 811
f 808 812 743
f 743 812 747
f 747 813 748
f 812 813 747
f 749 748 813
f 749 813 814
f 817 816 815
f 752 751 815
f 816 752 815
f 818 752 816
f 745 752 810
f 810 752 818
f 814 819 749
f 749 819 753
f 753 820 754
f 819 820 753
f 754 821 755
f 820 821 754
f 755 822 756
f 821 822 755
f 756 823 757
f 822 823 756
f 815 758 817
f 758 823 817
f 758 757 823
f 758 815 751
f 824 759 760
f 824 760 825
f 760 826 825
f 760 761 826
f 827 761 762
f 827 826 761
f 828 762 763
f 828 827 762
f 830 828 829
f 828 764 829
f 828 763 764
f 765 829 764
f 831 766 767
f 831 767 832
f 767 833 832
f 767 768 833
f 768 759 824
f 834 768 824
f 833 768 834
f 834 824 825
f 835 830 829
f 835 829 765
f 769 835 765
f 836 835 769
f 837 769 770
f 837 836 769
f 839 837 838
f 837 771 838
f 837 770 771
f 772 838 771
f 840 773 774
f 841 840 774
f 841 774 766
f 842 841 766
f 831 842 766
f 842 831 832
f 843 839 838
f 845 843 844
f 844 843 775
f 843 838 775
f 838 772 775
f 776 844 775
f 847 846 840
f 846 773 840
f 846 777 773
f 847 840 841
f 848 845 844
f 844 776 848
f 776 849 848
f 776 778 849
f 851 850 780
f 780 850 779
f 780 777 846
f 780 846 851
f 852 849 778
f 852 778 781
f 781 782 852
f 852 782 853
f 850 783 779
f 854 783 850
f 784 853 782
f 784 855 853
f 854 785 783
f 856 785 854
f 786 855 784
f 786 857 855
f 856 787 785
f 858 787 856
f 788 857 786
f 788 859 857
f 858 789 787
f 860 789 858
f 790 859 788
f 790 861 859
f 860 791 789
f 862 791 860
f 792 861 790
f 792 863 861
f 862 793 791
f 864 793 862
f 794 863 792
f 794 865 863
f 864 795 793
f 866 795 864
f 796 865 794
f 796 867 865
f 866 797 795
f 868 797 866
f 798 867 796
f 798 869 867
f 868 799 797
f 870 799 868
f 800 869 798
f 800 871 869
f 870 801 799
f 872 801 870
f 875 874 873
f 874 871 873
f 871 802 873
f 871 800 802
f 872 876 801
f 801 876 803
f 804 803 876
f 804 876 877
f 880 879 878
f 878 879 875
f 878 875 873
f 806 878 873
f 805 806 873
f 805 873 802
f 877 881 804
f 804 881 807
f 808 807 881
f 808 881 882
f 884 883 809
f 884 809 810
f 878 811 880
f 811 883 880
f 811 809 883
f 811 878 806
f 882 885 808
f 808 885 812
f 812 886 813
f 885 886 812
f 888 887 814
f 813 888 814
f 886 888 813
f 889 887 888
f 891 890 816
f 891 816 817
f 816 892 818
f 890 892 816
f 810 818 884
f 884 818 892
f 887 819 814
f 889 893 887
f 893 819 887
f 893 820 819
f 820 894 821
f 893 894 820
f 821 895 822
f 894 895 821
f 822 896 823
f 895 896 822
f 817 823 891
f 891 823 896
f 897 825 826
f 827 898 826
f 826 898 897
f 828 899 827
f 827 899 898
f 830 899 828
f 901 900 833
f 833 900 832
f 902 833 834
f 902 901 833
f 834 825 897
f 903 834 897
f 902 834 903
f 903 897 898
f 903 898 904
f 904 898 899
f 904 899 905
f 905 899 830
f 835 905 830
f 906 905 835
f 907 835 836
f 907 906 835
f 909 907 908
f 907 837 908
f 907 836 837
f 839 908 837
f 911 910 842
f 842 910 841
f 842 832 900
f 842 900 911
f 912 909 908
f 912 908 839
f 843 912 839
f 913 912 843
f 843 845 913
f 913 845 914
f 916 915 847
f 847 915 846
f 847 841 910
f 847 910 916
f 917 914 845
f 917 845 848
f 848 849 917
f 917 849 918
f 919 850 851
f 920 919 851
f 846 920 851
f 915 920 846
f 849 852 921
f 922 849 921
f 918 849 922
f 853 921 852
f 924 923 919
f 923 850 919
f 923 854 850
f 924 919 920
f 925 922 921
f 921 853 925
f 853 926 925
f 853 855 926
f 923 856 854
f 927 856 923
f 857 926 855
f 857 928 926
f 927 858 856
f 929 858 927
f 859 928 857
f 859 930 928
f 929 860 858
f 931 860 929
f 861 930 859
f 861 932 930
f 931 862 860
f 933 862 931
f 863 932 861
f 863 934 932
f 933 864 862
f 935 864 933
f 865 934 863
f 865 936 934
f 935 866 864
f 937 866 935
f 867 936 865
f 867 938 936
f 937 868 866
f 939 868 937
f 869 938 867
f 869 940 938
f 939 870 868
f 941 870 939
f 871 940 869
f 871 942 940
f 944 872 943
f 872 941 943
f 872 870 941
f 945 944 943
f 947 946 874
f 947 874 875
f 871 874 942
f 942 874 946
f 944 876 872
f 949 948 877
f 949 877 876
f 945 949 876
f 944 945 876
f 950 948 949
f 952 951 879
f 952 879 880
f 875 879 947
f 947 879 951
f 948 881 877
f 954 953 882
f 954 882 881
f 950 954 881
f 948 950 881
f 956 955 953
f 956 953 954
f 957 955 956
f 960 959 958
f 883 884 958
f 959 883 958
f 961 883 959
f 880 883 952
f 952 883 961
f 953 885 882
f 885 953 886
f 886 953 955
f 957 962 955
f 962 886 955
f 962 888 886
f 964 963 889
f 888 964 889
f 962 964 888
f 966 965 963
f 966 963 964
f 968 967 965
f 968 965 966
f 970 969 967
f 970 967 968
f 890 891 969
f 970 890 969
f 971 890 970
f 958 892 960
f 892 971 960
f 892 890 971
f 892 958 884
f 963 893 889
f 893 963 894
f 894 963 965
f 894 965 895
f 895 965 967
f 895 967 896
f 896 967 969
f 896 969 891
f 972 900 901
f 902 973 901
f 901 973 972
f 973 902 974
f 902 975 974
f 902 903 975
f 976 903 904
f 976 975 903
f 977 904 905
f 977 976 904
f 979 977 978
f 977 906 978
f 977 905 906
f 907 980 906
f 906 980 978
f 909 980 907
f 981 910 911
f 982 981 911
f 982 911 900
f 983 982 900
f 972 983 900
f 983 972 973
f 983 973 984
f 984 973 974
f 985 979 978
f 985 978 980
f 985 980 986
f 986 980 909
f 912 986 909
f 987 986 912
f 989 987 988
f 987 913 988
f 987 912 913
f 914 988 913
f 990 915 916
f 991 990 916
f 991 916 910
f 992 991 910
f 981 992 910
f 992 981 982
f 993 989 988
f 995 993 994
f 994 993 917
f 993 988 917
f 988 914 917
f 918 994 917
f 997 996 990
f 996 915 990
f 996 920 915
f 997 990 991
f 998 995 994
f 994 918 998
f 918 999 998
f 918 922 999
f 1000 923 924
f 1001 1000 924
f 920 1001 924
f 996 1001 920
f 922 925 1002
f 1003 922 1002
f 999 922 1003
f 926 1002 925
f 1005 1004 1000
f 1004 923 1000
f 1004 927 923
f 1005 1000 1001
f 1006 1003 1002
f 1002 926 1006
f 926 1007 1006
f 926 928 1007
f 1004 929 927
f 1008 929 1004
f 930 1007 928
f 930 1009 1007
f 1008 931 929
f 1010 931 1008
f 932 1009 930
f 932 1011 1009
f 1010 933 931
f 1012 933 1010
f 934 1011 932
f 934 1013 1011
f 1012 935 933
f 1014 935 1012
f 936 1013 934
f 936 1015 1013
f 1014 937 935
f 1016 937 1014
f 938 1015 936
f 938 1017 1015
f 1016 939 937
f 1018 939 1016
f 940 1017 938
f 940 1019 1017
f 1021 941 1020
f 941 1018 1020
f 941 939 1018
f 1022 1021 1020
f 1025 1024 1023
f 1024 1019 1023
f 1019 942 1023
f 1019 940 942
f 1021 943 941
f 945 943 1021
f 1022 945 1021
f 1026 945 1022
f 1029 1028 1027
f 1027 1028 1025
f 1027 1025 1023
f 947 1027 1023
f 946 947 1023
f 946 1023 942
f 1026 1030 945
f 945 1030 949
f 1032 1031 950
f 949 1032 950
f 1030 1032 949
f 1033 1031 1032
f 1036 1035 1034
f 1034 1035 1029
f 1034 1029 1027
f 952 1034 1027
f 951 952 1027
f 951 1027 947
f 1031 954 950
f 1033 1037 1031
f 1037 954 1031
f 1037 956 954
f 957 956 1037
f 957 1037 1038
f 1041 1040 1039
f 959 960 1039
f 1040 959 1039
f 1042 959 1040
f 1034 961 1036
f 961 1042 1036
f 961 959 1042
f 961 1034 952
f 1038 1043 957
f 957 1043 962
f 962 1044 964
f 1043 1044 962
f 964 1045 966
f 1044 1045 964
f 966 1046 968
f 1045 1046 966
f 968 1047 970
f 1046 1047 968
f 1039 971 1041
f 971 1047 1041
f 971 970 1047
f 971 1039 960
f 1048 974 975
f 976 1049 975
f 975 1049 1048
f 977 1050 976
f 976 1050 1049
f 979 1050 977
f 1051 982 983
f 1051 983 1052
f 983 1053 1052
f 983 984 1053
f 984 974 1048
f 1054 984 1048
f 1053 984 1054
f 1054 1048 1049
f 1054 1049 1055
f 1055 1049 1050
f 1055 1050 1056
f 1056 1050 979
f 985 1056 979
f 1057 1056 985
f 1059 1057 1058
f 1057 986 1058
f 1057 985 986
f 987 1060 986
f 986 1060 1058
f 989 1060 987
f 1061 991 992
f 1062 1061 992
f 1062 992 982
f 1063 1062 982
f 1051 1063 982
f 1063 1051 1052
f 1064 1059 1058
f 1064 1058 1060
f 1064 1060 1065
f 1067 1065 1066
f 1066 1065 993
f 1065 1060 993
f 1060 989 993
f 995 1066 993
f 1068 996 997
f 1069 1068 997
f 1069 997 991
f 1070 1069 991
f 1061 1070 991
f 1070 1061 1062
f 1071 1067 1066
f 1073 1071 1072
f 1072 1071 998
f 1071 1066 998
f 1066 995 998
f 999 1072 998
f 1075 1074 1068
f 1074 996 1068
f 1074 1001 996
f 1075 1068 1069
f 1076 1073 1072
f 1072 999 1076
f 999 1077 1076
f 999 1003 1077
f 1078 1004 1005
f 1079 1078 1005
f 1001 1079 1005
f 1074 1079 1001
f 1003 1006 1080
f 1081 1003 1080
f 1077 1003 1081
f 1007 1080 1006
f 1082 1008 1078
f 1078 1008 1004
f 1078 1079 1083
f 1078 1083 1082
f 1081 1080 1084
f 1081 1084 1085
f 1009 1084 1007
f 1007 1084 1080
f 1086 1010 1082
f 1082 1010 1008
f 1082 1083 1087
f 1082 1087 1086
f 1088 1085 1084
f 1084 1009 1088
f 1009 1089 1088
f 1009 1011 1089
f 1090 1012 1086
f 1086 1012 1010
f 1086 1087 1091
f 1086 1091 1090
f 1013 1089 1011
f 1013 1092 1089
f 1093 1014 1090
f 1090 1014 1012
f 1090 1091 1094
f 1090 1094 1093
f 1097 1096 1095
f 1096 1092 1095
f 1092 1015 1095
f 1092 1013 1015
f 1098 1016 1093
f 1093 1016 1014
f 1093 1094 1099
f 1093 1099 1098
f 1097 1095 1100
f 1097 1100 1101
f 1017 1100 1015
f 1015 1100 1095
f 1102 1018 1098
f 1098 1018 1016
f 1098 1099 1103
f 1098 1103 1102
f 1101 1100 1104
f 1101 1104 1105
f 1019 1104 1017
f 1017 1104 1100
f 1102 1020 1018
f 1022 1020 1102
f 1103 1022 1102
f 1106 1022 1103
f 1109 1108 1107
f 1107 1108 1105
f 1107 1105 1104
f 1025 1107 1104
f 1024 1025 1104
f 1024 1104 1019
f 1111 1026 1110
f 1026 1106 1110
f 1026 1022 1106
f 1113 1112 1111
f 1113 1111 1110
f 1114 1112 1113
f 1117 1116 1115
f 1115 1116 1109
f 1115 1109 1107
f 1029 1115 1107
f 1028 1029 1107
f 1028 1107 1025
f 1111 1030 1026
f 1030 1111 1032
f 1032 1111 1112
f 1119 1118 1033
f 1119 1033 1032
f 1114 1119 1032
f 1112 1114 1032
f 1120 1118 1119
f 1123 1122 1121
f 1121 1122 1117
f 1121 1117 1115
f 1036 1121 1115
f 1035 1036 1115
f 1035 1115 1029
f 1118 1037 1033
f 1125 1124 1038
f 1125 1038 1037
f 1120 1125 1037
f 1118 1120 1037
f 1127 1126 1124
f 1127 1124 1125
f 1129 1128 1126
f 1129 1126 1127
f 1131 1130 1128
f 1131 1128 1129
f 1133 1132 1130
f 1133 1130 1131
f 1040 1041 1132
f 1133 1040 1132
f 1134 1040 1133
f 1121 1042 1123
f 1042 1134 1123
f 1042 1040 1134
f 1042 1121 1036
f 1124 1043 1038
f 1043 1124 1044
f 1044 1124 1126
f 1044 1126 1045
f 1045 1126 1128
f 1045 1128 1046
f 1046 1128 1130
f 1046 1130 1047
f 1047 1130 1132
f 1047 1132 1041
f 1135 1052 1053
f 1054 1136 1053
f 1053 1136 1135
f 1055 1137 1054
f 1054 1137 1136
f 1056 1138 1055
f 1055 1138 1137
f 1057 1139 1056
f 1056 1139 1138
f 1059 1139 1057
f 1140 1062 1063
f 1141 1140 1063
f 1141 1063 1052
f 1142 1141 1052
f 1135 1142 1052
f 1142 1135 1136
f 1142 1136 1143
f 1143 1136 1137
f 1143 1137 1144
f 1144 1137 1138
f 1144 1138 1145
f 1145 1138 1139
f 1145 1139 1146
f 1148 1146 1147
f 1147 1146 1064
f 1146 1139 1064
f 1139 1059 1064
f 1065 1149 1064
f 1064 1149 1147
f 1067 1149 1065
f 1150 1069 1070
f 1151 1150 1070
f 1151 1070 1062
f 1152 1151 1062
f 1140 1152 1062
f 1152 1140 1141
f 1153 1148 1147
f 1153 1147 1149
f 1153 1149 1154
f 1156 1154 1155
f 1155 1154 1071
f 1154 1149 1071
f 1149 1067 1071
f 1073 1155 1071
f 1157 1074 1075
f 1158 1157 1075
f 1158 1075 1069
f 1159 1158 1069
f 1150 1159 1069
f 1159 1150 1151
f 1160 1156 1155
f 1162 1160 1161
f 1161 1160 1076
f 1160 1155 1076
f 1155 1073 1076
f 1077 1161 1076
f 1163 1079 1157
f 1157 1079 1074
f 1157 1158 1164
f 1157 1164 1163
f 1162 1161 1165
f 1162 1165 1166
f 1081 1165 1077
f 1077 1165 1161
f 1168 1167 1163
f 1167 1079 1163
f 1167 1083 1079
f 1168 1163 1164
f 1169 1166 1165
f 1165 1081 1169
f 1081 1170 1169
f 1081 1085 1170
f 1167 1087 1083
f 1171 1087 1167
f 1085 1088 1172
f 1173 1085 1172
f 1170 1085 1173
f 1089 1172 1088
f 1171 1091 1087
f 1174 1091 1171
f 1173 1172 1175
f 1173 1175 1176
f 1092 1175 1089
f 1089 1175 1172
f 1174 1094 1091
f 1177 1094 1174
f 1176 1175 1096
f 1097 1176 1096
f 1178 1176 1097
f 1096 1175 1092
f 1177 1099 1094
f 1179 1099 1177
f 1182 1181 1180
f 1181 1178 1180
f 1178 1101 1180
f 1178 1097 1101
f 1184 1103 1183
f 1103 1179 1183
f 1103 1099 1179
f 1185 1184 1183
f 1182 1180 1186
f 1182 1186 1187
f 1105 1186 1101
f 1101 1186 1180
f 1188 1106 1184
f 1184 1106 1103
f 1184 1185 1189
f 1190 1184 1189
f 1188 1184 1190
f 1191 1190 1189
f 1194 1193 1192
f 1192 1193 1187
f 1192 1187 1186
f 1109 1192 1186
f 1108 1109 1186
f 1108 1186 1105
f 1188 1110 1106
f 1110 1188 1113
f 1113 1188 1190
f 1196 1195 1114
f 1196 1114 1113
f 1191 1196 1113
f 1190 1191 1113
f 1197 1195 1196
f 1200 1199 1198
f 1198 1199 1194
f 1198 1194 1192
f 1117 1198 1192
f 1116 1117 1192
f 1116 1192 1109
f 1195 1119 1114
f 1202 1201 1120
f 1202 1120 1119
f 1197 1202 1119
f 1195 1197 1119
f 1204 1203 1201
f 1204 1201 1202
f 1206 1205 1203
f 1206 1203 1204
f 1208 1207 1205
f 1208 1205 1206
f 1210 1209 1207
f 1210 1207 1208
f 1212 1211 1209
f 1212 1209 1210
f 1211 1212 1200
f 1211 1200 1198
f 1123 1211 1198
f 1122 1123 1198
f 1122 1198 1117
f 1201 1125 1120
f 1125 1201 1127
f 1127 1201 1203
f 1127 1203 1129
f 1129 1203 1205
f 1129 1205 1131
f 1131 1205 1207
f 1131 1207 1133
f 1133 1207 1209
f 1133 1209 1134
f 1134 1209 1211
f 1134 1211 1123
f 1213 1141 1142
f 1143 1214 1142
f 1142 1214 1213
f 1144 1215 1143
f 1143 1215 1214
f 1145 1216 1144
f 1144 1216 1215
f 1146 1217 1145
f 1145 1217 1216
f 1148 1217 1146
f 1218 1151 1152
f 1141 1213 1152
f 1213 1218 1152
f 1213 1219 1218
f 1214 1221 1220
f 1219 1214 1220
f 1213 1214 1219
f 1221 1214 1215
f 1221 1215 1222
f 1222 1215 1216
f 1222 1216 1223
f 1225 1224 1223
f 1216 1225 1223
f 1217 1225 1216
f 1153 1226 1148
f 1226 1217 1148
f 1226 1225 1217
f 1154 1227 1153
f 1153 1227 1226
f 1156 1227 1154
f 1228 1158 1159
f 1151 1218 1159
f 1218 1228 1159
f 1218 1229 1228
f 1219 1231 1230
f 1229 1219 1230
f 1218 1219 1229
f 1231 1219 1220
f 1232 1224 1225
f 1232 1225 1226
f 1232 1226 1233
f 1235 1234 1233
f 1226 1235 1233
f 1227 1235 1226
f 1160 1236 1156
f 1236 1227 1156
f 1236 1235 1227
f 1162 1236 1160
f 1237 1164 1228
f 1228 1164 1158
f 1229 1239 1238
f 1237 1229 1238
f 1228 1229 1237
f 1239 1229 1230
f 1240 1234 1235
f 1242 1241 1240
f 1235 1242 1240
f 1236 1242 1235
f 1166 1242 1162
f 1162 1242 1236
f 1243 1167 1168
f 1244 1243 1168
f 1244 1168 1164
f 1245 1244 1164
f 1237 1245 1164
f 1245 1237 1238
f 1241 1242 1246
f 1241 1246 1247
f 1169 1248 1166
f 1248 1242 1166
f 1248 1246 1242
f 1170 1248 1169
f 1249 1171 1243
f 1243 1171 1167
f 1243 1244 1250
f 1243 1250 1249
f 1251 1247 1246
f 1253 1252 1251
f 1246 1253 1251
f 1248 1253 1246
f 1173 1253 1170
f 1170 1253 1248
f 1254 1174 1249
f 1249 1174 1171
f 1249 1250 1255
f 1249 1255 1254
f 1252 1253 1256
f 1252 1256 1257
f 1176 1256 1173
f 1173 1256 1253
f 1258 1177 1254
f 1254 1177 1174
f 1254 1255 1259
f 1254 1259 1258
f 1257 1256 1260
f 1257 1260 1261
f 1178 1260 1176
f 1176 1260 1256
f 1262 1179 1258
f 1258 1179 1177
f 1258 1259 1263
f 1258 1263 1262
f 1266 1265 1264
f 1264 1265 1261
f 1264 1261 1260
f 1182 1264 1260
f 1181 1182 1260
f 1181 1260 1178
f 1262 1183 1179
f 1268 1267 1185
f 1268 1185 1183
f 1263 1268 1183
f 1262 1263 1183
f 1269 1267 1268
f 1272 1271 1270
f 1270 1271 1266
f 1264 1270 1266
f 1273 1270 1264
f 1187 1273 1182
f 1182 1273 1264
f 1267 1189 1185
f 1275 1274 1191
f 1275 1191 1189
f 1269 1275 1189
f 1267 1269 1189
f 1276 1274 1275
f 1279 1278 1277
f 1277 1278 1272
f 1270 1277 1272
f 1280 1277 1270
f 1194 1280 1193
f 1280 1273 1193
f 1280 1270 1273
f 1193 1273 1187
f 1274 1196 1191
f 1282 1281 1197
f 1282 1197 1196
f 1276 1282 1196
f 1274 1276 1196
f 1284 1283 1281
f 1284 1281 1282
f 1286 1285 1283
f 1286 1283 1284
f 1288 1287 1285
f 1288 1285 1286
f 1290 1289 1287
f 1290 1287 1288
f 1289 1290 1279
f 1277 1289 1279
f 1291 1289 1277
f 1200 1291 1199
f 1291 1280 1199
f 1291 1277 1280
f 1199 1280 1194
f 1281 1202 1197
f 1202 1281 1204
f 1204 1281 1283
f 1204 1283 1206
f 1206 1283 1285
f 1206 1285 1208
f 1208 1285 1287
f 1208 1287 1210
f 1210 1287 1289
f 1210 1289 1212
f 1212 1289 1291
f 1212 1291 1200
f 1292 1220 1221
f 1222 1293 1221
f 1221 1293 1292
f 1223 1294 1222
f 1222 1294 1293
f 1224 1294 1223
f 1295 1230 1231
f 1220 1292 1231
f 1292 1295 1231
f 1292 1296 1295
f 1297 1292 1293
f 1296 1292 1297
f 1298 1293 1294
f 1297 1293 1298
f 1232 1299 1224
f 1299 1294 1224
f 1299 1298 1294
f 1233 1300 1232
f 1232 1300 1299
f 1234 1300 1233
f 1301 1238 1239
f 1230 1295 1239
f 1295 1301 1239
f 1295 1302 1301
f 1296 1304 1303
f 1302 1296 1303
f 1295 1296 1302
f 1304 1296 1297
f 1304 1297 1305
f 1305 1297 1298
f 1305 1298 1306
f 1308 1307 1306
f 1298 1308 1306
f 1299 1308 1298
f 1309 1299 1300
f 1308 1299 1309
f 1240 1310 1234
f 1310 1300 1234
f 1310 1309 1300
f 1241 1310 1240
f 1311 1244 1245
f 1238 1301 1245
f 1301 1311 1245
f 1301 1312 1311
f 1313 1301 1302
f 1312 1301 1313
f 1302 1303 1314
f 1302 1314 1313
f 1315 1307 1308
f 1317 1316 1315
f 1308 1317 1315
f 1309 1317 1308
f 1318 1309 1310
f 1317 1309 1318
f 1247 1318 1241
f 1241 1318 1310
f 1319 1250 1311
f 1311 1250 1244
f 1320 1311 1312
f 1319 1311 1320
f 1313 1322 1321
f 1320 1313 1321
f 1312 1313 1320
f 1322 1313 1314
f 1316 1317 1323
f 1316 1323 1324
f 1325 1317 1318
f 1323 1317 1325
f 1251 1326 1247
f 1326 1318 1247
f 1326 1325 1318
f 1252 1326 1251
f 1327 1255 1319
f 1319 1255 1250
f 1328 1319 1320
f 1327 1319 1328
f 1320 1321 1329
f 1320 1329 1328
f 1324 1323 1330
f 1324 1330 1331
f 1332 1323 1325
f 1330 1323 1332
f 1333 1325 1326
f 1332 1325 1333
f 1257 1333 1252
f 1252 1333 1326
f 1334 1259 1327
f 1327 1259 1255
f 1335 1327 1328
f 1334 1327 1335
f 1328 1329 1336
f 1328 1336 1335
f 1331 1330 1337
f 1331 1337 1338
f 1339 1330 1332
f 1337 1330 1339
f 1340 1332 1333
f 1339 1332 1340
f 1261 1340 1257
f 1257 1340 1333
f 1341 1263 1334
f 1334 1263 1259
f 1342 1334 1335
f 1341 1334 1342
f 1335 1336 1343
f 1344 1335 1343
f 1342 1335 1344
f 1345 1344 1343
f 1338 1337 1346
f 1338 1346 1347
f 1348 1337 1339
f 1346 1337 1348
f 1266 1348 1265
f 1348 1340 1265
f 1348 1339 1340
f 1265 1340 1261
f 1341 1268 1263
f 1268 1341 1269
f 1341 1349 1269
f 1341 1342 1349
f 1350 1342 1344
f 1349 1342 1350
f 1344 1345 1351
f 1352 1344 1351
f 1350 1344 1352
f 1354 1353 1352
f 1354 1352 1351
f 1356 1355 1353
f 1356 1353 1354
f 1358 1357 1355
f 1358 1355 1356
f 1357 1358 1347
f 1346 1357 1347
f 1359 1357 1346
f 1272 1359 1271
f 1359 1348 1271
f 1359 1346 1348
f 1271 1348 1266
f 1349 1275 1269
f 1275 1349 1276
f 1349 1360 1276
f 1349 1350 1360
f 1361 1350 1352
f 1360 1350 1361
f 1362 1352 1353
f 1361 1352 1362
f 1363 1353 1355
f 1362 1353 1363
f 1364 1355 1357
f 1363 1355 1364
f 1279 1364 1278
f 1364 1359 1278
f 1364 1357 1359
f 1278 1359 1272
f 1360 1282 1276
f 1282 1360 1284
f 1284 1360 1361
f 1284 1361 1286
f 1286 1361 1362
f 1286 1362 1288
f 1288 1362 1363
f 1288 1363 1290
f 1290 1363 1364
f 1290 1364 1279
f 1365 1303 1304
f 1305 1366 1304
f 1304 1366 1365
f 1306 1367 1305
f 1305 1367 1366
f 1307 1367 1306
f 1368 1314 1365
f 1365 1314 1303
f 1369 1365 1366
f 1368 1365 1369
f 1370 1366 1367
f 1369 1366 1370
f 1315 1371 1307
f 1371 1367 1307
f 1371 1370 1367
f 1316 1371 1315
f 1372 1321 1322
f 1314 1368 1322
f 1368 1372 1322
f 1368 1373 1372
f 1374 1368 1369
f 1373 1368 1374
f 1375 1369 1370
f 1374 1369 1375
f 1376 1370 1371
f 1375 1370 1376
f 1324 1376 1316
f 1316 1376 1371
f 1377 1329 1372
f 1372 1329 1321
f 1378 1372 1373
f 1377 1372 1378
f 1379 1373 1374
f 1378 1373 1379
f 1380 1374 1375
f 1379 1374 1380
f 1381 1375 1376
f 1380 1375 1381
f 1331 1381 1324
f 1324 1381 1376
f 1382 1336 1377
f 1377 1336 1329
f 1383 1377 1378
f 1382 1377 1383
f 1384 1378 1379
f 1383 1378 1384
f 1385 1379 1380
f 1384 1379 1385
f 1386 1380 1381
f 1385 1380 1386
f 1338 1386 1331
f 1331 1386 1381
f 1382 1343 1336
f 1343 1382 1345
f 1382 1387 1345
f 1382 1383 1387
f 1388 1383 1384
f 1387 1383 1388
f 1389 1384 1385
f 1388 1384 1389
f 1390 1385 1386
f 1389 1385 1390
f 1347 1390 1338
f 1338 1390 1386
f 1387 1351 1345
f 1351 1387 1354
f 1354 1387 1388
f 1354 1388 1356
f 1356 1388 1389
f 1356 1389 1358
f 1358 1389 1390
f 1358 1390 1347
