ply
format ascii 1.0
element vertex 1390
property float x
property float y
property float z
element face 2776
property list uchar int vertex_indices
end_header
-1.28520041 -0.36166495 -0.35714286
-1.21377184 -0.36166495 -0.42857143
-1.21377184 -0.43309353 -0.35714286
-1.21377184 -0.43309353 -0.21428571
-1.28520041 -0.36166495 -0.21428571
-1.21377184 -0.43309353 -0.07142857
-1.28520041 -0.36166495 -0.07142857
-1.21377184 -0.43309353 0.07142857
-1.28520041 -0.36166495 0.07142857
-1.21377184 -0.43309353 0.21428571
-1.28520041 -0.36166495 0.21428571
-1.21377184 -0.36166495 0.28571429
-1.28520041 -0.21880781 -0.35714286
-1.21377184 -0.21880781 -0.42857143
-1.28520041 -0.21880781 -0.21428571
-1.28520041 -0.21880781 -0.07142857
-1.28520041 -0.21880781 0.07142857
-1.28520041 -0.21880781 0.21428571
-1.21377184 -0.21880781 0.28571429
-1.28520041 -0.07595067 -0.35714286
-1.21377184 -0.07595067 -0.42857143
-1.28520041 -0.07595067 -0.21428571
-1.28520041 -0.07595067 -0.07142857
-1.28520041 -0.07595067 0.07142857
-1.28520041 -0.07595067 0.21428571
-1.21377184 -0.07595067 0.28571429
-1.28520041 0.06690647 -0.35714286
-1.21377184 0.06690647 -0.42857143
-1.28520041 0.06690647 -0.21428571
-1.28520041 0.06690647 -0.07142857
-1.28520041 0.06690647 0.07142857
-1.28520041 0.06690647 0.21428571
-1.21377184 0.06690647 0.28571429
-1.28520041 0.20976362 -0.35714286
-1.21377184 0.20976362 -0.42857143
-1.28520041 0.20976362 -0.21428571
-1.28520041 0.20976362 -0.07142857
-1.28520041 0.20976362 0.07142857
-1.28520041 0.20976362 0.21428571
-1.21377184 0.20976362 0.28571429
-1.28520041 0.35262076 -0.35714286
-1.21377184 0.35262076 -0.42857143
-1.28520041 0.35262076 -0.21428571
-1.28520041 0.35262076 -0.07142857
-1.28520041 0.35262076 0.07142857
-1.28520041 0.35262076 0.21428571
-1.21377184 0.35262076 0.28571429
-1.21377184 0.42404933 -0.35714286
-1.21377184 0.42404933 -0.21428571
-1.21377184 0.42404933 -0.07142857
-1.21377184 0.42404933 0.07142857
-1.21377184 0.42404933 0.21428571
-1.14234327 -0.64737924 -0.35714286
-1.07091470 -0.64737924 -0.42857143
-1.07091470 -0.71880781 -0.35714286
-1.07091470 -0.71880781 -0.21428571
-1.14234327 -0.64737924 -0.21428571
-1.07091470 -0.71880781 -0.07142857
-1.14234327 -0.64737924 -0.07142857
-1.07091470 -0.71880781 0.07142857
-1.14234327 -0.64737924 0.07142857
-1.07091470 -0.71880781 0.21428571
-1.14234327 -0.64737924 0.21428571
-1.07091470 -0.71880781 0.35714286
-1.14234327 -0.64737924 0.35714286
-1.07091470 -0.64737924 0.42857143
-1.14234327 -0.50452210 -0.50000000
-1.07091470 -0.50452210 -0.57142857
-1.07091470 -0.57595067 -0.50000000
-1.14234327 -0.50452210 -0.35714286
-1.14234327 -0.50452210 -0.21428571
-1.14234327 -0.50452210 -0.07142857
-1.14234327 -0.50452210 0.07142857
-1.14234327 -0.50452210 0.21428571
-1.14234327 -0.50452210 0.35714286
-1.07091470 -0.57595067 0.50000000
-1.14234327 -0.50452210 0.50000000
-1.07091470 -0.50452210 0.57142857
-1.14234327 -0.36166495 -0.64285714
-1.07091470 -0.36166495 -0.71428571
-1.07091470 -0.43309353 -0.64285714
-1.14234327 -0.36166495 -0.50000000
-1.14234327 -0.36166495 0.35714286
-1.14234327 -0.36166495 0.50000000
-1.07091470 -0.36166495 0.57142857
-1.14234327 -0.21880781 -0.64285714
-1.07091470 -0.21880781 -0.71428571
-1.14234327 -0.21880781 -0.50000000
-1.14234327 -0.21880781 0.35714286
-1.14234327 -0.21880781 0.50000000
-1.07091470 -0.29023638 0.64285714
-1.14234327 -0.21880781 0.64285714
-1.07091470 -0.21880781 0.71428571
-1.14234327 -0.07595067 -0.64285714
-1.07091470 -0.07595067 -0.71428571
-1.14234327 -0.07595067 -0.50000000
-1.14234327 -0.07595067 0.35714286
-1.14234327 -0.07595067 0.50000000
-1.14234327 -0.07595067 0.64285714
-1.07091470 -0.07595067 0.71428571
-1.14234327 0.06690647 -0.64285714
-1.07091470 0.06690647 -0.71428571
-1.14234327 0.06690647 -0.50000000
-1.14234327 0.06690647 0.35714286
-1.14234327 0.06690647 0.50000000
-1.14234327 0.06690647 0.64285714
-1.07091470 0.06690647 0.71428571
-1.14234327 0.20976362 -0.64285714
-1.07091470 0.20976362 -0.71428571
-1.14234327 0.20976362 -0.50000000
-1.14234327 0.20976362 0.35714286
-1.14234327 0.20976362 0.50000000
-1.14234327 0.20976362 0.64285714
-1.07091470 0.20976362 0.71428571
-1.07091470 0.28119219 -0.64285714
-1.14234327 0.35262076 -0.50000000
-1.07091470 0.35262076 -0.57142857
-1.14234327 0.35262076 0.35714286
-1.14234327 0.35262076 0.50000000
-1.14234327 0.35262076 0.64285714
-1.07091470 0.35262076 0.71428571
-1.14234327 0.49547790 -0.50000000
-1.07091470 0.49547790 -0.57142857
-1.14234327 0.49547790 -0.35714286
-1.14234327 0.49547790 -0.21428571
-1.14234327 0.49547790 -0.07142857
-1.14234327 0.49547790 0.07142857
-1.14234327 0.49547790 0.21428571
-1.14234327 0.49547790 0.35714286
-1.14234327 0.49547790 0.50000000
-1.07091470 0.49547790 0.57142857
-1.07091470 0.42404933 0.64285714
-1.07091470 0.56690647 -0.50000000
-1.14234327 0.63833505 -0.35714286
-1.07091470 0.63833505 -0.42857143
-1.14234327 0.63833505 -0.21428571
-1.14234327 0.63833505 -0.07142857
-1.14234327 0.63833505 0.07142857
-1.14234327 0.63833505 0.21428571
-1.07091470 0.63833505 0.28571429
-1.07091470 0.56690647 0.35714286
-1.07091470 0.56690647 0.50000000
-1.07091470 0.70976362 -0.35714286
-1.07091470 0.70976362 -0.21428571
-1.07091470 0.70976362 -0.07142857
-1.07091470 0.70976362 0.07142857
-1.07091470 0.70976362 0.21428571
-0.99948613 -0.79023638 -0.50000000
-0.92805755 -0.79023638 -0.57142857
-0.92805755 -0.86166495 -0.50000000
-0.92805755 -0.86166495 -0.35714286
-0.99948613 -0.79023638 -0.35714286
-0.92805755 -0.86166495 -0.21428571
-0.99948613 -0.79023638 -0.21428571
-0.92805755 -0.86166495 -0.07142857
-0.99948613 -0.79023638 -0.07142857
-0.92805755 -0.86166495 0.07142857
-0.99948613 -0.79023638 0.07142857
-0.92805755 -0.86166495 0.21428571
-0.99948613 -0.79023638 0.21428571
-0.92805755 -0.86166495 0.35714286
-0.99948613 -0.79023638 0.35714286
-0.92805755 -0.79023638 0.42857143
-0.99948613 -0.64737924 -0.64285714
-0.92805755 -0.64737924 -0.71428571
-0.92805755 -0.71880781 -0.64285714
-0.99948613 -0.64737924 -0.50000000
-0.92805755 -0.71880781 0.50000000
-0.99948613 -0.64737924 0.50000000
-0.92805755 -0.64737924 0.57142857
-0.99948613 -0.50452210 -0.64285714
-0.92805755 -0.50452210 -0.71428571
-0.92805755 -0.57595067 0.64285714
-0.99948613 -0.50452210 0.64285714
-0.92805755 -0.50452210 0.71428571
-0.99948613 -0.36166495 -0.78571429
-0.92805755 -0.36166495 -0.85714286
-0.92805755 -0.43309353 -0.78571429
-0.99948613 -0.36166495 0.64285714
-0.92805755 -0.36166495 0.71428571
-0.99948613 -0.21880781 -0.78571429
-0.92805755 -0.21880781 -0.85714286
-0.92805755 -0.29023638 0.78571429
-0.99948613 -0.21880781 0.78571429
-0.92805755 -0.21880781 0.85714286
-0.99948613 -0.07595067 -0.78571429
-0.92805755 -0.07595067 -0.85714286
-0.99948613 -0.07595067 0.78571429
-0.92805755 -0.07595067 0.85714286
-0.99948613 0.06690647 -0.78571429
-0.92805755 0.06690647 -0.85714286
-0.99948613 0.06690647 0.78571429
-0.92805755 0.06690647 0.85714286
-0.99948613 0.20976362 -0.78571429
-0.92805755 0.20976362 -0.85714286
-0.99948613 0.20976362 0.78571429
-0.92805755 0.20976362 0.85714286
-0.92805755 0.28119219 -0.78571429
-0.99948613 0.35262076 -0.64285714
-0.92805755 0.35262076 -0.71428571
-0.92805755 0.28119219 0.78571429
-0.92805755 0.35262076 0.71428571
-0.99948613 0.49547790 -0.64285714
-0.92805755 0.49547790 -0.71428571
-0.99948613 0.49547790 0.64285714
-0.92805755 0.49547790 0.71428571
-0.92805755 0.56690647 -0.64285714
-0.99948613 0.63833505 -0.50000000
-0.92805755 0.63833505 -0.57142857
-0.99948613 0.63833505 0.35714286
-0.99948613 0.63833505 0.50000000
-0.92805755 0.63833505 0.57142857
-0.92805755 0.56690647 0.64285714
-0.92805755 0.70976362 -0.50000000
-0.99948613 0.78119219 -0.35714286
-0.92805755 0.78119219 -0.42857143
-0.99948613 0.78119219 -0.21428571
-0.99948613 0.78119219 -0.07142857
-0.99948613 0.78119219 0.07142857
-0.99948613 0.78119219 0.21428571
-0.99948613 0.78119219 0.35714286
-0.92805755 0.78119219 0.42857143
-0.92805755 0.70976362 0.50000000
-0.92805755 0.85262076 -0.35714286
-0.92805755 0.85262076 -0.21428571
-0.92805755 0.85262076 -0.07142857
-0.92805755 0.85262076 0.07142857
-0.92805755 0.85262076 0.21428571
-0.92805755 0.85262076 0.35714286
-0.85662898 -0.93309353 -0.50000000
-0.78520041 -0.93309353 -0.57142857
-0.78520041 -1.00452210 -0.50000000
-0.78520041 -1.00452210 -0.35714286
-0.85662898 -0.93309353 -0.35714286
-0.78520041 -1.00452210 -0.21428571
-0.85662898 -0.93309353 -0.21428571
-0.78520041 -1.00452210 -0.07142857
-0.85662898 -0.93309353 -0.07142857
-0.78520041 -1.00452210 0.07142857
-0.85662898 -0.93309353 0.07142857
-0.78520041 -1.00452210 0.21428571
-0.85662898 -0.93309353 0.21428571
-0.78520041 -1.00452210 0.35714286
-0.85662898 -0.93309353 0.35714286
-0.78520041 -0.93309353 0.42857143
-0.85662898 -0.79023638 -0.64285714
-0.78520041 -0.79023638 -0.71428571
-0.78520041 -0.86166495 -0.64285714
-0.78520041 -0.86166495 0.50000000
-0.85662898 -0.79023638 0.50000000
-0.78520041 -0.79023638 0.57142857
-0.78520041 -0.64737924 -0.71428571
-0.78520041 -0.71880781 0.64285714
-0.85662898 -0.64737924 0.64285714
-0.78520041 -0.64737924 0.71428571
-0.85662898 -0.50452210 -0.78571429
-0.78520041 -0.50452210 -0.85714286
-0.78520041 -0.57595067 -0.78571429
-0.78520041 -0.57595067 0.78571429
-0.85662898 -0.50452210 0.78571429
-0.78520041 -0.50452210 0.85714286
-0.78520041 -0.36166495 -0.85714286
-0.85662898 -0.36166495 0.78571429
-0.78520041 -0.36166495 0.85714286
-0.78520041 -0.21880781 -0.85714286
-0.78520041 -0.21880781 0.85714286
-0.78520041 -0.07595067 -0.85714286
-0.78520041 -0.07595067 0.85714286
-0.78520041 0.06690647 -0.85714286
-0.78520041 0.06690647 0.85714286
-0.78520041 0.20976362 -0.85714286
-0.78520041 0.20976362 0.85714286
-0.85662898 0.35262076 -0.78571429
-0.78520041 0.35262076 -0.85714286
-0.85662898 0.35262076 0.78571429
-0.78520041 0.35262076 0.85714286
-0.85662898 0.49547790 -0.78571429
-0.78520041 0.49547790 -0.85714286
-0.85662898 0.49547790 0.78571429
-0.78520041 0.49547790 0.85714286
-0.78520041 0.56690647 -0.78571429
-0.85662898 0.63833505 -0.64285714
-0.78520041 0.63833505 -0.71428571
-0.85662898 0.63833505 0.64285714
-0.78520041 0.63833505 0.71428571
-0.78520041 0.56690647 0.78571429
-0.78520041 0.70976362 -0.64285714
-0.85662898 0.78119219 -0.50000000
-0.78520041 0.78119219 -0.57142857
-0.85662898 0.78119219 0.50000000
-0.78520041 0.78119219 0.57142857
-0.78520041 0.70976362 0.64285714
-0.78520041 0.85262076 -0.50000000
-0.85662898 0.92404933 -0.35714286
-0.78520041 0.92404933 -0.42857143
-0.85662898 0.92404933 -0.21428571
-0.85662898 0.92404933 -0.07142857
-0.85662898 0.92404933 0.07142857
-0.85662898 0.92404933 0.21428571
-0.85662898 0.92404933 0.35714286
-0.78520041 0.92404933 0.42857143
-0.78520041 0.85262076 0.50000000
-0.78520041 0.99547790 -0.35714286
-0.78520041 0.99547790 -0.21428571
-0.78520041 0.99547790 -0.07142857
-0.78520041 0.99547790 0.07142857
-0.78520041 0.99547790 0.21428571
-0.78520041 0.99547790 0.35714286
-0.71377184 -1.07595067 -0.35714286
-0.64234327 -1.07595067 -0.42857143
-0.64234327 -1.14737924 -0.35714286
-0.64234327 -1.14737924 -0.21428571
-0.71377184 -1.07595067 -0.21428571
-0.64234327 -1.14737924 -0.07142857
-0.71377184 -1.07595067 -0.07142857
-0.64234327 -1.14737924 0.07142857
-0.71377184 -1.07595067 0.07142857
-0.64234327 -1.14737924 0.21428571
-0.71377184 -1.07595067 0.21428571
-0.64234327 -1.07595067 0.28571429
-0.71377184 -0.93309353 -0.64285714
-0.64234327 -0.93309353 -0.71428571
-0.64234327 -1.00452210 -0.64285714
-0.64234327 -1.00452210 -0.50000000
-0.64234327 -1.00452210 0.35714286
-0.64234327 -1.00452210 0.50000000
-0.71377184 -0.93309353 0.50000000
-0.64234327 -0.93309353 0.57142857
-0.64234327 -0.79023638 -0.71428571
-0.64234327 -0.86166495 0.64285714
-0.71377184 -0.79023638 0.64285714
-0.64234327 -0.79023638 0.71428571
-0.71377184 -0.64737924 -0.78571429
-0.64234327 -0.64737924 -0.85714286
-0.64234327 -0.71880781 -0.78571429
-0.64234327 -0.71880781 0.78571429
-0.71377184 -0.64737924 0.78571429
-0.64234327 -0.64737924 0.85714286
-0.64234327 -0.50452210 -0.85714286
-0.64234327 -0.50452210 0.85714286
-0.71377184 -0.36166495 -0.92857143
-0.64234327 -0.36166495 -1.00000000
-0.64234327 -0.43309353 -0.92857143
-0.64234327 -0.43309353 0.92857143
-0.71377184 -0.36166495 0.92857143
-0.64234327 -0.36166495 1.00000000
-0.71377184 -0.21880781 -0.92857143
-0.64234327 -0.21880781 -1.00000000
-0.71377184 -0.21880781 0.92857143
-0.64234327 -0.21880781 1.00000000
-0.71377184 -0.07595067 -0.92857143
-0.64234327 -0.07595067 -1.00000000
-0.71377184 -0.07595067 0.92857143
-0.64234327 -0.07595067 1.00000000
-0.71377184 0.06690647 -0.92857143
-0.64234327 0.06690647 -1.00000000
-0.71377184 0.06690647 0.92857143
-0.64234327 0.06690647 1.00000000
-0.71377184 0.20976362 -0.92857143
-0.64234327 0.20976362 -1.00000000
-0.71377184 0.20976362 0.92857143
-0.64234327 0.20976362 1.00000000
-0.71377184 0.35262076 -0.92857143
-0.64234327 0.35262076 -1.00000000
-0.71377184 0.35262076 0.92857143
-0.64234327 0.35262076 1.00000000
-0.64234327 0.42404933 -0.92857143
-0.64234327 0.49547790 -0.85714286
-0.64234327 0.42404933 0.92857143
-0.64234327 0.49547790 0.85714286
-0.71377184 0.63833505 -0.78571429
-0.64234327 0.63833505 -0.85714286
-0.71377184 0.63833505 0.78571429
-0.64234327 0.63833505 0.85714286
-0.64234327 0.70976362 -0.78571429
-0.71377184 0.78119219 -0.64285714
-0.64234327 0.78119219 -0.71428571
-0.71377184 0.78119219 0.64285714
-0.64234327 0.78119219 0.71428571
-0.64234327 0.70976362 0.78571429
-0.64234327 0.85262076 -0.64285714
-0.71377184 0.92404933 -0.50000000
-0.64234327 0.92404933 -0.57142857
-0.71377184 0.92404933 0.50000000
-0.64234327 0.92404933 0.57142857
-0.64234327 0.85262076 0.64285714
-0.64234327 0.99547790 -0.50000000
-0.71377184 1.06690647 -0.35714286
-0.64234327 1.06690647 -0.42857143
-0.71377184 1.06690647 -0.21428571
-0.71377184 1.06690647 -0.07142857
-0.71377184 1.06690647 0.07142857
-0.71377184 1.06690647 0.21428571
-0.71377184 1.06690647 0.35714286
-0.64234327 1.06690647 0.42857143
-0.64234327 0.99547790 0.50000000
-0.64234327 1.13833505 -0.35714286
-0.64234327 1.13833505 -0.21428571
-0.64234327 1.13833505 -0.07142857
-0.64234327 1.13833505 0.07142857
-0.64234327 1.13833505 0.21428571
-0.64234327 1.13833505 0.35714286
-0.57091470 -1.07595067 -0.50000000
-0.49948613 -1.07595067 -0.57142857
-0.49948613 -1.14737924 -0.50000000
-0.49948613 -1.14737924 -0.35714286
-0.49948613 -1.14737924 -0.21428571
-0.49948613 -1.14737924 -0.07142857
-0.49948613 -1.14737924 0.07142857
-0.49948613 -1.14737924 0.21428571
-0.49948613 -1.14737924 0.35714286
-0.57091470 -1.07595067 0.35714286
-0.49948613 -1.07595067 0.42857143
-0.49948613 -0.93309353 -0.71428571
-0.49948613 -1.00452210 -0.64285714
-0.49948613 -1.00452210 0.50000000
-0.49948613 -1.00452210 0.64285714
-0.57091470 -0.93309353 0.64285714
-0.49948613 -0.93309353 0.71428571
-0.57091470 -0.79023638 -0.78571429
-0.49948613 -0.79023638 -0.85714286
-0.49948613 -0.86166495 -0.78571429
-0.49948613 -0.86166495 0.78571429
-0.57091470 -0.79023638 0.78571429
-0.49948613 -0.79023638 0.85714286
-0.49948613 -0.64737924 -0.85714286
-0.49948613 -0.64737924 0.85714286
-0.57091470 -0.50452210 -0.92857143
-0.49948613 -0.50452210 -1.00000000
-0.49948613 -0.57595067 -0.92857143
-0.49948613 -0.57595067 0.92857143
-0.57091470 -0.50452210 0.92857143
-0.49948613 -0.50452210 1.00000000
-0.49948613 -0.36166495 -1.00000000
-0.49948613 -0.36166495 1.00000000
-0.49948613 -0.21880781 -1.00000000
-0.49948613 -0.21880781 1.00000000
-0.49948613 -0.07595067 -1.00000000
-0.49948613 -0.07595067 1.00000000
-0.49948613 0.06690647 -1.00000000
-0.49948613 0.06690647 1.00000000
-0.49948613 0.20976362 -1.00000000
-0.49948613 0.20976362 1.00000000
-0.49948613 0.35262076 -1.00000000
-0.49948613 0.35262076 1.00000000
-0.57091470 0.49547790 -0.92857143
-0.49948613 0.49547790 -1.00000000
-0.57091470 0.49547790 0.92857143
-0.49948613 0.49547790 1.00000000
-0.49948613 0.56690647 -0.92857143
-0.49948613 0.63833505 -0.85714286
-0.49948613 0.56690647 0.92857143
-0.49948613 0.63833505 0.85714286
-0.57091470 0.78119219 -0.78571429
-0.49948613 0.78119219 -0.85714286
-0.57091470 0.78119219 0.78571429
-0.49948613 0.78119219 0.85714286
-0.49948613 0.85262076 -0.78571429
-0.57091470 0.92404933 -0.64285714
-0.49948613 0.92404933 -0.71428571
-0.57091470 0.92404933 0.64285714
-0.49948613 0.92404933 0.71428571
-0.49948613 0.85262076 0.78571429
-0.49948613 0.99547790 -0.64285714
-0.57091470 1.06690647 -0.50000000
-0.49948613 1.06690647 -0.57142857
-0.49948613 0.99547790 0.50000000
-0.49948613 1.06690647 0.42857143
-0.49948613 0.99547790 0.64285714
-0.49948613 1.13833505 -0.50000000
-0.49948613 1.13833505 -0.35714286
-0.49948613 1.13833505 -0.21428571
-0.49948613 1.13833505 -0.07142857
-0.49948613 1.13833505 0.07142857
-0.49948613 1.13833505 0.21428571
-0.49948613 1.13833505 0.35714286
-0.42805755 -1.21880781 -0.35714286
-0.35662898 -1.21880781 -0.42857143
-0.35662898 -1.29023638 -0.35714286
-0.35662898 -1.29023638 -0.21428571
-0.42805755 -1.21880781 -0.21428571
-0.35662898 -1.29023638 -0.07142857
-0.42805755 -1.21880781 -0.07142857
-0.35662898 -1.29023638 0.07142857
-0.42805755 -1.21880781 0.07142857
-0.35662898 -1.29023638 0.21428571
-0.42805755 -1.21880781 0.21428571
-0.35662898 -1.21880781 0.28571429
-0.42805755 -1.07595067 -0.64285714
-0.35662898 -1.07595067 -0.71428571
-0.35662898 -1.14737924 -0.64285714
-0.35662898 -1.14737924 -0.50000000
-0.35662898 -1.14737924 0.35714286
-0.35662898 -1.14737924 0.50000000
-0.42805755 -1.07595067 0.50000000
-0.35662898 -1.07595067 0.57142857
-0.35662898 -0.93309353 -0.71428571
-0.35662898 -1.00452210 0.64285714
-0.35662898 -0.93309353 0.71428571
-0.35662898 -0.79023638 -0.85714286
-0.35662898 -0.86166495 -0.78571429
-0.35662898 -0.86166495 0.78571429
-0.35662898 -0.79023638 0.85714286
-0.42805755 -0.64737924 -0.92857143
-0.35662898 -0.64737924 -1.00000000
-0.35662898 -0.71880781 -0.92857143
-0.35662898 -0.71880781 0.92857143
-0.42805755 -0.64737924 0.92857143
-0.35662898 -0.64737924 1.00000000
-0.35662898 -0.50452210 -1.00000000
-0.35662898 -0.50452210 1.00000000
-0.35662898 -0.36166495 -1.00000000
-0.35662898 -0.36166495 1.00000000
-0.35662898 -0.21880781 -1.00000000
-0.35662898 -0.21880781 1.00000000
-0.35662898 -0.07595067 -1.00000000
-0.35662898 -0.07595067 1.00000000
-0.35662898 0.06690647 -1.00000000
-0.35662898 0.06690647 1.00000000
-0.35662898 0.20976362 -1.00000000
-0.35662898 0.20976362 1.00000000
-0.35662898 0.35262076 -1.00000000
-0.35662898 0.35262076 1.00000000
-0.35662898 0.49547790 -1.00000000
-0.35662898 0.49547790 1.00000000
-0.42805755 0.63833505 -0.92857143
-0.35662898 0.63833505 -1.00000000
-0.42805755 0.63833505 0.92857143
-0.35662898 0.63833505 1.00000000
-0.35662898 0.70976362 -0.92857143
-0.35662898 0.78119219 -0.85714286
-0.35662898 0.70976362 0.92857143
-0.35662898 0.78119219 0.85714286
-0.42805755 0.92404933 -0.78571429
-0.35662898 0.92404933 -0.85714286
-0.35662898 0.85262076 0.78571429
-0.35662898 0.92404933 0.71428571
-0.35662898 0.99547790 -0.78571429
-0.35662898 0.99547790 -0.64285714
-0.35662898 1.06690647 -0.57142857
-0.42805755 1.06690647 0.50000000
-0.35662898 1.06690647 0.57142857
-0.35662898 0.99547790 0.64285714
-0.35662898 1.13833505 -0.50000000
-0.42805755 1.20976362 -0.35714286
-0.35662898 1.20976362 -0.42857143
-0.42805755 1.20976362 -0.21428571
-0.42805755 1.20976362 -0.07142857
-0.42805755 1.20976362 0.07142857
-0.42805755 1.20976362 0.21428571
-0.35662898 1.20976362 0.28571429
-0.35662898 1.13833505 0.35714286
-0.35662898 1.13833505 0.50000000
-0.35662898 1.28119219 -0.35714286
-0.35662898 1.28119219 -0.21428571
-0.35662898 1.28119219 -0.07142857
-0.35662898 1.28119219 0.07142857
-0.35662898 1.28119219 0.21428571
-0.21377184 -1.21880781 -0.42857143
-0.21377184 -1.29023638 -0.35714286
-0.21377184 -1.29023638 -0.21428571
-0.21377184 -1.29023638 -0.07142857
-0.21377184 -1.29023638 0.07142857
-0.21377184 -1.29023638 0.21428571
-0.21377184 -1.21880781 0.28571429
-0.21377184 -1.07595067 -0.71428571
-0.21377184 -1.14737924 -0.64285714
-0.21377184 -1.14737924 -0.50000000
-0.21377184 -1.14737924 0.35714286
-0.21377184 -1.14737924 0.50000000
-0.21377184 -1.14737924 0.64285714
-0.28520041 -1.07595067 0.64285714
-0.21377184 -1.07595067 0.71428571
-0.28520041 -0.93309353 -0.78571429
-0.21377184 -0.93309353 -0.85714286
-0.21377184 -1.00452210 -0.78571429
-0.21377184 -1.00452210 0.78571429
-0.28520041 -0.93309353 0.78571429
-0.21377184 -0.93309353 0.85714286
-0.21377184 -0.79023638 -0.85714286
-0.21377184 -0.79023638 0.85714286
-0.21377184 -0.64737924 -1.00000000
-0.21377184 -0.71880781 -0.92857143
-0.21377184 -0.71880781 0.92857143
-0.21377184 -0.64737924 1.00000000
-0.21377184 -0.50452210 -1.00000000
-0.21377184 -0.50452210 1.00000000
-0.21377184 -0.36166495 -1.00000000
-0.21377184 -0.36166495 1.00000000
-0.21377184 -0.21880781 -1.00000000
-0.21377184 -0.21880781 1.00000000
-0.21377184 -0.07595067 -1.00000000
-0.21377184 -0.07595067 1.00000000
-0.21377184 0.06690647 -1.00000000
-0.21377184 0.06690647 1.00000000
-0.21377184 0.20976362 -1.00000000
-0.21377184 0.20976362 1.00000000
-0.21377184 0.35262076 -1.00000000
-0.21377184 0.35262076 1.00000000
-0.21377184 0.49547790 -1.00000000
-0.21377184 0.49547790 1.00000000
-0.21377184 0.63833505 -1.00000000
-0.21377184 0.63833505 1.00000000
-0.28520041 0.78119219 -0.92857143
-0.21377184 0.78119219 -1.00000000
-0.28520041 0.78119219 0.92857143
-0.21377184 0.78119219 1.00000000
-0.21377184 0.85262076 -0.92857143
-0.21377184 0.92404933 -0.85714286
-0.28520041 0.92404933 0.78571429
-0.21377184 0.92404933 0.85714286
-0.21377184 0.85262076 0.92857143
-0.21377184 0.99547790 -0.78571429
-0.28520041 1.06690647 -0.64285714
-0.21377184 1.06690647 -0.71428571
-0.21377184 0.99547790 0.64285714
-0.21377184 1.06690647 0.57142857
-0.21377184 0.99547790 0.78571429
-0.21377184 1.13833505 -0.64285714
-0.21377184 1.13833505 -0.50000000
-0.21377184 1.20976362 -0.42857143
-0.21377184 1.13833505 0.35714286
-0.21377184 1.20976362 0.28571429
-0.21377184 1.13833505 0.50000000
-0.21377184 1.28119219 -0.35714286
-0.21377184 1.28119219 -0.21428571
-0.21377184 1.28119219 -0.07142857
-0.21377184 1.28119219 0.07142857
-0.21377184 1.28119219 0.21428571
-0.07091470 -1.21880781 -0.42857143
-0.07091470 -1.29023638 -0.35714286
-0.07091470 -1.29023638 -0.21428571
-0.07091470 -1.29023638 -0.07142857
-0.07091470 -1.29023638 0.07142857
-0.07091470 -1.29023638 0.21428571
-0.07091470 -1.21880781 0.28571429
-0.07091470 -1.07595067 -0.71428571
-0.07091470 -1.14737924 -0.64285714
-0.07091470 -1.14737924 -0.50000000
-0.07091470 -1.14737924 0.35714286
-0.07091470 -1.14737924 0.50000000
-0.07091470 -1.14737924 0.64285714
-0.07091470 -1.07595067 0.71428571
-0.07091470 -0.93309353 -0.85714286
-0.07091470 -1.00452210 -0.78571429
-0.07091470 -1.00452210 0.78571429
-0.07091470 -0.93309353 0.85714286
-0.07091470 -0.79023638 -0.85714286
-0.07091470 -0.79023638 0.85714286
-0.07091470 -0.64737924 -1.00000000
-0.07091470 -0.71880781 -0.92857143
-0.07091470 -0.71880781 0.92857143
-0.07091470 -0.64737924 1.00000000
-0.07091470 -0.50452210 -1.00000000
-0.07091470 -0.50452210 1.00000000
-0.07091470 -0.36166495 -1.00000000
-0.07091470 -0.36166495 1.00000000
-0.07091470 -0.21880781 -1.00000000
-0.07091470 -0.21880781 1.00000000
-0.07091470 -0.07595067 -1.00000000
-0.07091470 -0.07595067 1.00000000
-0.07091470 0.06690647 -1.00000000
-0.07091470 0.06690647 1.00000000
-0.07091470 0.20976362 -1.00000000
-0.07091470 0.20976362 1.00000000
-0.07091470 0.35262076 -1.00000000
-0.07091470 0.35262076 1.00000000
-0.07091470 0.49547790 -1.00000000
-0.07091470 0.49547790 1.00000000
-0.07091470 0.63833505 -1.00000000
-0.07091470 0.63833505 1.00000000
-0.07091470 0.78119219 -1.00000000
-0.07091470 0.78119219 1.00000000
-0.07091470 0.85262076 -0.92857143
-0.07091470 0.92404933 -0.85714286
-0.07091470 0.85262076 0.92857143
-0.07091470 0.92404933 0.85714286
-0.07091470 0.99547790 -0.78571429
-0.07091470 1.06690647 -0.71428571
-0.07091470 0.99547790 0.64285714
-0.07091470 1.06690647 0.57142857
-0.07091470 0.99547790 0.78571429
-0.07091470 1.13833505 -0.64285714
-0.07091470 1.13833505 -0.50000000
-0.07091470 1.20976362 -0.42857143
-0.07091470 1.13833505 0.35714286
-0.07091470 1.20976362 0.28571429
-0.07091470 1.13833505 0.50000000
-0.07091470 1.28119219 -0.35714286
-0.07091470 1.28119219 -0.21428571
-0.07091470 1.28119219 -0.07142857
-0.07091470 1.28119219 0.07142857
-0.07091470 1.28119219 0.21428571
0.07194245 -1.21880781 -0.42857143
0.07194245 -1.29023638 -0.35714286
0.07194245 -1.29023638 -0.21428571
0.07194245 -1.29023638 -0.07142857
0.07194245 -1.29023638 0.07142857
0.07194245 -1.29023638 0.21428571
0.07194245 -1.21880781 0.28571429
0.07194245 -1.07595067 -0.71428571
0.07194245 -1.14737924 -0.64285714
0.07194245 -1.14737924 -0.50000000
0.07194245 -1.14737924 0.35714286
0.07194245 -1.14737924 0.50000000
0.07194245 -1.14737924 0.64285714
0.07194245 -1.07595067 0.71428571
0.07194245 -0.93309353 -0.85714286
0.07194245 -1.00452210 -0.78571429
0.07194245 -1.00452210 0.78571429
0.07194245 -0.93309353 0.85714286
0.07194245 -0.79023638 -0.85714286
0.07194245 -0.79023638 0.85714286
0.07194245 -0.64737924 -1.00000000
0.07194245 -0.71880781 -0.92857143
0.07194245 -0.71880781 0.92857143
0.07194245 -0.64737924 1.00000000
0.07194245 -0.50452210 -1.00000000
0.07194245 -0.50452210 1.00000000
0.07194245 -0.36166495 -1.00000000
0.07194245 -0.36166495 1.00000000
0.07194245 -0.21880781 -1.00000000
0.07194245 -0.21880781 1.00000000
0.07194245 -0.07595067 -1.00000000
0.07194245 -0.07595067 1.00000000
0.07194245 0.06690647 -1.00000000
0.07194245 0.06690647 1.00000000
0.07194245 0.20976362 -1.00000000
0.07194245 0.20976362 1.00000000
0.07194245 0.35262076 -1.00000000
0.07194245 0.35262076 1.00000000
0.07194245 0.49547790 -1.00000000
0.07194245 0.49547790 1.00000000
0.07194245 0.63833505 -1.00000000
0.07194245 0.63833505 1.00000000
0.07194245 0.78119219 -1.00000000
0.07194245 0.78119219 1.00000000
0.07194245 0.85262076 -0.92857143
0.07194245 0.92404933 -0.85714286
0.07194245 0.85262076 0.92857143
0.07194245 0.92404933 0.85714286
0.07194245 0.99547790 -0.78571429
0.07194245 1.06690647 -0.71428571
0.07194245 0.99547790 0.64285714
0.07194245 1.06690647 0.57142857
0.07194245 0.99547790 0.78571429
0.07194245 1.13833505 -0.64285714
0.07194245 1.13833505 -0.50000000
0.07194245 1.20976362 -0.42857143
0.00051387 1.20976362 0.35714286
0.07194245 1.20976362 0.42857143
0.07194245 1.13833505 0.50000000
0.07194245 1.28119219 -0.35714286
0.07194245 1.28119219 -0.21428571
0.07194245 1.28119219 -0.07142857
0.07194245 1.28119219 0.07142857
0.07194245 1.28119219 0.21428571
0.07194245 1.28119219 0.35714286
0.21479959 -1.21880781 -0.42857143
0.21479959 -1.29023638 -0.35714286
0.21479959 -1.29023638 -0.21428571
0.21479959 -1.29023638 -0.07142857
0.21479959 -1.29023638 0.07142857
0.21479959 -1.29023638 0.21428571
0.21479959 -1.21880781 0.28571429
0.21479959 -1.07595067 -0.71428571
0.21479959 -1.14737924 -0.64285714
0.21479959 -1.14737924 -0.50000000
0.21479959 -1.14737924 0.35714286
0.21479959 -1.14737924 0.50000000
0.21479959 -1.14737924 0.64285714
0.21479959 -1.07595067 0.71428571
0.21479959 -0.93309353 -0.85714286
0.21479959 -1.00452210 -0.78571429
0.21479959 -1.00452210 0.78571429
0.21479959 -0.93309353 0.85714286
0.21479959 -0.79023638 -0.85714286
0.21479959 -0.79023638 0.85714286
0.21479959 -0.64737924 -1.00000000
0.21479959 -0.71880781 -0.92857143
0.21479959 -0.71880781 0.92857143
0.21479959 -0.64737924 1.00000000
0.21479959 -0.50452210 -1.00000000
0.21479959 -0.50452210 1.00000000
0.21479959 -0.36166495 -1.00000000
0.21479959 -0.36166495 1.00000000
0.21479959 -0.21880781 -1.00000000
0.21479959 -0.21880781 1.00000000
0.21479959 -0.07595067 -1.00000000
0.21479959 -0.07595067 1.00000000
0.21479959 0.06690647 -1.00000000
0.21479959 0.06690647 1.00000000
0.21479959 0.20976362 -1.00000000
0.21479959 0.20976362 1.00000000
0.21479959 0.35262076 -1.00000000
0.21479959 0.35262076 1.00000000
0.21479959 0.49547790 -1.00000000
0.21479959 0.49547790 1.00000000
0.21479959 0.63833505 -1.00000000
0.21479959 0.63833505 1.00000000
0.21479959 0.78119219 -1.00000000
0.21479959 0.78119219 1.00000000
0.21479959 0.85262076 -0.92857143
0.21479959 0.92404933 -0.85714286
0.21479959 0.85262076 0.92857143
0.21479959 0.92404933 0.85714286
0.21479959 0.99547790 -0.78571429
0.21479959 1.06690647 -0.71428571
0.21479959 0.99547790 0.64285714
0.21479959 1.06690647 0.57142857
0.21479959 0.99547790 0.78571429
0.21479959 1.13833505 -0.64285714
0.21479959 1.13833505 -0.50000000
0.21479959 1.20976362 -0.42857143
0.14337102 1.20976362 0.35714286
0.21479959 1.13833505 0.35714286
0.21479959 1.20976362 0.28571429
0.21479959 1.13833505 0.50000000
0.21479959 1.28119219 -0.35714286
0.21479959 1.28119219 -0.21428571
0.21479959 1.28119219 -0.07142857
0.21479959 1.28119219 0.07142857
0.21479959 1.28119219 0.21428571
0.28622816 -1.21880781 -0.35714286
0.35765673 -1.21880781 -0.28571429
0.35765673 -1.29023638 -0.21428571
0.35765673 -1.29023638 -0.07142857
0.35765673 -1.29023638 0.07142857
0.28622816 -1.21880781 0.21428571
0.35765673 -1.21880781 0.14285714
0.28622816 -1.07595067 -0.64285714
0.35765673 -1.07595067 -0.57142857
0.35765673 -1.14737924 -0.50000000
0.35765673 -1.14737924 -0.35714286
0.35765673 -1.14737924 0.21428571
0.35765673 -1.14737924 0.35714286
0.35765673 -1.14737924 0.50000000
0.28622816 -1.07595067 0.64285714
0.35765673 -1.07595067 0.57142857
0.28622816 -0.93309353 -0.78571429
0.35765673 -0.93309353 -0.71428571
0.35765673 -1.00452210 -0.64285714
0.35765673 -1.00452210 0.64285714
0.28622816 -0.93309353 0.78571429
0.35765673 -0.93309353 0.71428571
0.35765673 -0.79023638 -0.85714286
0.35765673 -0.86166495 -0.78571429
0.35765673 -0.86166495 0.78571429
0.35765673 -0.79023638 0.85714286
0.35765673 -0.64737924 -1.00000000
0.35765673 -0.71880781 -0.92857143
0.35765673 -0.71880781 0.92857143
0.35765673 -0.64737924 1.00000000
0.35765673 -0.50452210 -1.00000000
0.35765673 -0.50452210 1.00000000
0.35765673 -0.36166495 -1.00000000
0.35765673 -0.36166495 1.00000000
0.35765673 -0.21880781 -1.00000000
0.35765673 -0.21880781 1.00000000
0.35765673 -0.07595067 -1.00000000
0.35765673 -0.07595067 1.00000000
0.35765673 0.06690647 -1.00000000
0.35765673 0.06690647 1.00000000
0.35765673 0.20976362 -1.00000000
0.35765673 0.20976362 1.00000000
0.35765673 0.35262076 -1.00000000
0.35765673 0.35262076 1.00000000
0.35765673 0.49547790 -1.00000000
0.35765673 0.49547790 1.00000000
0.35765673 0.63833505 -1.00000000
0.35765673 0.63833505 1.00000000
0.35765673 0.78119219 -1.00000000
0.28622816 0.78119219 0.92857143
0.35765673 0.70976362 0.92857143
0.35765673 0.78119219 0.85714286
0.35765673 0.85262076 -0.92857143
0.35765673 0.92404933 -0.85714286
0.28622816 0.92404933 0.78571429
0.35765673 0.85262076 0.78571429
0.35765673 0.92404933 0.71428571
0.35765673 0.99547790 -0.78571429
0.35765673 1.06690647 -0.71428571
0.35765673 0.99547790 0.64285714
0.35765673 1.06690647 0.57142857
0.35765673 1.13833505 -0.64285714
0.35765673 1.13833505 -0.50000000
0.28622816 1.20976362 -0.35714286
0.35765673 1.13833505 -0.35714286
0.35765673 1.20976362 -0.28571429
0.35765673 1.13833505 0.35714286
0.35765673 1.20976362 0.28571429
0.35765673 1.13833505 0.50000000
0.35765673 1.28119219 -0.21428571
0.35765673 1.28119219 -0.07142857
0.35765673 1.28119219 0.07142857
0.35765673 1.28119219 0.21428571
0.42908530 -1.21880781 -0.21428571
0.42908530 -1.21880781 -0.07142857
0.42908530 -1.21880781 0.07142857
0.50051387 -1.07595067 -0.57142857
0.50051387 -1.14737924 -0.50000000
0.50051387 -1.14737924 -0.35714286
0.50051387 -1.14737924 -0.21428571
0.50051387 -1.14737924 -0.07142857
0.50051387 -1.14737924 0.07142857
0.50051387 -1.14737924 0.21428571
0.50051387 -1.14737924 0.35714286
0.42908530 -1.07595067 0.50000000
0.50051387 -1.07595067 0.42857143
0.50051387 -0.93309353 -0.71428571
0.50051387 -1.00452210 -0.64285714
0.50051387 -1.00452210 0.50000000
0.50051387 -1.00452210 0.64285714
0.50051387 -0.93309353 0.71428571
0.50051387 -0.79023638 -0.85714286
0.50051387 -0.86166495 -0.78571429
0.50051387 -0.86166495 0.78571429
0.50051387 -0.79023638 0.85714286
0.42908530 -0.64737924 -0.92857143
0.50051387 -0.64737924 -0.85714286
0.42908530 -0.64737924 0.92857143
0.50051387 -0.64737924 0.85714286
0.50051387 -0.50452210 -1.00000000
0.50051387 -0.57595067 -0.92857143
0.50051387 -0.57595067 0.92857143
0.50051387 -0.50452210 1.00000000
0.50051387 -0.36166495 -1.00000000
0.50051387 -0.36166495 1.00000000
0.50051387 -0.21880781 -1.00000000
0.50051387 -0.21880781 1.00000000
0.50051387 -0.07595067 -1.00000000
0.50051387 -0.07595067 1.00000000
0.50051387 0.06690647 -1.00000000
0.50051387 0.06690647 1.00000000
0.50051387 0.20976362 -1.00000000
0.50051387 0.20976362 1.00000000
0.50051387 0.35262076 -1.00000000
0.50051387 0.35262076 1.00000000
0.50051387 0.49547790 -1.00000000
0.50051387 0.49547790 1.00000000
0.50051387 0.63833505 -1.00000000
0.50051387 0.63833505 1.00000000
0.50051387 0.70976362 -0.92857143
0.42908530 0.78119219 -0.92857143
0.50051387 0.78119219 -0.85714286
0.50051387 0.70976362 0.92857143
0.50051387 0.78119219 0.85714286
0.42908530 0.92404933 -0.78571429
0.50051387 0.85262076 -0.78571429
0.50051387 0.92404933 -0.71428571
0.50051387 0.85262076 0.78571429
0.50051387 0.92404933 0.71428571
0.42908530 1.06690647 -0.64285714
0.50051387 0.99547790 -0.64285714
0.42908530 1.06690647 -0.50000000
0.50051387 0.99547790 -0.50000000
0.50051387 1.06690647 -0.42857143
0.42908530 1.06690647 0.50000000
0.50051387 0.99547790 0.50000000
0.50051387 1.06690647 0.42857143
0.50051387 0.99547790 0.64285714
0.50051387 1.13833505 -0.35714286
0.42908530 1.20976362 -0.21428571
0.50051387 1.13833505 -0.21428571
0.42908530 1.20976362 -0.07142857
0.50051387 1.13833505 -0.07142857
0.42908530 1.20976362 0.07142857
0.50051387 1.13833505 0.07142857
0.42908530 1.20976362 0.21428571
0.50051387 1.13833505 0.21428571
0.50051387 1.13833505 0.35714286
0.57194245 -1.07595067 -0.50000000
0.57194245 -1.07595067 -0.35714286
0.64337102 -1.07595067 -0.28571429
0.64337102 -1.14737924 -0.21428571
0.64337102 -1.14737924 -0.07142857
0.64337102 -1.14737924 0.07142857
0.57194245 -1.07595067 0.21428571
0.64337102 -1.07595067 0.14285714
0.57194245 -1.07595067 0.35714286
0.57194245 -0.93309353 -0.64285714
0.64337102 -0.93309353 -0.57142857
0.64337102 -1.00452210 -0.50000000
0.64337102 -1.00452210 -0.35714286
0.64337102 -1.00452210 0.21428571
0.64337102 -1.00452210 0.35714286
0.64337102 -1.00452210 0.50000000
0.57194245 -0.93309353 0.64285714
0.64337102 -0.93309353 0.57142857
0.57194245 -0.79023638 -0.78571429
0.64337102 -0.79023638 -0.71428571
0.64337102 -0.86166495 -0.64285714
0.64337102 -0.86166495 0.64285714
0.57194245 -0.79023638 0.78571429
0.64337102 -0.79023638 0.71428571
0.64337102 -0.64737924 -0.85714286
0.64337102 -0.71880781 -0.78571429
0.64337102 -0.71880781 0.78571429
0.64337102 -0.64737924 0.85714286
0.57194245 -0.50452210 -0.92857143
0.64337102 -0.50452210 -0.85714286
0.57194245 -0.50452210 0.92857143
0.64337102 -0.50452210 0.85714286
0.64337102 -0.36166495 -1.00000000
0.64337102 -0.43309353 -0.92857143
0.64337102 -0.43309353 0.92857143
0.64337102 -0.36166495 1.00000000
0.64337102 -0.21880781 -1.00000000
0.64337102 -0.21880781 1.00000000
0.64337102 -0.07595067 -1.00000000
0.64337102 -0.07595067 1.00000000
0.64337102 0.06690647 -1.00000000
0.64337102 0.06690647 1.00000000
0.64337102 0.20976362 -1.00000000
0.64337102 0.20976362 1.00000000
0.64337102 0.35262076 -1.00000000
0.64337102 0.35262076 1.00000000
0.64337102 0.49547790 -1.00000000
0.64337102 0.49547790 1.00000000
0.64337102 0.56690647 -0.92857143
0.57194245 0.63833505 -0.92857143
0.64337102 0.63833505 -0.85714286
0.57194245 0.63833505 0.92857143
0.64337102 0.56690647 0.92857143
0.64337102 0.63833505 0.85714286
0.64337102 0.78119219 -0.85714286
0.57194245 0.78119219 0.78571429
0.64337102 0.70976362 0.78571429
0.64337102 0.78119219 0.71428571
0.64337102 0.85262076 -0.78571429
0.57194245 0.92404933 -0.64285714
0.64337102 0.85262076 -0.64285714
0.64337102 0.92404933 -0.57142857
0.57194245 0.92404933 0.64285714
0.64337102 0.85262076 0.64285714
0.64337102 0.92404933 0.57142857
0.64337102 0.99547790 -0.50000000
0.64337102 1.06690647 -0.42857143
0.57194245 1.06690647 0.35714286
0.64337102 0.99547790 0.35714286
0.64337102 1.06690647 0.28571429
0.64337102 0.99547790 0.50000000
0.64337102 1.13833505 -0.35714286
0.64337102 1.13833505 -0.21428571
0.64337102 1.13833505 -0.07142857
0.64337102 1.13833505 0.07142857
0.64337102 1.13833505 0.21428571
0.71479959 -1.07595067 -0.21428571
0.71479959 -1.07595067 -0.07142857
0.71479959 -1.07595067 0.07142857
0.71479959 -0.93309353 -0.50000000
0.78622816 -0.93309353 -0.42857143
0.78622816 -1.00452210 -0.35714286
0.78622816 -1.00452210 -0.21428571
0.78622816 -1.00452210 -0.07142857
0.78622816 -1.00452210 0.07142857
0.78622816 -1.00452210 0.21428571
0.71479959 -0.93309353 0.35714286
0.78622816 -0.93309353 0.28571429
0.71479959 -0.93309353 0.50000000
0.71479959 -0.79023638 -0.64285714
0.78622816 -0.79023638 -0.57142857
0.78622816 -0.86166495 -0.50000000
0.78622816 -0.86166495 0.35714286
0.78622816 -0.86166495 0.50000000
0.71479959 -0.79023638 0.64285714
0.78622816 -0.79023638 0.57142857
0.71479959 -0.64737924 -0.78571429
0.78622816 -0.64737924 -0.71428571
0.78622816 -0.71880781 -0.64285714
0.78622816 -0.71880781 0.64285714
0.71479959 -0.64737924 0.78571429
0.78622816 -0.64737924 0.71428571
0.78622816 -0.50452210 -0.85714286
0.78622816 -0.57595067 -0.78571429
0.78622816 -0.57595067 0.78571429
0.78622816 -0.50452210 0.85714286
0.71479959 -0.36166495 -0.92857143
0.78622816 -0.36166495 -0.85714286
0.71479959 -0.36166495 0.92857143
0.78622816 -0.36166495 0.85714286
0.71479959 -0.21880781 -0.92857143
0.78622816 -0.21880781 -0.85714286
0.71479959 -0.21880781 0.92857143
0.78622816 -0.21880781 0.85714286
0.71479959 -0.07595067 -0.92857143
0.78622816 -0.07595067 -0.85714286
0.78622816 -0.14737924 0.92857143
0.78622816 -0.07595067 1.00000000
0.71479959 0.06690647 -0.92857143
0.78622816 0.06690647 -0.85714286
0.78622816 0.06690647 1.00000000
0.71479959 0.20976362 -0.92857143
0.78622816 0.20976362 -0.85714286
0.71479959 0.20976362 0.92857143
0.78622816 0.13833505 0.92857143
0.78622816 0.20976362 0.85714286
0.71479959 0.35262076 -0.92857143
0.78622816 0.35262076 -0.85714286
0.71479959 0.35262076 0.92857143
0.78622816 0.35262076 0.85714286
0.71479959 0.49547790 -0.92857143
0.78622816 0.49547790 -0.85714286
0.71479959 0.49547790 0.92857143
0.78622816 0.49547790 0.85714286
0.78622816 0.63833505 -0.85714286
0.71479959 0.63833505 0.78571429
0.78622816 0.56690647 0.78571429
0.78622816 0.63833505 0.71428571
0.78622816 0.70976362 -0.78571429
0.71479959 0.78119219 -0.78571429
0.71479959 0.78119219 -0.64285714
0.78622816 0.70976362 -0.64285714
0.78622816 0.78119219 -0.57142857
0.71479959 0.78119219 0.64285714
0.78622816 0.70976362 0.64285714
0.78622816 0.78119219 0.57142857
0.71479959 0.92404933 -0.50000000
0.78622816 0.85262076 -0.50000000
0.78622816 0.92404933 -0.42857143
0.71479959 0.92404933 0.50000000
0.78622816 0.85262076 0.50000000
0.78622816 0.92404933 0.42857143
0.71479959 1.06690647 -0.35714286
0.78622816 0.99547790 -0.35714286
0.71479959 1.06690647 -0.21428571
0.78622816 0.99547790 -0.21428571
0.71479959 1.06690647 -0.07142857
0.78622816 0.99547790 -0.07142857
0.71479959 1.06690647 0.07142857
0.78622816 0.99547790 0.07142857
0.71479959 1.06690647 0.21428571
0.78622816 0.99547790 0.21428571
0.78622816 0.99547790 0.35714286
0.85765673 -0.93309353 -0.35714286
0.85765673 -0.93309353 -0.21428571
0.85765673 -0.93309353 -0.07142857
0.85765673 -0.93309353 0.07142857
0.85765673 -0.93309353 0.21428571
0.85765673 -0.79023638 -0.50000000
0.92908530 -0.79023638 -0.42857143
0.92908530 -0.86166495 -0.35714286
0.92908530 -0.86166495 -0.21428571
0.92908530 -0.86166495 -0.07142857
0.92908530 -0.86166495 0.07142857
0.92908530 -0.86166495 0.21428571
0.85765673 -0.79023638 0.35714286
0.92908530 -0.79023638 0.28571429
0.85765673 -0.79023638 0.50000000
0.85765673 -0.64737924 -0.64285714
0.92908530 -0.64737924 -0.57142857
0.92908530 -0.71880781 -0.50000000
0.92908530 -0.71880781 0.35714286
0.92908530 -0.71880781 0.50000000
0.85765673 -0.64737924 0.64285714
0.92908530 -0.64737924 0.57142857
0.85765673 -0.50452210 -0.78571429
0.92908530 -0.50452210 -0.71428571
0.92908530 -0.57595067 -0.64285714
0.92908530 -0.57595067 0.64285714
0.85765673 -0.50452210 0.78571429
0.92908530 -0.50452210 0.71428571
0.85765673 -0.36166495 -0.78571429
0.92908530 -0.36166495 -0.71428571
0.85765673 -0.36166495 0.78571429
0.92908530 -0.36166495 0.71428571
0.92908530 -0.21880781 -0.85714286
0.92908530 -0.29023638 -0.78571429
0.92908530 -0.29023638 0.78571429
0.92908530 -0.21880781 0.85714286
0.92908530 -0.07595067 -0.85714286
0.85765673 -0.07595067 0.92857143
0.92908530 -0.07595067 0.85714286
0.92908530 0.06690647 -0.85714286
0.85765673 0.06690647 0.92857143
0.92908530 0.06690647 0.85714286
0.92908530 0.20976362 -0.85714286
0.92908530 0.20976362 0.85714286
0.92908530 0.35262076 -0.85714286
0.85765673 0.35262076 0.78571429
0.92908530 0.28119219 0.78571429
0.92908530 0.35262076 0.71428571
0.92908530 0.42404933 -0.78571429
0.85765673 0.49547790 -0.78571429
0.92908530 0.49547790 -0.71428571
0.85765673 0.49547790 0.78571429
0.92908530 0.49547790 0.71428571
0.85765673 0.63833505 -0.78571429
0.92908530 0.56690647 -0.64285714
0.85765673 0.63833505 -0.64285714
0.92908530 0.63833505 -0.57142857
0.85765673 0.63833505 0.64285714
0.92908530 0.56690647 0.64285714
0.92908530 0.63833505 0.57142857
0.85765673 0.78119219 -0.50000000
0.92908530 0.70976362 -0.50000000
0.92908530 0.78119219 -0.42857143
0.85765673 0.78119219 0.50000000
0.92908530 0.70976362 0.50000000
0.92908530 0.78119219 0.42857143
0.85765673 0.92404933 -0.35714286
0.92908530 0.85262076 -0.35714286
0.85765673 0.92404933 -0.21428571
0.92908530 0.85262076 -0.21428571
0.85765673 0.92404933 -0.07142857
0.92908530 0.85262076 -0.07142857
0.85765673 0.92404933 0.07142857
0.92908530 0.85262076 0.07142857
0.85765673 0.92404933 0.21428571
0.92908530 0.85262076 0.21428571
0.85765673 0.92404933 0.35714286
0.92908530 0.85262076 0.35714286
1.00051387 -0.79023638 -0.35714286
1.00051387 -0.79023638 -0.21428571
1.00051387 -0.79023638 -0.07142857
1.00051387 -0.79023638 0.07142857
1.00051387 -0.79023638 0.21428571
1.00051387 -0.64737924 -0.50000000
1.00051387 -0.64737924 -0.35714286
1.07194245 -0.64737924 -0.28571429
1.07194245 -0.71880781 -0.21428571
1.07194245 -0.71880781 -0.07142857
1.07194245 -0.71880781 0.07142857
1.07194245 -0.64737924 0.14285714
1.00051387 -0.64737924 0.21428571
1.00051387 -0.64737924 0.35714286
1.00051387 -0.64737924 0.50000000
1.00051387 -0.50452210 -0.64285714
1.00051387 -0.50452210 -0.50000000
1.07194245 -0.50452210 -0.42857143
1.07194245 -0.57595067 -0.35714286
1.07194245 -0.57595067 0.21428571
1.07194245 -0.57595067 0.35714286
1.07194245 -0.50452210 0.42857143
1.00051387 -0.50452210 0.50000000
1.00051387 -0.50452210 0.64285714
1.00051387 -0.36166495 -0.64285714
1.07194245 -0.36166495 -0.57142857
1.07194245 -0.43309353 -0.50000000
1.07194245 -0.43309353 0.50000000
1.07194245 -0.36166495 0.57142857
1.00051387 -0.36166495 0.64285714
1.00051387 -0.21880781 -0.78571429
1.07194245 -0.21880781 -0.71428571
1.07194245 -0.29023638 -0.64285714
1.00051387 -0.21880781 0.64285714
1.07194245 -0.21880781 0.57142857
1.00051387 -0.21880781 0.78571429
1.00051387 -0.07595067 -0.78571429
1.07194245 -0.07595067 -0.71428571
1.07194245 -0.14737924 0.64285714
1.07194245 -0.07595067 0.71428571
1.00051387 -0.07595067 0.78571429
1.00051387 0.06690647 -0.78571429
1.07194245 0.06690647 -0.71428571
1.00051387 0.06690647 0.78571429
1.07194245 0.06690647 0.71428571
1.00051387 0.20976362 -0.78571429
1.07194245 0.20976362 -0.71428571
1.00051387 0.20976362 0.78571429
1.07194245 0.20976362 0.71428571
1.00051387 0.35262076 -0.78571429
1.07194245 0.35262076 -0.71428571
1.00051387 0.35262076 0.64285714
1.07194245 0.28119219 0.64285714
1.07194245 0.35262076 0.57142857
1.00051387 0.49547790 -0.64285714
1.07194245 0.42404933 -0.64285714
1.07194245 0.49547790 -0.57142857
1.00051387 0.49547790 0.50000000
1.07194245 0.42404933 0.50000000
1.07194245 0.49547790 0.42857143
1.00051387 0.49547790 0.64285714
1.00051387 0.63833505 -0.50000000
1.07194245 0.56690647 -0.50000000
1.07194245 0.63833505 -0.42857143
1.00051387 0.63833505 0.35714286
1.07194245 0.56690647 0.35714286
1.07194245 0.63833505 0.28571429
1.00051387 0.63833505 0.50000000
1.00051387 0.78119219 -0.35714286
1.07194245 0.70976362 -0.35714286
1.00051387 0.78119219 -0.21428571
1.07194245 0.70976362 -0.21428571
1.00051387 0.78119219 -0.07142857
1.07194245 0.70976362 -0.07142857
1.00051387 0.78119219 0.07142857
1.07194245 0.70976362 0.07142857
1.00051387 0.78119219 0.21428571
1.07194245 0.70976362 0.21428571
1.00051387 0.78119219 0.35714286
1.14337102 -0.64737924 -0.21428571
1.14337102 -0.64737924 -0.07142857
1.14337102 -0.64737924 0.07142857
1.14337102 -0.50452210 -0.35714286
1.14337102 -0.50452210 -0.21428571
1.14337102 -0.50452210 -0.07142857
1.14337102 -0.50452210 0.07142857
1.14337102 -0.50452210 0.21428571
1.14337102 -0.50452210 0.35714286
1.14337102 -0.36166495 -0.50000000
1.14337102 -0.36166495 -0.35714286
1.21479959 -0.36166495 -0.28571429
1.21479959 -0.43309353 -0.21428571
1.21479959 -0.43309353 -0.07142857
1.21479959 -0.43309353 0.07142857
1.21479959 -0.36166495 0.14285714
1.14337102 -0.36166495 0.21428571
1.14337102 -0.36166495 0.35714286
1.14337102 -0.36166495 0.50000000
1.14337102 -0.21880781 -0.64285714
1.14337102 -0.21880781 -0.50000000
1.14337102 -0.21880781 -0.35714286
1.21479959 -0.21880781 -0.28571429
1.21479959 -0.29023638 0.21428571
1.21479959 -0.21880781 0.28571429
1.14337102 -0.21880781 0.35714286
1.14337102 -0.21880781 0.50000000
1.14337102 -0.07595067 -0.64285714
1.14337102 -0.07595067 -0.50000000
1.21479959 -0.07595067 -0.42857143
1.21479959 -0.14737924 -0.35714286
1.14337102 -0.07595067 0.35714286
1.21479959 -0.07595067 0.28571429
1.14337102 -0.07595067 0.50000000
1.14337102 -0.07595067 0.64285714
1.14337102 0.06690647 -0.64285714
1.14337102 0.06690647 -0.50000000
1.21479959 0.06690647 -0.42857143
1.14337102 0.06690647 0.35714286
1.21479959 0.06690647 0.28571429
1.14337102 0.06690647 0.50000000
1.14337102 0.06690647 0.64285714
1.14337102 0.20976362 -0.64285714
1.14337102 0.20976362 -0.50000000
1.21479959 0.20976362 -0.42857143
1.14337102 0.20976362 0.35714286
1.21479959 0.20976362 0.28571429
1.14337102 0.20976362 0.50000000
1.14337102 0.20976362 0.64285714
1.14337102 0.35262076 -0.64285714
1.14337102 0.35262076 -0.50000000
1.21479959 0.28119219 -0.35714286
1.14337102 0.35262076 -0.35714286
1.21479959 0.35262076 -0.28571429
1.14337102 0.35262076 0.35714286
1.21479959 0.35262076 0.28571429
1.14337102 0.35262076 0.50000000
1.14337102 0.49547790 -0.50000000
1.14337102 0.49547790 -0.35714286
1.21479959 0.42404933 -0.21428571
1.14337102 0.49547790 -0.21428571
1.14337102 0.49547790 -0.07142857
1.21479959 0.42404933 -0.07142857
1.14337102 0.49547790 0.07142857
1.21479959 0.42404933 0.07142857
1.14337102 0.49547790 0.21428571
1.21479959 0.42404933 0.21428571
1.14337102 0.49547790 0.35714286
1.14337102 0.63833505 -0.35714286
1.14337102 0.63833505 -0.21428571
1.14337102 0.63833505 -0.07142857
1.14337102 0.63833505 0.07142857
1.14337102 0.63833505 0.21428571
1.28622816 -0.36166495 -0.21428571
1.28622816 -0.36166495 -0.07142857
1.28622816 -0.36166495 0.07142857
1.28622816 -0.21880781 -0.21428571
1.28622816 -0.21880781 -0.07142857
1.28622816 -0.21880781 0.07142857
1.28622816 -0.21880781 0.21428571
1.28622816 -0.07595067 -0.35714286
1.28622816 -0.07595067 -0.21428571
1.28622816 -0.07595067 -0.07142857
1.28622816 -0.07595067 0.07142857
1.28622816 -0.07595067 0.21428571
1.28622816 0.06690647 -0.35714286
1.28622816 0.06690647 -0.21428571
1.28622816 0.06690647 -0.07142857
1.28622816 0.06690647 0.07142857
1.28622816 0.06690647 0.21428571
1.28622816 0.20976362 -0.35714286
1.28622816 0.20976362 -0.21428571
1.28622816 0.20976362 -0.07142857
1.28622816 0.20976362 0.07142857
1.28622816 0.20976362 0.21428571
1.28622816 0.35262076 -0.21428571
1.28622816 0.35262076 -0.07142857
1.28622816 0.35262076 0.07142857
1.28622816 0.35262076 0.21428571
3 2 1 0
3 4 3 0
3 0 3 2
3 6 5 4
3 4 5 3
3 8 7 6
3 6 7 5
3 10 9 8
3 8 9 7
3 10 11 9
3 0 1 12
3 12 1 13
3 0 14 4
3 0 12 14
3 4 15 6
3 4 14 15
3 6 16 8
3 6 15 16
3 8 17 10
3 8 16 17
3 11 10 18
3 18 10 17
3 12 13 19
3 19 13 20
3 12 21 14
3 12 19 21
3 14 22 15
3 14 21 22
3 15 23 16
3 15 22 23
3 16 24 17
3 16 23 24
3 18 17 25
3 25 17 24
3 19 20 26
3 26 20 27
3 19 28 21
3 19 26 28
3 21 29 22
3 21 28 29
3 22 30 23
3 22 29 30
3 23 31 24
3 23 30 31
3 25 24 32
3 32 24 31
3 26 27 33
3 33 27 34
3 26 35 28
3 26 33 35
3 28 36 29
3 28 35 36
3 29 37 30
3 29 36 37
3 30 38 31
3 30 37 38
3 32 31 39
3 39 31 38
3 33 34 40
3 40 34 41
3 33 42 35
3 33 40 42
3 35 43 36
3 35 42 43
3 36 44 37
3 36 43 44
3 37 45 38
3 37 44 45
3 39 38 46
3 46 38 45
3 41 47 40
3 40 47 42
3 42 47 48
3 42 48 43
3 43 48 49
3 43 49 44
3 44 49 50
3 44 50 45
3 45 50 51
3 45 51 46
3 54 53 52
3 56 55 52
3 52 55 54
3 58 57 56
3 56 57 55
3 60 59 58
3 58 59 57
3 62 61 60
3 60 61 59
3 64 63 62
3 62 63 61
3 64 65 63
3 68 67 66
3 68 66 53
3 66 52 53
3 66 69 52
3 52 70 56
3 52 69 70
3 56 71 58
3 56 70 71
3 58 72 60
3 58 71 72
3 60 73 62
3 60 72 73
3 62 74 64
3 62 73 74
3 65 64 75
3 64 76 75
3 64 74 76
3 76 77 75
3 80 79 78
3 80 78 67
3 78 66 67
3 78 81 66
3 81 1 2
3 69 81 2
3 66 81 69
3 69 2 3
3 69 3 70
3 70 3 5
3 70 5 71
3 71 5 7
3 71 7 72
3 72 7 9
3 72 9 73
3 73 9 11
3 82 73 11
3 74 73 82
3 74 83 76
3 74 82 83
3 77 76 84
3 84 76 83
3 78 79 85
3 85 79 86
3 78 87 81
3 78 85 87
3 87 13 1
3 87 1 81
3 18 88 82
3 18 82 11
3 82 89 83
3 82 88 89
3 84 83 90
3 83 91 90
3 83 89 91
3 91 92 90
3 85 86 93
3 93 86 94
3 85 95 87
3 85 93 95
3 95 20 13
3 95 13 87
3 25 96 88
3 25 88 18
3 88 97 89
3 88 96 97
3 89 98 91
3 89 97 98
3 92 91 99
3 99 91 98
3 93 94 100
3 100 94 101
3 93 102 95
3 93 100 102
3 102 27 20
3 102 20 95
3 32 103 96
3 32 96 25
3 96 104 97
3 96 103 104
3 97 105 98
3 97 104 105
3 99 98 106
3 106 98 105
3 100 101 107
3 107 101 108
3 100 109 102
3 100 107 109
3 109 34 27
3 109 27 102
3 39 110 103
3 39 103 32
3 103 111 104
3 103 110 111
3 104 112 105
3 104 111 112
3 106 105 113
3 113 105 112
3 108 114 107
3 116 115 114
3 115 107 114
3 115 109 107
3 115 41 34
3 115 34 109
3 46 117 110
3 46 110 39
3 110 118 111
3 110 117 118
3 111 119 112
3 111 118 119
3 113 112 120
3 120 112 119
3 115 116 121
3 121 116 122
3 123 47 41
3 115 123 41
3 121 123 115
3 124 48 47
3 124 47 123
3 125 49 48
3 125 48 124
3 126 50 49
3 126 49 125
3 127 51 50
3 127 50 126
3 117 46 51
3 127 117 51
3 128 117 127
3 117 129 118
3 117 128 129
3 131 119 130
3 119 129 130
3 119 118 129
3 119 131 120
3 122 132 121
3 134 133 132
3 133 121 132
3 133 123 121
3 123 135 124
3 123 133 135
3 124 136 125
3 124 135 136
3 125 137 126
3 125 136 137
3 126 138 127
3 126 137 138
3 140 128 139
3 128 138 139
3 128 127 138
3 128 140 129
3 129 140 141
3 129 141 130
3 134 142 133
3 133 142 135
3 135 142 143
3 135 143 136
3 136 143 144
3 136 144 137
3 137 144 145
3 137 145 138
3 138 145 146
3 138 146 139
3 149 148 147
3 151 150 147
3 147 150 149
3 153 152 151
3 151 152 150
3 155 154 153
3 153 154 152
3 157 156 155
3 155 156 154
3 159 158 157
3 157 158 156
3 161 160 159
3 159 160 158
3 161 162 160
3 165 164 163
3 165 163 148
3 163 147 148
3 163 166 147
3 166 53 54
3 151 166 54
3 147 166 151
3 151 54 55
3 151 55 153
3 153 55 57
3 153 57 155
3 155 57 59
3 155 59 157
3 157 59 61
3 157 61 159
3 159 61 63
3 159 63 161
3 168 167 65
3 65 167 63
3 167 162 63
3 162 161 63
3 168 169 167
3 163 164 170
3 170 164 171
3 170 67 68
3 166 170 68
3 163 170 166
3 166 68 53
3 75 168 65
3 173 172 77
3 77 172 75
3 172 169 75
3 169 168 75
3 173 174 172
3 177 176 175
3 177 175 171
3 171 175 170
3 175 79 170
3 79 80 170
3 170 80 67
3 84 178 173
3 84 173 77
3 174 173 179
3 179 173 178
3 175 176 180
3 180 176 181
3 180 86 79
3 180 79 175
3 90 178 84
3 183 182 92
3 92 182 90
3 182 179 90
3 179 178 90
3 183 184 182
3 180 181 185
3 185 181 186
3 185 94 86
3 185 86 180
3 99 187 183
3 99 183 92
3 184 183 188
3 188 183 187
3 185 186 189
3 189 186 190
3 189 101 94
3 189 94 185
3 106 191 187
3 106 187 99
3 188 187 192
3 192 187 191
3 189 190 193
3 193 190 194
3 193 108 101
3 193 101 189
3 113 195 191
3 113 191 106
3 192 191 196
3 196 191 195
3 194 197 193
3 197 199 198
3 197 198 114
3 193 197 114
3 108 193 114
3 198 116 114
3 201 200 195
3 113 201 195
3 120 201 113
3 195 200 196
3 198 199 202
3 202 199 203
3 202 122 116
3 202 116 198
3 130 204 131
3 204 205 131
3 205 120 131
3 205 201 120
3 203 206 202
3 206 208 207
3 206 207 132
3 202 206 132
3 122 202 132
3 207 134 132
3 139 209 140
3 210 141 140
3 210 140 209
3 210 211 141
3 141 211 130
3 211 212 130
3 212 204 130
3 204 212 205
3 208 213 207
3 213 215 214
3 213 214 142
3 207 213 142
3 134 207 142
3 216 143 142
3 216 142 214
3 217 144 143
3 217 143 216
3 218 145 144
3 218 144 217
3 219 146 145
3 219 145 218
3 209 139 146
3 219 209 146
3 220 209 219
3 222 210 221
3 210 220 221
3 210 209 220
3 210 222 211
3 215 223 214
3 214 223 216
3 216 223 224
3 216 224 217
3 217 224 225
3 217 225 218
3 218 225 226
3 218 226 219
3 219 226 227
3 219 227 220
3 220 227 228
3 220 228 221
3 231 230 229
3 233 232 229
3 229 232 231
3 235 234 233
3 233 234 232
3 237 236 235
3 235 236 234
3 239 238 237
3 237 238 236
3 241 240 239
3 239 240 238
3 243 242 241
3 241 242 240
3 243 244 242
3 247 246 245
3 247 245 230
3 230 245 229
3 245 148 229
3 148 149 229
3 229 149 150
3 229 150 233
3 233 150 152
3 233 152 235
3 235 152 154
3 235 154 237
3 237 154 156
3 237 156 239
3 239 156 158
3 239 158 241
3 241 158 160
3 241 160 243
3 249 248 162
3 162 248 160
3 248 244 160
3 244 243 160
3 249 250 248
3 245 246 165
3 246 164 165
3 246 251 164
3 245 165 148
3 167 249 162
3 253 252 169
3 169 252 167
3 252 250 167
3 250 249 167
3 253 254 252
3 257 256 255
3 251 257 255
3 171 251 255
3 164 251 171
3 172 253 169
3 259 258 174
3 174 258 172
3 258 254 172
3 254 253 172
3 259 260 258
3 255 256 177
3 256 176 177
3 256 261 176
3 255 177 171
3 179 262 259
3 179 259 174
3 260 259 263
3 263 259 262
3 261 181 176
3 264 181 261
3 182 262 179
3 182 184 262
3 184 263 262
3 184 265 263
3 264 186 181
3 266 186 264
3 188 265 184
3 188 267 265
3 266 190 186
3 268 190 266
3 192 267 188
3 192 269 267
3 268 194 190
3 270 194 268
3 196 269 192
3 196 271 269
3 197 194 272
3 194 273 272
3 194 270 273
3 272 199 197
3 201 274 200
3 274 275 200
3 275 196 200
3 275 271 196
3 272 273 276
3 276 273 277
3 276 203 199
3 276 199 272
3 205 278 274
3 205 274 201
3 275 274 279
3 279 274 278
3 277 280 276
3 280 282 281
3 280 281 206
3 276 280 206
3 203 276 206
3 281 208 206
3 211 283 212
3 283 284 212
3 212 284 205
3 284 285 205
3 285 278 205
3 278 285 279
3 282 286 281
3 286 288 287
3 286 287 213
3 281 286 213
3 208 281 213
3 287 215 213
3 221 289 222
3 289 290 222
3 222 290 211
3 290 291 211
3 291 283 211
3 283 291 284
3 288 292 287
3 292 294 293
3 292 293 223
3 287 292 223
3 215 287 223
3 295 224 223
3 295 223 293
3 296 225 224
3 296 224 295
3 297 226 225
3 297 225 296
3 298 227 226
3 298 226 297
3 299 228 227
3 299 227 298
3 299 300 228
3 228 300 221
3 300 301 221
3 301 289 221
3 289 301 290
3 294 302 293
3 293 302 295
3 295 302 303
3 295 303 296
3 296 303 304
3 296 304 297
3 297 304 305
3 297 305 298
3 298 305 306
3 298 306 299
3 299 306 307
3 299 307 300
3 310 309 308
3 312 311 308
3 308 311 310
3 314 313 312
3 312 313 311
3 316 315 314
3 314 315 313
3 318 317 316
3 316 317 315
3 318 319 317
3 322 321 320
3 230 231 320
3 231 322 320
3 231 323 322
3 232 308 309
3 323 232 309
3 231 232 323
3 308 232 234
3 308 234 312
3 312 234 236
3 312 236 314
3 314 236 238
3 314 238 316
3 316 238 240
3 316 240 318
3 324 319 318
3 240 324 318
3 242 324 240
3 326 325 244
3 325 242 244
3 325 324 242
3 326 327 325
3 320 321 247
3 321 246 247
3 321 328 246
3 320 247 230
3 248 326 244
3 330 329 250
3 250 329 248
3 329 327 248
3 327 326 248
3 330 331 329
3 334 333 332
3 328 334 332
3 251 328 332
3 246 328 251
3 252 330 250
3 336 335 254
3 254 335 252
3 335 331 252
3 331 330 252
3 336 337 335
3 332 333 257
3 333 256 257
3 333 338 256
3 332 257 251
3 258 336 254
3 258 260 336
3 260 337 336
3 260 339 337
3 342 341 340
3 338 342 340
3 261 338 340
3 256 338 261
3 263 344 343
3 339 263 343
3 260 263 339
3 344 345 343
3 340 341 346
3 346 341 347
3 346 264 261
3 346 261 340
3 265 348 344
3 265 344 263
3 345 344 349
3 349 344 348
3 346 347 350
3 350 347 351
3 350 266 264
3 350 264 346
3 267 352 348
3 267 348 265
3 349 348 353
3 353 348 352
3 350 351 354
3 354 351 355
3 354 268 266
3 354 266 350
3 269 356 352
3 269 352 267
3 353 352 357
3 357 352 356
3 354 355 358
3 358 355 359
3 358 270 268
3 358 268 354
3 271 360 356
3 271 356 269
3 357 356 361
3 361 356 360
3 358 359 362
3 362 359 363
3 362 273 270
3 362 270 358
3 275 364 360
3 275 360 271
3 361 360 365
3 365 360 364
3 363 366 362
3 273 362 366
3 367 273 366
3 277 273 367
3 369 368 364
3 275 369 364
3 279 369 275
3 364 368 365
3 280 277 370
3 277 371 370
3 277 367 371
3 370 282 280
3 284 372 285
3 372 373 285
3 373 279 285
3 373 369 279
3 371 374 370
3 374 376 375
3 374 375 286
3 370 374 286
3 282 370 286
3 375 288 286
3 290 377 291
3 377 378 291
3 291 378 284
3 378 379 284
3 379 372 284
3 372 379 373
3 376 380 375
3 380 382 381
3 380 381 292
3 375 380 292
3 288 375 292
3 381 294 292
3 300 383 301
3 383 384 301
3 301 384 290
3 384 385 290
3 385 377 290
3 377 385 378
3 382 386 381
3 386 388 387
3 386 387 302
3 381 386 302
3 294 381 302
3 389 303 302
3 389 302 387
3 390 304 303
3 390 303 389
3 391 305 304
3 391 304 390
3 392 306 305
3 392 305 391
3 393 307 306
3 393 306 392
3 393 394 307
3 307 394 300
3 394 395 300
3 395 383 300
3 383 395 384
3 388 396 387
3 387 396 389
3 389 396 397
3 389 397 390
3 390 397 398
3 390 398 391
3 391 398 399
3 391 399 392
3 392 399 400
3 392 400 393
3 393 400 401
3 393 401 394
3 404 403 402
3 309 310 402
3 310 404 402
3 310 405 404
3 406 310 311
3 406 405 310
3 407 311 313
3 407 406 311
3 408 313 315
3 408 407 313
3 409 315 317
3 409 408 315
3 411 410 319
3 410 317 319
3 410 409 317
3 411 412 410
3 414 413 322
3 322 413 321
3 323 402 403
3 414 323 403
3 322 323 414
3 402 323 309
3 324 411 319
3 415 412 411
3 324 415 411
3 325 415 324
3 417 416 327
3 416 325 327
3 416 415 325
3 417 418 416
3 421 420 419
3 413 421 419
3 328 413 419
3 321 413 328
3 329 417 327
3 423 422 331
3 331 422 329
3 422 418 329
3 418 417 329
3 423 424 422
3 419 420 334
3 420 333 334
3 420 425 333
3 419 334 328
3 335 423 331
3 335 337 423
3 337 424 423
3 337 426 424
3 429 428 427
3 425 429 427
3 338 425 427
3 333 425 338
3 339 431 430
3 426 339 430
3 337 339 426
3 431 432 430
3 427 428 342
3 428 341 342
3 428 433 341
3 427 342 338
3 343 431 339
3 343 345 431
3 345 432 431
3 345 434 432
3 433 347 341
3 435 347 433
3 349 434 345
3 349 436 434
3 435 351 347
3 437 351 435
3 353 436 349
3 353 438 436
3 437 355 351
3 439 355 437
3 357 438 353
3 357 440 438
3 439 359 355
3 441 359 439
3 361 440 357
3 361 442 440
3 441 363 359
3 443 363 441
3 365 442 361
3 365 444 442
3 366 363 445
3 363 446 445
3 363 443 446
3 445 367 366
3 369 447 368
3 447 448 368
3 448 365 368
3 448 444 365
3 446 449 445
3 367 445 449
3 450 367 449
3 371 367 450
3 452 451 447
3 369 452 447
3 373 452 369
3 447 451 448
3 374 371 453
3 371 454 453
3 371 450 454
3 453 376 374
3 378 455 379
3 455 456 379
3 456 373 379
3 456 452 373
3 454 457 453
3 457 459 458
3 457 458 380
3 453 457 380
3 376 453 380
3 458 382 380
3 384 460 385
3 460 461 385
3 385 461 378
3 461 462 378
3 462 455 378
3 455 462 456
3 459 463 458
3 463 465 464
3 463 464 386
3 458 463 386
3 382 458 386
3 464 388 386
3 467 466 395
3 467 395 394
3 384 395 460
3 395 468 460
3 395 466 468
3 460 468 461
3 465 469 464
3 464 469 388
3 469 396 388
3 469 470 396
3 396 471 397
3 470 471 396
3 397 472 398
3 471 472 397
3 398 473 399
3 472 473 398
3 399 474 400
3 473 474 399
3 400 475 401
3 474 475 400
3 394 401 467
3 467 401 475
3 478 477 476
3 480 479 476
3 476 479 478
3 482 481 480
3 480 481 479
3 484 483 482
3 482 483 481
3 486 485 484
3 484 485 483
3 486 487 485
3 490 489 488
3 403 404 488
3 404 490 488
3 404 491 490
3 405 476 477
3 491 405 477
3 404 405 491
3 476 405 406
3 476 406 480
3 480 406 407
3 480 407 482
3 482 407 408
3 482 408 484
3 484 408 409
3 484 409 486
3 492 487 486
3 409 492 486
3 410 492 409
3 494 493 412
3 493 410 412
3 493 492 410
3 494 495 493
3 488 489 414
3 489 413 414
3 489 496 413
3 488 414 403
3 415 494 412
3 497 495 494
3 415 497 494
3 416 497 415
3 416 418 497
3 497 418 498
3 500 499 421
3 421 499 420
3 421 413 496
3 421 496 500
3 501 498 418
3 501 418 422
3 422 424 501
3 501 424 502
3 505 504 503
3 499 505 503
3 425 499 503
3 420 499 425
3 426 507 506
3 502 426 506
3 424 426 502
3 507 508 506
3 503 504 429
3 504 428 429
3 504 509 428
3 503 429 425
3 430 507 426
3 430 432 507
3 432 508 507
3 432 510 508
3 509 433 428
3 511 433 509
3 434 510 432
3 434 512 510
3 511 435 433
3 513 435 511
3 436 512 434
3 436 514 512
3 513 437 435
3 515 437 513
3 438 514 436
3 438 516 514
3 515 439 437
3 517 439 515
3 440 516 438
3 440 518 516
3 517 441 439
3 519 441 517
3 442 518 440
3 442 520 518
3 519 443 441
3 521 443 519
3 444 520 442
3 444 522 520
3 521 446 443
3 523 446 521
3 448 522 444
3 448 524 522
3 449 446 525
3 446 526 525
3 446 523 526
3 525 450 449
3 452 527 451
3 527 528 451
3 528 448 451
3 528 524 448
3 526 529 525
3 450 525 529
3 530 450 529
3 454 450 530
3 532 531 527
3 452 532 527
3 456 532 452
3 527 531 528
3 457 454 533
3 454 534 533
3 454 530 534
3 533 459 457
3 536 535 462
3 536 462 461
3 456 462 532
3 532 462 535
3 534 537 533
3 533 537 459
3 537 463 459
3 537 538 463
3 465 463 538
3 465 538 539
3 467 540 466
3 466 540 541
3 542 466 541
3 468 466 542
3 461 468 536
3 536 468 542
3 539 543 465
3 465 543 469
3 543 545 544
3 470 543 544
3 469 543 470
3 546 471 470
3 546 470 544
3 547 472 471
3 547 471 546
3 548 473 472
3 548 472 547
3 549 474 473
3 549 473 548
3 474 549 550
3 551 474 550
3 475 474 551
3 467 475 540
3 475 552 540
3 475 551 552
3 540 552 541
3 545 553 544
3 544 553 546
3 546 553 554
3 546 554 547
3 547 554 555
3 547 555 548
3 548 555 556
3 548 556 549
3 549 556 557
3 549 557 550
3 559 558 478
3 478 558 477
3 560 478 479
3 560 559 478
3 561 479 481
3 561 560 479
3 562 481 483
3 562 561 481
3 563 483 485
3 563 562 483
3 485 487 563
3 563 487 564
3 566 565 490
3 490 565 489
3 567 490 491
3 567 566 490
3 491 477 558
3 491 558 567
3 568 564 487
3 568 487 492
3 569 492 493
3 569 568 492
3 571 570 495
3 570 493 495
3 570 569 493
3 571 572 570
3 575 574 573
3 565 575 573
3 496 565 573
3 489 565 496
3 497 571 495
3 577 576 498
3 498 576 497
3 576 572 497
3 572 571 497
3 577 578 576
3 573 574 500
3 574 499 500
3 574 579 499
3 573 500 496
3 501 577 498
3 501 502 577
3 502 578 577
3 502 580 578
3 582 581 505
3 505 581 504
3 505 499 579
3 505 579 582
3 583 580 502
3 583 502 506
3 506 508 583
3 583 508 584
3 581 509 504
3 585 509 581
3 510 584 508
3 510 586 584
3 585 511 509
3 587 511 585
3 512 586 510
3 512 588 586
3 587 513 511
3 589 513 587
3 514 588 512
3 514 590 588
3 589 515 513
3 591 515 589
3 516 590 514
3 516 592 590
3 591 517 515
3 593 517 591
3 518 592 516
3 518 594 592
3 593 519 517
3 595 519 593
3 520 594 518
3 520 596 594
3 595 521 519
3 597 521 595
3 522 596 520
3 522 598 596
3 597 523 521
3 599 523 597
3 524 598 522
3 524 600 598
3 599 526 523
3 601 526 599
3 528 600 524
3 528 602 600
3 529 526 603
3 526 604 603
3 526 601 604
3 603 530 529
3 532 605 531
3 605 606 531
3 606 528 531
3 606 602 528
3 604 607 603
3 530 603 607
3 608 530 607
3 534 530 608
3 536 609 535
3 609 610 535
3 535 610 532
3 610 611 532
3 611 605 532
3 605 611 606
3 608 612 534
3 534 612 537
3 612 614 613
3 538 612 613
3 537 612 538
3 613 539 538
3 616 615 542
3 616 542 541
3 536 542 609
3 542 617 609
3 542 615 617
3 609 617 610
3 614 618 613
3 613 618 539
3 618 543 539
3 618 619 543
3 545 543 619
3 545 619 620
3 622 621 551
3 622 551 550
3 551 623 552
3 621 623 551
3 541 552 616
3 616 552 623
3 620 624 545
3 545 624 553
3 553 625 554
3 624 625 553
3 554 626 555
3 625 626 554
3 555 627 556
3 626 627 555
3 556 628 557
3 627 628 556
3 550 557 622
3 622 557 628
3 630 629 559
3 559 629 558
3 631 559 560
3 631 630 559
3 632 560 561
3 632 631 560
3 633 561 562
3 633 632 561
3 634 562 563
3 634 633 562
3 563 564 634
3 634 564 635
3 637 636 566
3 566 636 565
3 638 566 567
3 638 637 566
3 567 558 629
3 567 629 638
3 639 635 564
3 639 564 568
3 640 568 569
3 640 639 568
3 641 569 570
3 641 640 569
3 570 572 641
3 641 572 642
3 644 643 575
3 575 643 574
3 575 565 636
3 575 636 644
3 645 642 572
3 645 572 576
3 576 578 645
3 645 578 646
3 643 579 574
3 647 579 643
3 580 646 578
3 580 648 646
3 650 649 582
3 582 649 581
3 582 579 647
3 582 647 650
3 651 648 580
3 651 580 583
3 583 584 651
3 651 584 652
3 649 585 581
3 653 585 649
3 586 652 584
3 586 654 652
3 653 587 585
3 655 587 653
3 588 654 586
3 588 656 654
3 655 589 587
3 657 589 655
3 590 656 588
3 590 658 656
3 657 591 589
3 659 591 657
3 592 658 590
3 592 660 658
3 659 593 591
3 661 593 659
3 594 660 592
3 594 662 660
3 661 595 593
3 663 595 661
3 596 662 594
3 596 664 662
3 663 597 595
3 665 597 663
3 598 664 596
3 598 666 664
3 665 599 597
3 667 599 665
3 600 666 598
3 600 668 666
3 667 601 599
3 669 601 667
3 602 668 600
3 602 670 668
3 669 604 601
3 671 604 669
3 606 670 602
3 606 672 670
3 671 673 604
3 604 673 607
3 608 607 673
3 608 673 674
3 676 675 611
3 676 611 610
3 606 611 672
3 672 611 675
3 674 677 608
3 608 677 612
3 614 612 677
3 614 677 678
3 680 679 615
3 680 615 616
3 615 681 617
3 679 681 615
3 610 617 676
3 676 617 681
3 678 682 614
3 614 682 618
3 618 683 619
3 682 683 618
3 620 619 683
3 620 683 684
3 686 685 621
3 686 621 622
3 621 687 623
3 685 687 621
3 616 623 680
3 680 623 687
3 684 688 620
3 620 688 624
3 624 689 625
3 688 689 624
3 625 690 626
3 689 690 625
3 626 691 627
3 690 691 626
3 627 692 628
3 691 692 627
3 622 628 686
3 686 628 692
3 694 693 630
3 630 693 629
3 695 630 631
3 695 694 630
3 696 631 632
3 696 695 631
3 697 632 633
3 697 696 632
3 698 633 634
3 698 697 633
3 634 635 698
3 698 635 699
3 701 700 637
3 637 700 636
3 702 637 638
3 702 701 637
3 638 629 693
3 638 693 702
3 703 699 635
3 703 635 639
3 704 639 640
3 704 703 639
3 705 640 641
3 705 704 640
3 641 642 705
3 705 642 706
3 708 707 644
3 644 707 643
3 644 636 700
3 644 700 708
3 709 706 642
3 709 642 645
3 645 646 709
3 709 646 710
3 707 647 643
3 711 647 707
3 648 710 646
3 648 712 710
3 714 713 650
3 650 713 649
3 650 647 711
3 650 711 714
3 715 712 648
3 715 648 651
3 651 652 715
3 715 652 716
3 713 653 649
3 717 653 713
3 654 716 652
3 654 718 716
3 717 655 653
3 719 655 717
3 656 718 654
3 656 720 718
3 719 657 655
3 721 657 719
3 658 720 656
3 658 722 720
3 721 659 657
3 723 659 721
3 660 722 658
3 660 724 722
3 723 661 659
3 725 661 723
3 662 724 660
3 662 726 724
3 725 663 661
3 727 663 725
3 664 726 662
3 664 728 726
3 727 665 663
3 729 665 727
3 666 728 664
3 666 730 728
3 729 667 665
3 731 667 729
3 668 730 666
3 668 732 730
3 731 669 667
3 733 669 731
3 670 732 668
3 670 734 732
3 733 671 669
3 735 671 733
3 672 734 670
3 672 736 734
3 735 737 671
3 671 737 673
3 674 673 737
3 674 737 738
3 740 739 675
3 740 675 676
3 672 675 736
3 736 675 739
3 738 741 674
3 674 741 677
3 678 677 741
3 678 741 742
3 744 743 679
3 744 679 680
3 679 745 681
3 743 745 679
3 676 681 740
3 740 681 745
3 742 746 678
3 678 746 682
3 682 747 683
3 746 747 682
3 684 683 747
3 684 747 748
3 686 749 685
3 685 749 750
3 751 685 750
3 687 685 751
3 680 687 744
3 744 687 751
3 748 752 684
3 684 752 688
3 688 753 689
3 752 753 688
3 689 754 690
3 753 754 689
3 690 755 691
3 754 755 690
3 691 756 692
3 755 756 691
3 686 692 749
3 692 757 749
3 692 756 757
3 749 757 750
3 759 758 694
3 694 758 693
3 760 694 695
3 760 759 694
3 761 695 696
3 761 760 695
3 762 696 697
3 762 761 696
3 763 697 698
3 763 762 697
3 698 699 763
3 763 699 764
3 766 765 701
3 701 765 700
3 767 701 702
3 767 766 701
3 702 693 758
3 702 758 767
3 768 764 699
3 768 699 703
3 769 703 704
3 769 768 703
3 770 704 705
3 770 769 704
3 705 706 770
3 770 706 771
3 773 772 708
3 708 772 707
3 708 700 765
3 708 765 773
3 774 771 706
3 774 706 709
3 709 710 774
3 774 710 775
3 772 711 707
3 776 711 772
3 712 775 710
3 712 777 775
3 779 778 714
3 714 778 713
3 714 711 776
3 714 776 779
3 780 777 712
3 780 712 715
3 715 716 780
3 780 716 781
3 778 717 713
3 782 717 778
3 718 781 716
3 718 783 781
3 782 719 717
3 784 719 782
3 720 783 718
3 720 785 783
3 784 721 719
3 786 721 784
3 722 785 720
3 722 787 785
3 786 723 721
3 788 723 786
3 724 787 722
3 724 789 787
3 788 725 723
3 790 725 788
3 726 789 724
3 726 791 789
3 790 727 725
3 792 727 790
3 728 791 726
3 728 793 791
3 792 729 727
3 794 729 792
3 730 793 728
3 730 795 793
3 794 731 729
3 796 731 794
3 732 795 730
3 732 797 795
3 796 733 731
3 798 733 796
3 734 797 732
3 734 799 797
3 798 735 733
3 800 735 798
3 736 799 734
3 736 801 799
3 800 802 735
3 735 802 737
3 738 737 802
3 738 802 803
3 805 804 739
3 805 739 740
3 736 739 801
3 801 739 804
3 803 806 738
3 738 806 741
3 742 741 806
3 742 806 807
3 809 808 743
3 809 743 744
3 743 810 745
3 808 810 743
3 740 745 805
3 805 745 810
3 807 811 742
3 742 811 746
3 746 812 747
3 811 812 746
3 748 747 812
3 748 812 813
3 816 815 814
3 751 750 814
3 815 751 814
3 817 751 815
3 744 751 809
3 809 751 817
3 813 818 748
3 748 818 752
3 752 819 753
3 818 819 752
3 753 820 754
3 819 820 753
3 754 821 755
3 820 821 754
3 755 822 756
3 821 822 755
3 814 757 816
3 757 822 816
3 757 756 822
3 757 814 750
3 823 758 759
3 823 759 824
3 759 825 824
3 759 760 825
3 826 760 761
3 826 825 760
3 827 761 762
3 827 826 761
3 829 827 828
3 827 763 828
3 827 762 763
3 764 828 763
3 830 765 766
3 830 766 831
3 766 832 831
3 766 767 832
3 767 758 823
3 833 767 823
3 832 767 833
3 833 823 824
3 834 829 828
3 834 828 764
3 768 834 764
3 835 834 768
3 836 768 769
3 836 835 768
3 838 836 837
3 836 770 837
3 836 769 770
3 771 837 770
3 839 772 773
3 840 839 773
3 840 773 765
3 841 840 765
3 830 841 765
3 841 830 831
3 842 838 837
3 844 842 843
3 843 842 774
3 842 837 774
3 837 771 774
3 775 843 774
3 846 845 839
3 845 772 839
3 845 776 772
3 846 839 840
3 847 844 843
3 843 775 847
3 775 848 847
3 775 777 848
3 850 849 779
3 779 849 778
3 779 776 845
3 779 845 850
3 851 848 777
3 851 777 780
3 780 781 851
3 851 781 852
3 849 782 778
3 853 782 849
3 783 852 781
3 783 854 852
3 853 784 782
3 855 784 853
3 785 854 783
3 785 856 854
3 855 786 784
3 857 786 855
3 787 856 785
3 787 858 856
3 857 788 786
3 859 788 857
3 789 858 787
3 789 860 858
3 859 790 788
3 861 790 859
3 791 860 789
3 791 862 860
3 861 792 790
3 863 792 861
3 793 862 791
3 793 864 862
3 863 794 792
3 865 794 863
3 795 864 793
3 795 866 864
3 865 796 794
3 867 796 865
3 797 866 795
3 797 868 866
3 867 798 796
3 869 798 867
3 799 868 797
3 799 870 868
3 869 800 798
3 871 800 869
3 874 873 872
3 873 870 872
3 870 801 872
3 870 799 801
3 871 875 800
3 800 875 802
3 803 802 875
3 803 875 876
3 879 878 877
3 877 878 874
3 877 874 872
3 805 877 872
3 804 805 872
3 804 872 801
3 876 880 803
3 803 880 806
3 807 806 880
3 807 880 881
3 883 882 808
3 883 808 809
3 877 810 879
3 810 882 879
3 810 808 882
3 810 877 805
3 881 884 807
3 807 884 811
3 811 885 812
3 884 885 811
3 887 886 813
3 812 887 813
3 885 887 812
3 888 886 887
3 890 889 815
3 890 815 816
3 815 891 817
3 889 891 815
3 809 817 883
3 883 817 891
3 886 818 813
3 888 892 886
3 892 818 886
3 892 819 818
3 819 893 820
3 892 893 819
3 820 894 821
3 893 894 820
3 821 895 822
3 894 895 821
3 816 822 890
3 890 822 895
3 896 824 825
3 826 897 825
3 825 897 896
3 827 898 826
3 826 898 897
3 829 898 827
3 900 899 832
3 832 899 831
3 901 832 833
3 901 900 832
3 833 824 896
3 902 833 896
3 901 833 902
3 902 896 897
3 902 897 903
3 903 897 898
3 903 898 904
3 904 898 829
3 834 904 829
3 905 904 834
3 906 834 835
3 906 905 834
3 908 906 907
3 906 836 907
3 906 835 836
3 838 907 836
3 910 909 841
3 841 909 840
3 841 831 899
3 841 899 910
3 911 908 907
3 911 907 838
3 842 911 838
3 912 911 842
3 842 844 912
3 912 844 913
3 915 914 846
3 846 914 845
3 846 840 909
3 846 909 915
3 916 913 844
3 916 844 847
3 847 848 916
3 916 848 917
3 918 849 850
3 919 918 850
3 845 919 850
3 914 919 845
3 848 851 920
3 921 848 920
3 917 848 921
3 852 920 851
3 923 922 918
3 922 849 918
3 922 853 849
3 923 918 919
3 924 921 920
3 920 852 924
3 852 925 924
3 852 854 925
3 922 855 853
3 926 855 922
3 856 925 854
3 856 927 925
3 926 857 855
3 928 857 926
3 858 927 856
3 858 929 927
3 928 859 857
3 930 859 928
3 860 929 858
3 860 931 929
3 930 861 859
3 932 861 930
3 862 931 860
3 862 933 931
3 932 863 861
3 934 863 932
3 864 933 862
3 864 935 933
3 934 865 863
3 936 865 934
3 866 935 864
3 866 937 935
3 936 867 865
3 938 867 936
3 868 937 866
3 868 939 937
3 938 869 867
3 940 869 938
3 870 939 868
3 870 941 939
3 943 871 942
3 871 940 942
3 871 869 940
3 944 943 942
3 946 945 873
3 946 873 874
3 870 873 941
3 941 873 945
3 943 875 871
3 948 947 876
3 948 876 875
3 944 948 875
3 943 944 875
3 949 947 948
3 951 950 878
3 951 878 879
3 874 878 946
3 946 878 950
3 947 880 876
3 953 952 881
3 953 881 880
3 949 953 880
3 947 949 880
3 955 954 952
3 955 952 953
3 956 954 955
3 959 958 957
3 882 883 957
3 958 882 957
3 960 882 958
3 879 882 951
3 951 882 960
3 952 884 881
3 884 952 885
3 885 952 954
3 956 961 954
3 961 885 954
3 961 887 885
3 963 962 888
3 887 963 888
3 961 963 887
3 965 964 962
3 965 962 963
3 967 966 964
3 967 964 965
3 969 968 966
3 969 966 967
3 889 890 968
3 969 889 968
3 970 889 969
3 957 891 959
3 891 970 959
3 891 889 970
3 891 957 883
3 962 892 888
3 892 962 893
3 893 962 964
3 893 964 894
3 894 964 966
3 894 966 895
3 895 966 968
3 895 968 890
3 971 899 900
3 901 972 900
3 900 972 971
3 972 901 973
3 901 974 973
3 901 902 974
3 975 902 903
3 975 974 902
3 976 903 904
3 976 975 903
3 978 976 977
3 976 905 977
3 976 904 905
3 906 979 905
3 905 979 977
3 908 979 906
3 980 909 910
3 981 980 910
3 981 910 899
3 982 981 899
3 971 982 899
3 982 971 972
3 982 972 983
3 983 972 973
3 984 978 977
3 984 977 979
3 984 979 985
3 985 979 908
3 911 985 908
3 986 985 911
3 988 986 987
3 986 912 987
3 986 911 912
3 913 987 912
3 989 914 915
3 990 989 915
3 990 915 909
3 991 990 909
3 980 991 909
3 991 980 981
3 992 988 987
3 994 992 993
3 993 992 916
3 992 987 916
3 987 913 916
3 917 993 916
3 996 995 989
3 995 914 989
3 995 919 914
3 996 989 990
3 997 994 993
3 993 917 997
3 917 998 997
3 917 921 998
3 999 922 923
3 1000 999 923
3 919 1000 923
3 995 1000 919
3 921 924 1001
3 1002 921 1001
3 998 921 1002
3 925 1001 924
3 1004 1003 999
3 1003 922 999
3 1003 926 922
3 1004 999 1000
3 1005 1002 1001
3 1001 925 1005
3 925 1006 1005
3 925 927 1006
3 1003 928 926
3 1007 928 1003
3 929 1006 927
3 929 1008 1006
3 1007 930 928
3 1009 930 1007
3 931 1008 929
3 931 1010 1008
3 1009 932 930
3 1011 932 1009
3 933 1010 931
3 933 1012 1010
3 1011 934 932
3 1013 934 1011
3 935 1012 933
3 935 1014 1012
3 1013 936 934
3 1015 936 1013
3 937 1014 935
3 937 1016 1014
3 1015 938 936
3 1017 938 1015
3 939 1016 937
3 939 1018 1016
3 1020 940 1019
3 940 1017 1019
3 940 938 1017
3 1021 1020 1019
3 1024 1023 1022
3 1023 1018 1022
3 1018 941 1022
3 1018 939 941
3 1020 942 940
3 944 942 1020
3 1021 944 1020
3 1025 944 1021
3 1028 1027 1026
3 1026 1027 1024
3 1026 1024 1022
3 946 1026 1022
3 945 946 1022
3 945 1022 941
3 1025 1029 944
3 944 1029 948
3 1031 1030 949
3 948 1031 949
3 1029 1031 948
3 1032 1030 1031
3 1035 1034 1033
3 1033 1034 1028
3 1033 1028 1026
3 951 1033 1026
3 950 951 1026
3 950 1026 946
3 1030 953 949
3 1032 1036 1030
3 1036 953 1030
3 1036 955 953
3 956 955 1036
3 956 1036 1037
3 1040 1039 1038
3 958 959 1038
3 1039 958 1038
3 1041 958 1039
3 1033 960 1035
3 960 1041 1035
3 960 958 1041
3 960 1033 951
3 1037 1042 956
3 956 1042 961
3 961 1043 963
3 1042 1043 961
3 963 1044 965
3 1043 1044 963
3 965 1045 967
3 1044 1045 965
3 967 1046 969
3 1045 1046 967
3 1038 970 1040
3 970 1046 1040
3 970 969 1046
3 970 1038 959
3 1047 973 974
3 975 1048 974
3 974 1048 1047
3 976 1049 975
3 975 1049 1048
3 978 1049 976
3 1050 981 982
3 1050 982 1051
3 982 1052 1051
3 982 983 1052
3 983 973 1047
3 1053 983 1047
3 1052 983 1053
3 1053 1047 1048
3 1053 1048 1054
3 1054 1048 1049
3 1054 1049 1055
3 1055 1049 978
3 984 1055 978
3 1056 1055 984
3 1058 1056 1057
3 1056 985 1057
3 1056 984 985
3 986 1059 985
3 985 1059 1057
3 988 1059 986
3 1060 990 991
3 1061 1060 991
3 1061 991 981
3 1062 1061 981
3 1050 1062 981
3 1062 1050 1051
3 1063 1058 1057
3 1063 1057 1059
3 1063 1059 1064
3 1066 1064 1065
3 1065 1064 992
3 1064 1059 992
3 1059 988 992
3 994 1065 992
3 1067 995 996
3 1068 1067 996
3 1068 996 990
3 1069 1068 990
3 1060 1069 990
3 1069 1060 1061
3 1070 1066 1065
3 1072 1070 1071
3 1071 1070 997
3 1070 1065 997
3 1065 994 997
3 998 1071 997
3 1074 1073 1067
3 1073 995 1067
3 1073 1000 995
3 1074 1067 1068
3 1075 1072 1071
3 1071 998 1075
3 998 1076 1075
3 998 1002 1076
3 1077 1003 1004
3 1078 1077 1004
3 1000 1078 1004
3 1073 1078 1000
3 1002 1005 1079
3 1080 1002 1079
3 1076 1002 1080
3 1006 1079 1005
3 1081 1007 1077
3 1077 1007 1003
3 1077 1078 1082
3 1077 1082 1081
3 1080 1079 1083
3 1080 1083 1084
3 1008 1083 1006
3 1006 1083 1079
3 1085 1009 1081
3 1081 1009 1007
3 1081 1082 1086
3 1081 1086 1085
3 1087 1084 1083
3 1083 1008 1087
3 1008 1088 1087
3 1008 1010 1088
3 1089 1011 1085
3 1085 1011 1009
3 1085 1086 1090
3 1085 1090 1089
3 1012 1088 1010
3 1012 1091 1088
3 1092 1013 1089
3 1089 1013 1011
3 1089 1090 1093
3 1089 1093 1092
3 1096 1095 1094
3 1095 1091 1094
3 1091 1014 1094
3 1091 1012 1014
3 1097 1015 1092
3 1092 1015 1013
3 1092 1093 1098
3 1092 1098 1097
3 1096 1094 1099
3 1096 1099 1100
3 1016 1099 1014
3 1014 1099 1094
3 1101 1017 1097
3 1097 1017 1015
3 1097 1098 1102
3 1097 1102 1101
3 1100 1099 1103
3 1100 1103 1104
3 1018 1103 1016
3 1016 1103 1099
3 1101 1019 1017
3 1021 1019 1101
3 1102 1021 1101
3 1105 1021 1102
3 1108 1107 1106
3 1106 1107 1104
3 1106 1104 1103
3 1024 1106 1103
3 1023 1024 1103
3 1023 1103 1018
3 1110 1025 1109
3 1025 1105 1109
3 1025 1021 1105
3 1112 1111 1110
3 1112 1110 1109
3 1113 1111 1112
3 1116 1115 1114
3 1114 1115 1108
3 1114 1108 1106
3 1028 1114 1106
3 1027 1028 1106
3 1027 1106 1024
3 1110 1029 1025
3 1029 1110 1031
3 1031 1110 1111
3 1118 1117 1032
3 1118 1032 1031
3 1113 1118 1031
3 1111 1113 1031
3 1119 1117 1118
3 1122 1121 1120
3 1120 1121 1116
3 1120 1116 1114
3 1035 1120 1114
3 1034 1035 1114
3 1034 1114 1028
3 1117 1036 1032
3 1124 1123 1037
3 1124 1037 1036
3 1119 1124 1036
3 1117 1119 1036
3 1126 1125 1123
3 1126 1123 1124
3 1128 1127 1125
3 1128 1125 1126
3 1130 1129 1127
3 1130 1127 1128
3 1132 1131 1129
3 1132 1129 1130
3 1039 1040 1131
3 1132 1039 1131
3 1133 1039 1132
3 1120 1041 1122
3 1041 1133 1122
3 1041 1039 1133
3 1041 1120 1035
3 1123 1042 1037
3 1042 1123 1043
3 1043 1123 1125
3 1043 1125 1044
3 1044 1125 1127
3 1044 1127 1045
3 1045 1127 1129
3 1045 1129 1046
3 1046 1129 1131
3 1046 1131 1040
3 1134 1051 1052
3 1053 1135 1052
3 1052 1135 1134
3 1054 1136 1053
3 1053 1136 1135
3 1055 1137 1054
3 1054 1137 1136
3 1056 1138 1055
3 1055 1138 1137
3 1058 1138 1056
3 1139 1061 1062
3 1140 1139 1062
3 1140 1062 1051
3 1141 1140 1051
3 1134 1141 1051
3 1141 1134 1135
3 1141 1135 1142
3 1142 1135 1136
3 1142 1136 1143
3 1143 1136 1137
3 1143 1137 1144
3 1144 1137 1138
3 1144 1138 1145
3 1147 1145 1146
3 1146 1145 1063
3 1145 1138 1063
3 1138 1058 1063
3 1064 1148 1063
3 1063 1148 1146
3 1066 1148 1064
3 1149 1068 1069
3 1150 1149 1069
3 1150 1069 1061
3 1151 1150 1061
3 1139 1151 1061
3 1151 1139 1140
3 1152 1147 1146
3 1152 1146 1148
3 1152 1148 1153
3 1155 1153 1154
3 1154 1153 1070
3 1153 1148 1070
3 1148 1066 1070
3 1072 1154 1070
3 1156 1073 1074
3 1157 1156 1074
3 1157 1074 1068
3 1158 1157 1068
3 1149 1158 1068
3 1158 1149 1150
3 1159 1155 1154
3 1161 1159 1160
3 1160 1159 1075
3 1159 1154 1075
3 1154 1072 1075
3 1076 1160 1075
3 1162 1078 1156
3 1156 1078 1073
3 1156 1157 1163
3 1156 1163 1162
3 1161 1160 1164
3 1161 1164 1165
3 1080 1164 1076
3 1076 1164 1160
3 1167 1166 1162
3 1166 1078 1162
3 1166 1082 1078
3 1167 1162 1163
3 1168 1165 1164
3 1164 1080 1168
3 1080 1169 1168
3 1080 1084 1169
3 1166 1086 1082
3 1170 1086 1166
3 1084 1087 1171
3 1172 1084 1171
3 1169 1084 1172
3 1088 1171 1087
3 1170 1090 1086
3 1173 1090 1170
3 1172 1171 1174
3 1172 1174 1175
3 1091 1174 1088
3 1088 1174 1171
3 1173 1093 1090
3 1176 1093 1173
3 1175 1174 1095
3 1096 1175 1095
3 1177 1175 1096
3 1095 1174 1091
3 1176 1098 1093
3 1178 1098 1176
3 1181 1180 1179
3 1180 1177 1179
3 1177 1100 1179
3 1177 1096 1100
3 1183 1102 1182
3 1102 1178 1182
3 1102 1098 1178
3 1184 1183 1182
3 1181 1179 1185
3 1181 1185 1186
3 1104 1185 1100
3 1100 1185 1179
3 1187 1105 1183
3 1183 1105 1102
3 1183 1184 1188
3 1189 1183 1188
3 1187 1183 1189
3 1190 1189 1188
3 1193 1192 1191
3 1191 1192 1186
3 1191 1186 1185
3 1108 1191 1185
3 1107 1108 1185
3 1107 1185 1104
3 1187 1109 1105
3 1109 1187 1112
3 1112 1187 1189
3 1195 1194 1113
3 1195 1113 1112
3 1190 1195 1112
3 1189 1190 1112
3 1196 1194 1195
3 1199 1198 1197
3 1197 1198 1193
3 1197 1193 1191
3 1116 1197 1191
3 1115 1116 1191
3 1115 1191 1108
3 1194 1118 1113
3 1201 1200 1119
3 1201 1119 1118
3 1196 1201 1118
3 1194 1196 1118
3 1203 1202 1200
3 1203 1200 1201
3 1205 1204 1202
3 1205 1202 1203
3 1207 1206 1204
3 1207 1204 1205
3 1209 1208 1206
3 1209 1206 1207
3 1211 1210 1208
3 1211 1208 1209
3 1210 1211 1199
3 1210 1199 1197
3 1122 1210 1197
3 1121 1122 1197
3 1121 1197 1116
3 1200 1124 1119
3 1124 1200 1126
3 1126 1200 1202
3 1126 1202 1128
3 1128 1202 1204
3 1128 1204 1130
3 1130 1204 1206
3 1130 1206 1132
3 1132 1206 1208
3 1132 1208 1133
3 1133 1208 1210
3 1133 1210 1122
3 1212 1140 1141
3 1142 1213 1141
3 1141 1213 1212
3 1143 1214 1142
3 1142 1214 1213
3 1144 1215 1143
3 1143 1215 1214
3 1145 1216 1144
3 1144 1216 1215
3 1147 1216 1145
3 1217 1150 1151
3 1140 1212 1151
3 1212 1217 1151
3 1212 1218 1217
3 1213 1220 1219
3 1218 1213 1219
3 1212 1213 1218
3 1220 1213 1214
3 1220 1214 1221
3 1221 1214 1215
3 1221 1215 1222
3 1224 1223 1222
3 1215 1224 1222
3 1216 1224 1215
3 1152 1225 1147
3 1225 1216 1147
3 1225 1224 1216
3 1153 1226 1152
3 1152 1226 1225
3 1155 1226 1153
3 1227 1157 1158
3 1150 1217 1158
3 1217 1227 1158
3 1217 1228 1227
3 1218 1230 1229
3 1228 1218 1229
3 1217 1218 1228
3 1230 1218 1219
3 1231 1223 1224
3 1231 1224 1225
3 1231 1225 1232
3 1234 1233 1232
3 1225 1234 1232
3 1226 1234 1225
3 1159 1235 1155
3 1235 1226 1155
3 1235 1234 1226
3 1161 1235 1159
3 1236 1163 1227
3 1227 1163 1157
3 1228 1238 1237
3 1236 1228 1237
3 1227 1228 1236
3 1238 1228 1229
3 1239 1233 1234
3 1241 1240 1239
3 1234 1241 1239
3 1235 1241 1234
3 1165 1241 1161
3 1161 1241 1235
3 1242 1166 1167
3 1243 1242 1167
3 1243 1167 1163
3 1244 1243 1163
3 1236 1244 1163
3 1244 1236 1237
3 1240 1241 1245
3 1240 1245 1246
3 1168 1247 1165
3 1247 1241 1165
3 1247 1245 1241
3 1169 1247 1168
3 1248 1170 1242
3 1242 1170 1166
3 1242 1243 1249
3 1242 1249 1248
3 1250 1246 1245
3 1252 1251 1250
3 1245 1252 1250
3 1247 1252 1245
3 1172 1252 1169
3 1169 1252 1247
3 1253 1173 1248
3 1248 1173 1170
3 1248 1249 1254
3 1248 1254 1253
3 1251 1252 1255
3 1251 1255 1256
3 1175 1255 1172
3 1172 1255 1252
3 1257 1176 1253
3 1253 1176 1173
3 1253 1254 1258
3 1253 1258 1257
3 1256 1255 1259
3 1256 1259 1260
3 1177 1259 1175
3 1175 1259 1255
3 1261 1178 1257
3 1257 1178 1176
3 1257 1258 1262
3 1257 1262 1261
3 1265 1264 1263
3 1263 1264 1260
3 1263 1260 1259
3 1181 1263 1259
3 1180 1181 1259
3 1180 1259 1177
3 1261 1182 1178
3 1267 1266 1184
3 1267 1184 1182
3 1262 1267 1182
3 1261 1262 1182
3 1268 1266 1267
3 1271 1270 1269
3 1269 1270 1265
3 1263 1269 1265
3 1272 1269 1263
3 1186 1272 1181
3 1181 1272 1263
3 1266 1188 1184
3 1274 1273 1190
3 1274 1190 1188
3 1268 1274 1188
3 1266 1268 1188
3 1275 1273 1274
3 1278 1277 1276
3 1276 1277 1271
3 1269 1276 1271
3 1279 1276 1269
3 1193 1279 1192
3 1279 1272 1192
3 1279 1269 1272
3 1192 1272 1186
3 1273 1195 1190
3 1281 1280 1196
3 1281 1196 1195
3 1275 1281 1195
3 1273 1275 1195
3 1283 1282 1280
3 1283 1280 1281
3 1285 1284 1282
3 1285 1282 1283
3 1287 1286 1284
3 1287 1284 1285
3 1289 1288 1286
3 1289 1286 1287
3 1288 1289 1278
3 1276 1288 1278
3 1290 1288 1276
3 1199 1290 1198
3 1290 1279 1198
3 1290 1276 1279
3 1198 1279 1193
3 1280 1201 1196
3 1201 1280 1203
3 1203 1280 1282
3 1203 1282 1205
3 1205 1282 1284
3 1205 1284 1207
3 1207 1284 1286
3 1207 1286 1209
3 1209 1286 1288
3 1209 1288 1211
3 1211 1288 1290
3 1211 1290 1199
3 1291 1219 1220
3 1221 1292 1220
3 1220 1292 1291
3 1222 1293 1221
3 1221 1293 1292
3 1223 1293 1222
3 1294 1229 1230
3 1219 1291 1230
3 1291 1294 1230
3 1291 1295 1294
3 1296 1291 1292
3 1295 1291 1296
3 1297 1292 1293
3 1296 1292 1297
3 1231 1298 1223
3 1298 1293 1223
3 1298 1297 1293
3 1232 1299 1231
3 1231 1299 1298
3 1233 1299 1232
3 1300 1237 1238
3 1229 1294 1238
3 1294 1300 1238
3 1294 1301 1300
3 1295 1303 1302
3 1301 1295 1302
3 1294 1295 1301
3 1303 1295 1296
3 1303 1296 1304
3 1304 1296 1297
3 1304 1297 1305
3 1307 1306 1305
3 1297 1307 1305
3 1298 1307 1297
3 1308 1298 1299
3 1307 1298 1308
3 1239 1309 1233
3 1309 1299 1233
3 1309 1308 1299
3 1240 1309 1239
3 1310 1243 1244
3 1237 1300 1244
3 1300 1310 1244
3 1300 1311 1310
3 1312 1300 1301
3 1311 1300 1312
3 1301 1302 1313
3 1301 1313 1312
3 1314 1306 1307
3 1316 1315 1314
3 1307 1316 1314
3 1308 1316 1307
3 1317 1308 1309
3 1316 1308 1317
3 1246 1317 1240
3 1240 1317 1309
3 1318 1249 1310
3 1310 1249 1243
3 1319 1310 1311
3 1318 1310 1319
3 1312 1321 1320
3 1319 1312 1320
3 1311 1312 1319
3 1321 1312 1313
3 1315 1316 1322
3 1315 1322 1323
3 1324 1316 1317
3 1322 1316 1324
3 1250 1325 1246
3 1325 1317 1246
3 1325 1324 1317
3 1251 1325 1250
3 1326 1254 1318
3 1318 1254 1249
3 1327 1318 1319
3 1326 1318 1327
3 1319 1320 1328
3 1319 1328 1327
3 1323 1322 1329
3 1323 1329 1330
3 1331 1322 1324
3 1329 1322 1331
3 1332 1324 1325
3 1331 1324 1332
3 1256 1332 1251
3 1251 1332 1325
3 1333 1258 1326
3 1326 1258 1254
3 1334 1326 1327
3 1333 1326 1334
3 1327 1328 1335
3 1327 1335 1334
3 1330 1329 1336
3 1330 1336 1337
3 1338 1329 1331
3 1336 1329 1338
3 1339 1331 1332
3 1338 1331 1339
3 1260 1339 1256
3 1256 1339 1332
3 1340 1262 1333
3 1333 1262 1258
3 1341 1333 1334
3 1340 1333 1341
3 1334 1335 1342
3 1343 1334 1342
3 1341 1334 1343
3 1344 1343 1342
3 1337 1336 1345
3 1337 1345 1346
3 1347 1336 1338
3 1345 1336 1347
3 1265 1347 1264
3 1347 1339 1264
3 1347 1338 1339
3 1264 1339 1260
3 1340 1267 1262
3 1267 1340 1268
3 1340 1348 1268
3 1340 1341 1348
3 1349 1341 1343
3 1348 1341 1349
3 1343 1344 1350
3 1351 1343 1350
3 1349 1343 1351
3 1353 1352 1351
3 1353 1351 1350
3 1355 1354 1352
3 1355 1352 1353
3 1357 1356 1354
3 1357 1354 1355
3 1356 1357 1346
3 1345 1356 1346
3 1358 1356 1345
3 1271 1358 1270
3 1358 1347 1270
3 1358 1345 1347
3 1270 1347 1265
3 1348 1274 1268
3 1274 1348 1275
3 1348 1359 1275
3 1348 1349 1359
3 1360 1349 1351
3 1359 1349 1360
3 1361 1351 1352
3 1360 1351 1361
3 1362 1352 1354
3 1361 1352 1362
3 1363 1354 1356
3 1362 1354 1363
3 1278 1363 1277
3 1363 1358 1277
3 1363 1356 1358
3 1277 1358 1271
3 1359 1281 1275
3 1281 1359 1283
3 1283 1359 1360
3 1283 1360 1285
3 1285 1360 1361
3 1285 1361 1287
3 1287 1361 1362
3 1287 1362 1289
3 1289 1362 1363
3 1289 1363 1278
3 1364 1302 1303
3 1304 1365 1303
3 1303 1365 1364
3 1305 1366 1304
3 1304 1366 1365
3 1306 1366 1305
3 1367 1313 1364
3 1364 1313 1302
3 1368 1364 1365
3 1367 1364 1368
3 1369 1365 1366
3 1368 1365 1369
3 1314 1370 1306
3 1370 1366 1306
3 1370 1369 1366
3 1315 1370 1314
3 1371 1320 1321
3 1313 1367 1321
3 1367 1371 1321
3 1367 1372 1371
3 1373 1367 1368
3 1372 1367 1373
3 1374 1368 1369
3 1373 1368 1374
3 1375 1369 1370
3 1374 1369 1375
3 1323 1375 1315
3 1315 1375 1370
3 1376 1328 1371
3 1371 1328 1320
3 1377 1371 1372
3 1376 1371 1377
3 1378 1372 1373
3 1377 1372 1378
3 1379 1373 1374
3 1378 1373 1379
3 1380 1374 1375
3 1379 1374 1380
3 1330 1380 1323
3 1323 1380 1375
3 1381 1335 1376
3 1376 1335 1328
3 1382 1376 1377
3 1381 1376 1382
3 1383 1377 1378
3 1382 1377 1383
3 1384 1378 1379
3 1383 1378 1384
3 1385 1379 1380
3 1384 1379 1385
3 1337 1385 1330
3 1330 1385 1380
3 1381 1342 1335
3 1342 1381 1344
3 1381 1386 1344
3 1381 1382 1386
3 1387 1382 1383
3 1386 1382 1387
3 1388 1383 1384
3 1387 1383 1388
3 1389 1384 1385
3 1388 1384 1389
3 1346 1389 1337
3 1337 1389 1385
3 1386 1350 1344
3 1350 1386 1353
3 1353 1386 1387
3 1353 1387 1355
3 1355 1387 1388
3 1355 1388 1357
3 1357 1388 1389
3 1357 1389 1346
