# Asteroid shape model (convexinv -> dual reconstruction)
v -1.28345324 -0.36423433 -0.35714286
v -1.21202467 -0.36423433 -0.42857143
v -1.21202467 -0.43566290 -0.35714286
v -1.21202467 -0.43566290 -0.21428571
v -1.28345324 -0.36423433 -0.21428571
v -1.21202467 -0.43566290 -0.07142857
v -1.28345324 -0.36423433 -0.07142857
v -1.21202467 -0.43566290 0.07142857
v -1.28345324 -0.36423433 0.07142857
v -1.21202467 -0.43566290 0.21428571
v -1.28345324 -0.36423433 0.21428571
v -1.21202467 -0.36423433 0.28571429
v -1.28345324 -0.22137718 -0.35714286
v -1.21202467 -0.22137718 -0.42857143
v -1.28345324 -0.22137718 -0.21428571
v -1.28345324 -0.22137718 -0.07142857
v -1.28345324 -0.22137718 0.07142857
v -1.28345324 -0.22137718 0.21428571
v -1.21202467 -0.22137718 0.28571429
v -1.28345324 -0.07852004 -0.35714286
v -1.21202467 -0.07852004 -0.42857143
v -1.28345324 -0.07852004 -0.21428571
v -1.28345324 -0.07852004 -0.07142857
v -1.28345324 -0.07852004 0.07142857
v -1.28345324 -0.07852004 0.21428571
v -1.21202467 -0.07852004 0.28571429
v -1.28345324 0.06433710 -0.35714286
v -1.21202467 0.06433710 -0.42857143
v -1.28345324 0.06433710 -0.21428571
v -1.28345324 0.06433710 -0.07142857
v -1.28345324 0.06433710 0.07142857
v -1.28345324 0.06433710 0.21428571
v -1.21202467 0.06433710 0.28571429
v -1.28345324 0.20719424 -0.35714286
v -1.21202467 0.20719424 -0.42857143
v -1.28345324 0.20719424 -0.21428571
v -1.28345324 0.20719424 -0.07142857
v -1.28345324 0.20719424 0.07142857
v -1.28345324 0.20719424 0.21428571
v -1.21202467 0.20719424 0.28571429
v -1.28345324 0.35005139 -0.35714286
v -1.21202467 0.35005139 -0.42857143
v -1.28345324 0.35005139 -0.21428571
v -1.28345324 0.35005139 -0.07142857
v -1.28345324 0.35005139 0.07142857
v -1.28345324 0.35005139 0.21428571
v -1.21202467 0.35005139 0.28571429
v -1.21202467 0.42147996 -0.35714286
v -1.21202467 0.42147996 -0.21428571
v -1.21202467 0.42147996 -0.07142857
v -1.21202467 0.42147996 0.07142857
v -1.21202467 0.42147996 0.21428571
v -1.14059609 -0.64994861 -0.35714286
v -1.06916752 -0.64994861 -0.42857143
v -1.06916752 -0.72137718 -0.35714286
v -1.06916752 -0.72137718 -0.21428571
v -1.14059609 -0.64994861 -0.21428571
v -1.06916752 -0.72137718 -0.07142857
v -1.14059609 -0.64994861 -0.07142857
v -1.06916752 -0.72137718 0.07142857
v -1.14059609 -0.64994861 0.07142857
v -1.06916752 -0.72137718 0.21428571
v -1.14059609 -0.64994861 0.21428571
v -1.06916752 -0.72137718 0.35714286
v -1.14059609 -0.64994861 0.35714286
v -1.06916752 -0.64994861 0.42857143
v -1.14059609 -0.50709147 -0.50000000
v -1.06916752 -0.50709147 -0.57142857
v -1.06916752 -0.57852004 -0.50000000
v -1.14059609 -0.50709147 -0.35714286
v -1.14059609 -0.50709147 -0.21428571
v -1.14059609 -0.50709147 -0.07142857
v -1.14059609 -0.50709147 0.07142857
v -1.14059609 -0.50709147 0.21428571
v -1.14059609 -0.50709147 0.35714286
v -1.06916752 -0.57852004 0.50000000
v -1.14059609 -0.50709147 0.50000000
v -1.06916752 -0.50709147 0.57142857
v -1.14059609 -0.36423433 -0.50000000
v -1.06916752 -0.36423433 -0.57142857
v -1.14059609 -0.36423433 0.35714286
v -1.14059609 -0.36423433 0.50000000
v -1.06916752 -0.43566290 0.64285714
v -1.14059609 -0.36423433 0.64285714
v -1.06916752 -0.36423433 0.71428571
v -1.14059609 -0.22137718 -0.64285714
v -1.06916752 -0.22137718 -0.71428571
v -1.06916752 -0.29280576 -0.64285714
v -1.14059609 -0.22137718 -0.50000000
v -1.14059609 -0.22137718 0.35714286
v -1.14059609 -0.22137718 0.50000000
v -1.14059609 -0.22137718 0.64285714
v -1.06916752 -0.22137718 0.71428571
v -1.14059609 -0.07852004 -0.64285714
v -1.06916752 -0.07852004 -0.71428571
v -1.14059609 -0.07852004 -0.50000000
v -1.14059609 -0.07852004 0.35714286
v -1.14059609 -0.07852004 0.50000000
v -1.14059609 -0.07852004 0.64285714
v -1.06916752 -0.07852004 0.71428571
v -1.14059609 0.06433710 -0.64285714
v -1.06916752 0.06433710 -0.71428571
v -1.14059609 0.06433710 -0.50000000
v -1.14059609 0.06433710 0.35714286
v -1.14059609 0.06433710 0.50000000
v -1.14059609 0.06433710 0.64285714
v -1.06916752 0.06433710 0.71428571
v -1.14059609 0.20719424 -0.64285714
v -1.06916752 0.20719424 -0.71428571
v -1.14059609 0.20719424 -0.50000000
v -1.14059609 0.20719424 0.35714286
v -1.14059609 0.20719424 0.50000000
v -1.14059609 0.20719424 0.64285714
v -1.06916752 0.20719424 0.71428571
v -1.14059609 0.35005139 -0.64285714
v -1.06916752 0.35005139 -0.71428571
v -1.14059609 0.35005139 -0.50000000
v -1.14059609 0.35005139 0.35714286
v -1.14059609 0.35005139 0.50000000
v -1.06916752 0.35005139 0.57142857
v -1.06916752 0.27862282 0.64285714
v -1.06916752 0.42147996 -0.64285714
v -1.14059609 0.49290853 -0.50000000
v -1.06916752 0.49290853 -0.57142857
v -1.14059609 0.49290853 -0.35714286
v -1.14059609 0.49290853 -0.21428571
v -1.14059609 0.49290853 -0.07142857
v -1.14059609 0.49290853 0.07142857
v -1.14059609 0.49290853 0.21428571
v -1.14059609 0.49290853 0.35714286
v -1.14059609 0.49290853 0.50000000
v -1.06916752 0.49290853 0.57142857
v -1.06916752 0.56433710 -0.50000000
v -1.14059609 0.63576567 -0.35714286
v -1.06916752 0.63576567 -0.42857143
v -1.14059609 0.63576567 -0.21428571
v -1.14059609 0.63576567 -0.07142857
v -1.14059609 0.63576567 0.07142857
v -1.14059609 0.63576567 0.21428571
v -1.14059609 0.63576567 0.35714286
v -1.06916752 0.63576567 0.42857143
v -1.06916752 0.56433710 0.50000000
v -1.06916752 0.70719424 -0.35714286
v -1.06916752 0.70719424 -0.21428571
v -1.06916752 0.70719424 -0.07142857
v -1.06916752 0.70719424 0.07142857
v -1.06916752 0.70719424 0.21428571
v -1.06916752 0.70719424 0.35714286
v -0.99773895 -0.79280576 -0.50000000
v -0.92631038 -0.79280576 -0.57142857
v -0.92631038 -0.86423433 -0.50000000
v -0.92631038 -0.86423433 -0.35714286
v -0.99773895 -0.79280576 -0.35714286
v -0.92631038 -0.86423433 -0.21428571
v -0.99773895 -0.79280576 -0.21428571
v -0.92631038 -0.86423433 -0.07142857
v -0.99773895 -0.79280576 -0.07142857
v -0.92631038 -0.86423433 0.07142857
v -0.99773895 -0.79280576 0.07142857
v -0.92631038 -0.86423433 0.21428571
v -0.99773895 -0.79280576 0.21428571
v -0.92631038 -0.86423433 0.35714286
v -0.99773895 -0.79280576 0.35714286
v -0.92631038 -0.79280576 0.42857143
v -0.99773895 -0.64994861 -0.50000000
v -0.92631038 -0.64994861 -0.57142857
v -0.92631038 -0.72137718 0.50000000
v -0.99773895 -0.64994861 0.50000000
v -0.92631038 -0.64994861 0.57142857
v -0.99773895 -0.50709147 -0.64285714
v -0.92631038 -0.50709147 -0.71428571
v -0.92631038 -0.57852004 -0.64285714
v -0.92631038 -0.57852004 0.64285714
v -0.99773895 -0.50709147 0.64285714
v -0.92631038 -0.50709147 0.71428571
v -0.99773895 -0.36423433 -0.78571429
v -0.92631038 -0.36423433 -0.85714286
v -0.92631038 -0.43566290 -0.78571429
v -0.99773895 -0.36423433 -0.64285714
v -0.92631038 -0.36423433 0.71428571
v -0.99773895 -0.22137718 -0.78571429
v -0.92631038 -0.22137718 -0.85714286
v -0.92631038 -0.29280576 0.78571429
v -0.99773895 -0.22137718 0.78571429
v -0.92631038 -0.22137718 0.85714286
v -0.99773895 -0.07852004 -0.78571429
v -0.92631038 -0.07852004 -0.85714286
v -0.99773895 -0.07852004 0.78571429
v -0.92631038 -0.07852004 0.85714286
v -0.99773895 0.06433710 -0.78571429
v -0.92631038 0.06433710 -0.85714286
v -0.99773895 0.06433710 0.78571429
v -0.92631038 0.06433710 0.85714286
v -0.99773895 0.20719424 -0.78571429
v -0.92631038 0.20719424 -0.85714286
v -0.99773895 0.20719424 0.78571429
v -0.92631038 0.20719424 0.85714286
v -0.99773895 0.35005139 -0.78571429
v -0.92631038 0.35005139 -0.85714286
v -0.99773895 0.35005139 0.64285714
v -0.92631038 0.35005139 0.71428571
v -0.92631038 0.27862282 0.78571429
v -0.92631038 0.42147996 -0.78571429
v -0.99773895 0.49290853 -0.64285714
v -0.92631038 0.49290853 -0.71428571
v -0.99773895 0.49290853 0.64285714
v -0.92631038 0.49290853 0.71428571
v -0.92631038 0.56433710 -0.64285714
v -0.99773895 0.63576567 -0.50000000
v -0.92631038 0.63576567 -0.57142857
v -0.99773895 0.63576567 0.50000000
v -0.92631038 0.63576567 0.57142857
v -0.92631038 0.56433710 0.64285714
v -0.99773895 0.77862282 -0.50000000
v -0.92631038 0.77862282 -0.57142857
v -0.99773895 0.77862282 -0.35714286
v -0.99773895 0.77862282 -0.21428571
v -0.99773895 0.77862282 -0.07142857
v -0.99773895 0.77862282 0.07142857
v -0.99773895 0.77862282 0.21428571
v -0.99773895 0.77862282 0.35714286
v -0.92631038 0.77862282 0.42857143
v -0.92631038 0.70719424 0.50000000
v -0.92631038 0.85005139 -0.50000000
v -0.92631038 0.85005139 -0.35714286
v -0.92631038 0.85005139 -0.21428571
v -0.92631038 0.85005139 -0.07142857
v -0.92631038 0.85005139 0.07142857
v -0.92631038 0.85005139 0.21428571
v -0.92631038 0.85005139 0.35714286
v -0.85488181 -0.93566290 -0.50000000
v -0.78345324 -0.93566290 -0.57142857
v -0.78345324 -1.00709147 -0.50000000
v -0.78345324 -1.00709147 -0.35714286
v -0.85488181 -0.93566290 -0.35714286
v -0.78345324 -1.00709147 -0.21428571
v -0.85488181 -0.93566290 -0.21428571
v -0.78345324 -1.00709147 -0.07142857
v -0.85488181 -0.93566290 -0.07142857
v -0.78345324 -1.00709147 0.07142857
v -0.85488181 -0.93566290 0.07142857
v -0.78345324 -1.00709147 0.21428571
v -0.85488181 -0.93566290 0.21428571
v -0.78345324 -1.00709147 0.35714286
v -0.85488181 -0.93566290 0.35714286
v -0.78345324 -0.93566290 0.42857143
v -0.85488181 -0.79280576 -0.64285714
v -0.78345324 -0.79280576 -0.71428571
v -0.78345324 -0.86423433 -0.64285714
v -0.78345324 -0.86423433 0.50000000
v -0.85488181 -0.79280576 0.50000000
v -0.78345324 -0.79280576 0.57142857
v -0.85488181 -0.64994861 -0.64285714
v -0.78345324 -0.64994861 -0.71428571
v -0.78345324 -0.72137718 0.64285714
v -0.85488181 -0.64994861 0.64285714
v -0.78345324 -0.64994861 0.71428571
v -0.85488181 -0.50709147 -0.78571429
v -0.78345324 -0.50709147 -0.85714286
v -0.78345324 -0.57852004 -0.78571429
v -0.78345324 -0.57852004 0.78571429
v -0.85488181 -0.50709147 0.78571429
v -0.78345324 -0.50709147 0.85714286
v -0.78345324 -0.36423433 -0.85714286
v -0.85488181 -0.36423433 0.78571429
v -0.78345324 -0.36423433 0.85714286
v -0.78345324 -0.22137718 -0.85714286
v -0.78345324 -0.22137718 0.85714286
v -0.78345324 -0.07852004 -0.85714286
v -0.78345324 -0.07852004 0.85714286
v -0.78345324 0.06433710 -0.85714286
v -0.78345324 0.06433710 0.85714286
v -0.78345324 0.20719424 -0.85714286
v -0.78345324 0.20719424 0.85714286
v -0.78345324 0.35005139 -0.85714286
v -0.85488181 0.35005139 0.78571429
v -0.78345324 0.35005139 0.85714286
v -0.85488181 0.49290853 -0.78571429
v -0.78345324 0.49290853 -0.85714286
v -0.85488181 0.49290853 0.78571429
v -0.78345324 0.49290853 0.85714286
v -0.78345324 0.56433710 -0.78571429
v -0.85488181 0.63576567 -0.64285714
v -0.78345324 0.63576567 -0.71428571
v -0.85488181 0.63576567 0.64285714
v -0.78345324 0.63576567 0.71428571
v -0.78345324 0.56433710 0.78571429
v -0.85488181 0.77862282 -0.64285714
v -0.78345324 0.77862282 -0.71428571
v -0.85488181 0.77862282 0.50000000
v -0.78345324 0.77862282 0.57142857
v -0.78345324 0.70719424 0.64285714
v -0.78345324 0.85005139 -0.64285714
v -0.78345324 0.85005139 -0.50000000
v -0.85488181 0.92147996 -0.35714286
v -0.78345324 0.92147996 -0.42857143
v -0.85488181 0.92147996 -0.21428571
v -0.85488181 0.92147996 -0.07142857
v -0.85488181 0.92147996 0.07142857
v -0.85488181 0.92147996 0.21428571
v -0.85488181 0.92147996 0.35714286
v -0.78345324 0.92147996 0.42857143
v -0.78345324 0.85005139 0.50000000
v -0.78345324 0.99290853 -0.35714286
v -0.78345324 0.99290853 -0.21428571
v -0.78345324 0.99290853 -0.07142857
v -0.78345324 0.99290853 0.07142857
v -0.78345324 0.99290853 0.21428571
v -0.78345324 0.99290853 0.35714286
v -0.71202467 -1.07852004 -0.35714286
v -0.64059609 -1.07852004 -0.42857143
v -0.64059609 -1.14994861 -0.35714286
v -0.64059609 -1.14994861 -0.21428571
v -0.71202467 -1.07852004 -0.21428571
v -0.64059609 -1.14994861 -0.07142857
v -0.71202467 -1.07852004 -0.07142857
v -0.64059609 -1.14994861 0.07142857
v -0.71202467 -1.07852004 0.07142857
v -0.64059609 -1.14994861 0.21428571
v -0.71202467 -1.07852004 0.21428571
v -0.64059609 -1.14994861 0.35714286
v -0.71202467 -1.07852004 0.35714286
v -0.64059609 -1.07852004 0.42857143
v -0.71202467 -0.93566290 -0.64285714
v -0.64059609 -0.93566290 -0.71428571
v -0.64059609 -1.00709147 -0.64285714
v -0.64059609 -1.00709147 -0.50000000
v -0.64059609 -1.00709147 0.50000000
v -0.71202467 -0.93566290 0.50000000
v -0.64059609 -0.93566290 0.57142857
v -0.64059609 -0.79280576 -0.71428571
v -0.64059609 -0.86423433 0.64285714
v -0.71202467 -0.79280576 0.64285714
v -0.64059609 -0.79280576 0.71428571
v -0.71202467 -0.64994861 -0.78571429
v -0.64059609 -0.64994861 -0.85714286
v -0.64059609 -0.72137718 -0.78571429
v -0.64059609 -0.72137718 0.78571429
v -0.71202467 -0.64994861 0.78571429
v -0.64059609 -0.64994861 0.85714286
v -0.64059609 -0.50709147 -0.85714286
v -0.64059609 -0.50709147 0.85714286
v -0.71202467 -0.36423433 -0.92857143
v -0.64059609 -0.36423433 -1.00000000
v -0.64059609 -0.43566290 -0.92857143
v -0.64059609 -0.43566290 0.92857143
v -0.71202467 -0.36423433 0.92857143
v -0.64059609 -0.36423433 1.00000000
v -0.71202467 -0.22137718 -0.92857143
v -0.64059609 -0.22137718 -1.00000000
v -0.71202467 -0.22137718 0.92857143
v -0.64059609 -0.22137718 1.00000000
v -0.71202467 -0.07852004 -0.92857143
v -0.64059609 -0.07852004 -1.00000000
v -0.71202467 -0.07852004 0.92857143
v -0.64059609 -0.07852004 1.00000000
v -0.71202467 0.06433710 -0.92857143
v -0.64059609 0.06433710 -1.00000000
v -0.71202467 0.06433710 0.92857143
v -0.64059609 0.06433710 1.00000000
v -0.71202467 0.20719424 -0.92857143
v -0.64059609 0.20719424 -1.00000000
v -0.71202467 0.20719424 0.92857143
v -0.64059609 0.20719424 1.00000000
v -0.71202467 0.35005139 -0.92857143
v -0.64059609 0.35005139 -1.00000000
v -0.71202467 0.35005139 0.92857143
v -0.64059609 0.35005139 1.00000000
v -0.64059609 0.42147996 -0.92857143
v -0.64059609 0.49290853 -0.85714286
v -0.64059609 0.42147996 0.92857143
v -0.64059609 0.49290853 0.85714286
v -0.71202467 0.63576567 -0.78571429
v -0.64059609 0.63576567 -0.85714286
v -0.71202467 0.63576567 0.78571429
v -0.64059609 0.63576567 0.85714286
v -0.64059609 0.70719424 -0.78571429
v -0.64059609 0.77862282 -0.71428571
v -0.71202467 0.77862282 0.64285714
v -0.64059609 0.77862282 0.71428571
v -0.64059609 0.70719424 0.78571429
v -0.64059609 0.85005139 -0.64285714
v -0.71202467 0.92147996 -0.50000000
v -0.64059609 0.92147996 -0.57142857
v -0.71202467 0.92147996 0.50000000
v -0.64059609 0.92147996 0.57142857
v -0.64059609 0.85005139 0.64285714
v -0.64059609 0.99290853 -0.50000000
v -0.71202467 1.06433710 -0.35714286
v -0.64059609 1.06433710 -0.42857143
v -0.71202467 1.06433710 -0.21428571
v -0.71202467 1.06433710 -0.07142857
v -0.71202467 1.06433710 0.07142857
v -0.71202467 1.06433710 0.21428571
v -0.64059609 1.06433710 0.28571429
v -0.64059609 0.99290853 0.35714286
v -0.64059609 0.99290853 0.50000000
v -0.64059609 1.13576567 -0.35714286
v -0.64059609 1.13576567 -0.21428571
v -0.64059609 1.13576567 -0.07142857
v -0.64059609 1.13576567 0.07142857
v -0.64059609 1.13576567 0.21428571
v -0.56916752 -1.07852004 -0.50000000
v -0.49773895 -1.07852004 -0.57142857
v -0.49773895 -1.14994861 -0.50000000
v -0.49773895 -1.14994861 -0.35714286
v -0.49773895 -1.14994861 -0.21428571
v -0.49773895 -1.14994861 -0.07142857
v -0.49773895 -1.14994861 0.07142857
v -0.49773895 -1.14994861 0.21428571
v -0.49773895 -1.14994861 0.35714286
v -0.49773895 -1.07852004 0.42857143
v -0.49773895 -0.93566290 -0.71428571
v -0.49773895 -1.00709147 -0.64285714
v -0.49773895 -1.00709147 0.50000000
v -0.49773895 -1.00709147 0.64285714
v -0.56916752 -0.93566290 0.64285714
v -0.49773895 -0.93566290 0.71428571
v -0.56916752 -0.79280576 -0.78571429
v -0.49773895 -0.79280576 -0.85714286
v -0.49773895 -0.86423433 -0.78571429
v -0.49773895 -0.86423433 0.78571429
v -0.56916752 -0.79280576 0.78571429
v -0.49773895 -0.79280576 0.85714286
v -0.49773895 -0.64994861 -0.85714286
v -0.49773895 -0.64994861 0.85714286
v -0.56916752 -0.50709147 -0.92857143
v -0.49773895 -0.50709147 -1.00000000
v -0.49773895 -0.57852004 -0.92857143
v -0.49773895 -0.57852004 0.92857143
v -0.56916752 -0.50709147 0.92857143
v -0.49773895 -0.50709147 1.00000000
v -0.49773895 -0.36423433 -1.00000000
v -0.49773895 -0.36423433 1.00000000
v -0.49773895 -0.22137718 -1.00000000
v -0.49773895 -0.22137718 1.00000000
v -0.49773895 -0.07852004 -1.00000000
v -0.49773895 -0.07852004 1.00000000
v -0.49773895 0.06433710 -1.00000000
v -0.49773895 0.06433710 1.00000000
v -0.49773895 0.20719424 -1.00000000
v -0.49773895 0.20719424 1.00000000
v -0.49773895 0.35005139 -1.00000000
v -0.49773895 0.35005139 1.00000000
v -0.56916752 0.49290853 -0.92857143
v -0.49773895 0.49290853 -1.00000000
v -0.56916752 0.49290853 0.92857143
v -0.49773895 0.49290853 1.00000000
v -0.56916752 0.63576567 -0.92857143
v -0.49773895 0.63576567 -1.00000000
v -0.49773895 0.56433710 0.92857143
v -0.49773895 0.63576567 0.85714286
v -0.49773895 0.70719424 -0.92857143
v -0.56916752 0.77862282 -0.78571429
v -0.49773895 0.77862282 -0.85714286
v -0.56916752 0.77862282 0.78571429
v -0.49773895 0.77862282 0.85714286
v -0.49773895 0.85005139 -0.78571429
v -0.56916752 0.92147996 -0.64285714
v -0.49773895 0.92147996 -0.71428571
v -0.49773895 0.85005139 0.64285714
v -0.49773895 0.92147996 0.57142857
v -0.49773895 0.85005139 0.78571429
v -0.49773895 0.99290853 -0.64285714
v -0.56916752 1.06433710 -0.50000000
v -0.49773895 1.06433710 -0.57142857
v -0.56916752 1.06433710 0.35714286
v -0.56916752 1.06433710 0.50000000
v -0.49773895 1.06433710 0.57142857
v -0.49773895 1.13576567 -0.50000000
v -0.49773895 1.13576567 -0.35714286
v -0.49773895 1.13576567 -0.21428571
v -0.49773895 1.13576567 -0.07142857
v -0.49773895 1.13576567 0.07142857
v -0.49773895 1.13576567 0.21428571
v -0.49773895 1.13576567 0.35714286
v -0.49773895 1.13576567 0.50000000
v -0.42631038 -1.22137718 -0.35714286
v -0.35488181 -1.22137718 -0.42857143
v -0.35488181 -1.29280576 -0.35714286
v -0.35488181 -1.29280576 -0.21428571
v -0.42631038 -1.22137718 -0.21428571
v -0.35488181 -1.29280576 -0.07142857
v -0.42631038 -1.22137718 -0.07142857
v -0.35488181 -1.29280576 0.07142857
v -0.42631038 -1.22137718 0.07142857
v -0.35488181 -1.29280576 0.21428571
v -0.42631038 -1.22137718 0.21428571
v -0.35488181 -1.22137718 0.28571429
v -0.35488181 -1.07852004 -0.57142857
v -0.35488181 -1.14994861 -0.50000000
v -0.35488181 -1.14994861 0.35714286
v -0.35488181 -1.14994861 0.50000000
v -0.42631038 -1.07852004 0.50000000
v -0.35488181 -1.07852004 0.57142857
v -0.35488181 -0.93566290 -0.71428571
v -0.35488181 -1.00709147 -0.64285714
v -0.35488181 -1.00709147 0.64285714
v -0.35488181 -0.93566290 0.71428571
v -0.35488181 -0.79280576 -0.85714286
v -0.35488181 -0.86423433 -0.78571429
v -0.35488181 -0.86423433 0.78571429
v -0.35488181 -0.79280576 0.85714286
v -0.42631038 -0.64994861 -0.92857143
v -0.35488181 -0.64994861 -1.00000000
v -0.35488181 -0.72137718 -0.92857143
v -0.35488181 -0.72137718 0.92857143
v -0.42631038 -0.64994861 0.92857143
v -0.35488181 -0.64994861 1.00000000
v -0.35488181 -0.50709147 -1.00000000
v -0.35488181 -0.50709147 1.00000000
v -0.35488181 -0.36423433 -1.00000000
v -0.35488181 -0.36423433 1.00000000
v -0.35488181 -0.22137718 -1.00000000
v -0.35488181 -0.22137718 1.00000000
v -0.35488181 -0.07852004 -1.00000000
v -0.35488181 -0.07852004 1.00000000
v -0.35488181 0.06433710 -1.00000000
v -0.35488181 0.06433710 1.00000000
v -0.35488181 0.20719424 -1.00000000
v -0.35488181 0.20719424 1.00000000
v -0.35488181 0.35005139 -1.00000000
v -0.35488181 0.35005139 1.00000000
v -0.35488181 0.49290853 -1.00000000
v -0.35488181 0.49290853 1.00000000
v -0.35488181 0.63576567 -1.00000000
v -0.42631038 0.63576567 0.92857143
v -0.35488181 0.63576567 1.00000000
v -0.35488181 0.70719424 -0.92857143
v -0.35488181 0.77862282 -0.85714286
v -0.35488181 0.70719424 0.92857143
v -0.35488181 0.77862282 0.85714286
v -0.42631038 0.92147996 -0.78571429
v -0.35488181 0.92147996 -0.85714286
v -0.42631038 0.92147996 0.64285714
v -0.35488181 0.92147996 0.71428571
v -0.35488181 0.85005139 0.78571429
v -0.35488181 0.99290853 -0.78571429
v -0.35488181 0.99290853 -0.64285714
v -0.35488181 1.06433710 -0.57142857
v -0.35488181 0.99290853 0.64285714
v -0.35488181 1.06433710 0.57142857
v -0.35488181 1.13576567 -0.50000000
v -0.42631038 1.20719424 -0.35714286
v -0.35488181 1.20719424 -0.42857143
v -0.42631038 1.20719424 -0.21428571
v -0.42631038 1.20719424 -0.07142857
v -0.42631038 1.20719424 0.07142857
v -0.42631038 1.20719424 0.21428571
v -0.35488181 1.20719424 0.28571429
v -0.35488181 1.13576567 0.35714286
v -0.35488181 1.13576567 0.50000000
v -0.35488181 1.27862282 -0.35714286
v -0.35488181 1.27862282 -0.21428571
v -0.35488181 1.27862282 -0.07142857
v -0.35488181 1.27862282 0.07142857
v -0.35488181 1.27862282 0.21428571
v -0.21202467 -1.22137718 -0.42857143
v -0.21202467 -1.29280576 -0.35714286
v -0.21202467 -1.29280576 -0.21428571
v -0.21202467 -1.29280576 -0.07142857
v -0.21202467 -1.29280576 0.07142857
v -0.21202467 -1.29280576 0.21428571
v -0.21202467 -1.22137718 0.28571429
v -0.21202467 -1.07852004 -0.57142857
v -0.21202467 -1.14994861 -0.50000000
v -0.21202467 -1.14994861 0.35714286
v -0.21202467 -1.14994861 0.50000000
v -0.21202467 -1.14994861 0.64285714
v -0.28345324 -1.07852004 0.64285714
v -0.21202467 -1.07852004 0.71428571
v -0.28345324 -0.93566290 -0.78571429
v -0.21202467 -0.93566290 -0.85714286
v -0.21202467 -1.00709147 -0.78571429
v -0.21202467 -1.00709147 -0.64285714
v -0.21202467 -1.00709147 0.78571429
v -0.28345324 -0.93566290 0.78571429
v -0.21202467 -0.93566290 0.85714286
v -0.21202467 -0.79280576 -0.85714286
v -0.21202467 -0.79280576 0.85714286
v -0.21202467 -0.64994861 -1.00000000
v -0.21202467 -0.72137718 -0.92857143
v -0.21202467 -0.72137718 0.92857143
v -0.21202467 -0.64994861 1.00000000
v -0.21202467 -0.50709147 -1.00000000
v -0.21202467 -0.50709147 1.00000000
v -0.21202467 -0.36423433 -1.00000000
v -0.21202467 -0.36423433 1.00000000
v -0.21202467 -0.22137718 -1.00000000
v -0.21202467 -0.22137718 1.00000000
v -0.21202467 -0.07852004 -1.00000000
v -0.21202467 -0.07852004 1.00000000
v -0.21202467 0.06433710 -1.00000000
v -0.21202467 0.06433710 1.00000000
v -0.21202467 0.20719424 -1.00000000
v -0.21202467 0.20719424 1.00000000
v -0.21202467 0.35005139 -1.00000000
v -0.21202467 0.35005139 1.00000000
v -0.21202467 0.49290853 -1.00000000
v -0.21202467 0.49290853 1.00000000
v -0.21202467 0.63576567 -1.00000000
v -0.21202467 0.63576567 1.00000000
v -0.28345324 0.77862282 -0.92857143
v -0.21202467 0.77862282 -1.00000000
v -0.21202467 0.70719424 0.92857143
v -0.21202467 0.77862282 0.85714286
v -0.21202467 0.85005139 -0.92857143
v -0.21202467 0.92147996 -0.85714286
v -0.28345324 0.92147996 0.78571429
v -0.21202467 0.92147996 0.85714286
v -0.21202467 0.99290853 -0.78571429
v -0.28345324 1.06433710 -0.64285714
v -0.21202467 1.06433710 -0.71428571
v -0.28345324 1.06433710 0.64285714
v -0.21202467 1.06433710 0.71428571
v -0.21202467 0.99290853 0.78571429
v -0.21202467 1.13576567 -0.64285714
v -0.21202467 1.13576567 -0.50000000
v -0.21202467 1.20719424 -0.42857143
v -0.21202467 1.13576567 0.35714286
v -0.21202467 1.20719424 0.28571429
v -0.21202467 1.13576567 0.50000000
v -0.21202467 1.13576567 0.64285714
v -0.21202467 1.27862282 -0.35714286
v -0.21202467 1.27862282 -0.21428571
v -0.21202467 1.27862282 -0.07142857
v -0.21202467 1.27862282 0.07142857
v -0.21202467 1.27862282 0.21428571
v -0.06916752 -1.22137718 -0.42857143
v -0.06916752 -1.29280576 -0.35714286
v -0.06916752 -1.29280576 -0.21428571
v -0.06916752 -1.29280576 -0.07142857
v -0.06916752 -1.29280576 0.07142857
v -0.06916752 -1.29280576 0.21428571
v -0.06916752 -1.22137718 0.28571429
v -0.14059609 -1.07852004 -0.64285714
v -0.06916752 -1.07852004 -0.71428571
v -0.06916752 -1.14994861 -0.64285714
v -0.06916752 -1.14994861 -0.50000000
v -0.06916752 -1.14994861 0.35714286
v -0.06916752 -1.14994861 0.50000000
v -0.06916752 -1.14994861 0.64285714
v -0.06916752 -1.07852004 0.71428571
v -0.06916752 -0.93566290 -0.85714286
v -0.06916752 -1.00709147 -0.78571429
v -0.06916752 -1.00709147 0.78571429
v -0.06916752 -0.93566290 0.85714286
v -0.06916752 -0.79280576 -0.85714286
v -0.06916752 -0.79280576 0.85714286
v -0.06916752 -0.64994861 -1.00000000
v -0.06916752 -0.72137718 -0.92857143
v -0.06916752 -0.72137718 0.92857143
v -0.06916752 -0.64994861 1.00000000
v -0.06916752 -0.50709147 -1.00000000
v -0.06916752 -0.50709147 1.00000000
v -0.06916752 -0.36423433 -1.00000000
v -0.06916752 -0.36423433 1.00000000
v -0.06916752 -0.22137718 -1.00000000
v -0.06916752 -0.22137718 1.00000000
v -0.06916752 -0.07852004 -1.00000000
v -0.06916752 -0.07852004 1.00000000
v -0.06916752 0.06433710 -1.00000000
v -0.06916752 0.06433710 1.00000000
v -0.06916752 0.20719424 -1.00000000
v -0.06916752 0.20719424 1.00000000
v -0.06916752 0.35005139 -1.00000000
v -0.06916752 0.35005139 1.00000000
v -0.06916752 0.49290853 -1.00000000
v -0.06916752 0.49290853 1.00000000
v -0.06916752 0.63576567 -1.00000000
v -0.06916752 0.63576567 1.00000000
v -0.06916752 0.77862282 -1.00000000
v -0.14059609 0.77862282 0.92857143
v -0.06916752 0.77862282 1.00000000
v -0.06916752 0.85005139 -0.92857143
v -0.06916752 0.92147996 -0.85714286
v -0.06916752 0.85005139 0.92857143
v -0.06916752 0.92147996 0.85714286
v -0.06916752 0.99290853 -0.78571429
v -0.06916752 1.06433710 -0.71428571
v -0.06916752 0.99290853 0.78571429
v -0.06916752 1.06433710 0.71428571
v -0.06916752 1.13576567 -0.64285714
v -0.06916752 1.13576567 -0.50000000
v -0.06916752 1.20719424 -0.42857143
v -0.14059609 1.20719424 0.35714286
v -0.06916752 1.20719424 0.42857143
v -0.06916752 1.13576567 0.50000000
v -0.06916752 1.13576567 0.64285714
v -0.06916752 1.27862282 -0.35714286
v -0.06916752 1.27862282 -0.21428571
v -0.06916752 1.27862282 -0.07142857
v -0.06916752 1.27862282 0.07142857
v -0.06916752 1.27862282 0.21428571
v -0.06916752 1.27862282 0.35714286
v 0.07368962 -1.22137718 -0.42857143
v 0.07368962 -1.29280576 -0.35714286
v 0.07368962 -1.29280576 -0.21428571
v 0.07368962 -1.29280576 -0.07142857
v 0.07368962 -1.29280576 0.07142857
v 0.07368962 -1.29280576 0.21428571
v 0.07368962 -1.22137718 0.28571429
v 0.07368962 -1.07852004 -0.71428571
v 0.07368962 -1.14994861 -0.64285714
v 0.07368962 -1.14994861 -0.50000000
v 0.07368962 -1.14994861 0.35714286
v 0.07368962 -1.14994861 0.50000000
v 0.07368962 -1.14994861 0.64285714
v 0.07368962 -1.07852004 0.71428571
v 0.07368962 -0.93566290 -0.85714286
v 0.07368962 -1.00709147 -0.78571429
v 0.07368962 -1.00709147 0.78571429
v 0.07368962 -0.93566290 0.85714286
v 0.07368962 -0.79280576 -0.85714286
v 0.07368962 -0.79280576 0.85714286
v 0.07368962 -0.64994861 -1.00000000
v 0.07368962 -0.72137718 -0.92857143
v 0.07368962 -0.72137718 0.92857143
v 0.07368962 -0.64994861 1.00000000
v 0.07368962 -0.50709147 -1.00000000
v 0.07368962 -0.50709147 1.00000000
v 0.07368962 -0.36423433 -1.00000000
v 0.07368962 -0.36423433 1.00000000
v 0.07368962 -0.22137718 -1.00000000
v 0.07368962 -0.22137718 1.00000000
v 0.07368962 -0.07852004 -1.00000000
v 0.07368962 -0.07852004 1.00000000
v 0.07368962 0.06433710 -1.00000000
v 0.07368962 0.06433710 1.00000000
v 0.07368962 0.20719424 -1.00000000
v 0.07368962 0.20719424 1.00000000
v 0.07368962 0.35005139 -1.00000000
v 0.07368962 0.35005139 1.00000000
v 0.07368962 0.49290853 -1.00000000
v 0.07368962 0.49290853 1.00000000
v 0.07368962 0.63576567 -1.00000000
v 0.07368962 0.63576567 1.00000000
v 0.07368962 0.77862282 -1.00000000
v 0.07368962 0.77862282 1.00000000
v 0.07368962 0.85005139 -0.92857143
v 0.07368962 0.92147996 -0.85714286
v 0.07368962 0.85005139 0.92857143
v 0.07368962 0.92147996 0.85714286
v 0.07368962 0.99290853 -0.78571429
v 0.07368962 1.06433710 -0.71428571
v 0.07368962 0.99290853 0.78571429
v 0.07368962 1.06433710 0.71428571
v 0.07368962 1.13576567 -0.64285714
v 0.07368962 1.13576567 -0.50000000
v 0.07368962 1.20719424 -0.42857143
v 0.07368962 1.13576567 0.50000000
v 0.07368962 1.20719424 0.42857143
v 0.07368962 1.13576567 0.64285714
v 0.07368962 1.27862282 -0.35714286
v 0.07368962 1.27862282 -0.21428571
v 0.07368962 1.27862282 -0.07142857
v 0.07368962 1.27862282 0.07142857
v 0.07368962 1.27862282 0.21428571
v 0.07368962 1.27862282 0.35714286
v 0.14511819 -1.22137718 -0.35714286
v 0.21654676 -1.22137718 -0.28571429
v 0.21654676 -1.29280576 -0.21428571
v 0.21654676 -1.29280576 -0.07142857
v 0.21654676 -1.29280576 0.07142857
v 0.21654676 -1.29280576 0.21428571
v 0.21654676 -1.22137718 0.28571429
v 0.21654676 -1.07852004 -0.71428571
v 0.21654676 -1.14994861 -0.64285714
v 0.21654676 -1.14994861 -0.50000000
v 0.21654676 -1.14994861 -0.35714286
v 0.21654676 -1.14994861 0.35714286
v 0.21654676 -1.14994861 0.50000000
v 0.21654676 -1.14994861 0.64285714
v 0.21654676 -1.07852004 0.71428571
v 0.21654676 -0.93566290 -0.85714286
v 0.21654676 -1.00709147 -0.78571429
v 0.21654676 -1.00709147 0.78571429
v 0.21654676 -0.93566290 0.85714286
v 0.21654676 -0.79280576 -0.85714286
v 0.21654676 -0.79280576 0.85714286
v 0.21654676 -0.64994861 -1.00000000
v 0.21654676 -0.72137718 -0.92857143
v 0.21654676 -0.72137718 0.92857143
v 0.21654676 -0.64994861 1.00000000
v 0.21654676 -0.50709147 -1.00000000
v 0.21654676 -0.50709147 1.00000000
v 0.21654676 -0.36423433 -1.00000000
v 0.21654676 -0.36423433 1.00000000
v 0.21654676 -0.22137718 -1.00000000
v 0.21654676 -0.22137718 1.00000000
v 0.21654676 -0.07852004 -1.00000000
v 0.21654676 -0.07852004 1.00000000
v 0.21654676 0.06433710 -1.00000000
v 0.21654676 0.06433710 1.00000000
v 0.21654676 0.20719424 -1.00000000
v 0.21654676 0.20719424 1.00000000
v 0.21654676 0.35005139 -1.00000000
v 0.21654676 0.35005139 1.00000000
v 0.21654676 0.49290853 -1.00000000
v 0.21654676 0.49290853 1.00000000
v 0.21654676 0.63576567 -1.00000000
v 0.21654676 0.63576567 1.00000000
v 0.21654676 0.77862282 -1.00000000
v 0.14511819 0.77862282 0.92857143
v 0.21654676 0.70719424 0.92857143
v 0.21654676 0.77862282 0.85714286
v 0.21654676 0.85005139 -0.92857143
v 0.21654676 0.92147996 -0.85714286
v 0.21654676 0.92147996 0.85714286
v 0.21654676 0.99290853 -0.78571429
v 0.21654676 1.06433710 -0.71428571
v 0.21654676 0.99290853 0.78571429
v 0.21654676 1.06433710 0.71428571
v 0.21654676 1.13576567 -0.64285714
v 0.21654676 1.13576567 -0.50000000
v 0.21654676 1.20719424 -0.42857143
v 0.14511819 1.20719424 0.35714286
v 0.21654676 1.13576567 0.35714286
v 0.21654676 1.20719424 0.28571429
v 0.21654676 1.13576567 0.50000000
v 0.21654676 1.13576567 0.64285714
v 0.21654676 1.27862282 -0.35714286
v 0.21654676 1.27862282 -0.21428571
v 0.21654676 1.27862282 -0.07142857
v 0.21654676 1.27862282 0.07142857
v 0.21654676 1.27862282 0.21428571
v 0.35940391 -1.22137718 -0.28571429
v 0.35940391 -1.29280576 -0.21428571
v 0.35940391 -1.29280576 -0.07142857
v 0.35940391 -1.29280576 0.07142857
v 0.28797533 -1.22137718 0.21428571
v 0.35940391 -1.22137718 0.14285714
v 0.28797533 -1.07852004 -0.64285714
v 0.35940391 -1.07852004 -0.57142857
v 0.35940391 -1.14994861 -0.50000000
v 0.35940391 -1.14994861 -0.35714286
v 0.35940391 -1.14994861 0.21428571
v 0.35940391 -1.14994861 0.35714286
v 0.35940391 -1.14994861 0.50000000
v 0.28797533 -1.07852004 0.64285714
v 0.35940391 -1.07852004 0.57142857
v 0.28797533 -0.93566290 -0.78571429
v 0.35940391 -0.93566290 -0.71428571
v 0.35940391 -1.00709147 -0.64285714
v 0.35940391 -1.00709147 0.64285714
v 0.28797533 -0.93566290 0.78571429
v 0.35940391 -0.93566290 0.71428571
v 0.35940391 -0.79280576 -0.85714286
v 0.35940391 -0.86423433 -0.78571429
v 0.35940391 -0.86423433 0.78571429
v 0.35940391 -0.79280576 0.85714286
v 0.35940391 -0.64994861 -1.00000000
v 0.35940391 -0.72137718 -0.92857143
v 0.35940391 -0.72137718 0.92857143
v 0.35940391 -0.64994861 1.00000000
v 0.35940391 -0.50709147 -1.00000000
v 0.35940391 -0.50709147 1.00000000
v 0.35940391 -0.36423433 -1.00000000
v 0.35940391 -0.36423433 1.00000000
v 0.35940391 -0.22137718 -1.00000000
v 0.35940391 -0.22137718 1.00000000
v 0.35940391 -0.07852004 -1.00000000
v 0.35940391 -0.07852004 1.00000000
v 0.35940391 0.06433710 -1.00000000
v 0.35940391 0.06433710 1.00000000
v 0.35940391 0.20719424 -1.00000000
v 0.35940391 0.20719424 1.00000000
v 0.35940391 0.35005139 -1.00000000
v 0.35940391 0.35005139 1.00000000
v 0.35940391 0.49290853 -1.00000000
v 0.35940391 0.49290853 1.00000000
v 0.35940391 0.63576567 -1.00000000
v 0.35940391 0.63576567 1.00000000
v 0.35940391 0.77862282 -1.00000000
v 0.35940391 0.70719424 0.92857143
v 0.35940391 0.77862282 0.85714286
v 0.35940391 0.85005139 -0.92857143
v 0.35940391 0.92147996 -0.85714286
v 0.28797533 0.92147996 0.78571429
v 0.35940391 0.85005139 0.78571429
v 0.35940391 0.92147996 0.71428571
v 0.35940391 0.99290853 -0.78571429
v 0.28797533 1.06433710 -0.64285714
v 0.35940391 0.99290853 -0.64285714
v 0.35940391 1.06433710 -0.57142857
v 0.28797533 1.06433710 0.50000000
v 0.35940391 0.99290853 0.50000000
v 0.35940391 1.06433710 0.42857143
v 0.28797533 1.06433710 0.64285714
v 0.35940391 0.99290853 0.64285714
v 0.35940391 1.13576567 -0.50000000
v 0.28797533 1.20719424 -0.35714286
v 0.35940391 1.13576567 -0.35714286
v 0.35940391 1.20719424 -0.28571429
v 0.35940391 1.13576567 0.35714286
v 0.35940391 1.20719424 0.28571429
v 0.35940391 1.27862282 -0.21428571
v 0.35940391 1.27862282 -0.07142857
v 0.35940391 1.27862282 0.07142857
v 0.35940391 1.27862282 0.21428571
v 0.43083248 -1.22137718 -0.21428571
v 0.43083248 -1.22137718 -0.07142857
v 0.43083248 -1.22137718 0.07142857
v 0.50226105 -1.07852004 -0.57142857
v 0.50226105 -1.14994861 -0.50000000
v 0.50226105 -1.14994861 -0.35714286
v 0.50226105 -1.14994861 -0.21428571
v 0.50226105 -1.14994861 -0.07142857
v 0.50226105 -1.14994861 0.07142857
v 0.50226105 -1.14994861 0.21428571
v 0.50226105 -1.14994861 0.35714286
v 0.50226105 -1.14994861 0.50000000
v 0.50226105 -1.07852004 0.57142857
v 0.50226105 -0.93566290 -0.71428571
v 0.50226105 -1.00709147 -0.64285714
v 0.50226105 -1.00709147 0.64285714
v 0.50226105 -0.93566290 0.71428571
v 0.50226105 -0.79280576 -0.85714286
v 0.50226105 -0.86423433 -0.78571429
v 0.50226105 -0.86423433 0.78571429
v 0.50226105 -0.79280576 0.85714286
v 0.43083248 -0.64994861 -0.92857143
v 0.50226105 -0.64994861 -0.85714286
v 0.43083248 -0.64994861 0.92857143
v 0.50226105 -0.64994861 0.85714286
v 0.50226105 -0.50709147 -1.00000000
v 0.50226105 -0.57852004 -0.92857143
v 0.50226105 -0.57852004 0.92857143
v 0.50226105 -0.50709147 1.00000000
v 0.50226105 -0.36423433 -1.00000000
v 0.50226105 -0.36423433 1.00000000
v 0.50226105 -0.22137718 -1.00000000
v 0.50226105 -0.22137718 1.00000000
v 0.50226105 -0.07852004 -1.00000000
v 0.50226105 -0.07852004 1.00000000
v 0.50226105 0.06433710 -1.00000000
v 0.50226105 0.06433710 1.00000000
v 0.50226105 0.20719424 -1.00000000
v 0.50226105 0.20719424 1.00000000
v 0.50226105 0.35005139 -1.00000000
v 0.50226105 0.35005139 1.00000000
v 0.50226105 0.49290853 -1.00000000
v 0.50226105 0.49290853 1.00000000
v 0.50226105 0.63576567 -1.00000000
v 0.50226105 0.63576567 1.00000000
v 0.50226105 0.70719424 -0.92857143
v 0.43083248 0.77862282 -0.92857143
v 0.50226105 0.77862282 -0.85714286
v 0.50226105 0.70719424 0.92857143
v 0.50226105 0.77862282 0.85714286
v 0.43083248 0.92147996 -0.78571429
v 0.50226105 0.85005139 -0.78571429
v 0.50226105 0.92147996 -0.71428571
v 0.50226105 0.85005139 0.78571429
v 0.50226105 0.92147996 0.71428571
v 0.50226105 0.99290853 -0.64285714
v 0.50226105 1.06433710 -0.57142857
v 0.50226105 0.99290853 0.50000000
v 0.50226105 1.06433710 0.42857143
v 0.50226105 0.99290853 0.64285714
v 0.50226105 1.13576567 -0.50000000
v 0.50226105 1.13576567 -0.35714286
v 0.43083248 1.20719424 -0.21428571
v 0.50226105 1.13576567 -0.21428571
v 0.43083248 1.20719424 -0.07142857
v 0.50226105 1.13576567 -0.07142857
v 0.43083248 1.20719424 0.07142857
v 0.50226105 1.13576567 0.07142857
v 0.43083248 1.20719424 0.21428571
v 0.50226105 1.13576567 0.21428571
v 0.50226105 1.13576567 0.35714286
v 0.57368962 -1.07852004 -0.50000000
v 0.57368962 -1.07852004 -0.35714286
v 0.64511819 -1.07852004 -0.28571429
v 0.64511819 -1.14994861 -0.21428571
v 0.64511819 -1.14994861 -0.07142857
v 0.64511819 -1.14994861 0.07142857
v 0.64511819 -1.14994861 0.21428571
v 0.57368962 -1.07852004 0.35714286
v 0.64511819 -1.07852004 0.28571429
v 0.57368962 -1.07852004 0.50000000
v 0.57368962 -0.93566290 -0.64285714
v 0.64511819 -0.93566290 -0.57142857
v 0.64511819 -1.00709147 -0.50000000
v 0.64511819 -1.00709147 -0.35714286
v 0.64511819 -1.00709147 0.35714286
v 0.64511819 -1.00709147 0.50000000
v 0.57368962 -0.93566290 0.64285714
v 0.64511819 -0.93566290 0.57142857
v 0.57368962 -0.79280576 -0.78571429
v 0.64511819 -0.79280576 -0.71428571
v 0.64511819 -0.86423433 -0.64285714
v 0.64511819 -0.86423433 0.64285714
v 0.57368962 -0.79280576 0.78571429
v 0.64511819 -0.79280576 0.71428571
v 0.64511819 -0.64994861 -0.85714286
v 0.64511819 -0.72137718 -0.78571429
v 0.64511819 -0.72137718 0.78571429
v 0.64511819 -0.64994861 0.85714286
v 0.57368962 -0.50709147 -0.92857143
v 0.64511819 -0.50709147 -0.85714286
v 0.57368962 -0.50709147 0.92857143
v 0.64511819 -0.50709147 0.85714286
v 0.64511819 -0.36423433 -1.00000000
v 0.64511819 -0.43566290 -0.92857143
v 0.64511819 -0.43566290 0.92857143
v 0.64511819 -0.36423433 1.00000000
v 0.64511819 -0.22137718 -1.00000000
v 0.64511819 -0.22137718 1.00000000
v 0.64511819 -0.07852004 -1.00000000
v 0.64511819 -0.07852004 1.00000000
v 0.64511819 0.06433710 -1.00000000
v 0.64511819 0.06433710 1.00000000
v 0.64511819 0.20719424 -1.00000000
v 0.64511819 0.20719424 1.00000000
v 0.64511819 0.35005139 -1.00000000
v 0.64511819 0.35005139 1.00000000
v 0.64511819 0.49290853 -1.00000000
v 0.64511819 0.49290853 1.00000000
v 0.64511819 0.56433710 -0.92857143
v 0.57368962 0.63576567 -0.92857143
v 0.64511819 0.63576567 -0.85714286
v 0.57368962 0.63576567 0.92857143
v 0.64511819 0.56433710 0.92857143
v 0.64511819 0.63576567 0.85714286
v 0.64511819 0.77862282 -0.85714286
v 0.57368962 0.77862282 0.78571429
v 0.64511819 0.70719424 0.78571429
v 0.64511819 0.77862282 0.71428571
v 0.64511819 0.85005139 -0.78571429
v 0.57368962 0.92147996 -0.64285714
v 0.64511819 0.85005139 -0.64285714
v 0.64511819 0.92147996 -0.57142857
v 0.57368962 0.92147996 0.64285714
v 0.64511819 0.85005139 0.64285714
v 0.64511819 0.92147996 0.57142857
v 0.57368962 1.06433710 -0.50000000
v 0.64511819 0.99290853 -0.50000000
v 0.64511819 1.06433710 -0.42857143
v 0.57368962 1.06433710 0.35714286
v 0.64511819 0.99290853 0.35714286
v 0.64511819 1.06433710 0.28571429
v 0.64511819 0.99290853 0.50000000
v 0.64511819 1.13576567 -0.35714286
v 0.64511819 1.13576567 -0.21428571
v 0.64511819 1.13576567 -0.07142857
v 0.64511819 1.13576567 0.07142857
v 0.64511819 1.13576567 0.21428571
v 0.71654676 -1.07852004 -0.21428571
v 0.71654676 -1.07852004 -0.07142857
v 0.71654676 -1.07852004 0.07142857
v 0.71654676 -1.07852004 0.21428571
v 0.71654676 -0.93566290 -0.50000000
v 0.78797533 -0.93566290 -0.42857143
v 0.78797533 -1.00709147 -0.35714286
v 0.78797533 -1.00709147 -0.21428571
v 0.78797533 -1.00709147 -0.07142857
v 0.78797533 -1.00709147 0.07142857
v 0.78797533 -1.00709147 0.21428571
v 0.71654676 -0.93566290 0.35714286
v 0.78797533 -0.93566290 0.28571429
v 0.71654676 -0.93566290 0.50000000
v 0.71654676 -0.79280576 -0.64285714
v 0.78797533 -0.79280576 -0.57142857
v 0.78797533 -0.86423433 -0.50000000
v 0.78797533 -0.86423433 0.35714286
v 0.78797533 -0.86423433 0.50000000
v 0.71654676 -0.79280576 0.64285714
v 0.78797533 -0.79280576 0.57142857
v 0.71654676 -0.64994861 -0.78571429
v 0.78797533 -0.64994861 -0.71428571
v 0.78797533 -0.72137718 -0.64285714
v 0.78797533 -0.72137718 0.64285714
v 0.71654676 -0.64994861 0.78571429
v 0.78797533 -0.64994861 0.71428571
v 0.78797533 -0.50709147 -0.85714286
v 0.78797533 -0.57852004 -0.78571429
v 0.78797533 -0.57852004 0.78571429
v 0.78797533 -0.50709147 0.85714286
v 0.71654676 -0.36423433 -0.92857143
v 0.78797533 -0.36423433 -0.85714286
v 0.71654676 -0.36423433 0.92857143
v 0.78797533 -0.36423433 0.85714286
v 0.71654676 -0.22137718 -0.92857143
v 0.78797533 -0.22137718 -0.85714286
v 0.71654676 -0.22137718 0.92857143
v 0.78797533 -0.22137718 0.85714286
v 0.71654676 -0.07852004 -0.92857143
v 0.78797533 -0.07852004 -0.85714286
v 0.78797533 -0.14994861 0.92857143
v 0.78797533 -0.07852004 1.00000000
v 0.71654676 0.06433710 -0.92857143
v 0.78797533 0.06433710 -0.85714286
v 0.78797533 0.06433710 1.00000000
v 0.71654676 0.20719424 -0.92857143
v 0.78797533 0.20719424 -0.85714286
v 0.78797533 0.20719424 1.00000000
v 0.71654676 0.35005139 -0.92857143
v 0.78797533 0.35005139 -0.85714286
v 0.78797533 0.35005139 1.00000000
v 0.71654676 0.49290853 -0.92857143
v 0.78797533 0.49290853 -0.85714286
v 0.78797533 0.49290853 1.00000000
v 0.78797533 0.63576567 -0.85714286
v 0.71654676 0.63576567 0.78571429
v 0.78797533 0.56433710 0.78571429
v 0.78797533 0.63576567 0.71428571
v 0.78797533 0.56433710 0.92857143
v 0.78797533 0.70719424 -0.78571429
v 0.71654676 0.77862282 -0.78571429
v 0.71654676 0.77862282 -0.64285714
v 0.78797533 0.70719424 -0.64285714
v 0.78797533 0.77862282 -0.57142857
v 0.78797533 0.77862282 0.71428571
v 0.71654676 0.92147996 -0.50000000
v 0.78797533 0.85005139 -0.50000000
v 0.78797533 0.92147996 -0.42857143
v 0.71654676 0.92147996 0.35714286
v 0.78797533 0.85005139 0.35714286
v 0.78797533 0.92147996 0.28571429
v 0.71654676 0.92147996 0.50000000
v 0.78797533 0.85005139 0.50000000
v 0.78797533 0.85005139 0.64285714
v 0.71654676 1.06433710 -0.35714286
v 0.78797533 0.99290853 -0.35714286
v 0.71654676 1.06433710 -0.21428571
v 0.78797533 0.99290853 -0.21428571
v 0.71654676 1.06433710 -0.07142857
v 0.78797533 0.99290853 -0.07142857
v 0.71654676 1.06433710 0.07142857
v 0.78797533 0.99290853 0.07142857
v 0.71654676 1.06433710 0.21428571
v 0.78797533 0.99290853 0.21428571
v 0.85940391 -0.93566290 -0.35714286
v 0.85940391 -0.93566290 -0.21428571
v 0.85940391 -0.93566290 -0.07142857
v 0.85940391 -0.93566290 0.07142857
v 0.85940391 -0.93566290 0.21428571
v 0.85940391 -0.79280576 -0.50000000
v 0.93083248 -0.79280576 -0.42857143
v 0.93083248 -0.86423433 -0.35714286
v 0.93083248 -0.86423433 -0.21428571
v 0.93083248 -0.86423433 -0.07142857
v 0.93083248 -0.86423433 0.07142857
v 0.93083248 -0.86423433 0.21428571
v 0.85940391 -0.79280576 0.35714286
v 0.93083248 -0.79280576 0.28571429
v 0.85940391 -0.79280576 0.50000000
v 0.85940391 -0.64994861 -0.64285714
v 0.93083248 -0.64994861 -0.57142857
v 0.93083248 -0.72137718 -0.50000000
v 0.93083248 -0.72137718 0.35714286
v 0.93083248 -0.72137718 0.50000000
v 0.85940391 -0.64994861 0.64285714
v 0.93083248 -0.64994861 0.57142857
v 0.85940391 -0.50709147 -0.78571429
v 0.93083248 -0.50709147 -0.71428571
v 0.93083248 -0.57852004 -0.64285714
v 0.93083248 -0.57852004 0.64285714
v 0.85940391 -0.50709147 0.78571429
v 0.93083248 -0.50709147 0.71428571
v 0.85940391 -0.36423433 -0.78571429
v 0.93083248 -0.36423433 -0.71428571
v 0.85940391 -0.36423433 0.78571429
v 0.93083248 -0.36423433 0.71428571
v 0.93083248 -0.22137718 -0.85714286
v 0.93083248 -0.29280576 -0.78571429
v 0.93083248 -0.29280576 0.78571429
v 0.93083248 -0.22137718 0.85714286
v 0.93083248 -0.07852004 -0.85714286
v 0.85940391 -0.07852004 0.92857143
v 0.93083248 -0.07852004 0.85714286
v 0.93083248 0.06433710 -0.85714286
v 0.85940391 0.06433710 0.92857143
v 0.93083248 0.06433710 0.85714286
v 0.93083248 0.20719424 -0.85714286
v 0.85940391 0.20719424 0.92857143
v 0.93083248 0.20719424 0.85714286
v 0.93083248 0.35005139 -0.85714286
v 0.85940391 0.35005139 0.78571429
v 0.93083248 0.27862282 0.78571429
v 0.93083248 0.35005139 0.71428571
v 0.85940391 0.35005139 0.92857143
v 0.93083248 0.42147996 -0.78571429
v 0.85940391 0.49290853 -0.78571429
v 0.93083248 0.49290853 -0.71428571
v 0.85940391 0.49290853 0.78571429
v 0.93083248 0.49290853 0.71428571
v 0.85940391 0.49290853 0.92857143
v 0.85940391 0.63576567 -0.78571429
v 0.93083248 0.56433710 -0.64285714
v 0.85940391 0.63576567 -0.64285714
v 0.93083248 0.63576567 -0.57142857
v 0.93083248 0.63576567 0.71428571
v 0.85940391 0.77862282 -0.50000000
v 0.93083248 0.70719424 -0.50000000
v 0.93083248 0.77862282 -0.42857143
v 0.93083248 0.77862282 0.71428571
v 0.85940391 0.92147996 -0.35714286
v 0.93083248 0.85005139 -0.35714286
v 0.85940391 0.92147996 -0.21428571
v 0.93083248 0.85005139 -0.21428571
v 0.85940391 0.92147996 -0.07142857
v 0.93083248 0.85005139 -0.07142857
v 0.85940391 0.92147996 0.07142857
v 0.93083248 0.85005139 0.07142857
v 0.85940391 0.92147996 0.21428571
v 0.93083248 0.85005139 0.21428571
v 0.93083248 0.85005139 0.35714286
v 0.93083248 0.85005139 0.50000000
v 0.93083248 0.85005139 0.64285714
v 1.00226105 -0.79280576 -0.35714286
v 1.00226105 -0.79280576 -0.21428571
v 1.00226105 -0.79280576 -0.07142857
v 1.00226105 -0.79280576 0.07142857
v 1.00226105 -0.79280576 0.21428571
v 1.00226105 -0.64994861 -0.50000000
v 1.00226105 -0.64994861 -0.35714286
v 1.07368962 -0.64994861 -0.28571429
v 1.07368962 -0.72137718 -0.21428571
v 1.07368962 -0.72137718 -0.07142857
v 1.07368962 -0.72137718 0.07142857
v 1.07368962 -0.64994861 0.14285714
v 1.00226105 -0.64994861 0.21428571
v 1.00226105 -0.64994861 0.35714286
v 1.00226105 -0.64994861 0.50000000
v 1.00226105 -0.50709147 -0.64285714
v 1.07368962 -0.50709147 -0.57142857
v 1.07368962 -0.57852004 -0.50000000
v 1.07368962 -0.57852004 -0.35714286
v 1.07368962 -0.57852004 0.21428571
v 1.07368962 -0.50709147 0.28571429
v 1.00226105 -0.50709147 0.35714286
v 1.00226105 -0.50709147 0.50000000
v 1.00226105 -0.50709147 0.64285714
v 1.00226105 -0.36423433 -0.64285714
v 1.07368962 -0.36423433 -0.57142857
v 1.07368962 -0.43566290 0.35714286
v 1.07368962 -0.43566290 0.50000000
v 1.07368962 -0.36423433 0.57142857
v 1.00226105 -0.36423433 0.64285714
v 1.00226105 -0.22137718 -0.78571429
v 1.07368962 -0.22137718 -0.71428571
v 1.07368962 -0.29280576 -0.64285714
v 1.00226105 -0.22137718 0.64285714
v 1.07368962 -0.22137718 0.57142857
v 1.00226105 -0.22137718 0.78571429
v 1.00226105 -0.07852004 -0.78571429
v 1.07368962 -0.07852004 -0.71428571
v 1.00226105 -0.07852004 0.64285714
v 1.07368962 -0.07852004 0.57142857
v 1.00226105 -0.07852004 0.78571429
v 1.00226105 0.06433710 -0.78571429
v 1.07368962 0.06433710 -0.71428571
v 1.00226105 0.06433710 0.64285714
v 1.07368962 0.06433710 0.57142857
v 1.00226105 0.06433710 0.78571429
v 1.00226105 0.20719424 -0.78571429
v 1.07368962 0.20719424 -0.71428571
v 1.00226105 0.20719424 0.64285714
v 1.07368962 0.20719424 0.57142857
v 1.00226105 0.20719424 0.78571429
v 1.00226105 0.35005139 -0.78571429
v 1.07368962 0.27862282 -0.64285714
v 1.00226105 0.35005139 -0.64285714
v 1.07368962 0.35005139 -0.57142857
v 1.00226105 0.35005139 0.64285714
v 1.07368962 0.35005139 0.57142857
v 1.00226105 0.49290853 -0.64285714
v 1.07368962 0.49290853 -0.57142857
v 1.00226105 0.49290853 0.64285714
v 1.07368962 0.49290853 0.57142857
v 1.00226105 0.63576567 -0.50000000
v 1.07368962 0.56433710 -0.50000000
v 1.00226105 0.63576567 -0.35714286
v 1.07368962 0.56433710 -0.35714286
v 1.07368962 0.63576567 -0.28571429
v 1.00226105 0.63576567 0.50000000
v 1.07368962 0.56433710 0.50000000
v 1.07368962 0.63576567 0.42857143
v 1.00226105 0.63576567 0.64285714
v 1.00226105 0.77862282 -0.35714286
v 1.07368962 0.70719424 -0.21428571
v 1.00226105 0.77862282 -0.21428571
v 1.00226105 0.77862282 -0.07142857
v 1.07368962 0.70719424 -0.07142857
v 1.00226105 0.77862282 0.07142857
v 1.07368962 0.70719424 0.07142857
v 1.00226105 0.77862282 0.21428571
v 1.07368962 0.70719424 0.21428571
v 1.00226105 0.77862282 0.35714286
v 1.07368962 0.70719424 0.35714286
v 1.00226105 0.77862282 0.50000000
v 1.00226105 0.77862282 0.64285714
v 1.14511819 -0.64994861 -0.21428571
v 1.14511819 -0.64994861 -0.07142857
v 1.14511819 -0.64994861 0.07142857
v 1.14511819 -0.50709147 -0.50000000
v 1.14511819 -0.50709147 -0.35714286
v 1.14511819 -0.50709147 -0.21428571
v 1.14511819 -0.50709147 -0.07142857
v 1.14511819 -0.50709147 0.07142857
v 1.14511819 -0.50709147 0.21428571
v 1.14511819 -0.36423433 -0.50000000
v 1.14511819 -0.36423433 -0.35714286
v 1.21654676 -0.36423433 -0.28571429
v 1.21654676 -0.43566290 -0.21428571
v 1.21654676 -0.43566290 -0.07142857
v 1.21654676 -0.43566290 0.07142857
v 1.21654676 -0.36423433 0.14285714
v 1.14511819 -0.36423433 0.21428571
v 1.14511819 -0.36423433 0.35714286
v 1.14511819 -0.36423433 0.50000000
v 1.14511819 -0.22137718 -0.64285714
v 1.14511819 -0.22137718 -0.50000000
v 1.14511819 -0.22137718 -0.35714286
v 1.21654676 -0.22137718 -0.28571429
v 1.21654676 -0.29280576 0.21428571
v 1.21654676 -0.22137718 0.28571429
v 1.14511819 -0.22137718 0.35714286
v 1.14511819 -0.22137718 0.50000000
v 1.14511819 -0.07852004 -0.64285714
v 1.14511819 -0.07852004 -0.50000000
v 1.21654676 -0.07852004 -0.42857143
v 1.21654676 -0.14994861 -0.35714286
v 1.14511819 -0.07852004 0.35714286
v 1.21654676 -0.07852004 0.28571429
v 1.14511819 -0.07852004 0.50000000
v 1.14511819 0.06433710 -0.64285714
v 1.14511819 0.06433710 -0.50000000
v 1.21654676 -0.00709147 -0.35714286
v 1.14511819 0.06433710 -0.35714286
v 1.21654676 0.06433710 -0.28571429
v 1.14511819 0.06433710 0.35714286
v 1.21654676 0.06433710 0.28571429
v 1.14511819 0.06433710 0.50000000
v 1.14511819 0.20719424 -0.64285714
v 1.14511819 0.20719424 -0.50000000
v 1.14511819 0.20719424 -0.35714286
v 1.21654676 0.20719424 -0.28571429
v 1.14511819 0.20719424 0.35714286
v 1.21654676 0.20719424 0.28571429
v 1.14511819 0.20719424 0.50000000
v 1.14511819 0.35005139 -0.50000000
v 1.14511819 0.35005139 -0.35714286
v 1.21654676 0.35005139 -0.28571429
v 1.14511819 0.35005139 0.35714286
v 1.21654676 0.35005139 0.28571429
v 1.14511819 0.35005139 0.50000000
v 1.14511819 0.49290853 -0.50000000
v 1.14511819 0.49290853 -0.35714286
v 1.21654676 0.42147996 -0.21428571
v 1.14511819 0.49290853 -0.21428571
v 1.14511819 0.49290853 -0.07142857
v 1.21654676 0.42147996 -0.07142857
v 1.14511819 0.49290853 0.07142857
v 1.21654676 0.42147996 0.07142857
v 1.14511819 0.49290853 0.21428571
v 1.21654676 0.42147996 0.21428571
v 1.14511819 0.49290853 0.35714286
v 1.14511819 0.49290853 0.50000000
v 1.14511819 0.63576567 -0.21428571
v 1.14511819 0.63576567 -0.07142857
v 1.14511819 0.63576567 0.07142857
v 1.14511819 0.63576567 0.21428571
v 1.14511819 0.63576567 0.35714286
v 1.28797533 -0.36423433 -0.21428571
v 1.28797533 -0.36423433 -0.07142857
v 1.28797533 -0.36423433 0.07142857
v 1.28797533 -0.22137718 -0.21428571
v 1.28797533 -0.22137718 -0.07142857
v 1.28797533 -0.22137718 0.07142857
v 1.28797533 -0.22137718 0.21428571
v 1.28797533 -0.07852004 -0.35714286
v 1.28797533 -0.07852004 -0.21428571
v 1.28797533 -0.07852004 -0.07142857
v 1.28797533 -0.07852004 0.07142857
v 1.28797533 -0.07852004 0.21428571
v 1.28797533 0.06433710 -0.21428571
v 1.28797533 0.06433710 -0.07142857
v 1.28797533 0.06433710 0.07142857
v 1.28797533 0.06433710 0.21428571
v 1.28797533 0.20719424 -0.21428571
v 1.28797533 0.20719424 -0.07142857
v 1.28797533 0.20719424 0.07142857
v 1.28797533 0.20719424 0.21428571
v 1.28797533 0.35005139 -0.21428571
v 1.28797533 0.35005139 -0.07142857
v 1.28797533 0.35005139 0.07142857
v 1.28797533 0.35005139 0.21428571
f 3 2 1
f 5 4 1
f 1 4 3
f 7 6 5
f 5 6 4
f 9 8 7
f 7 8 6
f 11 10 9
f 9 10 8
f 11 12 10
f 1 2 13
f 13 2 14
f 1 15 5
f 1 13 15
f 5 16 7
f 5 15 16
f 7 17 9
f 7 16 17
f 9 18 11
f 9 17 18
f 12 11 19
f 19 11 18
f 13 14 20
f 20 14 21
f 13 22 15
f 13 20 22
f 15 23 16
f 15 22 23
f 16 24 17
f 16 23 24
f 17 25 18
f 17 24 25
f 19 18 26
f 26 18 25
f 20 21 27
f 27 21 28
f 20 29 22
f 20 27 29
f 22 30 23
f 22 29 30
f 23 31 24
f 23 30 31
f 24 32 25
f 24 31 32
f 26 25 33
f 33 25 32
f 27 28 34
f 34 28 35
f 27 36 29
f 27 34 36
f 29 37 30
f 29 36 37
f 30 38 31
f 30 37 38
f 31 39 32
f 31 38 39
f 33 32 40
f 40 32 39
f 34 35 41
f 41 35 42
f 34 43 36
f 34 41 43
f 36 44 37
f 36 43 44
f 37 45 38
f 37 44 45
f 38 46 39
f 38 45 46
f 40 39 47
f 47 39 46
f 42 48 41
f 41 48 43
f 43 48 49
f 43 49 44
f 44 49 50
f 44 50 45
f 45 50 51
f 45 51 46
f 46 51 52
f 46 52 47
f 55 54 53
f 57 56 53
f 53 56 55
f 59 58 57
f 57 58 56
f 61 60 59
f 59 60 58
f 63 62 61
f 61 62 60
f 65 64 63
f 63 64 62
f 65 66 64
f 69 68 67
f 69 67 54
f 67 53 54
f 67 70 53
f 53 71 57
f 53 70 71
f 57 72 59
f 57 71 72
f 59 73 61
f 59 72 73
f 61 74 63
f 61 73 74
f 63 75 65
f 63 74 75
f 66 65 76
f 65 77 76
f 65 75 77
f 77 78 76
f 67 68 79
f 79 68 80
f 79 2 3
f 70 79 3
f 67 79 70
f 70 3 4
f 70 4 71
f 71 4 6
f 71 6 72
f 72 6 8
f 72 8 73
f 73 8 10
f 73 10 74
f 74 10 12
f 81 74 12
f 75 74 81
f 75 82 77
f 75 81 82
f 78 77 83
f 77 84 83
f 77 82 84
f 84 85 83
f 88 87 86
f 88 86 80
f 86 79 80
f 86 89 79
f 89 14 2
f 89 2 79
f 19 90 81
f 19 81 12
f 81 91 82
f 81 90 91
f 82 92 84
f 82 91 92
f 85 84 93
f 93 84 92
f 86 87 94
f 94 87 95
f 86 96 89
f 86 94 96
f 96 21 14
f 96 14 89
f 26 97 90
f 26 90 19
f 90 98 91
f 90 97 98
f 91 99 92
f 91 98 99
f 93 92 100
f 100 92 99
f 94 95 101
f 101 95 102
f 94 103 96
f 94 101 103
f 103 28 21
f 103 21 96
f 33 104 97
f 33 97 26
f 97 105 98
f 97 104 105
f 98 106 99
f 98 105 106
f 100 99 107
f 107 99 106
f 101 102 108
f 108 102 109
f 101 110 103
f 101 108 110
f 110 35 28
f 110 28 103
f 40 111 104
f 40 104 33
f 104 112 105
f 104 111 112
f 105 113 106
f 105 112 113
f 107 106 114
f 114 106 113
f 108 109 115
f 115 109 116
f 108 117 110
f 108 115 117
f 117 42 35
f 117 35 110
f 47 118 111
f 47 111 40
f 111 119 112
f 111 118 119
f 121 113 120
f 113 119 120
f 113 112 119
f 113 121 114
f 116 122 115
f 124 123 122
f 123 115 122
f 123 117 115
f 125 48 42
f 117 125 42
f 123 125 117
f 126 49 48
f 126 48 125
f 127 50 49
f 127 49 126
f 128 51 50
f 128 50 127
f 129 52 51
f 129 51 128
f 118 47 52
f 129 118 52
f 130 118 129
f 118 131 119
f 118 130 131
f 120 119 132
f 132 119 131
f 124 133 123
f 135 134 133
f 134 123 133
f 134 125 123
f 125 136 126
f 125 134 136
f 126 137 127
f 126 136 137
f 127 138 128
f 127 137 138
f 128 139 129
f 128 138 139
f 129 140 130
f 129 139 140
f 142 131 141
f 131 140 141
f 131 130 140
f 131 142 132
f 135 143 134
f 134 143 136
f 136 143 144
f 136 144 137
f 137 144 145
f 137 145 138
f 138 145 146
f 138 146 139
f 139 146 147
f 139 147 140
f 140 147 148
f 140 148 141
f 151 150 149
f 153 152 149
f 149 152 151
f 155 154 153
f 153 154 152
f 157 156 155
f 155 156 154
f 159 158 157
f 157 158 156
f 161 160 159
f 159 160 158
f 163 162 161
f 161 162 160
f 163 164 162
f 149 150 165
f 165 150 166
f 165 54 55
f 153 165 55
f 149 165 153
f 153 55 56
f 153 56 155
f 155 56 58
f 155 58 157
f 157 58 60
f 157 60 159
f 159 60 62
f 159 62 161
f 161 62 64
f 161 64 163
f 168 167 66
f 66 167 64
f 167 164 64
f 164 163 64
f 168 169 167
f 172 171 170
f 172 170 166
f 166 170 165
f 170 68 165
f 68 69 165
f 165 69 54
f 76 168 66
f 174 173 78
f 78 173 76
f 173 169 76
f 169 168 76
f 174 175 173
f 178 177 176
f 178 176 171
f 176 170 171
f 176 179 170
f 179 80 68
f 179 68 170
f 83 174 78
f 83 85 174
f 85 175 174
f 85 180 175
f 176 177 181
f 181 177 182
f 181 87 88
f 179 181 88
f 176 181 179
f 179 88 80
f 93 184 183
f 180 93 183
f 85 93 180
f 184 185 183
f 181 182 186
f 186 182 187
f 186 95 87
f 186 87 181
f 100 188 184
f 100 184 93
f 185 184 189
f 189 184 188
f 186 187 190
f 190 187 191
f 190 102 95
f 190 95 186
f 107 192 188
f 107 188 100
f 189 188 193
f 193 188 192
f 190 191 194
f 194 191 195
f 194 109 102
f 194 102 190
f 114 196 192
f 114 192 107
f 193 192 197
f 197 192 196
f 194 195 198
f 198 195 199
f 198 116 109
f 198 109 194
f 120 200 121
f 200 201 121
f 121 201 114
f 201 202 114
f 202 196 114
f 196 202 197
f 199 203 198
f 203 205 204
f 203 204 122
f 198 203 122
f 116 198 122
f 204 124 122
f 132 206 200
f 132 200 120
f 201 200 207
f 207 200 206
f 205 208 204
f 208 210 209
f 208 209 133
f 204 208 133
f 124 204 133
f 209 135 133
f 141 211 142
f 211 212 142
f 142 212 132
f 212 213 132
f 213 206 132
f 206 213 207
f 209 210 214
f 214 210 215
f 216 143 135
f 209 216 135
f 214 216 209
f 217 144 143
f 217 143 216
f 218 145 144
f 218 144 217
f 219 146 145
f 219 145 218
f 220 147 146
f 220 146 219
f 221 148 147
f 221 147 220
f 221 222 148
f 148 222 141
f 222 223 141
f 223 211 141
f 211 223 212
f 215 224 214
f 214 224 216
f 216 224 225
f 216 225 217
f 217 225 226
f 217 226 218
f 218 226 227
f 218 227 219
f 219 227 228
f 219 228 220
f 220 228 229
f 220 229 221
f 221 229 230
f 221 230 222
f 233 232 231
f 235 234 231
f 231 234 233
f 237 236 235
f 235 236 234
f 239 238 237
f 237 238 236
f 241 240 239
f 239 240 238
f 243 242 241
f 241 242 240
f 245 244 243
f 243 244 242
f 245 246 244
f 249 248 247
f 249 247 232
f 232 247 231
f 247 150 231
f 150 151 231
f 231 151 152
f 231 152 235
f 235 152 154
f 235 154 237
f 237 154 156
f 237 156 239
f 239 156 158
f 239 158 241
f 241 158 160
f 241 160 243
f 243 160 162
f 243 162 245
f 251 250 164
f 164 250 162
f 250 246 162
f 246 245 162
f 251 252 250
f 247 248 253
f 253 248 254
f 253 166 150
f 253 150 247
f 167 251 164
f 256 255 169
f 169 255 167
f 255 252 167
f 252 251 167
f 256 257 255
f 260 259 258
f 260 258 254
f 254 258 253
f 258 171 253
f 171 172 253
f 253 172 166
f 173 256 169
f 262 261 175
f 175 261 173
f 261 257 173
f 257 256 173
f 262 263 261
f 258 259 178
f 259 177 178
f 259 264 177
f 258 178 171
f 180 265 262
f 180 262 175
f 263 262 266
f 266 262 265
f 264 182 177
f 267 182 264
f 183 265 180
f 183 185 265
f 185 266 265
f 185 268 266
f 267 187 182
f 269 187 267
f 189 268 185
f 189 270 268
f 269 191 187
f 271 191 269
f 193 270 189
f 193 272 270
f 271 195 191
f 273 195 271
f 197 272 193
f 197 274 272
f 273 199 195
f 275 199 273
f 201 276 202
f 276 277 202
f 277 197 202
f 277 274 197
f 203 199 278
f 199 279 278
f 199 275 279
f 278 205 203
f 207 280 276
f 207 276 201
f 277 276 281
f 281 276 280
f 279 282 278
f 282 284 283
f 282 283 208
f 278 282 208
f 205 278 208
f 283 210 208
f 212 285 213
f 285 286 213
f 213 286 207
f 286 287 207
f 287 280 207
f 280 287 281
f 283 284 288
f 288 284 289
f 288 215 210
f 288 210 283
f 222 290 223
f 290 291 223
f 223 291 212
f 291 292 212
f 292 285 212
f 285 292 286
f 289 293 288
f 288 293 215
f 293 224 215
f 293 294 224
f 294 296 295
f 225 294 295
f 224 294 225
f 297 226 225
f 297 225 295
f 298 227 226
f 298 226 297
f 299 228 227
f 299 227 298
f 300 229 228
f 300 228 299
f 301 230 229
f 301 229 300
f 301 302 230
f 230 302 222
f 302 303 222
f 303 290 222
f 290 303 291
f 296 304 295
f 295 304 297
f 297 304 305
f 297 305 298
f 298 305 306
f 298 306 299
f 299 306 307
f 299 307 300
f 300 307 308
f 300 308 301
f 301 308 309
f 301 309 302
f 312 311 310
f 314 313 310
f 310 313 312
f 316 315 314
f 314 315 313
f 318 317 316
f 316 317 315
f 320 319 318
f 318 319 317
f 322 321 320
f 320 321 319
f 322 323 321
f 326 325 324
f 232 233 324
f 233 326 324
f 233 327 326
f 234 310 311
f 327 234 311
f 233 234 327
f 310 234 236
f 310 236 314
f 314 236 238
f 314 238 316
f 316 238 240
f 316 240 318
f 318 240 242
f 318 242 320
f 320 242 244
f 320 244 322
f 329 328 246
f 246 328 244
f 328 323 244
f 323 322 244
f 329 330 328
f 324 325 249
f 325 248 249
f 325 331 248
f 324 249 232
f 250 329 246
f 333 332 252
f 252 332 250
f 332 330 250
f 330 329 250
f 333 334 332
f 337 336 335
f 331 337 335
f 254 331 335
f 248 331 254
f 255 333 252
f 339 338 257
f 257 338 255
f 338 334 255
f 334 333 255
f 339 340 338
f 335 336 260
f 336 259 260
f 336 341 259
f 335 260 254
f 261 339 257
f 261 263 339
f 263 340 339
f 263 342 340
f 345 344 343
f 341 345 343
f 264 341 343
f 259 341 264
f 266 347 346
f 342 266 346
f 263 266 342
f 347 348 346
f 343 344 349
f 349 344 350
f 349 267 264
f 349 264 343
f 268 351 347
f 268 347 266
f 348 347 352
f 352 347 351
f 349 350 353
f 353 350 354
f 353 269 267
f 353 267 349
f 270 355 351
f 270 351 268
f 352 351 356
f 356 351 355
f 353 354 357
f 357 354 358
f 357 271 269
f 357 269 353
f 272 359 355
f 272 355 270
f 356 355 360
f 360 355 359
f 357 358 361
f 361 358 362
f 361 273 271
f 361 271 357
f 274 363 359
f 274 359 272
f 360 359 364
f 364 359 363
f 361 362 365
f 365 362 366
f 365 275 273
f 365 273 361
f 277 367 363
f 277 363 274
f 364 363 368
f 368 363 367
f 366 369 365
f 275 365 369
f 370 275 369
f 279 275 370
f 372 371 367
f 277 372 367
f 281 372 277
f 367 371 368
f 282 279 373
f 279 374 373
f 279 370 374
f 373 284 282
f 286 375 287
f 375 376 287
f 376 281 287
f 376 372 281
f 374 377 373
f 284 373 377
f 378 284 377
f 289 284 378
f 291 379 292
f 379 380 292
f 292 380 286
f 380 381 286
f 381 375 286
f 375 381 376
f 378 382 289
f 289 382 293
f 382 384 383
f 294 382 383
f 293 382 294
f 383 296 294
f 302 385 303
f 385 386 303
f 303 386 291
f 386 387 291
f 387 379 291
f 379 387 380
f 384 388 383
f 388 390 389
f 388 389 304
f 383 388 304
f 296 383 304
f 391 305 304
f 391 304 389
f 392 306 305
f 392 305 391
f 393 307 306
f 393 306 392
f 394 308 307
f 394 307 393
f 308 394 395
f 396 308 395
f 309 308 396
f 302 309 385
f 309 397 385
f 309 396 397
f 385 397 386
f 390 398 389
f 389 398 391
f 391 398 399
f 391 399 392
f 392 399 400
f 392 400 393
f 393 400 401
f 393 401 394
f 394 401 402
f 394 402 395
f 405 404 403
f 311 312 403
f 312 405 403
f 312 406 405
f 407 312 313
f 407 406 312
f 408 313 315
f 408 407 313
f 409 315 317
f 409 408 315
f 410 317 319
f 410 409 317
f 411 319 321
f 411 410 319
f 321 323 411
f 411 323 412
f 414 413 326
f 326 413 325
f 327 403 404
f 414 327 404
f 326 327 414
f 403 327 311
f 415 412 323
f 415 323 328
f 417 416 330
f 416 328 330
f 416 415 328
f 417 418 416
f 421 420 419
f 413 421 419
f 331 413 419
f 325 413 331
f 332 417 330
f 423 422 334
f 334 422 332
f 422 418 332
f 418 417 332
f 423 424 422
f 419 420 337
f 420 336 337
f 420 425 336
f 419 337 331
f 338 423 334
f 338 340 423
f 340 424 423
f 340 426 424
f 429 428 427
f 425 429 427
f 341 425 427
f 336 425 341
f 342 431 430
f 426 342 430
f 340 342 426
f 431 432 430
f 427 428 345
f 428 344 345
f 428 433 344
f 427 345 341
f 346 431 342
f 346 348 431
f 348 432 431
f 348 434 432
f 433 350 344
f 435 350 433
f 352 434 348
f 352 436 434
f 435 354 350
f 437 354 435
f 356 436 352
f 356 438 436
f 437 358 354
f 439 358 437
f 360 438 356
f 360 440 438
f 439 362 358
f 441 362 439
f 364 440 360
f 364 442 440
f 441 366 362
f 443 366 441
f 368 442 364
f 368 444 442
f 369 366 445
f 366 446 445
f 366 443 446
f 445 370 369
f 372 447 371
f 447 448 371
f 448 368 371
f 448 444 368
f 445 446 449
f 449 446 450
f 449 374 370
f 449 370 445
f 452 451 447
f 372 452 447
f 376 452 372
f 447 451 448
f 450 453 449
f 453 455 454
f 453 454 377
f 449 453 377
f 374 449 377
f 454 378 377
f 380 456 381
f 456 457 381
f 457 376 381
f 457 452 376
f 455 458 454
f 458 460 459
f 458 459 382
f 454 458 382
f 378 454 382
f 459 384 382
f 462 461 387
f 462 387 386
f 380 387 456
f 387 463 456
f 387 461 463
f 456 463 457
f 460 464 459
f 464 466 465
f 464 465 388
f 459 464 388
f 384 459 388
f 465 390 388
f 395 467 396
f 468 397 396
f 468 396 467
f 468 469 397
f 469 386 397
f 469 462 386
f 466 470 465
f 465 470 390
f 470 398 390
f 470 471 398
f 398 472 399
f 471 472 398
f 399 473 400
f 472 473 399
f 400 474 401
f 473 474 400
f 401 475 402
f 474 475 401
f 395 402 467
f 402 476 467
f 402 475 476
f 467 476 468
f 468 476 477
f 468 477 469
f 480 479 478
f 482 481 478
f 478 481 480
f 484 483 482
f 482 483 481
f 486 485 484
f 484 485 483
f 488 487 486
f 486 487 485
f 488 489 487
f 491 490 405
f 405 490 404
f 406 478 479
f 491 406 479
f 405 406 491
f 478 406 407
f 478 407 482
f 482 407 408
f 482 408 484
f 484 408 409
f 484 409 486
f 486 409 410
f 486 410 488
f 492 489 488
f 410 492 488
f 411 492 410
f 494 493 412
f 493 411 412
f 493 492 411
f 494 495 493
f 497 496 414
f 414 496 413
f 414 404 490
f 414 490 497
f 415 494 412
f 498 495 494
f 415 498 494
f 416 498 415
f 416 418 498
f 498 418 499
f 501 500 421
f 421 500 420
f 421 413 496
f 421 496 501
f 502 499 418
f 502 418 422
f 422 424 502
f 502 424 503
f 506 505 504
f 500 506 504
f 425 500 504
f 420 500 425
f 426 508 507
f 503 426 507
f 424 426 503
f 508 509 507
f 504 505 429
f 505 428 429
f 505 510 428
f 504 429 425
f 430 508 426
f 430 432 508
f 432 509 508
f 432 511 509
f 510 433 428
f 512 433 510
f 434 511 432
f 434 513 511
f 512 435 433
f 514 435 512
f 436 513 434
f 436 515 513
f 514 437 435
f 516 437 514
f 438 515 436
f 438 517 515
f 516 439 437
f 518 439 516
f 440 517 438
f 440 519 517
f 518 441 439
f 520 441 518
f 442 519 440
f 442 521 519
f 520 443 441
f 522 443 520
f 444 521 442
f 444 523 521
f 522 446 443
f 524 446 522
f 448 523 444
f 448 525 523
f 524 450 446
f 526 450 524
f 452 527 451
f 527 528 451
f 528 448 451
f 528 525 448
f 526 529 450
f 450 529 453
f 455 453 529
f 455 529 530
f 532 531 527
f 452 532 527
f 457 532 452
f 527 531 528
f 458 455 533
f 455 534 533
f 455 530 534
f 533 460 458
f 462 535 461
f 461 535 536
f 537 461 536
f 463 461 537
f 457 463 532
f 532 463 537
f 534 538 533
f 533 538 460
f 538 464 460
f 538 539 464
f 466 464 539
f 466 539 540
f 542 541 535
f 462 542 535
f 469 542 462
f 535 541 536
f 540 543 466
f 466 543 470
f 543 545 544
f 471 543 544
f 470 543 471
f 546 472 471
f 546 471 544
f 547 473 472
f 547 472 546
f 548 474 473
f 548 473 547
f 549 475 474
f 549 474 548
f 475 549 550
f 551 475 550
f 476 475 551
f 476 552 477
f 551 552 476
f 469 477 542
f 542 477 552
f 545 553 544
f 544 553 546
f 546 553 554
f 546 554 547
f 547 554 555
f 547 555 548
f 548 555 556
f 548 556 549
f 549 556 557
f 549 557 550
f 559 558 480
f 480 558 479
f 560 480 481
f 560 559 480
f 561 481 483
f 561 560 481
f 562 483 485
f 562 561 483
f 563 485 487
f 563 562 485
f 487 489 563
f 563 489 564
f 566 565 491
f 491 565 490
f 491 479 558
f 491 558 566
f 567 564 489
f 567 489 492
f 568 492 493
f 568 567 492
f 570 569 495
f 569 493 495
f 569 568 493
f 570 571 569
f 574 573 572
f 496 497 572
f 497 574 572
f 497 575 574
f 497 490 565
f 497 565 575
f 498 570 495
f 577 576 499
f 499 576 498
f 576 571 498
f 571 570 498
f 577 578 576
f 572 573 501
f 573 500 501
f 573 579 500
f 572 501 496
f 502 577 499
f 502 503 577
f 503 578 577
f 503 580 578
f 582 581 506
f 506 581 505
f 506 500 579
f 506 579 582
f 583 580 503
f 583 503 507
f 507 509 583
f 583 509 584
f 581 510 505
f 585 510 581
f 511 584 509
f 511 586 584
f 585 512 510
f 587 512 585
f 513 586 511
f 513 588 586
f 587 514 512
f 589 514 587
f 515 588 513
f 515 590 588
f 589 516 514
f 591 516 589
f 517 590 515
f 517 592 590
f 591 518 516
f 593 518 591
f 519 592 517
f 519 594 592
f 593 520 518
f 595 520 593
f 521 594 519
f 521 596 594
f 595 522 520
f 597 522 595
f 523 596 521
f 523 598 596
f 597 524 522
f 599 524 597
f 525 598 523
f 525 600 598
f 599 526 524
f 601 526 599
f 528 600 525
f 528 602 600
f 529 526 603
f 526 604 603
f 526 601 604
f 603 530 529
f 606 605 531
f 606 531 532
f 528 531 602
f 602 531 605
f 604 607 603
f 530 603 607
f 608 530 607
f 534 530 608
f 536 609 537
f 609 610 537
f 610 532 537
f 610 606 532
f 608 611 534
f 534 611 538
f 611 613 612
f 539 611 612
f 538 611 539
f 612 540 539
f 542 614 541
f 614 615 541
f 541 615 536
f 615 616 536
f 616 609 536
f 609 616 610
f 613 617 612
f 612 617 540
f 617 543 540
f 617 618 543
f 545 543 618
f 545 618 619
f 621 620 551
f 621 551 550
f 551 622 552
f 620 622 551
f 542 552 614
f 552 623 614
f 552 622 623
f 614 623 615
f 619 624 545
f 545 624 553
f 553 625 554
f 624 625 553
f 554 626 555
f 625 626 554
f 555 627 556
f 626 627 555
f 556 628 557
f 627 628 556
f 550 557 621
f 621 557 628
f 630 629 559
f 559 629 558
f 631 559 560
f 631 630 559
f 632 560 561
f 632 631 560
f 633 561 562
f 633 632 561
f 634 562 563
f 634 633 562
f 563 564 634
f 634 564 635
f 638 637 636
f 565 566 636
f 566 638 636
f 566 639 638
f 566 558 629
f 566 629 639
f 640 635 564
f 640 564 567
f 641 567 568
f 641 640 567
f 642 568 569
f 642 641 568
f 569 571 642
f 642 571 643
f 645 644 574
f 574 644 573
f 575 636 637
f 645 575 637
f 574 575 645
f 636 575 565
f 646 643 571
f 646 571 576
f 576 578 646
f 646 578 647
f 644 579 573
f 648 579 644
f 580 647 578
f 580 649 647
f 651 650 582
f 582 650 581
f 582 579 648
f 582 648 651
f 652 649 580
f 652 580 583
f 583 584 652
f 652 584 653
f 650 585 581
f 654 585 650
f 586 653 584
f 586 655 653
f 654 587 585
f 656 587 654
f 588 655 586
f 588 657 655
f 656 589 587
f 658 589 656
f 590 657 588
f 590 659 657
f 658 591 589
f 660 591 658
f 592 659 590
f 592 661 659
f 660 593 591
f 662 593 660
f 594 661 592
f 594 663 661
f 662 595 593
f 664 595 662
f 596 663 594
f 596 665 663
f 664 597 595
f 666 597 664
f 598 665 596
f 598 667 665
f 666 599 597
f 668 599 666
f 600 667 598
f 600 669 667
f 668 601 599
f 670 601 668
f 602 669 600
f 602 671 669
f 670 604 601
f 672 604 670
f 606 673 605
f 673 674 605
f 674 602 605
f 674 671 602
f 672 675 604
f 604 675 607
f 608 607 675
f 608 675 676
f 678 677 673
f 606 678 673
f 610 678 606
f 673 677 674
f 676 679 608
f 608 679 611
f 613 611 679
f 613 679 680
f 682 681 616
f 682 616 615
f 610 616 678
f 678 616 681
f 680 683 613
f 613 683 617
f 617 684 618
f 683 684 617
f 619 618 684
f 619 684 685
f 621 686 620
f 620 686 687
f 688 620 687
f 622 620 688
f 622 689 623
f 688 689 622
f 615 623 682
f 682 623 689
f 685 690 619
f 619 690 624
f 624 691 625
f 690 691 624
f 625 692 626
f 691 692 625
f 626 693 627
f 692 693 626
f 627 694 628
f 693 694 627
f 621 628 686
f 628 695 686
f 628 694 695
f 686 695 687
f 697 696 630
f 630 696 629
f 698 630 631
f 698 697 630
f 699 631 632
f 699 698 631
f 700 632 633
f 700 699 632
f 701 633 634
f 701 700 633
f 634 635 701
f 701 635 702
f 704 703 638
f 638 703 637
f 705 638 639
f 705 704 638
f 639 629 696
f 639 696 705
f 706 702 635
f 706 635 640
f 707 640 641
f 707 706 640
f 708 641 642
f 708 707 641
f 642 643 708
f 708 643 709
f 711 710 645
f 645 710 644
f 645 637 703
f 645 703 711
f 712 709 643
f 712 643 646
f 646 647 712
f 712 647 713
f 710 648 644
f 714 648 710
f 649 713 647
f 649 715 713
f 717 716 651
f 651 716 650
f 651 648 714
f 651 714 717
f 718 715 649
f 718 649 652
f 652 653 718
f 718 653 719
f 716 654 650
f 720 654 716
f 655 719 653
f 655 721 719
f 720 656 654
f 722 656 720
f 657 721 655
f 657 723 721
f 722 658 656
f 724 658 722
f 659 723 657
f 659 725 723
f 724 660 658
f 726 660 724
f 661 725 659
f 661 727 725
f 726 662 660
f 728 662 726
f 663 727 661
f 663 729 727
f 728 664 662
f 730 664 728
f 665 729 663
f 665 731 729
f 730 666 664
f 732 666 730
f 667 731 665
f 667 733 731
f 732 668 666
f 734 668 732
f 669 733 667
f 669 735 733
f 734 670 668
f 736 670 734
f 671 735 669
f 671 737 735
f 736 672 670
f 738 672 736
f 674 737 671
f 674 739 737
f 738 740 672
f 672 740 675
f 676 675 740
f 676 740 741
f 743 742 677
f 743 677 678
f 674 677 739
f 739 677 742
f 741 744 676
f 676 744 679
f 680 679 744
f 680 744 745
f 747 746 681
f 747 681 682
f 678 681 743
f 743 681 746
f 745 748 680
f 680 748 683
f 683 749 684
f 748 749 683
f 685 684 749
f 685 749 750
f 752 751 688
f 752 688 687
f 688 753 689
f 751 753 688
f 682 689 747
f 747 689 753
f 750 754 685
f 685 754 690
f 690 755 691
f 754 755 690
f 691 756 692
f 755 756 691
f 692 757 693
f 756 757 692
f 693 758 694
f 757 758 693
f 694 759 695
f 758 759 694
f 687 695 752
f 752 695 759
f 760 696 697
f 760 697 761
f 697 762 761
f 697 698 762
f 763 698 699
f 763 762 698
f 764 699 700
f 764 763 699
f 765 700 701
f 765 764 700
f 701 702 765
f 765 702 766
f 768 767 704
f 704 767 703
f 769 704 705
f 769 768 704
f 705 696 760
f 770 705 760
f 769 705 770
f 770 760 761
f 771 766 702
f 771 702 706
f 772 706 707
f 772 771 706
f 773 707 708
f 773 772 707
f 708 709 773
f 773 709 774
f 776 775 711
f 711 775 710
f 711 703 767
f 711 767 776
f 777 774 709
f 777 709 712
f 712 713 777
f 777 713 778
f 775 714 710
f 779 714 775
f 715 778 713
f 715 780 778
f 782 781 717
f 717 781 716
f 717 714 779
f 717 779 782
f 783 780 715
f 783 715 718
f 718 719 783
f 783 719 784
f 781 720 716
f 785 720 781
f 721 784 719
f 721 786 784
f 785 722 720
f 787 722 785
f 723 786 721
f 723 788 786
f 787 724 722
f 789 724 787
f 725 788 723
f 725 790 788
f 789 726 724
f 791 726 789
f 727 790 725
f 727 792 790
f 791 728 726
f 793 728 791
f 729 792 727
f 729 794 792
f 793 730 728
f 795 730 793
f 731 794 729
f 731 796 794
f 795 732 730
f 797 732 795
f 733 796 731
f 733 798 796
f 797 734 732
f 799 734 797
f 735 798 733
f 735 800 798
f 799 736 734
f 801 736 799
f 737 800 735
f 737 802 800
f 801 738 736
f 803 738 801
f 806 805 804
f 805 802 804
f 802 739 804
f 802 737 739
f 803 807 738
f 738 807 740
f 741 740 807
f 741 807 808
f 806 804 742
f 743 806 742
f 809 806 743
f 742 804 739
f 808 810 741
f 741 810 744
f 745 744 810
f 745 810 811
f 813 812 746
f 813 746 747
f 743 746 809
f 809 746 812
f 811 814 745
f 745 814 748
f 748 815 749
f 814 815 748
f 750 749 815
f 750 815 816
f 819 818 817
f 751 752 817
f 818 751 817
f 820 751 818
f 751 821 753
f 820 821 751
f 747 753 813
f 813 753 821
f 816 822 750
f 750 822 754
f 754 823 755
f 822 823 754
f 755 824 756
f 823 824 755
f 756 825 757
f 824 825 756
f 757 826 758
f 825 826 757
f 817 759 819
f 759 826 819
f 759 758 826
f 759 817 752
f 828 827 762
f 762 827 761
f 829 762 763
f 829 828 762
f 830 763 764
f 830 829 763
f 832 830 831
f 830 765 831
f 830 764 765
f 766 831 765
f 833 767 768
f 833 768 834
f 768 835 834
f 768 769 835
f 836 769 770
f 836 835 769
f 770 761 827
f 770 827 836
f 837 832 831
f 837 831 766
f 771 837 766
f 838 837 771
f 839 771 772
f 839 838 771
f 841 839 840
f 839 773 840
f 839 772 773
f 774 840 773
f 842 775 776
f 843 842 776
f 843 776 767
f 844 843 767
f 833 844 767
f 844 833 834
f 845 841 840
f 847 845 846
f 846 845 777
f 845 840 777
f 840 774 777
f 778 846 777
f 849 848 842
f 848 775 842
f 848 779 775
f 849 842 843
f 850 847 846
f 846 778 850
f 778 851 850
f 778 780 851
f 853 852 782
f 782 852 781
f 782 779 848
f 782 848 853
f 854 851 780
f 854 780 783
f 783 784 854
f 854 784 855
f 852 785 781
f 856 785 852
f 786 855 784
f 786 857 855
f 856 787 785
f 858 787 856
f 788 857 786
f 788 859 857
f 858 789 787
f 860 789 858
f 790 859 788
f 790 861 859
f 860 791 789
f 862 791 860
f 792 861 790
f 792 863 861
f 862 793 791
f 864 793 862
f 794 863 792
f 794 865 863
f 864 795 793
f 866 795 864
f 796 865 794
f 796 867 865
f 866 797 795
f 868 797 866
f 798 867 796
f 798 869 867
f 868 799 797
f 870 799 868
f 800 869 798
f 800 871 869
f 870 801 799
f 872 801 870
f 802 871 800
f 802 873 871
f 872 803 801
f 874 803 872
f 876 875 805
f 876 805 806
f 802 805 873
f 873 805 875
f 874 877 803
f 803 877 807
f 808 807 877
f 808 877 878
f 881 880 879
f 880 876 879
f 876 809 879
f 876 806 809
f 878 882 808
f 808 882 810
f 884 883 811
f 810 884 811
f 882 884 810
f 885 883 884
f 888 887 886
f 890 889 886
f 890 886 887
f 889 890 881
f 889 881 879
f 813 889 879
f 812 813 879
f 812 879 809
f 883 814 811
f 885 891 883
f 891 814 883
f 891 815 814
f 893 892 816
f 815 893 816
f 891 893 815
f 894 892 893
f 896 895 818
f 896 818 819
f 886 820 888
f 820 895 888
f 820 818 895
f 820 886 821
f 821 886 889
f 821 889 813
f 892 822 816
f 894 897 892
f 897 822 892
f 897 823 822
f 823 898 824
f 897 898 823
f 824 899 825
f 898 899 824
f 825 900 826
f 899 900 825
f 819 826 896
f 896 826 900
f 901 827 828
f 829 902 828
f 828 902 901
f 830 903 829
f 829 903 902
f 832 903 830
f 905 904 835
f 835 904 834
f 906 835 836
f 906 905 835
f 836 827 901
f 907 836 901
f 906 836 907
f 907 901 902
f 907 902 908
f 908 902 903
f 908 903 909
f 909 903 832
f 837 909 832
f 910 909 837
f 911 837 838
f 911 910 837
f 912 838 839
f 912 911 838
f 839 841 912
f 912 841 913
f 915 914 844
f 844 914 843
f 844 834 904
f 844 904 915
f 916 913 841
f 916 841 845
f 845 847 916
f 916 847 917
f 919 918 849
f 849 918 848
f 849 843 914
f 849 914 919
f 920 917 847
f 920 847 850
f 850 851 920
f 920 851 921
f 922 852 853
f 923 922 853
f 848 923 853
f 918 923 848
f 851 854 924
f 925 851 924
f 921 851 925
f 855 924 854
f 927 926 922
f 926 852 922
f 926 856 852
f 927 922 923
f 928 925 924
f 924 855 928
f 855 929 928
f 855 857 929
f 926 858 856
f 930 858 926
f 859 929 857
f 859 931 929
f 930 860 858
f 932 860 930
f 861 931 859
f 861 933 931
f 932 862 860
f 934 862 932
f 863 933 861
f 863 935 933
f 934 864 862
f 936 864 934
f 865 935 863
f 865 937 935
f 936 866 864
f 938 866 936
f 867 937 865
f 867 939 937
f 938 868 866
f 940 868 938
f 869 939 867
f 869 941 939
f 940 870 868
f 942 870 940
f 871 941 869
f 871 943 941
f 942 872 870
f 944 872 942
f 873 943 871
f 873 945 943
f 947 874 946
f 874 944 946
f 874 872 944
f 948 947 946
f 950 949 875
f 950 875 876
f 873 875 945
f 945 875 949
f 947 877 874
f 952 951 878
f 952 878 877
f 948 952 877
f 947 948 877
f 953 951 952
f 955 954 880
f 955 880 881
f 876 880 950
f 950 880 954
f 951 882 878
f 953 956 951
f 956 882 951
f 956 884 882
f 885 884 956
f 885 956 957
f 959 958 887
f 959 887 888
f 887 960 890
f 958 960 887
f 881 890 955
f 955 890 960
f 957 961 885
f 885 961 891
f 891 962 893
f 961 962 891
f 964 963 894
f 893 964 894
f 962 964 893
f 966 965 963
f 966 963 964
f 968 967 965
f 968 965 966
f 970 969 967
f 970 967 968
f 895 896 969
f 970 895 969
f 971 895 970
f 888 895 959
f 959 895 971
f 963 897 894
f 897 963 898
f 898 963 965
f 898 965 899
f 899 965 967
f 899 967 900
f 900 967 969
f 900 969 896
f 972 904 905
f 906 973 905
f 905 973 972
f 973 906 974
f 906 975 974
f 906 907 975
f 976 907 908
f 976 975 907
f 977 908 909
f 977 976 908
f 978 909 910
f 978 977 909
f 980 978 979
f 978 911 979
f 978 910 911
f 912 981 911
f 911 981 979
f 913 981 912
f 982 914 915
f 983 982 915
f 983 915 904
f 984 983 904
f 972 984 904
f 984 972 973
f 984 973 985
f 985 973 974
f 986 980 979
f 986 979 981
f 986 981 987
f 989 987 988
f 988 987 916
f 987 981 916
f 981 913 916
f 917 988 916
f 990 918 919
f 991 990 919
f 991 919 914
f 992 991 914
f 982 992 914
f 992 982 983
f 993 989 988
f 995 993 994
f 994 993 920
f 993 988 920
f 988 917 920
f 921 994 920
f 997 996 990
f 996 918 990
f 996 923 918
f 997 990 991
f 998 995 994
f 994 921 998
f 921 999 998
f 921 925 999
f 1000 926 927
f 1001 1000 927
f 923 1001 927
f 996 1001 923
f 925 928 1002
f 1003 925 1002
f 999 925 1003
f 929 1002 928
f 1005 1004 1000
f 1004 926 1000
f 1004 930 926
f 1005 1000 1001
f 1006 1003 1002
f 1002 929 1006
f 929 1007 1006
f 929 931 1007
f 1004 932 930
f 1008 932 1004
f 933 1007 931
f 933 1009 1007
f 1008 934 932
f 1010 934 1008
f 935 1009 933
f 935 1011 1009
f 1010 936 934
f 1012 936 1010
f 937 1011 935
f 937 1013 1011
f 1012 938 936
f 1014 938 1012
f 939 1013 937
f 939 1015 1013
f 1014 940 938
f 1016 940 1014
f 941 1015 939
f 941 1017 1015
f 1016 942 940
f 1018 942 1016
f 943 1017 941
f 943 1019 1017
f 1021 944 1020
f 944 1018 1020
f 944 942 1018
f 1022 1021 1020
f 1025 1024 1023
f 1024 1019 1023
f 1019 945 1023
f 1019 943 945
f 1021 946 944
f 948 946 1021
f 1022 948 1021
f 1026 948 1022
f 1029 1028 1027
f 1027 1028 1025
f 1027 1025 1023
f 950 1027 1023
f 949 950 1023
f 949 1023 945
f 1026 1030 948
f 948 1030 952
f 1032 1031 953
f 952 1032 953
f 1030 1032 952
f 1033 1031 1032
f 1036 1035 1034
f 1034 1035 1029
f 1034 1029 1027
f 955 1034 1027
f 954 955 1027
f 954 1027 950
f 1031 956 953
f 1038 1037 957
f 1038 957 956
f 1033 1038 956
f 1031 1033 956
f 1039 1037 1038
f 1042 1041 1040
f 958 959 1040
f 1041 958 1040
f 1043 958 1041
f 1034 960 1036
f 960 1043 1036
f 960 958 1043
f 960 1034 955
f 1037 961 957
f 1039 1044 1037
f 1044 961 1037
f 1044 962 961
f 962 1045 964
f 1044 1045 962
f 964 1046 966
f 1045 1046 964
f 966 1047 968
f 1046 1047 966
f 968 1048 970
f 1047 1048 968
f 1040 971 1042
f 971 1048 1042
f 971 970 1048
f 971 1040 959
f 1049 974 975
f 976 1050 975
f 975 1050 1049
f 977 1051 976
f 976 1051 1050
f 978 1052 977
f 977 1052 1051
f 980 1052 978
f 1053 983 984
f 1053 984 1054
f 984 1055 1054
f 984 985 1055
f 985 974 1049
f 1056 985 1049
f 1055 985 1056
f 1056 1049 1050
f 1056 1050 1057
f 1057 1050 1051
f 1057 1051 1058
f 1058 1051 1052
f 1058 1052 1059
f 1061 1059 1060
f 1060 1059 986
f 1059 1052 986
f 1052 980 986
f 987 1062 986
f 986 1062 1060
f 989 1062 987
f 1063 991 992
f 1064 1063 992
f 1064 992 983
f 1065 1064 983
f 1053 1065 983
f 1065 1053 1054
f 1066 1061 1060
f 1066 1060 1062
f 1066 1062 1067
f 1069 1067 1068
f 1068 1067 993
f 1067 1062 993
f 1062 989 993
f 995 1068 993
f 1070 996 997
f 1071 1070 997
f 1071 997 991
f 1072 1071 991
f 1063 1072 991
f 1072 1063 1064
f 1073 1069 1068
f 1075 1073 1074
f 1074 1073 998
f 1073 1068 998
f 1068 995 998
f 999 1074 998
f 1077 1076 1070
f 1076 996 1070
f 1076 1001 996
f 1077 1070 1071
f 1078 1075 1074
f 1074 999 1078
f 999 1079 1078
f 999 1003 1079
f 1080 1004 1005
f 1081 1080 1005
f 1001 1081 1005
f 1076 1081 1001
f 1003 1006 1082
f 1083 1003 1082
f 1079 1003 1083
f 1007 1082 1006
f 1084 1008 1080
f 1080 1008 1004
f 1080 1081 1085
f 1080 1085 1084
f 1083 1082 1086
f 1083 1086 1087
f 1009 1086 1007
f 1007 1086 1082
f 1088 1010 1084
f 1084 1010 1008
f 1084 1085 1089
f 1084 1089 1088
f 1090 1087 1086
f 1086 1009 1090
f 1009 1091 1090
f 1009 1011 1091
f 1092 1012 1088
f 1088 1012 1010
f 1088 1089 1093
f 1088 1093 1092
f 1013 1091 1011
f 1013 1094 1091
f 1095 1014 1092
f 1092 1014 1012
f 1092 1093 1096
f 1092 1096 1095
f 1015 1094 1013
f 1015 1097 1094
f 1098 1016 1095
f 1095 1016 1014
f 1095 1096 1099
f 1095 1099 1098
f 1017 1097 1015
f 1017 1100 1097
f 1101 1018 1098
f 1098 1018 1016
f 1098 1099 1102
f 1098 1102 1101
f 1019 1100 1017
f 1019 1103 1100
f 1101 1020 1018
f 1022 1020 1101
f 1102 1022 1101
f 1104 1022 1102
f 1107 1106 1105
f 1024 1025 1105
f 1106 1024 1105
f 1108 1024 1106
f 1019 1024 1103
f 1103 1024 1108
f 1110 1026 1109
f 1026 1104 1109
f 1026 1022 1104
f 1112 1111 1110
f 1112 1110 1109
f 1113 1111 1112
f 1107 1105 1028
f 1029 1107 1028
f 1114 1107 1029
f 1028 1105 1025
f 1110 1030 1026
f 1030 1110 1032
f 1032 1110 1111
f 1116 1115 1033
f 1116 1033 1032
f 1113 1116 1032
f 1111 1113 1032
f 1117 1115 1116
f 1120 1119 1118
f 1122 1121 1118
f 1122 1118 1119
f 1035 1036 1121
f 1122 1035 1121
f 1123 1035 1122
f 1029 1035 1114
f 1114 1035 1123
f 1115 1038 1033
f 1125 1124 1039
f 1125 1039 1038
f 1117 1125 1038
f 1115 1117 1038
f 1127 1126 1124
f 1127 1124 1125
f 1129 1128 1126
f 1129 1126 1127
f 1131 1130 1128
f 1131 1128 1129
f 1133 1132 1130
f 1133 1130 1131
f 1132 1133 1120
f 1132 1120 1118
f 1042 1132 1118
f 1041 1042 1118
f 1041 1118 1043
f 1043 1118 1121
f 1043 1121 1036
f 1124 1044 1039
f 1044 1124 1045
f 1045 1124 1126
f 1045 1126 1046
f 1046 1126 1128
f 1046 1128 1047
f 1047 1128 1130
f 1047 1130 1048
f 1048 1130 1132
f 1048 1132 1042
f 1134 1054 1055
f 1056 1135 1055
f 1055 1135 1134
f 1057 1136 1056
f 1056 1136 1135
f 1058 1137 1057
f 1057 1137 1136
f 1059 1138 1058
f 1058 1138 1137
f 1061 1138 1059
f 1139 1064 1065
f 1140 1139 1065
f 1140 1065 1054
f 1141 1140 1054
f 1134 1141 1054
f 1141 1134 1135
f 1141 1135 1142
f 1142 1135 1136
f 1142 1136 1143
f 1143 1136 1137
f 1143 1137 1144
f 1144 1137 1138
f 1144 1138 1145
f 1147 1145 1146
f 1146 1145 1066
f 1145 1138 1066
f 1138 1061 1066
f 1067 1148 1066
f 1066 1148 1146
f 1069 1148 1067
f 1149 1071 1072
f 1150 1149 1072
f 1150 1072 1064
f 1151 1150 1064
f 1139 1151 1064
f 1151 1139 1140
f 1152 1147 1146
f 1152 1146 1148
f 1152 1148 1153
f 1155 1153 1154
f 1154 1153 1073
f 1153 1148 1073
f 1148 1069 1073
f 1075 1154 1073
f 1156 1076 1077
f 1157 1156 1077
f 1157 1077 1071
f 1158 1157 1071
f 1149 1158 1071
f 1158 1149 1150
f 1159 1155 1154
f 1161 1159 1160
f 1160 1159 1078
f 1159 1154 1078
f 1154 1075 1078
f 1079 1160 1078
f 1162 1081 1156
f 1156 1081 1076
f 1156 1157 1163
f 1156 1163 1162
f 1161 1160 1164
f 1161 1164 1165
f 1083 1164 1079
f 1079 1164 1160
f 1167 1166 1162
f 1166 1081 1162
f 1166 1085 1081
f 1167 1162 1163
f 1168 1165 1164
f 1164 1083 1168
f 1083 1169 1168
f 1083 1087 1169
f 1166 1089 1085
f 1170 1089 1166
f 1087 1090 1171
f 1172 1087 1171
f 1169 1087 1172
f 1091 1171 1090
f 1170 1093 1089
f 1173 1093 1170
f 1172 1171 1174
f 1172 1174 1175
f 1094 1174 1091
f 1091 1174 1171
f 1173 1096 1093
f 1176 1096 1173
f 1175 1174 1177
f 1175 1177 1178
f 1097 1177 1094
f 1094 1177 1174
f 1176 1099 1096
f 1179 1099 1176
f 1182 1181 1180
f 1180 1181 1178
f 1177 1180 1178
f 1183 1180 1177
f 1100 1183 1097
f 1097 1183 1177
f 1185 1102 1184
f 1102 1179 1184
f 1102 1099 1179
f 1186 1185 1184
f 1182 1180 1187
f 1182 1187 1188
f 1189 1180 1183
f 1187 1180 1189
f 1103 1189 1100
f 1100 1189 1183
f 1190 1104 1185
f 1185 1104 1102
f 1185 1186 1191
f 1192 1185 1191
f 1190 1185 1192
f 1193 1192 1191
f 1188 1187 1106
f 1107 1188 1106
f 1194 1188 1107
f 1106 1187 1108
f 1108 1187 1189
f 1108 1189 1103
f 1190 1109 1104
f 1109 1190 1112
f 1112 1190 1192
f 1196 1195 1113
f 1196 1113 1112
f 1193 1196 1112
f 1192 1193 1112
f 1197 1195 1196
f 1114 1194 1107
f 1114 1198 1194
f 1195 1116 1113
f 1200 1199 1117
f 1200 1117 1116
f 1197 1200 1116
f 1195 1197 1116
f 1202 1201 1199
f 1202 1199 1200
f 1204 1203 1201
f 1204 1201 1202
f 1206 1205 1203
f 1206 1203 1204
f 1208 1207 1205
f 1208 1205 1206
f 1119 1120 1207
f 1208 1119 1207
f 1209 1119 1208
f 1119 1210 1122
f 1209 1210 1119
f 1122 1211 1123
f 1210 1211 1122
f 1114 1123 1198
f 1198 1123 1211
f 1199 1125 1117
f 1125 1199 1127
f 1127 1199 1201
f 1127 1201 1129
f 1129 1201 1203
f 1129 1203 1131
f 1131 1203 1205
f 1131 1205 1133
f 1133 1205 1207
f 1133 1207 1120
f 1212 1140 1141
f 1142 1213 1141
f 1141 1213 1212
f 1143 1214 1142
f 1142 1214 1213
f 1144 1215 1143
f 1143 1215 1214
f 1145 1216 1144
f 1144 1216 1215
f 1147 1216 1145
f 1217 1150 1151
f 1140 1212 1151
f 1212 1217 1151
f 1212 1218 1217
f 1213 1220 1219
f 1218 1213 1219
f 1212 1213 1218
f 1220 1213 1214
f 1220 1214 1221
f 1221 1214 1215
f 1221 1215 1222
f 1224 1223 1222
f 1215 1224 1222
f 1216 1224 1215
f 1152 1225 1147
f 1225 1216 1147
f 1225 1224 1216
f 1153 1226 1152
f 1152 1226 1225
f 1155 1226 1153
f 1227 1157 1158
f 1228 1227 1158
f 1228 1158 1150
f 1229 1228 1150
f 1217 1229 1150
f 1229 1217 1218
f 1229 1218 1230
f 1230 1218 1219
f 1231 1223 1224
f 1233 1232 1231
f 1224 1233 1231
f 1225 1233 1224
f 1234 1225 1226
f 1233 1225 1234
f 1159 1235 1155
f 1235 1226 1155
f 1235 1234 1226
f 1161 1235 1159
f 1236 1163 1227
f 1227 1163 1157
f 1227 1228 1237
f 1227 1237 1236
f 1238 1232 1233
f 1238 1233 1234
f 1238 1234 1239
f 1241 1240 1239
f 1234 1241 1239
f 1235 1241 1234
f 1165 1241 1161
f 1161 1241 1235
f 1242 1166 1167
f 1243 1242 1167
f 1243 1167 1163
f 1244 1243 1163
f 1236 1244 1163
f 1244 1236 1237
f 1240 1241 1245
f 1240 1245 1246
f 1168 1247 1165
f 1247 1241 1165
f 1247 1245 1241
f 1169 1247 1168
f 1248 1170 1242
f 1242 1170 1166
f 1242 1243 1249
f 1242 1249 1248
f 1246 1245 1250
f 1246 1250 1251
f 1252 1245 1247
f 1250 1245 1252
f 1172 1252 1169
f 1169 1252 1247
f 1253 1173 1248
f 1248 1173 1170
f 1248 1249 1254
f 1248 1254 1253
f 1251 1250 1255
f 1251 1255 1256
f 1257 1250 1252
f 1255 1250 1257
f 1175 1257 1172
f 1172 1257 1252
f 1258 1176 1253
f 1253 1176 1173
f 1253 1254 1259
f 1253 1259 1258
f 1256 1255 1260
f 1256 1260 1261
f 1262 1255 1257
f 1260 1255 1262
f 1178 1262 1175
f 1175 1262 1257
f 1263 1179 1258
f 1258 1179 1176
f 1258 1259 1264
f 1265 1258 1264
f 1263 1258 1265
f 1266 1265 1264
f 1261 1260 1267
f 1261 1267 1268
f 1182 1267 1181
f 1267 1262 1181
f 1267 1260 1262
f 1181 1262 1178
f 1263 1184 1179
f 1184 1263 1186
f 1263 1269 1186
f 1263 1265 1269
f 1265 1266 1270
f 1265 1270 1269
f 1268 1267 1271
f 1268 1271 1272
f 1188 1271 1182
f 1182 1271 1267
f 1269 1191 1186
f 1274 1273 1193
f 1274 1193 1191
f 1270 1274 1191
f 1269 1270 1191
f 1276 1275 1273
f 1276 1273 1274
f 1277 1275 1276
f 1280 1279 1278
f 1278 1279 1272
f 1271 1278 1272
f 1281 1278 1271
f 1194 1281 1188
f 1188 1281 1271
f 1273 1196 1193
f 1196 1273 1197
f 1273 1282 1197
f 1273 1275 1282
f 1275 1277 1283
f 1284 1275 1283
f 1282 1275 1284
f 1286 1285 1284
f 1286 1284 1283
f 1288 1287 1285
f 1288 1285 1286
f 1290 1289 1287
f 1290 1287 1288
f 1292 1291 1289
f 1292 1289 1290
f 1291 1292 1280
f 1278 1291 1280
f 1293 1291 1278
f 1294 1278 1281
f 1293 1278 1294
f 1198 1294 1194
f 1194 1294 1281
f 1282 1200 1197
f 1200 1282 1202
f 1202 1282 1284
f 1202 1284 1204
f 1204 1284 1285
f 1204 1285 1206
f 1206 1285 1287
f 1206 1287 1208
f 1208 1287 1289
f 1208 1289 1209
f 1209 1289 1291
f 1209 1291 1210
f 1210 1291 1293
f 1210 1293 1211
f 1211 1293 1294
f 1211 1294 1198
f 1295 1219 1220
f 1221 1296 1220
f 1220 1296 1295
f 1222 1297 1221
f 1221 1297 1296
f 1223 1297 1222
f 1298 1228 1229
f 1230 1299 1229
f 1229 1299 1298
f 1219 1295 1230
f 1295 1299 1230
f 1295 1300 1299
f 1301 1295 1296
f 1300 1295 1301
f 1302 1296 1297
f 1301 1296 1302
f 1231 1303 1223
f 1303 1297 1223
f 1303 1302 1297
f 1232 1303 1231
f 1304 1237 1298
f 1298 1237 1228
f 1305 1298 1299
f 1304 1298 1305
f 1300 1307 1306
f 1305 1300 1306
f 1299 1300 1305
f 1307 1300 1301
f 1307 1301 1308
f 1308 1301 1302
f 1308 1302 1309
f 1311 1310 1309
f 1302 1311 1309
f 1303 1311 1302
f 1238 1312 1232
f 1312 1303 1232
f 1312 1311 1303
f 1239 1313 1238
f 1238 1313 1312
f 1240 1313 1239
f 1314 1243 1244
f 1237 1304 1244
f 1304 1314 1244
f 1304 1315 1314
f 1316 1304 1305
f 1315 1304 1316
f 1305 1306 1317
f 1305 1317 1316
f 1318 1310 1311
f 1320 1319 1318
f 1311 1320 1318
f 1312 1320 1311
f 1321 1312 1313
f 1320 1312 1321
f 1246 1321 1240
f 1240 1321 1313
f 1322 1249 1314
f 1314 1249 1243
f 1323 1314 1315
f 1322 1314 1323
f 1316 1325 1324
f 1323 1316 1324
f 1315 1316 1323
f 1325 1316 1317
f 1319 1320 1326
f 1319 1326 1327
f 1328 1320 1321
f 1326 1320 1328
f 1251 1328 1246
f 1246 1328 1321
f 1329 1254 1322
f 1322 1254 1249
f 1330 1322 1323
f 1329 1322 1330
f 1323 1324 1331
f 1332 1323 1331
f 1330 1323 1332
f 1333 1332 1331
f 1327 1326 1334
f 1327 1334 1335
f 1336 1326 1328
f 1334 1326 1336
f 1256 1336 1251
f 1251 1336 1328
f 1337 1259 1329
f 1329 1259 1254
f 1338 1329 1330
f 1337 1329 1338
f 1339 1330 1332
f 1338 1330 1339
f 1332 1333 1340
f 1332 1340 1339
f 1335 1334 1341
f 1335 1341 1342
f 1343 1334 1336
f 1341 1334 1343
f 1261 1343 1256
f 1256 1343 1336
f 1337 1264 1259
f 1264 1337 1266
f 1337 1344 1266
f 1337 1338 1344
f 1345 1338 1339
f 1344 1338 1345
f 1339 1340 1346
f 1339 1346 1345
f 1342 1341 1347
f 1342 1347 1348
f 1349 1341 1343
f 1347 1341 1349
f 1268 1349 1261
f 1261 1349 1343
f 1350 1270 1344
f 1344 1270 1266
f 1351 1344 1345
f 1350 1344 1351
f 1345 1346 1352
f 1353 1345 1352
f 1351 1345 1353
f 1355 1354 1353
f 1355 1353 1352
f 1357 1356 1354
f 1357 1354 1355
f 1359 1358 1356
f 1359 1356 1357
f 1358 1359 1348
f 1347 1358 1348
f 1360 1358 1347
f 1361 1347 1349
f 1360 1347 1361
f 1272 1361 1268
f 1268 1361 1349
f 1350 1274 1270
f 1274 1350 1276
f 1276 1350 1351
f 1276 1351 1277
f 1351 1362 1277
f 1351 1353 1362
f 1363 1353 1354
f 1362 1353 1363
f 1364 1354 1356
f 1363 1354 1364
f 1365 1356 1358
f 1364 1356 1365
f 1366 1358 1360
f 1365 1358 1366
f 1280 1366 1279
f 1366 1361 1279
f 1366 1360 1361
f 1279 1361 1272
f 1362 1283 1277
f 1283 1362 1286
f 1286 1362 1363
f 1286 1363 1288
f 1288 1363 1364
f 1288 1364 1290
f 1290 1364 1365
f 1290 1365 1292
f 1292 1365 1366
f 1292 1366 1280
f 1367 1306 1307
f 1308 1368 1307
f 1307 1368 1367
f 1309 1369 1308
f 1308 1369 1368
f 1310 1369 1309
f 1370 1317 1367
f 1367 1317 1306
f 1371 1367 1368
f 1370 1367 1371
f 1372 1368 1369
f 1371 1368 1372
f 1318 1373 1310
f 1373 1369 1310
f 1373 1372 1369
f 1319 1373 1318
f 1374 1324 1325
f 1317 1370 1325
f 1370 1374 1325
f 1370 1375 1374
f 1376 1370 1371
f 1375 1370 1376
f 1377 1371 1372
f 1376 1371 1377
f 1378 1372 1373
f 1377 1372 1378
f 1327 1378 1319
f 1319 1378 1373
f 1374 1331 1324
f 1331 1374 1333
f 1374 1379 1333
f 1374 1375 1379
f 1380 1375 1376
f 1379 1375 1380
f 1381 1376 1377
f 1380 1376 1381
f 1382 1377 1378
f 1381 1377 1382
f 1335 1382 1327
f 1327 1382 1378
f 1383 1340 1379
f 1379 1340 1333
f 1384 1379 1380
f 1383 1379 1384
f 1385 1380 1381
f 1384 1380 1385
f 1386 1381 1382
f 1385 1381 1386
f 1342 1386 1335
f 1335 1386 1382
f 1387 1346 1383
f 1383 1346 1340
f 1388 1383 1384
f 1387 1383 1388
f 1389 1384 1385
f 1388 1384 1389
f 1390 1385 1386
f 1389 1385 1390
f 1348 1390 1342
f 1342 1390 1386
f 1387 1352 1346
f 1352 1387 1355
f 1355 1387 1388
f 1355 1388 1357
f 1357 1388 1389
f 1357 1389 1359
f 1359 1389 1390
f 1359 1390 1348
