ply
format ascii 1.0
element vertex 1390
property float x
property float y
property float z
element face 2776
property list uchar int vertex_indices
end_header
-1.28345324 -0.36423433 -0.35714286
-1.21202467 -0.36423433 -0.42857143
-1.21202467 -0.43566290 -0.35714286
-1.21202467 -0.43566290 -0.21428571
-1.28345324 -0.36423433 -0.21428571
-1.21202467 -0.43566290 -0.07142857
-1.28345324 -0.36423433 -0.07142857
-1.21202467 -0.43566290 0.07142857
-1.28345324 -0.36423433 0.07142857
-1.21202467 -0.43566290 0.21428571
-1.28345324 -0.36423433 0.21428571
-1.21202467 -0.36423433 0.28571429
-1.28345324 -0.22137718 -0.35714286
-1.21202467 -0.22137718 -0.42857143
-1.28345324 -0.22137718 -0.21428571
-1.28345324 -0.22137718 -0.07142857
-1.28345324 -0.22137718 0.07142857
-1.28345324 -0.22137718 0.21428571
-1.21202467 -0.22137718 0.28571429
-1.28345324 -0.07852004 -0.35714286
-1.21202467 -0.07852004 -0.42857143
-1.28345324 -0.07852004 -0.21428571
-1.28345324 -0.07852004 -0.07142857
-1.28345324 -0.07852004 0.07142857
-1.28345324 -0.07852004 0.21428571
-1.21202467 -0.07852004 0.28571429
-1.28345324 0.06433710 -0.35714286
-1.21202467 0.06433710 -0.42857143
-1.28345324 0.06433710 -0.21428571
-1.28345324 0.06433710 -0.07142857
-1.28345324 0.06433710 0.07142857
-1.28345324 0.06433710 0.21428571
-1.21202467 0.06433710 0.28571429
-1.28345324 0.20719424 -0.35714286
-1.21202467 0.20719424 -0.42857143
-1.28345324 0.20719424 -0.21428571
-1.28345324 0.20719424 -0.07142857
-1.28345324 0.20719424 0.07142857
-1.28345324 0.20719424 0.21428571
-1.21202467 0.20719424 0.28571429
-1.28345324 0.35005139 -0.35714286
-1.21202467 0.35005139 -0.42857143
-1.28345324 0.35005139 -0.21428571
-1.28345324 0.35005139 -0.07142857
-1.28345324 0.35005139 0.07142857
-1.28345324 0.35005139 0.21428571
-1.21202467 0.35005139 0.28571429
-1.21202467 0.42147996 -0.35714286
-1.21202467 0.42147996 -0.21428571
-1.21202467 0.42147996 -0.07142857
-1.21202467 0.42147996 0.07142857
-1.21202467 0.42147996 0.21428571
-1.14059609 -0.64994861 -0.35714286
-1.06916752 -0.64994861 -0.42857143
-1.06916752 -0.72137718 -0.35714286
-1.06916752 -0.72137718 -0.21428571
-1.14059609 -0.64994861 -0.21428571
-1.06916752 -0.72137718 -0.07142857
-1.14059609 -0.64994861 -0.07142857
-1.06916752 -0.72137718 0.07142857
-1.14059609 -0.64994861 0.07142857
-1.06916752 -0.72137718 0.21428571
-1.14059609 -0.64994861 0.21428571
-1.06916752 -0.72137718 0.35714286
-1.14059609 -0.64994861 0.35714286
-1.06916752 -0.64994861 0.42857143
-1.14059609 -0.50709147 -0.50000000
-1.06916752 -0.50709147 -0.57142857
-1.06916752 -0.57852004 -0.50000000
-1.14059609 -0.50709147 -0.35714286
-1.14059609 -0.50709147 -0.21428571
-1.14059609 -0.50709147 -0.07142857
-1.14059609 -0.50709147 0.07142857
-1.14059609 -0.50709147 0.21428571
-1.14059609 -0.50709147 0.35714286
-1.06916752 -0.57852004 0.50000000
-1.14059609 -0.50709147 0.50000000
-1.06916752 -0.50709147 0.57142857
-1.14059609 -0.36423433 -0.50000000
-1.06916752 -0.36423433 -0.57142857
-1.14059609 -0.36423433 0.35714286
-1.14059609 -0.36423433 0.50000000
-1.06916752 -0.43566290 0.64285714
-1.14059609 -0.36423433 0.64285714
-1.06916752 -0.36423433 0.71428571
-1.14059609 -0.22137718 -0.64285714
-1.06916752 -0.22137718 -0.71428571
-1.06916752 -0.29280576 -0.64285714
-1.14059609 -0.22137718 -0.50000000
-1.14059609 -0.22137718 0.35714286
-1.14059609 -0.22137718 0.50000000
-1.14059609 -0.22137718 0.64285714
-1.06916752 -0.22137718 0.71428571
-1.14059609 -0.07852004 -0.64285714
-1.06916752 -0.07852004 -0.71428571
-1.14059609 -0.07852004 -0.50000000
-1.14059609 -0.07852004 0.35714286
-1.14059609 -0.07852004 0.50000000
-1.14059609 -0.07852004 0.64285714
-1.06916752 -0.07852004 0.71428571
-1.14059609 0.06433710 -0.64285714
-1.06916752 0.06433710 -0.71428571
-1.14059609 0.06433710 -0.50000000
-1.14059609 0.06433710 0.35714286
-1.14059609 0.06433710 0.50000000
-1.14059609 0.06433710 0.64285714
-1.06916752 0.06433710 0.71428571
-1.14059609 0.20719424 -0.64285714
-1.06916752 0.20719424 -0.71428571
-1.14059609 0.20719424 -0.50000000
-1.14059609 0.20719424 0.35714286
-1.14059609 0.20719424 0.50000000
-1.14059609 0.20719424 0.64285714
-1.06916752 0.20719424 0.71428571
-1.14059609 0.35005139 -0.64285714
-1.06916752 0.35005139 -0.71428571
-1.14059609 0.35005139 -0.50000000
-1.14059609 0.35005139 0.35714286
-1.14059609 0.35005139 0.50000000
-1.06916752 0.35005139 0.57142857
-1.06916752 0.27862282 0.64285714
-1.06916752 0.42147996 -0.64285714
-1.14059609 0.49290853 -0.50000000
-1.06916752 0.49290853 -0.57142857
-1.14059609 0.49290853 -0.35714286
-1.14059609 0.49290853 -0.21428571
-1.14059609 0.49290853 -0.07142857
-1.14059609 0.49290853 0.07142857
-1.14059609 0.49290853 0.21428571
-1.14059609 0.49290853 0.35714286
-1.14059609 0.49290853 0.50000000
-1.06916752 0.49290853 0.57142857
-1.06916752 0.56433710 -0.50000000
-1.14059609 0.63576567 -0.35714286
-1.06916752 0.63576567 -0.42857143
-1.14059609 0.63576567 -0.21428571
-1.14059609 0.63576567 -0.07142857
-1.14059609 0.63576567 0.07142857
-1.14059609 0.63576567 0.21428571
-1.14059609 0.63576567 0.35714286
-1.06916752 0.63576567 0.42857143
-1.06916752 0.56433710 0.50000000
-1.06916752 0.70719424 -0.35714286
-1.06916752 0.70719424 -0.21428571
-1.06916752 0.70719424 -0.07142857
-1.06916752 0.70719424 0.07142857
-1.06916752 0.70719424 0.21428571
-1.06916752 0.70719424 0.35714286
-0.99773895 -0.79280576 -0.50000000
-0.92631038 -0.79280576 -0.57142857
-0.92631038 -0.86423433 -0.50000000
-0.92631038 -0.86423433 -0.35714286
-0.99773895 -0.79280576 -0.35714286
-0.92631038 -0.86423433 -0.21428571
-0.99773895 -0.79280576 -0.21428571
-0.92631038 -0.86423433 -0.07142857
-0.99773895 -0.79280576 -0.07142857
-0.92631038 -0.86423433 0.07142857
-0.99773895 -0.79280576 0.07142857
-0.92631038 -0.86423433 0.21428571
-0.99773895 -0.79280576 0.21428571
-0.92631038 -0.86423433 0.35714286
-0.99773895 -0.79280576 0.35714286
-0.92631038 -0.79280576 0.42857143
-0.99773895 -0.64994861 -0.50000000
-0.92631038 -0.64994861 -0.57142857
-0.92631038 -0.72137718 0.50000000
-0.99773895 -0.64994861 0.50000000
-0.92631038 -0.64994861 0.57142857
-0.99773895 -0.50709147 -0.64285714
-0.92631038 -0.50709147 -0.71428571
-0.92631038 -0.57852004 -0.64285714
-0.92631038 -0.57852004 0.64285714
-0.99773895 -0.50709147 0.64285714
-0.92631038 -0.50709147 0.71428571
-0.99773895 -0.36423433 -0.78571429
-0.92631038 -0.36423433 -0.85714286
-0.92631038 -0.43566290 -0.78571429
-0.99773895 -0.36423433 -0.64285714
-0.92631038 -0.36423433 0.71428571
-0.99773895 -0.22137718 -0.78571429
-0.92631038 -0.22137718 -0.85714286
-0.92631038 -0.29280576 0.78571429
-0.99773895 -0.22137718 0.78571429
-0.92631038 -0.22137718 0.85714286
-0.99773895 -0.07852004 -0.78571429
-0.92631038 -0.07852004 -0.85714286
-0.99773895 -0.07852004 0.78571429
-0.92631038 -0.07852004 0.85714286
-0.99773895 0.06433710 -0.78571429
-0.92631038 0.06433710 -0.85714286
-0.99773895 0.06433710 0.78571429
-0.92631038 0.06433710 0.85714286
-0.99773895 0.20719424 -0.78571429
-0.92631038 0.20719424 -0.85714286
-0.99773895 0.20719424 0.78571429
-0.92631038 0.20719424 0.85714286
-0.99773895 0.35005139 -0.78571429
-0.92631038 0.35005139 -0.85714286
-0.99773895 0.35005139 0.64285714
-0.92631038 0.35005139 0.71428571
-0.92631038 0.27862282 0.78571429
-0.92631038 0.42147996 -0.78571429
-0.99773895 0.49290853 -0.64285714
-0.92631038 0.49290853 -0.71428571
-0.99773895 0.49290853 0.64285714
-0.92631038 0.49290853 0.71428571
-0.92631038 0.56433710 -0.64285714
-0.99773895 0.63576567 -0.50000000
-0.92631038 0.63576567 -0.57142857
-0.99773895 0.63576567 0.50000000
-0.92631038 0.63576567 0.57142857
-0.92631038 0.56433710 0.64285714
-0.99773895 0.77862282 -0.50000000
-0.92631038 0.77862282 -0.57142857
-0.99773895 0.77862282 -0.35714286
-0.99773895 0.77862282 -0.21428571
-0.99773895 0.77862282 -0.07142857
-0.99773895 0.77862282 0.07142857
-0.99773895 0.77862282 0.21428571
-0.99773895 0.77862282 0.35714286
-0.92631038 0.77862282 0.42857143
-0.92631038 0.70719424 0.50000000
-0.92631038 0.85005139 -0.50000000
-0.92631038 0.85005139 -0.35714286
-0.92631038 0.85005139 -0.21428571
-0.92631038 0.85005139 -0.07142857
-0.92631038 0.85005139 0.07142857
-0.92631038 0.85005139 0.21428571
-0.92631038 0.85005139 0.35714286
-0.85488181 -0.93566290 -0.50000000
-0.78345324 -0.93566290 -0.57142857
-0.78345324 -1.00709147 -0.50000000
-0.78345324 -1.00709147 -0.35714286
-0.85488181 -0.93566290 -0.35714286
-0.78345324 -1.00709147 -0.21428571
-0.85488181 -0.93566290 -0.21428571
-0.78345324 -1.00709147 -0.07142857
-0.85488181 -0.93566290 -0.07142857
-0.78345324 -1.00709147 0.07142857
-0.85488181 -0.93566290 0.07142857
-0.78345324 -1.00709147 0.21428571
-0.85488181 -0.93566290 0.21428571
-0.78345324 -1.00709147 0.35714286
-0.85488181 -0.93566290 0.35714286
-0.78345324 -0.93566290 0.42857143
-0.85488181 -0.79280576 -0.64285714
-0.78345324 -0.79280576 -0.71428571
-0.78345324 -0.86423433 -0.64285714
-0.78345324 -0.86423433 0.50000000
-0.85488181 -0.79280576 0.50000000
-0.78345324 -0.79280576 0.57142857
-0.85488181 -0.64994861 -0.64285714
-0.78345324 -0.64994861 -0.71428571
-0.78345324 -0.72137718 0.64285714
-0.85488181 -0.64994861 0.64285714
-0.78345324 -0.64994861 0.71428571
-0.85488181 -0.50709147 -0.78571429
-0.78345324 -0.50709147 -0.85714286
-0.78345324 -0.57852004 -0.78571429
-0.78345324 -0.57852004 0.78571429
-0.85488181 -0.50709147 0.78571429
-0.78345324 -0.50709147 0.85714286
-0.78345324 -0.36423433 -0.85714286
-0.85488181 -0.36423433 0.78571429
-0.78345324 -0.36423433 0.85714286
-0.78345324 -0.22137718 -0.85714286
-0.78345324 -0.22137718 0.85714286
-0.78345324 -0.07852004 -0.85714286
-0.78345324 -0.07852004 0.85714286
-0.78345324 0.06433710 -0.85714286
-0.78345324 0.06433710 0.85714286
-0.78345324 0.20719424 -0.85714286
-0.78345324 0.20719424 0.85714286
-0.78345324 0.35005139 -0.85714286
-0.85488181 0.35005139 0.78571429
-0.78345324 0.35005139 0.85714286
-0.85488181 0.49290853 -0.78571429
-0.78345324 0.49290853 -0.85714286
-0.85488181 0.49290853 0.78571429
-0.78345324 0.49290853 0.85714286
-0.78345324 0.56433710 -0.78571429
-0.85488181 0.63576567 -0.64285714
-0.78345324 0.63576567 -0.71428571
-0.85488181 0.63576567 0.64285714
-0.78345324 0.63576567 0.71428571
-0.78345324 0.56433710 0.78571429
-0.85488181 0.77862282 -0.64285714
-0.78345324 0.77862282 -0.71428571
-0.85488181 0.77862282 0.50000000
-0.78345324 0.77862282 0.57142857
-0.78345324 0.70719424 0.64285714
-0.78345324 0.85005139 -0.64285714
-0.78345324 0.85005139 -0.50000000
-0.85488181 0.92147996 -0.35714286
-0.78345324 0.92147996 -0.42857143
-0.85488181 0.92147996 -0.21428571
-0.85488181 0.92147996 -0.07142857
-0.85488181 0.92147996 0.07142857
-0.85488181 0.92147996 0.21428571
-0.85488181 0.92147996 0.35714286
-0.78345324 0.92147996 0.42857143
-0.78345324 0.85005139 0.50000000
-0.78345324 0.99290853 -0.35714286
-0.78345324 0.99290853 -0.21428571
-0.78345324 0.99290853 -0.07142857
-0.78345324 0.99290853 0.07142857
-0.78345324 0.99290853 0.21428571
-0.78345324 0.99290853 0.35714286
-0.71202467 -1.07852004 -0.35714286
-0.64059609 -1.07852004 -0.42857143
-0.64059609 -1.14994861 -0.35714286
-0.64059609 -1.14994861 -0.21428571
-0.71202467 -1.07852004 -0.21428571
-0.64059609 -1.14994861 -0.07142857
-0.71202467 -1.07852004 -0.07142857
-0.64059609 -1.14994861 0.07142857
-0.71202467 -1.07852004 0.07142857
-0.64059609 -1.14994861 0.21428571
-0.71202467 -1.07852004 0.21428571
-0.64059609 -1.14994861 0.35714286
-0.71202467 -1.07852004 0.35714286
-0.64059609 -1.07852004 0.42857143
-0.71202467 -0.93566290 -0.64285714
-0.64059609 -0.93566290 -0.71428571
-0.64059609 -1.00709147 -0.64285714
-0.64059609 -1.00709147 -0.50000000
-0.64059609 -1.00709147 0.50000000
-0.71202467 -0.93566290 0.50000000
-0.64059609 -0.93566290 0.57142857
-0.64059609 -0.79280576 -0.71428571
-0.64059609 -0.86423433 0.64285714
-0.71202467 -0.79280576 0.64285714
-0.64059609 -0.79280576 0.71428571
-0.71202467 -0.64994861 -0.78571429
-0.64059609 -0.64994861 -0.85714286
-0.64059609 -0.72137718 -0.78571429
-0.64059609 -0.72137718 0.78571429
-0.71202467 -0.64994861 0.78571429
-0.64059609 -0.64994861 0.85714286
-0.64059609 -0.50709147 -0.85714286
-0.64059609 -0.50709147 0.85714286
-0.71202467 -0.36423433 -0.92857143
-0.64059609 -0.36423433 -1.00000000
-0.64059609 -0.43566290 -0.92857143
-0.64059609 -0.43566290 0.92857143
-0.71202467 -0.36423433 0.92857143
-0.64059609 -0.36423433 1.00000000
-0.71202467 -0.22137718 -0.92857143
-0.64059609 -0.22137718 -1.00000000
-0.71202467 -0.22137718 0.92857143
-0.64059609 -0.22137718 1.00000000
-0.71202467 -0.07852004 -0.92857143
-0.64059609 -0.07852004 -1.00000000
-0.71202467 -0.07852004 0.92857143
-0.64059609 -0.07852004 1.00000000
-0.71202467 0.06433710 -0.92857143
-0.64059609 0.06433710 -1.00000000
-0.71202467 0.06433710 0.92857143
-0.64059609 0.06433710 1.00000000
-0.71202467 0.20719424 -0.92857143
-0.64059609 0.20719424 -1.00000000
-0.71202467 0.20719424 0.92857143
-0.64059609 0.20719424 1.00000000
-0.71202467 0.35005139 -0.92857143
-0.64059609 0.35005139 -1.00000000
-0.71202467 0.35005139 0.92857143
-0.64059609 0.35005139 1.00000000
-0.64059609 0.42147996 -0.92857143
-0.64059609 0.49290853 -0.85714286
-0.64059609 0.42147996 0.92857143
-0.64059609 0.49290853 0.85714286
-0.71202467 0.63576567 -0.78571429
-0.64059609 0.63576567 -0.85714286
-0.71202467 0.63576567 0.78571429
-0.64059609 0.63576567 0.85714286
-0.64059609 0.70719424 -0.78571429
-0.64059609 0.77862282 -0.71428571
-0.71202467 0.77862282 0.64285714
-0.64059609 0.77862282 0.71428571
-0.64059609 0.70719424 0.78571429
-0.64059609 0.85005139 -0.64285714
-0.71202467 0.92147996 -0.50000000
-0.64059609 0.92147996 -0.57142857
-0.71202467 0.92147996 0.50000000
-0.64059609 0.92147996 0.57142857
-0.64059609 0.85005139 0.64285714
-0.64059609 0.99290853 -0.50000000
-0.71202467 1.06433710 -0.35714286
-0.64059609 1.06433710 -0.42857143
-0.71202467 1.06433710 -0.21428571
-0.71202467 1.06433710 -0.07142857
-0.71202467 1.06433710 0.07142857
-0.71202467 1.06433710 0.21428571
-0.64059609 1.06433710 0.28571429
-0.64059609 0.99290853 0.35714286
-0.64059609 0.99290853 0.50000000
-0.64059609 1.13576567 -0.35714286
-0.64059609 1.13576567 -0.21428571
-0.64059609 1.13576567 -0.07142857
-0.64059609 1.13576567 0.07142857
-0.64059609 1.13576567 0.21428571
-0.56916752 -1.07852004 -0.50000000
-0.49773895 -1.07852004 -0.57142857
-0.49773895 -1.14994861 -0.50000000
-0.49773895 -1.14994861 -0.35714286
-0.49773895 -1.14994861 -0.21428571
-0.49773895 -1.14994861 -0.07142857
-0.49773895 -1.14994861 0.07142857
-0.49773895 -1.14994861 0.21428571
-0.49773895 -1.14994861 0.35714286
-0.49773895 -1.07852004 0.42857143
-0.49773895 -0.93566290 -0.71428571
-0.49773895 -1.00709147 -0.64285714
-0.49773895 -1.00709147 0.50000000
-0.49773895 -1.00709147 0.64285714
-0.56916752 -0.93566290 0.64285714
-0.49773895 -0.93566290 0.71428571
-0.56916752 -0.79280576 -0.78571429
-0.49773895 -0.79280576 -0.85714286
-0.49773895 -0.86423433 -0.78571429
-0.49773895 -0.86423433 0.78571429
-0.56916752 -0.79280576 0.78571429
-0.49773895 -0.79280576 0.85714286
-0.49773895 -0.64994861 -0.85714286
-0.49773895 -0.64994861 0.85714286
-0.56916752 -0.50709147 -0.92857143
-0.49773895 -0.50709147 -1.00000000
-0.49773895 -0.57852004 -0.92857143
-0.49773895 -0.57852004 0.92857143
-0.56916752 -0.50709147 0.92857143
-0.49773895 -0.50709147 1.00000000
-0.49773895 -0.36423433 -1.00000000
-0.49773895 -0.36423433 1.00000000
-0.49773895 -0.22137718 -1.00000000
-0.49773895 -0.22137718 1.00000000
-0.49773895 -0.07852004 -1.00000000
-0.49773895 -0.07852004 1.00000000
-0.49773895 0.06433710 -1.00000000
-0.49773895 0.06433710 1.00000000
-0.49773895 0.20719424 -1.00000000
-0.49773895 0.20719424 1.00000000
-0.49773895 0.35005139 -1.00000000
-0.49773895 0.35005139 1.00000000
-0.56916752 0.49290853 -0.92857143
-0.49773895 0.49290853 -1.00000000
-0.56916752 0.49290853 0.92857143
-0.49773895 0.49290853 1.00000000
-0.56916752 0.63576567 -0.92857143
-0.49773895 0.63576567 -1.00000000
-0.49773895 0.56433710 0.92857143
-0.49773895 0.63576567 0.85714286
-0.49773895 0.70719424 -0.92857143
-0.56916752 0.77862282 -0.78571429
-0.49773895 0.77862282 -0.85714286
-0.56916752 0.77862282 0.78571429
-0.49773895 0.77862282 0.85714286
-0.49773895 0.85005139 -0.78571429
-0.56916752 0.92147996 -0.64285714
-0.49773895 0.92147996 -0.71428571
-0.49773895 0.85005139 0.64285714
-0.49773895 0.92147996 0.57142857
-0.49773895 0.85005139 0.78571429
-0.49773895 0.99290853 -0.64285714
-0.56916752 1.06433710 -0.50000000
-0.49773895 1.06433710 -0.57142857
-0.56916752 1.06433710 0.35714286
-0.56916752 1.06433710 0.50000000
-0.49773895 1.06433710 0.57142857
-0.49773895 1.13576567 -0.50000000
-0.49773895 1.13576567 -0.35714286
-0.49773895 1.13576567 -0.21428571
-0.49773895 1.13576567 -0.07142857
-0.49773895 1.13576567 0.07142857
-0.49773895 1.13576567 0.21428571
-0.49773895 1.13576567 0.35714286
-0.49773895 1.13576567 0.50000000
-0.42631038 -1.22137718 -0.35714286
-0.35488181 -1.22137718 -0.42857143
-0.35488181 -1.29280576 -0.35714286
-0.35488181 -1.29280576 -0.21428571
-0.42631038 -1.22137718 -0.21428571
-0.35488181 -1.29280576 -0.07142857
-0.42631038 -1.22137718 -0.07142857
-0.35488181 -1.29280576 0.07142857
-0.42631038 -1.22137718 0.07142857
-0.35488181 -1.29280576 0.21428571
-0.42631038 -1.22137718 0.21428571
-0.35488181 -1.22137718 0.28571429
-0.35488181 -1.07852004 -0.57142857
-0.35488181 -1.14994861 -0.50000000
-0.35488181 -1.14994861 0.35714286
-0.35488181 -1.14994861 0.50000000
-0.42631038 -1.07852004 0.50000000
-0.35488181 -1.07852004 0.57142857
-0.35488181 -0.93566290 -0.71428571
-0.35488181 -1.00709147 -0.64285714
-0.35488181 -1.00709147 0.64285714
-0.35488181 -0.93566290 0.71428571
-0.35488181 -0.79280576 -0.85714286
-0.35488181 -0.86423433 -0.78571429
-0.35488181 -0.86423433 0.78571429
-0.35488181 -0.79280576 0.85714286
-0.42631038 -0.64994861 -0.92857143
-0.35488181 -0.64994861 -1.00000000
-0.35488181 -0.72137718 -0.92857143
-0.35488181 -0.72137718 0.92857143
-0.42631038 -0.64994861 0.92857143
-0.35488181 -0.64994861 1.00000000
-0.35488181 -0.50709147 -1.00000000
-0.35488181 -0.50709147 1.00000000
-0.35488181 -0.36423433 -1.00000000
-0.35488181 -0.36423433 1.00000000
-0.35488181 -0.22137718 -1.00000000
-0.35488181 -0.22137718 1.00000000
-0.35488181 -0.07852004 -1.00000000
-0.35488181 -0.07852004 1.00000000
-0.35488181 0.06433710 -1.00000000
-0.35488181 0.06433710 1.00000000
-0.35488181 0.20719424 -1.00000000
-0.35488181 0.20719424 1.00000000
-0.35488181 0.35005139 -1.00000000
-0.35488181 0.35005139 1.00000000
-0.35488181 0.49290853 -1.00000000
-0.35488181 0.49290853 1.00000000
-0.35488181 0.63576567 -1.00000000
-0.42631038 0.63576567 0.92857143
-0.35488181 0.63576567 1.00000000
-0.35488181 0.70719424 -0.92857143
-0.35488181 0.77862282 -0.85714286
-0.35488181 0.70719424 0.92857143
-0.35488181 0.77862282 0.85714286
-0.42631038 0.92147996 -0.78571429
-0.35488181 0.92147996 -0.85714286
-0.42631038 0.92147996 0.64285714
-0.35488181 0.92147996 0.71428571
-0.35488181 0.85005139 0.78571429
-0.35488181 0.99290853 -0.78571429
-0.35488181 0.99290853 -0.64285714
-0.35488181 1.06433710 -0.57142857
-0.35488181 0.99290853 0.64285714
-0.35488181 1.06433710 0.57142857
-0.35488181 1.13576567 -0.50000000
-0.42631038 1.20719424 -0.35714286
-0.35488181 1.20719424 -0.42857143
-0.42631038 1.20719424 -0.21428571
-0.42631038 1.20719424 -0.07142857
-0.42631038 1.20719424 0.07142857
-0.42631038 1.20719424 0.21428571
-0.35488181 1.20719424 0.28571429
-0.35488181 1.13576567 0.35714286
-0.35488181 1.13576567 0.50000000
-0.35488181 1.27862282 -0.35714286
-0.35488181 1.27862282 -0.21428571
-0.35488181 1.27862282 -0.07142857
-0.35488181 1.27862282 0.07142857
-0.35488181 1.27862282 0.21428571
-0.21202467 -1.22137718 -0.42857143
-0.21202467 -1.29280576 -0.35714286
-0.21202467 -1.29280576 -0.21428571
-0.21202467 -1.29280576 -0.07142857
-0.21202467 -1.29280576 0.07142857
-0.21202467 -1.29280576 0.21428571
-0.21202467 -1.22137718 0.28571429
-0.21202467 -1.07852004 -0.57142857
-0.21202467 -1.14994861 -0.50000000
-0.21202467 -1.14994861 0.35714286
-0.21202467 -1.14994861 0.50000000
-0.21202467 -1.14994861 0.64285714
-0.28345324 -1.07852004 0.64285714
-0.21202467 -1.07852004 0.71428571
-0.28345324 -0.93566290 -0.78571429
-0.21202467 -0.93566290 -0.85714286
-0.21202467 -1.00709147 -0.78571429
-0.21202467 -1.00709147 -0.64285714
-0.21202467 -1.00709147 0.78571429
-0.28345324 -0.93566290 0.78571429
-0.21202467 -0.93566290 0.85714286
-0.21202467 -0.79280576 -0.85714286
-0.21202467 -0.79280576 0.85714286
-0.21202467 -0.64994861 -1.00000000
-0.21202467 -0.72137718 -0.92857143
-0.21202467 -0.72137718 0.92857143
-0.21202467 -0.64994861 1.00000000
-0.21202467 -0.50709147 -1.00000000
-0.21202467 -0.50709147 1.00000000
-0.21202467 -0.36423433 -1.00000000
-0.21202467 -0.36423433 1.00000000
-0.21202467 -0.22137718 -1.00000000
-0.21202467 -0.22137718 1.00000000
-0.21202467 -0.07852004 -1.00000000
-0.21202467 -0.07852004 1.00000000
-0.21202467 0.06433710 -1.00000000
-0.21202467 0.06433710 1.00000000
-0.21202467 0.20719424 -1.00000000
-0.21202467 0.20719424 1.00000000
-0.21202467 0.35005139 -1.00000000
-0.21202467 0.35005139 1.00000000
-0.21202467 0.49290853 -1.00000000
-0.21202467 0.49290853 1.00000000
-0.21202467 0.63576567 -1.00000000
-0.21202467 0.63576567 1.00000000
-0.28345324 0.77862282 -0.92857143
-0.21202467 0.77862282 -1.00000000
-0.21202467 0.70719424 0.92857143
-0.21202467 0.77862282 0.85714286
-0.21202467 0.85005139 -0.92857143
-0.21202467 0.92147996 -0.85714286
-0.28345324 0.92147996 0.78571429
-0.21202467 0.92147996 0.85714286
-0.21202467 0.99290853 -0.78571429
-0.28345324 1.06433710 -0.64285714
-0.21202467 1.06433710 -0.71428571
-0.28345324 1.06433710 0.64285714
-0.21202467 1.06433710 0.71428571
-0.21202467 0.99290853 0.78571429
-0.21202467 1.13576567 -0.64285714
-0.21202467 1.13576567 -0.50000000
-0.21202467 1.20719424 -0.42857143
-0.21202467 1.13576567 0.35714286
-0.21202467 1.20719424 0.28571429
-0.21202467 1.13576567 0.50000000
-0.21202467 1.13576567 0.64285714
-0.21202467 1.27862282 -0.35714286
-0.21202467 1.27862282 -0.21428571
-0.21202467 1.27862282 -0.07142857
-0.21202467 1.27862282 0.07142857
-0.21202467 1.27862282 0.21428571
-0.06916752 -1.22137718 -0.42857143
-0.06916752 -1.29280576 -0.35714286
-0.06916752 -1.29280576 -0.21428571
-0.06916752 -1.29280576 -0.07142857
-0.06916752 -1.29280576 0.07142857
-0.06916752 -1.29280576 0.21428571
-0.06916752 -1.22137718 0.28571429
-0.14059609 -1.07852004 -0.64285714
-0.06916752 -1.07852004 -0.71428571
-0.06916752 -1.14994861 -0.64285714
-0.06916752 -1.14994861 -0.50000000
-0.06916752 -1.14994861 0.35714286
-0.06916752 -1.14994861 0.50000000
-0.06916752 -1.14994861 0.64285714
-0.06916752 -1.07852004 0.71428571
-0.06916752 -0.93566290 -0.85714286
-0.06916752 -1.00709147 -0.78571429
-0.06916752 -1.00709147 0.78571429
-0.06916752 -0.93566290 0.85714286
-0.06916752 -0.79280576 -0.85714286
-0.06916752 -0.79280576 0.85714286
-0.06916752 -0.64994861 -1.00000000
-0.06916752 -0.72137718 -0.92857143
-0.06916752 -0.72137718 0.92857143
-0.06916752 -0.64994861 1.00000000
-0.06916752 -0.50709147 -1.00000000
-0.06916752 -0.50709147 1.00000000
-0.06916752 -0.36423433 -1.00000000
-0.06916752 -0.36423433 1.00000000
-0.06916752 -0.22137718 -1.00000000
-0.06916752 -0.22137718 1.00000000
-0.06916752 -0.07852004 -1.00000000
-0.06916752 -0.07852004 1.00000000
-0.06916752 0.06433710 -1.00000000
-0.06916752 0.06433710 1.00000000
-0.06916752 0.20719424 -1.00000000
-0.06916752 0.20719424 1.00000000
-0.06916752 0.35005139 -1.00000000
-0.06916752 0.35005139 1.00000000
-0.06916752 0.49290853 -1.00000000
-0.06916752 0.49290853 1.00000000
-0.06916752 0.63576567 -1.00000000
-0.06916752 0.63576567 1.00000000
-0.06916752 0.77862282 -1.00000000
-0.14059609 0.77862282 0.92857143
-0.06916752 0.77862282 1.00000000
-0.06916752 0.85005139 -0.92857143
-0.06916752 0.92147996 -0.85714286
-0.06916752 0.85005139 0.92857143
-0.06916752 0.92147996 0.85714286
-0.06916752 0.99290853 -0.78571429
-0.06916752 1.06433710 -0.71428571
-0.06916752 0.99290853 0.78571429
-0.06916752 1.06433710 0.71428571
-0.06916752 1.13576567 -0.64285714
-0.06916752 1.13576567 -0.50000000
-0.06916752 1.20719424 -0.42857143
-0.14059609 1.20719424 0.35714286
-0.06916752 1.20719424 0.42857143
-0.06916752 1.13576567 0.50000000
-0.06916752 1.13576567 0.64285714
-0.06916752 1.27862282 -0.35714286
-0.06916752 1.27862282 -0.21428571
-0.06916752 1.27862282 -0.07142857
-0.06916752 1.27862282 0.07142857
-0.06916752 1.27862282 0.21428571
-0.06916752 1.27862282 0.35714286
0.07368962 -1.22137718 -0.42857143
0.07368962 -1.29280576 -0.35714286
0.07368962 -1.29280576 -0.21428571
0.07368962 -1.29280576 -0.07142857
0.07368962 -1.29280576 0.07142857
0.07368962 -1.29280576 0.21428571
0.07368962 -1.22137718 0.28571429
0.07368962 -1.07852004 -0.71428571
0.07368962 -1.14994861 -0.64285714
0.07368962 -1.14994861 -0.50000000
0.07368962 -1.14994861 0.35714286
0.07368962 -1.14994861 0.50000000
0.07368962 -1.14994861 0.64285714
0.07368962 -1.07852004 0.71428571
0.07368962 -0.93566290 -0.85714286
0.07368962 -1.00709147 -0.78571429
0.07368962 -1.00709147 0.78571429
0.07368962 -0.93566290 0.85714286
0.07368962 -0.79280576 -0.85714286
0.07368962 -0.79280576 0.85714286
0.07368962 -0.64994861 -1.00000000
0.07368962 -0.72137718 -0.92857143
0.07368962 -0.72137718 0.92857143
0.07368962 -0.64994861 1.00000000
0.07368962 -0.50709147 -1.00000000
0.07368962 -0.50709147 1.00000000
0.07368962 -0.36423433 -1.00000000
0.07368962 -0.36423433 1.00000000
0.07368962 -0.22137718 -1.00000000
0.07368962 -0.22137718 1.00000000
0.07368962 -0.07852004 -1.00000000
0.07368962 -0.07852004 1.00000000
0.07368962 0.06433710 -1.00000000
0.07368962 0.06433710 1.00000000
0.07368962 0.20719424 -1.00000000
0.07368962 0.20719424 1.00000000
0.07368962 0.35005139 -1.00000000
0.07368962 0.35005139 1.00000000
0.07368962 0.49290853 -1.00000000
0.07368962 0.49290853 1.00000000
0.07368962 0.63576567 -1.00000000
0.07368962 0.63576567 1.00000000
0.07368962 0.77862282 -1.00000000
0.07368962 0.77862282 1.00000000
0.07368962 0.85005139 -0.92857143
0.07368962 0.92147996 -0.85714286
0.07368962 0.85005139 0.92857143
0.07368962 0.92147996 0.85714286
0.07368962 0.99290853 -0.78571429
0.07368962 1.06433710 -0.71428571
0.07368962 0.99290853 0.78571429
0.07368962 1.06433710 0.71428571
0.07368962 1.13576567 -0.64285714
0.07368962 1.13576567 -0.50000000
0.07368962 1.20719424 -0.42857143
0.07368962 1.13576567 0.50000000
0.07368962 1.20719424 0.42857143
0.07368962 1.13576567 0.64285714
0.07368962 1.27862282 -0.35714286
0.07368962 1.27862282 -0.21428571
0.07368962 1.27862282 -0.07142857
0.07368962 1.27862282 0.07142857
0.07368962 1.27862282 0.21428571
0.07368962 1.27862282 0.35714286
0.14511819 -1.22137718 -0.35714286
0.21654676 -1.22137718 -0.28571429
0.21654676 -1.29280576 -0.21428571
0.21654676 -1.29280576 -0.07142857
0.21654676 -1.29280576 0.07142857
0.21654676 -1.29280576 0.21428571
0.21654676 -1.22137718 0.28571429
0.21654676 -1.07852004 -0.71428571
0.21654676 -1.14994861 -0.64285714
0.21654676 -1.14994861 -0.50000000
0.21654676 -1.14994861 -0.35714286
0.21654676 -1.14994861 0.35714286
0.21654676 -1.14994861 0.50000000
0.21654676 -1.14994861 0.64285714
0.21654676 -1.07852004 0.71428571
0.21654676 -0.93566290 -0.85714286
0.21654676 -1.00709147 -0.78571429
0.21654676 -1.00709147 0.78571429
0.21654676 -0.93566290 0.85714286
0.21654676 -0.79280576 -0.85714286
0.21654676 -0.79280576 0.85714286
0.21654676 -0.64994861 -1.00000000
0.21654676 -0.72137718 -0.92857143
0.21654676 -0.72137718 0.92857143
0.21654676 -0.64994861 1.00000000
0.21654676 -0.50709147 -1.00000000
0.21654676 -0.50709147 1.00000000
0.21654676 -0.36423433 -1.00000000
0.21654676 -0.36423433 1.00000000
0.21654676 -0.22137718 -1.00000000
0.21654676 -0.22137718 1.00000000
0.21654676 -0.07852004 -1.00000000
0.21654676 -0.07852004 1.00000000
0.21654676 0.06433710 -1.00000000
0.21654676 0.06433710 1.00000000
0.21654676 0.20719424 -1.00000000
0.21654676 0.20719424 1.00000000
0.21654676 0.35005139 -1.00000000
0.21654676 0.35005139 1.00000000
0.21654676 0.49290853 -1.00000000
0.21654676 0.49290853 1.00000000
0.21654676 0.63576567 -1.00000000
0.21654676 0.63576567 1.00000000
0.21654676 0.77862282 -1.00000000
0.14511819 0.77862282 0.92857143
0.21654676 0.70719424 0.92857143
0.21654676 0.77862282 0.85714286
0.21654676 0.85005139 -0.92857143
0.21654676 0.92147996 -0.85714286
0.21654676 0.92147996 0.85714286
0.21654676 0.99290853 -0.78571429
0.21654676 1.06433710 -0.71428571
0.21654676 0.99290853 0.78571429
0.21654676 1.06433710 0.71428571
0.21654676 1.13576567 -0.64285714
0.21654676 1.13576567 -0.50000000
0.21654676 1.20719424 -0.42857143
0.14511819 1.20719424 0.35714286
0.21654676 1.13576567 0.35714286
0.21654676 1.20719424 0.28571429
0.21654676 1.13576567 0.50000000
0.21654676 1.13576567 0.64285714
0.21654676 1.27862282 -0.35714286
0.21654676 1.27862282 -0.21428571
0.21654676 1.27862282 -0.07142857
0.21654676 1.27862282 0.07142857
0.21654676 1.27862282 0.21428571
0.35940391 -1.22137718 -0.28571429
0.35940391 -1.29280576 -0.21428571
0.35940391 -1.29280576 -0.07142857
0.35940391 -1.29280576 0.07142857
0.28797533 -1.22137718 0.21428571
0.35940391 -1.22137718 0.14285714
0.28797533 -1.07852004 -0.64285714
0.35940391 -1.07852004 -0.57142857
0.35940391 -1.14994861 -0.50000000
0.35940391 -1.14994861 -0.35714286
0.35940391 -1.14994861 0.21428571
0.35940391 -1.14994861 0.35714286
0.35940391 -1.14994861 0.50000000
0.28797533 -1.07852004 0.64285714
0.35940391 -1.07852004 0.57142857
0.28797533 -0.93566290 -0.78571429
0.35940391 -0.93566290 -0.71428571
0.35940391 -1.00709147 -0.64285714
0.35940391 -1.00709147 0.64285714
0.28797533 -0.93566290 0.78571429
0.35940391 -0.93566290 0.71428571
0.35940391 -0.79280576 -0.85714286
0.35940391 -0.86423433 -0.78571429
0.35940391 -0.86423433 0.78571429
0.35940391 -0.79280576 0.85714286
0.35940391 -0.64994861 -1.00000000
0.35940391 -0.72137718 -0.92857143
0.35940391 -0.72137718 0.92857143
0.35940391 -0.64994861 1.00000000
0.35940391 -0.50709147 -1.00000000
0.35940391 -0.50709147 1.00000000
0.35940391 -0.36423433 -1.00000000
0.35940391 -0.36423433 1.00000000
0.35940391 -0.22137718 -1.00000000
0.35940391 -0.22137718 1.00000000
0.35940391 -0.07852004 -1.00000000
0.35940391 -0.07852004 1.00000000
0.35940391 0.06433710 -1.00000000
0.35940391 0.06433710 1.00000000
0.35940391 0.20719424 -1.00000000
0.35940391 0.20719424 1.00000000
0.35940391 0.35005139 -1.00000000
0.35940391 0.35005139 1.00000000
0.35940391 0.49290853 -1.00000000
0.35940391 0.49290853 1.00000000
0.35940391 0.63576567 -1.00000000
0.35940391 0.63576567 1.00000000
0.35940391 0.77862282 -1.00000000
0.35940391 0.70719424 0.92857143
0.35940391 0.77862282 0.85714286
0.35940391 0.85005139 -0.92857143
0.35940391 0.92147996 -0.85714286
0.28797533 0.92147996 0.78571429
0.35940391 0.85005139 0.78571429
0.35940391 0.92147996 0.71428571
0.35940391 0.99290853 -0.78571429
0.28797533 1.06433710 -0.64285714
0.35940391 0.99290853 -0.64285714
0.35940391 1.06433710 -0.57142857
0.28797533 1.06433710 0.50000000
0.35940391 0.99290853 0.50000000
0.35940391 1.06433710 0.42857143
0.28797533 1.06433710 0.64285714
0.35940391 0.99290853 0.64285714
0.35940391 1.13576567 -0.50000000
0.28797533 1.20719424 -0.35714286
0.35940391 1.13576567 -0.35714286
0.35940391 1.20719424 -0.28571429
0.35940391 1.13576567 0.35714286
0.35940391 1.20719424 0.28571429
0.35940391 1.27862282 -0.21428571
0.35940391 1.27862282 -0.07142857
0.35940391 1.27862282 0.07142857
0.35940391 1.27862282 0.21428571
0.43083248 -1.22137718 -0.21428571
0.43083248 -1.22137718 -0.07142857
0.43083248 -1.22137718 0.07142857
0.50226105 -1.07852004 -0.57142857
0.50226105 -1.14994861 -0.50000000
0.50226105 -1.14994861 -0.35714286
0.50226105 -1.14994861 -0.21428571
0.50226105 -1.14994861 -0.07142857
0.50226105 -1.14994861 0.07142857
0.50226105 -1.14994861 0.21428571
0.50226105 -1.14994861 0.35714286
0.50226105 -1.14994861 0.50000000
0.50226105 -1.07852004 0.57142857
0.50226105 -0.93566290 -0.71428571
0.50226105 -1.00709147 -0.64285714
0.50226105 -1.00709147 0.64285714
0.50226105 -0.93566290 0.71428571
0.50226105 -0.79280576 -0.85714286
0.50226105 -0.86423433 -0.78571429
0.50226105 -0.86423433 0.78571429
0.50226105 -0.79280576 0.85714286
0.43083248 -0.64994861 -0.92857143
0.50226105 -0.64994861 -0.85714286
0.43083248 -0.64994861 0.92857143
0.50226105 -0.64994861 0.85714286
0.50226105 -0.50709147 -1.00000000
0.50226105 -0.57852004 -0.92857143
0.50226105 -0.57852004 0.92857143
0.50226105 -0.50709147 1.00000000
0.50226105 -0.36423433 -1.00000000
0.50226105 -0.36423433 1.00000000
0.50226105 -0.22137718 -1.00000000
0.50226105 -0.22137718 1.00000000
0.50226105 -0.07852004 -1.00000000
0.50226105 -0.07852004 1.00000000
0.50226105 0.06433710 -1.00000000
0.50226105 0.06433710 1.00000000
0.50226105 0.20719424 -1.00000000
0.50226105 0.20719424 1.00000000
0.50226105 0.35005139 -1.00000000
0.50226105 0.35005139 1.00000000
0.50226105 0.49290853 -1.00000000
0.50226105 0.49290853 1.00000000
0.50226105 0.63576567 -1.00000000
0.50226105 0.63576567 1.00000000
0.50226105 0.70719424 -0.92857143
0.43083248 0.77862282 -0.92857143
0.50226105 0.77862282 -0.85714286
0.50226105 0.70719424 0.92857143
0.50226105 0.77862282 0.85714286
0.43083248 0.92147996 -0.78571429
0.50226105 0.85005139 -0.78571429
0.50226105 0.92147996 -0.71428571
0.50226105 0.85005139 0.78571429
0.50226105 0.92147996 0.71428571
0.50226105 0.99290853 -0.64285714
0.50226105 1.06433710 -0.57142857
0.50226105 0.99290853 0.50000000
0.50226105 1.06433710 0.42857143
0.50226105 0.99290853 0.64285714
0.50226105 1.13576567 -0.50000000
0.50226105 1.13576567 -0.35714286
0.43083248 1.20719424 -0.21428571
0.50226105 1.13576567 -0.21428571
0.43083248 1.20719424 -0.07142857
0.50226105 1.13576567 -0.07142857
0.43083248 1.20719424 0.07142857
0.50226105 1.13576567 0.07142857
0.43083248 1.20719424 0.21428571
0.50226105 1.13576567 0.21428571
0.50226105 1.13576567 0.35714286
0.57368962 -1.07852004 -0.50000000
0.57368962 -1.07852004 -0.35714286
0.64511819 -1.07852004 -0.28571429
0.64511819 -1.14994861 -0.21428571
0.64511819 -1.14994861 -0.07142857
0.64511819 -1.14994861 0.07142857
0.64511819 -1.14994861 0.21428571
0.57368962 -1.07852004 0.35714286
0.64511819 -1.07852004 0.28571429
0.57368962 -1.07852004 0.50000000
0.57368962 -0.93566290 -0.64285714
0.64511819 -0.93566290 -0.57142857
0.64511819 -1.00709147 -0.50000000
0.64511819 -1.00709147 -0.35714286
0.64511819 -1.00709147 0.35714286
0.64511819 -1.00709147 0.50000000
0.57368962 -0.93566290 0.64285714
0.64511819 -0.93566290 0.57142857
0.57368962 -0.79280576 -0.78571429
0.64511819 -0.79280576 -0.71428571
0.64511819 -0.86423433 -0.64285714
0.64511819 -0.86423433 0.64285714
0.57368962 -0.79280576 0.78571429
0.64511819 -0.79280576 0.71428571
0.64511819 -0.64994861 -0.85714286
0.64511819 -0.72137718 -0.78571429
0.64511819 -0.72137718 0.78571429
0.64511819 -0.64994861 0.85714286
0.57368962 -0.50709147 -0.92857143
0.64511819 -0.50709147 -0.85714286
0.57368962 -0.50709147 0.92857143
0.64511819 -0.50709147 0.85714286
0.64511819 -0.36423433 -1.00000000
0.64511819 -0.43566290 -0.92857143
0.64511819 -0.43566290 0.92857143
0.64511819 -0.36423433 1.00000000
0.64511819 -0.22137718 -1.00000000
0.64511819 -0.22137718 1.00000000
0.64511819 -0.07852004 -1.00000000
0.64511819 -0.07852004 1.00000000
0.64511819 0.06433710 -1.00000000
0.64511819 0.06433710 1.00000000
0.64511819 0.20719424 -1.00000000
0.64511819 0.20719424 1.00000000
0.64511819 0.35005139 -1.00000000
0.64511819 0.35005139 1.00000000
0.64511819 0.49290853 -1.00000000
0.64511819 0.49290853 1.00000000
0.64511819 0.56433710 -0.92857143
0.57368962 0.63576567 -0.92857143
0.64511819 0.63576567 -0.85714286
0.57368962 0.63576567 0.92857143
0.64511819 0.56433710 0.92857143
0.64511819 0.63576567 0.85714286
0.64511819 0.77862282 -0.85714286
0.57368962 0.77862282 0.78571429
0.64511819 0.70719424 0.78571429
0.64511819 0.77862282 0.71428571
0.64511819 0.85005139 -0.78571429
0.57368962 0.92147996 -0.64285714
0.64511819 0.85005139 -0.64285714
0.64511819 0.92147996 -0.57142857
0.57368962 0.92147996 0.64285714
0.64511819 0.85005139 0.64285714
0.64511819 0.92147996 0.57142857
0.57368962 1.06433710 -0.50000000
0.64511819 0.99290853 -0.50000000
0.64511819 1.06433710 -0.42857143
0.57368962 1.06433710 0.35714286
0.64511819 0.99290853 0.35714286
0.64511819 1.06433710 0.28571429
0.64511819 0.99290853 0.50000000
0.64511819 1.13576567 -0.35714286
0.64511819 1.13576567 -0.21428571
0.64511819 1.13576567 -0.07142857
0.64511819 1.13576567 0.07142857
0.64511819 1.13576567 0.21428571
0.71654676 -1.07852004 -0.21428571
0.71654676 -1.07852004 -0.07142857
0.71654676 -1.07852004 0.07142857
0.71654676 -1.07852004 0.21428571
0.71654676 -0.93566290 -0.50000000
0.78797533 -0.93566290 -0.42857143
0.78797533 -1.00709147 -0.35714286
0.78797533 -1.00709147 -0.21428571
0.78797533 -1.00709147 -0.07142857
0.78797533 -1.00709147 0.07142857
0.78797533 -1.00709147 0.21428571
0.71654676 -0.93566290 0.35714286
0.78797533 -0.93566290 0.28571429
0.71654676 -0.93566290 0.50000000
0.71654676 -0.79280576 -0.64285714
0.78797533 -0.79280576 -0.57142857
0.78797533 -0.86423433 -0.50000000
0.78797533 -0.86423433 0.35714286
0.78797533 -0.86423433 0.50000000
0.71654676 -0.79280576 0.64285714
0.78797533 -0.79280576 0.57142857
0.71654676 -0.64994861 -0.78571429
0.78797533 -0.64994861 -0.71428571
0.78797533 -0.72137718 -0.64285714
0.78797533 -0.72137718 0.64285714
0.71654676 -0.64994861 0.78571429
0.78797533 -0.64994861 0.71428571
0.78797533 -0.50709147 -0.85714286
0.78797533 -0.57852004 -0.78571429
0.78797533 -0.57852004 0.78571429
0.78797533 -0.50709147 0.85714286
0.71654676 -0.36423433 -0.92857143
0.78797533 -0.36423433 -0.85714286
0.71654676 -0.36423433 0.92857143
0.78797533 -0.36423433 0.85714286
0.71654676 -0.22137718 -0.92857143
0.78797533 -0.22137718 -0.85714286
0.71654676 -0.22137718 0.92857143
0.78797533 -0.22137718 0.85714286
0.71654676 -0.07852004 -0.92857143
0.78797533 -0.07852004 -0.85714286
0.78797533 -0.14994861 0.92857143
0.78797533 -0.07852004 1.00000000
0.71654676 0.06433710 -0.92857143
0.78797533 0.06433710 -0.85714286
0.78797533 0.06433710 1.00000000
0.71654676 0.20719424 -0.92857143
0.78797533 0.20719424 -0.85714286
0.78797533 0.20719424 1.00000000
0.71654676 0.35005139 -0.92857143
0.78797533 0.35005139 -0.85714286
0.78797533 0.35005139 1.00000000
0.71654676 0.49290853 -0.92857143
0.78797533 0.49290853 -0.85714286
0.78797533 0.49290853 1.00000000
0.78797533 0.63576567 -0.85714286
0.71654676 0.63576567 0.78571429
0.78797533 0.56433710 0.78571429
0.78797533 0.63576567 0.71428571
0.78797533 0.56433710 0.92857143
0.78797533 0.70719424 -0.78571429
0.71654676 0.77862282 -0.78571429
0.71654676 0.77862282 -0.64285714
0.78797533 0.70719424 -0.64285714
0.78797533 0.77862282 -0.57142857
0.78797533 0.77862282 0.71428571
0.71654676 0.92147996 -0.50000000
0.78797533 0.85005139 -0.50000000
0.78797533 0.92147996 -0.42857143
0.71654676 0.92147996 0.35714286
0.78797533 0.85005139 0.35714286
0.78797533 0.92147996 0.28571429
0.71654676 0.92147996 0.50000000
0.78797533 0.85005139 0.50000000
0.78797533 0.85005139 0.64285714
0.71654676 1.06433710 -0.35714286
0.78797533 0.99290853 -0.35714286
0.71654676 1.06433710 -0.21428571
0.78797533 0.99290853 -0.21428571
0.71654676 1.06433710 -0.07142857
0.78797533 0.99290853 -0.07142857
0.71654676 1.06433710 0.07142857
0.78797533 0.99290853 0.07142857
0.71654676 1.06433710 0.21428571
0.78797533 0.99290853 0.21428571
0.85940391 -0.93566290 -0.35714286
0.85940391 -0.93566290 -0.21428571
0.85940391 -0.93566290 -0.07142857
0.85940391 -0.93566290 0.07142857
0.85940391 -0.93566290 0.21428571
0.85940391 -0.79280576 -0.50000000
0.93083248 -0.79280576 -0.42857143
0.93083248 -0.86423433 -0.35714286
0.93083248 -0.86423433 -0.21428571
0.93083248 -0.86423433 -0.07142857
0.93083248 -0.86423433 0.07142857
0.93083248 -0.86423433 0.21428571
0.85940391 -0.79280576 0.35714286
0.93083248 -0.79280576 0.28571429
0.85940391 -0.79280576 0.50000000
0.85940391 -0.64994861 -0.64285714
0.93083248 -0.64994861 -0.57142857
0.93083248 -0.72137718 -0.50000000
0.93083248 -0.72137718 0.35714286
0.93083248 -0.72137718 0.50000000
0.85940391 -0.64994861 0.64285714
0.93083248 -0.64994861 0.57142857
0.85940391 -0.50709147 -0.78571429
0.93083248 -0.50709147 -0.71428571
0.93083248 -0.57852004 -0.64285714
0.93083248 -0.57852004 0.64285714
0.85940391 -0.50709147 0.78571429
0.93083248 -0.50709147 0.71428571
0.85940391 -0.36423433 -0.78571429
0.93083248 -0.36423433 -0.71428571
0.85940391 -0.36423433 0.78571429
0.93083248 -0.36423433 0.71428571
0.93083248 -0.22137718 -0.85714286
0.93083248 -0.29280576 -0.78571429
0.93083248 -0.29280576 0.78571429
0.93083248 -0.22137718 0.85714286
0.93083248 -0.07852004 -0.85714286
0.85940391 -0.07852004 0.92857143
0.93083248 -0.07852004 0.85714286
0.93083248 0.06433710 -0.85714286
0.85940391 0.06433710 0.92857143
0.93083248 0.06433710 0.85714286
0.93083248 0.20719424 -0.85714286
0.85940391 0.20719424 0.92857143
0.93083248 0.20719424 0.85714286
0.93083248 0.35005139 -0.85714286
0.85940391 0.35005139 0.78571429
0.93083248 0.27862282 0.78571429
0.93083248 0.35005139 0.71428571
0.85940391 0.35005139 0.92857143
0.93083248 0.42147996 -0.78571429
0.85940391 0.49290853 -0.78571429
0.93083248 0.49290853 -0.71428571
0.85940391 0.49290853 0.78571429
0.93083248 0.49290853 0.71428571
0.85940391 0.49290853 0.92857143
0.85940391 0.63576567 -0.78571429
0.93083248 0.56433710 -0.64285714
0.85940391 0.63576567 -0.64285714
0.93083248 0.63576567 -0.57142857
0.93083248 0.63576567 0.71428571
0.85940391 0.77862282 -0.50000000
0.93083248 0.70719424 -0.50000000
0.93083248 0.77862282 -0.42857143
0.93083248 0.77862282 0.71428571
0.85940391 0.92147996 -0.35714286
0.93083248 0.85005139 -0.35714286
0.85940391 0.92147996 -0.21428571
0.93083248 0.85005139 -0.21428571
0.85940391 0.92147996 -0.07142857
0.93083248 0.85005139 -0.07142857
0.85940391 0.92147996 0.07142857
0.93083248 0.85005139 0.07142857
0.85940391 0.92147996 0.21428571
0.93083248 0.85005139 0.21428571
0.93083248 0.85005139 0.35714286
0.93083248 0.85005139 0.50000000
0.93083248 0.85005139 0.64285714
1.00226105 -0.79280576 -0.35714286
1.00226105 -0.79280576 -0.21428571
1.00226105 -0.79280576 -0.07142857
1.00226105 -0.79280576 0.07142857
1.00226105 -0.79280576 0.21428571
1.00226105 -0.64994861 -0.50000000
1.00226105 -0.64994861 -0.35714286
1.07368962 -0.64994861 -0.28571429
1.07368962 -0.72137718 -0.21428571
1.07368962 -0.72137718 -0.07142857
1.07368962 -0.72137718 0.07142857
1.07368962 -0.64994861 0.14285714
1.00226105 -0.64994861 0.21428571
1.00226105 -0.64994861 0.35714286
1.00226105 -0.64994861 0.50000000
1.00226105 -0.50709147 -0.64285714
1.07368962 -0.50709147 -0.57142857
1.07368962 -0.57852004 -0.50000000
1.07368962 -0.57852004 -0.35714286
1.07368962 -0.57852004 0.21428571
1.07368962 -0.50709147 0.28571429
1.00226105 -0.50709147 0.35714286
1.00226105 -0.50709147 0.50000000
1.00226105 -0.50709147 0.64285714
1.00226105 -0.36423433 -0.64285714
1.07368962 -0.36423433 -0.57142857
1.07368962 -0.43566290 0.35714286
1.07368962 -0.43566290 0.50000000
1.07368962 -0.36423433 0.57142857
1.00226105 -0.36423433 0.64285714
1.00226105 -0.22137718 -0.78571429
1.07368962 -0.22137718 -0.71428571
1.07368962 -0.29280576 -0.64285714
1.00226105 -0.22137718 0.64285714
1.07368962 -0.22137718 0.57142857
1.00226105 -0.22137718 0.78571429
1.00226105 -0.07852004 -0.78571429
1.07368962 -0.07852004 -0.71428571
1.00226105 -0.07852004 0.64285714
1.07368962 -0.07852004 0.57142857
1.00226105 -0.07852004 0.78571429
1.00226105 0.06433710 -0.78571429
1.07368962 0.06433710 -0.71428571
1.00226105 0.06433710 0.64285714
1.07368962 0.06433710 0.57142857
1.00226105 0.06433710 0.78571429
1.00226105 0.20719424 -0.78571429
1.07368962 0.20719424 -0.71428571
1.00226105 0.20719424 0.64285714
1.07368962 0.20719424 0.57142857
1.00226105 0.20719424 0.78571429
1.00226105 0.35005139 -0.78571429
1.07368962 0.27862282 -0.64285714
1.00226105 0.35005139 -0.64285714
1.07368962 0.35005139 -0.57142857
1.00226105 0.35005139 0.64285714
1.07368962 0.35005139 0.57142857
1.00226105 0.49290853 -0.64285714
1.07368962 0.49290853 -0.57142857
1.00226105 0.49290853 0.64285714
1.07368962 0.49290853 0.57142857
1.00226105 0.63576567 -0.50000000
1.07368962 0.56433710 -0.50000000
1.00226105 0.63576567 -0.35714286
1.07368962 0.56433710 -0.35714286
1.07368962 0.63576567 -0.28571429
1.00226105 0.63576567 0.50000000
1.07368962 0.56433710 0.50000000
1.07368962 0.63576567 0.42857143
1.00226105 0.63576567 0.64285714
1.00226105 0.77862282 -0.35714286
1.07368962 0.70719424 -0.21428571
1.00226105 0.77862282 -0.21428571
1.00226105 0.77862282 -0.07142857
1.07368962 0.70719424 -0.07142857
1.00226105 0.77862282 0.07142857
1.07368962 0.70719424 0.07142857
1.00226105 0.77862282 0.21428571
1.07368962 0.70719424 0.21428571
1.00226105 0.77862282 0.35714286
1.07368962 0.70719424 0.35714286
1.00226105 0.77862282 0.50000000
1.00226105 0.77862282 0.64285714
1.14511819 -0.64994861 -0.21428571
1.14511819 -0.64994861 -0.07142857
1.14511819 -0.64994861 0.07142857
1.14511819 -0.50709147 -0.50000000
1.14511819 -0.50709147 -0.35714286
1.14511819 -0.50709147 -0.21428571
1.14511819 -0.50709147 -0.07142857
1.14511819 -0.50709147 0.07142857
1.14511819 -0.50709147 0.21428571
1.14511819 -0.36423433 -0.50000000
1.14511819 -0.36423433 -0.35714286
1.21654676 -0.36423433 -0.28571429
1.21654676 -0.43566290 -0.21428571
1.21654676 -0.43566290 -0.07142857
1.21654676 -0.43566290 0.07142857
1.21654676 -0.36423433 0.14285714
1.14511819 -0.36423433 0.21428571
1.14511819 -0.36423433 0.35714286
1.14511819 -0.36423433 0.50000000
1.14511819 -0.22137718 -0.64285714
1.14511819 -0.22137718 -0.50000000
1.14511819 -0.22137718 -0.35714286
1.21654676 -0.22137718 -0.28571429
1.21654676 -0.29280576 0.21428571
1.21654676 -0.22137718 0.28571429
1.14511819 -0.22137718 0.35714286
1.14511819 -0.22137718 0.50000000
1.14511819 -0.07852004 -0.64285714
1.14511819 -0.07852004 -0.50000000
1.21654676 -0.07852004 -0.42857143
1.21654676 -0.14994861 -0.35714286
1.14511819 -0.07852004 0.35714286
1.21654676 -0.07852004 0.28571429
1.14511819 -0.07852004 0.50000000
1.14511819 0.06433710 -0.64285714
1.14511819 0.06433710 -0.50000000
1.21654676 -0.00709147 -0.35714286
1.14511819 0.06433710 -0.35714286
1.21654676 0.06433710 -0.28571429
1.14511819 0.06433710 0.35714286
1.21654676 0.06433710 0.28571429
1.14511819 0.06433710 0.50000000
1.14511819 0.20719424 -0.64285714
1.14511819 0.20719424 -0.50000000
1.14511819 0.20719424 -0.35714286
1.21654676 0.20719424 -0.28571429
1.14511819 0.20719424 0.35714286
1.21654676 0.20719424 0.28571429
1.14511819 0.20719424 0.50000000
1.14511819 0.35005139 -0.50000000
1.14511819 0.35005139 -0.35714286
1.21654676 0.35005139 -0.28571429
1.14511819 0.35005139 0.35714286
1.21654676 0.35005139 0.28571429
1.14511819 0.35005139 0.50000000
1.14511819 0.49290853 -0.50000000
1.14511819 0.49290853 -0.35714286
1.21654676 0.42147996 -0.21428571
1.14511819 0.49290853 -0.21428571
1.14511819 0.49290853 -0.07142857
1.21654676 0.42147996 -0.07142857
1.14511819 0.49290853 0.07142857
1.21654676 0.42147996 0.07142857
1.14511819 0.49290853 0.21428571
1.21654676 0.42147996 0.21428571
1.14511819 0.49290853 0.35714286
1.14511819 0.49290853 0.50000000
1.14511819 0.63576567 -0.21428571
1.14511819 0.63576567 -0.07142857
1.14511819 0.63576567 0.07142857
1.14511819 0.63576567 0.21428571
1.14511819 0.63576567 0.35714286
1.28797533 -0.36423433 -0.21428571
1.28797533 -0.36423433 -0.07142857
1.28797533 -0.36423433 0.07142857
1.28797533 -0.22137718 -0.21428571
1.28797533 -0.22137718 -0.07142857
1.28797533 -0.22137718 0.07142857
1.28797533 -0.22137718 0.21428571
1.28797533 -0.07852004 -0.35714286
1.28797533 -0.07852004 -0.21428571
1.28797533 -0.07852004 -0.07142857
1.28797533 -0.07852004 0.07142857
1.28797533 -0.07852004 0.21428571
1.28797533 0.06433710 -0.21428571
1.28797533 0.06433710 -0.07142857
1.28797533 0.06433710 0.07142857
1.28797533 0.06433710 0.21428571
1.28797533 0.20719424 -0.21428571
1.28797533 0.20719424 -0.07142857
1.28797533 0.20719424 0.07142857
1.28797533 0.20719424 0.21428571
1.28797533 0.35005139 -0.21428571
1.28797533 0.35005139 -0.07142857
1.28797533 0.35005139 0.07142857
1.28797533 0.35005139 0.21428571
3 2 1 0
3 4 3 0
3 0 3 2
3 6 5 4
3 4 5 3
3 8 7 6
3 6 7 5
3 10 9 8
3 8 9 7
3 10 11 9
3 0 1 12
3 12 1 13
3 0 14 4
3 0 12 14
3 4 15 6
3 4 14 15
3 6 16 8
3 6 15 16
3 8 17 10
3 8 16 17
3 11 10 18
3 18 10 17
3 12 13 19
3 19 13 20
3 12 21 14
3 12 19 21
3 14 22 15
3 14 21 22
3 15 23 16
3 15 22 23
3 16 24 17
3 16 23 24
3 18 17 25
3 25 17 24
3 19 20 26
3 26 20 27
3 19 28 21
3 19 26 28
3 21 29 22
3 21 28 29
3 22 30 23
3 22 29 30
3 23 31 24
3 23 30 31
3 25 24 32
3 32 24 31
3 26 27 33
3 33 27 34
3 26 35 28
3 26 33 35
3 28 36 29
3 28 35 36
3 29 37 30
3 29 36 37
3 30 38 31
3 30 37 38
3 32 31 39
3 39 31 38
3 33 34 40
3 40 34 41
3 33 42 35
3 33 40 42
3 35 43 36
3 35 42 43
3 36 44 37
3 36 43 44
3 37 45 38
3 37 44 45
3 39 38 46
3 46 38 45
3 41 47 40
3 40 47 42
3 42 47 48
3 42 48 43
3 43 48 49
3 43 49 44
3 44 49 50
3 44 50 45
3 45 50 51
3 45 51 46
3 54 53 52
3 56 55 52
3 52 55 54
3 58 57 56
3 56 57 55
3 60 59 58
3 58 59 57
3 62 61 60
3 60 61 59
3 64 63 62
3 62 63 61
3 64 65 63
3 68 67 66
3 68 66 53
3 66 52 53
3 66 69 52
3 52 70 56
3 52 69 70
3 56 71 58
3 56 70 71
3 58 72 60
3 58 71 72
3 60 73 62
3 60 72 73
3 62 74 64
3 62 73 74
3 65 64 75
3 64 76 75
3 64 74 76
3 76 77 75
3 66 67 78
3 78 67 79
3 78 1 2
3 69 78 2
3 66 78 69
3 69 2 3
3 69 3 70
3 70 3 5
3 70 5 71
3 71 5 7
3 71 7 72
3 72 7 9
3 72 9 73
3 73 9 11
3 80 73 11
3 74 73 80
3 74 81 76
3 74 80 81
3 77 76 82
3 76 83 82
3 76 81 83
3 83 84 82
3 87 86 85
3 87 85 79
3 85 78 79
3 85 88 78
3 88 13 1
3 88 1 78
3 18 89 80
3 18 80 11
3 80 90 81
3 80 89 90
3 81 91 83
3 81 90 91
3 84 83 92
3 92 83 91
3 85 86 93
3 93 86 94
3 85 95 88
3 85 93 95
3 95 20 13
3 95 13 88
3 25 96 89
3 25 89 18
3 89 97 90
3 89 96 97
3 90 98 91
3 90 97 98
3 92 91 99
3 99 91 98
3 93 94 100
3 100 94 101
3 93 102 95
3 93 100 102
3 102 27 20
3 102 20 95
3 32 103 96
3 32 96 25
3 96 104 97
3 96 103 104
3 97 105 98
3 97 104 105
3 99 98 106
3 106 98 105
3 100 101 107
3 107 101 108
3 100 109 102
3 100 107 109
3 109 34 27
3 109 27 102
3 39 110 103
3 39 103 32
3 103 111 104
3 103 110 111
3 104 112 105
3 104 111 112
3 106 105 113
3 113 105 112
3 107 108 114
3 114 108 115
3 107 116 109
3 107 114 116
3 116 41 34
3 116 34 109
3 46 117 110
3 46 110 39
3 110 118 111
3 110 117 118
3 120 112 119
3 112 118 119
3 112 111 118
3 112 120 113
3 115 121 114
3 123 122 121
3 122 114 121
3 122 116 114
3 124 47 41
3 116 124 41
3 122 124 116
3 125 48 47
3 125 47 124
3 126 49 48
3 126 48 125
3 127 50 49
3 127 49 126
3 128 51 50
3 128 50 127
3 117 46 51
3 128 117 51
3 129 117 128
3 117 130 118
3 117 129 130
3 119 118 131
3 131 118 130
3 123 132 122
3 134 133 132
3 133 122 132
3 133 124 122
3 124 135 125
3 124 133 135
3 125 136 126
3 125 135 136
3 126 137 127
3 126 136 137
3 127 138 128
3 127 137 138
3 128 139 129
3 128 138 139
3 141 130 140
3 130 139 140
3 130 129 139
3 130 141 131
3 134 142 133
3 133 142 135
3 135 142 143
3 135 143 136
3 136 143 144
3 136 144 137
3 137 144 145
3 137 145 138
3 138 145 146
3 138 146 139
3 139 146 147
3 139 147 140
3 150 149 148
3 152 151 148
3 148 151 150
3 154 153 152
3 152 153 151
3 156 155 154
3 154 155 153
3 158 157 156
3 156 157 155
3 160 159 158
3 158 159 157
3 162 161 160
3 160 161 159
3 162 163 161
3 148 149 164
3 164 149 165
3 164 53 54
3 152 164 54
3 148 164 152
3 152 54 55
3 152 55 154
3 154 55 57
3 154 57 156
3 156 57 59
3 156 59 158
3 158 59 61
3 158 61 160
3 160 61 63
3 160 63 162
3 167 166 65
3 65 166 63
3 166 163 63
3 163 162 63
3 167 168 166
3 171 170 169
3 171 169 165
3 165 169 164
3 169 67 164
3 67 68 164
3 164 68 53
3 75 167 65
3 173 172 77
3 77 172 75
3 172 168 75
3 168 167 75
3 173 174 172
3 177 176 175
3 177 175 170
3 175 169 170
3 175 178 169
3 178 79 67
3 178 67 169
3 82 173 77
3 82 84 173
3 84 174 173
3 84 179 174
3 175 176 180
3 180 176 181
3 180 86 87
3 178 180 87
3 175 180 178
3 178 87 79
3 92 183 182
3 179 92 182
3 84 92 179
3 183 184 182
3 180 181 185
3 185 181 186
3 185 94 86
3 185 86 180
3 99 187 183
3 99 183 92
3 184 183 188
3 188 183 187
3 185 186 189
3 189 186 190
3 189 101 94
3 189 94 185
3 106 191 187
3 106 187 99
3 188 187 192
3 192 187 191
3 189 190 193
3 193 190 194
3 193 108 101
3 193 101 189
3 113 195 191
3 113 191 106
3 192 191 196
3 196 191 195
3 193 194 197
3 197 194 198
3 197 115 108
3 197 108 193
3 119 199 120
3 199 200 120
3 120 200 113
3 200 201 113
3 201 195 113
3 195 201 196
3 198 202 197
3 202 204 203
3 202 203 121
3 197 202 121
3 115 197 121
3 203 123 121
3 131 205 199
3 131 199 119
3 200 199 206
3 206 199 205
3 204 207 203
3 207 209 208
3 207 208 132
3 203 207 132
3 123 203 132
3 208 134 132
3 140 210 141
3 210 211 141
3 141 211 131
3 211 212 131
3 212 205 131
3 205 212 206
3 208 209 213
3 213 209 214
3 215 142 134
3 208 215 134
3 213 215 208
3 216 143 142
3 216 142 215
3 217 144 143
3 217 143 216
3 218 145 144
3 218 144 217
3 219 146 145
3 219 145 218
3 220 147 146
3 220 146 219
3 220 221 147
3 147 221 140
3 221 222 140
3 222 210 140
3 210 222 211
3 214 223 213
3 213 223 215
3 215 223 224
3 215 224 216
3 216 224 225
3 216 225 217
3 217 225 226
3 217 226 218
3 218 226 227
3 218 227 219
3 219 227 228
3 219 228 220
3 220 228 229
3 220 229 221
3 232 231 230
3 234 233 230
3 230 233 232
3 236 235 234
3 234 235 233
3 238 237 236
3 236 237 235
3 240 239 238
3 238 239 237
3 242 241 240
3 240 241 239
3 244 243 242
3 242 243 241
3 244 245 243
3 248 247 246
3 248 246 231
3 231 246 230
3 246 149 230
3 149 150 230
3 230 150 151
3 230 151 234
3 234 151 153
3 234 153 236
3 236 153 155
3 236 155 238
3 238 155 157
3 238 157 240
3 240 157 159
3 240 159 242
3 242 159 161
3 242 161 244
3 250 249 163
3 163 249 161
3 249 245 161
3 245 244 161
3 250 251 249
3 246 247 252
3 252 247 253
3 252 165 149
3 252 149 246
3 166 250 163
3 255 254 168
3 168 254 166
3 254 251 166
3 251 250 166
3 255 256 254
3 259 258 257
3 259 257 253
3 253 257 252
3 257 170 252
3 170 171 252
3 252 171 165
3 172 255 168
3 261 260 174
3 174 260 172
3 260 256 172
3 256 255 172
3 261 262 260
3 257 258 177
3 258 176 177
3 258 263 176
3 257 177 170
3 179 264 261
3 179 261 174
3 262 261 265
3 265 261 264
3 263 181 176
3 266 181 263
3 182 264 179
3 182 184 264
3 184 265 264
3 184 267 265
3 266 186 181
3 268 186 266
3 188 267 184
3 188 269 267
3 268 190 186
3 270 190 268
3 192 269 188
3 192 271 269
3 270 194 190
3 272 194 270
3 196 271 192
3 196 273 271
3 272 198 194
3 274 198 272
3 200 275 201
3 275 276 201
3 276 196 201
3 276 273 196
3 202 198 277
3 198 278 277
3 198 274 278
3 277 204 202
3 206 279 275
3 206 275 200
3 276 275 280
3 280 275 279
3 278 281 277
3 281 283 282
3 281 282 207
3 277 281 207
3 204 277 207
3 282 209 207
3 211 284 212
3 284 285 212
3 212 285 206
3 285 286 206
3 286 279 206
3 279 286 280
3 282 283 287
3 287 283 288
3 287 214 209
3 287 209 282
3 221 289 222
3 289 290 222
3 222 290 211
3 290 291 211
3 291 284 211
3 284 291 285
3 288 292 287
3 287 292 214
3 292 223 214
3 292 293 223
3 293 295 294
3 224 293 294
3 223 293 224
3 296 225 224
3 296 224 294
3 297 226 225
3 297 225 296
3 298 227 226
3 298 226 297
3 299 228 227
3 299 227 298
3 300 229 228
3 300 228 299
3 300 301 229
3 229 301 221
3 301 302 221
3 302 289 221
3 289 302 290
3 295 303 294
3 294 303 296
3 296 303 304
3 296 304 297
3 297 304 305
3 297 305 298
3 298 305 306
3 298 306 299
3 299 306 307
3 299 307 300
3 300 307 308
3 300 308 301
3 311 310 309
3 313 312 309
3 309 312 311
3 315 314 313
3 313 314 312
3 317 316 315
3 315 316 314
3 319 318 317
3 317 318 316
3 321 320 319
3 319 320 318
3 321 322 320
3 325 324 323
3 231 232 323
3 232 325 323
3 232 326 325
3 233 309 310
3 326 233 310
3 232 233 326
3 309 233 235
3 309 235 313
3 313 235 237
3 313 237 315
3 315 237 239
3 315 239 317
3 317 239 241
3 317 241 319
3 319 241 243
3 319 243 321
3 328 327 245
3 245 327 243
3 327 322 243
3 322 321 243
3 328 329 327
3 323 324 248
3 324 247 248
3 324 330 247
3 323 248 231
3 249 328 245
3 332 331 251
3 251 331 249
3 331 329 249
3 329 328 249
3 332 333 331
3 336 335 334
3 330 336 334
3 253 330 334
3 247 330 253
3 254 332 251
3 338 337 256
3 256 337 254
3 337 333 254
3 333 332 254
3 338 339 337
3 334 335 259
3 335 258 259
3 335 340 258
3 334 259 253
3 260 338 256
3 260 262 338
3 262 339 338
3 262 341 339
3 344 343 342
3 340 344 342
3 263 340 342
3 258 340 263
3 265 346 345
3 341 265 345
3 262 265 341
3 346 347 345
3 342 343 348
3 348 343 349
3 348 266 263
3 348 263 342
3 267 350 346
3 267 346 265
3 347 346 351
3 351 346 350
3 348 349 352
3 352 349 353
3 352 268 266
3 352 266 348
3 269 354 350
3 269 350 267
3 351 350 355
3 355 350 354
3 352 353 356
3 356 353 357
3 356 270 268
3 356 268 352
3 271 358 354
3 271 354 269
3 355 354 359
3 359 354 358
3 356 357 360
3 360 357 361
3 360 272 270
3 360 270 356
3 273 362 358
3 273 358 271
3 359 358 363
3 363 358 362
3 360 361 364
3 364 361 365
3 364 274 272
3 364 272 360
3 276 366 362
3 276 362 273
3 363 362 367
3 367 362 366
3 365 368 364
3 274 364 368
3 369 274 368
3 278 274 369
3 371 370 366
3 276 371 366
3 280 371 276
3 366 370 367
3 281 278 372
3 278 373 372
3 278 369 373
3 372 283 281
3 285 374 286
3 374 375 286
3 375 280 286
3 375 371 280
3 373 376 372
3 283 372 376
3 377 283 376
3 288 283 377
3 290 378 291
3 378 379 291
3 291 379 285
3 379 380 285
3 380 374 285
3 374 380 375
3 377 381 288
3 288 381 292
3 381 383 382
3 293 381 382
3 292 381 293
3 382 295 293
3 301 384 302
3 384 385 302
3 302 385 290
3 385 386 290
3 386 378 290
3 378 386 379
3 383 387 382
3 387 389 388
3 387 388 303
3 382 387 303
3 295 382 303
3 390 304 303
3 390 303 388
3 391 305 304
3 391 304 390
3 392 306 305
3 392 305 391
3 393 307 306
3 393 306 392
3 307 393 394
3 395 307 394
3 308 307 395
3 301 308 384
3 308 396 384
3 308 395 396
3 384 396 385
3 389 397 388
3 388 397 390
3 390 397 398
3 390 398 391
3 391 398 399
3 391 399 392
3 392 399 400
3 392 400 393
3 393 400 401
3 393 401 394
3 404 403 402
3 310 311 402
3 311 404 402
3 311 405 404
3 406 311 312
3 406 405 311
3 407 312 314
3 407 406 312
3 408 314 316
3 408 407 314
3 409 316 318
3 409 408 316
3 410 318 320
3 410 409 318
3 320 322 410
3 410 322 411
3 413 412 325
3 325 412 324
3 326 402 403
3 413 326 403
3 325 326 413
3 402 326 310
3 414 411 322
3 414 322 327
3 416 415 329
3 415 327 329
3 415 414 327
3 416 417 415
3 420 419 418
3 412 420 418
3 330 412 418
3 324 412 330
3 331 416 329
3 422 421 333
3 333 421 331
3 421 417 331
3 417 416 331
3 422 423 421
3 418 419 336
3 419 335 336
3 419 424 335
3 418 336 330
3 337 422 333
3 337 339 422
3 339 423 422
3 339 425 423
3 428 427 426
3 424 428 426
3 340 424 426
3 335 424 340
3 341 430 429
3 425 341 429
3 339 341 425
3 430 431 429
3 426 427 344
3 427 343 344
3 427 432 343
3 426 344 340
3 345 430 341
3 345 347 430
3 347 431 430
3 347 433 431
3 432 349 343
3 434 349 432
3 351 433 347
3 351 435 433
3 434 353 349
3 436 353 434
3 355 435 351
3 355 437 435
3 436 357 353
3 438 357 436
3 359 437 355
3 359 439 437
3 438 361 357
3 440 361 438
3 363 439 359
3 363 441 439
3 440 365 361
3 442 365 440
3 367 441 363
3 367 443 441
3 368 365 444
3 365 445 444
3 365 442 445
3 444 369 368
3 371 446 370
3 446 447 370
3 447 367 370
3 447 443 367
3 444 445 448
3 448 445 449
3 448 373 369
3 448 369 444
3 451 450 446
3 371 451 446
3 375 451 371
3 446 450 447
3 449 452 448
3 452 454 453
3 452 453 376
3 448 452 376
3 373 448 376
3 453 377 376
3 379 455 380
3 455 456 380
3 456 375 380
3 456 451 375
3 454 457 453
3 457 459 458
3 457 458 381
3 453 457 381
3 377 453 381
3 458 383 381
3 461 460 386
3 461 386 385
3 379 386 455
3 386 462 455
3 386 460 462
3 455 462 456
3 459 463 458
3 463 465 464
3 463 464 387
3 458 463 387
3 383 458 387
3 464 389 387
3 394 466 395
3 467 396 395
3 467 395 466
3 467 468 396
3 468 385 396
3 468 461 385
3 465 469 464
3 464 469 389
3 469 397 389
3 469 470 397
3 397 471 398
3 470 471 397
3 398 472 399
3 471 472 398
3 399 473 400
3 472 473 399
3 400 474 401
3 473 474 400
3 394 401 466
3 401 475 466
3 401 474 475
3 466 475 467
3 467 475 476
3 467 476 468
3 479 478 477
3 481 480 477
3 477 480 479
3 483 482 481
3 481 482 480
3 485 484 483
3 483 484 482
3 487 486 485
3 485 486 484
3 487 488 486
3 490 489 404
3 404 489 403
3 405 477 478
3 490 405 478
3 404 405 490
3 477 405 406
3 477 406 481
3 481 406 407
3 481 407 483
3 483 407 408
3 483 408 485
3 485 408 409
3 485 409 487
3 491 488 487
3 409 491 487
3 410 491 409
3 493 492 411
3 492 410 411
3 492 491 410
3 493 494 492
3 496 495 413
3 413 495 412
3 413 403 489
3 413 489 496
3 414 493 411
3 497 494 493
3 414 497 493
3 415 497 414
3 415 417 497
3 497 417 498
3 500 499 420
3 420 499 419
3 420 412 495
3 420 495 500
3 501 498 417
3 501 417 421
3 421 423 501
3 501 423 502
3 505 504 503
3 499 505 503
3 424 499 503
3 419 499 424
3 425 507 506
3 502 425 506
3 423 425 502
3 507 508 506
3 503 504 428
3 504 427 428
3 504 509 427
3 503 428 424
3 429 507 425
3 429 431 507
3 431 508 507
3 431 510 508
3 509 432 427
3 511 432 509
3 433 510 431
3 433 512 510
3 511 434 432
3 513 434 511
3 435 512 433
3 435 514 512
3 513 436 434
3 515 436 513
3 437 514 435
3 437 516 514
3 515 438 436
3 517 438 515
3 439 516 437
3 439 518 516
3 517 440 438
3 519 440 517
3 441 518 439
3 441 520 518
3 519 442 440
3 521 442 519
3 443 520 441
3 443 522 520
3 521 445 442
3 523 445 521
3 447 522 443
3 447 524 522
3 523 449 445
3 525 449 523
3 451 526 450
3 526 527 450
3 527 447 450
3 527 524 447
3 525 528 449
3 449 528 452
3 454 452 528
3 454 528 529
3 531 530 526
3 451 531 526
3 456 531 451
3 526 530 527
3 457 454 532
3 454 533 532
3 454 529 533
3 532 459 457
3 461 534 460
3 460 534 535
3 536 460 535
3 462 460 536
3 456 462 531
3 531 462 536
3 533 537 532
3 532 537 459
3 537 463 459
3 537 538 463
3 465 463 538
3 465 538 539
3 541 540 534
3 461 541 534
3 468 541 461
3 534 540 535
3 539 542 465
3 465 542 469
3 542 544 543
3 470 542 543
3 469 542 470
3 545 471 470
3 545 470 543
3 546 472 471
3 546 471 545
3 547 473 472
3 547 472 546
3 548 474 473
3 548 473 547
3 474 548 549
3 550 474 549
3 475 474 550
3 475 551 476
3 550 551 475
3 468 476 541
3 541 476 551
3 544 552 543
3 543 552 545
3 545 552 553
3 545 553 546
3 546 553 554
3 546 554 547
3 547 554 555
3 547 555 548
3 548 555 556
3 548 556 549
3 558 557 479
3 479 557 478
3 559 479 480
3 559 558 479
3 560 480 482
3 560 559 480
3 561 482 484
3 561 560 482
3 562 484 486
3 562 561 484
3 486 488 562
3 562 488 563
3 565 564 490
3 490 564 489
3 490 478 557
3 490 557 565
3 566 563 488
3 566 488 491
3 567 491 492
3 567 566 491
3 569 568 494
3 568 492 494
3 568 567 492
3 569 570 568
3 573 572 571
3 495 496 571
3 496 573 571
3 496 574 573
3 496 489 564
3 496 564 574
3 497 569 494
3 576 575 498
3 498 575 497
3 575 570 497
3 570 569 497
3 576 577 575
3 571 572 500
3 572 499 500
3 572 578 499
3 571 500 495
3 501 576 498
3 501 502 576
3 502 577 576
3 502 579 577
3 581 580 505
3 505 580 504
3 505 499 578
3 505 578 581
3 582 579 502
3 582 502 506
3 506 508 582
3 582 508 583
3 580 509 504
3 584 509 580
3 510 583 508
3 510 585 583
3 584 511 509
3 586 511 584
3 512 585 510
3 512 587 585
3 586 513 511
3 588 513 586
3 514 587 512
3 514 589 587
3 588 515 513
3 590 515 588
3 516 589 514
3 516 591 589
3 590 517 515
3 592 517 590
3 518 591 516
3 518 593 591
3 592 519 517
3 594 519 592
3 520 593 518
3 520 595 593
3 594 521 519
3 596 521 594
3 522 595 520
3 522 597 595
3 596 523 521
3 598 523 596
3 524 597 522
3 524 599 597
3 598 525 523
3 600 525 598
3 527 599 524
3 527 601 599
3 528 525 602
3 525 603 602
3 525 600 603
3 602 529 528
3 605 604 530
3 605 530 531
3 527 530 601
3 601 530 604
3 603 606 602
3 529 602 606
3 607 529 606
3 533 529 607
3 535 608 536
3 608 609 536
3 609 531 536
3 609 605 531
3 607 610 533
3 533 610 537
3 610 612 611
3 538 610 611
3 537 610 538
3 611 539 538
3 541 613 540
3 613 614 540
3 540 614 535
3 614 615 535
3 615 608 535
3 608 615 609
3 612 616 611
3 611 616 539
3 616 542 539
3 616 617 542
3 544 542 617
3 544 617 618
3 620 619 550
3 620 550 549
3 550 621 551
3 619 621 550
3 541 551 613
3 551 622 613
3 551 621 622
3 613 622 614
3 618 623 544
3 544 623 552
3 552 624 553
3 623 624 552
3 553 625 554
3 624 625 553
3 554 626 555
3 625 626 554
3 555 627 556
3 626 627 555
3 549 556 620
3 620 556 627
3 629 628 558
3 558 628 557
3 630 558 559
3 630 629 558
3 631 559 560
3 631 630 559
3 632 560 561
3 632 631 560
3 633 561 562
3 633 632 561
3 562 563 633
3 633 563 634
3 637 636 635
3 564 565 635
3 565 637 635
3 565 638 637
3 565 557 628
3 565 628 638
3 639 634 563
3 639 563 566
3 640 566 567
3 640 639 566
3 641 567 568
3 641 640 567
3 568 570 641
3 641 570 642
3 644 643 573
3 573 643 572
3 574 635 636
3 644 574 636
3 573 574 644
3 635 574 564
3 645 642 570
3 645 570 575
3 575 577 645
3 645 577 646
3 643 578 572
3 647 578 643
3 579 646 577
3 579 648 646
3 650 649 581
3 581 649 580
3 581 578 647
3 581 647 650
3 651 648 579
3 651 579 582
3 582 583 651
3 651 583 652
3 649 584 580
3 653 584 649
3 585 652 583
3 585 654 652
3 653 586 584
3 655 586 653
3 587 654 585
3 587 656 654
3 655 588 586
3 657 588 655
3 589 656 587
3 589 658 656
3 657 590 588
3 659 590 657
3 591 658 589
3 591 660 658
3 659 592 590
3 661 592 659
3 593 660 591
3 593 662 660
3 661 594 592
3 663 594 661
3 595 662 593
3 595 664 662
3 663 596 594
3 665 596 663
3 597 664 595
3 597 666 664
3 665 598 596
3 667 598 665
3 599 666 597
3 599 668 666
3 667 600 598
3 669 600 667
3 601 668 599
3 601 670 668
3 669 603 600
3 671 603 669
3 605 672 604
3 672 673 604
3 673 601 604
3 673 670 601
3 671 674 603
3 603 674 606
3 607 606 674
3 607 674 675
3 677 676 672
3 605 677 672
3 609 677 605
3 672 676 673
3 675 678 607
3 607 678 610
3 612 610 678
3 612 678 679
3 681 680 615
3 681 615 614
3 609 615 677
3 677 615 680
3 679 682 612
3 612 682 616
3 616 683 617
3 682 683 616
3 618 617 683
3 618 683 684
3 620 685 619
3 619 685 686
3 687 619 686
3 621 619 687
3 621 688 622
3 687 688 621
3 614 622 681
3 681 622 688
3 684 689 618
3 618 689 623
3 623 690 624
3 689 690 623
3 624 691 625
3 690 691 624
3 625 692 626
3 691 692 625
3 626 693 627
3 692 693 626
3 620 627 685
3 627 694 685
3 627 693 694
3 685 694 686
3 696 695 629
3 629 695 628
3 697 629 630
3 697 696 629
3 698 630 631
3 698 697 630
3 699 631 632
3 699 698 631
3 700 632 633
3 700 699 632
3 633 634 700
3 700 634 701
3 703 702 637
3 637 702 636
3 704 637 638
3 704 703 637
3 638 628 695
3 638 695 704
3 705 701 634
3 705 634 639
3 706 639 640
3 706 705 639
3 707 640 641
3 707 706 640
3 641 642 707
3 707 642 708
3 710 709 644
3 644 709 643
3 644 636 702
3 644 702 710
3 711 708 642
3 711 642 645
3 645 646 711
3 711 646 712
3 709 647 643
3 713 647 709
3 648 712 646
3 648 714 712
3 716 715 650
3 650 715 649
3 650 647 713
3 650 713 716
3 717 714 648
3 717 648 651
3 651 652 717
3 717 652 718
3 715 653 649
3 719 653 715
3 654 718 652
3 654 720 718
3 719 655 653
3 721 655 719
3 656 720 654
3 656 722 720
3 721 657 655
3 723 657 721
3 658 722 656
3 658 724 722
3 723 659 657
3 725 659 723
3 660 724 658
3 660 726 724
3 725 661 659
3 727 661 725
3 662 726 660
3 662 728 726
3 727 663 661
3 729 663 727
3 664 728 662
3 664 730 728
3 729 665 663
3 731 665 729
3 666 730 664
3 666 732 730
3 731 667 665
3 733 667 731
3 668 732 666
3 668 734 732
3 733 669 667
3 735 669 733
3 670 734 668
3 670 736 734
3 735 671 669
3 737 671 735
3 673 736 670
3 673 738 736
3 737 739 671
3 671 739 674
3 675 674 739
3 675 739 740
3 742 741 676
3 742 676 677
3 673 676 738
3 738 676 741
3 740 743 675
3 675 743 678
3 679 678 743
3 679 743 744
3 746 745 680
3 746 680 681
3 677 680 742
3 742 680 745
3 744 747 679
3 679 747 682
3 682 748 683
3 747 748 682
3 684 683 748
3 684 748 749
3 751 750 687
3 751 687 686
3 687 752 688
3 750 752 687
3 681 688 746
3 746 688 752
3 749 753 684
3 684 753 689
3 689 754 690
3 753 754 689
3 690 755 691
3 754 755 690
3 691 756 692
3 755 756 691
3 692 757 693
3 756 757 692
3 693 758 694
3 757 758 693
3 686 694 751
3 751 694 758
3 759 695 696
3 759 696 760
3 696 761 760
3 696 697 761
3 762 697 698
3 762 761 697
3 763 698 699
3 763 762 698
3 764 699 700
3 764 763 699
3 700 701 764
3 764 701 765
3 767 766 703
3 703 766 702
3 768 703 704
3 768 767 703
3 704 695 759
3 769 704 759
3 768 704 769
3 769 759 760
3 770 765 701
3 770 701 705
3 771 705 706
3 771 770 705
3 772 706 707
3 772 771 706
3 707 708 772
3 772 708 773
3 775 774 710
3 710 774 709
3 710 702 766
3 710 766 775
3 776 773 708
3 776 708 711
3 711 712 776
3 776 712 777
3 774 713 709
3 778 713 774
3 714 777 712
3 714 779 777
3 781 780 716
3 716 780 715
3 716 713 778
3 716 778 781
3 782 779 714
3 782 714 717
3 717 718 782
3 782 718 783
3 780 719 715
3 784 719 780
3 720 783 718
3 720 785 783
3 784 721 719
3 786 721 784
3 722 785 720
3 722 787 785
3 786 723 721
3 788 723 786
3 724 787 722
3 724 789 787
3 788 725 723
3 790 725 788
3 726 789 724
3 726 791 789
3 790 727 725
3 792 727 790
3 728 791 726
3 728 793 791
3 792 729 727
3 794 729 792
3 730 793 728
3 730 795 793
3 794 731 729
3 796 731 794
3 732 795 730
3 732 797 795
3 796 733 731
3 798 733 796
3 734 797 732
3 734 799 797
3 798 735 733
3 800 735 798
3 736 799 734
3 736 801 799
3 800 737 735
3 802 737 800
3 805 804 803
3 804 801 803
3 801 738 803
3 801 736 738
3 802 806 737
3 737 806 739
3 740 739 806
3 740 806 807
3 805 803 741
3 742 805 741
3 808 805 742
3 741 803 738
3 807 809 740
3 740 809 743
3 744 743 809
3 744 809 810
3 812 811 745
3 812 745 746
3 742 745 808
3 808 745 811
3 810 813 744
3 744 813 747
3 747 814 748
3 813 814 747
3 749 748 814
3 749 814 815
3 818 817 816
3 750 751 816
3 817 750 816
3 819 750 817
3 750 820 752
3 819 820 750
3 746 752 812
3 812 752 820
3 815 821 749
3 749 821 753
3 753 822 754
3 821 822 753
3 754 823 755
3 822 823 754
3 755 824 756
3 823 824 755
3 756 825 757
3 824 825 756
3 816 758 818
3 758 825 818
3 758 757 825
3 758 816 751
3 827 826 761
3 761 826 760
3 828 761 762
3 828 827 761
3 829 762 763
3 829 828 762
3 831 829 830
3 829 764 830
3 829 763 764
3 765 830 764
3 832 766 767
3 832 767 833
3 767 834 833
3 767 768 834
3 835 768 769
3 835 834 768
3 769 760 826
3 769 826 835
3 836 831 830
3 836 830 765
3 770 836 765
3 837 836 770
3 838 770 771
3 838 837 770
3 840 838 839
3 838 772 839
3 838 771 772
3 773 839 772
3 841 774 775
3 842 841 775
3 842 775 766
3 843 842 766
3 832 843 766
3 843 832 833
3 844 840 839
3 846 844 845
3 845 844 776
3 844 839 776
3 839 773 776
3 777 845 776
3 848 847 841
3 847 774 841
3 847 778 774
3 848 841 842
3 849 846 845
3 845 777 849
3 777 850 849
3 777 779 850
3 852 851 781
3 781 851 780
3 781 778 847
3 781 847 852
3 853 850 779
3 853 779 782
3 782 783 853
3 853 783 854
3 851 784 780
3 855 784 851
3 785 854 783
3 785 856 854
3 855 786 784
3 857 786 855
3 787 856 785
3 787 858 856
3 857 788 786
3 859 788 857
3 789 858 787
3 789 860 858
3 859 790 788
3 861 790 859
3 791 860 789
3 791 862 860
3 861 792 790
3 863 792 861
3 793 862 791
3 793 864 862
3 863 794 792
3 865 794 863
3 795 864 793
3 795 866 864
3 865 796 794
3 867 796 865
3 797 866 795
3 797 868 866
3 867 798 796
3 869 798 867
3 799 868 797
3 799 870 868
3 869 800 798
3 871 800 869
3 801 870 799
3 801 872 870
3 871 802 800
3 873 802 871
3 875 874 804
3 875 804 805
3 801 804 872
3 872 804 874
3 873 876 802
3 802 876 806
3 807 806 876
3 807 876 877
3 880 879 878
3 879 875 878
3 875 808 878
3 875 805 808
3 877 881 807
3 807 881 809
3 883 882 810
3 809 883 810
3 881 883 809
3 884 882 883
3 887 886 885
3 889 888 885
3 889 885 886
3 888 889 880
3 888 880 878
3 812 888 878
3 811 812 878
3 811 878 808
3 882 813 810
3 884 890 882
3 890 813 882
3 890 814 813
3 892 891 815
3 814 892 815
3 890 892 814
3 893 891 892
3 895 894 817
3 895 817 818
3 885 819 887
3 819 894 887
3 819 817 894
3 819 885 820
3 820 885 888
3 820 888 812
3 891 821 815
3 893 896 891
3 896 821 891
3 896 822 821
3 822 897 823
3 896 897 822
3 823 898 824
3 897 898 823
3 824 899 825
3 898 899 824
3 818 825 895
3 895 825 899
3 900 826 827
3 828 901 827
3 827 901 900
3 829 902 828
3 828 902 901
3 831 902 829
3 904 903 834
3 834 903 833
3 905 834 835
3 905 904 834
3 835 826 900
3 906 835 900
3 905 835 906
3 906 900 901
3 906 901 907
3 907 901 902
3 907 902 908
3 908 902 831
3 836 908 831
3 909 908 836
3 910 836 837
3 910 909 836
3 911 837 838
3 911 910 837
3 838 840 911
3 911 840 912
3 914 913 843
3 843 913 842
3 843 833 903
3 843 903 914
3 915 912 840
3 915 840 844
3 844 846 915
3 915 846 916
3 918 917 848
3 848 917 847
3 848 842 913
3 848 913 918
3 919 916 846
3 919 846 849
3 849 850 919
3 919 850 920
3 921 851 852
3 922 921 852
3 847 922 852
3 917 922 847
3 850 853 923
3 924 850 923
3 920 850 924
3 854 923 853
3 926 925 921
3 925 851 921
3 925 855 851
3 926 921 922
3 927 924 923
3 923 854 927
3 854 928 927
3 854 856 928
3 925 857 855
3 929 857 925
3 858 928 856
3 858 930 928
3 929 859 857
3 931 859 929
3 860 930 858
3 860 932 930
3 931 861 859
3 933 861 931
3 862 932 860
3 862 934 932
3 933 863 861
3 935 863 933
3 864 934 862
3 864 936 934
3 935 865 863
3 937 865 935
3 866 936 864
3 866 938 936
3 937 867 865
3 939 867 937
3 868 938 866
3 868 940 938
3 939 869 867
3 941 869 939
3 870 940 868
3 870 942 940
3 941 871 869
3 943 871 941
3 872 942 870
3 872 944 942
3 946 873 945
3 873 943 945
3 873 871 943
3 947 946 945
3 949 948 874
3 949 874 875
3 872 874 944
3 944 874 948
3 946 876 873
3 951 950 877
3 951 877 876
3 947 951 876
3 946 947 876
3 952 950 951
3 954 953 879
3 954 879 880
3 875 879 949
3 949 879 953
3 950 881 877
3 952 955 950
3 955 881 950
3 955 883 881
3 884 883 955
3 884 955 956
3 958 957 886
3 958 886 887
3 886 959 889
3 957 959 886
3 880 889 954
3 954 889 959
3 956 960 884
3 884 960 890
3 890 961 892
3 960 961 890
3 963 962 893
3 892 963 893
3 961 963 892
3 965 964 962
3 965 962 963
3 967 966 964
3 967 964 965
3 969 968 966
3 969 966 967
3 894 895 968
3 969 894 968
3 970 894 969
3 887 894 958
3 958 894 970
3 962 896 893
3 896 962 897
3 897 962 964
3 897 964 898
3 898 964 966
3 898 966 899
3 899 966 968
3 899 968 895
3 971 903 904
3 905 972 904
3 904 972 971
3 972 905 973
3 905 974 973
3 905 906 974
3 975 906 907
3 975 974 906
3 976 907 908
3 976 975 907
3 977 908 909
3 977 976 908
3 979 977 978
3 977 910 978
3 977 909 910
3 911 980 910
3 910 980 978
3 912 980 911
3 981 913 914
3 982 981 914
3 982 914 903
3 983 982 903
3 971 983 903
3 983 971 972
3 983 972 984
3 984 972 973
3 985 979 978
3 985 978 980
3 985 980 986
3 988 986 987
3 987 986 915
3 986 980 915
3 980 912 915
3 916 987 915
3 989 917 918
3 990 989 918
3 990 918 913
3 991 990 913
3 981 991 913
3 991 981 982
3 992 988 987
3 994 992 993
3 993 992 919
3 992 987 919
3 987 916 919
3 920 993 919
3 996 995 989
3 995 917 989
3 995 922 917
3 996 989 990
3 997 994 993
3 993 920 997
3 920 998 997
3 920 924 998
3 999 925 926
3 1000 999 926
3 922 1000 926
3 995 1000 922
3 924 927 1001
3 1002 924 1001
3 998 924 1002
3 928 1001 927
3 1004 1003 999
3 1003 925 999
3 1003 929 925
3 1004 999 1000
3 1005 1002 1001
3 1001 928 1005
3 928 1006 1005
3 928 930 1006
3 1003 931 929
3 1007 931 1003
3 932 1006 930
3 932 1008 1006
3 1007 933 931
3 1009 933 1007
3 934 1008 932
3 934 1010 1008
3 1009 935 933
3 1011 935 1009
3 936 1010 934
3 936 1012 1010
3 1011 937 935
3 1013 937 1011
3 938 1012 936
3 938 1014 1012
3 1013 939 937
3 1015 939 1013
3 940 1014 938
3 940 1016 1014
3 1015 941 939
3 1017 941 1015
3 942 1016 940
3 942 1018 1016
3 1020 943 1019
3 943 1017 1019
3 943 941 1017
3 1021 1020 1019
3 1024 1023 1022
3 1023 1018 1022
3 1018 944 1022
3 1018 942 944
3 1020 945 943
3 947 945 1020
3 1021 947 1020
3 1025 947 1021
3 1028 1027 1026
3 1026 1027 1024
3 1026 1024 1022
3 949 1026 1022
3 948 949 1022
3 948 1022 944
3 1025 1029 947
3 947 1029 951
3 1031 1030 952
3 951 1031 952
3 1029 1031 951
3 1032 1030 1031
3 1035 1034 1033
3 1033 1034 1028
3 1033 1028 1026
3 954 1033 1026
3 953 954 1026
3 953 1026 949
3 1030 955 952
3 1037 1036 956
3 1037 956 955
3 1032 1037 955
3 1030 1032 955
3 1038 1036 1037
3 1041 1040 1039
3 957 958 1039
3 1040 957 1039
3 1042 957 1040
3 1033 959 1035
3 959 1042 1035
3 959 957 1042
3 959 1033 954
3 1036 960 956
3 1038 1043 1036
3 1043 960 1036
3 1043 961 960
3 961 1044 963
3 1043 1044 961
3 963 1045 965
3 1044 1045 963
3 965 1046 967
3 1045 1046 965
3 967 1047 969
3 1046 1047 967
3 1039 970 1041
3 970 1047 1041
3 970 969 1047
3 970 1039 958
3 1048 973 974
3 975 1049 974
3 974 1049 1048
3 976 1050 975
3 975 1050 1049
3 977 1051 976
3 976 1051 1050
3 979 1051 977
3 1052 982 983
3 1052 983 1053
3 983 1054 1053
3 983 984 1054
3 984 973 1048
3 1055 984 1048
3 1054 984 1055
3 1055 1048 1049
3 1055 1049 1056
3 1056 1049 1050
3 1056 1050 1057
3 1057 1050 1051
3 1057 1051 1058
3 1060 1058 1059
3 1059 1058 985
3 1058 1051 985
3 1051 979 985
3 986 1061 985
3 985 1061 1059
3 988 1061 986
3 1062 990 991
3 1063 1062 991
3 1063 991 982
3 1064 1063 982
3 1052 1064 982
3 1064 1052 1053
3 1065 1060 1059
3 1065 1059 1061
3 1065 1061 1066
3 1068 1066 1067
3 1067 1066 992
3 1066 1061 992
3 1061 988 992
3 994 1067 992
3 1069 995 996
3 1070 1069 996
3 1070 996 990
3 1071 1070 990
3 1062 1071 990
3 1071 1062 1063
3 1072 1068 1067
3 1074 1072 1073
3 1073 1072 997
3 1072 1067 997
3 1067 994 997
3 998 1073 997
3 1076 1075 1069
3 1075 995 1069
3 1075 1000 995
3 1076 1069 1070
3 1077 1074 1073
3 1073 998 1077
3 998 1078 1077
3 998 1002 1078
3 1079 1003 1004
3 1080 1079 1004
3 1000 1080 1004
3 1075 1080 1000
3 1002 1005 1081
3 1082 1002 1081
3 1078 1002 1082
3 1006 1081 1005
3 1083 1007 1079
3 1079 1007 1003
3 1079 1080 1084
3 1079 1084 1083
3 1082 1081 1085
3 1082 1085 1086
3 1008 1085 1006
3 1006 1085 1081
3 1087 1009 1083
3 1083 1009 1007
3 1083 1084 1088
3 1083 1088 1087
3 1089 1086 1085
3 1085 1008 1089
3 1008 1090 1089
3 1008 1010 1090
3 1091 1011 1087
3 1087 1011 1009
3 1087 1088 1092
3 1087 1092 1091
3 1012 1090 1010
3 1012 1093 1090
3 1094 1013 1091
3 1091 1013 1011
3 1091 1092 1095
3 1091 1095 1094
3 1014 1093 1012
3 1014 1096 1093
3 1097 1015 1094
3 1094 1015 1013
3 1094 1095 1098
3 1094 1098 1097
3 1016 1096 1014
3 1016 1099 1096
3 1100 1017 1097
3 1097 1017 1015
3 1097 1098 1101
3 1097 1101 1100
3 1018 1099 1016
3 1018 1102 1099
3 1100 1019 1017
3 1021 1019 1100
3 1101 1021 1100
3 1103 1021 1101
3 1106 1105 1104
3 1023 1024 1104
3 1105 1023 1104
3 1107 1023 1105
3 1018 1023 1102
3 1102 1023 1107
3 1109 1025 1108
3 1025 1103 1108
3 1025 1021 1103
3 1111 1110 1109
3 1111 1109 1108
3 1112 1110 1111
3 1106 1104 1027
3 1028 1106 1027
3 1113 1106 1028
3 1027 1104 1024
3 1109 1029 1025
3 1029 1109 1031
3 1031 1109 1110
3 1115 1114 1032
3 1115 1032 1031
3 1112 1115 1031
3 1110 1112 1031
3 1116 1114 1115
3 1119 1118 1117
3 1121 1120 1117
3 1121 1117 1118
3 1034 1035 1120
3 1121 1034 1120
3 1122 1034 1121
3 1028 1034 1113
3 1113 1034 1122
3 1114 1037 1032
3 1124 1123 1038
3 1124 1038 1037
3 1116 1124 1037
3 1114 1116 1037
3 1126 1125 1123
3 1126 1123 1124
3 1128 1127 1125
3 1128 1125 1126
3 1130 1129 1127
3 1130 1127 1128
3 1132 1131 1129
3 1132 1129 1130
3 1131 1132 1119
3 1131 1119 1117
3 1041 1131 1117
3 1040 1041 1117
3 1040 1117 1042
3 1042 1117 1120
3 1042 1120 1035
3 1123 1043 1038
3 1043 1123 1044
3 1044 1123 1125
3 1044 1125 1045
3 1045 1125 1127
3 1045 1127 1046
3 1046 1127 1129
3 1046 1129 1047
3 1047 1129 1131
3 1047 1131 1041
3 1133 1053 1054
3 1055 1134 1054
3 1054 1134 1133
3 1056 1135 1055
3 1055 1135 1134
3 1057 1136 1056
3 1056 1136 1135
3 1058 1137 1057
3 1057 1137 1136
3 1060 1137 1058
3 1138 1063 1064
3 1139 1138 1064
3 1139 1064 1053
3 1140 1139 1053
3 1133 1140 1053
3 1140 1133 1134
3 1140 1134 1141
3 1141 1134 1135
3 1141 1135 1142
3 1142 1135 1136
3 1142 1136 1143
3 1143 1136 1137
3 1143 1137 1144
3 1146 1144 1145
3 1145 1144 1065
3 1144 1137 1065
3 1137 1060 1065
3 1066 1147 1065
3 1065 1147 1145
3 1068 1147 1066
3 1148 1070 1071
3 1149 1148 1071
3 1149 1071 1063
3 1150 1149 1063
3 1138 1150 1063
3 1150 1138 1139
3 1151 1146 1145
3 1151 1145 1147
3 1151 1147 1152
3 1154 1152 1153
3 1153 1152 1072
3 1152 1147 1072
3 1147 1068 1072
3 1074 1153 1072
3 1155 1075 1076
3 1156 1155 1076
3 1156 1076 1070
3 1157 1156 1070
3 1148 1157 1070
3 1157 1148 1149
3 1158 1154 1153
3 1160 1158 1159
3 1159 1158 1077
3 1158 1153 1077
3 1153 1074 1077
3 1078 1159 1077
3 1161 1080 1155
3 1155 1080 1075
3 1155 1156 1162
3 1155 1162 1161
3 1160 1159 1163
3 1160 1163 1164
3 1082 1163 1078
3 1078 1163 1159
3 1166 1165 1161
3 1165 1080 1161
3 1165 1084 1080
3 1166 1161 1162
3 1167 1164 1163
3 1163 1082 1167
3 1082 1168 1167
3 1082 1086 1168
3 1165 1088 1084
3 1169 1088 1165
3 1086 1089 1170
3 1171 1086 1170
3 1168 1086 1171
3 1090 1170 1089
3 1169 1092 1088
3 1172 1092 1169
3 1171 1170 1173
3 1171 1173 1174
3 1093 1173 1090
3 1090 1173 1170
3 1172 1095 1092
3 1175 1095 1172
3 1174 1173 1176
3 1174 1176 1177
3 1096 1176 1093
3 1093 1176 1173
3 1175 1098 1095
3 1178 1098 1175
3 1181 1180 1179
3 1179 1180 1177
3 1176 1179 1177
3 1182 1179 1176
3 1099 1182 1096
3 1096 1182 1176
3 1184 1101 1183
3 1101 1178 1183
3 1101 1098 1178
3 1185 1184 1183
3 1181 1179 1186
3 1181 1186 1187
3 1188 1179 1182
3 1186 1179 1188
3 1102 1188 1099
3 1099 1188 1182
3 1189 1103 1184
3 1184 1103 1101
3 1184 1185 1190
3 1191 1184 1190
3 1189 1184 1191
3 1192 1191 1190
3 1187 1186 1105
3 1106 1187 1105
3 1193 1187 1106
3 1105 1186 1107
3 1107 1186 1188
3 1107 1188 1102
3 1189 1108 1103
3 1108 1189 1111
3 1111 1189 1191
3 1195 1194 1112
3 1195 1112 1111
3 1192 1195 1111
3 1191 1192 1111
3 1196 1194 1195
3 1113 1193 1106
3 1113 1197 1193
3 1194 1115 1112
3 1199 1198 1116
3 1199 1116 1115
3 1196 1199 1115
3 1194 1196 1115
3 1201 1200 1198
3 1201 1198 1199
3 1203 1202 1200
3 1203 1200 1201
3 1205 1204 1202
3 1205 1202 1203
3 1207 1206 1204
3 1207 1204 1205
3 1118 1119 1206
3 1207 1118 1206
3 1208 1118 1207
3 1118 1209 1121
3 1208 1209 1118
3 1121 1210 1122
3 1209 1210 1121
3 1113 1122 1197
3 1197 1122 1210
3 1198 1124 1116
3 1124 1198 1126
3 1126 1198 1200
3 1126 1200 1128
3 1128 1200 1202
3 1128 1202 1130
3 1130 1202 1204
3 1130 1204 1132
3 1132 1204 1206
3 1132 1206 1119
3 1211 1139 1140
3 1141 1212 1140
3 1140 1212 1211
3 1142 1213 1141
3 1141 1213 1212
3 1143 1214 1142
3 1142 1214 1213
3 1144 1215 1143
3 1143 1215 1214
3 1146 1215 1144
3 1216 1149 1150
3 1139 1211 1150
3 1211 1216 1150
3 1211 1217 1216
3 1212 1219 1218
3 1217 1212 1218
3 1211 1212 1217
3 1219 1212 1213
3 1219 1213 1220
3 1220 1213 1214
3 1220 1214 1221
3 1223 1222 1221
3 1214 1223 1221
3 1215 1223 1214
3 1151 1224 1146
3 1224 1215 1146
3 1224 1223 1215
3 1152 1225 1151
3 1151 1225 1224
3 1154 1225 1152
3 1226 1156 1157
3 1227 1226 1157
3 1227 1157 1149
3 1228 1227 1149
3 1216 1228 1149
3 1228 1216 1217
3 1228 1217 1229
3 1229 1217 1218
3 1230 1222 1223
3 1232 1231 1230
3 1223 1232 1230
3 1224 1232 1223
3 1233 1224 1225
3 1232 1224 1233
3 1158 1234 1154
3 1234 1225 1154
3 1234 1233 1225
3 1160 1234 1158
3 1235 1162 1226
3 1226 1162 1156
3 1226 1227 1236
3 1226 1236 1235
3 1237 1231 1232
3 1237 1232 1233
3 1237 1233 1238
3 1240 1239 1238
3 1233 1240 1238
3 1234 1240 1233
3 1164 1240 1160
3 1160 1240 1234
3 1241 1165 1166
3 1242 1241 1166
3 1242 1166 1162
3 1243 1242 1162
3 1235 1243 1162
3 1243 1235 1236
3 1239 1240 1244
3 1239 1244 1245
3 1167 1246 1164
3 1246 1240 1164
3 1246 1244 1240
3 1168 1246 1167
3 1247 1169 1241
3 1241 1169 1165
3 1241 1242 1248
3 1241 1248 1247
3 1245 1244 1249
3 1245 1249 1250
3 1251 1244 1246
3 1249 1244 1251
3 1171 1251 1168
3 1168 1251 1246
3 1252 1172 1247
3 1247 1172 1169
3 1247 1248 1253
3 1247 1253 1252
3 1250 1249 1254
3 1250 1254 1255
3 1256 1249 1251
3 1254 1249 1256
3 1174 1256 1171
3 1171 1256 1251
3 1257 1175 1252
3 1252 1175 1172
3 1252 1253 1258
3 1252 1258 1257
3 1255 1254 1259
3 1255 1259 1260
3 1261 1254 1256
3 1259 1254 1261
3 1177 1261 1174
3 1174 1261 1256
3 1262 1178 1257
3 1257 1178 1175
3 1257 1258 1263
3 1264 1257 1263
3 1262 1257 1264
3 1265 1264 1263
3 1260 1259 1266
3 1260 1266 1267
3 1181 1266 1180
3 1266 1261 1180
3 1266 1259 1261
3 1180 1261 1177
3 1262 1183 1178
3 1183 1262 1185
3 1262 1268 1185
3 1262 1264 1268
3 1264 1265 1269
3 1264 1269 1268
3 1267 1266 1270
3 1267 1270 1271
3 1187 1270 1181
3 1181 1270 1266
3 1268 1190 1185
3 1273 1272 1192
3 1273 1192 1190
3 1269 1273 1190
3 1268 1269 1190
3 1275 1274 1272
3 1275 1272 1273
3 1276 1274 1275
3 1279 1278 1277
3 1277 1278 1271
3 1270 1277 1271
3 1280 1277 1270
3 1193 1280 1187
3 1187 1280 1270
3 1272 1195 1192
3 1195 1272 1196
3 1272 1281 1196
3 1272 1274 1281
3 1274 1276 1282
3 1283 1274 1282
3 1281 1274 1283
3 1285 1284 1283
3 1285 1283 1282
3 1287 1286 1284
3 1287 1284 1285
3 1289 1288 1286
3 1289 1286 1287
3 1291 1290 1288
3 1291 1288 1289
3 1290 1291 1279
3 1277 1290 1279
3 1292 1290 1277
3 1293 1277 1280
3 1292 1277 1293
3 1197 1293 1193
3 1193 1293 1280
3 1281 1199 1196
3 1199 1281 1201
3 1201 1281 1283
3 1201 1283 1203
3 1203 1283 1284
3 1203 1284 1205
3 1205 1284 1286
3 1205 1286 1207
3 1207 1286 1288
3 1207 1288 1208
3 1208 1288 1290
3 1208 1290 1209
3 1209 1290 1292
3 1209 1292 1210
3 1210 1292 1293
3 1210 1293 1197
3 1294 1218 1219
3 1220 1295 1219
3 1219 1295 1294
3 1221 1296 1220
3 1220 1296 1295
3 1222 1296 1221
3 1297 1227 1228
3 1229 1298 1228
3 1228 1298 1297
3 1218 1294 1229
3 1294 1298 1229
3 1294 1299 1298
3 1300 1294 1295
3 1299 1294 1300
3 1301 1295 1296
3 1300 1295 1301
3 1230 1302 1222
3 1302 1296 1222
3 1302 1301 1296
3 1231 1302 1230
3 1303 1236 1297
3 1297 1236 1227
3 1304 1297 1298
3 1303 1297 1304
3 1299 1306 1305
3 1304 1299 1305
3 1298 1299 1304
3 1306 1299 1300
3 1306 1300 1307
3 1307 1300 1301
3 1307 1301 1308
3 1310 1309 1308
3 1301 1310 1308
3 1302 1310 1301
3 1237 1311 1231
3 1311 1302 1231
3 1311 1310 1302
3 1238 1312 1237
3 1237 1312 1311
3 1239 1312 1238
3 1313 1242 1243
3 1236 1303 1243
3 1303 1313 1243
3 1303 1314 1313
3 1315 1303 1304
3 1314 1303 1315
3 1304 1305 1316
3 1304 1316 1315
3 1317 1309 1310
3 1319 1318 1317
3 1310 1319 1317
3 1311 1319 1310
3 1320 1311 1312
3 1319 1311 1320
3 1245 1320 1239
3 1239 1320 1312
3 1321 1248 1313
3 1313 1248 1242
3 1322 1313 1314
3 1321 1313 1322
3 1315 1324 1323
3 1322 1315 1323
3 1314 1315 1322
3 1324 1315 1316
3 1318 1319 1325
3 1318 1325 1326
3 1327 1319 1320
3 1325 1319 1327
3 1250 1327 1245
3 1245 1327 1320
3 1328 1253 1321
3 1321 1253 1248
3 1329 1321 1322
3 1328 1321 1329
3 1322 1323 1330
3 1331 1322 1330
3 1329 1322 1331
3 1332 1331 1330
3 1326 1325 1333
3 1326 1333 1334
3 1335 1325 1327
3 1333 1325 1335
3 1255 1335 1250
3 1250 1335 1327
3 1336 1258 1328
3 1328 1258 1253
3 1337 1328 1329
3 1336 1328 1337
3 1338 1329 1331
3 1337 1329 1338
3 1331 1332 1339
3 1331 1339 1338
3 1334 1333 1340
3 1334 1340 1341
3 1342 1333 1335
3 1340 1333 1342
3 1260 1342 1255
3 1255 1342 1335
3 1336 1263 1258
3 1263 1336 1265
3 1336 1343 1265
3 1336 1337 1343
3 1344 1337 1338
3 1343 1337 1344
3 1338 1339 1345
3 1338 1345 1344
3 1341 1340 1346
3 1341 1346 1347
3 1348 1340 1342
3 1346 1340 1348
3 1267 1348 1260
3 1260 1348 1342
3 1349 1269 1343
3 1343 1269 1265
3 1350 1343 1344
3 1349 1343 1350
3 1344 1345 1351
3 1352 1344 1351
3 1350 1344 1352
3 1354 1353 1352
3 1354 1352 1351
3 1356 1355 1353
3 1356 1353 1354
3 1358 1357 1355
3 1358 1355 1356
3 1357 1358 1347
3 1346 1357 1347
3 1359 1357 1346
3 1360 1346 1348
3 1359 1346 1360
3 1271 1360 1267
3 1267 1360 1348
3 1349 1273 1269
3 1273 1349 1275
3 1275 1349 1350
3 1275 1350 1276
3 1350 1361 1276
3 1350 1352 1361
3 1362 1352 1353
3 1361 1352 1362
3 1363 1353 1355
3 1362 1353 1363
3 1364 1355 1357
3 1363 1355 1364
3 1365 1357 1359
3 1364 1357 1365
3 1279 1365 1278
3 1365 1360 1278
3 1365 1359 1360
3 1278 1360 1271
3 1361 1282 1276
3 1282 1361 1285
3 1285 1361 1362
3 1285 1362 1287
3 1287 1362 1363
3 1287 1363 1289
3 1289 1363 1364
3 1289 1364 1291
3 1291 1364 1365
3 1291 1365 1279
3 1366 1305 1306
3 1307 1367 1306
3 1306 1367 1366
3 1308 1368 1307
3 1307 1368 1367
3 1309 1368 1308
3 1369 1316 1366
3 1366 1316 1305
3 1370 1366 1367
3 1369 1366 1370
3 1371 1367 1368
3 1370 1367 1371
3 1317 1372 1309
3 1372 1368 1309
3 1372 1371 1368
3 1318 1372 1317
3 1373 1323 1324
3 1316 1369 1324
3 1369 1373 1324
3 1369 1374 1373
3 1375 1369 1370
3 1374 1369 1375
3 1376 1370 1371
3 1375 1370 1376
3 1377 1371 1372
3 1376 1371 1377
3 1326 1377 1318
3 1318 1377 1372
3 1373 1330 1323
3 1330 1373 1332
3 1373 1378 1332
3 1373 1374 1378
3 1379 1374 1375
3 1378 1374 1379
3 1380 1375 1376
3 1379 1375 1380
3 1381 1376 1377
3 1380 1376 1381
3 1334 1381 1326
3 1326 1381 1377
3 1382 1339 1378
3 1378 1339 1332
3 1383 1378 1379
3 1382 1378 1383
3 1384 1379 1380
3 1383 1379 1384
3 1385 1380 1381
3 1384 1380 1385
3 1341 1385 1334
3 1334 1385 1381
3 1386 1345 1382
3 1382 1345 1339
3 1387 1382 1383
3 1386 1382 1387
3 1388 1383 1384
3 1387 1383 1388
3 1389 1384 1385
3 1388 1384 1389
3 1347 1389 1341
3 1341 1389 1385
3 1386 1351 1345
3 1351 1386 1354
3 1354 1386 1387
3 1354 1387 1356
3 1356 1387 1388
3 1356 1388 1358
3 1358 1388 1389
3 1358 1389 1347
