ply
format ascii 1.0
element vertex 970
property float x
property float y
property float z
element face 102
property list uchar int vertex_indices
end_header
2.88443674 0.77503985 -2.22399661
1.22098592 0.18267093 -5.29472067
-0.30200827 0.95820094 3.52834751
-0.70401962 0.69682495 2.90704373
-0.86509031 1.40552733 3.13926101
-2.36854569 -4.24258981 0.04488660
-1.16363477 0.71766342 -2.99589487
-1.43315929 1.79600496 -3.32085307
2.62381159 -1.65532338 0.26182567
0.05051329 -5.43642069 0.29664302
0.39962063 -1.77084080 -1.86130429
0.28408824 -1.65530840 -2.19159760
-1.17564060 0.68996302 -3.21647934
-2.47693617 -1.26040378 -1.65325252
-1.92127712 0.55933188 -1.69376999
-2.07348460 0.16278864 -1.33929838
2.14214769 0.91399582 -1.95041513
1.52002509 -1.54740072 -1.21669797
0.10074168 -3.13035983 -1.06302348
0.50430874 -0.88246241 -2.79465819
0.49882714 -0.89476763 -2.78825151
-0.48875776 -1.87552890 -2.79465819
-0.65412426 -1.94919455 -2.88075576
-0.52989057 0.89159257 -3.72260915
1.78788651 -1.22910100 -1.18319331
-0.89685448 1.21827593 -2.42087032
-0.51474865 -0.64787319 -3.37509790
2.50027441 -0.04926117 3.10363212
-1.24299969 0.00332000 -3.08213289
-0.50324425 0.29290187 -3.51901485
-1.10624507 -2.49600466 1.05312087
-0.86313197 -0.47913080 -2.63683348
0.05487687 -1.12443043 -3.32085307
-1.55069563 -0.78693906 -1.14254281
-3.63481391 -0.08560252 -2.60673782
-0.72721211 -1.18047731 -2.35417008
-1.23240769 -0.64355946 -1.83538488
-1.59222750 -0.75927995 -2.43403218
-2.06133847 1.62780859 0.39802229
-1.00833184 -1.38151148 0.39802229
-2.88860293 -0.12227626 1.19611274
-3.95730822 2.45780654 1.19611274
-2.11743423 0.89690199 1.95599027
-4.89604658 -0.19080309 0.31500792
-0.59716444 2.44205119 3.52834751
-1.05596487 1.03310581 2.69738238
-0.72156516 3.79411800 3.63770287
-1.75914895 -3.41150175 1.74510496
-1.77982741 0.63476649 0.17895868
-1.65637742 0.64644687 -2.38174199
1.09907169 -0.82435263 -4.15501152
-1.17135049 -0.67610887 -2.16250634
-0.91637707 2.19197959 -4.15501152
-2.43343257 0.07707224 2.36947571
-2.43343257 -3.98617347 -1.69376999
-0.30174518 -3.14123571 -2.23906757
1.49582097 -2.70076209 1.66788971
2.64564244 -0.01896253 0.98212623
1.34209213 -0.01561594 1.93914975
2.43261982 0.03590640 -4.08180647
1.61631434 -1.89784822 2.14887054
1.18731626 -2.51995605 1.15190476
1.92310778 -1.93542494 0.64347697
0.86343480 -4.66095319 0.26147759
-0.20127077 -5.40937095 1.05480271
2.28265115 -3.16270055 -0.23315207
-2.86009487 4.02319683 1.72564054
1.99404684 -0.46221051 0.08217467
1.37271288 -1.39409355 -0.02846792
0.81186001 -2.01589030 -0.55443809
0.22769301 -0.69471369 -3.81548477
2.09979117 1.79283503 -2.18694992
1.41287039 1.01939894 -2.85938405
1.07047169 0.64734220 -3.20479410
0.98338011 -0.90241969 -2.18694992
1.24698191 -0.62226579 -1.91625730
1.09663773 1.84458874 -1.80475911
-3.12665015 -0.62526791 1.67476125
1.15484891 -0.62526791 -2.60673782
-1.07477674 0.62110864 -3.08553440
-1.60415459 3.96346884 -3.08553440
-2.39675088 0.85292675 -0.83655051
-2.11795808 4.63462246 -2.28958382
-2.77623654 0.14134050 0.96939778
2.47413895 1.98122340 -3.52780411
-2.31535219 -0.82649585 -1.68563927
-1.12657007 0.50682930 -3.21647934
-1.06215256 0.68522485 -3.29846728
-0.79222500 3.30020102 -3.94686807
-0.59843582 0.79305519 -3.69663233
-0.23629720 0.50536325 -3.94686807
-2.53497040 0.05142877 -1.07960252
-1.46656166 0.39393943 -2.31536052
-1.87019162 -0.04465232 -1.90818069
-1.66948970 1.04714566 -1.65325252
-2.11722144 0.57001794 0.51836949
-1.82294213 0.59977572 0.04488660
-2.36854569 0.08602042 -4.28372363
-0.63484350 -1.68809959 -3.10779420
1.27802859 1.17471581 -3.10779420
1.50124115 1.71245076 -3.20893237
1.41892021 1.34872541 -3.08949580
0.56881558 0.84672457 -3.47198872
2.14448257 0.10496636 -0.55443809
1.87840827 -0.42820040 -0.34134293
1.54929925 -1.37791647 1.67051512
1.45521593 -1.12011040 -0.94266110
2.65667475 0.79916514 0.81688785
2.49940821 5.32326273 -1.38194917
-0.90236762 1.52737482 -2.08628013
-0.12903805 1.45862573 -2.62352408
-0.94233894 0.91519544 -2.62352408
-0.48816882 1.37700410 -2.50584934
-1.19727525 1.98572003 -1.96763610
-1.06133336 -1.99659866 -3.71555076
4.05697317 0.12347332 -3.71555076
-0.80412538 -0.89157760 -3.31793796
-1.01044902 -0.15217282 -3.16244393
-0.27104424 -0.35849646 -3.31793796
-0.66225384 -0.52246208 -3.42600900
2.47145830 0.62081920 -2.09804672
1.93626574 -0.76857728 -2.25013553
1.13721358 2.65219560 -0.66519758
0.29461219 2.73725309 -1.37645265
0.99280272 2.42623085 -1.01294183
0.97182989 -2.15654580 -3.42600900
1.60428540 0.10999343 -2.94936436
1.40213589 -3.97554003 -3.52403429
1.29987510 3.50055847 -3.47591314
2.43555196 0.92466161 -2.12338969
1.37596450 3.85904535 -3.47198872
0.75802307 0.77648436 -3.47591314
1.28215390 1.19286694 -3.11374170
1.66906213 -1.16662418 -2.79578263
2.04260120 0.84048352 1.01825313
2.57536265 0.57138500 -2.04904158
2.44580626 -1.21124036 -1.41592295
2.04602249 1.43107172 0.32677668
2.14535499 -0.68723870 -1.80475911
1.54073767 1.37529707 -1.41592295
1.58886055 1.29661724 -1.34754467
-0.37938840 -2.25957172 -1.41936931
0.28643931 -2.72899537 -1.26825718
-0.85371228 -2.14010151 -0.53753695
-0.03409683 -0.17191011 -4.32221368
1.22259344 2.42244782 -3.62854319
0.82466537 1.44054014 -3.38068454
2.31972493 -0.05451941 -2.73930848
-1.27482908 -0.08648526 -3.05225765
-1.31106521 0.00099649 -3.05225765
1.20724909 3.93227507 -3.57771630
-1.66706955 1.05795643 -3.57771630
-2.19293324 -1.32600934 -2.11474461
-1.07576473 2.82251609 -4.34966478
-0.52712876 -2.56057237 -0.29208360
-5.00472850 0.01307253 0.91254532
0.54208954 -3.11480663 -1.63842648
-0.67638187 -2.66647563 0.37498163
-1.03372487 -1.06116530 -1.63842648
-2.49239389 1.02712241 1.74199545
-2.39806195 1.28836193 1.86205724
-2.32620387 1.02018391 1.86205724
1.74893946 -1.35521547 0.76052283
-1.30100216 -0.50150671 5.37842060
-0.94952995 -2.50582454 1.96861225
-6.01706637 -1.70320562 1.96861225
-0.25066963 -3.14897607 1.31980428
-0.13833546 -2.37174329 2.28854476
-0.94521960 -2.01633196 1.02217188
1.20255642 -2.15656773 2.90704373
0.34944025 -5.40333395 -0.94232014
2.57094117 -4.99173914 1.52988335
1.04648617 -4.31264168 0.73618040
-0.11321635 0.48213085 4.86453546
-2.60707453 -3.12031845 1.67730814
-1.15552765 -2.85628566 2.82546033
-1.79764720 -0.88437960 1.66247331
-0.74243837 -0.77954561 2.82546033
-1.61509593 4.35779239 2.10485991
-1.07976812 0.29157397 2.10485991
-2.16462269 0.64651052 -1.08517922
-1.87591159 1.59272855 -2.35417008
-1.76710896 -0.72753656 -0.01941872
-2.63919089 1.11442651 0.73620706
-1.61019315 0.77776489 -2.28958382
-1.68932024 0.90305222 -2.17240628
-1.43549710 -0.63000722 -1.23392234
-1.14943993 -1.09770428 -1.64038379
-1.69722872 -0.51395024 1.01654240
-2.13733085 1.72552576 -1.64038379
-1.95820240 1.09364260 -1.50099130
0.71579869 -4.77312581 -0.41917856
0.49718536 -2.91798333 1.52988335
0.88952583 -2.21884842 3.03234680
-0.13510599 -1.49859986 2.26888112
0.56457899 -3.89071053 0.37474876
-0.15660613 -2.29391775 1.24691280
-1.33275067 -1.46185049 -0.77262110
-1.01614632 -1.36873496 0.38691861
-1.00095083 -1.39918409 0.37474876
2.32617385 1.46647152 0.86802553
1.27651002 -2.45092722 0.86802553
3.70412358 -2.34957332 -0.88577181
2.20382940 -1.65200180 1.82807917
1.98363108 -3.28066382 1.48260884
1.10753855 -4.96869217 -0.25664543
1.32295621 -4.95462680 -0.44569433
1.29876433 -4.68250255 -0.25664543
2.08029061 2.32590461 1.12254244
3.63109826 -2.04963201 -0.33305387
0.31477595 -1.93642482 1.12254244
1.50108098 0.38466806 1.48260884
1.53056602 0.33798239 1.43894511
2.00953491 -1.43237573 1.90552199
2.47898025 0.06472454 -1.39292586
1.40789446 -1.95566862 2.23338402
2.00082945 0.37130322 0.55093704
1.01187110 0.54472450 2.23338402
-4.73793609 -0.12153885 0.10884822
-1.71804809 4.14009545 -0.41818656
-2.28664371 0.98489843 5.72043394
2.09130611 4.18567466 1.17927367
-1.42440798 3.38997297 0.02481793
-0.19202013 3.42418929 1.05205606
-1.95047222 1.78808154 3.99156547
-0.56087025 3.66060440 0.99577934
0.27382136 -1.66276101 -2.19895505
1.24680603 -1.30475574 -0.59119043
1.53215475 -0.02286901 -2.19895505
1.63627876 0.20749821 -3.52652117
1.44880640 -0.30201308 -2.68460222
0.77753604 -0.45143825 -3.52652117
0.20521098 -1.10116042 -3.00702850
1.53532861 1.50934242 -3.00702850
1.64039135 -0.79948547 -1.05989242
1.56416978 0.44172558 -2.39564748
1.86170933 0.91284029 -1.95502781
2.37650149 0.87636435 -0.98293523
2.10327273 4.53661902 -2.39564748
1.59346471 3.94939017 -3.20479410
2.22844609 0.21478867 4.62206912
-2.30470229 -3.04321154 -1.76788977
-2.01758985 -3.08511561 -2.31536052
-2.84260151 0.15264049 0.02560163
-1.84535176 0.44590209 -1.76788977
-2.06534759 0.09756766 -1.44210286
-0.96807643 -1.46099198 -3.52780411
-0.62322282 1.63636979 -2.24603316
-1.28736036 2.30050733 -1.42267642
-0.83764661 -0.88470319 -3.33856805
0.49817347 -0.09587936 -3.93960197
-2.02667551 0.76565098 -2.77658025
-0.62061238 -4.51126135 2.84792150
0.40906329 -3.41693024 1.79054784
0.87219518 -5.18372838 -0.40158865
0.79361184 -3.45680388 1.05480271
2.57948971 -1.82573802 -0.98196183
2.49940821 0.60450957 3.33680398
2.02062343 -0.51758088 1.79972071
2.47488072 1.79392415 -0.94266110
2.18883521 0.78488658 -0.72006891
1.90462873 0.04444888 -1.38194917
2.70293245 0.07375778 0.93102606
2.50027441 -4.64125043 -1.48835714
1.92147301 0.49575413 -1.48835714
2.07610720 0.09288862 -1.12823402
-0.91627096 1.18539543 -2.43566445
1.86448246 1.93049606 -2.43566445
-0.84432521 2.90862943 -1.19073682
-1.05614835 0.78339206 -2.85901065
-1.06992697 0.64470311 -3.01186519
-0.79697540 0.69899655 -3.01186519
1.13847612 1.49591623 -2.00678157
1.03468283 0.77777723 -2.90186774
2.27608258 -0.13333407 -4.18365295
0.85714065 -0.91684187 -5.30000117
4.37469092 -1.16996633 -3.93700390
2.29161989 0.57852231 -2.38969202
2.73428716 0.35297207 -2.38969202
2.34277540 0.33515641 -2.71987110
1.42285773 1.49788471 -1.46976388
2.05230339 1.78143194 -0.09960064
1.30430668 1.72755861 -1.37645265
1.19786566 2.63081208 -0.42747059
0.46720335 2.11462000 -2.25013553
1.43490410 1.43439023 -1.52908989
1.72673680 -1.42038962 -2.87893280
-0.53915676 1.97075973 -2.87893280
2.01339387 1.80409482 -0.63883385
1.22927025 -4.03478168 -3.62491760
0.39873020 -0.93516401 -3.62491760
2.31956450 -1.01535966 -2.23723624
1.91462390 -0.68199036 -2.22404257
1.19704281 0.09774648 -2.94793468
1.76078528 1.72758934 -1.29043869
1.22383876 1.19064282 -1.95611185
1.23416754 1.16730068 -1.96833003
-0.73856531 2.48543863 -1.96833003
0.53285224 0.92182248 -2.49901356
-4.39902904 -0.16852868 -3.78817144
1.17668857 -1.39456128 -3.27488591
1.40874122 -2.41985857 -3.61156298
2.50058485 -0.87631385 -2.49302425
0.42642168 -1.06787028 -3.45466436
0.15160830 -0.95649937 -3.52403429
0.96185521 -2.38907965 -3.78817144
1.10423994 1.78197759 -1.95741588
0.67397556 0.68283964 -2.60654061
-2.38666263 1.37554528 -3.61156298
1.91083698 0.67240230 -0.21239692
0.96751717 1.08327765 1.90552199
2.51169525 -1.57076962 0.39881349
2.04429877 0.07799111 0.03509931
-0.80922877 -0.60013406 -2.57383349
-3.28592484 0.22140133 -3.11323651
-0.05091991 -1.37837935 -2.63664279
-1.10581362 -0.44499394 -3.54734110
0.46307716 -1.50684961 -2.79153579
-1.18568503 0.01048354 -4.32221368
-3.07965860 -0.25216086 -2.05000608
-3.25666135 -0.85399218 0.15415604
-5.62323692 0.59347447 -1.90256361
-2.63192307 -0.45323152 -1.90256361
-2.02302511 -0.30170886 -3.11323651
-2.80420364 -0.41333590 -1.83486161
-2.80447896 -0.40431477 -1.86449803
-3.18916143 0.76327784 -5.29472067
-1.11310419 -0.54788720 -3.35304565
-1.15002796 -3.01916625 -1.93195239
0.24641900 -2.70178807 -1.47438498
1.84836790 -2.37706599 -0.92022932
0.16539059 -2.14023167 -1.93195239
0.60900472 -1.13770282 -2.45671529
-2.24114885 -2.02993924 -3.20893237
0.21367733 -2.74300237 -1.44590613
1.50586128 -2.33191019 -1.98744556
0.22161022 -2.07645678 -1.98744556
-0.66140317 -0.18495315 -3.22596585
-2.05595975 2.68652928 -3.87592337
-0.56149239 0.17309843 -3.30126274
-0.90013000 -0.16553918 -3.15598822
-0.91954397 0.07318766 -3.22596585
3.10118719 0.55036907 -3.87592337
-1.37842288 -0.74311403 -2.35415553
-0.67475280 -0.03944395 -3.22652226
-0.49831329 -0.43818169 -3.01780730
1.92146462 -2.05502560 -3.01780730
-0.17370508 -1.57884486 -2.33129259
-1.51800633 0.39813469 -3.13298306
2.18720724 -0.44045588 -4.34966478
0.67712132 -3.85223889 -0.06354739
-0.24956322 -2.92555435 -0.06354739
0.10668427 -3.49599140 1.10057449
-0.53852374 -2.74362629 1.38935153
-1.18702711 -1.12789799 -1.03492623
0.26497970 -3.43875360 -1.03492623
-2.55463206 -1.18957774 -0.17205175
-2.44048535 -1.26130088 -0.17205175
-2.52029565 -1.22926749 -0.05230245
-3.58232321 -0.59366432 -1.07526250
1.64514766 -0.59366432 4.15220837
-4.20276273 0.06523693 4.15220837
-4.13627814 -0.13985824 3.50079477
-4.14182381 0.04184639 4.09773482
-1.31110288 -0.64406011 5.10923411
0.70852442 3.55100970 1.69259799
-3.15728572 -0.31480044 1.69259799
2.20474698 -1.81102300 0.56498277
1.91784719 -5.20249790 -0.94407006
1.78359574 -1.26969934 0.78210929
-3.27106467 -3.36340823 0.78210929
1.30790588 -0.14480393 1.72564054
-4.47327724 -1.75798629 0.50987957
-2.85228530 -0.13699435 1.20528024
0.25985476 -2.41131410 2.21687534
0.53031644 -2.85100520 2.45987082
-1.13892052 -2.92696348 1.05212990
0.74842147 -3.88861226 1.05212990
-0.12556456 0.88672205 3.53536356
1.95786470 0.08702737 5.39774945
1.34486232 0.73803044 0.23293972
-1.75939057 1.43762760 4.32189974
-2.50344951 3.14190470 0.89365229
-0.18569557 3.12807063 2.15305307
1.16348632 5.72548312 -0.37392525
-1.04830945 -3.19140744 3.02078191
1.04023334 4.67956410 0.72494502
0.10104459 2.57124966 1.82263265
2.20940534 5.84873610 0.72494502
-1.53493723 3.61678238 -0.69503108
-3.34348702 -1.08092397 0.74003283
-1.62486141 -1.48056444 2.21571099
-1.23448173 0.23708518 1.65289657
-1.90098248 0.19338607 1.17927367
-2.27128866 4.55598083 -1.26225783
-2.04610664 -1.02675778 1.67730814
-2.19734755 -1.11606804 1.60925937
-0.69471283 2.97940500 0.69228358
1.14048216 3.79146983 1.65289657
-1.25893961 0.38796541 1.74510496
-2.47177939 -1.49927661 -0.08945818
-1.47266112 1.35603937 -0.08945818
-2.27262576 0.05631334 -1.23566185
-2.02868473 0.06375847 -0.43426140
-2.28677810 5.47860695 0.30692795
-2.28677810 1.02070899 -4.15097000
-1.72487835 0.49160875 0.30692795
-2.37336617 5.61962218 -1.81347750
-2.37336617 1.26134444 2.54480024
-1.82402314 0.74406795 -1.81347750
-0.89269333 -1.84422591 0.61437669
-0.15934415 -1.97294313 1.86188297
-0.46270839 -1.65053002 1.55035831
-1.45552219 1.15630748 1.86188297
-0.76222553 1.02289615 3.03234680
-1.32783658 0.68435772 1.73750088
-1.51738447 0.67092718 1.37957370
-0.77492965 1.07372409 3.04766380
-0.19003464 0.43816640 3.63770287
0.86460517 -3.94230402 1.10948964
1.15145290 -4.33747160 0.82630484
1.73838635 -4.76352003 1.24691280
0.27311598 -4.22438048 -1.17430711
0.37190994 -3.62296994 0.65626482
0.63435114 -3.96806433 0.44018138
-1.23905987 2.80790090 1.00089050
-2.22061287 1.01567175 1.66788971
2.93422894 2.45407973 0.58384594
2.14565627 -2.14565627 1.30943269
0.96673925 -3.08059871 1.26037387
1.85580403 -1.85580403 2.13808564
1.65200180 -2.20382940 1.82807917
-0.18231738 -3.59002143 3.28241241
-0.08224926 -3.14048026 3.84623475
0.25896393 -3.01493242 3.28241241
2.99102447 -2.34075936 -0.83603278
1.13944741 -2.07314922 1.47176700
1.13383865 -2.07924381 1.47742510
1.89342533 1.02989400 1.15190476
1.71274229 1.57580995 1.47742510
1.13202165 1.04047968 1.93914975
1.22408665 -1.12695529 3.11433212
1.00346120 1.26870685 1.95339742
1.66863258 0.98716790 1.34772980
0.72959742 0.85144828 2.51814025
2.16840334 1.19694682 1.06307108
-0.11585926 2.25775013 2.07571417
-1.66551292 3.29319560 2.07571417
0.03871190 2.90586705 1.51729858
-1.58962346 0.37798924 1.23307269
3.24565325 2.38082643 1.23307269
2.16952233 -0.00790684 1.82247082
-1.83621668 -0.22059300 1.38246751
-3.67224553 1.62218111 0.59396911
-1.83141667 -0.21864775 1.38367915
-3.38100868 -3.95005079 1.38246751
-2.04215758 -4.21958675 1.82247082
-2.20196334 2.18000945 3.46368133
-0.96102798 0.62625421 5.37106867
-0.40852567 5.11030131 -0.74922021
2.33028769 3.08551733 0.99577934
-0.41492438 2.19158311 2.61484531
0.02927531 2.74855070 1.85045134
-0.52474657 1.43173059 3.56192308
-2.36824996 3.12828140 1.85045134
0.32710083 -0.22179357 -4.45710435
0.49179001 -0.58738661 -3.66128959
2.53713860 1.33711837 -5.63756324
1.08790496 -0.25641381 -3.81548477
0.88349463 0.24860026 -4.89724732
0.86248465 0.54511834 -5.45716849
0.17800299 0.35993240 -5.63756324
2.28716596 -0.00768000 -1.96607937
2.15182691 0.45248960 -3.65141604
2.56639739 -0.14238015 -0.61834572
2.15655203 -3.61627500 -2.24074838
1.74539391 -3.36440613 -2.94793468
2.00863622 -0.18190068 -1.67157756
1.62428926 0.42666212 -2.24074838
1.59624442 -2.20522835 1.87911609
1.60790455 -2.22347336 1.85103827
1.59171549 -2.24650405 1.83387782
1.20794951 -2.17070888 2.14887054
0.82200457 -2.59436915 1.88533170
0.89252910 -2.24239621 2.25222291
0.85189058 -2.29355085 2.21687534
2.22424094 0.07700617 4.16942303
3.15239466 0.15376291 0.83159648
-0.56123735 -0.57604057 5.23746916
-2.63665631 -0.60019751 -2.71293760
-2.23648702 0.85533945 0.00669633
-1.48272176 1.18365182 -1.68563927
-1.85536235 0.74324805 -1.38914425
-2.08298684 0.28712803 -1.57144550
-2.54636194 -0.07131343 -2.10908710
-1.69876231 1.22275092 -0.94187696
-1.12721414 1.67562379 -1.25213444
-2.85407700 0.36235999 -0.17084628
-1.14681315 -3.15006848 -3.49776484
-0.02879582 -0.45093586 -3.49776484
-2.12886665 -0.37924708 -2.57600421
-0.61887475 -4.26476007 -3.93960197
-1.34336328 -3.60791682 -3.23780442
-2.08528356 -0.20373980 -2.07321757
-0.57677684 0.24597343 -3.23780442
-1.35625594 -0.37326418 -2.69918877
-1.68951691 1.98557699 -0.91702441
-1.44507396 -0.76405868 -2.82723862
0.48713625 2.12769825 -2.82723862
1.74888732 4.61252829 2.15305307
1.97077034 4.91819910 1.93400341
1.32654800 3.46469692 4.04973524
-1.78951899 1.26200332 0.09946706
-2.20313946 0.59969847 -1.25213444
-1.57817818 1.54484490 0.31566327
-0.95271421 2.08594662 -1.57144550
-1.71860585 1.23683100 -0.85318912
2.43261982 4.61944667 0.50173380
1.85488337 -0.50810611 0.50173380
2.00503247 2.77294084 1.22544736
0.78339650 -0.62609157 -4.66098308
2.78065631 -0.11717040 -3.21692446
2.92950529 -0.96600181 -4.66098308
0.33429573 1.23404780 -2.48106955
-3.10093511 1.89549286 -2.49901356
0.43883615 3.17368194 -0.87218744
1.18122939 1.06558222 -2.48106955
0.22772746 2.26582395 -1.65170929
-1.57495231 0.66337368 -1.64650711
-0.87531950 -0.46775098 -4.41843139
-1.82489807 -1.34163508 -5.30000117
-1.63887827 -0.28083204 -3.49532978
-1.17990430 -0.20102181 -4.34930330
1.34507367 1.66137685 -1.39265492
1.39655552 -3.53921657 -3.40673251
0.78490169 -0.46422511 -3.40673251
2.34733032 -0.61945090 -1.68471865
1.29875685 0.73123874 1.56537204
1.73298064 -0.18144401 1.99582706
1.30885029 0.73578554 1.54340087
0.70487071 0.02905123 3.39765080
0.15096014 0.97917408 3.11433212
0.34118724 0.84545698 2.97259158
-1.04521435 1.77913629 3.39765080
-1.19944247 1.84784014 3.47794922
-0.71490024 1.15852617 3.99156547
-0.85768542 1.83780857 3.06997031
0.52037843 1.59464402 1.75279749
1.84994927 0.77344072 -1.55664694
0.84272350 2.37643134 -1.55664694
1.40009648 1.89423654 0.12502217
1.62956433 1.41321243 -1.47773899
0.82724921 2.19719591 0.17553476
2.47524023 -0.10048916 -4.14960578
2.47524023 -4.60338943 0.35329448
1.90766812 0.43395232 0.35329448
2.07894337 0.63130433 -2.21373870
1.57836757 1.54738800 -2.09069018
2.18459123 0.03699846 0.17553476
1.54030334 1.20530894 0.39881349
1.87304311 0.66128687 -0.07397973
-0.61124067 -2.28025182 -0.80865720
-0.60971408 -2.27872524 -0.81302152
-1.00109133 -1.73955556 -1.19940104
-0.74317247 -1.40988017 -2.05283577
1.06887709 -2.47823992 -2.57383349
-0.32600145 -2.25757024 -1.19940104
-0.98400896 -1.94451238 -0.88906030
-0.16722627 -1.92759418 -1.93025996
-0.83362324 -0.97957209 -2.63664279
0.62817782 -4.34351489 -0.06473508
0.22531036 -2.62590985 -1.57495839
-0.07514056 -0.54710955 -4.16596851
0.90158386 0.35175650 -5.07273996
0.64077292 0.31044810 -5.07273996
0.44412530 -2.69716342 -1.44590613
3.24632944 -2.03650484 -2.51399799
-0.70562261 -0.97758249 -2.51399799
-0.60337472 -3.42660874 -0.74473133
0.65886912 -4.08245990 -0.28144131
1.11835908 -4.36941908 0.65626482
-2.21688980 -1.38262059 3.25327320
-4.02833434 0.09108457 4.39310930
1.78313518 -2.34688822 1.11735828
-2.83049718 -3.98208339 -0.41744460
-2.71112979 -0.48530272 1.11735828
-2.00148761 -1.86432533 0.83325293
-0.56494434 -4.29701470 -0.26130228
2.71842850 -5.19273060 0.70345245
-0.76514042 -1.28587148 1.87707408
0.22699363 -3.52800704 0.70345245
-4.03781074 -3.64154479 -0.01128037
0.06897541 -4.45843534 -0.01128037
0.19708001 -4.61968985 -0.12270633
3.56246144 -0.37725799 3.44731202
0.27358383 0.77357006 3.44731202
2.88242632 0.26087997 0.35216748
3.75238589 -0.02294885 0.41214566
2.32879557 0.22352692 -1.64650711
1.91462379 0.66337368 1.84306899
-1.51076658 2.63160828 1.31139969
-4.79515388 1.29527360 1.26718308
-1.16677687 2.79819657 1.26718308
-1.46107124 2.52128975 1.55153862
-3.29197199 0.77665126 4.73599883
-0.72890724 2.39539320 2.33884007
-3.89155142 -0.57342893 -1.04843305
-1.97973761 0.62784330 -1.04843305
-3.31645966 0.09132441 0.95721701
0.38377046 2.76998729 2.03329515
-1.79053987 -0.27852613 0.91471071
-1.68461257 -0.28603168 1.11473539
-1.86981407 -0.97057088 1.29514531
-1.35716165 2.40404332 -0.32866004
-1.22971628 -0.39665874 2.03329515
-1.36716978 -0.94659689 2.19901900
-0.55257116 -0.06143901 3.02078191
-0.04463000 -3.16717319 3.67810092
2.45806894 0.12372530 5.73872172
2.47279282 -0.19002706 4.87997346
1.10133556 -1.23300808 5.73872172
1.93649677 -0.71143591 4.03436285
0.56562123 1.49044228 2.33052924
2.43101393 1.92421123 0.72883120
0.89452205 0.04329634 2.80470896
1.96835770 1.94352733 1.06307108
0.03340771 1.33204502 2.80470896
0.35715012 1.18879058 2.63524949
1.18626164 4.56548930 -0.28591905
3.35841431 -0.01195346 -1.83706742
2.73969113 0.23638289 -2.76541463
3.62460473 -0.31964517 -2.76541463
1.27641954 1.02095192 1.46058176
1.13147772 0.52813175 3.26549871
1.53995737 -0.40968784 5.37106867
-0.85499989 1.84377017 3.05699323
1.57542372 0.99538568 -6.12395934
1.17864172 -0.21736844 -2.55782868
1.31657745 -0.15477504 -2.71293760
1.17893969 -0.20760534 -2.58990265
0.89715542 -0.60019751 0.82087413
1.51076658 -2.63160828 1.31139969
0.97951583 -1.45228632 3.87852140
0.89123511 -2.60341663 1.83387782
0.82225352 -2.62295529 1.85045134
0.82568035 -2.61980162 1.85363275
1.93283114 -2.44705707 1.85045134
0.89928052 -2.18369835 2.59772903
-0.70485573 1.21832102 -2.56189271
-0.85578569 1.15108641 -2.48331148
-2.73590556 -0.58645401 -2.96030792
-1.86767511 0.07976265 -2.96030792
-2.38146261 -0.16468017 -2.71798669
-1.00769222 1.54983252 -1.96630582
-1.45004566 0.55682643 -2.48331148
-1.52834286 1.13516608 -1.63879098
-1.88524569 0.38500205 -1.99259615
-1.38739935 1.08844009 -1.92478406
-1.06288959 1.45671739 -1.99259615
-1.46429845 1.16533919 -1.70493873
-0.57302377 2.05081168 1.37823378
-0.65393574 1.96481909 1.29514531
-1.75464839 1.48538922 -1.17614823
-1.44860025 1.39537835 -0.05526985
0.23056322 3.56648930 0.91833969
1.16066595 3.69848020 3.00487457
1.67541437 -0.97567327 0.91969399
2.55610704 -0.94879434 -1.97357693
2.20440160 0.89035144 1.33133628
1.28306848 -3.03624579 -0.17174757
1.37451415 -1.08612568 1.79054784
0.62113141 -2.84156553 2.25254735
1.26945619 -1.78156904 1.33133628
1.20084126 -1.72805298 1.62136827
1.46819684 -1.30473061 1.22544736
-2.00204860 0.26508544 -1.28120115
-0.77471751 0.64912657 -1.15088099
-2.01546608 -0.69832717 -4.18365295
-1.62669392 -0.45279229 -3.82004583
-1.64086066 0.44664481 -0.81683721
-1.64218619 0.40321351 -0.95951868
-3.35091932 -0.05643831 -0.50040154
-4.09939701 -0.51422910 -1.15088099
2.75319658 -0.50471501 -3.94873288
3.18149026 -0.77521029 -4.34930330
2.79770048 -0.51675550 -3.93700390
4.11712504 -0.57862638 -2.60934170
1.38901707 0.44150072 -2.39176762
4.36843451 -0.60104253 -2.39176762
4.14985189 -0.46735103 -2.20180404
2.80078806 0.38839635 -0.92769190
2.81147437 0.03825754 -2.07797565
0.96386076 2.39680717 -1.09646268
1.92876106 1.06753985 -2.04904158
0.55054206 2.69683060 -1.39265492
2.06992083 0.68389664 -2.68297549
2.24244704 0.92704375 -1.59626454
0.91656109 2.29457035 -1.48740175
1.16489997 2.47078041 -0.37748691
-4.67777136 -0.02156330 -3.62854319
-3.37450099 -2.89817282 -1.90430660
1.37930675 -2.16835440 -1.61355365
1.03487663 -1.28848560 -2.13318323
0.73448871 -1.79717235 -1.90430660
-5.51292807 0.20380052 1.27721511
-2.90572319 -0.30856774 4.37041678
0.23417139 -3.50841672 1.02883210
-3.24769440 -0.23226708 4.39310930
0.40518750 -3.58978044 1.10948964
0.76430957 -3.66972122 1.55990679
-3.37519436 0.06045732 5.05032707
-1.99393713 -1.64033344 2.47571894
0.56593123 -3.94930263 0.31035798
-2.73511278 -1.17462192 2.47571894
-3.61002633 -0.73800053 2.12603502
-1.99742508 0.36665572 1.78187320
0.88738678 -2.51815615 1.78187320
-2.26500686 -2.78573792 0.01763224
-0.82200457 2.59436915 1.88533170
-0.82568035 2.61980162 1.85363275
-0.89123511 2.60341663 1.83387782
0.83062115 4.29229576 0.89174570
-2.33210791 4.57346277 -1.30545084
-1.59171549 2.24650405 1.83387782
0.36189527 5.02572762 -0.23695559
0.66617307 5.25489858 -0.32301777
-0.73261259 3.49414606 0.89365229
-0.02927531 2.74855070 1.85045134
-0.82225352 2.62295529 1.85045134
-0.76725444 2.93659494 1.31687773
-4.38245631 -0.77984904 -2.43921069
0.26522136 0.85349550 -2.38466996
1.18956244 -1.95525603 1.18546716
1.70782321 -0.66402358 3.12286350
0.54743114 -2.51077699 3.12286350
3.70112724 0.66530218 3.29096929
1.78591869 -0.77711700 -0.56119372
3.57808132 2.61187341 0.10693413
1.92944647 1.96650505 1.08057866
1.58410877 2.54380644 0.98212623
3.05408101 1.02962372 1.00089050
2.60872109 2.12857188 0.72348784
3.16810654 4.36991899 -0.46522799
2.42409688 2.46929861 0.65723319
2.71954335 0.40978895 -0.34479906
3.19973866 -0.14527279 1.32989674
1.60339510 0.85777634 1.32989674
0.85310839 1.89812217 0.10681686
1.37069144 1.50450487 -0.21727166
1.37615400 1.42154664 -0.01467168
1.46805659 1.48675657 -0.42541708
2.11447408 0.63675648 0.10681686
0.15944327 1.86922981 1.99582706
0.52767148 1.60193706 1.73194755
2.62119046 -0.02391076 0.22885794
3.29608801 0.60940615 -2.84290318
0.03205744 -0.53272754 -2.84290318
-3.42083483 -0.59343981 4.05602570
1.06303692 -0.59343981 -0.42784605
1.59521994 -0.02826617 4.05602570
-1.68763158 -0.67078316 -4.17364116
-2.22536874 -0.94477392 -4.17364116
-2.16322675 -0.64914130 -3.77255084
-2.02340133 -0.65762954 -2.09290136
-0.83779091 1.66926193 -2.09290136
-2.11704980 1.40036169 -0.35730687
1.15598343 4.32675437 1.35011121
-0.54465498 2.11043925 1.35011121
-0.15900599 3.84291001 -0.82278373
-1.23245404 2.13279070 -2.06131402
-0.45930598 2.80165695 0.27137747
-1.85645774 0.57810265 0.27137747
-0.85675543 2.25162632 0.83263130
-1.25806980 1.60902647 2.14401974
-0.21415558 2.65294069 2.14401974
-2.43207044 0.58842003 4.68583292
-2.34193600 0.63535241 1.20348539
-3.72693506 -1.43065921 -4.01802022
-3.26121878 -0.36143129 -1.61741546
-0.87550886 -0.24955980 -4.01802022
1.58123752 1.45950236 -1.70219225
1.71725480 1.24170631 -2.14666048
1.36344148 1.59551963 -2.14666048
1.97816675 -0.73555602 0.64781713
2.45877699 0.03401539 -0.92268907
1.20859534 -1.21616626 -0.92268907
3.11690834 0.26267633 -0.01478944
1.64548797 -0.32790630 -2.22254411
3.74995073 0.99441529 -2.22254411
2.30082230 3.13246276 0.22560469
0.25954720 2.95919506 1.36800680
2.12755460 1.09118766 1.36800680
-0.12022677 1.49418981 2.71044699
1.51882760 0.23649916 2.71044699
1.16100520 1.20898684 1.10350359
1.85032056 0.69914320 -1.28120115
-1.59332789 0.69914320 2.16244730
-1.40460392 0.62811842 1.41343544
-1.25807267 0.28993571 1.77087205
2.14492442 1.53253426 1.02755738
2.34378756 1.71822659 0.89466763
-1.00743497 0.69333836 1.58014918
-0.29850017 -0.01559644 1.58014918
2.03409914 1.71822659 1.06019953
2.54712072 1.27715318 0.84915513
0.32966560 0.69333836 1.44845627
0.96844461 1.27715318 1.32804129
-0.70919708 0.35207715 -5.13624466
-0.00502512 0.65718795 -5.88050754
-1.98347271 0.92213352 -1.35398214
-1.95553660 1.06180278 -1.49795289
-2.05687191 0.22851633 -1.30236471
-2.06071346 0.20982351 -1.28205362
2.08393256 0.39860750 -0.67568901
2.08393256 0.15017511 -0.42725662
-0.23452619 -0.20273666 -3.27527725
-0.46238589 -0.46776497 -3.38430334
-0.00000000 -0.61026109 -3.36943014
-0.23452619 -0.35365504 -3.32105784
1.08684704 0.17228481 -3.09850064
0.88645903 0.00000000 -3.18093532
0.93492852 0.17228481 -3.17970278
1.10679711 0.01179916 -3.06485206
0.68592353 -0.00000000 -3.24176710
0.68592353 -0.00000000 -3.24176710
-0.39232532 -2.69327422 -0.56150951
-0.13088665 -3.08239048 0.04085624
-3.15894221 -0.54497479 0.89182357
-3.64181503 -0.44573989 0.36714763
-2.45568313 -0.95646051 1.44831685
-2.22600085 -1.17093082 1.60180141
-0.76380747 0.28993571 2.69557721
-0.38980866 -0.26546067 3.25848313
-1.01346110 -0.95646051 2.63191788
-0.39470008 -0.26546067 3.25252293
-1.99253136 1.06180278 -1.12233888
-1.99253136 0.90208803 -1.28205362
-1.84211864 0.62811842 -0.02885729
-1.89691697 0.90208803 -0.31126452
-1.99728765 1.11009425 -1.12233888
-1.95118062 0.88573935 -0.87856119
-1.55243314 -0.52286515 -0.56150951
-1.44950385 -0.76806729 -0.87856119
0.98966004 5.46638579 -0.73930062
0.08448639 6.43576170 -1.38708346
-1.95667615 0.92213352 -1.44231854
-1.75032629 0.44589411 -1.94567189
-1.31669168 0.44589411 -2.75694518
-1.78598147 -0.25101146 -2.05061673
-1.25845832 -0.30185305 -3.03016264
-0.90736682 -0.00000000 -3.17459301
-1.89140753 0.77397929 -1.30236471
-1.97330553 0.57887870 -1.05009542
2.11339004 0.44926188 -0.42725662
1.99202601 -0.14129036 0.21442074
1.65964717 -1.23699656 0.21442074
1.96007368 -0.52130887 1.13982043
2.03825487 0.39860750 -1.13946240
2.05615278 0.48808987 -1.04722419
0.08257523 -0.98014083 -5.22764625
0.62729090 -0.61333433 -4.67556546
0.62729090 -0.27804344 -4.04828033
0.47070475 -0.34589068 -4.21378147
1.13101499 0.01179916 -3.04497696
1.04608264 0.10664715 -3.13016242
2.11897737 0.04279162 -0.67568901
2.10524547 0.10961044 -0.74829245
-0.68592353 0.00000000 -3.24176710
-0.68592353 -0.00000000 -3.24176710
-0.00000000 0.00000000 -3.30932467
-0.00000000 -0.00000000 -3.30932467
-0.00000000 -0.04872187 -3.30452598
-1.08230803 1.13548181 -3.52775790
-0.01749631 -2.21001672 0.93262789
-0.85097211 -3.17944960 0.53382715
-1.00743497 0.16215486 1.52783217
-0.85097211 -0.00903846 1.49556086
1.93101215 1.53253426 1.20311065
1.28063567 0.80622793 1.85542537
1.18218702 0.80622793 1.97538540
1.59923780 0.18689842 1.34768191
0.98966004 2.20934149 1.00162583
0.59489910 2.66849607 0.81274098
-0.29850017 -0.33510755 1.61161828
0.59489910 0.64240225 1.42734982
-3.16975927 -1.17093082 1.09735202
-3.71725727 -0.70021609 0.87212487
-1.48480909 -0.01559644 1.46330795
-2.23388337 -0.70021609 1.32210142
3.38934435 0.07785265 -0.63870127
2.75257133 0.50568646 -1.62444845
0.08448639 3.25345555 1.22456770
-0.00000000 3.32910953 1.14868826
1.79632456 0.48808987 -1.90376305
1.73565702 0.34807390 -2.05175060
1.46173283 0.10664715 -2.62369120
1.29915829 0.34807390 -2.86838229
-0.70919708 -0.42350129 -2.57950519
-0.81507580 -0.44467874 -2.47036565
-0.34161530 -0.30185305 -3.52022544
-1.02532500 -0.94028030 -3.06333828
-1.09233808 -0.25101146 -2.89582364
-0.47512709 -0.94028030 -3.51487403
-1.47582761 1.50959443 -1.05009542
-1.09006473 2.08375053 -0.16128146
2.02290771 0.15017511 0.19233910
2.05347677 -0.00265790 0.03479919
1.77806348 0.18689842 1.01312258
1.69593059 -0.00265790 1.21347100
0.08257523 1.25287114 -2.50671328
-0.51217986 0.72029321 -3.04087840
-0.46238589 1.71089033 -2.21978783
-0.51217986 1.76421609 -2.18415303
1.63730983 1.42095792 -1.62444845
1.59000146 1.46826629 -1.53619222
1.94448002 0.63958309 -0.74829245
1.85530679 0.85201504 -1.02297156
1.53681324 1.53307631 -1.53619222
1.31406531 1.86460662 -1.02297156
-0.00502512 0.25767226 -5.13306626
0.72504229 -0.23394840 -4.39312758
0.72504229 -2.27352152 -1.90790054
0.23442978 -2.71284419 -1.46726861
0.67588474 -4.06544427 0.04085624
0.10655807 -3.49611760 1.10296491
-5.51075088 0.16843857 0.89182357
-5.00112290 -0.04548959 1.55078359
-2.27238963 -1.54376568 1.10296491
-2.56167158 -1.34940349 1.55078359
-0.01749631 -5.31031573 -0.72451645
-0.00000000 -3.94348724 0.40006685
1.84328089 -2.29290746 2.05556567
3.75832245 -0.11937026 -0.63870127
2.88322093 0.24797391 0.49282397
1.94394648 0.59046378 1.13212507
1.35558118 0.71137836 0.49282397
-0.00000000 2.75094313 1.85318606
-0.00000000 2.75094313 1.85318606
1.19298323 -1.95643418 1.13982043
1.57559233 -1.38697204 2.02136797
3.15017343 0.11768584 0.43841119
2.61610543 -0.10650160 1.12897269
-0.00000000 -2.60501171 2.03100400
0.54307124 -2.23931255 2.58141813
-1.01831505 -0.37319330 3.88970623
-0.93707468 -0.35694392 3.97344861
-0.93707468 -0.71213357 0.36714763
-0.81507580 -0.71213357 0.24514875
1.09876547 -0.50460196 0.43841119
0.92090106 -0.54115477 0.24514875
-0.90922883 2.30409971 -0.16128146
-1.87042210 1.34290644 1.63187485
-2.47664296 0.71783741 2.95889683
-3.33387270 0.14188357 1.63187485
-1.08230803 0.25173886 -3.25967741
-0.58467771 0.83054293 -3.49778311
0.23442978 -2.64567884 -1.52238979
-0.58467771 -1.76847360 -2.10857983
-0.00000000 0.84872697 5.41198219
2.05068305 -0.80807232 2.02136797
2.04190812 -0.81684726 2.03773807
3.14642904 0.17696228 1.12897269
3.73347336 0.57138446 2.03773807
-0.46255589 0.43024786 5.16532698
0.13875006 0.76826011 1.13212507
-0.46255589 0.76826011 1.73343101
0.47070475 0.57266950 -1.18569435
0.13875006 0.50627322 -1.52787247
-1.57570404 0.74296431 2.58974668
-2.36379347 0.58100455 1.73343101
3 511 220 618
3 321 407 326
3 467 276 636
3 153 407 844
3 153 844 636
3 153 326 407
3 153 636 326
3 688 588 276
3 171 594 618
3 171 588 594
3 735 618 594
3 735 594 688
3 388 735 742
3 388 618 735
3 620 618 220
3 620 220 710
3 620 171 618
3 46 220 511
3 46 66 220
3 46 511 388
3 115 276 467
3 115 688 276
3 115 742 688
3 108 844 388
3 108 388 742
3 108 742 115
3 108 115 467
3 150 636 844
3 150 467 636
3 150 844 108
3 150 108 467
3 202 594 588
3 202 588 688
3 202 688 594
3 64 588 171
3 737 688 742
3 737 742 735
3 737 735 688
3 530 636 501
3 289 501 636
3 510 511 618
3 510 618 388
3 510 388 511
3 404 66 46
3 404 844 407
3 404 388 844
3 404 46 388
3 404 407 321
3 582 710 220
3 582 66 361
3 582 165 710
3 582 361 165
3 704 361 66
3 704 165 361
3 704 404 321
3 704 321 165
3 9 170 588
3 9 588 64
3 455 165 591
3 455 591 64
3 808 326 636
3 808 530 326
3 808 636 530
3 522 636 276
3 522 276 289
3 522 289 636
3 127 289 276
3 263 289 127
3 263 276 588
3 263 127 276
3 368 170 501
3 368 501 289
3 368 289 263
3 368 588 170
3 368 263 588
3 604 220 66
3 604 582 220
3 604 66 582
3 601 66 404
3 601 704 66
3 601 404 704
3 54 591 501
3 777 530 501
3 777 501 591
3 777 326 530
3 777 591 165
3 929 64 591
3 929 9 64
3 929 170 9
3 929 591 54
3 929 501 170
3 929 54 501
3 252 455 64
3 252 171 620
3 252 64 171
3 252 620 710
3 252 710 165
3 252 165 455
3 699 165 321
3 699 777 165
3 699 321 326
3 699 326 777
