ply
format ascii 1.0
element vertex 1274
property float x
property float y
property float z
element face 2544
property list uchar int vertex_indices
end_header
-1.30253420 -0.06268222 -0.07142857
-1.23110563 -0.06268222 -0.14285714
-1.23110563 -0.13411079 -0.07142857
-1.23110563 -0.13411079 0.07142857
-1.30253420 -0.06268222 0.07142857
-1.23110563 -0.06268222 0.14285714
-1.30253420 0.08017493 -0.07142857
-1.23110563 0.08017493 -0.14285714
-1.23110563 0.08017493 0.00000000
-1.23110563 0.00874636 0.07142857
-1.23110563 0.15160350 -0.07142857
-1.15967706 -0.49125364 -0.21428571
-1.08824849 -0.49125364 -0.28571429
-1.08824849 -0.56268222 -0.21428571
-1.08824849 -0.49125364 -0.14285714
-1.15967706 -0.34839650 -0.35714286
-1.08824849 -0.34839650 -0.42857143
-1.08824849 -0.41982507 -0.35714286
-1.15967706 -0.34839650 -0.21428571
-1.08824849 -0.41982507 -0.07142857
-1.15967706 -0.34839650 -0.07142857
-1.08824849 -0.41982507 0.07142857
-1.15967706 -0.34839650 0.07142857
-1.08824849 -0.41982507 0.21428571
-1.15967706 -0.34839650 0.21428571
-1.08824849 -0.34839650 0.28571429
-1.15967706 -0.20553936 -0.35714286
-1.08824849 -0.20553936 -0.42857143
-1.15967706 -0.20553936 -0.21428571
-1.15967706 -0.20553936 -0.07142857
-1.15967706 -0.20553936 0.07142857
-1.15967706 -0.20553936 0.21428571
-1.08824849 -0.27696793 0.35714286
-1.15967706 -0.20553936 0.35714286
-1.08824849 -0.20553936 0.42857143
-1.15967706 -0.06268222 -0.50000000
-1.08824849 -0.06268222 -0.57142857
-1.08824849 -0.13411079 -0.50000000
-1.15967706 -0.06268222 -0.35714286
-1.15967706 -0.06268222 -0.21428571
-1.15967706 -0.06268222 0.21428571
-1.15967706 -0.06268222 0.35714286
-1.08824849 -0.06268222 0.42857143
-1.08824849 0.00874636 -0.50000000
-1.15967706 0.08017493 -0.35714286
-1.08824849 0.08017493 -0.42857143
-1.15967706 0.08017493 -0.21428571
-1.15967706 0.08017493 0.07142857
-1.15967706 0.08017493 0.21428571
-1.15967706 0.08017493 0.35714286
-1.08824849 0.08017493 0.42857143
-1.15967706 0.22303207 -0.35714286
-1.08824849 0.22303207 -0.42857143
-1.15967706 0.22303207 -0.21428571
-1.15967706 0.22303207 -0.07142857
-1.15967706 0.22303207 0.07142857
-1.15967706 0.22303207 0.21428571
-1.15967706 0.22303207 0.35714286
-1.08824849 0.22303207 0.42857143
-1.08824849 0.29446064 -0.35714286
-1.15967706 0.36588921 -0.21428571
-1.08824849 0.36588921 -0.28571429
-1.15967706 0.36588921 -0.07142857
-1.15967706 0.36588921 0.07142857
-1.15967706 0.36588921 0.21428571
-1.15967706 0.36588921 0.35714286
-1.08824849 0.36588921 0.42857143
-1.08824849 0.43731778 -0.21428571
-1.08824849 0.43731778 -0.07142857
-1.08824849 0.43731778 0.07142857
-1.08824849 0.43731778 0.21428571
-1.08824849 0.43731778 0.35714286
-1.01681991 -0.63411079 -0.35714286
-0.94539134 -0.63411079 -0.42857143
-0.94539134 -0.70553936 -0.35714286
-0.94539134 -0.70553936 -0.21428571
-1.01681991 -0.63411079 -0.21428571
-0.94539134 -0.70553936 -0.07142857
-1.01681991 -0.63411079 -0.07142857
-0.94539134 -0.70553936 0.07142857
-1.01681991 -0.63411079 0.07142857
-0.94539134 -0.70553936 0.21428571
-1.01681991 -0.63411079 0.21428571
-0.94539134 -0.70553936 0.35714286
-1.01681991 -0.63411079 0.35714286
-0.94539134 -0.63411079 0.42857143
-1.01681991 -0.49125364 -0.50000000
-0.94539134 -0.49125364 -0.57142857
-0.94539134 -0.56268222 -0.50000000
-1.01681991 -0.49125364 -0.35714286
-1.01681991 -0.49125364 -0.07142857
-1.01681991 -0.49125364 0.07142857
-1.01681991 -0.49125364 0.21428571
-1.01681991 -0.49125364 0.35714286
-0.94539134 -0.56268222 0.50000000
-1.01681991 -0.49125364 0.50000000
-0.94539134 -0.49125364 0.57142857
-1.01681991 -0.34839650 -0.64285714
-0.94539134 -0.34839650 -0.71428571
-0.94539134 -0.41982507 -0.64285714
-1.01681991 -0.34839650 -0.50000000
-1.01681991 -0.34839650 0.35714286
-1.01681991 -0.34839650 0.50000000
-0.94539134 -0.41982507 0.64285714
-1.01681991 -0.34839650 0.64285714
-0.94539134 -0.34839650 0.71428571
-1.01681991 -0.20553936 -0.64285714
-0.94539134 -0.20553936 -0.71428571
-1.01681991 -0.20553936 -0.50000000
-1.01681991 -0.20553936 0.50000000
-1.01681991 -0.20553936 0.64285714
-0.94539134 -0.20553936 0.71428571
-1.01681991 -0.06268222 -0.64285714
-0.94539134 -0.06268222 -0.71428571
-1.01681991 -0.06268222 0.50000000
-1.01681991 -0.06268222 0.64285714
-0.94539134 -0.06268222 0.71428571
-1.01681991 0.08017493 -0.64285714
-0.94539134 0.08017493 -0.71428571
-1.01681991 0.08017493 -0.50000000
-1.01681991 0.08017493 0.50000000
-1.01681991 0.08017493 0.64285714
-0.94539134 0.08017493 0.71428571
-1.01681991 0.22303207 -0.64285714
-0.94539134 0.22303207 -0.71428571
-1.01681991 0.22303207 -0.50000000
-1.01681991 0.22303207 0.50000000
-1.01681991 0.22303207 0.64285714
-0.94539134 0.22303207 0.71428571
-1.01681991 0.36588921 -0.64285714
-0.94539134 0.36588921 -0.71428571
-1.01681991 0.36588921 -0.50000000
-1.01681991 0.36588921 -0.35714286
-1.01681991 0.36588921 0.50000000
-1.01681991 0.36588921 0.64285714
-0.94539134 0.36588921 0.71428571
-0.94539134 0.43731778 -0.64285714
-1.01681991 0.50874636 -0.50000000
-0.94539134 0.50874636 -0.57142857
-1.01681991 0.50874636 -0.35714286
-1.01681991 0.50874636 -0.21428571
-1.01681991 0.50874636 -0.07142857
-1.01681991 0.50874636 0.07142857
-1.01681991 0.50874636 0.21428571
-1.01681991 0.50874636 0.35714286
-0.94539134 0.50874636 0.42857143
-0.94539134 0.43731778 0.50000000
-0.94539134 0.43731778 0.64285714
-0.94539134 0.58017493 -0.50000000
-1.01681991 0.65160350 -0.35714286
-0.94539134 0.65160350 -0.42857143
-1.01681991 0.65160350 -0.21428571
-1.01681991 0.65160350 -0.07142857
-1.01681991 0.65160350 0.07142857
-1.01681991 0.65160350 0.21428571
-1.01681991 0.65160350 0.35714286
-0.94539134 0.65160350 0.42857143
-0.94539134 0.72303207 -0.35714286
-0.94539134 0.72303207 -0.21428571
-0.94539134 0.72303207 -0.07142857
-0.94539134 0.72303207 0.07142857
-0.94539134 0.72303207 0.21428571
-0.94539134 0.72303207 0.35714286
-0.87396277 -0.77696793 -0.21428571
-0.80253420 -0.77696793 -0.28571429
-0.80253420 -0.84839650 -0.21428571
-0.80253420 -0.84839650 -0.07142857
-0.87396277 -0.77696793 -0.07142857
-0.80253420 -0.84839650 0.07142857
-0.87396277 -0.77696793 0.07142857
-0.80253420 -0.84839650 0.21428571
-0.87396277 -0.77696793 0.21428571
-0.80253420 -0.77696793 0.28571429
-0.87396277 -0.63411079 -0.50000000
-0.80253420 -0.63411079 -0.57142857
-0.80253420 -0.70553936 -0.50000000
-0.80253420 -0.70553936 -0.35714286
-0.80253420 -0.70553936 0.35714286
-0.80253420 -0.70553936 0.50000000
-0.87396277 -0.63411079 0.50000000
-0.80253420 -0.63411079 0.57142857
-0.87396277 -0.49125364 -0.64285714
-0.80253420 -0.49125364 -0.71428571
-0.80253420 -0.56268222 -0.64285714
-0.80253420 -0.56268222 0.64285714
-0.87396277 -0.49125364 0.64285714
-0.80253420 -0.49125364 0.71428571
-0.80253420 -0.34839650 -0.71428571
-0.80253420 -0.41982507 0.78571429
-0.87396277 -0.34839650 0.78571429
-0.80253420 -0.34839650 0.85714286
-0.87396277 -0.20553936 -0.78571429
-0.80253420 -0.20553936 -0.85714286
-0.80253420 -0.27696793 -0.78571429
-0.87396277 -0.20553936 0.78571429
-0.80253420 -0.20553936 0.85714286
-0.87396277 -0.06268222 -0.78571429
-0.80253420 -0.06268222 -0.85714286
-0.87396277 -0.06268222 0.78571429
-0.80253420 -0.06268222 0.85714286
-0.87396277 0.08017493 -0.78571429
-0.80253420 0.08017493 -0.85714286
-0.87396277 0.08017493 0.78571429
-0.80253420 0.08017493 0.85714286
-0.80253420 0.15160350 -0.78571429
-0.80253420 0.22303207 -0.71428571
-0.87396277 0.22303207 0.78571429
-0.80253420 0.22303207 0.85714286
-0.80253420 0.36588921 -0.71428571
-0.80253420 0.29446064 0.78571429
-0.80253420 0.36588921 0.71428571
-0.87396277 0.50874636 -0.64285714
-0.80253420 0.50874636 -0.71428571
-0.87396277 0.50874636 0.50000000
-0.87396277 0.50874636 0.64285714
-0.80253420 0.50874636 0.71428571
-0.80253420 0.58017493 -0.64285714
-0.87396277 0.65160350 -0.50000000
-0.80253420 0.65160350 -0.57142857
-0.87396277 0.65160350 0.50000000
-0.80253420 0.65160350 0.57142857
-0.80253420 0.58017493 0.64285714
-0.80253420 0.72303207 -0.50000000
-0.87396277 0.79446064 -0.35714286
-0.80253420 0.79446064 -0.42857143
-0.87396277 0.79446064 -0.21428571
-0.87396277 0.79446064 -0.07142857
-0.87396277 0.79446064 0.07142857
-0.87396277 0.79446064 0.21428571
-0.80253420 0.79446064 0.28571429
-0.80253420 0.72303207 0.35714286
-0.80253420 0.72303207 0.50000000
-0.80253420 0.86588921 -0.35714286
-0.80253420 0.86588921 -0.21428571
-0.80253420 0.86588921 -0.07142857
-0.80253420 0.86588921 0.07142857
-0.80253420 0.86588921 0.21428571
-0.73110563 -0.91982507 -0.35714286
-0.65967706 -0.91982507 -0.42857143
-0.65967706 -0.99125364 -0.35714286
-0.65967706 -0.99125364 -0.21428571
-0.73110563 -0.91982507 -0.21428571
-0.65967706 -0.99125364 -0.07142857
-0.73110563 -0.91982507 -0.07142857
-0.65967706 -0.99125364 0.07142857
-0.73110563 -0.91982507 0.07142857
-0.65967706 -0.99125364 0.21428571
-0.73110563 -0.91982507 0.21428571
-0.65967706 -0.91982507 0.28571429
-0.73110563 -0.77696793 -0.64285714
-0.65967706 -0.77696793 -0.71428571
-0.65967706 -0.84839650 -0.64285714
-0.65967706 -0.84839650 -0.50000000
-0.73110563 -0.77696793 -0.50000000
-0.73110563 -0.77696793 -0.35714286
-0.65967706 -0.84839650 0.35714286
-0.73110563 -0.77696793 0.35714286
-0.65967706 -0.84839650 0.50000000
-0.73110563 -0.77696793 0.50000000
-0.65967706 -0.77696793 0.57142857
-0.73110563 -0.63411079 -0.64285714
-0.65967706 -0.63411079 -0.71428571
-0.65967706 -0.70553936 0.64285714
-0.73110563 -0.63411079 0.64285714
-0.65967706 -0.63411079 0.71428571
-0.73110563 -0.49125364 -0.78571429
-0.65967706 -0.49125364 -0.85714286
-0.65967706 -0.56268222 -0.78571429
-0.65967706 -0.56268222 0.78571429
-0.73110563 -0.49125364 0.78571429
-0.65967706 -0.49125364 0.85714286
-0.73110563 -0.34839650 -0.78571429
-0.65967706 -0.34839650 -0.85714286
-0.65967706 -0.34839650 0.85714286
-0.65967706 -0.20553936 -0.85714286
-0.65967706 -0.20553936 0.85714286
-0.65967706 -0.06268222 -0.85714286
-0.65967706 -0.13411079 0.92857143
-0.73110563 -0.06268222 0.92857143
-0.65967706 -0.06268222 1.00000000
-0.65967706 0.08017493 -0.85714286
-0.73110563 0.08017493 0.92857143
-0.65967706 0.08017493 1.00000000
-0.73110563 0.22303207 -0.78571429
-0.65967706 0.22303207 -0.85714286
-0.65967706 0.15160350 0.92857143
-0.65967706 0.22303207 0.85714286
-0.73110563 0.36588921 -0.78571429
-0.65967706 0.36588921 -0.85714286
-0.73110563 0.36588921 0.78571429
-0.65967706 0.36588921 0.85714286
-0.73110563 0.50874636 -0.78571429
-0.65967706 0.50874636 -0.85714286
-0.73110563 0.50874636 0.78571429
-0.65967706 0.50874636 0.85714286
-0.65967706 0.58017493 -0.78571429
-0.73110563 0.65160350 -0.64285714
-0.65967706 0.65160350 -0.71428571
-0.73110563 0.65160350 0.64285714
-0.65967706 0.65160350 0.71428571
-0.65967706 0.58017493 0.78571429
-0.73110563 0.79446064 -0.64285714
-0.65967706 0.79446064 -0.71428571
-0.73110563 0.79446064 -0.50000000
-0.73110563 0.79446064 0.35714286
-0.65967706 0.79446064 0.42857143
-0.65967706 0.72303207 0.50000000
-0.65967706 0.72303207 0.64285714
-0.65967706 0.86588921 -0.64285714
-0.73110563 0.93731778 -0.50000000
-0.65967706 0.93731778 -0.57142857
-0.73110563 0.93731778 -0.35714286
-0.73110563 0.93731778 -0.21428571
-0.73110563 0.93731778 -0.07142857
-0.73110563 0.93731778 0.07142857
-0.73110563 0.93731778 0.21428571
-0.73110563 0.93731778 0.35714286
-0.65967706 0.93731778 0.42857143
-0.65967706 1.00874636 -0.50000000
-0.65967706 1.00874636 -0.35714286
-0.65967706 1.00874636 -0.21428571
-0.65967706 1.00874636 -0.07142857
-0.65967706 1.00874636 0.07142857
-0.65967706 1.00874636 0.21428571
-0.65967706 1.00874636 0.35714286
-0.58824849 -0.91982507 -0.50000000
-0.51681991 -0.91982507 -0.57142857
-0.51681991 -0.99125364 -0.50000000
-0.51681991 -0.99125364 -0.35714286
-0.51681991 -0.99125364 -0.21428571
-0.51681991 -0.99125364 -0.07142857
-0.51681991 -0.99125364 0.07142857
-0.51681991 -0.99125364 0.21428571
-0.51681991 -0.99125364 0.35714286
-0.58824849 -0.91982507 0.35714286
-0.51681991 -0.91982507 0.42857143
-0.51681991 -0.77696793 -0.71428571
-0.51681991 -0.84839650 -0.64285714
-0.51681991 -0.84839650 0.50000000
-0.51681991 -0.84839650 0.64285714
-0.58824849 -0.77696793 0.64285714
-0.51681991 -0.77696793 0.71428571
-0.58824849 -0.63411079 -0.78571429
-0.51681991 -0.63411079 -0.85714286
-0.51681991 -0.70553936 -0.78571429
-0.51681991 -0.70553936 0.78571429
-0.58824849 -0.63411079 0.78571429
-0.51681991 -0.63411079 0.85714286
-0.51681991 -0.49125364 -0.85714286
-0.51681991 -0.49125364 0.85714286
-0.51681991 -0.34839650 -0.85714286
-0.51681991 -0.41982507 0.92857143
-0.58824849 -0.34839650 0.92857143
-0.51681991 -0.34839650 1.00000000
-0.51681991 -0.20553936 -0.85714286
-0.58824849 -0.20553936 0.92857143
-0.51681991 -0.20553936 1.00000000
-0.58824849 -0.06268222 -0.92857143
-0.51681991 -0.06268222 -1.00000000
-0.51681991 -0.13411079 -0.92857143
-0.51681991 -0.06268222 1.00000000
-0.58824849 0.08017493 -0.92857143
-0.51681991 0.08017493 -1.00000000
-0.51681991 0.08017493 1.00000000
-0.58824849 0.22303207 -0.92857143
-0.51681991 0.22303207 -1.00000000
-0.58824849 0.22303207 0.92857143
-0.51681991 0.22303207 1.00000000
-0.51681991 0.29446064 -0.92857143
-0.51681991 0.36588921 -0.85714286
-0.51681991 0.29446064 0.92857143
-0.51681991 0.36588921 0.85714286
-0.51681991 0.50874636 -0.85714286
-0.51681991 0.50874636 0.85714286
-0.58824849 0.65160350 -0.78571429
-0.51681991 0.65160350 -0.85714286
-0.58824849 0.65160350 0.78571429
-0.51681991 0.65160350 0.85714286
-0.51681991 0.72303207 -0.78571429
-0.51681991 0.79446064 -0.71428571
-0.58824849 0.79446064 0.50000000
-0.58824849 0.79446064 0.64285714
-0.51681991 0.79446064 0.71428571
-0.51681991 0.72303207 0.78571429
-0.51681991 0.86588921 -0.64285714
-0.51681991 0.93731778 -0.57142857
-0.51681991 0.86588921 0.50000000
-0.51681991 0.93731778 0.42857143
-0.51681991 0.86588921 0.64285714
-0.51681991 1.00874636 -0.50000000
-0.51681991 1.00874636 -0.35714286
-0.51681991 1.00874636 -0.21428571
-0.51681991 1.00874636 -0.07142857
-0.58824849 1.08017493 0.07142857
-0.51681991 1.08017493 0.00000000
-0.51681991 1.08017493 0.14285714
-0.51681991 1.00874636 0.21428571
-0.51681991 1.00874636 0.35714286
-0.51681991 1.15160350 0.07142857
-0.44539134 -1.06268222 -0.35714286
-0.37396277 -1.06268222 -0.42857143
-0.37396277 -1.13411079 -0.35714286
-0.37396277 -1.13411079 -0.21428571
-0.44539134 -1.06268222 -0.21428571
-0.37396277 -1.13411079 -0.07142857
-0.44539134 -1.06268222 -0.07142857
-0.37396277 -1.13411079 0.07142857
-0.44539134 -1.06268222 0.07142857
-0.37396277 -1.13411079 0.21428571
-0.44539134 -1.06268222 0.21428571
-0.37396277 -1.06268222 0.28571429
-0.44539134 -0.91982507 -0.64285714
-0.37396277 -0.91982507 -0.71428571
-0.37396277 -0.99125364 -0.64285714
-0.37396277 -0.99125364 -0.50000000
-0.37396277 -0.99125364 0.35714286
-0.37396277 -0.99125364 0.50000000
-0.44539134 -0.91982507 0.50000000
-0.37396277 -0.99125364 0.64285714
-0.44539134 -0.91982507 0.64285714
-0.37396277 -0.91982507 0.71428571
-0.44539134 -0.77696793 -0.78571429
-0.37396277 -0.77696793 -0.85714286
-0.37396277 -0.84839650 -0.78571429
-0.37396277 -0.77696793 0.71428571
-0.37396277 -0.63411079 -0.85714286
-0.37396277 -0.70553936 0.78571429
-0.37396277 -0.63411079 0.85714286
-0.37396277 -0.49125364 -0.85714286
-0.37396277 -0.56268222 0.92857143
-0.44539134 -0.49125364 0.92857143
-0.37396277 -0.49125364 1.00000000
-0.44539134 -0.34839650 -0.92857143
-0.37396277 -0.34839650 -1.00000000
-0.37396277 -0.41982507 -0.92857143
-0.37396277 -0.34839650 1.00000000
-0.44539134 -0.20553936 -0.92857143
-0.37396277 -0.20553936 -1.00000000
-0.37396277 -0.20553936 1.00000000
-0.37396277 -0.06268222 -1.00000000
-0.37396277 -0.06268222 1.00000000
-0.37396277 0.08017493 -1.00000000
-0.37396277 0.08017493 1.00000000
-0.37396277 0.22303207 -1.00000000
-0.37396277 0.22303207 1.00000000
-0.44539134 0.36588921 -0.92857143
-0.37396277 0.36588921 -1.00000000
-0.44539134 0.36588921 0.92857143
-0.37396277 0.36588921 1.00000000
-0.37396277 0.43731778 -0.92857143
-0.37396277 0.50874636 -0.85714286
-0.37396277 0.43731778 0.92857143
-0.37396277 0.50874636 0.85714286
-0.37396277 0.65160350 -0.85714286
-0.37396277 0.65160350 0.85714286
-0.37396277 0.72303207 -0.78571429
-0.37396277 0.79446064 -0.71428571
-0.37396277 0.72303207 0.78571429
-0.37396277 0.79446064 0.71428571
-0.44539134 0.93731778 -0.64285714
-0.37396277 0.93731778 -0.71428571
-0.44539134 0.93731778 0.50000000
-0.44539134 0.93731778 0.64285714
-0.37396277 0.93731778 0.71428571
-0.37396277 1.00874636 -0.64285714
-0.37396277 1.00874636 -0.50000000
-0.44539134 1.08017493 -0.35714286
-0.37396277 1.08017493 -0.42857143
-0.44539134 1.08017493 -0.21428571
-0.44539134 1.08017493 -0.07142857
-0.44539134 1.08017493 0.21428571
-0.44539134 1.08017493 0.35714286
-0.37396277 1.08017493 0.42857143
-0.37396277 1.00874636 0.50000000
-0.37396277 1.00874636 0.64285714
-0.37396277 1.15160350 -0.35714286
-0.37396277 1.15160350 -0.21428571
-0.37396277 1.15160350 -0.07142857
-0.37396277 1.15160350 0.07142857
-0.37396277 1.15160350 0.21428571
-0.37396277 1.15160350 0.35714286
-0.30253420 -1.20553936 0.07142857
-0.23110563 -1.20553936 0.00000000
-0.23110563 -1.27696793 0.07142857
-0.23110563 -1.20553936 0.14285714
-0.23110563 -1.06268222 -0.42857143
-0.23110563 -1.13411079 -0.35714286
-0.23110563 -1.13411079 -0.21428571
-0.23110563 -1.13411079 -0.07142857
-0.23110563 -1.13411079 0.21428571
-0.23110563 -1.13411079 0.35714286
-0.30253420 -1.06268222 0.35714286
-0.23110563 -1.06268222 0.42857143
-0.23110563 -0.91982507 -0.71428571
-0.23110563 -0.99125364 -0.64285714
-0.23110563 -0.99125364 -0.50000000
-0.23110563 -0.99125364 0.50000000
-0.23110563 -0.99125364 0.64285714
-0.23110563 -0.91982507 0.71428571
-0.23110563 -0.77696793 -0.85714286
-0.23110563 -0.84839650 -0.78571429
-0.23110563 -0.84839650 0.78571429
-0.30253420 -0.77696793 0.78571429
-0.23110563 -0.77696793 0.85714286
-0.23110563 -0.63411079 -0.85714286
-0.23110563 -0.70553936 0.92857143
-0.30253420 -0.63411079 0.92857143
-0.23110563 -0.63411079 1.00000000
-0.30253420 -0.49125364 -0.92857143
-0.23110563 -0.49125364 -1.00000000
-0.23110563 -0.56268222 -0.92857143
-0.23110563 -0.49125364 1.00000000
-0.23110563 -0.34839650 -1.00000000
-0.23110563 -0.34839650 1.00000000
-0.23110563 -0.20553936 -1.00000000
-0.23110563 -0.20553936 1.00000000
-0.23110563 -0.06268222 -1.00000000
-0.23110563 -0.06268222 1.00000000
-0.23110563 0.08017493 -1.00000000
-0.23110563 0.08017493 1.00000000
-0.23110563 0.22303207 -1.00000000
-0.23110563 0.22303207 1.00000000
-0.23110563 0.36588921 -1.00000000
-0.23110563 0.36588921 1.00000000
-0.30253420 0.50874636 -0.92857143
-0.23110563 0.50874636 -1.00000000
-0.30253420 0.50874636 0.92857143
-0.23110563 0.50874636 1.00000000
-0.23110563 0.58017493 -0.92857143
-0.23110563 0.65160350 -0.85714286
-0.30253420 0.65160350 0.92857143
-0.23110563 0.65160350 1.00000000
-0.30253420 0.79446064 -0.78571429
-0.23110563 0.79446064 -0.85714286
-0.30253420 0.79446064 0.78571429
-0.23110563 0.79446064 0.85714286
-0.23110563 0.72303207 0.92857143
-0.23110563 0.86588921 -0.78571429
-0.23110563 0.93731778 -0.71428571
-0.23110563 0.86588921 0.78571429
-0.23110563 0.93731778 0.71428571
-0.23110563 1.00874636 -0.64285714
-0.23110563 1.00874636 -0.50000000
-0.23110563 1.08017493 -0.42857143
-0.23110563 1.00874636 0.50000000
-0.23110563 1.08017493 0.42857143
-0.23110563 1.00874636 0.64285714
-0.23110563 1.15160350 -0.35714286
-0.23110563 1.15160350 -0.21428571
-0.23110563 1.15160350 -0.07142857
-0.30253420 1.22303207 0.07142857
-0.23110563 1.22303207 0.00000000
-0.23110563 1.22303207 0.14285714
-0.23110563 1.15160350 0.21428571
-0.23110563 1.15160350 0.35714286
-0.23110563 1.29446064 0.07142857
-0.15967706 -1.20553936 -0.21428571
-0.08824849 -1.20553936 -0.28571429
-0.08824849 -1.27696793 -0.21428571
-0.08824849 -1.27696793 -0.07142857
-0.15967706 -1.20553936 -0.07142857
-0.08824849 -1.27696793 0.07142857
-0.08824849 -1.27696793 0.21428571
-0.15967706 -1.20553936 0.21428571
-0.08824849 -1.20553936 0.28571429
-0.08824849 -1.06268222 -0.42857143
-0.08824849 -1.13411079 -0.35714286
-0.08824849 -1.13411079 0.35714286
-0.08824849 -1.06268222 0.42857143
-0.15967706 -0.91982507 -0.78571429
-0.08824849 -0.91982507 -0.85714286
-0.08824849 -0.99125364 -0.78571429
-0.08824849 -0.99125364 -0.64285714
-0.08824849 -0.99125364 -0.50000000
-0.08824849 -0.99125364 0.50000000
-0.08824849 -0.99125364 0.64285714
-0.08824849 -0.91982507 0.71428571
-0.08824849 -0.77696793 -0.85714286
-0.08824849 -0.84839650 0.78571429
-0.08824849 -0.77696793 0.85714286
-0.15967706 -0.63411079 -0.92857143
-0.08824849 -0.63411079 -1.00000000
-0.08824849 -0.70553936 -0.92857143
-0.08824849 -0.70553936 0.92857143
-0.08824849 -0.63411079 1.00000000
-0.08824849 -0.49125364 -1.00000000
-0.08824849 -0.49125364 1.00000000
-0.08824849 -0.34839650 -1.00000000
-0.08824849 -0.34839650 1.00000000
-0.08824849 -0.20553936 -1.00000000
-0.08824849 -0.20553936 1.00000000
-0.08824849 -0.06268222 -1.00000000
-0.08824849 -0.06268222 1.00000000
-0.08824849 0.08017493 -1.00000000
-0.08824849 0.08017493 1.00000000
-0.08824849 0.22303207 -1.00000000
-0.08824849 0.22303207 1.00000000
-0.08824849 0.36588921 -1.00000000
-0.08824849 0.36588921 1.00000000
-0.08824849 0.50874636 -1.00000000
-0.08824849 0.50874636 1.00000000
-0.08824849 0.58017493 -0.92857143
-0.08824849 0.65160350 -0.85714286
-0.08824849 0.65160350 1.00000000
-0.08824849 0.79446064 -0.85714286
-0.08824849 0.72303207 0.92857143
-0.08824849 0.79446064 0.85714286
-0.08824849 0.86588921 -0.78571429
-0.08824849 0.93731778 -0.71428571
-0.08824849 0.86588921 0.78571429
-0.08824849 0.93731778 0.71428571
-0.08824849 1.00874636 -0.64285714
-0.08824849 1.00874636 -0.50000000
-0.08824849 1.08017493 -0.42857143
-0.08824849 1.00874636 0.50000000
-0.08824849 1.08017493 0.42857143
-0.08824849 1.00874636 0.64285714
-0.08824849 1.15160350 -0.35714286
-0.08824849 1.15160350 -0.21428571
-0.15967706 1.22303207 -0.07142857
-0.08824849 1.22303207 -0.14285714
-0.08824849 1.15160350 0.21428571
-0.08824849 1.22303207 0.14285714
-0.08824849 1.15160350 0.35714286
-0.08824849 1.29446064 -0.07142857
-0.08824849 1.29446064 0.07142857
0.05460866 -1.20553936 -0.28571429
0.05460866 -1.27696793 -0.21428571
0.05460866 -1.27696793 -0.07142857
0.05460866 -1.27696793 0.07142857
0.05460866 -1.27696793 0.21428571
0.05460866 -1.20553936 0.28571429
0.05460866 -1.06268222 -0.42857143
0.05460866 -1.13411079 -0.35714286
0.05460866 -1.13411079 0.35714286
0.05460866 -1.13411079 0.50000000
-0.01681991 -1.06268222 0.50000000
0.05460866 -1.06268222 0.57142857
0.05460866 -0.91982507 -0.85714286
0.05460866 -0.99125364 -0.78571429
0.05460866 -0.99125364 -0.64285714
0.05460866 -0.99125364 -0.50000000
0.05460866 -0.99125364 0.64285714
0.05460866 -0.91982507 0.71428571
0.05460866 -0.77696793 -0.85714286
0.05460866 -0.84839650 0.78571429
0.05460866 -0.77696793 0.85714286
0.05460866 -0.63411079 -1.00000000
0.05460866 -0.70553936 -0.92857143
0.05460866 -0.70553936 0.92857143
0.05460866 -0.63411079 1.00000000
0.05460866 -0.49125364 -1.00000000
0.05460866 -0.49125364 1.00000000
0.05460866 -0.34839650 -1.00000000
0.05460866 -0.34839650 1.00000000
0.05460866 -0.20553936 -1.00000000
0.05460866 -0.20553936 1.00000000
0.05460866 -0.06268222 -1.00000000
0.05460866 -0.06268222 1.00000000
0.05460866 0.08017493 -1.00000000
0.05460866 0.08017493 1.00000000
0.05460866 0.22303207 -1.00000000
0.05460866 0.22303207 1.00000000
0.05460866 0.36588921 -1.00000000
0.05460866 0.36588921 1.00000000
0.05460866 0.50874636 -1.00000000
0.05460866 0.50874636 1.00000000
-0.01681991 0.65160350 -0.92857143
0.05460866 0.65160350 -1.00000000
0.05460866 0.65160350 1.00000000
0.05460866 0.72303207 -0.92857143
0.05460866 0.79446064 -0.85714286
0.05460866 0.72303207 0.92857143
0.05460866 0.79446064 0.85714286
0.05460866 0.86588921 -0.78571429
0.05460866 0.93731778 -0.71428571
0.05460866 0.86588921 0.78571429
0.05460866 0.93731778 0.71428571
0.05460866 1.00874636 -0.64285714
-0.01681991 1.08017493 -0.50000000
0.05460866 1.08017493 -0.57142857
0.05460866 1.00874636 0.50000000
0.05460866 1.08017493 0.42857143
0.05460866 1.00874636 0.64285714
0.05460866 1.15160350 -0.50000000
0.05460866 1.15160350 -0.35714286
0.05460866 1.15160350 -0.21428571
0.05460866 1.22303207 -0.14285714
0.05460866 1.15160350 0.21428571
0.05460866 1.22303207 0.14285714
0.05460866 1.15160350 0.35714286
0.05460866 1.29446064 -0.07142857
0.05460866 1.29446064 0.07142857
0.12603723 -1.20553936 -0.21428571
0.19746580 -1.20553936 -0.14285714
0.19746580 -1.27696793 -0.07142857
0.19746580 -1.27696793 0.07142857
0.12603723 -1.20553936 0.21428571
0.19746580 -1.20553936 0.14285714
0.19746580 -1.06268222 -0.42857143
0.19746580 -1.13411079 -0.35714286
0.19746580 -1.13411079 -0.21428571
0.19746580 -1.13411079 0.21428571
0.19746580 -1.13411079 0.35714286
0.12603723 -1.06268222 0.50000000
0.19746580 -1.06268222 0.42857143
0.12603723 -0.91982507 -0.78571429
0.19746580 -0.91982507 -0.71428571
0.19746580 -0.99125364 -0.64285714
0.19746580 -0.99125364 -0.50000000
0.19746580 -0.99125364 0.50000000
0.19746580 -0.99125364 0.64285714
0.19746580 -0.91982507 0.71428571
0.19746580 -0.77696793 -0.85714286
0.19746580 -0.84839650 -0.78571429
0.19746580 -0.84839650 0.78571429
0.19746580 -0.77696793 0.85714286
0.19746580 -0.63411079 -1.00000000
0.19746580 -0.70553936 -0.92857143
0.12603723 -0.63411079 0.92857143
0.19746580 -0.63411079 0.85714286
0.19746580 -0.49125364 -1.00000000
0.19746580 -0.56268222 0.92857143
0.19746580 -0.49125364 1.00000000
0.19746580 -0.34839650 -1.00000000
0.19746580 -0.34839650 1.00000000
0.19746580 -0.20553936 -1.00000000
0.19746580 -0.20553936 1.00000000
0.19746580 -0.06268222 -1.00000000
0.19746580 -0.06268222 1.00000000
0.19746580 0.08017493 -1.00000000
0.19746580 0.08017493 1.00000000
0.19746580 0.22303207 -1.00000000
0.19746580 0.22303207 1.00000000
0.19746580 0.36588921 -1.00000000
0.19746580 0.36588921 1.00000000
0.19746580 0.43731778 -0.92857143
0.12603723 0.50874636 -0.92857143
0.19746580 0.50874636 -0.85714286
0.19746580 0.50874636 1.00000000
0.12603723 0.65160350 -0.92857143
0.19746580 0.65160350 -0.85714286
0.19746580 0.65160350 1.00000000
0.19746580 0.79446064 -0.85714286
0.19746580 0.72303207 0.92857143
0.19746580 0.79446064 0.85714286
0.19746580 0.86588921 -0.78571429
0.19746580 0.93731778 -0.71428571
0.19746580 0.86588921 0.78571429
0.19746580 0.93731778 0.71428571
0.19746580 1.00874636 -0.64285714
0.12603723 1.08017493 -0.50000000
0.19746580 1.00874636 -0.50000000
0.19746580 1.08017493 -0.42857143
0.19746580 1.00874636 0.50000000
0.19746580 1.08017493 0.42857143
0.19746580 1.00874636 0.64285714
0.19746580 1.15160350 -0.35714286
0.19746580 1.15160350 -0.21428571
0.12603723 1.22303207 -0.07142857
0.19746580 1.15160350 -0.07142857
0.12603723 1.22303207 0.07142857
0.19746580 1.15160350 0.07142857
0.19746580 1.15160350 0.21428571
0.19746580 1.15160350 0.35714286
0.26889437 -1.20553936 -0.07142857
0.26889437 -1.20553936 0.07142857
0.34032294 -1.06268222 -0.42857143
0.34032294 -1.13411079 -0.35714286
0.34032294 -1.13411079 -0.21428571
0.34032294 -1.13411079 -0.07142857
0.34032294 -1.13411079 0.07142857
0.34032294 -1.13411079 0.21428571
0.34032294 -1.13411079 0.35714286
0.34032294 -1.06268222 0.42857143
0.34032294 -0.91982507 -0.71428571
0.34032294 -0.99125364 -0.64285714
0.34032294 -0.99125364 -0.50000000
0.34032294 -0.99125364 0.50000000
0.34032294 -0.99125364 0.64285714
0.34032294 -0.91982507 0.71428571
0.34032294 -0.77696793 -0.85714286
0.34032294 -0.84839650 -0.78571429
0.34032294 -0.84839650 0.78571429
0.34032294 -0.77696793 0.85714286
0.26889437 -0.63411079 -0.92857143
0.34032294 -0.63411079 -0.85714286
0.34032294 -0.63411079 0.85714286
0.34032294 -0.49125364 -1.00000000
0.34032294 -0.56268222 -0.92857143
0.26889437 -0.49125364 0.92857143
0.34032294 -0.49125364 0.85714286
0.34032294 -0.34839650 -1.00000000
0.34032294 -0.41982507 0.92857143
0.34032294 -0.34839650 1.00000000
0.34032294 -0.20553936 -1.00000000
0.34032294 -0.20553936 1.00000000
0.34032294 -0.06268222 -1.00000000
0.34032294 -0.06268222 1.00000000
0.34032294 0.08017493 -1.00000000
0.34032294 0.08017493 1.00000000
0.34032294 0.22303207 -1.00000000
0.34032294 0.22303207 1.00000000
0.34032294 0.36588921 -1.00000000
0.34032294 0.36588921 1.00000000
0.34032294 0.43731778 -0.92857143
0.34032294 0.50874636 -0.85714286
0.26889437 0.50874636 0.92857143
0.34032294 0.43731778 0.92857143
0.34032294 0.50874636 0.85714286
0.34032294 0.65160350 -0.85714286
0.26889437 0.65160350 0.92857143
0.34032294 0.65160350 0.85714286
0.34032294 0.79446064 -0.85714286
0.26889437 0.79446064 0.78571429
0.34032294 0.72303207 0.78571429
0.34032294 0.79446064 0.71428571
0.34032294 0.86588921 -0.78571429
0.34032294 0.93731778 -0.71428571
0.34032294 0.93731778 0.71428571
0.34032294 1.00874636 -0.64285714
0.34032294 1.00874636 -0.50000000
0.34032294 1.08017493 -0.42857143
0.26889437 1.08017493 0.35714286
0.34032294 1.00874636 0.35714286
0.34032294 1.08017493 0.28571429
0.34032294 1.00874636 0.50000000
0.34032294 1.00874636 0.64285714
0.34032294 1.15160350 -0.35714286
0.34032294 1.15160350 -0.21428571
0.34032294 1.15160350 -0.07142857
0.34032294 1.15160350 0.07142857
0.34032294 1.15160350 0.21428571
0.41175151 -1.06268222 -0.35714286
0.41175151 -1.06268222 -0.21428571
0.48318009 -1.06268222 -0.14285714
0.48318009 -1.13411079 -0.07142857
0.48318009 -1.13411079 0.07142857
0.41175151 -1.06268222 0.21428571
0.48318009 -1.06268222 0.14285714
0.41175151 -1.06268222 0.35714286
0.41175151 -0.91982507 -0.64285714
0.48318009 -0.91982507 -0.57142857
0.48318009 -0.99125364 -0.50000000
0.48318009 -0.99125364 -0.35714286
0.48318009 -0.99125364 -0.21428571
0.48318009 -0.99125364 0.21428571
0.48318009 -0.99125364 0.35714286
0.48318009 -0.99125364 0.50000000
0.41175151 -0.91982507 0.64285714
0.48318009 -0.91982507 0.57142857
0.41175151 -0.77696793 -0.78571429
0.48318009 -0.77696793 -0.71428571
0.48318009 -0.84839650 -0.64285714
0.48318009 -0.84839650 0.64285714
0.41175151 -0.77696793 0.78571429
0.48318009 -0.77696793 0.71428571
0.48318009 -0.63411079 -0.85714286
0.48318009 -0.70553936 -0.78571429
0.48318009 -0.70553936 0.78571429
0.48318009 -0.63411079 0.85714286
0.41175151 -0.49125364 -0.92857143
0.48318009 -0.49125364 -0.85714286
0.48318009 -0.49125364 0.85714286
0.48318009 -0.34839650 -1.00000000
0.48318009 -0.41982507 -0.92857143
0.41175151 -0.34839650 0.92857143
0.48318009 -0.34839650 0.85714286
0.48318009 -0.20553936 -1.00000000
0.48318009 -0.27696793 0.92857143
0.48318009 -0.20553936 1.00000000
0.48318009 -0.06268222 -1.00000000
0.48318009 -0.06268222 1.00000000
0.48318009 0.08017493 -1.00000000
0.48318009 0.08017493 1.00000000
0.48318009 0.22303207 -1.00000000
0.48318009 0.22303207 1.00000000
0.48318009 0.29446064 -0.92857143
0.41175151 0.36588921 -0.92857143
0.48318009 0.36588921 -0.85714286
0.41175151 0.36588921 0.92857143
0.48318009 0.29446064 0.92857143
0.48318009 0.36588921 0.85714286
0.48318009 0.50874636 -0.85714286
0.48318009 0.50874636 0.85714286
0.48318009 0.65160350 -0.85714286
0.48318009 0.65160350 0.85714286
0.48318009 0.72303207 -0.78571429
0.41175151 0.79446064 -0.78571429
0.48318009 0.79446064 -0.71428571
0.48318009 0.72303207 0.78571429
0.48318009 0.79446064 0.71428571
0.41175151 0.93731778 -0.64285714
0.48318009 0.86588921 -0.64285714
0.48318009 0.93731778 -0.57142857
0.41175151 0.93731778 0.64285714
0.48318009 0.86588921 0.64285714
0.48318009 0.93731778 0.57142857
0.48318009 1.00874636 -0.50000000
0.41175151 1.08017493 -0.35714286
0.48318009 1.00874636 -0.35714286
0.48318009 1.08017493 -0.28571429
0.41175151 1.08017493 0.07142857
0.48318009 1.00874636 0.07142857
0.48318009 1.08017493 0.00000000
0.41175151 1.08017493 0.21428571
0.48318009 1.00874636 0.21428571
0.48318009 1.00874636 0.35714286
0.48318009 1.00874636 0.50000000
0.48318009 1.15160350 -0.21428571
0.48318009 1.15160350 -0.07142857
0.55460866 -1.06268222 -0.07142857
0.55460866 -1.06268222 0.07142857
0.55460866 -0.91982507 -0.50000000
0.62603723 -0.91982507 -0.42857143
0.62603723 -0.99125364 -0.35714286
0.62603723 -0.99125364 -0.21428571
0.62603723 -0.99125364 -0.07142857
0.62603723 -0.99125364 0.07142857
0.62603723 -0.99125364 0.21428571
0.62603723 -0.99125364 0.35714286
0.55460866 -0.91982507 0.50000000
0.62603723 -0.91982507 0.42857143
0.55460866 -0.77696793 -0.64285714
0.62603723 -0.77696793 -0.57142857
0.62603723 -0.84839650 -0.50000000
0.62603723 -0.84839650 0.50000000
0.55460866 -0.77696793 0.64285714
0.62603723 -0.77696793 0.57142857
0.55460866 -0.63411079 -0.78571429
0.62603723 -0.63411079 -0.71428571
0.62603723 -0.70553936 -0.64285714
0.62603723 -0.70553936 0.64285714
0.55460866 -0.63411079 0.78571429
0.62603723 -0.63411079 0.71428571
0.62603723 -0.49125364 -0.85714286
0.62603723 -0.56268222 -0.78571429
0.62603723 -0.56268222 0.78571429
0.62603723 -0.49125364 0.85714286
0.55460866 -0.34839650 -0.92857143
0.62603723 -0.34839650 -0.85714286
0.62603723 -0.34839650 0.85714286
0.62603723 -0.20553936 -1.00000000
0.62603723 -0.27696793 -0.92857143
0.55460866 -0.20553936 0.92857143
0.62603723 -0.20553936 0.85714286
0.62603723 -0.06268222 -1.00000000
0.55460866 -0.06268222 0.92857143
0.62603723 -0.06268222 0.85714286
0.62603723 0.08017493 -1.00000000
0.62603723 0.00874636 0.92857143
0.62603723 0.08017493 1.00000000
0.62603723 0.15160350 -0.92857143
0.55460866 0.22303207 -0.92857143
0.62603723 0.22303207 -0.85714286
0.55460866 0.22303207 0.92857143
0.62603723 0.15160350 0.92857143
0.62603723 0.22303207 0.85714286
0.62603723 0.36588921 -0.85714286
0.62603723 0.36588921 0.85714286
0.62603723 0.50874636 -0.85714286
0.55460866 0.50874636 0.78571429
0.62603723 0.43731778 0.78571429
0.62603723 0.50874636 0.71428571
0.62603723 0.58017493 -0.78571429
0.55460866 0.65160350 -0.78571429
0.62603723 0.65160350 -0.71428571
0.55460866 0.65160350 0.78571429
0.62603723 0.65160350 0.71428571
0.62603723 0.79446064 -0.71428571
0.62603723 0.79446064 0.71428571
0.62603723 0.86588921 -0.64285714
0.55460866 0.93731778 -0.50000000
0.62603723 0.86588921 -0.50000000
0.62603723 0.93731778 -0.42857143
0.55460866 0.93731778 0.50000000
0.62603723 0.86588921 0.50000000
0.62603723 0.93731778 0.42857143
0.62603723 0.86588921 0.64285714
0.62603723 1.00874636 -0.35714286
0.55460866 1.08017493 -0.21428571
0.62603723 1.00874636 -0.21428571
0.55460866 1.08017493 -0.07142857
0.62603723 1.00874636 -0.07142857
0.62603723 1.00874636 0.07142857
0.62603723 1.00874636 0.21428571
0.62603723 1.00874636 0.35714286
0.69746580 -0.91982507 -0.35714286
0.69746580 -0.91982507 -0.21428571
0.76889437 -0.91982507 -0.14285714
0.76889437 -0.99125364 -0.07142857
0.69746580 -0.91982507 0.07142857
0.76889437 -0.91982507 0.00000000
0.69746580 -0.91982507 0.21428571
0.69746580 -0.91982507 0.35714286
0.69746580 -0.77696793 -0.50000000
0.76889437 -0.77696793 -0.42857143
0.76889437 -0.84839650 -0.35714286
0.76889437 -0.84839650 -0.21428571
0.76889437 -0.84839650 0.07142857
0.76889437 -0.84839650 0.21428571
0.76889437 -0.77696793 0.28571429
0.69746580 -0.77696793 0.35714286
0.69746580 -0.77696793 0.50000000
0.69746580 -0.63411079 -0.64285714
0.76889437 -0.63411079 -0.57142857
0.76889437 -0.70553936 -0.50000000
0.76889437 -0.70553936 0.35714286
0.76889437 -0.70553936 0.50000000
0.69746580 -0.63411079 0.64285714
0.76889437 -0.63411079 0.57142857
0.69746580 -0.49125364 -0.78571429
0.76889437 -0.49125364 -0.71428571
0.76889437 -0.56268222 -0.64285714
0.76889437 -0.56268222 0.64285714
0.69746580 -0.49125364 0.78571429
0.76889437 -0.49125364 0.71428571
0.76889437 -0.34839650 -0.85714286
0.76889437 -0.41982507 -0.78571429
0.69746580 -0.34839650 0.78571429
0.76889437 -0.34839650 0.71428571
0.69746580 -0.20553936 -0.92857143
0.76889437 -0.20553936 -0.85714286
0.69746580 -0.20553936 0.78571429
0.76889437 -0.20553936 0.71428571
0.69746580 -0.06268222 -0.92857143
0.76889437 -0.06268222 -0.85714286
0.69746580 -0.06268222 0.78571429
0.76889437 -0.06268222 0.71428571
0.69746580 0.08017493 -0.92857143
0.76889437 0.08017493 -0.85714286
0.76889437 0.00874636 0.78571429
0.69746580 0.08017493 0.92857143
0.76889437 0.08017493 0.85714286
0.76889437 0.22303207 -0.85714286
0.69746580 0.22303207 0.78571429
0.76889437 0.15160350 0.78571429
0.76889437 0.22303207 0.71428571
0.76889437 0.29446064 -0.78571429
0.69746580 0.36588921 -0.78571429
0.76889437 0.36588921 -0.71428571
0.69746580 0.36588921 0.78571429
0.76889437 0.36588921 0.71428571
0.69746580 0.50874636 -0.78571429
0.76889437 0.50874636 -0.71428571
0.76889437 0.50874636 0.71428571
0.76889437 0.65160350 -0.71428571
0.69746580 0.65160350 0.64285714
0.76889437 0.58017493 0.64285714
0.76889437 0.65160350 0.57142857
0.76889437 0.72303207 -0.64285714
0.69746580 0.79446064 -0.64285714
0.69746580 0.79446064 -0.50000000
0.76889437 0.72303207 -0.50000000
0.76889437 0.79446064 -0.42857143
0.69746580 0.79446064 0.35714286
0.76889437 0.72303207 0.35714286
0.76889437 0.79446064 0.28571429
0.69746580 0.79446064 0.50000000
0.76889437 0.72303207 0.50000000
0.69746580 0.79446064 0.64285714
0.69746580 0.93731778 -0.35714286
0.76889437 0.86588921 -0.35714286
0.69746580 0.93731778 -0.21428571
0.76889437 0.86588921 -0.21428571
0.69746580 0.93731778 -0.07142857
0.76889437 0.86588921 -0.07142857
0.69746580 0.93731778 0.07142857
0.76889437 0.86588921 0.07142857
0.69746580 0.93731778 0.21428571
0.76889437 0.86588921 0.21428571
0.69746580 0.93731778 0.35714286
0.84032294 -0.91982507 -0.07142857
0.84032294 -0.77696793 -0.35714286
0.84032294 -0.77696793 -0.21428571
0.84032294 -0.77696793 -0.07142857
0.91175151 -0.84839650 0.07142857
0.91175151 -0.77696793 0.00000000
0.84032294 -0.77696793 0.21428571
0.91175151 -0.77696793 0.14285714
0.84032294 -0.63411079 -0.50000000
0.91175151 -0.63411079 -0.42857143
0.91175151 -0.70553936 -0.35714286
0.91175151 -0.70553936 -0.21428571
0.91175151 -0.70553936 -0.07142857
0.91175151 -0.70553936 0.21428571
0.91175151 -0.70553936 0.35714286
0.84032294 -0.63411079 0.50000000
0.91175151 -0.63411079 0.42857143
0.84032294 -0.49125364 -0.64285714
0.91175151 -0.49125364 -0.57142857
0.91175151 -0.56268222 -0.50000000
0.84032294 -0.49125364 0.50000000
0.91175151 -0.49125364 0.42857143
0.84032294 -0.49125364 0.64285714
0.84032294 -0.34839650 -0.78571429
0.91175151 -0.34839650 -0.71428571
0.91175151 -0.41982507 -0.64285714
0.91175151 -0.41982507 0.50000000
0.91175151 -0.41982507 0.64285714
0.91175151 -0.34839650 0.71428571
0.84032294 -0.20553936 -0.78571429
0.91175151 -0.20553936 -0.71428571
0.91175151 -0.20553936 0.71428571
0.84032294 -0.06268222 -0.78571429
0.91175151 -0.06268222 -0.71428571
0.91175151 -0.06268222 0.71428571
0.84032294 0.08017493 -0.78571429
0.91175151 0.08017493 -0.71428571
0.84032294 0.08017493 0.78571429
0.91175151 0.08017493 0.71428571
0.84032294 0.22303207 -0.78571429
0.91175151 0.22303207 -0.71428571
0.91175151 0.22303207 0.71428571
0.91175151 0.36588921 -0.71428571
0.91175151 0.36588921 0.71428571
0.91175151 0.43731778 -0.64285714
0.84032294 0.50874636 -0.64285714
0.91175151 0.50874636 -0.57142857
0.84032294 0.50874636 0.50000000
0.91175151 0.43731778 0.50000000
0.91175151 0.50874636 0.42857143
0.84032294 0.50874636 0.64285714
0.91175151 0.43731778 0.64285714
0.84032294 0.65160350 -0.64285714
0.91175151 0.58017493 -0.50000000
0.84032294 0.65160350 -0.50000000
0.91175151 0.65160350 -0.42857143
0.84032294 0.65160350 0.50000000
0.91175151 0.65160350 0.42857143
0.84032294 0.79446064 -0.35714286
0.91175151 0.72303207 -0.35714286
0.84032294 0.79446064 -0.21428571
0.91175151 0.72303207 -0.21428571
0.84032294 0.79446064 -0.07142857
0.91175151 0.72303207 -0.07142857
0.84032294 0.79446064 0.07142857
0.91175151 0.72303207 0.07142857
0.84032294 0.79446064 0.21428571
0.91175151 0.72303207 0.21428571
0.91175151 0.72303207 0.35714286
0.98318009 -0.77696793 0.07142857
0.98318009 -0.63411079 -0.35714286
0.98318009 -0.63411079 -0.21428571
0.98318009 -0.63411079 -0.07142857
0.98318009 -0.63411079 0.07142857
0.98318009 -0.63411079 0.21428571
0.98318009 -0.63411079 0.35714286
0.98318009 -0.49125364 -0.50000000
0.98318009 -0.49125364 -0.35714286
1.05460866 -0.49125364 -0.28571429
1.05460866 -0.56268222 -0.21428571
1.05460866 -0.56268222 -0.07142857
1.05460866 -0.56268222 0.07142857
1.05460866 -0.49125364 0.14285714
0.98318009 -0.49125364 0.21428571
0.98318009 -0.49125364 0.35714286
0.98318009 -0.34839650 -0.64285714
0.98318009 -0.34839650 -0.50000000
1.05460866 -0.34839650 -0.42857143
1.05460866 -0.41982507 -0.35714286
1.05460866 -0.41982507 0.21428571
1.05460866 -0.41982507 0.35714286
0.98318009 -0.34839650 0.50000000
1.05460866 -0.34839650 0.42857143
0.98318009 -0.34839650 0.64285714
0.98318009 -0.20553936 -0.64285714
0.98318009 -0.20553936 -0.50000000
1.05460866 -0.20553936 -0.42857143
0.98318009 -0.20553936 0.50000000
1.05460866 -0.20553936 0.42857143
0.98318009 -0.20553936 0.64285714
0.98318009 -0.06268222 -0.64285714
1.05460866 -0.06268222 -0.57142857
1.05460866 -0.13411079 -0.50000000
0.98318009 -0.06268222 0.50000000
1.05460866 -0.06268222 0.42857143
0.98318009 -0.06268222 0.64285714
0.98318009 0.08017493 -0.64285714
1.05460866 0.08017493 -0.57142857
0.98318009 0.08017493 0.50000000
1.05460866 0.08017493 0.42857143
0.98318009 0.08017493 0.64285714
0.98318009 0.22303207 -0.64285714
1.05460866 0.22303207 -0.57142857
0.98318009 0.22303207 0.50000000
1.05460866 0.22303207 0.42857143
0.98318009 0.22303207 0.64285714
0.98318009 0.36588921 -0.64285714
1.05460866 0.36588921 -0.57142857
0.98318009 0.36588921 0.50000000
1.05460866 0.36588921 0.42857143
0.98318009 0.36588921 0.64285714
0.98318009 0.50874636 -0.50000000
1.05460866 0.43731778 -0.50000000
0.98318009 0.50874636 -0.35714286
1.05460866 0.43731778 -0.35714286
1.05460866 0.50874636 -0.28571429
0.98318009 0.50874636 0.35714286
1.05460866 0.43731778 0.35714286
1.05460866 0.50874636 0.28571429
0.98318009 0.65160350 -0.35714286
1.05460866 0.58017493 -0.21428571
0.98318009 0.65160350 -0.21428571
0.98318009 0.65160350 -0.07142857
1.05460866 0.58017493 -0.07142857
1.05460866 0.65160350 0.00000000
0.98318009 0.65160350 0.21428571
1.05460866 0.58017493 0.21428571
1.05460866 0.65160350 0.14285714
0.98318009 0.65160350 0.35714286
1.05460866 0.72303207 0.07142857
1.12603723 -0.49125364 -0.21428571
1.12603723 -0.49125364 -0.07142857
1.12603723 -0.49125364 0.07142857
1.12603723 -0.34839650 -0.35714286
1.12603723 -0.34839650 -0.21428571
1.12603723 -0.34839650 -0.07142857
1.12603723 -0.34839650 0.07142857
1.12603723 -0.34839650 0.21428571
1.12603723 -0.34839650 0.35714286
1.12603723 -0.20553936 -0.35714286
1.12603723 -0.20553936 -0.21428571
1.12603723 -0.20553936 -0.07142857
1.12603723 -0.20553936 0.07142857
1.12603723 -0.20553936 0.21428571
1.12603723 -0.20553936 0.35714286
1.12603723 -0.06268222 -0.50000000
1.12603723 -0.06268222 -0.35714286
1.19746580 -0.06268222 -0.28571429
1.19746580 -0.13411079 -0.21428571
1.19746580 -0.13411079 -0.07142857
1.19746580 -0.13411079 0.07142857
1.19746580 -0.06268222 0.14285714
1.12603723 -0.06268222 0.21428571
1.12603723 -0.06268222 0.35714286
1.12603723 0.08017493 -0.50000000
1.19746580 0.08017493 -0.42857143
1.19746580 0.00874636 -0.35714286
1.12603723 0.08017493 0.21428571
1.19746580 0.08017493 0.14285714
1.12603723 0.08017493 0.35714286
1.12603723 0.22303207 -0.50000000
1.19746580 0.15160350 -0.35714286
1.12603723 0.22303207 -0.35714286
1.19746580 0.22303207 -0.28571429
1.12603723 0.22303207 0.21428571
1.19746580 0.22303207 0.14285714
1.12603723 0.22303207 0.35714286
1.12603723 0.36588921 -0.50000000
1.12603723 0.36588921 -0.35714286
1.19746580 0.29446064 -0.21428571
1.12603723 0.36588921 -0.21428571
1.12603723 0.36588921 -0.07142857
1.19746580 0.29446064 -0.07142857
1.12603723 0.36588921 0.07142857
1.19746580 0.29446064 0.07142857
1.12603723 0.36588921 0.21428571
1.12603723 0.36588921 0.35714286
1.12603723 0.50874636 -0.21428571
1.12603723 0.50874636 -0.07142857
1.12603723 0.50874636 0.07142857
1.12603723 0.50874636 0.21428571
1.12603723 0.65160350 0.07142857
1.26889437 -0.06268222 -0.21428571
1.26889437 -0.06268222 -0.07142857
1.26889437 -0.06268222 0.07142857
1.26889437 0.08017493 -0.35714286
1.26889437 0.08017493 -0.21428571
1.26889437 0.08017493 -0.07142857
1.26889437 0.08017493 0.07142857
1.26889437 0.22303207 -0.21428571
1.26889437 0.22303207 -0.07142857
1.26889437 0.22303207 0.07142857
3 2 1 0
3 4 3 0
3 0 3 2
3 4 5 3
3 0 1 6
3 6 1 7
3 9 4 8
3 4 6 8
3 4 0 6
3 4 9 5
3 7 10 6
3 6 10 8
3 13 12 11
3 11 14 13
3 17 16 15
3 17 15 12
3 15 11 12
3 15 18 11
3 14 11 19
3 11 20 19
3 11 18 20
3 22 21 20
3 20 21 19
3 24 23 22
3 22 23 21
3 24 25 23
3 15 16 26
3 26 16 27
3 15 28 18
3 15 26 28
3 18 29 20
3 18 28 29
3 20 30 22
3 20 29 30
3 22 31 24
3 22 30 31
3 25 24 32
3 24 33 32
3 24 31 33
3 33 34 32
3 37 36 35
3 37 35 27
3 35 26 27
3 35 38 26
3 26 39 28
3 26 38 39
3 39 1 2
3 29 39 2
3 28 39 29
3 29 2 3
3 29 3 30
3 30 3 5
3 40 30 5
3 31 30 40
3 31 41 33
3 31 40 41
3 34 33 42
3 42 33 41
3 36 43 35
3 45 44 43
3 44 35 43
3 44 38 35
3 38 46 39
3 38 44 46
3 46 7 1
3 46 1 39
3 8 47 9
3 40 5 9
3 47 40 9
3 48 40 47
3 40 49 41
3 40 48 49
3 42 41 50
3 50 41 49
3 44 45 51
3 51 45 52
3 44 53 46
3 44 51 53
3 54 10 7
3 46 54 7
3 53 54 46
3 47 8 10
3 54 47 10
3 55 47 54
3 47 56 48
3 47 55 56
3 48 57 49
3 48 56 57
3 50 49 58
3 58 49 57
3 52 59 51
3 61 60 59
3 60 51 59
3 60 53 51
3 53 62 54
3 53 60 62
3 54 63 55
3 54 62 63
3 55 64 56
3 55 63 64
3 56 65 57
3 56 64 65
3 58 57 66
3 66 57 65
3 61 67 60
3 60 67 62
3 62 67 68
3 62 68 63
3 63 68 69
3 63 69 64
3 64 69 70
3 64 70 65
3 65 70 71
3 65 71 66
3 74 73 72
3 76 75 72
3 72 75 74
3 78 77 76
3 76 77 75
3 80 79 78
3 78 79 77
3 82 81 80
3 80 81 79
3 84 83 82
3 82 83 81
3 84 85 83
3 88 87 86
3 88 86 73
3 86 72 73
3 86 89 72
3 89 12 13
3 76 89 13
3 72 89 76
3 76 13 14
3 90 76 14
3 78 76 90
3 78 91 80
3 78 90 91
3 80 92 82
3 80 91 92
3 82 93 84
3 82 92 93
3 85 84 94
3 84 95 94
3 84 93 95
3 95 96 94
3 99 98 97
3 99 97 87
3 97 86 87
3 97 100 86
3 100 16 17
3 89 100 17
3 86 100 89
3 89 17 12
3 19 90 14
3 90 19 21
3 90 21 91
3 91 21 23
3 91 23 92
3 92 23 25
3 101 92 25
3 93 92 101
3 93 102 95
3 93 101 102
3 96 95 103
3 95 104 103
3 95 102 104
3 104 105 103
3 97 98 106
3 106 98 107
3 97 108 100
3 97 106 108
3 108 27 16
3 108 16 100
3 32 101 25
3 101 32 34
3 109 101 34
3 102 101 109
3 102 110 104
3 102 109 110
3 105 104 111
3 111 104 110
3 106 107 112
3 112 107 113
3 112 36 37
3 108 112 37
3 106 112 108
3 108 37 27
3 42 114 109
3 42 109 34
3 109 115 110
3 109 114 115
3 111 110 116
3 116 110 115
3 112 113 117
3 117 113 118
3 119 43 36
3 112 119 36
3 117 119 112
3 119 45 43
3 50 120 114
3 50 114 42
3 114 121 115
3 114 120 121
3 116 115 122
3 122 115 121
3 117 118 123
3 123 118 124
3 117 125 119
3 117 123 125
3 125 52 45
3 125 45 119
3 58 126 120
3 58 120 50
3 120 127 121
3 120 126 127
3 122 121 128
3 128 121 127
3 123 124 129
3 129 124 130
3 123 131 125
3 123 129 131
3 132 59 52
3 125 132 52
3 131 132 125
3 132 61 59
3 66 133 126
3 66 126 58
3 126 134 127
3 126 133 134
3 128 127 135
3 135 127 134
3 130 136 129
3 138 137 136
3 137 129 136
3 137 131 129
3 131 139 132
3 131 137 139
3 140 67 61
3 132 140 61
3 139 140 132
3 141 68 67
3 141 67 140
3 142 69 68
3 142 68 141
3 143 70 69
3 143 69 142
3 144 71 70
3 144 70 143
3 144 145 71
3 71 145 66
3 145 146 66
3 146 133 66
3 133 146 134
3 134 146 147
3 134 147 135
3 138 148 137
3 150 149 148
3 149 137 148
3 149 139 137
3 139 151 140
3 139 149 151
3 140 152 141
3 140 151 152
3 141 153 142
3 141 152 153
3 142 154 143
3 142 153 154
3 143 155 144
3 143 154 155
3 145 144 156
3 156 144 155
3 150 157 149
3 149 157 151
3 151 157 158
3 151 158 152
3 152 158 159
3 152 159 153
3 153 159 160
3 153 160 154
3 154 160 161
3 154 161 155
3 155 161 162
3 155 162 156
3 165 164 163
3 167 166 163
3 163 166 165
3 169 168 167
3 167 168 166
3 171 170 169
3 169 170 168
3 171 172 170
3 175 174 173
3 73 74 173
3 74 175 173
3 74 176 175
3 75 163 164
3 176 75 164
3 74 75 176
3 163 75 77
3 163 77 167
3 167 77 79
3 167 79 169
3 169 79 81
3 169 81 171
3 177 172 171
3 81 177 171
3 83 177 81
3 179 178 85
3 178 83 85
3 178 177 83
3 179 180 178
3 183 182 181
3 183 181 174
3 174 181 173
3 181 87 173
3 87 88 173
3 173 88 73
3 94 179 85
3 185 184 96
3 96 184 94
3 184 180 94
3 180 179 94
3 185 186 184
3 181 182 99
3 182 98 99
3 182 187 98
3 181 99 87
3 103 185 96
3 189 188 105
3 105 188 103
3 188 186 103
3 186 185 103
3 189 190 188
3 193 192 191
3 187 193 191
3 107 187 191
3 98 187 107
3 111 194 189
3 111 189 105
3 190 189 195
3 195 189 194
3 191 192 196
3 196 192 197
3 196 113 107
3 196 107 191
3 116 198 194
3 116 194 111
3 195 194 199
3 199 194 198
3 196 197 200
3 200 197 201
3 200 118 113
3 200 113 196
3 122 202 198
3 122 198 116
3 199 198 203
3 203 198 202
3 201 204 200
3 118 200 204
3 205 118 204
3 124 118 205
3 128 206 202
3 128 202 122
3 203 202 207
3 207 202 206
3 205 130 124
3 208 130 205
3 210 209 206
3 128 210 206
3 135 210 128
3 206 209 207
3 136 130 211
3 130 212 211
3 130 208 212
3 211 138 136
3 145 213 146
3 214 147 146
3 214 146 213
3 214 215 147
3 215 135 147
3 215 210 135
3 212 216 211
3 216 218 217
3 216 217 148
3 211 216 148
3 138 211 148
3 217 150 148
3 156 219 213
3 156 213 145
3 221 214 220
3 214 219 220
3 214 213 219
3 214 221 215
3 218 222 217
3 222 224 223
3 222 223 157
3 217 222 157
3 150 217 157
3 225 158 157
3 225 157 223
3 226 159 158
3 226 158 225
3 227 160 159
3 227 159 226
3 228 161 160
3 228 160 227
3 161 228 229
3 230 161 229
3 162 161 230
3 156 162 219
3 162 231 219
3 162 230 231
3 219 231 220
3 224 232 223
3 223 232 225
3 225 232 233
3 225 233 226
3 226 233 234
3 226 234 227
3 227 234 235
3 227 235 228
3 228 235 236
3 228 236 229
3 239 238 237
3 241 240 237
3 237 240 239
3 243 242 241
3 241 242 240
3 245 244 243
3 243 244 242
3 247 246 245
3 245 246 244
3 247 248 246
3 251 250 249
3 253 252 249
3 249 252 251
3 252 253 238
3 253 237 238
3 253 254 237
3 254 164 165
3 241 254 165
3 237 254 241
3 241 165 166
3 241 166 243
3 243 166 168
3 243 168 245
3 245 168 170
3 245 170 247
3 256 255 172
3 172 255 170
3 255 248 170
3 248 247 170
3 258 257 256
3 256 257 255
3 258 259 257
3 249 250 260
3 260 250 261
3 260 174 175
3 253 260 175
3 249 260 253
3 253 175 176
3 253 176 254
3 254 176 164
3 177 256 172
3 256 177 178
3 256 178 258
3 263 262 180
3 180 262 178
3 262 259 178
3 259 258 178
3 263 264 262
3 267 266 265
3 267 265 261
3 261 265 260
3 265 182 260
3 182 183 260
3 260 183 174
3 184 263 180
3 269 268 186
3 186 268 184
3 268 264 184
3 264 263 184
3 269 270 268
3 265 266 271
3 271 266 272
3 271 187 182
3 271 182 265
3 188 269 186
3 188 190 269
3 190 270 269
3 190 273 270
3 271 272 193
3 272 192 193
3 272 274 192
3 271 193 187
3 195 273 190
3 195 275 273
3 274 197 192
3 276 197 274
3 199 278 277
3 275 199 277
3 195 199 275
3 278 279 277
3 276 201 197
3 280 201 276
3 203 281 278
3 203 278 199
3 279 278 282
3 282 278 281
3 204 201 283
3 201 284 283
3 201 280 284
3 283 205 204
3 286 285 281
3 203 286 281
3 207 286 203
3 281 285 282
3 283 284 287
3 287 284 288
3 287 208 205
3 287 205 283
3 210 289 209
3 289 290 209
3 290 207 209
3 290 286 207
3 287 288 291
3 291 288 292
3 291 212 208
3 291 208 287
3 215 293 289
3 215 289 210
3 290 289 294
3 294 289 293
3 292 295 291
3 295 297 296
3 295 296 216
3 291 295 216
3 212 291 216
3 296 218 216
3 220 298 221
3 298 299 221
3 221 299 215
3 299 300 215
3 300 293 215
3 293 300 294
3 296 297 301
3 301 297 302
3 303 222 218
3 296 303 218
3 301 303 296
3 303 224 222
3 229 304 230
3 230 304 305
3 306 230 305
3 231 230 306
3 220 231 298
3 231 307 298
3 231 306 307
3 298 307 299
3 302 308 301
3 310 309 308
3 309 301 308
3 309 303 301
3 311 232 224
3 303 311 224
3 309 311 303
3 312 233 232
3 312 232 311
3 313 234 233
3 313 233 312
3 314 235 234
3 314 234 313
3 315 236 235
3 315 235 314
3 304 229 236
3 315 304 236
3 316 304 315
3 305 304 317
3 317 304 316
3 310 318 309
3 309 318 311
3 311 318 319
3 311 319 312
3 312 319 320
3 312 320 313
3 313 320 321
3 313 321 314
3 314 321 322
3 314 322 315
3 315 322 323
3 315 323 316
3 316 323 324
3 316 324 317
3 327 326 325
3 238 239 325
3 239 327 325
3 239 328 327
3 329 239 240
3 329 328 239
3 330 240 242
3 330 329 240
3 331 242 244
3 331 330 242
3 332 244 246
3 332 331 244
3 334 333 248
3 333 246 248
3 333 332 246
3 334 335 333
3 337 336 251
3 251 336 250
3 252 325 326
3 337 252 326
3 251 252 337
3 325 252 238
3 255 334 248
3 338 335 334
3 255 338 334
3 257 338 255
3 340 339 259
3 339 257 259
3 339 338 257
3 340 341 339
3 344 343 342
3 336 344 342
3 261 336 342
3 250 336 261
3 262 340 259
3 346 345 264
3 264 345 262
3 345 341 262
3 341 340 262
3 346 347 345
3 342 343 267
3 343 266 267
3 343 348 266
3 342 267 261
3 268 346 264
3 268 270 346
3 270 347 346
3 270 349 347
3 348 272 266
3 350 272 348
3 273 352 351
3 349 273 351
3 270 273 349
3 352 353 351
3 350 274 272
3 354 274 350
3 275 355 352
3 275 352 273
3 353 352 356
3 356 352 355
3 359 358 357
3 354 359 357
3 276 354 357
3 274 354 276
3 277 355 275
3 277 279 355
3 279 356 355
3 279 360 356
3 357 358 361
3 361 358 362
3 361 280 276
3 361 276 357
3 282 360 279
3 282 363 360
3 361 362 364
3 364 362 365
3 364 284 280
3 364 280 361
3 286 366 285
3 366 367 285
3 367 282 285
3 367 363 282
3 365 368 364
3 284 364 368
3 369 284 368
3 288 284 369
3 371 370 366
3 286 371 366
3 290 371 286
3 366 370 367
3 369 292 288
3 372 292 369
3 294 371 290
3 294 373 371
3 295 292 374
3 292 375 374
3 292 372 375
3 374 297 295
3 299 376 300
3 376 377 300
3 377 294 300
3 377 373 294
3 375 378 374
3 297 374 378
3 379 297 378
3 302 297 379
3 305 380 306
3 381 307 306
3 381 306 380
3 381 382 307
3 307 382 299
3 382 383 299
3 383 376 299
3 376 383 377
3 379 384 302
3 302 384 308
3 310 308 384
3 310 384 385
3 387 386 380
3 305 387 380
3 317 387 305
3 380 386 381
3 381 386 388
3 381 388 382
3 385 389 310
3 310 389 318
3 318 390 319
3 389 390 318
3 319 391 320
3 390 391 319
3 320 392 321
3 391 392 320
3 392 394 393
3 322 392 393
3 321 392 322
3 322 393 395
3 396 322 395
3 323 322 396
3 323 397 324
3 396 397 323
3 317 324 387
3 387 324 397
3 394 398 393
3 393 398 395
3 401 400 399
3 403 402 399
3 399 402 401
3 405 404 403
3 403 404 402
3 407 406 405
3 405 406 404
3 409 408 407
3 407 408 406
3 409 410 408
3 413 412 411
3 326 327 411
3 327 413 411
3 327 414 413
3 328 399 400
3 414 328 400
3 327 328 414
3 399 328 329
3 399 329 403
3 403 329 330
3 403 330 405
3 405 330 331
3 405 331 407
3 407 331 332
3 407 332 409
3 415 410 409
3 332 415 409
3 333 415 332
3 417 416 335
3 416 333 335
3 416 415 333
3 419 418 417
3 417 418 416
3 419 420 418
3 423 422 421
3 423 421 412
3 412 421 411
3 421 336 411
3 336 337 411
3 411 337 326
3 338 417 335
3 417 338 339
3 417 339 419
3 339 341 419
3 341 420 419
3 341 424 420
3 421 422 344
3 422 343 344
3 422 425 343
3 421 344 336
3 426 424 341
3 426 341 345
3 345 347 426
3 426 347 427
3 425 348 343
3 428 348 425
3 349 430 429
3 427 349 429
3 347 349 427
3 430 431 429
3 434 433 432
3 428 434 432
3 350 428 432
3 348 428 350
3 351 430 349
3 351 353 430
3 353 431 430
3 353 435 431
3 432 433 436
3 436 433 437
3 436 354 350
3 436 350 432
3 356 435 353
3 356 438 435
3 436 437 359
3 437 358 359
3 437 439 358
3 436 359 354
3 360 438 356
3 360 440 438
3 439 362 358
3 441 362 439
3 363 440 360
3 363 442 440
3 441 365 362
3 443 365 441
3 367 442 363
3 367 444 442
3 368 365 445
3 365 446 445
3 365 443 446
3 445 369 368
3 371 447 370
3 447 448 370
3 448 367 370
3 448 444 367
3 446 449 445
3 369 445 449
3 450 369 449
3 372 369 450
3 452 451 447
3 371 452 447
3 373 452 371
3 447 451 448
3 450 375 372
3 453 375 450
3 377 452 373
3 377 454 452
3 453 455 375
3 375 455 378
3 379 378 455
3 379 455 456
3 458 457 383
3 458 383 382
3 377 383 454
3 454 383 457
3 384 379 459
3 379 460 459
3 379 456 460
3 459 385 384
3 387 461 386
3 462 388 386
3 462 386 461
3 462 463 388
3 463 382 388
3 463 458 382
3 460 464 459
3 459 464 385
3 464 389 385
3 464 465 389
3 465 467 466
3 390 465 466
3 389 465 390
3 468 391 390
3 468 390 466
3 469 392 391
3 469 391 468
3 469 394 392
3 395 470 396
3 471 397 396
3 471 396 470
3 471 472 397
3 397 472 387
3 472 473 387
3 473 461 387
3 461 473 462
3 462 473 474
3 462 474 463
3 467 475 466
3 466 475 468
3 468 475 476
3 468 476 469
3 469 476 477
3 469 477 394
3 477 398 394
3 477 478 398
3 395 398 470
3 398 479 470
3 398 478 479
3 470 479 471
3 471 479 480
3 471 480 472
3 483 482 481
3 481 484 483
3 486 485 401
3 401 485 400
3 487 401 402
3 487 486 401
3 488 402 404
3 488 487 402
3 406 481 482
3 488 406 482
3 404 406 488
3 489 484 481
3 406 489 481
3 408 489 406
3 491 490 410
3 490 408 410
3 490 489 408
3 491 492 490
3 494 493 413
3 413 493 412
3 495 413 414
3 495 494 413
3 414 400 485
3 414 485 495
3 415 491 410
3 496 492 491
3 415 496 491
3 416 496 415
3 497 416 418
3 497 496 416
3 418 420 497
3 497 420 498
3 500 499 423
3 423 499 422
3 423 412 493
3 423 493 500
3 424 502 501
3 498 424 501
3 420 424 498
3 502 503 501
3 499 425 422
3 504 425 499
3 426 502 424
3 506 505 427
3 427 505 426
3 505 503 426
3 503 502 426
3 506 507 505
3 510 509 508
3 504 510 508
3 428 504 508
3 425 504 428
3 429 506 427
3 429 431 506
3 431 507 506
3 431 511 507
3 508 509 434
3 509 433 434
3 509 512 433
3 508 434 428
3 435 511 431
3 435 513 511
3 512 437 433
3 514 437 512
3 438 513 435
3 438 515 513
3 514 439 437
3 516 439 514
3 440 515 438
3 440 517 515
3 516 441 439
3 518 441 516
3 442 517 440
3 442 519 517
3 518 443 441
3 520 443 518
3 444 519 442
3 444 521 519
3 520 446 443
3 522 446 520
3 448 521 444
3 448 523 521
3 449 446 524
3 446 525 524
3 446 522 525
3 524 450 449
3 452 526 451
3 526 527 451
3 527 448 451
3 527 523 448
3 525 528 524
3 450 524 528
3 529 450 528
3 453 450 529
3 454 530 526
3 454 526 452
3 527 526 531
3 531 526 530
3 455 453 532
3 453 533 532
3 453 529 533
3 532 456 455
3 458 534 457
3 534 535 457
3 457 535 454
3 535 536 454
3 536 530 454
3 530 536 531
3 533 537 532
3 456 532 537
3 538 456 537
3 460 456 538
3 540 539 534
3 458 540 534
3 463 540 458
3 534 539 535
3 538 541 460
3 460 541 464
3 464 542 465
3 541 542 464
3 467 465 542
3 467 542 543
3 545 544 473
3 545 473 472
3 473 546 474
3 544 546 473
3 463 474 540
3 540 474 546
3 543 547 467
3 467 547 475
3 475 548 476
3 547 548 475
3 476 549 477
3 548 549 476
3 549 551 550
3 478 549 550
3 477 549 478
3 478 550 552
3 553 478 552
3 479 478 553
3 479 554 480
3 553 554 479
3 472 480 545
3 545 480 554
3 551 555 550
3 550 555 552
3 558 557 556
3 560 559 556
3 556 559 558
3 482 483 560
3 483 559 560
3 483 561 559
3 563 562 484
3 562 483 484
3 562 561 483
3 563 564 562
3 566 565 486
3 486 565 485
3 487 556 557
3 566 487 557
3 486 487 566
3 556 487 488
3 556 488 560
3 560 488 482
3 489 563 484
3 567 564 563
3 489 567 563
3 490 567 489
3 490 492 567
3 567 492 568
3 571 570 569
3 493 494 569
3 494 571 569
3 494 572 571
3 573 494 495
3 573 572 494
3 495 485 565
3 495 565 573
3 574 568 492
3 574 492 496
3 575 496 497
3 575 574 496
3 497 498 575
3 575 498 576
3 569 570 500
3 570 499 500
3 570 577 499
3 569 500 493
3 578 576 498
3 578 498 501
3 501 503 578
3 578 503 579
3 582 581 580
3 577 582 580
3 504 577 580
3 499 577 504
3 583 579 503
3 583 503 505
3 505 507 583
3 583 507 584
3 580 581 510
3 581 509 510
3 581 585 509
3 580 510 504
3 511 584 507
3 511 586 584
3 585 512 509
3 587 512 585
3 513 586 511
3 513 588 586
3 587 514 512
3 589 514 587
3 515 588 513
3 515 590 588
3 589 516 514
3 591 516 589
3 517 590 515
3 517 592 590
3 591 518 516
3 593 518 591
3 519 592 517
3 519 594 592
3 593 520 518
3 595 520 593
3 521 594 519
3 521 596 594
3 595 522 520
3 597 522 595
3 523 596 521
3 523 598 596
3 597 525 522
3 599 525 597
3 527 598 523
3 527 600 598
3 599 601 525
3 525 601 528
3 529 528 601
3 529 601 602
3 531 600 527
3 531 603 600
3 602 533 529
3 604 533 602
3 606 605 536
3 606 536 535
3 531 536 603
3 603 536 605
3 604 607 533
3 533 607 537
3 538 537 607
3 538 607 608
3 610 609 539
3 610 539 540
3 535 539 606
3 606 539 609
3 608 611 538
3 538 611 541
3 541 612 542
3 611 612 541
3 543 542 612
3 543 612 613
3 615 614 544
3 615 544 545
3 544 616 546
3 614 616 544
3 540 546 610
3 610 546 616
3 613 617 543
3 543 617 547
3 547 618 548
3 617 618 547
3 618 620 619
3 549 618 619
3 548 618 549
3 619 551 549
3 622 621 553
3 622 553 552
3 553 623 554
3 621 623 553
3 545 554 615
3 615 554 623
3 620 624 619
3 619 624 551
3 624 555 551
3 624 625 555
3 552 555 622
3 622 555 625
3 627 626 558
3 558 626 557
3 628 558 559
3 628 627 558
3 629 559 561
3 629 628 559
3 630 561 562
3 630 629 561
3 562 564 630
3 630 564 631
3 633 632 566
3 566 632 565
3 566 557 626
3 566 626 633
3 634 631 564
3 634 564 567
3 636 635 568
3 635 567 568
3 635 634 567
3 636 637 635
3 639 638 571
3 571 638 570
3 640 571 572
3 640 639 571
3 641 572 573
3 641 640 572
3 573 565 632
3 573 632 641
3 574 636 568
3 642 637 636
3 574 642 636
3 575 642 574
3 575 576 642
3 642 576 643
3 638 577 570
3 644 577 638
3 645 643 576
3 645 576 578
3 578 579 645
3 645 579 646
3 648 647 582
3 582 647 581
3 582 577 644
3 582 644 648
3 649 646 579
3 649 579 583
3 583 584 649
3 649 584 650
3 647 585 581
3 651 585 647
3 586 650 584
3 586 652 650
3 651 587 585
3 653 587 651
3 588 652 586
3 588 654 652
3 653 589 587
3 655 589 653
3 590 654 588
3 590 656 654
3 655 591 589
3 657 591 655
3 592 656 590
3 592 658 656
3 657 593 591
3 659 593 657
3 594 658 592
3 594 660 658
3 659 595 593
3 661 595 659
3 596 660 594
3 596 662 660
3 661 597 595
3 663 597 661
3 598 662 596
3 598 664 662
3 663 599 597
3 665 599 663
3 600 664 598
3 600 666 664
3 601 599 667
3 599 668 667
3 599 665 668
3 667 602 601
3 603 666 600
3 603 669 666
3 668 670 667
3 602 667 670
3 671 602 670
3 604 602 671
3 673 672 605
3 673 605 606
3 603 605 669
3 669 605 672
3 671 674 604
3 604 674 607
3 608 607 674
3 608 674 675
3 677 676 609
3 677 609 610
3 606 609 673
3 673 609 676
3 675 678 608
3 608 678 611
3 678 680 679
3 612 678 679
3 611 678 612
3 679 613 612
3 682 681 614
3 682 614 615
3 614 683 616
3 681 683 614
3 610 616 677
3 677 616 683
3 680 684 679
3 679 684 613
3 684 617 613
3 684 685 617
3 617 686 618
3 685 686 617
3 620 618 686
3 620 686 687
3 689 688 621
3 689 621 622
3 621 690 623
3 688 690 621
3 615 623 682
3 682 623 690
3 687 691 620
3 620 691 624
3 624 692 625
3 691 692 624
3 622 625 689
3 689 625 692
3 693 626 627
3 693 627 694
3 627 695 694
3 627 628 695
3 696 628 629
3 696 695 628
3 698 696 697
3 696 630 697
3 696 629 630
3 631 697 630
3 700 699 633
3 633 699 632
3 633 626 693
3 701 633 693
3 700 633 701
3 701 693 694
3 702 698 697
3 702 697 631
3 634 702 631
3 703 702 634
3 705 703 704
3 703 635 704
3 703 634 635
3 637 704 635
3 706 638 639
3 706 639 707
3 639 708 707
3 639 640 708
3 709 640 641
3 709 708 640
3 641 632 699
3 641 699 709
3 710 705 704
3 710 704 637
3 642 710 637
3 711 710 642
3 642 643 711
3 711 643 712
3 714 713 706
3 713 638 706
3 713 644 638
3 714 706 707
3 715 712 643
3 715 643 645
3 645 646 715
3 715 646 716
3 718 717 648
3 648 717 647
3 648 644 713
3 648 713 718
3 646 649 719
3 720 646 719
3 716 646 720
3 650 719 649
3 717 651 647
3 721 651 717
3 722 720 719
3 719 650 722
3 650 723 722
3 650 652 723
3 721 653 651
3 724 653 721
3 654 723 652
3 654 725 723
3 724 655 653
3 726 655 724
3 656 725 654
3 656 727 725
3 726 657 655
3 728 657 726
3 658 727 656
3 658 729 727
3 728 659 657
3 730 659 728
3 660 729 658
3 660 731 729
3 730 661 659
3 732 661 730
3 662 731 660
3 662 733 731
3 732 663 661
3 734 663 732
3 664 733 662
3 664 735 733
3 737 665 736
3 665 734 736
3 665 663 734
3 738 737 736
3 666 735 664
3 666 739 735
3 740 668 737
3 737 668 665
3 737 738 741
3 737 741 740
3 669 739 666
3 669 742 739
3 740 670 668
3 671 670 740
3 741 671 740
3 743 671 741
3 745 744 672
3 745 672 673
3 669 672 742
3 742 672 744
3 743 746 671
3 671 746 674
3 675 674 746
3 675 746 747
3 749 748 676
3 749 676 677
3 673 676 745
3 745 676 748
3 747 750 675
3 675 750 678
3 752 751 680
3 678 752 680
3 750 752 678
3 753 751 752
3 755 754 681
3 755 681 682
3 681 756 683
3 754 756 681
3 677 683 749
3 749 683 756
3 751 684 680
3 753 757 751
3 757 684 751
3 757 685 684
3 685 758 686
3 757 758 685
3 760 759 687
3 686 760 687
3 758 760 686
3 762 761 759
3 762 759 760
3 688 689 761
3 762 688 761
3 763 688 762
3 688 764 690
3 763 764 688
3 682 690 755
3 755 690 764
3 759 691 687
3 691 759 692
3 692 759 761
3 692 761 689
3 765 694 695
3 696 766 695
3 695 766 765
3 698 766 696
3 768 767 700
3 700 767 699
3 769 700 701
3 769 768 700
3 701 694 765
3 770 701 765
3 769 701 770
3 770 765 766
3 770 766 771
3 771 766 698
3 702 771 698
3 772 771 702
3 773 702 703
3 773 772 702
3 703 705 773
3 773 705 774
3 776 775 708
3 708 775 707
3 777 708 709
3 777 776 708
3 709 699 767
3 709 767 777
3 778 774 705
3 778 705 710
3 779 710 711
3 779 778 710
3 711 712 779
3 779 712 780
3 782 781 714
3 714 781 713
3 714 707 775
3 714 775 782
3 783 780 712
3 783 712 715
3 715 716 783
3 783 716 784
3 785 717 718
3 786 785 718
3 713 786 718
3 781 786 713
3 720 784 716
3 720 787 784
3 789 788 785
3 788 717 785
3 788 721 717
3 789 785 786
3 720 722 790
3 791 720 790
3 787 720 791
3 723 790 722
3 788 724 721
3 792 724 788
3 793 791 790
3 790 723 793
3 723 794 793
3 723 725 794
3 792 726 724
3 795 726 792
3 727 794 725
3 727 796 794
3 795 728 726
3 797 728 795
3 729 796 727
3 729 798 796
3 797 730 728
3 799 730 797
3 731 798 729
3 731 800 798
3 799 732 730
3 801 732 799
3 733 800 731
3 733 802 800
3 801 734 732
3 803 734 801
3 735 802 733
3 735 804 802
3 803 805 734
3 734 805 736
3 738 736 805
3 738 805 806
3 809 808 807
3 808 804 807
3 804 739 807
3 804 735 739
3 806 741 738
3 810 741 806
3 809 807 811
3 809 811 812
3 742 811 739
3 739 811 807
3 810 743 741
3 813 743 810
3 816 815 814
3 814 815 812
3 814 812 811
3 745 814 811
3 744 745 811
3 744 811 742
3 813 817 743
3 743 817 746
3 747 746 817
3 747 817 818
3 816 814 748
3 749 816 748
3 819 816 749
3 748 814 745
3 818 820 747
3 747 820 750
3 750 821 752
3 820 821 750
3 753 752 821
3 753 821 822
3 825 824 823
3 754 755 823
3 824 754 823
3 826 754 824
3 754 827 756
3 826 827 754
3 749 756 819
3 819 756 827
3 822 828 753
3 753 828 757
3 757 829 758
3 828 829 757
3 758 830 760
3 829 830 758
3 760 831 762
3 830 831 760
3 762 832 763
3 831 832 762
3 823 764 825
3 764 832 825
3 764 763 832
3 764 823 755
3 833 767 768
3 769 834 768
3 768 834 833
3 834 769 835
3 769 836 835
3 769 770 836
3 837 770 771
3 837 836 770
3 839 837 838
3 837 772 838
3 837 771 772
3 773 840 772
3 772 840 838
3 774 840 773
3 841 775 776
3 841 776 842
3 776 843 842
3 776 777 843
3 777 767 833
3 844 777 833
3 843 777 844
3 844 833 834
3 844 834 845
3 845 834 835
3 846 839 838
3 846 838 840
3 846 840 847
3 847 840 774
3 778 847 774
3 848 847 778
3 850 848 849
3 848 779 849
3 848 778 779
3 780 849 779
3 851 781 782
3 852 851 782
3 852 782 775
3 853 852 775
3 841 853 775
3 853 841 842
3 854 850 849
3 856 854 855
3 855 854 783
3 854 849 783
3 849 780 783
3 784 855 783
3 858 857 851
3 857 781 851
3 857 786 781
3 858 851 852
3 859 856 855
3 855 784 859
3 784 860 859
3 784 787 860
3 861 788 789
3 862 861 789
3 786 862 789
3 857 862 786
3 791 860 787
3 791 863 860
3 865 864 861
3 864 788 861
3 864 792 788
3 865 861 862
3 791 793 866
3 867 791 866
3 863 791 867
3 794 866 793
3 864 795 792
3 868 795 864
3 869 867 866
3 866 794 869
3 794 870 869
3 794 796 870
3 868 797 795
3 871 797 868
3 798 870 796
3 798 872 870
3 871 799 797
3 873 799 871
3 800 872 798
3 800 874 872
3 873 801 799
3 875 801 873
3 802 874 800
3 802 876 874
3 878 803 877
3 803 875 877
3 803 801 875
3 879 878 877
3 882 881 880
3 881 876 880
3 876 804 880
3 876 802 804
3 878 805 803
3 806 805 878
3 879 806 878
3 883 806 879
3 882 880 808
3 809 882 808
3 884 882 809
3 808 880 804
3 883 810 806
3 885 810 883
3 812 884 809
3 812 886 884
3 888 813 887
3 813 885 887
3 813 810 885
3 889 888 887
3 891 890 815
3 891 815 816
3 812 815 886
3 886 815 890
3 888 817 813
3 893 892 818
3 893 818 817
3 889 893 817
3 888 889 817
3 894 892 893
3 897 896 895
3 896 891 895
3 891 819 895
3 891 816 819
3 892 820 818
3 894 898 892
3 898 820 892
3 898 821 820
3 900 899 822
3 821 900 822
3 898 900 821
3 901 899 900
3 904 903 902
3 906 905 902
3 906 902 903
3 824 825 905
3 906 824 905
3 907 824 906
3 824 908 826
3 907 908 824
3 895 827 897
3 827 908 897
3 827 826 908
3 827 895 819
3 899 828 822
3 901 909 899
3 909 828 899
3 909 829 828
3 829 910 830
3 909 910 829
3 902 831 904
3 831 910 904
3 831 830 910
3 831 902 832
3 832 902 905
3 832 905 825
3 911 835 836
3 837 912 836
3 836 912 911
3 839 912 837
3 913 842 843
3 913 843 914
3 843 915 914
3 843 844 915
3 916 844 845
3 916 915 844
3 845 835 911
3 917 845 911
3 916 845 917
3 917 911 912
3 917 912 918
3 918 912 839
3 846 918 839
3 919 918 846
3 920 846 847
3 920 919 846
3 922 920 921
3 920 848 921
3 920 847 848
3 850 921 848
3 923 852 853
3 924 923 853
3 924 853 842
3 925 924 842
3 913 925 842
3 925 913 914
3 926 922 921
3 928 926 927
3 927 926 854
3 926 921 854
3 921 850 854
3 856 927 854
3 929 857 858
3 930 929 858
3 930 858 852
3 931 930 852
3 923 931 852
3 931 923 924
3 932 928 927
3 934 932 933
3 933 932 859
3 932 927 859
3 927 856 859
3 860 933 859
3 936 935 929
3 935 857 929
3 935 862 857
3 936 929 930
3 937 934 933
3 933 860 937
3 860 938 937
3 860 863 938
3 939 864 865
3 940 939 865
3 862 940 865
3 935 940 862
3 867 938 863
3 867 941 938
3 943 942 939
3 942 864 939
3 942 868 864
3 943 939 940
3 867 869 944
3 945 867 944
3 941 867 945
3 870 944 869
3 942 871 868
3 946 871 942
3 945 944 947
3 945 947 948
3 872 947 870
3 870 947 944
3 946 873 871
3 949 873 946
3 950 948 947
3 947 872 950
3 872 951 950
3 872 874 951
3 953 875 952
3 875 949 952
3 875 873 949
3 954 953 952
3 957 956 955
3 956 951 955
3 951 876 955
3 951 874 876
3 953 877 875
3 879 877 953
3 954 879 953
3 958 879 954
3 957 955 881
3 882 957 881
3 959 957 882
3 881 955 876
3 958 883 879
3 960 883 958
3 963 962 961
3 962 959 961
3 959 884 961
3 959 882 884
3 965 885 964
3 885 960 964
3 885 883 960
3 966 965 964
3 963 961 967
3 963 967 968
3 886 967 884
3 884 967 961
3 965 887 885
3 889 887 965
3 966 889 965
3 969 889 966
3 968 967 890
3 891 968 890
3 970 968 891
3 890 967 886
3 969 971 889
3 889 971 893
3 973 972 894
3 893 973 894
3 971 973 893
3 974 972 973
3 977 976 975
3 896 897 975
3 976 896 975
3 978 896 976
3 891 896 970
3 970 896 978
3 972 898 894
3 974 979 972
3 979 898 972
3 979 900 898
3 981 980 901
3 900 981 901
3 979 981 900
3 983 982 980
3 983 980 981
3 903 904 982
3 983 903 982
3 984 903 983
3 903 985 906
3 984 985 903
3 906 986 907
3 985 986 906
3 975 908 977
3 908 986 977
3 908 907 986
3 908 975 897
3 980 909 901
3 909 980 910
3 910 980 982
3 910 982 904
3 987 914 915
3 916 988 915
3 915 988 987
3 988 916 989
3 916 990 989
3 916 917 990
3 992 990 991
3 990 918 991
3 990 917 918
3 919 993 918
3 918 993 991
3 920 994 919
3 919 994 993
3 922 994 920
3 995 924 925
3 996 995 925
3 996 925 914
3 997 996 914
3 987 997 914
3 997 987 988
3 997 988 998
3 998 988 989
3 999 992 991
3 999 991 993
3 999 993 1000
3 1002 1001 1000
3 993 1002 1000
3 994 1002 993
3 926 1003 922
3 1003 994 922
3 1003 1002 994
3 928 1003 926
3 1004 930 931
3 1005 1004 931
3 1005 931 924
3 1006 1005 924
3 995 1006 924
3 1006 995 996
3 1007 1001 1002
3 1007 1002 1003
3 1007 1003 1008
3 1010 1008 1009
3 1009 1008 932
3 1008 1003 932
3 1003 928 932
3 934 1009 932
3 1011 935 936
3 1012 1011 936
3 1012 936 930
3 1013 1012 930
3 1004 1013 930
3 1013 1004 1005
3 1014 1010 1009
3 1016 1014 1015
3 1015 1014 937
3 1014 1009 937
3 1009 934 937
3 938 1015 937
3 1018 1017 1011
3 1017 935 1011
3 1017 940 935
3 1018 1011 1012
3 1016 1015 1019
3 1016 1019 1020
3 941 1019 938
3 938 1019 1015
3 1021 942 943
3 1022 1021 943
3 940 1022 943
3 1017 1022 940
3 1020 1019 1023
3 1020 1023 1024
3 945 1023 941
3 941 1023 1019
3 1025 946 1021
3 1021 946 942
3 1021 1022 1026
3 1021 1026 1025
3 1024 1023 1027
3 1024 1027 1028
3 948 1027 945
3 945 1027 1023
3 1029 949 1025
3 1025 949 946
3 1025 1026 1030
3 1025 1030 1029
3 1031 1028 1027
3 1033 1031 1032
3 1032 1031 950
3 1031 1027 950
3 1027 948 950
3 951 1032 950
3 1029 952 949
3 954 952 1029
3 1030 954 1029
3 1034 954 1030
3 1037 1036 1035
3 1035 1036 1033
3 1035 1033 1032
3 957 1035 1032
3 956 957 1032
3 956 1032 951
3 1039 958 1038
3 958 1034 1038
3 958 954 1034
3 1040 1039 1038
3 1037 1035 1041
3 1037 1041 1042
3 959 1041 957
3 957 1041 1035
3 1043 960 1039
3 1039 960 958
3 1039 1040 1044
3 1039 1044 1043
3 1042 1041 962
3 963 1042 962
3 1045 1042 963
3 962 1041 959
3 1043 964 960
3 966 964 1043
3 1044 966 1043
3 1046 966 1044
3 1049 1048 1047
3 1048 1045 1047
3 1045 968 1047
3 1045 963 968
3 1051 969 1050
3 969 1046 1050
3 969 966 1046
3 1053 1052 1051
3 1053 1051 1050
3 1054 1052 1053
3 1057 1056 1055
3 1059 1058 1055
3 1059 1055 1056
3 1058 1059 1049
3 1047 1058 1049
3 1060 1058 1047
3 970 1060 968
3 968 1060 1047
3 1051 971 969
3 971 1051 973
3 973 1051 1052
3 1062 1061 974
3 1062 974 973
3 1054 1062 973
3 1052 1054 973
3 1064 1063 1061
3 1064 1061 1062
3 1066 1065 1063
3 1066 1063 1064
3 1068 1067 1065
3 1068 1065 1066
3 1070 1069 1067
3 1070 1067 1068
3 1069 1070 1057
3 1055 1069 1057
3 1071 1069 1055
3 977 1071 976
3 1071 1058 976
3 1071 1055 1058
3 976 1058 978
3 978 1058 1060
3 978 1060 970
3 1061 979 974
3 979 1061 981
3 981 1061 1063
3 981 1063 983
3 983 1063 1065
3 983 1065 984
3 984 1065 1067
3 984 1067 985
3 985 1067 1069
3 985 1069 986
3 986 1069 1071
3 986 1071 977
3 1072 989 990
3 992 1072 990
3 1073 996 997
3 998 1074 997
3 997 1074 1073
3 989 1072 998
3 1072 1074 998
3 1072 1075 1074
3 1075 1072 992
3 1076 1075 992
3 999 1076 992
3 1077 1075 1076
3 1079 1076 1078
3 1076 1000 1078
3 1076 999 1000
3 1001 1078 1000
3 1080 1005 1006
3 1081 1080 1006
3 1081 1006 996
3 1082 1081 996
3 1073 1082 996
3 1082 1073 1074
3 1082 1074 1083
3 1083 1074 1075
3 1083 1075 1084
3 1084 1075 1077
3 1085 1079 1078
3 1085 1078 1001
3 1007 1085 1001
3 1086 1085 1007
3 1088 1086 1087
3 1086 1008 1087
3 1086 1007 1008
3 1010 1087 1008
3 1089 1012 1013
3 1090 1089 1013
3 1090 1013 1005
3 1091 1090 1005
3 1080 1091 1005
3 1091 1080 1081
3 1088 1087 1092
3 1088 1092 1093
3 1014 1094 1010
3 1094 1087 1010
3 1094 1092 1087
3 1016 1094 1014
3 1095 1017 1018
3 1096 1095 1018
3 1096 1018 1012
3 1097 1096 1012
3 1089 1097 1012
3 1097 1089 1090
3 1098 1093 1092
3 1098 1092 1094
3 1098 1094 1099
3 1094 1016 1099
3 1016 1100 1099
3 1016 1020 1100
3 1101 1022 1095
3 1095 1022 1017
3 1095 1096 1102
3 1095 1102 1101
3 1024 1100 1020
3 1024 1103 1100
3 1104 1026 1101
3 1101 1026 1022
3 1101 1102 1105
3 1101 1105 1104
3 1028 1103 1024
3 1028 1106 1103
3 1107 1030 1104
3 1104 1030 1026
3 1104 1105 1108
3 1104 1108 1107
3 1028 1031 1109
3 1110 1028 1109
3 1106 1028 1110
3 1033 1109 1031
3 1111 1034 1107
3 1107 1034 1030
3 1107 1108 1112
3 1107 1112 1111
3 1110 1109 1036
3 1037 1110 1036
3 1113 1110 1037
3 1036 1109 1033
3 1111 1038 1034
3 1040 1038 1111
3 1112 1040 1111
3 1114 1040 1112
3 1042 1113 1037
3 1042 1115 1113
3 1117 1044 1116
3 1044 1114 1116
3 1044 1040 1114
3 1118 1117 1116
3 1121 1120 1119
3 1123 1122 1119
3 1123 1119 1120
3 1123 1115 1122
3 1115 1045 1122
3 1115 1042 1045
3 1124 1046 1117
3 1117 1046 1044
3 1117 1118 1125
3 1126 1117 1125
3 1124 1117 1126
3 1127 1126 1125
3 1121 1119 1128
3 1121 1128 1129
3 1049 1128 1048
3 1128 1122 1048
3 1128 1119 1122
3 1048 1122 1045
3 1124 1050 1046
3 1050 1124 1053
3 1053 1124 1126
3 1131 1130 1054
3 1131 1054 1053
3 1127 1131 1053
3 1126 1127 1053
3 1133 1132 1130
3 1133 1130 1131
3 1135 1134 1132
3 1135 1132 1133
3 1137 1136 1134
3 1137 1134 1135
3 1139 1138 1136
3 1139 1136 1137
3 1056 1057 1138
3 1139 1056 1138
3 1140 1056 1139
3 1128 1059 1129
3 1059 1140 1129
3 1059 1056 1140
3 1059 1128 1049
3 1130 1062 1054
3 1062 1130 1064
3 1064 1130 1132
3 1064 1132 1066
3 1066 1132 1134
3 1066 1134 1068
3 1068 1134 1136
3 1068 1136 1070
3 1070 1136 1138
3 1070 1138 1057
3 1141 1077 1076
3 1079 1141 1076
3 1142 1081 1082
3 1083 1143 1082
3 1082 1143 1142
3 1084 1144 1083
3 1083 1144 1143
3 1077 1141 1084
3 1141 1144 1084
3 1141 1145 1144
3 1085 1146 1079
3 1146 1141 1079
3 1146 1145 1141
3 1086 1147 1085
3 1085 1147 1146
3 1088 1147 1086
3 1148 1090 1091
3 1081 1142 1091
3 1142 1148 1091
3 1142 1149 1148
3 1143 1151 1150
3 1149 1143 1150
3 1142 1143 1149
3 1151 1143 1144
3 1151 1144 1152
3 1152 1144 1145
3 1152 1145 1153
3 1155 1154 1153
3 1145 1155 1153
3 1146 1155 1145
3 1156 1146 1147
3 1155 1146 1156
3 1093 1156 1088
3 1088 1156 1147
3 1157 1096 1097
3 1090 1148 1097
3 1148 1157 1097
3 1148 1158 1157
3 1149 1160 1159
3 1158 1149 1159
3 1148 1149 1158
3 1160 1149 1150
3 1161 1154 1155
3 1161 1155 1156
3 1161 1156 1162
3 1164 1162 1163
3 1163 1162 1098
3 1162 1156 1098
3 1156 1093 1098
3 1099 1165 1098
3 1098 1165 1163
3 1100 1165 1099
3 1166 1102 1157
3 1157 1102 1096
3 1167 1157 1158
3 1166 1157 1167
3 1158 1159 1168
3 1158 1168 1167
3 1164 1163 1169
3 1164 1169 1170
3 1171 1163 1165
3 1169 1163 1171
3 1103 1171 1100
3 1100 1171 1165
3 1172 1105 1166
3 1166 1105 1102
3 1167 1174 1173
3 1172 1167 1173
3 1166 1167 1172
3 1174 1167 1168
3 1170 1169 1175
3 1170 1175 1176
3 1177 1169 1171
3 1175 1169 1177
3 1106 1177 1103
3 1103 1177 1171
3 1178 1108 1172
3 1172 1108 1105
3 1172 1173 1179
3 1172 1179 1178
3 1176 1175 1180
3 1176 1180 1181
3 1182 1175 1177
3 1180 1175 1182
3 1110 1182 1106
3 1106 1182 1177
3 1183 1112 1178
3 1178 1112 1108
3 1178 1179 1184
3 1178 1184 1183
3 1181 1180 1185
3 1181 1185 1186
3 1187 1180 1182
3 1185 1180 1187
3 1113 1187 1110
3 1110 1187 1182
3 1188 1114 1183
3 1183 1114 1112
3 1183 1184 1189
3 1183 1189 1188
3 1186 1185 1190
3 1186 1190 1191
3 1192 1185 1187
3 1190 1185 1192
3 1115 1192 1113
3 1113 1192 1187
3 1188 1116 1114
3 1194 1193 1118
3 1194 1118 1116
3 1189 1194 1116
3 1188 1189 1116
3 1196 1195 1193
3 1196 1193 1194
3 1197 1195 1196
3 1200 1199 1198
3 1198 1199 1191
3 1198 1191 1190
3 1121 1198 1190
3 1120 1121 1190
3 1120 1190 1123
3 1123 1190 1192
3 1123 1192 1115
3 1193 1125 1118
3 1125 1193 1127
3 1193 1201 1127
3 1193 1195 1201
3 1195 1197 1202
3 1203 1195 1202
3 1201 1195 1203
3 1205 1204 1203
3 1205 1203 1202
3 1206 1204 1205
3 1209 1208 1207
3 1207 1208 1200
3 1198 1207 1200
3 1210 1207 1198
3 1129 1210 1121
3 1121 1210 1198
3 1201 1131 1127
3 1131 1201 1133
3 1133 1201 1203
3 1133 1203 1135
3 1135 1203 1204
3 1206 1211 1204
3 1211 1135 1204
3 1211 1137 1135
3 1207 1139 1209
3 1139 1211 1209
3 1139 1137 1211
3 1139 1207 1140
3 1140 1207 1210
3 1140 1210 1129
3 1212 1150 1151
3 1152 1213 1151
3 1151 1213 1212
3 1153 1214 1152
3 1152 1214 1213
3 1154 1214 1153
3 1215 1159 1160
3 1150 1212 1160
3 1212 1215 1160
3 1212 1216 1215
3 1217 1212 1213
3 1216 1212 1217
3 1218 1213 1214
3 1217 1213 1218
3 1161 1219 1154
3 1219 1214 1154
3 1219 1218 1214
3 1162 1220 1161
3 1161 1220 1219
3 1164 1220 1162
3 1221 1168 1215
3 1215 1168 1159
3 1222 1215 1216
3 1221 1215 1222
3 1223 1216 1217
3 1222 1216 1223
3 1224 1217 1218
3 1223 1217 1224
3 1225 1218 1219
3 1224 1218 1225
3 1226 1219 1220
3 1225 1219 1226
3 1170 1226 1164
3 1164 1226 1220
3 1227 1173 1174
3 1168 1221 1174
3 1221 1227 1174
3 1221 1228 1227
3 1222 1230 1229
3 1228 1222 1229
3 1221 1222 1228
3 1230 1222 1223
3 1230 1223 1231
3 1231 1223 1224
3 1231 1224 1232
3 1234 1233 1232
3 1224 1234 1232
3 1225 1234 1224
3 1235 1225 1226
3 1234 1225 1235
3 1176 1235 1170
3 1170 1235 1226
3 1236 1179 1227
3 1227 1179 1173
3 1228 1238 1237
3 1236 1228 1237
3 1227 1228 1236
3 1238 1228 1229
3 1233 1234 1239
3 1233 1239 1240
3 1241 1234 1235
3 1239 1234 1241
3 1181 1241 1176
3 1176 1241 1235
3 1242 1184 1236
3 1236 1184 1179
3 1236 1237 1243
3 1244 1236 1243
3 1242 1236 1244
3 1245 1244 1243
3 1240 1239 1246
3 1240 1246 1247
3 1248 1239 1241
3 1246 1239 1248
3 1186 1248 1181
3 1181 1248 1241
3 1249 1189 1242
3 1242 1189 1184
3 1250 1242 1244
3 1249 1242 1250
3 1244 1245 1251
3 1252 1244 1251
3 1250 1244 1252
3 1254 1253 1252
3 1254 1252 1251
3 1256 1255 1253
3 1256 1253 1254
3 1255 1256 1247
3 1246 1255 1247
3 1257 1255 1246
3 1258 1246 1248
3 1257 1246 1258
3 1191 1258 1186
3 1186 1258 1248
3 1249 1194 1189
3 1194 1249 1196
3 1196 1249 1250
3 1196 1250 1197
3 1250 1259 1197
3 1250 1252 1259
3 1260 1252 1253
3 1259 1252 1260
3 1261 1253 1255
3 1260 1253 1261
3 1262 1255 1257
3 1261 1255 1262
3 1200 1262 1199
3 1262 1258 1199
3 1262 1257 1258
3 1199 1258 1191
3 1259 1202 1197
3 1202 1259 1205
3 1205 1259 1260
3 1205 1260 1206
3 1260 1263 1206
3 1260 1261 1263
3 1209 1263 1208
3 1263 1262 1208
3 1263 1261 1262
3 1208 1262 1200
3 1263 1211 1206
3 1211 1263 1209
3 1264 1229 1230
3 1231 1265 1230
3 1230 1265 1264
3 1232 1266 1231
3 1231 1266 1265
3 1233 1266 1232
3 1267 1237 1238
3 1229 1264 1238
3 1264 1267 1238
3 1264 1268 1267
3 1269 1264 1265
3 1268 1264 1269
3 1270 1265 1266
3 1269 1265 1270
3 1240 1270 1233
3 1233 1270 1266
3 1267 1243 1237
3 1243 1267 1245
3 1267 1271 1245
3 1267 1268 1271
3 1272 1268 1269
3 1271 1268 1272
3 1273 1269 1270
3 1272 1269 1273
3 1247 1273 1240
3 1240 1273 1270
3 1271 1251 1245
3 1251 1271 1254
3 1254 1271 1272
3 1254 1272 1256
3 1256 1272 1273
3 1256 1273 1247
