# Asteroid shape model (convexinv -> dual reconstruction)
v -1.27555463 -0.35361808 -0.21428571
v -1.20412606 -0.35361808 -0.28571429
v -1.20412606 -0.42504665 -0.21428571
v -1.20412606 -0.42504665 -0.07142857
v -1.27555463 -0.35361808 -0.07142857
v -1.20412606 -0.42504665 0.07142857
v -1.27555463 -0.35361808 0.07142857
v -1.20412606 -0.42504665 0.21428571
v -1.27555463 -0.35361808 0.21428571
v -1.20412606 -0.35361808 0.28571429
v -1.27555463 -0.21076094 -0.35714286
v -1.20412606 -0.21076094 -0.42857143
v -1.20412606 -0.28218951 -0.35714286
v -1.27555463 -0.21076094 -0.21428571
v -1.27555463 -0.21076094 -0.07142857
v -1.27555463 -0.21076094 0.07142857
v -1.27555463 -0.21076094 0.21428571
v -1.20412606 -0.21076094 0.28571429
v -1.27555463 -0.06790379 -0.35714286
v -1.20412606 -0.06790379 -0.42857143
v -1.27555463 -0.06790379 -0.21428571
v -1.27555463 -0.06790379 -0.07142857
v -1.27555463 -0.06790379 0.07142857
v -1.27555463 -0.06790379 0.21428571
v -1.20412606 -0.06790379 0.28571429
v -1.27555463 0.07495335 -0.35714286
v -1.20412606 0.07495335 -0.42857143
v -1.27555463 0.07495335 -0.21428571
v -1.27555463 0.07495335 -0.07142857
v -1.27555463 0.07495335 0.07142857
v -1.27555463 0.07495335 0.21428571
v -1.20412606 0.07495335 0.28571429
v -1.27555463 0.21781049 -0.35714286
v -1.20412606 0.21781049 -0.42857143
v -1.27555463 0.21781049 -0.21428571
v -1.27555463 0.21781049 -0.07142857
v -1.27555463 0.21781049 0.07142857
v -1.27555463 0.21781049 0.21428571
v -1.20412606 0.14638192 0.35714286
v -1.27555463 0.21781049 0.35714286
v -1.20412606 0.21781049 0.42857143
v -1.27555463 0.36066763 -0.35714286
v -1.20412606 0.36066763 -0.42857143
v -1.27555463 0.36066763 -0.21428571
v -1.27555463 0.36066763 -0.07142857
v -1.27555463 0.36066763 0.07142857
v -1.27555463 0.36066763 0.21428571
v -1.20412606 0.36066763 0.28571429
v -1.20412606 0.28923906 0.35714286
v -1.20412606 0.43209621 -0.35714286
v -1.20412606 0.43209621 -0.21428571
v -1.20412606 0.43209621 -0.07142857
v -1.20412606 0.43209621 0.07142857
v -1.20412606 0.43209621 0.21428571
v -1.13269749 -0.63933237 -0.21428571
v -1.06126892 -0.63933237 -0.28571429
v -1.06126892 -0.71076094 -0.21428571
v -1.06126892 -0.71076094 -0.07142857
v -1.13269749 -0.63933237 -0.07142857
v -1.06126892 -0.71076094 0.07142857
v -1.13269749 -0.63933237 0.07142857
v -1.06126892 -0.71076094 0.21428571
v -1.13269749 -0.63933237 0.21428571
v -1.06126892 -0.63933237 0.28571429
v -1.13269749 -0.49647522 -0.35714286
v -1.06126892 -0.49647522 -0.42857143
v -1.06126892 -0.56790379 -0.35714286
v -1.13269749 -0.49647522 -0.21428571
v -1.13269749 -0.49647522 -0.07142857
v -1.13269749 -0.49647522 0.07142857
v -1.13269749 -0.49647522 0.21428571
v -1.06126892 -0.56790379 0.35714286
v -1.13269749 -0.49647522 0.35714286
v -1.06126892 -0.56790379 0.50000000
v -1.13269749 -0.49647522 0.50000000
v -1.06126892 -0.49647522 0.57142857
v -1.13269749 -0.35361808 -0.50000000
v -1.06126892 -0.35361808 -0.57142857
v -1.06126892 -0.42504665 -0.50000000
v -1.13269749 -0.35361808 -0.35714286
v -1.13269749 -0.35361808 0.35714286
v -1.13269749 -0.35361808 0.50000000
v -1.06126892 -0.35361808 0.57142857
v -1.13269749 -0.21076094 -0.64285714
v -1.06126892 -0.21076094 -0.71428571
v -1.06126892 -0.28218951 -0.64285714
v -1.13269749 -0.21076094 -0.50000000
v -1.13269749 -0.21076094 0.35714286
v -1.13269749 -0.21076094 0.50000000
v -1.06126892 -0.28218951 0.64285714
v -1.13269749 -0.21076094 0.64285714
v -1.06126892 -0.21076094 0.71428571
v -1.13269749 -0.06790379 -0.64285714
v -1.06126892 -0.06790379 -0.71428571
v -1.13269749 -0.06790379 -0.50000000
v -1.13269749 -0.06790379 0.35714286
v -1.13269749 -0.06790379 0.50000000
v -1.06126892 -0.06790379 0.57142857
v -1.06126892 -0.13933237 0.64285714
v -1.13269749 0.07495335 -0.64285714
v -1.06126892 0.07495335 -0.71428571
v -1.13269749 0.07495335 -0.50000000
v -1.13269749 0.07495335 0.35714286
v -1.13269749 0.07495335 0.50000000
v -1.06126892 0.07495335 0.57142857
v -1.13269749 0.21781049 -0.64285714
v -1.06126892 0.21781049 -0.71428571
v -1.13269749 0.21781049 -0.50000000
v -1.13269749 0.21781049 0.50000000
v -1.06126892 0.21781049 0.57142857
v -1.13269749 0.36066763 -0.64285714
v -1.06126892 0.36066763 -0.71428571
v -1.13269749 0.36066763 -0.50000000
v -1.13269749 0.36066763 0.35714286
v -1.13269749 0.36066763 0.50000000
v -1.06126892 0.36066763 0.57142857
v -1.06126892 0.43209621 -0.64285714
v -1.13269749 0.50352478 -0.50000000
v -1.06126892 0.50352478 -0.57142857
v -1.13269749 0.50352478 -0.35714286
v -1.13269749 0.50352478 -0.21428571
v -1.13269749 0.50352478 -0.07142857
v -1.13269749 0.50352478 0.07142857
v -1.13269749 0.50352478 0.21428571
v -1.13269749 0.50352478 0.35714286
v -1.06126892 0.50352478 0.42857143
v -1.06126892 0.43209621 0.50000000
v -1.06126892 0.57495335 -0.50000000
v -1.13269749 0.64638192 -0.35714286
v -1.06126892 0.64638192 -0.42857143
v -1.13269749 0.64638192 -0.21428571
v -1.13269749 0.64638192 -0.07142857
v -1.13269749 0.64638192 0.07142857
v -1.13269749 0.64638192 0.21428571
v -1.13269749 0.64638192 0.35714286
v -1.06126892 0.64638192 0.42857143
v -1.06126892 0.71781049 -0.35714286
v -1.06126892 0.71781049 -0.21428571
v -1.06126892 0.71781049 -0.07142857
v -1.06126892 0.71781049 0.07142857
v -1.06126892 0.71781049 0.21428571
v -1.06126892 0.71781049 0.35714286
v -0.98984035 -0.78218951 -0.50000000
v -0.91841178 -0.78218951 -0.57142857
v -0.91841178 -0.85361808 -0.50000000
v -0.91841178 -0.85361808 -0.35714286
v -0.98984035 -0.78218951 -0.35714286
v -0.91841178 -0.85361808 -0.21428571
v -0.98984035 -0.78218951 -0.21428571
v -0.91841178 -0.85361808 -0.07142857
v -0.98984035 -0.78218951 -0.07142857
v -0.91841178 -0.85361808 0.07142857
v -0.98984035 -0.78218951 0.07142857
v -0.91841178 -0.85361808 0.21428571
v -0.98984035 -0.78218951 0.21428571
v -0.91841178 -0.85361808 0.35714286
v -0.98984035 -0.78218951 0.35714286
v -0.91841178 -0.78218951 0.42857143
v -0.98984035 -0.63933237 -0.50000000
v -0.91841178 -0.63933237 -0.57142857
v -0.98984035 -0.63933237 -0.35714286
v -0.98984035 -0.63933237 0.35714286
v -0.91841178 -0.71076094 0.50000000
v -0.98984035 -0.63933237 0.50000000
v -0.91841178 -0.63933237 0.57142857
v -0.98984035 -0.49647522 -0.64285714
v -0.91841178 -0.49647522 -0.71428571
v -0.91841178 -0.56790379 -0.64285714
v -0.98984035 -0.49647522 -0.50000000
v -0.91841178 -0.56790379 0.64285714
v -0.98984035 -0.49647522 0.64285714
v -0.91841178 -0.49647522 0.71428571
v -0.98984035 -0.35361808 -0.78571429
v -0.91841178 -0.35361808 -0.85714286
v -0.91841178 -0.42504665 -0.78571429
v -0.98984035 -0.35361808 -0.64285714
v -0.98984035 -0.35361808 0.64285714
v -0.91841178 -0.35361808 0.71428571
v -0.98984035 -0.21076094 -0.78571429
v -0.91841178 -0.21076094 -0.85714286
v -0.91841178 -0.28218951 0.78571429
v -0.98984035 -0.21076094 0.78571429
v -0.91841178 -0.21076094 0.85714286
v -0.98984035 -0.06790379 -0.78571429
v -0.91841178 -0.06790379 -0.85714286
v -0.98984035 -0.06790379 0.64285714
v -0.98984035 -0.06790379 0.78571429
v -0.91841178 -0.06790379 0.85714286
v -0.98984035 0.07495335 -0.78571429
v -0.91841178 0.07495335 -0.85714286
v -0.98984035 0.07495335 0.64285714
v -0.98984035 0.07495335 0.78571429
v -0.91841178 0.07495335 0.85714286
v -0.98984035 0.21781049 -0.78571429
v -0.91841178 0.21781049 -0.85714286
v -0.98984035 0.21781049 0.64285714
v -0.98984035 0.21781049 0.78571429
v -0.91841178 0.21781049 0.85714286
v -0.98984035 0.36066763 -0.78571429
v -0.91841178 0.36066763 -0.85714286
v -0.98984035 0.36066763 0.64285714
v -0.91841178 0.36066763 0.71428571
v -0.91841178 0.28923906 0.78571429
v -0.91841178 0.43209621 -0.78571429
v -0.98984035 0.50352478 -0.64285714
v -0.91841178 0.50352478 -0.71428571
v -0.98984035 0.50352478 0.50000000
v -0.98984035 0.50352478 0.64285714
v -0.91841178 0.50352478 0.71428571
v -0.98984035 0.64638192 -0.64285714
v -0.91841178 0.64638192 -0.71428571
v -0.98984035 0.64638192 -0.50000000
v -0.98984035 0.64638192 0.50000000
v -0.91841178 0.64638192 0.57142857
v -0.91841178 0.57495335 0.64285714
v -0.91841178 0.71781049 -0.64285714
v -0.98984035 0.78923906 -0.50000000
v -0.91841178 0.78923906 -0.57142857
v -0.98984035 0.78923906 -0.35714286
v -0.98984035 0.78923906 -0.21428571
v -0.98984035 0.78923906 -0.07142857
v -0.98984035 0.78923906 0.07142857
v -0.98984035 0.78923906 0.21428571
v -0.98984035 0.78923906 0.35714286
v -0.91841178 0.78923906 0.42857143
v -0.91841178 0.71781049 0.50000000
v -0.91841178 0.86066763 -0.50000000
v -0.91841178 0.86066763 -0.35714286
v -0.91841178 0.86066763 -0.21428571
v -0.91841178 0.86066763 -0.07142857
v -0.91841178 0.86066763 0.07142857
v -0.91841178 0.86066763 0.21428571
v -0.91841178 0.86066763 0.35714286
v -0.84698321 -0.92504665 -0.35714286
v -0.77555463 -0.92504665 -0.42857143
v -0.77555463 -0.99647522 -0.35714286
v -0.77555463 -0.99647522 -0.21428571
v -0.84698321 -0.92504665 -0.21428571
v -0.77555463 -0.99647522 -0.07142857
v -0.84698321 -0.92504665 -0.07142857
v -0.77555463 -0.99647522 0.07142857
v -0.84698321 -0.92504665 0.07142857
v -0.77555463 -0.99647522 0.21428571
v -0.84698321 -0.92504665 0.21428571
v -0.77555463 -0.99647522 0.35714286
v -0.84698321 -0.92504665 0.35714286
v -0.77555463 -0.92504665 0.42857143
v -0.77555463 -0.78218951 -0.57142857
v -0.77555463 -0.85361808 -0.50000000
v -0.77555463 -0.85361808 0.50000000
v -0.84698321 -0.78218951 0.50000000
v -0.77555463 -0.78218951 0.57142857
v -0.84698321 -0.63933237 -0.64285714
v -0.77555463 -0.63933237 -0.71428571
v -0.77555463 -0.71076094 -0.64285714
v -0.77555463 -0.71076094 0.64285714
v -0.84698321 -0.63933237 0.64285714
v -0.77555463 -0.63933237 0.71428571
v -0.84698321 -0.49647522 -0.78571429
v -0.77555463 -0.49647522 -0.85714286
v -0.77555463 -0.56790379 -0.78571429
v -0.77555463 -0.49647522 0.71428571
v -0.77555463 -0.35361808 -0.85714286
v -0.77555463 -0.35361808 0.71428571
v -0.77555463 -0.21076094 -0.85714286
v -0.77555463 -0.28218951 0.78571429
v -0.77555463 -0.21076094 0.85714286
v -0.77555463 -0.06790379 -0.85714286
v -0.77555463 -0.06790379 0.85714286
v -0.77555463 0.07495335 -0.85714286
v -0.77555463 0.07495335 0.85714286
v -0.77555463 0.21781049 -0.85714286
v -0.77555463 0.21781049 0.85714286
v -0.77555463 0.36066763 -0.85714286
v -0.84698321 0.36066763 0.78571429
v -0.77555463 0.36066763 0.85714286
v -0.84698321 0.50352478 -0.78571429
v -0.77555463 0.50352478 -0.85714286
v -0.84698321 0.50352478 0.78571429
v -0.77555463 0.50352478 0.85714286
v -0.77555463 0.57495335 -0.78571429
v -0.77555463 0.64638192 -0.71428571
v -0.84698321 0.64638192 0.64285714
v -0.77555463 0.64638192 0.71428571
v -0.77555463 0.57495335 0.78571429
v -0.84698321 0.78923906 -0.64285714
v -0.77555463 0.78923906 -0.71428571
v -0.84698321 0.78923906 0.50000000
v -0.77555463 0.78923906 0.57142857
v -0.77555463 0.71781049 0.64285714
v -0.77555463 0.86066763 -0.64285714
v -0.77555463 0.86066763 -0.50000000
v -0.84698321 0.93209621 -0.35714286
v -0.77555463 0.93209621 -0.42857143
v -0.84698321 0.93209621 -0.21428571
v -0.84698321 0.93209621 -0.07142857
v -0.84698321 0.93209621 0.07142857
v -0.84698321 0.93209621 0.21428571
v -0.77555463 0.93209621 0.28571429
v -0.77555463 0.86066763 0.35714286
v -0.77555463 0.86066763 0.50000000
v -0.77555463 1.00352478 -0.35714286
v -0.77555463 1.00352478 -0.21428571
v -0.77555463 1.00352478 -0.07142857
v -0.77555463 1.00352478 0.07142857
v -0.77555463 1.00352478 0.21428571
v -0.70412606 -1.06790379 -0.35714286
v -0.63269749 -1.06790379 -0.42857143
v -0.63269749 -1.13933237 -0.35714286
v -0.63269749 -1.13933237 -0.21428571
v -0.70412606 -1.06790379 -0.21428571
v -0.63269749 -1.13933237 -0.07142857
v -0.70412606 -1.06790379 -0.07142857
v -0.63269749 -1.13933237 0.07142857
v -0.70412606 -1.06790379 0.07142857
v -0.63269749 -1.13933237 0.21428571
v -0.70412606 -1.06790379 0.21428571
v -0.63269749 -1.13933237 0.35714286
v -0.70412606 -1.06790379 0.35714286
v -0.63269749 -1.06790379 0.42857143
v -0.70412606 -0.92504665 -0.50000000
v -0.63269749 -0.92504665 -0.57142857
v -0.63269749 -0.99647522 -0.50000000
v -0.63269749 -0.99647522 0.50000000
v -0.70412606 -0.92504665 0.50000000
v -0.63269749 -0.92504665 0.57142857
v -0.63269749 -0.78218951 -0.57142857
v -0.63269749 -0.85361808 0.64285714
v -0.70412606 -0.78218951 0.64285714
v -0.63269749 -0.78218951 0.71428571
v -0.63269749 -0.63933237 -0.71428571
v -0.63269749 -0.71076094 -0.64285714
v -0.63269749 -0.71076094 0.78571429
v -0.70412606 -0.63933237 0.78571429
v -0.63269749 -0.63933237 0.85714286
v -0.63269749 -0.49647522 -0.85714286
v -0.63269749 -0.56790379 -0.78571429
v -0.70412606 -0.49647522 0.78571429
v -0.63269749 -0.49647522 0.85714286
v -0.70412606 -0.35361808 -0.92857143
v -0.63269749 -0.35361808 -1.00000000
v -0.63269749 -0.42504665 -0.92857143
v -0.70412606 -0.35361808 0.78571429
v -0.63269749 -0.42504665 0.92857143
v -0.70412606 -0.35361808 0.92857143
v -0.63269749 -0.35361808 1.00000000
v -0.70412606 -0.21076094 -0.92857143
v -0.63269749 -0.21076094 -1.00000000
v -0.63269749 -0.28218951 0.92857143
v -0.63269749 -0.21076094 0.85714286
v -0.70412606 -0.06790379 -0.92857143
v -0.63269749 -0.06790379 -1.00000000
v -0.63269749 -0.06790379 0.85714286
v -0.70412606 0.07495335 -0.92857143
v -0.63269749 0.07495335 -1.00000000
v -0.63269749 0.07495335 0.85714286
v -0.70412606 0.21781049 -0.92857143
v -0.63269749 0.21781049 -1.00000000
v -0.63269749 0.14638192 0.92857143
v -0.70412606 0.21781049 0.92857143
v -0.63269749 0.21781049 1.00000000
v -0.70412606 0.36066763 -0.92857143
v -0.63269749 0.36066763 -1.00000000
v -0.63269749 0.28923906 0.92857143
v -0.63269749 0.36066763 0.85714286
v -0.70412606 0.50352478 -0.92857143
v -0.63269749 0.50352478 -1.00000000
v -0.63269749 0.50352478 0.85714286
v -0.63269749 0.57495335 -0.92857143
v -0.70412606 0.64638192 -0.78571429
v -0.63269749 0.64638192 -0.85714286
v -0.63269749 0.57495335 0.78571429
v -0.63269749 0.64638192 0.71428571
v -0.63269749 0.71781049 -0.78571429
v -0.63269749 0.78923906 -0.71428571
v -0.63269749 0.71781049 0.64285714
v -0.63269749 0.78923906 0.57142857
v -0.63269749 0.86066763 -0.64285714
v -0.70412606 0.93209621 -0.50000000
v -0.63269749 0.93209621 -0.57142857
v -0.63269749 0.86066763 0.35714286
v -0.63269749 0.93209621 0.28571429
v -0.63269749 0.86066763 0.50000000
v -0.63269749 1.00352478 -0.50000000
v -0.63269749 1.00352478 -0.35714286
v -0.70412606 1.07495335 -0.21428571
v -0.63269749 1.07495335 -0.28571429
v -0.70412606 1.07495335 -0.07142857
v -0.70412606 1.07495335 0.07142857
v -0.63269749 1.07495335 0.14285714
v -0.63269749 1.00352478 0.21428571
v -0.63269749 1.14638192 -0.21428571
v -0.63269749 1.14638192 -0.07142857
v -0.63269749 1.14638192 0.07142857
v -0.56126892 -1.06790379 -0.50000000
v -0.48984035 -1.06790379 -0.57142857
v -0.48984035 -1.13933237 -0.50000000
v -0.48984035 -1.13933237 -0.35714286
v -0.48984035 -1.13933237 -0.21428571
v -0.48984035 -1.13933237 -0.07142857
v -0.48984035 -1.13933237 0.07142857
v -0.48984035 -1.13933237 0.21428571
v -0.48984035 -1.13933237 0.35714286
v -0.48984035 -1.06790379 0.42857143
v -0.56126892 -0.92504665 -0.64285714
v -0.48984035 -0.92504665 -0.71428571
v -0.48984035 -0.99647522 -0.64285714
v -0.48984035 -0.99647522 0.50000000
v -0.48984035 -0.99647522 0.64285714
v -0.56126892 -0.92504665 0.64285714
v -0.48984035 -0.92504665 0.71428571
v -0.56126892 -0.78218951 -0.78571429
v -0.48984035 -0.78218951 -0.85714286
v -0.48984035 -0.85361808 -0.78571429
v -0.56126892 -0.78218951 -0.64285714
v -0.48984035 -0.85361808 0.78571429
v -0.56126892 -0.78218951 0.78571429
v -0.48984035 -0.78218951 0.85714286
v -0.56126892 -0.63933237 -0.78571429
v -0.48984035 -0.63933237 -0.85714286
v -0.48984035 -0.63933237 0.85714286
v -0.56126892 -0.49647522 -0.92857143
v -0.48984035 -0.49647522 -1.00000000
v -0.48984035 -0.56790379 -0.92857143
v -0.48984035 -0.56790379 0.92857143
v -0.56126892 -0.49647522 0.92857143
v -0.48984035 -0.49647522 1.00000000
v -0.48984035 -0.35361808 -1.00000000
v -0.48984035 -0.35361808 1.00000000
v -0.48984035 -0.21076094 -1.00000000
v -0.56126892 -0.21076094 0.92857143
v -0.48984035 -0.21076094 1.00000000
v -0.48984035 -0.06790379 -1.00000000
v -0.56126892 -0.06790379 0.92857143
v -0.48984035 -0.06790379 1.00000000
v -0.48984035 0.07495335 -1.00000000
v -0.56126892 0.07495335 0.92857143
v -0.48984035 0.07495335 1.00000000
v -0.48984035 0.21781049 -1.00000000
v -0.48984035 0.21781049 1.00000000
v -0.48984035 0.36066763 -1.00000000
v -0.48984035 0.28923906 0.92857143
v -0.48984035 0.36066763 0.85714286
v -0.48984035 0.50352478 -1.00000000
v -0.48984035 0.50352478 0.85714286
v -0.56126892 0.64638192 -0.92857143
v -0.48984035 0.64638192 -1.00000000
v -0.48984035 0.57495335 0.78571429
v -0.48984035 0.64638192 0.71428571
v -0.48984035 0.71781049 -0.92857143
v -0.56126892 0.78923906 -0.78571429
v -0.48984035 0.78923906 -0.85714286
v -0.56126892 0.78923906 0.64285714
v -0.48984035 0.78923906 0.71428571
v -0.48984035 0.86066763 -0.78571429
v -0.56126892 0.93209621 -0.64285714
v -0.48984035 0.93209621 -0.71428571
v -0.56126892 0.93209621 0.35714286
v -0.56126892 0.93209621 0.50000000
v -0.48984035 0.93209621 0.57142857
v -0.48984035 0.86066763 0.64285714
v -0.48984035 1.00352478 -0.64285714
v -0.48984035 1.00352478 -0.50000000
v -0.56126892 1.07495335 -0.35714286
v -0.48984035 1.07495335 -0.42857143
v -0.56126892 1.07495335 0.21428571
v -0.48984035 1.07495335 0.28571429
v -0.48984035 1.00352478 0.35714286
v -0.48984035 1.00352478 0.50000000
v -0.48984035 1.14638192 -0.35714286
v -0.48984035 1.14638192 -0.21428571
v -0.48984035 1.14638192 -0.07142857
v -0.48984035 1.14638192 0.07142857
v -0.48984035 1.14638192 0.21428571
v -0.41841178 -1.21076094 -0.07142857
v -0.34698321 -1.21076094 -0.14285714
v -0.34698321 -1.28218951 -0.07142857
v -0.34698321 -1.28218951 0.07142857
v -0.41841178 -1.21076094 0.07142857
v -0.34698321 -1.21076094 0.14285714
v -0.34698321 -1.06790379 -0.57142857
v -0.34698321 -1.13933237 -0.50000000
v -0.34698321 -1.13933237 -0.35714286
v -0.34698321 -1.13933237 -0.21428571
v -0.34698321 -1.13933237 0.21428571
v -0.34698321 -1.13933237 0.35714286
v -0.34698321 -1.13933237 0.50000000
v -0.41841178 -1.06790379 0.50000000
v -0.34698321 -1.06790379 0.57142857
v -0.34698321 -0.92504665 -0.71428571
v -0.34698321 -0.99647522 -0.64285714
v -0.34698321 -0.99647522 0.64285714
v -0.34698321 -0.92504665 0.71428571
v -0.34698321 -0.78218951 -0.85714286
v -0.34698321 -0.85361808 -0.78571429
v -0.34698321 -0.85361808 0.78571429
v -0.34698321 -0.78218951 0.85714286
v -0.41841178 -0.63933237 -0.92857143
v -0.34698321 -0.63933237 -1.00000000
v -0.34698321 -0.71076094 -0.92857143
v -0.34698321 -0.71076094 0.92857143
v -0.41841178 -0.63933237 0.92857143
v -0.34698321 -0.63933237 1.00000000
v -0.34698321 -0.49647522 -1.00000000
v -0.34698321 -0.49647522 1.00000000
v -0.34698321 -0.35361808 -1.00000000
v -0.34698321 -0.35361808 1.00000000
v -0.34698321 -0.21076094 -1.00000000
v -0.34698321 -0.21076094 1.00000000
v -0.34698321 -0.06790379 -1.00000000
v -0.34698321 -0.06790379 1.00000000
v -0.34698321 0.07495335 -1.00000000
v -0.34698321 0.07495335 1.00000000
v -0.34698321 0.21781049 -1.00000000
v -0.34698321 0.21781049 1.00000000
v -0.34698321 0.36066763 -1.00000000
v -0.41841178 0.36066763 0.92857143
v -0.34698321 0.36066763 1.00000000
v -0.34698321 0.50352478 -1.00000000
v -0.41841178 0.50352478 0.92857143
v -0.34698321 0.50352478 1.00000000
v -0.34698321 0.64638192 -1.00000000
v -0.41841178 0.64638192 0.78571429
v -0.34698321 0.64638192 0.85714286
v -0.34698321 0.57495335 0.92857143
v -0.34698321 0.71781049 -0.92857143
v -0.34698321 0.78923906 -0.85714286
v -0.41841178 0.78923906 0.78571429
v -0.34698321 0.78923906 0.85714286
v -0.41841178 0.93209621 -0.78571429
v -0.34698321 0.93209621 -0.85714286
v -0.34698321 0.86066763 0.64285714
v -0.34698321 0.93209621 0.57142857
v -0.34698321 0.86066763 0.78571429
v -0.34698321 1.00352478 -0.78571429
v -0.34698321 1.00352478 -0.64285714
v -0.41841178 1.07495335 -0.50000000
v -0.34698321 1.07495335 -0.57142857
v -0.34698321 1.00352478 0.35714286
v -0.34698321 1.07495335 0.28571429
v -0.34698321 1.00352478 0.50000000
v -0.34698321 1.14638192 -0.50000000
v -0.41841178 1.21781049 -0.35714286
v -0.34698321 1.21781049 -0.42857143
v -0.41841178 1.21781049 -0.21428571
v -0.41841178 1.21781049 -0.07142857
v -0.41841178 1.21781049 0.07142857
v -0.41841178 1.21781049 0.21428571
v -0.34698321 1.21781049 0.28571429
v -0.34698321 1.28923906 -0.35714286
v -0.34698321 1.28923906 -0.21428571
v -0.34698321 1.28923906 -0.07142857
v -0.34698321 1.28923906 0.07142857
v -0.34698321 1.28923906 0.21428571
v -0.27555463 -1.21076094 -0.21428571
v -0.20412606 -1.21076094 -0.28571429
v -0.20412606 -1.28218951 -0.21428571
v -0.20412606 -1.28218951 -0.07142857
v -0.20412606 -1.28218951 0.07142857
v -0.20412606 -1.28218951 0.21428571
v -0.27555463 -1.21076094 0.21428571
v -0.20412606 -1.21076094 0.28571429
v -0.20412606 -1.06790379 -0.57142857
v -0.20412606 -1.13933237 -0.50000000
v -0.20412606 -1.13933237 -0.35714286
v -0.20412606 -1.13933237 0.35714286
v -0.20412606 -1.13933237 0.50000000
v -0.20412606 -1.06790379 0.57142857
v -0.27555463 -0.92504665 -0.78571429
v -0.20412606 -0.92504665 -0.85714286
v -0.20412606 -0.99647522 -0.78571429
v -0.20412606 -0.99647522 -0.64285714
v -0.20412606 -0.99647522 0.64285714
v -0.20412606 -0.99647522 0.78571429
v -0.27555463 -0.92504665 0.78571429
v -0.20412606 -0.92504665 0.85714286
v -0.20412606 -0.78218951 -0.85714286
v -0.20412606 -0.78218951 0.85714286
v -0.20412606 -0.63933237 -1.00000000
v -0.20412606 -0.71076094 -0.92857143
v -0.20412606 -0.71076094 0.92857143
v -0.20412606 -0.63933237 1.00000000
v -0.20412606 -0.49647522 -1.00000000
v -0.20412606 -0.49647522 1.00000000
v -0.20412606 -0.35361808 -1.00000000
v -0.20412606 -0.35361808 1.00000000
v -0.20412606 -0.21076094 -1.00000000
v -0.20412606 -0.21076094 1.00000000
v -0.20412606 -0.06790379 -1.00000000
v -0.20412606 -0.06790379 1.00000000
v -0.20412606 0.07495335 -1.00000000
v -0.20412606 0.07495335 1.00000000
v -0.20412606 0.21781049 -1.00000000
v -0.20412606 0.21781049 1.00000000
v -0.20412606 0.36066763 -1.00000000
v -0.20412606 0.36066763 1.00000000
v -0.20412606 0.50352478 -1.00000000
v -0.20412606 0.50352478 1.00000000
v -0.20412606 0.64638192 -1.00000000
v -0.20412606 0.57495335 0.92857143
v -0.20412606 0.64638192 0.85714286
v -0.20412606 0.71781049 -0.92857143
v -0.20412606 0.78923906 -0.85714286
v -0.20412606 0.78923906 0.85714286
v -0.20412606 0.93209621 -0.85714286
v -0.27555463 0.93209621 0.64285714
v -0.20412606 0.93209621 0.71428571
v -0.20412606 0.86066763 0.78571429
v -0.20412606 1.00352478 -0.78571429
v -0.27555463 1.07495335 -0.64285714
v -0.20412606 1.07495335 -0.71428571
v -0.20412606 1.00352478 0.35714286
v -0.20412606 1.07495335 0.28571429
v -0.20412606 1.00352478 0.50000000
v -0.20412606 1.00352478 0.64285714
v -0.20412606 1.14638192 -0.64285714
v -0.20412606 1.14638192 -0.50000000
v -0.20412606 1.21781049 -0.42857143
v -0.20412606 1.21781049 0.28571429
v -0.20412606 1.28923906 -0.35714286
v -0.20412606 1.28923906 -0.21428571
v -0.20412606 1.28923906 -0.07142857
v -0.20412606 1.28923906 0.07142857
v -0.20412606 1.28923906 0.21428571
v -0.13269749 -1.21076094 -0.35714286
v -0.06126892 -1.21076094 -0.42857143
v -0.06126892 -1.28218951 -0.35714286
v -0.06126892 -1.28218951 -0.21428571
v -0.06126892 -1.28218951 -0.07142857
v -0.06126892 -1.28218951 0.07142857
v -0.06126892 -1.28218951 0.21428571
v -0.06126892 -1.21076094 0.28571429
v -0.13269749 -1.06790379 -0.64285714
v -0.06126892 -1.06790379 -0.71428571
v -0.06126892 -1.13933237 -0.64285714
v -0.06126892 -1.13933237 -0.50000000
v -0.06126892 -1.13933237 0.35714286
v -0.06126892 -1.13933237 0.50000000
v -0.06126892 -1.13933237 0.64285714
v -0.13269749 -1.06790379 0.64285714
v -0.06126892 -1.06790379 0.71428571
v -0.06126892 -0.92504665 -0.85714286
v -0.06126892 -0.99647522 -0.78571429
v -0.06126892 -0.99647522 0.78571429
v -0.06126892 -0.92504665 0.85714286
v -0.06126892 -0.78218951 -0.85714286
v -0.06126892 -0.78218951 0.85714286
v -0.06126892 -0.63933237 -1.00000000
v -0.06126892 -0.71076094 -0.92857143
v -0.06126892 -0.71076094 0.92857143
v -0.06126892 -0.63933237 1.00000000
v -0.06126892 -0.49647522 -1.00000000
v -0.06126892 -0.49647522 1.00000000
v -0.06126892 -0.35361808 -1.00000000
v -0.06126892 -0.35361808 1.00000000
v -0.06126892 -0.21076094 -1.00000000
v -0.06126892 -0.21076094 1.00000000
v -0.06126892 -0.06790379 -1.00000000
v -0.06126892 -0.06790379 1.00000000
v -0.06126892 0.07495335 -1.00000000
v -0.06126892 0.07495335 1.00000000
v -0.06126892 0.21781049 -1.00000000
v -0.06126892 0.21781049 1.00000000
v -0.06126892 0.36066763 -1.00000000
v -0.06126892 0.36066763 1.00000000
v -0.06126892 0.50352478 -1.00000000
v -0.06126892 0.50352478 1.00000000
v -0.06126892 0.64638192 -1.00000000
v -0.13269749 0.64638192 0.92857143
v -0.06126892 0.64638192 1.00000000
v -0.13269749 0.78923906 -0.92857143
v -0.06126892 0.78923906 -1.00000000
v -0.06126892 0.71781049 0.92857143
v -0.06126892 0.78923906 0.85714286
v -0.06126892 0.86066763 -0.92857143
v -0.06126892 0.93209621 -0.85714286
v -0.06126892 0.86066763 0.78571429
v -0.06126892 0.93209621 0.71428571
v -0.06126892 1.00352478 -0.78571429
v -0.06126892 1.07495335 -0.71428571
v -0.06126892 1.00352478 0.35714286
v -0.06126892 1.07495335 0.28571429
v -0.06126892 1.00352478 0.50000000
v -0.06126892 1.00352478 0.64285714
v -0.06126892 1.14638192 -0.64285714
v -0.06126892 1.14638192 -0.50000000
v -0.13269749 1.21781049 -0.35714286
v -0.06126892 1.14638192 -0.35714286
v -0.06126892 1.21781049 -0.28571429
v -0.06126892 1.21781049 0.28571429
v -0.06126892 1.28923906 -0.21428571
v -0.06126892 1.28923906 -0.07142857
v -0.06126892 1.28923906 0.07142857
v -0.06126892 1.28923906 0.21428571
v 0.08158822 -1.21076094 -0.42857143
v 0.08158822 -1.28218951 -0.35714286
v 0.08158822 -1.28218951 -0.21428571
v 0.08158822 -1.28218951 -0.07142857
v 0.08158822 -1.28218951 0.07142857
v 0.08158822 -1.28218951 0.21428571
v 0.08158822 -1.21076094 0.28571429
v 0.08158822 -1.06790379 -0.71428571
v 0.08158822 -1.13933237 -0.64285714
v 0.08158822 -1.13933237 -0.50000000
v 0.08158822 -1.13933237 0.35714286
v 0.08158822 -1.13933237 0.50000000
v 0.08158822 -1.13933237 0.64285714
v 0.08158822 -1.06790379 0.71428571
v 0.08158822 -0.92504665 -0.85714286
v 0.08158822 -0.99647522 -0.78571429
v 0.08158822 -0.99647522 0.78571429
v 0.08158822 -0.92504665 0.85714286
v 0.08158822 -0.78218951 -0.85714286
v 0.08158822 -0.78218951 0.85714286
v 0.08158822 -0.63933237 -1.00000000
v 0.08158822 -0.71076094 -0.92857143
v 0.01015965 -0.63933237 0.92857143
v 0.08158822 -0.63933237 0.85714286
v 0.08158822 -0.49647522 -1.00000000
v 0.08158822 -0.56790379 0.92857143
v 0.08158822 -0.49647522 1.00000000
v 0.08158822 -0.35361808 -1.00000000
v 0.08158822 -0.35361808 1.00000000
v 0.08158822 -0.21076094 -1.00000000
v 0.08158822 -0.21076094 1.00000000
v 0.08158822 -0.06790379 -1.00000000
v 0.08158822 -0.06790379 1.00000000
v 0.08158822 0.07495335 -1.00000000
v 0.08158822 0.07495335 1.00000000
v 0.08158822 0.21781049 -1.00000000
v 0.08158822 0.21781049 1.00000000
v 0.08158822 0.36066763 -1.00000000
v 0.08158822 0.36066763 1.00000000
v 0.08158822 0.50352478 -1.00000000
v 0.08158822 0.50352478 1.00000000
v 0.08158822 0.64638192 -1.00000000
v 0.08158822 0.64638192 1.00000000
v 0.08158822 0.78923906 -1.00000000
v 0.08158822 0.71781049 0.92857143
v 0.08158822 0.78923906 0.85714286
v 0.08158822 0.86066763 -0.92857143
v 0.08158822 0.93209621 -0.85714286
v 0.01015965 0.93209621 0.64285714
v 0.08158822 0.86066763 0.64285714
v 0.08158822 0.93209621 0.57142857
v 0.08158822 0.86066763 0.78571429
v 0.08158822 1.00352478 -0.78571429
v 0.08158822 1.07495335 -0.71428571
v 0.08158822 1.00352478 0.35714286
v 0.08158822 1.07495335 0.28571429
v 0.08158822 1.00352478 0.50000000
v 0.08158822 1.14638192 -0.64285714
v 0.08158822 1.14638192 -0.50000000
v 0.08158822 1.14638192 -0.35714286
v 0.08158822 1.21781049 -0.28571429
v 0.08158822 1.21781049 0.28571429
v 0.08158822 1.28923906 -0.21428571
v 0.08158822 1.28923906 -0.07142857
v 0.08158822 1.28923906 0.07142857
v 0.08158822 1.28923906 0.21428571
v 0.15301679 -1.21076094 -0.35714286
v 0.22444537 -1.21076094 -0.28571429
v 0.22444537 -1.28218951 -0.21428571
v 0.22444537 -1.28218951 -0.07142857
v 0.22444537 -1.28218951 0.07142857
v 0.15301679 -1.21076094 0.21428571
v 0.22444537 -1.21076094 0.14285714
v 0.22444537 -1.06790379 -0.71428571
v 0.22444537 -1.13933237 -0.64285714
v 0.22444537 -1.13933237 -0.50000000
v 0.22444537 -1.13933237 -0.35714286
v 0.22444537 -1.13933237 0.21428571
v 0.22444537 -1.13933237 0.35714286
v 0.22444537 -1.13933237 0.50000000
v 0.22444537 -1.13933237 0.64285714
v 0.22444537 -1.06790379 0.71428571
v 0.22444537 -0.92504665 -0.85714286
v 0.22444537 -0.99647522 -0.78571429
v 0.22444537 -0.99647522 0.78571429
v 0.22444537 -0.92504665 0.85714286
v 0.22444537 -0.78218951 -0.85714286
v 0.22444537 -0.78218951 0.85714286
v 0.22444537 -0.63933237 -1.00000000
v 0.22444537 -0.71076094 -0.92857143
v 0.22444537 -0.63933237 0.85714286
v 0.22444537 -0.49647522 -1.00000000
v 0.22444537 -0.56790379 0.92857143
v 0.22444537 -0.49647522 1.00000000
v 0.22444537 -0.35361808 -1.00000000
v 0.22444537 -0.35361808 1.00000000
v 0.22444537 -0.21076094 -1.00000000
v 0.22444537 -0.21076094 1.00000000
v 0.22444537 -0.06790379 -1.00000000
v 0.22444537 -0.06790379 1.00000000
v 0.22444537 0.07495335 -1.00000000
v 0.22444537 0.07495335 1.00000000
v 0.22444537 0.21781049 -1.00000000
v 0.22444537 0.21781049 1.00000000
v 0.22444537 0.36066763 -1.00000000
v 0.22444537 0.36066763 1.00000000
v 0.22444537 0.50352478 -1.00000000
v 0.22444537 0.50352478 1.00000000
v 0.22444537 0.64638192 -1.00000000
v 0.22444537 0.64638192 1.00000000
v 0.22444537 0.78923906 -1.00000000
v 0.22444537 0.71781049 0.92857143
v 0.22444537 0.78923906 0.85714286
v 0.22444537 0.86066763 -0.92857143
v 0.22444537 0.93209621 -0.85714286
v 0.22444537 0.86066763 0.64285714
v 0.22444537 0.93209621 0.57142857
v 0.22444537 0.86066763 0.78571429
v 0.22444537 1.00352478 -0.78571429
v 0.22444537 1.07495335 -0.71428571
v 0.22444537 1.00352478 0.35714286
v 0.22444537 1.07495335 0.28571429
v 0.22444537 1.00352478 0.50000000
v 0.22444537 1.14638192 -0.64285714
v 0.22444537 1.14638192 -0.50000000
v 0.22444537 1.14638192 -0.35714286
v 0.22444537 1.21781049 -0.28571429
v 0.15301679 1.21781049 0.21428571
v 0.22444537 1.14638192 0.21428571
v 0.22444537 1.21781049 0.14285714
v 0.22444537 1.28923906 -0.21428571
v 0.22444537 1.28923906 -0.07142857
v 0.22444537 1.28923906 0.07142857
v 0.29587394 -1.21076094 -0.21428571
v 0.29587394 -1.21076094 -0.07142857
v 0.36730251 -1.21076094 0.00000000
v 0.36730251 -1.28218951 0.07142857
v 0.36730251 -1.21076094 0.14285714
v 0.29587394 -1.06790379 -0.64285714
v 0.36730251 -1.06790379 -0.57142857
v 0.36730251 -1.13933237 -0.50000000
v 0.36730251 -1.13933237 -0.35714286
v 0.36730251 -1.13933237 -0.21428571
v 0.36730251 -1.13933237 -0.07142857
v 0.36730251 -1.13933237 0.21428571
v 0.36730251 -1.13933237 0.35714286
v 0.36730251 -1.13933237 0.50000000
v 0.29587394 -1.06790379 0.64285714
v 0.36730251 -1.06790379 0.57142857
v 0.36730251 -0.92504665 -0.85714286
v 0.36730251 -0.99647522 -0.78571429
v 0.36730251 -0.99647522 -0.64285714
v 0.36730251 -0.99647522 0.64285714
v 0.29587394 -0.92504665 0.78571429
v 0.36730251 -0.92504665 0.71428571
v 0.36730251 -0.78218951 -0.85714286
v 0.36730251 -0.85361808 0.78571429
v 0.36730251 -0.78218951 0.85714286
v 0.36730251 -0.63933237 -1.00000000
v 0.36730251 -0.71076094 -0.92857143
v 0.36730251 -0.63933237 0.85714286
v 0.36730251 -0.49647522 -1.00000000
v 0.36730251 -0.56790379 0.92857143
v 0.36730251 -0.49647522 1.00000000
v 0.36730251 -0.35361808 -1.00000000
v 0.36730251 -0.35361808 1.00000000
v 0.36730251 -0.21076094 -1.00000000
v 0.36730251 -0.21076094 1.00000000
v 0.36730251 -0.06790379 -1.00000000
v 0.36730251 -0.06790379 1.00000000
v 0.36730251 0.07495335 -1.00000000
v 0.36730251 0.07495335 1.00000000
v 0.36730251 0.21781049 -1.00000000
v 0.36730251 0.21781049 1.00000000
v 0.36730251 0.36066763 -1.00000000
v 0.36730251 0.36066763 1.00000000
v 0.36730251 0.50352478 -1.00000000
v 0.36730251 0.50352478 1.00000000
v 0.36730251 0.64638192 -1.00000000
v 0.36730251 0.64638192 1.00000000
v 0.36730251 0.78923906 -1.00000000
v 0.36730251 0.71781049 0.92857143
v 0.36730251 0.78923906 0.85714286
v 0.36730251 0.86066763 -0.92857143
v 0.36730251 0.93209621 -0.85714286
v 0.29587394 0.93209621 0.50000000
v 0.36730251 0.86066763 0.50000000
v 0.36730251 0.93209621 0.42857143
v 0.36730251 0.86066763 0.64285714
v 0.36730251 0.86066763 0.78571429
v 0.36730251 1.00352478 -0.78571429
v 0.29587394 1.07495335 -0.64285714
v 0.36730251 1.00352478 -0.64285714
v 0.36730251 1.07495335 -0.57142857
v 0.36730251 1.00352478 0.35714286
v 0.36730251 1.07495335 0.28571429
v 0.36730251 1.14638192 -0.50000000
v 0.36730251 1.14638192 -0.35714286
v 0.29587394 1.21781049 -0.21428571
v 0.36730251 1.14638192 -0.21428571
v 0.29587394 1.21781049 -0.07142857
v 0.36730251 1.14638192 -0.07142857
v 0.29587394 1.21781049 0.07142857
v 0.36730251 1.14638192 0.07142857
v 0.36730251 1.14638192 0.21428571
v 0.43873108 -1.21076094 0.07142857
v 0.43873108 -1.06790379 -0.50000000
v 0.51015965 -1.06790379 -0.42857143
v 0.51015965 -1.13933237 -0.35714286
v 0.51015965 -1.13933237 -0.21428571
v 0.51015965 -1.13933237 -0.07142857
v 0.51015965 -1.13933237 0.07142857
v 0.51015965 -1.13933237 0.21428571
v 0.51015965 -1.13933237 0.35714286
v 0.51015965 -1.13933237 0.50000000
v 0.51015965 -1.06790379 0.57142857
v 0.43873108 -0.92504665 -0.78571429
v 0.43873108 -0.92504665 -0.64285714
v 0.51015965 -0.92504665 -0.57142857
v 0.51015965 -0.99647522 -0.50000000
v 0.51015965 -0.99647522 0.64285714
v 0.51015965 -0.92504665 0.71428571
v 0.51015965 -0.78218951 -0.85714286
v 0.51015965 -0.85361808 -0.78571429
v 0.51015965 -0.85361808 -0.64285714
v 0.43873108 -0.78218951 0.78571429
v 0.51015965 -0.78218951 0.71428571
v 0.43873108 -0.63933237 -0.92857143
v 0.51015965 -0.63933237 -0.85714286
v 0.51015965 -0.71076094 0.78571429
v 0.51015965 -0.63933237 0.85714286
v 0.51015965 -0.49647522 -1.00000000
v 0.51015965 -0.56790379 -0.92857143
v 0.51015965 -0.56790379 0.92857143
v 0.51015965 -0.49647522 1.00000000
v 0.51015965 -0.35361808 -1.00000000
v 0.51015965 -0.35361808 1.00000000
v 0.51015965 -0.21076094 -1.00000000
v 0.51015965 -0.21076094 1.00000000
v 0.51015965 -0.06790379 -1.00000000
v 0.51015965 -0.06790379 1.00000000
v 0.51015965 0.07495335 -1.00000000
v 0.51015965 0.07495335 1.00000000
v 0.51015965 0.21781049 -1.00000000
v 0.51015965 0.21781049 1.00000000
v 0.51015965 0.36066763 -1.00000000
v 0.51015965 0.36066763 1.00000000
v 0.51015965 0.50352478 -1.00000000
v 0.51015965 0.50352478 1.00000000
v 0.51015965 0.64638192 -1.00000000
v 0.43873108 0.64638192 0.92857143
v 0.51015965 0.57495335 0.92857143
v 0.51015965 0.64638192 0.85714286
v 0.51015965 0.71781049 -0.92857143
v 0.43873108 0.78923906 -0.92857143
v 0.51015965 0.78923906 -0.85714286
v 0.43873108 0.78923906 0.78571429
v 0.51015965 0.71781049 0.78571429
v 0.51015965 0.78923906 0.71428571
v 0.43873108 0.93209621 -0.78571429
v 0.51015965 0.86066763 -0.78571429
v 0.51015965 0.93209621 -0.71428571
v 0.51015965 0.86066763 0.50000000
v 0.51015965 0.93209621 0.42857143
v 0.51015965 0.86066763 0.64285714
v 0.51015965 1.00352478 -0.64285714
v 0.51015965 1.07495335 -0.57142857
v 0.43873108 1.07495335 0.35714286
v 0.51015965 1.07495335 0.42857143
v 0.51015965 1.14638192 -0.50000000
v 0.51015965 1.14638192 -0.35714286
v 0.51015965 1.14638192 -0.21428571
v 0.51015965 1.14638192 -0.07142857
v 0.51015965 1.14638192 0.07142857
v 0.51015965 1.14638192 0.21428571
v 0.51015965 1.14638192 0.35714286
v 0.58158822 -1.06790379 -0.35714286
v 0.58158822 -1.06790379 -0.21428571
v 0.58158822 -1.06790379 -0.07142857
v 0.58158822 -1.06790379 0.07142857
v 0.58158822 -1.06790379 0.21428571
v 0.58158822 -1.06790379 0.35714286
v 0.58158822 -1.06790379 0.50000000
v 0.65301679 -0.92504665 -0.57142857
v 0.65301679 -0.99647522 -0.50000000
v 0.65301679 -0.99647522 -0.35714286
v 0.65301679 -0.99647522 -0.21428571
v 0.65301679 -0.99647522 -0.07142857
v 0.65301679 -0.99647522 0.07142857
v 0.65301679 -0.99647522 0.21428571
v 0.65301679 -0.99647522 0.35714286
v 0.65301679 -0.99647522 0.50000000
v 0.58158822 -0.92504665 0.64285714
v 0.65301679 -0.92504665 0.57142857
v 0.58158822 -0.78218951 -0.78571429
v 0.65301679 -0.78218951 -0.71428571
v 0.65301679 -0.85361808 -0.64285714
v 0.65301679 -0.85361808 0.64285714
v 0.65301679 -0.78218951 0.71428571
v 0.65301679 -0.63933237 -0.85714286
v 0.65301679 -0.71076094 -0.78571429
v 0.65301679 -0.71076094 0.78571429
v 0.65301679 -0.63933237 0.85714286
v 0.58158822 -0.49647522 -0.92857143
v 0.65301679 -0.49647522 -0.85714286
v 0.58158822 -0.49647522 0.92857143
v 0.65301679 -0.49647522 0.85714286
v 0.65301679 -0.35361808 -1.00000000
v 0.65301679 -0.42504665 -0.92857143
v 0.65301679 -0.42504665 0.92857143
v 0.65301679 -0.35361808 1.00000000
v 0.65301679 -0.21076094 -1.00000000
v 0.65301679 -0.21076094 1.00000000
v 0.65301679 -0.06790379 -1.00000000
v 0.65301679 -0.06790379 1.00000000
v 0.65301679 0.07495335 -1.00000000
v 0.65301679 0.07495335 1.00000000
v 0.65301679 0.21781049 -1.00000000
v 0.65301679 0.21781049 1.00000000
v 0.65301679 0.28923906 -0.92857143
v 0.58158822 0.36066763 -0.92857143
v 0.65301679 0.36066763 -0.85714286
v 0.65301679 0.36066763 1.00000000
v 0.58158822 0.50352478 -0.92857143
v 0.65301679 0.50352478 -0.85714286
v 0.65301679 0.50352478 1.00000000
v 0.58158822 0.64638192 -0.92857143
v 0.65301679 0.64638192 -0.85714286
v 0.65301679 0.57495335 0.92857143
v 0.65301679 0.64638192 0.85714286
v 0.58158822 0.78923906 -0.78571429
v 0.65301679 0.71781049 -0.78571429
v 0.65301679 0.78923906 -0.71428571
v 0.65301679 0.71781049 0.78571429
v 0.65301679 0.78923906 0.71428571
v 0.58158822 0.93209621 -0.64285714
v 0.65301679 0.86066763 -0.64285714
v 0.65301679 0.93209621 -0.57142857
v 0.58158822 0.93209621 0.35714286
v 0.65301679 0.86066763 0.35714286
v 0.65301679 0.93209621 0.28571429
v 0.65301679 0.86066763 0.50000000
v 0.65301679 0.86066763 0.64285714
v 0.58158822 1.07495335 -0.50000000
v 0.65301679 1.00352478 -0.50000000
v 0.65301679 1.07495335 -0.42857143
v 0.58158822 1.07495335 0.35714286
v 0.65301679 1.07495335 0.28571429
v 0.65301679 1.14638192 -0.35714286
v 0.65301679 1.14638192 -0.21428571
v 0.65301679 1.14638192 -0.07142857
v 0.65301679 1.14638192 0.07142857
v 0.65301679 1.14638192 0.21428571
v 0.72444537 -0.92504665 -0.50000000
v 0.79587394 -0.92504665 -0.42857143
v 0.79587394 -0.99647522 -0.35714286
v 0.79587394 -0.99647522 -0.21428571
v 0.79587394 -0.99647522 -0.07142857
v 0.79587394 -0.99647522 0.07142857
v 0.79587394 -0.99647522 0.21428571
v 0.79587394 -0.99647522 0.35714286
v 0.72444537 -0.92504665 0.50000000
v 0.79587394 -0.92504665 0.42857143
v 0.72444537 -0.78218951 -0.64285714
v 0.79587394 -0.78218951 -0.57142857
v 0.79587394 -0.85361808 -0.50000000
v 0.79587394 -0.85361808 0.50000000
v 0.72444537 -0.78218951 0.64285714
v 0.79587394 -0.78218951 0.57142857
v 0.72444537 -0.63933237 -0.78571429
v 0.79587394 -0.63933237 -0.71428571
v 0.79587394 -0.71076094 -0.64285714
v 0.79587394 -0.71076094 0.64285714
v 0.72444537 -0.63933237 0.78571429
v 0.79587394 -0.63933237 0.71428571
v 0.79587394 -0.49647522 -0.85714286
v 0.79587394 -0.56790379 -0.78571429
v 0.79587394 -0.56790379 0.78571429
v 0.79587394 -0.49647522 0.85714286
v 0.72444537 -0.35361808 -0.92857143
v 0.79587394 -0.35361808 -0.85714286
v 0.72444537 -0.35361808 0.92857143
v 0.79587394 -0.35361808 0.85714286
v 0.72444537 -0.21076094 -0.92857143
v 0.79587394 -0.21076094 -0.85714286
v 0.72444537 -0.21076094 0.92857143
v 0.79587394 -0.21076094 0.85714286
v 0.72444537 -0.06790379 -0.92857143
v 0.79587394 -0.06790379 -0.85714286
v 0.72444537 -0.06790379 0.92857143
v 0.79587394 -0.06790379 0.85714286
v 0.72444537 0.07495335 -0.92857143
v 0.79587394 0.07495335 -0.85714286
v 0.72444537 0.07495335 0.92857143
v 0.79587394 0.07495335 0.85714286
v 0.72444537 0.21781049 -0.92857143
v 0.79587394 0.21781049 -0.85714286
v 0.72444537 0.21781049 0.92857143
v 0.79587394 0.21781049 0.85714286
v 0.79587394 0.36066763 -0.85714286
v 0.72444537 0.36066763 0.92857143
v 0.79587394 0.36066763 0.85714286
v 0.79587394 0.50352478 -0.85714286
v 0.72444537 0.50352478 0.92857143
v 0.79587394 0.50352478 0.85714286
v 0.79587394 0.57495335 -0.78571429
v 0.72444537 0.64638192 -0.78571429
v 0.79587394 0.64638192 -0.71428571
v 0.79587394 0.64638192 0.85714286
v 0.72444537 0.78923906 -0.64285714
v 0.79587394 0.71781049 -0.64285714
v 0.79587394 0.78923906 -0.57142857
v 0.72444537 0.78923906 0.64285714
v 0.79587394 0.71781049 0.64285714
v 0.79587394 0.78923906 0.57142857
v 0.79587394 0.71781049 0.78571429
v 0.72444537 0.93209621 -0.50000000
v 0.79587394 0.86066763 -0.50000000
v 0.72444537 0.93209621 -0.35714286
v 0.79587394 0.86066763 -0.35714286
v 0.79587394 0.93209621 -0.28571429
v 0.79587394 0.86066763 0.35714286
v 0.79587394 0.93209621 0.28571429
v 0.79587394 0.86066763 0.50000000
v 0.72444537 1.07495335 -0.35714286
v 0.79587394 1.00352478 -0.21428571
v 0.72444537 1.07495335 -0.21428571
v 0.72444537 1.07495335 -0.07142857
v 0.79587394 1.00352478 -0.07142857
v 0.72444537 1.07495335 0.07142857
v 0.79587394 1.00352478 0.07142857
v 0.72444537 1.07495335 0.21428571
v 0.79587394 1.00352478 0.21428571
v 0.86730251 -0.92504665 -0.35714286
v 0.86730251 -0.92504665 -0.21428571
v 0.86730251 -0.92504665 -0.07142857
v 0.86730251 -0.92504665 0.07142857
v 0.86730251 -0.92504665 0.21428571
v 0.86730251 -0.92504665 0.35714286
v 0.86730251 -0.78218951 -0.50000000
v 0.93873108 -0.78218951 -0.42857143
v 0.93873108 -0.85361808 -0.35714286
v 0.93873108 -0.85361808 -0.21428571
v 0.93873108 -0.85361808 -0.07142857
v 0.93873108 -0.85361808 0.07142857
v 0.93873108 -0.85361808 0.21428571
v 0.93873108 -0.85361808 0.35714286
v 0.86730251 -0.78218951 0.50000000
v 0.93873108 -0.78218951 0.42857143
v 0.86730251 -0.63933237 -0.64285714
v 0.93873108 -0.63933237 -0.57142857
v 0.93873108 -0.71076094 -0.50000000
v 0.93873108 -0.71076094 0.50000000
v 0.86730251 -0.63933237 0.64285714
v 0.93873108 -0.63933237 0.57142857
v 0.86730251 -0.49647522 -0.78571429
v 0.93873108 -0.49647522 -0.71428571
v 0.93873108 -0.56790379 -0.64285714
v 0.93873108 -0.56790379 0.64285714
v 0.86730251 -0.49647522 0.78571429
v 0.93873108 -0.49647522 0.71428571
v 0.86730251 -0.35361808 -0.78571429
v 0.93873108 -0.35361808 -0.71428571
v 0.86730251 -0.35361808 0.78571429
v 0.93873108 -0.35361808 0.71428571
v 0.86730251 -0.21076094 -0.78571429
v 0.93873108 -0.21076094 -0.71428571
v 0.93873108 -0.28218951 0.78571429
v 0.93873108 -0.21076094 0.85714286
v 0.93873108 -0.06790379 -0.85714286
v 0.93873108 -0.13933237 -0.78571429
v 0.93873108 -0.06790379 0.85714286
v 0.93873108 0.07495335 -0.85714286
v 0.93873108 0.07495335 0.85714286
v 0.93873108 0.21781049 -0.85714286
v 0.93873108 0.21781049 0.85714286
v 0.93873108 0.36066763 -0.85714286
v 0.86730251 0.36066763 0.64285714
v 0.93873108 0.28923906 0.64285714
v 0.93873108 0.36066763 0.57142857
v 0.86730251 0.36066763 0.78571429
v 0.93873108 0.28923906 0.78571429
v 0.93873108 0.43209621 -0.78571429
v 0.86730251 0.50352478 -0.78571429
v 0.93873108 0.50352478 -0.71428571
v 0.86730251 0.50352478 0.64285714
v 0.93873108 0.50352478 0.57142857
v 0.86730251 0.50352478 0.78571429
v 0.86730251 0.64638192 -0.64285714
v 0.93873108 0.57495335 -0.64285714
v 0.86730251 0.64638192 -0.50000000
v 0.93873108 0.57495335 -0.50000000
v 0.93873108 0.64638192 -0.42857143
v 0.86730251 0.64638192 0.64285714
v 0.93873108 0.64638192 0.57142857
v 0.86730251 0.64638192 0.78571429
v 0.86730251 0.78923906 -0.50000000
v 0.93873108 0.71781049 -0.35714286
v 0.86730251 0.78923906 -0.35714286
v 0.93873108 0.78923906 -0.28571429
v 0.86730251 0.78923906 0.35714286
v 0.93873108 0.71781049 0.35714286
v 0.93873108 0.78923906 0.28571429
v 0.86730251 0.78923906 0.50000000
v 0.93873108 0.71781049 0.50000000
v 0.86730251 0.93209621 -0.21428571
v 0.93873108 0.86066763 -0.21428571
v 0.86730251 0.93209621 -0.07142857
v 0.93873108 0.86066763 -0.07142857
v 0.93873108 0.93209621 0.00000000
v 0.86730251 0.93209621 0.21428571
v 0.93873108 0.86066763 0.21428571
v 0.93873108 0.93209621 0.14285714
v 0.93873108 1.00352478 0.07142857
v 1.01015965 -0.78218951 -0.35714286
v 1.01015965 -0.78218951 -0.21428571
v 1.01015965 -0.78218951 -0.07142857
v 1.01015965 -0.78218951 0.07142857
v 1.01015965 -0.78218951 0.21428571
v 1.01015965 -0.78218951 0.35714286
v 1.01015965 -0.63933237 -0.50000000
v 1.08158822 -0.63933237 -0.42857143
v 1.08158822 -0.71076094 -0.35714286
v 1.08158822 -0.71076094 -0.21428571
v 1.08158822 -0.71076094 -0.07142857
v 1.08158822 -0.71076094 0.07142857
v 1.08158822 -0.63933237 0.14285714
v 1.01015965 -0.63933237 0.21428571
v 1.01015965 -0.63933237 0.35714286
v 1.01015965 -0.63933237 0.50000000
v 1.01015965 -0.49647522 -0.64285714
v 1.08158822 -0.49647522 -0.57142857
v 1.08158822 -0.56790379 -0.50000000
v 1.08158822 -0.56790379 0.21428571
v 1.08158822 -0.56790379 0.35714286
v 1.08158822 -0.49647522 0.42857143
v 1.01015965 -0.49647522 0.50000000
v 1.01015965 -0.49647522 0.64285714
v 1.01015965 -0.35361808 -0.64285714
v 1.08158822 -0.35361808 -0.57142857
v 1.01015965 -0.35361808 0.35714286
v 1.08158822 -0.42504665 0.35714286
v 1.08158822 -0.35361808 0.28571429
v 1.01015965 -0.35361808 0.50000000
v 1.01015965 -0.35361808 0.64285714
v 1.08158822 -0.21076094 -0.71428571
v 1.08158822 -0.28218951 -0.64285714
v 1.01015965 -0.21076094 0.35714286
v 1.08158822 -0.21076094 0.28571429
v 1.01015965 -0.21076094 0.50000000
v 1.01015965 -0.21076094 0.64285714
v 1.01015965 -0.21076094 0.78571429
v 1.01015965 -0.06790379 -0.78571429
v 1.08158822 -0.06790379 -0.71428571
v 1.01015965 -0.06790379 0.35714286
v 1.08158822 -0.06790379 0.28571429
v 1.01015965 -0.06790379 0.50000000
v 1.01015965 -0.06790379 0.64285714
v 1.01015965 -0.06790379 0.78571429
v 1.01015965 0.07495335 -0.78571429
v 1.08158822 0.07495335 -0.71428571
v 1.08158822 0.00352478 0.35714286
v 1.08158822 0.00352478 0.50000000
v 1.08158822 0.00352478 0.64285714
v 1.08158822 0.07495335 0.71428571
v 1.01015965 0.07495335 0.78571429
v 1.01015965 0.21781049 -0.78571429
v 1.08158822 0.21781049 -0.71428571
v 1.01015965 0.21781049 0.78571429
v 1.08158822 0.21781049 0.71428571
v 1.01015965 0.36066763 -0.78571429
v 1.08158822 0.28923906 -0.64285714
v 1.01015965 0.36066763 -0.64285714
v 1.08158822 0.36066763 -0.57142857
v 1.01015965 0.36066763 0.35714286
v 1.08158822 0.28923906 0.35714286
v 1.08158822 0.36066763 0.28571429
v 1.01015965 0.36066763 0.50000000
v 1.08158822 0.28923906 0.50000000
v 1.08158822 0.28923906 0.64285714
v 1.01015965 0.50352478 -0.64285714
v 1.08158822 0.50352478 -0.57142857
v 1.01015965 0.50352478 0.21428571
v 1.08158822 0.43209621 0.21428571
v 1.08158822 0.50352478 0.14285714
v 1.01015965 0.50352478 0.35714286
v 1.01015965 0.50352478 0.50000000
v 1.08158822 0.57495335 -0.50000000
v 1.01015965 0.64638192 -0.35714286
v 1.08158822 0.57495335 -0.35714286
v 1.01015965 0.64638192 -0.21428571
v 1.08158822 0.57495335 -0.21428571
v 1.01015965 0.64638192 -0.07142857
v 1.08158822 0.57495335 -0.07142857
v 1.01015965 0.64638192 0.07142857
v 1.08158822 0.57495335 0.07142857
v 1.01015965 0.64638192 0.21428571
v 1.01015965 0.64638192 0.35714286
v 1.01015965 0.64638192 0.50000000
v 1.01015965 0.78923906 -0.21428571
v 1.01015965 0.78923906 -0.07142857
v 1.01015965 0.78923906 0.07142857
v 1.01015965 0.78923906 0.21428571
v 1.01015965 0.93209621 0.07142857
v 1.15301679 -0.63933237 -0.35714286
v 1.15301679 -0.63933237 -0.21428571
v 1.15301679 -0.63933237 -0.07142857
v 1.15301679 -0.63933237 0.07142857
v 1.15301679 -0.49647522 -0.50000000
v 1.15301679 -0.49647522 -0.35714286
v 1.15301679 -0.49647522 -0.21428571
v 1.15301679 -0.49647522 -0.07142857
v 1.15301679 -0.49647522 0.07142857
v 1.15301679 -0.49647522 0.21428571
v 1.15301679 -0.49647522 0.35714286
v 1.15301679 -0.35361808 -0.50000000
v 1.15301679 -0.35361808 -0.35714286
v 1.15301679 -0.35361808 -0.21428571
v 1.15301679 -0.35361808 -0.07142857
v 1.15301679 -0.35361808 0.07142857
v 1.15301679 -0.35361808 0.21428571
v 1.15301679 -0.21076094 -0.64285714
v 1.15301679 -0.21076094 -0.50000000
v 1.15301679 -0.21076094 -0.35714286
v 1.15301679 -0.21076094 -0.21428571
v 1.15301679 -0.21076094 -0.07142857
v 1.15301679 -0.21076094 0.07142857
v 1.15301679 -0.21076094 0.21428571
v 1.15301679 -0.06790379 -0.64285714
v 1.15301679 -0.06790379 -0.50000000
v 1.15301679 -0.06790379 -0.35714286
v 1.22444537 -0.06790379 -0.28571429
v 1.22444537 -0.13933237 -0.21428571
v 1.22444537 -0.13933237 -0.07142857
v 1.22444537 -0.13933237 0.07142857
v 1.22444537 -0.13933237 0.21428571
v 1.22444537 -0.06790379 0.28571429
v 1.15301679 0.07495335 -0.64285714
v 1.15301679 0.07495335 -0.50000000
v 1.15301679 0.07495335 -0.35714286
v 1.22444537 0.07495335 -0.28571429
v 1.15301679 0.07495335 0.35714286
v 1.22444537 0.07495335 0.28571429
v 1.15301679 0.07495335 0.50000000
v 1.15301679 0.07495335 0.64285714
v 1.15301679 0.21781049 -0.64285714
v 1.15301679 0.21781049 -0.50000000
v 1.15301679 0.21781049 -0.35714286
v 1.22444537 0.21781049 -0.28571429
v 1.15301679 0.21781049 0.35714286
v 1.22444537 0.21781049 0.28571429
v 1.15301679 0.21781049 0.50000000
v 1.15301679 0.21781049 0.64285714
v 1.15301679 0.36066763 -0.50000000
v 1.15301679 0.36066763 -0.35714286
v 1.22444537 0.28923906 -0.21428571
v 1.15301679 0.36066763 -0.21428571
v 1.22444537 0.36066763 -0.14285714
v 1.22444537 0.36066763 0.28571429
v 1.15301679 0.50352478 -0.50000000
v 1.15301679 0.50352478 -0.35714286
v 1.15301679 0.50352478 -0.21428571
v 1.22444537 0.43209621 -0.07142857
v 1.15301679 0.50352478 -0.07142857
v 1.22444537 0.50352478 0.00000000
v 1.22444537 0.43209621 0.21428571
v 1.22444537 0.50352478 0.14285714
v 1.22444537 0.57495335 0.07142857
v 1.29587394 -0.06790379 -0.21428571
v 1.29587394 -0.06790379 -0.07142857
v 1.29587394 -0.06790379 0.07142857
v 1.29587394 -0.06790379 0.21428571
v 1.29587394 0.07495335 -0.21428571
v 1.29587394 0.07495335 -0.07142857
v 1.29587394 0.07495335 0.07142857
v 1.29587394 0.07495335 0.21428571
v 1.29587394 0.21781049 -0.21428571
v 1.29587394 0.21781049 -0.07142857
v 1.29587394 0.21781049 0.07142857
v 1.29587394 0.21781049 0.21428571
v 1.29587394 0.36066763 -0.07142857
v 1.29587394 0.36066763 0.07142857
v 1.29587394 0.36066763 0.21428571
v 1.29587394 0.50352478 0.07142857
f 3 2 1
f 5 4 1
f 1 4 3
f 7 6 5
f 5 6 4
f 9 8 7
f 7 8 6
f 9 10 8
f 13 12 11
f 13 11 2
f 11 1 2
f 11 14 1
f 1 15 5
f 1 14 15
f 5 16 7
f 5 15 16
f 7 17 9
f 7 16 17
f 10 9 18
f 18 9 17
f 11 12 19
f 19 12 20
f 11 21 14
f 11 19 21
f 14 22 15
f 14 21 22
f 15 23 16
f 15 22 23
f 16 24 17
f 16 23 24
f 18 17 25
f 25 17 24
f 19 20 26
f 26 20 27
f 19 28 21
f 19 26 28
f 21 29 22
f 21 28 29
f 22 30 23
f 22 29 30
f 23 31 24
f 23 30 31
f 25 24 32
f 32 24 31
f 26 27 33
f 33 27 34
f 26 35 28
f 26 33 35
f 28 36 29
f 28 35 36
f 29 37 30
f 29 36 37
f 30 38 31
f 30 37 38
f 32 31 39
f 31 40 39
f 31 38 40
f 40 41 39
f 33 34 42
f 42 34 43
f 33 44 35
f 33 42 44
f 35 45 36
f 35 44 45
f 36 46 37
f 36 45 46
f 37 47 38
f 37 46 47
f 49 40 48
f 40 47 48
f 40 38 47
f 40 49 41
f 43 50 42
f 42 50 44
f 44 50 51
f 44 51 45
f 45 51 52
f 45 52 46
f 46 52 53
f 46 53 47
f 47 53 54
f 47 54 48
f 57 56 55
f 59 58 55
f 55 58 57
f 61 60 59
f 59 60 58
f 63 62 61
f 61 62 60
f 63 64 62
f 67 66 65
f 67 65 56
f 65 55 56
f 65 68 55
f 55 69 59
f 55 68 69
f 59 70 61
f 59 69 70
f 61 71 63
f 61 70 71
f 64 63 72
f 63 73 72
f 63 71 73
f 75 74 73
f 73 74 72
f 75 76 74
f 79 78 77
f 79 77 66
f 77 65 66
f 77 80 65
f 80 2 3
f 68 80 3
f 65 80 68
f 68 3 4
f 68 4 69
f 69 4 6
f 69 6 70
f 70 6 8
f 70 8 71
f 71 8 10
f 81 71 10
f 73 71 81
f 73 82 75
f 73 81 82
f 76 75 83
f 83 75 82
f 86 85 84
f 86 84 78
f 84 77 78
f 84 87 77
f 87 12 13
f 80 87 13
f 77 87 80
f 80 13 2
f 18 88 81
f 18 81 10
f 81 89 82
f 81 88 89
f 83 82 90
f 82 91 90
f 82 89 91
f 91 92 90
f 84 85 93
f 93 85 94
f 84 95 87
f 84 93 95
f 95 20 12
f 95 12 87
f 25 96 88
f 25 88 18
f 88 97 89
f 88 96 97
f 99 91 98
f 91 97 98
f 91 89 97
f 91 99 92
f 93 94 100
f 100 94 101
f 93 102 95
f 93 100 102
f 102 27 20
f 102 20 95
f 32 103 96
f 32 96 25
f 96 104 97
f 96 103 104
f 98 97 105
f 105 97 104
f 100 101 106
f 106 101 107
f 100 108 102
f 100 106 108
f 108 34 27
f 108 27 102
f 39 103 32
f 103 39 41
f 109 103 41
f 104 103 109
f 105 104 110
f 110 104 109
f 106 107 111
f 111 107 112
f 106 113 108
f 106 111 113
f 113 43 34
f 113 34 108
f 48 114 49
f 109 41 49
f 114 109 49
f 115 109 114
f 110 109 116
f 116 109 115
f 112 117 111
f 119 118 117
f 118 111 117
f 118 113 111
f 120 50 43
f 113 120 43
f 118 120 113
f 121 51 50
f 121 50 120
f 122 52 51
f 122 51 121
f 123 53 52
f 123 52 122
f 124 54 53
f 124 53 123
f 114 48 54
f 124 114 54
f 125 114 124
f 127 115 126
f 115 125 126
f 115 114 125
f 115 127 116
f 119 128 118
f 130 129 128
f 129 118 128
f 129 120 118
f 120 131 121
f 120 129 131
f 121 132 122
f 121 131 132
f 122 133 123
f 122 132 133
f 123 134 124
f 123 133 134
f 124 135 125
f 124 134 135
f 126 125 136
f 136 125 135
f 130 137 129
f 129 137 131
f 131 137 138
f 131 138 132
f 132 138 139
f 132 139 133
f 133 139 140
f 133 140 134
f 134 140 141
f 134 141 135
f 135 141 142
f 135 142 136
f 145 144 143
f 147 146 143
f 143 146 145
f 149 148 147
f 147 148 146
f 151 150 149
f 149 150 148
f 153 152 151
f 151 152 150
f 155 154 153
f 153 154 152
f 157 156 155
f 155 156 154
f 157 158 156
f 143 144 159
f 159 144 160
f 143 161 147
f 143 159 161
f 161 56 57
f 149 161 57
f 147 161 149
f 149 57 58
f 149 58 151
f 151 58 60
f 151 60 153
f 153 60 62
f 153 62 155
f 155 62 64
f 162 155 64
f 157 155 162
f 158 157 163
f 157 164 163
f 157 162 164
f 164 165 163
f 168 167 166
f 168 166 160
f 166 159 160
f 166 169 159
f 169 66 67
f 161 169 67
f 159 169 161
f 161 67 56
f 72 162 64
f 162 72 74
f 162 74 164
f 171 170 76
f 76 170 74
f 170 165 74
f 165 164 74
f 171 172 170
f 175 174 173
f 175 173 167
f 173 166 167
f 173 176 166
f 176 78 79
f 169 176 79
f 166 176 169
f 169 79 66
f 83 177 171
f 83 171 76
f 172 171 178
f 178 171 177
f 173 174 179
f 179 174 180
f 179 85 86
f 176 179 86
f 173 179 176
f 176 86 78
f 90 177 83
f 182 181 92
f 92 181 90
f 181 178 90
f 178 177 90
f 182 183 181
f 179 180 184
f 184 180 185
f 184 94 85
f 184 85 179
f 98 186 99
f 182 92 99
f 186 182 99
f 187 182 186
f 183 182 188
f 188 182 187
f 184 185 189
f 189 185 190
f 189 101 94
f 189 94 184
f 105 191 186
f 105 186 98
f 186 192 187
f 186 191 192
f 188 187 193
f 193 187 192
f 189 190 194
f 194 190 195
f 194 107 101
f 194 101 189
f 110 196 191
f 110 191 105
f 191 197 192
f 191 196 197
f 193 192 198
f 198 192 197
f 194 195 199
f 199 195 200
f 199 112 107
f 199 107 194
f 116 201 196
f 116 196 110
f 203 197 202
f 197 201 202
f 197 196 201
f 197 203 198
f 200 204 199
f 204 206 205
f 204 205 117
f 199 204 117
f 112 199 117
f 205 119 117
f 126 207 127
f 201 116 127
f 207 201 127
f 208 201 207
f 202 201 209
f 209 201 208
f 205 206 210
f 210 206 211
f 212 128 119
f 205 212 119
f 210 212 205
f 212 130 128
f 136 213 207
f 136 207 126
f 215 208 214
f 208 213 214
f 208 207 213
f 208 215 209
f 211 216 210
f 218 217 216
f 217 210 216
f 217 212 210
f 219 137 130
f 212 219 130
f 217 219 212
f 220 138 137
f 220 137 219
f 221 139 138
f 221 138 220
f 222 140 139
f 222 139 221
f 223 141 140
f 223 140 222
f 224 142 141
f 224 141 223
f 224 225 142
f 142 225 136
f 225 226 136
f 226 213 136
f 213 226 214
f 218 227 217
f 217 227 219
f 219 227 228
f 219 228 220
f 220 228 229
f 220 229 221
f 221 229 230
f 221 230 222
f 222 230 231
f 222 231 223
f 223 231 232
f 223 232 224
f 224 232 233
f 224 233 225
f 236 235 234
f 238 237 234
f 234 237 236
f 240 239 238
f 238 239 237
f 242 241 240
f 240 241 239
f 244 243 242
f 242 243 241
f 246 245 244
f 244 245 243
f 246 247 245
f 249 248 145
f 145 248 144
f 146 234 235
f 249 146 235
f 145 146 249
f 234 146 148
f 234 148 238
f 238 148 150
f 238 150 240
f 240 150 152
f 240 152 242
f 242 152 154
f 242 154 244
f 244 154 156
f 244 156 246
f 251 250 158
f 158 250 156
f 250 247 156
f 247 246 156
f 251 252 250
f 255 254 253
f 248 255 253
f 160 248 253
f 144 248 160
f 163 251 158
f 257 256 165
f 165 256 163
f 256 252 163
f 252 251 163
f 257 258 256
f 261 260 259
f 261 259 254
f 254 259 253
f 259 167 253
f 167 168 253
f 253 168 160
f 170 257 165
f 170 172 257
f 172 258 257
f 172 262 258
f 259 260 175
f 260 174 175
f 260 263 174
f 259 175 167
f 178 262 172
f 178 264 262
f 263 180 174
f 265 180 263
f 266 264 178
f 266 178 181
f 181 183 266
f 266 183 267
f 265 185 180
f 268 185 265
f 188 267 183
f 188 269 267
f 268 190 185
f 270 190 268
f 193 269 188
f 193 271 269
f 270 195 190
f 272 195 270
f 198 271 193
f 198 273 271
f 272 200 195
f 274 200 272
f 202 275 203
f 275 276 203
f 276 198 203
f 276 273 198
f 204 200 277
f 200 278 277
f 200 274 278
f 277 206 204
f 209 279 275
f 209 275 202
f 276 275 280
f 280 275 279
f 278 281 277
f 206 277 281
f 282 206 281
f 211 206 282
f 214 283 215
f 283 284 215
f 215 284 209
f 284 285 209
f 285 279 209
f 279 285 280
f 216 211 286
f 211 287 286
f 211 282 287
f 286 218 216
f 225 288 226
f 288 289 226
f 226 289 214
f 289 290 214
f 290 283 214
f 283 290 284
f 287 291 286
f 286 291 218
f 291 227 218
f 291 292 227
f 292 294 293
f 228 292 293
f 227 292 228
f 295 229 228
f 295 228 293
f 296 230 229
f 296 229 295
f 297 231 230
f 297 230 296
f 298 232 231
f 298 231 297
f 232 298 299
f 300 232 299
f 233 232 300
f 225 233 288
f 233 301 288
f 233 300 301
f 288 301 289
f 294 302 293
f 293 302 295
f 295 302 303
f 295 303 296
f 296 303 304
f 296 304 297
f 297 304 305
f 297 305 298
f 298 305 306
f 298 306 299
f 309 308 307
f 311 310 307
f 307 310 309
f 313 312 311
f 311 312 310
f 315 314 313
f 313 314 312
f 317 316 315
f 315 316 314
f 319 318 317
f 317 318 316
f 319 320 318
f 323 322 321
f 323 321 308
f 308 321 307
f 321 235 307
f 235 236 307
f 307 236 237
f 307 237 311
f 311 237 239
f 311 239 313
f 313 239 241
f 313 241 315
f 315 241 243
f 315 243 317
f 317 243 245
f 317 245 319
f 325 324 247
f 247 324 245
f 324 320 245
f 320 319 245
f 325 326 324
f 321 322 249
f 322 248 249
f 322 327 248
f 321 249 235
f 250 325 247
f 329 328 252
f 252 328 250
f 328 326 250
f 326 325 250
f 329 330 328
f 332 331 255
f 255 331 254
f 255 248 327
f 255 327 332
f 256 329 252
f 334 333 258
f 258 333 256
f 333 330 256
f 330 329 256
f 334 335 333
f 337 336 261
f 261 336 260
f 261 254 331
f 261 331 337
f 262 338 334
f 262 334 258
f 335 334 339
f 339 334 338
f 342 341 340
f 336 342 340
f 263 336 340
f 260 336 263
f 264 343 338
f 264 338 262
f 339 338 344
f 338 345 344
f 338 343 345
f 345 346 344
f 340 341 347
f 347 341 348
f 347 265 263
f 347 263 340
f 266 343 264
f 345 343 349
f 343 267 349
f 267 350 349
f 267 343 266
f 345 349 346
f 347 348 351
f 351 348 352
f 351 268 265
f 351 265 347
f 269 350 267
f 269 353 350
f 351 352 354
f 354 352 355
f 354 270 268
f 354 268 351
f 271 353 269
f 271 356 353
f 354 355 357
f 357 355 358
f 357 272 270
f 357 270 354
f 273 360 359
f 356 273 359
f 271 273 356
f 360 361 359
f 357 358 362
f 362 358 363
f 362 274 272
f 362 272 357
f 365 364 360
f 273 365 360
f 276 365 273
f 360 364 361
f 362 363 366
f 366 363 367
f 366 278 274
f 366 274 362
f 280 365 276
f 280 368 365
f 367 369 366
f 369 371 370
f 369 370 281
f 366 369 281
f 278 366 281
f 370 282 281
f 373 372 285
f 373 285 284
f 280 285 368
f 368 285 372
f 371 374 370
f 282 370 374
f 375 282 374
f 287 282 375
f 377 376 290
f 377 290 289
f 284 290 373
f 373 290 376
f 375 378 287
f 287 378 291
f 378 380 379
f 292 378 379
f 291 378 292
f 379 294 292
f 382 381 300
f 382 300 299
f 300 383 301
f 381 383 300
f 289 301 377
f 377 301 383
f 380 384 379
f 379 384 294
f 384 302 294
f 384 385 302
f 385 387 386
f 303 385 386
f 302 385 303
f 388 304 303
f 388 303 386
f 389 305 304
f 389 304 388
f 305 389 390
f 391 305 390
f 306 305 391
f 299 306 382
f 382 306 391
f 387 392 386
f 386 392 388
f 388 392 393
f 388 393 389
f 389 393 394
f 389 394 390
f 397 396 395
f 308 309 395
f 309 397 395
f 309 398 397
f 399 309 310
f 399 398 309
f 400 310 312
f 400 399 310
f 401 312 314
f 401 400 312
f 402 314 316
f 402 401 314
f 403 316 318
f 403 402 316
f 318 320 403
f 403 320 404
f 407 406 405
f 407 405 396
f 396 405 395
f 405 322 395
f 322 323 395
f 395 323 308
f 408 404 320
f 408 320 324
f 410 409 326
f 409 324 326
f 409 408 324
f 410 411 409
f 414 413 412
f 414 412 406
f 412 405 406
f 412 415 405
f 415 327 322
f 415 322 405
f 328 410 326
f 417 416 330
f 330 416 328
f 416 411 328
f 411 410 328
f 417 418 416
f 412 413 419
f 419 413 420
f 419 331 332
f 415 419 332
f 412 419 415
f 415 332 327
f 333 417 330
f 333 335 417
f 335 418 417
f 335 421 418
f 424 423 422
f 424 422 420
f 420 422 419
f 422 336 419
f 336 337 419
f 419 337 331
f 339 426 425
f 421 339 425
f 335 339 421
f 426 427 425
f 422 423 342
f 423 341 342
f 423 428 341
f 422 342 336
f 344 426 339
f 344 346 426
f 346 427 426
f 346 429 427
f 428 348 341
f 430 348 428
f 350 431 349
f 431 432 349
f 432 346 349
f 432 429 346
f 430 352 348
f 433 352 430
f 353 434 431
f 353 431 350
f 432 431 435
f 435 431 434
f 433 355 352
f 436 355 433
f 356 437 434
f 356 434 353
f 435 434 438
f 438 434 437
f 436 358 355
f 439 358 436
f 359 437 356
f 359 361 437
f 361 438 437
f 361 440 438
f 439 363 358
f 441 363 439
f 443 442 364
f 443 364 365
f 361 364 440
f 440 364 442
f 441 367 363
f 444 367 441
f 368 443 365
f 368 445 443
f 369 367 446
f 367 447 446
f 367 444 447
f 446 371 369
f 449 448 372
f 449 372 373
f 368 372 445
f 445 372 448
f 447 450 446
f 450 452 451
f 450 451 374
f 446 450 374
f 371 446 374
f 451 375 374
f 377 453 376
f 453 454 376
f 454 373 376
f 454 449 373
f 452 455 451
f 455 457 456
f 455 456 378
f 451 455 378
f 375 451 378
f 456 380 378
f 382 458 381
f 459 383 381
f 459 381 458
f 459 460 383
f 383 460 377
f 460 461 377
f 461 453 377
f 453 461 454
f 457 462 456
f 456 462 380
f 462 384 380
f 462 463 384
f 463 465 464
f 385 463 464
f 384 463 385
f 464 387 385
f 390 466 391
f 466 467 391
f 391 467 382
f 467 468 382
f 468 458 382
f 458 468 459
f 459 468 469
f 459 469 460
f 465 470 464
f 464 470 387
f 470 392 387
f 470 471 392
f 392 472 393
f 471 472 392
f 393 473 394
f 472 473 393
f 390 394 466
f 394 474 466
f 394 473 474
f 466 474 467
f 477 476 475
f 479 478 475
f 475 478 477
f 479 480 478
f 482 481 397
f 397 481 396
f 483 397 398
f 483 482 397
f 484 398 399
f 484 483 398
f 400 475 476
f 484 400 476
f 399 400 484
f 475 400 401
f 475 401 479
f 485 480 479
f 401 485 479
f 402 485 401
f 486 402 403
f 486 485 402
f 488 487 404
f 487 403 404
f 487 486 403
f 488 489 487
f 491 490 407
f 407 490 406
f 407 396 481
f 407 481 491
f 408 488 404
f 492 489 488
f 408 492 488
f 409 492 408
f 409 411 492
f 492 411 493
f 495 494 414
f 414 494 413
f 414 406 490
f 414 490 495
f 496 493 411
f 496 411 416
f 416 418 496
f 496 418 497
f 500 499 498
f 494 500 498
f 420 494 498
f 413 494 420
f 421 502 501
f 497 421 501
f 418 421 497
f 502 503 501
f 498 499 424
f 499 423 424
f 499 504 423
f 498 424 420
f 425 502 421
f 425 427 502
f 427 503 502
f 427 505 503
f 504 428 423
f 506 428 504
f 429 505 427
f 429 507 505
f 506 430 428
f 508 430 506
f 432 507 429
f 432 509 507
f 508 433 430
f 510 433 508
f 435 509 432
f 435 511 509
f 510 436 433
f 512 436 510
f 438 511 435
f 438 513 511
f 512 439 436
f 514 439 512
f 440 513 438
f 440 515 513
f 514 441 439
f 516 441 514
f 443 517 442
f 517 518 442
f 518 440 442
f 518 515 440
f 516 444 441
f 519 444 516
f 445 520 517
f 445 517 443
f 518 517 521
f 521 517 520
f 519 447 444
f 522 447 519
f 449 523 448
f 523 524 448
f 448 524 445
f 524 525 445
f 525 520 445
f 520 525 521
f 522 526 447
f 447 526 450
f 452 450 526
f 452 526 527
f 454 528 523
f 454 523 449
f 524 523 529
f 529 523 528
f 455 452 530
f 452 531 530
f 452 527 531
f 530 457 455
f 533 532 461
f 533 461 460
f 454 461 528
f 461 534 528
f 461 532 534
f 528 534 529
f 531 535 530
f 530 535 457
f 535 462 457
f 535 536 462
f 536 538 537
f 463 536 537
f 462 536 463
f 537 465 463
f 540 539 468
f 540 468 467
f 468 541 469
f 539 541 468
f 460 469 533
f 533 469 541
f 538 542 537
f 542 544 543
f 542 543 470
f 537 542 470
f 465 537 470
f 545 471 470
f 545 470 543
f 546 472 471
f 546 471 545
f 547 473 472
f 547 472 546
f 548 474 473
f 548 473 547
f 548 549 474
f 549 467 474
f 549 540 467
f 544 550 543
f 543 550 545
f 545 550 551
f 545 551 546
f 546 551 552
f 546 552 547
f 547 552 553
f 547 553 548
f 548 553 554
f 548 554 549
f 557 556 555
f 476 477 555
f 477 557 555
f 477 558 557
f 559 477 478
f 559 558 477
f 561 560 480
f 560 478 480
f 560 559 478
f 561 562 560
f 564 563 482
f 482 563 481
f 565 482 483
f 565 564 482
f 484 555 556
f 565 484 556
f 483 484 565
f 555 484 476
f 485 561 480
f 566 562 561
f 485 566 561
f 486 566 485
f 567 486 487
f 567 566 486
f 487 489 567
f 567 489 568
f 571 570 569
f 490 491 569
f 491 571 569
f 491 572 571
f 491 481 563
f 491 563 572
f 573 568 489
f 573 489 492
f 575 574 493
f 574 492 493
f 574 573 492
f 575 576 574
f 569 570 495
f 570 494 495
f 570 577 494
f 569 495 490
f 496 575 493
f 496 497 575
f 497 576 575
f 497 578 576
f 580 579 500
f 500 579 499
f 500 494 577
f 500 577 580
f 581 578 497
f 581 497 501
f 501 503 581
f 581 503 582
f 579 504 499
f 583 504 579
f 505 582 503
f 505 584 582
f 583 506 504
f 585 506 583
f 507 584 505
f 507 586 584
f 585 508 506
f 587 508 585
f 509 586 507
f 509 588 586
f 587 510 508
f 589 510 587
f 511 588 509
f 511 590 588
f 589 512 510
f 591 512 589
f 513 590 511
f 513 592 590
f 591 514 512
f 593 514 591
f 515 592 513
f 515 594 592
f 593 516 514
f 595 516 593
f 518 594 515
f 518 596 594
f 595 519 516
f 597 519 595
f 521 596 518
f 521 598 596
f 597 522 519
f 599 522 597
f 601 600 525
f 601 525 524
f 521 525 598
f 598 525 600
f 599 602 522
f 522 602 526
f 527 526 602
f 527 602 603
f 529 601 524
f 529 604 601
f 603 531 527
f 605 531 603
f 533 606 532
f 532 606 607
f 608 532 607
f 534 532 608
f 529 534 604
f 604 534 608
f 605 609 531
f 531 609 535
f 609 611 610
f 536 609 610
f 535 609 536
f 610 538 536
f 613 612 539
f 613 539 540
f 539 614 541
f 612 614 539
f 533 541 606
f 541 615 606
f 541 614 615
f 606 615 607
f 611 616 610
f 610 616 538
f 616 542 538
f 616 617 542
f 544 542 617
f 544 617 618
f 549 613 540
f 549 619 613
f 618 620 544
f 544 620 550
f 550 621 551
f 620 621 550
f 551 622 552
f 621 622 551
f 552 623 553
f 622 623 552
f 553 624 554
f 623 624 553
f 549 554 619
f 619 554 624
f 627 626 625
f 556 557 625
f 557 627 625
f 557 628 627
f 629 557 558
f 629 628 557
f 630 558 559
f 630 629 558
f 631 559 560
f 631 630 559
f 560 562 631
f 631 562 632
f 635 634 633
f 563 564 633
f 564 635 633
f 564 636 635
f 565 625 626
f 636 565 626
f 564 565 636
f 625 565 556
f 637 632 562
f 637 562 566
f 638 566 567
f 638 637 566
f 640 639 568
f 639 567 568
f 639 638 567
f 640 641 639
f 643 642 571
f 571 642 570
f 572 633 634
f 643 572 634
f 571 572 643
f 633 572 563
f 573 640 568
f 644 641 640
f 573 644 640
f 574 644 573
f 574 576 644
f 644 576 645
f 642 577 570
f 646 577 642
f 578 645 576
f 578 647 645
f 649 648 580
f 580 648 579
f 580 577 646
f 580 646 649
f 650 647 578
f 650 578 581
f 581 582 650
f 650 582 651
f 648 583 579
f 652 583 648
f 584 651 582
f 584 653 651
f 652 585 583
f 654 585 652
f 586 653 584
f 586 655 653
f 654 587 585
f 656 587 654
f 588 655 586
f 588 657 655
f 656 589 587
f 658 589 656
f 590 657 588
f 590 659 657
f 658 591 589
f 660 591 658
f 592 659 590
f 592 661 659
f 660 593 591
f 662 593 660
f 594 661 592
f 594 663 661
f 662 595 593
f 664 595 662
f 596 663 594
f 596 665 663
f 664 597 595
f 666 597 664
f 598 665 596
f 598 667 665
f 666 599 597
f 668 599 666
f 601 669 600
f 669 670 600
f 670 598 600
f 670 667 598
f 602 599 671
f 599 672 671
f 599 668 672
f 671 603 602
f 674 673 669
f 601 674 669
f 604 674 601
f 669 673 670
f 672 675 671
f 603 671 675
f 676 603 675
f 605 603 676
f 678 677 608
f 678 608 607
f 604 608 674
f 674 608 677
f 676 679 605
f 605 679 609
f 611 609 679
f 611 679 680
f 682 681 612
f 682 612 613
f 612 683 614
f 681 683 612
f 614 684 615
f 683 684 614
f 607 615 678
f 678 615 684
f 680 685 611
f 611 685 616
f 616 686 617
f 685 686 616
f 688 687 618
f 617 688 618
f 686 688 617
f 689 687 688
f 619 682 613
f 619 690 682
f 687 620 618
f 689 691 687
f 691 620 687
f 691 621 620
f 621 692 622
f 691 692 621
f 622 693 623
f 692 693 622
f 623 694 624
f 693 694 623
f 619 624 690
f 690 624 694
f 696 695 627
f 627 695 626
f 697 627 628
f 697 696 627
f 698 628 629
f 698 697 628
f 699 629 630
f 699 698 629
f 700 630 631
f 700 699 630
f 631 632 700
f 700 632 701
f 703 702 635
f 635 702 634
f 704 635 636
f 704 703 635
f 636 626 695
f 636 695 704
f 705 701 632
f 705 632 637
f 706 637 638
f 706 705 637
f 707 638 639
f 707 706 638
f 639 641 707
f 707 641 708
f 710 709 643
f 643 709 642
f 643 634 702
f 643 702 710
f 711 708 641
f 711 641 644
f 644 645 711
f 711 645 712
f 709 646 642
f 713 646 709
f 647 712 645
f 647 714 712
f 716 715 649
f 649 715 648
f 649 646 713
f 649 713 716
f 647 650 717
f 718 647 717
f 714 647 718
f 651 717 650
f 715 652 648
f 719 652 715
f 720 718 717
f 717 651 720
f 651 721 720
f 651 653 721
f 719 654 652
f 722 654 719
f 655 721 653
f 655 723 721
f 722 656 654
f 724 656 722
f 657 723 655
f 657 725 723
f 724 658 656
f 726 658 724
f 659 725 657
f 659 727 725
f 726 660 658
f 728 660 726
f 661 727 659
f 661 729 727
f 728 662 660
f 730 662 728
f 663 729 661
f 663 731 729
f 730 664 662
f 732 664 730
f 665 731 663
f 665 733 731
f 732 666 664
f 734 666 732
f 667 733 665
f 667 735 733
f 734 668 666
f 736 668 734
f 670 735 667
f 670 737 735
f 736 672 668
f 738 672 736
f 740 739 673
f 740 673 674
f 670 673 737
f 737 673 739
f 738 741 672
f 672 741 675
f 676 675 741
f 676 741 742
f 745 744 743
f 677 678 743
f 744 677 743
f 746 677 744
f 674 677 740
f 740 677 746
f 742 747 676
f 676 747 679
f 680 679 747
f 680 747 748
f 750 749 681
f 750 681 682
f 681 751 683
f 749 751 681
f 743 684 745
f 684 751 745
f 684 683 751
f 684 743 678
f 748 752 680
f 680 752 685
f 685 753 686
f 752 753 685
f 686 754 688
f 753 754 686
f 689 688 754
f 689 754 755
f 690 750 682
f 690 756 750
f 755 757 689
f 689 757 691
f 691 758 692
f 757 758 691
f 692 759 693
f 758 759 692
f 693 760 694
f 759 760 693
f 690 694 756
f 756 694 760
f 761 695 696
f 761 696 762
f 696 763 762
f 696 697 763
f 764 697 698
f 764 763 697
f 765 698 699
f 765 764 698
f 767 765 766
f 765 700 766
f 765 699 700
f 701 766 700
f 769 768 703
f 703 768 702
f 770 703 704
f 770 769 703
f 704 695 761
f 771 704 761
f 770 704 771
f 771 761 762
f 772 767 766
f 772 766 701
f 705 772 701
f 773 772 705
f 774 705 706
f 774 773 705
f 775 706 707
f 775 774 706
f 707 708 775
f 775 708 776
f 778 777 710
f 710 777 709
f 710 702 768
f 710 768 778
f 779 776 708
f 779 708 711
f 711 712 779
f 779 712 780
f 777 713 709
f 781 713 777
f 714 780 712
f 714 782 780
f 784 783 716
f 716 783 715
f 716 713 781
f 716 781 784
f 718 782 714
f 718 785 782
f 783 719 715
f 786 719 783
f 787 785 718
f 787 718 720
f 720 721 787
f 787 721 788
f 786 722 719
f 789 722 786
f 723 788 721
f 723 790 788
f 789 724 722
f 791 724 789
f 725 790 723
f 725 792 790
f 791 726 724
f 793 726 791
f 727 792 725
f 727 794 792
f 793 728 726
f 795 728 793
f 729 794 727
f 729 796 794
f 795 730 728
f 797 730 795
f 731 796 729
f 731 798 796
f 797 732 730
f 799 732 797
f 733 798 731
f 733 800 798
f 799 734 732
f 801 734 799
f 735 800 733
f 735 802 800
f 801 736 734
f 803 736 801
f 737 802 735
f 737 804 802
f 803 738 736
f 805 738 803
f 807 806 739
f 807 739 740
f 737 739 804
f 804 739 806
f 805 808 738
f 738 808 741
f 742 741 808
f 742 808 809
f 811 810 744
f 811 744 745
f 744 812 746
f 810 812 744
f 740 746 807
f 807 746 812
f 809 813 742
f 742 813 747
f 748 747 813
f 748 813 814
f 816 815 749
f 816 749 750
f 749 817 751
f 815 817 749
f 745 751 811
f 811 751 817
f 814 818 748
f 748 818 752
f 752 819 753
f 818 819 752
f 753 820 754
f 819 820 753
f 755 754 820
f 755 820 821
f 824 823 822
f 823 816 822
f 816 756 822
f 816 750 756
f 821 825 755
f 755 825 757
f 757 826 758
f 825 826 757
f 758 827 759
f 826 827 758
f 822 760 824
f 760 827 824
f 760 759 827
f 760 822 756
f 828 762 763
f 764 829 763
f 763 829 828
f 829 764 830
f 764 831 830
f 764 765 831
f 765 767 831
f 831 767 832
f 833 768 769
f 833 769 834
f 769 835 834
f 769 770 835
f 836 770 771
f 836 835 770
f 771 762 828
f 837 771 828
f 836 771 837
f 837 828 829
f 837 829 838
f 838 829 830
f 839 832 767
f 839 767 772
f 840 772 773
f 840 839 772
f 841 773 774
f 841 840 773
f 843 841 842
f 841 775 842
f 841 774 775
f 776 842 775
f 845 844 778
f 778 844 777
f 778 768 833
f 846 778 833
f 845 778 846
f 846 833 834
f 847 843 842
f 849 847 848
f 848 847 779
f 847 842 779
f 842 776 779
f 780 848 779
f 844 781 777
f 850 781 844
f 851 849 848
f 848 780 851
f 780 852 851
f 780 782 852
f 854 853 784
f 784 853 783
f 784 781 850
f 784 850 854
f 785 852 782
f 785 855 852
f 853 786 783
f 856 786 853
f 857 855 785
f 857 785 787
f 787 788 857
f 857 788 858
f 856 789 786
f 859 789 856
f 790 858 788
f 790 860 858
f 859 791 789
f 861 791 859
f 792 860 790
f 792 862 860
f 861 793 791
f 863 793 861
f 794 862 792
f 794 864 862
f 863 795 793
f 865 795 863
f 796 864 794
f 796 866 864
f 865 797 795
f 867 797 865
f 798 866 796
f 798 868 866
f 867 799 797
f 869 799 867
f 800 868 798
f 800 870 868
f 869 801 799
f 871 801 869
f 802 870 800
f 802 872 870
f 871 803 801
f 873 803 871
f 804 872 802
f 804 874 872
f 873 805 803
f 875 805 873
f 877 876 806
f 877 806 807
f 804 806 874
f 874 806 876
f 875 878 805
f 805 878 808
f 809 808 878
f 809 878 879
f 882 881 880
f 810 811 880
f 881 810 880
f 883 810 881
f 810 884 812
f 883 884 810
f 807 812 877
f 877 812 884
f 879 885 809
f 809 885 813
f 887 886 814
f 813 887 814
f 885 887 813
f 888 886 887
f 890 889 815
f 890 815 816
f 880 817 882
f 817 889 882
f 817 815 889
f 817 880 811
f 886 818 814
f 888 891 886
f 891 818 886
f 891 819 818
f 819 892 820
f 891 892 819
f 894 893 821
f 820 894 821
f 892 894 820
f 896 895 893
f 896 893 894
f 898 897 895
f 898 895 896
f 823 824 897
f 898 823 897
f 899 823 898
f 816 823 890
f 890 823 899
f 893 825 821
f 825 893 826
f 826 893 895
f 826 895 827
f 827 895 897
f 827 897 824
f 900 830 831
f 832 900 831
f 901 834 835
f 901 835 902
f 835 903 902
f 835 836 903
f 904 836 837
f 904 903 836
f 905 837 838
f 905 904 837
f 838 830 900
f 906 838 900
f 905 838 906
f 906 900 832
f 839 906 832
f 907 906 839
f 908 839 840
f 908 907 839
f 909 840 841
f 909 908 840
f 841 843 909
f 909 843 910
f 911 844 845
f 846 912 845
f 845 912 911
f 913 912 846
f 913 846 834
f 914 913 834
f 901 914 834
f 914 901 902
f 915 910 843
f 915 843 847
f 847 849 915
f 915 849 916
f 918 917 911
f 917 844 911
f 917 850 844
f 918 911 912
f 918 912 919
f 919 912 913
f 849 851 920
f 921 849 920
f 916 849 921
f 852 920 851
f 922 853 854
f 923 922 854
f 850 923 854
f 917 923 850
f 924 921 920
f 920 852 924
f 852 925 924
f 852 855 925
f 927 926 922
f 926 853 922
f 926 856 853
f 927 922 923
f 928 925 855
f 928 855 857
f 857 858 928
f 928 858 929
f 926 859 856
f 930 859 926
f 860 929 858
f 860 931 929
f 930 861 859
f 932 861 930
f 862 931 860
f 862 933 931
f 932 863 861
f 934 863 932
f 864 933 862
f 864 935 933
f 934 865 863
f 936 865 934
f 866 935 864
f 866 937 935
f 936 867 865
f 938 867 936
f 868 937 866
f 868 939 937
f 938 869 867
f 940 869 938
f 870 939 868
f 870 941 939
f 940 871 869
f 942 871 940
f 872 941 870
f 872 943 941
f 942 873 871
f 944 873 942
f 947 946 945
f 946 943 945
f 943 874 945
f 943 872 874
f 949 875 948
f 875 944 948
f 875 873 944
f 950 949 948
f 953 952 951
f 951 952 947
f 951 947 945
f 877 951 945
f 876 877 945
f 876 945 874
f 949 878 875
f 955 954 879
f 955 879 878
f 950 955 878
f 949 950 878
f 956 954 955
f 958 957 881
f 958 881 882
f 881 959 883
f 957 959 881
f 951 884 953
f 884 959 953
f 884 883 959
f 884 951 877
f 954 885 879
f 956 960 954
f 960 885 954
f 960 887 885
f 888 887 960
f 888 960 961
f 890 962 889
f 962 963 889
f 963 882 889
f 963 958 882
f 961 964 888
f 888 964 891
f 891 965 892
f 964 965 891
f 892 966 894
f 965 966 892
f 894 967 896
f 966 967 894
f 896 968 898
f 967 968 896
f 898 969 899
f 968 969 898
f 890 899 962
f 899 970 962
f 899 969 970
f 962 970 963
f 971 902 903
f 904 972 903
f 903 972 971
f 905 973 904
f 904 973 972
f 906 974 905
f 905 974 973
f 907 975 906
f 906 975 974
f 908 976 907
f 907 976 975
f 909 977 908
f 908 977 976
f 910 977 909
f 979 978 914
f 914 978 913
f 914 902 971
f 980 914 971
f 979 914 980
f 980 971 972
f 980 972 981
f 981 972 973
f 981 973 982
f 982 973 974
f 982 974 983
f 983 974 975
f 983 975 984
f 984 975 976
f 984 976 985
f 985 976 977
f 985 977 986
f 988 986 987
f 987 986 915
f 986 977 915
f 977 910 915
f 916 987 915
f 989 917 918
f 989 918 990
f 918 991 990
f 918 919 991
f 919 913 978
f 919 978 991
f 992 988 987
f 987 916 992
f 916 993 992
f 916 921 993
f 995 994 989
f 994 917 989
f 994 923 917
f 995 989 990
f 996 993 921
f 996 921 924
f 924 925 996
f 996 925 997
f 998 926 927
f 999 998 927
f 923 999 927
f 994 999 923
f 925 928 1000
f 1001 925 1000
f 997 925 1001
f 929 1000 928
f 1003 1002 998
f 1002 926 998
f 1002 930 926
f 1003 998 999
f 1004 1001 1000
f 1000 929 1004
f 929 1005 1004
f 929 931 1005
f 1002 932 930
f 1006 932 1002
f 933 1005 931
f 933 1007 1005
f 1006 934 932
f 1008 934 1006
f 935 1007 933
f 935 1009 1007
f 1008 936 934
f 1010 936 1008
f 937 1009 935
f 937 1011 1009
f 1010 938 936
f 1012 938 1010
f 939 1011 937
f 939 1013 1011
f 1015 940 1014
f 940 1012 1014
f 940 938 1012
f 1016 1015 1014
f 941 1013 939
f 941 1017 1013
f 1018 942 1015
f 1015 942 940
f 1015 1016 1019
f 1015 1019 1018
f 943 1017 941
f 943 1020 1017
f 1021 944 1018
f 1018 944 942
f 1018 1019 1022
f 1018 1022 1021
f 1024 1023 946
f 1024 946 947
f 943 946 1020
f 1020 946 1023
f 1021 948 944
f 1026 1025 950
f 1026 950 948
f 1022 1026 948
f 1021 1022 948
f 1027 1025 1026
f 1029 1028 952
f 1029 952 953
f 947 952 1024
f 1024 952 1028
f 1025 955 950
f 1031 1030 956
f 1031 956 955
f 1027 1031 955
f 1025 1027 955
f 1032 1030 1031
f 1035 1034 1033
f 957 958 1033
f 1034 957 1033
f 1036 957 1034
f 957 1037 959
f 1036 1037 957
f 953 959 1029
f 1029 959 1037
f 1030 960 956
f 1039 1038 961
f 1039 961 960
f 1032 1039 960
f 1030 1032 960
f 1040 1038 1039
f 1035 1033 1041
f 1035 1041 1042
f 963 1041 958
f 958 1041 1033
f 1038 964 961
f 1040 1043 1038
f 1043 964 1038
f 1043 965 964
f 965 1044 966
f 1043 1044 965
f 966 1045 967
f 1044 1045 966
f 967 1046 968
f 1045 1046 967
f 968 1047 969
f 1046 1047 968
f 1041 970 1042
f 970 1047 1042
f 970 969 1047
f 970 1041 963
f 1048 978 979
f 1048 979 1049
f 979 1050 1049
f 979 980 1050
f 1051 980 981
f 1051 1050 980
f 1052 981 982
f 1052 1051 981
f 1053 982 983
f 1053 1052 982
f 1054 983 984
f 1054 1053 983
f 1055 984 985
f 1055 1054 984
f 1057 1055 1056
f 1055 986 1056
f 1055 985 986
f 988 1056 986
f 1058 990 991
f 1059 1058 991
f 1059 991 978
f 1060 1059 978
f 1048 1060 978
f 1060 1048 1049
f 1061 1057 1056
f 1063 1061 1062
f 1062 1061 992
f 1061 1056 992
f 1056 988 992
f 993 1062 992
f 1064 994 995
f 1065 1064 995
f 1065 995 990
f 1066 1065 990
f 1058 1066 990
f 1066 1058 1059
f 1067 1063 1062
f 1069 1067 1068
f 1068 1067 996
f 1067 1062 996
f 1062 993 996
f 997 1068 996
f 1071 1070 1064
f 1070 994 1064
f 1070 999 994
f 1071 1064 1065
f 1072 1069 1068
f 1068 997 1072
f 997 1073 1072
f 997 1001 1073
f 1074 1002 1003
f 1075 1074 1003
f 999 1075 1003
f 1070 1075 999
f 1001 1004 1076
f 1077 1001 1076
f 1073 1001 1077
f 1005 1076 1004
f 1078 1006 1074
f 1074 1006 1002
f 1074 1075 1079
f 1074 1079 1078
f 1077 1076 1080
f 1077 1080 1081
f 1007 1080 1005
f 1005 1080 1076
f 1082 1008 1078
f 1078 1008 1006
f 1078 1079 1083
f 1078 1083 1082
f 1081 1080 1084
f 1081 1084 1085
f 1009 1084 1007
f 1007 1084 1080
f 1086 1010 1082
f 1082 1010 1008
f 1082 1083 1087
f 1082 1087 1086
f 1085 1084 1088
f 1085 1088 1089
f 1011 1088 1009
f 1009 1088 1084
f 1090 1012 1086
f 1086 1012 1010
f 1086 1087 1091
f 1086 1091 1090
f 1089 1088 1092
f 1089 1092 1093
f 1013 1092 1011
f 1011 1092 1088
f 1090 1014 1012
f 1016 1014 1090
f 1091 1016 1090
f 1094 1016 1091
f 1093 1092 1095
f 1093 1095 1096
f 1017 1095 1013
f 1013 1095 1092
f 1094 1019 1016
f 1097 1019 1094
f 1096 1095 1098
f 1096 1098 1099
f 1020 1098 1017
f 1017 1098 1095
f 1101 1022 1100
f 1022 1097 1100
f 1022 1019 1097
f 1102 1101 1100
f 1099 1098 1023
f 1024 1099 1023
f 1103 1099 1024
f 1023 1098 1020
f 1101 1026 1022
f 1105 1104 1027
f 1105 1027 1026
f 1102 1105 1026
f 1101 1102 1026
f 1106 1104 1105
f 1109 1108 1107
f 1028 1029 1107
f 1108 1028 1107
f 1110 1028 1108
f 1024 1028 1103
f 1103 1028 1110
f 1104 1031 1027
f 1112 1111 1032
f 1112 1032 1031
f 1106 1112 1031
f 1104 1106 1031
f 1114 1113 1111
f 1114 1111 1112
f 1115 1113 1114
f 1117 1116 1034
f 1117 1034 1035
f 1034 1118 1036
f 1116 1118 1034
f 1107 1037 1109
f 1037 1118 1109
f 1037 1036 1118
f 1037 1107 1029
f 1111 1039 1032
f 1039 1111 1040
f 1111 1119 1040
f 1111 1113 1119
f 1113 1115 1120
f 1121 1113 1120
f 1119 1113 1121
f 1123 1122 1121
f 1123 1121 1120
f 1125 1124 1122
f 1125 1122 1123
f 1127 1126 1124
f 1127 1124 1125
f 1127 1117 1126
f 1117 1042 1126
f 1117 1035 1042
f 1119 1043 1040
f 1043 1119 1044
f 1044 1119 1121
f 1044 1121 1045
f 1045 1121 1122
f 1045 1122 1046
f 1046 1122 1124
f 1046 1124 1047
f 1047 1124 1126
f 1047 1126 1042
f 1128 1049 1050
f 1051 1129 1050
f 1050 1129 1128
f 1052 1130 1051
f 1051 1130 1129
f 1053 1131 1052
f 1052 1131 1130
f 1054 1132 1053
f 1053 1132 1131
f 1055 1133 1054
f 1054 1133 1132
f 1057 1133 1055
f 1134 1059 1060
f 1135 1134 1060
f 1135 1060 1049
f 1136 1135 1049
f 1128 1136 1049
f 1136 1128 1129
f 1136 1129 1137
f 1137 1129 1130
f 1137 1130 1138
f 1138 1130 1131
f 1138 1131 1139
f 1139 1131 1132
f 1139 1132 1140
f 1140 1132 1133
f 1140 1133 1141
f 1143 1141 1142
f 1142 1141 1061
f 1141 1133 1061
f 1133 1057 1061
f 1063 1142 1061
f 1144 1065 1066
f 1145 1144 1066
f 1145 1066 1059
f 1146 1145 1059
f 1134 1146 1059
f 1146 1134 1135
f 1147 1143 1142
f 1149 1147 1148
f 1148 1147 1067
f 1147 1142 1067
f 1142 1063 1067
f 1069 1148 1067
f 1150 1070 1071
f 1151 1150 1071
f 1151 1071 1065
f 1152 1151 1065
f 1144 1152 1065
f 1152 1144 1145
f 1153 1149 1148
f 1155 1153 1154
f 1154 1153 1072
f 1153 1148 1072
f 1148 1069 1072
f 1073 1154 1072
f 1156 1075 1150
f 1150 1075 1070
f 1150 1151 1157
f 1150 1157 1156
f 1155 1154 1158
f 1155 1158 1159
f 1077 1158 1073
f 1073 1158 1154
f 1160 1079 1156
f 1156 1079 1075
f 1156 1157 1161
f 1156 1161 1160
f 1162 1159 1158
f 1158 1077 1162
f 1077 1163 1162
f 1077 1081 1163
f 1165 1164 1160
f 1164 1079 1160
f 1164 1083 1079
f 1165 1160 1161
f 1085 1163 1081
f 1085 1166 1163
f 1164 1087 1083
f 1167 1087 1164
f 1089 1166 1085
f 1089 1168 1166
f 1167 1091 1087
f 1169 1091 1167
f 1093 1168 1089
f 1093 1170 1168
f 1169 1094 1091
f 1171 1094 1169
f 1174 1173 1172
f 1176 1175 1172
f 1176 1172 1173
f 1176 1170 1175
f 1170 1096 1175
f 1170 1093 1096
f 1178 1097 1177
f 1097 1171 1177
f 1097 1094 1171
f 1179 1178 1177
f 1174 1172 1180
f 1174 1180 1181
f 1182 1172 1175
f 1180 1172 1182
f 1099 1182 1096
f 1096 1182 1175
f 1178 1100 1097
f 1184 1183 1102
f 1184 1102 1100
f 1179 1184 1100
f 1178 1179 1100
f 1186 1185 1183
f 1186 1183 1184
f 1187 1185 1186
f 1181 1180 1188
f 1181 1188 1189
f 1190 1180 1182
f 1188 1180 1190
f 1103 1190 1099
f 1099 1190 1182
f 1183 1105 1102
f 1105 1183 1106
f 1183 1191 1106
f 1183 1185 1191
f 1185 1187 1192
f 1193 1185 1192
f 1191 1185 1193
f 1194 1193 1192
f 1197 1196 1195
f 1199 1198 1195
f 1199 1195 1196
f 1198 1199 1189
f 1198 1189 1188
f 1109 1198 1188
f 1108 1109 1188
f 1108 1188 1110
f 1110 1188 1190
f 1110 1190 1103
f 1191 1112 1106
f 1112 1191 1114
f 1114 1191 1193
f 1201 1200 1115
f 1201 1115 1114
f 1194 1201 1114
f 1193 1194 1114
f 1203 1202 1200
f 1203 1200 1201
f 1204 1202 1203
f 1207 1206 1205
f 1205 1206 1197
f 1205 1197 1195
f 1117 1205 1195
f 1116 1117 1195
f 1116 1195 1118
f 1118 1195 1198
f 1118 1198 1109
f 1200 1120 1115
f 1120 1200 1123
f 1123 1200 1202
f 1204 1208 1202
f 1208 1123 1202
f 1208 1125 1123
f 1205 1127 1207
f 1127 1208 1207
f 1127 1125 1208
f 1127 1205 1117
f 1209 1135 1136
f 1137 1210 1136
f 1136 1210 1209
f 1138 1211 1137
f 1137 1211 1210
f 1139 1212 1138
f 1138 1212 1211
f 1140 1213 1139
f 1139 1213 1212
f 1141 1214 1140
f 1140 1214 1213
f 1143 1214 1141
f 1215 1145 1146
f 1216 1215 1146
f 1216 1146 1135
f 1217 1216 1135
f 1209 1217 1135
f 1217 1209 1210
f 1217 1210 1218
f 1218 1210 1211
f 1218 1211 1219
f 1219 1211 1212
f 1219 1212 1220
f 1222 1221 1220
f 1212 1222 1220
f 1213 1222 1212
f 1223 1213 1214
f 1222 1213 1223
f 1147 1224 1143
f 1224 1214 1143
f 1224 1223 1214
f 1149 1224 1147
f 1225 1151 1152
f 1226 1225 1152
f 1226 1152 1145
f 1227 1226 1145
f 1215 1227 1145
f 1227 1215 1216
f 1228 1221 1222
f 1228 1222 1223
f 1228 1223 1229
f 1231 1230 1229
f 1223 1231 1229
f 1224 1231 1223
f 1153 1232 1149
f 1232 1224 1149
f 1232 1231 1224
f 1155 1232 1153
f 1233 1157 1225
f 1225 1157 1151
f 1225 1226 1234
f 1225 1234 1233
f 1237 1236 1235
f 1235 1236 1230
f 1231 1235 1230
f 1238 1235 1231
f 1239 1231 1232
f 1238 1231 1239
f 1159 1239 1155
f 1155 1239 1232
f 1241 1240 1233
f 1240 1157 1233
f 1240 1161 1157
f 1241 1233 1234
f 1237 1235 1242
f 1237 1242 1243
f 1244 1235 1238
f 1242 1235 1244
f 1245 1238 1239
f 1244 1238 1245
f 1162 1246 1159
f 1246 1239 1159
f 1246 1245 1239
f 1163 1246 1162
f 1247 1164 1165
f 1248 1247 1165
f 1161 1248 1165
f 1240 1248 1161
f 1243 1242 1249
f 1243 1249 1250
f 1251 1242 1244
f 1249 1242 1251
f 1252 1244 1245
f 1251 1244 1252
f 1253 1245 1246
f 1252 1245 1253
f 1166 1253 1163
f 1163 1253 1246
f 1254 1167 1247
f 1247 1167 1164
f 1247 1248 1255
f 1247 1255 1254
f 1256 1250 1249
f 1256 1249 1251
f 1256 1251 1257
f 1257 1251 1252
f 1257 1252 1258
f 1260 1259 1258
f 1252 1260 1258
f 1253 1260 1252
f 1168 1260 1166
f 1166 1260 1253
f 1261 1169 1254
f 1254 1169 1167
f 1254 1255 1262
f 1254 1262 1261
f 1259 1260 1263
f 1259 1263 1264
f 1170 1263 1168
f 1168 1263 1260
f 1265 1171 1261
f 1261 1171 1169
f 1261 1262 1266
f 1267 1261 1266
f 1265 1261 1267
f 1268 1267 1266
f 1271 1270 1269
f 1273 1272 1269
f 1273 1269 1270
f 1173 1174 1272
f 1273 1173 1272
f 1274 1173 1273
f 1263 1176 1264
f 1176 1274 1264
f 1176 1173 1274
f 1176 1263 1170
f 1265 1177 1171
f 1177 1265 1179
f 1265 1275 1179
f 1265 1267 1275
f 1267 1268 1276
f 1267 1276 1275
f 1279 1278 1277
f 1277 1278 1271
f 1269 1277 1271
f 1280 1277 1269
f 1281 1269 1272
f 1280 1269 1281
f 1181 1281 1174
f 1174 1281 1272
f 1275 1184 1179
f 1276 1282 1275
f 1282 1184 1275
f 1282 1186 1184
f 1284 1283 1187
f 1186 1284 1187
f 1282 1284 1186
f 1286 1285 1283
f 1286 1283 1284
f 1288 1287 1285
f 1288 1285 1286
f 1290 1289 1287
f 1290 1287 1288
f 1289 1290 1279
f 1277 1289 1279
f 1291 1289 1277
f 1292 1277 1280
f 1291 1277 1292
f 1293 1280 1281
f 1292 1280 1293
f 1189 1293 1181
f 1181 1293 1281
f 1283 1192 1187
f 1192 1283 1194
f 1283 1294 1194
f 1283 1285 1294
f 1295 1285 1287
f 1294 1285 1295
f 1296 1287 1289
f 1295 1287 1296
f 1297 1289 1291
f 1296 1289 1297
f 1197 1297 1196
f 1297 1292 1196
f 1297 1291 1292
f 1196 1292 1199
f 1199 1292 1293
f 1199 1293 1189
f 1294 1201 1194
f 1201 1294 1203
f 1203 1294 1295
f 1203 1295 1204
f 1295 1298 1204
f 1295 1296 1298
f 1207 1298 1206
f 1298 1297 1206
f 1298 1296 1297
f 1206 1297 1197
f 1298 1208 1204
f 1208 1298 1207
f 1299 1216 1217
f 1218 1300 1217
f 1217 1300 1299
f 1219 1301 1218
f 1218 1301 1300
f 1220 1302 1219
f 1219 1302 1301
f 1221 1302 1220
f 1303 1226 1227
f 1216 1299 1227
f 1299 1303 1227
f 1299 1304 1303
f 1305 1299 1300
f 1304 1299 1305
f 1306 1300 1301
f 1305 1300 1306
f 1307 1301 1302
f 1306 1301 1307
f 1228 1308 1221
f 1308 1302 1221
f 1308 1307 1302
f 1229 1309 1228
f 1228 1309 1308
f 1230 1309 1229
f 1310 1234 1303
f 1303 1234 1226
f 1311 1303 1304
f 1310 1303 1311
f 1312 1304 1305
f 1311 1304 1312
f 1313 1305 1306
f 1312 1305 1313
f 1314 1306 1307
f 1313 1306 1314
f 1315 1307 1308
f 1314 1307 1315
f 1237 1315 1236
f 1315 1309 1236
f 1315 1308 1309
f 1236 1309 1230
f 1316 1240 1241
f 1234 1310 1241
f 1310 1316 1241
f 1310 1317 1316
f 1318 1310 1311
f 1317 1310 1318
f 1319 1311 1312
f 1318 1311 1319
f 1320 1312 1313
f 1319 1312 1320
f 1321 1313 1314
f 1320 1313 1321
f 1322 1314 1315
f 1321 1314 1322
f 1243 1322 1237
f 1237 1322 1315
f 1323 1248 1316
f 1316 1248 1240
f 1324 1316 1317
f 1323 1316 1324
f 1325 1317 1318
f 1324 1317 1325
f 1319 1327 1326
f 1325 1319 1326
f 1318 1319 1325
f 1327 1319 1320
f 1327 1320 1328
f 1328 1320 1321
f 1328 1321 1329
f 1329 1321 1322
f 1329 1322 1330
f 1322 1243 1330
f 1243 1331 1330
f 1243 1250 1331
f 1332 1255 1323
f 1323 1255 1248
f 1333 1323 1324
f 1332 1323 1333
f 1334 1324 1325
f 1333 1324 1334
f 1325 1326 1335
f 1325 1335 1334
f 1250 1256 1336
f 1337 1250 1336
f 1331 1250 1337
f 1257 1338 1256
f 1256 1338 1336
f 1258 1339 1257
f 1257 1339 1338
f 1259 1339 1258
f 1340 1262 1332
f 1332 1262 1255
f 1341 1332 1333
f 1340 1332 1341
f 1342 1333 1334
f 1341 1333 1342
f 1334 1335 1343
f 1334 1343 1342
f 1337 1336 1344
f 1337 1344 1345
f 1346 1336 1338
f 1344 1336 1346
f 1347 1338 1339
f 1346 1338 1347
f 1264 1347 1259
f 1259 1347 1339
f 1340 1266 1262
f 1266 1340 1268
f 1340 1348 1268
f 1340 1341 1348
f 1349 1341 1342
f 1348 1341 1349
f 1342 1343 1350
f 1351 1342 1350
f 1349 1342 1351
f 1352 1351 1350
f 1345 1344 1270
f 1271 1345 1270
f 1353 1345 1271
f 1270 1344 1273
f 1273 1344 1346
f 1273 1346 1274
f 1274 1346 1347
f 1274 1347 1264
f 1354 1276 1348
f 1348 1276 1268
f 1355 1348 1349
f 1354 1348 1355
f 1356 1349 1351
f 1355 1349 1356
f 1351 1352 1357
f 1358 1351 1357
f 1356 1351 1358
f 1359 1358 1357
f 1361 1360 1278
f 1361 1278 1279
f 1271 1278 1353
f 1353 1278 1360
f 1354 1282 1276
f 1282 1354 1284
f 1284 1354 1355
f 1284 1355 1286
f 1286 1355 1356
f 1286 1356 1288
f 1288 1356 1358
f 1359 1362 1358
f 1362 1288 1358
f 1362 1290 1288
f 1279 1290 1361
f 1361 1290 1362
f 1363 1326 1327
f 1328 1364 1327
f 1327 1364 1363
f 1329 1365 1328
f 1328 1365 1364
f 1330 1366 1329
f 1329 1366 1365
f 1331 1366 1330
f 1367 1335 1363
f 1363 1335 1326
f 1368 1363 1364
f 1367 1363 1368
f 1369 1364 1365
f 1368 1364 1369
f 1370 1365 1366
f 1369 1365 1370
f 1337 1370 1331
f 1331 1370 1366
f 1371 1343 1367
f 1367 1343 1335
f 1372 1367 1368
f 1371 1367 1372
f 1373 1368 1369
f 1372 1368 1373
f 1374 1369 1370
f 1373 1369 1374
f 1345 1374 1337
f 1337 1374 1370
f 1371 1350 1343
f 1350 1371 1352
f 1371 1375 1352
f 1371 1372 1375
f 1376 1372 1373
f 1375 1372 1376
f 1377 1373 1374
f 1376 1373 1377
f 1353 1377 1345
f 1345 1377 1374
f 1375 1357 1352
f 1357 1375 1359
f 1375 1378 1359
f 1375 1376 1378
f 1361 1378 1360
f 1378 1377 1360
f 1378 1376 1377
f 1360 1377 1353
f 1378 1362 1359
f 1362 1378 1361
