ply
format ascii 1.0
element vertex 1378
property float x
property float y
property float z
element face 2752
property list uchar int vertex_indices
end_header
-1.27555463 -0.35361808 -0.21428571
-1.20412606 -0.35361808 -0.28571429
-1.20412606 -0.42504665 -0.21428571
-1.20412606 -0.42504665 -0.07142857
-1.27555463 -0.35361808 -0.07142857
-1.20412606 -0.42504665 0.07142857
-1.27555463 -0.35361808 0.07142857
-1.20412606 -0.42504665 0.21428571
-1.27555463 -0.35361808 0.21428571
-1.20412606 -0.35361808 0.28571429
-1.27555463 -0.21076094 -0.35714286
-1.20412606 -0.21076094 -0.42857143
-1.20412606 -0.28218951 -0.35714286
-1.27555463 -0.21076094 -0.21428571
-1.27555463 -0.21076094 -0.07142857
-1.27555463 -0.21076094 0.07142857
-1.27555463 -0.21076094 0.21428571
-1.20412606 -0.21076094 0.28571429
-1.27555463 -0.06790379 -0.35714286
-1.20412606 -0.06790379 -0.42857143
-1.27555463 -0.06790379 -0.21428571
-1.27555463 -0.06790379 -0.07142857
-1.27555463 -0.06790379 0.07142857
-1.27555463 -0.06790379 0.21428571
-1.20412606 -0.06790379 0.28571429
-1.27555463 0.07495335 -0.35714286
-1.20412606 0.07495335 -0.42857143
-1.27555463 0.07495335 -0.21428571
-1.27555463 0.07495335 -0.07142857
-1.27555463 0.07495335 0.07142857
-1.27555463 0.07495335 0.21428571
-1.20412606 0.07495335 0.28571429
-1.27555463 0.21781049 -0.35714286
-1.20412606 0.21781049 -0.42857143
-1.27555463 0.21781049 -0.21428571
-1.27555463 0.21781049 -0.07142857
-1.27555463 0.21781049 0.07142857
-1.27555463 0.21781049 0.21428571
-1.20412606 0.14638192 0.35714286
-1.27555463 0.21781049 0.35714286
-1.20412606 0.21781049 0.42857143
-1.27555463 0.36066763 -0.35714286
-1.20412606 0.36066763 -0.42857143
-1.27555463 0.36066763 -0.21428571
-1.27555463 0.36066763 -0.07142857
-1.27555463 0.36066763 0.07142857
-1.27555463 0.36066763 0.21428571
-1.20412606 0.36066763 0.28571429
-1.20412606 0.28923906 0.35714286
-1.20412606 0.43209621 -0.35714286
-1.20412606 0.43209621 -0.21428571
-1.20412606 0.43209621 -0.07142857
-1.20412606 0.43209621 0.07142857
-1.20412606 0.43209621 0.21428571
-1.13269749 -0.63933237 -0.21428571
-1.06126892 -0.63933237 -0.28571429
-1.06126892 -0.71076094 -0.21428571
-1.06126892 -0.71076094 -0.07142857
-1.13269749 -0.63933237 -0.07142857
-1.06126892 -0.71076094 0.07142857
-1.13269749 -0.63933237 0.07142857
-1.06126892 -0.71076094 0.21428571
-1.13269749 -0.63933237 0.21428571
-1.06126892 -0.63933237 0.28571429
-1.13269749 -0.49647522 -0.35714286
-1.06126892 -0.49647522 -0.42857143
-1.06126892 -0.56790379 -0.35714286
-1.13269749 -0.49647522 -0.21428571
-1.13269749 -0.49647522 -0.07142857
-1.13269749 -0.49647522 0.07142857
-1.13269749 -0.49647522 0.21428571
-1.06126892 -0.56790379 0.35714286
-1.13269749 -0.49647522 0.35714286
-1.06126892 -0.56790379 0.50000000
-1.13269749 -0.49647522 0.50000000
-1.06126892 -0.49647522 0.57142857
-1.13269749 -0.35361808 -0.50000000
-1.06126892 -0.35361808 -0.57142857
-1.06126892 -0.42504665 -0.50000000
-1.13269749 -0.35361808 -0.35714286
-1.13269749 -0.35361808 0.35714286
-1.13269749 -0.35361808 0.50000000
-1.06126892 -0.35361808 0.57142857
-1.13269749 -0.21076094 -0.64285714
-1.06126892 -0.21076094 -0.71428571
-1.06126892 -0.28218951 -0.64285714
-1.13269749 -0.21076094 -0.50000000
-1.13269749 -0.21076094 0.35714286
-1.13269749 -0.21076094 0.50000000
-1.06126892 -0.28218951 0.64285714
-1.13269749 -0.21076094 0.64285714
-1.06126892 -0.21076094 0.71428571
-1.13269749 -0.06790379 -0.64285714
-1.06126892 -0.06790379 -0.71428571
-1.13269749 -0.06790379 -0.50000000
-1.13269749 -0.06790379 0.35714286
-1.13269749 -0.06790379 0.50000000
-1.06126892 -0.06790379 0.57142857
-1.06126892 -0.13933237 0.64285714
-1.13269749 0.07495335 -0.64285714
-1.06126892 0.07495335 -0.71428571
-1.13269749 0.07495335 -0.50000000
-1.13269749 0.07495335 0.35714286
-1.13269749 0.07495335 0.50000000
-1.06126892 0.07495335 0.57142857
-1.13269749 0.21781049 -0.64285714
-1.06126892 0.21781049 -0.71428571
-1.13269749 0.21781049 -0.50000000
-1.13269749 0.21781049 0.50000000
-1.06126892 0.21781049 0.57142857
-1.13269749 0.36066763 -0.64285714
-1.06126892 0.36066763 -0.71428571
-1.13269749 0.36066763 -0.50000000
-1.13269749 0.36066763 0.35714286
-1.13269749 0.36066763 0.50000000
-1.06126892 0.36066763 0.57142857
-1.06126892 0.43209621 -0.64285714
-1.13269749 0.50352478 -0.50000000
-1.06126892 0.50352478 -0.57142857
-1.13269749 0.50352478 -0.35714286
-1.13269749 0.50352478 -0.21428571
-1.13269749 0.50352478 -0.07142857
-1.13269749 0.50352478 0.07142857
-1.13269749 0.50352478 0.21428571
-1.13269749 0.50352478 0.35714286
-1.06126892 0.50352478 0.42857143
-1.06126892 0.43209621 0.50000000
-1.06126892 0.57495335 -0.50000000
-1.13269749 0.64638192 -0.35714286
-1.06126892 0.64638192 -0.42857143
-1.13269749 0.64638192 -0.21428571
-1.13269749 0.64638192 -0.07142857
-1.13269749 0.64638192 0.07142857
-1.13269749 0.64638192 0.21428571
-1.13269749 0.64638192 0.35714286
-1.06126892 0.64638192 0.42857143
-1.06126892 0.71781049 -0.35714286
-1.06126892 0.71781049 -0.21428571
-1.06126892 0.71781049 -0.07142857
-1.06126892 0.71781049 0.07142857
-1.06126892 0.71781049 0.21428571
-1.06126892 0.71781049 0.35714286
-0.98984035 -0.78218951 -0.50000000
-0.91841178 -0.78218951 -0.57142857
-0.91841178 -0.85361808 -0.50000000
-0.91841178 -0.85361808 -0.35714286
-0.98984035 -0.78218951 -0.35714286
-0.91841178 -0.85361808 -0.21428571
-0.98984035 -0.78218951 -0.21428571
-0.91841178 -0.85361808 -0.07142857
-0.98984035 -0.78218951 -0.07142857
-0.91841178 -0.85361808 0.07142857
-0.98984035 -0.78218951 0.07142857
-0.91841178 -0.85361808 0.21428571
-0.98984035 -0.78218951 0.21428571
-0.91841178 -0.85361808 0.35714286
-0.98984035 -0.78218951 0.35714286
-0.91841178 -0.78218951 0.42857143
-0.98984035 -0.63933237 -0.50000000
-0.91841178 -0.63933237 -0.57142857
-0.98984035 -0.63933237 -0.35714286
-0.98984035 -0.63933237 0.35714286
-0.91841178 -0.71076094 0.50000000
-0.98984035 -0.63933237 0.50000000
-0.91841178 -0.63933237 0.57142857
-0.98984035 -0.49647522 -0.64285714
-0.91841178 -0.49647522 -0.71428571
-0.91841178 -0.56790379 -0.64285714
-0.98984035 -0.49647522 -0.50000000
-0.91841178 -0.56790379 0.64285714
-0.98984035 -0.49647522 0.64285714
-0.91841178 -0.49647522 0.71428571
-0.98984035 -0.35361808 -0.78571429
-0.91841178 -0.35361808 -0.85714286
-0.91841178 -0.42504665 -0.78571429
-0.98984035 -0.35361808 -0.64285714
-0.98984035 -0.35361808 0.64285714
-0.91841178 -0.35361808 0.71428571
-0.98984035 -0.21076094 -0.78571429
-0.91841178 -0.21076094 -0.85714286
-0.91841178 -0.28218951 0.78571429
-0.98984035 -0.21076094 0.78571429
-0.91841178 -0.21076094 0.85714286
-0.98984035 -0.06790379 -0.78571429
-0.91841178 -0.06790379 -0.85714286
-0.98984035 -0.06790379 0.64285714
-0.98984035 -0.06790379 0.78571429
-0.91841178 -0.06790379 0.85714286
-0.98984035 0.07495335 -0.78571429
-0.91841178 0.07495335 -0.85714286
-0.98984035 0.07495335 0.64285714
-0.98984035 0.07495335 0.78571429
-0.91841178 0.07495335 0.85714286
-0.98984035 0.21781049 -0.78571429
-0.91841178 0.21781049 -0.85714286
-0.98984035 0.21781049 0.64285714
-0.98984035 0.21781049 0.78571429
-0.91841178 0.21781049 0.85714286
-0.98984035 0.36066763 -0.78571429
-0.91841178 0.36066763 -0.85714286
-0.98984035 0.36066763 0.64285714
-0.91841178 0.36066763 0.71428571
-0.91841178 0.28923906 0.78571429
-0.91841178 0.43209621 -0.78571429
-0.98984035 0.50352478 -0.64285714
-0.91841178 0.50352478 -0.71428571
-0.98984035 0.50352478 0.50000000
-0.98984035 0.50352478 0.64285714
-0.91841178 0.50352478 0.71428571
-0.98984035 0.64638192 -0.64285714
-0.91841178 0.64638192 -0.71428571
-0.98984035 0.64638192 -0.50000000
-0.98984035 0.64638192 0.50000000
-0.91841178 0.64638192 0.57142857
-0.91841178 0.57495335 0.64285714
-0.91841178 0.71781049 -0.64285714
-0.98984035 0.78923906 -0.50000000
-0.91841178 0.78923906 -0.57142857
-0.98984035 0.78923906 -0.35714286
-0.98984035 0.78923906 -0.21428571
-0.98984035 0.78923906 -0.07142857
-0.98984035 0.78923906 0.07142857
-0.98984035 0.78923906 0.21428571
-0.98984035 0.78923906 0.35714286
-0.91841178 0.78923906 0.42857143
-0.91841178 0.71781049 0.50000000
-0.91841178 0.86066763 -0.50000000
-0.91841178 0.86066763 -0.35714286
-0.91841178 0.86066763 -0.21428571
-0.91841178 0.86066763 -0.07142857
-0.91841178 0.86066763 0.07142857
-0.91841178 0.86066763 0.21428571
-0.91841178 0.86066763 0.35714286
-0.84698321 -0.92504665 -0.35714286
-0.77555463 -0.92504665 -0.42857143
-0.77555463 -0.99647522 -0.35714286
-0.77555463 -0.99647522 -0.21428571
-0.84698321 -0.92504665 -0.21428571
-0.77555463 -0.99647522 -0.07142857
-0.84698321 -0.92504665 -0.07142857
-0.77555463 -0.99647522 0.07142857
-0.84698321 -0.92504665 0.07142857
-0.77555463 -0.99647522 0.21428571
-0.84698321 -0.92504665 0.21428571
-0.77555463 -0.99647522 0.35714286
-0.84698321 -0.92504665 0.35714286
-0.77555463 -0.92504665 0.42857143
-0.77555463 -0.78218951 -0.57142857
-0.77555463 -0.85361808 -0.50000000
-0.77555463 -0.85361808 0.50000000
-0.84698321 -0.78218951 0.50000000
-0.77555463 -0.78218951 0.57142857
-0.84698321 -0.63933237 -0.64285714
-0.77555463 -0.63933237 -0.71428571
-0.77555463 -0.71076094 -0.64285714
-0.77555463 -0.71076094 0.64285714
-0.84698321 -0.63933237 0.64285714
-0.77555463 -0.63933237 0.71428571
-0.84698321 -0.49647522 -0.78571429
-0.77555463 -0.49647522 -0.85714286
-0.77555463 -0.56790379 -0.78571429
-0.77555463 -0.49647522 0.71428571
-0.77555463 -0.35361808 -0.85714286
-0.77555463 -0.35361808 0.71428571
-0.77555463 -0.21076094 -0.85714286
-0.77555463 -0.28218951 0.78571429
-0.77555463 -0.21076094 0.85714286
-0.77555463 -0.06790379 -0.85714286
-0.77555463 -0.06790379 0.85714286
-0.77555463 0.07495335 -0.85714286
-0.77555463 0.07495335 0.85714286
-0.77555463 0.21781049 -0.85714286
-0.77555463 0.21781049 0.85714286
-0.77555463 0.36066763 -0.85714286
-0.84698321 0.36066763 0.78571429
-0.77555463 0.36066763 0.85714286
-0.84698321 0.50352478 -0.78571429
-0.77555463 0.50352478 -0.85714286
-0.84698321 0.50352478 0.78571429
-0.77555463 0.50352478 0.85714286
-0.77555463 0.57495335 -0.78571429
-0.77555463 0.64638192 -0.71428571
-0.84698321 0.64638192 0.64285714
-0.77555463 0.64638192 0.71428571
-0.77555463 0.57495335 0.78571429
-0.84698321 0.78923906 -0.64285714
-0.77555463 0.78923906 -0.71428571
-0.84698321 0.78923906 0.50000000
-0.77555463 0.78923906 0.57142857
-0.77555463 0.71781049 0.64285714
-0.77555463 0.86066763 -0.64285714
-0.77555463 0.86066763 -0.50000000
-0.84698321 0.93209621 -0.35714286
-0.77555463 0.93209621 -0.42857143
-0.84698321 0.93209621 -0.21428571
-0.84698321 0.93209621 -0.07142857
-0.84698321 0.93209621 0.07142857
-0.84698321 0.93209621 0.21428571
-0.77555463 0.93209621 0.28571429
-0.77555463 0.86066763 0.35714286
-0.77555463 0.86066763 0.50000000
-0.77555463 1.00352478 -0.35714286
-0.77555463 1.00352478 -0.21428571
-0.77555463 1.00352478 -0.07142857
-0.77555463 1.00352478 0.07142857
-0.77555463 1.00352478 0.21428571
-0.70412606 -1.06790379 -0.35714286
-0.63269749 -1.06790379 -0.42857143
-0.63269749 -1.13933237 -0.35714286
-0.63269749 -1.13933237 -0.21428571
-0.70412606 -1.06790379 -0.21428571
-0.63269749 -1.13933237 -0.07142857
-0.70412606 -1.06790379 -0.07142857
-0.63269749 -1.13933237 0.07142857
-0.70412606 -1.06790379 0.07142857
-0.63269749 -1.13933237 0.21428571
-0.70412606 -1.06790379 0.21428571
-0.63269749 -1.13933237 0.35714286
-0.70412606 -1.06790379 0.35714286
-0.63269749 -1.06790379 0.42857143
-0.70412606 -0.92504665 -0.50000000
-0.63269749 -0.92504665 -0.57142857
-0.63269749 -0.99647522 -0.50000000
-0.63269749 -0.99647522 0.50000000
-0.70412606 -0.92504665 0.50000000
-0.63269749 -0.92504665 0.57142857
-0.63269749 -0.78218951 -0.57142857
-0.63269749 -0.85361808 0.64285714
-0.70412606 -0.78218951 0.64285714
-0.63269749 -0.78218951 0.71428571
-0.63269749 -0.63933237 -0.71428571
-0.63269749 -0.71076094 -0.64285714
-0.63269749 -0.71076094 0.78571429
-0.70412606 -0.63933237 0.78571429
-0.63269749 -0.63933237 0.85714286
-0.63269749 -0.49647522 -0.85714286
-0.63269749 -0.56790379 -0.78571429
-0.70412606 -0.49647522 0.78571429
-0.63269749 -0.49647522 0.85714286
-0.70412606 -0.35361808 -0.92857143
-0.63269749 -0.35361808 -1.00000000
-0.63269749 -0.42504665 -0.92857143
-0.70412606 -0.35361808 0.78571429
-0.63269749 -0.42504665 0.92857143
-0.70412606 -0.35361808 0.92857143
-0.63269749 -0.35361808 1.00000000
-0.70412606 -0.21076094 -0.92857143
-0.63269749 -0.21076094 -1.00000000
-0.63269749 -0.28218951 0.92857143
-0.63269749 -0.21076094 0.85714286
-0.70412606 -0.06790379 -0.92857143
-0.63269749 -0.06790379 -1.00000000
-0.63269749 -0.06790379 0.85714286
-0.70412606 0.07495335 -0.92857143
-0.63269749 0.07495335 -1.00000000
-0.63269749 0.07495335 0.85714286
-0.70412606 0.21781049 -0.92857143
-0.63269749 0.21781049 -1.00000000
-0.63269749 0.14638192 0.92857143
-0.70412606 0.21781049 0.92857143
-0.63269749 0.21781049 1.00000000
-0.70412606 0.36066763 -0.92857143
-0.63269749 0.36066763 -1.00000000
-0.63269749 0.28923906 0.92857143
-0.63269749 0.36066763 0.85714286
-0.70412606 0.50352478 -0.92857143
-0.63269749 0.50352478 -1.00000000
-0.63269749 0.50352478 0.85714286
-0.63269749 0.57495335 -0.92857143
-0.70412606 0.64638192 -0.78571429
-0.63269749 0.64638192 -0.85714286
-0.63269749 0.57495335 0.78571429
-0.63269749 0.64638192 0.71428571
-0.63269749 0.71781049 -0.78571429
-0.63269749 0.78923906 -0.71428571
-0.63269749 0.71781049 0.64285714
-0.63269749 0.78923906 0.57142857
-0.63269749 0.86066763 -0.64285714
-0.70412606 0.93209621 -0.50000000
-0.63269749 0.93209621 -0.57142857
-0.63269749 0.86066763 0.35714286
-0.63269749 0.93209621 0.28571429
-0.63269749 0.86066763 0.50000000
-0.63269749 1.00352478 -0.50000000
-0.63269749 1.00352478 -0.35714286
-0.70412606 1.07495335 -0.21428571
-0.63269749 1.07495335 -0.28571429
-0.70412606 1.07495335 -0.07142857
-0.70412606 1.07495335 0.07142857
-0.63269749 1.07495335 0.14285714
-0.63269749 1.00352478 0.21428571
-0.63269749 1.14638192 -0.21428571
-0.63269749 1.14638192 -0.07142857
-0.63269749 1.14638192 0.07142857
-0.56126892 -1.06790379 -0.50000000
-0.48984035 -1.06790379 -0.57142857
-0.48984035 -1.13933237 -0.50000000
-0.48984035 -1.13933237 -0.35714286
-0.48984035 -1.13933237 -0.21428571
-0.48984035 -1.13933237 -0.07142857
-0.48984035 -1.13933237 0.07142857
-0.48984035 -1.13933237 0.21428571
-0.48984035 -1.13933237 0.35714286
-0.48984035 -1.06790379 0.42857143
-0.56126892 -0.92504665 -0.64285714
-0.48984035 -0.92504665 -0.71428571
-0.48984035 -0.99647522 -0.64285714
-0.48984035 -0.99647522 0.50000000
-0.48984035 -0.99647522 0.64285714
-0.56126892 -0.92504665 0.64285714
-0.48984035 -0.92504665 0.71428571
-0.56126892 -0.78218951 -0.78571429
-0.48984035 -0.78218951 -0.85714286
-0.48984035 -0.85361808 -0.78571429
-0.56126892 -0.78218951 -0.64285714
-0.48984035 -0.85361808 0.78571429
-0.56126892 -0.78218951 0.78571429
-0.48984035 -0.78218951 0.85714286
-0.56126892 -0.63933237 -0.78571429
-0.48984035 -0.63933237 -0.85714286
-0.48984035 -0.63933237 0.85714286
-0.56126892 -0.49647522 -0.92857143
-0.48984035 -0.49647522 -1.00000000
-0.48984035 -0.56790379 -0.92857143
-0.48984035 -0.56790379 0.92857143
-0.56126892 -0.49647522 0.92857143
-0.48984035 -0.49647522 1.00000000
-0.48984035 -0.35361808 -1.00000000
-0.48984035 -0.35361808 1.00000000
-0.48984035 -0.21076094 -1.00000000
-0.56126892 -0.21076094 0.92857143
-0.48984035 -0.21076094 1.00000000
-0.48984035 -0.06790379 -1.00000000
-0.56126892 -0.06790379 0.92857143
-0.48984035 -0.06790379 1.00000000
-0.48984035 0.07495335 -1.00000000
-0.56126892 0.07495335 0.92857143
-0.48984035 0.07495335 1.00000000
-0.48984035 0.21781049 -1.00000000
-0.48984035 0.21781049 1.00000000
-0.48984035 0.36066763 -1.00000000
-0.48984035 0.28923906 0.92857143
-0.48984035 0.36066763 0.85714286
-0.48984035 0.50352478 -1.00000000
-0.48984035 0.50352478 0.85714286
-0.56126892 0.64638192 -0.92857143
-0.48984035 0.64638192 -1.00000000
-0.48984035 0.57495335 0.78571429
-0.48984035 0.64638192 0.71428571
-0.48984035 0.71781049 -0.92857143
-0.56126892 0.78923906 -0.78571429
-0.48984035 0.78923906 -0.85714286
-0.56126892 0.78923906 0.64285714
-0.48984035 0.78923906 0.71428571
-0.48984035 0.86066763 -0.78571429
-0.56126892 0.93209621 -0.64285714
-0.48984035 0.93209621 -0.71428571
-0.56126892 0.93209621 0.35714286
-0.56126892 0.93209621 0.50000000
-0.48984035 0.93209621 0.57142857
-0.48984035 0.86066763 0.64285714
-0.48984035 1.00352478 -0.64285714
-0.48984035 1.00352478 -0.50000000
-0.56126892 1.07495335 -0.35714286
-0.48984035 1.07495335 -0.42857143
-0.56126892 1.07495335 0.21428571
-0.48984035 1.07495335 0.28571429
-0.48984035 1.00352478 0.35714286
-0.48984035 1.00352478 0.50000000
-0.48984035 1.14638192 -0.35714286
-0.48984035 1.14638192 -0.21428571
-0.48984035 1.14638192 -0.07142857
-0.48984035 1.14638192 0.07142857
-0.48984035 1.14638192 0.21428571
-0.41841178 -1.21076094 -0.07142857
-0.34698321 -1.21076094 -0.14285714
-0.34698321 -1.28218951 -0.07142857
-0.34698321 -1.28218951 0.07142857
-0.41841178 -1.21076094 0.07142857
-0.34698321 -1.21076094 0.14285714
-0.34698321 -1.06790379 -0.57142857
-0.34698321 -1.13933237 -0.50000000
-0.34698321 -1.13933237 -0.35714286
-0.34698321 -1.13933237 -0.21428571
-0.34698321 -1.13933237 0.21428571
-0.34698321 -1.13933237 0.35714286
-0.34698321 -1.13933237 0.50000000
-0.41841178 -1.06790379 0.50000000
-0.34698321 -1.06790379 0.57142857
-0.34698321 -0.92504665 -0.71428571
-0.34698321 -0.99647522 -0.64285714
-0.34698321 -0.99647522 0.64285714
-0.34698321 -0.92504665 0.71428571
-0.34698321 -0.78218951 -0.85714286
-0.34698321 -0.85361808 -0.78571429
-0.34698321 -0.85361808 0.78571429
-0.34698321 -0.78218951 0.85714286
-0.41841178 -0.63933237 -0.92857143
-0.34698321 -0.63933237 -1.00000000
-0.34698321 -0.71076094 -0.92857143
-0.34698321 -0.71076094 0.92857143
-0.41841178 -0.63933237 0.92857143
-0.34698321 -0.63933237 1.00000000
-0.34698321 -0.49647522 -1.00000000
-0.34698321 -0.49647522 1.00000000
-0.34698321 -0.35361808 -1.00000000
-0.34698321 -0.35361808 1.00000000
-0.34698321 -0.21076094 -1.00000000
-0.34698321 -0.21076094 1.00000000
-0.34698321 -0.06790379 -1.00000000
-0.34698321 -0.06790379 1.00000000
-0.34698321 0.07495335 -1.00000000
-0.34698321 0.07495335 1.00000000
-0.34698321 0.21781049 -1.00000000
-0.34698321 0.21781049 1.00000000
-0.34698321 0.36066763 -1.00000000
-0.41841178 0.36066763 0.92857143
-0.34698321 0.36066763 1.00000000
-0.34698321 0.50352478 -1.00000000
-0.41841178 0.50352478 0.92857143
-0.34698321 0.50352478 1.00000000
-0.34698321 0.64638192 -1.00000000
-0.41841178 0.64638192 0.78571429
-0.34698321 0.64638192 0.85714286
-0.34698321 0.57495335 0.92857143
-0.34698321 0.71781049 -0.92857143
-0.34698321 0.78923906 -0.85714286
-0.41841178 0.78923906 0.78571429
-0.34698321 0.78923906 0.85714286
-0.41841178 0.93209621 -0.78571429
-0.34698321 0.93209621 -0.85714286
-0.34698321 0.86066763 0.64285714
-0.34698321 0.93209621 0.57142857
-0.34698321 0.86066763 0.78571429
-0.34698321 1.00352478 -0.78571429
-0.34698321 1.00352478 -0.64285714
-0.41841178 1.07495335 -0.50000000
-0.34698321 1.07495335 -0.57142857
-0.34698321 1.00352478 0.35714286
-0.34698321 1.07495335 0.28571429
-0.34698321 1.00352478 0.50000000
-0.34698321 1.14638192 -0.50000000
-0.41841178 1.21781049 -0.35714286
-0.34698321 1.21781049 -0.42857143
-0.41841178 1.21781049 -0.21428571
-0.41841178 1.21781049 -0.07142857
-0.41841178 1.21781049 0.07142857
-0.41841178 1.21781049 0.21428571
-0.34698321 1.21781049 0.28571429
-0.34698321 1.28923906 -0.35714286
-0.34698321 1.28923906 -0.21428571
-0.34698321 1.28923906 -0.07142857
-0.34698321 1.28923906 0.07142857
-0.34698321 1.28923906 0.21428571
-0.27555463 -1.21076094 -0.21428571
-0.20412606 -1.21076094 -0.28571429
-0.20412606 -1.28218951 -0.21428571
-0.20412606 -1.28218951 -0.07142857
-0.20412606 -1.28218951 0.07142857
-0.20412606 -1.28218951 0.21428571
-0.27555463 -1.21076094 0.21428571
-0.20412606 -1.21076094 0.28571429
-0.20412606 -1.06790379 -0.57142857
-0.20412606 -1.13933237 -0.50000000
-0.20412606 -1.13933237 -0.35714286
-0.20412606 -1.13933237 0.35714286
-0.20412606 -1.13933237 0.50000000
-0.20412606 -1.06790379 0.57142857
-0.27555463 -0.92504665 -0.78571429
-0.20412606 -0.92504665 -0.85714286
-0.20412606 -0.99647522 -0.78571429
-0.20412606 -0.99647522 -0.64285714
-0.20412606 -0.99647522 0.64285714
-0.20412606 -0.99647522 0.78571429
-0.27555463 -0.92504665 0.78571429
-0.20412606 -0.92504665 0.85714286
-0.20412606 -0.78218951 -0.85714286
-0.20412606 -0.78218951 0.85714286
-0.20412606 -0.63933237 -1.00000000
-0.20412606 -0.71076094 -0.92857143
-0.20412606 -0.71076094 0.92857143
-0.20412606 -0.63933237 1.00000000
-0.20412606 -0.49647522 -1.00000000
-0.20412606 -0.49647522 1.00000000
-0.20412606 -0.35361808 -1.00000000
-0.20412606 -0.35361808 1.00000000
-0.20412606 -0.21076094 -1.00000000
-0.20412606 -0.21076094 1.00000000
-0.20412606 -0.06790379 -1.00000000
-0.20412606 -0.06790379 1.00000000
-0.20412606 0.07495335 -1.00000000
-0.20412606 0.07495335 1.00000000
-0.20412606 0.21781049 -1.00000000
-0.20412606 0.21781049 1.00000000
-0.20412606 0.36066763 -1.00000000
-0.20412606 0.36066763 1.00000000
-0.20412606 0.50352478 -1.00000000
-0.20412606 0.50352478 1.00000000
-0.20412606 0.64638192 -1.00000000
-0.20412606 0.57495335 0.92857143
-0.20412606 0.64638192 0.85714286
-0.20412606 0.71781049 -0.92857143
-0.20412606 0.78923906 -0.85714286
-0.20412606 0.78923906 0.85714286
-0.20412606 0.93209621 -0.85714286
-0.27555463 0.93209621 0.64285714
-0.20412606 0.93209621 0.71428571
-0.20412606 0.86066763 0.78571429
-0.20412606 1.00352478 -0.78571429
-0.27555463 1.07495335 -0.64285714
-0.20412606 1.07495335 -0.71428571
-0.20412606 1.00352478 0.35714286
-0.20412606 1.07495335 0.28571429
-0.20412606 1.00352478 0.50000000
-0.20412606 1.00352478 0.64285714
-0.20412606 1.14638192 -0.64285714
-0.20412606 1.14638192 -0.50000000
-0.20412606 1.21781049 -0.42857143
-0.20412606 1.21781049 0.28571429
-0.20412606 1.28923906 -0.35714286
-0.20412606 1.28923906 -0.21428571
-0.20412606 1.28923906 -0.07142857
-0.20412606 1.28923906 0.07142857
-0.20412606 1.28923906 0.21428571
-0.13269749 -1.21076094 -0.35714286
-0.06126892 -1.21076094 -0.42857143
-0.06126892 -1.28218951 -0.35714286
-0.06126892 -1.28218951 -0.21428571
-0.06126892 -1.28218951 -0.07142857
-0.06126892 -1.28218951 0.07142857
-0.06126892 -1.28218951 0.21428571
-0.06126892 -1.21076094 0.28571429
-0.13269749 -1.06790379 -0.64285714
-0.06126892 -1.06790379 -0.71428571
-0.06126892 -1.13933237 -0.64285714
-0.06126892 -1.13933237 -0.50000000
-0.06126892 -1.13933237 0.35714286
-0.06126892 -1.13933237 0.50000000
-0.06126892 -1.13933237 0.64285714
-0.13269749 -1.06790379 0.64285714
-0.06126892 -1.06790379 0.71428571
-0.06126892 -0.92504665 -0.85714286
-0.06126892 -0.99647522 -0.78571429
-0.06126892 -0.99647522 0.78571429
-0.06126892 -0.92504665 0.85714286
-0.06126892 -0.78218951 -0.85714286
-0.06126892 -0.78218951 0.85714286
-0.06126892 -0.63933237 -1.00000000
-0.06126892 -0.71076094 -0.92857143
-0.06126892 -0.71076094 0.92857143
-0.06126892 -0.63933237 1.00000000
-0.06126892 -0.49647522 -1.00000000
-0.06126892 -0.49647522 1.00000000
-0.06126892 -0.35361808 -1.00000000
-0.06126892 -0.35361808 1.00000000
-0.06126892 -0.21076094 -1.00000000
-0.06126892 -0.21076094 1.00000000
-0.06126892 -0.06790379 -1.00000000
-0.06126892 -0.06790379 1.00000000
-0.06126892 0.07495335 -1.00000000
-0.06126892 0.07495335 1.00000000
-0.06126892 0.21781049 -1.00000000
-0.06126892 0.21781049 1.00000000
-0.06126892 0.36066763 -1.00000000
-0.06126892 0.36066763 1.00000000
-0.06126892 0.50352478 -1.00000000
-0.06126892 0.50352478 1.00000000
-0.06126892 0.64638192 -1.00000000
-0.13269749 0.64638192 0.92857143
-0.06126892 0.64638192 1.00000000
-0.13269749 0.78923906 -0.92857143
-0.06126892 0.78923906 -1.00000000
-0.06126892 0.71781049 0.92857143
-0.06126892 0.78923906 0.85714286
-0.06126892 0.86066763 -0.92857143
-0.06126892 0.93209621 -0.85714286
-0.06126892 0.86066763 0.78571429
-0.06126892 0.93209621 0.71428571
-0.06126892 1.00352478 -0.78571429
-0.06126892 1.07495335 -0.71428571
-0.06126892 1.00352478 0.35714286
-0.06126892 1.07495335 0.28571429
-0.06126892 1.00352478 0.50000000
-0.06126892 1.00352478 0.64285714
-0.06126892 1.14638192 -0.64285714
-0.06126892 1.14638192 -0.50000000
-0.13269749 1.21781049 -0.35714286
-0.06126892 1.14638192 -0.35714286
-0.06126892 1.21781049 -0.28571429
-0.06126892 1.21781049 0.28571429
-0.06126892 1.28923906 -0.21428571
-0.06126892 1.28923906 -0.07142857
-0.06126892 1.28923906 0.07142857
-0.06126892 1.28923906 0.21428571
0.08158822 -1.21076094 -0.42857143
0.08158822 -1.28218951 -0.35714286
0.08158822 -1.28218951 -0.21428571
0.08158822 -1.28218951 -0.07142857
0.08158822 -1.28218951 0.07142857
0.08158822 -1.28218951 0.21428571
0.08158822 -1.21076094 0.28571429
0.08158822 -1.06790379 -0.71428571
0.08158822 -1.13933237 -0.64285714
0.08158822 -1.13933237 -0.50000000
0.08158822 -1.13933237 0.35714286
0.08158822 -1.13933237 0.50000000
0.08158822 -1.13933237 0.64285714
0.08158822 -1.06790379 0.71428571
0.08158822 -0.92504665 -0.85714286
0.08158822 -0.99647522 -0.78571429
0.08158822 -0.99647522 0.78571429
0.08158822 -0.92504665 0.85714286
0.08158822 -0.78218951 -0.85714286
0.08158822 -0.78218951 0.85714286
0.08158822 -0.63933237 -1.00000000
0.08158822 -0.71076094 -0.92857143
0.01015965 -0.63933237 0.92857143
0.08158822 -0.63933237 0.85714286
0.08158822 -0.49647522 -1.00000000
0.08158822 -0.56790379 0.92857143
0.08158822 -0.49647522 1.00000000
0.08158822 -0.35361808 -1.00000000
0.08158822 -0.35361808 1.00000000
0.08158822 -0.21076094 -1.00000000
0.08158822 -0.21076094 1.00000000
0.08158822 -0.06790379 -1.00000000
0.08158822 -0.06790379 1.00000000
0.08158822 0.07495335 -1.00000000
0.08158822 0.07495335 1.00000000
0.08158822 0.21781049 -1.00000000
0.08158822 0.21781049 1.00000000
0.08158822 0.36066763 -1.00000000
0.08158822 0.36066763 1.00000000
0.08158822 0.50352478 -1.00000000
0.08158822 0.50352478 1.00000000
0.08158822 0.64638192 -1.00000000
0.08158822 0.64638192 1.00000000
0.08158822 0.78923906 -1.00000000
0.08158822 0.71781049 0.92857143
0.08158822 0.78923906 0.85714286
0.08158822 0.86066763 -0.92857143
0.08158822 0.93209621 -0.85714286
0.01015965 0.93209621 0.64285714
0.08158822 0.86066763 0.64285714
0.08158822 0.93209621 0.57142857
0.08158822 0.86066763 0.78571429
0.08158822 1.00352478 -0.78571429
0.08158822 1.07495335 -0.71428571
0.08158822 1.00352478 0.35714286
0.08158822 1.07495335 0.28571429
0.08158822 1.00352478 0.50000000
0.08158822 1.14638192 -0.64285714
0.08158822 1.14638192 -0.50000000
0.08158822 1.14638192 -0.35714286
0.08158822 1.21781049 -0.28571429
0.08158822 1.21781049 0.28571429
0.08158822 1.28923906 -0.21428571
0.08158822 1.28923906 -0.07142857
0.08158822 1.28923906 0.07142857
0.08158822 1.28923906 0.21428571
0.15301679 -1.21076094 -0.35714286
0.22444537 -1.21076094 -0.28571429
0.22444537 -1.28218951 -0.21428571
0.22444537 -1.28218951 -0.07142857
0.22444537 -1.28218951 0.07142857
0.15301679 -1.21076094 0.21428571
0.22444537 -1.21076094 0.14285714
0.22444537 -1.06790379 -0.71428571
0.22444537 -1.13933237 -0.64285714
0.22444537 -1.13933237 -0.50000000
0.22444537 -1.13933237 -0.35714286
0.22444537 -1.13933237 0.21428571
0.22444537 -1.13933237 0.35714286
0.22444537 -1.13933237 0.50000000
0.22444537 -1.13933237 0.64285714
0.22444537 -1.06790379 0.71428571
0.22444537 -0.92504665 -0.85714286
0.22444537 -0.99647522 -0.78571429
0.22444537 -0.99647522 0.78571429
0.22444537 -0.92504665 0.85714286
0.22444537 -0.78218951 -0.85714286
0.22444537 -0.78218951 0.85714286
0.22444537 -0.63933237 -1.00000000
0.22444537 -0.71076094 -0.92857143
0.22444537 -0.63933237 0.85714286
0.22444537 -0.49647522 -1.00000000
0.22444537 -0.56790379 0.92857143
0.22444537 -0.49647522 1.00000000
0.22444537 -0.35361808 -1.00000000
0.22444537 -0.35361808 1.00000000
0.22444537 -0.21076094 -1.00000000
0.22444537 -0.21076094 1.00000000
0.22444537 -0.06790379 -1.00000000
0.22444537 -0.06790379 1.00000000
0.22444537 0.07495335 -1.00000000
0.22444537 0.07495335 1.00000000
0.22444537 0.21781049 -1.00000000
0.22444537 0.21781049 1.00000000
0.22444537 0.36066763 -1.00000000
0.22444537 0.36066763 1.00000000
0.22444537 0.50352478 -1.00000000
0.22444537 0.50352478 1.00000000
0.22444537 0.64638192 -1.00000000
0.22444537 0.64638192 1.00000000
0.22444537 0.78923906 -1.00000000
0.22444537 0.71781049 0.92857143
0.22444537 0.78923906 0.85714286
0.22444537 0.86066763 -0.92857143
0.22444537 0.93209621 -0.85714286
0.22444537 0.86066763 0.64285714
0.22444537 0.93209621 0.57142857
0.22444537 0.86066763 0.78571429
0.22444537 1.00352478 -0.78571429
0.22444537 1.07495335 -0.71428571
0.22444537 1.00352478 0.35714286
0.22444537 1.07495335 0.28571429
0.22444537 1.00352478 0.50000000
0.22444537 1.14638192 -0.64285714
0.22444537 1.14638192 -0.50000000
0.22444537 1.14638192 -0.35714286
0.22444537 1.21781049 -0.28571429
0.15301679 1.21781049 0.21428571
0.22444537 1.14638192 0.21428571
0.22444537 1.21781049 0.14285714
0.22444537 1.28923906 -0.21428571
0.22444537 1.28923906 -0.07142857
0.22444537 1.28923906 0.07142857
0.29587394 -1.21076094 -0.21428571
0.29587394 -1.21076094 -0.07142857
0.36730251 -1.21076094 0.00000000
0.36730251 -1.28218951 0.07142857
0.36730251 -1.21076094 0.14285714
0.29587394 -1.06790379 -0.64285714
0.36730251 -1.06790379 -0.57142857
0.36730251 -1.13933237 -0.50000000
0.36730251 -1.13933237 -0.35714286
0.36730251 -1.13933237 -0.21428571
0.36730251 -1.13933237 -0.07142857
0.36730251 -1.13933237 0.21428571
0.36730251 -1.13933237 0.35714286
0.36730251 -1.13933237 0.50000000
0.29587394 -1.06790379 0.64285714
0.36730251 -1.06790379 0.57142857
0.36730251 -0.92504665 -0.85714286
0.36730251 -0.99647522 -0.78571429
0.36730251 -0.99647522 -0.64285714
0.36730251 -0.99647522 0.64285714
0.29587394 -0.92504665 0.78571429
0.36730251 -0.92504665 0.71428571
0.36730251 -0.78218951 -0.85714286
0.36730251 -0.85361808 0.78571429
0.36730251 -0.78218951 0.85714286
0.36730251 -0.63933237 -1.00000000
0.36730251 -0.71076094 -0.92857143
0.36730251 -0.63933237 0.85714286
0.36730251 -0.49647522 -1.00000000
0.36730251 -0.56790379 0.92857143
0.36730251 -0.49647522 1.00000000
0.36730251 -0.35361808 -1.00000000
0.36730251 -0.35361808 1.00000000
0.36730251 -0.21076094 -1.00000000
0.36730251 -0.21076094 1.00000000
0.36730251 -0.06790379 -1.00000000
0.36730251 -0.06790379 1.00000000
0.36730251 0.07495335 -1.00000000
0.36730251 0.07495335 1.00000000
0.36730251 0.21781049 -1.00000000
0.36730251 0.21781049 1.00000000
0.36730251 0.36066763 -1.00000000
0.36730251 0.36066763 1.00000000
0.36730251 0.50352478 -1.00000000
0.36730251 0.50352478 1.00000000
0.36730251 0.64638192 -1.00000000
0.36730251 0.64638192 1.00000000
0.36730251 0.78923906 -1.00000000
0.36730251 0.71781049 0.92857143
0.36730251 0.78923906 0.85714286
0.36730251 0.86066763 -0.92857143
0.36730251 0.93209621 -0.85714286
0.29587394 0.93209621 0.50000000
0.36730251 0.86066763 0.50000000
0.36730251 0.93209621 0.42857143
0.36730251 0.86066763 0.64285714
0.36730251 0.86066763 0.78571429
0.36730251 1.00352478 -0.78571429
0.29587394 1.07495335 -0.64285714
0.36730251 1.00352478 -0.64285714
0.36730251 1.07495335 -0.57142857
0.36730251 1.00352478 0.35714286
0.36730251 1.07495335 0.28571429
0.36730251 1.14638192 -0.50000000
0.36730251 1.14638192 -0.35714286
0.29587394 1.21781049 -0.21428571
0.36730251 1.14638192 -0.21428571
0.29587394 1.21781049 -0.07142857
0.36730251 1.14638192 -0.07142857
0.29587394 1.21781049 0.07142857
0.36730251 1.14638192 0.07142857
0.36730251 1.14638192 0.21428571
0.43873108 -1.21076094 0.07142857
0.43873108 -1.06790379 -0.50000000
0.51015965 -1.06790379 -0.42857143
0.51015965 -1.13933237 -0.35714286
0.51015965 -1.13933237 -0.21428571
0.51015965 -1.13933237 -0.07142857
0.51015965 -1.13933237 0.07142857
0.51015965 -1.13933237 0.21428571
0.51015965 -1.13933237 0.35714286
0.51015965 -1.13933237 0.50000000
0.51015965 -1.06790379 0.57142857
0.43873108 -0.92504665 -0.78571429
0.43873108 -0.92504665 -0.64285714
0.51015965 -0.92504665 -0.57142857
0.51015965 -0.99647522 -0.50000000
0.51015965 -0.99647522 0.64285714
0.51015965 -0.92504665 0.71428571
0.51015965 -0.78218951 -0.85714286
0.51015965 -0.85361808 -0.78571429
0.51015965 -0.85361808 -0.64285714
0.43873108 -0.78218951 0.78571429
0.51015965 -0.78218951 0.71428571
0.43873108 -0.63933237 -0.92857143
0.51015965 -0.63933237 -0.85714286
0.51015965 -0.71076094 0.78571429
0.51015965 -0.63933237 0.85714286
0.51015965 -0.49647522 -1.00000000
0.51015965 -0.56790379 -0.92857143
0.51015965 -0.56790379 0.92857143
0.51015965 -0.49647522 1.00000000
0.51015965 -0.35361808 -1.00000000
0.51015965 -0.35361808 1.00000000
0.51015965 -0.21076094 -1.00000000
0.51015965 -0.21076094 1.00000000
0.51015965 -0.06790379 -1.00000000
0.51015965 -0.06790379 1.00000000
0.51015965 0.07495335 -1.00000000
0.51015965 0.07495335 1.00000000
0.51015965 0.21781049 -1.00000000
0.51015965 0.21781049 1.00000000
0.51015965 0.36066763 -1.00000000
0.51015965 0.36066763 1.00000000
0.51015965 0.50352478 -1.00000000
0.51015965 0.50352478 1.00000000
0.51015965 0.64638192 -1.00000000
0.43873108 0.64638192 0.92857143
0.51015965 0.57495335 0.92857143
0.51015965 0.64638192 0.85714286
0.51015965 0.71781049 -0.92857143
0.43873108 0.78923906 -0.92857143
0.51015965 0.78923906 -0.85714286
0.43873108 0.78923906 0.78571429
0.51015965 0.71781049 0.78571429
0.51015965 0.78923906 0.71428571
0.43873108 0.93209621 -0.78571429
0.51015965 0.86066763 -0.78571429
0.51015965 0.93209621 -0.71428571
0.51015965 0.86066763 0.50000000
0.51015965 0.93209621 0.42857143
0.51015965 0.86066763 0.64285714
0.51015965 1.00352478 -0.64285714
0.51015965 1.07495335 -0.57142857
0.43873108 1.07495335 0.35714286
0.51015965 1.07495335 0.42857143
0.51015965 1.14638192 -0.50000000
0.51015965 1.14638192 -0.35714286
0.51015965 1.14638192 -0.21428571
0.51015965 1.14638192 -0.07142857
0.51015965 1.14638192 0.07142857
0.51015965 1.14638192 0.21428571
0.51015965 1.14638192 0.35714286
0.58158822 -1.06790379 -0.35714286
0.58158822 -1.06790379 -0.21428571
0.58158822 -1.06790379 -0.07142857
0.58158822 -1.06790379 0.07142857
0.58158822 -1.06790379 0.21428571
0.58158822 -1.06790379 0.35714286
0.58158822 -1.06790379 0.50000000
0.65301679 -0.92504665 -0.57142857
0.65301679 -0.99647522 -0.50000000
0.65301679 -0.99647522 -0.35714286
0.65301679 -0.99647522 -0.21428571
0.65301679 -0.99647522 -0.07142857
0.65301679 -0.99647522 0.07142857
0.65301679 -0.99647522 0.21428571
0.65301679 -0.99647522 0.35714286
0.65301679 -0.99647522 0.50000000
0.58158822 -0.92504665 0.64285714
0.65301679 -0.92504665 0.57142857
0.58158822 -0.78218951 -0.78571429
0.65301679 -0.78218951 -0.71428571
0.65301679 -0.85361808 -0.64285714
0.65301679 -0.85361808 0.64285714
0.65301679 -0.78218951 0.71428571
0.65301679 -0.63933237 -0.85714286
0.65301679 -0.71076094 -0.78571429
0.65301679 -0.71076094 0.78571429
0.65301679 -0.63933237 0.85714286
0.58158822 -0.49647522 -0.92857143
0.65301679 -0.49647522 -0.85714286
0.58158822 -0.49647522 0.92857143
0.65301679 -0.49647522 0.85714286
0.65301679 -0.35361808 -1.00000000
0.65301679 -0.42504665 -0.92857143
0.65301679 -0.42504665 0.92857143
0.65301679 -0.35361808 1.00000000
0.65301679 -0.21076094 -1.00000000
0.65301679 -0.21076094 1.00000000
0.65301679 -0.06790379 -1.00000000
0.65301679 -0.06790379 1.00000000
0.65301679 0.07495335 -1.00000000
0.65301679 0.07495335 1.00000000
0.65301679 0.21781049 -1.00000000
0.65301679 0.21781049 1.00000000
0.65301679 0.28923906 -0.92857143
0.58158822 0.36066763 -0.92857143
0.65301679 0.36066763 -0.85714286
0.65301679 0.36066763 1.00000000
0.58158822 0.50352478 -0.92857143
0.65301679 0.50352478 -0.85714286
0.65301679 0.50352478 1.00000000
0.58158822 0.64638192 -0.92857143
0.65301679 0.64638192 -0.85714286
0.65301679 0.57495335 0.92857143
0.65301679 0.64638192 0.85714286
0.58158822 0.78923906 -0.78571429
0.65301679 0.71781049 -0.78571429
0.65301679 0.78923906 -0.71428571
0.65301679 0.71781049 0.78571429
0.65301679 0.78923906 0.71428571
0.58158822 0.93209621 -0.64285714
0.65301679 0.86066763 -0.64285714
0.65301679 0.93209621 -0.57142857
0.58158822 0.93209621 0.35714286
0.65301679 0.86066763 0.35714286
0.65301679 0.93209621 0.28571429
0.65301679 0.86066763 0.50000000
0.65301679 0.86066763 0.64285714
0.58158822 1.07495335 -0.50000000
0.65301679 1.00352478 -0.50000000
0.65301679 1.07495335 -0.42857143
0.58158822 1.07495335 0.35714286
0.65301679 1.07495335 0.28571429
0.65301679 1.14638192 -0.35714286
0.65301679 1.14638192 -0.21428571
0.65301679 1.14638192 -0.07142857
0.65301679 1.14638192 0.07142857
0.65301679 1.14638192 0.21428571
0.72444537 -0.92504665 -0.50000000
0.79587394 -0.92504665 -0.42857143
0.79587394 -0.99647522 -0.35714286
0.79587394 -0.99647522 -0.21428571
0.79587394 -0.99647522 -0.07142857
0.79587394 -0.99647522 0.07142857
0.79587394 -0.99647522 0.21428571
0.79587394 -0.99647522 0.35714286
0.72444537 -0.92504665 0.50000000
0.79587394 -0.92504665 0.42857143
0.72444537 -0.78218951 -0.64285714
0.79587394 -0.78218951 -0.57142857
0.79587394 -0.85361808 -0.50000000
0.79587394 -0.85361808 0.50000000
0.72444537 -0.78218951 0.64285714
0.79587394 -0.78218951 0.57142857
0.72444537 -0.63933237 -0.78571429
0.79587394 -0.63933237 -0.71428571
0.79587394 -0.71076094 -0.64285714
0.79587394 -0.71076094 0.64285714
0.72444537 -0.63933237 0.78571429
0.79587394 -0.63933237 0.71428571
0.79587394 -0.49647522 -0.85714286
0.79587394 -0.56790379 -0.78571429
0.79587394 -0.56790379 0.78571429
0.79587394 -0.49647522 0.85714286
0.72444537 -0.35361808 -0.92857143
0.79587394 -0.35361808 -0.85714286
0.72444537 -0.35361808 0.92857143
0.79587394 -0.35361808 0.85714286
0.72444537 -0.21076094 -0.92857143
0.79587394 -0.21076094 -0.85714286
0.72444537 -0.21076094 0.92857143
0.79587394 -0.21076094 0.85714286
0.72444537 -0.06790379 -0.92857143
0.79587394 -0.06790379 -0.85714286
0.72444537 -0.06790379 0.92857143
0.79587394 -0.06790379 0.85714286
0.72444537 0.07495335 -0.92857143
0.79587394 0.07495335 -0.85714286
0.72444537 0.07495335 0.92857143
0.79587394 0.07495335 0.85714286
0.72444537 0.21781049 -0.92857143
0.79587394 0.21781049 -0.85714286
0.72444537 0.21781049 0.92857143
0.79587394 0.21781049 0.85714286
0.79587394 0.36066763 -0.85714286
0.72444537 0.36066763 0.92857143
0.79587394 0.36066763 0.85714286
0.79587394 0.50352478 -0.85714286
0.72444537 0.50352478 0.92857143
0.79587394 0.50352478 0.85714286
0.79587394 0.57495335 -0.78571429
0.72444537 0.64638192 -0.78571429
0.79587394 0.64638192 -0.71428571
0.79587394 0.64638192 0.85714286
0.72444537 0.78923906 -0.64285714
0.79587394 0.71781049 -0.64285714
0.79587394 0.78923906 -0.57142857
0.72444537 0.78923906 0.64285714
0.79587394 0.71781049 0.64285714
0.79587394 0.78923906 0.57142857
0.79587394 0.71781049 0.78571429
0.72444537 0.93209621 -0.50000000
0.79587394 0.86066763 -0.50000000
0.72444537 0.93209621 -0.35714286
0.79587394 0.86066763 -0.35714286
0.79587394 0.93209621 -0.28571429
0.79587394 0.86066763 0.35714286
0.79587394 0.93209621 0.28571429
0.79587394 0.86066763 0.50000000
0.72444537 1.07495335 -0.35714286
0.79587394 1.00352478 -0.21428571
0.72444537 1.07495335 -0.21428571
0.72444537 1.07495335 -0.07142857
0.79587394 1.00352478 -0.07142857
0.72444537 1.07495335 0.07142857
0.79587394 1.00352478 0.07142857
0.72444537 1.07495335 0.21428571
0.79587394 1.00352478 0.21428571
0.86730251 -0.92504665 -0.35714286
0.86730251 -0.92504665 -0.21428571
0.86730251 -0.92504665 -0.07142857
0.86730251 -0.92504665 0.07142857
0.86730251 -0.92504665 0.21428571
0.86730251 -0.92504665 0.35714286
0.86730251 -0.78218951 -0.50000000
0.93873108 -0.78218951 -0.42857143
0.93873108 -0.85361808 -0.35714286
0.93873108 -0.85361808 -0.21428571
0.93873108 -0.85361808 -0.07142857
0.93873108 -0.85361808 0.07142857
0.93873108 -0.85361808 0.21428571
0.93873108 -0.85361808 0.35714286
0.86730251 -0.78218951 0.50000000
0.93873108 -0.78218951 0.42857143
0.86730251 -0.63933237 -0.64285714
0.93873108 -0.63933237 -0.57142857
0.93873108 -0.71076094 -0.50000000
0.93873108 -0.71076094 0.50000000
0.86730251 -0.63933237 0.64285714
0.93873108 -0.63933237 0.57142857
0.86730251 -0.49647522 -0.78571429
0.93873108 -0.49647522 -0.71428571
0.93873108 -0.56790379 -0.64285714
0.93873108 -0.56790379 0.64285714
0.86730251 -0.49647522 0.78571429
0.93873108 -0.49647522 0.71428571
0.86730251 -0.35361808 -0.78571429
0.93873108 -0.35361808 -0.71428571
0.86730251 -0.35361808 0.78571429
0.93873108 -0.35361808 0.71428571
0.86730251 -0.21076094 -0.78571429
0.93873108 -0.21076094 -0.71428571
0.93873108 -0.28218951 0.78571429
0.93873108 -0.21076094 0.85714286
0.93873108 -0.06790379 -0.85714286
0.93873108 -0.13933237 -0.78571429
0.93873108 -0.06790379 0.85714286
0.93873108 0.07495335 -0.85714286
0.93873108 0.07495335 0.85714286
0.93873108 0.21781049 -0.85714286
0.93873108 0.21781049 0.85714286
0.93873108 0.36066763 -0.85714286
0.86730251 0.36066763 0.64285714
0.93873108 0.28923906 0.64285714
0.93873108 0.36066763 0.57142857
0.86730251 0.36066763 0.78571429
0.93873108 0.28923906 0.78571429
0.93873108 0.43209621 -0.78571429
0.86730251 0.50352478 -0.78571429
0.93873108 0.50352478 -0.71428571
0.86730251 0.50352478 0.64285714
0.93873108 0.50352478 0.57142857
0.86730251 0.50352478 0.78571429
0.86730251 0.64638192 -0.64285714
0.93873108 0.57495335 -0.64285714
0.86730251 0.64638192 -0.50000000
0.93873108 0.57495335 -0.50000000
0.93873108 0.64638192 -0.42857143
0.86730251 0.64638192 0.64285714
0.93873108 0.64638192 0.57142857
0.86730251 0.64638192 0.78571429
0.86730251 0.78923906 -0.50000000
0.93873108 0.71781049 -0.35714286
0.86730251 0.78923906 -0.35714286
0.93873108 0.78923906 -0.28571429
0.86730251 0.78923906 0.35714286
0.93873108 0.71781049 0.35714286
0.93873108 0.78923906 0.28571429
0.86730251 0.78923906 0.50000000
0.93873108 0.71781049 0.50000000
0.86730251 0.93209621 -0.21428571
0.93873108 0.86066763 -0.21428571
0.86730251 0.93209621 -0.07142857
0.93873108 0.86066763 -0.07142857
0.93873108 0.93209621 0.00000000
0.86730251 0.93209621 0.21428571
0.93873108 0.86066763 0.21428571
0.93873108 0.93209621 0.14285714
0.93873108 1.00352478 0.07142857
1.01015965 -0.78218951 -0.35714286
1.01015965 -0.78218951 -0.21428571
1.01015965 -0.78218951 -0.07142857
1.01015965 -0.78218951 0.07142857
1.01015965 -0.78218951 0.21428571
1.01015965 -0.78218951 0.35714286
1.01015965 -0.63933237 -0.50000000
1.08158822 -0.63933237 -0.42857143
1.08158822 -0.71076094 -0.35714286
1.08158822 -0.71076094 -0.21428571
1.08158822 -0.71076094 -0.07142857
1.08158822 -0.71076094 0.07142857
1.08158822 -0.63933237 0.14285714
1.01015965 -0.63933237 0.21428571
1.01015965 -0.63933237 0.35714286
1.01015965 -0.63933237 0.50000000
1.01015965 -0.49647522 -0.64285714
1.08158822 -0.49647522 -0.57142857
1.08158822 -0.56790379 -0.50000000
1.08158822 -0.56790379 0.21428571
1.08158822 -0.56790379 0.35714286
1.08158822 -0.49647522 0.42857143
1.01015965 -0.49647522 0.50000000
1.01015965 -0.49647522 0.64285714
1.01015965 -0.35361808 -0.64285714
1.08158822 -0.35361808 -0.57142857
1.01015965 -0.35361808 0.35714286
1.08158822 -0.42504665 0.35714286
1.08158822 -0.35361808 0.28571429
1.01015965 -0.35361808 0.50000000
1.01015965 -0.35361808 0.64285714
1.08158822 -0.21076094 -0.71428571
1.08158822 -0.28218951 -0.64285714
1.01015965 -0.21076094 0.35714286
1.08158822 -0.21076094 0.28571429
1.01015965 -0.21076094 0.50000000
1.01015965 -0.21076094 0.64285714
1.01015965 -0.21076094 0.78571429
1.01015965 -0.06790379 -0.78571429
1.08158822 -0.06790379 -0.71428571
1.01015965 -0.06790379 0.35714286
1.08158822 -0.06790379 0.28571429
1.01015965 -0.06790379 0.50000000
1.01015965 -0.06790379 0.64285714
1.01015965 -0.06790379 0.78571429
1.01015965 0.07495335 -0.78571429
1.08158822 0.07495335 -0.71428571
1.08158822 0.00352478 0.35714286
1.08158822 0.00352478 0.50000000
1.08158822 0.00352478 0.64285714
1.08158822 0.07495335 0.71428571
1.01015965 0.07495335 0.78571429
1.01015965 0.21781049 -0.78571429
1.08158822 0.21781049 -0.71428571
1.01015965 0.21781049 0.78571429
1.08158822 0.21781049 0.71428571
1.01015965 0.36066763 -0.78571429
1.08158822 0.28923906 -0.64285714
1.01015965 0.36066763 -0.64285714
1.08158822 0.36066763 -0.57142857
1.01015965 0.36066763 0.35714286
1.08158822 0.28923906 0.35714286
1.08158822 0.36066763 0.28571429
1.01015965 0.36066763 0.50000000
1.08158822 0.28923906 0.50000000
1.08158822 0.28923906 0.64285714
1.01015965 0.50352478 -0.64285714
1.08158822 0.50352478 -0.57142857
1.01015965 0.50352478 0.21428571
1.08158822 0.43209621 0.21428571
1.08158822 0.50352478 0.14285714
1.01015965 0.50352478 0.35714286
1.01015965 0.50352478 0.50000000
1.08158822 0.57495335 -0.50000000
1.01015965 0.64638192 -0.35714286
1.08158822 0.57495335 -0.35714286
1.01015965 0.64638192 -0.21428571
1.08158822 0.57495335 -0.21428571
1.01015965 0.64638192 -0.07142857
1.08158822 0.57495335 -0.07142857
1.01015965 0.64638192 0.07142857
1.08158822 0.57495335 0.07142857
1.01015965 0.64638192 0.21428571
1.01015965 0.64638192 0.35714286
1.01015965 0.64638192 0.50000000
1.01015965 0.78923906 -0.21428571
1.01015965 0.78923906 -0.07142857
1.01015965 0.78923906 0.07142857
1.01015965 0.78923906 0.21428571
1.01015965 0.93209621 0.07142857
1.15301679 -0.63933237 -0.35714286
1.15301679 -0.63933237 -0.21428571
1.15301679 -0.63933237 -0.07142857
1.15301679 -0.63933237 0.07142857
1.15301679 -0.49647522 -0.50000000
1.15301679 -0.49647522 -0.35714286
1.15301679 -0.49647522 -0.21428571
1.15301679 -0.49647522 -0.07142857
1.15301679 -0.49647522 0.07142857
1.15301679 -0.49647522 0.21428571
1.15301679 -0.49647522 0.35714286
1.15301679 -0.35361808 -0.50000000
1.15301679 -0.35361808 -0.35714286
1.15301679 -0.35361808 -0.21428571
1.15301679 -0.35361808 -0.07142857
1.15301679 -0.35361808 0.07142857
1.15301679 -0.35361808 0.21428571
1.15301679 -0.21076094 -0.64285714
1.15301679 -0.21076094 -0.50000000
1.15301679 -0.21076094 -0.35714286
1.15301679 -0.21076094 -0.21428571
1.15301679 -0.21076094 -0.07142857
1.15301679 -0.21076094 0.07142857
1.15301679 -0.21076094 0.21428571
1.15301679 -0.06790379 -0.64285714
1.15301679 -0.06790379 -0.50000000
1.15301679 -0.06790379 -0.35714286
1.22444537 -0.06790379 -0.28571429
1.22444537 -0.13933237 -0.21428571
1.22444537 -0.13933237 -0.07142857
1.22444537 -0.13933237 0.07142857
1.22444537 -0.13933237 0.21428571
1.22444537 -0.06790379 0.28571429
1.15301679 0.07495335 -0.64285714
1.15301679 0.07495335 -0.50000000
1.15301679 0.07495335 -0.35714286
1.22444537 0.07495335 -0.28571429
1.15301679 0.07495335 0.35714286
1.22444537 0.07495335 0.28571429
1.15301679 0.07495335 0.50000000
1.15301679 0.07495335 0.64285714
1.15301679 0.21781049 -0.64285714
1.15301679 0.21781049 -0.50000000
1.15301679 0.21781049 -0.35714286
1.22444537 0.21781049 -0.28571429
1.15301679 0.21781049 0.35714286
1.22444537 0.21781049 0.28571429
1.15301679 0.21781049 0.50000000
1.15301679 0.21781049 0.64285714
1.15301679 0.36066763 -0.50000000
1.15301679 0.36066763 -0.35714286
1.22444537 0.28923906 -0.21428571
1.15301679 0.36066763 -0.21428571
1.22444537 0.36066763 -0.14285714
1.22444537 0.36066763 0.28571429
1.15301679 0.50352478 -0.50000000
1.15301679 0.50352478 -0.35714286
1.15301679 0.50352478 -0.21428571
1.22444537 0.43209621 -0.07142857
1.15301679 0.50352478 -0.07142857
1.22444537 0.50352478 0.00000000
1.22444537 0.43209621 0.21428571
1.22444537 0.50352478 0.14285714
1.22444537 0.57495335 0.07142857
1.29587394 -0.06790379 -0.21428571
1.29587394 -0.06790379 -0.07142857
1.29587394 -0.06790379 0.07142857
1.29587394 -0.06790379 0.21428571
1.29587394 0.07495335 -0.21428571
1.29587394 0.07495335 -0.07142857
1.29587394 0.07495335 0.07142857
1.29587394 0.07495335 0.21428571
1.29587394 0.21781049 -0.21428571
1.29587394 0.21781049 -0.07142857
1.29587394 0.21781049 0.07142857
1.29587394 0.21781049 0.21428571
1.29587394 0.36066763 -0.07142857
1.29587394 0.36066763 0.07142857
1.29587394 0.36066763 0.21428571
1.29587394 0.50352478 0.07142857
3 2 1 0
3 4 3 0
3 0 3 2
3 6 5 4
3 4 5 3
3 8 7 6
3 6 7 5
3 8 9 7
3 12 11 10
3 12 10 1
3 10 0 1
3 10 13 0
3 0 14 4
3 0 13 14
3 4 15 6
3 4 14 15
3 6 16 8
3 6 15 16
3 9 8 17
3 17 8 16
3 10 11 18
3 18 11 19
3 10 20 13
3 10 18 20
3 13 21 14
3 13 20 21
3 14 22 15
3 14 21 22
3 15 23 16
3 15 22 23
3 17 16 24
3 24 16 23
3 18 19 25
3 25 19 26
3 18 27 20
3 18 25 27
3 20 28 21
3 20 27 28
3 21 29 22
3 21 28 29
3 22 30 23
3 22 29 30
3 24 23 31
3 31 23 30
3 25 26 32
3 32 26 33
3 25 34 27
3 25 32 34
3 27 35 28
3 27 34 35
3 28 36 29
3 28 35 36
3 29 37 30
3 29 36 37
3 31 30 38
3 30 39 38
3 30 37 39
3 39 40 38
3 32 33 41
3 41 33 42
3 32 43 34
3 32 41 43
3 34 44 35
3 34 43 44
3 35 45 36
3 35 44 45
3 36 46 37
3 36 45 46
3 48 39 47
3 39 46 47
3 39 37 46
3 39 48 40
3 42 49 41
3 41 49 43
3 43 49 50
3 43 50 44
3 44 50 51
3 44 51 45
3 45 51 52
3 45 52 46
3 46 52 53
3 46 53 47
3 56 55 54
3 58 57 54
3 54 57 56
3 60 59 58
3 58 59 57
3 62 61 60
3 60 61 59
3 62 63 61
3 66 65 64
3 66 64 55
3 64 54 55
3 64 67 54
3 54 68 58
3 54 67 68
3 58 69 60
3 58 68 69
3 60 70 62
3 60 69 70
3 63 62 71
3 62 72 71
3 62 70 72
3 74 73 72
3 72 73 71
3 74 75 73
3 78 77 76
3 78 76 65
3 76 64 65
3 76 79 64
3 79 1 2
3 67 79 2
3 64 79 67
3 67 2 3
3 67 3 68
3 68 3 5
3 68 5 69
3 69 5 7
3 69 7 70
3 70 7 9
3 80 70 9
3 72 70 80
3 72 81 74
3 72 80 81
3 75 74 82
3 82 74 81
3 85 84 83
3 85 83 77
3 83 76 77
3 83 86 76
3 86 11 12
3 79 86 12
3 76 86 79
3 79 12 1
3 17 87 80
3 17 80 9
3 80 88 81
3 80 87 88
3 82 81 89
3 81 90 89
3 81 88 90
3 90 91 89
3 83 84 92
3 92 84 93
3 83 94 86
3 83 92 94
3 94 19 11
3 94 11 86
3 24 95 87
3 24 87 17
3 87 96 88
3 87 95 96
3 98 90 97
3 90 96 97
3 90 88 96
3 90 98 91
3 92 93 99
3 99 93 100
3 92 101 94
3 92 99 101
3 101 26 19
3 101 19 94
3 31 102 95
3 31 95 24
3 95 103 96
3 95 102 103
3 97 96 104
3 104 96 103
3 99 100 105
3 105 100 106
3 99 107 101
3 99 105 107
3 107 33 26
3 107 26 101
3 38 102 31
3 102 38 40
3 108 102 40
3 103 102 108
3 104 103 109
3 109 103 108
3 105 106 110
3 110 106 111
3 105 112 107
3 105 110 112
3 112 42 33
3 112 33 107
3 47 113 48
3 108 40 48
3 113 108 48
3 114 108 113
3 109 108 115
3 115 108 114
3 111 116 110
3 118 117 116
3 117 110 116
3 117 112 110
3 119 49 42
3 112 119 42
3 117 119 112
3 120 50 49
3 120 49 119
3 121 51 50
3 121 50 120
3 122 52 51
3 122 51 121
3 123 53 52
3 123 52 122
3 113 47 53
3 123 113 53
3 124 113 123
3 126 114 125
3 114 124 125
3 114 113 124
3 114 126 115
3 118 127 117
3 129 128 127
3 128 117 127
3 128 119 117
3 119 130 120
3 119 128 130
3 120 131 121
3 120 130 131
3 121 132 122
3 121 131 132
3 122 133 123
3 122 132 133
3 123 134 124
3 123 133 134
3 125 124 135
3 135 124 134
3 129 136 128
3 128 136 130
3 130 136 137
3 130 137 131
3 131 137 138
3 131 138 132
3 132 138 139
3 132 139 133
3 133 139 140
3 133 140 134
3 134 140 141
3 134 141 135
3 144 143 142
3 146 145 142
3 142 145 144
3 148 147 146
3 146 147 145
3 150 149 148
3 148 149 147
3 152 151 150
3 150 151 149
3 154 153 152
3 152 153 151
3 156 155 154
3 154 155 153
3 156 157 155
3 142 143 158
3 158 143 159
3 142 160 146
3 142 158 160
3 160 55 56
3 148 160 56
3 146 160 148
3 148 56 57
3 148 57 150
3 150 57 59
3 150 59 152
3 152 59 61
3 152 61 154
3 154 61 63
3 161 154 63
3 156 154 161
3 157 156 162
3 156 163 162
3 156 161 163
3 163 164 162
3 167 166 165
3 167 165 159
3 165 158 159
3 165 168 158
3 168 65 66
3 160 168 66
3 158 168 160
3 160 66 55
3 71 161 63
3 161 71 73
3 161 73 163
3 170 169 75
3 75 169 73
3 169 164 73
3 164 163 73
3 170 171 169
3 174 173 172
3 174 172 166
3 172 165 166
3 172 175 165
3 175 77 78
3 168 175 78
3 165 175 168
3 168 78 65
3 82 176 170
3 82 170 75
3 171 170 177
3 177 170 176
3 172 173 178
3 178 173 179
3 178 84 85
3 175 178 85
3 172 178 175
3 175 85 77
3 89 176 82
3 181 180 91
3 91 180 89
3 180 177 89
3 177 176 89
3 181 182 180
3 178 179 183
3 183 179 184
3 183 93 84
3 183 84 178
3 97 185 98
3 181 91 98
3 185 181 98
3 186 181 185
3 182 181 187
3 187 181 186
3 183 184 188
3 188 184 189
3 188 100 93
3 188 93 183
3 104 190 185
3 104 185 97
3 185 191 186
3 185 190 191
3 187 186 192
3 192 186 191
3 188 189 193
3 193 189 194
3 193 106 100
3 193 100 188
3 109 195 190
3 109 190 104
3 190 196 191
3 190 195 196
3 192 191 197
3 197 191 196
3 193 194 198
3 198 194 199
3 198 111 106
3 198 106 193
3 115 200 195
3 115 195 109
3 202 196 201
3 196 200 201
3 196 195 200
3 196 202 197
3 199 203 198
3 203 205 204
3 203 204 116
3 198 203 116
3 111 198 116
3 204 118 116
3 125 206 126
3 200 115 126
3 206 200 126
3 207 200 206
3 201 200 208
3 208 200 207
3 204 205 209
3 209 205 210
3 211 127 118
3 204 211 118
3 209 211 204
3 211 129 127
3 135 212 206
3 135 206 125
3 214 207 213
3 207 212 213
3 207 206 212
3 207 214 208
3 210 215 209
3 217 216 215
3 216 209 215
3 216 211 209
3 218 136 129
3 211 218 129
3 216 218 211
3 219 137 136
3 219 136 218
3 220 138 137
3 220 137 219
3 221 139 138
3 221 138 220
3 222 140 139
3 222 139 221
3 223 141 140
3 223 140 222
3 223 224 141
3 141 224 135
3 224 225 135
3 225 212 135
3 212 225 213
3 217 226 216
3 216 226 218
3 218 226 227
3 218 227 219
3 219 227 228
3 219 228 220
3 220 228 229
3 220 229 221
3 221 229 230
3 221 230 222
3 222 230 231
3 222 231 223
3 223 231 232
3 223 232 224
3 235 234 233
3 237 236 233
3 233 236 235
3 239 238 237
3 237 238 236
3 241 240 239
3 239 240 238
3 243 242 241
3 241 242 240
3 245 244 243
3 243 244 242
3 245 246 244
3 248 247 144
3 144 247 143
3 145 233 234
3 248 145 234
3 144 145 248
3 233 145 147
3 233 147 237
3 237 147 149
3 237 149 239
3 239 149 151
3 239 151 241
3 241 151 153
3 241 153 243
3 243 153 155
3 243 155 245
3 250 249 157
3 157 249 155
3 249 246 155
3 246 245 155
3 250 251 249
3 254 253 252
3 247 254 252
3 159 247 252
3 143 247 159
3 162 250 157
3 256 255 164
3 164 255 162
3 255 251 162
3 251 250 162
3 256 257 255
3 260 259 258
3 260 258 253
3 253 258 252
3 258 166 252
3 166 167 252
3 252 167 159
3 169 256 164
3 169 171 256
3 171 257 256
3 171 261 257
3 258 259 174
3 259 173 174
3 259 262 173
3 258 174 166
3 177 261 171
3 177 263 261
3 262 179 173
3 264 179 262
3 265 263 177
3 265 177 180
3 180 182 265
3 265 182 266
3 264 184 179
3 267 184 264
3 187 266 182
3 187 268 266
3 267 189 184
3 269 189 267
3 192 268 187
3 192 270 268
3 269 194 189
3 271 194 269
3 197 270 192
3 197 272 270
3 271 199 194
3 273 199 271
3 201 274 202
3 274 275 202
3 275 197 202
3 275 272 197
3 203 199 276
3 199 277 276
3 199 273 277
3 276 205 203
3 208 278 274
3 208 274 201
3 275 274 279
3 279 274 278
3 277 280 276
3 205 276 280
3 281 205 280
3 210 205 281
3 213 282 214
3 282 283 214
3 214 283 208
3 283 284 208
3 284 278 208
3 278 284 279
3 215 210 285
3 210 286 285
3 210 281 286
3 285 217 215
3 224 287 225
3 287 288 225
3 225 288 213
3 288 289 213
3 289 282 213
3 282 289 283
3 286 290 285
3 285 290 217
3 290 226 217
3 290 291 226
3 291 293 292
3 227 291 292
3 226 291 227
3 294 228 227
3 294 227 292
3 295 229 228
3 295 228 294
3 296 230 229
3 296 229 295
3 297 231 230
3 297 230 296
3 231 297 298
3 299 231 298
3 232 231 299
3 224 232 287
3 232 300 287
3 232 299 300
3 287 300 288
3 293 301 292
3 292 301 294
3 294 301 302
3 294 302 295
3 295 302 303
3 295 303 296
3 296 303 304
3 296 304 297
3 297 304 305
3 297 305 298
3 308 307 306
3 310 309 306
3 306 309 308
3 312 311 310
3 310 311 309
3 314 313 312
3 312 313 311
3 316 315 314
3 314 315 313
3 318 317 316
3 316 317 315
3 318 319 317
3 322 321 320
3 322 320 307
3 307 320 306
3 320 234 306
3 234 235 306
3 306 235 236
3 306 236 310
3 310 236 238
3 310 238 312
3 312 238 240
3 312 240 314
3 314 240 242
3 314 242 316
3 316 242 244
3 316 244 318
3 324 323 246
3 246 323 244
3 323 319 244
3 319 318 244
3 324 325 323
3 320 321 248
3 321 247 248
3 321 326 247
3 320 248 234
3 249 324 246
3 328 327 251
3 251 327 249
3 327 325 249
3 325 324 249
3 328 329 327
3 331 330 254
3 254 330 253
3 254 247 326
3 254 326 331
3 255 328 251
3 333 332 257
3 257 332 255
3 332 329 255
3 329 328 255
3 333 334 332
3 336 335 260
3 260 335 259
3 260 253 330
3 260 330 336
3 261 337 333
3 261 333 257
3 334 333 338
3 338 333 337
3 341 340 339
3 335 341 339
3 262 335 339
3 259 335 262
3 263 342 337
3 263 337 261
3 338 337 343
3 337 344 343
3 337 342 344
3 344 345 343
3 339 340 346
3 346 340 347
3 346 264 262
3 346 262 339
3 265 342 263
3 344 342 348
3 342 266 348
3 266 349 348
3 266 342 265
3 344 348 345
3 346 347 350
3 350 347 351
3 350 267 264
3 350 264 346
3 268 349 266
3 268 352 349
3 350 351 353
3 353 351 354
3 353 269 267
3 353 267 350
3 270 352 268
3 270 355 352
3 353 354 356
3 356 354 357
3 356 271 269
3 356 269 353
3 272 359 358
3 355 272 358
3 270 272 355
3 359 360 358
3 356 357 361
3 361 357 362
3 361 273 271
3 361 271 356
3 364 363 359
3 272 364 359
3 275 364 272
3 359 363 360
3 361 362 365
3 365 362 366
3 365 277 273
3 365 273 361
3 279 364 275
3 279 367 364
3 366 368 365
3 368 370 369
3 368 369 280
3 365 368 280
3 277 365 280
3 369 281 280
3 372 371 284
3 372 284 283
3 279 284 367
3 367 284 371
3 370 373 369
3 281 369 373
3 374 281 373
3 286 281 374
3 376 375 289
3 376 289 288
3 283 289 372
3 372 289 375
3 374 377 286
3 286 377 290
3 377 379 378
3 291 377 378
3 290 377 291
3 378 293 291
3 381 380 299
3 381 299 298
3 299 382 300
3 380 382 299
3 288 300 376
3 376 300 382
3 379 383 378
3 378 383 293
3 383 301 293
3 383 384 301
3 384 386 385
3 302 384 385
3 301 384 302
3 387 303 302
3 387 302 385
3 388 304 303
3 388 303 387
3 304 388 389
3 390 304 389
3 305 304 390
3 298 305 381
3 381 305 390
3 386 391 385
3 385 391 387
3 387 391 392
3 387 392 388
3 388 392 393
3 388 393 389
3 396 395 394
3 307 308 394
3 308 396 394
3 308 397 396
3 398 308 309
3 398 397 308
3 399 309 311
3 399 398 309
3 400 311 313
3 400 399 311
3 401 313 315
3 401 400 313
3 402 315 317
3 402 401 315
3 317 319 402
3 402 319 403
3 406 405 404
3 406 404 395
3 395 404 394
3 404 321 394
3 321 322 394
3 394 322 307
3 407 403 319
3 407 319 323
3 409 408 325
3 408 323 325
3 408 407 323
3 409 410 408
3 413 412 411
3 413 411 405
3 411 404 405
3 411 414 404
3 414 326 321
3 414 321 404
3 327 409 325
3 416 415 329
3 329 415 327
3 415 410 327
3 410 409 327
3 416 417 415
3 411 412 418
3 418 412 419
3 418 330 331
3 414 418 331
3 411 418 414
3 414 331 326
3 332 416 329
3 332 334 416
3 334 417 416
3 334 420 417
3 423 422 421
3 423 421 419
3 419 421 418
3 421 335 418
3 335 336 418
3 418 336 330
3 338 425 424
3 420 338 424
3 334 338 420
3 425 426 424
3 421 422 341
3 422 340 341
3 422 427 340
3 421 341 335
3 343 425 338
3 343 345 425
3 345 426 425
3 345 428 426
3 427 347 340
3 429 347 427
3 349 430 348
3 430 431 348
3 431 345 348
3 431 428 345
3 429 351 347
3 432 351 429
3 352 433 430
3 352 430 349
3 431 430 434
3 434 430 433
3 432 354 351
3 435 354 432
3 355 436 433
3 355 433 352
3 434 433 437
3 437 433 436
3 435 357 354
3 438 357 435
3 358 436 355
3 358 360 436
3 360 437 436
3 360 439 437
3 438 362 357
3 440 362 438
3 442 441 363
3 442 363 364
3 360 363 439
3 439 363 441
3 440 366 362
3 443 366 440
3 367 442 364
3 367 444 442
3 368 366 445
3 366 446 445
3 366 443 446
3 445 370 368
3 448 447 371
3 448 371 372
3 367 371 444
3 444 371 447
3 446 449 445
3 449 451 450
3 449 450 373
3 445 449 373
3 370 445 373
3 450 374 373
3 376 452 375
3 452 453 375
3 453 372 375
3 453 448 372
3 451 454 450
3 454 456 455
3 454 455 377
3 450 454 377
3 374 450 377
3 455 379 377
3 381 457 380
3 458 382 380
3 458 380 457
3 458 459 382
3 382 459 376
3 459 460 376
3 460 452 376
3 452 460 453
3 456 461 455
3 455 461 379
3 461 383 379
3 461 462 383
3 462 464 463
3 384 462 463
3 383 462 384
3 463 386 384
3 389 465 390
3 465 466 390
3 390 466 381
3 466 467 381
3 467 457 381
3 457 467 458
3 458 467 468
3 458 468 459
3 464 469 463
3 463 469 386
3 469 391 386
3 469 470 391
3 391 471 392
3 470 471 391
3 392 472 393
3 471 472 392
3 389 393 465
3 393 473 465
3 393 472 473
3 465 473 466
3 476 475 474
3 478 477 474
3 474 477 476
3 478 479 477
3 481 480 396
3 396 480 395
3 482 396 397
3 482 481 396
3 483 397 398
3 483 482 397
3 399 474 475
3 483 399 475
3 398 399 483
3 474 399 400
3 474 400 478
3 484 479 478
3 400 484 478
3 401 484 400
3 485 401 402
3 485 484 401
3 487 486 403
3 486 402 403
3 486 485 402
3 487 488 486
3 490 489 406
3 406 489 405
3 406 395 480
3 406 480 490
3 407 487 403
3 491 488 487
3 407 491 487
3 408 491 407
3 408 410 491
3 491 410 492
3 494 493 413
3 413 493 412
3 413 405 489
3 413 489 494
3 495 492 410
3 495 410 415
3 415 417 495
3 495 417 496
3 499 498 497
3 493 499 497
3 419 493 497
3 412 493 419
3 420 501 500
3 496 420 500
3 417 420 496
3 501 502 500
3 497 498 423
3 498 422 423
3 498 503 422
3 497 423 419
3 424 501 420
3 424 426 501
3 426 502 501
3 426 504 502
3 503 427 422
3 505 427 503
3 428 504 426
3 428 506 504
3 505 429 427
3 507 429 505
3 431 506 428
3 431 508 506
3 507 432 429
3 509 432 507
3 434 508 431
3 434 510 508
3 509 435 432
3 511 435 509
3 437 510 434
3 437 512 510
3 511 438 435
3 513 438 511
3 439 512 437
3 439 514 512
3 513 440 438
3 515 440 513
3 442 516 441
3 516 517 441
3 517 439 441
3 517 514 439
3 515 443 440
3 518 443 515
3 444 519 516
3 444 516 442
3 517 516 520
3 520 516 519
3 518 446 443
3 521 446 518
3 448 522 447
3 522 523 447
3 447 523 444
3 523 524 444
3 524 519 444
3 519 524 520
3 521 525 446
3 446 525 449
3 451 449 525
3 451 525 526
3 453 527 522
3 453 522 448
3 523 522 528
3 528 522 527
3 454 451 529
3 451 530 529
3 451 526 530
3 529 456 454
3 532 531 460
3 532 460 459
3 453 460 527
3 460 533 527
3 460 531 533
3 527 533 528
3 530 534 529
3 529 534 456
3 534 461 456
3 534 535 461
3 535 537 536
3 462 535 536
3 461 535 462
3 536 464 462
3 539 538 467
3 539 467 466
3 467 540 468
3 538 540 467
3 459 468 532
3 532 468 540
3 537 541 536
3 541 543 542
3 541 542 469
3 536 541 469
3 464 536 469
3 544 470 469
3 544 469 542
3 545 471 470
3 545 470 544
3 546 472 471
3 546 471 545
3 547 473 472
3 547 472 546
3 547 548 473
3 548 466 473
3 548 539 466
3 543 549 542
3 542 549 544
3 544 549 550
3 544 550 545
3 545 550 551
3 545 551 546
3 546 551 552
3 546 552 547
3 547 552 553
3 547 553 548
3 556 555 554
3 475 476 554
3 476 556 554
3 476 557 556
3 558 476 477
3 558 557 476
3 560 559 479
3 559 477 479
3 559 558 477
3 560 561 559
3 563 562 481
3 481 562 480
3 564 481 482
3 564 563 481
3 483 554 555
3 564 483 555
3 482 483 564
3 554 483 475
3 484 560 479
3 565 561 560
3 484 565 560
3 485 565 484
3 566 485 486
3 566 565 485
3 486 488 566
3 566 488 567
3 570 569 568
3 489 490 568
3 490 570 568
3 490 571 570
3 490 480 562
3 490 562 571
3 572 567 488
3 572 488 491
3 574 573 492
3 573 491 492
3 573 572 491
3 574 575 573
3 568 569 494
3 569 493 494
3 569 576 493
3 568 494 489
3 495 574 492
3 495 496 574
3 496 575 574
3 496 577 575
3 579 578 499
3 499 578 498
3 499 493 576
3 499 576 579
3 580 577 496
3 580 496 500
3 500 502 580
3 580 502 581
3 578 503 498
3 582 503 578
3 504 581 502
3 504 583 581
3 582 505 503
3 584 505 582
3 506 583 504
3 506 585 583
3 584 507 505
3 586 507 584
3 508 585 506
3 508 587 585
3 586 509 507
3 588 509 586
3 510 587 508
3 510 589 587
3 588 511 509
3 590 511 588
3 512 589 510
3 512 591 589
3 590 513 511
3 592 513 590
3 514 591 512
3 514 593 591
3 592 515 513
3 594 515 592
3 517 593 514
3 517 595 593
3 594 518 515
3 596 518 594
3 520 595 517
3 520 597 595
3 596 521 518
3 598 521 596
3 600 599 524
3 600 524 523
3 520 524 597
3 597 524 599
3 598 601 521
3 521 601 525
3 526 525 601
3 526 601 602
3 528 600 523
3 528 603 600
3 602 530 526
3 604 530 602
3 532 605 531
3 531 605 606
3 607 531 606
3 533 531 607
3 528 533 603
3 603 533 607
3 604 608 530
3 530 608 534
3 608 610 609
3 535 608 609
3 534 608 535
3 609 537 535
3 612 611 538
3 612 538 539
3 538 613 540
3 611 613 538
3 532 540 605
3 540 614 605
3 540 613 614
3 605 614 606
3 610 615 609
3 609 615 537
3 615 541 537
3 615 616 541
3 543 541 616
3 543 616 617
3 548 612 539
3 548 618 612
3 617 619 543
3 543 619 549
3 549 620 550
3 619 620 549
3 550 621 551
3 620 621 550
3 551 622 552
3 621 622 551
3 552 623 553
3 622 623 552
3 548 553 618
3 618 553 623
3 626 625 624
3 555 556 624
3 556 626 624
3 556 627 626
3 628 556 557
3 628 627 556
3 629 557 558
3 629 628 557
3 630 558 559
3 630 629 558
3 559 561 630
3 630 561 631
3 634 633 632
3 562 563 632
3 563 634 632
3 563 635 634
3 564 624 625
3 635 564 625
3 563 564 635
3 624 564 555
3 636 631 561
3 636 561 565
3 637 565 566
3 637 636 565
3 639 638 567
3 638 566 567
3 638 637 566
3 639 640 638
3 642 641 570
3 570 641 569
3 571 632 633
3 642 571 633
3 570 571 642
3 632 571 562
3 572 639 567
3 643 640 639
3 572 643 639
3 573 643 572
3 573 575 643
3 643 575 644
3 641 576 569
3 645 576 641
3 577 644 575
3 577 646 644
3 648 647 579
3 579 647 578
3 579 576 645
3 579 645 648
3 649 646 577
3 649 577 580
3 580 581 649
3 649 581 650
3 647 582 578
3 651 582 647
3 583 650 581
3 583 652 650
3 651 584 582
3 653 584 651
3 585 652 583
3 585 654 652
3 653 586 584
3 655 586 653
3 587 654 585
3 587 656 654
3 655 588 586
3 657 588 655
3 589 656 587
3 589 658 656
3 657 590 588
3 659 590 657
3 591 658 589
3 591 660 658
3 659 592 590
3 661 592 659
3 593 660 591
3 593 662 660
3 661 594 592
3 663 594 661
3 595 662 593
3 595 664 662
3 663 596 594
3 665 596 663
3 597 664 595
3 597 666 664
3 665 598 596
3 667 598 665
3 600 668 599
3 668 669 599
3 669 597 599
3 669 666 597
3 601 598 670
3 598 671 670
3 598 667 671
3 670 602 601
3 673 672 668
3 600 673 668
3 603 673 600
3 668 672 669
3 671 674 670
3 602 670 674
3 675 602 674
3 604 602 675
3 677 676 607
3 677 607 606
3 603 607 673
3 673 607 676
3 675 678 604
3 604 678 608
3 610 608 678
3 610 678 679
3 681 680 611
3 681 611 612
3 611 682 613
3 680 682 611
3 613 683 614
3 682 683 613
3 606 614 677
3 677 614 683
3 679 684 610
3 610 684 615
3 615 685 616
3 684 685 615
3 687 686 617
3 616 687 617
3 685 687 616
3 688 686 687
3 618 681 612
3 618 689 681
3 686 619 617
3 688 690 686
3 690 619 686
3 690 620 619
3 620 691 621
3 690 691 620
3 621 692 622
3 691 692 621
3 622 693 623
3 692 693 622
3 618 623 689
3 689 623 693
3 695 694 626
3 626 694 625
3 696 626 627
3 696 695 626
3 697 627 628
3 697 696 627
3 698 628 629
3 698 697 628
3 699 629 630
3 699 698 629
3 630 631 699
3 699 631 700
3 702 701 634
3 634 701 633
3 703 634 635
3 703 702 634
3 635 625 694
3 635 694 703
3 704 700 631
3 704 631 636
3 705 636 637
3 705 704 636
3 706 637 638
3 706 705 637
3 638 640 706
3 706 640 707
3 709 708 642
3 642 708 641
3 642 633 701
3 642 701 709
3 710 707 640
3 710 640 643
3 643 644 710
3 710 644 711
3 708 645 641
3 712 645 708
3 646 711 644
3 646 713 711
3 715 714 648
3 648 714 647
3 648 645 712
3 648 712 715
3 646 649 716
3 717 646 716
3 713 646 717
3 650 716 649
3 714 651 647
3 718 651 714
3 719 717 716
3 716 650 719
3 650 720 719
3 650 652 720
3 718 653 651
3 721 653 718
3 654 720 652
3 654 722 720
3 721 655 653
3 723 655 721
3 656 722 654
3 656 724 722
3 723 657 655
3 725 657 723
3 658 724 656
3 658 726 724
3 725 659 657
3 727 659 725
3 660 726 658
3 660 728 726
3 727 661 659
3 729 661 727
3 662 728 660
3 662 730 728
3 729 663 661
3 731 663 729
3 664 730 662
3 664 732 730
3 731 665 663
3 733 665 731
3 666 732 664
3 666 734 732
3 733 667 665
3 735 667 733
3 669 734 666
3 669 736 734
3 735 671 667
3 737 671 735
3 739 738 672
3 739 672 673
3 669 672 736
3 736 672 738
3 737 740 671
3 671 740 674
3 675 674 740
3 675 740 741
3 744 743 742
3 676 677 742
3 743 676 742
3 745 676 743
3 673 676 739
3 739 676 745
3 741 746 675
3 675 746 678
3 679 678 746
3 679 746 747
3 749 748 680
3 749 680 681
3 680 750 682
3 748 750 680
3 742 683 744
3 683 750 744
3 683 682 750
3 683 742 677
3 747 751 679
3 679 751 684
3 684 752 685
3 751 752 684
3 685 753 687
3 752 753 685
3 688 687 753
3 688 753 754
3 689 749 681
3 689 755 749
3 754 756 688
3 688 756 690
3 690 757 691
3 756 757 690
3 691 758 692
3 757 758 691
3 692 759 693
3 758 759 692
3 689 693 755
3 755 693 759
3 760 694 695
3 760 695 761
3 695 762 761
3 695 696 762
3 763 696 697
3 763 762 696
3 764 697 698
3 764 763 697
3 766 764 765
3 764 699 765
3 764 698 699
3 700 765 699
3 768 767 702
3 702 767 701
3 769 702 703
3 769 768 702
3 703 694 760
3 770 703 760
3 769 703 770
3 770 760 761
3 771 766 765
3 771 765 700
3 704 771 700
3 772 771 704
3 773 704 705
3 773 772 704
3 774 705 706
3 774 773 705
3 706 707 774
3 774 707 775
3 777 776 709
3 709 776 708
3 709 701 767
3 709 767 777
3 778 775 707
3 778 707 710
3 710 711 778
3 778 711 779
3 776 712 708
3 780 712 776
3 713 779 711
3 713 781 779
3 783 782 715
3 715 782 714
3 715 712 780
3 715 780 783
3 717 781 713
3 717 784 781
3 782 718 714
3 785 718 782
3 786 784 717
3 786 717 719
3 719 720 786
3 786 720 787
3 785 721 718
3 788 721 785
3 722 787 720
3 722 789 787
3 788 723 721
3 790 723 788
3 724 789 722
3 724 791 789
3 790 725 723
3 792 725 790
3 726 791 724
3 726 793 791
3 792 727 725
3 794 727 792
3 728 793 726
3 728 795 793
3 794 729 727
3 796 729 794
3 730 795 728
3 730 797 795
3 796 731 729
3 798 731 796
3 732 797 730
3 732 799 797
3 798 733 731
3 800 733 798
3 734 799 732
3 734 801 799
3 800 735 733
3 802 735 800
3 736 801 734
3 736 803 801
3 802 737 735
3 804 737 802
3 806 805 738
3 806 738 739
3 736 738 803
3 803 738 805
3 804 807 737
3 737 807 740
3 741 740 807
3 741 807 808
3 810 809 743
3 810 743 744
3 743 811 745
3 809 811 743
3 739 745 806
3 806 745 811
3 808 812 741
3 741 812 746
3 747 746 812
3 747 812 813
3 815 814 748
3 815 748 749
3 748 816 750
3 814 816 748
3 744 750 810
3 810 750 816
3 813 817 747
3 747 817 751
3 751 818 752
3 817 818 751
3 752 819 753
3 818 819 752
3 754 753 819
3 754 819 820
3 823 822 821
3 822 815 821
3 815 755 821
3 815 749 755
3 820 824 754
3 754 824 756
3 756 825 757
3 824 825 756
3 757 826 758
3 825 826 757
3 821 759 823
3 759 826 823
3 759 758 826
3 759 821 755
3 827 761 762
3 763 828 762
3 762 828 827
3 828 763 829
3 763 830 829
3 763 764 830
3 764 766 830
3 830 766 831
3 832 767 768
3 832 768 833
3 768 834 833
3 768 769 834
3 835 769 770
3 835 834 769
3 770 761 827
3 836 770 827
3 835 770 836
3 836 827 828
3 836 828 837
3 837 828 829
3 838 831 766
3 838 766 771
3 839 771 772
3 839 838 771
3 840 772 773
3 840 839 772
3 842 840 841
3 840 774 841
3 840 773 774
3 775 841 774
3 844 843 777
3 777 843 776
3 777 767 832
3 845 777 832
3 844 777 845
3 845 832 833
3 846 842 841
3 848 846 847
3 847 846 778
3 846 841 778
3 841 775 778
3 779 847 778
3 843 780 776
3 849 780 843
3 850 848 847
3 847 779 850
3 779 851 850
3 779 781 851
3 853 852 783
3 783 852 782
3 783 780 849
3 783 849 853
3 784 851 781
3 784 854 851
3 852 785 782
3 855 785 852
3 856 854 784
3 856 784 786
3 786 787 856
3 856 787 857
3 855 788 785
3 858 788 855
3 789 857 787
3 789 859 857
3 858 790 788
3 860 790 858
3 791 859 789
3 791 861 859
3 860 792 790
3 862 792 860
3 793 861 791
3 793 863 861
3 862 794 792
3 864 794 862
3 795 863 793
3 795 865 863
3 864 796 794
3 866 796 864
3 797 865 795
3 797 867 865
3 866 798 796
3 868 798 866
3 799 867 797
3 799 869 867
3 868 800 798
3 870 800 868
3 801 869 799
3 801 871 869
3 870 802 800
3 872 802 870
3 803 871 801
3 803 873 871
3 872 804 802
3 874 804 872
3 876 875 805
3 876 805 806
3 803 805 873
3 873 805 875
3 874 877 804
3 804 877 807
3 808 807 877
3 808 877 878
3 881 880 879
3 809 810 879
3 880 809 879
3 882 809 880
3 809 883 811
3 882 883 809
3 806 811 876
3 876 811 883
3 878 884 808
3 808 884 812
3 886 885 813
3 812 886 813
3 884 886 812
3 887 885 886
3 889 888 814
3 889 814 815
3 879 816 881
3 816 888 881
3 816 814 888
3 816 879 810
3 885 817 813
3 887 890 885
3 890 817 885
3 890 818 817
3 818 891 819
3 890 891 818
3 893 892 820
3 819 893 820
3 891 893 819
3 895 894 892
3 895 892 893
3 897 896 894
3 897 894 895
3 822 823 896
3 897 822 896
3 898 822 897
3 815 822 889
3 889 822 898
3 892 824 820
3 824 892 825
3 825 892 894
3 825 894 826
3 826 894 896
3 826 896 823
3 899 829 830
3 831 899 830
3 900 833 834
3 900 834 901
3 834 902 901
3 834 835 902
3 903 835 836
3 903 902 835
3 904 836 837
3 904 903 836
3 837 829 899
3 905 837 899
3 904 837 905
3 905 899 831
3 838 905 831
3 906 905 838
3 907 838 839
3 907 906 838
3 908 839 840
3 908 907 839
3 840 842 908
3 908 842 909
3 910 843 844
3 845 911 844
3 844 911 910
3 912 911 845
3 912 845 833
3 913 912 833
3 900 913 833
3 913 900 901
3 914 909 842
3 914 842 846
3 846 848 914
3 914 848 915
3 917 916 910
3 916 843 910
3 916 849 843
3 917 910 911
3 917 911 918
3 918 911 912
3 848 850 919
3 920 848 919
3 915 848 920
3 851 919 850
3 921 852 853
3 922 921 853
3 849 922 853
3 916 922 849
3 923 920 919
3 919 851 923
3 851 924 923
3 851 854 924
3 926 925 921
3 925 852 921
3 925 855 852
3 926 921 922
3 927 924 854
3 927 854 856
3 856 857 927
3 927 857 928
3 925 858 855
3 929 858 925
3 859 928 857
3 859 930 928
3 929 860 858
3 931 860 929
3 861 930 859
3 861 932 930
3 931 862 860
3 933 862 931
3 863 932 861
3 863 934 932
3 933 864 862
3 935 864 933
3 865 934 863
3 865 936 934
3 935 866 864
3 937 866 935
3 867 936 865
3 867 938 936
3 937 868 866
3 939 868 937
3 869 938 867
3 869 940 938
3 939 870 868
3 941 870 939
3 871 940 869
3 871 942 940
3 941 872 870
3 943 872 941
3 946 945 944
3 945 942 944
3 942 873 944
3 942 871 873
3 948 874 947
3 874 943 947
3 874 872 943
3 949 948 947
3 952 951 950
3 950 951 946
3 950 946 944
3 876 950 944
3 875 876 944
3 875 944 873
3 948 877 874
3 954 953 878
3 954 878 877
3 949 954 877
3 948 949 877
3 955 953 954
3 957 956 880
3 957 880 881
3 880 958 882
3 956 958 880
3 950 883 952
3 883 958 952
3 883 882 958
3 883 950 876
3 953 884 878
3 955 959 953
3 959 884 953
3 959 886 884
3 887 886 959
3 887 959 960
3 889 961 888
3 961 962 888
3 962 881 888
3 962 957 881
3 960 963 887
3 887 963 890
3 890 964 891
3 963 964 890
3 891 965 893
3 964 965 891
3 893 966 895
3 965 966 893
3 895 967 897
3 966 967 895
3 897 968 898
3 967 968 897
3 889 898 961
3 898 969 961
3 898 968 969
3 961 969 962
3 970 901 902
3 903 971 902
3 902 971 970
3 904 972 903
3 903 972 971
3 905 973 904
3 904 973 972
3 906 974 905
3 905 974 973
3 907 975 906
3 906 975 974
3 908 976 907
3 907 976 975
3 909 976 908
3 978 977 913
3 913 977 912
3 913 901 970
3 979 913 970
3 978 913 979
3 979 970 971
3 979 971 980
3 980 971 972
3 980 972 981
3 981 972 973
3 981 973 982
3 982 973 974
3 982 974 983
3 983 974 975
3 983 975 984
3 984 975 976
3 984 976 985
3 987 985 986
3 986 985 914
3 985 976 914
3 976 909 914
3 915 986 914
3 988 916 917
3 988 917 989
3 917 990 989
3 917 918 990
3 918 912 977
3 918 977 990
3 991 987 986
3 986 915 991
3 915 992 991
3 915 920 992
3 994 993 988
3 993 916 988
3 993 922 916
3 994 988 989
3 995 992 920
3 995 920 923
3 923 924 995
3 995 924 996
3 997 925 926
3 998 997 926
3 922 998 926
3 993 998 922
3 924 927 999
3 1000 924 999
3 996 924 1000
3 928 999 927
3 1002 1001 997
3 1001 925 997
3 1001 929 925
3 1002 997 998
3 1003 1000 999
3 999 928 1003
3 928 1004 1003
3 928 930 1004
3 1001 931 929
3 1005 931 1001
3 932 1004 930
3 932 1006 1004
3 1005 933 931
3 1007 933 1005
3 934 1006 932
3 934 1008 1006
3 1007 935 933
3 1009 935 1007
3 936 1008 934
3 936 1010 1008
3 1009 937 935
3 1011 937 1009
3 938 1010 936
3 938 1012 1010
3 1014 939 1013
3 939 1011 1013
3 939 937 1011
3 1015 1014 1013
3 940 1012 938
3 940 1016 1012
3 1017 941 1014
3 1014 941 939
3 1014 1015 1018
3 1014 1018 1017
3 942 1016 940
3 942 1019 1016
3 1020 943 1017
3 1017 943 941
3 1017 1018 1021
3 1017 1021 1020
3 1023 1022 945
3 1023 945 946
3 942 945 1019
3 1019 945 1022
3 1020 947 943
3 1025 1024 949
3 1025 949 947
3 1021 1025 947
3 1020 1021 947
3 1026 1024 1025
3 1028 1027 951
3 1028 951 952
3 946 951 1023
3 1023 951 1027
3 1024 954 949
3 1030 1029 955
3 1030 955 954
3 1026 1030 954
3 1024 1026 954
3 1031 1029 1030
3 1034 1033 1032
3 956 957 1032
3 1033 956 1032
3 1035 956 1033
3 956 1036 958
3 1035 1036 956
3 952 958 1028
3 1028 958 1036
3 1029 959 955
3 1038 1037 960
3 1038 960 959
3 1031 1038 959
3 1029 1031 959
3 1039 1037 1038
3 1034 1032 1040
3 1034 1040 1041
3 962 1040 957
3 957 1040 1032
3 1037 963 960
3 1039 1042 1037
3 1042 963 1037
3 1042 964 963
3 964 1043 965
3 1042 1043 964
3 965 1044 966
3 1043 1044 965
3 966 1045 967
3 1044 1045 966
3 967 1046 968
3 1045 1046 967
3 1040 969 1041
3 969 1046 1041
3 969 968 1046
3 969 1040 962
3 1047 977 978
3 1047 978 1048
3 978 1049 1048
3 978 979 1049
3 1050 979 980
3 1050 1049 979
3 1051 980 981
3 1051 1050 980
3 1052 981 982
3 1052 1051 981
3 1053 982 983
3 1053 1052 982
3 1054 983 984
3 1054 1053 983
3 1056 1054 1055
3 1054 985 1055
3 1054 984 985
3 987 1055 985
3 1057 989 990
3 1058 1057 990
3 1058 990 977
3 1059 1058 977
3 1047 1059 977
3 1059 1047 1048
3 1060 1056 1055
3 1062 1060 1061
3 1061 1060 991
3 1060 1055 991
3 1055 987 991
3 992 1061 991
3 1063 993 994
3 1064 1063 994
3 1064 994 989
3 1065 1064 989
3 1057 1065 989
3 1065 1057 1058
3 1066 1062 1061
3 1068 1066 1067
3 1067 1066 995
3 1066 1061 995
3 1061 992 995
3 996 1067 995
3 1070 1069 1063
3 1069 993 1063
3 1069 998 993
3 1070 1063 1064
3 1071 1068 1067
3 1067 996 1071
3 996 1072 1071
3 996 1000 1072
3 1073 1001 1002
3 1074 1073 1002
3 998 1074 1002
3 1069 1074 998
3 1000 1003 1075
3 1076 1000 1075
3 1072 1000 1076
3 1004 1075 1003
3 1077 1005 1073
3 1073 1005 1001
3 1073 1074 1078
3 1073 1078 1077
3 1076 1075 1079
3 1076 1079 1080
3 1006 1079 1004
3 1004 1079 1075
3 1081 1007 1077
3 1077 1007 1005
3 1077 1078 1082
3 1077 1082 1081
3 1080 1079 1083
3 1080 1083 1084
3 1008 1083 1006
3 1006 1083 1079
3 1085 1009 1081
3 1081 1009 1007
3 1081 1082 1086
3 1081 1086 1085
3 1084 1083 1087
3 1084 1087 1088
3 1010 1087 1008
3 1008 1087 1083
3 1089 1011 1085
3 1085 1011 1009
3 1085 1086 1090
3 1085 1090 1089
3 1088 1087 1091
3 1088 1091 1092
3 1012 1091 1010
3 1010 1091 1087
3 1089 1013 1011
3 1015 1013 1089
3 1090 1015 1089
3 1093 1015 1090
3 1092 1091 1094
3 1092 1094 1095
3 1016 1094 1012
3 1012 1094 1091
3 1093 1018 1015
3 1096 1018 1093
3 1095 1094 1097
3 1095 1097 1098
3 1019 1097 1016
3 1016 1097 1094
3 1100 1021 1099
3 1021 1096 1099
3 1021 1018 1096
3 1101 1100 1099
3 1098 1097 1022
3 1023 1098 1022
3 1102 1098 1023
3 1022 1097 1019
3 1100 1025 1021
3 1104 1103 1026
3 1104 1026 1025
3 1101 1104 1025
3 1100 1101 1025
3 1105 1103 1104
3 1108 1107 1106
3 1027 1028 1106
3 1107 1027 1106
3 1109 1027 1107
3 1023 1027 1102
3 1102 1027 1109
3 1103 1030 1026
3 1111 1110 1031
3 1111 1031 1030
3 1105 1111 1030
3 1103 1105 1030
3 1113 1112 1110
3 1113 1110 1111
3 1114 1112 1113
3 1116 1115 1033
3 1116 1033 1034
3 1033 1117 1035
3 1115 1117 1033
3 1106 1036 1108
3 1036 1117 1108
3 1036 1035 1117
3 1036 1106 1028
3 1110 1038 1031
3 1038 1110 1039
3 1110 1118 1039
3 1110 1112 1118
3 1112 1114 1119
3 1120 1112 1119
3 1118 1112 1120
3 1122 1121 1120
3 1122 1120 1119
3 1124 1123 1121
3 1124 1121 1122
3 1126 1125 1123
3 1126 1123 1124
3 1126 1116 1125
3 1116 1041 1125
3 1116 1034 1041
3 1118 1042 1039
3 1042 1118 1043
3 1043 1118 1120
3 1043 1120 1044
3 1044 1120 1121
3 1044 1121 1045
3 1045 1121 1123
3 1045 1123 1046
3 1046 1123 1125
3 1046 1125 1041
3 1127 1048 1049
3 1050 1128 1049
3 1049 1128 1127
3 1051 1129 1050
3 1050 1129 1128
3 1052 1130 1051
3 1051 1130 1129
3 1053 1131 1052
3 1052 1131 1130
3 1054 1132 1053
3 1053 1132 1131
3 1056 1132 1054
3 1133 1058 1059
3 1134 1133 1059
3 1134 1059 1048
3 1135 1134 1048
3 1127 1135 1048
3 1135 1127 1128
3 1135 1128 1136
3 1136 1128 1129
3 1136 1129 1137
3 1137 1129 1130
3 1137 1130 1138
3 1138 1130 1131
3 1138 1131 1139
3 1139 1131 1132
3 1139 1132 1140
3 1142 1140 1141
3 1141 1140 1060
3 1140 1132 1060
3 1132 1056 1060
3 1062 1141 1060
3 1143 1064 1065
3 1144 1143 1065
3 1144 1065 1058
3 1145 1144 1058
3 1133 1145 1058
3 1145 1133 1134
3 1146 1142 1141
3 1148 1146 1147
3 1147 1146 1066
3 1146 1141 1066
3 1141 1062 1066
3 1068 1147 1066
3 1149 1069 1070
3 1150 1149 1070
3 1150 1070 1064
3 1151 1150 1064
3 1143 1151 1064
3 1151 1143 1144
3 1152 1148 1147
3 1154 1152 1153
3 1153 1152 1071
3 1152 1147 1071
3 1147 1068 1071
3 1072 1153 1071
3 1155 1074 1149
3 1149 1074 1069
3 1149 1150 1156
3 1149 1156 1155
3 1154 1153 1157
3 1154 1157 1158
3 1076 1157 1072
3 1072 1157 1153
3 1159 1078 1155
3 1155 1078 1074
3 1155 1156 1160
3 1155 1160 1159
3 1161 1158 1157
3 1157 1076 1161
3 1076 1162 1161
3 1076 1080 1162
3 1164 1163 1159
3 1163 1078 1159
3 1163 1082 1078
3 1164 1159 1160
3 1084 1162 1080
3 1084 1165 1162
3 1163 1086 1082
3 1166 1086 1163
3 1088 1165 1084
3 1088 1167 1165
3 1166 1090 1086
3 1168 1090 1166
3 1092 1167 1088
3 1092 1169 1167
3 1168 1093 1090
3 1170 1093 1168
3 1173 1172 1171
3 1175 1174 1171
3 1175 1171 1172
3 1175 1169 1174
3 1169 1095 1174
3 1169 1092 1095
3 1177 1096 1176
3 1096 1170 1176
3 1096 1093 1170
3 1178 1177 1176
3 1173 1171 1179
3 1173 1179 1180
3 1181 1171 1174
3 1179 1171 1181
3 1098 1181 1095
3 1095 1181 1174
3 1177 1099 1096
3 1183 1182 1101
3 1183 1101 1099
3 1178 1183 1099
3 1177 1178 1099
3 1185 1184 1182
3 1185 1182 1183
3 1186 1184 1185
3 1180 1179 1187
3 1180 1187 1188
3 1189 1179 1181
3 1187 1179 1189
3 1102 1189 1098
3 1098 1189 1181
3 1182 1104 1101
3 1104 1182 1105
3 1182 1190 1105
3 1182 1184 1190
3 1184 1186 1191
3 1192 1184 1191
3 1190 1184 1192
3 1193 1192 1191
3 1196 1195 1194
3 1198 1197 1194
3 1198 1194 1195
3 1197 1198 1188
3 1197 1188 1187
3 1108 1197 1187
3 1107 1108 1187
3 1107 1187 1109
3 1109 1187 1189
3 1109 1189 1102
3 1190 1111 1105
3 1111 1190 1113
3 1113 1190 1192
3 1200 1199 1114
3 1200 1114 1113
3 1193 1200 1113
3 1192 1193 1113
3 1202 1201 1199
3 1202 1199 1200
3 1203 1201 1202
3 1206 1205 1204
3 1204 1205 1196
3 1204 1196 1194
3 1116 1204 1194
3 1115 1116 1194
3 1115 1194 1117
3 1117 1194 1197
3 1117 1197 1108
3 1199 1119 1114
3 1119 1199 1122
3 1122 1199 1201
3 1203 1207 1201
3 1207 1122 1201
3 1207 1124 1122
3 1204 1126 1206
3 1126 1207 1206
3 1126 1124 1207
3 1126 1204 1116
3 1208 1134 1135
3 1136 1209 1135
3 1135 1209 1208
3 1137 1210 1136
3 1136 1210 1209
3 1138 1211 1137
3 1137 1211 1210
3 1139 1212 1138
3 1138 1212 1211
3 1140 1213 1139
3 1139 1213 1212
3 1142 1213 1140
3 1214 1144 1145
3 1215 1214 1145
3 1215 1145 1134
3 1216 1215 1134
3 1208 1216 1134
3 1216 1208 1209
3 1216 1209 1217
3 1217 1209 1210
3 1217 1210 1218
3 1218 1210 1211
3 1218 1211 1219
3 1221 1220 1219
3 1211 1221 1219
3 1212 1221 1211
3 1222 1212 1213
3 1221 1212 1222
3 1146 1223 1142
3 1223 1213 1142
3 1223 1222 1213
3 1148 1223 1146
3 1224 1150 1151
3 1225 1224 1151
3 1225 1151 1144
3 1226 1225 1144
3 1214 1226 1144
3 1226 1214 1215
3 1227 1220 1221
3 1227 1221 1222
3 1227 1222 1228
3 1230 1229 1228
3 1222 1230 1228
3 1223 1230 1222
3 1152 1231 1148
3 1231 1223 1148
3 1231 1230 1223
3 1154 1231 1152
3 1232 1156 1224
3 1224 1156 1150
3 1224 1225 1233
3 1224 1233 1232
3 1236 1235 1234
3 1234 1235 1229
3 1230 1234 1229
3 1237 1234 1230
3 1238 1230 1231
3 1237 1230 1238
3 1158 1238 1154
3 1154 1238 1231
3 1240 1239 1232
3 1239 1156 1232
3 1239 1160 1156
3 1240 1232 1233
3 1236 1234 1241
3 1236 1241 1242
3 1243 1234 1237
3 1241 1234 1243
3 1244 1237 1238
3 1243 1237 1244
3 1161 1245 1158
3 1245 1238 1158
3 1245 1244 1238
3 1162 1245 1161
3 1246 1163 1164
3 1247 1246 1164
3 1160 1247 1164
3 1239 1247 1160
3 1242 1241 1248
3 1242 1248 1249
3 1250 1241 1243
3 1248 1241 1250
3 1251 1243 1244
3 1250 1243 1251
3 1252 1244 1245
3 1251 1244 1252
3 1165 1252 1162
3 1162 1252 1245
3 1253 1166 1246
3 1246 1166 1163
3 1246 1247 1254
3 1246 1254 1253
3 1255 1249 1248
3 1255 1248 1250
3 1255 1250 1256
3 1256 1250 1251
3 1256 1251 1257
3 1259 1258 1257
3 1251 1259 1257
3 1252 1259 1251
3 1167 1259 1165
3 1165 1259 1252
3 1260 1168 1253
3 1253 1168 1166
3 1253 1254 1261
3 1253 1261 1260
3 1258 1259 1262
3 1258 1262 1263
3 1169 1262 1167
3 1167 1262 1259
3 1264 1170 1260
3 1260 1170 1168
3 1260 1261 1265
3 1266 1260 1265
3 1264 1260 1266
3 1267 1266 1265
3 1270 1269 1268
3 1272 1271 1268
3 1272 1268 1269
3 1172 1173 1271
3 1272 1172 1271
3 1273 1172 1272
3 1262 1175 1263
3 1175 1273 1263
3 1175 1172 1273
3 1175 1262 1169
3 1264 1176 1170
3 1176 1264 1178
3 1264 1274 1178
3 1264 1266 1274
3 1266 1267 1275
3 1266 1275 1274
3 1278 1277 1276
3 1276 1277 1270
3 1268 1276 1270
3 1279 1276 1268
3 1280 1268 1271
3 1279 1268 1280
3 1180 1280 1173
3 1173 1280 1271
3 1274 1183 1178
3 1275 1281 1274
3 1281 1183 1274
3 1281 1185 1183
3 1283 1282 1186
3 1185 1283 1186
3 1281 1283 1185
3 1285 1284 1282
3 1285 1282 1283
3 1287 1286 1284
3 1287 1284 1285
3 1289 1288 1286
3 1289 1286 1287
3 1288 1289 1278
3 1276 1288 1278
3 1290 1288 1276
3 1291 1276 1279
3 1290 1276 1291
3 1292 1279 1280
3 1291 1279 1292
3 1188 1292 1180
3 1180 1292 1280
3 1282 1191 1186
3 1191 1282 1193
3 1282 1293 1193
3 1282 1284 1293
3 1294 1284 1286
3 1293 1284 1294
3 1295 1286 1288
3 1294 1286 1295
3 1296 1288 1290
3 1295 1288 1296
3 1196 1296 1195
3 1296 1291 1195
3 1296 1290 1291
3 1195 1291 1198
3 1198 1291 1292
3 1198 1292 1188
3 1293 1200 1193
3 1200 1293 1202
3 1202 1293 1294
3 1202 1294 1203
3 1294 1297 1203
3 1294 1295 1297
3 1206 1297 1205
3 1297 1296 1205
3 1297 1295 1296
3 1205 1296 1196
3 1297 1207 1203
3 1207 1297 1206
3 1298 1215 1216
3 1217 1299 1216
3 1216 1299 1298
3 1218 1300 1217
3 1217 1300 1299
3 1219 1301 1218
3 1218 1301 1300
3 1220 1301 1219
3 1302 1225 1226
3 1215 1298 1226
3 1298 1302 1226
3 1298 1303 1302
3 1304 1298 1299
3 1303 1298 1304
3 1305 1299 1300
3 1304 1299 1305
3 1306 1300 1301
3 1305 1300 1306
3 1227 1307 1220
3 1307 1301 1220
3 1307 1306 1301
3 1228 1308 1227
3 1227 1308 1307
3 1229 1308 1228
3 1309 1233 1302
3 1302 1233 1225
3 1310 1302 1303
3 1309 1302 1310
3 1311 1303 1304
3 1310 1303 1311
3 1312 1304 1305
3 1311 1304 1312
3 1313 1305 1306
3 1312 1305 1313
3 1314 1306 1307
3 1313 1306 1314
3 1236 1314 1235
3 1314 1308 1235
3 1314 1307 1308
3 1235 1308 1229
3 1315 1239 1240
3 1233 1309 1240
3 1309 1315 1240
3 1309 1316 1315
3 1317 1309 1310
3 1316 1309 1317
3 1318 1310 1311
3 1317 1310 1318
3 1319 1311 1312
3 1318 1311 1319
3 1320 1312 1313
3 1319 1312 1320
3 1321 1313 1314
3 1320 1313 1321
3 1242 1321 1236
3 1236 1321 1314
3 1322 1247 1315
3 1315 1247 1239
3 1323 1315 1316
3 1322 1315 1323
3 1324 1316 1317
3 1323 1316 1324
3 1318 1326 1325
3 1324 1318 1325
3 1317 1318 1324
3 1326 1318 1319
3 1326 1319 1327
3 1327 1319 1320
3 1327 1320 1328
3 1328 1320 1321
3 1328 1321 1329
3 1321 1242 1329
3 1242 1330 1329
3 1242 1249 1330
3 1331 1254 1322
3 1322 1254 1247
3 1332 1322 1323
3 1331 1322 1332
3 1333 1323 1324
3 1332 1323 1333
3 1324 1325 1334
3 1324 1334 1333
3 1249 1255 1335
3 1336 1249 1335
3 1330 1249 1336
3 1256 1337 1255
3 1255 1337 1335
3 1257 1338 1256
3 1256 1338 1337
3 1258 1338 1257
3 1339 1261 1331
3 1331 1261 1254
3 1340 1331 1332
3 1339 1331 1340
3 1341 1332 1333
3 1340 1332 1341
3 1333 1334 1342
3 1333 1342 1341
3 1336 1335 1343
3 1336 1343 1344
3 1345 1335 1337
3 1343 1335 1345
3 1346 1337 1338
3 1345 1337 1346
3 1263 1346 1258
3 1258 1346 1338
3 1339 1265 1261
3 1265 1339 1267
3 1339 1347 1267
3 1339 1340 1347
3 1348 1340 1341
3 1347 1340 1348
3 1341 1342 1349
3 1350 1341 1349
3 1348 1341 1350
3 1351 1350 1349
3 1344 1343 1269
3 1270 1344 1269
3 1352 1344 1270
3 1269 1343 1272
3 1272 1343 1345
3 1272 1345 1273
3 1273 1345 1346
3 1273 1346 1263
3 1353 1275 1347
3 1347 1275 1267
3 1354 1347 1348
3 1353 1347 1354
3 1355 1348 1350
3 1354 1348 1355
3 1350 1351 1356
3 1357 1350 1356
3 1355 1350 1357
3 1358 1357 1356
3 1360 1359 1277
3 1360 1277 1278
3 1270 1277 1352
3 1352 1277 1359
3 1353 1281 1275
3 1281 1353 1283
3 1283 1353 1354
3 1283 1354 1285
3 1285 1354 1355
3 1285 1355 1287
3 1287 1355 1357
3 1358 1361 1357
3 1361 1287 1357
3 1361 1289 1287
3 1278 1289 1360
3 1360 1289 1361
3 1362 1325 1326
3 1327 1363 1326
3 1326 1363 1362
3 1328 1364 1327
3 1327 1364 1363
3 1329 1365 1328
3 1328 1365 1364
3 1330 1365 1329
3 1366 1334 1362
3 1362 1334 1325
3 1367 1362 1363
3 1366 1362 1367
3 1368 1363 1364
3 1367 1363 1368
3 1369 1364 1365
3 1368 1364 1369
3 1336 1369 1330
3 1330 1369 1365
3 1370 1342 1366
3 1366 1342 1334
3 1371 1366 1367
3 1370 1366 1371
3 1372 1367 1368
3 1371 1367 1372
3 1373 1368 1369
3 1372 1368 1373
3 1344 1373 1336
3 1336 1373 1369
3 1370 1349 1342
3 1349 1370 1351
3 1370 1374 1351
3 1370 1371 1374
3 1375 1371 1372
3 1374 1371 1375
3 1376 1372 1373
3 1375 1372 1376
3 1352 1376 1344
3 1344 1376 1373
3 1374 1356 1351
3 1356 1374 1358
3 1374 1377 1358
3 1374 1375 1377
3 1360 1377 1359
3 1377 1376 1359
3 1377 1375 1376
3 1359 1376 1352
3 1377 1361 1358
3 1361 1377 1360
