# Asteroid shape model (convexinv -> dual reconstruction)
v 0.94182096 0.01731377 -2.35324343
v 3.45062373 -1.05894723 -2.33365145
v -2.07003699 -0.61702423 1.33358274
v -1.67391978 -1.14558327 1.48078892
v -1.73323816 -0.88458562 1.56630883
v -2.47005925 0.01809755 0.50343959
v -1.23138442 -0.93541293 -1.88181543
v -1.40449426 -0.24281722 -2.09052913
v 1.77524911 -0.35337511 1.85467607
v 1.28529665 -1.24369474 1.77668785
v 3.50817303 0.46538643 -0.57413758
v 3.12566494 0.84789452 -1.66768254
v 0.49877803 -1.69622570 -2.87784338
v -2.40142395 0.57131269 -0.49565172
v -2.41186578 0.53457891 -0.50343959
v -2.41175710 0.53486204 -0.50369268
v 1.84731338 -1.25560072 -0.95092259
v 2.67141994 -1.04659710 -0.11784085
v 1.62632027 -1.19167049 -0.96287207
v 3.60232845 1.26438492 -1.41358658
v 2.59469937 -0.99756607 -0.23590854
v 2.70917454 0.37123101 -1.41358658
v 1.08880100 -0.35059519 -2.25722924
v 1.00488645 0.01516095 -2.32556280
v 0.97131220 -0.06589447 -2.32556280
v 1.76961634 -1.54884504 2.73670245
v -0.68381373 1.21567353 -2.10644942
v -0.67679737 0.67679737 -2.33814276
v 0.92424334 1.24838912 2.31458143
v -1.18623499 -0.67228983 -2.12383512
v -1.21567353 -0.68381373 -2.10644942
v -2.24016195 0.00050060 -0.84839648
v -0.92088336 -1.16066546 -2.10903844
v -0.94572433 -1.14320389 -2.09052913
v -1.44073137 -1.03915340 -1.41894381
v 0.01565310 -1.39409155 0.04703243
v -0.91317565 -1.17825733 -2.28103365
v -1.16214266 -0.91365717 -2.02536949
v -1.62144820 -0.65746443 -1.14023126
v -2.13167703 1.93885390 1.94005454
v -0.98637372 -1.33423493 1.94005454
v -0.87032079 -2.34396200 0.89183623
v -2.46214155 1.49903327 0.89183623
v -2.79597159 -2.02936300 0.20805699
v -3.86037849 -2.44603170 -0.42055640
v 2.09551572 -1.34876905 1.29626983
v -2.03349401 -0.80073821 1.33358274
v -1.97669040 -0.62629813 1.43646368
v -2.09416373 -0.02230532 1.40988779
v -2.32668220 0.01951741 0.97556300
v -1.97584254 1.38914114 1.81878872
v -2.93607125 -1.18179288 0.24290084
v -0.60777885 -1.34510680 -2.22983979
v -1.15370916 -1.30946111 -1.75073553
v -1.09239998 -0.61982003 -2.22983979
v -2.47005925 0.47978233 -0.04175480
v -2.47005925 0.01809755 -0.50343959
v -1.29927405 -1.09112665 -0.12174302
v -0.01951741 -2.32668220 0.97556300
v 3.24405060 -3.89096973 1.83679486
v 2.02785604 3.04151245 1.33465491
v 1.78181805 0.02785819 1.78941045
v 1.45904777 -0.85103252 1.98222265
v 1.65645248 -0.65811346 1.78941045
v 1.64994441 -0.66328363 1.79390748
v 1.69409910 -1.22508760 1.41033498
v 1.71164654 -1.21275291 1.39726017
v 0.66710611 -1.67205698 1.76531698
v 1.71365889 -0.62550420 1.76531698
v 1.81073228 -1.76913037 1.12528520
v -0.25441715 2.64876616 1.70600640
v 1.87493936 -1.21192021 -1.30321857
v 3.38985160 0.31838543 0.40730720
v 2.43205705 -0.74348580 -0.49091653
v 1.75361999 0.59518206 -2.96193941
v 1.85920058 -1.54755669 -0.96548659
v 2.21730302 -1.30907566 -0.48976867
v 0.09457415 -3.61567199 -2.63116665
v 2.02536498 -1.14640035 -0.96548659
v 2.01623137 -1.15610748 -0.97486589
v 0.50359926 -1.91228603 4.15818954
v 4.61475637 -1.91228603 0.04703243
v -1.69050641 -0.43652251 -1.41865553
v -2.24466985 3.06232774 -1.41865553
v -3.07437568 -0.19385062 0.93562627
v -2.23555798 4.64568241 -1.82569001
v -2.40302835 0.53512844 -0.53236859
v -0.75358868 1.19988156 -2.08353740
v -2.24014134 0.62788436 -0.96548659
v -0.43338032 1.78263662 -2.87784338
v -1.65707434 -1.60621795 -1.32037632
v -1.74445606 2.47757746 -1.91531567
v -0.90781393 -1.43198874 -1.96372017
v -0.97786444 -1.37633887 -1.91531567
v -1.97669040 0.62629813 -1.43646368
v -1.99847062 0.62648780 -1.40988779
v -1.99606779 0.62909876 -1.41231175
v -3.78805193 -3.39144242 -0.49565172
v -2.41186578 0.53457891 0.50343959
v -2.47005925 0.47978233 0.04175480
v 1.04896854 -1.15253260 -1.54169182
v 2.48921507 1.00294867 -1.54169182
v 0.99400148 2.34122140 -3.31743330
v 0.50659757 0.18768468 -2.61027601
v 0.18422768 -0.00268007 -2.75532192
v 2.21318310 -1.09182170 -0.49091653
v 2.11762840 -1.28329674 -0.41438812
v 2.31093780 -0.84826855 -0.85634955
v 2.10284770 -1.30746286 -0.43539017
v 1.17249621 -5.20308986 1.00176041
v 0.98890235 -0.60072686 -1.31293650
v -0.53017162 1.61920961 -1.90832486
v -0.72306410 1.63635778 -1.77431949
v -0.52020153 1.77190621 -1.77431949
v -0.66328363 1.64994441 -1.79390748
v -0.67228983 1.18623499 -2.12383512
v -0.65660071 0.72663366 -2.32556280
v -0.06589447 0.97131220 -2.32556280
v -0.50393341 0.14091869 -2.45791379
v -0.64443457 0.64443457 -2.35202630
v -0.14091869 0.50393341 -2.45791379
v 0.14091869 0.50393341 -2.45791379
v 1.83954815 0.59312315 -1.87277635
v -0.33737386 5.23418188 -1.39726017
v 2.74283613 0.77138237 -0.85166190
v 2.73547035 0.20234770 -1.39284208
v 2.45813077 0.32589389 -1.53723811
v 0.50393341 0.14091869 -2.45791379
v 0.64443457 0.64443457 -2.35202630
v 0.97131220 0.06589447 -2.32556280
v 0.99624333 1.35797833 -2.49235428
v 2.16743982 0.08011989 -1.32257652
v 1.04173898 3.19759565 -2.75532192
v 0.44873171 -1.39454847 -2.49235428
v 2.27385472 0.05537470 -1.23120458
v 1.64994441 0.66328363 -1.79390748
v -0.08942292 4.34042891 1.47379518
v 2.33821012 0.35587655 -1.63758888
v 0.45212222 1.58475642 -1.79554924
v -0.45220404 4.42794211 -1.49486970
v -0.34983114 2.24479374 -3.69164824
v -0.76347635 5.05873754 -1.79554924
v -0.38902787 4.44652266 -1.26349170
v -1.08487732 0.10341190 -3.14190253
v -0.31840427 -0.32228120 -3.10109024
v -2.20079365 0.05598368 -1.09637014
v 2.91094640 -0.09940381 -3.99590597
v -0.01516095 -1.00488645 -2.32556280
v 0.27900848 -0.27900848 -2.50879299
v 0.64443457 -0.64443457 -2.35202630
v -0.97131220 -0.06589447 -2.32556280
v -0.72663366 -0.65660071 -2.32556280
v 0.50393341 -0.14091869 -2.45791379
v 0.14091869 -0.50393341 -2.45791379
v -0.67228983 -1.18623499 -2.12383512
v -1.19988156 -0.75358868 -2.08353740
v -1.85303850 -0.28996175 -1.10110138
v -0.37043199 -1.50063028 2.53093845
v -1.31122384 -0.26025840 -2.59524318
v -1.64045240 -0.13912025 -2.05122431
v -1.73700576 0.29463141 -2.59524318
v -5.17222454 -1.68427005 -1.38653737
v -4.07775676 1.34670999 0.00645589
v -3.24403749 -1.76477269 0.00645589
v 2.80329072 -0.49943803 1.35635050
v -0.58458315 -2.23743757 1.00334972
v -0.62648780 -1.99847062 1.40988779
v -0.02230532 -2.09416373 1.40988779
v -0.62909876 -1.99606779 1.41231175
v -0.62629813 -1.97669040 1.43646368
v -1.68019794 -1.21620357 1.43172791
v -1.62429384 -1.21985374 1.48078892
v -1.21620357 -1.68019794 1.43172791
v -1.25868599 -1.67913206 1.39284208
v -1.22508760 -1.69409910 1.41033498
v -2.31326196 1.65260278 2.81125094
v -2.80111307 3.14370734 -1.57337538
v -4.73612753 -1.75735662 -0.37656023
v -1.84898258 0.23411599 1.66776411
v -1.97669040 0.62629813 1.43646368
v -1.76682541 0.64714801 1.66776411
v -1.67470380 1.08718420 2.46791438
v -2.66159769 1.41007054 -0.43406921
v -1.52370582 0.29569288 -2.28103365
v -1.46587756 -0.93752075 -1.04012063
v -2.82217059 0.68393768 1.57963494
v -1.66410257 0.30504757 -1.82569001
v -1.42291857 -0.07683554 -2.18285400
v -1.32065525 -0.89480986 -1.57198649
v -1.07609644 -1.29465803 -1.91948251
v -1.60096069 -0.73533365 0.62625338
v -2.02264489 1.41042202 -1.91948251
v -1.80792332 0.65298263 -1.75239250
v -0.71943887 -1.74267791 1.95938941
v -0.65589302 -2.28192502 1.39284208
v -1.51848768 -0.75579319 1.89179589
v -1.25242331 -0.94281889 2.09004370
v -0.67069040 -1.63492726 1.77477822
v -1.18708389 0.01705252 3.38717995
v -1.36701663 -0.73231916 1.37546011
v -1.35642774 -0.72920489 1.41424113
v -1.80660058 0.17286342 1.77477822
v 1.40229646 -0.03940717 2.09899047
v 1.23225132 -0.67402427 2.09899047
v 1.62552379 -0.65760498 1.81487597
v 2.17452241 -0.14662130 1.97183525
v 0.27937073 -2.77457725 4.46229978
v 1.28982128 -1.24169262 1.77431949
v 1.68019794 -1.21620357 1.43172791
v 1.63635778 -0.72306410 1.77431949
v 2.50156059 -0.36602646 1.46464254
v 2.61335802 -0.68145805 1.35970888
v 2.37428498 -0.67329697 1.46464254
v -0.39564817 2.35270034 4.46229978
v -0.30603468 2.21080916 4.32959316
v -0.34824311 2.36681937 4.28847676
v 0.97229371 1.90514489 0.43983604
v 0.41467879 1.22137366 3.22493552
v 0.68468369 2.28100716 2.45879938
v 0.23434157 2.35997804 3.22493552
v -4.27350838 2.87137096 -0.79221996
v -2.03124477 5.15880340 -0.81139098
v -2.68821209 1.88940816 2.46057116
v -3.40016235 2.71034971 -0.35320312
v -1.26219981 3.19422876 0.34884007
v 2.38107203 0.46814249 1.47603159
v -0.57465628 0.82067585 2.81511888
v -1.03322989 2.28870276 1.38212997
v 4.11277732 1.56442837 -0.96029855
v 2.48029663 0.96376455 -3.65781761
v 2.00153649 -1.18699424 -0.96029855
v 4.04193660 2.11016998 -2.57225376
v 3.54275435 0.75349534 -0.33047795
v 1.75536419 0.35562126 -2.57225376
v 2.42310593 -1.11818494 -0.36376491
v 2.11279387 -1.72720665 -0.36376491
v 2.08828308 -1.18856471 -0.81802535
v 1.35014931 -3.42910489 -0.46960563
v 1.21365196 -3.41943328 -0.72735637
v 0.57058619 -1.13803253 -2.49236708
v 0.54270319 -0.78629658 -2.63116665
v -0.99699428 -1.52298389 2.51697835
v 2.96133683 0.30687881 0.48508114
v -2.88999396 -1.97372257 3.21980323
v -2.32668220 0.01951741 -0.97556300
v -2.09416373 0.02230532 -1.40988779
v -2.23743757 0.58458315 -1.00334972
v -2.25230873 0.58444003 -0.97556300
v -2.25158523 0.58558559 -0.97663441
v -1.19988156 0.75358868 -2.08353740
v -0.90417039 0.90417039 -2.22852643
v -1.24127762 1.24127762 -1.81060169
v -1.21567353 0.68381373 -2.10644942
v -0.73844234 0.96562663 -2.32117305
v -2.89431353 -1.93677419 3.47125927
v 2.01623137 -1.15610748 0.97486589
v 2.02536498 -1.14640035 0.96548659
v 2.00506347 -1.15107666 0.99917592
v 1.98358381 -0.67904596 1.39726017
v 0.81539952 -0.83394822 3.42256546
v 1.37648813 -2.08151180 -3.95843374
v 0.79291942 -5.05102281 -0.43539017
v 0.74612194 -5.21610290 -0.39897375
v 0.91224439 1.90633038 0.10602709
v 0.92424334 -2.59110577 -1.52491346
v 0.44029076 1.70409216 -1.52491346
v 0.35614999 1.92330250 -1.72086648
v -0.67402427 1.23225132 -2.09899047
v -0.03940717 1.40229646 -2.09899047
v -0.65760498 1.62552379 -1.81487597
v -0.62629813 1.97669040 -1.43646368
v -0.65811346 1.65645248 -1.78941045
v -0.02785819 1.78181805 -1.78941045
v -0.18482025 3.63241831 0.73798945
v -0.48023897 1.58843553 -1.80962423
v -0.01951741 2.32668220 -0.97556300
v -0.02230532 2.09416373 -1.40988779
v 1.66733137 0.75516499 -1.70637563
v 2.67730379 0.01409645 -1.76956218
v -0.34729704 1.55520755 -1.76956218
v 2.32777485 1.67693615 0.48644357
v 0.94581878 2.32842631 -1.25125525
v -0.49922097 1.67747731 -4.39678552
v 1.67913206 1.25868599 -1.39284208
v 1.79049022 0.31370586 -2.38566327
v 1.71164654 1.21275291 -1.39726017
v 1.69409910 1.22508760 -1.41033498
v 1.63635778 0.72306410 -1.77431949
v 1.28982128 1.24169262 -1.77431949
v 1.68019794 1.21620357 -1.43172791
v 1.40229646 0.03940717 -2.09899047
v 1.23225132 0.67402427 -2.09899047
v 1.62552379 0.65760498 -1.81487597
v 0.71432407 1.02644020 -2.66526302
v -0.96142694 2.84734215 -4.35575203
v 1.15435855 0.21727995 -2.38368324
v 1.90607983 0.96900122 -1.45174561
v 2.87254160 -1.21511728 -2.59499884
v 0.23341001 0.54829408 -2.59499884
v 1.30346990 -0.89823559 -3.13865541
v 0.18042110 0.92387372 -2.32556280
v 1.21567353 0.68381373 -2.10644942
v 1.19988156 0.75358868 -2.08353740
v 1.18623499 0.67228983 -2.12383512
v 0.67679737 0.67679737 -2.33814276
v 0.72663366 0.65660071 -2.32556280
v 0.65660071 0.72663366 -2.32556280
v 0.66924801 1.09712710 -2.16294625
v 0.45235741 0.54306615 -2.49016147
v 1.69066729 0.26280296 -2.08353740
v -0.43926532 4.30790918 2.33526803
v 0.44676964 1.57671383 2.56655916
v 0.34826577 1.92419035 2.48990636
v -1.87164289 0.97362336 -3.22024955
v -1.62680473 0.16904861 -2.56074118
v 0.63784738 0.10303753 -4.16047812
v -0.10408499 -0.86766305 -1.81597822
v -0.22573598 0.31888462 -3.90023730
v -0.32878502 0.41371924 -3.99590597
v -1.17358404 -0.87149096 -0.22454680
v -1.15779897 -0.81781974 -0.42111360
v -0.98627724 -0.92272743 -0.27204923
v 1.99215666 -1.96492653 -0.27204923
v 1.14811514 -0.98036083 -2.56074118
v 0.12414667 -1.55149622 0.52562800
v 0.12057174 -1.43436308 0.14081963
v -0.19398823 -0.57912496 -2.33365145
v -0.08836698 -0.64583164 -2.23486702
v -0.51833362 -1.00101050 -2.45279612
v -0.70801883 -1.04412130 -2.51494941
v 1.32057419 -1.50614724 -1.16424873
v 1.73717165 0.50606994 -2.45279612
v 0.99211635 -1.17768941 -1.57145048
v -2.52679446 -1.17957454 -3.31743330
v -0.21690992 -0.42592704 -2.94211816
v -1.33098756 -0.65201269 -2.50389078
v -0.26457150 -0.86413603 -2.50389078
v -0.50393341 -0.14091869 -2.45791379
v -0.65660071 -0.72663366 -2.32556280
v -0.64443457 -0.64443457 -2.35202630
v -0.67679737 -0.67679737 -2.33814276
v -0.14091869 -0.50393341 -2.45791379
v -0.06589447 -0.97131220 -2.32556280
v -1.24127762 -1.24127762 -1.81060169
v -1.11892647 -1.11892647 -1.96228510
v -0.98535749 -1.42078062 -1.80428281
v -3.01029851 -0.06775828 -1.80428281
v -0.43165034 -0.65382184 -2.64921670
v -0.68381373 -1.21567353 -2.10644942
v -0.75358868 -1.19988156 -2.08353740
v -1.15360012 -0.82581998 -1.52875533
v -2.37243977 0.39301967 -1.52875533
v -1.90387841 -0.35725862 0.00237836
v -1.41329958 -0.88837974 -0.56667769
v -1.78080617 0.02725281 -1.94051488
v -0.95795451 -1.28230810 -1.94051488
v -2.25957137 0.01800765 -0.86481467
v -0.04765333 -1.37183257 -0.86481467
v -1.59420541 -0.75109438 1.45566943
v 1.13304167 -2.06041467 1.74802922
v 1.98163616 -2.06041467 2.59662371
v 1.03232345 -1.95345281 2.59662371
v -0.53512844 -2.40302835 0.53236859
v -0.56759220 -1.33934795 4.02679481
v -0.58558559 -2.25158523 0.97663441
v -0.58444003 -2.25230873 0.97556300
v 2.84999252 3.84221520 1.88771374
v -1.53836251 -0.54613983 1.88771374
v 4.54846077 -2.24460808 0.60767780
v 2.96589812 -3.57221667 -0.01684544
v 2.85652088 -0.36808991 1.38950613
v -1.26160835 -2.07387489 1.38950613
v 3.52945793 -1.13510893 1.70600640
v -1.71892758 -2.59961935 0.60229075
v -1.29227073 -2.17296250 0.78532526
v 1.16681750 -2.92145700 0.58866047
v 1.13049277 -3.79150140 -0.03989161
v -0.23715836 -3.29765120 0.58866047
v 0.02785819 -1.78181805 1.78941045
v -1.15107666 -2.00506347 0.99917592
v -0.67904596 -1.98358381 1.39726017
v -1.21275291 -1.71164654 1.39726017
v -2.77852462 2.40359309 0.85806421
v -2.03142471 2.11682942 1.52589986
v -0.02785819 1.78181805 1.78941045
v -1.63480904 1.63480904 0.99767723
v -2.09416373 0.02230532 1.40988779
v -1.67913206 1.25868599 1.39284208
v -1.69409910 1.22508760 1.41033498
v -1.25868599 1.67913206 1.39284208
v -1.24169262 1.28982128 1.77431949
v -1.68019794 1.21620357 1.43172791
v -1.62866661 0.75690480 1.76323106
v -1.63635778 0.72306410 1.77431949
v -2.71034971 3.40016235 -0.35320312
v -2.64636589 2.64636589 0.06865999
v -3.76416665 1.87005077 -0.37656023
v -2.94750936 2.35230040 -0.00911648
v -1.25645641 1.25645641 1.79178397
v -1.28982128 1.24169262 1.77431949
v -2.25230873 0.58444003 0.97556300
v -2.40142395 0.57131269 0.49565172
v -3.50780608 -2.59054580 0.49565172
v -2.40302835 0.53512844 0.53236859
v -2.41175710 0.53486204 0.50369268
v -2.54290028 1.55863933 -3.90787076
v -1.75677109 0.81839850 2.32897789
v -2.53448928 1.37209664 3.89412778
v -1.82893703 0.70772927 -1.70345426
v -1.28241127 -0.80541646 2.21208518
v -0.37335858 -1.16511999 3.60639723
v -0.88166778 -0.62489301 3.08441464
v -1.47098137 1.48477584 3.60639723
v -1.29969330 -1.18520134 1.89179589
v -1.13012882 0.22492141 3.27436331
v -2.04773507 0.15990381 1.54162862
v -1.45812067 -0.55134876 2.08280735
v -2.12517359 0.17348324 1.40988779
v -0.73308002 -0.68155497 3.65896129
v -0.28104671 -1.30428574 3.21270027
v -0.03757066 -1.48102228 3.38717995
v -0.92641201 -1.15397717 1.91845417
v -2.04530230 0.09745547 2.26496479
v -1.03500245 -1.23102803 1.43312486
v -0.60375125 1.93413352 1.33825967
v -1.17367079 0.52675167 1.83679486
v 4.95388481 2.23658587 0.54819306
v 2.26891261 0.65436947 2.81337740
v 3.64013466 2.15171165 3.53349194
v 2.43364980 0.48963228 2.34241343
v 0.53080857 -0.23415818 3.53349194
v 3.06990338 0.74875967 1.97183525
v 2.00153649 -1.18699424 0.96029855
v 2.53688225 1.21796704 3.97664278
v 4.36230909 1.88962452 0.96029855
v 1.97669040 -0.62629813 1.43646368
v 1.99606779 -0.62909876 1.41231175
v 1.99847062 -0.62648780 1.40988779
v 1.78181805 -0.02785819 1.78941045
v 1.52471579 -3.61765807 1.40988779
v 1.65645248 0.65811346 1.78941045
v 1.68054490 1.27379332 1.39726017
v 1.68019794 1.21620357 1.43172791
v 1.97669040 0.62629813 1.43646368
v 1.84706482 0.60756322 1.59802859
v 1.40229646 0.03940717 2.09899047
v 2.45510891 -0.66576682 2.47114175
v 0.94867226 0.34080197 2.47114175
v 0.41850811 0.46129530 2.64485822
v -1.90263048 1.39114117 0.84230692
v 2.93978716 3.39693623 0.84230692
v 3.80851737 0.95898339 1.69100805
v -0.52667715 2.74346776 0.85233482
v -1.66025187 2.48498973 0.54094653
v -1.51727860 2.34201645 0.60228164
v -2.52138239 -2.07217666 0.85233482
v -0.13424553 -2.98377952 1.69100805
v -2.59076391 3.26471377 -0.13644659
v -1.70494713 1.62338665 2.20143224
v -0.65760498 1.62552379 1.81487597
v -0.54113014 4.41531172 -0.20056946
v -0.92026020 2.26623170 1.38212997
v -1.02752717 2.23130193 1.44539368
v -1.20850862 0.97910316 3.00613027
v -2.37883038 2.05613418 1.91962691
v 1.53527969 -0.44354429 -1.55267993
v 1.27765972 0.12834553 -2.79755690
v 1.27889908 0.12951166 -2.79875440
v -0.13575791 -0.36750406 -2.96193941
v -0.02313568 -0.88605644 -1.92508778
v -0.04473713 -0.58119099 -2.50077146
v -1.17539009 -0.88708819 -2.79875440
v 0.81868700 -0.58896917 -1.47168001
v 0.87804620 -0.79079779 -0.73249779
v 0.47458269 2.59552706 -1.91276741
v 0.30903605 -2.16749526 -3.39563720
v -0.38638416 -0.78333507 -4.35575203
v -0.42743021 2.53161434 -3.61605684
v -0.27858630 2.29593960 -3.39563720
v -0.91673210 -1.79588524 1.51749760
v 1.38741638 -1.94810064 1.01944405
v 0.41867673 -0.43227965 3.35218850
v 0.09304689 -0.89552348 3.00701987
v 0.00155588 -1.82489746 1.98222265
v 0.62629813 -1.97669040 1.43646368
v 0.63947497 -1.67991408 1.77319861
v 0.65811346 -1.65645248 1.78941045
v -2.88762867 -1.89622324 3.47440574
v -0.02542249 -0.92874224 3.36134218
v -3.53160725 -2.15560936 3.36134218
v -4.96389395 -1.84193129 -0.39057687
v -4.12595572 -3.92487429 -0.96548659
v -3.47034871 -2.87200477 -0.94707936
v -0.38410887 0.40046957 -1.26692651
v -2.92354599 -2.05954699 -1.05929421
v -0.27566814 0.37249118 -1.62357234
v -0.33320772 0.32873283 -1.58754349
v -0.97131220 0.06589447 -2.32556280
v -0.72663366 0.65660071 -2.32556280
v -1.18623499 0.67228983 -2.12383512
v -1.22824017 -0.86232376 -2.32117305
v -1.92054600 0.45388243 -1.53815068
v -1.87122392 0.91833252 -1.50280996
v -1.88442710 0.63546440 -1.53815068
v -1.60599525 0.85665759 -1.73054552
v -1.61920961 0.53017162 -1.90832486
v -1.63635778 0.72306410 -1.77431949
v -1.77190621 0.52020153 -1.77431949
v 0.03888950 0.45838283 3.91763990
v -1.59711963 -0.45277742 1.07318555
v -2.42238823 -1.77422892 -1.62357234
v -3.81768762 -3.09172767 1.64368251
v -2.60754374 -2.04480736 -2.00748405
v -2.73896945 -2.19051417 -1.88423247
v 0.97841944 -0.46760719 2.50134975
v 0.41678432 -1.22090625 4.07301255
v -1.50576111 3.76927641 1.41182422
v -1.24708761 2.29415578 -1.09769726
v -4.52854147 2.21795526 -1.82384221
v -3.82462129 0.47583231 -3.13865541
v 1.17079205 2.27964456 -0.84283789
v 0.04610841 1.30800082 -1.82384221
v 0.74134831 0.43285214 -2.42856501
v -0.39886234 0.40307708 -3.39781034
v 1.74241868 2.37366855 -1.40988779
v 1.62002164 1.67568289 -2.59732290
v 0.65231466 2.94533436 -0.96029855
v 0.89328431 4.10554477 -1.85295679
v 1.56448886 0.73117165 -1.85295679
v -0.15005807 0.90151025 -3.74262619
v 1.87113659 1.30676960 1.02256602
v 1.80832394 1.43879374 0.96029855
v 1.67808825 1.21980686 1.44278932
v 1.67913206 1.25868599 1.39284208
v 1.71164654 1.21275291 1.39726017
v 1.69409910 1.22508760 1.41033498
v 3.49619447 -0.55837642 1.39284208
v 2.11753341 0.05577436 2.11063785
v 2.78213623 -0.88969536 2.81511888
v 2.39421855 0.95577389 0.31133619
v 1.87068502 -0.36682346 3.10064543
v 0.00609399 3.65476696 -1.57993923
v -0.26242070 4.08210564 -1.57993923
v -0.11383154 3.95355811 -1.13162578
v 3.06670083 0.08657729 1.05897632
v -0.01876760 3.71384169 2.18930149
v 0.94004967 1.25869249 -1.84036678
v 0.94004967 -2.92003545 2.33836116
v 0.41333815 1.75465852 2.33836116
v -0.10570849 4.38801922 -0.76878843
v 0.02171578 3.67881869 2.06715771
v 0.05438970 3.59741252 2.18930149
v -0.79337005 5.12082943 2.56655916
v -0.31798139 4.34357962 1.89107473
v -1.79537983 0.32645855 -2.54032104
v -1.93170003 0.19013834 -2.15059784
v -2.57750908 1.07981871 -2.78816015
v -1.56499208 0.00279777 -2.30272674
v -1.14821502 0.25019548 -3.22024955
v -0.85191264 -0.24427800 -2.78816015
v -1.53079514 0.07871147 -2.46797400
v -1.02589396 0.19570524 -3.28393565
v -1.85281842 1.37209514 -4.16047812
v -0.68560786 -1.14049810 -2.43219658
v -0.27733445 -1.03413141 -2.27179228
v -0.36538744 -0.42489849 -3.03113827
v 0.13915434 0.03942437 -3.49954478
v -2.20074789 -0.33117973 -3.49954478
v -1.41390746 -0.66402466 -2.94211816
v -0.03940717 -1.40229646 -2.09899047
v -0.67402427 -1.23225132 -2.09899047
v -0.65760498 -1.62552379 -1.81487597
v -1.49394193 -0.78540375 0.46326600
v -0.61108271 -1.33676412 2.26496479
v -0.97985432 -1.16041219 0.95110638
v -0.62788436 -2.24014134 0.96548659
v 2.38141209 -2.70862724 1.08443252
v -1.88280360 -4.21997976 -0.33413100
v -1.77247659 -0.98803021 1.08443252
v -1.44562171 -3.10317061 0.32542992
v -1.13147040 -3.63516472 0.08606647
v -0.72306410 -1.63635778 1.77431949
v -1.18703722 -1.41333766 1.70966617
v -1.24169262 -1.28982128 1.77431949
v -1.09291339 -3.64549604 0.08606647
v -0.02785819 -1.78181805 1.78941045
v -1.13047282 -3.65905851 0.06880471
v -0.65811346 -1.65645248 1.78941045
v -0.66328363 -1.64994441 1.79390748
v 1.22130523 1.01734395 0.81372689
v -2.57753814 2.34661674 0.81372689
v 0.43582543 1.75443011 -2.76134360
v 0.34300676 1.80847529 1.44343729
v -1.95015537 2.20220972 -1.90930949
v -2.54536714 2.83431933 3.10560669
v -1.15107666 2.00506347 0.99917592
v 0.36895029 2.03770850 2.09430663
v 4.02136176 3.55058686 2.09430663
v 0.38368030 2.37976419 0.97556300
v -0.55276205 1.78834000 1.85138986
v 3.24492822 2.69711262 0.61960169
v -0.37733482 0.28893074 -1.62487006
v 2.14560251 1.87419734 -1.62487006
v 0.38158869 1.16617674 1.02189888
v -1.71164654 1.21275291 1.39726017
v -2.23743757 0.58458315 1.00334972
v -2.25158523 0.58558559 0.97663441
v -2.24014134 0.62788436 0.96548659
v -2.00506347 1.15107666 0.99917592
v -1.98358381 0.67904596 1.39726017
v -1.99606779 0.62909876 1.41231175
v -1.99847062 0.62648780 1.40988779
v 3.50945045 0.52787657 -0.37011058
v 2.71083139 0.65992474 2.06296903
v 3.25573076 1.07431585 1.72177620
v 4.97586833 2.14857058 -1.78860202
v 1.64994441 0.66328363 1.79390748
v 1.62552379 0.65760498 1.81487597
v 1.63635778 0.72306410 1.77431949
v 1.23225132 0.67402427 2.09899047
v 1.28982128 1.24169262 1.77431949
v 1.68928275 1.06493287 1.56522570
v -2.36955795 2.98282685 1.03062347
v 1.41200224 1.96956085 1.03062347
v 1.31416286 4.31299521 -0.66235972
v 3.25339640 0.21832854 1.05451991
v 1.57626314 0.89147797 -1.46189134
v 3.97494169 -0.61571166 -1.46189134
v 1.24260557 1.00431604 0.83223838
v 1.38210390 1.47862765 -0.90489236
v 1.98472951 0.09507255 2.20143224
v 2.00001740 0.08068790 2.21620382
v -3.18323402 -1.01009747 -2.47136978
v -0.07617368 -0.60104522 -2.47136978
v -0.34738618 -1.42999936 -0.03381157
v -0.74896223 -1.36702254 -0.39057687
v -0.34068121 -1.21030968 -0.75554093
v -1.19614935 -1.84193129 3.37716774
v -0.15058641 -2.05457805 1.43450883
v -0.70563902 -0.82241839 4.11664646
v -0.34487366 -0.48296783 4.46522815
v -2.01520048 -1.96972917 3.00701987
v -0.35989710 -2.15469864 1.40988779
v 0.53323101 -1.33276513 2.23905010
v 0.02230532 -2.09416373 1.40988779
v 0.01951741 -2.32668220 0.97556300
v -0.33338846 -2.00352950 1.66706148
v -3.16565993 -2.74601876 0.97556300
v -0.40434749 -1.00207053 3.55813697
v 0.89362700 -0.60865815 -5.33686043
v 0.52742265 -0.77179084 -5.14619723
v -1.02160842 -1.33212305 -4.12987102
v 1.89854528 0.90858969 -4.12987102
v 2.04619529 0.97883661 -4.19950824
v -0.42879191 -0.23060741 -3.74029600
v -2.23199244 -1.91198517 -2.91039698
v -1.40407865 -0.99940243 -3.11691073
v -1.06065861 -1.37410607 -4.13753842
v -1.04253253 -1.36094855 -4.15052793
v -1.18887007 0.78340492 2.77584749
v -2.95180840 -1.09023192 0.96548659
v -2.30754908 -0.80961630 2.41196208
v -2.40161641 -0.78195045 2.06744755
v -2.84576008 -2.38260971 3.80350561
v -0.00550751 0.52095306 3.63799127
v 1.22403995 -4.05285367 0.35996892
v 0.83785389 -4.06464015 1.62867587
v 1.39840121 -3.43778699 0.49565172
v 2.21979813 -1.06171244 0.52894997
v 2.24014134 -0.62788436 0.96548659
v 2.22713249 -1.06386953 0.50208840
v 2.23166247 -1.05646313 0.49565172
v 2.15864108 -0.92912448 0.88609493
v 3.68324474 2.54385303 -1.63497442
v 3.04746696 2.65197979 1.70776747
v 4.11139152 2.87052668 -0.97556300
v 1.64569979 1.31328214 -3.28165165
v 3.77555620 2.57928547 -1.55245682
v 2.56467508 2.08333348 -1.79236425
v 2.21090111 1.86695500 -2.09981857
v -1.62670407 2.06238438 -1.81133495
v -1.88641886 2.22641115 -1.56843137
v -1.22845119 1.95463740 -1.70637563
v 1.19437048 1.84102566 0.73157259
v -2.32926232 2.33362998 -1.72695689
v 1.03957501 1.15482282 -1.72695689
v 0.99972236 1.17919786 -1.69232215
v -2.21765346 3.23882129 1.40858331
v -2.18881165 2.29381453 -1.69597368
v 2.47937814 1.00259379 -0.41621493
v 3.71655031 -0.70176108 -1.63758888
v 1.72014175 1.55371501 -0.96029855
v 3.41564448 0.11603904 -0.28625197
v 3.31731476 -0.02254041 -0.90561286
v 1.41254822 2.22512982 -0.00914637
v 0.89446281 1.85751981 -2.32465446
v 0.06589447 -0.97131220 -2.32556280
v 0.03940717 -1.40229646 -2.09899047
v -0.01731377 -0.94182096 -2.35324343
v -0.13605633 -0.63848549 -2.53238614
v -0.70486421 -1.60172337 -2.09899047
v 0.44528882 -1.82861923 2.00532958
v -0.16059766 -1.26006159 4.76299042
v -0.74038962 -1.09338054 2.98370697
v 1.34837183 -3.05873345 0.96548659
v 0.69133479 -1.77454690 3.65896129
v -0.42211563 -1.52669220 2.26245241
v 1.02559487 -2.31767682 2.62928908
v -1.71247507 -0.31356979 3.50614362
v -0.40081424 -1.49667141 2.39662597
v 0.72302232 -1.84389422 3.50614362
v 1.10837795 -2.03620409 3.66016188
v -3.08035528 -0.77284717 0.62065935
v -0.54654674 -3.30665572 0.62065935
v -3.31537962 -3.54168006 -0.92892136
v -0.62629813 1.97669040 1.43646368
v -0.62909876 1.99606779 1.41231175
v -0.67904596 1.98358381 1.39726017
v -1.21620357 1.68019794 1.43172791
v -0.72306410 1.63635778 1.77431949
v -1.21275291 1.71164654 1.39726017
v -1.22508760 1.69409910 1.41033498
v -0.66328363 1.64994441 1.79390748
v -0.65811346 1.65645248 1.78941045
v -0.01951741 2.32668220 0.97556300
v 0.34848553 2.27219228 1.29188060
v 3.34315959 2.69034005 1.02575261
v 0.32590106 1.53220829 3.72289227
v -0.02230532 2.09416373 1.40988779
v -0.62648780 1.99847062 1.40988779
v -0.58458315 2.23743757 1.00334972
v 2.38206845 -0.67104849 1.12225481
v 2.21318310 -1.09182170 0.49091653
v 2.59131943 -0.49002118 0.49091653
v -0.17300080 -1.11177392 2.18764608
v 1.94640235 -0.26111103 -0.99235758
v 2.85822337 0.79287046 2.18764608
v 3.29533491 1.10219206 -1.88892770
v 1.18844681 0.67315566 2.12252888
v 1.21567353 0.68381373 2.10644942
v 2.98348023 0.73443157 1.33465491
v 3.45751783 0.25190078 1.33825967
v 3.31669275 0.59939381 1.25054353
v 3.56538487 3.41178729 -0.04867402
v 2.36744729 0.35157896 1.75861223
v 3.42039608 0.10650730 -2.16816385
v 4.25289916 -0.85578992 0.73521606
v 1.48535664 0.88317229 0.73521606
v 3.07052076 0.08419168 1.05118078
v 3.96459931 -0.59574708 0.49134679
v 1.85143171 1.24513850 1.20318432
v 2.06883290 1.39939657 0.23154101
v 3.06431522 0.09039722 1.05118078
v 1.99842096 1.19105447 0.96029855
v 2.82706181 0.58955333 0.36647835
v 0.48279422 -0.79441099 -1.17976569
v -2.26374381 -1.75546621 -1.17976569
v 0.99213185 -0.31645379 -3.49798949
v -2.91415417 -1.88328495 -1.95141598
v -2.51954884 -2.10129900 0.55494470
v -2.12175426 -1.67884469 3.90653583
v 1.59169044 0.38441295 -4.59691104
v 1.82149057 1.47765796 -3.11368506
v -1.98358381 0.67904596 -1.39726017
v -3.57333284 -2.44101218 -1.39726017
v -1.85801343 -2.08045200 -3.72446613
v -2.14558676 -2.03598717 4.72780720
v -2.92835585 -2.32400349 3.43435573
v -3.86611512 -3.18478698 0.03720887
v -2.51500518 -2.01591405 4.11368894
v -1.63530119 -0.48848264 0.22461739
v -2.69170473 -2.18003620 3.67666269
v 0.05625237 0.56792090 3.67666269
v 0.50950999 1.25001275 0.45043033
v 2.93089986 2.22188376 4.08354217
v -0.53223339 0.04585292 4.08354217
v 3.51604045 2.87393799 -0.43084333
v 1.90958413 0.85029672 -4.33150581
v 2.51710270 2.24508547 -1.19995970
v 2.85169406 0.32781427 -1.23613291
v 2.83449039 0.35536145 -1.17991588
v 2.87924125 0.31061059 -1.17991588
v 5.04733842 2.23356607 1.29928207
v 3.56905177 1.31035130 -1.71753783
v 2.22073968 -0.07676354 1.20148978
v 0.30131411 -0.84716161 -1.67846270
v 3.04652527 0.87776888 -1.67846270
v 1.18336582 0.55901595 2.19243027
v 1.37793856 0.57553169 2.08353740
v 1.19988156 0.75358868 2.08353740
v 2.45066208 -0.13371370 2.00366308
v 4.48542319 -1.69504080 2.00366308
v 4.04121393 -0.48777145 0.00876531
v 4.10942063 2.99644804 1.95574149
v -2.22955866 1.12612505 0.88470593
v -1.74161972 0.00000000 2.07494515
v 1.40505353 0.00000000 2.10316076
v 1.40505353 0.00000000 2.10316076
v 1.62351598 -0.08584228 1.62163124
v 1.84140658 -0.30373288 1.62163124
v 2.52938338 -0.00000000 1.50219393
v 2.24014842 0.24867152 1.62117805
v 2.32922611 -0.08584228 1.55212486
v 2.69523325 0.24867152 1.48312957
v 0.10230596 -0.76507568 -2.05874071
v 0.22773874 -0.71072689 -2.19131481
v -2.32572093 1.59258642 -0.39444229
v -2.13086327 2.56679624 -1.39865549
v -2.47434136 0.47806017 -0.00000000
v -2.47434136 0.47806017 0.00000000
v 1.03007075 -1.81817484 0.32250119
v 1.03007075 -1.97010302 0.47442937
v -0.00000000 0.97632104 -2.33232305
v -0.03125810 0.93996410 -2.34727939
v 0.00000000 0.52261585 -2.46995301
v 0.00000000 0.52261585 -2.46995301
v 0.97632104 -0.00000000 -2.33232305
v 0.97632104 0.00000000 -2.33232305
v 1.40505353 -0.00000000 -2.10316076
v 0.85402234 0.51453611 -2.47138586
v 0.52261585 -0.00000000 -2.46995301
v 0.52261585 -0.00000000 -2.46995301
v -1.42758345 -0.89329924 -0.37607473
v -1.29553319 -1.08983827 -0.07182535
v 0.44409113 -1.76432105 2.71538400
v 1.06530352 -1.89198602 3.39037580
v -4.59383448 0.27645741 -0.59178957
v -3.96157234 -0.31392968 -0.16928209
v -2.09598656 -0.00000000 1.41197141
v -2.09598656 0.00000000 1.41197141
v -1.84581635 0.27645741 1.66345063
v -2.09337222 -0.00000000 1.41515700
v -2.26296110 2.56679624 -0.05744372
v -2.26296110 2.62423996 0.00000000
v -1.93149890 1.12612505 1.86727725
v -2.23114602 2.62423996 0.32302391
v -2.12924118 1.20911512 -0.05744372
v -2.17027366 1.40877742 -0.27439113
v -1.50899117 -0.74099612 -0.37607473
v -1.54200225 -0.66235583 -0.27439113
v 0.16980564 2.80516371 0.76189411
v -0.50386892 3.52662073 0.27978239
v -2.18861878 1.59258642 -0.84640752
v -1.91145508 0.95291422 -1.52249846
v -2.07228456 0.95291422 -1.22160768
v -2.01063031 1.04447212 -1.31440354
v -0.97632104 -0.00000000 -2.33232305
v -0.97632104 -0.00000000 -2.33232305
v -3.21282205 -1.95638442 -0.00000000
v -3.48326548 -2.60064525 0.83304321
v 1.95879931 -1.53719725 0.67489541
v 1.73969779 -2.05914937 0.00000000
v 0.85338634 -1.81817484 -1.47140570
v 0.89752519 -1.59749836 -1.24393290
v -0.81216369 2.02961500 -1.33610430
v -0.13025797 2.48880402 -0.64497851
v -0.13025797 2.31696285 -0.96647074
v -0.28024655 2.25197426 -1.12499869
v 1.16181546 0.51453611 -2.21878658
v 0.95079397 0.75019385 -2.43043695
v 0.71823965 1.34789941 0.32250119
v 0.72197198 1.32973803 0.34223483
v -0.52261585 0.00000000 -2.46995301
v -0.52261585 -0.00000000 -2.46995301
v -0.00000000 0.00000000 -2.52142618
v -0.00000000 0.00000000 -2.52142618
v -0.00000000 -0.52261585 -2.46995301
v -0.00000000 -0.52261585 -2.46995301
v 0.44047669 -2.56109080 0.88530807
v 1.00766676 -1.90138035 1.15669666
v 1.62351598 -0.88242664 1.54317453
v 1.00766676 -0.20859729 1.67019679
v 1.78390125 0.00000000 1.79224847
v 1.78390125 0.00000000 1.79224847
v 0.51449177 -0.00000000 3.33902839
v 1.67903064 -1.72936564 1.58627994
v 0.16980564 3.18638146 0.55812897
v 1.37580257 1.78366158 1.13517328
v 1.84140658 0.69819158 1.52295030
v 1.37580257 0.18875252 1.61898366
v -2.38773266 -0.31392968 0.67195274
v -2.31989962 -0.37224955 0.69985758
v 0.22106451 -0.30373288 1.46204148
v 0.14609722 -0.37224955 1.44790954
v 3.20852673 0.08804837 -0.68392922
v 3.37541951 -0.02408323 -0.42557328
v -0.50386892 2.23509447 1.33971060
v -0.00000000 1.78390125 1.79224847
v 0.25900918 -1.59749836 -3.34883810
v 0.59916122 -0.81245396 -2.51909843
v -0.51170706 0.75019385 -4.21249961
v 0.54056556 -0.81245396 -2.62872320
v 0.10230596 -1.37749689 -0.03985855
v -0.31292599 -1.46054997 0.38816158
v -1.16790885 0.00000000 -2.22991723
v -0.36135280 0.75313743 -2.76889613
v -1.87638244 1.04447212 -1.47798505
v -1.61550459 0.75313743 -1.73964037
v -3.75693794 -3.11265041 0.83304321
v -3.81681339 -3.20176695 0.69508766
v 0.84068094 -1.97010302 2.39733632
v 0.86336157 -2.08349703 2.28045004
v 0.37215840 -1.72936564 4.03126593
v 0.21871674 -2.08349703 4.40555924
v -0.81216369 1.94004916 -1.44524059
v -1.07643334 1.70340690 -1.68258809
v -0.03125810 0.21043477 -2.73722094
v -1.07643334 1.32974232 -1.98924668
v 3.14507729 0.16495375 -0.42557328
v 2.91695542 0.39307562 -0.00000000
v -0.20765143 4.39429574 0.34223483
v -0.18757636 4.34647211 0.40407183
v 0.17662952 3.73217239 -0.00000000
v 0.00125434 3.99319473 0.40407183
v 0.22773874 -0.13271918 -3.27269117
v -0.19917608 0.15476132 -3.70537832
v -0.19917608 -0.73664814 -2.61919275
v 0.00000000 -0.55829442 -2.79807800
v -1.52219195 -0.81365378 -0.07182535
v -1.94123276 -0.39461297 0.70991718
v 0.44127750 -1.76346755 2.71538400
v -0.37535525 -1.42066700 1.65946016
v -0.98607946 -1.17848702 0.70991718
v -1.59946529 -0.76636655 1.65946016
v 0.44047669 -3.75277761 0.24833820
v 0.00000000 -3.28105874 0.56356307
v -0.00000000 -1.78390125 1.79224847
v -0.00000000 -1.78390125 1.79224847
v 0.35502492 1.61327686 -0.68392922
v 0.44689035 1.57471421 -0.80271321
v -2.39258032 2.45442001 -0.59878902
v -2.58025702 2.49298933 -0.80271321
v -0.00000000 2.09598656 1.41197141
v 0.00000000 2.09598656 1.41197141
v 2.46617074 -0.70001408 0.00000000
v 2.35610913 -0.86382596 -0.25358659
v 0.00000000 -2.09598656 1.41197141
v -0.00000000 -2.09598656 1.41197141
v 0.00000000 -2.32839519 0.97716546
v 0.00000000 -2.32839519 0.97716546
v 0.00000000 -1.56307323 3.50009385
v -1.08224305 -1.77953927 2.38452024
v -1.08224305 -1.68047115 3.39037580
v -0.31292599 -1.68047115 2.62105874
v -2.49388877 -2.03749608 1.17708651
v -1.16496383 -1.76438955 2.62105874
v -1.61046282 -0.51332101 0.69508766
v -1.57351944 -0.47637762 0.62616784
v 0.51913331 1.22207120 0.82328032
v 0.39180258 1.13652048 0.62616784
v 3.04247022 2.57082287 0.82328032
v 3.24231775 2.65471351 1.08168752
v 0.00000000 -0.97632104 -2.33232305
v 0.00000000 -0.97632104 -2.33232305
v 0.00000000 -1.40505353 -2.10316076
v -0.00000000 -1.40505353 -2.10316076
v -0.00000000 2.32839519 0.97716546
v -1.21588910 1.80156237 2.26227929
v 4.96535508 2.31554942 -0.25358659
v 4.88712228 2.23731662 -0.10763922
v 2.19791229 -0.01048368 0.31705604
v 1.92356761 -0.19480984 -0.10763922
v -1.21588910 2.30661650 0.59733895
v -1.65196158 2.21939497 1.04684145
v -0.61596608 2.27943878 -0.59878902
v -1.65196158 2.27943878 0.43720649
v -0.28024655 2.26486135 -1.08251566
v -0.61596608 2.19771203 -1.42857456
v 4.07337050 2.90681061 1.08168752
v 3.48023797 2.78491631 0.43720649
f 492 162 766
f 553 222 221
f 78 766 650
f 78 263 492
f 78 492 766
f 261 263 78
f 261 78 650
f 520 766 162
f 616 783 82
f 595 553 221
f 370 263 261
f 370 261 82
f 370 60 263
f 598 553 775
f 110 263 60
f 110 492 263
f 110 512 492
f 207 767 110
f 207 110 60
f 792 775 207
f 792 207 60
f 491 162 492
f 491 492 512
f 491 221 162
f 295 650 406
f 519 406 520
f 519 295 406
f 519 162 221
f 519 520 162
f 651 406 650
f 651 520 406
f 651 650 766
f 651 766 520
f 147 616 82
f 147 261 650
f 147 232 616
f 490 491 512
f 490 221 491
f 214 775 553
f 214 553 595
f 429 783 598
f 429 598 775
f 429 792 783
f 429 775 792
f 959 783 616
f 959 598 783
f 959 616 598
f 664 110 767
f 664 512 110
f 664 767 490
f 664 490 512
f 369 792 60
f 369 370 82
f 369 60 370
f 369 82 783
f 369 783 792
f 778 650 295
f 778 147 650
f 778 232 147
f 86 295 519
f 86 221 222
f 86 519 221
f 2 82 261
f 2 147 82
f 2 261 147
f 408 490 767
f 408 767 214
f 408 214 595
f 408 595 221
f 408 221 490
f 703 207 775
f 703 775 214
f 703 767 207
f 703 214 767
f 744 598 616
f 124 232 295
f 124 616 232
f 124 598 744
f 124 222 553
f 124 553 598
f 654 295 232
f 654 232 778
f 654 778 295
f 142 295 86
f 142 124 295
f 142 86 222
f 142 222 124
f 676 744 616
f 676 616 124
f 676 124 744
