# Asteroid shape model (convexinv -> dual reconstruction)
v -1.01247051 -0.42416539 0.21428571
v -0.92886553 -0.42416539 0.14285714
v -0.92886553 -0.50777038 0.21428571
v -0.92886553 -0.50777038 0.35714286
v -1.01247051 -0.42416539 0.35714286
v -0.92886553 -0.50777038 0.50000000
v -1.01247051 -0.42416539 0.50000000
v -0.92886553 -0.50777038 0.64285714
v -1.01247051 -0.42416539 0.64285714
v -0.92886553 -0.42416539 0.71428571
v -0.92886553 -0.34056041 0.21428571
v -1.01247051 -0.25695543 0.35714286
v -0.92886553 -0.25695543 0.28571429
v -1.01247051 -0.25695543 0.50000000
v -1.01247051 -0.25695543 0.64285714
v -0.92886553 -0.25695543 0.71428571
v -0.92886553 -0.17335044 0.35714286
v -0.92886553 -0.17335044 0.50000000
v -0.92886553 -0.17335044 0.64285714
v -0.84526055 -0.75858532 0.35714286
v -0.76165556 -0.75858532 0.28571429
v -0.76165556 -0.84219031 0.35714286
v -0.76165556 -0.84219031 0.50000000
v -0.84526055 -0.75858532 0.50000000
v -0.76165556 -0.84219031 0.64285714
v -0.84526055 -0.75858532 0.64285714
v -0.76165556 -0.75858532 0.71428571
v -0.84526055 -0.59137536 0.07142857
v -0.76165556 -0.59137536 0.00000000
v -0.76165556 -0.67498034 0.07142857
v -0.76165556 -0.67498034 0.21428571
v -0.84526055 -0.59137536 0.21428571
v -0.84526055 -0.59137536 0.35714286
v -0.84526055 -0.59137536 0.50000000
v -0.84526055 -0.59137536 0.64285714
v -0.76165556 -0.59137536 0.71428571
v -0.84526055 -0.42416539 0.07142857
v -0.76165556 -0.42416539 0.00000000
v -0.76165556 -0.50777038 0.78571429
v -0.84526055 -0.42416539 0.78571429
v -0.76165556 -0.42416539 0.85714286
v -0.84526055 -0.25695543 0.07142857
v -0.76165556 -0.25695543 0.00000000
v -0.84526055 -0.25695543 0.21428571
v -0.84526055 -0.25695543 0.78571429
v -0.76165556 -0.25695543 0.85714286
v -0.84526055 -0.08974546 0.07142857
v -0.76165556 -0.08974546 0.00000000
v -0.84526055 -0.08974546 0.21428571
v -0.84526055 -0.08974546 0.35714286
v -0.84526055 -0.08974546 0.50000000
v -0.84526055 -0.08974546 0.64285714
v -0.84526055 -0.08974546 0.78571429
v -0.76165556 -0.08974546 0.85714286
v -0.84526055 0.07746450 0.07142857
v -0.76165556 0.07746450 0.00000000
v -0.84526055 0.07746450 0.21428571
v -0.84526055 0.07746450 0.35714286
v -0.84526055 0.07746450 0.50000000
v -0.76165556 0.07746450 0.57142857
v -0.76165556 -0.00614048 0.64285714
v -0.76165556 -0.00614048 0.78571429
v -0.76165556 0.16106949 0.07142857
v -0.76165556 0.16106949 0.21428571
v -0.76165556 0.16106949 0.35714286
v -0.76165556 0.16106949 0.50000000
v -0.67805058 -0.75858532 0.07142857
v -0.59444560 -0.75858532 0.00000000
v -0.59444560 -0.84219031 0.07142857
v -0.59444560 -0.84219031 0.21428571
v -0.67805058 -0.75858532 0.21428571
v -0.59444560 -0.84219031 0.35714286
v -0.59444560 -0.84219031 0.50000000
v -0.59444560 -0.84219031 0.64285714
v -0.59444560 -0.84219031 0.78571429
v -0.67805058 -0.75858532 0.78571429
v -0.59444560 -0.75858532 0.85714286
v -0.59444560 -0.59137536 0.00000000
v -0.67805058 -0.59137536 0.78571429
v -0.59444560 -0.59137536 0.85714286
v -0.67805058 -0.42416539 -0.07142857
v -0.59444560 -0.42416539 -0.14285714
v -0.59444560 -0.50777038 -0.07142857
v -0.59444560 -0.42416539 0.85714286
v -0.67805058 -0.25695543 -0.07142857
v -0.59444560 -0.25695543 -0.14285714
v -0.59444560 -0.25695543 0.85714286
v -0.67805058 -0.08974546 -0.07142857
v -0.59444560 -0.08974546 -0.14285714
v -0.59444560 -0.08974546 0.85714286
v -0.67805058 0.07746450 -0.07142857
v -0.59444560 0.07746450 -0.14285714
v -0.67805058 0.07746450 0.64285714
v -0.67805058 0.07746450 0.78571429
v -0.59444560 0.07746450 0.85714286
v -0.67805058 0.24467447 -0.64285714
v -0.59444560 0.24467447 -0.71428571
v -0.59444560 0.16106949 -0.64285714
v -0.59444560 0.16106949 -0.50000000
v -0.67805058 0.24467447 -0.50000000
v -0.59444560 0.16106949 -0.35714286
v -0.67805058 0.24467447 -0.35714286
v -0.59444560 0.16106949 -0.21428571
v -0.67805058 0.24467447 -0.21428571
v -0.67805058 0.24467447 -0.07142857
v -0.67805058 0.24467447 0.07142857
v -0.67805058 0.24467447 0.21428571
v -0.67805058 0.24467447 0.35714286
v -0.67805058 0.24467447 0.50000000
v -0.67805058 0.24467447 0.64285714
v -0.59444560 0.24467447 0.71428571
v -0.59444560 0.16106949 0.78571429
v -0.59444560 0.32827945 -0.64285714
v -0.67805058 0.41188444 -0.50000000
v -0.59444560 0.41188444 -0.57142857
v -0.59444560 0.41188444 -0.42857143
v -0.59444560 0.32827945 -0.35714286
v -0.59444560 0.32827945 -0.21428571
v -0.59444560 0.32827945 -0.07142857
v -0.59444560 0.32827945 0.07142857
v -0.59444560 0.32827945 0.21428571
v -0.59444560 0.32827945 0.35714286
v -0.59444560 0.32827945 0.50000000
v -0.59444560 0.32827945 0.64285714
v -0.67805058 0.57909440 -0.50000000
v -0.59444560 0.57909440 -0.57142857
v -0.59444560 0.57909440 -0.42857143
v -0.59444560 0.66269938 -0.50000000
v -0.51084062 -0.92579529 0.35714286
v -0.42723563 -0.92579529 0.28571429
v -0.42723563 -1.00940027 0.35714286
v -0.42723563 -1.00940027 0.50000000
v -0.51084062 -0.92579529 0.50000000
v -0.42723563 -1.00940027 0.64285714
v -0.51084062 -0.92579529 0.64285714
v -0.42723563 -0.92579529 0.71428571
v -0.42723563 -0.75858532 0.00000000
v -0.42723563 -0.84219031 0.07142857
v -0.42723563 -0.84219031 0.21428571
v -0.42723563 -0.84219031 0.78571429
v -0.42723563 -0.75858532 0.85714286
v -0.42723563 -0.59137536 0.00000000
v -0.42723563 -0.59137536 0.85714286
v -0.42723563 -0.42416539 -0.14285714
v -0.42723563 -0.50777038 -0.07142857
v -0.42723563 -0.42416539 0.85714286
v -0.51084062 -0.25695543 -0.21428571
v -0.42723563 -0.25695543 -0.28571429
v -0.42723563 -0.34056041 -0.21428571
v -0.42723563 -0.25695543 0.85714286
v -0.51084062 -0.08974546 -0.92857143
v -0.42723563 -0.08974546 -1.00000000
v -0.42723563 -0.17335044 -0.92857143
v -0.42723563 -0.17335044 -0.78571429
v -0.51084062 -0.08974546 -0.78571429
v -0.42723563 -0.17335044 -0.64285714
v -0.51084062 -0.08974546 -0.64285714
v -0.42723563 -0.17335044 -0.50000000
v -0.51084062 -0.08974546 -0.50000000
v -0.42723563 -0.17335044 -0.35714286
v -0.51084062 -0.08974546 -0.35714286
v -0.51084062 -0.08974546 -0.21428571
v -0.42723563 -0.08974546 0.85714286
v -0.51084062 0.07746450 -0.92857143
v -0.42723563 0.07746450 -1.00000000
v -0.51084062 0.07746450 -0.78571429
v -0.51084062 0.07746450 -0.64285714
v -0.51084062 0.07746450 -0.50000000
v -0.51084062 0.07746450 -0.35714286
v -0.51084062 0.07746450 -0.21428571
v -0.42723563 -0.00614048 0.92857143
v -0.51084062 0.07746450 0.92857143
v -0.42723563 0.07746450 1.00000000
v -0.51084062 0.24467447 -0.92857143
v -0.42723563 0.24467447 -1.00000000
v -0.51084062 0.24467447 -0.78571429
v -0.51084062 0.24467447 0.78571429
v -0.42723563 0.24467447 0.85714286
v -0.42723563 0.16106949 0.92857143
v -0.42723563 0.32827945 -0.92857143
v -0.51084062 0.41188444 -0.78571429
v -0.42723563 0.41188444 -0.85714286
v -0.51084062 0.41188444 -0.64285714
v -0.51084062 0.41188444 -0.35714286
v -0.51084062 0.41188444 -0.21428571
v -0.51084062 0.41188444 -0.07142857
v -0.51084062 0.41188444 0.07142857
v -0.51084062 0.41188444 0.21428571
v -0.51084062 0.41188444 0.35714286
v -0.51084062 0.41188444 0.50000000
v -0.51084062 0.41188444 0.64285714
v -0.42723563 0.41188444 0.71428571
v -0.42723563 0.32827945 0.78571429
v -0.51084062 0.57909440 -0.78571429
v -0.42723563 0.57909440 -0.85714286
v -0.51084062 0.57909440 -0.64285714
v -0.42723563 0.49548942 -0.35714286
v -0.42723563 0.57909440 -0.42857143
v -0.42723563 0.49548942 -0.21428571
v -0.42723563 0.49548942 -0.07142857
v -0.42723563 0.49548942 0.07142857
v -0.42723563 0.49548942 0.21428571
v -0.42723563 0.49548942 0.35714286
v -0.42723563 0.49548942 0.50000000
v -0.42723563 0.49548942 0.64285714
v -0.42723563 0.66269938 -0.78571429
v -0.42723563 0.66269938 -0.64285714
v -0.42723563 0.66269938 -0.50000000
v -0.34363065 -1.09300526 0.35714286
v -0.26002567 -1.09300526 0.28571429
v -0.26002567 -1.17661024 0.35714286
v -0.26002567 -1.09300526 0.42857143
v -0.34363065 -0.92579529 0.21428571
v -0.26002567 -0.92579529 0.14285714
v -0.26002567 -1.00940027 0.21428571
v -0.26002567 -1.00940027 0.50000000
v -0.26002567 -1.00940027 0.64285714
v -0.26002567 -0.92579529 0.71428571
v -0.26002567 -0.75858532 0.00000000
v -0.26002567 -0.84219031 0.07142857
v -0.26002567 -0.84219031 0.78571429
v -0.26002567 -0.75858532 0.85714286
v -0.34363065 -0.59137536 -0.07142857
v -0.26002567 -0.59137536 -0.14285714
v -0.26002567 -0.67498034 -0.07142857
v -0.26002567 -0.59137536 0.85714286
v -0.34363065 -0.42416539 -0.21428571
v -0.26002567 -0.42416539 -0.28571429
v -0.26002567 -0.50777038 -0.21428571
v -0.26002567 -0.42416539 0.85714286
v -0.34363065 -0.25695543 -0.35714286
v -0.26002567 -0.25695543 -0.42857143
v -0.26002567 -0.34056041 -0.35714286
v -0.26002567 -0.25695543 0.85714286
v -0.26002567 -0.08974546 -1.00000000
v -0.26002567 -0.17335044 -0.92857143
v -0.26002567 -0.17335044 -0.78571429
v -0.26002567 -0.17335044 -0.64285714
v -0.26002567 -0.17335044 -0.50000000
v -0.26002567 -0.17335044 0.92857143
v -0.34363065 -0.08974546 0.92857143
v -0.26002567 -0.08974546 1.00000000
v -0.26002567 0.07746450 -1.00000000
v -0.26002567 0.07746450 1.00000000
v -0.26002567 0.24467447 -1.00000000
v -0.34363065 0.24467447 0.92857143
v -0.26002567 0.24467447 1.00000000
v -0.34363065 0.41188444 -0.92857143
v -0.26002567 0.41188444 -1.00000000
v -0.34363065 0.41188444 0.78571429
v -0.26002567 0.41188444 0.85714286
v -0.26002567 0.32827945 0.92857143
v -0.26002567 0.49548942 -0.92857143
v -0.26002567 0.57909440 -0.85714286
v -0.34363065 0.57909440 -0.35714286
v -0.34363065 0.57909440 -0.21428571
v -0.34363065 0.57909440 -0.07142857
v -0.34363065 0.57909440 0.07142857
v -0.34363065 0.57909440 0.21428571
v -0.34363065 0.57909440 0.35714286
v -0.34363065 0.57909440 0.50000000
v -0.34363065 0.57909440 0.64285714
v -0.26002567 0.57909440 0.71428571
v -0.26002567 0.49548942 0.78571429
v -0.26002567 0.66269938 -0.78571429
v -0.26002567 0.66269938 -0.64285714
v -0.34363065 0.74630437 -0.50000000
v -0.26002567 0.74630437 -0.57142857
v -0.34363065 0.74630437 -0.35714286
v -0.34363065 0.74630437 -0.21428571
v -0.26002567 0.74630437 -0.14285714
v -0.26002567 0.66269938 -0.07142857
v -0.26002567 0.66269938 0.07142857
v -0.26002567 0.66269938 0.21428571
v -0.26002567 0.66269938 0.35714286
v -0.26002567 0.66269938 0.50000000
v -0.26002567 0.66269938 0.64285714
v -0.26002567 0.82990935 -0.50000000
v -0.26002567 0.82990935 -0.35714286
v -0.26002567 0.82990935 -0.21428571
v -0.09281570 -1.09300526 0.28571429
v -0.09281570 -1.17661024 0.35714286
v -0.09281570 -1.09300526 0.42857143
v -0.09281570 -0.92579529 0.14285714
v -0.09281570 -1.00940027 0.21428571
v -0.09281570 -1.00940027 0.50000000
v -0.09281570 -1.00940027 0.64285714
v -0.09281570 -0.92579529 0.71428571
v -0.09281570 -0.75858532 0.00000000
v -0.09281570 -0.84219031 0.07142857
v -0.09281570 -0.84219031 0.78571429
v -0.09281570 -0.75858532 0.85714286
v -0.09281570 -0.59137536 -0.14285714
v -0.09281570 -0.67498034 -0.07142857
v -0.09281570 -0.59137536 0.85714286
v -0.09281570 -0.42416539 -0.28571429
v -0.09281570 -0.50777038 -0.21428571
v -0.09281570 -0.42416539 0.85714286
v -0.17642068 -0.25695543 -0.92857143
v -0.09281570 -0.25695543 -1.00000000
v -0.09281570 -0.34056041 -0.92857143
v -0.09281570 -0.34056041 -0.78571429
v -0.17642068 -0.25695543 -0.78571429
v -0.09281570 -0.34056041 -0.64285714
v -0.17642068 -0.25695543 -0.64285714
v -0.09281570 -0.34056041 -0.50000000
v -0.17642068 -0.25695543 -0.50000000
v -0.09281570 -0.34056041 -0.35714286
v -0.09281570 -0.25695543 0.85714286
v -0.09281570 -0.08974546 -1.00000000
v -0.09281570 -0.17335044 0.92857143
v -0.09281570 -0.08974546 1.00000000
v -0.09281570 0.07746450 -1.00000000
v -0.09281570 0.07746450 1.00000000
v -0.09281570 0.24467447 -1.00000000
v -0.09281570 0.24467447 1.00000000
v -0.09281570 0.41188444 -1.00000000
v -0.09281570 0.32827945 0.92857143
v -0.09281570 0.41188444 0.85714286
v -0.09281570 0.49548942 -0.92857143
v -0.09281570 0.57909440 -0.85714286
v -0.17642068 0.57909440 0.78571429
v -0.09281570 0.57909440 0.85714286
v -0.09281570 0.66269938 -0.78571429
v -0.17642068 0.74630437 -0.64285714
v -0.09281570 0.74630437 -0.71428571
v -0.17642068 0.74630437 -0.07142857
v -0.17642068 0.74630437 0.07142857
v -0.17642068 0.74630437 0.21428571
v -0.17642068 0.74630437 0.35714286
v -0.17642068 0.74630437 0.50000000
v -0.17642068 0.74630437 0.64285714
v -0.09281570 0.74630437 0.71428571
v -0.09281570 0.66269938 0.78571429
v -0.09281570 0.82990935 -0.64285714
v -0.09281570 0.82990935 -0.50000000
v -0.09281570 0.82990935 -0.35714286
v -0.09281570 0.82990935 -0.21428571
v -0.09281570 0.82990935 -0.07142857
v -0.09281570 0.82990935 0.07142857
v -0.09281570 0.82990935 0.21428571
v -0.09281570 0.82990935 0.35714286
v -0.09281570 0.82990935 0.50000000
v -0.09281570 0.82990935 0.64285714
v 0.07439426 -1.09300526 0.28571429
v 0.07439426 -1.17661024 0.35714286
v 0.07439426 -1.17661024 0.50000000
v -0.00921072 -1.09300526 0.50000000
v 0.07439426 -1.09300526 0.57142857
v 0.07439426 -0.92579529 0.14285714
v 0.07439426 -1.00940027 0.21428571
v 0.07439426 -1.00940027 0.64285714
v 0.07439426 -0.92579529 0.71428571
v 0.07439426 -0.75858532 0.00000000
v 0.07439426 -0.84219031 0.07142857
v 0.07439426 -0.84219031 0.78571429
v 0.07439426 -0.75858532 0.85714286
v 0.07439426 -0.59137536 -0.14285714
v 0.07439426 -0.67498034 -0.07142857
v 0.07439426 -0.59137536 0.85714286
v -0.00921072 -0.42416539 -0.21428571
v 0.07439426 -0.42416539 -0.14285714
v 0.07439426 -0.42416539 0.85714286
v 0.07439426 -0.25695543 -1.00000000
v 0.07439426 -0.34056041 -0.92857143
v 0.07439426 -0.34056041 -0.78571429
v 0.07439426 -0.34056041 -0.64285714
v 0.07439426 -0.34056041 -0.50000000
v 0.07439426 -0.34056041 -0.35714286
v 0.07439426 -0.34056041 -0.21428571
v 0.07439426 -0.25695543 0.85714286
v 0.07439426 -0.08974546 -1.00000000
v 0.07439426 -0.17335044 0.92857143
v 0.07439426 -0.08974546 1.00000000
v 0.07439426 0.07746450 -1.00000000
v 0.07439426 0.07746450 1.00000000
v 0.07439426 0.24467447 -1.00000000
v 0.07439426 0.24467447 1.00000000
v 0.07439426 0.32827945 -0.92857143
v -0.00921072 0.41188444 -0.92857143
v 0.07439426 0.41188444 -0.85714286
v 0.07439426 0.32827945 0.92857143
v 0.07439426 0.41188444 0.85714286
v 0.07439426 0.57909440 -0.85714286
v 0.07439426 0.57909440 0.85714286
v 0.07439426 0.66269938 -0.78571429
v 0.07439426 0.74630437 -0.71428571
v -0.00921072 0.74630437 0.35714286
v 0.07439426 0.66269938 0.35714286
v 0.07439426 0.74630437 0.28571429
v -0.00921072 0.74630437 0.50000000
v 0.07439426 0.66269938 0.50000000
v -0.00921072 0.74630437 0.64285714
v 0.07439426 0.66269938 0.64285714
v 0.07439426 0.66269938 0.78571429
v 0.07439426 0.82990935 -0.64285714
v -0.00921072 0.91351433 -0.50000000
v 0.07439426 0.91351433 -0.57142857
v -0.00921072 0.91351433 -0.35714286
v -0.00921072 0.91351433 -0.21428571
v -0.00921072 0.91351433 -0.07142857
v 0.07439426 0.91351433 0.00000000
v 0.07439426 0.82990935 0.07142857
v 0.07439426 0.82990935 0.21428571
v 0.07439426 0.99711931 -0.50000000
v 0.07439426 0.99711931 -0.35714286
v 0.07439426 0.99711931 -0.21428571
v 0.07439426 0.99711931 -0.07142857
v 0.15799925 -1.09300526 0.35714286
v 0.15799925 -1.09300526 0.50000000
v 0.24160423 -0.92579529 0.14285714
v 0.24160423 -1.00940027 0.21428571
v 0.24160423 -1.00940027 0.35714286
v 0.24160423 -1.00940027 0.50000000
v 0.24160423 -1.00940027 0.64285714
v 0.24160423 -0.92579529 0.71428571
v 0.24160423 -0.75858532 0.00000000
v 0.24160423 -0.84219031 0.07142857
v 0.15799925 -0.75858532 0.78571429
v 0.24160423 -0.75858532 0.71428571
v 0.24160423 -0.59137536 -0.14285714
v 0.24160423 -0.67498034 -0.07142857
v 0.24160423 -0.67498034 0.78571429
v 0.24160423 -0.59137536 0.85714286
v 0.24160423 -0.42416539 -0.14285714
v 0.24160423 -0.42416539 0.85714286
v 0.24160423 -0.25695543 -1.00000000
v 0.24160423 -0.34056041 -0.92857143
v 0.24160423 -0.34056041 -0.78571429
v 0.24160423 -0.34056041 -0.64285714
v 0.24160423 -0.34056041 -0.50000000
v 0.24160423 -0.34056041 -0.35714286
v 0.24160423 -0.34056041 -0.21428571
v 0.24160423 -0.25695543 0.85714286
v 0.24160423 -0.08974546 -1.00000000
v 0.15799925 -0.08974546 0.92857143
v 0.24160423 -0.08974546 0.85714286
v 0.24160423 0.07746450 -1.00000000
v 0.15799925 0.07746450 0.92857143
v 0.24160423 0.07746450 0.85714286
v 0.24160423 0.24467447 -1.00000000
v 0.15799925 0.24467447 0.92857143
v 0.24160423 0.24467447 0.85714286
v 0.24160423 0.32827945 -0.92857143
v 0.24160423 0.41188444 -0.85714286
v 0.24160423 0.41188444 0.85714286
v 0.24160423 0.57909440 -0.85714286
v 0.24160423 0.57909440 0.85714286
v 0.15799925 0.74630437 -0.78571429
v 0.24160423 0.74630437 -0.85714286
v 0.24160423 0.66269938 0.35714286
v 0.24160423 0.74630437 0.28571429
v 0.24160423 0.66269938 0.50000000
v 0.24160423 0.66269938 0.64285714
v 0.24160423 0.66269938 0.78571429
v 0.24160423 0.82990935 -0.78571429
v 0.15799925 0.91351433 -0.64285714
v 0.24160423 0.91351433 -0.71428571
v 0.24160423 0.82990935 0.07142857
v 0.24160423 0.91351433 0.00000000
v 0.24160423 0.82990935 0.21428571
v 0.24160423 0.99711931 -0.64285714
v 0.24160423 0.99711931 -0.50000000
v 0.24160423 0.99711931 -0.35714286
v 0.24160423 0.99711931 -0.21428571
v 0.24160423 0.99711931 -0.07142857
v 0.32520921 -0.92579529 0.21428571
v 0.40881420 -0.92579529 0.28571429
v 0.40881420 -1.00940027 0.35714286
v 0.40881420 -1.00940027 0.50000000
v 0.32520921 -0.92579529 0.64285714
v 0.40881420 -0.92579529 0.57142857
v 0.40881420 -0.75858532 0.00000000
v 0.40881420 -0.84219031 0.07142857
v 0.40881420 -0.84219031 0.21428571
v 0.40881420 -0.84219031 0.64285714
v 0.40881420 -0.75858532 0.71428571
v 0.32520921 -0.59137536 -0.07142857
v 0.40881420 -0.59137536 0.00000000
v 0.32520921 -0.59137536 0.78571429
v 0.40881420 -0.59137536 0.71428571
v 0.32520921 -0.42416539 -0.07142857
v 0.40881420 -0.42416539 0.00000000
v 0.32520921 -0.42416539 0.78571429
v 0.40881420 -0.42416539 0.71428571
v 0.40881420 -0.25695543 -1.00000000
v 0.40881420 -0.34056041 -0.92857143
v 0.40881420 -0.34056041 -0.78571429
v 0.40881420 -0.34056041 -0.64285714
v 0.40881420 -0.34056041 -0.50000000
v 0.40881420 -0.34056041 -0.35714286
v 0.40881420 -0.34056041 -0.21428571
v 0.40881420 -0.34056041 -0.07142857
v 0.40881420 -0.34056041 0.78571429
v 0.40881420 -0.25695543 0.85714286
v 0.40881420 -0.08974546 -1.00000000
v 0.40881420 -0.08974546 0.85714286
v 0.40881420 0.07746450 -1.00000000
v 0.40881420 0.07746450 0.85714286
v 0.40881420 0.16106949 -0.92857143
v 0.32520921 0.24467447 -0.92857143
v 0.40881420 0.24467447 -0.85714286
v 0.40881420 0.24467447 0.85714286
v 0.40881420 0.41188444 -0.85714286
v 0.40881420 0.41188444 0.85714286
v 0.40881420 0.57909440 -0.85714286
v 0.32520921 0.57909440 0.35714286
v 0.40881420 0.49548942 0.35714286
v 0.40881420 0.57909440 0.28571429
v 0.32520921 0.57909440 0.50000000
v 0.40881420 0.49548942 0.50000000
v 0.32520921 0.57909440 0.64285714
v 0.40881420 0.49548942 0.64285714
v 0.32520921 0.57909440 0.78571429
v 0.40881420 0.49548942 0.78571429
v 0.40881420 0.74630437 -0.85714286
v 0.32520921 0.74630437 0.07142857
v 0.40881420 0.66269938 0.07142857
v 0.40881420 0.74630437 0.00000000
v 0.32520921 0.74630437 0.21428571
v 0.40881420 0.66269938 0.21428571
v 0.40881420 0.82990935 -0.78571429
v 0.32520921 0.91351433 -0.64285714
v 0.40881420 0.82990935 -0.64285714
v 0.40881420 0.91351433 -0.57142857
v 0.40881420 0.91351433 0.00000000
v 0.40881420 0.99711931 -0.50000000
v 0.40881420 0.99711931 -0.35714286
v 0.40881420 0.99711931 -0.21428571
v 0.40881420 0.99711931 -0.07142857
v 0.49241918 -0.92579529 0.35714286
v 0.49241918 -0.92579529 0.50000000
v 0.49241918 -0.75858532 0.07142857
v 0.49241918 -0.75858532 0.21428571
v 0.49241918 -0.75858532 0.35714286
v 0.49241918 -0.75858532 0.50000000
v 0.49241918 -0.75858532 0.64285714
v 0.57602416 -0.59137536 0.00000000
v 0.57602416 -0.67498034 0.07142857
v 0.57602416 -0.67498034 0.21428571
v 0.57602416 -0.67498034 0.35714286
v 0.57602416 -0.67498034 0.50000000
v 0.57602416 -0.67498034 0.64285714
v 0.57602416 -0.59137536 0.71428571
v 0.57602416 -0.42416539 0.00000000
v 0.57602416 -0.42416539 0.71428571
v 0.49241918 -0.25695543 -0.92857143
v 0.49241918 -0.25695543 -0.78571429
v 0.57602416 -0.25695543 -0.71428571
v 0.57602416 -0.34056041 -0.64285714
v 0.57602416 -0.34056041 -0.50000000
v 0.49241918 -0.25695543 -0.35714286
v 0.57602416 -0.25695543 -0.42857143
v 0.49241918 -0.25695543 -0.21428571
v 0.49241918 -0.25695543 -0.07142857
v 0.57602416 -0.25695543 0.00000000
v 0.49241918 -0.25695543 0.78571429
v 0.57602416 -0.25695543 0.71428571
v 0.49241918 -0.08974546 -0.92857143
v 0.57602416 -0.08974546 -0.85714286
v 0.57602416 -0.17335044 -0.78571429
v 0.49241918 -0.08974546 -0.35714286
v 0.57602416 -0.08974546 -0.42857143
v 0.49241918 -0.08974546 -0.21428571
v 0.49241918 -0.08974546 -0.07142857
v 0.57602416 -0.08974546 0.00000000
v 0.57602416 -0.17335044 0.78571429
v 0.57602416 -0.08974546 0.85714286
v 0.49241918 0.07746450 -0.92857143
v 0.57602416 0.07746450 -0.85714286
v 0.57602416 -0.00614048 -0.35714286
v 0.57602416 -0.00614048 -0.21428571
v 0.57602416 -0.00614048 -0.07142857
v 0.57602416 0.07746450 0.85714286
v 0.57602416 0.24467447 -0.85714286
v 0.57602416 0.24467447 0.85714286
v 0.57602416 0.41188444 -0.85714286
v 0.49241918 0.41188444 0.35714286
v 0.57602416 0.32827945 0.35714286
v 0.57602416 0.41188444 0.28571429
v 0.49241918 0.41188444 0.50000000
v 0.57602416 0.32827945 0.50000000
v 0.49241918 0.41188444 0.64285714
v 0.57602416 0.32827945 0.64285714
v 0.49241918 0.41188444 0.78571429
v 0.57602416 0.32827945 0.78571429
v 0.57602416 0.57909440 -0.85714286
v 0.49241918 0.57909440 0.21428571
v 0.57602416 0.49548942 0.21428571
v 0.57602416 0.57909440 0.14285714
v 0.57602416 0.66269938 -0.78571429
v 0.49241918 0.74630437 -0.78571429
v 0.57602416 0.74630437 -0.71428571
v 0.57602416 0.66269938 0.07142857
v 0.57602416 0.74630437 0.00000000
v 0.57602416 0.82990935 -0.64285714
v 0.49241918 0.91351433 -0.50000000
v 0.57602416 0.82990935 -0.50000000
v 0.49241918 0.91351433 -0.35714286
v 0.57602416 0.82990935 -0.35714286
v 0.49241918 0.91351433 -0.21428571
v 0.57602416 0.82990935 -0.21428571
v 0.49241918 0.91351433 -0.07142857
v 0.57602416 0.82990935 -0.07142857
v 0.65962914 -0.59137536 0.07142857
v 0.65962914 -0.59137536 0.21428571
v 0.65962914 -0.59137536 0.35714286
v 0.65962914 -0.59137536 0.50000000
v 0.65962914 -0.59137536 0.64285714
v 0.65962914 -0.42416539 0.07142857
v 0.65962914 -0.42416539 0.21428571
v 0.65962914 -0.42416539 0.35714286
v 0.65962914 -0.42416539 0.50000000
v 0.65962914 -0.42416539 0.64285714
v 0.65962914 -0.25695543 -0.64285714
v 0.65962914 -0.25695543 -0.50000000
v 0.65962914 -0.25695543 0.07142857
v 0.74323413 -0.25695543 0.14285714
v 0.74323413 -0.34056041 0.21428571
v 0.74323413 -0.34056041 0.35714286
v 0.74323413 -0.34056041 0.50000000
v 0.74323413 -0.25695543 0.57142857
v 0.65962914 -0.25695543 0.64285714
v 0.65962914 -0.08974546 -0.78571429
v 0.74323413 -0.08974546 -0.71428571
v 0.74323413 -0.17335044 -0.64285714
v 0.74323413 -0.17335044 -0.50000000
v 0.74323413 -0.08974546 -0.42857143
v 0.65962914 -0.08974546 0.07142857
v 0.74323413 -0.08974546 0.14285714
v 0.74323413 -0.17335044 0.64285714
v 0.65962914 -0.08974546 0.78571429
v 0.74323413 -0.08974546 0.71428571
v 0.74323413 0.07746450 -0.85714286
v 0.74323413 -0.00614048 -0.78571429
v 0.65962914 0.07746450 -0.35714286
v 0.74323413 0.07746450 -0.42857143
v 0.65962914 0.07746450 -0.21428571
v 0.65962914 0.07746450 -0.07142857
v 0.65962914 0.07746450 0.07142857
v 0.74323413 0.07746450 0.14285714
v 0.65962914 0.07746450 0.78571429
v 0.74323413 0.07746450 0.71428571
v 0.74323413 0.24467447 -0.85714286
v 0.74323413 0.16106949 -0.35714286
v 0.74323413 0.16106949 -0.21428571
v 0.74323413 0.24467447 -0.14285714
v 0.65962914 0.24467447 -0.07142857
v 0.65962914 0.24467447 0.07142857
v 0.74323413 0.16106949 0.21428571
v 0.65962914 0.24467447 0.21428571
v 0.65962914 0.24467447 0.35714286
v 0.74323413 0.16106949 0.35714286
v 0.65962914 0.24467447 0.50000000
v 0.74323413 0.16106949 0.50000000
v 0.65962914 0.24467447 0.64285714
v 0.74323413 0.16106949 0.64285714
v 0.65962914 0.24467447 0.78571429
v 0.74323413 0.32827945 -0.78571429
v 0.65962914 0.41188444 -0.78571429
v 0.74323413 0.41188444 -0.71428571
v 0.65962914 0.41188444 -0.07142857
v 0.74323413 0.41188444 -0.14285714
v 0.65962914 0.41188444 0.07142857
v 0.65962914 0.41188444 0.21428571
v 0.65962914 0.57909440 -0.78571429
v 0.74323413 0.57909440 -0.71428571
v 0.65962914 0.57909440 -0.07142857
v 0.74323413 0.57909440 -0.14285714
v 0.65962914 0.57909440 0.07142857
v 0.65962914 0.74630437 -0.64285714
v 0.74323413 0.66269938 -0.64285714
v 0.65962914 0.74630437 -0.50000000
v 0.74323413 0.66269938 -0.50000000
v 0.65962914 0.74630437 -0.35714286
v 0.74323413 0.66269938 -0.35714286
v 0.65962914 0.74630437 -0.21428571
v 0.74323413 0.66269938 -0.21428571
v 0.65962914 0.74630437 -0.07142857
v 0.82683911 -0.25695543 0.21428571
v 0.82683911 -0.25695543 0.35714286
v 0.82683911 -0.25695543 0.50000000
v 0.82683911 -0.08974546 -0.64285714
v 0.82683911 -0.08974546 -0.50000000
v 0.82683911 -0.08974546 0.21428571
v 0.82683911 -0.08974546 0.35714286
v 0.82683911 -0.08974546 0.50000000
v 0.82683911 -0.08974546 0.64285714
v 0.82683911 0.07746450 -0.78571429
v 0.82683911 0.07746450 -0.64285714
v 0.82683911 0.07746450 -0.50000000
v 0.82683911 0.07746450 0.21428571
v 0.82683911 0.07746450 0.35714286
v 0.82683911 0.07746450 0.50000000
v 0.82683911 0.07746450 0.64285714
v 0.82683911 0.24467447 -0.78571429
v 0.82683911 0.24467447 -0.64285714
v 0.82683911 0.24467447 -0.50000000
v 0.82683911 0.24467447 -0.35714286
v 0.82683911 0.24467447 -0.21428571
v 0.82683911 0.41188444 -0.64285714
v 0.82683911 0.41188444 -0.50000000
v 0.82683911 0.41188444 -0.35714286
v 0.82683911 0.41188444 -0.21428571
v 0.82683911 0.57909440 -0.64285714
v 0.82683911 0.57909440 -0.50000000
v 0.82683911 0.57909440 -0.35714286
v 0.82683911 0.57909440 -0.21428571
f 3 2 1
f 5 4 1
f 1 4 3
f 7 6 5
f 5 6 4
f 9 8 7
f 7 8 6
f 9 10 8
f 2 11 1
f 13 12 11
f 12 1 11
f 12 5 1
f 5 14 7
f 5 12 14
f 7 15 9
f 7 14 15
f 10 9 16
f 16 9 15
f 13 17 12
f 12 17 14
f 14 17 18
f 14 18 15
f 15 18 19
f 15 19 16
f 22 21 20
f 24 23 20
f 20 23 22
f 26 25 24
f 24 25 23
f 26 27 25
f 30 29 28
f 32 31 28
f 28 31 30
f 31 32 21
f 32 20 21
f 32 33 20
f 20 34 24
f 20 33 34
f 24 35 26
f 24 34 35
f 27 26 36
f 36 26 35
f 28 29 37
f 37 29 38
f 37 2 3
f 32 37 3
f 28 37 32
f 32 3 4
f 32 4 33
f 33 4 6
f 33 6 34
f 34 6 8
f 34 8 35
f 40 39 10
f 10 39 8
f 39 36 8
f 36 35 8
f 40 41 39
f 37 38 42
f 42 38 43
f 44 11 2
f 37 44 2
f 42 44 37
f 44 13 11
f 16 45 40
f 16 40 10
f 41 40 46
f 46 40 45
f 42 43 47
f 47 43 48
f 42 49 44
f 42 47 49
f 50 17 13
f 44 50 13
f 49 50 44
f 51 18 17
f 51 17 50
f 52 19 18
f 52 18 51
f 45 16 19
f 52 45 19
f 53 45 52
f 46 45 54
f 54 45 53
f 47 48 55
f 55 48 56
f 47 57 49
f 47 55 57
f 49 58 50
f 49 57 58
f 50 59 51
f 50 58 59
f 61 52 60
f 52 59 60
f 52 51 59
f 52 61 53
f 53 61 62
f 53 62 54
f 56 63 55
f 55 63 57
f 57 63 64
f 57 64 58
f 58 64 65
f 58 65 59
f 59 65 66
f 59 66 60
f 69 68 67
f 71 70 67
f 67 70 69
f 21 22 71
f 22 70 71
f 22 72 70
f 73 22 23
f 73 72 22
f 74 23 25
f 74 73 23
f 76 75 27
f 75 25 27
f 75 74 25
f 76 77 75
f 67 68 30
f 68 29 30
f 68 78 29
f 67 30 31
f 67 31 71
f 71 31 21
f 36 79 76
f 36 76 27
f 77 76 80
f 80 76 79
f 83 82 81
f 78 83 81
f 38 78 81
f 29 78 38
f 39 79 36
f 39 41 79
f 41 80 79
f 41 84 80
f 81 82 85
f 85 82 86
f 85 43 38
f 85 38 81
f 46 84 41
f 46 87 84
f 85 86 88
f 88 86 89
f 88 48 43
f 88 43 85
f 54 87 46
f 54 90 87
f 88 89 91
f 91 89 92
f 91 56 48
f 91 48 88
f 60 93 61
f 94 62 61
f 94 61 93
f 94 95 62
f 95 54 62
f 95 90 54
f 98 97 96
f 100 99 96
f 96 99 98
f 102 101 100
f 100 101 99
f 104 103 102
f 102 103 101
f 103 104 92
f 104 91 92
f 104 105 91
f 106 63 56
f 91 106 56
f 105 106 91
f 107 64 63
f 107 63 106
f 108 65 64
f 108 64 107
f 109 66 65
f 109 65 108
f 93 60 66
f 109 93 66
f 110 93 109
f 112 94 111
f 94 110 111
f 94 93 110
f 94 112 95
f 97 113 96
f 115 114 113
f 114 96 113
f 114 100 96
f 117 102 116
f 102 114 116
f 102 100 114
f 102 117 104
f 104 117 118
f 104 118 105
f 105 118 119
f 105 119 106
f 106 119 120
f 106 120 107
f 107 120 121
f 107 121 108
f 108 121 122
f 108 122 109
f 109 122 123
f 109 123 110
f 110 123 124
f 110 124 111
f 114 115 125
f 125 115 126
f 116 114 127
f 127 114 125
f 126 128 125
f 125 128 127
f 131 130 129
f 133 132 129
f 129 132 131
f 135 134 133
f 133 134 132
f 135 136 134
f 138 137 69
f 69 137 68
f 139 69 70
f 139 138 69
f 72 129 130
f 139 72 130
f 70 72 139
f 129 72 73
f 129 73 133
f 133 73 74
f 133 74 135
f 140 136 135
f 74 140 135
f 75 140 74
f 75 77 140
f 140 77 141
f 137 78 68
f 142 78 137
f 80 141 77
f 80 143 141
f 145 144 83
f 83 144 82
f 83 78 142
f 83 142 145
f 84 143 80
f 84 146 143
f 149 148 147
f 144 149 147
f 86 144 147
f 82 144 86
f 87 146 84
f 87 150 146
f 153 152 151
f 155 154 151
f 151 154 153
f 157 156 155
f 155 156 154
f 159 158 157
f 157 158 156
f 161 160 159
f 159 160 158
f 160 161 148
f 161 147 148
f 161 162 147
f 162 89 86
f 162 86 147
f 90 150 87
f 90 163 150
f 151 152 164
f 164 152 165
f 151 166 155
f 151 164 166
f 155 167 157
f 155 166 167
f 157 168 159
f 157 167 168
f 159 169 161
f 159 168 169
f 161 170 162
f 161 169 170
f 170 92 89
f 170 89 162
f 95 172 171
f 163 95 171
f 90 95 163
f 172 173 171
f 164 165 174
f 174 165 175
f 164 176 166
f 164 174 176
f 176 97 98
f 167 176 98
f 166 176 167
f 167 98 99
f 167 99 168
f 168 99 101
f 168 101 169
f 169 101 103
f 169 103 170
f 170 103 92
f 111 177 112
f 177 178 112
f 112 178 95
f 178 179 95
f 179 172 95
f 172 179 173
f 175 180 174
f 182 181 180
f 181 174 180
f 181 176 174
f 183 113 97
f 176 183 97
f 181 183 176
f 183 115 113
f 116 184 117
f 185 118 117
f 185 117 184
f 186 119 118
f 186 118 185
f 187 120 119
f 187 119 186
f 188 121 120
f 188 120 187
f 189 122 121
f 189 121 188
f 190 123 122
f 190 122 189
f 191 124 123
f 191 123 190
f 191 192 124
f 124 192 111
f 192 193 111
f 193 177 111
f 177 193 178
f 181 182 194
f 194 182 195
f 181 196 183
f 181 194 196
f 196 126 115
f 196 115 183
f 198 197 184
f 116 198 184
f 127 198 116
f 184 197 185
f 185 197 199
f 185 199 186
f 186 199 200
f 186 200 187
f 187 200 201
f 187 201 188
f 188 201 202
f 188 202 189
f 189 202 203
f 189 203 190
f 190 203 204
f 190 204 191
f 191 204 205
f 191 205 192
f 195 206 194
f 194 206 196
f 196 206 207
f 196 207 126
f 207 128 126
f 207 208 128
f 127 128 198
f 198 128 208
f 211 210 209
f 209 212 211
f 215 214 213
f 215 213 210
f 210 213 209
f 213 130 209
f 130 131 209
f 216 212 209
f 131 216 209
f 132 216 131
f 217 132 134
f 217 216 132
f 134 136 217
f 217 136 218
f 220 219 138
f 138 219 137
f 139 213 214
f 220 139 214
f 138 139 220
f 213 139 130
f 221 218 136
f 221 136 140
f 140 141 221
f 221 141 222
f 225 224 223
f 219 225 223
f 142 219 223
f 137 219 142
f 143 222 141
f 143 226 222
f 229 228 227
f 229 227 224
f 224 227 223
f 227 144 223
f 144 145 223
f 223 145 142
f 146 226 143
f 146 230 226
f 233 232 231
f 233 231 228
f 228 231 227
f 231 148 227
f 148 149 227
f 227 149 144
f 150 230 146
f 150 234 230
f 236 235 153
f 153 235 152
f 237 153 154
f 237 236 153
f 238 154 156
f 238 237 154
f 239 156 158
f 239 238 156
f 160 231 232
f 239 160 232
f 158 160 239
f 231 160 148
f 163 241 240
f 234 163 240
f 150 163 234
f 241 242 240
f 235 165 152
f 243 165 235
f 171 241 163
f 171 173 241
f 173 242 241
f 173 244 242
f 243 175 165
f 245 175 243
f 178 246 179
f 246 247 179
f 247 173 179
f 247 244 173
f 180 175 248
f 175 249 248
f 175 245 249
f 248 182 180
f 192 250 193
f 250 251 193
f 193 251 178
f 251 252 178
f 252 246 178
f 246 252 247
f 249 253 248
f 182 248 253
f 254 182 253
f 195 182 254
f 198 255 197
f 256 199 197
f 256 197 255
f 257 200 199
f 257 199 256
f 258 201 200
f 258 200 257
f 259 202 201
f 259 201 258
f 260 203 202
f 260 202 259
f 261 204 203
f 261 203 260
f 262 205 204
f 262 204 261
f 262 263 205
f 205 263 192
f 263 264 192
f 264 250 192
f 250 264 251
f 254 265 195
f 195 265 206
f 206 266 207
f 265 266 206
f 266 268 267
f 208 266 267
f 207 266 208
f 255 198 208
f 267 255 208
f 269 255 267
f 255 270 256
f 255 269 270
f 272 257 271
f 257 270 271
f 257 256 270
f 257 272 258
f 258 272 273
f 258 273 259
f 259 273 274
f 259 274 260
f 260 274 275
f 260 275 261
f 261 275 276
f 261 276 262
f 262 276 277
f 262 277 263
f 268 278 267
f 267 278 269
f 269 278 279
f 269 279 270
f 270 279 280
f 270 280 271
f 282 281 211
f 211 281 210
f 211 212 282
f 282 212 283
f 285 284 215
f 215 284 214
f 215 210 281
f 215 281 285
f 286 283 212
f 286 212 216
f 287 216 217
f 287 286 216
f 217 218 287
f 287 218 288
f 290 289 220
f 220 289 219
f 220 214 284
f 220 284 290
f 291 288 218
f 291 218 221
f 221 222 291
f 291 222 292
f 294 293 225
f 225 293 224
f 225 219 289
f 225 289 294
f 226 292 222
f 226 295 292
f 297 296 229
f 229 296 228
f 229 224 293
f 229 293 297
f 230 295 226
f 230 298 295
f 301 300 299
f 303 302 299
f 299 302 301
f 305 304 303
f 303 304 302
f 307 306 305
f 305 306 304
f 232 233 307
f 233 306 307
f 233 308 306
f 233 228 296
f 233 296 308
f 234 298 230
f 234 309 298
f 299 300 236
f 300 235 236
f 300 310 235
f 299 236 237
f 299 237 303
f 303 237 238
f 303 238 305
f 305 238 239
f 305 239 307
f 307 239 232
f 311 309 234
f 311 234 240
f 240 242 311
f 311 242 312
f 310 243 235
f 313 243 310
f 244 312 242
f 244 314 312
f 313 245 243
f 315 245 313
f 247 314 244
f 247 316 314
f 315 249 245
f 317 249 315
f 319 318 252
f 319 252 251
f 247 252 316
f 316 252 318
f 317 320 249
f 249 320 253
f 254 253 320
f 254 320 321
f 263 322 264
f 322 323 264
f 323 251 264
f 323 319 251
f 321 324 254
f 254 324 265
f 324 326 325
f 266 324 325
f 265 324 266
f 325 268 266
f 271 327 272
f 328 273 272
f 328 272 327
f 329 274 273
f 329 273 328
f 330 275 274
f 330 274 329
f 331 276 275
f 331 275 330
f 332 277 276
f 332 276 331
f 332 333 277
f 277 333 263
f 333 334 263
f 334 322 263
f 322 334 323
f 326 335 325
f 325 335 268
f 335 278 268
f 335 336 278
f 278 337 279
f 336 337 278
f 279 338 280
f 337 338 279
f 271 280 327
f 280 339 327
f 280 338 339
f 327 339 328
f 328 339 340
f 328 340 329
f 329 340 341
f 329 341 330
f 330 341 342
f 330 342 331
f 331 342 343
f 331 343 332
f 332 343 344
f 332 344 333
f 346 345 282
f 282 345 281
f 348 347 283
f 347 282 283
f 347 346 282
f 348 349 347
f 351 350 285
f 285 350 284
f 285 281 345
f 285 345 351
f 286 348 283
f 352 349 348
f 286 352 348
f 287 352 286
f 287 288 352
f 352 288 353
f 355 354 290
f 290 354 289
f 290 284 350
f 290 350 355
f 356 353 288
f 356 288 291
f 291 292 356
f 356 292 357
f 359 358 294
f 294 358 293
f 294 289 354
f 294 354 359
f 295 357 292
f 295 360 357
f 361 296 297
f 362 361 297
f 293 362 297
f 358 362 293
f 298 360 295
f 298 363 360
f 365 364 301
f 301 364 300
f 366 301 302
f 366 365 301
f 367 302 304
f 367 366 302
f 368 304 306
f 368 367 304
f 369 306 308
f 369 368 306
f 308 296 361
f 370 308 361
f 369 308 370
f 370 361 362
f 309 363 298
f 309 371 363
f 364 310 300
f 372 310 364
f 373 371 309
f 373 309 311
f 311 312 373
f 373 312 374
f 372 313 310
f 375 313 372
f 314 374 312
f 314 376 374
f 375 315 313
f 377 315 375
f 316 376 314
f 316 378 376
f 380 317 379
f 317 377 379
f 317 315 377
f 381 380 379
f 383 382 318
f 383 318 319
f 316 318 378
f 378 318 382
f 380 320 317
f 321 320 380
f 381 321 380
f 384 321 381
f 323 383 319
f 323 385 383
f 384 386 321
f 321 386 324
f 326 324 386
f 326 386 387
f 390 389 388
f 392 391 388
f 392 388 389
f 394 393 391
f 394 391 392
f 334 333 393
f 394 334 393
f 395 334 394
f 323 334 385
f 385 334 395
f 387 396 326
f 326 396 335
f 396 398 397
f 336 396 397
f 335 396 336
f 399 337 336
f 399 336 397
f 400 338 337
f 400 337 399
f 401 339 338
f 401 338 400
f 339 401 402
f 403 339 402
f 340 339 403
f 340 404 341
f 403 404 340
f 388 342 390
f 342 404 390
f 342 341 404
f 342 388 343
f 343 388 391
f 343 391 344
f 344 391 393
f 344 393 333
f 398 405 397
f 397 405 399
f 399 405 406
f 399 406 400
f 400 406 407
f 400 407 401
f 401 407 408
f 401 408 402
f 409 345 346
f 347 410 346
f 346 410 409
f 349 410 347
f 412 411 351
f 351 411 350
f 351 345 409
f 413 351 409
f 412 351 413
f 413 409 410
f 413 410 414
f 414 410 349
f 352 414 349
f 415 414 352
f 352 353 415
f 415 353 416
f 418 417 355
f 355 417 354
f 355 350 411
f 355 411 418
f 353 356 419
f 420 353 419
f 416 353 420
f 357 419 356
f 422 421 359
f 359 421 358
f 359 354 417
f 359 417 422
f 423 420 419
f 419 357 423
f 357 424 423
f 357 360 424
f 421 362 358
f 425 362 421
f 363 424 360
f 363 426 424
f 428 427 365
f 365 427 364
f 429 365 366
f 429 428 365
f 430 366 367
f 430 429 366
f 431 367 368
f 431 430 367
f 432 368 369
f 432 431 368
f 433 369 370
f 433 432 369
f 370 362 425
f 370 425 433
f 371 426 363
f 371 434 426
f 427 372 364
f 435 372 427
f 371 373 436
f 437 371 436
f 434 371 437
f 374 436 373
f 435 375 372
f 438 375 435
f 437 436 439
f 437 439 440
f 376 439 374
f 374 439 436
f 438 377 375
f 441 377 438
f 440 439 442
f 440 442 443
f 378 442 376
f 376 442 439
f 441 444 377
f 377 444 379
f 381 379 444
f 381 444 445
f 443 442 382
f 383 443 382
f 446 443 383
f 382 442 378
f 445 384 381
f 447 384 445
f 385 446 383
f 385 448 446
f 386 384 449
f 384 450 449
f 384 447 450
f 449 387 386
f 452 451 389
f 452 389 390
f 389 453 392
f 451 453 389
f 392 454 394
f 453 454 392
f 394 455 395
f 454 455 394
f 385 395 448
f 448 395 455
f 450 456 449
f 456 458 457
f 456 457 396
f 449 456 396
f 387 449 396
f 457 398 396
f 460 459 403
f 460 403 402
f 403 461 404
f 459 461 403
f 390 404 452
f 452 404 461
f 458 462 457
f 457 462 398
f 462 405 398
f 462 463 405
f 405 464 406
f 463 464 405
f 406 465 407
f 464 465 406
f 407 466 408
f 465 466 407
f 402 408 460
f 460 408 466
f 467 411 412
f 467 412 468
f 412 469 468
f 412 413 469
f 470 413 414
f 470 469 413
f 472 470 471
f 470 415 471
f 470 414 415
f 416 471 415
f 474 473 418
f 418 473 417
f 418 411 467
f 475 418 467
f 474 418 475
f 475 467 468
f 476 472 471
f 471 416 476
f 416 477 476
f 416 420 477
f 478 421 422
f 479 478 422
f 417 479 422
f 473 479 417
f 420 423 480
f 481 420 480
f 477 420 481
f 424 480 423
f 482 425 478
f 478 425 421
f 478 479 483
f 478 483 482
f 481 480 484
f 481 484 485
f 426 484 424
f 424 484 480
f 487 486 428
f 428 486 427
f 488 428 429
f 488 487 428
f 489 429 430
f 489 488 429
f 490 430 431
f 490 489 430
f 491 431 432
f 491 490 431
f 492 432 433
f 492 491 432
f 433 425 482
f 493 433 482
f 492 433 493
f 493 482 483
f 494 485 484
f 484 426 494
f 426 495 494
f 426 434 495
f 486 435 427
f 496 435 486
f 437 495 434
f 437 497 495
f 496 438 435
f 498 438 496
f 440 497 437
f 440 499 497
f 501 441 500
f 441 498 500
f 441 438 498
f 502 501 500
f 443 499 440
f 443 503 499
f 501 444 441
f 445 444 501
f 502 445 501
f 504 445 502
f 446 503 443
f 446 505 503
f 504 447 445
f 506 447 504
f 509 508 507
f 511 510 507
f 511 507 508
f 513 512 510
f 513 510 511
f 515 514 512
f 515 512 513
f 515 505 514
f 505 448 514
f 505 446 448
f 506 450 447
f 516 450 506
f 519 518 517
f 521 520 517
f 521 517 518
f 520 521 509
f 520 509 507
f 452 520 507
f 451 452 507
f 451 507 453
f 453 507 510
f 453 510 454
f 454 510 512
f 454 512 455
f 455 512 514
f 455 514 448
f 516 522 450
f 450 522 456
f 524 523 458
f 456 524 458
f 522 524 456
f 525 523 524
f 519 517 459
f 460 519 459
f 526 519 460
f 459 517 461
f 461 517 520
f 461 520 452
f 523 462 458
f 525 527 523
f 527 462 523
f 527 463 462
f 463 528 464
f 527 528 463
f 464 529 465
f 528 529 464
f 465 530 466
f 529 530 465
f 460 466 526
f 526 466 530
f 531 468 469
f 470 532 469
f 469 532 531
f 472 532 470
f 533 473 474
f 475 534 474
f 474 534 533
f 468 531 475
f 531 534 475
f 531 535 534
f 536 531 532
f 535 531 536
f 476 537 472
f 537 532 472
f 537 536 532
f 477 537 476
f 539 538 533
f 538 473 533
f 538 479 473
f 539 533 534
f 539 534 540
f 540 534 535
f 540 535 541
f 541 535 536
f 541 536 542
f 542 536 537
f 542 537 543
f 537 477 543
f 477 544 543
f 477 481 544
f 538 483 479
f 545 483 538
f 485 544 481
f 485 546 544
f 547 486 487
f 488 548 487
f 487 548 547
f 548 488 549
f 488 550 549
f 488 489 550
f 551 489 490
f 551 550 489
f 553 551 552
f 551 491 552
f 551 490 491
f 492 554 491
f 491 554 552
f 493 555 492
f 492 555 554
f 556 555 493
f 483 556 493
f 545 556 483
f 485 494 557
f 558 485 557
f 546 485 558
f 495 557 494
f 559 496 547
f 547 496 486
f 548 561 560
f 559 548 560
f 547 548 559
f 561 548 549
f 553 552 562
f 553 562 563
f 564 552 554
f 562 552 564
f 565 554 555
f 564 554 565
f 555 556 566
f 555 566 565
f 567 558 557
f 557 495 567
f 495 568 567
f 495 497 568
f 569 498 559
f 559 498 496
f 559 560 570
f 559 570 569
f 571 563 562
f 571 562 564
f 571 564 572
f 572 564 565
f 572 565 573
f 573 565 566
f 499 568 497
f 499 574 568
f 569 500 498
f 502 500 569
f 570 502 569
f 575 502 570
f 503 574 499
f 503 576 574
f 575 504 502
f 577 504 575
f 580 579 578
f 582 581 578
f 582 578 579
f 584 583 581
f 584 581 582
f 586 585 583
f 586 583 584
f 586 576 585
f 576 505 585
f 576 503 505
f 577 506 504
f 587 506 577
f 590 589 588
f 588 589 580
f 588 580 578
f 509 588 578
f 508 509 578
f 508 578 511
f 511 578 581
f 511 581 513
f 513 581 583
f 513 583 515
f 515 583 585
f 515 585 505
f 592 516 591
f 516 587 591
f 516 506 587
f 593 592 591
f 595 594 518
f 595 518 519
f 588 521 590
f 521 594 590
f 521 518 594
f 521 588 509
f 592 522 516
f 593 596 592
f 596 522 592
f 596 524 522
f 598 597 525
f 524 598 525
f 596 598 524
f 600 599 597
f 600 597 598
f 602 601 599
f 602 599 600
f 604 603 601
f 604 601 602
f 604 595 603
f 595 526 603
f 595 519 526
f 597 527 525
f 527 597 528
f 528 597 599
f 528 599 529
f 529 599 601
f 529 601 530
f 530 601 603
f 530 603 526
f 605 538 539
f 540 606 539
f 539 606 605
f 541 607 540
f 540 607 606
f 542 608 541
f 541 608 607
f 543 609 542
f 542 609 608
f 544 609 543
f 610 545 605
f 605 545 538
f 611 605 606
f 610 605 611
f 612 606 607
f 611 606 612
f 613 607 608
f 612 607 613
f 614 608 609
f 613 608 614
f 546 614 544
f 544 614 609
f 615 549 550
f 551 616 550
f 550 616 615
f 553 616 551
f 617 556 610
f 610 556 545
f 611 619 618
f 617 611 618
f 610 611 617
f 619 611 612
f 619 612 620
f 620 612 613
f 620 613 621
f 623 622 621
f 613 623 621
f 614 623 613
f 558 623 546
f 546 623 614
f 624 560 561
f 625 624 561
f 625 561 549
f 626 625 549
f 615 626 549
f 626 615 616
f 626 616 627
f 616 553 627
f 553 628 627
f 553 563 628
f 629 566 617
f 617 566 556
f 617 618 630
f 617 630 629
f 631 622 623
f 633 631 632
f 632 631 567
f 631 623 567
f 623 558 567
f 568 632 567
f 635 634 624
f 634 560 624
f 634 570 560
f 635 624 625
f 563 571 636
f 637 563 636
f 628 563 637
f 572 638 571
f 571 638 636
f 573 639 572
f 572 639 638
f 566 629 573
f 629 639 573
f 629 640 639
f 629 630 641
f 629 641 640
f 633 632 642
f 633 642 643
f 574 642 568
f 568 642 632
f 634 575 570
f 644 575 634
f 645 637 636
f 645 636 638
f 645 638 646
f 648 647 646
f 638 648 646
f 639 648 638
f 649 639 640
f 648 639 649
f 640 641 650
f 651 640 650
f 649 640 651
f 653 652 651
f 653 651 650
f 655 654 652
f 655 652 653
f 657 656 654
f 657 654 655
f 656 657 643
f 642 656 643
f 658 656 642
f 576 658 574
f 574 658 642
f 660 577 659
f 577 644 659
f 577 575 644
f 661 660 659
f 647 648 662
f 647 662 663
f 664 648 649
f 662 648 664
f 665 649 651
f 664 649 665
f 580 665 579
f 665 652 579
f 665 651 652
f 579 652 582
f 582 652 654
f 582 654 584
f 584 654 656
f 584 656 586
f 586 656 658
f 586 658 576
f 666 587 660
f 660 587 577
f 660 661 667
f 660 667 666
f 663 662 668
f 663 668 669
f 670 662 664
f 668 662 670
f 590 670 589
f 670 665 589
f 670 664 665
f 589 665 580
f 666 591 587
f 672 671 593
f 672 593 591
f 667 672 591
f 666 667 591
f 674 673 671
f 674 671 672
f 676 675 673
f 676 673 674
f 678 677 675
f 678 675 676
f 677 678 669
f 668 677 669
f 679 677 668
f 595 679 594
f 679 670 594
f 679 668 670
f 594 670 590
f 671 596 593
f 596 671 598
f 598 671 673
f 598 673 600
f 600 673 675
f 600 675 602
f 602 675 677
f 602 677 604
f 604 677 679
f 604 679 595
f 680 618 619
f 620 681 619
f 619 681 680
f 621 682 620
f 620 682 681
f 622 682 621
f 683 625 626
f 627 684 626
f 626 684 683
f 628 684 627
f 685 630 680
f 680 630 618
f 686 680 681
f 685 680 686
f 687 681 682
f 686 681 687
f 631 688 622
f 688 682 622
f 688 687 682
f 633 688 631
f 689 634 635
f 625 683 635
f 683 689 635
f 683 690 689
f 691 683 684
f 690 683 691
f 637 691 628
f 628 691 684
f 692 641 685
f 685 641 630
f 693 685 686
f 692 685 693
f 694 686 687
f 693 686 694
f 695 687 688
f 694 687 695
f 643 695 633
f 633 695 688
f 696 644 689
f 689 644 634
f 697 689 690
f 696 689 697
f 698 690 691
f 697 690 698
f 645 699 637
f 699 691 637
f 699 698 691
f 646 700 645
f 645 700 699
f 647 700 646
f 692 650 641
f 650 692 653
f 653 692 693
f 653 693 655
f 655 693 694
f 655 694 657
f 657 694 695
f 657 695 643
f 696 659 644
f 659 696 661
f 696 701 661
f 696 697 701
f 702 697 698
f 701 697 702
f 703 698 699
f 702 698 703
f 704 699 700
f 703 699 704
f 663 704 647
f 647 704 700
f 705 667 701
f 701 667 661
f 706 701 702
f 705 701 706
f 707 702 703
f 706 702 707
f 708 703 704
f 707 703 708
f 669 708 663
f 663 708 704
f 705 672 667
f 672 705 674
f 674 705 706
f 674 706 676
f 676 706 707
f 676 707 678
f 678 707 708
f 678 708 669
