ply
format ascii 1.0
element vertex 970
property float x
property float y
property float z
element face 66
property list uchar int vertex_indices
end_header
2.12832422 -1.20621187 -3.81055167
1.34813776 -3.95630905 -2.49921769
-5.41016991 -2.27730637 -0.43883928
-6.48364162 0.60072760 0.01734986
-5.92193609 -1.87074658 -0.79246682
-1.86517830 -9.11590380 4.44247550
-3.58131353 -1.12871913 -2.53394760
-3.55891497 -1.21833361 -2.50694228
4.97727217 -3.49636074 -1.09261682
3.84029093 -5.32129864 -1.15385636
2.93314874 -2.93314874 -1.79001683
-2.21088599 -1.20932378 -3.76597579
-1.94666262 -4.95511412 -6.75061543
-0.90518518 -2.00090392 -8.36460950
-1.68549049 -4.03381842 -6.54737896
3.54654691 -1.12369427 -2.57728060
3.01458479 -2.18209337 -2.56878377
2.18209337 -3.01458479 -2.56878377
3.01267240 -2.25831466 -2.49901542
3.03952603 -2.19803296 -2.53040090
2.25831466 -3.01267240 -2.49901542
2.19803296 -3.03952603 -2.53040090
1.30371472 -1.17806270 -4.17248830
1.74271311 -0.11822683 -4.17248830
4.79864370 6.33975724 3.05329462
-1.22688787 2.18114239 -3.77935851
-1.21429923 1.21429923 -4.19505906
5.35010653 -7.63864625 4.89570842
-2.12832422 -1.20621187 -3.81055167
-2.18114239 -1.22688787 -3.77935851
0.50417256 -4.20760814 -2.80414679
-2.11249280 -1.60557920 -3.95704142
-4.05864148 -0.23756510 -2.50694228
-3.51944279 -0.35090468 -3.23848324
-2.67989504 -3.13114640 -3.72327048
-2.55667300 0.71505529 -5.81465193
-2.13886090 0.27100790 -6.24370307
-2.63785493 -1.78234579 1.77479227
-3.16052502 0.87728032 4.93018676
-1.98729500 -2.47561845 4.93018676
1.11584804 -1.50887323 3.13823330
-0.87626179 3.30050533 3.13823330
-3.42539965 -1.94949769 1.02377570
-2.62610801 -1.63661001 1.49581833
2.13325456 -6.43159556 -1.13133217
-6.18622937 1.62420798 -0.43883928
-7.39256167 -2.08035764 -2.62371097
-3.00151331 -2.77274802 2.59317114
-1.53321618 -4.86312009 3.66386293
-3.54654691 -1.12369427 -2.57728060
-2.31417711 -2.22782542 -3.18345620
-3.01458479 -2.18209337 -2.56878377
-2.93592746 -1.29731027 -3.18345620
-1.97959764 -3.01260021 0.15936861
-2.99337140 -1.09875082 1.88605061
3.90404253 -4.03305006 0.42075742
-1.15109894 -4.87757462 3.96531248
-0.60055542 1.97945485 2.93671904
6.31076474 -4.66424503 -0.80767883
4.43174157 6.40198628 7.33772003
1.71837541 -10.11664080 -3.66392640
9.29185610 -2.27788772 -4.77519680
6.13342153 -4.78702681 -2.59273633
3.03952603 -2.19803296 2.53040090
3.07100938 -2.17590225 2.50694228
-0.80225781 -7.09598182 -0.16739739
5.61497411 -0.67874990 -0.16739739
6.21020679 -7.69121450 -4.09193177
1.49324241 6.02030390 4.19875808
2.10077844 3.20655274 -6.74582381
0.42023724 -0.32495336 -5.08137611
-0.03727701 -0.83218241 -5.51043488
2.17590225 -3.07100938 -2.50694228
3.58131353 -1.12871913 -2.53394760
3.58562465 -1.12403459 -2.52959857
-0.32398203 2.15041644 -12.18983762
0.90198209 -2.27702834 -9.70677350
-1.75734541 -4.11088590 4.04960850
6.01553357 -4.11088590 -3.72327048
-3.58562465 -1.12403459 -2.52959857
-3.75731571 -0.04001985 -2.52959857
-4.01437540 -1.04884992 -1.80019434
-2.70741154 -3.83856216 -3.55823307
-1.29033354 -4.02175814 -7.84555725
-1.35207700 2.15280868 -3.73825013
-2.51597831 -0.07070373 -3.76597579
-2.91648929 -1.17986454 -3.25622201
-3.19690999 -0.04998273 -3.21053216
-2.96030439 -1.19005308 -3.21860067
-2.97198106 -1.18077684 -3.21053216
-3.54654691 1.12369427 -2.57728060
-3.58562465 1.12403459 -2.52959857
-3.58131353 1.12871913 -2.53394760
0.18162656 1.12718691 -6.75061543
-0.99851683 -0.13043919 -1.02659556
-1.00274585 -1.46160407 4.44247550
-1.86517830 -2.27369416 -2.39973414
2.31417711 -2.22782542 -3.18345620
2.93592746 -1.29731027 -3.18345620
2.15280868 -1.35207700 -3.73825013
2.18114239 -1.22688787 -3.77935851
2.21088599 -1.20932378 -3.76597579
3.37470234 4.59795162 -5.51043488
2.60615587 3.05791775 -4.89491684
1.85082511 0.80125348 0.18622270
2.48557970 2.86077840 -5.06624472
4.39696219 5.96845957 -2.33014016
-2.18209337 3.01458479 -2.56878377
-1.29731027 2.93592746 -3.18345620
-2.22782542 2.31417711 -3.18345620
-1.19005308 2.96030439 -3.21860067
-1.20621187 2.12832422 -3.81055167
-1.17806270 1.30371472 -4.17248830
-0.11822683 1.74271311 -4.17248830
-0.90414942 0.25283411 -4.40995037
-1.15623439 1.15623439 -4.21996870
-0.25283411 0.90414942 -4.40995037
0.25283411 0.90414942 -4.40995037
0.76187456 0.70410816 -8.09087514
2.59648356 3.10721161 -2.50694228
2.18209337 3.01458479 -2.56878377
2.25831466 3.01267240 -2.49901542
2.19803296 3.03952603 -2.53040090
0.90414942 0.25283411 -4.40995037
1.15623439 1.15623439 -4.21996870
1.74271311 0.11822683 -4.17248830
3.19690999 -0.04998273 -3.21053216
2.91648929 -1.17986454 -3.25622201
2.51597831 -0.07070373 -3.76597579
2.97198106 -1.18077684 -3.21053216
2.96030439 -1.19005308 -3.21860067
2.96030439 1.19005308 -3.21860067
3.99952080 -4.44476857 0.65621268
-5.25056284 3.56462383 -10.92656352
2.93202710 -3.16124114 -5.14896534
2.64403158 -3.00028425 -5.91828268
2.77137610 -3.20848971 -5.73733759
-2.18209337 -3.01458479 -2.56878377
-1.12369427 -3.54654691 -2.57728060
0.56284842 -4.12491422 -3.17373534
-0.04001985 -3.75731571 -2.52959857
1.17806270 -1.30371472 -4.17248830
1.21429923 -1.21429923 -4.19505906
1.15623439 -1.15623439 -4.21996870
-1.74271311 -0.11822683 -4.17248830
-1.30371472 -1.17806270 -4.17248830
0.90414942 -0.25283411 -4.40995037
0.25283411 -0.90414942 -4.40995037
-1.20621187 -2.12832422 -3.81055167
-2.15280868 -1.35207700 -3.73825013
-2.08064883 -1.71035197 -2.57522162
0.25218400 -4.31913681 -0.40755900
0.71627162 -2.79144387 -7.06097913
-2.12888805 -1.74458034 -2.35962338
-2.96329245 2.00385738 -7.06097913
-6.76420221 -2.06660287 -1.51566897
-4.60373615 3.91651482 1.23408275
-2.95798447 -2.22551408 1.23408275
-0.56317527 -1.15348386 2.25330506
-1.29886596 -5.55025029 -3.69922432
-1.66934093 -3.43756664 -0.10506063
3.67217785 -4.28358011 -0.10506063
-1.91123144 -3.21495813 0.11950569
-2.21042748 -5.28507595 -2.46068262
-6.72047698 -2.06333349 -1.83341436
-4.61156596 -2.20103163 0.01734986
-5.87552283 -2.74619699 -1.68122807
-4.79610194 -1.44569287 0.55327440
-4.98936773 -1.35959894 0.45265114
-6.25415454 3.83173101 3.36174714
2.57006178 3.00494034 2.60025816
-0.77751004 3.44565653 2.60025816
2.27785525 3.89806220 -0.02598667
-7.19685855 -2.20039794 -0.65227994
-5.13381595 5.99809108 -0.29753190
-3.54654691 1.12369427 2.57728060
-6.15494018 0.86455289 -0.29753190
-1.08749120 -0.65971546 6.69450406
-0.48195221 -5.25924077 6.69450406
-1.70909141 -4.85775234 3.08607376
-3.61730810 3.27565492 -5.81465193
-3.51684676 1.13327159 -3.65889294
-2.15016474 -0.07514226 -6.79308754
-3.25025991 0.28478062 -3.55823307
-2.47679234 -0.93990346 -4.70364392
-3.79670417 1.05096359 -2.63393615
-2.31687766 -1.36851962 -4.73663624
-3.13793864 -0.49355161 -0.75426477
-3.79759197 2.86311875 -4.73663624
-2.97175178 -0.05006725 -4.09399173
-4.96124269 -1.42623238 0.37977315
-4.98070317 -1.26109164 0.55327440
-3.60281229 -2.06411726 1.78543531
-5.08806532 -1.02008240 0.67875515
-1.69942563 -2.21816986 5.79005872
-3.10521933 -0.85647334 4.08934559
-2.12483529 -1.83685602 5.21567389
-2.33938635 -1.89995697 4.42989669
-4.03770818 1.50318551 5.79005872
4.33388986 4.31953378 0.37068488
1.72503009 -5.41686343 0.37068488
7.75867931 -5.16495600 -3.98824528
3.01267240 -2.25831466 2.49901542
4.17449672 0.03501784 1.75033983
3.20251162 -2.30219473 2.27957727
-0.32583392 4.75407667 2.92359516
2.21511355 -2.41509657 0.53864835
-3.21857178 -2.22961030 2.92359516
5.41168671 -9.36237317 1.75033983
2.97935427 -5.51109494 5.35232661
3.83197053 -8.66252322 6.18288374
5.07322780 5.20431338 -1.20428851
2.33113440 -5.55702499 6.57637346
6.90468161 -6.35903090 -1.20428851
-5.17517877 0.79767980 -0.00105975
-3.14076901 2.12866224 0.29749613
2.37586800 3.12758633 2.41863445
-4.57157450 4.29402146 -1.22882522
-4.03587391 4.41526507 -1.05291711
2.18209337 3.01458479 2.56878377
1.21833361 3.55891497 2.50694228
3.90852291 4.79838670 -0.52324288
-0.51637730 0.33962601 -9.26743977
-2.47699843 -0.91579903 -11.11106143
3.07100938 -2.17590225 -2.50694228
3.55891497 -1.21833361 -2.50694228
3.59745344 -2.06524369 -1.79270576
3.97732788 5.83116600 -3.56408424
-0.18014465 -0.75164445 -9.72079244
4.01437540 -1.04884992 -1.80019434
4.18439888 7.40402638 -3.56408424
3.75731571 -0.04001985 -2.52959857
-2.05358696 -2.37097340 5.89124615
-1.38221646 -0.67169552 9.84000141
-0.98555447 -2.32301294 4.80949881
-1.15827424 -4.91363338 -8.61217025
-3.75731571 0.04001985 -2.52959857
-4.01437540 1.04884992 -1.80019434
-1.02962714 -3.93646171 -8.61217025
-2.15280868 1.35207700 -3.73825013
-2.25431439 2.25431439 -3.21479069
-2.22708084 2.22708084 -3.24855316
-2.18114239 1.22688787 -3.77935851
-2.21088599 1.20932378 -3.76597579
-0.80697033 0.41411457 0.29755781
-0.25429017 -0.33014358 10.17709523
7.96933094 8.40985556 1.73226089
3.59745344 -2.06524369 1.79270576
3.55891497 -1.21833361 2.50694228
4.01437540 -1.04884992 1.80019434
5.49072521 7.92462850 6.92413012
4.10804375 4.58976588 2.80315199
3.91791008 5.95383880 -3.90393270
4.21231260 6.72084007 -3.21830715
4.63063411 -5.36454538 -2.06857318
4.25979559 -6.61197952 -3.75440203
3.77091434 -5.33830655 -4.89294348
-1.20932378 2.21088599 -3.76597579
-0.07070373 2.51597831 -3.76597579
-1.17986454 2.91648929 -3.25622201
-1.12369427 3.54654691 -2.57728060
-1.18077684 2.97198106 -3.21053216
-0.04998273 3.19690999 -3.21053216
1.12369427 3.54654691 -2.57728060
1.12871913 3.58131353 -2.53394760
4.65344119 2.70411164 -5.04933635
-0.49470264 2.79017399 -3.62031403
-2.10636153 3.40288267 -5.31950431
2.17590225 3.07100938 -2.50694228
1.21833361 3.55891497 -2.50694228
2.06524369 3.59745344 -1.79270576
-0.23137029 -1.07251045 -10.87061275
2.46148596 0.14054412 -5.00886341
0.32800403 4.94298303 -2.49901542
0.53149550 3.21616388 -4.31325743
4.30558312 -0.24708514 -2.50694228
1.88070294 1.45744560 -4.31375009
2.93592746 1.29731027 -3.18345620
2.31417711 2.22782542 -3.18345620
3.01458479 2.18209337 -2.56878377
2.51597831 0.07070373 -3.76597579
2.21088599 1.20932378 -3.76597579
2.91648929 1.17986454 -3.25622201
3.10809001 1.06032369 -3.12377190
3.69708323 0.42031280 -2.52959857
2.22708084 2.22708084 -3.24855316
2.25431439 2.25431439 -3.21479069
2.22782542 2.31417711 -3.18345620
1.29731027 2.93592746 -3.18345620
1.20932378 2.21088599 -3.76597579
0.11822683 1.74271311 -4.17248830
2.18114239 1.22688787 -3.77935851
2.15280868 1.35207700 -3.73825013
2.12832422 1.20621187 -3.81055167
1.21429923 1.21429923 -4.19505906
1.30371472 1.17806270 -4.17248830
1.17806270 1.30371472 -4.17248830
1.20621187 2.12832422 -3.81055167
1.22688787 2.18114239 -3.77935851
1.35207700 2.15280868 -3.73825013
3.58079621 -3.30611757 0.79303613
1.18016133 -2.26048948 6.18288374
5.25972441 -10.24961135 3.28589230
4.79199906 -8.59969050 2.92192221
-0.86499617 -4.40599090 -2.49901542
1.15950509 -4.96613744 -1.73226089
-1.21833361 -3.55891497 -2.50694228
-1.04884992 -4.01437540 -1.80019434
-1.12871913 -3.58131353 -2.53394760
-1.12403459 -3.58562465 -2.52959857
0.78613104 -4.10891606 -3.65687370
0.71287434 -4.35799794 -2.74462996
-0.49120600 -3.62154729 -3.79105996
3.10407701 -4.87959122 -3.79105996
-1.12654027 -4.01922645 -1.73226089
-1.57019891 -4.38842499 0.00924394
-1.59587226 -3.54723312 -2.75425811
-1.84930041 -3.53535833 -2.49921769
-1.05064848 -4.03975891 -1.75226213
1.29731027 -2.93592746 -3.18345620
1.19005308 -2.96030439 -3.21860067
2.22708084 -2.22708084 -3.24855316
2.22782542 -2.31417711 -3.18345620
2.25431439 -2.25431439 -3.21479069
1.35207700 -2.15280868 -3.73825013
1.18077684 -2.97198106 -3.21053216
-1.18077684 -2.97198106 -3.21053216
-0.90414942 -0.25283411 -4.40995037
-1.17806270 -1.30371472 -4.17248830
-1.15623439 -1.15623439 -4.21996870
-1.21429923 -1.21429923 -4.19505906
-0.25283411 -0.90414942 -4.40995037
-0.11822683 -1.74271311 -4.17248830
-2.22708084 -2.22708084 -3.24855316
-2.25431439 -2.25431439 -3.21479069
-2.22782542 -2.31417711 -3.18345620
-1.29731027 -2.93592746 -3.18345620
-1.19005308 -2.96030439 -3.21860067
-1.22688787 -2.18114239 -3.77935851
-1.35207700 -2.15280868 -3.73825013
1.24635245 -4.77202933 -3.26886831
-2.92310797 -0.60256891 -3.26886831
-1.32023260 -3.16915397 1.96890130
-3.11643619 -0.96756104 1.85865592
-4.46041472 2.38092446 -3.16549258
-1.45123070 -2.40816447 -3.16549258
-0.74122452 -3.08427559 -3.85761276
3.49757129 -5.74768752 -3.85761276
0.53384552 -4.55813964 0.58923296
-1.48531945 -4.15168412 -6.50842852
5.73159588 -4.15168412 0.70848681
-2.34188271 -3.24202155 0.70848681
-1.04668869 -4.76610116 -3.83465267
-1.07840257 -3.72699043 -0.42094322
-1.15701580 -3.54829075 0.08111687
-1.52016268 -3.31893990 0.42075742
-3.60174850 7.82635109 4.30336522
-9.54301022 1.88508936 4.30336522
-1.30224348 -0.41441566 2.57036310
0.72165779 -2.82558114 0.99829416
0.56919526 1.64069779 2.95862809
-5.17112501 -0.73702071 2.95862809
6.27921439 1.23433192 4.19875808
-0.35911944 -0.61802993 2.80274155
-0.56769130 -0.82660179 2.71326485
4.91580613 -1.71953171 0.98879631
4.74854663 -5.72570627 -1.90541157
-1.54888968 -3.45174173 0.98879631
2.74662533 -4.87192185 -0.87792884
-4.37227402 -3.36301941 -2.02217315
-1.78913891 -3.24547438 0.15629827
-4.70979036 -1.75732813 0.15629827
2.31722330 2.60816126 4.21162427
1.36647572 2.97309220 3.36174714
0.55795783 3.83173101 -3.45036523
-1.48752695 2.56358026 6.14655232
-1.90490781 3.98272699 0.94903373
1.14379852 4.69503031 -1.17361447
-2.12968645 3.59112538 1.72295259
-2.93314874 2.93314874 1.79001683
-1.11390857 6.07273195 4.58633433
-3.01267240 2.25831466 2.49901542
-3.03952603 2.19803296 2.53040090
-2.25831466 3.01267240 2.49901542
-3.01458479 2.18209337 2.56878377
-10.04220268 5.67939664 -4.27371609
-2.34669049 3.88992129 2.33394716
-2.93592746 1.29731027 3.18345620
-11.50040357 -2.63480761 -1.22882522
-5.02939572 5.88868346 -0.65227994
-10.27197641 2.79285293 -3.01110720
-7.25009011 0.04370800 0.59980587
-2.31417711 2.22782542 3.18345620
0.99937626 -0.35359270 10.12284482
-1.65888953 -3.92090783 5.44065133
0.25340122 1.54410517 5.44065133
-1.16763323 -1.06258254 3.75070491
-0.84581711 -1.05276064 4.80794231
-2.14069844 1.86467715 4.16018757
-2.14069844 -4.64565279 -2.35014237
-1.32009807 -5.41835264 4.16018757
-2.26607394 3.55267023 -7.75847506
-2.26607394 -3.33231478 -0.87349005
-1.39824983 -4.14948181 -7.75847506
-3.59745344 -2.06524369 1.79270576
-2.86362601 -1.51506600 3.55695875
-2.71850292 -1.66930167 3.70598562
-2.04753688 -3.48527946 3.55695875
-3.59784573 -2.07386468 1.78543531
-2.38118419 -2.25205695 3.88197384
-2.87780247 -2.28724516 2.94419938
-3.72858254 -1.55079936 1.94306103
-3.08414021 -2.25106228 2.59317114
-2.96898699 -1.63065150 2.52198794
-3.89288295 -0.35787265 3.43408610
-2.97850722 -1.02160778 4.08934559
-3.07648518 -0.98555724 3.92744633
-3.02107488 -0.73097265 4.73787803
-2.91474319 -0.87079243 4.65032882
3.26294120 0.38329573 2.55872776
-5.33750048 -0.69117308 3.96531248
0.46920526 0.92913112 2.74418419
2.93314874 -2.93314874 1.79001683
2.25831466 -3.01267240 2.49901542
1.52713948 3.41419329 11.94306331
1.24886486 2.16408592 10.37515692
0.30000154 1.81495599 11.94306331
10.61963478 -2.14597418 -6.23859374
3.58131353 -1.12871913 2.53394760
3.58562465 -1.12403459 2.52959857
9.81165003 0.33529282 -4.77519680
3.75731571 -0.04001985 2.52959857
4.88527639 2.50216887 -0.80767883
1.28495228 -3.43938184 6.88644751
-1.13529605 2.45305353 6.21068752
8.52659064 2.14040777 -4.82091404
0.19142412 0.93571847 5.56801114
2.43039529 0.76461948 1.49063308
2.22782542 2.31417711 3.18345620
1.29731027 2.93592746 3.18345620
6.28945526 1.80133520 1.54770279
-2.94515890 -3.60159374 2.81261338
4.41969784 -0.55097019 2.81261338
8.13105516 -3.41808403 4.14867605
0.26206586 0.61207203 2.38544930
-0.69088107 -0.95640937 2.29345618
-1.53221280 -0.11507764 1.93252740
-2.63256687 -6.37618956 2.38544930
1.77079359 -9.77834560 4.14867605
2.39847255 3.44660885 1.81621770
2.70000703 3.03989079 2.33320779
2.87042608 2.32427848 1.05387141
-6.55069320 5.72618524 -3.27593461
-6.80091751 -0.26715023 1.05387141
7.35850389 4.11214281 -0.52324288
4.08267821 3.04542279 1.40876738
5.00052726 4.10963763 -0.06511968
4.05444055 2.85004830 1.65228152
2.20455027 4.55247688 -0.06511968
2.06524369 -3.59745344 -1.79270576
0.10320674 0.75806659 -11.27370447
-2.96161293 -2.12567691 -8.31238904
1.21833361 -3.55891497 -2.50694228
1.04884992 -4.01437540 -1.80019434
0.82840690 -0.90321914 -7.67505441
-1.58986670 -1.55748102 -8.31238904
-2.45952434 -2.55668601 -6.00484947
-2.73756906 -1.61129945 -9.46725692
3.84749713 0.39393659 -2.27370972
4.56090831 -5.83544528 -2.47333605
3.75731571 0.04001985 -2.52959857
1.01148296 0.19298895 -7.62901336
4.49298413 -5.31950984 -2.47333605
-2.22051278 -1.80340490 7.96992324
2.18209337 -3.01458479 2.56878377
2.19803296 -3.03952603 2.53040090
2.17590225 -3.07100938 2.50694228
11.15369570 -3.81216135 -3.66392640
5.26554903 -5.69216890 -2.36353489
4.64743327 -5.29087540 -1.53204904
5.39946455 -4.34423932 -0.87792884
-1.02132035 -3.49488797 0.95962920
-1.74604434 -2.18287136 6.15852220
-2.85324592 -3.22185793 1.11915168
-7.10084204 -4.05659611 6.15852220
0.34865894 -0.40045777 -9.08033638
-0.58480917 -0.12591835 -5.66157934
-1.29062246 -1.54024581 -6.22685526
3.10790309 2.80917050 -10.75503963
2.35423610 2.42061018 -9.80052704
5.05296190 6.28431376 -6.75488018
2.18803951 4.10556584 -4.96098751
-1.74271311 0.11822683 -4.17248830
-1.30371472 1.17806270 -4.17248830
-2.12832422 1.20621187 -3.81055167
-2.51597831 0.07070373 -3.76597579
-3.19690999 0.04998273 -3.21053216
-2.91648929 1.17986454 -3.25622201
-2.97198106 1.18077684 -3.21053216
-2.96030439 1.19005308 -3.21860067
-3.01458479 2.18209337 -2.56878377
-2.93592746 1.29731027 -3.18345620
-2.31417711 2.22782542 -3.18345620
-0.74535112 4.65336323 1.72295259
-2.38901571 2.38901571 3.34562821
-1.04756575 3.83200607 3.08016719
1.95158395 4.34745128 -0.42572965
0.01472147 1.24607333 -6.75488018
0.21526090 2.21162113 -0.59746350
2.08106842 3.82576950 -6.22685526
1.41484903 3.08715681 -5.60207193
4.43174157 -0.03247034 0.90326341
5.24277843 7.16568086 0.90326341
4.17449672 -0.03501784 1.75033983
1.42237660 3.01392581 -3.16863799
1.78532357 3.10640822 -2.90622011
1.81237277 2.95215649 -3.16863799
0.04998273 3.19690999 -3.21053216
0.07070373 2.51597831 -3.76597579
1.17986454 2.91648929 -3.25622201
1.18077684 2.97198106 -3.21053216
1.19005308 2.96030439 -3.21860067
-7.01795560 3.81632999 -2.76263440
-1.12871913 3.58131353 -2.53394760
-2.29889340 2.50441825 -3.62031403
-2.17375904 3.21801385 -2.40632281
-4.00703674 2.86208717 -4.78999704
0.97648606 -3.61126973 -12.06798575
3.19690999 0.04998273 -3.21053216
2.97198106 1.18077684 -3.21053216
3.54654691 1.12369427 -2.57728060
-0.29816521 -0.68933580 7.70097686
0.74115133 -2.87384598 8.73127285
1.44584228 0.09628959 3.90466032
-6.16973351 10.26177778 3.60592029
-0.75195092 0.55826578 6.88644751
-2.34639698 1.67905614 8.07448873
0.67215899 3.41988528 3.60592029
2.04910763 2.80649733 2.88901608
1.68866169 3.31927084 2.50694228
1.63430963 3.57784387 2.15613140
-5.44846783 4.14115096 10.03641319
3.00750170 -3.68164445 -5.92644725
-0.08687216 1.24302333 -5.92644725
1.62547520 -0.23836351 -0.76006536
-0.82494559 2.71850488 -0.83157960
0.12597002 1.12725699 2.86150429
5.78120983 -10.24523740 -2.52041004
5.22122240 -9.71793785 1.92231635
4.16699724 -4.68922871 -3.31097508
1.55017618 -0.10485299 -1.43551692
2.69964544 -2.96872399 2.86150429
2.80689549 -3.23982902 3.28589230
2.95924656 -3.48891961 3.06941516
-1.01187845 -3.15955469 -3.80855436
-0.07175089 -2.21942713 -6.49626682
-0.20664149 -2.03359894 -6.62943493
-2.06524369 -3.59745344 -1.79270576
-2.25831466 -3.01267240 -2.49901542
3.31811210 -4.73823750 -6.62943493
-1.53831007 -2.42771504 -4.33896619
-2.19803296 -3.03952603 -2.53040090
-2.17590225 -3.07100938 -2.50694228
1.17986454 -2.91648929 -3.25622201
1.12369427 -3.54654691 -2.57728060
1.12871913 -3.58131353 -2.53394760
1.12403459 -3.58562465 -2.52959857
0.04001985 -3.75731571 -2.52959857
-0.07070373 -2.51597831 -3.76597579
-1.20932378 -2.21088599 -3.76597579
-1.17986454 -2.91648929 -3.25622201
-1.79991927 -2.68633351 0.74746686
0.15544158 -3.90748912 4.73787803
-0.40914432 -3.98569256 -0.89605929
-0.08405609 -3.83857909 0.36389480
2.37810091 0.80125238 3.57720871
-2.06980132 -0.77520359 2.09753876
-1.95472184 2.59596632 3.57720871
-2.16691190 -1.02327879 1.95103145
-2.85384984 0.14000439 2.47443476
-2.01222162 -2.40274903 1.00266672
-5.04878892 -2.00756260 -0.21150978
-6.07520647 0.31205065 1.00266672
2.66781506 -1.33952126 2.47443476
3.44417450 -3.44374563 0.87427782
-2.71098916 -3.28177354 0.00241650
-2.51104753 -2.25917832 0.87427782
-2.48176987 -2.29603221 0.84881198
-2.36524860 3.70790249 6.00056558
-5.79226591 4.90706771 6.00056558
-3.07384661 4.37284357 2.77541854
-2.50730812 4.20404998 -0.95719241
1.33895787 2.87473198 -2.76263440
0.45232332 3.81632999 4.70764452
-2.06524369 3.59745344 1.79270576
-1.12654027 4.01922645 1.73226089
-2.05685353 3.63387808 1.73226089
-2.07426991 3.61749070 1.74908909
-5.01139068 2.87504907 1.01768075
-4.75341200 3.03797937 0.77640091
-1.89248142 2.31589829 6.49848607
1.60408702 3.53940050 6.49848607
-1.16950246 2.99433431 3.20788485
0.74898980 2.80756104 -6.17826184
5.48394178 5.78272855 -6.17826184
2.17330833 4.45394266 -1.21090746
-3.07100938 2.17590225 2.50694228
-0.46574410 3.52901220 6.42549437
-3.59745344 2.06524369 1.79270576
-3.55891497 1.21833361 2.50694228
-3.58131353 1.12871913 2.53394760
-1.54681989 3.33943743 4.58633433
1.96187522 1.65816597 7.18845989
2.05361303 1.77879567 7.26399308
-0.81328507 -1.47351008 6.25640682
-2.42244291 -2.69726026 7.26399308
0.33287244 -0.97651967 1.64107131
-0.79416055 7.01405501 3.11678005
5.18945246 8.40545401 -2.02098060
-0.74791260 6.81056653 3.18345620
0.32866222 8.60839408 1.49063308
2.31417711 2.22782542 3.18345620
2.25431439 2.25431439 3.21479069
6.57049537 2.41205761 1.00061799
6.41469496 2.45380420 1.00061799
6.41872594 2.35725462 1.07036896
-3.05407245 4.48090365 -1.13071727
-6.43057088 5.83612571 -6.19689707
-1.60141713 2.80176730 -6.19689707
-3.72315389 4.53843697 4.82045094
-4.07051203 3.35737617 9.14599763
-5.39219028 6.39178867 2.33320779
0.43290605 0.91085161 7.96158060
-5.55953135 -3.08462079 -5.16731690
-1.85288968 -2.59663216 -5.16731690
-2.17643910 -3.58555275 -2.25937376
-2.82445115 -2.87503345 -4.84233499
-2.14681557 -2.61493267 -5.44807619
-3.80304037 -3.91428650 3.40270171
2.06524369 -3.59745344 1.79270576
0.12857928 0.70174217 11.15109874
-2.00290905 -1.30381323 9.09159444
1.21833361 -3.55891497 2.50694228
-3.33522443 -1.85567633 9.09159444
3.60585999 -3.78066392 0.28594738
4.82687100 -2.65698428 1.41950962
2.97978124 -3.87982505 0.28594738
-4.09057791 -3.04042528 3.59781517
3.56243667 -4.02829131 -0.13532410
-0.72778520 -2.59770522 3.59781517
3.28164954 -0.06548666 7.34772106
-2.19803296 3.03952603 -2.53040090
-2.25831466 3.01267240 -2.49901542
4.05568425 5.38504470 -6.49865251
-0.28575673 2.05373987 -6.49865251
-1.17851072 1.62899753 -6.07759663
-3.03952603 2.19803296 -2.53040090
-3.01267240 2.25831466 -2.49901542
-2.93314874 2.93314874 -1.79001683
0.08502311 -0.08502311 -10.41860983
0.78661633 0.09034590 11.33585092
1.61396101 2.96783655 8.30432602
1.19886597 3.08991887 6.78407152
-0.00612430 2.36426686 9.64001602
2.09787394 -1.02767866 8.22734080
4.31147577 -0.96011906 0.95516737
4.01922645 -1.12654027 1.73226089
4.49433408 6.82260659 9.39115289
4.03975891 -1.05064848 1.75226213
4.04105700 -1.04859314 1.75033983
-1.47964121 2.63940580 -2.98461431
-0.18406780 3.31462433 0.14958980
3.58172405 4.05467827 -4.31816558
-2.24370799 1.79608472 -5.04933635
-2.08031897 1.89927551 -4.89652342
-1.64166204 3.63622290 0.36163117
-1.67436627 2.56466335 -3.15867983
-0.53701842 2.77799742 -3.77181501
-1.16567966 2.39348987 -4.31816558
1.71970031 2.18025413 -4.65509585
1.86393794 2.08915869 -4.78999704
-0.80130100 2.86230890 -5.31950431
-1.89320928 2.91351102 -6.41822976
-5.29761893 4.75240225 -4.26763192
-1.77997048 3.52152382 -4.26763192
-1.72438709 3.48752740 -4.31593777
1.35146584 3.65551668 -0.18408632
1.37572629 2.86061894 -2.79550184
-1.81645383 0.86821455 -11.02576426
-1.91693771 1.00664329 -10.92656352
-2.64470232 2.98455778 -7.65824797
-2.31664775 3.44689635 -5.59189235
0.24235093 0.87802592 -5.61770045
0.01333821 0.71552884 -6.64123979
0.11822683 -1.74271311 -4.17248830
0.07070373 -2.51597831 -3.76597579
1.20621187 -2.12832422 -3.81055167
1.22688787 -2.18114239 -3.77935851
1.20932378 -2.21088599 -3.76597579
-0.45483032 -4.12050394 -2.69048950
2.03749575 -4.61029621 0.26641934
-1.10449364 -3.51086657 0.26641934
-3.62697698 -1.70853673 1.57926779
-2.36912414 -2.89207292 0.36389480
-1.62815161 -2.65951068 2.52198794
-2.67626885 -2.42619918 1.20742108
-1.99590972 -3.74892783 -1.55989522
-1.31734423 -2.93589673 2.27131565
-2.36647407 -1.98959476 3.15876160
1.70184205 -4.83297721 2.27131565
-1.80066408 -3.08506842 0.87144013
-4.46476667 2.64282292 2.53175694
-0.39840339 -1.42354035 2.53175694
-4.84194367 -1.80071735 0.04492420
-7.88330879 1.89304734 0.49845217
-1.21833361 3.55891497 2.50694228
-2.18209337 3.01458479 2.56878377
-2.17590225 3.07100938 2.50694228
-2.19803296 3.03952603 2.53040090
-6.61029673 5.98250600 -3.49602149
-9.28033007 2.62154222 -1.17361447
1.17757677 3.68984209 1.01768075
-4.47116128 4.52624655 -3.83770239
-2.12612993 2.72564444 2.96910907
-4.55456455 1.79352436 5.13989665
-1.21029615 4.96619441 -1.95835032
-5.23697603 4.32843097 -1.95835032
-4.95769514 5.92106802 -4.66779443
2.26627946 1.40750658 1.88152282
4.21536791 6.26360676 9.16773281
-0.14866445 -0.68171095 9.16773281
-5.05772398 -3.87017348 7.09193438
-1.39942548 -2.40184559 1.60293496
0.17446737 -0.58256976 7.09193438
-1.61137467 -2.13575233 -5.65865600
1.69435725 8.45445157 0.78270180
1.02985512 8.19432808 1.17514095
-3.21319533 8.28692557 2.93671904
7.22014842 -1.25583317 2.55872776
4.64313994 5.10306580 0.95357876
7.32525158 1.82308759 1.20733146
7.11073876 1.27510085 1.53095939
-3.56186231 4.82317955 0.64003313
-1.95314638 2.96365144 6.25047909
-7.30110228 6.32399485 6.25047909
-3.17686399 4.18731732 3.96810809
-4.02415012 4.83167086 4.49864266
-0.24691561 1.56489790 3.16412312
-0.26024541 1.55543968 3.22369873
0.64386684 0.36658648 3.96810809
-3.61603524 2.80455010 8.73127285
-5.45220996 4.13740883 10.04711149
-2.93291964 -3.24863422 -1.05858460
-1.70141894 -2.09300664 -6.66369608
-7.65736878 -4.17708362 -6.66369608
-10.64978491 -3.84256929 3.38980604
-3.43058281 -3.84256929 -3.82939606
-2.57374814 -2.93261849 3.38980604
-1.21833361 3.55891497 -2.50694228
-2.17590225 3.07100938 -2.50694228
-2.06524369 3.59745344 -1.79270576
-3.55891497 1.21833361 -2.50694228
-3.07100938 2.17590225 -2.50694228
-3.59745344 2.06524369 -1.79270576
-1.70997726 2.88192214 3.83224041
0.63726568 2.88827011 1.66985242
2.98420744 4.91865759 8.75089080
-1.25693860 -1.83108766 8.75089080
2.74889237 5.07130473 4.99953159
2.33372543 4.43488754 8.07580456
1.96853599 4.28831179 7.52786550
2.49083920 4.61649665 7.52786550
-1.16996799 3.74107991 -5.08696807
6.88610915 3.74107991 2.96910907
0.09980802 2.83179043 -4.84244891
-0.28977783 1.93734871 -6.85062791
-2.28549684 1.84376481 -4.84244891
-0.68337194 2.55251837 -0.95179581
0.91364300 -0.00468275 -6.17041512
-3.24057306 4.14953331 -6.17041512
0.14186809 -1.15625575 -0.87982226
1.76696957 1.44591861 -6.19022089
-2.46030626 -2.78135723 -6.19022089
-1.49506889 -2.45143131 -1.38151529
-5.34506034 -3.99669883 -7.15813545
0.16129514 -0.53682637 -7.15813545
2.22708084 2.22708084 3.24855316
2.71975438 2.26890000 2.97282781
2.26890000 2.71975438 2.97282781
-4.32998486 4.40064746 6.42503965
8.15831132 3.72534225 -2.98461431
-0.45709362 3.72534225 5.63079063
0.28179116 -4.46826923 9.79380087
-1.01613258 -1.47276238 6.62774954
2.40080017 1.18762655 1.44586815
4.23457026 2.89994510 0.22045623
-1.42622959 0.98355948 3.41513916
1.82937201 -2.27204212 3.41513916
-0.46677213 2.89994510 2.73337609
-0.68477154 3.08737142 2.82305567
-4.50893889 0.98355948 3.71875952
-2.20706015 3.08737142 3.28483687
-2.38229031 -3.62890086 -2.19293412
-0.00000000 -2.59667783 -4.71085639
-1.32970013 -4.44728708 -7.87383844
-1.46889556 -5.14320814 -7.15648464
-1.91086087 -2.98495585 -0.51088317
-1.75563614 -2.22963881 -1.33158930
4.27607672 0.44333925 2.07288627
4.27607672 0.00000000 2.51622552
0.00000000 1.75169990 -4.18461743
-0.00000000 1.75169990 -4.18461743
0.00000000 0.93766917 -4.43155095
0.00000000 0.93766917 -4.43155095
1.75169990 -0.00000000 -4.18461743
1.75169990 0.00000000 -4.18461743
2.52092500 -0.00000000 -3.77345804
2.52092500 -0.00000000 -3.77345804
0.93766917 -0.00000000 -4.43155095
0.93766917 -0.00000000 -4.43155095
-3.09510696 -0.96021505 1.57404019
-3.00040113 -1.10117193 1.79224642
-1.98463226 -3.54574476 -1.46107893
-1.70598378 -3.60300964 -1.15830737
-6.93107082 1.59854233 -1.05430460
-4.26755505 -0.88856742 0.72558264
-1.73054073 -1.47276238 5.29118590
-3.29797223 0.85490760 2.93204341
-5.46280872 1.59854233 0.15066696
-6.12870205 0.85490760 -0.51721086
-2.01698624 -5.14320814 -1.59162659
-2.01698624 -4.88317085 -1.33158930
-1.56013743 -4.46826923 3.72177607
-1.47715042 -4.88317085 4.14945568
-2.19242641 -3.36193414 -1.59162659
-1.90950149 -4.73863491 -0.09574248
-3.35157436 -0.48039828 1.57404019
-2.80948753 -1.77177855 -0.09574248
4.69834643 2.54303998 1.19873905
4.77799773 2.45773916 1.25574109
-1.11734446 -4.44728708 -8.57388129
-3.04431032 0.00000000 -3.87339490
-3.76058621 -0.00000000 -2.53333697
-3.76058621 -0.00000000 -2.53333697
-1.75169990 -0.00000000 -4.18461743
-1.75169990 -0.00000000 -4.18461743
-0.88114956 0.40954744 -0.51088317
-1.11072140 -0.13734751 0.19626384
5.03867848 7.74282563 2.51622552
4.79298022 6.54726821 3.81528440
4.72872664 6.33545252 3.81528440
3.99295982 4.58268028 1.54891190
3.81622293 0.44333925 -2.59608759
3.92492376 0.98679964 -2.03588989
0.00000000 2.83060203 -3.66652597
0.39671311 3.09774498 -3.26444888
0.39671311 2.33051172 -4.69984137
0.67513151 2.45114768 -4.40557166
3.20064764 -0.00000000 -3.21562409
3.20064764 -0.00000000 -3.21562409
5.31015051 -10.05578811 2.07288627
4.76504955 -7.40334970 -0.80917825
-0.93766917 0.00000000 -4.43155095
-0.93766917 -0.00000000 -4.43155095
-0.00000000 0.00000000 -4.52390330
-0.00000000 -0.00000000 -4.52390330
-0.00000000 -0.93766917 -4.43155095
-0.00000000 -0.93766917 -4.43155095
-0.68557479 1.03413173 3.26290009
-2.00116869 -0.49606264 2.63341592
-1.42622959 2.25588937 3.54045272
-2.00116869 2.88495704 3.65903703
9.87538649 1.18762655 -4.68836630
6.18163087 -2.93736591 -0.98360260
5.73858132 -2.93736591 -0.44374517
3.76058621 0.00000000 2.53333697
4.69834643 -0.52978926 2.84120049
3.95879177 0.33040200 2.48733906
1.82937201 -4.25353639 3.61029931
3.95879177 -1.92363894 3.17109490
-2.21543593 -0.88856742 1.82246316
-0.44193447 -2.41334606 2.55203785
2.76594977 -2.27204212 3.50738402
2.61134254 -2.41334606 3.47823931
-3.02091595 4.57717432 0.15391156
-3.52901432 4.91855446 -0.63264270
4.77799773 4.30510985 -0.26035685
4.09601814 4.91579361 -0.87286057
3.96214087 0.98679964 -1.91320152
3.53457027 0.00000000 -2.95618305
3.76058621 -0.00000000 -2.53333697
3.76058621 -0.00000000 -2.53333697
-2.38229031 -3.02819358 -4.17320062
-3.45479311 -3.24271142 -3.06766724
-2.52092500 -0.00000000 -3.77345804
-2.52092500 -0.00000000 -3.77345804
-3.20064764 -0.00000000 -3.21562409
-3.20064764 0.00000000 -3.21562409
0.15577862 2.23210737 0.19626384
0.60427421 2.89963267 1.22961664
4.43471823 0.00000000 0.90551124
4.43471823 -0.00000000 0.90551124
4.17757012 -0.00000000 1.75321493
4.17757012 0.00000000 1.75321493
0.00000000 3.20064764 -3.21562409
0.00000000 3.20064764 -3.21562409
0.00000000 2.52092500 -3.77345804
-0.00000000 2.52092500 -3.77345804
-0.83544842 2.70800205 -0.63264270
-0.68166834 2.55422197 -0.91952749
3.93744261 -4.67509527 -0.80917825
3.83654554 -4.43473436 -1.11997012
1.51150770 -0.11817077 -0.91952749
1.59850378 -0.24765271 -1.11997012
0.00000000 -3.76058621 -2.53333697
-0.00000000 -3.76058621 -2.53333697
-1.74476038 -2.63117461 1.79224642
-1.26350681 -3.11242818 0.89444273
-0.46177565 -4.00769827 -1.46107893
0.25144216 -4.30708799 -0.53887284
-0.36293115 -3.85151152 0.89444273
0.56296213 -4.47359888 -0.53887284
-0.68557479 -1.10490586 2.11956068
1.31850243 -3.25112851 0.68535317
3.06439112 -3.41534590 0.83558783
1.31850243 -4.97871510 -0.73244050
-2.51358510 4.30600033 0.15391156
-3.08448608 4.54564926 0.89209890
0.61515766 3.41144785 0.75964151
0.73706161 3.38639544 0.89209890
4.09601814 5.39983651 -1.46266855
2.48529075 4.31518754 0.16983754
2.29120548 1.39892184 1.54891190
1.88235028 0.79039593 0.60689226
-2.85947908 -3.32309659 0.01580405
-2.93957427 -3.35671840 0.11936886
3.06439112 -3.87291057 0.27804367
2.58631672 -4.19484147 -0.20649480
2.58631672 -3.91739732 0.31256668
-0.22140340 -2.70083974 3.28013994
-0.22140340 -2.88656693 2.66787945
-2.68768263 -3.37986251 0.12564459
-2.68768263 -3.50632074 -1.15830737
-3.45479311 -3.50632074 -0.39119689
-3.27198855 -3.44822997 0.01580405
-3.64656202 -3.52520833 -0.39119689
2.54986057 5.27033652 1.22961664
1.78927964 4.50975559 2.64852013
2.19863836 4.82711606 2.84193559
2.07369583 4.74316992 2.64852013
-0.16885789 3.56166295 2.84193559
-1.16019370 3.14552675 1.56011691
-0.00000000 -1.75169990 -4.18461743
0.00000000 -1.75169990 -4.18461743
0.00000000 -2.52092500 -3.77345804
-0.00000000 -2.52092500 -3.77345804
2.48529075 3.80461613 1.12504948
1.24679777 3.26798926 2.43405412
0.22035885 -1.23474650 0.60689226
0.40572906 -1.04937629 0.26107444
-1.45633080 -2.56390825 0.11936886
-1.36479183 -2.50240523 0.26107444
1.24679777 3.22410659 2.57871591
0.97249438 3.16924149 2.86146721
0.92109493 3.38131566 0.75964151
0.97249438 3.38131566 0.70824207
0.67513151 3.03933573 -2.46657548
0.92109493 3.08853238 -2.21303697
-0.62498749 3.30787978 1.56011691
-1.40898991 3.14675993 0.70824207
3 357 385 388
3 490 534 618
3 754 223 527
3 754 388 385
3 488 75 490
3 488 527 75
3 133 490 75
3 133 75 527
3 133 527 223
3 133 754 385
3 133 223 754
3 246 618 534
3 246 490 618
3 246 872 490
3 246 477 872
3 246 443 477
3 246 667 443
3 751 667 534
3 755 357 388
3 755 751 357
3 755 388 754
3 60 754 527
3 60 527 547
3 60 755 754
3 302 477 443
3 302 547 477
3 302 60 547
3 427 872 477
3 427 527 488
3 427 488 490
3 427 490 872
3 427 477 547
3 427 547 527
3 627 534 490
3 627 490 133
3 627 385 534
3 627 133 385
3 250 534 667
3 250 246 534
3 250 667 246
3 744 751 534
3 744 357 751
3 744 534 385
3 744 385 357
3 424 667 751
3 424 443 667
3 210 302 443
3 210 443 424
3 426 424 751
3 426 643 792
3 426 751 643
3 660 792 210
3 660 210 424
3 660 426 792
3 660 424 426
3 5 755 60
3 5 210 792
3 448 302 210
3 448 210 5
3 448 60 302
3 448 5 60
3 484 755 5
3 484 5 792
3 484 751 755
3 484 643 751
3 484 792 643
