ply
format ascii 1.0
element vertex 970
property float x
property float y
property float z
element face 60
property list uchar int vertex_indices
end_header
4.09114079 -3.56634755 -4.07869623
-6.33054679 -2.80762844 -1.67569302
-6.54424924 -0.84428682 -0.76244361
-6.04679800 -3.03304555 -1.47962421
-3.64654731 -1.14927879 -2.58010356
-3.62374076 -1.24052561 -2.55260634
6.41332487 -2.86320746 -1.84406608
6.75724412 -4.33415710 -2.83008485
2.98657617 -2.98657617 -1.82262207
-2.25115737 -1.23135166 -3.83457320
-1.78950369 -3.76158314 -11.30557593
-2.59942984 -5.87166825 -9.41936228
3.61114742 -1.14416241 -2.62422588
3.06949558 -2.22184029 -2.61557427
2.22184029 -3.06949558 -2.61557427
3.06754836 -2.29944996 -2.54453509
3.09489113 -2.23807023 -2.57649227
2.29944996 -3.06754836 -2.54453509
2.23807023 -3.09489113 -2.57649227
3.57939527 4.42444787 6.31867691
-1.24923568 2.22087199 -3.84819969
-1.23641775 1.23641775 -4.27147224
2.78883845 -3.02665552 1.19404844
-2.16709174 -1.22818307 -3.87996103
-2.22087199 -1.24923568 -3.84819969
-0.42293790 -3.01867787 -5.23341593
-3.09489113 -2.23807023 -2.57649227
-3.12694795 -2.21553640 -2.55260634
-3.66298121 -2.10286220 -1.82535998
-0.65881488 -2.93491700 -4.39595395
-1.80125363 -0.18849567 -6.69532404
-1.09039813 -0.94398724 -7.42530136
-2.97690835 0.09047611 1.05061986
-3.86219258 4.59527767 6.39514028
-1.87500784 -1.08377005 6.39514028
2.87096145 -1.47559581 3.82549969
0.61972271 3.95937529 3.82549969
-3.48293446 -2.45186912 0.71435360
-1.35773935 -1.61994828 1.96944328
1.97293009 -4.74014230 -0.75605595
-7.45955174 2.86826273 -1.67569302
-9.21451411 -2.52110904 -4.85422649
-4.27259294 -1.79436166 1.30777830
-2.42521353 -0.47372640 5.27692548
-3.61114742 -1.14416241 -2.62422588
-2.35632995 -2.26840536 -3.24144299
-3.06949558 -2.22184029 -2.61557427
-2.98940550 -1.32094083 -3.24144299
-3.04045326 -4.93951162 -1.38101987
-2.02969297 -1.64787922 1.25397635
4.47992994 -4.22502428 1.86724509
-3.60757767 -7.40231048 4.84771248
-1.13257073 -1.37343066 3.33939671
6.11463375 -4.02120118 -1.02820976
2.93164061 1.74988588 4.50214144
5.48006772 -7.22046327 -4.34089063
6.55882287 -4.31269309 -2.67196600
3.09489113 -2.23807023 2.57649227
3.12694795 -2.21553640 2.55260634
0.44644653 -5.08562703 -0.25480424
7.50871405 1.97664049 -0.25480424
8.16377725 -5.74069023 -4.57381781
2.85426573 8.33968488 5.05372816
1.56348446 3.93541592 -10.23376936
0.64798056 0.01802984 -5.45495561
-0.08188123 -0.79114081 -6.13942304
2.21553640 -3.12694795 -2.55260634
1.56790834 4.02975713 -10.32869958
3.64654731 -1.14927879 -2.58010356
3.65093695 -1.14450893 -2.57567532
1.52120260 3.91699949 -10.32869958
-0.49008341 0.90251431 -10.35617646
0.47303280 -4.13692918 5.14035148
10.00933823 -4.13692918 -4.39595395
-3.65093695 -1.14450893 -2.57567532
-3.82575538 -0.04074881 -2.57567532
-4.08749742 -1.06795476 -1.83298496
-4.23910270 -0.12249533 -1.78222234
-3.37234938 -5.89525792 -6.88015000
-1.37670514 2.19202218 -3.80634252
-0.81947663 -0.32880778 -8.88945544
-2.56180697 -0.07199160 -3.83457320
-2.96961327 -1.20135582 -3.31553423
-3.25514184 -0.05089317 -3.26901214
-3.01422646 -1.21172995 -3.27722762
-3.02611582 -1.20228475 -3.26901214
-3.61114742 1.14416241 -2.62422588
-3.65093695 1.14450893 -2.57567532
-3.64654731 1.14927879 -2.58010356
-0.56427415 -0.67712770 -10.14163566
-2.20744720 -2.42818381 -2.17179468
-1.97555993 -3.46502831 5.39810029
-3.00767327 -4.43689458 -2.79029270
2.35632995 -2.26840536 -3.24144299
2.98940550 -1.32094083 -3.24144299
2.19202218 -1.37670514 -3.80634252
2.22087199 -1.24923568 -3.84819969
2.25115737 -1.23135166 -3.83457320
1.77445671 -0.12038034 -4.24849036
2.16709174 -1.22818307 -3.87996103
3.60982514 5.08417621 -6.13942304
2.84800883 3.55762842 -5.52929510
1.96101467 0.97621035 0.02426814
1.84278713 1.91411345 -6.95762453
1.71549482 3.89493996 -9.68195944
-2.22184029 3.06949558 -2.61557427
-1.32094083 2.98940550 -3.24144299
-2.26840536 2.35632995 -3.24144299
-1.21172995 3.01422646 -3.27722762
-1.22818307 2.16709174 -3.87996103
-1.19952116 1.32746194 -4.24849036
-0.12038034 1.77445671 -4.24849036
-0.92061854 0.25743949 -4.49027781
-1.17729525 1.17729525 -4.29683562
-0.25743949 0.92061854 -4.49027781
0.25743949 0.92061854 -4.49027781
1.70320980 2.77579403 -3.75656921
3.62374076 1.24052561 -2.55260634
2.22184029 3.06949558 -2.61557427
2.29944996 3.06754836 -2.54453509
2.23807023 3.09489113 -2.57649227
0.92061854 0.25743949 -4.49027781
1.17729525 1.17729525 -4.29683562
1.77445671 0.12038034 -4.24849036
3.25514184 -0.05089317 -3.26901214
2.96961327 -1.20135582 -3.31553423
2.56180697 -0.07199160 -3.83457320
3.02611582 -1.20228475 -3.26901214
3.01422646 -1.21172995 -3.27722762
3.01422646 1.21172995 -3.27722762
1.67350499 -0.06797069 -1.22510855
5.03350662 1.19135071 -2.18587776
2.71629006 -5.37422107 -7.52047209
0.42025501 0.50600445 -8.31230658
0.51550216 -1.52518399 -10.35617646
0.37556546 1.31518550 -7.52047209
0.80184256 0.61823198 -6.91477075
-2.22184029 -3.06949558 -2.61557427
-1.14416241 -3.61114742 -2.62422588
0.16650615 -2.18795411 -8.94621602
-0.04074881 -3.82575538 -2.57567532
-1.77445671 -0.12038034 -4.24849036
-1.32746194 -1.19952116 -4.24849036
0.92061854 -0.25743949 -4.49027781
0.25743949 -0.92061854 -4.49027781
-1.22818307 -2.16709174 -3.87996103
-2.19202218 -1.37670514 -3.80634252
-0.61205811 -2.81743445 -5.26511011
-0.65745302 -3.35634881 0.27983904
-0.68385668 -2.32211845 -6.37232826
-0.17688602 -2.50865599 -7.21004905
-0.02820594 -3.17657912 -6.37232826
-6.49691681 -3.13771389 -1.86611356
-3.94657626 3.92510828 1.37985425
-2.00383468 -3.32530198 1.37985425
-0.71014380 -0.05737064 2.37023225
-1.38617912 -6.66183896 -4.13656357
-1.65845254 -5.10916296 -1.49510245
2.26719344 -5.73092420 -1.49510245
-3.16125476 -3.72615474 -0.09993087
-3.64317270 -7.06051348 -4.25586505
-6.81403119 -3.87895015 -2.87067092
-4.41174582 -4.03580372 -0.76244361
-5.92738295 -4.44061110 -2.56554160
-4.25839380 -2.26329596 1.04573877
-4.47439716 -2.16707315 0.93327726
1.29746348 4.05072687 0.50697379
-5.44847220 4.93884615 0.50697379
0.70861682 5.85052175 -4.78536336
-5.17708489 -3.86960472 0.42068509
-7.61578570 0.55310781 -2.30268252
-8.15386144 2.20550232 -3.27722862
-7.26963003 2.29334987 -2.30268252
-2.62133088 0.26101899 4.90332185
-2.51668500 -0.53384532 4.90332185
-2.72875236 -0.46446233 4.27973305
-2.51979653 1.54622035 -6.69532404
-2.45173752 0.09483113 -5.23487328
-3.72910027 3.32185522 -4.74282017
-4.73592744 3.65126321 -1.78222234
-1.85532428 -0.90979267 -6.04804320
-2.48948320 0.08372987 -5.09663254
-1.82433606 -1.00377082 -6.04174668
-3.11180954 0.36823216 0.20285365
-4.14618602 5.63169514 -6.04174668
-3.48930984 3.31453677 -5.53058497
-3.34884926 -2.37047832 2.00133039
-3.24166689 -3.28002286 1.04573877
-3.62357867 -2.11114461 1.87881814
-3.82563777 -1.96911039 1.72826144
-0.34612539 -3.10436809 6.33352577
-1.81069695 -0.57639166 6.71640296
-2.44858482 -0.14653040 5.57950480
-2.44830185 -0.14644718 5.58054116
-3.38849145 1.73752977 6.33352577
5.29877351 4.77492688 -0.15437841
2.65793162 -5.08082922 -0.15437841
8.76554760 -4.82583366 -4.56674487
3.06754836 -2.29944996 2.54453509
3.06949558 -2.22184029 2.61557427
-0.29061407 5.73884367 2.97126542
2.16936591 -1.20188333 0.66231512
-3.09117463 -1.02230760 2.97126542
1.63834508 -4.29388781 6.56679099
1.31834639 -3.78721200 7.04066992
1.15395069 -3.17957492 6.88052751
3.58614687 -4.93115853 0.83923624
5.08172865 -7.26395370 0.85621404
6.05312114 -3.45172643 -1.90010220
4.43293220 -3.16761411 0.85621404
-2.93764995 0.71047731 0.96172029
-2.39839442 1.00991702 1.06350539
3.56954309 2.61576096 2.63198274
-1.38715839 5.13858129 -0.25962568
-3.80074844 4.59232024 -1.05217673
2.22184029 3.06949558 2.61557427
1.24052561 3.62374076 2.55260634
8.28887894 2.92832222 -0.80925551
-0.40799423 0.76730185 -10.17448270
-3.49514847 -1.54520504 -12.19967350
-3.51922118 -1.61062970 -12.09156547
-3.60541679 -1.62981689 -12.19967350
3.12694795 -2.21553640 -2.55260634
3.62374076 -1.24052561 -2.55260634
3.66298121 -2.10286220 -1.82535998
3.61847971 4.51754773 -4.08618977
0.26206009 -0.79690089 -9.05663661
4.08749742 -1.06795476 -1.83298496
2.67944072 -2.61516154 -4.08618977
3.82575538 -0.04074881 -2.57567532
-3.39675359 -3.20870241 6.24177675
-1.06739479 -0.65727924 9.60432804
-2.20133041 -3.15670764 5.02540349
-4.25053536 0.03565569 -1.78222234
-3.82575538 0.04074881 -2.57567532
-4.08749742 1.06795476 -1.83298496
-5.10603033 -6.46247379 -1.78222234
-0.51016102 0.81448025 -8.58814253
-2.19202218 1.37670514 -3.80634252
-2.29537682 2.29537682 -3.27334824
-2.26764721 2.26764721 -3.30772570
-2.22087199 1.24923568 -3.84819969
-2.25115737 1.23135166 -3.83457320
-1.98630349 -1.77223560 -0.42413203
0.65292633 -0.74691873 8.37758021
7.09344422 6.09801248 1.76381410
3.66298121 -2.10286220 1.82535998
3.62374076 -1.24052561 2.55260634
4.08749742 -1.06795476 1.83298496
3.11922229 2.73267506 0.47718026
3.33724432 3.50668972 0.29090366
4.53791476 9.61634570 -6.95762453
2.92646791 3.93189912 -5.70364403
2.09653129 1.76968112 -7.63645948
2.08051529 -2.98876270 -6.85987752
1.63921160 -1.94413530 -7.92665182
2.03969881 -2.98751697 -6.99396870
-1.23135166 2.25115737 -3.83457320
-0.07199160 2.56180697 -3.83457320
-1.20135582 2.96961327 -3.31553423
-1.14416241 3.61114742 -2.62422588
-1.20228475 3.02611582 -3.26901214
-0.05089317 3.25514184 -3.26901214
1.14416241 3.61114742 -2.62422588
1.14927879 3.64654731 -2.58010356
-0.03565569 4.25053536 -1.78222234
-0.04074881 3.82575538 -2.57567532
0.93193411 3.50150108 -3.01134084
2.21553640 3.12694795 -2.55260634
1.24052561 3.62374076 -2.55260634
2.10286220 3.66298121 -1.82535998
-0.04700872 0.43161805 -9.90118318
3.66298121 2.10286220 -1.82535998
3.06754836 2.29944996 -2.54453509
2.98657617 2.98657617 -1.82262207
3.12694795 2.21553640 -2.55260634
3.09489113 2.23807023 -2.57649227
2.98940550 1.32094083 -3.24144299
2.35632995 2.26840536 -3.24144299
3.06949558 2.22184029 -2.61557427
2.56180697 0.07199160 -3.83457320
2.25115737 1.23135166 -3.83457320
2.96961327 1.20135582 -3.31553423
3.64654731 1.14927879 -2.58010356
3.65093695 1.14450893 -2.57567532
2.26764721 2.26764721 -3.30772570
2.29537682 2.29537682 -3.27334824
2.26840536 2.35632995 -3.24144299
1.32094083 2.98940550 -3.24144299
1.23135166 2.25115737 -3.83457320
0.12038034 1.77445671 -4.24849036
2.22087199 1.24923568 -3.84819969
2.19202218 1.37670514 -3.80634252
2.16709174 1.22818307 -3.87996103
1.23641775 1.23641775 -4.27147224
1.32746194 1.19952116 -4.24849036
1.19952116 1.32746194 -4.24849036
1.22818307 2.16709174 -3.87996103
1.24923568 2.22087199 -3.84819969
1.37670514 2.19202218 -3.80634252
0.95132680 1.14147095 2.53250380
-0.98528034 1.98498565 6.88052751
2.52012130 -4.21159027 3.54306349
2.71658359 -4.90461927 3.69594466
-3.06754836 -2.29944996 -2.54453509
-1.08784651 -3.14866646 -3.54013617
-1.24052561 -3.62374076 -2.55260634
-1.06795476 -4.08749742 -1.83298496
-1.14927879 -3.64654731 -2.58010356
-1.14450893 -3.65093695 -2.57567532
-1.50864764 -2.18255826 -5.70921904
-1.57486509 -2.40770581 -4.88463302
-1.84341945 -2.24345013 -5.11802554
3.89231138 -4.25046915 -5.11802554
-3.66427217 -2.08147601 -3.54013617
-0.36941082 -4.22681812 -0.24462093
-0.40587681 -3.03200368 -4.16985158
-0.79600541 -2.92294255 -4.07869623
-0.97732540 -2.80842719 -4.24827947
1.32094083 -2.98940550 -3.24144299
1.21172995 -3.01422646 -3.27722762
2.26764721 -2.26764721 -3.30772570
2.26840536 -2.35632995 -3.24144299
2.29537682 -2.29537682 -3.27334824
1.37670514 -2.19202218 -3.80634252
1.20228475 -3.02611582 -3.26901214
-0.05089317 -3.25514184 -3.26901214
-1.20228475 -3.02611582 -3.26901214
-0.92061854 -0.25743949 -4.49027781
-1.19952116 -1.32746194 -4.24849036
-1.17729525 -1.17729525 -4.29683562
-1.23641775 -1.23641775 -4.27147224
-0.25743949 -0.92061854 -4.49027781
-0.12038034 -1.77445671 -4.24849036
-2.26764721 -2.26764721 -3.30772570
-2.29537682 -2.29537682 -3.27334824
-2.26840536 -2.35632995 -3.24144299
-1.32094083 -2.98940550 -3.24144299
-1.21172995 -3.01422646 -3.27722762
-1.24923568 -2.22087199 -3.84819969
-1.37670514 -2.19202218 -3.80634252
1.91091405 -4.79355146 -6.69477485
-2.34843796 -0.53419946 -6.69477485
-0.71100536 -3.15611886 -1.34408142
-1.89766111 -1.86280305 -0.04096168
-3.45744895 2.02336539 -5.87186267
0.03493469 -3.53473134 -5.87186267
-1.99105831 -1.60425291 -6.55986957
2.61659781 -4.49943514 -6.55986957
-0.60503159 -3.20637272 -1.72605902
0.70275399 -4.18205168 -4.58806406
8.96599819 -4.18205168 3.67518013
-0.27799624 -3.14050365 3.67518013
0.36205581 -4.83475485 -1.67228117
0.31732089 -3.36900766 3.14302373
-1.12261501 -2.94210625 2.88748388
-0.03176608 -3.63104824 1.86724509
-4.86035660 10.45389932 4.94992987
-2.39837402 1.63085957 3.09447793
0.79592911 -1.73341786 1.01964397
0.62615427 3.24001256 3.20257624
-5.76598645 0.59230118 3.20257624
7.51194774 3.68200288 5.05372816
1.05155721 1.87929435 3.69513244
-0.81112853 0.01660861 2.89604585
4.12267390 -1.09969580 0.88191300
3.92555841 -5.82097683 -2.52891409
-3.49597705 -3.14110718 0.88191300
-1.23284801 -6.32315501 -2.09896651
-3.48799687 -3.80066687 -0.48490219
-2.95937922 -3.77661224 -0.03909568
-3.55706685 -3.47207518 -0.03909568
0.78904895 3.21514959 3.87241923
-0.38655345 3.66638785 2.82154347
-1.57376483 4.92719578 -7.18122508
-1.55254511 2.73921818 5.78627091
-1.93960578 4.05527253 0.96632043
-0.11592404 6.17579926 -2.51498624
-2.16847878 3.65653788 1.75433625
-2.98657617 2.98657617 1.82262207
-3.77947530 0.19730415 2.44054249
-3.06754836 2.29944996 2.54453509
-3.09489113 2.23807023 2.57649227
-2.29944996 3.06754836 2.54453509
-3.06949558 2.22184029 2.61557427
-8.24122061 4.61610348 -3.47921993
-5.22785118 3.91538985 -0.89182485
-3.78459164 10.26565428 -2.97258706
-7.93496442 -1.40922474 -0.25962568
-8.54230855 5.74592542 -4.26401421
-2.84295588 4.84148333 0.42068509
-7.08754885 2.33498104 -1.48911128
-6.08551881 3.28913568 -1.21823794
-9.43710032 1.80607722 -2.97258706
-0.81218510 -3.75811991 8.96619075
-2.91049839 -6.47503554 5.15529470
-0.83597143 -0.54637810 5.15529470
-2.41511136 -4.28255621 4.25275017
-2.28786574 -4.27867265 4.67078030
-3.14546003 7.27229015 5.77971640
-3.14546003 -0.15469644 -1.64727020
-2.20931884 -1.03619270 5.77971640
-3.34177753 1.06528444 0.40852938
-2.22081734 0.00975753 -8.48474056
-3.66298121 -2.10286220 1.82535998
-2.50225946 -0.12315170 5.45899579
-1.53954628 -1.14631561 6.44760570
-2.44296893 -0.26629170 5.45899579
-3.66009673 -2.03947387 1.87881814
-2.26109175 -0.93854359 5.28182419
-4.08749742 -1.06795476 1.83298496
-3.73756748 -1.72952090 1.97222246
-4.39621889 -1.01381813 1.30777830
-1.42511181 -1.78505251 5.33617343
-1.98799017 -1.00961924 5.89186405
-0.83739505 -1.84482339 6.71640296
-1.58998401 -1.56791171 5.47282128
-2.31946159 -0.78399032 5.61515588
-1.67657239 -1.62935091 5.08582700
-0.84351846 -1.68403839 3.53545239
-7.93891921 -3.07096893 4.84771248
-1.93117591 -1.39456717 3.58430675
2.98657617 -2.98657617 1.82262207
-0.77168616 0.77168616 12.56704539
2.29944996 -3.06754836 2.54453509
0.94055615 -0.14235770 8.66271361
4.67657713 4.72651964 8.66271361
3.61114742 -1.14416241 2.62422588
3.64654731 -1.14927879 2.58010356
3.65093695 -1.14450893 2.57567532
3.82575538 -0.04074881 2.57567532
4.69198130 3.13095569 -1.02820976
-0.25735201 2.87481035 4.86900995
1.00462453 4.42130002 2.48920948
8.32605144 2.76991428 -5.03346095
0.06721310 1.57625677 5.26032903
2.88037769 -1.40269579 1.19862250
1.95336559 7.18131052 -0.99292314
7.41605003 3.53126147 -0.99292314
7.89666575 3.42202929 -1.15040431
-2.21538044 -4.35134447 3.41666402
4.67522323 -1.49716298 3.41666402
9.77351365 -4.98548079 5.11543543
2.39345006 0.52849293 3.30164047
1.04868040 -2.55090177 3.28063595
-0.75483839 -0.74738298 2.50693181
-0.44467433 -6.32334545 3.30164047
3.48325942 -11.27573502 5.11543543
3.87395105 6.91193119 -5.48056347
3.97017300 2.50737088 2.52639696
2.30377130 2.34684068 1.02235758
-6.29507536 5.45182998 -2.92954420
-6.52346016 -0.01840886 1.02235758
0.66226054 4.44535094 -0.80925551
7.90388668 6.80347020 -5.08020804
-0.89025589 5.69796505 -2.03594697
7.22802172 2.12720466 0.74827453
4.22901117 4.88715280 -2.03594697
2.10286220 -3.66298121 -1.82535998
0.34115428 0.24782899 -10.33832427
-7.08676711 -6.74123476 -3.16125656
1.24052561 -3.62374076 -2.55260634
1.06795476 -4.08749742 -1.83298496
0.97966892 -2.84150168 -4.18582423
4.86724197 -1.78972208 -3.16125656
-4.67936114 -3.80573460 -7.55946554
4.08749742 1.06795476 -1.83298496
2.20069784 -2.17709825 -6.16220985
3.82575538 0.04074881 -2.57567532
-0.10568627 0.77084398 -9.75105959
2.31777506 -3.06638800 -6.16220985
-3.46801394 -2.96640836 7.12916056
5.52211271 -6.57652468 -3.77577503
3.06237614 -2.72768839 2.14731985
1.97400153 -4.27601952 0.99363943
6.33556180 -6.64884040 -4.34089063
5.64766151 -8.56368244 -6.15694036
4.22937643 -7.12752474 -3.65076647
6.01345545 -4.88177564 -2.09896651
-2.23232506 -4.17225247 1.68911328
-3.09504859 -3.02417083 6.50397949
-4.29613314 -4.15125622 1.03730552
-8.90389577 -5.05677437 6.50397949
-2.74814798 -4.98503231 -8.88945544
-2.46994464 -3.79285628 -7.43384965
-2.44592413 -3.74472335 -7.41461197
4.28463989 3.85526473 -9.35666446
0.91960800 0.13937786 -10.27391832
4.66440355 5.19392884 -6.84977359
3.80079578 4.53716284 -6.30901911
-1.77445671 0.12038034 -4.24849036
-1.32746194 1.19952116 -4.24849036
-2.16709174 1.22818307 -3.87996103
-2.56180697 0.07199160 -3.83457320
-3.25514184 0.05089317 -3.26901214
-2.96961327 1.20135582 -3.31553423
-3.02611582 1.20228475 -3.26901214
-3.01422646 1.21172995 -3.27722762
-3.06949558 2.22184029 -2.61557427
-2.98940550 1.32094083 -3.24144299
-2.35632995 2.26840536 -3.24144299
0.26824251 -0.26824251 11.12776011
1.37522566 3.13978215 -0.13736953
-0.67892103 -0.14939573 -6.84977359
-0.79817771 0.36059148 -1.25489844
1.24339983 2.12680210 -7.41461197
0.02397912 0.77487566 -6.27103412
2.93164061 5.39484773 8.14710330
2.47220812 1.31727163 8.14710330
4.25053536 -0.03565569 1.78222234
0.04074881 3.82575538 -2.57567532
1.06795476 4.08749742 -1.83298496
1.14450893 3.65093695 -2.57567532
0.05089317 3.25514184 -3.26901214
0.07199160 2.56180697 -3.83457320
1.20135582 2.96961327 -3.31553423
1.20228475 3.02611582 -3.26901214
1.21172995 3.01422646 -3.27722762
-1.14927879 3.64654731 -2.58010356
-1.14450893 3.65093695 -2.57567532
-1.06795476 4.08749742 -1.83298496
-5.25844771 4.09349193 -3.37999141
-2.01637871 4.57098144 -7.94890594
3.25514184 0.05089317 -3.26901214
3.02611582 1.20228475 -3.26901214
3.61114742 1.14416241 -2.62422588
-2.51877993 3.61477682 8.45527783
-1.54491269 1.56783266 9.42069258
-0.17564907 4.67029012 3.35480290
-0.89977718 6.26677549 2.54453509
-1.29172937 4.90489023 4.86900995
0.16216673 3.88289721 3.78569421
2.29944996 3.06754836 2.54453509
2.23807023 3.09489113 2.57649227
2.21553640 3.12694795 2.55260634
2.10286220 3.66298121 1.82535998
-0.56251775 3.40480779 5.55139429
1.69286812 -1.16722873 -7.62838056
-1.90168737 4.55347356 -7.62838056
0.08744772 2.83263198 -1.62689297
-1.79164396 4.98614709 1.13284424
-1.62089648 4.43128152 4.09385192
2.97120084 -3.78322440 -2.90972091
1.89841469 -2.77305949 5.60135460
1.70609391 -0.06938180 -1.37127457
-0.00379819 3.03229660 -0.78515073
1.30135329 -0.21945234 4.09385192
0.69288576 1.01034887 3.54306349
0.66431636 1.05705920 3.58365803
-2.98657617 -2.98657617 -1.82262207
-1.63308454 -1.63308454 -5.69209305
1.60235461 -6.09029480 -2.49796921
-2.10286220 -3.66298121 -1.82535998
-2.29944996 -3.06754836 -2.54453509
-4.97474520 -1.04350861 -2.49796921
-1.63799438 -2.63102252 -4.07170461
-2.23807023 -3.09489113 -2.57649227
-2.21553640 -3.12694795 -2.55260634
1.20135582 -2.96961327 -3.31553423
1.14416241 -3.61114742 -2.62422588
1.14927879 -3.64654731 -2.58010356
1.14450893 -3.65093695 -2.57567532
0.04074881 -3.82575538 -2.57567532
0.05089317 -3.25514184 -3.26901214
-0.07199160 -2.56180697 -3.83457320
-1.23135166 -2.25115737 -3.83457320
-1.20135582 -2.96961327 -3.31553423
-0.98986614 -2.91298917 1.27039222
1.13913271 -4.24258461 5.61515588
-0.68670579 -3.21039749 0.76467143
0.22162779 -3.30579001 3.24175830
2.56988367 1.65270811 3.81717644
-2.41904767 -0.11550310 2.15752400
-2.28997027 3.66572552 3.81717644
-3.16819370 -2.02924465 1.02731376
-4.17132255 -0.33051345 1.79163456
-2.66663099 -4.15072985 -0.30024705
-5.30842381 -3.63902809 -1.23180002
-6.09592243 -1.85935056 -0.30024705
1.93375091 -1.96636295 1.79163456
2.36109133 -5.10532132 -0.71468160
-4.01336747 -4.11382990 -0.94157242
-3.96238211 -3.84750425 -0.71468160
-3.95391566 -3.85816158 -0.72204575
1.55900975 2.68240483 4.74683477
-3.17478338 4.33883068 4.74683477
0.58021212 3.60089844 0.29188824
0.54601828 3.60247061 0.63918489
-0.18405302 3.43683652 -3.65989704
-1.48897259 4.82264951 7.33461382
-2.10286220 3.66298121 1.82535998
-1.14706025 4.09243684 1.76381410
-2.09431921 3.70006933 1.76381410
-2.11205282 3.68338345 1.78094882
-1.06769330 4.11466503 1.78222234
-1.06978609 4.11334329 1.78417966
4.06355294 6.17418756 0.90548901
-1.04371142 4.38707846 0.90548901
3.00753337 5.18322965 5.71190726
2.90741816 3.73134742 -7.06471618
5.23243676 6.41885574 1.04385723
-3.12694795 2.21553640 2.55260634
-3.38078511 -1.36735448 3.57182184
0.52304252 -1.64396275 10.94349950
0.76456028 3.03353152 7.83228842
0.47968145 9.29394514 2.55260634
-1.53126756 1.24833273 4.97715144
-4.04576189 -1.48396317 2.44054249
2.87242698 2.89396521 8.58845521
2.39300011 2.26354773 8.19371457
-0.63979642 -1.25990830 6.91096429
-2.68840281 -2.81785519 8.19371457
0.43954457 -0.86439965 1.81034235
1.81363064 5.41758913 0.96071430
5.66666707 6.31355467 -2.34765122
1.29576205 7.69618315 0.21409778
0.75790027 6.51849777 1.19862250
3.59707152 4.25203014 0.21409778
3.16494706 4.44324310 0.44028866
0.81815214 1.45430087 1.61998761
8.23797129 -0.53383368 1.61998761
8.04600012 4.06423119 -1.70182361
-0.75527962 4.03183365 -2.36066120
-3.62007029 5.18167203 -6.65906232
0.47722603 2.60717012 -6.65906232
1.68178866 2.60730966 4.85353823
1.68392641 2.61457830 4.82691740
1.23762645 3.63922872 2.52639696
1.83778238 3.07453130 3.10628459
3.07294233 -3.79431314 -1.88765670
-1.47755347 -4.39339728 -1.88765670
-1.08034479 -3.17933900 -5.45762226
-2.07576515 -3.08275079 -6.14576279
-1.06556262 -2.69499893 -7.04878692
-3.04533429 -4.11242460 2.02327591
2.10286220 -3.66298121 1.82535998
0.17197976 0.62337899 11.15581312
-3.34634816 -2.68707852 7.75630519
3.08907966 -3.70785883 0.99363943
-4.09126738 -2.99563416 7.75630519
1.84213457 -6.05667871 -2.36771123
4.88110858 -3.25995274 0.45361156
1.37845157 -6.13011888 -2.36771123
-3.70583302 -3.95407124 2.95566974
1.80997463 -6.24007514 -2.67971099
-2.09140291 -3.74152748 2.95566974
1.47341305 -1.49011457 6.28973683
-2.23807023 3.09489113 -2.57649227
-2.29944996 3.06754836 -2.54453509
4.22014876 3.67999111 -9.64628743
4.51555917 3.90666749 -9.64628743
-1.02515489 1.27058194 -7.03308127
-3.09489113 2.23807023 -2.57649227
-3.06754836 2.29944996 -2.54453509
-2.98657617 2.98657617 -1.82262207
1.98536096 0.15502843 12.25910004
-0.56107083 -0.95410341 6.54191274
-1.00541716 -0.82341808 4.91452758
2.17104556 3.37317983 6.58241990
1.55817714 -1.06403580 10.27576369
4.39000949 -0.97760767 0.97256579
4.37668654 4.91469295 7.86341300
4.09243684 -1.14706025 1.76381410
3.56881212 5.15229440 10.82219254
4.11334329 -1.06978609 1.78417966
4.11466503 -1.06769330 1.78222234
-0.97660374 4.40615429 -0.91971640
5.42112027 6.24940980 -2.00224050
5.76216242 6.31643145 -2.40685471
-1.06769330 4.11466503 -1.78222234
-1.06978609 4.11334329 -1.78417966
-0.97760767 4.39000949 -0.97256579
-0.97712099 4.40595575 -0.92017876
3.33197718 4.94258062 -4.14520763
5.33222236 6.16598892 -2.40685471
0.99449916 3.05080387 -3.79059461
0.55547835 3.32807405 -3.37999141
3.95126431 2.25085356 -3.01134084
1.42507373 2.36931251 -5.55330333
-4.06085201 4.50781340 -4.82643040
1.74687023 2.47560350 -4.82643040
1.50062950 2.62621151 -4.61242999
0.04798597 4.87921163 1.18116339
0.09527989 3.32961856 -3.90959386
1.32458510 1.32458510 -6.57405612
-3.12035341 7.44802757 -2.18587776
-0.59393624 2.71721832 -7.94890594
-1.34028200 2.61015972 -10.17999423
-0.63229757 3.60794650 -5.72053004
-1.03322357 3.59064000 -6.81393158
-1.69381543 3.12191385 -9.76635170
0.12038034 -1.77445671 -4.24849036
0.07199160 -2.56180697 -3.83457320
1.22818307 -2.16709174 -3.87996103
1.24923568 -2.22087199 -3.84819969
1.23135166 -2.25115737 -3.83457320
-0.38425104 -3.48911901 -0.55447432
3.28390747 -4.20998603 3.79744834
-1.34041325 -2.59186623 3.79744834
-2.48204445 -1.56755608 4.37608352
-1.30807217 -2.67216754 3.24175830
-0.44639041 -2.53605186 5.33617343
-1.21144688 -2.36574985 4.37662632
-1.05823012 -3.24577450 1.95390979
-1.77475502 -1.95271235 4.55927635
-1.25257459 -2.42371255 4.11757039
1.84231570 -4.22546851 4.55927635
-0.93825344 -2.83783890 3.44794334
-4.42475997 1.70947583 2.08081528
0.04008011 -2.75536424 2.08081528
-4.83889783 -3.16950211 -0.64971069
-6.50780566 2.30721803 0.96531162
-1.24052561 3.62374076 2.55260634
-2.33222125 3.24221254 2.34977472
-2.21553640 3.12694795 2.55260634
-2.23807023 3.09489113 2.57649227
-6.49074738 6.29330365 -3.65206591
-7.79802927 4.64773353 -2.51498624
-0.03565569 4.25053536 1.78222234
-0.97760767 4.39000949 0.97256579
-0.97660374 4.40615429 0.91971640
-0.97712099 4.40595575 0.92017876
-10.11910567 6.39381847 -4.71117742
-0.39340330 7.93421839 -4.71117742
-1.06795476 4.08749742 1.83298496
2.38817740 1.66005482 3.09134980
-0.47391591 -0.81600084 11.72666956
-6.07600162 -4.54576821 7.31261392
-1.94306459 -2.88693509 1.11145538
-0.16497020 -0.83162100 7.31261392
-2.62351728 -2.87297597 -6.44969076
0.86247316 4.25549926 1.46683791
3.10413059 5.13301000 0.14296836
-3.40382547 4.10986333 3.33939671
3.88801487 -3.64390366 3.53545239
1.56114843 2.09775717 2.08611011
4.01368409 0.03748460 1.91962176
5.56317392 3.99575568 -0.41803898
-1.17603496 4.27373196 3.28840898
-0.11787429 3.05059524 6.97877668
-3.63558461 5.26091914 6.97877668
-4.28652608 6.54424277 6.22428577
-2.40362183 5.11231088 5.04529113
-2.30185114 4.96826616 5.15580978
-2.18197303 5.05332625 4.62003186
-0.23354829 2.49126497 6.22428577
-4.88286675 5.91793908 9.42069258
-0.92346904 3.04385650 6.58331093
-4.44753739 -4.15033843 -2.27959352
-2.95900393 -2.75351395 -9.05457624
-10.48189227 -4.20256571 4.65334461
-3.45192325 -4.20256571 -2.37662441
-2.61754832 -3.31646696 4.65334461
-1.24052561 3.62374076 -2.55260634
-2.21553640 3.12694795 -2.55260634
-2.10286220 3.66298121 -1.82535998
-3.62374076 1.24052561 -2.55260634
-3.12694795 2.21553640 -2.55260634
-3.66298121 2.10286220 -1.82535998
2.64246192 3.03868407 8.68934736
-0.54069663 0.78714544 0.45024760
1.18538293 2.28041229 5.65806137
-1.93380630 -2.68374894 5.65806137
1.94261227 3.74635575 1.01981099
-0.41001108 -0.02075432 8.70755725
5.70972234 6.09897910 8.70755725
6.50159907 7.21955194 3.81070903
4.47128413 4.87269403 10.89149442
-0.87649778 4.51246594 0.07628041
-0.03306179 4.51246594 0.91971640
4.42828430 6.40182016 -1.76381410
3.51767728 4.31117722 -6.45767526
-1.14706025 4.09243684 -1.76381410
-1.40448850 4.56465752 -2.36032912
0.29243586 1.84747763 -7.90542579
-4.12166839 6.26158188 -7.90542579
0.14323577 -1.16008916 -0.64740935
1.93999833 1.71695545 -6.51875065
-2.73380884 -2.95685172 -6.51875065
-2.25324937 -3.06784500 -1.26109300
-7.09424712 -5.01087179 -8.52464294
-0.17052929 -0.66041154 -8.52464294
3.93013353 5.20842957 -0.50834230
1.22111266 4.97848221 1.00776455
3.70018617 2.49940869 1.00776455
2.22065087 2.89237534 2.92570961
-4.62838066 8.14782207 2.92570961
-3.13316671 4.08413821 9.64056068
-0.03306179 4.51246594 -0.91971640
-0.87649778 4.51246594 -0.07628041
-1.07967204 -3.80165236 8.47648011
-2.56578951 -0.37180904 4.85136405
2.79964731 -0.24880548 1.07651151
5.09740734 1.89677272 -0.45896045
-2.58709353 1.63326860 3.85727670
0.51543477 -1.46925970 3.85727670
-0.58266163 1.89677272 2.57709967
-1.43698095 2.63127893 2.92854554
-6.02976112 1.63326860 4.19634986
-4.93779148 2.63127893 3.99050480
1.64422498 -3.35158928 -3.87779433
-0.00000000 -4.06401584 -2.13995797
-1.67714717 0.00731399 -10.27607334
-2.19305898 -2.57203730 -7.61728407
-3.03634916 -4.93786105 -1.42103892
-2.92670362 -4.40433043 -2.00075818
2.55754120 -2.18264605 -0.31034245
2.55754120 -4.52176956 2.02878106
0.00000000 1.78360718 -4.26084042
-0.00000000 1.78360718 -4.26084042
0.00000000 0.95474885 -4.51227184
0.00000000 0.95474885 -4.51227184
1.78360718 -0.00000000 -4.26084042
1.78360718 0.00000000 -4.26084042
2.56684376 -0.00000000 -3.84219174
2.56684376 -0.00000000 -3.84219174
0.95474885 -0.00000000 -4.51227184
0.95474885 -0.00000000 -4.51227184
-1.95342571 -1.88200889 0.70315709
-2.09550364 -1.67054502 0.37580354
0.26678425 -3.62409906 0.13974846
0.49742056 -3.67149698 0.39035135
-4.89355056 0.18299005 -0.00818268
-3.60027437 -1.02463179 0.85604565
-3.82598432 -0.37180904 2.49370538
-4.46658976 0.57950403 1.52952958
-7.64346264 0.18299005 -2.26497720
-7.28840122 0.57950403 -1.90885763
-2.84421338 -2.57203730 -1.00600250
-2.84421338 -3.56679298 -2.00075818
-2.13027707 -3.80165236 5.01309949
-2.17725272 -3.56679298 4.77100700
-3.19671212 1.00694244 -1.00600250
-2.94109328 -0.23688808 0.34550855
-3.15771534 0.37105853 0.70315709
-3.04160647 0.09445950 0.34550855
1.98183879 1.37288510 1.49683992
1.14790166 2.26597182 0.90003712
-4.25302282 0.00731399 -1.78454931
-4.24985374 0.00000000 -1.79227971
-3.82908545 -0.00000000 -2.57948181
-3.82908545 -0.00000000 -2.57948181
-1.78360718 -0.00000000 -4.26084042
-1.78360718 -0.00000000 -4.26084042
-2.07777558 -1.77786744 -1.42103892
-2.35456318 -2.43724159 -0.56845385
3.27834462 2.79667042 2.02878106
3.07507566 1.80757218 3.10350723
3.87440606 4.44261137 3.10350723
3.48535926 3.51580900 1.90513167
1.87534232 -2.18264605 -7.23682388
1.96667882 -1.72600038 -6.76611459
0.00000000 3.82908545 -2.57948181
-0.00000000 3.82908545 -2.57948181
-0.00000000 4.25366475 -1.78514982
-1.19313329 3.73669180 -3.04621228
3.25894757 -0.00000000 -3.27419682
3.25894757 -0.00000000 -3.27419682
2.70462508 -3.67601372 -0.31034245
2.55156495 -2.93122954 -1.11960386
-0.95474885 0.00000000 -4.51227184
-0.95474885 -0.00000000 -4.51227184
-0.00000000 0.00000000 -4.60630640
-0.00000000 -0.00000000 -4.60630640
-0.00000000 -0.95474885 -4.51227184
-0.00000000 -0.95474885 -4.51227184
-1.76492851 1.98221043 3.37245938
-2.76370421 0.82051383 2.89456609
-2.58709353 5.02089403 4.19092868
-2.76370421 5.21413201 4.22735560
9.61000021 -0.24880548 -4.51260067
6.12367795 -4.14214726 -1.01588852
4.82660869 -4.14214726 0.56459495
3.63517256 -2.37283862 2.35782648
1.98183879 -1.70189537 3.14034432
2.16296812 -1.91257062 3.22701091
0.51543477 -6.21288046 4.32448257
2.16296812 -4.41023741 3.98466985
-0.04190290 -1.02463179 2.75803483
1.07132475 -1.98173601 3.21598919
4.78336334 -1.46925970 4.27763098
4.22263911 -1.98173601 4.17192995
-0.67990555 4.25068405 0.55966278
-1.08925016 4.52571371 -0.07401716
1.14790166 4.40903531 -0.85872963
-0.77046737 6.12685333 -2.58166707
2.16110637 -1.72600038 -6.12517285
2.90896540 0.00000000 -4.30090535
3.82908545 -0.00000000 -2.57948181
3.82908545 -0.00000000 -2.57948181
1.64422498 -2.93363669 -5.25559936
0.14798748 -3.23290830 -3.71328125
-2.56684376 -0.00000000 -3.84219174
-2.56684376 -0.00000000 -3.84219174
-3.25894757 -0.00000000 -3.27419682
-3.25894757 0.00000000 -3.27419682
-0.84962018 0.37830873 -0.56845385
-0.56849841 0.79672063 0.07926258
2.02255327 -4.52176956 7.46060466
2.45845490 -6.70110213 5.21415375
4.04540800 -2.37283862 1.59032996
2.17001388 -6.70110213 6.16501635
0.00000000 3.25894757 -3.27419682
0.00000000 3.25894757 -3.27419682
-0.00000000 2.56684376 -3.84219174
-0.00000000 2.56684376 -3.84219174
-1.72792799 5.04986306 -0.07401716
-1.32360548 4.64554054 -0.82830195
1.68300164 -0.06796003 -1.11960386
1.68325818 -0.06857118 -1.11881364
-0.00056441 3.03341035 -0.82830195
0.12552341 2.84574559 -1.11881364
-0.00000000 -3.82908545 -2.57948181
0.00000000 -3.82908545 -2.57948181
-0.00000000 -3.25894757 -3.27419682
-0.00000000 -3.25894757 -3.27419682
-1.03709574 -2.96021877 0.37580354
-0.77610051 -3.22121401 -0.11109672
-0.38817292 -3.42541997 0.13974846
-0.66023174 -3.31121697 -0.21202950
-0.70930952 -3.27602795 -0.11109672
-0.64410896 -3.31983478 -0.21202950
-1.76492851 -1.70758984 1.40022005
-0.61459427 -2.93951512 0.57698930
0.82229230 -4.99025185 -0.87144494
-0.61459427 -6.27692277 -2.16195038
0.54646752 3.59517399 0.55966278
0.58146919 3.58048123 0.51440487
-1.20976316 4.12840459 0.56503634
-1.25636061 4.13798080 0.51440487
-0.77046737 7.15780698 -3.83788773
-2.71670839 5.84722623 -1.86533152
2.47707313 1.62943832 1.90513167
2.02368227 0.95462706 0.86049996
-4.30403268 -4.27956008 -0.36101173
-4.45951179 -4.34482604 -0.15997387
0.82229230 -6.17556927 -2.31575840
1.56751240 -5.67374493 -1.56046215
1.56751240 -3.96941036 1.62812356
0.64983099 -3.57178801 2.59805171
0.64983099 -3.18208581 3.88272771
-0.16472358 -3.34500984 3.04308676
-0.16472358 -3.60628148 0.39035135
0.14798748 -3.60628148 0.07764028
-3.36878984 -3.99585726 -0.36101173
-2.96508706 -3.91289256 0.07764028
1.89295623 3.79601179 0.07926258
1.30597613 3.20903169 1.17430465
6.48368108 7.27157724 3.11648718
5.22906989 6.42863153 1.17430465
5.45003757 6.71908327 3.11648718
3.03980172 5.70733086 -0.00000000
-0.00000000 -1.78360718 -4.26084042
0.00000000 -1.78360718 -4.26084042
0.00000000 -2.56684376 -3.84219174
0.00000000 -2.56684376 -3.84219174
-2.71670839 4.01522761 1.56209682
-1.40426102 4.58389818 0.17492733
0.22284550 -1.23969889 0.86049996
0.51884465 -0.94369973 0.30829806
-2.22482929 -3.15036336 -0.15997387
-1.92233496 -2.94712406 0.30829806
-1.40426102 4.38676381 0.82479225
-2.74847264 4.11789983 2.21040244
-3.31350898 4.33560547 0.56503634
-2.74847264 4.33560547 0.00000000
-1.19313329 4.40611855 -0.83940801
-3.31350898 3.98200925 -3.02508632
-0.87335161 4.52028877 0.00000000
-0.87335161 4.52028877 -0.00000000
3 746 722 750
3 746 357 722
3 780 722 221
3 10 780 221
3 442 655 447
3 442 476 73
3 442 447 476
3 387 722 357
3 387 357 251
3 775 221 722
3 775 722 387
3 775 387 251
3 41 750 722
3 41 780 750
3 41 722 780
3 870 442 73
3 650 870 73
3 650 73 476
3 650 476 10
3 11 10 476
3 11 780 10
3 62 251 357
3 62 357 765
3 663 357 746
3 663 765 357
3 663 746 423
3 482 746 750
3 482 423 746
3 726 447 655
3 726 655 423
3 726 482 447
3 726 423 482
3 67 251 650
3 67 775 251
3 219 10 221
3 219 650 10
3 219 67 650
3 219 221 775
3 219 775 67
3 460 780 11
3 460 750 780
3 460 476 447
3 460 11 476
3 460 482 750
3 460 447 482
3 766 251 62
3 766 62 765
3 767 442 765
3 767 765 663
3 767 655 442
3 767 423 655
3 767 663 423
3 454 442 870
3 454 251 766
3 454 650 251
3 454 870 650
3 362 442 454
3 362 454 766
3 362 765 442
3 362 766 765
