# Asteroid shape model (convexinv -> dual reconstruction)
v -0.86285663 -0.17285382 0.36230444
v -0.80247255 -0.17285382 0.30192037
v -0.80247255 -0.23323790 0.36230444
v -0.80247255 -0.17285382 0.42268851
v -0.80247255 -0.11246975 0.36230444
v -0.74208848 -0.29362197 0.24153629
v -0.68170441 -0.29362197 0.18115222
v -0.68170441 -0.35400604 0.24153629
v -0.68170441 -0.35400604 0.36230444
v -0.74208848 -0.29362197 0.36230444
v -0.68170441 -0.35400604 0.48307259
v -0.74208848 -0.29362197 0.48307259
v -0.68170441 -0.35400604 0.60384073
v -0.74208848 -0.29362197 0.60384073
v -0.68170441 -0.29362197 0.66422481
v -0.74208848 -0.17285382 0.24153629
v -0.68170441 -0.17285382 0.18115222
v -0.74208848 -0.17285382 0.48307259
v -0.74208848 -0.17285382 0.60384073
v -0.68170441 -0.17285382 0.66422481
v -0.74208848 -0.05208568 0.12076815
v -0.68170441 -0.05208568 0.06038407
v -0.68170441 -0.11246975 0.12076815
v -0.74208848 -0.05208568 0.24153629
v -0.74208848 -0.05208568 0.36230444
v -0.74208848 -0.05208568 0.48307259
v -0.74208848 -0.05208568 0.60384073
v -0.68170441 -0.05208568 0.66422481
v -0.74208848 0.06868247 0.12076815
v -0.68170441 0.06868247 0.06038407
v -0.74208848 0.06868247 0.24153629
v -0.74208848 0.06868247 0.36230444
v -0.74208848 0.06868247 0.48307259
v -0.74208848 0.06868247 0.60384073
v -0.68170441 0.06868247 0.66422481
v -0.68170441 0.12906654 0.12076815
v -0.74208848 0.18945062 0.24153629
v -0.68170441 0.18945062 0.18115222
v -0.74208848 0.18945062 0.36230444
v -0.74208848 0.18945062 0.48307259
v -0.74208848 0.18945062 0.60384073
v -0.68170441 0.18945062 0.66422481
v -0.68170441 0.24983469 0.24153629
v -0.74208848 0.31021876 0.36230444
v -0.68170441 0.31021876 0.30192037
v -0.74208848 0.31021876 0.48307259
v -0.68170441 0.31021876 0.54345666
v -0.68170441 0.24983469 0.60384073
v -0.68170441 0.37060284 0.36230444
v -0.68170441 0.37060284 0.48307259
v -0.62132033 -0.41439012 0.24153629
v -0.56093626 -0.41439012 0.18115222
v -0.56093626 -0.47477419 0.24153629
v -0.56093626 -0.47477419 0.36230444
v -0.62132033 -0.41439012 0.36230444
v -0.56093626 -0.47477419 0.48307259
v -0.62132033 -0.41439012 0.48307259
v -0.56093626 -0.47477419 0.60384073
v -0.62132033 -0.41439012 0.60384073
v -0.56093626 -0.41439012 0.66422481
v -0.62132033 -0.29362197 0.12076815
v -0.56093626 -0.29362197 0.06038407
v -0.56093626 -0.35400604 0.12076815
v -0.56093626 -0.29362197 0.66422481
v -0.62132033 -0.17285382 0.12076815
v -0.56093626 -0.17285382 0.06038407
v -0.56093626 -0.23323790 0.72460888
v -0.62132033 -0.17285382 0.72460888
v -0.56093626 -0.17285382 0.78499295
v -0.56093626 -0.05208568 0.06038407
v -0.62132033 -0.05208568 0.72460888
v -0.56093626 -0.05208568 0.78499295
v -0.56093626 0.06868247 0.06038407
v -0.62132033 0.06868247 0.72460888
v -0.56093626 0.06868247 0.78499295
v -0.62132033 0.18945062 0.12076815
v -0.56093626 0.18945062 0.06038407
v -0.62132033 0.18945062 0.72460888
v -0.56093626 0.18945062 0.78499295
v -0.62132033 0.31021876 0.12076815
v -0.56093626 0.31021876 0.06038407
v -0.62132033 0.31021876 0.24153629
v -0.62132033 0.31021876 0.60384073
v -0.62132033 0.31021876 0.72460888
v -0.56093626 0.31021876 0.78499295
v -0.56093626 0.37060284 0.12076815
v -0.56093626 0.37060284 0.24153629
v -0.56093626 0.37060284 0.36230444
v -0.56093626 0.37060284 0.48307259
v -0.56093626 0.37060284 0.60384073
v -0.56093626 0.37060284 0.72460888
v -0.50055219 -0.53515826 0.24153629
v -0.44016811 -0.53515826 0.18115222
v -0.44016811 -0.59554234 0.24153629
v -0.44016811 -0.59554234 0.36230444
v -0.50055219 -0.53515826 0.36230444
v -0.44016811 -0.59554234 0.48307259
v -0.50055219 -0.53515826 0.48307259
v -0.44016811 -0.59554234 0.60384073
v -0.50055219 -0.53515826 0.60384073
v -0.44016811 -0.53515826 0.66422481
v -0.50055219 -0.41439012 0.12076815
v -0.44016811 -0.41439012 0.06038407
v -0.44016811 -0.47477419 0.12076815
v -0.44016811 -0.41439012 0.66422481
v -0.44016811 -0.29362197 0.06038407
v -0.44016811 -0.29362197 0.66422481
v -0.50055219 -0.17285382 0.00000000
v -0.44016811 -0.17285382 -0.06038407
v -0.44016811 -0.23323790 0.00000000
v -0.44016811 -0.23323790 0.72460888
v -0.44016811 -0.17285382 0.78499295
v -0.50055219 -0.05208568 0.00000000
v -0.44016811 -0.05208568 -0.06038407
v -0.44016811 -0.05208568 0.78499295
v -0.50055219 0.06868247 0.00000000
v -0.44016811 0.06868247 -0.06038407
v -0.44016811 0.06868247 0.78499295
v -0.50055219 0.18945062 0.00000000
v -0.44016811 0.18945062 -0.06038407
v -0.44016811 0.18945062 0.78499295
v -0.44016811 0.24983469 0.00000000
v -0.44016811 0.31021876 0.06038407
v -0.44016811 0.31021876 0.78499295
v -0.50055219 0.43098691 0.12076815
v -0.44016811 0.43098691 0.06038407
v -0.50055219 0.43098691 0.24153629
v -0.50055219 0.43098691 0.36230444
v -0.50055219 0.43098691 0.48307259
v -0.44016811 0.43098691 0.54345666
v -0.44016811 0.37060284 0.60384073
v -0.44016811 0.37060284 0.72460888
v -0.44016811 0.49137098 0.12076815
v -0.44016811 0.49137098 0.24153629
v -0.44016811 0.49137098 0.36230444
v -0.44016811 0.49137098 0.48307259
v -0.37978404 -0.53515826 0.12076815
v -0.31939997 -0.53515826 0.06038407
v -0.31939997 -0.59554234 0.12076815
v -0.31939997 -0.53515826 0.18115222
v -0.37978404 -0.53515826 0.24153629
v -0.31939997 -0.53515826 0.30192037
v -0.31939997 -0.59554234 0.36230444
v -0.31939997 -0.59554234 0.48307259
v -0.31939997 -0.59554234 0.60384073
v -0.31939997 -0.53515826 0.66422481
v -0.31939997 -0.41439012 0.06038407
v -0.31939997 -0.47477419 0.24153629
v -0.31939997 -0.41439012 0.66422481
v -0.37978404 -0.29362197 0.00000000
v -0.31939997 -0.29362197 -0.06038407
v -0.31939997 -0.35400604 0.00000000
v -0.31939997 -0.35400604 0.72460888
v -0.37978404 -0.29362197 0.72460888
v -0.31939997 -0.29362197 0.78499295
v -0.31939997 -0.17285382 -0.06038407
v -0.31939997 -0.17285382 0.78499295
v -0.37978404 -0.05208568 -0.12076815
v -0.31939997 -0.05208568 -0.18115222
v -0.31939997 -0.11246975 -0.12076815
v -0.31939997 -0.05208568 0.78499295
v -0.37978404 0.06868247 -0.12076815
v -0.31939997 0.06868247 -0.18115222
v -0.31939997 0.06868247 0.78499295
v -0.31939997 0.12906654 -0.12076815
v -0.31939997 0.18945062 -0.06038407
v -0.31939997 0.18945062 0.78499295
v -0.37978404 0.31021876 0.00000000
v -0.31939997 0.31021876 -0.06038407
v -0.31939997 0.31021876 0.78499295
v -0.31939997 0.37060284 0.00000000
v -0.31939997 0.43098691 0.06038407
v -0.31939997 0.37060284 0.60384073
v -0.31939997 0.43098691 0.54345666
v -0.31939997 0.37060284 0.72460888
v -0.31939997 0.49137098 0.12076815
v -0.31939997 0.49137098 0.24153629
v -0.31939997 0.49137098 0.36230444
v -0.31939997 0.49137098 0.48307259
v -0.19863182 -0.53515826 0.06038407
v -0.19863182 -0.59554234 0.12076815
v -0.19863182 -0.59554234 0.24153629
v -0.25901589 -0.53515826 0.24153629
v -0.19863182 -0.59554234 0.36230444
v -0.19863182 -0.59554234 0.48307259
v -0.19863182 -0.59554234 0.60384073
v -0.19863182 -0.53515826 0.66422481
v -0.19863182 -0.41439012 0.06038407
v -0.19863182 -0.41439012 0.66422481
v -0.19863182 -0.29362197 -0.06038407
v -0.19863182 -0.35400604 0.00000000
v -0.19863182 -0.35400604 0.72460888
v -0.19863182 -0.29362197 0.78499295
v -0.25901589 -0.17285382 -0.72460888
v -0.19863182 -0.17285382 -0.78499295
v -0.19863182 -0.23323790 -0.72460888
v -0.19863182 -0.23323790 -0.60384073
v -0.25901589 -0.17285382 -0.60384073
v -0.19863182 -0.23323790 -0.48307259
v -0.25901589 -0.17285382 -0.48307259
v -0.19863182 -0.23323790 -0.36230444
v -0.25901589 -0.17285382 -0.36230444
v -0.19863182 -0.23323790 -0.24153629
v -0.25901589 -0.17285382 -0.24153629
v -0.19863182 -0.23323790 -0.12076815
v -0.25901589 -0.17285382 -0.12076815
v -0.19863182 -0.17285382 0.78499295
v -0.25901589 -0.05208568 -0.84537703
v -0.19863182 -0.05208568 -0.90576110
v -0.19863182 -0.11246975 -0.84537703
v -0.25901589 -0.05208568 -0.72460888
v -0.25901589 -0.05208568 -0.60384073
v -0.25901589 -0.05208568 -0.48307259
v -0.25901589 -0.05208568 -0.36230444
v -0.25901589 -0.05208568 -0.24153629
v -0.19863182 -0.05208568 0.78499295
v -0.25901589 0.06868247 -0.84537703
v -0.19863182 0.06868247 -0.90576110
v -0.25901589 0.06868247 -0.72460888
v -0.25901589 0.06868247 -0.60384073
v -0.25901589 0.06868247 -0.48307259
v -0.25901589 0.06868247 -0.36230444
v -0.25901589 0.06868247 -0.24153629
v -0.19863182 0.06868247 0.78499295
v -0.25901589 0.18945062 -0.84537703
v -0.19863182 0.18945062 -0.90576110
v -0.25901589 0.18945062 -0.72460888
v -0.25901589 0.18945062 -0.60384073
v -0.25901589 0.18945062 -0.48307259
v -0.25901589 0.18945062 -0.36230444
v -0.25901589 0.18945062 -0.24153629
v -0.25901589 0.18945062 -0.12076815
v -0.19863182 0.12906654 0.84537703
v -0.25901589 0.18945062 0.84537703
v -0.19863182 0.18945062 0.90576110
v -0.19863182 0.24983469 -0.84537703
v -0.25901589 0.31021876 -0.72460888
v -0.19863182 0.31021876 -0.78499295
v -0.25901589 0.31021876 -0.60384073
v -0.25901589 0.31021876 -0.48307259
v -0.25901589 0.31021876 -0.36230444
v -0.25901589 0.31021876 -0.24153629
v -0.25901589 0.31021876 -0.12076815
v -0.19863182 0.24983469 0.84537703
v -0.19863182 0.31021876 0.78499295
v -0.19863182 0.37060284 -0.72460888
v -0.19863182 0.37060284 -0.60384073
v -0.19863182 0.37060284 -0.48307259
v -0.19863182 0.37060284 -0.36230444
v -0.19863182 0.37060284 -0.24153629
v -0.19863182 0.37060284 -0.12076815
v -0.25901589 0.43098691 0.00000000
v -0.19863182 0.43098691 -0.06038407
v -0.25901589 0.43098691 0.60384073
v -0.19863182 0.43098691 0.66422481
v -0.19863182 0.37060284 0.72460888
v -0.19863182 0.49137098 0.00000000
v -0.19863182 0.49137098 0.12076815
v -0.19863182 0.49137098 0.24153629
v -0.19863182 0.49137098 0.36230444
v -0.19863182 0.49137098 0.48307259
v -0.19863182 0.49137098 0.60384073
v -0.13824775 -0.53515826 0.12076815
v -0.07786367 -0.53515826 0.18115222
v -0.07786367 -0.59554234 0.24153629
v -0.07786367 -0.59554234 0.36230444
v -0.07786367 -0.59554234 0.48307259
v -0.07786367 -0.59554234 0.60384073
v -0.07786367 -0.53515826 0.66422481
v -0.07786367 -0.41439012 0.06038407
v -0.07786367 -0.47477419 0.12076815
v -0.07786367 -0.41439012 0.66422481
v -0.13824775 -0.29362197 -0.60384073
v -0.07786367 -0.29362197 -0.66422481
v -0.07786367 -0.35400604 -0.60384073
v -0.07786367 -0.35400604 -0.48307259
v -0.13824775 -0.29362197 -0.48307259
v -0.07786367 -0.35400604 -0.36230444
v -0.13824775 -0.29362197 -0.36230444
v -0.07786367 -0.29362197 -0.30192037
v -0.07786367 -0.29362197 -0.06038407
v -0.07786367 -0.35400604 0.00000000
v -0.07786367 -0.35400604 0.72460888
v -0.07786367 -0.29362197 0.78499295
v -0.13824775 -0.17285382 -0.84537703
v -0.07786367 -0.17285382 -0.90576110
v -0.07786367 -0.23323790 -0.84537703
v -0.07786367 -0.23323790 -0.72460888
v -0.07786367 -0.23323790 -0.24153629
v -0.07786367 -0.23323790 -0.12076815
v -0.07786367 -0.17285382 0.78499295
v -0.07786367 -0.05208568 -0.90576110
v -0.07786367 -0.11246975 0.84537703
v -0.13824775 -0.05208568 0.84537703
v -0.07786367 -0.05208568 0.90576110
v -0.07786367 0.06868247 -0.90576110
v -0.13824775 0.06868247 0.84537703
v -0.07786367 0.06868247 0.90576110
v -0.07786367 0.18945062 -0.90576110
v -0.07786367 0.18945062 0.90576110
v -0.07786367 0.24983469 -0.84537703
v -0.07786367 0.31021876 -0.78499295
v -0.13824775 0.31021876 0.84537703
v -0.07786367 0.31021876 0.90576110
v -0.07786367 0.37060284 -0.72460888
v -0.13824775 0.43098691 -0.60384073
v -0.07786367 0.43098691 -0.66422481
v -0.13824775 0.43098691 -0.48307259
v -0.13824775 0.43098691 -0.36230444
v -0.13824775 0.43098691 -0.24153629
v -0.13824775 0.43098691 -0.12076815
v -0.07786367 0.37060284 0.72460888
v -0.07786367 0.43098691 0.66422481
v -0.07786367 0.37060284 0.84537703
v -0.07786367 0.49137098 -0.60384073
v -0.07786367 0.49137098 -0.48307259
v -0.07786367 0.49137098 -0.36230444
v -0.07786367 0.49137098 -0.24153629
v -0.07786367 0.49137098 -0.12076815
v -0.07786367 0.49137098 0.00000000
v -0.07786367 0.49137098 0.12076815
v -0.07786367 0.49137098 0.24153629
v -0.07786367 0.49137098 0.36230444
v -0.07786367 0.49137098 0.48307259
v -0.07786367 0.49137098 0.60384073
v 0.04290447 -0.53515826 0.18115222
v 0.04290447 -0.59554234 0.24153629
v 0.04290447 -0.59554234 0.36230444
v 0.04290447 -0.59554234 0.48307259
v 0.04290447 -0.59554234 0.60384073
v 0.04290447 -0.53515826 0.66422481
v -0.01747960 -0.41439012 -0.48307259
v 0.04290447 -0.41439012 -0.54345666
v 0.04290447 -0.47477419 -0.48307259
v 0.04290447 -0.41439012 -0.42268851
v 0.04290447 -0.41439012 0.06038407
v 0.04290447 -0.47477419 0.12076815
v 0.04290447 -0.41439012 0.66422481
v -0.01747960 -0.29362197 -0.72460888
v 0.04290447 -0.29362197 -0.78499295
v 0.04290447 -0.35400604 -0.72460888
v 0.04290447 -0.35400604 -0.60384073
v 0.04290447 -0.35400604 -0.36230444
v 0.04290447 -0.35400604 -0.24153629
v -0.01747960 -0.29362197 -0.24153629
v 0.04290447 -0.35400604 -0.12076815
v -0.01747960 -0.29362197 -0.12076815
v 0.04290447 -0.35400604 0.00000000
v 0.04290447 -0.35400604 0.72460888
v 0.04290447 -0.29362197 0.78499295
v 0.04290447 -0.17285382 -0.90576110
v 0.04290447 -0.23323790 -0.84537703
v 0.04290447 -0.17285382 0.78499295
v 0.04290447 -0.05208568 -0.90576110
v 0.04290447 -0.11246975 0.84537703
v 0.04290447 -0.05208568 0.90576110
v 0.04290447 0.06868247 -0.90576110
v 0.04290447 0.06868247 0.90576110
v 0.04290447 0.18945062 -0.90576110
v 0.04290447 0.18945062 0.90576110
v 0.04290447 0.24983469 -0.84537703
v 0.04290447 0.31021876 -0.78499295
v 0.04290447 0.31021876 0.90576110
v 0.04290447 0.37060284 -0.72460888
v -0.01747960 0.43098691 -0.60384073
v 0.04290447 0.37060284 -0.60384073
v 0.04290447 0.43098691 -0.54345666
v 0.04290447 0.37060284 0.72460888
v 0.04290447 0.43098691 0.66422481
v 0.04290447 0.37060284 0.84537703
v 0.04290447 0.49137098 -0.48307259
v -0.01747960 0.55175505 -0.36230444
v 0.04290447 0.55175505 -0.42268851
v 0.04290447 0.55175505 -0.30192037
v 0.04290447 0.49137098 -0.24153629
v 0.04290447 0.49137098 -0.12076815
v 0.04290447 0.49137098 0.00000000
v 0.04290447 0.49137098 0.12076815
v 0.04290447 0.49137098 0.24153629
v 0.04290447 0.49137098 0.36230444
v 0.04290447 0.49137098 0.48307259
v 0.04290447 0.49137098 0.60384073
v 0.04290447 0.61213913 -0.36230444
v 0.16367262 -0.53515826 0.18115222
v 0.16367262 -0.59554234 0.24153629
v 0.16367262 -0.59554234 0.36230444
v 0.16367262 -0.59554234 0.48307259
v 0.10328855 -0.53515826 0.60384073
v 0.16367262 -0.53515826 0.54345666
v 0.16367262 -0.41439012 -0.54345666
v 0.16367262 -0.47477419 -0.48307259
v 0.16367262 -0.47477419 -0.36230444
v 0.10328855 -0.41439012 -0.36230444
v 0.16367262 -0.41439012 -0.30192037
v 0.16367262 -0.41439012 0.06038407
v 0.16367262 -0.47477419 0.12076815
v 0.16367262 -0.47477419 0.60384073
v 0.16367262 -0.41439012 0.66422481
v 0.10328855 -0.29362197 -0.72460888
v 0.16367262 -0.29362197 -0.66422481
v 0.16367262 -0.35400604 -0.60384073
v 0.16367262 -0.35400604 -0.24153629
v 0.16367262 -0.35400604 -0.12076815
v 0.16367262 -0.35400604 0.00000000
v 0.16367262 -0.35400604 0.72460888
v 0.16367262 -0.29362197 0.78499295
v 0.16367262 -0.17285382 -0.90576110
v 0.16367262 -0.23323790 -0.84537703
v 0.16367262 -0.23323790 -0.72460888
v 0.16367262 -0.17285382 0.78499295
v 0.16367262 -0.05208568 -0.90576110
v 0.10328855 -0.05208568 0.84537703
v 0.16367262 -0.05208568 0.78499295
v 0.16367262 0.06868247 -0.90576110
v 0.16367262 0.00829840 0.84537703
v 0.16367262 0.06868247 0.90576110
v 0.16367262 0.18945062 -0.90576110
v 0.16367262 0.18945062 0.90576110
v 0.16367262 0.24983469 -0.84537703
v 0.16367262 0.31021876 -0.78499295
v 0.10328855 0.31021876 0.84537703
v 0.16367262 0.24983469 0.84537703
v 0.16367262 0.31021876 0.78499295
v 0.16367262 0.37060284 -0.72460888
v 0.10328855 0.43098691 -0.60384073
v 0.16367262 0.43098691 -0.66422481
v 0.10328855 0.43098691 0.12076815
v 0.16367262 0.37060284 0.12076815
v 0.16367262 0.43098691 0.06038407
v 0.16367262 0.43098691 0.18115222
v 0.10328855 0.43098691 0.60384073
v 0.16367262 0.37060284 0.60384073
v 0.16367262 0.43098691 0.54345666
v 0.16367262 0.37060284 0.72460888
v 0.16367262 0.49137098 -0.60384073
v 0.10328855 0.55175505 -0.48307259
v 0.16367262 0.55175505 -0.54345666
v 0.16367262 0.49137098 -0.24153629
v 0.16367262 0.55175505 -0.30192037
v 0.16367262 0.49137098 -0.12076815
v 0.16367262 0.49137098 0.00000000
v 0.16367262 0.49137098 0.24153629
v 0.16367262 0.49137098 0.36230444
v 0.16367262 0.49137098 0.48307259
v 0.16367262 0.61213913 -0.48307259
v 0.16367262 0.61213913 -0.36230444
v 0.22405669 -0.53515826 0.24153629
v 0.22405669 -0.53515826 0.36230444
v 0.22405669 -0.53515826 0.48307259
v 0.28444077 -0.41439012 -0.54345666
v 0.28444077 -0.47477419 -0.48307259
v 0.28444077 -0.47477419 -0.36230444
v 0.28444077 -0.41439012 -0.30192037
v 0.22405669 -0.41439012 0.12076815
v 0.28444077 -0.41439012 0.18115222
v 0.28444077 -0.47477419 0.24153629
v 0.28444077 -0.47477419 0.36230444
v 0.28444077 -0.47477419 0.48307259
v 0.28444077 -0.47477419 0.60384073
v 0.28444077 -0.41439012 0.66422481
v 0.28444077 -0.29362197 -0.66422481
v 0.28444077 -0.35400604 -0.60384073
v 0.28444077 -0.35400604 -0.24153629
v 0.28444077 -0.35400604 -0.12076815
v 0.28444077 -0.35400604 0.00000000
v 0.28444077 -0.35400604 0.12076815
v 0.28444077 -0.35400604 0.72460888
v 0.28444077 -0.29362197 0.78499295
v 0.22405669 -0.17285382 -0.84537703
v 0.22405669 -0.17285382 -0.72460888
v 0.28444077 -0.17285382 -0.66422481
v 0.28444077 -0.17285382 0.78499295
v 0.22405669 -0.05208568 -0.84537703
v 0.22405669 -0.05208568 -0.72460888
v 0.28444077 -0.05208568 -0.66422481
v 0.28444077 -0.05208568 0.78499295
v 0.22405669 0.06868247 -0.84537703
v 0.22405669 0.06868247 -0.72460888
v 0.28444077 0.06868247 -0.66422481
v 0.22405669 0.06868247 0.84537703
v 0.28444077 0.06868247 0.78499295
v 0.22405669 0.18945062 -0.84537703
v 0.22405669 0.18945062 -0.72460888
v 0.28444077 0.18945062 -0.66422481
v 0.22405669 0.18945062 0.84537703
v 0.28444077 0.18945062 0.78499295
v 0.22405669 0.31021876 -0.72460888
v 0.28444077 0.31021876 -0.66422481
v 0.28444077 0.31021876 0.78499295
v 0.22405669 0.43098691 -0.60384073
v 0.28444077 0.37060284 -0.60384073
v 0.28444077 0.43098691 -0.54345666
v 0.22405669 0.43098691 0.00000000
v 0.28444077 0.37060284 0.00000000
v 0.28444077 0.43098691 -0.06038407
v 0.28444077 0.37060284 0.12076815
v 0.22405669 0.43098691 0.24153629
v 0.28444077 0.37060284 0.24153629
v 0.22405669 0.43098691 0.36230444
v 0.28444077 0.37060284 0.36230444
v 0.22405669 0.43098691 0.48307259
v 0.28444077 0.37060284 0.48307259
v 0.28444077 0.37060284 0.60384073
v 0.28444077 0.37060284 0.72460888
v 0.22405669 0.55175505 -0.48307259
v 0.28444077 0.49137098 -0.48307259
v 0.22405669 0.55175505 -0.36230444
v 0.28444077 0.49137098 -0.36230444
v 0.28444077 0.49137098 -0.24153629
v 0.28444077 0.49137098 -0.12076815
v 0.34482484 -0.41439012 -0.48307259
v 0.34482484 -0.41439012 -0.36230444
v 0.34482484 -0.41439012 0.24153629
v 0.34482484 -0.41439012 0.36230444
v 0.34482484 -0.41439012 0.48307259
v 0.34482484 -0.41439012 0.60384073
v 0.34482484 -0.29362197 -0.60384073
v 0.40520891 -0.29362197 -0.54345666
v 0.40520891 -0.35400604 -0.48307259
v 0.40520891 -0.35400604 -0.36230444
v 0.40520891 -0.35400604 -0.24153629
v 0.40520891 -0.35400604 -0.12076815
v 0.40520891 -0.35400604 0.00000000
v 0.40520891 -0.35400604 0.12076815
v 0.40520891 -0.35400604 0.24153629
v 0.40520891 -0.35400604 0.36230444
v 0.40520891 -0.35400604 0.48307259
v 0.40520891 -0.35400604 0.60384073
v 0.34482484 -0.29362197 0.72460888
v 0.40520891 -0.29362197 0.66422481
v 0.40520891 -0.17285382 -0.66422481
v 0.40520891 -0.23323790 -0.60384073
v 0.40520891 -0.23323790 0.72460888
v 0.40520891 -0.17285382 0.78499295
v 0.40520891 -0.05208568 -0.66422481
v 0.40520891 -0.05208568 0.78499295
v 0.40520891 0.06868247 -0.66422481
v 0.40520891 0.06868247 0.78499295
v 0.40520891 0.18945062 -0.66422481
v 0.40520891 0.18945062 0.78499295
v 0.40520891 0.24983469 -0.60384073
v 0.34482484 0.31021876 -0.60384073
v 0.40520891 0.31021876 -0.54345666
v 0.34482484 0.31021876 0.36230444
v 0.40520891 0.24983469 0.36230444
v 0.40520891 0.31021876 0.30192037
v 0.40520891 0.31021876 0.42268851
v 0.40520891 0.31021876 0.78499295
v 0.34482484 0.43098691 -0.48307259
v 0.40520891 0.37060284 -0.48307259
v 0.34482484 0.43098691 -0.36230444
v 0.40520891 0.37060284 -0.36230444
v 0.34482484 0.43098691 -0.24153629
v 0.40520891 0.37060284 -0.24153629
v 0.40520891 0.43098691 -0.18115222
v 0.40520891 0.37060284 0.00000000
v 0.40520891 0.43098691 -0.06038407
v 0.40520891 0.37060284 0.12076815
v 0.40520891 0.37060284 0.24153629
v 0.40520891 0.37060284 0.48307259
v 0.40520891 0.37060284 0.60384073
v 0.40520891 0.37060284 0.72460888
v 0.40520891 0.49137098 -0.12076815
v 0.46559299 -0.29362197 -0.48307259
v 0.52597706 -0.29362197 -0.42268851
v 0.52597706 -0.35400604 -0.36230444
v 0.52597706 -0.35400604 -0.24153629
v 0.52597706 -0.35400604 -0.12076815
v 0.46559299 -0.29362197 0.00000000
v 0.52597706 -0.29362197 -0.06038407
v 0.46559299 -0.29362197 0.12076815
v 0.46559299 -0.29362197 0.24153629
v 0.46559299 -0.29362197 0.36230444
v 0.46559299 -0.29362197 0.48307259
v 0.46559299 -0.29362197 0.60384073
v 0.52597706 -0.17285382 -0.66422481
v 0.52597706 -0.23323790 -0.60384073
v 0.52597706 -0.23323790 -0.48307259
v 0.52597706 -0.23323790 0.00000000
v 0.52597706 -0.17285382 0.06038407
v 0.46559299 -0.17285382 0.12076815
v 0.46559299 -0.17285382 0.24153629
v 0.46559299 -0.17285382 0.36230444
v 0.46559299 -0.17285382 0.48307259
v 0.46559299 -0.17285382 0.60384073
v 0.46559299 -0.17285382 0.72460888
v 0.52597706 -0.05208568 -0.66422481
v 0.52597706 -0.11246975 0.12076815
v 0.52597706 -0.11246975 0.24153629
v 0.52597706 -0.05208568 0.30192037
v 0.46559299 -0.05208568 0.36230444
v 0.46559299 -0.05208568 0.48307259
v 0.46559299 -0.05208568 0.60384073
v 0.46559299 -0.05208568 0.72460888
v 0.52597706 0.06868247 -0.66422481
v 0.46559299 0.06868247 0.36230444
v 0.52597706 0.06868247 0.30192037
v 0.46559299 0.06868247 0.48307259
v 0.46559299 0.06868247 0.60384073
v 0.46559299 0.06868247 0.72460888
v 0.52597706 0.12906654 -0.60384073
v 0.46559299 0.18945062 -0.60384073
v 0.52597706 0.18945062 -0.54345666
v 0.46559299 0.18945062 0.36230444
v 0.52597706 0.18945062 0.30192037
v 0.46559299 0.18945062 0.48307259
v 0.46559299 0.18945062 0.60384073
v 0.46559299 0.18945062 0.72460888
v 0.46559299 0.31021876 -0.48307259
v 0.52597706 0.24983469 -0.48307259
v 0.52597706 0.31021876 -0.42268851
v 0.46559299 0.31021876 0.12076815
v 0.52597706 0.24983469 0.12076815
v 0.52597706 0.31021876 0.06038407
v 0.46559299 0.31021876 0.24153629
v 0.52597706 0.24983469 0.24153629
v 0.46559299 0.31021876 0.48307259
v 0.46559299 0.31021876 0.60384073
v 0.46559299 0.31021876 0.72460888
v 0.52597706 0.37060284 -0.36230444
v 0.52597706 0.37060284 -0.24153629
v 0.46559299 0.43098691 -0.12076815
v 0.52597706 0.37060284 -0.12076815
v 0.52597706 0.37060284 0.00000000
v 0.58636113 -0.29362197 -0.36230444
v 0.58636113 -0.29362197 -0.24153629
v 0.58636113 -0.29362197 -0.12076815
v 0.58636113 -0.17285382 -0.60384073
v 0.58636113 -0.17285382 -0.48307259
v 0.64674521 -0.17285382 -0.42268851
v 0.64674521 -0.23323790 -0.36230444
v 0.64674521 -0.23323790 -0.24153629
v 0.64674521 -0.23323790 -0.12076815
v 0.58636113 -0.17285382 0.00000000
v 0.64674521 -0.17285382 -0.06038407
v 0.58636113 -0.05208568 -0.60384073
v 0.64674521 -0.05208568 -0.54345666
v 0.64674521 -0.11246975 -0.48307259
v 0.58636113 -0.05208568 0.00000000
v 0.64674521 -0.05208568 -0.06038407
v 0.58636113 -0.05208568 0.12076815
v 0.58636113 -0.05208568 0.24153629
v 0.58636113 0.06868247 -0.60384073
v 0.64674521 0.00829840 -0.48307259
v 0.58636113 0.06868247 -0.48307259
v 0.64674521 0.06868247 -0.42268851
v 0.64674521 0.00829840 0.00000000
v 0.64674521 0.06868247 0.06038407
v 0.58636113 0.06868247 0.12076815
v 0.58636113 0.06868247 0.24153629
v 0.58636113 0.18945062 -0.48307259
v 0.64674521 0.18945062 -0.42268851
v 0.58636113 0.18945062 0.12076815
v 0.64674521 0.18945062 0.06038407
v 0.58636113 0.18945062 0.24153629
v 0.64674521 0.31021876 -0.42268851
v 0.64674521 0.31021876 0.06038407
v 0.64674521 0.37060284 -0.36230444
v 0.64674521 0.37060284 -0.24153629
v 0.64674521 0.37060284 -0.12076815
v 0.64674521 0.37060284 0.00000000
v 0.76751335 -0.17285382 -0.42268851
v 0.76751335 -0.23323790 -0.36230444
v 0.70712928 -0.17285382 -0.24153629
v 0.76751335 -0.17285382 -0.30192037
v 0.70712928 -0.17285382 -0.12076815
v 0.70712928 -0.05208568 -0.48307259
v 0.76751335 -0.11246975 -0.36230444
v 0.70712928 -0.05208568 -0.36230444
v 0.70712928 -0.05208568 -0.24153629
v 0.70712928 -0.05208568 -0.12076815
v 0.70712928 0.06868247 -0.36230444
v 0.70712928 0.06868247 -0.24153629
v 0.70712928 0.06868247 -0.12076815
v 0.70712928 0.06868247 0.00000000
v 0.70712928 0.18945062 -0.36230444
v 0.70712928 0.18945062 -0.24153629
v 0.70712928 0.18945062 -0.12076815
v 0.70712928 0.18945062 0.00000000
v 0.70712928 0.31021876 -0.36230444
v 0.70712928 0.31021876 -0.24153629
v 0.70712928 0.31021876 -0.12076815
v 0.70712928 0.31021876 0.00000000
v 0.82789742 -0.17285382 -0.36230444
f 3 2 1
f 1 4 3
f 2 5 1
f 1 5 4
f 8 7 6
f 10 9 6
f 6 9 8
f 12 11 10
f 10 11 9
f 14 13 12
f 12 13 11
f 14 15 13
f 6 7 16
f 16 7 17
f 16 2 3
f 10 16 3
f 6 16 10
f 10 3 4
f 18 10 4
f 12 10 18
f 12 19 14
f 12 18 19
f 15 14 20
f 20 14 19
f 23 22 21
f 23 21 17
f 21 16 17
f 21 24 16
f 25 5 2
f 16 25 2
f 24 25 16
f 18 4 5
f 25 18 5
f 26 18 25
f 18 27 19
f 18 26 27
f 20 19 28
f 28 19 27
f 21 22 29
f 29 22 30
f 21 31 24
f 21 29 31
f 24 32 25
f 24 31 32
f 25 33 26
f 25 32 33
f 26 34 27
f 26 33 34
f 28 27 35
f 35 27 34
f 30 36 29
f 38 37 36
f 37 29 36
f 37 31 29
f 31 39 32
f 31 37 39
f 32 40 33
f 32 39 40
f 33 41 34
f 33 40 41
f 35 34 42
f 42 34 41
f 38 43 37
f 45 44 43
f 44 37 43
f 44 39 37
f 39 46 40
f 39 44 46
f 48 41 47
f 41 46 47
f 41 40 46
f 41 48 42
f 45 49 44
f 44 49 46
f 46 49 50
f 46 50 47
f 53 52 51
f 55 54 51
f 51 54 53
f 57 56 55
f 55 56 54
f 59 58 57
f 57 58 56
f 59 60 58
f 63 62 61
f 63 61 52
f 52 61 51
f 61 7 51
f 7 8 51
f 51 8 9
f 51 9 55
f 55 9 11
f 55 11 57
f 57 11 13
f 57 13 59
f 13 15 59
f 15 60 59
f 15 64 60
f 61 62 65
f 65 62 66
f 65 17 7
f 65 7 61
f 20 68 67
f 64 20 67
f 15 20 64
f 68 69 67
f 65 66 23
f 66 22 23
f 66 70 22
f 65 23 17
f 28 71 68
f 28 68 20
f 69 68 72
f 72 68 71
f 70 30 22
f 73 30 70
f 35 74 71
f 35 71 28
f 72 71 75
f 75 71 74
f 36 30 76
f 30 77 76
f 30 73 77
f 76 38 36
f 42 78 74
f 42 74 35
f 75 74 79
f 79 74 78
f 76 77 80
f 80 77 81
f 82 43 38
f 76 82 38
f 80 82 76
f 82 45 43
f 47 83 48
f 78 42 48
f 83 78 48
f 84 78 83
f 79 78 85
f 85 78 84
f 81 86 80
f 80 86 82
f 82 86 87
f 82 87 45
f 87 49 45
f 87 88 49
f 49 89 50
f 88 89 49
f 47 50 83
f 50 90 83
f 50 89 90
f 83 90 84
f 84 90 91
f 84 91 85
f 94 93 92
f 96 95 92
f 92 95 94
f 98 97 96
f 96 97 95
f 100 99 98
f 98 99 97
f 100 101 99
f 104 103 102
f 104 102 93
f 93 102 92
f 102 52 92
f 52 53 92
f 92 53 54
f 92 54 96
f 96 54 56
f 96 56 98
f 98 56 58
f 98 58 100
f 58 60 100
f 60 101 100
f 60 105 101
f 102 103 63
f 103 62 63
f 103 106 62
f 102 63 52
f 64 105 60
f 64 107 105
f 110 109 108
f 106 110 108
f 66 106 108
f 62 106 66
f 111 107 64
f 111 64 67
f 67 69 111
f 111 69 112
f 108 109 113
f 113 109 114
f 113 70 66
f 113 66 108
f 72 112 69
f 72 115 112
f 113 114 116
f 116 114 117
f 116 73 70
f 116 70 113
f 75 115 72
f 75 118 115
f 116 117 119
f 119 117 120
f 119 77 73
f 119 73 116
f 79 118 75
f 79 121 118
f 120 122 119
f 77 119 122
f 123 77 122
f 81 77 123
f 85 121 79
f 85 124 121
f 86 81 125
f 81 126 125
f 81 123 126
f 127 87 86
f 127 86 125
f 128 88 87
f 128 87 127
f 129 89 88
f 129 88 128
f 89 129 130
f 131 89 130
f 90 89 131
f 90 132 91
f 131 132 90
f 85 91 124
f 124 91 132
f 126 133 125
f 125 133 127
f 127 133 134
f 127 134 128
f 128 134 135
f 128 135 129
f 129 135 136
f 129 136 130
f 139 138 137
f 137 93 139
f 93 94 139
f 141 140 139
f 141 139 94
f 141 94 142
f 94 143 142
f 94 95 143
f 144 95 97
f 144 143 95
f 145 97 99
f 145 144 97
f 99 101 145
f 145 101 146
f 137 138 104
f 138 103 104
f 138 147 103
f 141 148 140
f 93 137 104
f 148 141 142
f 105 146 101
f 105 149 146
f 152 151 150
f 147 152 150
f 106 147 150
f 103 147 106
f 107 154 153
f 149 107 153
f 105 107 149
f 154 155 153
f 150 151 110
f 151 109 110
f 151 156 109
f 150 110 106
f 111 154 107
f 111 112 154
f 112 155 154
f 112 157 155
f 160 159 158
f 156 160 158
f 114 156 158
f 109 156 114
f 115 157 112
f 115 161 157
f 158 159 162
f 162 159 163
f 162 117 114
f 162 114 158
f 118 161 115
f 118 164 161
f 163 165 162
f 117 162 165
f 166 117 165
f 120 117 166
f 121 164 118
f 121 167 164
f 122 120 168
f 120 169 168
f 120 166 169
f 168 123 122
f 124 167 121
f 124 170 167
f 169 171 168
f 123 168 171
f 172 123 171
f 126 123 172
f 174 173 131
f 174 131 130
f 131 175 132
f 173 175 131
f 124 132 170
f 170 132 175
f 172 176 126
f 126 176 133
f 133 177 134
f 176 177 133
f 134 178 135
f 177 178 134
f 135 179 136
f 178 179 135
f 130 136 174
f 174 136 179
f 181 180 139
f 139 180 138
f 183 182 140
f 182 139 140
f 182 181 139
f 142 143 183
f 143 182 183
f 143 184 182
f 185 143 144
f 185 184 143
f 186 144 145
f 186 185 144
f 145 146 186
f 186 146 187
f 180 147 138
f 188 147 180
f 148 183 140
f 183 148 142
f 149 187 146
f 149 189 187
f 191 190 152
f 152 190 151
f 152 147 188
f 152 188 191
f 192 189 149
f 192 149 153
f 153 155 192
f 192 155 193
f 196 195 194
f 198 197 194
f 194 197 196
f 200 199 198
f 198 199 197
f 202 201 200
f 200 201 199
f 204 203 202
f 202 203 201
f 206 205 204
f 204 205 203
f 190 205 206
f 156 190 206
f 151 190 156
f 157 193 155
f 157 207 193
f 210 209 208
f 210 208 195
f 208 194 195
f 208 211 194
f 194 212 198
f 194 211 212
f 198 213 200
f 198 212 213
f 200 214 202
f 200 213 214
f 202 215 204
f 202 214 215
f 215 159 160
f 206 215 160
f 204 215 206
f 206 160 156
f 161 207 157
f 161 216 207
f 208 209 217
f 217 209 218
f 208 219 211
f 208 217 219
f 211 220 212
f 211 219 220
f 212 221 213
f 212 220 221
f 213 222 214
f 213 221 222
f 214 223 215
f 214 222 223
f 223 163 159
f 223 159 215
f 164 216 161
f 164 224 216
f 217 218 225
f 225 218 226
f 217 227 219
f 217 225 227
f 219 228 220
f 219 227 228
f 220 229 221
f 220 228 229
f 221 230 222
f 221 229 230
f 222 231 223
f 222 230 231
f 232 165 163
f 223 232 163
f 231 232 223
f 232 166 165
f 167 234 233
f 224 167 233
f 164 167 224
f 234 235 233
f 226 236 225
f 238 237 236
f 237 225 236
f 237 227 225
f 227 239 228
f 227 237 239
f 228 240 229
f 228 239 240
f 229 241 230
f 229 240 241
f 230 242 231
f 230 241 242
f 231 243 232
f 231 242 243
f 243 169 166
f 243 166 232
f 245 244 234
f 167 245 234
f 170 245 167
f 234 244 235
f 238 246 237
f 237 246 239
f 239 246 247
f 239 247 240
f 240 247 248
f 240 248 241
f 241 248 249
f 241 249 242
f 242 249 250
f 242 250 243
f 243 250 251
f 251 253 252
f 251 252 171
f 243 251 171
f 169 243 171
f 252 172 171
f 174 254 173
f 173 254 255
f 256 173 255
f 175 173 256
f 170 175 245
f 245 175 256
f 253 257 252
f 252 257 172
f 257 176 172
f 257 258 176
f 176 259 177
f 258 259 176
f 177 260 178
f 259 260 177
f 178 261 179
f 260 261 178
f 174 179 254
f 179 262 254
f 179 261 262
f 254 262 255
f 263 180 181
f 263 181 264
f 181 265 264
f 181 182 265
f 266 182 184
f 266 265 182
f 267 184 185
f 267 266 184
f 268 185 186
f 268 267 185
f 186 187 268
f 268 187 269
f 271 270 263
f 270 180 263
f 270 188 180
f 271 263 264
f 189 269 187
f 189 272 269
f 275 274 273
f 277 276 273
f 273 276 275
f 279 278 277
f 277 278 276
f 279 280 278
f 282 281 191
f 191 281 190
f 191 188 270
f 191 270 282
f 283 272 189
f 283 189 192
f 192 193 283
f 283 193 284
f 287 286 285
f 195 196 285
f 196 287 285
f 196 288 287
f 197 273 274
f 288 197 274
f 196 197 288
f 273 197 199
f 273 199 277
f 277 199 201
f 277 201 279
f 289 280 279
f 201 289 279
f 203 289 201
f 290 203 205
f 290 289 203
f 205 190 281
f 205 281 290
f 207 284 193
f 207 291 284
f 285 286 210
f 286 209 210
f 286 292 209
f 285 210 195
f 216 294 293
f 291 216 293
f 207 216 291
f 294 295 293
f 292 218 209
f 296 218 292
f 224 297 294
f 224 294 216
f 295 294 298
f 298 294 297
f 296 226 218
f 299 226 296
f 233 297 224
f 233 235 297
f 235 298 297
f 235 300 298
f 299 301 226
f 226 301 236
f 238 236 301
f 238 301 302
f 245 303 244
f 303 304 244
f 304 235 244
f 304 300 235
f 302 305 238
f 238 305 246
f 305 307 306
f 247 305 306
f 246 305 247
f 308 248 247
f 308 247 306
f 309 249 248
f 309 248 308
f 310 250 249
f 310 249 309
f 311 251 250
f 311 250 310
f 311 253 251
f 313 312 256
f 313 256 255
f 245 256 303
f 256 314 303
f 256 312 314
f 303 314 304
f 307 315 306
f 306 315 308
f 308 315 316
f 308 316 309
f 309 316 317
f 309 317 310
f 310 317 318
f 310 318 311
f 311 318 319
f 311 319 253
f 319 257 253
f 319 320 257
f 257 321 258
f 320 321 257
f 258 322 259
f 321 322 258
f 259 323 260
f 322 323 259
f 260 324 261
f 323 324 260
f 261 325 262
f 324 325 261
f 255 262 313
f 313 262 325
f 327 326 265
f 265 326 264
f 328 265 266
f 328 327 265
f 329 266 267
f 329 328 266
f 330 267 268
f 330 329 267
f 268 269 330
f 330 269 331
f 334 333 332
f 332 335 334
f 337 336 271
f 271 336 270
f 271 264 326
f 271 326 337
f 272 331 269
f 272 338 331
f 341 340 339
f 274 275 339
f 275 341 339
f 275 342 341
f 276 332 333
f 342 276 333
f 275 276 342
f 343 335 332
f 276 343 332
f 278 343 276
f 345 344 280
f 344 278 280
f 344 343 278
f 347 346 345
f 345 346 344
f 281 282 347
f 282 346 347
f 282 348 346
f 282 270 336
f 282 336 348
f 349 338 272
f 349 272 283
f 283 284 349
f 349 284 350
f 352 351 287
f 287 351 286
f 288 339 340
f 352 288 340
f 287 288 352
f 339 288 274
f 289 345 280
f 345 289 290
f 345 290 347
f 347 290 281
f 291 350 284
f 291 353 350
f 351 292 286
f 354 292 351
f 355 353 291
f 355 291 293
f 293 295 355
f 355 295 356
f 354 296 292
f 357 296 354
f 298 356 295
f 298 358 356
f 357 299 296
f 359 299 357
f 300 358 298
f 300 360 358
f 359 361 299
f 299 361 301
f 302 301 361
f 302 361 362
f 304 360 300
f 304 363 360
f 362 364 302
f 302 364 305
f 366 365 307
f 305 366 307
f 364 366 305
f 367 365 366
f 369 368 312
f 369 312 313
f 312 370 314
f 368 370 312
f 304 314 363
f 363 314 370
f 365 315 307
f 367 371 365
f 371 315 365
f 371 316 315
f 371 373 372
f 317 371 372
f 316 371 317
f 317 372 374
f 375 317 374
f 318 317 375
f 318 376 319
f 375 376 318
f 319 377 320
f 376 377 319
f 320 378 321
f 377 378 320
f 321 379 322
f 378 379 321
f 322 380 323
f 379 380 322
f 323 381 324
f 380 381 323
f 324 382 325
f 381 382 324
f 313 325 369
f 369 325 382
f 373 383 372
f 372 383 374
f 385 384 327
f 327 384 326
f 386 327 328
f 386 385 327
f 387 328 329
f 387 386 328
f 389 387 388
f 387 330 388
f 387 329 330
f 331 388 330
f 391 390 334
f 334 390 333
f 393 392 335
f 392 334 335
f 392 391 334
f 393 394 392
f 396 395 337
f 337 395 336
f 337 326 384
f 337 384 396
f 397 389 388
f 388 331 397
f 331 398 397
f 331 338 398
f 399 340 341
f 399 341 400
f 341 401 400
f 341 342 401
f 342 333 390
f 342 390 401
f 343 393 335
f 402 394 393
f 343 402 393
f 344 402 343
f 403 344 346
f 403 402 344
f 404 346 348
f 404 403 346
f 348 336 395
f 348 395 404
f 405 398 338
f 405 338 349
f 349 350 405
f 405 350 406
f 408 407 352
f 352 407 351
f 352 340 399
f 409 352 399
f 408 352 409
f 409 399 400
f 353 406 350
f 353 410 406
f 407 354 351
f 411 354 407
f 353 355 412
f 413 353 412
f 410 353 413
f 356 412 355
f 411 357 354
f 414 357 411
f 415 413 412
f 412 356 415
f 356 416 415
f 356 358 416
f 414 359 357
f 417 359 414
f 360 416 358
f 360 418 416
f 417 419 359
f 359 419 361
f 362 361 419
f 362 419 420
f 423 422 421
f 422 418 421
f 418 363 421
f 418 360 363
f 420 424 362
f 362 424 364
f 424 426 425
f 366 424 425
f 364 424 366
f 425 367 366
f 429 428 427
f 430 427 428
f 433 432 431
f 368 369 431
f 432 368 431
f 434 368 432
f 421 370 423
f 370 434 423
f 370 368 434
f 370 421 363
f 426 435 425
f 435 437 436
f 435 436 371
f 425 435 371
f 367 425 371
f 436 373 371
f 439 438 375
f 439 375 374
f 375 440 376
f 438 440 375
f 376 441 377
f 440 441 376
f 427 378 429
f 378 441 429
f 378 377 441
f 430 442 427
f 442 378 427
f 442 379 378
f 379 443 380
f 442 443 379
f 380 444 381
f 443 444 380
f 431 382 433
f 382 444 433
f 382 381 444
f 382 431 369
f 437 445 436
f 436 445 373
f 445 383 373
f 445 446 383
f 374 383 439
f 439 383 446
f 447 384 385
f 386 448 385
f 385 448 447
f 387 449 386
f 386 449 448
f 389 449 387
f 451 450 391
f 391 450 390
f 452 391 392
f 452 451 391
f 392 394 452
f 452 394 453
f 454 395 396
f 455 454 396
f 455 396 384
f 456 455 384
f 447 456 384
f 456 447 448
f 456 448 457
f 457 448 449
f 457 449 458
f 458 449 389
f 397 458 389
f 459 458 397
f 397 398 459
f 459 398 460
f 462 461 401
f 401 461 400
f 401 390 450
f 401 450 462
f 463 453 394
f 463 394 402
f 464 402 403
f 464 463 402
f 465 403 404
f 465 464 403
f 404 395 454
f 466 404 454
f 465 404 466
f 466 454 455
f 467 460 398
f 467 398 405
f 405 406 467
f 467 406 468
f 469 407 408
f 409 470 408
f 408 470 469
f 471 470 409
f 400 471 409
f 461 471 400
f 410 468 406
f 410 472 468
f 473 411 469
f 469 411 407
f 474 469 470
f 473 469 474
f 470 471 475
f 470 475 474
f 413 472 410
f 413 476 472
f 477 414 473
f 473 414 411
f 478 473 474
f 477 473 478
f 474 475 479
f 474 479 478
f 413 415 480
f 481 413 480
f 476 413 481
f 416 480 415
f 482 417 477
f 477 417 414
f 483 477 478
f 482 477 483
f 478 479 484
f 478 484 483
f 481 480 485
f 481 485 486
f 418 485 416
f 416 485 480
f 482 419 417
f 419 482 420
f 482 487 420
f 482 483 487
f 483 484 488
f 483 488 487
f 486 485 422
f 423 486 422
f 489 486 423
f 422 485 418
f 487 424 420
f 491 490 426
f 491 426 424
f 488 491 424
f 487 488 424
f 492 490 491
f 495 494 493
f 428 429 493
f 494 428 493
f 496 428 494
f 498 497 430
f 428 498 430
f 496 498 428
f 500 499 497
f 500 497 498
f 502 501 499
f 502 499 500
f 432 433 501
f 502 432 501
f 503 432 502
f 432 504 434
f 503 504 432
f 423 434 489
f 489 434 504
f 490 435 426
f 506 505 437
f 506 437 435
f 492 506 435
f 490 492 435
f 508 507 505
f 508 505 506
f 438 439 507
f 508 438 507
f 509 438 508
f 438 510 440
f 509 510 438
f 493 441 495
f 441 510 495
f 441 440 510
f 441 493 429
f 497 442 430
f 442 497 443
f 443 497 499
f 443 499 444
f 444 499 501
f 444 501 433
f 505 445 437
f 445 505 446
f 446 505 507
f 446 507 439
f 511 450 451
f 452 512 451
f 451 512 511
f 453 512 452
f 513 455 456
f 457 514 456
f 456 514 513
f 458 515 457
f 457 515 514
f 459 516 458
f 458 516 515
f 460 516 459
f 517 461 462
f 518 517 462
f 518 462 450
f 519 518 450
f 511 519 450
f 519 511 512
f 519 512 520
f 520 512 453
f 463 520 453
f 521 520 463
f 522 463 464
f 522 521 463
f 523 464 465
f 523 522 464
f 524 465 466
f 524 523 465
f 466 455 513
f 525 466 513
f 524 466 525
f 525 513 514
f 525 514 526
f 526 514 515
f 526 515 527
f 527 515 516
f 527 516 528
f 530 528 529
f 529 528 467
f 528 516 467
f 516 460 467
f 468 529 467
f 532 531 517
f 531 461 517
f 531 471 461
f 532 517 518
f 533 530 529
f 529 468 533
f 468 534 533
f 468 472 534
f 531 475 471
f 535 475 531
f 476 534 472
f 476 536 534
f 535 479 475
f 537 479 535
f 481 536 476
f 481 538 536
f 537 484 479
f 539 484 537
f 486 538 481
f 486 540 538
f 542 488 541
f 488 539 541
f 488 484 539
f 543 542 541
f 546 545 544
f 547 544 545
f 489 540 486
f 489 548 540
f 542 491 488
f 550 549 492
f 550 492 491
f 543 550 491
f 542 543 491
f 552 551 549
f 552 549 550
f 554 553 551
f 554 551 552
f 555 553 554
f 557 556 494
f 557 494 495
f 494 558 496
f 556 558 494
f 496 559 498
f 558 559 496
f 544 500 546
f 500 559 546
f 500 498 559
f 547 560 544
f 560 500 544
f 560 502 500
f 502 561 503
f 560 561 502
f 503 562 504
f 561 562 503
f 489 504 548
f 548 504 562
f 549 506 492
f 506 549 508
f 508 549 551
f 508 551 509
f 509 551 553
f 555 563 553
f 563 509 553
f 563 510 509
f 495 510 557
f 557 510 563
f 564 518 519
f 564 519 565
f 519 566 565
f 519 520 566
f 567 520 521
f 567 566 520
f 568 521 522
f 568 567 521
f 570 568 569
f 568 523 569
f 568 522 523
f 524 571 523
f 523 571 569
f 525 572 524
f 524 572 571
f 526 573 525
f 525 573 572
f 527 574 526
f 526 574 573
f 528 575 527
f 527 575 574
f 530 575 528
f 577 576 532
f 532 576 531
f 532 518 564
f 578 532 564
f 577 532 578
f 578 564 565
f 579 570 569
f 581 580 579
f 569 581 579
f 571 581 569
f 582 571 572
f 581 571 582
f 583 572 573
f 582 572 583
f 584 573 574
f 583 573 584
f 585 574 575
f 584 574 585
f 533 586 530
f 586 575 530
f 586 585 575
f 534 586 533
f 576 535 531
f 587 535 576
f 588 580 581
f 588 581 582
f 588 582 589
f 591 590 589
f 582 591 589
f 583 591 582
f 592 583 584
f 591 583 592
f 593 584 585
f 592 584 593
f 594 585 586
f 593 585 594
f 536 594 534
f 534 594 586
f 587 537 535
f 595 537 587
f 590 591 596
f 590 596 597
f 598 591 592
f 596 591 598
f 599 592 593
f 598 592 599
f 600 593 594
f 599 593 600
f 538 600 536
f 536 600 594
f 602 539 601
f 539 595 601
f 539 537 595
f 603 602 601
f 597 596 604
f 597 604 605
f 606 596 598
f 604 596 606
f 607 598 599
f 606 598 607
f 608 599 600
f 607 599 608
f 540 608 538
f 538 608 600
f 602 541 539
f 610 609 543
f 610 543 541
f 603 610 541
f 602 603 541
f 611 609 610
f 614 613 612
f 616 615 612
f 616 612 613
f 615 616 605
f 615 605 604
f 546 615 604
f 545 546 604
f 545 604 547
f 604 617 547
f 604 606 617
f 618 606 607
f 617 606 618
f 619 607 608
f 618 607 619
f 548 619 540
f 540 619 608
f 609 550 543
f 611 620 609
f 620 550 609
f 620 552 550
f 552 621 554
f 620 621 552
f 623 622 555
f 554 623 555
f 621 623 554
f 556 557 622
f 623 556 622
f 624 556 623
f 612 558 614
f 558 624 614
f 558 556 624
f 558 612 559
f 559 612 615
f 559 615 546
f 617 560 547
f 560 617 561
f 561 617 618
f 561 618 562
f 562 618 619
f 562 619 548
f 622 563 555
f 563 622 557
f 625 565 566
f 567 626 566
f 566 626 625
f 568 627 567
f 567 627 626
f 570 627 568
f 628 576 577
f 578 629 577
f 577 629 628
f 630 629 578
f 630 578 565
f 631 630 565
f 625 631 565
f 631 625 626
f 631 626 632
f 632 626 627
f 632 627 633
f 635 633 634
f 634 633 579
f 633 627 579
f 627 570 579
f 580 634 579
f 636 587 628
f 628 587 576
f 629 638 637
f 636 629 637
f 628 629 636
f 638 629 630
f 635 634 639
f 635 639 640
f 588 641 580
f 641 634 580
f 641 639 634
f 589 642 588
f 588 642 641
f 590 642 589
f 643 595 636
f 636 595 587
f 636 637 644
f 645 636 644
f 643 636 645
f 646 645 644
f 647 640 639
f 649 648 647
f 639 649 647
f 641 649 639
f 650 641 642
f 649 641 650
f 597 650 590
f 590 650 642
f 643 601 595
f 601 643 603
f 643 651 603
f 643 645 651
f 645 646 652
f 645 652 651
f 648 649 653
f 648 653 654
f 655 649 650
f 653 649 655
f 605 655 597
f 597 655 650
f 651 610 603
f 611 610 651
f 652 611 651
f 656 611 652
f 654 653 613
f 614 654 613
f 657 654 614
f 613 653 616
f 616 653 655
f 616 655 605
f 656 658 611
f 611 658 620
f 620 659 621
f 658 659 620
f 621 660 623
f 659 660 621
f 623 661 624
f 660 661 623
f 614 624 657
f 657 624 661
f 663 662 631
f 631 662 630
f 665 663 664
f 663 632 664
f 663 631 632
f 633 666 632
f 632 666 664
f 635 666 633
f 667 637 638
f 630 662 668
f 667 630 668
f 669 667 668
f 638 630 667
f 669 668 665
f 664 669 665
f 670 669 664
f 671 664 666
f 670 664 671
f 640 671 635
f 635 671 666
f 667 644 637
f 644 667 646
f 667 672 646
f 667 669 672
f 673 669 670
f 672 669 673
f 674 670 671
f 673 670 674
f 647 675 640
f 675 671 640
f 675 674 671
f 648 675 647
f 676 652 672
f 672 652 646
f 677 672 673
f 676 672 677
f 678 673 674
f 677 673 678
f 679 674 675
f 678 674 679
f 654 679 648
f 648 679 675
f 680 656 676
f 676 656 652
f 681 676 677
f 680 676 681
f 682 677 678
f 681 677 682
f 683 678 679
f 682 678 683
f 657 683 654
f 654 683 679
f 680 658 656
f 658 680 659
f 659 680 681
f 659 681 660
f 660 681 682
f 660 682 661
f 661 682 683
f 661 683 657
f 684 662 663
f 665 684 663
f 684 668 662
f 668 684 665
