ply
format ascii 1.0
element vertex 684
property float x
property float y
property float z
element face 1364
property list uchar int vertex_indices
end_header
-0.86285663 -0.17285382 0.36230444
-0.80247255 -0.17285382 0.30192037
-0.80247255 -0.23323790 0.36230444
-0.80247255 -0.17285382 0.42268851
-0.80247255 -0.11246975 0.36230444
-0.74208848 -0.29362197 0.24153629
-0.68170441 -0.29362197 0.18115222
-0.68170441 -0.35400604 0.24153629
-0.68170441 -0.35400604 0.36230444
-0.74208848 -0.29362197 0.36230444
-0.68170441 -0.35400604 0.48307259
-0.74208848 -0.29362197 0.48307259
-0.68170441 -0.35400604 0.60384073
-0.74208848 -0.29362197 0.60384073
-0.68170441 -0.29362197 0.66422481
-0.74208848 -0.17285382 0.24153629
-0.68170441 -0.17285382 0.18115222
-0.74208848 -0.17285382 0.48307259
-0.74208848 -0.17285382 0.60384073
-0.68170441 -0.17285382 0.66422481
-0.74208848 -0.05208568 0.12076815
-0.68170441 -0.05208568 0.06038407
-0.68170441 -0.11246975 0.12076815
-0.74208848 -0.05208568 0.24153629
-0.74208848 -0.05208568 0.36230444
-0.74208848 -0.05208568 0.48307259
-0.74208848 -0.05208568 0.60384073
-0.68170441 -0.05208568 0.66422481
-0.74208848 0.06868247 0.12076815
-0.68170441 0.06868247 0.06038407
-0.74208848 0.06868247 0.24153629
-0.74208848 0.06868247 0.36230444
-0.74208848 0.06868247 0.48307259
-0.74208848 0.06868247 0.60384073
-0.68170441 0.06868247 0.66422481
-0.68170441 0.12906654 0.12076815
-0.74208848 0.18945062 0.24153629
-0.68170441 0.18945062 0.18115222
-0.74208848 0.18945062 0.36230444
-0.74208848 0.18945062 0.48307259
-0.74208848 0.18945062 0.60384073
-0.68170441 0.18945062 0.66422481
-0.68170441 0.24983469 0.24153629
-0.74208848 0.31021876 0.36230444
-0.68170441 0.31021876 0.30192037
-0.74208848 0.31021876 0.48307259
-0.68170441 0.31021876 0.54345666
-0.68170441 0.24983469 0.60384073
-0.68170441 0.37060284 0.36230444
-0.68170441 0.37060284 0.48307259
-0.62132033 -0.41439012 0.24153629
-0.56093626 -0.41439012 0.18115222
-0.56093626 -0.47477419 0.24153629
-0.56093626 -0.47477419 0.36230444
-0.62132033 -0.41439012 0.36230444
-0.56093626 -0.47477419 0.48307259
-0.62132033 -0.41439012 0.48307259
-0.56093626 -0.47477419 0.60384073
-0.62132033 -0.41439012 0.60384073
-0.56093626 -0.41439012 0.66422481
-0.62132033 -0.29362197 0.12076815
-0.56093626 -0.29362197 0.06038407
-0.56093626 -0.35400604 0.12076815
-0.56093626 -0.29362197 0.66422481
-0.62132033 -0.17285382 0.12076815
-0.56093626 -0.17285382 0.06038407
-0.56093626 -0.23323790 0.72460888
-0.62132033 -0.17285382 0.72460888
-0.56093626 -0.17285382 0.78499295
-0.56093626 -0.05208568 0.06038407
-0.62132033 -0.05208568 0.72460888
-0.56093626 -0.05208568 0.78499295
-0.56093626 0.06868247 0.06038407
-0.62132033 0.06868247 0.72460888
-0.56093626 0.06868247 0.78499295
-0.62132033 0.18945062 0.12076815
-0.56093626 0.18945062 0.06038407
-0.62132033 0.18945062 0.72460888
-0.56093626 0.18945062 0.78499295
-0.62132033 0.31021876 0.12076815
-0.56093626 0.31021876 0.06038407
-0.62132033 0.31021876 0.24153629
-0.62132033 0.31021876 0.60384073
-0.62132033 0.31021876 0.72460888
-0.56093626 0.31021876 0.78499295
-0.56093626 0.37060284 0.12076815
-0.56093626 0.37060284 0.24153629
-0.56093626 0.37060284 0.36230444
-0.56093626 0.37060284 0.48307259
-0.56093626 0.37060284 0.60384073
-0.56093626 0.37060284 0.72460888
-0.50055219 -0.53515826 0.24153629
-0.44016811 -0.53515826 0.18115222
-0.44016811 -0.59554234 0.24153629
-0.44016811 -0.59554234 0.36230444
-0.50055219 -0.53515826 0.36230444
-0.44016811 -0.59554234 0.48307259
-0.50055219 -0.53515826 0.48307259
-0.44016811 -0.59554234 0.60384073
-0.50055219 -0.53515826 0.60384073
-0.44016811 -0.53515826 0.66422481
-0.50055219 -0.41439012 0.12076815
-0.44016811 -0.41439012 0.06038407
-0.44016811 -0.47477419 0.12076815
-0.44016811 -0.41439012 0.66422481
-0.44016811 -0.29362197 0.06038407
-0.44016811 -0.29362197 0.66422481
-0.50055219 -0.17285382 0.00000000
-0.44016811 -0.17285382 -0.06038407
-0.44016811 -0.23323790 0.00000000
-0.44016811 -0.23323790 0.72460888
-0.44016811 -0.17285382 0.78499295
-0.50055219 -0.05208568 0.00000000
-0.44016811 -0.05208568 -0.06038407
-0.44016811 -0.05208568 0.78499295
-0.50055219 0.06868247 0.00000000
-0.44016811 0.06868247 -0.06038407
-0.44016811 0.06868247 0.78499295
-0.50055219 0.18945062 0.00000000
-0.44016811 0.18945062 -0.06038407
-0.44016811 0.18945062 0.78499295
-0.44016811 0.24983469 0.00000000
-0.44016811 0.31021876 0.06038407
-0.44016811 0.31021876 0.78499295
-0.50055219 0.43098691 0.12076815
-0.44016811 0.43098691 0.06038407
-0.50055219 0.43098691 0.24153629
-0.50055219 0.43098691 0.36230444
-0.50055219 0.43098691 0.48307259
-0.44016811 0.43098691 0.54345666
-0.44016811 0.37060284 0.60384073
-0.44016811 0.37060284 0.72460888
-0.44016811 0.49137098 0.12076815
-0.44016811 0.49137098 0.24153629
-0.44016811 0.49137098 0.36230444
-0.44016811 0.49137098 0.48307259
-0.37978404 -0.53515826 0.12076815
-0.31939997 -0.53515826 0.06038407
-0.31939997 -0.59554234 0.12076815
-0.31939997 -0.53515826 0.18115222
-0.37978404 -0.53515826 0.24153629
-0.31939997 -0.53515826 0.30192037
-0.31939997 -0.59554234 0.36230444
-0.31939997 -0.59554234 0.48307259
-0.31939997 -0.59554234 0.60384073
-0.31939997 -0.53515826 0.66422481
-0.31939997 -0.41439012 0.06038407
-0.31939997 -0.47477419 0.24153629
-0.31939997 -0.41439012 0.66422481
-0.37978404 -0.29362197 0.00000000
-0.31939997 -0.29362197 -0.06038407
-0.31939997 -0.35400604 0.00000000
-0.31939997 -0.35400604 0.72460888
-0.37978404 -0.29362197 0.72460888
-0.31939997 -0.29362197 0.78499295
-0.31939997 -0.17285382 -0.06038407
-0.31939997 -0.17285382 0.78499295
-0.37978404 -0.05208568 -0.12076815
-0.31939997 -0.05208568 -0.18115222
-0.31939997 -0.11246975 -0.12076815
-0.31939997 -0.05208568 0.78499295
-0.37978404 0.06868247 -0.12076815
-0.31939997 0.06868247 -0.18115222
-0.31939997 0.06868247 0.78499295
-0.31939997 0.12906654 -0.12076815
-0.31939997 0.18945062 -0.06038407
-0.31939997 0.18945062 0.78499295
-0.37978404 0.31021876 0.00000000
-0.31939997 0.31021876 -0.06038407
-0.31939997 0.31021876 0.78499295
-0.31939997 0.37060284 0.00000000
-0.31939997 0.43098691 0.06038407
-0.31939997 0.37060284 0.60384073
-0.31939997 0.43098691 0.54345666
-0.31939997 0.37060284 0.72460888
-0.31939997 0.49137098 0.12076815
-0.31939997 0.49137098 0.24153629
-0.31939997 0.49137098 0.36230444
-0.31939997 0.49137098 0.48307259
-0.19863182 -0.53515826 0.06038407
-0.19863182 -0.59554234 0.12076815
-0.19863182 -0.59554234 0.24153629
-0.25901589 -0.53515826 0.24153629
-0.19863182 -0.59554234 0.36230444
-0.19863182 -0.59554234 0.48307259
-0.19863182 -0.59554234 0.60384073
-0.19863182 -0.53515826 0.66422481
-0.19863182 -0.41439012 0.06038407
-0.19863182 -0.41439012 0.66422481
-0.19863182 -0.29362197 -0.06038407
-0.19863182 -0.35400604 0.00000000
-0.19863182 -0.35400604 0.72460888
-0.19863182 -0.29362197 0.78499295
-0.25901589 -0.17285382 -0.72460888
-0.19863182 -0.17285382 -0.78499295
-0.19863182 -0.23323790 -0.72460888
-0.19863182 -0.23323790 -0.60384073
-0.25901589 -0.17285382 -0.60384073
-0.19863182 -0.23323790 -0.48307259
-0.25901589 -0.17285382 -0.48307259
-0.19863182 -0.23323790 -0.36230444
-0.25901589 -0.17285382 -0.36230444
-0.19863182 -0.23323790 -0.24153629
-0.25901589 -0.17285382 -0.24153629
-0.19863182 -0.23323790 -0.12076815
-0.25901589 -0.17285382 -0.12076815
-0.19863182 -0.17285382 0.78499295
-0.25901589 -0.05208568 -0.84537703
-0.19863182 -0.05208568 -0.90576110
-0.19863182 -0.11246975 -0.84537703
-0.25901589 -0.05208568 -0.72460888
-0.25901589 -0.05208568 -0.60384073
-0.25901589 -0.05208568 -0.48307259
-0.25901589 -0.05208568 -0.36230444
-0.25901589 -0.05208568 -0.24153629
-0.19863182 -0.05208568 0.78499295
-0.25901589 0.06868247 -0.84537703
-0.19863182 0.06868247 -0.90576110
-0.25901589 0.06868247 -0.72460888
-0.25901589 0.06868247 -0.60384073
-0.25901589 0.06868247 -0.48307259
-0.25901589 0.06868247 -0.36230444
-0.25901589 0.06868247 -0.24153629
-0.19863182 0.06868247 0.78499295
-0.25901589 0.18945062 -0.84537703
-0.19863182 0.18945062 -0.90576110
-0.25901589 0.18945062 -0.72460888
-0.25901589 0.18945062 -0.60384073
-0.25901589 0.18945062 -0.48307259
-0.25901589 0.18945062 -0.36230444
-0.25901589 0.18945062 -0.24153629
-0.25901589 0.18945062 -0.12076815
-0.19863182 0.12906654 0.84537703
-0.25901589 0.18945062 0.84537703
-0.19863182 0.18945062 0.90576110
-0.19863182 0.24983469 -0.84537703
-0.25901589 0.31021876 -0.72460888
-0.19863182 0.31021876 -0.78499295
-0.25901589 0.31021876 -0.60384073
-0.25901589 0.31021876 -0.48307259
-0.25901589 0.31021876 -0.36230444
-0.25901589 0.31021876 -0.24153629
-0.25901589 0.31021876 -0.12076815
-0.19863182 0.24983469 0.84537703
-0.19863182 0.31021876 0.78499295
-0.19863182 0.37060284 -0.72460888
-0.19863182 0.37060284 -0.60384073
-0.19863182 0.37060284 -0.48307259
-0.19863182 0.37060284 -0.36230444
-0.19863182 0.37060284 -0.24153629
-0.19863182 0.37060284 -0.12076815
-0.25901589 0.43098691 0.00000000
-0.19863182 0.43098691 -0.06038407
-0.25901589 0.43098691 0.60384073
-0.19863182 0.43098691 0.66422481
-0.19863182 0.37060284 0.72460888
-0.19863182 0.49137098 0.00000000
-0.19863182 0.49137098 0.12076815
-0.19863182 0.49137098 0.24153629
-0.19863182 0.49137098 0.36230444
-0.19863182 0.49137098 0.48307259
-0.19863182 0.49137098 0.60384073
-0.13824775 -0.53515826 0.12076815
-0.07786367 -0.53515826 0.18115222
-0.07786367 -0.59554234 0.24153629
-0.07786367 -0.59554234 0.36230444
-0.07786367 -0.59554234 0.48307259
-0.07786367 -0.59554234 0.60384073
-0.07786367 -0.53515826 0.66422481
-0.07786367 -0.41439012 0.06038407
-0.07786367 -0.47477419 0.12076815
-0.07786367 -0.41439012 0.66422481
-0.13824775 -0.29362197 -0.60384073
-0.07786367 -0.29362197 -0.66422481
-0.07786367 -0.35400604 -0.60384073
-0.07786367 -0.35400604 -0.48307259
-0.13824775 -0.29362197 -0.48307259
-0.07786367 -0.35400604 -0.36230444
-0.13824775 -0.29362197 -0.36230444
-0.07786367 -0.29362197 -0.30192037
-0.07786367 -0.29362197 -0.06038407
-0.07786367 -0.35400604 0.00000000
-0.07786367 -0.35400604 0.72460888
-0.07786367 -0.29362197 0.78499295
-0.13824775 -0.17285382 -0.84537703
-0.07786367 -0.17285382 -0.90576110
-0.07786367 -0.23323790 -0.84537703
-0.07786367 -0.23323790 -0.72460888
-0.07786367 -0.23323790 -0.24153629
-0.07786367 -0.23323790 -0.12076815
-0.07786367 -0.17285382 0.78499295
-0.07786367 -0.05208568 -0.90576110
-0.07786367 -0.11246975 0.84537703
-0.13824775 -0.05208568 0.84537703
-0.07786367 -0.05208568 0.90576110
-0.07786367 0.06868247 -0.90576110
-0.13824775 0.06868247 0.84537703
-0.07786367 0.06868247 0.90576110
-0.07786367 0.18945062 -0.90576110
-0.07786367 0.18945062 0.90576110
-0.07786367 0.24983469 -0.84537703
-0.07786367 0.31021876 -0.78499295
-0.13824775 0.31021876 0.84537703
-0.07786367 0.31021876 0.90576110
-0.07786367 0.37060284 -0.72460888
-0.13824775 0.43098691 -0.60384073
-0.07786367 0.43098691 -0.66422481
-0.13824775 0.43098691 -0.48307259
-0.13824775 0.43098691 -0.36230444
-0.13824775 0.43098691 -0.24153629
-0.13824775 0.43098691 -0.12076815
-0.07786367 0.37060284 0.72460888
-0.07786367 0.43098691 0.66422481
-0.07786367 0.37060284 0.84537703
-0.07786367 0.49137098 -0.60384073
-0.07786367 0.49137098 -0.48307259
-0.07786367 0.49137098 -0.36230444
-0.07786367 0.49137098 -0.24153629
-0.07786367 0.49137098 -0.12076815
-0.07786367 0.49137098 0.00000000
-0.07786367 0.49137098 0.12076815
-0.07786367 0.49137098 0.24153629
-0.07786367 0.49137098 0.36230444
-0.07786367 0.49137098 0.48307259
-0.07786367 0.49137098 0.60384073
0.04290447 -0.53515826 0.18115222
0.04290447 -0.59554234 0.24153629
0.04290447 -0.59554234 0.36230444
0.04290447 -0.59554234 0.48307259
0.04290447 -0.59554234 0.60384073
0.04290447 -0.53515826 0.66422481
-0.01747960 -0.41439012 -0.48307259
0.04290447 -0.41439012 -0.54345666
0.04290447 -0.47477419 -0.48307259
0.04290447 -0.41439012 -0.42268851
0.04290447 -0.41439012 0.06038407
0.04290447 -0.47477419 0.12076815
0.04290447 -0.41439012 0.66422481
-0.01747960 -0.29362197 -0.72460888
0.04290447 -0.29362197 -0.78499295
0.04290447 -0.35400604 -0.72460888
0.04290447 -0.35400604 -0.60384073
0.04290447 -0.35400604 -0.36230444
0.04290447 -0.35400604 -0.24153629
-0.01747960 -0.29362197 -0.24153629
0.04290447 -0.35400604 -0.12076815
-0.01747960 -0.29362197 -0.12076815
0.04290447 -0.35400604 0.00000000
0.04290447 -0.35400604 0.72460888
0.04290447 -0.29362197 0.78499295
0.04290447 -0.17285382 -0.90576110
0.04290447 -0.23323790 -0.84537703
0.04290447 -0.17285382 0.78499295
0.04290447 -0.05208568 -0.90576110
0.04290447 -0.11246975 0.84537703
0.04290447 -0.05208568 0.90576110
0.04290447 0.06868247 -0.90576110
0.04290447 0.06868247 0.90576110
0.04290447 0.18945062 -0.90576110
0.04290447 0.18945062 0.90576110
0.04290447 0.24983469 -0.84537703
0.04290447 0.31021876 -0.78499295
0.04290447 0.31021876 0.90576110
0.04290447 0.37060284 -0.72460888
-0.01747960 0.43098691 -0.60384073
0.04290447 0.37060284 -0.60384073
0.04290447 0.43098691 -0.54345666
0.04290447 0.37060284 0.72460888
0.04290447 0.43098691 0.66422481
0.04290447 0.37060284 0.84537703
0.04290447 0.49137098 -0.48307259
-0.01747960 0.55175505 -0.36230444
0.04290447 0.55175505 -0.42268851
0.04290447 0.55175505 -0.30192037
0.04290447 0.49137098 -0.24153629
0.04290447 0.49137098 -0.12076815
0.04290447 0.49137098 0.00000000
0.04290447 0.49137098 0.12076815
0.04290447 0.49137098 0.24153629
0.04290447 0.49137098 0.36230444
0.04290447 0.49137098 0.48307259
0.04290447 0.49137098 0.60384073
0.04290447 0.61213913 -0.36230444
0.16367262 -0.53515826 0.18115222
0.16367262 -0.59554234 0.24153629
0.16367262 -0.59554234 0.36230444
0.16367262 -0.59554234 0.48307259
0.10328855 -0.53515826 0.60384073
0.16367262 -0.53515826 0.54345666
0.16367262 -0.41439012 -0.54345666
0.16367262 -0.47477419 -0.48307259
0.16367262 -0.47477419 -0.36230444
0.10328855 -0.41439012 -0.36230444
0.16367262 -0.41439012 -0.30192037
0.16367262 -0.41439012 0.06038407
0.16367262 -0.47477419 0.12076815
0.16367262 -0.47477419 0.60384073
0.16367262 -0.41439012 0.66422481
0.10328855 -0.29362197 -0.72460888
0.16367262 -0.29362197 -0.66422481
0.16367262 -0.35400604 -0.60384073
0.16367262 -0.35400604 -0.24153629
0.16367262 -0.35400604 -0.12076815
0.16367262 -0.35400604 0.00000000
0.16367262 -0.35400604 0.72460888
0.16367262 -0.29362197 0.78499295
0.16367262 -0.17285382 -0.90576110
0.16367262 -0.23323790 -0.84537703
0.16367262 -0.23323790 -0.72460888
0.16367262 -0.17285382 0.78499295
0.16367262 -0.05208568 -0.90576110
0.10328855 -0.05208568 0.84537703
0.16367262 -0.05208568 0.78499295
0.16367262 0.06868247 -0.90576110
0.16367262 0.00829840 0.84537703
0.16367262 0.06868247 0.90576110
0.16367262 0.18945062 -0.90576110
0.16367262 0.18945062 0.90576110
0.16367262 0.24983469 -0.84537703
0.16367262 0.31021876 -0.78499295
0.10328855 0.31021876 0.84537703
0.16367262 0.24983469 0.84537703
0.16367262 0.31021876 0.78499295
0.16367262 0.37060284 -0.72460888
0.10328855 0.43098691 -0.60384073
0.16367262 0.43098691 -0.66422481
0.10328855 0.43098691 0.12076815
0.16367262 0.37060284 0.12076815
0.16367262 0.43098691 0.06038407
0.16367262 0.43098691 0.18115222
0.10328855 0.43098691 0.60384073
0.16367262 0.37060284 0.60384073
0.16367262 0.43098691 0.54345666
0.16367262 0.37060284 0.72460888
0.16367262 0.49137098 -0.60384073
0.10328855 0.55175505 -0.48307259
0.16367262 0.55175505 -0.54345666
0.16367262 0.49137098 -0.24153629
0.16367262 0.55175505 -0.30192037
0.16367262 0.49137098 -0.12076815
0.16367262 0.49137098 0.00000000
0.16367262 0.49137098 0.24153629
0.16367262 0.49137098 0.36230444
0.16367262 0.49137098 0.48307259
0.16367262 0.61213913 -0.48307259
0.16367262 0.61213913 -0.36230444
0.22405669 -0.53515826 0.24153629
0.22405669 -0.53515826 0.36230444
0.22405669 -0.53515826 0.48307259
0.28444077 -0.41439012 -0.54345666
0.28444077 -0.47477419 -0.48307259
0.28444077 -0.47477419 -0.36230444
0.28444077 -0.41439012 -0.30192037
0.22405669 -0.41439012 0.12076815
0.28444077 -0.41439012 0.18115222
0.28444077 -0.47477419 0.24153629
0.28444077 -0.47477419 0.36230444
0.28444077 -0.47477419 0.48307259
0.28444077 -0.47477419 0.60384073
0.28444077 -0.41439012 0.66422481
0.28444077 -0.29362197 -0.66422481
0.28444077 -0.35400604 -0.60384073
0.28444077 -0.35400604 -0.24153629
0.28444077 -0.35400604 -0.12076815
0.28444077 -0.35400604 0.00000000
0.28444077 -0.35400604 0.12076815
0.28444077 -0.35400604 0.72460888
0.28444077 -0.29362197 0.78499295
0.22405669 -0.17285382 -0.84537703
0.22405669 -0.17285382 -0.72460888
0.28444077 -0.17285382 -0.66422481
0.28444077 -0.17285382 0.78499295
0.22405669 -0.05208568 -0.84537703
0.22405669 -0.05208568 -0.72460888
0.28444077 -0.05208568 -0.66422481
0.28444077 -0.05208568 0.78499295
0.22405669 0.06868247 -0.84537703
0.22405669 0.06868247 -0.72460888
0.28444077 0.06868247 -0.66422481
0.22405669 0.06868247 0.84537703
0.28444077 0.06868247 0.78499295
0.22405669 0.18945062 -0.84537703
0.22405669 0.18945062 -0.72460888
0.28444077 0.18945062 -0.66422481
0.22405669 0.18945062 0.84537703
0.28444077 0.18945062 0.78499295
0.22405669 0.31021876 -0.72460888
0.28444077 0.31021876 -0.66422481
0.28444077 0.31021876 0.78499295
0.22405669 0.43098691 -0.60384073
0.28444077 0.37060284 -0.60384073
0.28444077 0.43098691 -0.54345666
0.22405669 0.43098691 0.00000000
0.28444077 0.37060284 0.00000000
0.28444077 0.43098691 -0.06038407
0.28444077 0.37060284 0.12076815
0.22405669 0.43098691 0.24153629
0.28444077 0.37060284 0.24153629
0.22405669 0.43098691 0.36230444
0.28444077 0.37060284 0.36230444
0.22405669 0.43098691 0.48307259
0.28444077 0.37060284 0.48307259
0.28444077 0.37060284 0.60384073
0.28444077 0.37060284 0.72460888
0.22405669 0.55175505 -0.48307259
0.28444077 0.49137098 -0.48307259
0.22405669 0.55175505 -0.36230444
0.28444077 0.49137098 -0.36230444
0.28444077 0.49137098 -0.24153629
0.28444077 0.49137098 -0.12076815
0.34482484 -0.41439012 -0.48307259
0.34482484 -0.41439012 -0.36230444
0.34482484 -0.41439012 0.24153629
0.34482484 -0.41439012 0.36230444
0.34482484 -0.41439012 0.48307259
0.34482484 -0.41439012 0.60384073
0.34482484 -0.29362197 -0.60384073
0.40520891 -0.29362197 -0.54345666
0.40520891 -0.35400604 -0.48307259
0.40520891 -0.35400604 -0.36230444
0.40520891 -0.35400604 -0.24153629
0.40520891 -0.35400604 -0.12076815
0.40520891 -0.35400604 0.00000000
0.40520891 -0.35400604 0.12076815
0.40520891 -0.35400604 0.24153629
0.40520891 -0.35400604 0.36230444
0.40520891 -0.35400604 0.48307259
0.40520891 -0.35400604 0.60384073
0.34482484 -0.29362197 0.72460888
0.40520891 -0.29362197 0.66422481
0.40520891 -0.17285382 -0.66422481
0.40520891 -0.23323790 -0.60384073
0.40520891 -0.23323790 0.72460888
0.40520891 -0.17285382 0.78499295
0.40520891 -0.05208568 -0.66422481
0.40520891 -0.05208568 0.78499295
0.40520891 0.06868247 -0.66422481
0.40520891 0.06868247 0.78499295
0.40520891 0.18945062 -0.66422481
0.40520891 0.18945062 0.78499295
0.40520891 0.24983469 -0.60384073
0.34482484 0.31021876 -0.60384073
0.40520891 0.31021876 -0.54345666
0.34482484 0.31021876 0.36230444
0.40520891 0.24983469 0.36230444
0.40520891 0.31021876 0.30192037
0.40520891 0.31021876 0.42268851
0.40520891 0.31021876 0.78499295
0.34482484 0.43098691 -0.48307259
0.40520891 0.37060284 -0.48307259
0.34482484 0.43098691 -0.36230444
0.40520891 0.37060284 -0.36230444
0.34482484 0.43098691 -0.24153629
0.40520891 0.37060284 -0.24153629
0.40520891 0.43098691 -0.18115222
0.40520891 0.37060284 0.00000000
0.40520891 0.43098691 -0.06038407
0.40520891 0.37060284 0.12076815
0.40520891 0.37060284 0.24153629
0.40520891 0.37060284 0.48307259
0.40520891 0.37060284 0.60384073
0.40520891 0.37060284 0.72460888
0.40520891 0.49137098 -0.12076815
0.46559299 -0.29362197 -0.48307259
0.52597706 -0.29362197 -0.42268851
0.52597706 -0.35400604 -0.36230444
0.52597706 -0.35400604 -0.24153629
0.52597706 -0.35400604 -0.12076815
0.46559299 -0.29362197 0.00000000
0.52597706 -0.29362197 -0.06038407
0.46559299 -0.29362197 0.12076815
0.46559299 -0.29362197 0.24153629
0.46559299 -0.29362197 0.36230444
0.46559299 -0.29362197 0.48307259
0.46559299 -0.29362197 0.60384073
0.52597706 -0.17285382 -0.66422481
0.52597706 -0.23323790 -0.60384073
0.52597706 -0.23323790 -0.48307259
0.52597706 -0.23323790 0.00000000
0.52597706 -0.17285382 0.06038407
0.46559299 -0.17285382 0.12076815
0.46559299 -0.17285382 0.24153629
0.46559299 -0.17285382 0.36230444
0.46559299 -0.17285382 0.48307259
0.46559299 -0.17285382 0.60384073
0.46559299 -0.17285382 0.72460888
0.52597706 -0.05208568 -0.66422481
0.52597706 -0.11246975 0.12076815
0.52597706 -0.11246975 0.24153629
0.52597706 -0.05208568 0.30192037
0.46559299 -0.05208568 0.36230444
0.46559299 -0.05208568 0.48307259
0.46559299 -0.05208568 0.60384073
0.46559299 -0.05208568 0.72460888
0.52597706 0.06868247 -0.66422481
0.46559299 0.06868247 0.36230444
0.52597706 0.06868247 0.30192037
0.46559299 0.06868247 0.48307259
0.46559299 0.06868247 0.60384073
0.46559299 0.06868247 0.72460888
0.52597706 0.12906654 -0.60384073
0.46559299 0.18945062 -0.60384073
0.52597706 0.18945062 -0.54345666
0.46559299 0.18945062 0.36230444
0.52597706 0.18945062 0.30192037
0.46559299 0.18945062 0.48307259
0.46559299 0.18945062 0.60384073
0.46559299 0.18945062 0.72460888
0.46559299 0.31021876 -0.48307259
0.52597706 0.24983469 -0.48307259
0.52597706 0.31021876 -0.42268851
0.46559299 0.31021876 0.12076815
0.52597706 0.24983469 0.12076815
0.52597706 0.31021876 0.06038407
0.46559299 0.31021876 0.24153629
0.52597706 0.24983469 0.24153629
0.46559299 0.31021876 0.48307259
0.46559299 0.31021876 0.60384073
0.46559299 0.31021876 0.72460888
0.52597706 0.37060284 -0.36230444
0.52597706 0.37060284 -0.24153629
0.46559299 0.43098691 -0.12076815
0.52597706 0.37060284 -0.12076815
0.52597706 0.37060284 0.00000000
0.58636113 -0.29362197 -0.36230444
0.58636113 -0.29362197 -0.24153629
0.58636113 -0.29362197 -0.12076815
0.58636113 -0.17285382 -0.60384073
0.58636113 -0.17285382 -0.48307259
0.64674521 -0.17285382 -0.42268851
0.64674521 -0.23323790 -0.36230444
0.64674521 -0.23323790 -0.24153629
0.64674521 -0.23323790 -0.12076815
0.58636113 -0.17285382 0.00000000
0.64674521 -0.17285382 -0.06038407
0.58636113 -0.05208568 -0.60384073
0.64674521 -0.05208568 -0.54345666
0.64674521 -0.11246975 -0.48307259
0.58636113 -0.05208568 0.00000000
0.64674521 -0.05208568 -0.06038407
0.58636113 -0.05208568 0.12076815
0.58636113 -0.05208568 0.24153629
0.58636113 0.06868247 -0.60384073
0.64674521 0.00829840 -0.48307259
0.58636113 0.06868247 -0.48307259
0.64674521 0.06868247 -0.42268851
0.64674521 0.00829840 0.00000000
0.64674521 0.06868247 0.06038407
0.58636113 0.06868247 0.12076815
0.58636113 0.06868247 0.24153629
0.58636113 0.18945062 -0.48307259
0.64674521 0.18945062 -0.42268851
0.58636113 0.18945062 0.12076815
0.64674521 0.18945062 0.06038407
0.58636113 0.18945062 0.24153629
0.64674521 0.31021876 -0.42268851
0.64674521 0.31021876 0.06038407
0.64674521 0.37060284 -0.36230444
0.64674521 0.37060284 -0.24153629
0.64674521 0.37060284 -0.12076815
0.64674521 0.37060284 0.00000000
0.76751335 -0.17285382 -0.42268851
0.76751335 -0.23323790 -0.36230444
0.70712928 -0.17285382 -0.24153629
0.76751335 -0.17285382 -0.30192037
0.70712928 -0.17285382 -0.12076815
0.70712928 -0.05208568 -0.48307259
0.76751335 -0.11246975 -0.36230444
0.70712928 -0.05208568 -0.36230444
0.70712928 -0.05208568 -0.24153629
0.70712928 -0.05208568 -0.12076815
0.70712928 0.06868247 -0.36230444
0.70712928 0.06868247 -0.24153629
0.70712928 0.06868247 -0.12076815
0.70712928 0.06868247 0.00000000
0.70712928 0.18945062 -0.36230444
0.70712928 0.18945062 -0.24153629
0.70712928 0.18945062 -0.12076815
0.70712928 0.18945062 0.00000000
0.70712928 0.31021876 -0.36230444
0.70712928 0.31021876 -0.24153629
0.70712928 0.31021876 -0.12076815
0.70712928 0.31021876 0.00000000
0.82789742 -0.17285382 -0.36230444
3 2 1 0
3 0 3 2
3 1 4 0
3 0 4 3
3 7 6 5
3 9 8 5
3 5 8 7
3 11 10 9
3 9 10 8
3 13 12 11
3 11 12 10
3 13 14 12
3 5 6 15
3 15 6 16
3 15 1 2
3 9 15 2
3 5 15 9
3 9 2 3
3 17 9 3
3 11 9 17
3 11 18 13
3 11 17 18
3 14 13 19
3 19 13 18
3 22 21 20
3 22 20 16
3 20 15 16
3 20 23 15
3 24 4 1
3 15 24 1
3 23 24 15
3 17 3 4
3 24 17 4
3 25 17 24
3 17 26 18
3 17 25 26
3 19 18 27
3 27 18 26
3 20 21 28
3 28 21 29
3 20 30 23
3 20 28 30
3 23 31 24
3 23 30 31
3 24 32 25
3 24 31 32
3 25 33 26
3 25 32 33
3 27 26 34
3 34 26 33
3 29 35 28
3 37 36 35
3 36 28 35
3 36 30 28
3 30 38 31
3 30 36 38
3 31 39 32
3 31 38 39
3 32 40 33
3 32 39 40
3 34 33 41
3 41 33 40
3 37 42 36
3 44 43 42
3 43 36 42
3 43 38 36
3 38 45 39
3 38 43 45
3 47 40 46
3 40 45 46
3 40 39 45
3 40 47 41
3 44 48 43
3 43 48 45
3 45 48 49
3 45 49 46
3 52 51 50
3 54 53 50
3 50 53 52
3 56 55 54
3 54 55 53
3 58 57 56
3 56 57 55
3 58 59 57
3 62 61 60
3 62 60 51
3 51 60 50
3 60 6 50
3 6 7 50
3 50 7 8
3 50 8 54
3 54 8 10
3 54 10 56
3 56 10 12
3 56 12 58
3 12 14 58
3 14 59 58
3 14 63 59
3 60 61 64
3 64 61 65
3 64 16 6
3 64 6 60
3 19 67 66
3 63 19 66
3 14 19 63
3 67 68 66
3 64 65 22
3 65 21 22
3 65 69 21
3 64 22 16
3 27 70 67
3 27 67 19
3 68 67 71
3 71 67 70
3 69 29 21
3 72 29 69
3 34 73 70
3 34 70 27
3 71 70 74
3 74 70 73
3 35 29 75
3 29 76 75
3 29 72 76
3 75 37 35
3 41 77 73
3 41 73 34
3 74 73 78
3 78 73 77
3 75 76 79
3 79 76 80
3 81 42 37
3 75 81 37
3 79 81 75
3 81 44 42
3 46 82 47
3 77 41 47
3 82 77 47
3 83 77 82
3 78 77 84
3 84 77 83
3 80 85 79
3 79 85 81
3 81 85 86
3 81 86 44
3 86 48 44
3 86 87 48
3 48 88 49
3 87 88 48
3 46 49 82
3 49 89 82
3 49 88 89
3 82 89 83
3 83 89 90
3 83 90 84
3 93 92 91
3 95 94 91
3 91 94 93
3 97 96 95
3 95 96 94
3 99 98 97
3 97 98 96
3 99 100 98
3 103 102 101
3 103 101 92
3 92 101 91
3 101 51 91
3 51 52 91
3 91 52 53
3 91 53 95
3 95 53 55
3 95 55 97
3 97 55 57
3 97 57 99
3 57 59 99
3 59 100 99
3 59 104 100
3 101 102 62
3 102 61 62
3 102 105 61
3 101 62 51
3 63 104 59
3 63 106 104
3 109 108 107
3 105 109 107
3 65 105 107
3 61 105 65
3 110 106 63
3 110 63 66
3 66 68 110
3 110 68 111
3 107 108 112
3 112 108 113
3 112 69 65
3 112 65 107
3 71 111 68
3 71 114 111
3 112 113 115
3 115 113 116
3 115 72 69
3 115 69 112
3 74 114 71
3 74 117 114
3 115 116 118
3 118 116 119
3 118 76 72
3 118 72 115
3 78 117 74
3 78 120 117
3 119 121 118
3 76 118 121
3 122 76 121
3 80 76 122
3 84 120 78
3 84 123 120
3 85 80 124
3 80 125 124
3 80 122 125
3 126 86 85
3 126 85 124
3 127 87 86
3 127 86 126
3 128 88 87
3 128 87 127
3 88 128 129
3 130 88 129
3 89 88 130
3 89 131 90
3 130 131 89
3 84 90 123
3 123 90 131
3 125 132 124
3 124 132 126
3 126 132 133
3 126 133 127
3 127 133 134
3 127 134 128
3 128 134 135
3 128 135 129
3 138 137 136
3 136 92 138
3 92 93 138
3 140 139 138
3 140 138 93
3 140 93 141
3 93 142 141
3 93 94 142
3 143 94 96
3 143 142 94
3 144 96 98
3 144 143 96
3 98 100 144
3 144 100 145
3 136 137 103
3 137 102 103
3 137 146 102
3 140 147 139
3 92 136 103
3 147 140 141
3 104 145 100
3 104 148 145
3 151 150 149
3 146 151 149
3 105 146 149
3 102 146 105
3 106 153 152
3 148 106 152
3 104 106 148
3 153 154 152
3 149 150 109
3 150 108 109
3 150 155 108
3 149 109 105
3 110 153 106
3 110 111 153
3 111 154 153
3 111 156 154
3 159 158 157
3 155 159 157
3 113 155 157
3 108 155 113
3 114 156 111
3 114 160 156
3 157 158 161
3 161 158 162
3 161 116 113
3 161 113 157
3 117 160 114
3 117 163 160
3 162 164 161
3 116 161 164
3 165 116 164
3 119 116 165
3 120 163 117
3 120 166 163
3 121 119 167
3 119 168 167
3 119 165 168
3 167 122 121
3 123 166 120
3 123 169 166
3 168 170 167
3 122 167 170
3 171 122 170
3 125 122 171
3 173 172 130
3 173 130 129
3 130 174 131
3 172 174 130
3 123 131 169
3 169 131 174
3 171 175 125
3 125 175 132
3 132 176 133
3 175 176 132
3 133 177 134
3 176 177 133
3 134 178 135
3 177 178 134
3 129 135 173
3 173 135 178
3 180 179 138
3 138 179 137
3 182 181 139
3 181 138 139
3 181 180 138
3 141 142 182
3 142 181 182
3 142 183 181
3 184 142 143
3 184 183 142
3 185 143 144
3 185 184 143
3 144 145 185
3 185 145 186
3 179 146 137
3 187 146 179
3 147 182 139
3 182 147 141
3 148 186 145
3 148 188 186
3 190 189 151
3 151 189 150
3 151 146 187
3 151 187 190
3 191 188 148
3 191 148 152
3 152 154 191
3 191 154 192
3 195 194 193
3 197 196 193
3 193 196 195
3 199 198 197
3 197 198 196
3 201 200 199
3 199 200 198
3 203 202 201
3 201 202 200
3 205 204 203
3 203 204 202
3 189 204 205
3 155 189 205
3 150 189 155
3 156 192 154
3 156 206 192
3 209 208 207
3 209 207 194
3 207 193 194
3 207 210 193
3 193 211 197
3 193 210 211
3 197 212 199
3 197 211 212
3 199 213 201
3 199 212 213
3 201 214 203
3 201 213 214
3 214 158 159
3 205 214 159
3 203 214 205
3 205 159 155
3 160 206 156
3 160 215 206
3 207 208 216
3 216 208 217
3 207 218 210
3 207 216 218
3 210 219 211
3 210 218 219
3 211 220 212
3 211 219 220
3 212 221 213
3 212 220 221
3 213 222 214
3 213 221 222
3 222 162 158
3 222 158 214
3 163 215 160
3 163 223 215
3 216 217 224
3 224 217 225
3 216 226 218
3 216 224 226
3 218 227 219
3 218 226 227
3 219 228 220
3 219 227 228
3 220 229 221
3 220 228 229
3 221 230 222
3 221 229 230
3 231 164 162
3 222 231 162
3 230 231 222
3 231 165 164
3 166 233 232
3 223 166 232
3 163 166 223
3 233 234 232
3 225 235 224
3 237 236 235
3 236 224 235
3 236 226 224
3 226 238 227
3 226 236 238
3 227 239 228
3 227 238 239
3 228 240 229
3 228 239 240
3 229 241 230
3 229 240 241
3 230 242 231
3 230 241 242
3 242 168 165
3 242 165 231
3 244 243 233
3 166 244 233
3 169 244 166
3 233 243 234
3 237 245 236
3 236 245 238
3 238 245 246
3 238 246 239
3 239 246 247
3 239 247 240
3 240 247 248
3 240 248 241
3 241 248 249
3 241 249 242
3 242 249 250
3 250 252 251
3 250 251 170
3 242 250 170
3 168 242 170
3 251 171 170
3 173 253 172
3 172 253 254
3 255 172 254
3 174 172 255
3 169 174 244
3 244 174 255
3 252 256 251
3 251 256 171
3 256 175 171
3 256 257 175
3 175 258 176
3 257 258 175
3 176 259 177
3 258 259 176
3 177 260 178
3 259 260 177
3 173 178 253
3 178 261 253
3 178 260 261
3 253 261 254
3 262 179 180
3 262 180 263
3 180 264 263
3 180 181 264
3 265 181 183
3 265 264 181
3 266 183 184
3 266 265 183
3 267 184 185
3 267 266 184
3 185 186 267
3 267 186 268
3 270 269 262
3 269 179 262
3 269 187 179
3 270 262 263
3 188 268 186
3 188 271 268
3 274 273 272
3 276 275 272
3 272 275 274
3 278 277 276
3 276 277 275
3 278 279 277
3 281 280 190
3 190 280 189
3 190 187 269
3 190 269 281
3 282 271 188
3 282 188 191
3 191 192 282
3 282 192 283
3 286 285 284
3 194 195 284
3 195 286 284
3 195 287 286
3 196 272 273
3 287 196 273
3 195 196 287
3 272 196 198
3 272 198 276
3 276 198 200
3 276 200 278
3 288 279 278
3 200 288 278
3 202 288 200
3 289 202 204
3 289 288 202
3 204 189 280
3 204 280 289
3 206 283 192
3 206 290 283
3 284 285 209
3 285 208 209
3 285 291 208
3 284 209 194
3 215 293 292
3 290 215 292
3 206 215 290
3 293 294 292
3 291 217 208
3 295 217 291
3 223 296 293
3 223 293 215
3 294 293 297
3 297 293 296
3 295 225 217
3 298 225 295
3 232 296 223
3 232 234 296
3 234 297 296
3 234 299 297
3 298 300 225
3 225 300 235
3 237 235 300
3 237 300 301
3 244 302 243
3 302 303 243
3 303 234 243
3 303 299 234
3 301 304 237
3 237 304 245
3 304 306 305
3 246 304 305
3 245 304 246
3 307 247 246
3 307 246 305
3 308 248 247
3 308 247 307
3 309 249 248
3 309 248 308
3 310 250 249
3 310 249 309
3 310 252 250
3 312 311 255
3 312 255 254
3 244 255 302
3 255 313 302
3 255 311 313
3 302 313 303
3 306 314 305
3 305 314 307
3 307 314 315
3 307 315 308
3 308 315 316
3 308 316 309
3 309 316 317
3 309 317 310
3 310 317 318
3 310 318 252
3 318 256 252
3 318 319 256
3 256 320 257
3 319 320 256
3 257 321 258
3 320 321 257
3 258 322 259
3 321 322 258
3 259 323 260
3 322 323 259
3 260 324 261
3 323 324 260
3 254 261 312
3 312 261 324
3 326 325 264
3 264 325 263
3 327 264 265
3 327 326 264
3 328 265 266
3 328 327 265
3 329 266 267
3 329 328 266
3 267 268 329
3 329 268 330
3 333 332 331
3 331 334 333
3 336 335 270
3 270 335 269
3 270 263 325
3 270 325 336
3 271 330 268
3 271 337 330
3 340 339 338
3 273 274 338
3 274 340 338
3 274 341 340
3 275 331 332
3 341 275 332
3 274 275 341
3 342 334 331
3 275 342 331
3 277 342 275
3 344 343 279
3 343 277 279
3 343 342 277
3 346 345 344
3 344 345 343
3 280 281 346
3 281 345 346
3 281 347 345
3 281 269 335
3 281 335 347
3 348 337 271
3 348 271 282
3 282 283 348
3 348 283 349
3 351 350 286
3 286 350 285
3 287 338 339
3 351 287 339
3 286 287 351
3 338 287 273
3 288 344 279
3 344 288 289
3 344 289 346
3 346 289 280
3 290 349 283
3 290 352 349
3 350 291 285
3 353 291 350
3 354 352 290
3 354 290 292
3 292 294 354
3 354 294 355
3 353 295 291
3 356 295 353
3 297 355 294
3 297 357 355
3 356 298 295
3 358 298 356
3 299 357 297
3 299 359 357
3 358 360 298
3 298 360 300
3 301 300 360
3 301 360 361
3 303 359 299
3 303 362 359
3 361 363 301
3 301 363 304
3 365 364 306
3 304 365 306
3 363 365 304
3 366 364 365
3 368 367 311
3 368 311 312
3 311 369 313
3 367 369 311
3 303 313 362
3 362 313 369
3 364 314 306
3 366 370 364
3 370 314 364
3 370 315 314
3 370 372 371
3 316 370 371
3 315 370 316
3 316 371 373
3 374 316 373
3 317 316 374
3 317 375 318
3 374 375 317
3 318 376 319
3 375 376 318
3 319 377 320
3 376 377 319
3 320 378 321
3 377 378 320
3 321 379 322
3 378 379 321
3 322 380 323
3 379 380 322
3 323 381 324
3 380 381 323
3 312 324 368
3 368 324 381
3 372 382 371
3 371 382 373
3 384 383 326
3 326 383 325
3 385 326 327
3 385 384 326
3 386 327 328
3 386 385 327
3 388 386 387
3 386 329 387
3 386 328 329
3 330 387 329
3 390 389 333
3 333 389 332
3 392 391 334
3 391 333 334
3 391 390 333
3 392 393 391
3 395 394 336
3 336 394 335
3 336 325 383
3 336 383 395
3 396 388 387
3 387 330 396
3 330 397 396
3 330 337 397
3 398 339 340
3 398 340 399
3 340 400 399
3 340 341 400
3 341 332 389
3 341 389 400
3 342 392 334
3 401 393 392
3 342 401 392
3 343 401 342
3 402 343 345
3 402 401 343
3 403 345 347
3 403 402 345
3 347 335 394
3 347 394 403
3 404 397 337
3 404 337 348
3 348 349 404
3 404 349 405
3 407 406 351
3 351 406 350
3 351 339 398
3 408 351 398
3 407 351 408
3 408 398 399
3 352 405 349
3 352 409 405
3 406 353 350
3 410 353 406
3 352 354 411
3 412 352 411
3 409 352 412
3 355 411 354
3 410 356 353
3 413 356 410
3 414 412 411
3 411 355 414
3 355 415 414
3 355 357 415
3 413 358 356
3 416 358 413
3 359 415 357
3 359 417 415
3 416 418 358
3 358 418 360
3 361 360 418
3 361 418 419
3 422 421 420
3 421 417 420
3 417 362 420
3 417 359 362
3 419 423 361
3 361 423 363
3 423 425 424
3 365 423 424
3 363 423 365
3 424 366 365
3 428 427 426
3 429 426 427
3 432 431 430
3 367 368 430
3 431 367 430
3 433 367 431
3 420 369 422
3 369 433 422
3 369 367 433
3 369 420 362
3 425 434 424
3 434 436 435
3 434 435 370
3 424 434 370
3 366 424 370
3 435 372 370
3 438 437 374
3 438 374 373
3 374 439 375
3 437 439 374
3 375 440 376
3 439 440 375
3 426 377 428
3 377 440 428
3 377 376 440
3 429 441 426
3 441 377 426
3 441 378 377
3 378 442 379
3 441 442 378
3 379 443 380
3 442 443 379
3 430 381 432
3 381 443 432
3 381 380 443
3 381 430 368
3 436 444 435
3 435 444 372
3 444 382 372
3 444 445 382
3 373 382 438
3 438 382 445
3 446 383 384
3 385 447 384
3 384 447 446
3 386 448 385
3 385 448 447
3 388 448 386
3 450 449 390
3 390 449 389
3 451 390 391
3 451 450 390
3 391 393 451
3 451 393 452
3 453 394 395
3 454 453 395
3 454 395 383
3 455 454 383
3 446 455 383
3 455 446 447
3 455 447 456
3 456 447 448
3 456 448 457
3 457 448 388
3 396 457 388
3 458 457 396
3 396 397 458
3 458 397 459
3 461 460 400
3 400 460 399
3 400 389 449
3 400 449 461
3 462 452 393
3 462 393 401
3 463 401 402
3 463 462 401
3 464 402 403
3 464 463 402
3 403 394 453
3 465 403 453
3 464 403 465
3 465 453 454
3 466 459 397
3 466 397 404
3 404 405 466
3 466 405 467
3 468 406 407
3 408 469 407
3 407 469 468
3 470 469 408
3 399 470 408
3 460 470 399
3 409 467 405
3 409 471 467
3 472 410 468
3 468 410 406
3 473 468 469
3 472 468 473
3 469 470 474
3 469 474 473
3 412 471 409
3 412 475 471
3 476 413 472
3 472 413 410
3 477 472 473
3 476 472 477
3 473 474 478
3 473 478 477
3 412 414 479
3 480 412 479
3 475 412 480
3 415 479 414
3 481 416 476
3 476 416 413
3 482 476 477
3 481 476 482
3 477 478 483
3 477 483 482
3 480 479 484
3 480 484 485
3 417 484 415
3 415 484 479
3 481 418 416
3 418 481 419
3 481 486 419
3 481 482 486
3 482 483 487
3 482 487 486
3 485 484 421
3 422 485 421
3 488 485 422
3 421 484 417
3 486 423 419
3 490 489 425
3 490 425 423
3 487 490 423
3 486 487 423
3 491 489 490
3 494 493 492
3 427 428 492
3 493 427 492
3 495 427 493
3 497 496 429
3 427 497 429
3 495 497 427
3 499 498 496
3 499 496 497
3 501 500 498
3 501 498 499
3 431 432 500
3 501 431 500
3 502 431 501
3 431 503 433
3 502 503 431
3 422 433 488
3 488 433 503
3 489 434 425
3 505 504 436
3 505 436 434
3 491 505 434
3 489 491 434
3 507 506 504
3 507 504 505
3 437 438 506
3 507 437 506
3 508 437 507
3 437 509 439
3 508 509 437
3 492 440 494
3 440 509 494
3 440 439 509
3 440 492 428
3 496 441 429
3 441 496 442
3 442 496 498
3 442 498 443
3 443 498 500
3 443 500 432
3 504 444 436
3 444 504 445
3 445 504 506
3 445 506 438
3 510 449 450
3 451 511 450
3 450 511 510
3 452 511 451
3 512 454 455
3 456 513 455
3 455 513 512
3 457 514 456
3 456 514 513
3 458 515 457
3 457 515 514
3 459 515 458
3 516 460 461
3 517 516 461
3 517 461 449
3 518 517 449
3 510 518 449
3 518 510 511
3 518 511 519
3 519 511 452
3 462 519 452
3 520 519 462
3 521 462 463
3 521 520 462
3 522 463 464
3 522 521 463
3 523 464 465
3 523 522 464
3 465 454 512
3 524 465 512
3 523 465 524
3 524 512 513
3 524 513 525
3 525 513 514
3 525 514 526
3 526 514 515
3 526 515 527
3 529 527 528
3 528 527 466
3 527 515 466
3 515 459 466
3 467 528 466
3 531 530 516
3 530 460 516
3 530 470 460
3 531 516 517
3 532 529 528
3 528 467 532
3 467 533 532
3 467 471 533
3 530 474 470
3 534 474 530
3 475 533 471
3 475 535 533
3 534 478 474
3 536 478 534
3 480 535 475
3 480 537 535
3 536 483 478
3 538 483 536
3 485 537 480
3 485 539 537
3 541 487 540
3 487 538 540
3 487 483 538
3 542 541 540
3 545 544 543
3 546 543 544
3 488 539 485
3 488 547 539
3 541 490 487
3 549 548 491
3 549 491 490
3 542 549 490
3 541 542 490
3 551 550 548
3 551 548 549
3 553 552 550
3 553 550 551
3 554 552 553
3 556 555 493
3 556 493 494
3 493 557 495
3 555 557 493
3 495 558 497
3 557 558 495
3 543 499 545
3 499 558 545
3 499 497 558
3 546 559 543
3 559 499 543
3 559 501 499
3 501 560 502
3 559 560 501
3 502 561 503
3 560 561 502
3 488 503 547
3 547 503 561
3 548 505 491
3 505 548 507
3 507 548 550
3 507 550 508
3 508 550 552
3 554 562 552
3 562 508 552
3 562 509 508
3 494 509 556
3 556 509 562
3 563 517 518
3 563 518 564
3 518 565 564
3 518 519 565
3 566 519 520
3 566 565 519
3 567 520 521
3 567 566 520
3 569 567 568
3 567 522 568
3 567 521 522
3 523 570 522
3 522 570 568
3 524 571 523
3 523 571 570
3 525 572 524
3 524 572 571
3 526 573 525
3 525 573 572
3 527 574 526
3 526 574 573
3 529 574 527
3 576 575 531
3 531 575 530
3 531 517 563
3 577 531 563
3 576 531 577
3 577 563 564
3 578 569 568
3 580 579 578
3 568 580 578
3 570 580 568
3 581 570 571
3 580 570 581
3 582 571 572
3 581 571 582
3 583 572 573
3 582 572 583
3 584 573 574
3 583 573 584
3 532 585 529
3 585 574 529
3 585 584 574
3 533 585 532
3 575 534 530
3 586 534 575
3 587 579 580
3 587 580 581
3 587 581 588
3 590 589 588
3 581 590 588
3 582 590 581
3 591 582 583
3 590 582 591
3 592 583 584
3 591 583 592
3 593 584 585
3 592 584 593
3 535 593 533
3 533 593 585
3 586 536 534
3 594 536 586
3 589 590 595
3 589 595 596
3 597 590 591
3 595 590 597
3 598 591 592
3 597 591 598
3 599 592 593
3 598 592 599
3 537 599 535
3 535 599 593
3 601 538 600
3 538 594 600
3 538 536 594
3 602 601 600
3 596 595 603
3 596 603 604
3 605 595 597
3 603 595 605
3 606 597 598
3 605 597 606
3 607 598 599
3 606 598 607
3 539 607 537
3 537 607 599
3 601 540 538
3 609 608 542
3 609 542 540
3 602 609 540
3 601 602 540
3 610 608 609
3 613 612 611
3 615 614 611
3 615 611 612
3 614 615 604
3 614 604 603
3 545 614 603
3 544 545 603
3 544 603 546
3 603 616 546
3 603 605 616
3 617 605 606
3 616 605 617
3 618 606 607
3 617 606 618
3 547 618 539
3 539 618 607
3 608 549 542
3 610 619 608
3 619 549 608
3 619 551 549
3 551 620 553
3 619 620 551
3 622 621 554
3 553 622 554
3 620 622 553
3 555 556 621
3 622 555 621
3 623 555 622
3 611 557 613
3 557 623 613
3 557 555 623
3 557 611 558
3 558 611 614
3 558 614 545
3 616 559 546
3 559 616 560
3 560 616 617
3 560 617 561
3 561 617 618
3 561 618 547
3 621 562 554
3 562 621 556
3 624 564 565
3 566 625 565
3 565 625 624
3 567 626 566
3 566 626 625
3 569 626 567
3 627 575 576
3 577 628 576
3 576 628 627
3 629 628 577
3 629 577 564
3 630 629 564
3 624 630 564
3 630 624 625
3 630 625 631
3 631 625 626
3 631 626 632
3 634 632 633
3 633 632 578
3 632 626 578
3 626 569 578
3 579 633 578
3 635 586 627
3 627 586 575
3 628 637 636
3 635 628 636
3 627 628 635
3 637 628 629
3 634 633 638
3 634 638 639
3 587 640 579
3 640 633 579
3 640 638 633
3 588 641 587
3 587 641 640
3 589 641 588
3 642 594 635
3 635 594 586
3 635 636 643
3 644 635 643
3 642 635 644
3 645 644 643
3 646 639 638
3 648 647 646
3 638 648 646
3 640 648 638
3 649 640 641
3 648 640 649
3 596 649 589
3 589 649 641
3 642 600 594
3 600 642 602
3 642 650 602
3 642 644 650
3 644 645 651
3 644 651 650
3 647 648 652
3 647 652 653
3 654 648 649
3 652 648 654
3 604 654 596
3 596 654 649
3 650 609 602
3 610 609 650
3 651 610 650
3 655 610 651
3 653 652 612
3 613 653 612
3 656 653 613
3 612 652 615
3 615 652 654
3 615 654 604
3 655 657 610
3 610 657 619
3 619 658 620
3 657 658 619
3 620 659 622
3 658 659 620
3 622 660 623
3 659 660 622
3 613 623 656
3 656 623 660
3 662 661 630
3 630 661 629
3 664 662 663
3 662 631 663
3 662 630 631
3 632 665 631
3 631 665 663
3 634 665 632
3 666 636 637
3 629 661 667
3 666 629 667
3 668 666 667
3 637 629 666
3 668 667 664
3 663 668 664
3 669 668 663
3 670 663 665
3 669 663 670
3 639 670 634
3 634 670 665
3 666 643 636
3 643 666 645
3 666 671 645
3 666 668 671
3 672 668 669
3 671 668 672
3 673 669 670
3 672 669 673
3 646 674 639
3 674 670 639
3 674 673 670
3 647 674 646
3 675 651 671
3 671 651 645
3 676 671 672
3 675 671 676
3 677 672 673
3 676 672 677
3 678 673 674
3 677 673 678
3 653 678 647
3 647 678 674
3 679 655 675
3 675 655 651
3 680 675 676
3 679 675 680
3 681 676 677
3 680 676 681
3 682 677 678
3 681 677 682
3 656 682 653
3 653 682 678
3 679 657 655
3 657 679 658
3 658 679 680
3 658 680 659
3 659 680 681
3 659 681 660
3 660 681 682
3 660 682 656
3 683 661 662
3 664 683 662
3 683 667 661
3 667 683 664
