# Asteroid shape model (convexinv -> dual reconstruction)
v -1.20786555 -0.06321086 -0.21428571
v -1.14127782 -0.06321086 -0.28571429
v -1.14127782 -0.12979859 -0.21428571
v -1.14127782 -0.12979859 -0.07142857
v -1.20786555 -0.06321086 -0.07142857
v -1.14127782 -0.12979859 0.07142857
v -1.20786555 -0.06321086 0.07142857
v -1.14127782 -0.06321086 0.14285714
v -1.14127782 0.00337687 -0.21428571
v -1.20786555 0.06996460 -0.07142857
v -1.14127782 0.06996460 -0.14285714
v -1.20786555 0.06996460 0.07142857
v -1.14127782 0.06996460 0.14285714
v -1.14127782 0.13655233 -0.07142857
v -1.14127782 0.13655233 0.07142857
v -1.07469009 -0.32956178 -0.35714286
v -1.00810236 -0.32956178 -0.42857143
v -1.00810236 -0.39614951 -0.35714286
v -1.00810236 -0.39614951 -0.21428571
v -1.07469009 -0.32956178 -0.21428571
v -1.00810236 -0.39614951 -0.07142857
v -1.07469009 -0.32956178 -0.07142857
v -1.00810236 -0.39614951 0.07142857
v -1.07469009 -0.32956178 0.07142857
v -1.00810236 -0.39614951 0.21428571
v -1.07469009 -0.32956178 0.21428571
v -1.00810236 -0.32956178 0.28571429
v -1.07469009 -0.19638632 -0.35714286
v -1.00810236 -0.19638632 -0.42857143
v -1.07469009 -0.19638632 -0.21428571
v -1.07469009 -0.19638632 -0.07142857
v -1.07469009 -0.19638632 0.07142857
v -1.07469009 -0.19638632 0.21428571
v -1.00810236 -0.26297405 0.35714286
v -1.07469009 -0.19638632 0.35714286
v -1.00810236 -0.19638632 0.42857143
v -1.07469009 -0.06321086 -0.50000000
v -1.00810236 -0.06321086 -0.57142857
v -1.00810236 -0.12979859 -0.50000000
v -1.07469009 -0.06321086 -0.35714286
v -1.07469009 -0.06321086 0.21428571
v -1.07469009 -0.06321086 0.35714286
v -1.00810236 -0.06321086 0.42857143
v -1.00810236 0.00337687 -0.50000000
v -1.07469009 0.06996460 -0.35714286
v -1.00810236 0.06996460 -0.42857143
v -1.07469009 0.06996460 -0.21428571
v -1.07469009 0.06996460 0.21428571
v -1.07469009 0.06996460 0.35714286
v -1.00810236 0.06996460 0.42857143
v -1.07469009 0.20314006 -0.35714286
v -1.00810236 0.20314006 -0.42857143
v -1.07469009 0.20314006 -0.21428571
v -1.07469009 0.20314006 -0.07142857
v -1.07469009 0.20314006 0.07142857
v -1.07469009 0.20314006 0.21428571
v -1.07469009 0.20314006 0.35714286
v -1.00810236 0.20314006 0.42857143
v -1.00810236 0.26972779 -0.35714286
v -1.07469009 0.33631552 -0.21428571
v -1.00810236 0.33631552 -0.28571429
v -1.07469009 0.33631552 -0.07142857
v -1.07469009 0.33631552 0.07142857
v -1.07469009 0.33631552 0.21428571
v -1.07469009 0.33631552 0.35714286
v -1.00810236 0.33631552 0.42857143
v -1.00810236 0.40290325 -0.21428571
v -1.00810236 0.40290325 -0.07142857
v -1.00810236 0.40290325 0.07142857
v -1.00810236 0.40290325 0.21428571
v -1.00810236 0.40290325 0.35714286
v -0.94151463 -0.59591270 -0.35714286
v -0.87492690 -0.59591270 -0.42857143
v -0.87492690 -0.66250043 -0.35714286
v -0.87492690 -0.66250043 -0.21428571
v -0.94151463 -0.59591270 -0.21428571
v -0.87492690 -0.66250043 -0.07142857
v -0.94151463 -0.59591270 -0.07142857
v -0.87492690 -0.66250043 0.07142857
v -0.94151463 -0.59591270 0.07142857
v -0.87492690 -0.66250043 0.21428571
v -0.94151463 -0.59591270 0.21428571
v -0.87492690 -0.59591270 0.28571429
v -0.94151463 -0.46273724 -0.50000000
v -0.87492690 -0.46273724 -0.57142857
v -0.87492690 -0.52932497 -0.50000000
v -0.94151463 -0.46273724 -0.35714286
v -0.94151463 -0.46273724 -0.21428571
v -0.94151463 -0.46273724 -0.07142857
v -0.94151463 -0.46273724 0.07142857
v -0.94151463 -0.46273724 0.21428571
v -0.87492690 -0.52932497 0.35714286
v -0.94151463 -0.46273724 0.35714286
v -0.87492690 -0.52932497 0.50000000
v -0.94151463 -0.46273724 0.50000000
v -0.87492690 -0.46273724 0.57142857
v -0.94151463 -0.32956178 -0.64285714
v -0.87492690 -0.32956178 -0.71428571
v -0.87492690 -0.39614951 -0.64285714
v -0.94151463 -0.32956178 -0.50000000
v -0.94151463 -0.32956178 0.35714286
v -0.94151463 -0.32956178 0.50000000
v -0.87492690 -0.39614951 0.64285714
v -0.94151463 -0.32956178 0.64285714
v -0.87492690 -0.32956178 0.71428571
v -0.94151463 -0.19638632 -0.64285714
v -0.87492690 -0.19638632 -0.71428571
v -0.94151463 -0.19638632 -0.50000000
v -0.94151463 -0.19638632 0.50000000
v -0.94151463 -0.19638632 0.64285714
v -0.87492690 -0.19638632 0.71428571
v -0.94151463 -0.06321086 -0.64285714
v -0.87492690 -0.06321086 -0.71428571
v -0.94151463 -0.06321086 0.50000000
v -0.94151463 -0.06321086 0.64285714
v -0.87492690 -0.06321086 0.71428571
v -0.94151463 0.06996460 -0.64285714
v -0.87492690 0.06996460 -0.71428571
v -0.94151463 0.06996460 -0.50000000
v -0.94151463 0.06996460 0.50000000
v -0.94151463 0.06996460 0.64285714
v -0.87492690 0.06996460 0.71428571
v -0.94151463 0.20314006 -0.64285714
v -0.87492690 0.20314006 -0.71428571
v -0.94151463 0.20314006 -0.50000000
v -0.94151463 0.20314006 0.50000000
v -0.94151463 0.20314006 0.64285714
v -0.87492690 0.20314006 0.71428571
v -0.94151463 0.33631552 -0.64285714
v -0.87492690 0.33631552 -0.71428571
v -0.94151463 0.33631552 -0.50000000
v -0.94151463 0.33631552 -0.35714286
v -0.94151463 0.33631552 0.50000000
v -0.94151463 0.33631552 0.64285714
v -0.87492690 0.33631552 0.71428571
v -0.87492690 0.40290325 -0.64285714
v -0.94151463 0.46949099 -0.50000000
v -0.87492690 0.46949099 -0.57142857
v -0.94151463 0.46949099 -0.35714286
v -0.94151463 0.46949099 -0.21428571
v -0.94151463 0.46949099 -0.07142857
v -0.94151463 0.46949099 0.07142857
v -0.94151463 0.46949099 0.21428571
v -0.94151463 0.46949099 0.35714286
v -0.87492690 0.46949099 0.42857143
v -0.87492690 0.40290325 0.50000000
v -0.87492690 0.40290325 0.64285714
v -0.87492690 0.53607872 -0.50000000
v -0.94151463 0.60266645 -0.35714286
v -0.87492690 0.60266645 -0.42857143
v -0.94151463 0.60266645 -0.21428571
v -0.94151463 0.60266645 -0.07142857
v -0.94151463 0.60266645 0.07142857
v -0.94151463 0.60266645 0.21428571
v -0.94151463 0.60266645 0.35714286
v -0.87492690 0.60266645 0.42857143
v -0.87492690 0.66925418 -0.35714286
v -0.87492690 0.66925418 -0.21428571
v -0.87492690 0.66925418 -0.07142857
v -0.87492690 0.66925418 0.07142857
v -0.87492690 0.66925418 0.21428571
v -0.87492690 0.66925418 0.35714286
v -0.80833917 -0.72908816 -0.07142857
v -0.74175144 -0.72908816 -0.14285714
v -0.74175144 -0.79567589 -0.07142857
v -0.74175144 -0.79567589 0.07142857
v -0.80833917 -0.72908816 0.07142857
v -0.74175144 -0.72908816 0.14285714
v -0.80833917 -0.59591270 -0.50000000
v -0.74175144 -0.59591270 -0.57142857
v -0.74175144 -0.66250043 -0.50000000
v -0.74175144 -0.66250043 -0.35714286
v -0.74175144 -0.66250043 -0.21428571
v -0.74175144 -0.66250043 0.21428571
v -0.74175144 -0.66250043 0.35714286
v -0.80833917 -0.59591270 0.35714286
v -0.74175144 -0.66250043 0.50000000
v -0.80833917 -0.59591270 0.50000000
v -0.74175144 -0.59591270 0.57142857
v -0.80833917 -0.46273724 -0.64285714
v -0.74175144 -0.46273724 -0.71428571
v -0.74175144 -0.52932497 -0.64285714
v -0.74175144 -0.52932497 0.64285714
v -0.80833917 -0.46273724 0.64285714
v -0.74175144 -0.46273724 0.71428571
v -0.74175144 -0.32956178 -0.71428571
v -0.74175144 -0.32956178 0.71428571
v -0.80833917 -0.19638632 -0.78571429
v -0.74175144 -0.19638632 -0.85714286
v -0.74175144 -0.26297405 -0.78571429
v -0.74175144 -0.26297405 0.78571429
v -0.80833917 -0.19638632 0.78571429
v -0.74175144 -0.19638632 0.85714286
v -0.80833917 -0.06321086 -0.78571429
v -0.74175144 -0.06321086 -0.85714286
v -0.80833917 -0.06321086 0.78571429
v -0.74175144 -0.06321086 0.85714286
v -0.80833917 0.06996460 -0.78571429
v -0.74175144 0.06996460 -0.85714286
v -0.80833917 0.06996460 0.78571429
v -0.74175144 0.06996460 0.85714286
v -0.80833917 0.20314006 -0.78571429
v -0.74175144 0.20314006 -0.85714286
v -0.80833917 0.20314006 0.78571429
v -0.74175144 0.20314006 0.85714286
v -0.74175144 0.26972779 -0.78571429
v -0.74175144 0.33631552 -0.71428571
v -0.74175144 0.26972779 0.78571429
v -0.74175144 0.33631552 0.71428571
v -0.80833917 0.46949099 -0.64285714
v -0.74175144 0.46949099 -0.71428571
v -0.80833917 0.46949099 0.50000000
v -0.80833917 0.46949099 0.64285714
v -0.74175144 0.46949099 0.71428571
v -0.74175144 0.53607872 -0.64285714
v -0.80833917 0.60266645 -0.50000000
v -0.74175144 0.60266645 -0.57142857
v -0.74175144 0.53607872 0.50000000
v -0.74175144 0.60266645 0.42857143
v -0.74175144 0.53607872 0.64285714
v -0.74175144 0.66925418 -0.50000000
v -0.80833917 0.73584191 -0.35714286
v -0.74175144 0.73584191 -0.42857143
v -0.80833917 0.73584191 -0.21428571
v -0.80833917 0.73584191 -0.07142857
v -0.80833917 0.73584191 0.07142857
v -0.80833917 0.73584191 0.21428571
v -0.74175144 0.73584191 0.28571429
v -0.74175144 0.66925418 0.35714286
v -0.74175144 0.80242964 -0.35714286
v -0.74175144 0.80242964 -0.21428571
v -0.74175144 0.80242964 -0.07142857
v -0.74175144 0.80242964 0.07142857
v -0.74175144 0.80242964 0.21428571
v -0.67516370 -0.86226362 -0.35714286
v -0.60857597 -0.86226362 -0.42857143
v -0.60857597 -0.92885135 -0.35714286
v -0.60857597 -0.92885135 -0.21428571
v -0.67516370 -0.86226362 -0.21428571
v -0.60857597 -0.92885135 -0.07142857
v -0.67516370 -0.86226362 -0.07142857
v -0.60857597 -0.92885135 0.07142857
v -0.67516370 -0.86226362 0.07142857
v -0.60857597 -0.92885135 0.21428571
v -0.67516370 -0.86226362 0.21428571
v -0.60857597 -0.86226362 0.28571429
v -0.67516370 -0.72908816 -0.64285714
v -0.60857597 -0.72908816 -0.71428571
v -0.60857597 -0.79567589 -0.64285714
v -0.60857597 -0.79567589 -0.50000000
v -0.67516370 -0.72908816 -0.50000000
v -0.67516370 -0.72908816 -0.35714286
v -0.67516370 -0.72908816 -0.21428571
v -0.67516370 -0.72908816 0.21428571
v -0.60857597 -0.79567589 0.35714286
v -0.67516370 -0.72908816 0.35714286
v -0.60857597 -0.79567589 0.50000000
v -0.67516370 -0.72908816 0.50000000
v -0.60857597 -0.72908816 0.57142857
v -0.67516370 -0.59591270 -0.64285714
v -0.60857597 -0.59591270 -0.71428571
v -0.60857597 -0.66250043 0.64285714
v -0.67516370 -0.59591270 0.64285714
v -0.60857597 -0.59591270 0.71428571
v -0.67516370 -0.46273724 -0.78571429
v -0.60857597 -0.46273724 -0.85714286
v -0.60857597 -0.52932497 -0.78571429
v -0.60857597 -0.52932497 0.78571429
v -0.67516370 -0.46273724 0.78571429
v -0.60857597 -0.46273724 0.85714286
v -0.67516370 -0.32956178 -0.78571429
v -0.60857597 -0.32956178 -0.85714286
v -0.67516370 -0.32956178 0.78571429
v -0.60857597 -0.32956178 0.85714286
v -0.60857597 -0.19638632 -0.85714286
v -0.60857597 -0.19638632 0.85714286
v -0.67516370 -0.06321086 -0.92857143
v -0.60857597 -0.06321086 -1.00000000
v -0.60857597 -0.12979859 -0.92857143
v -0.60857597 -0.12979859 0.92857143
v -0.67516370 -0.06321086 0.92857143
v -0.60857597 -0.06321086 1.00000000
v -0.60857597 0.00337687 -0.92857143
v -0.60857597 0.06996460 -0.85714286
v -0.67516370 0.06996460 0.92857143
v -0.60857597 0.06996460 1.00000000
v -0.60857597 0.20314006 -0.85714286
v -0.60857597 0.13655233 0.92857143
v -0.60857597 0.20314006 0.85714286
v -0.67516370 0.33631552 -0.78571429
v -0.60857597 0.33631552 -0.85714286
v -0.67516370 0.33631552 0.78571429
v -0.60857597 0.33631552 0.85714286
v -0.67516370 0.46949099 -0.78571429
v -0.60857597 0.46949099 -0.85714286
v -0.67516370 0.46949099 0.78571429
v -0.60857597 0.46949099 0.85714286
v -0.60857597 0.53607872 -0.78571429
v -0.67516370 0.60266645 -0.64285714
v -0.60857597 0.60266645 -0.71428571
v -0.67516370 0.60266645 0.50000000
v -0.67516370 0.60266645 0.64285714
v -0.60857597 0.60266645 0.71428571
v -0.60857597 0.53607872 0.78571429
v -0.67516370 0.73584191 -0.64285714
v -0.60857597 0.73584191 -0.71428571
v -0.67516370 0.73584191 -0.50000000
v -0.67516370 0.73584191 0.35714286
v -0.60857597 0.73584191 0.42857143
v -0.60857597 0.66925418 0.50000000
v -0.60857597 0.66925418 0.64285714
v -0.60857597 0.80242964 -0.64285714
v -0.67516370 0.86901737 -0.50000000
v -0.60857597 0.86901737 -0.57142857
v -0.67516370 0.86901737 -0.35714286
v -0.67516370 0.86901737 -0.21428571
v -0.67516370 0.86901737 -0.07142857
v -0.67516370 0.86901737 0.07142857
v -0.67516370 0.86901737 0.21428571
v -0.67516370 0.86901737 0.35714286
v -0.60857597 0.86901737 0.42857143
v -0.60857597 0.93560510 -0.50000000
v -0.60857597 0.93560510 -0.35714286
v -0.60857597 0.93560510 -0.21428571
v -0.60857597 0.93560510 -0.07142857
v -0.60857597 0.93560510 0.07142857
v -0.60857597 0.93560510 0.21428571
v -0.60857597 0.93560510 0.35714286
v -0.54198824 -0.86226362 -0.50000000
v -0.47540051 -0.86226362 -0.57142857
v -0.47540051 -0.92885135 -0.50000000
v -0.47540051 -0.92885135 -0.35714286
v -0.47540051 -0.92885135 -0.21428571
v -0.47540051 -0.92885135 -0.07142857
v -0.47540051 -0.92885135 0.07142857
v -0.47540051 -0.92885135 0.21428571
v -0.47540051 -0.92885135 0.35714286
v -0.54198824 -0.86226362 0.35714286
v -0.47540051 -0.86226362 0.42857143
v -0.47540051 -0.72908816 -0.71428571
v -0.47540051 -0.79567589 -0.64285714
v -0.47540051 -0.79567589 0.50000000
v -0.47540051 -0.79567589 0.64285714
v -0.54198824 -0.72908816 0.64285714
v -0.47540051 -0.72908816 0.71428571
v -0.47540051 -0.59591270 -0.71428571
v -0.47540051 -0.66250043 0.78571429
v -0.54198824 -0.59591270 0.78571429
v -0.47540051 -0.59591270 0.85714286
v -0.47540051 -0.46273724 -0.85714286
v -0.47540051 -0.52932497 -0.78571429
v -0.47540051 -0.46273724 0.85714286
v -0.47540051 -0.32956178 -0.85714286
v -0.47540051 -0.32956178 0.85714286
v -0.47540051 -0.19638632 -0.85714286
v -0.47540051 -0.26297405 0.92857143
v -0.54198824 -0.19638632 0.92857143
v -0.47540051 -0.19638632 1.00000000
v -0.47540051 -0.06321086 -1.00000000
v -0.47540051 -0.12979859 -0.92857143
v -0.47540051 -0.06321086 1.00000000
v -0.54198824 0.06996460 -0.92857143
v -0.47540051 0.06996460 -1.00000000
v -0.47540051 0.06996460 1.00000000
v -0.54198824 0.20314006 -0.92857143
v -0.47540051 0.20314006 -1.00000000
v -0.54198824 0.20314006 0.92857143
v -0.47540051 0.20314006 1.00000000
v -0.47540051 0.26972779 -0.92857143
v -0.47540051 0.33631552 -0.85714286
v -0.47540051 0.26972779 0.92857143
v -0.47540051 0.33631552 0.85714286
v -0.47540051 0.46949099 -0.85714286
v -0.47540051 0.46949099 0.85714286
v -0.54198824 0.60266645 -0.78571429
v -0.47540051 0.60266645 -0.85714286
v -0.54198824 0.60266645 0.78571429
v -0.47540051 0.60266645 0.85714286
v -0.47540051 0.66925418 -0.78571429
v -0.47540051 0.73584191 -0.71428571
v -0.54198824 0.73584191 0.50000000
v -0.54198824 0.73584191 0.64285714
v -0.47540051 0.73584191 0.71428571
v -0.47540051 0.66925418 0.78571429
v -0.47540051 0.80242964 -0.64285714
v -0.47540051 0.86901737 -0.57142857
v -0.47540051 0.80242964 0.50000000
v -0.47540051 0.86901737 0.42857143
v -0.47540051 0.80242964 0.64285714
v -0.47540051 0.93560510 -0.50000000
v -0.47540051 0.93560510 -0.35714286
v -0.47540051 0.93560510 -0.21428571
v -0.47540051 0.93560510 -0.07142857
v -0.54198824 1.00219283 0.07142857
v -0.47540051 1.00219283 0.00000000
v -0.47540051 1.00219283 0.14285714
v -0.47540051 0.93560510 0.21428571
v -0.47540051 0.93560510 0.35714286
v -0.47540051 1.06878056 0.07142857
v -0.40881278 -0.99543908 -0.35714286
v -0.34222505 -0.99543908 -0.42857143
v -0.34222505 -1.06202681 -0.35714286
v -0.34222505 -1.06202681 -0.21428571
v -0.40881278 -0.99543908 -0.21428571
v -0.34222505 -1.06202681 -0.07142857
v -0.40881278 -0.99543908 -0.07142857
v -0.34222505 -1.06202681 0.07142857
v -0.40881278 -0.99543908 0.07142857
v -0.34222505 -1.06202681 0.21428571
v -0.40881278 -0.99543908 0.21428571
v -0.34222505 -0.99543908 0.28571429
v -0.40881278 -0.86226362 -0.64285714
v -0.34222505 -0.86226362 -0.71428571
v -0.34222505 -0.92885135 -0.64285714
v -0.34222505 -0.92885135 -0.50000000
v -0.34222505 -0.92885135 0.35714286
v -0.34222505 -0.92885135 0.50000000
v -0.40881278 -0.86226362 0.50000000
v -0.34222505 -0.92885135 0.64285714
v -0.40881278 -0.86226362 0.64285714
v -0.34222505 -0.86226362 0.71428571
v -0.34222505 -0.72908816 -0.71428571
v -0.34222505 -0.72908816 0.71428571
v -0.40881278 -0.59591270 -0.78571429
v -0.34222505 -0.59591270 -0.85714286
v -0.34222505 -0.66250043 -0.78571429
v -0.34222505 -0.66250043 0.78571429
v -0.34222505 -0.59591270 0.85714286
v -0.34222505 -0.46273724 -0.85714286
v -0.34222505 -0.46273724 0.85714286
v -0.40881278 -0.32956178 -0.92857143
v -0.34222505 -0.32956178 -1.00000000
v -0.34222505 -0.39614951 -0.92857143
v -0.34222505 -0.39614951 0.92857143
v -0.40881278 -0.32956178 0.92857143
v -0.34222505 -0.32956178 1.00000000
v -0.40881278 -0.19638632 -0.92857143
v -0.34222505 -0.19638632 -1.00000000
v -0.34222505 -0.19638632 1.00000000
v -0.34222505 -0.06321086 -1.00000000
v -0.34222505 -0.06321086 1.00000000
v -0.34222505 0.06996460 -1.00000000
v -0.34222505 0.06996460 1.00000000
v -0.34222505 0.20314006 -1.00000000
v -0.34222505 0.20314006 1.00000000
v -0.40881278 0.33631552 -0.92857143
v -0.34222505 0.33631552 -1.00000000
v -0.40881278 0.33631552 0.92857143
v -0.34222505 0.33631552 1.00000000
v -0.34222505 0.40290325 -0.92857143
v -0.34222505 0.46949099 -0.85714286
v -0.34222505 0.40290325 0.92857143
v -0.34222505 0.46949099 0.85714286
v -0.34222505 0.60266645 -0.85714286
v -0.34222505 0.60266645 0.85714286
v -0.34222505 0.66925418 -0.78571429
v -0.34222505 0.73584191 -0.71428571
v -0.34222505 0.66925418 0.78571429
v -0.34222505 0.73584191 0.71428571
v -0.40881278 0.86901737 -0.64285714
v -0.34222505 0.86901737 -0.71428571
v -0.40881278 0.86901737 0.50000000
v -0.40881278 0.86901737 0.64285714
v -0.34222505 0.86901737 0.71428571
v -0.34222505 0.93560510 -0.64285714
v -0.34222505 0.93560510 -0.50000000
v -0.40881278 1.00219283 -0.35714286
v -0.34222505 1.00219283 -0.42857143
v -0.40881278 1.00219283 -0.21428571
v -0.40881278 1.00219283 -0.07142857
v -0.40881278 1.00219283 0.21428571
v -0.40881278 1.00219283 0.35714286
v -0.34222505 1.00219283 0.42857143
v -0.34222505 0.93560510 0.50000000
v -0.34222505 0.93560510 0.64285714
v -0.34222505 1.06878056 -0.35714286
v -0.34222505 1.06878056 -0.21428571
v -0.34222505 1.06878056 -0.07142857
v -0.34222505 1.06878056 0.07142857
v -0.34222505 1.06878056 0.21428571
v -0.34222505 1.06878056 0.35714286
v -0.27563732 -1.12861454 0.07142857
v -0.20904959 -1.12861454 0.00000000
v -0.20904959 -1.19520227 0.07142857
v -0.20904959 -1.12861454 0.14285714
v -0.20904959 -0.99543908 -0.42857143
v -0.20904959 -1.06202681 -0.35714286
v -0.20904959 -1.06202681 -0.21428571
v -0.20904959 -1.06202681 -0.07142857
v -0.20904959 -1.06202681 0.21428571
v -0.20904959 -1.06202681 0.35714286
v -0.27563732 -0.99543908 0.35714286
v -0.20904959 -0.99543908 0.42857143
v -0.20904959 -0.86226362 -0.71428571
v -0.20904959 -0.92885135 -0.64285714
v -0.20904959 -0.92885135 -0.50000000
v -0.20904959 -0.92885135 0.50000000
v -0.20904959 -0.92885135 0.64285714
v -0.20904959 -0.86226362 0.71428571
v -0.27563732 -0.72908816 -0.78571429
v -0.20904959 -0.72908816 -0.85714286
v -0.20904959 -0.79567589 -0.78571429
v -0.20904959 -0.79567589 0.78571429
v -0.27563732 -0.72908816 0.78571429
v -0.20904959 -0.72908816 0.85714286
v -0.20904959 -0.59591270 -0.85714286
v -0.20904959 -0.59591270 0.85714286
v -0.27563732 -0.46273724 -0.92857143
v -0.20904959 -0.46273724 -1.00000000
v -0.20904959 -0.52932497 -0.92857143
v -0.20904959 -0.52932497 0.92857143
v -0.27563732 -0.46273724 0.92857143
v -0.20904959 -0.46273724 1.00000000
v -0.20904959 -0.32956178 -1.00000000
v -0.20904959 -0.32956178 1.00000000
v -0.20904959 -0.19638632 -1.00000000
v -0.20904959 -0.19638632 1.00000000
v -0.20904959 -0.06321086 -1.00000000
v -0.20904959 -0.06321086 1.00000000
v -0.20904959 0.06996460 -1.00000000
v -0.20904959 0.06996460 1.00000000
v -0.20904959 0.20314006 -1.00000000
v -0.20904959 0.20314006 1.00000000
v -0.20904959 0.33631552 -1.00000000
v -0.20904959 0.33631552 1.00000000
v -0.20904959 0.40290325 -0.92857143
v -0.20904959 0.46949099 -0.85714286
v -0.27563732 0.46949099 0.92857143
v -0.20904959 0.46949099 1.00000000
v -0.20904959 0.60266645 -0.85714286
v -0.27563732 0.60266645 0.92857143
v -0.20904959 0.60266645 1.00000000
v -0.27563732 0.73584191 -0.78571429
v -0.20904959 0.73584191 -0.85714286
v -0.27563732 0.73584191 0.78571429
v -0.20904959 0.73584191 0.85714286
v -0.20904959 0.66925418 0.92857143
v -0.20904959 0.80242964 -0.78571429
v -0.20904959 0.86901737 -0.71428571
v -0.20904959 0.80242964 0.78571429
v -0.20904959 0.86901737 0.71428571
v -0.20904959 0.93560510 -0.64285714
v -0.20904959 0.93560510 -0.50000000
v -0.20904959 1.00219283 -0.42857143
v -0.20904959 0.93560510 0.50000000
v -0.20904959 1.00219283 0.42857143
v -0.20904959 0.93560510 0.64285714
v -0.20904959 1.06878056 -0.35714286
v -0.20904959 1.06878056 -0.21428571
v -0.20904959 1.06878056 -0.07142857
v -0.27563732 1.13536829 0.07142857
v -0.20904959 1.13536829 0.00000000
v -0.20904959 1.13536829 0.14285714
v -0.20904959 1.06878056 0.21428571
v -0.20904959 1.06878056 0.35714286
v -0.20904959 1.20195602 0.07142857
v -0.14246186 -1.12861454 -0.21428571
v -0.07587413 -1.12861454 -0.28571429
v -0.07587413 -1.19520227 -0.21428571
v -0.07587413 -1.19520227 -0.07142857
v -0.14246186 -1.12861454 -0.07142857
v -0.07587413 -1.19520227 0.07142857
v -0.07587413 -1.19520227 0.21428571
v -0.14246186 -1.12861454 0.21428571
v -0.07587413 -1.12861454 0.28571429
v -0.07587413 -0.99543908 -0.42857143
v -0.07587413 -1.06202681 -0.35714286
v -0.07587413 -1.06202681 0.35714286
v -0.07587413 -0.99543908 0.42857143
v -0.07587413 -0.86226362 -0.71428571
v -0.07587413 -0.92885135 -0.64285714
v -0.07587413 -0.92885135 -0.50000000
v -0.07587413 -0.92885135 0.50000000
v -0.07587413 -0.92885135 0.64285714
v -0.07587413 -0.86226362 0.71428571
v -0.07587413 -0.72908816 -0.85714286
v -0.07587413 -0.79567589 -0.78571429
v -0.07587413 -0.79567589 0.78571429
v -0.07587413 -0.72908816 0.85714286
v -0.14246186 -0.59591270 -0.92857143
v -0.07587413 -0.59591270 -1.00000000
v -0.07587413 -0.66250043 -0.92857143
v -0.07587413 -0.66250043 0.92857143
v -0.14246186 -0.59591270 0.92857143
v -0.07587413 -0.59591270 1.00000000
v -0.07587413 -0.46273724 -1.00000000
v -0.07587413 -0.46273724 1.00000000
v -0.07587413 -0.32956178 -1.00000000
v -0.07587413 -0.32956178 1.00000000
v -0.07587413 -0.19638632 -1.00000000
v -0.07587413 -0.19638632 1.00000000
v -0.07587413 -0.06321086 -1.00000000
v -0.07587413 -0.06321086 1.00000000
v -0.07587413 0.06996460 -1.00000000
v -0.07587413 0.06996460 1.00000000
v -0.07587413 0.20314006 -1.00000000
v -0.07587413 0.20314006 1.00000000
v -0.07587413 0.33631552 -1.00000000
v -0.07587413 0.33631552 1.00000000
v -0.07587413 0.40290325 -0.92857143
v -0.07587413 0.46949099 -0.85714286
v -0.07587413 0.46949099 1.00000000
v -0.07587413 0.60266645 -0.85714286
v -0.07587413 0.60266645 1.00000000
v -0.07587413 0.73584191 -0.85714286
v -0.07587413 0.66925418 0.92857143
v -0.07587413 0.73584191 0.85714286
v -0.07587413 0.80242964 -0.78571429
v -0.07587413 0.86901737 -0.71428571
v -0.07587413 0.80242964 0.78571429
v -0.07587413 0.86901737 0.71428571
v -0.07587413 0.93560510 -0.64285714
v -0.07587413 0.93560510 -0.50000000
v -0.07587413 1.00219283 -0.42857143
v -0.07587413 0.93560510 0.50000000
v -0.07587413 1.00219283 0.42857143
v -0.07587413 0.93560510 0.64285714
v -0.07587413 1.06878056 -0.35714286
v -0.07587413 1.06878056 -0.21428571
v -0.14246186 1.13536829 -0.07142857
v -0.07587413 1.13536829 -0.14285714
v -0.07587413 1.06878056 0.21428571
v -0.07587413 1.13536829 0.14285714
v -0.07587413 1.06878056 0.35714286
v -0.07587413 1.20195602 -0.07142857
v -0.07587413 1.20195602 0.07142857
v 0.05730133 -1.12861454 -0.28571429
v 0.05730133 -1.19520227 -0.21428571
v 0.05730133 -1.19520227 -0.07142857
v 0.05730133 -1.19520227 0.07142857
v 0.05730133 -1.19520227 0.21428571
v 0.05730133 -1.12861454 0.28571429
v 0.05730133 -0.99543908 -0.42857143
v 0.05730133 -1.06202681 -0.35714286
v 0.05730133 -1.06202681 0.35714286
v 0.05730133 -0.99543908 0.42857143
v 0.05730133 -0.86226362 -0.71428571
v 0.05730133 -0.92885135 -0.64285714
v 0.05730133 -0.92885135 -0.50000000
v 0.05730133 -0.92885135 0.50000000
v 0.05730133 -0.92885135 0.64285714
v 0.05730133 -0.86226362 0.71428571
v 0.05730133 -0.72908816 -0.85714286
v 0.05730133 -0.79567589 -0.78571429
v 0.05730133 -0.79567589 0.78571429
v 0.05730133 -0.72908816 0.85714286
v 0.05730133 -0.59591270 -1.00000000
v 0.05730133 -0.66250043 -0.92857143
v 0.05730133 -0.66250043 0.92857143
v 0.05730133 -0.59591270 1.00000000
v 0.05730133 -0.46273724 -1.00000000
v 0.05730133 -0.46273724 1.00000000
v 0.05730133 -0.32956178 -1.00000000
v 0.05730133 -0.32956178 1.00000000
v 0.05730133 -0.19638632 -1.00000000
v 0.05730133 -0.19638632 1.00000000
v 0.05730133 -0.06321086 -1.00000000
v 0.05730133 -0.06321086 1.00000000
v 0.05730133 0.06996460 -1.00000000
v 0.05730133 0.06996460 1.00000000
v 0.05730133 0.20314006 -1.00000000
v 0.05730133 0.20314006 1.00000000
v 0.05730133 0.33631552 -1.00000000
v 0.05730133 0.33631552 1.00000000
v -0.00928640 0.46949099 -0.92857143
v 0.05730133 0.46949099 -1.00000000
v 0.05730133 0.46949099 1.00000000
v 0.05730133 0.53607872 -0.92857143
v 0.05730133 0.60266645 -0.85714286
v 0.05730133 0.60266645 1.00000000
v 0.05730133 0.73584191 -0.85714286
v 0.05730133 0.66925418 0.92857143
v 0.05730133 0.73584191 0.85714286
v 0.05730133 0.80242964 -0.78571429
v 0.05730133 0.86901737 -0.71428571
v 0.05730133 0.80242964 0.78571429
v 0.05730133 0.86901737 0.71428571
v 0.05730133 0.93560510 -0.64285714
v -0.00928640 1.00219283 -0.50000000
v 0.05730133 1.00219283 -0.57142857
v 0.05730133 0.93560510 0.50000000
v 0.05730133 1.00219283 0.42857143
v 0.05730133 0.93560510 0.64285714
v 0.05730133 1.06878056 -0.50000000
v 0.05730133 1.06878056 -0.35714286
v 0.05730133 1.06878056 -0.21428571
v 0.05730133 1.13536829 -0.14285714
v 0.05730133 1.06878056 0.21428571
v 0.05730133 1.13536829 0.14285714
v 0.05730133 1.06878056 0.35714286
v 0.05730133 1.20195602 -0.07142857
v 0.05730133 1.20195602 0.07142857
v 0.12388906 -1.12861454 -0.21428571
v 0.19047679 -1.12861454 -0.14285714
v 0.19047679 -1.19520227 -0.07142857
v 0.19047679 -1.19520227 0.07142857
v 0.12388906 -1.12861454 0.21428571
v 0.19047679 -1.12861454 0.14285714
v 0.19047679 -0.99543908 -0.42857143
v 0.19047679 -1.06202681 -0.35714286
v 0.19047679 -1.06202681 -0.21428571
v 0.19047679 -1.06202681 0.21428571
v 0.19047679 -1.06202681 0.35714286
v 0.19047679 -0.99543908 0.42857143
v 0.19047679 -0.86226362 -0.71428571
v 0.19047679 -0.92885135 -0.64285714
v 0.19047679 -0.92885135 -0.50000000
v 0.19047679 -0.92885135 0.50000000
v 0.19047679 -0.92885135 0.64285714
v 0.19047679 -0.86226362 0.71428571
v 0.19047679 -0.72908816 -0.85714286
v 0.19047679 -0.79567589 -0.78571429
v 0.19047679 -0.79567589 0.78571429
v 0.19047679 -0.72908816 0.85714286
v 0.19047679 -0.59591270 -1.00000000
v 0.19047679 -0.66250043 -0.92857143
v 0.12388906 -0.59591270 0.92857143
v 0.19047679 -0.59591270 0.85714286
v 0.19047679 -0.46273724 -1.00000000
v 0.19047679 -0.52932497 0.92857143
v 0.19047679 -0.46273724 1.00000000
v 0.19047679 -0.32956178 -1.00000000
v 0.19047679 -0.32956178 1.00000000
v 0.19047679 -0.19638632 -1.00000000
v 0.19047679 -0.19638632 1.00000000
v 0.19047679 -0.06321086 -1.00000000
v 0.19047679 -0.06321086 1.00000000
v 0.19047679 0.06996460 -1.00000000
v 0.19047679 0.06996460 1.00000000
v 0.19047679 0.20314006 -1.00000000
v 0.19047679 0.20314006 1.00000000
v 0.19047679 0.33631552 -1.00000000
v 0.19047679 0.33631552 1.00000000
v 0.19047679 0.40290325 -0.92857143
v 0.12388906 0.46949099 -0.92857143
v 0.19047679 0.46949099 -0.85714286
v 0.19047679 0.46949099 1.00000000
v 0.19047679 0.60266645 -0.85714286
v 0.12388906 0.60266645 0.92857143
v 0.19047679 0.53607872 0.92857143
v 0.19047679 0.60266645 0.85714286
v 0.19047679 0.73584191 -0.85714286
v 0.19047679 0.73584191 0.85714286
v 0.19047679 0.80242964 -0.78571429
v 0.19047679 0.86901737 -0.71428571
v 0.19047679 0.80242964 0.78571429
v 0.19047679 0.86901737 0.71428571
v 0.19047679 0.93560510 -0.64285714
v 0.12388906 1.00219283 -0.50000000
v 0.19047679 0.93560510 -0.50000000
v 0.19047679 1.00219283 -0.42857143
v 0.19047679 0.93560510 0.50000000
v 0.19047679 1.00219283 0.42857143
v 0.19047679 0.93560510 0.64285714
v 0.19047679 1.06878056 -0.35714286
v 0.19047679 1.06878056 -0.21428571
v 0.12388906 1.13536829 -0.07142857
v 0.19047679 1.06878056 -0.07142857
v 0.12388906 1.13536829 0.07142857
v 0.19047679 1.06878056 0.07142857
v 0.19047679 1.06878056 0.21428571
v 0.19047679 1.06878056 0.35714286
v 0.25706452 -1.12861454 -0.07142857
v 0.25706452 -1.12861454 0.07142857
v 0.32365225 -0.99543908 -0.42857143
v 0.32365225 -1.06202681 -0.35714286
v 0.32365225 -1.06202681 -0.21428571
v 0.32365225 -1.06202681 -0.07142857
v 0.32365225 -1.06202681 0.07142857
v 0.32365225 -1.06202681 0.21428571
v 0.32365225 -1.06202681 0.35714286
v 0.32365225 -0.99543908 0.42857143
v 0.32365225 -0.86226362 -0.71428571
v 0.32365225 -0.92885135 -0.64285714
v 0.32365225 -0.92885135 -0.50000000
v 0.32365225 -0.92885135 0.50000000
v 0.32365225 -0.92885135 0.64285714
v 0.32365225 -0.86226362 0.71428571
v 0.25706452 -0.72908816 -0.78571429
v 0.32365225 -0.72908816 -0.71428571
v 0.32365225 -0.79567589 0.78571429
v 0.32365225 -0.72908816 0.85714286
v 0.25706452 -0.59591270 -0.92857143
v 0.32365225 -0.59591270 -0.85714286
v 0.32365225 -0.66250043 -0.78571429
v 0.32365225 -0.59591270 0.85714286
v 0.32365225 -0.46273724 -1.00000000
v 0.32365225 -0.52932497 -0.92857143
v 0.25706452 -0.46273724 0.92857143
v 0.32365225 -0.46273724 0.85714286
v 0.32365225 -0.32956178 -1.00000000
v 0.32365225 -0.39614951 0.92857143
v 0.32365225 -0.32956178 1.00000000
v 0.32365225 -0.19638632 -1.00000000
v 0.32365225 -0.19638632 1.00000000
v 0.32365225 -0.06321086 -1.00000000
v 0.32365225 -0.06321086 1.00000000
v 0.32365225 0.06996460 -1.00000000
v 0.32365225 0.06996460 1.00000000
v 0.32365225 0.20314006 -1.00000000
v 0.32365225 0.20314006 1.00000000
v 0.32365225 0.33631552 -1.00000000
v 0.32365225 0.33631552 1.00000000
v 0.32365225 0.40290325 -0.92857143
v 0.32365225 0.46949099 -0.85714286
v 0.25706452 0.46949099 0.92857143
v 0.32365225 0.40290325 0.92857143
v 0.32365225 0.46949099 0.85714286
v 0.32365225 0.60266645 -0.85714286
v 0.32365225 0.60266645 0.85714286
v 0.32365225 0.73584191 -0.85714286
v 0.25706452 0.73584191 0.78571429
v 0.32365225 0.66925418 0.78571429
v 0.32365225 0.73584191 0.71428571
v 0.32365225 0.80242964 -0.78571429
v 0.32365225 0.86901737 -0.71428571
v 0.32365225 0.86901737 0.71428571
v 0.32365225 0.93560510 -0.64285714
v 0.32365225 0.93560510 -0.50000000
v 0.32365225 1.00219283 -0.42857143
v 0.25706452 1.00219283 0.35714286
v 0.32365225 0.93560510 0.35714286
v 0.32365225 1.00219283 0.28571429
v 0.32365225 0.93560510 0.50000000
v 0.32365225 0.93560510 0.64285714
v 0.32365225 1.06878056 -0.35714286
v 0.32365225 1.06878056 -0.21428571
v 0.32365225 1.06878056 -0.07142857
v 0.32365225 1.06878056 0.07142857
v 0.32365225 1.06878056 0.21428571
v 0.39023998 -0.99543908 -0.35714286
v 0.39023998 -0.99543908 -0.21428571
v 0.45682771 -0.99543908 -0.14285714
v 0.45682771 -1.06202681 -0.07142857
v 0.45682771 -1.06202681 0.07142857
v 0.39023998 -0.99543908 0.21428571
v 0.45682771 -0.99543908 0.14285714
v 0.39023998 -0.99543908 0.35714286
v 0.39023998 -0.86226362 -0.64285714
v 0.45682771 -0.86226362 -0.57142857
v 0.45682771 -0.92885135 -0.50000000
v 0.45682771 -0.92885135 -0.35714286
v 0.45682771 -0.92885135 -0.21428571
v 0.45682771 -0.92885135 0.21428571
v 0.45682771 -0.92885135 0.35714286
v 0.45682771 -0.92885135 0.50000000
v 0.39023998 -0.86226362 0.64285714
v 0.45682771 -0.86226362 0.57142857
v 0.45682771 -0.72908816 -0.71428571
v 0.45682771 -0.79567589 -0.64285714
v 0.45682771 -0.79567589 0.64285714
v 0.39023998 -0.72908816 0.78571429
v 0.45682771 -0.72908816 0.71428571
v 0.45682771 -0.59591270 -0.85714286
v 0.45682771 -0.66250043 -0.78571429
v 0.45682771 -0.66250043 0.78571429
v 0.45682771 -0.59591270 0.85714286
v 0.39023998 -0.46273724 -0.92857143
v 0.45682771 -0.46273724 -0.85714286
v 0.45682771 -0.46273724 0.85714286
v 0.45682771 -0.32956178 -1.00000000
v 0.45682771 -0.39614951 -0.92857143
v 0.39023998 -0.32956178 0.92857143
v 0.45682771 -0.32956178 0.85714286
v 0.45682771 -0.19638632 -1.00000000
v 0.45682771 -0.26297405 0.92857143
v 0.45682771 -0.19638632 1.00000000
v 0.45682771 -0.06321086 -1.00000000
v 0.45682771 -0.06321086 1.00000000
v 0.45682771 0.06996460 -1.00000000
v 0.45682771 0.06996460 1.00000000
v 0.45682771 0.20314006 -1.00000000
v 0.45682771 0.20314006 1.00000000
v 0.45682771 0.26972779 -0.92857143
v 0.39023998 0.33631552 -0.92857143
v 0.45682771 0.33631552 -0.85714286
v 0.39023998 0.33631552 0.92857143
v 0.45682771 0.26972779 0.92857143
v 0.45682771 0.33631552 0.85714286
v 0.45682771 0.46949099 -0.85714286
v 0.45682771 0.46949099 0.85714286
v 0.45682771 0.60266645 -0.85714286
v 0.45682771 0.60266645 0.85714286
v 0.45682771 0.66925418 -0.78571429
v 0.39023998 0.73584191 -0.78571429
v 0.45682771 0.73584191 -0.71428571
v 0.45682771 0.66925418 0.78571429
v 0.45682771 0.73584191 0.71428571
v 0.39023998 0.86901737 -0.64285714
v 0.45682771 0.80242964 -0.64285714
v 0.45682771 0.86901737 -0.57142857
v 0.39023998 0.86901737 0.64285714
v 0.45682771 0.80242964 0.64285714
v 0.45682771 0.86901737 0.57142857
v 0.45682771 0.93560510 -0.50000000
v 0.39023998 1.00219283 -0.35714286
v 0.45682771 0.93560510 -0.35714286
v 0.45682771 1.00219283 -0.28571429
v 0.39023998 1.00219283 0.07142857
v 0.45682771 0.93560510 0.07142857
v 0.45682771 1.00219283 0.00000000
v 0.39023998 1.00219283 0.21428571
v 0.45682771 0.93560510 0.21428571
v 0.45682771 0.93560510 0.35714286
v 0.45682771 0.93560510 0.50000000
v 0.45682771 1.06878056 -0.21428571
v 0.45682771 1.06878056 -0.07142857
v 0.52341544 -0.99543908 -0.07142857
v 0.52341544 -0.99543908 0.07142857
v 0.52341544 -0.86226362 -0.50000000
v 0.59000317 -0.86226362 -0.42857143
v 0.59000317 -0.92885135 -0.35714286
v 0.59000317 -0.92885135 -0.21428571
v 0.59000317 -0.92885135 -0.07142857
v 0.59000317 -0.92885135 0.07142857
v 0.59000317 -0.92885135 0.21428571
v 0.59000317 -0.92885135 0.35714286
v 0.52341544 -0.86226362 0.50000000
v 0.59000317 -0.86226362 0.42857143
v 0.52341544 -0.72908816 -0.64285714
v 0.59000317 -0.72908816 -0.57142857
v 0.59000317 -0.79567589 -0.50000000
v 0.59000317 -0.79567589 0.50000000
v 0.52341544 -0.72908816 0.64285714
v 0.59000317 -0.72908816 0.57142857
v 0.52341544 -0.59591270 -0.78571429
v 0.59000317 -0.59591270 -0.71428571
v 0.59000317 -0.66250043 -0.64285714
v 0.59000317 -0.66250043 0.64285714
v 0.52341544 -0.59591270 0.78571429
v 0.59000317 -0.59591270 0.71428571
v 0.59000317 -0.46273724 -0.85714286
v 0.59000317 -0.52932497 -0.78571429
v 0.59000317 -0.52932497 0.78571429
v 0.59000317 -0.46273724 0.85714286
v 0.52341544 -0.32956178 -0.92857143
v 0.59000317 -0.32956178 -0.85714286
v 0.59000317 -0.32956178 0.85714286
v 0.59000317 -0.19638632 -1.00000000
v 0.59000317 -0.26297405 -0.92857143
v 0.52341544 -0.19638632 0.92857143
v 0.59000317 -0.19638632 0.85714286
v 0.59000317 -0.06321086 -1.00000000
v 0.52341544 -0.06321086 0.92857143
v 0.59000317 -0.06321086 0.85714286
v 0.59000317 0.06996460 -1.00000000
v 0.52341544 0.06996460 0.92857143
v 0.59000317 0.06996460 0.85714286
v 0.59000317 0.13655233 -0.92857143
v 0.52341544 0.20314006 -0.92857143
v 0.59000317 0.20314006 -0.85714286
v 0.52341544 0.20314006 0.92857143
v 0.59000317 0.20314006 0.85714286
v 0.59000317 0.33631552 -0.85714286
v 0.59000317 0.33631552 0.85714286
v 0.59000317 0.46949099 -0.85714286
v 0.59000317 0.46949099 0.85714286
v 0.59000317 0.53607872 -0.78571429
v 0.52341544 0.60266645 -0.78571429
v 0.59000317 0.60266645 -0.71428571
v 0.52341544 0.60266645 0.78571429
v 0.59000317 0.53607872 0.78571429
v 0.59000317 0.60266645 0.71428571
v 0.59000317 0.73584191 -0.71428571
v 0.59000317 0.73584191 0.71428571
v 0.59000317 0.80242964 -0.64285714
v 0.52341544 0.86901737 -0.50000000
v 0.59000317 0.80242964 -0.50000000
v 0.59000317 0.86901737 -0.42857143
v 0.52341544 0.86901737 0.35714286
v 0.59000317 0.80242964 0.35714286
v 0.59000317 0.86901737 0.28571429
v 0.52341544 0.86901737 0.50000000
v 0.59000317 0.80242964 0.50000000
v 0.59000317 0.80242964 0.64285714
v 0.59000317 0.93560510 -0.35714286
v 0.52341544 1.00219283 -0.21428571
v 0.59000317 0.93560510 -0.21428571
v 0.52341544 1.00219283 -0.07142857
v 0.59000317 0.93560510 -0.07142857
v 0.59000317 0.93560510 0.07142857
v 0.59000317 0.93560510 0.21428571
v 0.65659090 -0.86226362 -0.35714286
v 0.65659090 -0.86226362 -0.21428571
v 0.65659090 -0.86226362 -0.07142857
v 0.65659090 -0.86226362 0.07142857
v 0.65659090 -0.86226362 0.21428571
v 0.65659090 -0.86226362 0.35714286
v 0.65659090 -0.72908816 -0.50000000
v 0.72317863 -0.72908816 -0.42857143
v 0.72317863 -0.79567589 -0.35714286
v 0.72317863 -0.79567589 -0.21428571
v 0.72317863 -0.79567589 -0.07142857
v 0.72317863 -0.79567589 0.07142857
v 0.72317863 -0.79567589 0.21428571
v 0.72317863 -0.72908816 0.28571429
v 0.65659090 -0.72908816 0.35714286
v 0.65659090 -0.72908816 0.50000000
v 0.65659090 -0.59591270 -0.64285714
v 0.72317863 -0.59591270 -0.57142857
v 0.72317863 -0.66250043 -0.50000000
v 0.72317863 -0.66250043 0.35714286
v 0.72317863 -0.66250043 0.50000000
v 0.65659090 -0.59591270 0.64285714
v 0.72317863 -0.59591270 0.57142857
v 0.65659090 -0.46273724 -0.78571429
v 0.72317863 -0.46273724 -0.71428571
v 0.72317863 -0.52932497 -0.64285714
v 0.72317863 -0.52932497 0.64285714
v 0.65659090 -0.46273724 0.78571429
v 0.72317863 -0.46273724 0.71428571
v 0.72317863 -0.32956178 -0.85714286
v 0.72317863 -0.39614951 -0.78571429
v 0.65659090 -0.32956178 0.78571429
v 0.72317863 -0.32956178 0.71428571
v 0.65659090 -0.19638632 -0.92857143
v 0.72317863 -0.19638632 -0.85714286
v 0.65659090 -0.19638632 0.78571429
v 0.72317863 -0.19638632 0.71428571
v 0.65659090 -0.06321086 -0.92857143
v 0.72317863 -0.06321086 -0.85714286
v 0.72317863 -0.12979859 0.78571429
v 0.72317863 -0.06321086 0.85714286
v 0.65659090 0.06996460 -0.92857143
v 0.72317863 0.06996460 -0.85714286
v 0.72317863 0.06996460 0.85714286
v 0.65659090 0.20314006 -0.78571429
v 0.72317863 0.13655233 -0.78571429
v 0.72317863 0.20314006 -0.71428571
v 0.65659090 0.20314006 0.78571429
v 0.72317863 0.13655233 0.78571429
v 0.72317863 0.20314006 0.71428571
v 0.65659090 0.33631552 -0.78571429
v 0.72317863 0.33631552 -0.71428571
v 0.65659090 0.33631552 0.78571429
v 0.72317863 0.33631552 0.71428571
v 0.65659090 0.46949099 -0.78571429
v 0.72317863 0.46949099 -0.71428571
v 0.65659090 0.46949099 0.78571429
v 0.72317863 0.46949099 0.71428571
v 0.72317863 0.60266645 -0.71428571
v 0.65659090 0.60266645 0.64285714
v 0.72317863 0.53607872 0.64285714
v 0.72317863 0.60266645 0.57142857
v 0.72317863 0.66925418 -0.64285714
v 0.65659090 0.73584191 -0.64285714
v 0.65659090 0.73584191 -0.50000000
v 0.72317863 0.66925418 -0.50000000
v 0.65659090 0.73584191 -0.35714286
v 0.72317863 0.66925418 -0.35714286
v 0.72317863 0.73584191 -0.28571429
v 0.65659090 0.73584191 0.35714286
v 0.72317863 0.66925418 0.35714286
v 0.72317863 0.73584191 0.28571429
v 0.65659090 0.73584191 0.50000000
v 0.72317863 0.66925418 0.50000000
v 0.65659090 0.73584191 0.64285714
v 0.65659090 0.86901737 -0.35714286
v 0.72317863 0.80242964 -0.21428571
v 0.65659090 0.86901737 -0.21428571
v 0.65659090 0.86901737 -0.07142857
v 0.72317863 0.80242964 -0.07142857
v 0.65659090 0.86901737 0.07142857
v 0.72317863 0.80242964 0.07142857
v 0.65659090 0.86901737 0.21428571
v 0.72317863 0.80242964 0.21428571
v 0.78976636 -0.72908816 -0.35714286
v 0.78976636 -0.72908816 -0.21428571
v 0.78976636 -0.72908816 -0.07142857
v 0.78976636 -0.72908816 0.07142857
v 0.78976636 -0.72908816 0.21428571
v 0.78976636 -0.59591270 -0.50000000
v 0.85635409 -0.59591270 -0.42857143
v 0.85635409 -0.66250043 -0.35714286
v 0.85635409 -0.66250043 -0.21428571
v 0.85635409 -0.66250043 -0.07142857
v 0.85635409 -0.66250043 0.07142857
v 0.85635409 -0.66250043 0.21428571
v 0.78976636 -0.59591270 0.35714286
v 0.85635409 -0.59591270 0.28571429
v 0.78976636 -0.59591270 0.50000000
v 0.78976636 -0.46273724 -0.64285714
v 0.85635409 -0.46273724 -0.57142857
v 0.85635409 -0.52932497 -0.50000000
v 0.85635409 -0.52932497 0.35714286
v 0.85635409 -0.46273724 0.42857143
v 0.78976636 -0.46273724 0.50000000
v 0.78976636 -0.46273724 0.64285714
v 0.78976636 -0.32956178 -0.78571429
v 0.85635409 -0.32956178 -0.71428571
v 0.85635409 -0.39614951 -0.64285714
v 0.85635409 -0.39614951 0.50000000
v 0.85635409 -0.39614951 0.64285714
v 0.85635409 -0.32956178 0.71428571
v 0.78976636 -0.19638632 -0.78571429
v 0.85635409 -0.19638632 -0.71428571
v 0.85635409 -0.19638632 0.71428571
v 0.78976636 -0.06321086 -0.78571429
v 0.85635409 -0.06321086 -0.71428571
v 0.78976636 -0.06321086 0.78571429
v 0.85635409 -0.06321086 0.71428571
v 0.78976636 0.06996460 -0.78571429
v 0.85635409 0.06996460 -0.71428571
v 0.78976636 0.06996460 0.78571429
v 0.85635409 0.06996460 0.71428571
v 0.85635409 0.20314006 -0.71428571
v 0.85635409 0.20314006 0.71428571
v 0.85635409 0.33631552 -0.71428571
v 0.85635409 0.33631552 0.71428571
v 0.85635409 0.40290325 -0.64285714
v 0.78976636 0.46949099 -0.64285714
v 0.85635409 0.46949099 -0.57142857
v 0.78976636 0.46949099 0.50000000
v 0.85635409 0.40290325 0.50000000
v 0.85635409 0.46949099 0.42857143
v 0.78976636 0.46949099 0.64285714
v 0.85635409 0.40290325 0.64285714
v 0.78976636 0.60266645 -0.64285714
v 0.85635409 0.53607872 -0.50000000
v 0.78976636 0.60266645 -0.50000000
v 0.85635409 0.60266645 -0.42857143
v 0.78976636 0.60266645 0.50000000
v 0.85635409 0.60266645 0.42857143
v 0.85635409 0.66925418 -0.35714286
v 0.78976636 0.73584191 -0.21428571
v 0.85635409 0.66925418 -0.21428571
v 0.78976636 0.73584191 -0.07142857
v 0.85635409 0.66925418 -0.07142857
v 0.78976636 0.73584191 0.07142857
v 0.85635409 0.66925418 0.07142857
v 0.78976636 0.73584191 0.21428571
v 0.85635409 0.66925418 0.21428571
v 0.85635409 0.66925418 0.35714286
v 0.92294182 -0.59591270 -0.35714286
v 0.92294182 -0.59591270 -0.21428571
v 0.92294182 -0.59591270 -0.07142857
v 0.92294182 -0.59591270 0.07142857
v 0.92294182 -0.59591270 0.21428571
v 0.92294182 -0.46273724 -0.50000000
v 0.92294182 -0.46273724 -0.35714286
v 0.98952955 -0.46273724 -0.28571429
v 0.98952955 -0.52932497 -0.21428571
v 0.98952955 -0.52932497 -0.07142857
v 0.98952955 -0.52932497 0.07142857
v 0.98952955 -0.46273724 0.14285714
v 0.92294182 -0.46273724 0.21428571
v 0.92294182 -0.46273724 0.35714286
v 0.92294182 -0.32956178 -0.64285714
v 0.92294182 -0.32956178 -0.50000000
v 0.98952955 -0.32956178 -0.42857143
v 0.98952955 -0.39614951 -0.35714286
v 0.98952955 -0.39614951 0.21428571
v 0.98952955 -0.39614951 0.35714286
v 0.92294182 -0.32956178 0.50000000
v 0.98952955 -0.32956178 0.42857143
v 0.92294182 -0.32956178 0.64285714
v 0.92294182 -0.19638632 -0.64285714
v 0.92294182 -0.19638632 -0.50000000
v 0.98952955 -0.19638632 -0.42857143
v 0.92294182 -0.19638632 0.50000000
v 0.98952955 -0.19638632 0.42857143
v 0.92294182 -0.19638632 0.64285714
v 0.92294182 -0.06321086 -0.64285714
v 0.98952955 -0.06321086 -0.57142857
v 0.98952955 -0.12979859 -0.50000000
v 0.92294182 -0.06321086 0.50000000
v 0.98952955 -0.06321086 0.42857143
v 0.92294182 -0.06321086 0.64285714
v 0.92294182 0.06996460 -0.64285714
v 0.98952955 0.06996460 -0.57142857
v 0.92294182 0.06996460 0.50000000
v 0.98952955 0.06996460 0.42857143
v 0.92294182 0.06996460 0.64285714
v 0.92294182 0.20314006 -0.64285714
v 0.98952955 0.20314006 -0.57142857
v 0.92294182 0.20314006 0.50000000
v 0.98952955 0.20314006 0.42857143
v 0.92294182 0.20314006 0.64285714
v 0.92294182 0.33631552 -0.64285714
v 0.98952955 0.26972779 -0.50000000
v 0.92294182 0.33631552 -0.50000000
v 0.98952955 0.33631552 -0.42857143
v 0.92294182 0.33631552 0.50000000
v 0.98952955 0.33631552 0.42857143
v 0.92294182 0.33631552 0.64285714
v 0.92294182 0.46949099 -0.50000000
v 0.98952955 0.40290325 -0.35714286
v 0.92294182 0.46949099 -0.35714286
v 0.98952955 0.46949099 -0.28571429
v 0.92294182 0.46949099 0.21428571
v 0.98952955 0.40290325 0.21428571
v 0.98952955 0.46949099 0.14285714
v 0.92294182 0.46949099 0.35714286
v 0.98952955 0.40290325 0.35714286
v 0.92294182 0.60266645 -0.35714286
v 0.98952955 0.53607872 -0.21428571
v 0.92294182 0.60266645 -0.21428571
v 0.92294182 0.60266645 -0.07142857
v 0.98952955 0.53607872 -0.07142857
v 0.92294182 0.60266645 0.07142857
v 0.98952955 0.53607872 0.07142857
v 0.92294182 0.60266645 0.21428571
v 0.92294182 0.60266645 0.35714286
v 1.05611728 -0.46273724 -0.21428571
v 1.05611728 -0.46273724 -0.07142857
v 1.05611728 -0.46273724 0.07142857
v 1.05611728 -0.32956178 -0.35714286
v 1.05611728 -0.32956178 -0.21428571
v 1.05611728 -0.32956178 -0.07142857
v 1.05611728 -0.32956178 0.07142857
v 1.05611728 -0.32956178 0.21428571
v 1.05611728 -0.32956178 0.35714286
v 1.05611728 -0.19638632 -0.35714286
v 1.05611728 -0.19638632 -0.21428571
v 1.05611728 -0.19638632 -0.07142857
v 1.05611728 -0.19638632 0.07142857
v 1.05611728 -0.19638632 0.21428571
v 1.05611728 -0.19638632 0.35714286
v 1.05611728 -0.06321086 -0.50000000
v 1.05611728 -0.06321086 -0.35714286
v 1.12270501 -0.06321086 -0.28571429
v 1.12270501 -0.12979859 -0.21428571
v 1.12270501 -0.12979859 -0.07142857
v 1.12270501 -0.12979859 0.07142857
v 1.12270501 -0.06321086 0.14285714
v 1.05611728 -0.06321086 0.21428571
v 1.05611728 -0.06321086 0.35714286
v 1.05611728 0.06996460 -0.50000000
v 1.12270501 0.06996460 -0.42857143
v 1.12270501 0.00337687 -0.35714286
v 1.05611728 0.06996460 0.21428571
v 1.12270501 0.06996460 0.14285714
v 1.05611728 0.06996460 0.35714286
v 1.05611728 0.20314006 -0.50000000
v 1.12270501 0.13655233 -0.35714286
v 1.05611728 0.20314006 -0.35714286
v 1.12270501 0.20314006 -0.28571429
v 1.05611728 0.20314006 0.21428571
v 1.12270501 0.20314006 0.14285714
v 1.05611728 0.20314006 0.35714286
v 1.05611728 0.33631552 -0.35714286
v 1.12270501 0.26972779 -0.21428571
v 1.05611728 0.33631552 -0.21428571
v 1.05611728 0.33631552 -0.07142857
v 1.12270501 0.26972779 -0.07142857
v 1.05611728 0.33631552 0.07142857
v 1.12270501 0.26972779 0.07142857
v 1.05611728 0.33631552 0.21428571
v 1.05611728 0.33631552 0.35714286
v 1.05611728 0.46949099 -0.21428571
v 1.05611728 0.46949099 -0.07142857
v 1.05611728 0.46949099 0.07142857
v 1.18929274 -0.06321086 -0.21428571
v 1.18929274 -0.06321086 -0.07142857
v 1.18929274 -0.06321086 0.07142857
v 1.18929274 0.06996460 -0.35714286
v 1.18929274 0.06996460 -0.21428571
v 1.18929274 0.06996460 -0.07142857
v 1.18929274 0.06996460 0.07142857
v 1.18929274 0.20314006 -0.21428571
v 1.18929274 0.20314006 -0.07142857
v 1.18929274 0.20314006 0.07142857
f 3 2 1
f 5 4 1
f 1 4 3
f 7 6 5
f 5 6 4
f 7 8 6
f 2 9 1
f 11 10 9
f 10 1 9
f 10 5 1
f 5 12 7
f 5 10 12
f 8 7 13
f 13 7 12
f 11 14 10
f 10 14 12
f 12 14 15
f 12 15 13
f 18 17 16
f 20 19 16
f 16 19 18
f 22 21 20
f 20 21 19
f 24 23 22
f 22 23 21
f 26 25 24
f 24 25 23
f 26 27 25
f 16 17 28
f 28 17 29
f 16 30 20
f 16 28 30
f 20 31 22
f 20 30 31
f 22 32 24
f 22 31 32
f 24 33 26
f 24 32 33
f 27 26 34
f 26 35 34
f 26 33 35
f 35 36 34
f 39 38 37
f 39 37 29
f 37 28 29
f 37 40 28
f 40 2 3
f 30 40 3
f 28 40 30
f 30 3 4
f 30 4 31
f 31 4 6
f 31 6 32
f 32 6 8
f 41 32 8
f 33 32 41
f 33 42 35
f 33 41 42
f 36 35 43
f 43 35 42
f 38 44 37
f 46 45 44
f 45 37 44
f 45 40 37
f 47 9 2
f 40 47 2
f 45 47 40
f 47 11 9
f 13 48 41
f 13 41 8
f 41 49 42
f 41 48 49
f 43 42 50
f 50 42 49
f 45 46 51
f 51 46 52
f 45 53 47
f 45 51 53
f 54 14 11
f 47 54 11
f 53 54 47
f 55 15 14
f 55 14 54
f 48 13 15
f 55 48 15
f 56 48 55
f 48 57 49
f 48 56 57
f 50 49 58
f 58 49 57
f 52 59 51
f 61 60 59
f 60 51 59
f 60 53 51
f 53 62 54
f 53 60 62
f 54 63 55
f 54 62 63
f 55 64 56
f 55 63 64
f 56 65 57
f 56 64 65
f 58 57 66
f 66 57 65
f 61 67 60
f 60 67 62
f 62 67 68
f 62 68 63
f 63 68 69
f 63 69 64
f 64 69 70
f 64 70 65
f 65 70 71
f 65 71 66
f 74 73 72
f 76 75 72
f 72 75 74
f 78 77 76
f 76 77 75
f 80 79 78
f 78 79 77
f 82 81 80
f 80 81 79
f 82 83 81
f 86 85 84
f 86 84 73
f 84 72 73
f 84 87 72
f 72 88 76
f 72 87 88
f 76 89 78
f 76 88 89
f 78 90 80
f 78 89 90
f 80 91 82
f 80 90 91
f 83 82 92
f 82 93 92
f 82 91 93
f 95 94 93
f 93 94 92
f 95 96 94
f 99 98 97
f 99 97 85
f 97 84 85
f 97 100 84
f 100 17 18
f 87 100 18
f 84 100 87
f 87 18 19
f 87 19 88
f 88 19 21
f 88 21 89
f 89 21 23
f 89 23 90
f 90 23 25
f 90 25 91
f 91 25 27
f 101 91 27
f 93 91 101
f 93 102 95
f 93 101 102
f 96 95 103
f 95 104 103
f 95 102 104
f 104 105 103
f 97 98 106
f 106 98 107
f 97 108 100
f 97 106 108
f 108 29 17
f 108 17 100
f 34 101 27
f 101 34 36
f 109 101 36
f 102 101 109
f 102 110 104
f 102 109 110
f 105 104 111
f 111 104 110
f 106 107 112
f 112 107 113
f 112 38 39
f 108 112 39
f 106 112 108
f 108 39 29
f 43 114 109
f 43 109 36
f 109 115 110
f 109 114 115
f 111 110 116
f 116 110 115
f 112 113 117
f 117 113 118
f 119 44 38
f 112 119 38
f 117 119 112
f 119 46 44
f 50 120 114
f 50 114 43
f 114 121 115
f 114 120 121
f 116 115 122
f 122 115 121
f 117 118 123
f 123 118 124
f 117 125 119
f 117 123 125
f 125 52 46
f 125 46 119
f 58 126 120
f 58 120 50
f 120 127 121
f 120 126 127
f 122 121 128
f 128 121 127
f 123 124 129
f 129 124 130
f 123 131 125
f 123 129 131
f 132 59 52
f 125 132 52
f 131 132 125
f 132 61 59
f 66 133 126
f 66 126 58
f 126 134 127
f 126 133 134
f 128 127 135
f 135 127 134
f 130 136 129
f 138 137 136
f 137 129 136
f 137 131 129
f 131 139 132
f 131 137 139
f 140 67 61
f 132 140 61
f 139 140 132
f 141 68 67
f 141 67 140
f 142 69 68
f 142 68 141
f 143 70 69
f 143 69 142
f 144 71 70
f 144 70 143
f 144 145 71
f 71 145 66
f 145 146 66
f 146 133 66
f 133 146 134
f 134 146 147
f 134 147 135
f 138 148 137
f 150 149 148
f 149 137 148
f 149 139 137
f 139 151 140
f 139 149 151
f 140 152 141
f 140 151 152
f 141 153 142
f 141 152 153
f 142 154 143
f 142 153 154
f 143 155 144
f 143 154 155
f 145 144 156
f 156 144 155
f 150 157 149
f 149 157 151
f 151 157 158
f 151 158 152
f 152 158 159
f 152 159 153
f 153 159 160
f 153 160 154
f 154 160 161
f 154 161 155
f 155 161 162
f 155 162 156
f 165 164 163
f 167 166 163
f 163 166 165
f 167 168 166
f 171 170 169
f 73 74 169
f 74 171 169
f 74 172 171
f 173 74 75
f 173 172 74
f 77 163 164
f 173 77 164
f 75 77 173
f 163 77 79
f 163 79 167
f 174 168 167
f 79 174 167
f 81 174 79
f 176 175 83
f 175 81 83
f 175 174 81
f 178 177 176
f 176 177 175
f 178 179 177
f 182 181 180
f 182 180 170
f 170 180 169
f 180 85 169
f 85 86 169
f 169 86 73
f 92 176 83
f 176 92 94
f 176 94 178
f 184 183 96
f 96 183 94
f 183 179 94
f 179 178 94
f 184 185 183
f 180 181 99
f 181 98 99
f 181 186 98
f 180 99 85
f 103 184 96
f 103 105 184
f 105 185 184
f 105 187 185
f 190 189 188
f 186 190 188
f 107 186 188
f 98 186 107
f 111 192 191
f 187 111 191
f 105 111 187
f 192 193 191
f 188 189 194
f 194 189 195
f 194 113 107
f 194 107 188
f 116 196 192
f 116 192 111
f 193 192 197
f 197 192 196
f 194 195 198
f 198 195 199
f 198 118 113
f 198 113 194
f 122 200 196
f 122 196 116
f 197 196 201
f 201 196 200
f 198 199 202
f 202 199 203
f 202 124 118
f 202 118 198
f 128 204 200
f 128 200 122
f 201 200 205
f 205 200 204
f 203 206 202
f 124 202 206
f 207 124 206
f 130 124 207
f 209 208 204
f 128 209 204
f 135 209 128
f 204 208 205
f 136 130 210
f 130 211 210
f 130 207 211
f 210 138 136
f 145 212 146
f 213 147 146
f 213 146 212
f 213 214 147
f 214 135 147
f 214 209 135
f 211 215 210
f 215 217 216
f 215 216 148
f 210 215 148
f 138 210 148
f 216 150 148
f 219 218 212
f 145 219 212
f 156 219 145
f 212 218 213
f 213 218 220
f 213 220 214
f 217 221 216
f 221 223 222
f 221 222 157
f 216 221 157
f 150 216 157
f 224 158 157
f 224 157 222
f 225 159 158
f 225 158 224
f 226 160 159
f 226 159 225
f 227 161 160
f 227 160 226
f 161 227 228
f 229 161 228
f 162 161 229
f 156 162 219
f 219 162 229
f 223 230 222
f 222 230 224
f 224 230 231
f 224 231 225
f 225 231 232
f 225 232 226
f 226 232 233
f 226 233 227
f 227 233 234
f 227 234 228
f 237 236 235
f 239 238 235
f 235 238 237
f 241 240 239
f 239 240 238
f 243 242 241
f 241 242 240
f 245 244 243
f 243 244 242
f 245 246 244
f 249 248 247
f 251 250 247
f 247 250 249
f 250 251 236
f 251 235 236
f 251 252 235
f 235 253 239
f 235 252 253
f 253 164 165
f 241 253 165
f 239 253 241
f 241 165 166
f 241 166 243
f 243 166 168
f 254 243 168
f 245 243 254
f 246 245 255
f 245 256 255
f 245 254 256
f 258 257 256
f 256 257 255
f 258 259 257
f 247 248 260
f 260 248 261
f 260 170 171
f 251 260 171
f 247 260 251
f 251 171 172
f 251 172 252
f 252 172 173
f 252 173 253
f 253 173 164
f 174 254 168
f 254 174 175
f 254 175 256
f 256 175 177
f 256 177 258
f 263 262 179
f 179 262 177
f 262 259 177
f 259 258 177
f 263 264 262
f 267 266 265
f 267 265 261
f 261 265 260
f 265 181 260
f 181 182 260
f 260 182 170
f 183 263 179
f 269 268 185
f 185 268 183
f 268 264 183
f 264 263 183
f 269 270 268
f 265 266 271
f 271 266 272
f 271 186 181
f 271 181 265
f 187 273 269
f 187 269 185
f 270 269 274
f 274 269 273
f 271 272 190
f 272 189 190
f 272 275 189
f 271 190 186
f 191 273 187
f 191 193 273
f 193 274 273
f 193 276 274
f 279 278 277
f 275 279 277
f 195 275 277
f 189 275 195
f 197 281 280
f 276 197 280
f 193 197 276
f 281 282 280
f 278 283 277
f 195 277 283
f 284 195 283
f 199 195 284
f 201 285 281
f 201 281 197
f 282 281 286
f 286 281 285
f 284 203 199
f 287 203 284
f 289 288 285
f 201 289 285
f 205 289 201
f 285 288 286
f 206 203 290
f 203 291 290
f 203 287 291
f 290 207 206
f 209 292 208
f 292 293 208
f 293 205 208
f 293 289 205
f 290 291 294
f 294 291 295
f 294 211 207
f 294 207 290
f 214 296 292
f 214 292 209
f 293 292 297
f 297 292 296
f 295 298 294
f 298 300 299
f 298 299 215
f 294 298 215
f 211 294 215
f 299 217 215
f 219 301 218
f 302 220 218
f 302 218 301
f 302 303 220
f 220 303 214
f 303 304 214
f 304 296 214
f 296 304 297
f 299 300 305
f 305 300 306
f 307 221 217
f 299 307 217
f 305 307 299
f 307 223 221
f 228 308 229
f 308 309 229
f 229 309 219
f 309 310 219
f 310 301 219
f 301 310 302
f 302 310 311
f 302 311 303
f 306 312 305
f 314 313 312
f 313 305 312
f 313 307 305
f 315 230 223
f 307 315 223
f 313 315 307
f 316 231 230
f 316 230 315
f 317 232 231
f 317 231 316
f 318 233 232
f 318 232 317
f 319 234 233
f 319 233 318
f 308 228 234
f 319 308 234
f 320 308 319
f 309 308 321
f 321 308 320
f 314 322 313
f 313 322 315
f 315 322 323
f 315 323 316
f 316 323 324
f 316 324 317
f 317 324 325
f 317 325 318
f 318 325 326
f 318 326 319
f 319 326 327
f 319 327 320
f 320 327 328
f 320 328 321
f 331 330 329
f 236 237 329
f 237 331 329
f 237 332 331
f 333 237 238
f 333 332 237
f 334 238 240
f 334 333 238
f 335 240 242
f 335 334 240
f 336 242 244
f 336 335 242
f 338 337 246
f 337 244 246
f 337 336 244
f 338 339 337
f 341 340 249
f 249 340 248
f 250 329 330
f 341 250 330
f 249 250 341
f 329 250 236
f 255 338 246
f 342 339 338
f 255 342 338
f 257 342 255
f 344 343 259
f 343 257 259
f 343 342 257
f 344 345 343
f 340 261 248
f 346 261 340
f 262 344 259
f 348 347 264
f 264 347 262
f 347 345 262
f 345 344 262
f 348 349 347
f 351 350 267
f 267 350 266
f 267 261 346
f 267 346 351
f 268 348 264
f 268 270 348
f 270 349 348
f 270 352 349
f 350 272 266
f 353 272 350
f 274 352 270
f 274 354 352
f 353 275 272
f 355 275 353
f 276 357 356
f 354 276 356
f 274 276 354
f 357 358 356
f 360 359 279
f 279 359 278
f 279 275 355
f 279 355 360
f 280 357 276
f 280 282 357
f 282 358 357
f 282 361 358
f 283 278 362
f 278 363 362
f 278 359 363
f 362 284 283
f 286 361 282
f 286 364 361
f 362 363 365
f 365 363 366
f 365 287 284
f 365 284 362
f 289 367 288
f 367 368 288
f 368 286 288
f 368 364 286
f 366 369 365
f 287 365 369
f 370 287 369
f 291 287 370
f 372 371 367
f 289 372 367
f 293 372 289
f 367 371 368
f 370 295 291
f 373 295 370
f 297 372 293
f 297 374 372
f 298 295 375
f 295 376 375
f 295 373 376
f 375 300 298
f 303 377 304
f 377 378 304
f 378 297 304
f 378 374 297
f 376 379 375
f 300 375 379
f 380 300 379
f 306 300 380
f 309 381 310
f 382 311 310
f 382 310 381
f 382 383 311
f 311 383 303
f 383 384 303
f 384 377 303
f 377 384 378
f 380 385 306
f 306 385 312
f 314 312 385
f 314 385 386
f 388 387 381
f 309 388 381
f 321 388 309
f 381 387 382
f 382 387 389
f 382 389 383
f 386 390 314
f 314 390 322
f 322 391 323
f 390 391 322
f 323 392 324
f 391 392 323
f 324 393 325
f 392 393 324
f 393 395 394
f 326 393 394
f 325 393 326
f 326 394 396
f 397 326 396
f 327 326 397
f 327 398 328
f 397 398 327
f 321 328 388
f 388 328 398
f 395 399 394
f 394 399 396
f 402 401 400
f 404 403 400
f 400 403 402
f 406 405 404
f 404 405 403
f 408 407 406
f 406 407 405
f 410 409 408
f 408 409 407
f 410 411 409
f 414 413 412
f 330 331 412
f 331 414 412
f 331 415 414
f 332 400 401
f 415 332 401
f 331 332 415
f 400 332 333
f 400 333 404
f 404 333 334
f 404 334 406
f 406 334 335
f 406 335 408
f 408 335 336
f 408 336 410
f 416 411 410
f 336 416 410
f 337 416 336
f 418 417 339
f 417 337 339
f 417 416 337
f 420 419 418
f 418 419 417
f 420 421 419
f 412 413 341
f 413 340 341
f 413 422 340
f 412 341 330
f 342 418 339
f 418 342 343
f 418 343 420
f 343 345 420
f 345 421 420
f 345 423 421
f 426 425 424
f 422 426 424
f 346 422 424
f 340 422 346
f 427 423 345
f 427 345 347
f 347 349 427
f 427 349 428
f 424 425 351
f 425 350 351
f 425 429 350
f 424 351 346
f 352 428 349
f 352 430 428
f 433 432 431
f 429 433 431
f 353 429 431
f 350 429 353
f 354 435 434
f 430 354 434
f 352 354 430
f 435 436 434
f 431 432 437
f 437 432 438
f 437 355 353
f 437 353 431
f 356 435 354
f 356 358 435
f 358 436 435
f 358 439 436
f 437 438 360
f 438 359 360
f 438 440 359
f 437 360 355
f 361 439 358
f 361 441 439
f 440 363 359
f 442 363 440
f 364 441 361
f 364 443 441
f 442 366 363
f 444 366 442
f 368 443 364
f 368 445 443
f 369 366 446
f 366 447 446
f 366 444 447
f 446 370 369
f 372 448 371
f 448 449 371
f 449 368 371
f 449 445 368
f 447 450 446
f 370 446 450
f 451 370 450
f 373 370 451
f 453 452 448
f 372 453 448
f 374 453 372
f 448 452 449
f 451 376 373
f 454 376 451
f 378 453 374
f 378 455 453
f 454 456 376
f 376 456 379
f 380 379 456
f 380 456 457
f 459 458 384
f 459 384 383
f 378 384 455
f 455 384 458
f 385 380 460
f 380 461 460
f 380 457 461
f 460 386 385
f 388 462 387
f 463 389 387
f 463 387 462
f 463 464 389
f 464 383 389
f 464 459 383
f 461 465 460
f 460 465 386
f 465 390 386
f 465 466 390
f 466 468 467
f 391 466 467
f 390 466 391
f 469 392 391
f 469 391 467
f 470 393 392
f 470 392 469
f 470 395 393
f 396 471 397
f 472 398 397
f 472 397 471
f 472 473 398
f 398 473 388
f 473 474 388
f 474 462 388
f 462 474 463
f 463 474 475
f 463 475 464
f 468 476 467
f 467 476 469
f 469 476 477
f 469 477 470
f 470 477 478
f 470 478 395
f 478 399 395
f 478 479 399
f 396 399 471
f 399 480 471
f 399 479 480
f 471 480 472
f 472 480 481
f 472 481 473
f 484 483 482
f 482 485 484
f 487 486 402
f 402 486 401
f 488 402 403
f 488 487 402
f 489 403 405
f 489 488 403
f 407 482 483
f 489 407 483
f 405 407 489
f 490 485 482
f 407 490 482
f 409 490 407
f 492 491 411
f 491 409 411
f 491 490 409
f 492 493 491
f 495 494 414
f 414 494 413
f 496 414 415
f 496 495 414
f 415 401 486
f 415 486 496
f 416 492 411
f 497 493 492
f 416 497 492
f 417 497 416
f 498 417 419
f 498 497 417
f 419 421 498
f 498 421 499
f 502 501 500
f 494 502 500
f 422 494 500
f 413 494 422
f 423 504 503
f 499 423 503
f 421 423 499
f 504 505 503
f 500 501 426
f 501 425 426
f 501 506 425
f 500 426 422
f 427 504 423
f 427 428 504
f 428 505 504
f 428 507 505
f 510 509 508
f 506 510 508
f 429 506 508
f 425 506 429
f 430 512 511
f 507 430 511
f 428 430 507
f 512 513 511
f 508 509 433
f 509 432 433
f 509 514 432
f 508 433 429
f 434 512 430
f 434 436 512
f 436 513 512
f 436 515 513
f 514 438 432
f 516 438 514
f 439 515 436
f 439 517 515
f 516 440 438
f 518 440 516
f 441 517 439
f 441 519 517
f 518 442 440
f 520 442 518
f 443 519 441
f 443 521 519
f 520 444 442
f 522 444 520
f 445 521 443
f 445 523 521
f 522 447 444
f 524 447 522
f 449 523 445
f 449 525 523
f 524 526 447
f 447 526 450
f 451 450 526
f 451 526 527
f 453 528 452
f 528 529 452
f 529 449 452
f 529 525 449
f 527 454 451
f 530 454 527
f 455 531 528
f 455 528 453
f 529 528 532
f 532 528 531
f 456 454 533
f 454 534 533
f 454 530 534
f 533 457 456
f 459 535 458
f 535 536 458
f 458 536 455
f 536 537 455
f 537 531 455
f 531 537 532
f 534 538 533
f 457 533 538
f 539 457 538
f 461 457 539
f 541 540 535
f 459 541 535
f 464 541 459
f 535 540 536
f 539 542 461
f 461 542 465
f 465 543 466
f 542 543 465
f 468 466 543
f 468 543 544
f 546 545 474
f 546 474 473
f 474 547 475
f 545 547 474
f 464 475 541
f 541 475 547
f 544 548 468
f 468 548 476
f 476 549 477
f 548 549 476
f 477 550 478
f 549 550 477
f 550 552 551
f 479 550 551
f 478 550 479
f 479 551 553
f 554 479 553
f 480 479 554
f 480 555 481
f 554 555 480
f 473 481 546
f 546 481 555
f 552 556 551
f 551 556 553
f 559 558 557
f 561 560 557
f 557 560 559
f 483 484 561
f 484 560 561
f 484 562 560
f 564 563 485
f 563 484 485
f 563 562 484
f 564 565 563
f 567 566 487
f 487 566 486
f 488 557 558
f 567 488 558
f 487 488 567
f 557 488 489
f 557 489 561
f 561 489 483
f 490 564 485
f 568 565 564
f 490 568 564
f 491 568 490
f 491 493 568
f 568 493 569
f 571 570 495
f 495 570 494
f 572 495 496
f 572 571 495
f 496 486 566
f 496 566 572
f 573 569 493
f 573 493 497
f 574 497 498
f 574 573 497
f 498 499 574
f 574 499 575
f 577 576 502
f 502 576 501
f 502 494 570
f 502 570 577
f 578 575 499
f 578 499 503
f 503 505 578
f 578 505 579
f 582 581 580
f 576 582 580
f 506 576 580
f 501 576 506
f 507 584 583
f 579 507 583
f 505 507 579
f 584 585 583
f 580 581 510
f 581 509 510
f 581 586 509
f 580 510 506
f 511 584 507
f 511 513 584
f 513 585 584
f 513 587 585
f 586 514 509
f 588 514 586
f 515 587 513
f 515 589 587
f 588 516 514
f 590 516 588
f 517 589 515
f 517 591 589
f 590 518 516
f 592 518 590
f 519 591 517
f 519 593 591
f 592 520 518
f 594 520 592
f 521 593 519
f 521 595 593
f 594 522 520
f 596 522 594
f 523 595 521
f 523 597 595
f 596 524 522
f 598 524 596
f 525 597 523
f 525 599 597
f 598 600 524
f 524 600 526
f 527 526 600
f 527 600 601
f 529 599 525
f 529 602 599
f 601 530 527
f 603 530 601
f 532 602 529
f 532 604 602
f 603 534 530
f 605 534 603
f 607 606 537
f 607 537 536
f 532 537 604
f 604 537 606
f 605 608 534
f 534 608 538
f 539 538 608
f 539 608 609
f 611 610 540
f 611 540 541
f 536 540 607
f 607 540 610
f 609 612 539
f 539 612 542
f 542 613 543
f 612 613 542
f 544 543 613
f 544 613 614
f 616 615 545
f 616 545 546
f 545 617 547
f 615 617 545
f 541 547 611
f 611 547 617
f 614 618 544
f 544 618 548
f 548 619 549
f 618 619 548
f 619 621 620
f 550 619 620
f 549 619 550
f 620 552 550
f 623 622 554
f 623 554 553
f 554 624 555
f 622 624 554
f 546 555 616
f 616 555 624
f 621 625 620
f 620 625 552
f 625 556 552
f 625 626 556
f 553 556 623
f 623 556 626
f 628 627 559
f 559 627 558
f 629 559 560
f 629 628 559
f 630 560 562
f 630 629 560
f 631 562 563
f 631 630 562
f 563 565 631
f 631 565 632
f 634 633 567
f 567 633 566
f 567 558 627
f 567 627 634
f 635 632 565
f 635 565 568
f 568 569 635
f 635 569 636
f 638 637 571
f 571 637 570
f 639 571 572
f 639 638 571
f 572 566 633
f 572 633 639
f 640 636 569
f 640 569 573
f 641 573 574
f 641 640 573
f 574 575 641
f 641 575 642
f 644 643 577
f 577 643 576
f 577 570 637
f 577 637 644
f 645 642 575
f 645 575 578
f 578 579 645
f 645 579 646
f 648 647 582
f 582 647 581
f 582 576 643
f 582 643 648
f 649 646 579
f 649 579 583
f 583 585 649
f 649 585 650
f 647 586 581
f 651 586 647
f 587 650 585
f 587 652 650
f 651 588 586
f 653 588 651
f 589 652 587
f 589 654 652
f 653 590 588
f 655 590 653
f 591 654 589
f 591 656 654
f 655 592 590
f 657 592 655
f 593 656 591
f 593 658 656
f 657 594 592
f 659 594 657
f 595 658 593
f 595 660 658
f 659 596 594
f 661 596 659
f 597 660 595
f 597 662 660
f 661 598 596
f 663 598 661
f 599 662 597
f 599 664 662
f 600 598 665
f 598 666 665
f 598 663 666
f 665 601 600
f 602 664 599
f 602 667 664
f 666 668 665
f 601 665 668
f 669 601 668
f 603 601 669
f 604 667 602
f 604 670 667
f 669 605 603
f 671 605 669
f 673 672 606
f 673 606 607
f 604 606 670
f 670 606 672
f 671 674 605
f 605 674 608
f 609 608 674
f 609 674 675
f 677 676 610
f 677 610 611
f 607 610 673
f 673 610 676
f 675 678 609
f 609 678 612
f 678 680 679
f 613 678 679
f 612 678 613
f 679 614 613
f 682 681 615
f 682 615 616
f 615 683 617
f 681 683 615
f 611 617 677
f 677 617 683
f 680 684 679
f 679 684 614
f 684 618 614
f 684 685 618
f 618 686 619
f 685 686 618
f 621 619 686
f 621 686 687
f 689 688 622
f 689 622 623
f 622 690 624
f 688 690 622
f 616 624 682
f 682 624 690
f 687 691 621
f 621 691 625
f 625 692 626
f 691 692 625
f 623 626 689
f 689 626 692
f 693 627 628
f 693 628 694
f 628 695 694
f 628 629 695
f 696 629 630
f 696 695 629
f 698 696 697
f 696 631 697
f 696 630 631
f 632 697 631
f 700 699 634
f 634 699 633
f 634 627 693
f 701 634 693
f 700 634 701
f 701 693 694
f 702 698 697
f 702 697 632
f 635 702 632
f 703 702 635
f 635 636 703
f 703 636 704
f 706 705 638
f 638 705 637
f 707 638 639
f 707 706 638
f 639 633 699
f 639 699 707
f 708 704 636
f 708 636 640
f 709 640 641
f 709 708 640
f 641 642 709
f 709 642 710
f 712 711 644
f 644 711 643
f 644 637 705
f 644 705 712
f 713 710 642
f 713 642 645
f 645 646 713
f 713 646 714
f 716 715 648
f 648 715 647
f 648 643 711
f 648 711 716
f 646 649 717
f 718 646 717
f 714 646 718
f 650 717 649
f 715 651 647
f 719 651 715
f 720 718 717
f 717 650 720
f 650 721 720
f 650 652 721
f 719 653 651
f 722 653 719
f 654 721 652
f 654 723 721
f 722 655 653
f 724 655 722
f 656 723 654
f 656 725 723
f 724 657 655
f 726 657 724
f 658 725 656
f 658 727 725
f 726 659 657
f 728 659 726
f 660 727 658
f 660 729 727
f 728 661 659
f 730 661 728
f 662 729 660
f 662 731 729
f 730 663 661
f 732 663 730
f 664 731 662
f 664 733 731
f 735 666 734
f 666 732 734
f 666 663 732
f 736 735 734
f 667 733 664
f 667 737 733
f 735 668 666
f 669 668 735
f 736 669 735
f 738 669 736
f 741 740 739
f 740 737 739
f 737 670 739
f 737 667 670
f 738 671 669
f 742 671 738
f 741 739 672
f 673 741 672
f 743 741 673
f 672 739 670
f 742 744 671
f 671 744 674
f 675 674 744
f 675 744 745
f 747 746 676
f 747 676 677
f 673 676 743
f 743 676 746
f 745 748 675
f 675 748 678
f 750 749 680
f 678 750 680
f 748 750 678
f 751 749 750
f 753 752 681
f 753 681 682
f 681 754 683
f 752 754 681
f 677 683 747
f 747 683 754
f 749 684 680
f 751 755 749
f 755 684 749
f 755 685 684
f 685 756 686
f 755 756 685
f 758 757 687
f 686 758 687
f 756 758 686
f 760 759 757
f 760 757 758
f 688 689 759
f 760 688 759
f 761 688 760
f 688 762 690
f 761 762 688
f 682 690 753
f 753 690 762
f 757 691 687
f 691 757 692
f 692 757 759
f 692 759 689
f 763 694 695
f 696 764 695
f 695 764 763
f 698 764 696
f 766 765 700
f 700 765 699
f 767 700 701
f 767 766 700
f 701 694 763
f 768 701 763
f 767 701 768
f 768 763 764
f 768 764 769
f 769 764 698
f 702 769 698
f 770 769 702
f 771 702 703
f 771 770 702
f 703 704 771
f 771 704 772
f 774 773 706
f 706 773 705
f 775 706 707
f 775 774 706
f 707 699 765
f 707 765 775
f 776 772 704
f 776 704 708
f 777 708 709
f 777 776 708
f 709 710 777
f 777 710 778
f 779 711 712
f 780 779 712
f 705 780 712
f 773 780 705
f 781 778 710
f 781 710 713
f 713 714 781
f 781 714 782
f 783 715 716
f 784 783 716
f 784 716 711
f 785 784 711
f 779 785 711
f 785 779 780
f 718 782 714
f 718 786 782
f 788 787 783
f 787 715 783
f 787 719 715
f 788 783 784
f 718 720 789
f 790 718 789
f 786 718 790
f 721 789 720
f 787 722 719
f 791 722 787
f 792 790 789
f 789 721 792
f 721 793 792
f 721 723 793
f 791 724 722
f 794 724 791
f 725 793 723
f 725 795 793
f 794 726 724
f 796 726 794
f 727 795 725
f 727 797 795
f 796 728 726
f 798 728 796
f 729 797 727
f 729 799 797
f 798 730 728
f 800 730 798
f 731 799 729
f 731 801 799
f 800 732 730
f 802 732 800
f 733 801 731
f 733 803 801
f 802 804 732
f 732 804 734
f 736 734 804
f 736 804 805
f 808 807 806
f 807 803 806
f 803 737 806
f 803 733 737
f 805 738 736
f 809 738 805
f 808 806 740
f 741 808 740
f 810 808 741
f 740 806 737
f 809 742 738
f 811 742 809
f 814 813 812
f 813 810 812
f 810 743 812
f 810 741 743
f 811 815 742
f 742 815 744
f 745 744 815
f 745 815 816
f 814 812 746
f 747 814 746
f 817 814 747
f 746 812 743
f 816 818 745
f 745 818 748
f 748 819 750
f 818 819 748
f 751 750 819
f 751 819 820
f 823 822 821
f 752 753 821
f 822 752 821
f 824 752 822
f 752 825 754
f 824 825 752
f 747 754 817
f 817 754 825
f 820 826 751
f 751 826 755
f 755 827 756
f 826 827 755
f 756 828 758
f 827 828 756
f 758 829 760
f 828 829 758
f 760 830 761
f 829 830 760
f 821 762 823
f 762 830 823
f 762 761 830
f 762 821 753
f 831 765 766
f 767 832 766
f 766 832 831
f 832 767 833
f 767 834 833
f 767 768 834
f 835 768 769
f 835 834 768
f 837 835 836
f 835 770 836
f 835 769 770
f 771 838 770
f 770 838 836
f 772 838 771
f 839 773 774
f 839 774 840
f 774 841 840
f 774 775 841
f 775 765 831
f 842 775 831
f 841 775 842
f 842 831 832
f 842 832 843
f 843 832 833
f 844 837 836
f 844 836 838
f 844 838 845
f 845 838 772
f 776 845 772
f 846 845 776
f 848 846 847
f 846 777 847
f 846 776 777
f 778 847 777
f 850 849 839
f 849 773 839
f 849 780 773
f 850 839 840
f 851 848 847
f 853 851 852
f 852 851 781
f 851 847 781
f 847 778 781
f 782 852 781
f 855 854 785
f 785 854 784
f 785 780 849
f 785 849 855
f 856 853 852
f 852 782 856
f 782 857 856
f 782 786 857
f 858 787 788
f 859 858 788
f 784 859 788
f 854 859 784
f 790 857 786
f 790 860 857
f 862 861 858
f 861 787 858
f 861 791 787
f 862 858 859
f 790 792 863
f 864 790 863
f 860 790 864
f 793 863 792
f 861 794 791
f 865 794 861
f 866 864 863
f 863 793 866
f 793 867 866
f 793 795 867
f 865 796 794
f 868 796 865
f 797 867 795
f 797 869 867
f 868 798 796
f 870 798 868
f 799 869 797
f 799 871 869
f 870 800 798
f 872 800 870
f 801 871 799
f 801 873 871
f 875 802 874
f 802 872 874
f 802 800 872
f 876 875 874
f 879 878 877
f 878 873 877
f 873 803 877
f 873 801 803
f 875 804 802
f 805 804 875
f 876 805 875
f 880 805 876
f 879 877 807
f 808 879 807
f 881 879 808
f 807 877 803
f 880 809 805
f 882 809 880
f 810 881 808
f 810 883 881
f 885 811 884
f 811 882 884
f 811 809 882
f 886 885 884
f 888 887 813
f 888 813 814
f 810 813 883
f 883 813 887
f 885 815 811
f 890 889 816
f 890 816 815
f 886 890 815
f 885 886 815
f 891 889 890
f 894 893 892
f 893 888 892
f 888 817 892
f 888 814 817
f 889 818 816
f 891 895 889
f 895 818 889
f 895 819 818
f 897 896 820
f 819 897 820
f 895 897 819
f 898 896 897
f 901 900 899
f 903 902 899
f 903 899 900
f 822 823 902
f 903 822 902
f 904 822 903
f 822 905 824
f 904 905 822
f 892 825 894
f 825 905 894
f 825 824 905
f 825 892 817
f 896 826 820
f 898 906 896
f 906 826 896
f 906 827 826
f 827 907 828
f 906 907 827
f 899 829 901
f 829 907 901
f 829 828 907
f 829 899 830
f 830 899 902
f 830 902 823
f 908 833 834
f 835 909 834
f 834 909 908
f 837 909 835
f 910 840 841
f 910 841 911
f 841 912 911
f 841 842 912
f 913 842 843
f 913 912 842
f 843 833 908
f 914 843 908
f 913 843 914
f 914 908 909
f 914 909 915
f 915 909 837
f 844 915 837
f 916 915 844
f 917 844 845
f 917 916 844
f 919 917 918
f 917 846 918
f 917 845 846
f 848 918 846
f 920 849 850
f 921 920 850
f 921 850 840
f 922 921 840
f 910 922 840
f 922 910 911
f 923 919 918
f 925 923 924
f 924 923 851
f 923 918 851
f 918 848 851
f 853 924 851
f 926 854 855
f 927 926 855
f 927 855 849
f 928 927 849
f 920 928 849
f 928 920 921
f 929 925 924
f 931 929 930
f 930 929 856
f 929 924 856
f 924 853 856
f 857 930 856
f 933 932 926
f 932 854 926
f 932 859 854
f 933 926 927
f 934 931 930
f 930 857 934
f 857 935 934
f 857 860 935
f 936 861 862
f 937 936 862
f 859 937 862
f 932 937 859
f 864 935 860
f 864 938 935
f 940 939 936
f 939 861 936
f 939 865 861
f 940 936 937
f 864 866 941
f 942 864 941
f 938 864 942
f 867 941 866
f 939 868 865
f 943 868 939
f 942 941 944
f 942 944 945
f 869 944 867
f 867 944 941
f 943 870 868
f 946 870 943
f 945 944 947
f 945 947 948
f 871 947 869
f 869 947 944
f 950 872 949
f 872 946 949
f 872 870 946
f 951 950 949
f 948 947 952
f 948 952 953
f 873 952 871
f 871 952 947
f 950 874 872
f 876 874 950
f 951 876 950
f 954 876 951
f 953 952 878
f 879 953 878
f 955 953 879
f 878 952 873
f 954 880 876
f 956 880 954
f 881 955 879
f 881 957 955
f 959 882 958
f 882 956 958
f 882 880 956
f 960 959 958
f 963 962 961
f 962 957 961
f 957 883 961
f 957 881 883
f 959 884 882
f 886 884 959
f 960 886 959
f 964 886 960
f 963 961 887
f 888 963 887
f 965 963 888
f 887 961 883
f 964 966 886
f 886 966 890
f 968 967 891
f 890 968 891
f 966 968 890
f 969 967 968
f 972 971 970
f 974 973 970
f 974 970 971
f 893 894 973
f 974 893 973
f 975 893 974
f 888 893 965
f 965 893 975
f 967 895 891
f 969 976 967
f 976 895 967
f 976 897 895
f 978 977 898
f 897 978 898
f 976 978 897
f 980 979 977
f 980 977 978
f 900 901 979
f 980 900 979
f 981 900 980
f 900 982 903
f 981 982 900
f 970 904 972
f 904 982 972
f 904 903 982
f 904 970 905
f 905 970 973
f 905 973 894
f 977 906 898
f 906 977 907
f 907 977 979
f 907 979 901
f 983 911 912
f 913 984 912
f 912 984 983
f 914 985 913
f 913 985 984
f 915 986 914
f 914 986 985
f 916 987 915
f 915 987 986
f 917 988 916
f 916 988 987
f 919 988 917
f 989 921 922
f 990 989 922
f 990 922 911
f 991 990 911
f 983 991 911
f 991 983 984
f 991 984 992
f 992 984 985
f 992 985 993
f 993 985 986
f 993 986 994
f 994 986 987
f 994 987 995
f 997 996 995
f 987 997 995
f 988 997 987
f 923 998 919
f 998 988 919
f 998 997 988
f 925 998 923
f 999 927 928
f 1000 999 928
f 1000 928 921
f 1001 1000 921
f 989 1001 921
f 1001 989 990
f 1002 996 997
f 1002 997 998
f 1002 998 1003
f 1005 1003 1004
f 1004 1003 929
f 1003 998 929
f 998 925 929
f 931 1004 929
f 1006 932 933
f 1007 1006 933
f 1007 933 927
f 1008 1007 927
f 999 1008 927
f 1008 999 1000
f 1009 1005 1004
f 1011 1009 1010
f 1010 1009 934
f 1009 1004 934
f 1004 931 934
f 935 1010 934
f 1013 1012 1006
f 1012 932 1006
f 1012 937 932
f 1013 1006 1007
f 1011 1010 1014
f 1011 1014 1015
f 938 1014 935
f 935 1014 1010
f 1016 939 940
f 1017 1016 940
f 937 1017 940
f 1012 1017 937
f 1015 1014 1018
f 1015 1018 1019
f 942 1018 938
f 938 1018 1014
f 1020 943 1016
f 1016 943 939
f 1016 1017 1021
f 1016 1021 1020
f 1022 1019 1018
f 1018 942 1022
f 942 1023 1022
f 942 945 1023
f 1024 946 1020
f 1020 946 943
f 1020 1021 1025
f 1020 1025 1024
f 948 1023 945
f 948 1026 1023
f 1024 949 946
f 1028 1027 951
f 1028 951 949
f 1025 1028 949
f 1024 1025 949
f 1029 1027 1028
f 1032 1031 1030
f 1031 1026 1030
f 1026 953 1030
f 1026 948 953
f 1033 954 1027
f 1027 954 951
f 1027 1029 1034
f 1027 1034 1033
f 1032 1030 1035
f 1032 1035 1036
f 955 1035 953
f 953 1035 1030
f 1037 956 1033
f 1033 956 954
f 1033 1034 1038
f 1033 1038 1037
f 1036 1035 1039
f 1036 1039 1040
f 957 1039 955
f 955 1039 1035
f 1037 958 956
f 960 958 1037
f 1038 960 1037
f 1041 960 1038
f 1044 1043 1042
f 1042 1043 1040
f 1042 1040 1039
f 963 1042 1039
f 962 963 1039
f 962 1039 957
f 1046 964 1045
f 964 1041 1045
f 964 960 1041
f 1048 1047 1046
f 1048 1046 1045
f 1050 1049 1047
f 1050 1047 1048
f 1051 1049 1050
f 1054 1053 1052
f 1056 1055 1052
f 1056 1052 1053
f 1055 1056 1044
f 1042 1055 1044
f 1057 1055 1042
f 965 1057 963
f 963 1057 1042
f 1046 966 964
f 966 1046 968
f 968 1046 1047
f 968 1047 969
f 1047 1058 969
f 1047 1049 1058
f 1049 1051 1059
f 1060 1049 1059
f 1058 1049 1060
f 1062 1061 1060
f 1062 1060 1059
f 1064 1063 1061
f 1064 1061 1062
f 1066 1065 1063
f 1066 1063 1064
f 1065 1066 1054
f 1065 1054 1052
f 972 1065 1052
f 971 972 1052
f 971 1052 974
f 974 1052 1055
f 974 1055 975
f 975 1055 1057
f 975 1057 965
f 1058 976 969
f 976 1058 978
f 978 1058 1060
f 978 1060 980
f 980 1060 1061
f 980 1061 981
f 981 1061 1063
f 981 1063 982
f 982 1063 1065
f 982 1065 972
f 1067 990 991
f 992 1068 991
f 991 1068 1067
f 993 1069 992
f 992 1069 1068
f 994 1070 993
f 993 1070 1069
f 995 1071 994
f 994 1071 1070
f 996 1071 995
f 1072 1000 1001
f 1073 1072 1001
f 1073 1001 990
f 1074 1073 990
f 1067 1074 990
f 1074 1067 1068
f 1074 1068 1075
f 1075 1068 1069
f 1075 1069 1076
f 1076 1069 1070
f 1076 1070 1077
f 1077 1070 1071
f 1077 1071 1078
f 1080 1078 1079
f 1079 1078 1002
f 1078 1071 1002
f 1071 996 1002
f 1003 1081 1002
f 1002 1081 1079
f 1005 1081 1003
f 1082 1007 1008
f 1083 1082 1008
f 1083 1008 1000
f 1084 1083 1000
f 1072 1084 1000
f 1084 1072 1073
f 1085 1080 1079
f 1087 1086 1085
f 1079 1087 1085
f 1081 1087 1079
f 1009 1088 1005
f 1088 1081 1005
f 1088 1087 1081
f 1011 1088 1009
f 1089 1012 1013
f 1090 1089 1013
f 1090 1013 1007
f 1091 1090 1007
f 1082 1091 1007
f 1091 1082 1083
f 1092 1086 1087
f 1092 1087 1088
f 1092 1088 1093
f 1088 1011 1093
f 1011 1094 1093
f 1011 1015 1094
f 1095 1017 1089
f 1089 1017 1012
f 1089 1090 1096
f 1089 1096 1095
f 1019 1094 1015
f 1019 1097 1094
f 1098 1021 1095
f 1095 1021 1017
f 1095 1096 1099
f 1095 1099 1098
f 1019 1022 1100
f 1101 1019 1100
f 1097 1019 1101
f 1023 1100 1022
f 1102 1025 1098
f 1098 1025 1021
f 1098 1099 1103
f 1098 1103 1102
f 1101 1100 1104
f 1101 1104 1105
f 1026 1104 1023
f 1023 1104 1100
f 1102 1028 1025
f 1029 1028 1102
f 1103 1029 1102
f 1106 1029 1103
f 1105 1104 1031
f 1032 1105 1031
f 1107 1105 1032
f 1031 1104 1026
f 1106 1034 1029
f 1108 1034 1106
f 1036 1107 1032
f 1036 1109 1107
f 1111 1038 1110
f 1038 1108 1110
f 1038 1034 1108
f 1112 1111 1110
f 1115 1114 1113
f 1117 1116 1113
f 1117 1113 1114
f 1117 1109 1116
f 1109 1040 1116
f 1109 1036 1040
f 1118 1041 1111
f 1111 1041 1038
f 1111 1112 1119
f 1120 1111 1119
f 1118 1111 1120
f 1121 1120 1119
f 1115 1113 1122
f 1115 1122 1123
f 1044 1122 1043
f 1122 1116 1043
f 1122 1113 1116
f 1043 1116 1040
f 1118 1045 1041
f 1045 1118 1048
f 1048 1118 1120
f 1121 1124 1120
f 1124 1048 1120
f 1124 1050 1048
f 1126 1125 1051
f 1050 1126 1051
f 1124 1126 1050
f 1128 1127 1125
f 1128 1125 1126
f 1130 1129 1127
f 1130 1127 1128
f 1132 1131 1129
f 1132 1129 1130
f 1053 1054 1131
f 1132 1053 1131
f 1133 1053 1132
f 1122 1056 1123
f 1056 1133 1123
f 1056 1053 1133
f 1056 1122 1044
f 1125 1059 1051
f 1059 1125 1062
f 1062 1125 1127
f 1062 1127 1064
f 1064 1127 1129
f 1064 1129 1066
f 1066 1129 1131
f 1066 1131 1054
f 1134 1073 1074
f 1075 1135 1074
f 1074 1135 1134
f 1076 1136 1075
f 1075 1136 1135
f 1077 1137 1076
f 1076 1137 1136
f 1078 1138 1077
f 1077 1138 1137
f 1080 1138 1078
f 1139 1083 1084
f 1073 1134 1084
f 1134 1139 1084
f 1134 1140 1139
f 1135 1142 1141
f 1140 1135 1141
f 1134 1135 1140
f 1142 1135 1136
f 1142 1136 1143
f 1143 1136 1137
f 1143 1137 1144
f 1146 1145 1144
f 1137 1146 1144
f 1138 1146 1137
f 1085 1147 1080
f 1147 1138 1080
f 1147 1146 1138
f 1086 1147 1085
f 1148 1090 1091
f 1083 1139 1091
f 1139 1148 1091
f 1139 1149 1148
f 1140 1151 1150
f 1149 1140 1150
f 1139 1140 1149
f 1151 1140 1141
f 1152 1145 1146
f 1152 1146 1147
f 1152 1147 1153
f 1155 1153 1154
f 1154 1153 1092
f 1153 1147 1092
f 1147 1086 1092
f 1093 1156 1092
f 1092 1156 1154
f 1094 1156 1093
f 1157 1096 1148
f 1148 1096 1090
f 1158 1148 1149
f 1157 1148 1158
f 1149 1150 1159
f 1149 1159 1158
f 1155 1154 1160
f 1155 1160 1161
f 1162 1154 1156
f 1160 1154 1162
f 1097 1162 1094
f 1094 1162 1156
f 1163 1099 1157
f 1157 1099 1096
f 1158 1165 1164
f 1163 1158 1164
f 1157 1158 1163
f 1165 1158 1159
f 1161 1160 1166
f 1161 1166 1167
f 1168 1160 1162
f 1166 1160 1168
f 1101 1168 1097
f 1097 1168 1162
f 1169 1103 1163
f 1163 1103 1099
f 1163 1164 1170
f 1163 1170 1169
f 1167 1166 1171
f 1167 1171 1172
f 1173 1166 1168
f 1171 1166 1173
f 1105 1173 1101
f 1101 1173 1168
f 1174 1106 1169
f 1169 1106 1103
f 1169 1170 1175
f 1169 1175 1174
f 1172 1171 1176
f 1172 1176 1177
f 1178 1171 1173
f 1176 1171 1178
f 1107 1178 1105
f 1105 1178 1173
f 1179 1108 1174
f 1174 1108 1106
f 1174 1175 1180
f 1181 1174 1180
f 1179 1174 1181
f 1182 1181 1180
f 1177 1176 1183
f 1177 1183 1184
f 1185 1176 1178
f 1183 1176 1185
f 1109 1185 1107
f 1107 1185 1178
f 1179 1110 1108
f 1110 1179 1112
f 1179 1186 1112
f 1179 1181 1186
f 1181 1182 1187
f 1188 1181 1187
f 1186 1181 1188
f 1189 1188 1187
f 1192 1191 1190
f 1194 1193 1190
f 1194 1190 1191
f 1193 1194 1184
f 1193 1184 1183
f 1115 1193 1183
f 1114 1115 1183
f 1114 1183 1117
f 1117 1183 1185
f 1117 1185 1109
f 1186 1119 1112
f 1119 1186 1121
f 1186 1195 1121
f 1186 1188 1195
f 1188 1189 1196
f 1197 1188 1196
f 1195 1188 1197
f 1199 1198 1197
f 1199 1197 1196
f 1201 1200 1198
f 1201 1198 1199
f 1200 1201 1192
f 1190 1200 1192
f 1202 1200 1190
f 1203 1190 1193
f 1202 1190 1203
f 1123 1203 1115
f 1115 1203 1193
f 1195 1124 1121
f 1124 1195 1126
f 1126 1195 1197
f 1126 1197 1128
f 1128 1197 1198
f 1128 1198 1130
f 1130 1198 1200
f 1130 1200 1132
f 1132 1200 1202
f 1132 1202 1133
f 1133 1202 1203
f 1133 1203 1123
f 1204 1141 1142
f 1143 1205 1142
f 1142 1205 1204
f 1144 1206 1143
f 1143 1206 1205
f 1145 1206 1144
f 1207 1150 1151
f 1141 1204 1151
f 1204 1207 1151
f 1204 1208 1207
f 1209 1204 1205
f 1208 1204 1209
f 1210 1205 1206
f 1209 1205 1210
f 1152 1211 1145
f 1211 1206 1145
f 1211 1210 1206
f 1153 1212 1152
f 1152 1212 1211
f 1155 1212 1153
f 1213 1159 1207
f 1207 1159 1150
f 1214 1207 1208
f 1213 1207 1214
f 1215 1208 1209
f 1214 1208 1215
f 1216 1209 1210
f 1215 1209 1216
f 1217 1210 1211
f 1216 1210 1217
f 1218 1211 1212
f 1217 1211 1218
f 1161 1218 1155
f 1155 1218 1212
f 1219 1164 1165
f 1159 1213 1165
f 1213 1219 1165
f 1213 1220 1219
f 1214 1222 1221
f 1220 1214 1221
f 1213 1214 1220
f 1222 1214 1215
f 1222 1215 1223
f 1223 1215 1216
f 1223 1216 1224
f 1226 1225 1224
f 1216 1226 1224
f 1217 1226 1216
f 1227 1217 1218
f 1226 1217 1227
f 1167 1227 1161
f 1161 1227 1218
f 1228 1170 1219
f 1219 1170 1164
f 1220 1230 1229
f 1228 1220 1229
f 1219 1220 1228
f 1230 1220 1221
f 1225 1226 1231
f 1225 1231 1232
f 1233 1226 1227
f 1231 1226 1233
f 1172 1233 1167
f 1167 1233 1227
f 1234 1175 1228
f 1228 1175 1170
f 1228 1229 1235
f 1236 1228 1235
f 1234 1228 1236
f 1237 1236 1235
f 1232 1231 1238
f 1232 1238 1239
f 1240 1231 1233
f 1238 1231 1240
f 1177 1240 1172
f 1172 1240 1233
f 1234 1180 1175
f 1180 1234 1182
f 1234 1241 1182
f 1234 1236 1241
f 1236 1237 1242
f 1243 1236 1242
f 1241 1236 1243
f 1245 1244 1243
f 1245 1243 1242
f 1247 1246 1244
f 1247 1244 1245
f 1246 1247 1239
f 1238 1246 1239
f 1248 1246 1238
f 1249 1238 1240
f 1248 1238 1249
f 1184 1249 1177
f 1177 1249 1240
f 1241 1187 1182
f 1187 1241 1189
f 1241 1250 1189
f 1241 1243 1250
f 1251 1243 1244
f 1250 1243 1251
f 1252 1244 1246
f 1251 1244 1252
f 1192 1252 1191
f 1252 1248 1191
f 1252 1246 1248
f 1191 1248 1194
f 1194 1248 1249
f 1194 1249 1184
f 1250 1196 1189
f 1196 1250 1199
f 1199 1250 1251
f 1199 1251 1201
f 1201 1251 1252
f 1201 1252 1192
f 1253 1221 1222
f 1223 1254 1222
f 1222 1254 1253
f 1224 1255 1223
f 1223 1255 1254
f 1225 1255 1224
f 1256 1229 1230
f 1221 1253 1230
f 1253 1256 1230
f 1253 1257 1256
f 1258 1253 1254
f 1257 1253 1258
f 1259 1254 1255
f 1258 1254 1259
f 1232 1259 1225
f 1225 1259 1255
f 1256 1235 1229
f 1235 1256 1237
f 1256 1260 1237
f 1256 1257 1260
f 1261 1257 1258
f 1260 1257 1261
f 1262 1258 1259
f 1261 1258 1262
f 1239 1262 1232
f 1232 1262 1259
f 1260 1242 1237
f 1242 1260 1245
f 1245 1260 1261
f 1245 1261 1247
f 1247 1261 1262
f 1247 1262 1239
