ply
format ascii 1.0
element vertex 1262
property float x
property float y
property float z
element face 2520
property list uchar int vertex_indices
end_header
-1.20786555 -0.06321086 -0.21428571
-1.14127782 -0.06321086 -0.28571429
-1.14127782 -0.12979859 -0.21428571
-1.14127782 -0.12979859 -0.07142857
-1.20786555 -0.06321086 -0.07142857
-1.14127782 -0.12979859 0.07142857
-1.20786555 -0.06321086 0.07142857
-1.14127782 -0.06321086 0.14285714
-1.14127782 0.00337687 -0.21428571
-1.20786555 0.06996460 -0.07142857
-1.14127782 0.06996460 -0.14285714
-1.20786555 0.06996460 0.07142857
-1.14127782 0.06996460 0.14285714
-1.14127782 0.13655233 -0.07142857
-1.14127782 0.13655233 0.07142857
-1.07469009 -0.32956178 -0.35714286
-1.00810236 -0.32956178 -0.42857143
-1.00810236 -0.39614951 -0.35714286
-1.00810236 -0.39614951 -0.21428571
-1.07469009 -0.32956178 -0.21428571
-1.00810236 -0.39614951 -0.07142857
-1.07469009 -0.32956178 -0.07142857
-1.00810236 -0.39614951 0.07142857
-1.07469009 -0.32956178 0.07142857
-1.00810236 -0.39614951 0.21428571
-1.07469009 -0.32956178 0.21428571
-1.00810236 -0.32956178 0.28571429
-1.07469009 -0.19638632 -0.35714286
-1.00810236 -0.19638632 -0.42857143
-1.07469009 -0.19638632 -0.21428571
-1.07469009 -0.19638632 -0.07142857
-1.07469009 -0.19638632 0.07142857
-1.07469009 -0.19638632 0.21428571
-1.00810236 -0.26297405 0.35714286
-1.07469009 -0.19638632 0.35714286
-1.00810236 -0.19638632 0.42857143
-1.07469009 -0.06321086 -0.50000000
-1.00810236 -0.06321086 -0.57142857
-1.00810236 -0.12979859 -0.50000000
-1.07469009 -0.06321086 -0.35714286
-1.07469009 -0.06321086 0.21428571
-1.07469009 -0.06321086 0.35714286
-1.00810236 -0.06321086 0.42857143
-1.00810236 0.00337687 -0.50000000
-1.07469009 0.06996460 -0.35714286
-1.00810236 0.06996460 -0.42857143
-1.07469009 0.06996460 -0.21428571
-1.07469009 0.06996460 0.21428571
-1.07469009 0.06996460 0.35714286
-1.00810236 0.06996460 0.42857143
-1.07469009 0.20314006 -0.35714286
-1.00810236 0.20314006 -0.42857143
-1.07469009 0.20314006 -0.21428571
-1.07469009 0.20314006 -0.07142857
-1.07469009 0.20314006 0.07142857
-1.07469009 0.20314006 0.21428571
-1.07469009 0.20314006 0.35714286
-1.00810236 0.20314006 0.42857143
-1.00810236 0.26972779 -0.35714286
-1.07469009 0.33631552 -0.21428571
-1.00810236 0.33631552 -0.28571429
-1.07469009 0.33631552 -0.07142857
-1.07469009 0.33631552 0.07142857
-1.07469009 0.33631552 0.21428571
-1.07469009 0.33631552 0.35714286
-1.00810236 0.33631552 0.42857143
-1.00810236 0.40290325 -0.21428571
-1.00810236 0.40290325 -0.07142857
-1.00810236 0.40290325 0.07142857
-1.00810236 0.40290325 0.21428571
-1.00810236 0.40290325 0.35714286
-0.94151463 -0.59591270 -0.35714286
-0.87492690 -0.59591270 -0.42857143
-0.87492690 -0.66250043 -0.35714286
-0.87492690 -0.66250043 -0.21428571
-0.94151463 -0.59591270 -0.21428571
-0.87492690 -0.66250043 -0.07142857
-0.94151463 -0.59591270 -0.07142857
-0.87492690 -0.66250043 0.07142857
-0.94151463 -0.59591270 0.07142857
-0.87492690 -0.66250043 0.21428571
-0.94151463 -0.59591270 0.21428571
-0.87492690 -0.59591270 0.28571429
-0.94151463 -0.46273724 -0.50000000
-0.87492690 -0.46273724 -0.57142857
-0.87492690 -0.52932497 -0.50000000
-0.94151463 -0.46273724 -0.35714286
-0.94151463 -0.46273724 -0.21428571
-0.94151463 -0.46273724 -0.07142857
-0.94151463 -0.46273724 0.07142857
-0.94151463 -0.46273724 0.21428571
-0.87492690 -0.52932497 0.35714286
-0.94151463 -0.46273724 0.35714286
-0.87492690 -0.52932497 0.50000000
-0.94151463 -0.46273724 0.50000000
-0.87492690 -0.46273724 0.57142857
-0.94151463 -0.32956178 -0.64285714
-0.87492690 -0.32956178 -0.71428571
-0.87492690 -0.39614951 -0.64285714
-0.94151463 -0.32956178 -0.50000000
-0.94151463 -0.32956178 0.35714286
-0.94151463 -0.32956178 0.50000000
-0.87492690 -0.39614951 0.64285714
-0.94151463 -0.32956178 0.64285714
-0.87492690 -0.32956178 0.71428571
-0.94151463 -0.19638632 -0.64285714
-0.87492690 -0.19638632 -0.71428571
-0.94151463 -0.19638632 -0.50000000
-0.94151463 -0.19638632 0.50000000
-0.94151463 -0.19638632 0.64285714
-0.87492690 -0.19638632 0.71428571
-0.94151463 -0.06321086 -0.64285714
-0.87492690 -0.06321086 -0.71428571
-0.94151463 -0.06321086 0.50000000
-0.94151463 -0.06321086 0.64285714
-0.87492690 -0.06321086 0.71428571
-0.94151463 0.06996460 -0.64285714
-0.87492690 0.06996460 -0.71428571
-0.94151463 0.06996460 -0.50000000
-0.94151463 0.06996460 0.50000000
-0.94151463 0.06996460 0.64285714
-0.87492690 0.06996460 0.71428571
-0.94151463 0.20314006 -0.64285714
-0.87492690 0.20314006 -0.71428571
-0.94151463 0.20314006 -0.50000000
-0.94151463 0.20314006 0.50000000
-0.94151463 0.20314006 0.64285714
-0.87492690 0.20314006 0.71428571
-0.94151463 0.33631552 -0.64285714
-0.87492690 0.33631552 -0.71428571
-0.94151463 0.33631552 -0.50000000
-0.94151463 0.33631552 -0.35714286
-0.94151463 0.33631552 0.50000000
-0.94151463 0.33631552 0.64285714
-0.87492690 0.33631552 0.71428571
-0.87492690 0.40290325 -0.64285714
-0.94151463 0.46949099 -0.50000000
-0.87492690 0.46949099 -0.57142857
-0.94151463 0.46949099 -0.35714286
-0.94151463 0.46949099 -0.21428571
-0.94151463 0.46949099 -0.07142857
-0.94151463 0.46949099 0.07142857
-0.94151463 0.46949099 0.21428571
-0.94151463 0.46949099 0.35714286
-0.87492690 0.46949099 0.42857143
-0.87492690 0.40290325 0.50000000
-0.87492690 0.40290325 0.64285714
-0.87492690 0.53607872 -0.50000000
-0.94151463 0.60266645 -0.35714286
-0.87492690 0.60266645 -0.42857143
-0.94151463 0.60266645 -0.21428571
-0.94151463 0.60266645 -0.07142857
-0.94151463 0.60266645 0.07142857
-0.94151463 0.60266645 0.21428571
-0.94151463 0.60266645 0.35714286
-0.87492690 0.60266645 0.42857143
-0.87492690 0.66925418 -0.35714286
-0.87492690 0.66925418 -0.21428571
-0.87492690 0.66925418 -0.07142857
-0.87492690 0.66925418 0.07142857
-0.87492690 0.66925418 0.21428571
-0.87492690 0.66925418 0.35714286
-0.80833917 -0.72908816 -0.07142857
-0.74175144 -0.72908816 -0.14285714
-0.74175144 -0.79567589 -0.07142857
-0.74175144 -0.79567589 0.07142857
-0.80833917 -0.72908816 0.07142857
-0.74175144 -0.72908816 0.14285714
-0.80833917 -0.59591270 -0.50000000
-0.74175144 -0.59591270 -0.57142857
-0.74175144 -0.66250043 -0.50000000
-0.74175144 -0.66250043 -0.35714286
-0.74175144 -0.66250043 -0.21428571
-0.74175144 -0.66250043 0.21428571
-0.74175144 -0.66250043 0.35714286
-0.80833917 -0.59591270 0.35714286
-0.74175144 -0.66250043 0.50000000
-0.80833917 -0.59591270 0.50000000
-0.74175144 -0.59591270 0.57142857
-0.80833917 -0.46273724 -0.64285714
-0.74175144 -0.46273724 -0.71428571
-0.74175144 -0.52932497 -0.64285714
-0.74175144 -0.52932497 0.64285714
-0.80833917 -0.46273724 0.64285714
-0.74175144 -0.46273724 0.71428571
-0.74175144 -0.32956178 -0.71428571
-0.74175144 -0.32956178 0.71428571
-0.80833917 -0.19638632 -0.78571429
-0.74175144 -0.19638632 -0.85714286
-0.74175144 -0.26297405 -0.78571429
-0.74175144 -0.26297405 0.78571429
-0.80833917 -0.19638632 0.78571429
-0.74175144 -0.19638632 0.85714286
-0.80833917 -0.06321086 -0.78571429
-0.74175144 -0.06321086 -0.85714286
-0.80833917 -0.06321086 0.78571429
-0.74175144 -0.06321086 0.85714286
-0.80833917 0.06996460 -0.78571429
-0.74175144 0.06996460 -0.85714286
-0.80833917 0.06996460 0.78571429
-0.74175144 0.06996460 0.85714286
-0.80833917 0.20314006 -0.78571429
-0.74175144 0.20314006 -0.85714286
-0.80833917 0.20314006 0.78571429
-0.74175144 0.20314006 0.85714286
-0.74175144 0.26972779 -0.78571429
-0.74175144 0.33631552 -0.71428571
-0.74175144 0.26972779 0.78571429
-0.74175144 0.33631552 0.71428571
-0.80833917 0.46949099 -0.64285714
-0.74175144 0.46949099 -0.71428571
-0.80833917 0.46949099 0.50000000
-0.80833917 0.46949099 0.64285714
-0.74175144 0.46949099 0.71428571
-0.74175144 0.53607872 -0.64285714
-0.80833917 0.60266645 -0.50000000
-0.74175144 0.60266645 -0.57142857
-0.74175144 0.53607872 0.50000000
-0.74175144 0.60266645 0.42857143
-0.74175144 0.53607872 0.64285714
-0.74175144 0.66925418 -0.50000000
-0.80833917 0.73584191 -0.35714286
-0.74175144 0.73584191 -0.42857143
-0.80833917 0.73584191 -0.21428571
-0.80833917 0.73584191 -0.07142857
-0.80833917 0.73584191 0.07142857
-0.80833917 0.73584191 0.21428571
-0.74175144 0.73584191 0.28571429
-0.74175144 0.66925418 0.35714286
-0.74175144 0.80242964 -0.35714286
-0.74175144 0.80242964 -0.21428571
-0.74175144 0.80242964 -0.07142857
-0.74175144 0.80242964 0.07142857
-0.74175144 0.80242964 0.21428571
-0.67516370 -0.86226362 -0.35714286
-0.60857597 -0.86226362 -0.42857143
-0.60857597 -0.92885135 -0.35714286
-0.60857597 -0.92885135 -0.21428571
-0.67516370 -0.86226362 -0.21428571
-0.60857597 -0.92885135 -0.07142857
-0.67516370 -0.86226362 -0.07142857
-0.60857597 -0.92885135 0.07142857
-0.67516370 -0.86226362 0.07142857
-0.60857597 -0.92885135 0.21428571
-0.67516370 -0.86226362 0.21428571
-0.60857597 -0.86226362 0.28571429
-0.67516370 -0.72908816 -0.64285714
-0.60857597 -0.72908816 -0.71428571
-0.60857597 -0.79567589 -0.64285714
-0.60857597 -0.79567589 -0.50000000
-0.67516370 -0.72908816 -0.50000000
-0.67516370 -0.72908816 -0.35714286
-0.67516370 -0.72908816 -0.21428571
-0.67516370 -0.72908816 0.21428571
-0.60857597 -0.79567589 0.35714286
-0.67516370 -0.72908816 0.35714286
-0.60857597 -0.79567589 0.50000000
-0.67516370 -0.72908816 0.50000000
-0.60857597 -0.72908816 0.57142857
-0.67516370 -0.59591270 -0.64285714
-0.60857597 -0.59591270 -0.71428571
-0.60857597 -0.66250043 0.64285714
-0.67516370 -0.59591270 0.64285714
-0.60857597 -0.59591270 0.71428571
-0.67516370 -0.46273724 -0.78571429
-0.60857597 -0.46273724 -0.85714286
-0.60857597 -0.52932497 -0.78571429
-0.60857597 -0.52932497 0.78571429
-0.67516370 -0.46273724 0.78571429
-0.60857597 -0.46273724 0.85714286
-0.67516370 -0.32956178 -0.78571429
-0.60857597 -0.32956178 -0.85714286
-0.67516370 -0.32956178 0.78571429
-0.60857597 -0.32956178 0.85714286
-0.60857597 -0.19638632 -0.85714286
-0.60857597 -0.19638632 0.85714286
-0.67516370 -0.06321086 -0.92857143
-0.60857597 -0.06321086 -1.00000000
-0.60857597 -0.12979859 -0.92857143
-0.60857597 -0.12979859 0.92857143
-0.67516370 -0.06321086 0.92857143
-0.60857597 -0.06321086 1.00000000
-0.60857597 0.00337687 -0.92857143
-0.60857597 0.06996460 -0.85714286
-0.67516370 0.06996460 0.92857143
-0.60857597 0.06996460 1.00000000
-0.60857597 0.20314006 -0.85714286
-0.60857597 0.13655233 0.92857143
-0.60857597 0.20314006 0.85714286
-0.67516370 0.33631552 -0.78571429
-0.60857597 0.33631552 -0.85714286
-0.67516370 0.33631552 0.78571429
-0.60857597 0.33631552 0.85714286
-0.67516370 0.46949099 -0.78571429
-0.60857597 0.46949099 -0.85714286
-0.67516370 0.46949099 0.78571429
-0.60857597 0.46949099 0.85714286
-0.60857597 0.53607872 -0.78571429
-0.67516370 0.60266645 -0.64285714
-0.60857597 0.60266645 -0.71428571
-0.67516370 0.60266645 0.50000000
-0.67516370 0.60266645 0.64285714
-0.60857597 0.60266645 0.71428571
-0.60857597 0.53607872 0.78571429
-0.67516370 0.73584191 -0.64285714
-0.60857597 0.73584191 -0.71428571
-0.67516370 0.73584191 -0.50000000
-0.67516370 0.73584191 0.35714286
-0.60857597 0.73584191 0.42857143
-0.60857597 0.66925418 0.50000000
-0.60857597 0.66925418 0.64285714
-0.60857597 0.80242964 -0.64285714
-0.67516370 0.86901737 -0.50000000
-0.60857597 0.86901737 -0.57142857
-0.67516370 0.86901737 -0.35714286
-0.67516370 0.86901737 -0.21428571
-0.67516370 0.86901737 -0.07142857
-0.67516370 0.86901737 0.07142857
-0.67516370 0.86901737 0.21428571
-0.67516370 0.86901737 0.35714286
-0.60857597 0.86901737 0.42857143
-0.60857597 0.93560510 -0.50000000
-0.60857597 0.93560510 -0.35714286
-0.60857597 0.93560510 -0.21428571
-0.60857597 0.93560510 -0.07142857
-0.60857597 0.93560510 0.07142857
-0.60857597 0.93560510 0.21428571
-0.60857597 0.93560510 0.35714286
-0.54198824 -0.86226362 -0.50000000
-0.47540051 -0.86226362 -0.57142857
-0.47540051 -0.92885135 -0.50000000
-0.47540051 -0.92885135 -0.35714286
-0.47540051 -0.92885135 -0.21428571
-0.47540051 -0.92885135 -0.07142857
-0.47540051 -0.92885135 0.07142857
-0.47540051 -0.92885135 0.21428571
-0.47540051 -0.92885135 0.35714286
-0.54198824 -0.86226362 0.35714286
-0.47540051 -0.86226362 0.42857143
-0.47540051 -0.72908816 -0.71428571
-0.47540051 -0.79567589 -0.64285714
-0.47540051 -0.79567589 0.50000000
-0.47540051 -0.79567589 0.64285714
-0.54198824 -0.72908816 0.64285714
-0.47540051 -0.72908816 0.71428571
-0.47540051 -0.59591270 -0.71428571
-0.47540051 -0.66250043 0.78571429
-0.54198824 -0.59591270 0.78571429
-0.47540051 -0.59591270 0.85714286
-0.47540051 -0.46273724 -0.85714286
-0.47540051 -0.52932497 -0.78571429
-0.47540051 -0.46273724 0.85714286
-0.47540051 -0.32956178 -0.85714286
-0.47540051 -0.32956178 0.85714286
-0.47540051 -0.19638632 -0.85714286
-0.47540051 -0.26297405 0.92857143
-0.54198824 -0.19638632 0.92857143
-0.47540051 -0.19638632 1.00000000
-0.47540051 -0.06321086 -1.00000000
-0.47540051 -0.12979859 -0.92857143
-0.47540051 -0.06321086 1.00000000
-0.54198824 0.06996460 -0.92857143
-0.47540051 0.06996460 -1.00000000
-0.47540051 0.06996460 1.00000000
-0.54198824 0.20314006 -0.92857143
-0.47540051 0.20314006 -1.00000000
-0.54198824 0.20314006 0.92857143
-0.47540051 0.20314006 1.00000000
-0.47540051 0.26972779 -0.92857143
-0.47540051 0.33631552 -0.85714286
-0.47540051 0.26972779 0.92857143
-0.47540051 0.33631552 0.85714286
-0.47540051 0.46949099 -0.85714286
-0.47540051 0.46949099 0.85714286
-0.54198824 0.60266645 -0.78571429
-0.47540051 0.60266645 -0.85714286
-0.54198824 0.60266645 0.78571429
-0.47540051 0.60266645 0.85714286
-0.47540051 0.66925418 -0.78571429
-0.47540051 0.73584191 -0.71428571
-0.54198824 0.73584191 0.50000000
-0.54198824 0.73584191 0.64285714
-0.47540051 0.73584191 0.71428571
-0.47540051 0.66925418 0.78571429
-0.47540051 0.80242964 -0.64285714
-0.47540051 0.86901737 -0.57142857
-0.47540051 0.80242964 0.50000000
-0.47540051 0.86901737 0.42857143
-0.47540051 0.80242964 0.64285714
-0.47540051 0.93560510 -0.50000000
-0.47540051 0.93560510 -0.35714286
-0.47540051 0.93560510 -0.21428571
-0.47540051 0.93560510 -0.07142857
-0.54198824 1.00219283 0.07142857
-0.47540051 1.00219283 0.00000000
-0.47540051 1.00219283 0.14285714
-0.47540051 0.93560510 0.21428571
-0.47540051 0.93560510 0.35714286
-0.47540051 1.06878056 0.07142857
-0.40881278 -0.99543908 -0.35714286
-0.34222505 -0.99543908 -0.42857143
-0.34222505 -1.06202681 -0.35714286
-0.34222505 -1.06202681 -0.21428571
-0.40881278 -0.99543908 -0.21428571
-0.34222505 -1.06202681 -0.07142857
-0.40881278 -0.99543908 -0.07142857
-0.34222505 -1.06202681 0.07142857
-0.40881278 -0.99543908 0.07142857
-0.34222505 -1.06202681 0.21428571
-0.40881278 -0.99543908 0.21428571
-0.34222505 -0.99543908 0.28571429
-0.40881278 -0.86226362 -0.64285714
-0.34222505 -0.86226362 -0.71428571
-0.34222505 -0.92885135 -0.64285714
-0.34222505 -0.92885135 -0.50000000
-0.34222505 -0.92885135 0.35714286
-0.34222505 -0.92885135 0.50000000
-0.40881278 -0.86226362 0.50000000
-0.34222505 -0.92885135 0.64285714
-0.40881278 -0.86226362 0.64285714
-0.34222505 -0.86226362 0.71428571
-0.34222505 -0.72908816 -0.71428571
-0.34222505 -0.72908816 0.71428571
-0.40881278 -0.59591270 -0.78571429
-0.34222505 -0.59591270 -0.85714286
-0.34222505 -0.66250043 -0.78571429
-0.34222505 -0.66250043 0.78571429
-0.34222505 -0.59591270 0.85714286
-0.34222505 -0.46273724 -0.85714286
-0.34222505 -0.46273724 0.85714286
-0.40881278 -0.32956178 -0.92857143
-0.34222505 -0.32956178 -1.00000000
-0.34222505 -0.39614951 -0.92857143
-0.34222505 -0.39614951 0.92857143
-0.40881278 -0.32956178 0.92857143
-0.34222505 -0.32956178 1.00000000
-0.40881278 -0.19638632 -0.92857143
-0.34222505 -0.19638632 -1.00000000
-0.34222505 -0.19638632 1.00000000
-0.34222505 -0.06321086 -1.00000000
-0.34222505 -0.06321086 1.00000000
-0.34222505 0.06996460 -1.00000000
-0.34222505 0.06996460 1.00000000
-0.34222505 0.20314006 -1.00000000
-0.34222505 0.20314006 1.00000000
-0.40881278 0.33631552 -0.92857143
-0.34222505 0.33631552 -1.00000000
-0.40881278 0.33631552 0.92857143
-0.34222505 0.33631552 1.00000000
-0.34222505 0.40290325 -0.92857143
-0.34222505 0.46949099 -0.85714286
-0.34222505 0.40290325 0.92857143
-0.34222505 0.46949099 0.85714286
-0.34222505 0.60266645 -0.85714286
-0.34222505 0.60266645 0.85714286
-0.34222505 0.66925418 -0.78571429
-0.34222505 0.73584191 -0.71428571
-0.34222505 0.66925418 0.78571429
-0.34222505 0.73584191 0.71428571
-0.40881278 0.86901737 -0.64285714
-0.34222505 0.86901737 -0.71428571
-0.40881278 0.86901737 0.50000000
-0.40881278 0.86901737 0.64285714
-0.34222505 0.86901737 0.71428571
-0.34222505 0.93560510 -0.64285714
-0.34222505 0.93560510 -0.50000000
-0.40881278 1.00219283 -0.35714286
-0.34222505 1.00219283 -0.42857143
-0.40881278 1.00219283 -0.21428571
-0.40881278 1.00219283 -0.07142857
-0.40881278 1.00219283 0.21428571
-0.40881278 1.00219283 0.35714286
-0.34222505 1.00219283 0.42857143
-0.34222505 0.93560510 0.50000000
-0.34222505 0.93560510 0.64285714
-0.34222505 1.06878056 -0.35714286
-0.34222505 1.06878056 -0.21428571
-0.34222505 1.06878056 -0.07142857
-0.34222505 1.06878056 0.07142857
-0.34222505 1.06878056 0.21428571
-0.34222505 1.06878056 0.35714286
-0.27563732 -1.12861454 0.07142857
-0.20904959 -1.12861454 0.00000000
-0.20904959 -1.19520227 0.07142857
-0.20904959 -1.12861454 0.14285714
-0.20904959 -0.99543908 -0.42857143
-0.20904959 -1.06202681 -0.35714286
-0.20904959 -1.06202681 -0.21428571
-0.20904959 -1.06202681 -0.07142857
-0.20904959 -1.06202681 0.21428571
-0.20904959 -1.06202681 0.35714286
-0.27563732 -0.99543908 0.35714286
-0.20904959 -0.99543908 0.42857143
-0.20904959 -0.86226362 -0.71428571
-0.20904959 -0.92885135 -0.64285714
-0.20904959 -0.92885135 -0.50000000
-0.20904959 -0.92885135 0.50000000
-0.20904959 -0.92885135 0.64285714
-0.20904959 -0.86226362 0.71428571
-0.27563732 -0.72908816 -0.78571429
-0.20904959 -0.72908816 -0.85714286
-0.20904959 -0.79567589 -0.78571429
-0.20904959 -0.79567589 0.78571429
-0.27563732 -0.72908816 0.78571429
-0.20904959 -0.72908816 0.85714286
-0.20904959 -0.59591270 -0.85714286
-0.20904959 -0.59591270 0.85714286
-0.27563732 -0.46273724 -0.92857143
-0.20904959 -0.46273724 -1.00000000
-0.20904959 -0.52932497 -0.92857143
-0.20904959 -0.52932497 0.92857143
-0.27563732 -0.46273724 0.92857143
-0.20904959 -0.46273724 1.00000000
-0.20904959 -0.32956178 -1.00000000
-0.20904959 -0.32956178 1.00000000
-0.20904959 -0.19638632 -1.00000000
-0.20904959 -0.19638632 1.00000000
-0.20904959 -0.06321086 -1.00000000
-0.20904959 -0.06321086 1.00000000
-0.20904959 0.06996460 -1.00000000
-0.20904959 0.06996460 1.00000000
-0.20904959 0.20314006 -1.00000000
-0.20904959 0.20314006 1.00000000
-0.20904959 0.33631552 -1.00000000
-0.20904959 0.33631552 1.00000000
-0.20904959 0.40290325 -0.92857143
-0.20904959 0.46949099 -0.85714286
-0.27563732 0.46949099 0.92857143
-0.20904959 0.46949099 1.00000000
-0.20904959 0.60266645 -0.85714286
-0.27563732 0.60266645 0.92857143
-0.20904959 0.60266645 1.00000000
-0.27563732 0.73584191 -0.78571429
-0.20904959 0.73584191 -0.85714286
-0.27563732 0.73584191 0.78571429
-0.20904959 0.73584191 0.85714286
-0.20904959 0.66925418 0.92857143
-0.20904959 0.80242964 -0.78571429
-0.20904959 0.86901737 -0.71428571
-0.20904959 0.80242964 0.78571429
-0.20904959 0.86901737 0.71428571
-0.20904959 0.93560510 -0.64285714
-0.20904959 0.93560510 -0.50000000
-0.20904959 1.00219283 -0.42857143
-0.20904959 0.93560510 0.50000000
-0.20904959 1.00219283 0.42857143
-0.20904959 0.93560510 0.64285714
-0.20904959 1.06878056 -0.35714286
-0.20904959 1.06878056 -0.21428571
-0.20904959 1.06878056 -0.07142857
-0.27563732 1.13536829 0.07142857
-0.20904959 1.13536829 0.00000000
-0.20904959 1.13536829 0.14285714
-0.20904959 1.06878056 0.21428571
-0.20904959 1.06878056 0.35714286
-0.20904959 1.20195602 0.07142857
-0.14246186 -1.12861454 -0.21428571
-0.07587413 -1.12861454 -0.28571429
-0.07587413 -1.19520227 -0.21428571
-0.07587413 -1.19520227 -0.07142857
-0.14246186 -1.12861454 -0.07142857
-0.07587413 -1.19520227 0.07142857
-0.07587413 -1.19520227 0.21428571
-0.14246186 -1.12861454 0.21428571
-0.07587413 -1.12861454 0.28571429
-0.07587413 -0.99543908 -0.42857143
-0.07587413 -1.06202681 -0.35714286
-0.07587413 -1.06202681 0.35714286
-0.07587413 -0.99543908 0.42857143
-0.07587413 -0.86226362 -0.71428571
-0.07587413 -0.92885135 -0.64285714
-0.07587413 -0.92885135 -0.50000000
-0.07587413 -0.92885135 0.50000000
-0.07587413 -0.92885135 0.64285714
-0.07587413 -0.86226362 0.71428571
-0.07587413 -0.72908816 -0.85714286
-0.07587413 -0.79567589 -0.78571429
-0.07587413 -0.79567589 0.78571429
-0.07587413 -0.72908816 0.85714286
-0.14246186 -0.59591270 -0.92857143
-0.07587413 -0.59591270 -1.00000000
-0.07587413 -0.66250043 -0.92857143
-0.07587413 -0.66250043 0.92857143
-0.14246186 -0.59591270 0.92857143
-0.07587413 -0.59591270 1.00000000
-0.07587413 -0.46273724 -1.00000000
-0.07587413 -0.46273724 1.00000000
-0.07587413 -0.32956178 -1.00000000
-0.07587413 -0.32956178 1.00000000
-0.07587413 -0.19638632 -1.00000000
-0.07587413 -0.19638632 1.00000000
-0.07587413 -0.06321086 -1.00000000
-0.07587413 -0.06321086 1.00000000
-0.07587413 0.06996460 -1.00000000
-0.07587413 0.06996460 1.00000000
-0.07587413 0.20314006 -1.00000000
-0.07587413 0.20314006 1.00000000
-0.07587413 0.33631552 -1.00000000
-0.07587413 0.33631552 1.00000000
-0.07587413 0.40290325 -0.92857143
-0.07587413 0.46949099 -0.85714286
-0.07587413 0.46949099 1.00000000
-0.07587413 0.60266645 -0.85714286
-0.07587413 0.60266645 1.00000000
-0.07587413 0.73584191 -0.85714286
-0.07587413 0.66925418 0.92857143
-0.07587413 0.73584191 0.85714286
-0.07587413 0.80242964 -0.78571429
-0.07587413 0.86901737 -0.71428571
-0.07587413 0.80242964 0.78571429
-0.07587413 0.86901737 0.71428571
-0.07587413 0.93560510 -0.64285714
-0.07587413 0.93560510 -0.50000000
-0.07587413 1.00219283 -0.42857143
-0.07587413 0.93560510 0.50000000
-0.07587413 1.00219283 0.42857143
-0.07587413 0.93560510 0.64285714
-0.07587413 1.06878056 -0.35714286
-0.07587413 1.06878056 -0.21428571
-0.14246186 1.13536829 -0.07142857
-0.07587413 1.13536829 -0.14285714
-0.07587413 1.06878056 0.21428571
-0.07587413 1.13536829 0.14285714
-0.07587413 1.06878056 0.35714286
-0.07587413 1.20195602 -0.07142857
-0.07587413 1.20195602 0.07142857
0.05730133 -1.12861454 -0.28571429
0.05730133 -1.19520227 -0.21428571
0.05730133 -1.19520227 -0.07142857
0.05730133 -1.19520227 0.07142857
0.05730133 -1.19520227 0.21428571
0.05730133 -1.12861454 0.28571429
0.05730133 -0.99543908 -0.42857143
0.05730133 -1.06202681 -0.35714286
0.05730133 -1.06202681 0.35714286
0.05730133 -0.99543908 0.42857143
0.05730133 -0.86226362 -0.71428571
0.05730133 -0.92885135 -0.64285714
0.05730133 -0.92885135 -0.50000000
0.05730133 -0.92885135 0.50000000
0.05730133 -0.92885135 0.64285714
0.05730133 -0.86226362 0.71428571
0.05730133 -0.72908816 -0.85714286
0.05730133 -0.79567589 -0.78571429
0.05730133 -0.79567589 0.78571429
0.05730133 -0.72908816 0.85714286
0.05730133 -0.59591270 -1.00000000
0.05730133 -0.66250043 -0.92857143
0.05730133 -0.66250043 0.92857143
0.05730133 -0.59591270 1.00000000
0.05730133 -0.46273724 -1.00000000
0.05730133 -0.46273724 1.00000000
0.05730133 -0.32956178 -1.00000000
0.05730133 -0.32956178 1.00000000
0.05730133 -0.19638632 -1.00000000
0.05730133 -0.19638632 1.00000000
0.05730133 -0.06321086 -1.00000000
0.05730133 -0.06321086 1.00000000
0.05730133 0.06996460 -1.00000000
0.05730133 0.06996460 1.00000000
0.05730133 0.20314006 -1.00000000
0.05730133 0.20314006 1.00000000
0.05730133 0.33631552 -1.00000000
0.05730133 0.33631552 1.00000000
-0.00928640 0.46949099 -0.92857143
0.05730133 0.46949099 -1.00000000
0.05730133 0.46949099 1.00000000
0.05730133 0.53607872 -0.92857143
0.05730133 0.60266645 -0.85714286
0.05730133 0.60266645 1.00000000
0.05730133 0.73584191 -0.85714286
0.05730133 0.66925418 0.92857143
0.05730133 0.73584191 0.85714286
0.05730133 0.80242964 -0.78571429
0.05730133 0.86901737 -0.71428571
0.05730133 0.80242964 0.78571429
0.05730133 0.86901737 0.71428571
0.05730133 0.93560510 -0.64285714
-0.00928640 1.00219283 -0.50000000
0.05730133 1.00219283 -0.57142857
0.05730133 0.93560510 0.50000000
0.05730133 1.00219283 0.42857143
0.05730133 0.93560510 0.64285714
0.05730133 1.06878056 -0.50000000
0.05730133 1.06878056 -0.35714286
0.05730133 1.06878056 -0.21428571
0.05730133 1.13536829 -0.14285714
0.05730133 1.06878056 0.21428571
0.05730133 1.13536829 0.14285714
0.05730133 1.06878056 0.35714286
0.05730133 1.20195602 -0.07142857
0.05730133 1.20195602 0.07142857
0.12388906 -1.12861454 -0.21428571
0.19047679 -1.12861454 -0.14285714
0.19047679 -1.19520227 -0.07142857
0.19047679 -1.19520227 0.07142857
0.12388906 -1.12861454 0.21428571
0.19047679 -1.12861454 0.14285714
0.19047679 -0.99543908 -0.42857143
0.19047679 -1.06202681 -0.35714286
0.19047679 -1.06202681 -0.21428571
0.19047679 -1.06202681 0.21428571
0.19047679 -1.06202681 0.35714286
0.19047679 -0.99543908 0.42857143
0.19047679 -0.86226362 -0.71428571
0.19047679 -0.92885135 -0.64285714
0.19047679 -0.92885135 -0.50000000
0.19047679 -0.92885135 0.50000000
0.19047679 -0.92885135 0.64285714
0.19047679 -0.86226362 0.71428571
0.19047679 -0.72908816 -0.85714286
0.19047679 -0.79567589 -0.78571429
0.19047679 -0.79567589 0.78571429
0.19047679 -0.72908816 0.85714286
0.19047679 -0.59591270 -1.00000000
0.19047679 -0.66250043 -0.92857143
0.12388906 -0.59591270 0.92857143
0.19047679 -0.59591270 0.85714286
0.19047679 -0.46273724 -1.00000000
0.19047679 -0.52932497 0.92857143
0.19047679 -0.46273724 1.00000000
0.19047679 -0.32956178 -1.00000000
0.19047679 -0.32956178 1.00000000
0.19047679 -0.19638632 -1.00000000
0.19047679 -0.19638632 1.00000000
0.19047679 -0.06321086 -1.00000000
0.19047679 -0.06321086 1.00000000
0.19047679 0.06996460 -1.00000000
0.19047679 0.06996460 1.00000000
0.19047679 0.20314006 -1.00000000
0.19047679 0.20314006 1.00000000
0.19047679 0.33631552 -1.00000000
0.19047679 0.33631552 1.00000000
0.19047679 0.40290325 -0.92857143
0.12388906 0.46949099 -0.92857143
0.19047679 0.46949099 -0.85714286
0.19047679 0.46949099 1.00000000
0.19047679 0.60266645 -0.85714286
0.12388906 0.60266645 0.92857143
0.19047679 0.53607872 0.92857143
0.19047679 0.60266645 0.85714286
0.19047679 0.73584191 -0.85714286
0.19047679 0.73584191 0.85714286
0.19047679 0.80242964 -0.78571429
0.19047679 0.86901737 -0.71428571
0.19047679 0.80242964 0.78571429
0.19047679 0.86901737 0.71428571
0.19047679 0.93560510 -0.64285714
0.12388906 1.00219283 -0.50000000
0.19047679 0.93560510 -0.50000000
0.19047679 1.00219283 -0.42857143
0.19047679 0.93560510 0.50000000
0.19047679 1.00219283 0.42857143
0.19047679 0.93560510 0.64285714
0.19047679 1.06878056 -0.35714286
0.19047679 1.06878056 -0.21428571
0.12388906 1.13536829 -0.07142857
0.19047679 1.06878056 -0.07142857
0.12388906 1.13536829 0.07142857
0.19047679 1.06878056 0.07142857
0.19047679 1.06878056 0.21428571
0.19047679 1.06878056 0.35714286
0.25706452 -1.12861454 -0.07142857
0.25706452 -1.12861454 0.07142857
0.32365225 -0.99543908 -0.42857143
0.32365225 -1.06202681 -0.35714286
0.32365225 -1.06202681 -0.21428571
0.32365225 -1.06202681 -0.07142857
0.32365225 -1.06202681 0.07142857
0.32365225 -1.06202681 0.21428571
0.32365225 -1.06202681 0.35714286
0.32365225 -0.99543908 0.42857143
0.32365225 -0.86226362 -0.71428571
0.32365225 -0.92885135 -0.64285714
0.32365225 -0.92885135 -0.50000000
0.32365225 -0.92885135 0.50000000
0.32365225 -0.92885135 0.64285714
0.32365225 -0.86226362 0.71428571
0.25706452 -0.72908816 -0.78571429
0.32365225 -0.72908816 -0.71428571
0.32365225 -0.79567589 0.78571429
0.32365225 -0.72908816 0.85714286
0.25706452 -0.59591270 -0.92857143
0.32365225 -0.59591270 -0.85714286
0.32365225 -0.66250043 -0.78571429
0.32365225 -0.59591270 0.85714286
0.32365225 -0.46273724 -1.00000000
0.32365225 -0.52932497 -0.92857143
0.25706452 -0.46273724 0.92857143
0.32365225 -0.46273724 0.85714286
0.32365225 -0.32956178 -1.00000000
0.32365225 -0.39614951 0.92857143
0.32365225 -0.32956178 1.00000000
0.32365225 -0.19638632 -1.00000000
0.32365225 -0.19638632 1.00000000
0.32365225 -0.06321086 -1.00000000
0.32365225 -0.06321086 1.00000000
0.32365225 0.06996460 -1.00000000
0.32365225 0.06996460 1.00000000
0.32365225 0.20314006 -1.00000000
0.32365225 0.20314006 1.00000000
0.32365225 0.33631552 -1.00000000
0.32365225 0.33631552 1.00000000
0.32365225 0.40290325 -0.92857143
0.32365225 0.46949099 -0.85714286
0.25706452 0.46949099 0.92857143
0.32365225 0.40290325 0.92857143
0.32365225 0.46949099 0.85714286
0.32365225 0.60266645 -0.85714286
0.32365225 0.60266645 0.85714286
0.32365225 0.73584191 -0.85714286
0.25706452 0.73584191 0.78571429
0.32365225 0.66925418 0.78571429
0.32365225 0.73584191 0.71428571
0.32365225 0.80242964 -0.78571429
0.32365225 0.86901737 -0.71428571
0.32365225 0.86901737 0.71428571
0.32365225 0.93560510 -0.64285714
0.32365225 0.93560510 -0.50000000
0.32365225 1.00219283 -0.42857143
0.25706452 1.00219283 0.35714286
0.32365225 0.93560510 0.35714286
0.32365225 1.00219283 0.28571429
0.32365225 0.93560510 0.50000000
0.32365225 0.93560510 0.64285714
0.32365225 1.06878056 -0.35714286
0.32365225 1.06878056 -0.21428571
0.32365225 1.06878056 -0.07142857
0.32365225 1.06878056 0.07142857
0.32365225 1.06878056 0.21428571
0.39023998 -0.99543908 -0.35714286
0.39023998 -0.99543908 -0.21428571
0.45682771 -0.99543908 -0.14285714
0.45682771 -1.06202681 -0.07142857
0.45682771 -1.06202681 0.07142857
0.39023998 -0.99543908 0.21428571
0.45682771 -0.99543908 0.14285714
0.39023998 -0.99543908 0.35714286
0.39023998 -0.86226362 -0.64285714
0.45682771 -0.86226362 -0.57142857
0.45682771 -0.92885135 -0.50000000
0.45682771 -0.92885135 -0.35714286
0.45682771 -0.92885135 -0.21428571
0.45682771 -0.92885135 0.21428571
0.45682771 -0.92885135 0.35714286
0.45682771 -0.92885135 0.50000000
0.39023998 -0.86226362 0.64285714
0.45682771 -0.86226362 0.57142857
0.45682771 -0.72908816 -0.71428571
0.45682771 -0.79567589 -0.64285714
0.45682771 -0.79567589 0.64285714
0.39023998 -0.72908816 0.78571429
0.45682771 -0.72908816 0.71428571
0.45682771 -0.59591270 -0.85714286
0.45682771 -0.66250043 -0.78571429
0.45682771 -0.66250043 0.78571429
0.45682771 -0.59591270 0.85714286
0.39023998 -0.46273724 -0.92857143
0.45682771 -0.46273724 -0.85714286
0.45682771 -0.46273724 0.85714286
0.45682771 -0.32956178 -1.00000000
0.45682771 -0.39614951 -0.92857143
0.39023998 -0.32956178 0.92857143
0.45682771 -0.32956178 0.85714286
0.45682771 -0.19638632 -1.00000000
0.45682771 -0.26297405 0.92857143
0.45682771 -0.19638632 1.00000000
0.45682771 -0.06321086 -1.00000000
0.45682771 -0.06321086 1.00000000
0.45682771 0.06996460 -1.00000000
0.45682771 0.06996460 1.00000000
0.45682771 0.20314006 -1.00000000
0.45682771 0.20314006 1.00000000
0.45682771 0.26972779 -0.92857143
0.39023998 0.33631552 -0.92857143
0.45682771 0.33631552 -0.85714286
0.39023998 0.33631552 0.92857143
0.45682771 0.26972779 0.92857143
0.45682771 0.33631552 0.85714286
0.45682771 0.46949099 -0.85714286
0.45682771 0.46949099 0.85714286
0.45682771 0.60266645 -0.85714286
0.45682771 0.60266645 0.85714286
0.45682771 0.66925418 -0.78571429
0.39023998 0.73584191 -0.78571429
0.45682771 0.73584191 -0.71428571
0.45682771 0.66925418 0.78571429
0.45682771 0.73584191 0.71428571
0.39023998 0.86901737 -0.64285714
0.45682771 0.80242964 -0.64285714
0.45682771 0.86901737 -0.57142857
0.39023998 0.86901737 0.64285714
0.45682771 0.80242964 0.64285714
0.45682771 0.86901737 0.57142857
0.45682771 0.93560510 -0.50000000
0.39023998 1.00219283 -0.35714286
0.45682771 0.93560510 -0.35714286
0.45682771 1.00219283 -0.28571429
0.39023998 1.00219283 0.07142857
0.45682771 0.93560510 0.07142857
0.45682771 1.00219283 0.00000000
0.39023998 1.00219283 0.21428571
0.45682771 0.93560510 0.21428571
0.45682771 0.93560510 0.35714286
0.45682771 0.93560510 0.50000000
0.45682771 1.06878056 -0.21428571
0.45682771 1.06878056 -0.07142857
0.52341544 -0.99543908 -0.07142857
0.52341544 -0.99543908 0.07142857
0.52341544 -0.86226362 -0.50000000
0.59000317 -0.86226362 -0.42857143
0.59000317 -0.92885135 -0.35714286
0.59000317 -0.92885135 -0.21428571
0.59000317 -0.92885135 -0.07142857
0.59000317 -0.92885135 0.07142857
0.59000317 -0.92885135 0.21428571
0.59000317 -0.92885135 0.35714286
0.52341544 -0.86226362 0.50000000
0.59000317 -0.86226362 0.42857143
0.52341544 -0.72908816 -0.64285714
0.59000317 -0.72908816 -0.57142857
0.59000317 -0.79567589 -0.50000000
0.59000317 -0.79567589 0.50000000
0.52341544 -0.72908816 0.64285714
0.59000317 -0.72908816 0.57142857
0.52341544 -0.59591270 -0.78571429
0.59000317 -0.59591270 -0.71428571
0.59000317 -0.66250043 -0.64285714
0.59000317 -0.66250043 0.64285714
0.52341544 -0.59591270 0.78571429
0.59000317 -0.59591270 0.71428571
0.59000317 -0.46273724 -0.85714286
0.59000317 -0.52932497 -0.78571429
0.59000317 -0.52932497 0.78571429
0.59000317 -0.46273724 0.85714286
0.52341544 -0.32956178 -0.92857143
0.59000317 -0.32956178 -0.85714286
0.59000317 -0.32956178 0.85714286
0.59000317 -0.19638632 -1.00000000
0.59000317 -0.26297405 -0.92857143
0.52341544 -0.19638632 0.92857143
0.59000317 -0.19638632 0.85714286
0.59000317 -0.06321086 -1.00000000
0.52341544 -0.06321086 0.92857143
0.59000317 -0.06321086 0.85714286
0.59000317 0.06996460 -1.00000000
0.52341544 0.06996460 0.92857143
0.59000317 0.06996460 0.85714286
0.59000317 0.13655233 -0.92857143
0.52341544 0.20314006 -0.92857143
0.59000317 0.20314006 -0.85714286
0.52341544 0.20314006 0.92857143
0.59000317 0.20314006 0.85714286
0.59000317 0.33631552 -0.85714286
0.59000317 0.33631552 0.85714286
0.59000317 0.46949099 -0.85714286
0.59000317 0.46949099 0.85714286
0.59000317 0.53607872 -0.78571429
0.52341544 0.60266645 -0.78571429
0.59000317 0.60266645 -0.71428571
0.52341544 0.60266645 0.78571429
0.59000317 0.53607872 0.78571429
0.59000317 0.60266645 0.71428571
0.59000317 0.73584191 -0.71428571
0.59000317 0.73584191 0.71428571
0.59000317 0.80242964 -0.64285714
0.52341544 0.86901737 -0.50000000
0.59000317 0.80242964 -0.50000000
0.59000317 0.86901737 -0.42857143
0.52341544 0.86901737 0.35714286
0.59000317 0.80242964 0.35714286
0.59000317 0.86901737 0.28571429
0.52341544 0.86901737 0.50000000
0.59000317 0.80242964 0.50000000
0.59000317 0.80242964 0.64285714
0.59000317 0.93560510 -0.35714286
0.52341544 1.00219283 -0.21428571
0.59000317 0.93560510 -0.21428571
0.52341544 1.00219283 -0.07142857
0.59000317 0.93560510 -0.07142857
0.59000317 0.93560510 0.07142857
0.59000317 0.93560510 0.21428571
0.65659090 -0.86226362 -0.35714286
0.65659090 -0.86226362 -0.21428571
0.65659090 -0.86226362 -0.07142857
0.65659090 -0.86226362 0.07142857
0.65659090 -0.86226362 0.21428571
0.65659090 -0.86226362 0.35714286
0.65659090 -0.72908816 -0.50000000
0.72317863 -0.72908816 -0.42857143
0.72317863 -0.79567589 -0.35714286
0.72317863 -0.79567589 -0.21428571
0.72317863 -0.79567589 -0.07142857
0.72317863 -0.79567589 0.07142857
0.72317863 -0.79567589 0.21428571
0.72317863 -0.72908816 0.28571429
0.65659090 -0.72908816 0.35714286
0.65659090 -0.72908816 0.50000000
0.65659090 -0.59591270 -0.64285714
0.72317863 -0.59591270 -0.57142857
0.72317863 -0.66250043 -0.50000000
0.72317863 -0.66250043 0.35714286
0.72317863 -0.66250043 0.50000000
0.65659090 -0.59591270 0.64285714
0.72317863 -0.59591270 0.57142857
0.65659090 -0.46273724 -0.78571429
0.72317863 -0.46273724 -0.71428571
0.72317863 -0.52932497 -0.64285714
0.72317863 -0.52932497 0.64285714
0.65659090 -0.46273724 0.78571429
0.72317863 -0.46273724 0.71428571
0.72317863 -0.32956178 -0.85714286
0.72317863 -0.39614951 -0.78571429
0.65659090 -0.32956178 0.78571429
0.72317863 -0.32956178 0.71428571
0.65659090 -0.19638632 -0.92857143
0.72317863 -0.19638632 -0.85714286
0.65659090 -0.19638632 0.78571429
0.72317863 -0.19638632 0.71428571
0.65659090 -0.06321086 -0.92857143
0.72317863 -0.06321086 -0.85714286
0.72317863 -0.12979859 0.78571429
0.72317863 -0.06321086 0.85714286
0.65659090 0.06996460 -0.92857143
0.72317863 0.06996460 -0.85714286
0.72317863 0.06996460 0.85714286
0.65659090 0.20314006 -0.78571429
0.72317863 0.13655233 -0.78571429
0.72317863 0.20314006 -0.71428571
0.65659090 0.20314006 0.78571429
0.72317863 0.13655233 0.78571429
0.72317863 0.20314006 0.71428571
0.65659090 0.33631552 -0.78571429
0.72317863 0.33631552 -0.71428571
0.65659090 0.33631552 0.78571429
0.72317863 0.33631552 0.71428571
0.65659090 0.46949099 -0.78571429
0.72317863 0.46949099 -0.71428571
0.65659090 0.46949099 0.78571429
0.72317863 0.46949099 0.71428571
0.72317863 0.60266645 -0.71428571
0.65659090 0.60266645 0.64285714
0.72317863 0.53607872 0.64285714
0.72317863 0.60266645 0.57142857
0.72317863 0.66925418 -0.64285714
0.65659090 0.73584191 -0.64285714
0.65659090 0.73584191 -0.50000000
0.72317863 0.66925418 -0.50000000
0.65659090 0.73584191 -0.35714286
0.72317863 0.66925418 -0.35714286
0.72317863 0.73584191 -0.28571429
0.65659090 0.73584191 0.35714286
0.72317863 0.66925418 0.35714286
0.72317863 0.73584191 0.28571429
0.65659090 0.73584191 0.50000000
0.72317863 0.66925418 0.50000000
0.65659090 0.73584191 0.64285714
0.65659090 0.86901737 -0.35714286
0.72317863 0.80242964 -0.21428571
0.65659090 0.86901737 -0.21428571
0.65659090 0.86901737 -0.07142857
0.72317863 0.80242964 -0.07142857
0.65659090 0.86901737 0.07142857
0.72317863 0.80242964 0.07142857
0.65659090 0.86901737 0.21428571
0.72317863 0.80242964 0.21428571
0.78976636 -0.72908816 -0.35714286
0.78976636 -0.72908816 -0.21428571
0.78976636 -0.72908816 -0.07142857
0.78976636 -0.72908816 0.07142857
0.78976636 -0.72908816 0.21428571
0.78976636 -0.59591270 -0.50000000
0.85635409 -0.59591270 -0.42857143
0.85635409 -0.66250043 -0.35714286
0.85635409 -0.66250043 -0.21428571
0.85635409 -0.66250043 -0.07142857
0.85635409 -0.66250043 0.07142857
0.85635409 -0.66250043 0.21428571
0.78976636 -0.59591270 0.35714286
0.85635409 -0.59591270 0.28571429
0.78976636 -0.59591270 0.50000000
0.78976636 -0.46273724 -0.64285714
0.85635409 -0.46273724 -0.57142857
0.85635409 -0.52932497 -0.50000000
0.85635409 -0.52932497 0.35714286
0.85635409 -0.46273724 0.42857143
0.78976636 -0.46273724 0.50000000
0.78976636 -0.46273724 0.64285714
0.78976636 -0.32956178 -0.78571429
0.85635409 -0.32956178 -0.71428571
0.85635409 -0.39614951 -0.64285714
0.85635409 -0.39614951 0.50000000
0.85635409 -0.39614951 0.64285714
0.85635409 -0.32956178 0.71428571
0.78976636 -0.19638632 -0.78571429
0.85635409 -0.19638632 -0.71428571
0.85635409 -0.19638632 0.71428571
0.78976636 -0.06321086 -0.78571429
0.85635409 -0.06321086 -0.71428571
0.78976636 -0.06321086 0.78571429
0.85635409 -0.06321086 0.71428571
0.78976636 0.06996460 -0.78571429
0.85635409 0.06996460 -0.71428571
0.78976636 0.06996460 0.78571429
0.85635409 0.06996460 0.71428571
0.85635409 0.20314006 -0.71428571
0.85635409 0.20314006 0.71428571
0.85635409 0.33631552 -0.71428571
0.85635409 0.33631552 0.71428571
0.85635409 0.40290325 -0.64285714
0.78976636 0.46949099 -0.64285714
0.85635409 0.46949099 -0.57142857
0.78976636 0.46949099 0.50000000
0.85635409 0.40290325 0.50000000
0.85635409 0.46949099 0.42857143
0.78976636 0.46949099 0.64285714
0.85635409 0.40290325 0.64285714
0.78976636 0.60266645 -0.64285714
0.85635409 0.53607872 -0.50000000
0.78976636 0.60266645 -0.50000000
0.85635409 0.60266645 -0.42857143
0.78976636 0.60266645 0.50000000
0.85635409 0.60266645 0.42857143
0.85635409 0.66925418 -0.35714286
0.78976636 0.73584191 -0.21428571
0.85635409 0.66925418 -0.21428571
0.78976636 0.73584191 -0.07142857
0.85635409 0.66925418 -0.07142857
0.78976636 0.73584191 0.07142857
0.85635409 0.66925418 0.07142857
0.78976636 0.73584191 0.21428571
0.85635409 0.66925418 0.21428571
0.85635409 0.66925418 0.35714286
0.92294182 -0.59591270 -0.35714286
0.92294182 -0.59591270 -0.21428571
0.92294182 -0.59591270 -0.07142857
0.92294182 -0.59591270 0.07142857
0.92294182 -0.59591270 0.21428571
0.92294182 -0.46273724 -0.50000000
0.92294182 -0.46273724 -0.35714286
0.98952955 -0.46273724 -0.28571429
0.98952955 -0.52932497 -0.21428571
0.98952955 -0.52932497 -0.07142857
0.98952955 -0.52932497 0.07142857
0.98952955 -0.46273724 0.14285714
0.92294182 -0.46273724 0.21428571
0.92294182 -0.46273724 0.35714286
0.92294182 -0.32956178 -0.64285714
0.92294182 -0.32956178 -0.50000000
0.98952955 -0.32956178 -0.42857143
0.98952955 -0.39614951 -0.35714286
0.98952955 -0.39614951 0.21428571
0.98952955 -0.39614951 0.35714286
0.92294182 -0.32956178 0.50000000
0.98952955 -0.32956178 0.42857143
0.92294182 -0.32956178 0.64285714
0.92294182 -0.19638632 -0.64285714
0.92294182 -0.19638632 -0.50000000
0.98952955 -0.19638632 -0.42857143
0.92294182 -0.19638632 0.50000000
0.98952955 -0.19638632 0.42857143
0.92294182 -0.19638632 0.64285714
0.92294182 -0.06321086 -0.64285714
0.98952955 -0.06321086 -0.57142857
0.98952955 -0.12979859 -0.50000000
0.92294182 -0.06321086 0.50000000
0.98952955 -0.06321086 0.42857143
0.92294182 -0.06321086 0.64285714
0.92294182 0.06996460 -0.64285714
0.98952955 0.06996460 -0.57142857
0.92294182 0.06996460 0.50000000
0.98952955 0.06996460 0.42857143
0.92294182 0.06996460 0.64285714
0.92294182 0.20314006 -0.64285714
0.98952955 0.20314006 -0.57142857
0.92294182 0.20314006 0.50000000
0.98952955 0.20314006 0.42857143
0.92294182 0.20314006 0.64285714
0.92294182 0.33631552 -0.64285714
0.98952955 0.26972779 -0.50000000
0.92294182 0.33631552 -0.50000000
0.98952955 0.33631552 -0.42857143
0.92294182 0.33631552 0.50000000
0.98952955 0.33631552 0.42857143
0.92294182 0.33631552 0.64285714
0.92294182 0.46949099 -0.50000000
0.98952955 0.40290325 -0.35714286
0.92294182 0.46949099 -0.35714286
0.98952955 0.46949099 -0.28571429
0.92294182 0.46949099 0.21428571
0.98952955 0.40290325 0.21428571
0.98952955 0.46949099 0.14285714
0.92294182 0.46949099 0.35714286
0.98952955 0.40290325 0.35714286
0.92294182 0.60266645 -0.35714286
0.98952955 0.53607872 -0.21428571
0.92294182 0.60266645 -0.21428571
0.92294182 0.60266645 -0.07142857
0.98952955 0.53607872 -0.07142857
0.92294182 0.60266645 0.07142857
0.98952955 0.53607872 0.07142857
0.92294182 0.60266645 0.21428571
0.92294182 0.60266645 0.35714286
1.05611728 -0.46273724 -0.21428571
1.05611728 -0.46273724 -0.07142857
1.05611728 -0.46273724 0.07142857
1.05611728 -0.32956178 -0.35714286
1.05611728 -0.32956178 -0.21428571
1.05611728 -0.32956178 -0.07142857
1.05611728 -0.32956178 0.07142857
1.05611728 -0.32956178 0.21428571
1.05611728 -0.32956178 0.35714286
1.05611728 -0.19638632 -0.35714286
1.05611728 -0.19638632 -0.21428571
1.05611728 -0.19638632 -0.07142857
1.05611728 -0.19638632 0.07142857
1.05611728 -0.19638632 0.21428571
1.05611728 -0.19638632 0.35714286
1.05611728 -0.06321086 -0.50000000
1.05611728 -0.06321086 -0.35714286
1.12270501 -0.06321086 -0.28571429
1.12270501 -0.12979859 -0.21428571
1.12270501 -0.12979859 -0.07142857
1.12270501 -0.12979859 0.07142857
1.12270501 -0.06321086 0.14285714
1.05611728 -0.06321086 0.21428571
1.05611728 -0.06321086 0.35714286
1.05611728 0.06996460 -0.50000000
1.12270501 0.06996460 -0.42857143
1.12270501 0.00337687 -0.35714286
1.05611728 0.06996460 0.21428571
1.12270501 0.06996460 0.14285714
1.05611728 0.06996460 0.35714286
1.05611728 0.20314006 -0.50000000
1.12270501 0.13655233 -0.35714286
1.05611728 0.20314006 -0.35714286
1.12270501 0.20314006 -0.28571429
1.05611728 0.20314006 0.21428571
1.12270501 0.20314006 0.14285714
1.05611728 0.20314006 0.35714286
1.05611728 0.33631552 -0.35714286
1.12270501 0.26972779 -0.21428571
1.05611728 0.33631552 -0.21428571
1.05611728 0.33631552 -0.07142857
1.12270501 0.26972779 -0.07142857
1.05611728 0.33631552 0.07142857
1.12270501 0.26972779 0.07142857
1.05611728 0.33631552 0.21428571
1.05611728 0.33631552 0.35714286
1.05611728 0.46949099 -0.21428571
1.05611728 0.46949099 -0.07142857
1.05611728 0.46949099 0.07142857
1.18929274 -0.06321086 -0.21428571
1.18929274 -0.06321086 -0.07142857
1.18929274 -0.06321086 0.07142857
1.18929274 0.06996460 -0.35714286
1.18929274 0.06996460 -0.21428571
1.18929274 0.06996460 -0.07142857
1.18929274 0.06996460 0.07142857
1.18929274 0.20314006 -0.21428571
1.18929274 0.20314006 -0.07142857
1.18929274 0.20314006 0.07142857
3 2 1 0
3 4 3 0
3 0 3 2
3 6 5 4
3 4 5 3
3 6 7 5
3 1 8 0
3 10 9 8
3 9 0 8
3 9 4 0
3 4 11 6
3 4 9 11
3 7 6 12
3 12 6 11
3 10 13 9
3 9 13 11
3 11 13 14
3 11 14 12
3 17 16 15
3 19 18 15
3 15 18 17
3 21 20 19
3 19 20 18
3 23 22 21
3 21 22 20
3 25 24 23
3 23 24 22
3 25 26 24
3 15 16 27
3 27 16 28
3 15 29 19
3 15 27 29
3 19 30 21
3 19 29 30
3 21 31 23
3 21 30 31
3 23 32 25
3 23 31 32
3 26 25 33
3 25 34 33
3 25 32 34
3 34 35 33
3 38 37 36
3 38 36 28
3 36 27 28
3 36 39 27
3 39 1 2
3 29 39 2
3 27 39 29
3 29 2 3
3 29 3 30
3 30 3 5
3 30 5 31
3 31 5 7
3 40 31 7
3 32 31 40
3 32 41 34
3 32 40 41
3 35 34 42
3 42 34 41
3 37 43 36
3 45 44 43
3 44 36 43
3 44 39 36
3 46 8 1
3 39 46 1
3 44 46 39
3 46 10 8
3 12 47 40
3 12 40 7
3 40 48 41
3 40 47 48
3 42 41 49
3 49 41 48
3 44 45 50
3 50 45 51
3 44 52 46
3 44 50 52
3 53 13 10
3 46 53 10
3 52 53 46
3 54 14 13
3 54 13 53
3 47 12 14
3 54 47 14
3 55 47 54
3 47 56 48
3 47 55 56
3 49 48 57
3 57 48 56
3 51 58 50
3 60 59 58
3 59 50 58
3 59 52 50
3 52 61 53
3 52 59 61
3 53 62 54
3 53 61 62
3 54 63 55
3 54 62 63
3 55 64 56
3 55 63 64
3 57 56 65
3 65 56 64
3 60 66 59
3 59 66 61
3 61 66 67
3 61 67 62
3 62 67 68
3 62 68 63
3 63 68 69
3 63 69 64
3 64 69 70
3 64 70 65
3 73 72 71
3 75 74 71
3 71 74 73
3 77 76 75
3 75 76 74
3 79 78 77
3 77 78 76
3 81 80 79
3 79 80 78
3 81 82 80
3 85 84 83
3 85 83 72
3 83 71 72
3 83 86 71
3 71 87 75
3 71 86 87
3 75 88 77
3 75 87 88
3 77 89 79
3 77 88 89
3 79 90 81
3 79 89 90
3 82 81 91
3 81 92 91
3 81 90 92
3 94 93 92
3 92 93 91
3 94 95 93
3 98 97 96
3 98 96 84
3 96 83 84
3 96 99 83
3 99 16 17
3 86 99 17
3 83 99 86
3 86 17 18
3 86 18 87
3 87 18 20
3 87 20 88
3 88 20 22
3 88 22 89
3 89 22 24
3 89 24 90
3 90 24 26
3 100 90 26
3 92 90 100
3 92 101 94
3 92 100 101
3 95 94 102
3 94 103 102
3 94 101 103
3 103 104 102
3 96 97 105
3 105 97 106
3 96 107 99
3 96 105 107
3 107 28 16
3 107 16 99
3 33 100 26
3 100 33 35
3 108 100 35
3 101 100 108
3 101 109 103
3 101 108 109
3 104 103 110
3 110 103 109
3 105 106 111
3 111 106 112
3 111 37 38
3 107 111 38
3 105 111 107
3 107 38 28
3 42 113 108
3 42 108 35
3 108 114 109
3 108 113 114
3 110 109 115
3 115 109 114
3 111 112 116
3 116 112 117
3 118 43 37
3 111 118 37
3 116 118 111
3 118 45 43
3 49 119 113
3 49 113 42
3 113 120 114
3 113 119 120
3 115 114 121
3 121 114 120
3 116 117 122
3 122 117 123
3 116 124 118
3 116 122 124
3 124 51 45
3 124 45 118
3 57 125 119
3 57 119 49
3 119 126 120
3 119 125 126
3 121 120 127
3 127 120 126
3 122 123 128
3 128 123 129
3 122 130 124
3 122 128 130
3 131 58 51
3 124 131 51
3 130 131 124
3 131 60 58
3 65 132 125
3 65 125 57
3 125 133 126
3 125 132 133
3 127 126 134
3 134 126 133
3 129 135 128
3 137 136 135
3 136 128 135
3 136 130 128
3 130 138 131
3 130 136 138
3 139 66 60
3 131 139 60
3 138 139 131
3 140 67 66
3 140 66 139
3 141 68 67
3 141 67 140
3 142 69 68
3 142 68 141
3 143 70 69
3 143 69 142
3 143 144 70
3 70 144 65
3 144 145 65
3 145 132 65
3 132 145 133
3 133 145 146
3 133 146 134
3 137 147 136
3 149 148 147
3 148 136 147
3 148 138 136
3 138 150 139
3 138 148 150
3 139 151 140
3 139 150 151
3 140 152 141
3 140 151 152
3 141 153 142
3 141 152 153
3 142 154 143
3 142 153 154
3 144 143 155
3 155 143 154
3 149 156 148
3 148 156 150
3 150 156 157
3 150 157 151
3 151 157 158
3 151 158 152
3 152 158 159
3 152 159 153
3 153 159 160
3 153 160 154
3 154 160 161
3 154 161 155
3 164 163 162
3 166 165 162
3 162 165 164
3 166 167 165
3 170 169 168
3 72 73 168
3 73 170 168
3 73 171 170
3 172 73 74
3 172 171 73
3 76 162 163
3 172 76 163
3 74 76 172
3 162 76 78
3 162 78 166
3 173 167 166
3 78 173 166
3 80 173 78
3 175 174 82
3 174 80 82
3 174 173 80
3 177 176 175
3 175 176 174
3 177 178 176
3 181 180 179
3 181 179 169
3 169 179 168
3 179 84 168
3 84 85 168
3 168 85 72
3 91 175 82
3 175 91 93
3 175 93 177
3 183 182 95
3 95 182 93
3 182 178 93
3 178 177 93
3 183 184 182
3 179 180 98
3 180 97 98
3 180 185 97
3 179 98 84
3 102 183 95
3 102 104 183
3 104 184 183
3 104 186 184
3 189 188 187
3 185 189 187
3 106 185 187
3 97 185 106
3 110 191 190
3 186 110 190
3 104 110 186
3 191 192 190
3 187 188 193
3 193 188 194
3 193 112 106
3 193 106 187
3 115 195 191
3 115 191 110
3 192 191 196
3 196 191 195
3 193 194 197
3 197 194 198
3 197 117 112
3 197 112 193
3 121 199 195
3 121 195 115
3 196 195 200
3 200 195 199
3 197 198 201
3 201 198 202
3 201 123 117
3 201 117 197
3 127 203 199
3 127 199 121
3 200 199 204
3 204 199 203
3 202 205 201
3 123 201 205
3 206 123 205
3 129 123 206
3 208 207 203
3 127 208 203
3 134 208 127
3 203 207 204
3 135 129 209
3 129 210 209
3 129 206 210
3 209 137 135
3 144 211 145
3 212 146 145
3 212 145 211
3 212 213 146
3 213 134 146
3 213 208 134
3 210 214 209
3 214 216 215
3 214 215 147
3 209 214 147
3 137 209 147
3 215 149 147
3 218 217 211
3 144 218 211
3 155 218 144
3 211 217 212
3 212 217 219
3 212 219 213
3 216 220 215
3 220 222 221
3 220 221 156
3 215 220 156
3 149 215 156
3 223 157 156
3 223 156 221
3 224 158 157
3 224 157 223
3 225 159 158
3 225 158 224
3 226 160 159
3 226 159 225
3 160 226 227
3 228 160 227
3 161 160 228
3 155 161 218
3 218 161 228
3 222 229 221
3 221 229 223
3 223 229 230
3 223 230 224
3 224 230 231
3 224 231 225
3 225 231 232
3 225 232 226
3 226 232 233
3 226 233 227
3 236 235 234
3 238 237 234
3 234 237 236
3 240 239 238
3 238 239 237
3 242 241 240
3 240 241 239
3 244 243 242
3 242 243 241
3 244 245 243
3 248 247 246
3 250 249 246
3 246 249 248
3 249 250 235
3 250 234 235
3 250 251 234
3 234 252 238
3 234 251 252
3 252 163 164
3 240 252 164
3 238 252 240
3 240 164 165
3 240 165 242
3 242 165 167
3 253 242 167
3 244 242 253
3 245 244 254
3 244 255 254
3 244 253 255
3 257 256 255
3 255 256 254
3 257 258 256
3 246 247 259
3 259 247 260
3 259 169 170
3 250 259 170
3 246 259 250
3 250 170 171
3 250 171 251
3 251 171 172
3 251 172 252
3 252 172 163
3 173 253 167
3 253 173 174
3 253 174 255
3 255 174 176
3 255 176 257
3 262 261 178
3 178 261 176
3 261 258 176
3 258 257 176
3 262 263 261
3 266 265 264
3 266 264 260
3 260 264 259
3 264 180 259
3 180 181 259
3 259 181 169
3 182 262 178
3 268 267 184
3 184 267 182
3 267 263 182
3 263 262 182
3 268 269 267
3 264 265 270
3 270 265 271
3 270 185 180
3 270 180 264
3 186 272 268
3 186 268 184
3 269 268 273
3 273 268 272
3 270 271 189
3 271 188 189
3 271 274 188
3 270 189 185
3 190 272 186
3 190 192 272
3 192 273 272
3 192 275 273
3 278 277 276
3 274 278 276
3 194 274 276
3 188 274 194
3 196 280 279
3 275 196 279
3 192 196 275
3 280 281 279
3 277 282 276
3 194 276 282
3 283 194 282
3 198 194 283
3 200 284 280
3 200 280 196
3 281 280 285
3 285 280 284
3 283 202 198
3 286 202 283
3 288 287 284
3 200 288 284
3 204 288 200
3 284 287 285
3 205 202 289
3 202 290 289
3 202 286 290
3 289 206 205
3 208 291 207
3 291 292 207
3 292 204 207
3 292 288 204
3 289 290 293
3 293 290 294
3 293 210 206
3 293 206 289
3 213 295 291
3 213 291 208
3 292 291 296
3 296 291 295
3 294 297 293
3 297 299 298
3 297 298 214
3 293 297 214
3 210 293 214
3 298 216 214
3 218 300 217
3 301 219 217
3 301 217 300
3 301 302 219
3 219 302 213
3 302 303 213
3 303 295 213
3 295 303 296
3 298 299 304
3 304 299 305
3 306 220 216
3 298 306 216
3 304 306 298
3 306 222 220
3 227 307 228
3 307 308 228
3 228 308 218
3 308 309 218
3 309 300 218
3 300 309 301
3 301 309 310
3 301 310 302
3 305 311 304
3 313 312 311
3 312 304 311
3 312 306 304
3 314 229 222
3 306 314 222
3 312 314 306
3 315 230 229
3 315 229 314
3 316 231 230
3 316 230 315
3 317 232 231
3 317 231 316
3 318 233 232
3 318 232 317
3 307 227 233
3 318 307 233
3 319 307 318
3 308 307 320
3 320 307 319
3 313 321 312
3 312 321 314
3 314 321 322
3 314 322 315
3 315 322 323
3 315 323 316
3 316 323 324
3 316 324 317
3 317 324 325
3 317 325 318
3 318 325 326
3 318 326 319
3 319 326 327
3 319 327 320
3 330 329 328
3 235 236 328
3 236 330 328
3 236 331 330
3 332 236 237
3 332 331 236
3 333 237 239
3 333 332 237
3 334 239 241
3 334 333 239
3 335 241 243
3 335 334 241
3 337 336 245
3 336 243 245
3 336 335 243
3 337 338 336
3 340 339 248
3 248 339 247
3 249 328 329
3 340 249 329
3 248 249 340
3 328 249 235
3 254 337 245
3 341 338 337
3 254 341 337
3 256 341 254
3 343 342 258
3 342 256 258
3 342 341 256
3 343 344 342
3 339 260 247
3 345 260 339
3 261 343 258
3 347 346 263
3 263 346 261
3 346 344 261
3 344 343 261
3 347 348 346
3 350 349 266
3 266 349 265
3 266 260 345
3 266 345 350
3 267 347 263
3 267 269 347
3 269 348 347
3 269 351 348
3 349 271 265
3 352 271 349
3 273 351 269
3 273 353 351
3 352 274 271
3 354 274 352
3 275 356 355
3 353 275 355
3 273 275 353
3 356 357 355
3 359 358 278
3 278 358 277
3 278 274 354
3 278 354 359
3 279 356 275
3 279 281 356
3 281 357 356
3 281 360 357
3 282 277 361
3 277 362 361
3 277 358 362
3 361 283 282
3 285 360 281
3 285 363 360
3 361 362 364
3 364 362 365
3 364 286 283
3 364 283 361
3 288 366 287
3 366 367 287
3 367 285 287
3 367 363 285
3 365 368 364
3 286 364 368
3 369 286 368
3 290 286 369
3 371 370 366
3 288 371 366
3 292 371 288
3 366 370 367
3 369 294 290
3 372 294 369
3 296 371 292
3 296 373 371
3 297 294 374
3 294 375 374
3 294 372 375
3 374 299 297
3 302 376 303
3 376 377 303
3 377 296 303
3 377 373 296
3 375 378 374
3 299 374 378
3 379 299 378
3 305 299 379
3 308 380 309
3 381 310 309
3 381 309 380
3 381 382 310
3 310 382 302
3 382 383 302
3 383 376 302
3 376 383 377
3 379 384 305
3 305 384 311
3 313 311 384
3 313 384 385
3 387 386 380
3 308 387 380
3 320 387 308
3 380 386 381
3 381 386 388
3 381 388 382
3 385 389 313
3 313 389 321
3 321 390 322
3 389 390 321
3 322 391 323
3 390 391 322
3 323 392 324
3 391 392 323
3 392 394 393
3 325 392 393
3 324 392 325
3 325 393 395
3 396 325 395
3 326 325 396
3 326 397 327
3 396 397 326
3 320 327 387
3 387 327 397
3 394 398 393
3 393 398 395
3 401 400 399
3 403 402 399
3 399 402 401
3 405 404 403
3 403 404 402
3 407 406 405
3 405 406 404
3 409 408 407
3 407 408 406
3 409 410 408
3 413 412 411
3 329 330 411
3 330 413 411
3 330 414 413
3 331 399 400
3 414 331 400
3 330 331 414
3 399 331 332
3 399 332 403
3 403 332 333
3 403 333 405
3 405 333 334
3 405 334 407
3 407 334 335
3 407 335 409
3 415 410 409
3 335 415 409
3 336 415 335
3 417 416 338
3 416 336 338
3 416 415 336
3 419 418 417
3 417 418 416
3 419 420 418
3 411 412 340
3 412 339 340
3 412 421 339
3 411 340 329
3 341 417 338
3 417 341 342
3 417 342 419
3 342 344 419
3 344 420 419
3 344 422 420
3 425 424 423
3 421 425 423
3 345 421 423
3 339 421 345
3 426 422 344
3 426 344 346
3 346 348 426
3 426 348 427
3 423 424 350
3 424 349 350
3 424 428 349
3 423 350 345
3 351 427 348
3 351 429 427
3 432 431 430
3 428 432 430
3 352 428 430
3 349 428 352
3 353 434 433
3 429 353 433
3 351 353 429
3 434 435 433
3 430 431 436
3 436 431 437
3 436 354 352
3 436 352 430
3 355 434 353
3 355 357 434
3 357 435 434
3 357 438 435
3 436 437 359
3 437 358 359
3 437 439 358
3 436 359 354
3 360 438 357
3 360 440 438
3 439 362 358
3 441 362 439
3 363 440 360
3 363 442 440
3 441 365 362
3 443 365 441
3 367 442 363
3 367 444 442
3 368 365 445
3 365 446 445
3 365 443 446
3 445 369 368
3 371 447 370
3 447 448 370
3 448 367 370
3 448 444 367
3 446 449 445
3 369 445 449
3 450 369 449
3 372 369 450
3 452 451 447
3 371 452 447
3 373 452 371
3 447 451 448
3 450 375 372
3 453 375 450
3 377 452 373
3 377 454 452
3 453 455 375
3 375 455 378
3 379 378 455
3 379 455 456
3 458 457 383
3 458 383 382
3 377 383 454
3 454 383 457
3 384 379 459
3 379 460 459
3 379 456 460
3 459 385 384
3 387 461 386
3 462 388 386
3 462 386 461
3 462 463 388
3 463 382 388
3 463 458 382
3 460 464 459
3 459 464 385
3 464 389 385
3 464 465 389
3 465 467 466
3 390 465 466
3 389 465 390
3 468 391 390
3 468 390 466
3 469 392 391
3 469 391 468
3 469 394 392
3 395 470 396
3 471 397 396
3 471 396 470
3 471 472 397
3 397 472 387
3 472 473 387
3 473 461 387
3 461 473 462
3 462 473 474
3 462 474 463
3 467 475 466
3 466 475 468
3 468 475 476
3 468 476 469
3 469 476 477
3 469 477 394
3 477 398 394
3 477 478 398
3 395 398 470
3 398 479 470
3 398 478 479
3 470 479 471
3 471 479 480
3 471 480 472
3 483 482 481
3 481 484 483
3 486 485 401
3 401 485 400
3 487 401 402
3 487 486 401
3 488 402 404
3 488 487 402
3 406 481 482
3 488 406 482
3 404 406 488
3 489 484 481
3 406 489 481
3 408 489 406
3 491 490 410
3 490 408 410
3 490 489 408
3 491 492 490
3 494 493 413
3 413 493 412
3 495 413 414
3 495 494 413
3 414 400 485
3 414 485 495
3 415 491 410
3 496 492 491
3 415 496 491
3 416 496 415
3 497 416 418
3 497 496 416
3 418 420 497
3 497 420 498
3 501 500 499
3 493 501 499
3 421 493 499
3 412 493 421
3 422 503 502
3 498 422 502
3 420 422 498
3 503 504 502
3 499 500 425
3 500 424 425
3 500 505 424
3 499 425 421
3 426 503 422
3 426 427 503
3 427 504 503
3 427 506 504
3 509 508 507
3 505 509 507
3 428 505 507
3 424 505 428
3 429 511 510
3 506 429 510
3 427 429 506
3 511 512 510
3 507 508 432
3 508 431 432
3 508 513 431
3 507 432 428
3 433 511 429
3 433 435 511
3 435 512 511
3 435 514 512
3 513 437 431
3 515 437 513
3 438 514 435
3 438 516 514
3 515 439 437
3 517 439 515
3 440 516 438
3 440 518 516
3 517 441 439
3 519 441 517
3 442 518 440
3 442 520 518
3 519 443 441
3 521 443 519
3 444 520 442
3 444 522 520
3 521 446 443
3 523 446 521
3 448 522 444
3 448 524 522
3 523 525 446
3 446 525 449
3 450 449 525
3 450 525 526
3 452 527 451
3 527 528 451
3 528 448 451
3 528 524 448
3 526 453 450
3 529 453 526
3 454 530 527
3 454 527 452
3 528 527 531
3 531 527 530
3 455 453 532
3 453 533 532
3 453 529 533
3 532 456 455
3 458 534 457
3 534 535 457
3 457 535 454
3 535 536 454
3 536 530 454
3 530 536 531
3 533 537 532
3 456 532 537
3 538 456 537
3 460 456 538
3 540 539 534
3 458 540 534
3 463 540 458
3 534 539 535
3 538 541 460
3 460 541 464
3 464 542 465
3 541 542 464
3 467 465 542
3 467 542 543
3 545 544 473
3 545 473 472
3 473 546 474
3 544 546 473
3 463 474 540
3 540 474 546
3 543 547 467
3 467 547 475
3 475 548 476
3 547 548 475
3 476 549 477
3 548 549 476
3 549 551 550
3 478 549 550
3 477 549 478
3 478 550 552
3 553 478 552
3 479 478 553
3 479 554 480
3 553 554 479
3 472 480 545
3 545 480 554
3 551 555 550
3 550 555 552
3 558 557 556
3 560 559 556
3 556 559 558
3 482 483 560
3 483 559 560
3 483 561 559
3 563 562 484
3 562 483 484
3 562 561 483
3 563 564 562
3 566 565 486
3 486 565 485
3 487 556 557
3 566 487 557
3 486 487 566
3 556 487 488
3 556 488 560
3 560 488 482
3 489 563 484
3 567 564 563
3 489 567 563
3 490 567 489
3 490 492 567
3 567 492 568
3 570 569 494
3 494 569 493
3 571 494 495
3 571 570 494
3 495 485 565
3 495 565 571
3 572 568 492
3 572 492 496
3 573 496 497
3 573 572 496
3 497 498 573
3 573 498 574
3 576 575 501
3 501 575 500
3 501 493 569
3 501 569 576
3 577 574 498
3 577 498 502
3 502 504 577
3 577 504 578
3 581 580 579
3 575 581 579
3 505 575 579
3 500 575 505
3 506 583 582
3 578 506 582
3 504 506 578
3 583 584 582
3 579 580 509
3 580 508 509
3 580 585 508
3 579 509 505
3 510 583 506
3 510 512 583
3 512 584 583
3 512 586 584
3 585 513 508
3 587 513 585
3 514 586 512
3 514 588 586
3 587 515 513
3 589 515 587
3 516 588 514
3 516 590 588
3 589 517 515
3 591 517 589
3 518 590 516
3 518 592 590
3 591 519 517
3 593 519 591
3 520 592 518
3 520 594 592
3 593 521 519
3 595 521 593
3 522 594 520
3 522 596 594
3 595 523 521
3 597 523 595
3 524 596 522
3 524 598 596
3 597 599 523
3 523 599 525
3 526 525 599
3 526 599 600
3 528 598 524
3 528 601 598
3 600 529 526
3 602 529 600
3 531 601 528
3 531 603 601
3 602 533 529
3 604 533 602
3 606 605 536
3 606 536 535
3 531 536 603
3 603 536 605
3 604 607 533
3 533 607 537
3 538 537 607
3 538 607 608
3 610 609 539
3 610 539 540
3 535 539 606
3 606 539 609
3 608 611 538
3 538 611 541
3 541 612 542
3 611 612 541
3 543 542 612
3 543 612 613
3 615 614 544
3 615 544 545
3 544 616 546
3 614 616 544
3 540 546 610
3 610 546 616
3 613 617 543
3 543 617 547
3 547 618 548
3 617 618 547
3 618 620 619
3 549 618 619
3 548 618 549
3 619 551 549
3 622 621 553
3 622 553 552
3 553 623 554
3 621 623 553
3 545 554 615
3 615 554 623
3 620 624 619
3 619 624 551
3 624 555 551
3 624 625 555
3 552 555 622
3 622 555 625
3 627 626 558
3 558 626 557
3 628 558 559
3 628 627 558
3 629 559 561
3 629 628 559
3 630 561 562
3 630 629 561
3 562 564 630
3 630 564 631
3 633 632 566
3 566 632 565
3 566 557 626
3 566 626 633
3 634 631 564
3 634 564 567
3 567 568 634
3 634 568 635
3 637 636 570
3 570 636 569
3 638 570 571
3 638 637 570
3 571 565 632
3 571 632 638
3 639 635 568
3 639 568 572
3 640 572 573
3 640 639 572
3 573 574 640
3 640 574 641
3 643 642 576
3 576 642 575
3 576 569 636
3 576 636 643
3 644 641 574
3 644 574 577
3 577 578 644
3 644 578 645
3 647 646 581
3 581 646 580
3 581 575 642
3 581 642 647
3 648 645 578
3 648 578 582
3 582 584 648
3 648 584 649
3 646 585 580
3 650 585 646
3 586 649 584
3 586 651 649
3 650 587 585
3 652 587 650
3 588 651 586
3 588 653 651
3 652 589 587
3 654 589 652
3 590 653 588
3 590 655 653
3 654 591 589
3 656 591 654
3 592 655 590
3 592 657 655
3 656 593 591
3 658 593 656
3 594 657 592
3 594 659 657
3 658 595 593
3 660 595 658
3 596 659 594
3 596 661 659
3 660 597 595
3 662 597 660
3 598 661 596
3 598 663 661
3 599 597 664
3 597 665 664
3 597 662 665
3 664 600 599
3 601 663 598
3 601 666 663
3 665 667 664
3 600 664 667
3 668 600 667
3 602 600 668
3 603 666 601
3 603 669 666
3 668 604 602
3 670 604 668
3 672 671 605
3 672 605 606
3 603 605 669
3 669 605 671
3 670 673 604
3 604 673 607
3 608 607 673
3 608 673 674
3 676 675 609
3 676 609 610
3 606 609 672
3 672 609 675
3 674 677 608
3 608 677 611
3 677 679 678
3 612 677 678
3 611 677 612
3 678 613 612
3 681 680 614
3 681 614 615
3 614 682 616
3 680 682 614
3 610 616 676
3 676 616 682
3 679 683 678
3 678 683 613
3 683 617 613
3 683 684 617
3 617 685 618
3 684 685 617
3 620 618 685
3 620 685 686
3 688 687 621
3 688 621 622
3 621 689 623
3 687 689 621
3 615 623 681
3 681 623 689
3 686 690 620
3 620 690 624
3 624 691 625
3 690 691 624
3 622 625 688
3 688 625 691
3 692 626 627
3 692 627 693
3 627 694 693
3 627 628 694
3 695 628 629
3 695 694 628
3 697 695 696
3 695 630 696
3 695 629 630
3 631 696 630
3 699 698 633
3 633 698 632
3 633 626 692
3 700 633 692
3 699 633 700
3 700 692 693
3 701 697 696
3 701 696 631
3 634 701 631
3 702 701 634
3 634 635 702
3 702 635 703
3 705 704 637
3 637 704 636
3 706 637 638
3 706 705 637
3 638 632 698
3 638 698 706
3 707 703 635
3 707 635 639
3 708 639 640
3 708 707 639
3 640 641 708
3 708 641 709
3 711 710 643
3 643 710 642
3 643 636 704
3 643 704 711
3 712 709 641
3 712 641 644
3 644 645 712
3 712 645 713
3 715 714 647
3 647 714 646
3 647 642 710
3 647 710 715
3 645 648 716
3 717 645 716
3 713 645 717
3 649 716 648
3 714 650 646
3 718 650 714
3 719 717 716
3 716 649 719
3 649 720 719
3 649 651 720
3 718 652 650
3 721 652 718
3 653 720 651
3 653 722 720
3 721 654 652
3 723 654 721
3 655 722 653
3 655 724 722
3 723 656 654
3 725 656 723
3 657 724 655
3 657 726 724
3 725 658 656
3 727 658 725
3 659 726 657
3 659 728 726
3 727 660 658
3 729 660 727
3 661 728 659
3 661 730 728
3 729 662 660
3 731 662 729
3 663 730 661
3 663 732 730
3 734 665 733
3 665 731 733
3 665 662 731
3 735 734 733
3 666 732 663
3 666 736 732
3 734 667 665
3 668 667 734
3 735 668 734
3 737 668 735
3 740 739 738
3 739 736 738
3 736 669 738
3 736 666 669
3 737 670 668
3 741 670 737
3 740 738 671
3 672 740 671
3 742 740 672
3 671 738 669
3 741 743 670
3 670 743 673
3 674 673 743
3 674 743 744
3 746 745 675
3 746 675 676
3 672 675 742
3 742 675 745
3 744 747 674
3 674 747 677
3 749 748 679
3 677 749 679
3 747 749 677
3 750 748 749
3 752 751 680
3 752 680 681
3 680 753 682
3 751 753 680
3 676 682 746
3 746 682 753
3 748 683 679
3 750 754 748
3 754 683 748
3 754 684 683
3 684 755 685
3 754 755 684
3 757 756 686
3 685 757 686
3 755 757 685
3 759 758 756
3 759 756 757
3 687 688 758
3 759 687 758
3 760 687 759
3 687 761 689
3 760 761 687
3 681 689 752
3 752 689 761
3 756 690 686
3 690 756 691
3 691 756 758
3 691 758 688
3 762 693 694
3 695 763 694
3 694 763 762
3 697 763 695
3 765 764 699
3 699 764 698
3 766 699 700
3 766 765 699
3 700 693 762
3 767 700 762
3 766 700 767
3 767 762 763
3 767 763 768
3 768 763 697
3 701 768 697
3 769 768 701
3 770 701 702
3 770 769 701
3 702 703 770
3 770 703 771
3 773 772 705
3 705 772 704
3 774 705 706
3 774 773 705
3 706 698 764
3 706 764 774
3 775 771 703
3 775 703 707
3 776 707 708
3 776 775 707
3 708 709 776
3 776 709 777
3 778 710 711
3 779 778 711
3 704 779 711
3 772 779 704
3 780 777 709
3 780 709 712
3 712 713 780
3 780 713 781
3 782 714 715
3 783 782 715
3 783 715 710
3 784 783 710
3 778 784 710
3 784 778 779
3 717 781 713
3 717 785 781
3 787 786 782
3 786 714 782
3 786 718 714
3 787 782 783
3 717 719 788
3 789 717 788
3 785 717 789
3 720 788 719
3 786 721 718
3 790 721 786
3 791 789 788
3 788 720 791
3 720 792 791
3 720 722 792
3 790 723 721
3 793 723 790
3 724 792 722
3 724 794 792
3 793 725 723
3 795 725 793
3 726 794 724
3 726 796 794
3 795 727 725
3 797 727 795
3 728 796 726
3 728 798 796
3 797 729 727
3 799 729 797
3 730 798 728
3 730 800 798
3 799 731 729
3 801 731 799
3 732 800 730
3 732 802 800
3 801 803 731
3 731 803 733
3 735 733 803
3 735 803 804
3 807 806 805
3 806 802 805
3 802 736 805
3 802 732 736
3 804 737 735
3 808 737 804
3 807 805 739
3 740 807 739
3 809 807 740
3 739 805 736
3 808 741 737
3 810 741 808
3 813 812 811
3 812 809 811
3 809 742 811
3 809 740 742
3 810 814 741
3 741 814 743
3 744 743 814
3 744 814 815
3 813 811 745
3 746 813 745
3 816 813 746
3 745 811 742
3 815 817 744
3 744 817 747
3 747 818 749
3 817 818 747
3 750 749 818
3 750 818 819
3 822 821 820
3 751 752 820
3 821 751 820
3 823 751 821
3 751 824 753
3 823 824 751
3 746 753 816
3 816 753 824
3 819 825 750
3 750 825 754
3 754 826 755
3 825 826 754
3 755 827 757
3 826 827 755
3 757 828 759
3 827 828 757
3 759 829 760
3 828 829 759
3 820 761 822
3 761 829 822
3 761 760 829
3 761 820 752
3 830 764 765
3 766 831 765
3 765 831 830
3 831 766 832
3 766 833 832
3 766 767 833
3 834 767 768
3 834 833 767
3 836 834 835
3 834 769 835
3 834 768 769
3 770 837 769
3 769 837 835
3 771 837 770
3 838 772 773
3 838 773 839
3 773 840 839
3 773 774 840
3 774 764 830
3 841 774 830
3 840 774 841
3 841 830 831
3 841 831 842
3 842 831 832
3 843 836 835
3 843 835 837
3 843 837 844
3 844 837 771
3 775 844 771
3 845 844 775
3 847 845 846
3 845 776 846
3 845 775 776
3 777 846 776
3 849 848 838
3 848 772 838
3 848 779 772
3 849 838 839
3 850 847 846
3 852 850 851
3 851 850 780
3 850 846 780
3 846 777 780
3 781 851 780
3 854 853 784
3 784 853 783
3 784 779 848
3 784 848 854
3 855 852 851
3 851 781 855
3 781 856 855
3 781 785 856
3 857 786 787
3 858 857 787
3 783 858 787
3 853 858 783
3 789 856 785
3 789 859 856
3 861 860 857
3 860 786 857
3 860 790 786
3 861 857 858
3 789 791 862
3 863 789 862
3 859 789 863
3 792 862 791
3 860 793 790
3 864 793 860
3 865 863 862
3 862 792 865
3 792 866 865
3 792 794 866
3 864 795 793
3 867 795 864
3 796 866 794
3 796 868 866
3 867 797 795
3 869 797 867
3 798 868 796
3 798 870 868
3 869 799 797
3 871 799 869
3 800 870 798
3 800 872 870
3 874 801 873
3 801 871 873
3 801 799 871
3 875 874 873
3 878 877 876
3 877 872 876
3 872 802 876
3 872 800 802
3 874 803 801
3 804 803 874
3 875 804 874
3 879 804 875
3 878 876 806
3 807 878 806
3 880 878 807
3 806 876 802
3 879 808 804
3 881 808 879
3 809 880 807
3 809 882 880
3 884 810 883
3 810 881 883
3 810 808 881
3 885 884 883
3 887 886 812
3 887 812 813
3 809 812 882
3 882 812 886
3 884 814 810
3 889 888 815
3 889 815 814
3 885 889 814
3 884 885 814
3 890 888 889
3 893 892 891
3 892 887 891
3 887 816 891
3 887 813 816
3 888 817 815
3 890 894 888
3 894 817 888
3 894 818 817
3 896 895 819
3 818 896 819
3 894 896 818
3 897 895 896
3 900 899 898
3 902 901 898
3 902 898 899
3 821 822 901
3 902 821 901
3 903 821 902
3 821 904 823
3 903 904 821
3 891 824 893
3 824 904 893
3 824 823 904
3 824 891 816
3 895 825 819
3 897 905 895
3 905 825 895
3 905 826 825
3 826 906 827
3 905 906 826
3 898 828 900
3 828 906 900
3 828 827 906
3 828 898 829
3 829 898 901
3 829 901 822
3 907 832 833
3 834 908 833
3 833 908 907
3 836 908 834
3 909 839 840
3 909 840 910
3 840 911 910
3 840 841 911
3 912 841 842
3 912 911 841
3 842 832 907
3 913 842 907
3 912 842 913
3 913 907 908
3 913 908 914
3 914 908 836
3 843 914 836
3 915 914 843
3 916 843 844
3 916 915 843
3 918 916 917
3 916 845 917
3 916 844 845
3 847 917 845
3 919 848 849
3 920 919 849
3 920 849 839
3 921 920 839
3 909 921 839
3 921 909 910
3 922 918 917
3 924 922 923
3 923 922 850
3 922 917 850
3 917 847 850
3 852 923 850
3 925 853 854
3 926 925 854
3 926 854 848
3 927 926 848
3 919 927 848
3 927 919 920
3 928 924 923
3 930 928 929
3 929 928 855
3 928 923 855
3 923 852 855
3 856 929 855
3 932 931 925
3 931 853 925
3 931 858 853
3 932 925 926
3 933 930 929
3 929 856 933
3 856 934 933
3 856 859 934
3 935 860 861
3 936 935 861
3 858 936 861
3 931 936 858
3 863 934 859
3 863 937 934
3 939 938 935
3 938 860 935
3 938 864 860
3 939 935 936
3 863 865 940
3 941 863 940
3 937 863 941
3 866 940 865
3 938 867 864
3 942 867 938
3 941 940 943
3 941 943 944
3 868 943 866
3 866 943 940
3 942 869 867
3 945 869 942
3 944 943 946
3 944 946 947
3 870 946 868
3 868 946 943
3 949 871 948
3 871 945 948
3 871 869 945
3 950 949 948
3 947 946 951
3 947 951 952
3 872 951 870
3 870 951 946
3 949 873 871
3 875 873 949
3 950 875 949
3 953 875 950
3 952 951 877
3 878 952 877
3 954 952 878
3 877 951 872
3 953 879 875
3 955 879 953
3 880 954 878
3 880 956 954
3 958 881 957
3 881 955 957
3 881 879 955
3 959 958 957
3 962 961 960
3 961 956 960
3 956 882 960
3 956 880 882
3 958 883 881
3 885 883 958
3 959 885 958
3 963 885 959
3 962 960 886
3 887 962 886
3 964 962 887
3 886 960 882
3 963 965 885
3 885 965 889
3 967 966 890
3 889 967 890
3 965 967 889
3 968 966 967
3 971 970 969
3 973 972 969
3 973 969 970
3 892 893 972
3 973 892 972
3 974 892 973
3 887 892 964
3 964 892 974
3 966 894 890
3 968 975 966
3 975 894 966
3 975 896 894
3 977 976 897
3 896 977 897
3 975 977 896
3 979 978 976
3 979 976 977
3 899 900 978
3 979 899 978
3 980 899 979
3 899 981 902
3 980 981 899
3 969 903 971
3 903 981 971
3 903 902 981
3 903 969 904
3 904 969 972
3 904 972 893
3 976 905 897
3 905 976 906
3 906 976 978
3 906 978 900
3 982 910 911
3 912 983 911
3 911 983 982
3 913 984 912
3 912 984 983
3 914 985 913
3 913 985 984
3 915 986 914
3 914 986 985
3 916 987 915
3 915 987 986
3 918 987 916
3 988 920 921
3 989 988 921
3 989 921 910
3 990 989 910
3 982 990 910
3 990 982 983
3 990 983 991
3 991 983 984
3 991 984 992
3 992 984 985
3 992 985 993
3 993 985 986
3 993 986 994
3 996 995 994
3 986 996 994
3 987 996 986
3 922 997 918
3 997 987 918
3 997 996 987
3 924 997 922
3 998 926 927
3 999 998 927
3 999 927 920
3 1000 999 920
3 988 1000 920
3 1000 988 989
3 1001 995 996
3 1001 996 997
3 1001 997 1002
3 1004 1002 1003
3 1003 1002 928
3 1002 997 928
3 997 924 928
3 930 1003 928
3 1005 931 932
3 1006 1005 932
3 1006 932 926
3 1007 1006 926
3 998 1007 926
3 1007 998 999
3 1008 1004 1003
3 1010 1008 1009
3 1009 1008 933
3 1008 1003 933
3 1003 930 933
3 934 1009 933
3 1012 1011 1005
3 1011 931 1005
3 1011 936 931
3 1012 1005 1006
3 1010 1009 1013
3 1010 1013 1014
3 937 1013 934
3 934 1013 1009
3 1015 938 939
3 1016 1015 939
3 936 1016 939
3 1011 1016 936
3 1014 1013 1017
3 1014 1017 1018
3 941 1017 937
3 937 1017 1013
3 1019 942 1015
3 1015 942 938
3 1015 1016 1020
3 1015 1020 1019
3 1021 1018 1017
3 1017 941 1021
3 941 1022 1021
3 941 944 1022
3 1023 945 1019
3 1019 945 942
3 1019 1020 1024
3 1019 1024 1023
3 947 1022 944
3 947 1025 1022
3 1023 948 945
3 1027 1026 950
3 1027 950 948
3 1024 1027 948
3 1023 1024 948
3 1028 1026 1027
3 1031 1030 1029
3 1030 1025 1029
3 1025 952 1029
3 1025 947 952
3 1032 953 1026
3 1026 953 950
3 1026 1028 1033
3 1026 1033 1032
3 1031 1029 1034
3 1031 1034 1035
3 954 1034 952
3 952 1034 1029
3 1036 955 1032
3 1032 955 953
3 1032 1033 1037
3 1032 1037 1036
3 1035 1034 1038
3 1035 1038 1039
3 956 1038 954
3 954 1038 1034
3 1036 957 955
3 959 957 1036
3 1037 959 1036
3 1040 959 1037
3 1043 1042 1041
3 1041 1042 1039
3 1041 1039 1038
3 962 1041 1038
3 961 962 1038
3 961 1038 956
3 1045 963 1044
3 963 1040 1044
3 963 959 1040
3 1047 1046 1045
3 1047 1045 1044
3 1049 1048 1046
3 1049 1046 1047
3 1050 1048 1049
3 1053 1052 1051
3 1055 1054 1051
3 1055 1051 1052
3 1054 1055 1043
3 1041 1054 1043
3 1056 1054 1041
3 964 1056 962
3 962 1056 1041
3 1045 965 963
3 965 1045 967
3 967 1045 1046
3 967 1046 968
3 1046 1057 968
3 1046 1048 1057
3 1048 1050 1058
3 1059 1048 1058
3 1057 1048 1059
3 1061 1060 1059
3 1061 1059 1058
3 1063 1062 1060
3 1063 1060 1061
3 1065 1064 1062
3 1065 1062 1063
3 1064 1065 1053
3 1064 1053 1051
3 971 1064 1051
3 970 971 1051
3 970 1051 973
3 973 1051 1054
3 973 1054 974
3 974 1054 1056
3 974 1056 964
3 1057 975 968
3 975 1057 977
3 977 1057 1059
3 977 1059 979
3 979 1059 1060
3 979 1060 980
3 980 1060 1062
3 980 1062 981
3 981 1062 1064
3 981 1064 971
3 1066 989 990
3 991 1067 990
3 990 1067 1066
3 992 1068 991
3 991 1068 1067
3 993 1069 992
3 992 1069 1068
3 994 1070 993
3 993 1070 1069
3 995 1070 994
3 1071 999 1000
3 1072 1071 1000
3 1072 1000 989
3 1073 1072 989
3 1066 1073 989
3 1073 1066 1067
3 1073 1067 1074
3 1074 1067 1068
3 1074 1068 1075
3 1075 1068 1069
3 1075 1069 1076
3 1076 1069 1070
3 1076 1070 1077
3 1079 1077 1078
3 1078 1077 1001
3 1077 1070 1001
3 1070 995 1001
3 1002 1080 1001
3 1001 1080 1078
3 1004 1080 1002
3 1081 1006 1007
3 1082 1081 1007
3 1082 1007 999
3 1083 1082 999
3 1071 1083 999
3 1083 1071 1072
3 1084 1079 1078
3 1086 1085 1084
3 1078 1086 1084
3 1080 1086 1078
3 1008 1087 1004
3 1087 1080 1004
3 1087 1086 1080
3 1010 1087 1008
3 1088 1011 1012
3 1089 1088 1012
3 1089 1012 1006
3 1090 1089 1006
3 1081 1090 1006
3 1090 1081 1082
3 1091 1085 1086
3 1091 1086 1087
3 1091 1087 1092
3 1087 1010 1092
3 1010 1093 1092
3 1010 1014 1093
3 1094 1016 1088
3 1088 1016 1011
3 1088 1089 1095
3 1088 1095 1094
3 1018 1093 1014
3 1018 1096 1093
3 1097 1020 1094
3 1094 1020 1016
3 1094 1095 1098
3 1094 1098 1097
3 1018 1021 1099
3 1100 1018 1099
3 1096 1018 1100
3 1022 1099 1021
3 1101 1024 1097
3 1097 1024 1020
3 1097 1098 1102
3 1097 1102 1101
3 1100 1099 1103
3 1100 1103 1104
3 1025 1103 1022
3 1022 1103 1099
3 1101 1027 1024
3 1028 1027 1101
3 1102 1028 1101
3 1105 1028 1102
3 1104 1103 1030
3 1031 1104 1030
3 1106 1104 1031
3 1030 1103 1025
3 1105 1033 1028
3 1107 1033 1105
3 1035 1106 1031
3 1035 1108 1106
3 1110 1037 1109
3 1037 1107 1109
3 1037 1033 1107
3 1111 1110 1109
3 1114 1113 1112
3 1116 1115 1112
3 1116 1112 1113
3 1116 1108 1115
3 1108 1039 1115
3 1108 1035 1039
3 1117 1040 1110
3 1110 1040 1037
3 1110 1111 1118
3 1119 1110 1118
3 1117 1110 1119
3 1120 1119 1118
3 1114 1112 1121
3 1114 1121 1122
3 1043 1121 1042
3 1121 1115 1042
3 1121 1112 1115
3 1042 1115 1039
3 1117 1044 1040
3 1044 1117 1047
3 1047 1117 1119
3 1120 1123 1119
3 1123 1047 1119
3 1123 1049 1047
3 1125 1124 1050
3 1049 1125 1050
3 1123 1125 1049
3 1127 1126 1124
3 1127 1124 1125
3 1129 1128 1126
3 1129 1126 1127
3 1131 1130 1128
3 1131 1128 1129
3 1052 1053 1130
3 1131 1052 1130
3 1132 1052 1131
3 1121 1055 1122
3 1055 1132 1122
3 1055 1052 1132
3 1055 1121 1043
3 1124 1058 1050
3 1058 1124 1061
3 1061 1124 1126
3 1061 1126 1063
3 1063 1126 1128
3 1063 1128 1065
3 1065 1128 1130
3 1065 1130 1053
3 1133 1072 1073
3 1074 1134 1073
3 1073 1134 1133
3 1075 1135 1074
3 1074 1135 1134
3 1076 1136 1075
3 1075 1136 1135
3 1077 1137 1076
3 1076 1137 1136
3 1079 1137 1077
3 1138 1082 1083
3 1072 1133 1083
3 1133 1138 1083
3 1133 1139 1138
3 1134 1141 1140
3 1139 1134 1140
3 1133 1134 1139
3 1141 1134 1135
3 1141 1135 1142
3 1142 1135 1136
3 1142 1136 1143
3 1145 1144 1143
3 1136 1145 1143
3 1137 1145 1136
3 1084 1146 1079
3 1146 1137 1079
3 1146 1145 1137
3 1085 1146 1084
3 1147 1089 1090
3 1082 1138 1090
3 1138 1147 1090
3 1138 1148 1147
3 1139 1150 1149
3 1148 1139 1149
3 1138 1139 1148
3 1150 1139 1140
3 1151 1144 1145
3 1151 1145 1146
3 1151 1146 1152
3 1154 1152 1153
3 1153 1152 1091
3 1152 1146 1091
3 1146 1085 1091
3 1092 1155 1091
3 1091 1155 1153
3 1093 1155 1092
3 1156 1095 1147
3 1147 1095 1089
3 1157 1147 1148
3 1156 1147 1157
3 1148 1149 1158
3 1148 1158 1157
3 1154 1153 1159
3 1154 1159 1160
3 1161 1153 1155
3 1159 1153 1161
3 1096 1161 1093
3 1093 1161 1155
3 1162 1098 1156
3 1156 1098 1095
3 1157 1164 1163
3 1162 1157 1163
3 1156 1157 1162
3 1164 1157 1158
3 1160 1159 1165
3 1160 1165 1166
3 1167 1159 1161
3 1165 1159 1167
3 1100 1167 1096
3 1096 1167 1161
3 1168 1102 1162
3 1162 1102 1098
3 1162 1163 1169
3 1162 1169 1168
3 1166 1165 1170
3 1166 1170 1171
3 1172 1165 1167
3 1170 1165 1172
3 1104 1172 1100
3 1100 1172 1167
3 1173 1105 1168
3 1168 1105 1102
3 1168 1169 1174
3 1168 1174 1173
3 1171 1170 1175
3 1171 1175 1176
3 1177 1170 1172
3 1175 1170 1177
3 1106 1177 1104
3 1104 1177 1172
3 1178 1107 1173
3 1173 1107 1105
3 1173 1174 1179
3 1180 1173 1179
3 1178 1173 1180
3 1181 1180 1179
3 1176 1175 1182
3 1176 1182 1183
3 1184 1175 1177
3 1182 1175 1184
3 1108 1184 1106
3 1106 1184 1177
3 1178 1109 1107
3 1109 1178 1111
3 1178 1185 1111
3 1178 1180 1185
3 1180 1181 1186
3 1187 1180 1186
3 1185 1180 1187
3 1188 1187 1186
3 1191 1190 1189
3 1193 1192 1189
3 1193 1189 1190
3 1192 1193 1183
3 1192 1183 1182
3 1114 1192 1182
3 1113 1114 1182
3 1113 1182 1116
3 1116 1182 1184
3 1116 1184 1108
3 1185 1118 1111
3 1118 1185 1120
3 1185 1194 1120
3 1185 1187 1194
3 1187 1188 1195
3 1196 1187 1195
3 1194 1187 1196
3 1198 1197 1196
3 1198 1196 1195
3 1200 1199 1197
3 1200 1197 1198
3 1199 1200 1191
3 1189 1199 1191
3 1201 1199 1189
3 1202 1189 1192
3 1201 1189 1202
3 1122 1202 1114
3 1114 1202 1192
3 1194 1123 1120
3 1123 1194 1125
3 1125 1194 1196
3 1125 1196 1127
3 1127 1196 1197
3 1127 1197 1129
3 1129 1197 1199
3 1129 1199 1131
3 1131 1199 1201
3 1131 1201 1132
3 1132 1201 1202
3 1132 1202 1122
3 1203 1140 1141
3 1142 1204 1141
3 1141 1204 1203
3 1143 1205 1142
3 1142 1205 1204
3 1144 1205 1143
3 1206 1149 1150
3 1140 1203 1150
3 1203 1206 1150
3 1203 1207 1206
3 1208 1203 1204
3 1207 1203 1208
3 1209 1204 1205
3 1208 1204 1209
3 1151 1210 1144
3 1210 1205 1144
3 1210 1209 1205
3 1152 1211 1151
3 1151 1211 1210
3 1154 1211 1152
3 1212 1158 1206
3 1206 1158 1149
3 1213 1206 1207
3 1212 1206 1213
3 1214 1207 1208
3 1213 1207 1214
3 1215 1208 1209
3 1214 1208 1215
3 1216 1209 1210
3 1215 1209 1216
3 1217 1210 1211
3 1216 1210 1217
3 1160 1217 1154
3 1154 1217 1211
3 1218 1163 1164
3 1158 1212 1164
3 1212 1218 1164
3 1212 1219 1218
3 1213 1221 1220
3 1219 1213 1220
3 1212 1213 1219
3 1221 1213 1214
3 1221 1214 1222
3 1222 1214 1215
3 1222 1215 1223
3 1225 1224 1223
3 1215 1225 1223
3 1216 1225 1215
3 1226 1216 1217
3 1225 1216 1226
3 1166 1226 1160
3 1160 1226 1217
3 1227 1169 1218
3 1218 1169 1163
3 1219 1229 1228
3 1227 1219 1228
3 1218 1219 1227
3 1229 1219 1220
3 1224 1225 1230
3 1224 1230 1231
3 1232 1225 1226
3 1230 1225 1232
3 1171 1232 1166
3 1166 1232 1226
3 1233 1174 1227
3 1227 1174 1169
3 1227 1228 1234
3 1235 1227 1234
3 1233 1227 1235
3 1236 1235 1234
3 1231 1230 1237
3 1231 1237 1238
3 1239 1230 1232
3 1237 1230 1239
3 1176 1239 1171
3 1171 1239 1232
3 1233 1179 1174
3 1179 1233 1181
3 1233 1240 1181
3 1233 1235 1240
3 1235 1236 1241
3 1242 1235 1241
3 1240 1235 1242
3 1244 1243 1242
3 1244 1242 1241
3 1246 1245 1243
3 1246 1243 1244
3 1245 1246 1238
3 1237 1245 1238
3 1247 1245 1237
3 1248 1237 1239
3 1247 1237 1248
3 1183 1248 1176
3 1176 1248 1239
3 1240 1186 1181
3 1186 1240 1188
3 1240 1249 1188
3 1240 1242 1249
3 1250 1242 1243
3 1249 1242 1250
3 1251 1243 1245
3 1250 1243 1251
3 1191 1251 1190
3 1251 1247 1190
3 1251 1245 1247
3 1190 1247 1193
3 1193 1247 1248
3 1193 1248 1183
3 1249 1195 1188
3 1195 1249 1198
3 1198 1249 1250
3 1198 1250 1200
3 1200 1250 1251
3 1200 1251 1191
3 1252 1220 1221
3 1222 1253 1221
3 1221 1253 1252
3 1223 1254 1222
3 1222 1254 1253
3 1224 1254 1223
3 1255 1228 1229
3 1220 1252 1229
3 1252 1255 1229
3 1252 1256 1255
3 1257 1252 1253
3 1256 1252 1257
3 1258 1253 1254
3 1257 1253 1258
3 1231 1258 1224
3 1224 1258 1254
3 1255 1234 1228
3 1234 1255 1236
3 1255 1259 1236
3 1255 1256 1259
3 1260 1256 1257
3 1259 1256 1260
3 1261 1257 1258
3 1260 1257 1261
3 1238 1261 1231
3 1231 1261 1258
3 1259 1241 1236
3 1241 1259 1244
3 1244 1259 1260
3 1244 1260 1246
3 1246 1260 1261
3 1246 1261 1238
